<?xml version="1.0" encoding="UTF-8" standalone="no"?>
<!-- Uploaded to: SVG Repo, www.svgrepo.com, Generator: SVG Repo Mixer Tools -->

<svg
   version="1.1"
   id="Layer_1"
   viewBox="0 0 161.22017 102.02212"
   xml:space="preserve"
   sodipodi:docname="ac-cool.svg"
   width="161.22017"
   height="102.02211"
   inkscape:version="1.3.2 (091e20e, 2023-11-25, custom)"
   xmlns:inkscape="http://www.inkscape.org/namespaces/inkscape"
   xmlns:sodipodi="http://sodipodi.sourceforge.net/DTD/sodipodi-0.dtd"
   xmlns="http://www.w3.org/2000/svg"
   xmlns:svg="http://www.w3.org/2000/svg"><defs
   id="defs11"><rect
     x="32.11808"
     y="199.00615"
     width="92.575645"
     height="35.266914"
     id="rect12" /><rect
     x="202.78474"
     y="195.85732"
     width="88.79705"
     height="44.083641"
     id="rect11" /></defs><sodipodi:namedview
   id="namedview11"
   pagecolor="#ffffff"
   bordercolor="#000000"
   borderopacity="0.25"
   inkscape:showpageshadow="2"
   inkscape:pageopacity="0.0"
   inkscape:pagecheckerboard="0"
   inkscape:deskcolor="#d1d1d1"
   inkscape:zoom="1.5878906"
   inkscape:cx="108.63469"
   inkscape:cy="70.84871"
   inkscape:window-width="1920"
   inkscape:window-height="1009"
   inkscape:window-x="-8"
   inkscape:window-y="-8"
   inkscape:window-maximized="1"
   inkscape:current-layer="Layer_1" />
<path
   style="fill:#f2f2f2;stroke-width:0.259583"
   d="m 5.6678928,10.688114 v 77.223402 c 0,3.527775 3.64366,6.388299 8.1372102,6.388299 H 147.53069 c 4.49355,0 8.13721,-2.860749 8.13721,-6.388299 V 10.688114 c 0,-3.5305385 -3.64366,-6.3882993 -8.13721,-6.3882993 H 13.805103 c -4.4935502,0 -8.1372102,2.8577608 -8.1372102,6.3882993 z"
   id="path1" /><path
   style="fill:#2c5aa0;stroke-width:0.105426"
   d="M 11.662343,8.3994765 V 22.232737 c 0,0.631926 3.35514,1.144359 7.49288,1.144359 H 142.29207 c 4.13774,0 7.49288,-0.51246 7.49288,-1.144359 V 8.3994765 c 0,-0.632439 -3.35514,-1.144359 -7.49288,-1.144359 H 19.155223 c -4.13774,0 -7.49288,0.51192 -7.49288,1.144359 z"
   id="path1-2" /><g
   inkscape:groupmode="layer"
   id="layer1"
   inkscape:label="Layer 1"
   transform="matrix(1.0719323,0,0,3.6589899,-307.8424,-918.95643)"><rect
     style="fill:#e6e6e6;stroke-width:0.0827024"
     id="rect15"
     width="135.82376"
     height="13.850711"
     x="294.26904"
     y="262.49585" /></g><ellipse
   style="fill:#999999;stroke-width:2.40345"
   cx="67.83091"
   cy="33.901043"
   id="circle28-5-2-25"
   rx="2.4318063"
   ry="2.3754234" /><ellipse
   style="fill:#999999;stroke-width:2.40345"
   cx="62.083782"
   cy="33.901043"
   id="circle28-5-2-4"
   rx="2.4318063"
   ry="2.3754234" /><ellipse
   style="fill:#999999;stroke-width:2.40345"
   cx="55.953518"
   cy="33.901043"
   id="circle28-5-2-2"
   rx="2.4318063"
   ry="2.3754234" /><ellipse
   style="fill:#999999;stroke-width:2.40345"
   cx="49.440105"
   cy="33.722599"
   id="circle28-5-2-3"
   rx="2.4318063"
   ry="2.3754234" /><ellipse
   style="fill:#999999;stroke-width:2.40345"
   cx="42.498272"
   cy="34.037331"
   id="circle28-5-2"
   rx="2.4318063"
   ry="2.3754234" /><ellipse
   style="fill:#999999;stroke-width:2.40345"
   cx="118.70158"
   cy="33.722599"
   id="circle28-5-2-25-1"
   rx="2.4318063"
   ry="2.3754234" /><ellipse
   style="fill:#999999;stroke-width:2.40345"
   cx="112.95444"
   cy="33.722599"
   id="circle28-5-2-4-6"
   rx="2.4318063"
   ry="2.3754234" /><ellipse
   style="fill:#999999;stroke-width:2.40345"
   cx="106.8242"
   cy="33.722599"
   id="circle28-5-2-2-7"
   rx="2.4318063"
   ry="2.3754234" /><ellipse
   style="fill:#999999;stroke-width:2.40345"
   cx="100.31078"
   cy="33.544151"
   id="circle28-5-2-3-6"
   rx="2.4318063"
   ry="2.3754234" /><ellipse
   style="fill:#999999;stroke-width:2.40345"
   cx="93.36895"
   cy="33.858883"
   id="circle28-5-2-7"
   rx="2.4318063"
   ry="2.3754234" /><ellipse
   style="fill:#b3b3b3;stroke-width:1.66358"
   cx="118.60554"
   cy="75.519478"
   id="circle2-2"
   rx="1.6655228"
   ry="1.6616259" /><ellipse
   style="fill:#b3b3b3;stroke-width:1.66358"
   cx="123.60209"
   cy="75.519478"
   id="circle3-7"
   rx="1.6655228"
   ry="1.6616259" /><ellipse
   style="fill:#b3b3b3;stroke-width:1.66358"
   cx="128.59868"
   cy="75.519478"
   id="circle4-4"
   rx="1.6655228"
   ry="1.6616259" /><ellipse
   style="fill:#b3b3b3;stroke-width:1.66358"
   cx="133.59523"
   cy="75.519478"
   id="circle5-3"
   rx="1.6655228"
   ry="1.6616259" /><ellipse
   style="fill:#b3b3b3;stroke-width:1.66358"
   cx="138.59181"
   cy="75.519478"
   id="circle6-20"
   rx="1.6655228"
   ry="1.6616259" /><ellipse
   style="fill:#b3b3b3;stroke-width:1.66358"
   cx="143.58836"
   cy="75.519478"
   id="circle7-98"
   rx="1.6655228"
   ry="1.6616259" /><ellipse
   style="fill:#b3b3b3;stroke-width:1.66358"
   cx="148.58495"
   cy="75.519478"
   id="circle8-75"
   rx="1.6655228"
   ry="1.6616259" /><ellipse
   style="fill:#b3b3b3;stroke-width:1.66358"
   cx="118.41395"
   cy="82.168518"
   id="circle9-5"
   rx="1.6655228"
   ry="1.6616259" /><ellipse
   style="fill:#b3b3b3;stroke-width:1.66358"
   cx="123.41053"
   cy="82.168518"
   id="circle10-2"
   rx="1.6655228"
   ry="1.6616259" /><ellipse
   style="fill:#b3b3b3;stroke-width:1.66358"
   cx="128.40709"
   cy="82.168518"
   id="circle11-4"
   rx="1.6655228"
   ry="1.6616259" /><ellipse
   style="fill:#b3b3b3;stroke-width:1.66358"
   cx="133.40367"
   cy="82.168518"
   id="circle12-3"
   rx="1.6655228"
   ry="1.6616259" /><ellipse
   style="fill:#b3b3b3;stroke-width:1.66358"
   cx="138.40022"
   cy="82.168518"
   id="circle13-6"
   rx="1.6655228"
   ry="1.6616259" /><ellipse
   style="fill:#b3b3b3;stroke-width:1.66358"
   cx="143.3968"
   cy="82.168518"
   id="circle14-4"
   rx="1.6655228"
   ry="1.6616259" /><ellipse
   style="fill:#b3b3b3;stroke-width:1.66358"
   cx="148.39339"
   cy="82.168518"
   id="circle15-8"
   rx="1.6655228"
   ry="1.6616259" /><ellipse
   style="fill:#b3b3b3;stroke-width:1.66358"
   cx="118.41395"
   cy="88.814987"
   id="circle16-62"
   rx="1.6655228"
   ry="1.6616259" /><ellipse
   style="fill:#b3b3b3;stroke-width:1.66358"
   cx="123.41053"
   cy="88.814987"
   id="circle17-7"
   rx="1.6655228"
   ry="1.6616259" /><ellipse
   style="fill:#b3b3b3;stroke-width:1.66358"
   cx="128.40709"
   cy="88.814987"
   id="circle18-2"
   rx="1.6655228"
   ry="1.6616259" /><ellipse
   style="fill:#b3b3b3;stroke-width:1.66358"
   cx="133.40367"
   cy="88.814987"
   id="circle19-2"
   rx="1.6655228"
   ry="1.6616259" /><ellipse
   style="fill:#b3b3b3;stroke-width:1.66358"
   cx="138.40022"
   cy="88.814987"
   id="circle20-4"
   rx="1.6655228"
   ry="1.6616259" /><ellipse
   style="fill:#b3b3b3;stroke-width:1.66358"
   cx="143.3968"
   cy="88.814987"
   id="circle21-96"
   rx="1.6655228"
   ry="1.6616259" /><ellipse
   style="fill:#b3b3b3;stroke-width:1.66358"
   cx="148.39339"
   cy="88.814987"
   id="circle22-4"
   rx="1.6655228"
   ry="1.6616259" /><ellipse
   style="fill:#b3b3b3;stroke-width:1.66358"
   cx="83.017006"
   cy="75.400909"
   id="circle23-6"
   rx="1.6655228"
   ry="1.6616259" /><ellipse
   style="fill:#b3b3b3;stroke-width:1.66358"
   cx="88.013588"
   cy="75.400909"
   id="circle24-76"
   rx="1.6655228"
   ry="1.6616259" /><ellipse
   style="fill:#b3b3b3;stroke-width:1.66358"
   cx="93.010147"
   cy="75.400909"
   id="circle25-8"
   rx="1.6655228"
   ry="1.6616259" /><ellipse
   style="fill:#b3b3b3;stroke-width:1.66358"
   cx="98.006721"
   cy="75.400909"
   id="circle26-9"
   rx="1.6655228"
   ry="1.6616259" /><ellipse
   style="fill:#b3b3b3;stroke-width:1.66358"
   cx="103.00329"
   cy="75.400909"
   id="circle27-8"
   rx="1.6655228"
   ry="1.6616259" /><ellipse
   style="fill:#b3b3b3;stroke-width:1.66358"
   cx="107.99985"
   cy="75.400909"
   id="circle28-4"
   rx="1.6655228"
   ry="1.6616259" /><ellipse
   style="fill:#b3b3b3;stroke-width:1.66358"
   cx="112.99644"
   cy="75.400909"
   id="circle29-8"
   rx="1.6655228"
   ry="1.6616259" /><ellipse
   style="fill:#b3b3b3;stroke-width:1.66358"
   cx="118.61372"
   cy="69.383919"
   id="circle2-9-0"
   rx="1.6655228"
   ry="1.6616259" /><ellipse
   style="fill:#b3b3b3;stroke-width:1.66358"
   cx="123.61027"
   cy="69.383919"
   id="circle3-8-6"
   rx="1.6655228"
   ry="1.6616259" /><ellipse
   style="fill:#b3b3b3;stroke-width:1.66358"
   cx="128.60686"
   cy="69.383919"
   id="circle4-0-45"
   rx="1.6655228"
   ry="1.6616259" /><ellipse
   style="fill:#b3b3b3;stroke-width:1.66358"
   cx="133.60341"
   cy="69.383919"
   id="circle5-2-22"
   rx="1.6655228"
   ry="1.6616259" /><ellipse
   style="fill:#b3b3b3;stroke-width:1.66358"
   cx="138.59999"
   cy="69.383919"
   id="circle6-6-2"
   rx="1.6655228"
   ry="1.6616259" /><ellipse
   style="fill:#b3b3b3;stroke-width:1.66358"
   cx="143.59654"
   cy="69.383919"
   id="circle7-6-61"
   rx="1.6655228"
   ry="1.6616259" /><ellipse
   style="fill:#b3b3b3;stroke-width:1.66358"
   cx="148.59312"
   cy="69.383919"
   id="circle8-8-3"
   rx="1.6655228"
   ry="1.6616259" /><ellipse
   style="fill:#b3b3b3;stroke-width:1.66358"
   cx="83.025185"
   cy="69.265373"
   id="circle23-4-4"
   rx="1.6655228"
   ry="1.6616259" /><ellipse
   style="fill:#b3b3b3;stroke-width:1.66358"
   cx="88.021774"
   cy="69.265373"
   id="circle24-5-42"
   rx="1.6655228"
   ry="1.6616259" /><ellipse
   style="fill:#b3b3b3;stroke-width:1.66358"
   cx="93.018333"
   cy="69.265373"
   id="circle25-5-1"
   rx="1.6655228"
   ry="1.6616259" /><ellipse
   style="fill:#b3b3b3;stroke-width:1.66358"
   cx="98.0149"
   cy="69.265373"
   id="circle26-1-9"
   rx="1.6655228"
   ry="1.6616259" /><ellipse
   style="fill:#b3b3b3;stroke-width:1.66358"
   cx="103.01147"
   cy="69.265373"
   id="circle27-2-9"
   rx="1.6655228"
   ry="1.6616259" /><ellipse
   style="fill:#b3b3b3;stroke-width:1.66358"
   cx="108.00803"
   cy="69.265373"
   id="circle28-5-8"
   rx="1.6655228"
   ry="1.6616259" /><ellipse
   style="fill:#b3b3b3;stroke-width:1.66358"
   cx="113.00462"
   cy="69.265373"
   id="circle29-7-1"
   rx="1.6655228"
   ry="1.6616259" /><ellipse
   style="fill:#b3b3b3;stroke-width:1.66358"
   cx="82.825432"
   cy="82.049942"
   id="circle30-8"
   rx="1.6655228"
   ry="1.6616259" /><ellipse
   style="fill:#b3b3b3;stroke-width:1.66358"
   cx="87.822014"
   cy="82.049942"
   id="circle31-7"
   rx="1.6655228"
   ry="1.6616259" /><ellipse
   style="fill:#b3b3b3;stroke-width:1.66358"
   cx="92.818581"
   cy="82.049942"
   id="circle32-7"
   rx="1.6655228"
   ry="1.6616259" /><ellipse
   style="fill:#b3b3b3;stroke-width:1.66358"
   cx="97.815147"
   cy="82.049942"
   id="circle33-0"
   rx="1.6655228"
   ry="1.6616259" /><ellipse
   style="fill:#b3b3b3;stroke-width:1.66358"
   cx="102.81172"
   cy="82.049942"
   id="circle34-4"
   rx="1.6655228"
   ry="1.6616259" /><ellipse
   style="fill:#b3b3b3;stroke-width:1.66358"
   cx="107.8083"
   cy="82.049942"
   id="circle35-1"
   rx="1.6655228"
   ry="1.6616259" /><ellipse
   style="fill:#b3b3b3;stroke-width:1.66358"
   cx="112.80485"
   cy="82.049942"
   id="circle36-0"
   rx="1.6655228"
   ry="1.6616259" /><ellipse
   style="fill:#b3b3b3;stroke-width:1.66358"
   cx="82.825432"
   cy="88.696449"
   id="circle37-6"
   rx="1.6655228"
   ry="1.6616259" /><ellipse
   style="fill:#b3b3b3;stroke-width:1.66358"
   cx="87.822014"
   cy="88.696449"
   id="circle38-3"
   rx="1.6655228"
   ry="1.6616259" /><ellipse
   style="fill:#b3b3b3;stroke-width:1.66358"
   cx="92.818581"
   cy="88.696449"
   id="circle39-82"
   rx="1.6655228"
   ry="1.6616259" /><ellipse
   style="fill:#b3b3b3;stroke-width:1.66358"
   cx="97.815147"
   cy="88.696449"
   id="circle40-3"
   rx="1.6655228"
   ry="1.6616259" /><ellipse
   style="fill:#b3b3b3;stroke-width:1.66358"
   cx="102.81172"
   cy="88.696449"
   id="circle41-0"
   rx="1.6655228"
   ry="1.6616259" /><ellipse
   style="fill:#b3b3b3;stroke-width:1.66358"
   cx="107.8083"
   cy="88.696449"
   id="circle42-8"
   rx="1.6655228"
   ry="1.6616259" /><ellipse
   style="fill:#b3b3b3;stroke-width:1.66358"
   cx="112.80485"
   cy="88.696449"
   id="circle43-7"
   rx="1.6655228"
   ry="1.6616259" /><ellipse
   style="fill:#b3b3b3;stroke-width:1.66358"
   cx="46.766445"
   cy="76.054825"
   id="circle2-8"
   rx="1.6655228"
   ry="1.6616259" /><ellipse
   style="fill:#b3b3b3;stroke-width:1.66358"
   cx="51.763012"
   cy="76.054825"
   id="circle3-94"
   rx="1.6655228"
   ry="1.6616259" /><ellipse
   style="fill:#b3b3b3;stroke-width:1.66358"
   cx="56.759579"
   cy="76.054825"
   id="circle4-8"
   rx="1.6655228"
   ry="1.6616259" /><ellipse
   style="fill:#b3b3b3;stroke-width:1.66358"
   cx="61.756145"
   cy="76.054825"
   id="circle5-8"
   rx="1.6655228"
   ry="1.6616259" /><ellipse
   style="fill:#b3b3b3;stroke-width:1.66358"
   cx="66.752708"
   cy="76.054825"
   id="circle6-8"
   rx="1.6655228"
   ry="1.6616259" /><ellipse
   style="fill:#b3b3b3;stroke-width:1.66358"
   cx="71.749275"
   cy="76.054825"
   id="circle7-9"
   rx="1.6655228"
   ry="1.6616259" /><ellipse
   style="fill:#b3b3b3;stroke-width:1.66358"
   cx="76.745857"
   cy="76.054825"
   id="circle8-84"
   rx="1.6655228"
   ry="1.6616259" /><ellipse
   style="fill:#b3b3b3;stroke-width:1.66358"
   cx="46.766445"
   cy="81.990051"
   id="circle9-6"
   rx="1.6655228"
   ry="1.6616259" /><ellipse
   style="fill:#b3b3b3;stroke-width:1.66358"
   cx="51.763012"
   cy="81.990051"
   id="circle10-9"
   rx="1.6655228"
   ry="1.6616259" /><ellipse
   style="fill:#b3b3b3;stroke-width:1.66358"
   cx="56.759579"
   cy="81.990051"
   id="circle11-6"
   rx="1.6655228"
   ry="1.6616259" /><ellipse
   style="fill:#b3b3b3;stroke-width:1.66358"
   cx="61.756145"
   cy="81.990051"
   id="circle12-9"
   rx="1.6655228"
   ry="1.6616259" /><ellipse
   style="fill:#b3b3b3;stroke-width:1.66358"
   cx="66.752708"
   cy="81.990051"
   id="circle13-9"
   rx="1.6655228"
   ry="1.6616259" /><ellipse
   style="fill:#b3b3b3;stroke-width:1.66358"
   cx="71.749275"
   cy="81.990051"
   id="circle14-9"
   rx="1.6655228"
   ry="1.6616259" /><ellipse
   style="fill:#b3b3b3;stroke-width:1.66358"
   cx="76.745857"
   cy="81.990051"
   id="circle15-4"
   rx="1.6655228"
   ry="1.6616259" /><ellipse
   style="fill:#b3b3b3;stroke-width:1.66358"
   cx="46.766445"
   cy="88.636551"
   id="circle16-6"
   rx="1.6655228"
   ry="1.6616259" /><ellipse
   style="fill:#b3b3b3;stroke-width:1.66358"
   cx="51.763012"
   cy="88.636551"
   id="circle17-9"
   rx="1.6655228"
   ry="1.6616259" /><ellipse
   style="fill:#b3b3b3;stroke-width:1.66358"
   cx="56.759579"
   cy="88.636551"
   id="circle18-4"
   rx="1.6655228"
   ry="1.6616259" /><ellipse
   style="fill:#b3b3b3;stroke-width:1.66358"
   cx="61.756145"
   cy="88.636551"
   id="circle19-0"
   rx="1.6655228"
   ry="1.6616259" /><ellipse
   style="fill:#b3b3b3;stroke-width:1.66358"
   cx="66.752708"
   cy="88.636551"
   id="circle20-9"
   rx="1.6655228"
   ry="1.6616259" /><ellipse
   style="fill:#b3b3b3;stroke-width:1.66358"
   cx="71.749275"
   cy="88.636551"
   id="circle21-7"
   rx="1.6655228"
   ry="1.6616259" /><ellipse
   style="fill:#b3b3b3;stroke-width:1.66358"
   cx="76.745857"
   cy="88.636551"
   id="circle22-2"
   rx="1.6655228"
   ry="1.6616259" /><ellipse
   style="fill:#b3b3b3;stroke-width:1.66358"
   cx="11.177931"
   cy="75.936272"
   id="circle23-3"
   rx="1.6655228"
   ry="1.6616259" /><ellipse
   style="fill:#b3b3b3;stroke-width:1.66358"
   cx="16.174513"
   cy="75.936272"
   id="circle24-4"
   rx="1.6655228"
   ry="1.6616259" /><ellipse
   style="fill:#b3b3b3;stroke-width:1.66358"
   cx="21.171078"
   cy="75.936272"
   id="circle25-55"
   rx="1.6655228"
   ry="1.6616259" /><ellipse
   style="fill:#b3b3b3;stroke-width:1.66358"
   cx="26.167645"
   cy="75.936272"
   id="circle26-3"
   rx="1.6655228"
   ry="1.6616259" /><ellipse
   style="fill:#b3b3b3;stroke-width:1.66358"
   cx="31.164211"
   cy="75.936272"
   id="circle27-7"
   rx="1.6655228"
   ry="1.6616259" /><ellipse
   style="fill:#b3b3b3;stroke-width:1.66358"
   cx="36.160778"
   cy="75.936272"
   id="circle28-1"
   rx="1.6655228"
   ry="1.6616259" /><ellipse
   style="fill:#b3b3b3;stroke-width:1.66358"
   cx="41.157345"
   cy="75.936272"
   id="circle29-06"
   rx="1.6655228"
   ry="1.6616259" /><ellipse
   style="fill:#b3b3b3;stroke-width:1.66358"
   cx="46.774624"
   cy="69.91925"
   id="circle2-9-3"
   rx="1.6655228"
   ry="1.6616259" /><ellipse
   style="fill:#b3b3b3;stroke-width:1.66358"
   cx="51.771191"
   cy="69.91925"
   id="circle3-8-2"
   rx="1.6655228"
   ry="1.6616259" /><ellipse
   style="fill:#b3b3b3;stroke-width:1.66358"
   cx="56.767757"
   cy="69.91925"
   id="circle4-0-1"
   rx="1.6655228"
   ry="1.6616259" /><ellipse
   style="fill:#b3b3b3;stroke-width:1.66358"
   cx="61.764324"
   cy="69.91925"
   id="circle5-2-2"
   rx="1.6655228"
   ry="1.6616259" /><ellipse
   style="fill:#b3b3b3;stroke-width:1.66358"
   cx="66.760887"
   cy="69.91925"
   id="circle6-6-8"
   rx="1.6655228"
   ry="1.6616259" /><ellipse
   style="fill:#b3b3b3;stroke-width:1.66358"
   cx="71.757454"
   cy="69.91925"
   id="circle7-6-7"
   rx="1.6655228"
   ry="1.6616259" /><ellipse
   style="fill:#b3b3b3;stroke-width:1.66358"
   cx="76.754036"
   cy="69.91925"
   id="circle8-8-9"
   rx="1.6655228"
   ry="1.6616259" /><ellipse
   style="fill:#b3b3b3;stroke-width:1.66358"
   cx="11.18611"
   cy="69.800735"
   id="circle23-4-2"
   rx="1.6655228"
   ry="1.6616259" /><ellipse
   style="fill:#b3b3b3;stroke-width:1.66358"
   cx="16.182692"
   cy="69.800735"
   id="circle24-5-4"
   rx="1.6655228"
   ry="1.6616259" /><ellipse
   style="fill:#b3b3b3;stroke-width:1.66358"
   cx="21.179256"
   cy="69.800735"
   id="circle25-5-0"
   rx="1.6655228"
   ry="1.6616259" /><ellipse
   style="fill:#b3b3b3;stroke-width:1.66358"
   cx="26.175823"
   cy="69.800735"
   id="circle26-1-5"
   rx="1.6655228"
   ry="1.6616259" /><ellipse
   style="fill:#b3b3b3;stroke-width:1.66358"
   cx="31.17239"
   cy="69.800735"
   id="circle27-2-4"
   rx="1.6655228"
   ry="1.6616259" /><ellipse
   style="fill:#b3b3b3;stroke-width:1.66358"
   cx="36.168957"
   cy="69.800735"
   id="circle28-5-4"
   rx="1.6655228"
   ry="1.6616259" /><ellipse
   style="fill:#b3b3b3;stroke-width:1.66358"
   cx="41.165524"
   cy="69.800735"
   id="circle29-7-2"
   rx="1.6655228"
   ry="1.6616259" /><ellipse
   style="fill:#b3b3b3;stroke-width:1.66358"
   cx="11.177931"
   cy="81.871506"
   id="circle30-4"
   rx="1.6655228"
   ry="1.6616259" /><ellipse
   style="fill:#b3b3b3;stroke-width:1.66358"
   cx="16.174513"
   cy="81.871506"
   id="circle31-8"
   rx="1.6655228"
   ry="1.6616259" /><ellipse
   style="fill:#b3b3b3;stroke-width:1.66358"
   cx="21.171078"
   cy="81.871506"
   id="circle32-2"
   rx="1.6655228"
   ry="1.6616259" /><ellipse
   style="fill:#b3b3b3;stroke-width:1.66358"
   cx="26.167645"
   cy="81.871506"
   id="circle33-1"
   rx="1.6655228"
   ry="1.6616259" /><ellipse
   style="fill:#b3b3b3;stroke-width:1.66358"
   cx="31.164211"
   cy="81.871506"
   id="circle34-0"
   rx="1.6655228"
   ry="1.6616259" /><ellipse
   style="fill:#b3b3b3;stroke-width:1.66358"
   cx="36.160778"
   cy="81.871506"
   id="circle35-3"
   rx="1.6655228"
   ry="1.6616259" /><ellipse
   style="fill:#b3b3b3;stroke-width:1.66358"
   cx="41.157345"
   cy="81.871506"
   id="circle36-9"
   rx="1.6655228"
   ry="1.6616259" /><ellipse
   style="fill:#b3b3b3;stroke-width:1.66358"
   cx="11.177931"
   cy="88.517975"
   id="circle37-5"
   rx="1.6655228"
   ry="1.6616259" /><ellipse
   style="fill:#b3b3b3;stroke-width:1.66358"
   cx="16.174513"
   cy="88.517975"
   id="circle38-2"
   rx="1.6655228"
   ry="1.6616259" /><ellipse
   style="fill:#b3b3b3;stroke-width:1.66358"
   cx="21.171078"
   cy="88.517975"
   id="circle39-8"
   rx="1.6655228"
   ry="1.6616259" /><ellipse
   style="fill:#b3b3b3;stroke-width:1.66358"
   cx="26.167645"
   cy="88.517975"
   id="circle40-7"
   rx="1.6655228"
   ry="1.6616259" /><ellipse
   style="fill:#b3b3b3;stroke-width:1.66358"
   cx="31.164211"
   cy="88.517975"
   id="circle41-2"
   rx="1.6655228"
   ry="1.6616259" /><ellipse
   style="fill:#b3b3b3;stroke-width:1.66358"
   cx="36.160778"
   cy="88.517975"
   id="circle42-3"
   rx="1.6655228"
   ry="1.6616259" /><ellipse
   style="fill:#b3b3b3;stroke-width:1.66358"
   cx="41.157345"
   cy="88.517975"
   id="circle43-47"
   rx="1.6655228"
   ry="1.6616259" /><ellipse
   style="fill:#b3b3b3;stroke-width:1.66358"
   cx="118.60554"
   cy="51.964161"
   id="circle2-98"
   rx="1.6655228"
   ry="1.6616259" /><ellipse
   style="fill:#b3b3b3;stroke-width:1.66358"
   cx="123.60209"
   cy="51.964161"
   id="circle3-9"
   rx="1.6655228"
   ry="1.6616259" /><ellipse
   style="fill:#b3b3b3;stroke-width:1.66358"
   cx="128.59868"
   cy="51.964161"
   id="circle4-7"
   rx="1.6655228"
   ry="1.6616259" /><ellipse
   style="fill:#b3b3b3;stroke-width:1.66358"
   cx="133.59523"
   cy="51.964161"
   id="circle5-7"
   rx="1.6655228"
   ry="1.6616259" /><ellipse
   style="fill:#b3b3b3;stroke-width:1.66358"
   cx="138.59181"
   cy="51.964161"
   id="circle6-2"
   rx="1.6655228"
   ry="1.6616259" /><ellipse
   style="fill:#b3b3b3;stroke-width:1.66358"
   cx="143.58836"
   cy="51.964161"
   id="circle7-8"
   rx="1.6655228"
   ry="1.6616259" /><ellipse
   style="fill:#b3b3b3;stroke-width:1.66358"
   cx="148.58495"
   cy="51.964161"
   id="circle8-7"
   rx="1.6655228"
   ry="1.6616259" /><ellipse
   style="fill:#b3b3b3;stroke-width:1.66358"
   cx="118.60554"
   cy="57.899387"
   id="circle9-7"
   rx="1.6655228"
   ry="1.6616259" /><ellipse
   style="fill:#b3b3b3;stroke-width:1.66358"
   cx="123.60209"
   cy="57.899387"
   id="circle10-5"
   rx="1.6655228"
   ry="1.6616259" /><ellipse
   style="fill:#b3b3b3;stroke-width:1.66358"
   cx="128.59868"
   cy="57.899387"
   id="circle11-1"
   rx="1.6655228"
   ry="1.6616259" /><ellipse
   style="fill:#b3b3b3;stroke-width:1.66358"
   cx="133.59523"
   cy="57.899387"
   id="circle12-2"
   rx="1.6655228"
   ry="1.6616259" /><ellipse
   style="fill:#b3b3b3;stroke-width:1.66358"
   cx="138.59181"
   cy="57.899387"
   id="circle13-4"
   rx="1.6655228"
   ry="1.6616259" /><ellipse
   style="fill:#b3b3b3;stroke-width:1.66358"
   cx="143.58836"
   cy="57.899387"
   id="circle14-1"
   rx="1.6655228"
   ry="1.6616259" /><ellipse
   style="fill:#b3b3b3;stroke-width:1.66358"
   cx="148.58495"
   cy="57.899387"
   id="circle15-6"
   rx="1.6655228"
   ry="1.6616259" /><ellipse
   style="fill:#b3b3b3;stroke-width:1.66358"
   cx="118.60554"
   cy="64.189003"
   id="circle16-1"
   rx="1.6655228"
   ry="1.6616259" /><ellipse
   style="fill:#b3b3b3;stroke-width:1.66358"
   cx="123.60209"
   cy="64.189003"
   id="circle17-0"
   rx="1.6655228"
   ry="1.6616259" /><ellipse
   style="fill:#b3b3b3;stroke-width:1.66358"
   cx="128.59868"
   cy="64.189003"
   id="circle18-8"
   rx="1.6655228"
   ry="1.6616259" /><ellipse
   style="fill:#b3b3b3;stroke-width:1.66358"
   cx="133.59523"
   cy="64.189003"
   id="circle19-1"
   rx="1.6655228"
   ry="1.6616259" /><ellipse
   style="fill:#b3b3b3;stroke-width:1.66358"
   cx="138.59181"
   cy="64.189003"
   id="circle20-6"
   rx="1.6655228"
   ry="1.6616259" /><ellipse
   style="fill:#b3b3b3;stroke-width:1.66358"
   cx="143.58836"
   cy="64.189003"
   id="circle21-9"
   rx="1.6655228"
   ry="1.6616259" /><ellipse
   style="fill:#b3b3b3;stroke-width:1.66358"
   cx="148.58495"
   cy="64.189003"
   id="circle22-9"
   rx="1.6655228"
   ry="1.6616259" /><ellipse
   style="fill:#b3b3b3;stroke-width:1.66358"
   cx="83.017006"
   cy="51.845615"
   id="circle23-45"
   rx="1.6655228"
   ry="1.6616259" /><ellipse
   style="fill:#b3b3b3;stroke-width:1.66358"
   cx="88.013588"
   cy="51.845615"
   id="circle24-7"
   rx="1.6655228"
   ry="1.6616259" /><ellipse
   style="fill:#b3b3b3;stroke-width:1.66358"
   cx="93.010147"
   cy="51.845615"
   id="circle25-7"
   rx="1.6655228"
   ry="1.6616259" /><ellipse
   style="fill:#b3b3b3;stroke-width:1.66358"
   cx="98.006721"
   cy="51.845615"
   id="circle26-8"
   rx="1.6655228"
   ry="1.6616259" /><ellipse
   style="fill:#b3b3b3;stroke-width:1.66358"
   cx="103.00329"
   cy="51.845615"
   id="circle27-5"
   rx="1.6655228"
   ry="1.6616259" /><ellipse
   style="fill:#b3b3b3;stroke-width:1.66358"
   cx="107.99985"
   cy="51.845615"
   id="circle28-8"
   rx="1.6655228"
   ry="1.6616259" /><ellipse
   style="fill:#b3b3b3;stroke-width:1.66358"
   cx="112.99644"
   cy="51.845615"
   id="circle29-0"
   rx="1.6655228"
   ry="1.6616259" /><ellipse
   style="fill:#b3b3b3;stroke-width:1.66358"
   cx="118.61372"
   cy="45.828583"
   id="circle2-9-5"
   rx="1.6655228"
   ry="1.6616259" /><ellipse
   style="fill:#b3b3b3;stroke-width:1.66358"
   cx="123.61027"
   cy="45.828583"
   id="circle3-8-3"
   rx="1.6655228"
   ry="1.6616259" /><ellipse
   style="fill:#b3b3b3;stroke-width:1.66358"
   cx="128.60686"
   cy="45.828583"
   id="circle4-0-4"
   rx="1.6655228"
   ry="1.6616259" /><ellipse
   style="fill:#b3b3b3;stroke-width:1.66358"
   cx="133.60341"
   cy="45.828583"
   id="circle5-2-0"
   rx="1.6655228"
   ry="1.6616259" /><ellipse
   style="fill:#b3b3b3;stroke-width:1.66358"
   cx="138.59999"
   cy="45.828583"
   id="circle6-6-6"
   rx="1.6655228"
   ry="1.6616259" /><ellipse
   style="fill:#b3b3b3;stroke-width:1.66358"
   cx="143.59654"
   cy="45.828583"
   id="circle7-6-6"
   rx="1.6655228"
   ry="1.6616259" /><ellipse
   style="fill:#b3b3b3;stroke-width:1.66358"
   cx="148.59312"
   cy="45.828583"
   id="circle8-8-7"
   rx="1.6655228"
   ry="1.6616259" /><ellipse
   style="fill:#b3b3b3;stroke-width:1.66358"
   cx="83.025185"
   cy="45.710056"
   id="circle23-4-9"
   rx="1.6655228"
   ry="1.6616259" /><ellipse
   style="fill:#b3b3b3;stroke-width:1.66358"
   cx="88.021774"
   cy="45.710056"
   id="circle24-5-2"
   rx="1.6655228"
   ry="1.6616259" /><ellipse
   style="fill:#b3b3b3;stroke-width:1.66358"
   cx="93.018333"
   cy="45.710056"
   id="circle25-5-6"
   rx="1.6655228"
   ry="1.6616259" /><ellipse
   style="fill:#b3b3b3;stroke-width:1.66358"
   cx="98.0149"
   cy="45.710056"
   id="circle26-1-3"
   rx="1.6655228"
   ry="1.6616259" /><ellipse
   style="fill:#b3b3b3;stroke-width:1.66358"
   cx="103.01147"
   cy="45.710056"
   id="circle27-2-2"
   rx="1.6655228"
   ry="1.6616259" /><ellipse
   style="fill:#b3b3b3;stroke-width:1.66358"
   cx="108.00803"
   cy="45.710056"
   id="circle28-5-6"
   rx="1.6655228"
   ry="1.6616259" /><ellipse
   style="fill:#b3b3b3;stroke-width:1.66358"
   cx="113.00462"
   cy="45.710056"
   id="circle29-7-0"
   rx="1.6655228"
   ry="1.6616259" /><ellipse
   style="fill:#b3b3b3;stroke-width:1.66358"
   cx="83.017006"
   cy="57.78083"
   id="circle30-2"
   rx="1.6655228"
   ry="1.6616259" /><ellipse
   style="fill:#b3b3b3;stroke-width:1.66358"
   cx="88.013588"
   cy="57.78083"
   id="circle31-1"
   rx="1.6655228"
   ry="1.6616259" /><ellipse
   style="fill:#b3b3b3;stroke-width:1.66358"
   cx="93.010147"
   cy="57.78083"
   id="circle32-4"
   rx="1.6655228"
   ry="1.6616259" /><ellipse
   style="fill:#b3b3b3;stroke-width:1.66358"
   cx="98.006721"
   cy="57.78083"
   id="circle33-7"
   rx="1.6655228"
   ry="1.6616259" /><ellipse
   style="fill:#b3b3b3;stroke-width:1.66358"
   cx="103.00329"
   cy="57.78083"
   id="circle34-5"
   rx="1.6655228"
   ry="1.6616259" /><ellipse
   style="fill:#b3b3b3;stroke-width:1.66358"
   cx="107.99985"
   cy="57.78083"
   id="circle35-8"
   rx="1.6655228"
   ry="1.6616259" /><ellipse
   style="fill:#b3b3b3;stroke-width:1.66358"
   cx="112.99644"
   cy="57.78083"
   id="circle36-8"
   rx="1.6655228"
   ry="1.6616259" /><ellipse
   style="fill:#b3b3b3;stroke-width:1.66358"
   cx="83.017006"
   cy="64.070435"
   id="circle37-0"
   rx="1.6655228"
   ry="1.6616259" /><ellipse
   style="fill:#b3b3b3;stroke-width:1.66358"
   cx="88.013588"
   cy="64.070435"
   id="circle38-7"
   rx="1.6655228"
   ry="1.6616259" /><ellipse
   style="fill:#b3b3b3;stroke-width:1.66358"
   cx="93.010147"
   cy="64.070435"
   id="circle39-0"
   rx="1.6655228"
   ry="1.6616259" /><ellipse
   style="fill:#b3b3b3;stroke-width:1.66358"
   cx="98.006721"
   cy="64.070435"
   id="circle40-0"
   rx="1.6655228"
   ry="1.6616259" /><ellipse
   style="fill:#b3b3b3;stroke-width:1.66358"
   cx="103.00329"
   cy="64.070435"
   id="circle41-8"
   rx="1.6655228"
   ry="1.6616259" /><ellipse
   style="fill:#b3b3b3;stroke-width:1.66358"
   cx="107.99985"
   cy="64.070435"
   id="circle42-2"
   rx="1.6655228"
   ry="1.6616259" /><ellipse
   style="fill:#b3b3b3;stroke-width:1.66358"
   cx="112.99644"
   cy="64.070435"
   id="circle43-4"
   rx="1.6655228"
   ry="1.6616259" /><ellipse
   style="fill:#b3b3b3;stroke-width:1.66358"
   cx="46.574871"
   cy="51.607269"
   id="circle2"
   rx="1.6655228"
   ry="1.6616259" /><ellipse
   style="fill:#b3b3b3;stroke-width:1.66358"
   cx="51.571438"
   cy="51.607269"
   id="circle3"
   rx="1.6655228"
   ry="1.6616259" /><ellipse
   style="fill:#b3b3b3;stroke-width:1.66358"
   cx="56.568005"
   cy="51.607269"
   id="circle4"
   rx="1.6655228"
   ry="1.6616259" /><ellipse
   style="fill:#b3b3b3;stroke-width:1.66358"
   cx="61.564571"
   cy="51.607269"
   id="circle5"
   rx="1.6655228"
   ry="1.6616259" /><ellipse
   style="fill:#b3b3b3;stroke-width:1.66358"
   cx="66.561134"
   cy="51.607269"
   id="circle6"
   rx="1.6655228"
   ry="1.6616259" /><ellipse
   style="fill:#b3b3b3;stroke-width:1.66358"
   cx="71.557716"
   cy="51.607269"
   id="circle7"
   rx="1.6655228"
   ry="1.6616259" /><ellipse
   style="fill:#b3b3b3;stroke-width:1.66358"
   cx="76.554283"
   cy="51.607269"
   id="circle8"
   rx="1.6655228"
   ry="1.6616259" /><ellipse
   style="fill:#b3b3b3;stroke-width:1.66358"
   cx="46.574871"
   cy="57.54248"
   id="circle9"
   rx="1.6655228"
   ry="1.6616259" /><ellipse
   style="fill:#b3b3b3;stroke-width:1.66358"
   cx="51.571438"
   cy="57.54248"
   id="circle10"
   rx="1.6655228"
   ry="1.6616259" /><ellipse
   style="fill:#b3b3b3;stroke-width:1.66358"
   cx="56.568005"
   cy="57.54248"
   id="circle11"
   rx="1.6655228"
   ry="1.6616259" /><ellipse
   style="fill:#b3b3b3;stroke-width:1.66358"
   cx="61.564571"
   cy="57.54248"
   id="circle12"
   rx="1.6655228"
   ry="1.6616259" /><ellipse
   style="fill:#b3b3b3;stroke-width:1.66358"
   cx="66.561134"
   cy="57.54248"
   id="circle13"
   rx="1.6655228"
   ry="1.6616259" /><ellipse
   style="fill:#b3b3b3;stroke-width:1.66358"
   cx="71.557716"
   cy="57.54248"
   id="circle14"
   rx="1.6655228"
   ry="1.6616259" /><ellipse
   style="fill:#b3b3b3;stroke-width:1.66358"
   cx="76.554283"
   cy="57.54248"
   id="circle15"
   rx="1.6655228"
   ry="1.6616259" /><ellipse
   style="fill:#b3b3b3;stroke-width:1.66358"
   cx="46.574871"
   cy="64.189003"
   id="circle16"
   rx="1.6655228"
   ry="1.6616259" /><ellipse
   style="fill:#b3b3b3;stroke-width:1.66358"
   cx="51.571438"
   cy="64.189003"
   id="circle17"
   rx="1.6655228"
   ry="1.6616259" /><ellipse
   style="fill:#b3b3b3;stroke-width:1.66358"
   cx="56.568005"
   cy="64.189003"
   id="circle18"
   rx="1.6655228"
   ry="1.6616259" /><ellipse
   style="fill:#b3b3b3;stroke-width:1.66358"
   cx="61.564571"
   cy="64.189003"
   id="circle19"
   rx="1.6655228"
   ry="1.6616259" /><ellipse
   style="fill:#b3b3b3;stroke-width:1.66358"
   cx="66.561134"
   cy="64.189003"
   id="circle20"
   rx="1.6655228"
   ry="1.6616259" /><ellipse
   style="fill:#b3b3b3;stroke-width:1.66358"
   cx="71.557716"
   cy="64.189003"
   id="circle21"
   rx="1.6655228"
   ry="1.6616259" /><ellipse
   style="fill:#b3b3b3;stroke-width:1.66358"
   cx="76.554283"
   cy="64.189003"
   id="circle22"
   rx="1.6655228"
   ry="1.6616259" /><ellipse
   style="fill:#b3b3b3;stroke-width:1.66358"
   cx="10.986357"
   cy="51.488712"
   id="circle23"
   rx="1.6655228"
   ry="1.6616259" /><ellipse
   style="fill:#b3b3b3;stroke-width:1.66358"
   cx="15.982939"
   cy="51.488712"
   id="circle24"
   rx="1.6655228"
   ry="1.6616259" /><ellipse
   style="fill:#b3b3b3;stroke-width:1.66358"
   cx="20.979504"
   cy="51.488712"
   id="circle25"
   rx="1.6655228"
   ry="1.6616259" /><ellipse
   style="fill:#b3b3b3;stroke-width:1.66358"
   cx="25.97607"
   cy="51.488712"
   id="circle26"
   rx="1.6655228"
   ry="1.6616259" /><ellipse
   style="fill:#b3b3b3;stroke-width:1.66358"
   cx="30.972637"
   cy="51.488712"
   id="circle27"
   rx="1.6655228"
   ry="1.6616259" /><ellipse
   style="fill:#b3b3b3;stroke-width:1.66358"
   cx="35.969204"
   cy="51.488712"
   id="circle28"
   rx="1.6655228"
   ry="1.6616259" /><ellipse
   style="fill:#b3b3b3;stroke-width:1.66358"
   cx="40.965771"
   cy="51.488712"
   id="circle29"
   rx="1.6655228"
   ry="1.6616259" /><ellipse
   style="fill:#b3b3b3;stroke-width:1.66358"
   cx="46.58305"
   cy="45.471706"
   id="circle2-9"
   rx="1.6655228"
   ry="1.6616259" /><ellipse
   style="fill:#b3b3b3;stroke-width:1.66358"
   cx="51.579617"
   cy="45.471706"
   id="circle3-8"
   rx="1.6655228"
   ry="1.6616259" /><ellipse
   style="fill:#b3b3b3;stroke-width:1.66358"
   cx="56.576183"
   cy="45.471706"
   id="circle4-0"
   rx="1.6655228"
   ry="1.6616259" /><ellipse
   style="fill:#b3b3b3;stroke-width:1.66358"
   cx="61.57275"
   cy="45.471706"
   id="circle5-2"
   rx="1.6655228"
   ry="1.6616259" /><ellipse
   style="fill:#b3b3b3;stroke-width:1.66358"
   cx="66.569328"
   cy="45.471706"
   id="circle6-6"
   rx="1.6655228"
   ry="1.6616259" /><ellipse
   style="fill:#b3b3b3;stroke-width:1.66358"
   cx="71.565895"
   cy="45.471706"
   id="circle7-6"
   rx="1.6655228"
   ry="1.6616259" /><ellipse
   style="fill:#b3b3b3;stroke-width:1.66358"
   cx="76.562462"
   cy="45.471706"
   id="circle8-8"
   rx="1.6655228"
   ry="1.6616259" /><ellipse
   style="fill:#b3b3b3;stroke-width:1.66358"
   cx="10.994551"
   cy="45.353165"
   id="circle23-4"
   rx="1.6655228"
   ry="1.6616259" /><ellipse
   style="fill:#b3b3b3;stroke-width:1.66358"
   cx="15.991117"
   cy="45.353165"
   id="circle24-5"
   rx="1.6655228"
   ry="1.6616259" /><ellipse
   style="fill:#b3b3b3;stroke-width:1.66358"
   cx="20.987682"
   cy="45.353165"
   id="circle25-5"
   rx="1.6655228"
   ry="1.6616259" /><ellipse
   style="fill:#b3b3b3;stroke-width:1.66358"
   cx="25.984249"
   cy="45.353165"
   id="circle26-1"
   rx="1.6655228"
   ry="1.6616259" /><ellipse
   style="fill:#b3b3b3;stroke-width:1.66358"
   cx="30.980816"
   cy="45.353165"
   id="circle27-2"
   rx="1.6655228"
   ry="1.6616259" /><ellipse
   style="fill:#b3b3b3;stroke-width:1.66358"
   cx="35.977383"
   cy="45.353165"
   id="circle28-5"
   rx="1.6655228"
   ry="1.6616259" /><ellipse
   style="fill:#b3b3b3;stroke-width:1.66358"
   cx="40.973949"
   cy="45.353165"
   id="circle29-7"
   rx="1.6655228"
   ry="1.6616259" /><ellipse
   style="fill:#b3b3b3;stroke-width:1.66358"
   cx="10.986357"
   cy="57.423939"
   id="circle30"
   rx="1.6655228"
   ry="1.6616259" /><ellipse
   style="fill:#b3b3b3;stroke-width:1.66358"
   cx="15.982939"
   cy="57.423939"
   id="circle31"
   rx="1.6655228"
   ry="1.6616259" /><ellipse
   style="fill:#b3b3b3;stroke-width:1.66358"
   cx="20.979504"
   cy="57.423939"
   id="circle32"
   rx="1.6655228"
   ry="1.6616259" /><ellipse
   style="fill:#b3b3b3;stroke-width:1.66358"
   cx="25.97607"
   cy="57.423939"
   id="circle33"
   rx="1.6655228"
   ry="1.6616259" /><ellipse
   style="fill:#b3b3b3;stroke-width:1.66358"
   cx="30.972637"
   cy="57.423939"
   id="circle34"
   rx="1.6655228"
   ry="1.6616259" /><ellipse
   style="fill:#b3b3b3;stroke-width:1.66358"
   cx="35.969204"
   cy="57.423939"
   id="circle35"
   rx="1.6655228"
   ry="1.6616259" /><ellipse
   style="fill:#b3b3b3;stroke-width:1.66358"
   cx="40.965771"
   cy="57.423939"
   id="circle36"
   rx="1.6655228"
   ry="1.6616259" /><ellipse
   style="fill:#b3b3b3;stroke-width:1.66358"
   cx="10.986357"
   cy="64.070435"
   id="circle37"
   rx="1.6655228"
   ry="1.6616259" /><ellipse
   style="fill:#b3b3b3;stroke-width:1.66358"
   cx="15.982939"
   cy="64.070435"
   id="circle38"
   rx="1.6655228"
   ry="1.6616259" /><ellipse
   style="fill:#b3b3b3;stroke-width:1.66358"
   cx="20.979504"
   cy="64.070435"
   id="circle39"
   rx="1.6655228"
   ry="1.6616259" /><ellipse
   style="fill:#b3b3b3;stroke-width:1.66358"
   cx="25.97607"
   cy="64.070435"
   id="circle40"
   rx="1.6655228"
   ry="1.6616259" /><ellipse
   style="fill:#b3b3b3;stroke-width:1.66358"
   cx="30.972637"
   cy="64.070435"
   id="circle41"
   rx="1.6655228"
   ry="1.6616259" /><ellipse
   style="fill:#b3b3b3;stroke-width:1.66358"
   cx="35.969204"
   cy="64.070435"
   id="circle42"
   rx="1.6655228"
   ry="1.6616259" /><ellipse
   style="fill:#b3b3b3;stroke-width:1.66358"
   cx="40.965771"
   cy="64.070435"
   id="circle43"
   rx="1.6655228"
   ry="1.6616259" />




<text
   xml:space="preserve"
   id="text11"
   style="white-space:pre;shape-inside:url(#rect11);display:inline;fill:#ffffff;stroke-width:0.562"
   transform="matrix(1.0520669,0,0,1.0647783,-141.87529,-181.18356)"><tspan
     x="202.78516"
     y="206.80539"
     id="tspan3">72</tspan></text><text
   xml:space="preserve"
   id="text12"
   style="white-space:pre;shape-inside:url(#rect12);display:inline;fill:#333333;stroke-width:0.562"
   transform="matrix(0.51299465,0,0,0.51364429,-1.4744672,-72.255732)"><tspan
     x="32.117188"
     y="209.95382"
     id="tspan4">Midea</tspan></text><path
   sodipodi:type="spiral"
   style="fill:none;fill-rule:evenodd;stroke:#000000"
   id="path12"
   sodipodi:cx="-149.88438"
   sodipodi:cy="91.316116"
   sodipodi:expansion="1"
   sodipodi:revolution="3"
   sodipodi:radius="48.557392"
   sodipodi:argument="-18.036642"
   sodipodi:t0="0"
   d="m -149.88438,91.316116 c 1.6735,1.768227 -1.55789,3.128227 -2.93891,2.781469 -3.74248,-0.939692 -4.21507,-5.779478 -2.62403,-8.659286 2.84599,-5.1513 9.87977,-5.570362 14.37966,-2.466589 6.60378,4.554912 6.96763,14.036333 2.30915,20.10004 -6.20902,8.08197 -18.21296,8.38288 -25.82042,2.15171 -9.57321,-7.841292 -9.80746,-22.399163 -1.99427,-31.540795 9.46282,-11.071741 26.59077,-11.237445 37.26118,-1.83683 12.57469,11.078299 12.67082,30.785745 1.67939,42.981555 -12.69005,14.08053 -34.98297,14.10646 -48.70193,1.52195 -15.58835,-14.29933 -15.54369,-39.181778 -1.36451,-54.42231 15.9069,-17.097573 43.38173,-16.982068 60.14268,-1.20707 18.607838,17.513237 18.421305,47.58255 1.04963,65.86306"
   transform="matrix(0.12308995,0,0,0.10356183,34.903233,23.937076)" /><path
   style="fill:#e6e6e6;stroke-width:0.04018"
   d="m 12.922143,8.6649315 v 2.0433065 c 0,0.09339 3.2993,0.169029 7.36818,0.169029 H 141.37773 c 4.06888,0 7.36817,-0.07569 7.36817,-0.169029 V 8.6649315 c 0,-0.093393 -3.29929,-0.169029 -7.36817,-0.169029 H 20.290323 c -4.06888,0 -7.36818,0.0756 -7.36818,0.169029 z"
   id="path1-2-8" /><rect
   style="fill:#e6e6e6;stroke-width:0.164998"
   id="rect13"
   width="11.877395"
   height="8.2086697"
   x="132.6794"
   y="29.135038" /><rect
   style="fill:#e6e6e6;stroke-width:0.164998"
   id="rect14"
   width="1.1494253"
   height="1.4275948"
   x="137.27708"
   y="32.882473" /><path
   sodipodi:type="star"
   style="fill:#999999;stroke-width:0.562"
   id="path14"
   inkscape:flatsided="false"
   sodipodi:sides="5"
   sodipodi:cx="471.06519"
   sodipodi:cy="209.08241"
   sodipodi:r1="10.4814"
   sodipodi:r2="5.2407002"
   sodipodi:arg1="0.99945885"
   sodipodi:arg2="1.6277774"
   inkscape:rounded="0"
   inkscape:randomized="0"
   d="m 476.73308,217.89914 -5.96635,-3.58453 -6.33527,2.88281 1.56538,-6.78202 -4.69942,-5.13436 6.93382,-0.60699 3.43086,-6.05603 2.71995,6.40689 6.81982,1.39153 -5.2528,4.56666 z"
   inkscape:transform-center-x="-0.025928018"
   inkscape:transform-center-y="-0.11144112"
   transform="matrix(0.14057667,0,0,0.13527587,76.546263,3.7628747)" /><text
   xml:space="preserve"
   style="font-size:2.72065px;fill:#999999;stroke-width:0.127418"
   x="176.86784"
   y="25.961254"
   id="text14"
   transform="scale(0.75753754,1.3200666)"><tspan
     sodipodi:role="line"
     id="tspan14"
     x="176.86784"
     y="25.961254"
     style="stroke-width:0.127418">Energy</tspan></text></svg>
