<?xml version="1.0" encoding="UTF-8" standalone="no"?>
<!-- Uploaded to: SVG Repo, www.svgrepo.com, Generator: SVG Repo Mixer Tools -->

<svg
   version="1.1"
   id="Layer_1"
   viewBox="0 0 155.55225 97.613765"
   xml:space="preserve"
   sodipodi:docname="ac-fan.svg"
   width="155.55225"
   height="97.613762"
   inkscape:version="1.3.2 (091e20e, 2023-11-25, custom)"
   xmlns:inkscape="http://www.inkscape.org/namespaces/inkscape"
   xmlns:sodipodi="http://sodipodi.sourceforge.net/DTD/sodipodi-0.dtd"
   xmlns="http://www.w3.org/2000/svg"
   xmlns:svg="http://www.w3.org/2000/svg"><defs
   id="defs11"><rect
     x="32.11808"
     y="199.00615"
     width="92.575645"
     height="35.266914"
     id="rect12" /><rect
     x="202.78474"
     y="195.85732"
     width="88.79705"
     height="44.083641"
     id="rect11" /></defs><sodipodi:namedview
   id="namedview11"
   pagecolor="#ffffff"
   bordercolor="#000000"
   borderopacity="0.25"
   inkscape:showpageshadow="2"
   inkscape:pageopacity="0.0"
   inkscape:pagecheckerboard="0"
   inkscape:deskcolor="#d1d1d1"
   inkscape:zoom="1.5878906"
   inkscape:cx="101.07749"
   inkscape:cy="80.924971"
   inkscape:window-width="1920"
   inkscape:window-height="1009"
   inkscape:window-x="-8"
   inkscape:window-y="-8"
   inkscape:window-maximized="1"
   inkscape:current-layer="Layer_1" />
<path
   style="fill:#f2f2f2;stroke-width:0.259583"
   d="m 3.7785983,10.058611 v 77.22343 c 0,3.52776 3.64365,6.38829 8.1372097,6.38829 H 145.6414 c 4.49355,0 8.13721,-2.86076 8.13721,-6.38829 v -77.22343 c 0,-3.5305298 -3.64366,-6.3882898 -8.13721,-6.3882898 H 11.915808 c -4.4935597,0 -8.1372097,2.85776 -8.1372097,6.3882898 z"
   id="path1" /><path
   style="fill:#008000;stroke-width:0.105426"
   d="M 9.7730483,7.7699812 V 21.603241 c 0,0.63194 3.3551397,1.14435 7.4928797,1.14435 H 140.40278 c 4.13774,0 7.49288,-0.51245 7.49288,-1.14435 V 7.7699812 c 0,-0.63243 -3.35514,-1.14435 -7.49288,-1.14435 H 17.265928 c -4.13774,0 -7.4928797,0.51192 -7.4928797,1.14435 z"
   id="path1-2" /><g
   inkscape:groupmode="layer"
   id="layer1"
   inkscape:label="Layer 1"
   transform="matrix(1.0719323,0,0,3.6589899,-156.06872,-391.84203)"><rect
     style="fill:#e6e6e6;stroke-width:0.0827024"
     id="rect15"
     width="135.82376"
     height="13.850712"
     x="150.91765"
     y="118.26371" /></g><ellipse
   style="fill:#999999;stroke-width:2.40345"
   cx="65.941612"
   cy="33.271545"
   id="circle28-5-2-25"
   rx="2.4318063"
   ry="2.3754234" /><ellipse
   style="fill:#999999;stroke-width:2.40345"
   cx="60.194477"
   cy="33.271545"
   id="circle28-5-2-4"
   rx="2.4318063"
   ry="2.3754234" /><ellipse
   style="fill:#999999;stroke-width:2.40345"
   cx="54.064213"
   cy="33.271545"
   id="circle28-5-2-2"
   rx="2.4318063"
   ry="2.3754234" /><ellipse
   style="fill:#999999;stroke-width:2.40345"
   cx="47.5508"
   cy="33.093109"
   id="circle28-5-2-3"
   rx="2.4318063"
   ry="2.3754234" /><ellipse
   style="fill:#999999;stroke-width:2.40345"
   cx="40.608967"
   cy="33.407837"
   id="circle28-5-2"
   rx="2.4318063"
   ry="2.3754234" /><ellipse
   style="fill:#999999;stroke-width:2.40345"
   cx="116.81232"
   cy="33.093109"
   id="circle28-5-2-25-1"
   rx="2.4318063"
   ry="2.3754234" /><ellipse
   style="fill:#999999;stroke-width:2.40345"
   cx="111.06519"
   cy="33.093109"
   id="circle28-5-2-4-6"
   rx="2.4318063"
   ry="2.3754234" /><ellipse
   style="fill:#999999;stroke-width:2.40345"
   cx="104.93491"
   cy="33.093109"
   id="circle28-5-2-2-7"
   rx="2.4318063"
   ry="2.3754234" /><ellipse
   style="fill:#999999;stroke-width:2.40345"
   cx="98.421501"
   cy="32.914642"
   id="circle28-5-2-3-6"
   rx="2.4318063"
   ry="2.3754234" /><ellipse
   style="fill:#999999;stroke-width:2.40345"
   cx="91.479652"
   cy="33.22937"
   id="circle28-5-2-7"
   rx="2.4318063"
   ry="2.3754234" /><ellipse
   style="fill:#b3b3b3;stroke-width:1.66357"
   cx="116.71626"
   cy="74.889984"
   id="circle2-2"
   rx="1.6655228"
   ry="1.661626" /><ellipse
   style="fill:#b3b3b3;stroke-width:1.66357"
   cx="121.71281"
   cy="74.889984"
   id="circle3-7"
   rx="1.6655228"
   ry="1.661626" /><ellipse
   style="fill:#b3b3b3;stroke-width:1.66357"
   cx="126.70939"
   cy="74.889984"
   id="circle4-4"
   rx="1.6655228"
   ry="1.661626" /><ellipse
   style="fill:#b3b3b3;stroke-width:1.66357"
   cx="131.70596"
   cy="74.889984"
   id="circle5-3"
   rx="1.6655228"
   ry="1.661626" /><ellipse
   style="fill:#b3b3b3;stroke-width:1.66357"
   cx="136.70251"
   cy="74.889984"
   id="circle6-20"
   rx="1.6655228"
   ry="1.661626" /><ellipse
   style="fill:#b3b3b3;stroke-width:1.66357"
   cx="141.6991"
   cy="74.889984"
   id="circle7-98"
   rx="1.6655228"
   ry="1.661626" /><ellipse
   style="fill:#b3b3b3;stroke-width:1.66357"
   cx="146.69565"
   cy="74.889984"
   id="circle8-75"
   rx="1.6655228"
   ry="1.661626" /><ellipse
   style="fill:#b3b3b3;stroke-width:1.66357"
   cx="116.52467"
   cy="81.539001"
   id="circle9-5"
   rx="1.6655228"
   ry="1.661626" /><ellipse
   style="fill:#b3b3b3;stroke-width:1.66357"
   cx="121.52125"
   cy="81.539001"
   id="circle10-2"
   rx="1.6655228"
   ry="1.661626" /><ellipse
   style="fill:#b3b3b3;stroke-width:1.66357"
   cx="126.51783"
   cy="81.539001"
   id="circle11-4"
   rx="1.6655228"
   ry="1.661626" /><ellipse
   style="fill:#b3b3b3;stroke-width:1.66357"
   cx="131.51437"
   cy="81.539001"
   id="circle12-3"
   rx="1.6655228"
   ry="1.661626" /><ellipse
   style="fill:#b3b3b3;stroke-width:1.66357"
   cx="136.51096"
   cy="81.539001"
   id="circle13-6"
   rx="1.6655228"
   ry="1.661626" /><ellipse
   style="fill:#b3b3b3;stroke-width:1.66357"
   cx="141.50751"
   cy="81.539001"
   id="circle14-4"
   rx="1.6655228"
   ry="1.661626" /><ellipse
   style="fill:#b3b3b3;stroke-width:1.66357"
   cx="146.50409"
   cy="81.539001"
   id="circle15-8"
   rx="1.6655228"
   ry="1.661626" /><ellipse
   style="fill:#b3b3b3;stroke-width:1.66357"
   cx="116.52467"
   cy="88.185516"
   id="circle16-62"
   rx="1.6655228"
   ry="1.661626" /><ellipse
   style="fill:#b3b3b3;stroke-width:1.66357"
   cx="121.52125"
   cy="88.185516"
   id="circle17-7"
   rx="1.6655228"
   ry="1.661626" /><ellipse
   style="fill:#b3b3b3;stroke-width:1.66357"
   cx="126.51783"
   cy="88.185516"
   id="circle18-2"
   rx="1.6655228"
   ry="1.661626" /><ellipse
   style="fill:#b3b3b3;stroke-width:1.66357"
   cx="131.51437"
   cy="88.185516"
   id="circle19-2"
   rx="1.6655228"
   ry="1.661626" /><ellipse
   style="fill:#b3b3b3;stroke-width:1.66357"
   cx="136.51096"
   cy="88.185516"
   id="circle20-4"
   rx="1.6655228"
   ry="1.661626" /><ellipse
   style="fill:#b3b3b3;stroke-width:1.66357"
   cx="141.50751"
   cy="88.185516"
   id="circle21-96"
   rx="1.6655228"
   ry="1.661626" /><ellipse
   style="fill:#b3b3b3;stroke-width:1.66357"
   cx="146.50409"
   cy="88.185516"
   id="circle22-4"
   rx="1.6655228"
   ry="1.661626" /><ellipse
   style="fill:#b3b3b3;stroke-width:1.66357"
   cx="81.127708"
   cy="74.771423"
   id="circle23-6"
   rx="1.6655228"
   ry="1.661626" /><ellipse
   style="fill:#b3b3b3;stroke-width:1.66357"
   cx="86.12429"
   cy="74.771423"
   id="circle24-76"
   rx="1.6655228"
   ry="1.661626" /><ellipse
   style="fill:#b3b3b3;stroke-width:1.66357"
   cx="91.120857"
   cy="74.771423"
   id="circle25-8"
   rx="1.6655228"
   ry="1.661626" /><ellipse
   style="fill:#b3b3b3;stroke-width:1.66357"
   cx="96.117424"
   cy="74.771423"
   id="circle26-9"
   rx="1.6655228"
   ry="1.661626" /><ellipse
   style="fill:#b3b3b3;stroke-width:1.66357"
   cx="101.11402"
   cy="74.771423"
   id="circle27-8"
   rx="1.6655228"
   ry="1.661626" /><ellipse
   style="fill:#b3b3b3;stroke-width:1.66357"
   cx="106.11057"
   cy="74.771423"
   id="circle28-4"
   rx="1.6655228"
   ry="1.661626" /><ellipse
   style="fill:#b3b3b3;stroke-width:1.66357"
   cx="111.10715"
   cy="74.771423"
   id="circle29-8"
   rx="1.6655228"
   ry="1.661626" /><ellipse
   style="fill:#b3b3b3;stroke-width:1.66357"
   cx="116.72443"
   cy="68.754425"
   id="circle2-9-0"
   rx="1.6655228"
   ry="1.661626" /><ellipse
   style="fill:#b3b3b3;stroke-width:1.66357"
   cx="121.72102"
   cy="68.754425"
   id="circle3-8-6"
   rx="1.6655228"
   ry="1.661626" /><ellipse
   style="fill:#b3b3b3;stroke-width:1.66357"
   cx="126.71757"
   cy="68.754425"
   id="circle4-0-45"
   rx="1.6655228"
   ry="1.661626" /><ellipse
   style="fill:#b3b3b3;stroke-width:1.66357"
   cx="131.71414"
   cy="68.754425"
   id="circle5-2-22"
   rx="1.6655228"
   ry="1.661626" /><ellipse
   style="fill:#b3b3b3;stroke-width:1.66357"
   cx="136.71069"
   cy="68.754425"
   id="circle6-6-2"
   rx="1.6655228"
   ry="1.661626" /><ellipse
   style="fill:#b3b3b3;stroke-width:1.66357"
   cx="141.70728"
   cy="68.754425"
   id="circle7-6-61"
   rx="1.6655228"
   ry="1.661626" /><ellipse
   style="fill:#b3b3b3;stroke-width:1.66357"
   cx="146.70383"
   cy="68.754425"
   id="circle8-8-3"
   rx="1.6655228"
   ry="1.661626" /><ellipse
   style="fill:#b3b3b3;stroke-width:1.66357"
   cx="81.135887"
   cy="68.635895"
   id="circle23-4-4"
   rx="1.6655228"
   ry="1.661626" /><ellipse
   style="fill:#b3b3b3;stroke-width:1.66357"
   cx="86.132469"
   cy="68.635895"
   id="circle24-5-42"
   rx="1.6655228"
   ry="1.661626" /><ellipse
   style="fill:#b3b3b3;stroke-width:1.66357"
   cx="91.129036"
   cy="68.635895"
   id="circle25-5-1"
   rx="1.6655228"
   ry="1.661626" /><ellipse
   style="fill:#b3b3b3;stroke-width:1.66357"
   cx="96.125603"
   cy="68.635895"
   id="circle26-1-9"
   rx="1.6655228"
   ry="1.661626" /><ellipse
   style="fill:#b3b3b3;stroke-width:1.66357"
   cx="101.1222"
   cy="68.635895"
   id="circle27-2-9"
   rx="1.6655228"
   ry="1.661626" /><ellipse
   style="fill:#b3b3b3;stroke-width:1.66357"
   cx="106.11875"
   cy="68.635895"
   id="circle28-5-8"
   rx="1.6655228"
   ry="1.661626" /><ellipse
   style="fill:#b3b3b3;stroke-width:1.66357"
   cx="111.11533"
   cy="68.635895"
   id="circle29-7-1"
   rx="1.6655228"
   ry="1.661626" /><ellipse
   style="fill:#b3b3b3;stroke-width:1.66357"
   cx="80.936134"
   cy="81.420456"
   id="circle30-8"
   rx="1.6655228"
   ry="1.661626" /><ellipse
   style="fill:#b3b3b3;stroke-width:1.66357"
   cx="85.932716"
   cy="81.420456"
   id="circle31-7"
   rx="1.6655228"
   ry="1.661626" /><ellipse
   style="fill:#b3b3b3;stroke-width:1.66357"
   cx="90.929283"
   cy="81.420456"
   id="circle32-7"
   rx="1.6655228"
   ry="1.661626" /><ellipse
   style="fill:#b3b3b3;stroke-width:1.66357"
   cx="95.92585"
   cy="81.420456"
   id="circle33-0"
   rx="1.6655228"
   ry="1.661626" /><ellipse
   style="fill:#b3b3b3;stroke-width:1.66357"
   cx="100.92242"
   cy="81.420456"
   id="circle34-4"
   rx="1.6655228"
   ry="1.661626" /><ellipse
   style="fill:#b3b3b3;stroke-width:1.66357"
   cx="105.91901"
   cy="81.420456"
   id="circle35-1"
   rx="1.6655228"
   ry="1.661626" /><ellipse
   style="fill:#b3b3b3;stroke-width:1.66357"
   cx="110.9156"
   cy="81.420456"
   id="circle36-0"
   rx="1.6655228"
   ry="1.661626" /><ellipse
   style="fill:#b3b3b3;stroke-width:1.66357"
   cx="80.936134"
   cy="88.066956"
   id="circle37-6"
   rx="1.6655228"
   ry="1.661626" /><ellipse
   style="fill:#b3b3b3;stroke-width:1.66357"
   cx="85.932716"
   cy="88.066956"
   id="circle38-3"
   rx="1.6655228"
   ry="1.661626" /><ellipse
   style="fill:#b3b3b3;stroke-width:1.66357"
   cx="90.929283"
   cy="88.066956"
   id="circle39-82"
   rx="1.6655228"
   ry="1.661626" /><ellipse
   style="fill:#b3b3b3;stroke-width:1.66357"
   cx="95.92585"
   cy="88.066956"
   id="circle40-3"
   rx="1.6655228"
   ry="1.661626" /><ellipse
   style="fill:#b3b3b3;stroke-width:1.66357"
   cx="100.92242"
   cy="88.066956"
   id="circle41-0"
   rx="1.6655228"
   ry="1.661626" /><ellipse
   style="fill:#b3b3b3;stroke-width:1.66357"
   cx="105.91901"
   cy="88.066956"
   id="circle42-8"
   rx="1.6655228"
   ry="1.661626" /><ellipse
   style="fill:#b3b3b3;stroke-width:1.66357"
   cx="110.9156"
   cy="88.066956"
   id="circle43-7"
   rx="1.6655228"
   ry="1.661626" /><ellipse
   style="fill:#b3b3b3;stroke-width:1.66357"
   cx="44.87714"
   cy="75.425323"
   id="circle2-8"
   rx="1.6655228"
   ry="1.661626" /><ellipse
   style="fill:#b3b3b3;stroke-width:1.66357"
   cx="49.873707"
   cy="75.425323"
   id="circle3-94"
   rx="1.6655228"
   ry="1.661626" /><ellipse
   style="fill:#b3b3b3;stroke-width:1.66357"
   cx="54.870274"
   cy="75.425323"
   id="circle4-8"
   rx="1.6655228"
   ry="1.661626" /><ellipse
   style="fill:#b3b3b3;stroke-width:1.66357"
   cx="59.86684"
   cy="75.425323"
   id="circle5-8"
   rx="1.6655228"
   ry="1.661626" /><ellipse
   style="fill:#b3b3b3;stroke-width:1.66357"
   cx="64.863411"
   cy="75.425323"
   id="circle6-8"
   rx="1.6655228"
   ry="1.661626" /><ellipse
   style="fill:#b3b3b3;stroke-width:1.66357"
   cx="69.859978"
   cy="75.425323"
   id="circle7-9"
   rx="1.6655228"
   ry="1.661626" /><ellipse
   style="fill:#b3b3b3;stroke-width:1.66357"
   cx="74.85656"
   cy="75.425323"
   id="circle8-84"
   rx="1.6655228"
   ry="1.661626" /><ellipse
   style="fill:#b3b3b3;stroke-width:1.66357"
   cx="44.87714"
   cy="81.360565"
   id="circle9-6"
   rx="1.6655228"
   ry="1.661626" /><ellipse
   style="fill:#b3b3b3;stroke-width:1.66357"
   cx="49.873707"
   cy="81.360565"
   id="circle10-9"
   rx="1.6655228"
   ry="1.661626" /><ellipse
   style="fill:#b3b3b3;stroke-width:1.66357"
   cx="54.870274"
   cy="81.360565"
   id="circle11-6"
   rx="1.6655228"
   ry="1.661626" /><ellipse
   style="fill:#b3b3b3;stroke-width:1.66357"
   cx="59.86684"
   cy="81.360565"
   id="circle12-9"
   rx="1.6655228"
   ry="1.661626" /><ellipse
   style="fill:#b3b3b3;stroke-width:1.66357"
   cx="64.863411"
   cy="81.360565"
   id="circle13-9"
   rx="1.6655228"
   ry="1.661626" /><ellipse
   style="fill:#b3b3b3;stroke-width:1.66357"
   cx="69.859978"
   cy="81.360565"
   id="circle14-9"
   rx="1.6655228"
   ry="1.661626" /><ellipse
   style="fill:#b3b3b3;stroke-width:1.66357"
   cx="74.85656"
   cy="81.360565"
   id="circle15-4"
   rx="1.6655228"
   ry="1.661626" /><ellipse
   style="fill:#b3b3b3;stroke-width:1.66357"
   cx="44.87714"
   cy="88.007095"
   id="circle16-6"
   rx="1.6655228"
   ry="1.661626" /><ellipse
   style="fill:#b3b3b3;stroke-width:1.66357"
   cx="49.873707"
   cy="88.007095"
   id="circle17-9"
   rx="1.6655228"
   ry="1.661626" /><ellipse
   style="fill:#b3b3b3;stroke-width:1.66357"
   cx="54.870274"
   cy="88.007095"
   id="circle18-4"
   rx="1.6655228"
   ry="1.661626" /><ellipse
   style="fill:#b3b3b3;stroke-width:1.66357"
   cx="59.86684"
   cy="88.007095"
   id="circle19-0"
   rx="1.6655228"
   ry="1.661626" /><ellipse
   style="fill:#b3b3b3;stroke-width:1.66357"
   cx="64.863411"
   cy="88.007095"
   id="circle20-9"
   rx="1.6655228"
   ry="1.661626" /><ellipse
   style="fill:#b3b3b3;stroke-width:1.66357"
   cx="69.859978"
   cy="88.007095"
   id="circle21-7"
   rx="1.6655228"
   ry="1.661626" /><ellipse
   style="fill:#b3b3b3;stroke-width:1.66357"
   cx="74.85656"
   cy="88.007095"
   id="circle22-2"
   rx="1.6655228"
   ry="1.661626" /><ellipse
   style="fill:#b3b3b3;stroke-width:1.66357"
   cx="9.2886238"
   cy="75.306763"
   id="circle23-3"
   rx="1.6655228"
   ry="1.661626" /><ellipse
   style="fill:#b3b3b3;stroke-width:1.66357"
   cx="14.285206"
   cy="75.306763"
   id="circle24-4"
   rx="1.6655228"
   ry="1.661626" /><ellipse
   style="fill:#b3b3b3;stroke-width:1.66357"
   cx="19.281773"
   cy="75.306763"
   id="circle25-55"
   rx="1.6655228"
   ry="1.661626" /><ellipse
   style="fill:#b3b3b3;stroke-width:1.66357"
   cx="24.278339"
   cy="75.306763"
   id="circle26-3"
   rx="1.6655228"
   ry="1.661626" /><ellipse
   style="fill:#b3b3b3;stroke-width:1.66357"
   cx="29.274906"
   cy="75.306763"
   id="circle27-7"
   rx="1.6655228"
   ry="1.661626" /><ellipse
   style="fill:#b3b3b3;stroke-width:1.66357"
   cx="34.271473"
   cy="75.306763"
   id="circle28-1"
   rx="1.6655228"
   ry="1.661626" /><ellipse
   style="fill:#b3b3b3;stroke-width:1.66357"
   cx="39.26804"
   cy="75.306763"
   id="circle29-06"
   rx="1.6655228"
   ry="1.661626" /><ellipse
   style="fill:#b3b3b3;stroke-width:1.66357"
   cx="44.885319"
   cy="69.289764"
   id="circle2-9-3"
   rx="1.6655228"
   ry="1.661626" /><ellipse
   style="fill:#b3b3b3;stroke-width:1.66357"
   cx="49.881886"
   cy="69.289764"
   id="circle3-8-2"
   rx="1.6655228"
   ry="1.661626" /><ellipse
   style="fill:#b3b3b3;stroke-width:1.66357"
   cx="54.878452"
   cy="69.289764"
   id="circle4-0-1"
   rx="1.6655228"
   ry="1.661626" /><ellipse
   style="fill:#b3b3b3;stroke-width:1.66357"
   cx="59.875019"
   cy="69.289764"
   id="circle5-2-2"
   rx="1.6655228"
   ry="1.661626" /><ellipse
   style="fill:#b3b3b3;stroke-width:1.66357"
   cx="64.87159"
   cy="69.289764"
   id="circle6-6-8"
   rx="1.6655228"
   ry="1.661626" /><ellipse
   style="fill:#b3b3b3;stroke-width:1.66357"
   cx="69.868156"
   cy="69.289764"
   id="circle7-6-7"
   rx="1.6655228"
   ry="1.661626" /><ellipse
   style="fill:#b3b3b3;stroke-width:1.66357"
   cx="74.864738"
   cy="69.289764"
   id="circle8-8-9"
   rx="1.6655228"
   ry="1.661626" /><ellipse
   style="fill:#b3b3b3;stroke-width:1.66357"
   cx="9.2968178"
   cy="69.171234"
   id="circle23-4-2"
   rx="1.6655228"
   ry="1.661626" /><ellipse
   style="fill:#b3b3b3;stroke-width:1.66357"
   cx="14.293385"
   cy="69.171234"
   id="circle24-5-4"
   rx="1.6655228"
   ry="1.661626" /><ellipse
   style="fill:#b3b3b3;stroke-width:1.66357"
   cx="19.289951"
   cy="69.171234"
   id="circle25-5-0"
   rx="1.6655228"
   ry="1.661626" /><ellipse
   style="fill:#b3b3b3;stroke-width:1.66357"
   cx="24.286518"
   cy="69.171234"
   id="circle26-1-5"
   rx="1.6655228"
   ry="1.661626" /><ellipse
   style="fill:#b3b3b3;stroke-width:1.66357"
   cx="29.283085"
   cy="69.171234"
   id="circle27-2-4"
   rx="1.6655228"
   ry="1.661626" /><ellipse
   style="fill:#b3b3b3;stroke-width:1.66357"
   cx="34.279652"
   cy="69.171234"
   id="circle28-5-4"
   rx="1.6655228"
   ry="1.661626" /><ellipse
   style="fill:#b3b3b3;stroke-width:1.66357"
   cx="39.276218"
   cy="69.171234"
   id="circle29-7-2"
   rx="1.6655228"
   ry="1.661626" /><ellipse
   style="fill:#b3b3b3;stroke-width:1.66357"
   cx="9.2886238"
   cy="81.242004"
   id="circle30-4"
   rx="1.6655228"
   ry="1.661626" /><ellipse
   style="fill:#b3b3b3;stroke-width:1.66357"
   cx="14.285206"
   cy="81.242004"
   id="circle31-8"
   rx="1.6655228"
   ry="1.661626" /><ellipse
   style="fill:#b3b3b3;stroke-width:1.66357"
   cx="19.281773"
   cy="81.242004"
   id="circle32-2"
   rx="1.6655228"
   ry="1.661626" /><ellipse
   style="fill:#b3b3b3;stroke-width:1.66357"
   cx="24.278339"
   cy="81.242004"
   id="circle33-1"
   rx="1.6655228"
   ry="1.661626" /><ellipse
   style="fill:#b3b3b3;stroke-width:1.66357"
   cx="29.274906"
   cy="81.242004"
   id="circle34-0"
   rx="1.6655228"
   ry="1.661626" /><ellipse
   style="fill:#b3b3b3;stroke-width:1.66357"
   cx="34.271473"
   cy="81.242004"
   id="circle35-3"
   rx="1.6655228"
   ry="1.661626" /><ellipse
   style="fill:#b3b3b3;stroke-width:1.66357"
   cx="39.26804"
   cy="81.242004"
   id="circle36-9"
   rx="1.6655228"
   ry="1.661626" /><ellipse
   style="fill:#b3b3b3;stroke-width:1.66357"
   cx="9.2886238"
   cy="87.888519"
   id="circle37-5"
   rx="1.6655228"
   ry="1.661626" /><ellipse
   style="fill:#b3b3b3;stroke-width:1.66357"
   cx="14.285206"
   cy="87.888519"
   id="circle38-2"
   rx="1.6655228"
   ry="1.661626" /><ellipse
   style="fill:#b3b3b3;stroke-width:1.66357"
   cx="19.281773"
   cy="87.888519"
   id="circle39-8"
   rx="1.6655228"
   ry="1.661626" /><ellipse
   style="fill:#b3b3b3;stroke-width:1.66357"
   cx="24.278339"
   cy="87.888519"
   id="circle40-7"
   rx="1.6655228"
   ry="1.661626" /><ellipse
   style="fill:#b3b3b3;stroke-width:1.66357"
   cx="29.274906"
   cy="87.888519"
   id="circle41-2"
   rx="1.6655228"
   ry="1.661626" /><ellipse
   style="fill:#b3b3b3;stroke-width:1.66357"
   cx="34.271473"
   cy="87.888519"
   id="circle42-3"
   rx="1.6655228"
   ry="1.661626" /><ellipse
   style="fill:#b3b3b3;stroke-width:1.66357"
   cx="39.26804"
   cy="87.888519"
   id="circle43-47"
   rx="1.6655228"
   ry="1.661626" /><ellipse
   style="fill:#b3b3b3;stroke-width:1.66357"
   cx="116.71626"
   cy="51.334686"
   id="circle2-98"
   rx="1.6655228"
   ry="1.661626" /><ellipse
   style="fill:#b3b3b3;stroke-width:1.66357"
   cx="121.71281"
   cy="51.334686"
   id="circle3-9"
   rx="1.6655228"
   ry="1.661626" /><ellipse
   style="fill:#b3b3b3;stroke-width:1.66357"
   cx="126.70939"
   cy="51.334686"
   id="circle4-7"
   rx="1.6655228"
   ry="1.661626" /><ellipse
   style="fill:#b3b3b3;stroke-width:1.66357"
   cx="131.70596"
   cy="51.334686"
   id="circle5-7"
   rx="1.6655228"
   ry="1.661626" /><ellipse
   style="fill:#b3b3b3;stroke-width:1.66357"
   cx="136.70251"
   cy="51.334686"
   id="circle6-2"
   rx="1.6655228"
   ry="1.661626" /><ellipse
   style="fill:#b3b3b3;stroke-width:1.66357"
   cx="141.6991"
   cy="51.334686"
   id="circle7-8"
   rx="1.6655228"
   ry="1.661626" /><ellipse
   style="fill:#b3b3b3;stroke-width:1.66357"
   cx="146.69565"
   cy="51.334686"
   id="circle8-7"
   rx="1.6655228"
   ry="1.661626" /><ellipse
   style="fill:#b3b3b3;stroke-width:1.66357"
   cx="116.71626"
   cy="57.269897"
   id="circle9-7"
   rx="1.6655228"
   ry="1.661626" /><ellipse
   style="fill:#b3b3b3;stroke-width:1.66357"
   cx="121.71281"
   cy="57.269897"
   id="circle10-5"
   rx="1.6655228"
   ry="1.661626" /><ellipse
   style="fill:#b3b3b3;stroke-width:1.66357"
   cx="126.70939"
   cy="57.269897"
   id="circle11-1"
   rx="1.6655228"
   ry="1.661626" /><ellipse
   style="fill:#b3b3b3;stroke-width:1.66357"
   cx="131.70596"
   cy="57.269897"
   id="circle12-2"
   rx="1.6655228"
   ry="1.661626" /><ellipse
   style="fill:#b3b3b3;stroke-width:1.66357"
   cx="136.70251"
   cy="57.269897"
   id="circle13-4"
   rx="1.6655228"
   ry="1.661626" /><ellipse
   style="fill:#b3b3b3;stroke-width:1.66357"
   cx="141.6991"
   cy="57.269897"
   id="circle14-1"
   rx="1.6655228"
   ry="1.661626" /><ellipse
   style="fill:#b3b3b3;stroke-width:1.66357"
   cx="146.69565"
   cy="57.269897"
   id="circle15-6"
   rx="1.6655228"
   ry="1.661626" /><ellipse
   style="fill:#b3b3b3;stroke-width:1.66357"
   cx="116.71626"
   cy="63.559505"
   id="circle16-1"
   rx="1.6655228"
   ry="1.661626" /><ellipse
   style="fill:#b3b3b3;stroke-width:1.66357"
   cx="121.71281"
   cy="63.559505"
   id="circle17-0"
   rx="1.6655228"
   ry="1.661626" /><ellipse
   style="fill:#b3b3b3;stroke-width:1.66357"
   cx="126.70939"
   cy="63.559505"
   id="circle18-8"
   rx="1.6655228"
   ry="1.661626" /><ellipse
   style="fill:#b3b3b3;stroke-width:1.66357"
   cx="131.70596"
   cy="63.559505"
   id="circle19-1"
   rx="1.6655228"
   ry="1.661626" /><ellipse
   style="fill:#b3b3b3;stroke-width:1.66357"
   cx="136.70251"
   cy="63.559505"
   id="circle20-6"
   rx="1.6655228"
   ry="1.661626" /><ellipse
   style="fill:#b3b3b3;stroke-width:1.66357"
   cx="141.6991"
   cy="63.559505"
   id="circle21-9"
   rx="1.6655228"
   ry="1.661626" /><ellipse
   style="fill:#b3b3b3;stroke-width:1.66357"
   cx="146.69565"
   cy="63.559505"
   id="circle22-9"
   rx="1.6655228"
   ry="1.661626" /><ellipse
   style="fill:#b3b3b3;stroke-width:1.66357"
   cx="81.127708"
   cy="51.216125"
   id="circle23-45"
   rx="1.6655228"
   ry="1.661626" /><ellipse
   style="fill:#b3b3b3;stroke-width:1.66357"
   cx="86.12429"
   cy="51.216125"
   id="circle24-7"
   rx="1.6655228"
   ry="1.661626" /><ellipse
   style="fill:#b3b3b3;stroke-width:1.66357"
   cx="91.120857"
   cy="51.216125"
   id="circle25-7"
   rx="1.6655228"
   ry="1.661626" /><ellipse
   style="fill:#b3b3b3;stroke-width:1.66357"
   cx="96.117424"
   cy="51.216125"
   id="circle26-8"
   rx="1.6655228"
   ry="1.661626" /><ellipse
   style="fill:#b3b3b3;stroke-width:1.66357"
   cx="101.11402"
   cy="51.216125"
   id="circle27-5"
   rx="1.6655228"
   ry="1.661626" /><ellipse
   style="fill:#b3b3b3;stroke-width:1.66357"
   cx="106.11057"
   cy="51.216125"
   id="circle28-8"
   rx="1.6655228"
   ry="1.661626" /><ellipse
   style="fill:#b3b3b3;stroke-width:1.66357"
   cx="111.10715"
   cy="51.216125"
   id="circle29-0"
   rx="1.6655228"
   ry="1.661626" /><ellipse
   style="fill:#b3b3b3;stroke-width:1.66357"
   cx="116.72443"
   cy="45.199097"
   id="circle2-9-5"
   rx="1.6655228"
   ry="1.661626" /><ellipse
   style="fill:#b3b3b3;stroke-width:1.66357"
   cx="121.72102"
   cy="45.199097"
   id="circle3-8-3"
   rx="1.6655228"
   ry="1.661626" /><ellipse
   style="fill:#b3b3b3;stroke-width:1.66357"
   cx="126.71757"
   cy="45.199097"
   id="circle4-0-4"
   rx="1.6655228"
   ry="1.661626" /><ellipse
   style="fill:#b3b3b3;stroke-width:1.66357"
   cx="131.71414"
   cy="45.199097"
   id="circle5-2-0"
   rx="1.6655228"
   ry="1.661626" /><ellipse
   style="fill:#b3b3b3;stroke-width:1.66357"
   cx="136.71069"
   cy="45.199097"
   id="circle6-6-6"
   rx="1.6655228"
   ry="1.661626" /><ellipse
   style="fill:#b3b3b3;stroke-width:1.66357"
   cx="141.70728"
   cy="45.199097"
   id="circle7-6-6"
   rx="1.6655228"
   ry="1.661626" /><ellipse
   style="fill:#b3b3b3;stroke-width:1.66357"
   cx="146.70383"
   cy="45.199097"
   id="circle8-8-7"
   rx="1.6655228"
   ry="1.661626" /><ellipse
   style="fill:#b3b3b3;stroke-width:1.66357"
   cx="81.135887"
   cy="45.080566"
   id="circle23-4-9"
   rx="1.6655228"
   ry="1.661626" /><ellipse
   style="fill:#b3b3b3;stroke-width:1.66357"
   cx="86.132469"
   cy="45.080566"
   id="circle24-5-2"
   rx="1.6655228"
   ry="1.661626" /><ellipse
   style="fill:#b3b3b3;stroke-width:1.66357"
   cx="91.129036"
   cy="45.080566"
   id="circle25-5-6"
   rx="1.6655228"
   ry="1.661626" /><ellipse
   style="fill:#b3b3b3;stroke-width:1.66357"
   cx="96.125603"
   cy="45.080566"
   id="circle26-1-3"
   rx="1.6655228"
   ry="1.661626" /><ellipse
   style="fill:#b3b3b3;stroke-width:1.66357"
   cx="101.1222"
   cy="45.080566"
   id="circle27-2-2"
   rx="1.6655228"
   ry="1.661626" /><ellipse
   style="fill:#b3b3b3;stroke-width:1.66357"
   cx="106.11875"
   cy="45.080566"
   id="circle28-5-6"
   rx="1.6655228"
   ry="1.661626" /><ellipse
   style="fill:#b3b3b3;stroke-width:1.66357"
   cx="111.11533"
   cy="45.080566"
   id="circle29-7-0"
   rx="1.6655228"
   ry="1.661626" /><ellipse
   style="fill:#b3b3b3;stroke-width:1.66357"
   cx="81.127708"
   cy="57.151337"
   id="circle30-2"
   rx="1.6655228"
   ry="1.661626" /><ellipse
   style="fill:#b3b3b3;stroke-width:1.66357"
   cx="86.12429"
   cy="57.151337"
   id="circle31-1"
   rx="1.6655228"
   ry="1.661626" /><ellipse
   style="fill:#b3b3b3;stroke-width:1.66357"
   cx="91.120857"
   cy="57.151337"
   id="circle32-4"
   rx="1.6655228"
   ry="1.661626" /><ellipse
   style="fill:#b3b3b3;stroke-width:1.66357"
   cx="96.117424"
   cy="57.151337"
   id="circle33-7"
   rx="1.6655228"
   ry="1.661626" /><ellipse
   style="fill:#b3b3b3;stroke-width:1.66357"
   cx="101.11402"
   cy="57.151337"
   id="circle34-5"
   rx="1.6655228"
   ry="1.661626" /><ellipse
   style="fill:#b3b3b3;stroke-width:1.66357"
   cx="106.11057"
   cy="57.151337"
   id="circle35-8"
   rx="1.6655228"
   ry="1.661626" /><ellipse
   style="fill:#b3b3b3;stroke-width:1.66357"
   cx="111.10715"
   cy="57.151337"
   id="circle36-8"
   rx="1.6655228"
   ry="1.661626" /><ellipse
   style="fill:#b3b3b3;stroke-width:1.66357"
   cx="81.127708"
   cy="63.440945"
   id="circle37-0"
   rx="1.6655228"
   ry="1.661626" /><ellipse
   style="fill:#b3b3b3;stroke-width:1.66357"
   cx="86.12429"
   cy="63.440945"
   id="circle38-7"
   rx="1.6655228"
   ry="1.661626" /><ellipse
   style="fill:#b3b3b3;stroke-width:1.66357"
   cx="91.120857"
   cy="63.440945"
   id="circle39-0"
   rx="1.6655228"
   ry="1.661626" /><ellipse
   style="fill:#b3b3b3;stroke-width:1.66357"
   cx="96.117424"
   cy="63.440945"
   id="circle40-0"
   rx="1.6655228"
   ry="1.661626" /><ellipse
   style="fill:#b3b3b3;stroke-width:1.66357"
   cx="101.11402"
   cy="63.440945"
   id="circle41-8"
   rx="1.6655228"
   ry="1.661626" /><ellipse
   style="fill:#b3b3b3;stroke-width:1.66357"
   cx="106.11057"
   cy="63.440945"
   id="circle42-2"
   rx="1.6655228"
   ry="1.661626" /><ellipse
   style="fill:#b3b3b3;stroke-width:1.66357"
   cx="111.10715"
   cy="63.440945"
   id="circle43-4"
   rx="1.6655228"
   ry="1.661626" /><ellipse
   style="fill:#b3b3b3;stroke-width:1.66357"
   cx="44.685566"
   cy="50.977753"
   id="circle2"
   rx="1.6655228"
   ry="1.661626" /><ellipse
   style="fill:#b3b3b3;stroke-width:1.66357"
   cx="49.682133"
   cy="50.977753"
   id="circle3"
   rx="1.6655228"
   ry="1.661626" /><ellipse
   style="fill:#b3b3b3;stroke-width:1.66357"
   cx="54.678699"
   cy="50.977753"
   id="circle4"
   rx="1.6655228"
   ry="1.661626" /><ellipse
   style="fill:#b3b3b3;stroke-width:1.66357"
   cx="59.675266"
   cy="50.977753"
   id="circle5"
   rx="1.6655228"
   ry="1.661626" /><ellipse
   style="fill:#b3b3b3;stroke-width:1.66357"
   cx="64.671837"
   cy="50.977753"
   id="circle6"
   rx="1.6655228"
   ry="1.661626" /><ellipse
   style="fill:#b3b3b3;stroke-width:1.66357"
   cx="69.668419"
   cy="50.977753"
   id="circle7"
   rx="1.6655228"
   ry="1.661626" /><ellipse
   style="fill:#b3b3b3;stroke-width:1.66357"
   cx="74.664986"
   cy="50.977753"
   id="circle8"
   rx="1.6655228"
   ry="1.661626" /><ellipse
   style="fill:#b3b3b3;stroke-width:1.66357"
   cx="44.685566"
   cy="56.912994"
   id="circle9"
   rx="1.6655228"
   ry="1.661626" /><ellipse
   style="fill:#b3b3b3;stroke-width:1.66357"
   cx="49.682133"
   cy="56.912994"
   id="circle10"
   rx="1.6655228"
   ry="1.661626" /><ellipse
   style="fill:#b3b3b3;stroke-width:1.66357"
   cx="54.678699"
   cy="56.912994"
   id="circle11"
   rx="1.6655228"
   ry="1.661626" /><ellipse
   style="fill:#b3b3b3;stroke-width:1.66357"
   cx="59.675266"
   cy="56.912994"
   id="circle12"
   rx="1.6655228"
   ry="1.661626" /><ellipse
   style="fill:#b3b3b3;stroke-width:1.66357"
   cx="64.671837"
   cy="56.912994"
   id="circle13"
   rx="1.6655228"
   ry="1.661626" /><ellipse
   style="fill:#b3b3b3;stroke-width:1.66357"
   cx="69.668419"
   cy="56.912994"
   id="circle14"
   rx="1.6655228"
   ry="1.661626" /><ellipse
   style="fill:#b3b3b3;stroke-width:1.66357"
   cx="74.664986"
   cy="56.912994"
   id="circle15"
   rx="1.6655228"
   ry="1.661626" /><ellipse
   style="fill:#b3b3b3;stroke-width:1.66357"
   cx="44.685566"
   cy="63.559505"
   id="circle16"
   rx="1.6655228"
   ry="1.661626" /><ellipse
   style="fill:#b3b3b3;stroke-width:1.66357"
   cx="49.682133"
   cy="63.559505"
   id="circle17"
   rx="1.6655228"
   ry="1.661626" /><ellipse
   style="fill:#b3b3b3;stroke-width:1.66357"
   cx="54.678699"
   cy="63.559505"
   id="circle18"
   rx="1.6655228"
   ry="1.661626" /><ellipse
   style="fill:#b3b3b3;stroke-width:1.66357"
   cx="59.675266"
   cy="63.559505"
   id="circle19"
   rx="1.6655228"
   ry="1.661626" /><ellipse
   style="fill:#b3b3b3;stroke-width:1.66357"
   cx="64.671837"
   cy="63.559505"
   id="circle20"
   rx="1.6655228"
   ry="1.661626" /><ellipse
   style="fill:#b3b3b3;stroke-width:1.66357"
   cx="69.668419"
   cy="63.559505"
   id="circle21"
   rx="1.6655228"
   ry="1.661626" /><ellipse
   style="fill:#b3b3b3;stroke-width:1.66357"
   cx="74.664986"
   cy="63.559505"
   id="circle22"
   rx="1.6655228"
   ry="1.661626" /><ellipse
   style="fill:#b3b3b3;stroke-width:1.66357"
   cx="9.0970497"
   cy="50.859222"
   id="circle23"
   rx="1.6655228"
   ry="1.661626" /><ellipse
   style="fill:#b3b3b3;stroke-width:1.66357"
   cx="14.093632"
   cy="50.859222"
   id="circle24"
   rx="1.6655228"
   ry="1.661626" /><ellipse
   style="fill:#b3b3b3;stroke-width:1.66357"
   cx="19.090199"
   cy="50.859222"
   id="circle25"
   rx="1.6655228"
   ry="1.661626" /><ellipse
   style="fill:#b3b3b3;stroke-width:1.66357"
   cx="24.086765"
   cy="50.859222"
   id="circle26"
   rx="1.6655228"
   ry="1.661626" /><ellipse
   style="fill:#b3b3b3;stroke-width:1.66357"
   cx="29.083332"
   cy="50.859222"
   id="circle27"
   rx="1.6655228"
   ry="1.661626" /><ellipse
   style="fill:#b3b3b3;stroke-width:1.66357"
   cx="34.079899"
   cy="50.859222"
   id="circle28"
   rx="1.6655228"
   ry="1.661626" /><ellipse
   style="fill:#b3b3b3;stroke-width:1.66357"
   cx="39.076466"
   cy="50.859222"
   id="circle29"
   rx="1.6655228"
   ry="1.661626" /><ellipse
   style="fill:#b3b3b3;stroke-width:1.66357"
   cx="44.693745"
   cy="44.842194"
   id="circle2-9"
   rx="1.6655228"
   ry="1.661626" /><ellipse
   style="fill:#b3b3b3;stroke-width:1.66357"
   cx="49.690311"
   cy="44.842194"
   id="circle3-8"
   rx="1.6655228"
   ry="1.661626" /><ellipse
   style="fill:#b3b3b3;stroke-width:1.66357"
   cx="54.686878"
   cy="44.842194"
   id="circle4-0"
   rx="1.6655228"
   ry="1.661626" /><ellipse
   style="fill:#b3b3b3;stroke-width:1.66357"
   cx="59.683445"
   cy="44.842194"
   id="circle5-2"
   rx="1.6655228"
   ry="1.661626" /><ellipse
   style="fill:#b3b3b3;stroke-width:1.66357"
   cx="64.680031"
   cy="44.842194"
   id="circle6-6"
   rx="1.6655228"
   ry="1.661626" /><ellipse
   style="fill:#b3b3b3;stroke-width:1.66357"
   cx="69.676598"
   cy="44.842194"
   id="circle7-6"
   rx="1.6655228"
   ry="1.661626" /><ellipse
   style="fill:#b3b3b3;stroke-width:1.66357"
   cx="74.673164"
   cy="44.842194"
   id="circle8-8"
   rx="1.6655228"
   ry="1.661626" /><ellipse
   style="fill:#b3b3b3;stroke-width:1.66357"
   cx="9.1052437"
   cy="44.723663"
   id="circle23-4"
   rx="1.6655228"
   ry="1.661626" /><ellipse
   style="fill:#b3b3b3;stroke-width:1.66357"
   cx="14.10181"
   cy="44.723663"
   id="circle24-5"
   rx="1.6655228"
   ry="1.661626" /><ellipse
   style="fill:#b3b3b3;stroke-width:1.66357"
   cx="19.098377"
   cy="44.723663"
   id="circle25-5"
   rx="1.6655228"
   ry="1.661626" /><ellipse
   style="fill:#b3b3b3;stroke-width:1.66357"
   cx="24.094944"
   cy="44.723663"
   id="circle26-1"
   rx="1.6655228"
   ry="1.661626" /><ellipse
   style="fill:#b3b3b3;stroke-width:1.66357"
   cx="29.091511"
   cy="44.723663"
   id="circle27-2"
   rx="1.6655228"
   ry="1.661626" /><ellipse
   style="fill:#b3b3b3;stroke-width:1.66357"
   cx="34.088078"
   cy="44.723663"
   id="circle28-5"
   rx="1.6655228"
   ry="1.661626" /><ellipse
   style="fill:#b3b3b3;stroke-width:1.66357"
   cx="39.084644"
   cy="44.723663"
   id="circle29-7"
   rx="1.6655228"
   ry="1.661626" /><ellipse
   style="fill:#b3b3b3;stroke-width:1.66357"
   cx="9.0970497"
   cy="56.794434"
   id="circle30"
   rx="1.6655228"
   ry="1.661626" /><ellipse
   style="fill:#b3b3b3;stroke-width:1.66357"
   cx="14.093632"
   cy="56.794434"
   id="circle31"
   rx="1.6655228"
   ry="1.661626" /><ellipse
   style="fill:#b3b3b3;stroke-width:1.66357"
   cx="19.090199"
   cy="56.794434"
   id="circle32"
   rx="1.6655228"
   ry="1.661626" /><ellipse
   style="fill:#b3b3b3;stroke-width:1.66357"
   cx="24.086765"
   cy="56.794434"
   id="circle33"
   rx="1.6655228"
   ry="1.661626" /><ellipse
   style="fill:#b3b3b3;stroke-width:1.66357"
   cx="29.083332"
   cy="56.794434"
   id="circle34"
   rx="1.6655228"
   ry="1.661626" /><ellipse
   style="fill:#b3b3b3;stroke-width:1.66357"
   cx="34.079899"
   cy="56.794434"
   id="circle35"
   rx="1.6655228"
   ry="1.661626" /><ellipse
   style="fill:#b3b3b3;stroke-width:1.66357"
   cx="39.076466"
   cy="56.794434"
   id="circle36"
   rx="1.6655228"
   ry="1.661626" /><ellipse
   style="fill:#b3b3b3;stroke-width:1.66357"
   cx="9.0970497"
   cy="63.440945"
   id="circle37"
   rx="1.6655228"
   ry="1.661626" /><ellipse
   style="fill:#b3b3b3;stroke-width:1.66357"
   cx="14.093632"
   cy="63.440945"
   id="circle38"
   rx="1.6655228"
   ry="1.661626" /><ellipse
   style="fill:#b3b3b3;stroke-width:1.66357"
   cx="19.090199"
   cy="63.440945"
   id="circle39"
   rx="1.6655228"
   ry="1.661626" /><ellipse
   style="fill:#b3b3b3;stroke-width:1.66357"
   cx="24.086765"
   cy="63.440945"
   id="circle40"
   rx="1.6655228"
   ry="1.661626" /><ellipse
   style="fill:#b3b3b3;stroke-width:1.66357"
   cx="29.083332"
   cy="63.440945"
   id="circle41"
   rx="1.6655228"
   ry="1.661626" /><ellipse
   style="fill:#b3b3b3;stroke-width:1.66357"
   cx="34.079899"
   cy="63.440945"
   id="circle42"
   rx="1.6655228"
   ry="1.661626" /><ellipse
   style="fill:#b3b3b3;stroke-width:1.66357"
   cx="39.076466"
   cy="63.440945"
   id="circle43"
   rx="1.6655228"
   ry="1.661626" />




<text
   xml:space="preserve"
   id="text11"
   style="white-space:pre;shape-inside:url(#rect11);display:inline;fill:#ffffff;stroke-width:0.562"
   transform="matrix(1.0520669,0,0,1.0647784,-143.76458,-181.81306)"><tspan
     x="202.78516"
     y="206.80539"
     id="tspan3">72</tspan></text><text
   xml:space="preserve"
   id="text12"
   style="white-space:pre;shape-inside:url(#rect12);display:inline;fill:#333333;stroke-width:0.562"
   transform="matrix(0.51299465,0,0,0.51364432,-3.3637617,-72.885229)"><tspan
     x="32.117188"
     y="209.95382"
     id="tspan4">Midea</tspan></text><path
   sodipodi:type="spiral"
   style="fill:none;fill-rule:evenodd;stroke:#000000"
   id="path12"
   sodipodi:cx="-149.88438"
   sodipodi:cy="91.316116"
   sodipodi:expansion="1"
   sodipodi:revolution="3"
   sodipodi:radius="48.557392"
   sodipodi:argument="-18.036642"
   sodipodi:t0="0"
   d="m -149.88438,91.316116 c 1.6735,1.768227 -1.55789,3.128227 -2.93891,2.781469 -3.74248,-0.939692 -4.21507,-5.779478 -2.62403,-8.659286 2.84599,-5.1513 9.87977,-5.570362 14.37966,-2.466589 6.60378,4.554912 6.96763,14.036333 2.30915,20.10004 -6.20902,8.08197 -18.21296,8.38288 -25.82042,2.15171 -9.57321,-7.841292 -9.80746,-22.399163 -1.99427,-31.540795 9.46282,-11.071741 26.59077,-11.237445 37.26118,-1.83683 12.57469,11.078299 12.67082,30.785745 1.67939,42.981555 -12.69005,14.08053 -34.98297,14.10646 -48.70193,1.52195 -15.58835,-14.29933 -15.54369,-39.181778 -1.36451,-54.42231 15.9069,-17.097573 43.38173,-16.982068 60.14268,-1.20707 18.607838,17.513237 18.421305,47.58255 1.04963,65.86306"
   transform="matrix(0.12308995,0,0,0.10356184,33.013938,23.307571)" /><path
   style="fill:#e6e6e6;stroke-width:0.04018"
   d="m 11.032848,8.0354412 v 2.0432998 c 0,0.0934 3.2993,0.16903 7.36818,0.16903 H 139.48844 c 4.06888,0 7.36817,-0.0757 7.36817,-0.16903 V 8.0354412 c 0,-0.0934 -3.29929,-0.16903 -7.36817,-0.16903 H 18.401028 c -4.06888,0 -7.36818,0.0756 -7.36818,0.16903 z"
   id="path1-2-8" /><rect
   style="fill:#e6e6e6;stroke-width:0.164998"
   id="rect13"
   width="11.877395"
   height="8.2086706"
   x="130.7901"
   y="28.50552" /><rect
   style="fill:#e6e6e6;stroke-width:0.164998"
   id="rect14"
   width="1.1494253"
   height="1.4275948"
   x="135.38782"
   y="32.25296" /><path
   sodipodi:type="star"
   style="fill:#999999;stroke-width:0.562"
   id="path14"
   inkscape:flatsided="false"
   sodipodi:sides="5"
   sodipodi:cx="471.06519"
   sodipodi:cy="209.08241"
   sodipodi:r1="10.4814"
   sodipodi:r2="5.2407002"
   sodipodi:arg1="0.99945885"
   sodipodi:arg2="1.6277774"
   inkscape:rounded="0"
   inkscape:randomized="0"
   d="m 476.73308,217.89914 -5.96635,-3.58453 -6.33527,2.88281 1.56538,-6.78202 -4.69942,-5.13436 6.93382,-0.60699 3.43086,-6.05603 2.71995,6.40689 6.81982,1.39153 -5.2528,4.56666 z"
   inkscape:transform-center-x="-0.025928018"
   inkscape:transform-center-y="-0.11144051"
   transform="matrix(0.14057667,0,0,0.13527588,74.656968,3.1333812)" /><text
   xml:space="preserve"
   style="font-size:2.72065px;fill:#999999;stroke-width:0.127417"
   x="174.37383"
   y="25.484394"
   id="text14"
   transform="scale(0.75753753,1.3200666)"><tspan
     sodipodi:role="line"
     id="tspan14"
     x="174.37383"
     y="25.484394"
     style="stroke-width:0.127417">Energy</tspan></text></svg>
