<?xml version="1.0" encoding="UTF-8" standalone="no"?>
<!-- Uploaded to: SVG Repo, www.svgrepo.com, Generator: SVG Repo Mixer Tools -->

<svg
   version="1.1"
   id="Layer_1"
   viewBox="0 0 158.70108 100.13282"
   xml:space="preserve"
   sodipodi:docname="ac-off.svg"
   width="158.70108"
   height="100.13282"
   inkscape:version="1.3.2 (091e20e, 2023-11-25, custom)"
   xmlns:inkscape="http://www.inkscape.org/namespaces/inkscape"
   xmlns:sodipodi="http://sodipodi.sourceforge.net/DTD/sodipodi-0.dtd"
   xmlns="http://www.w3.org/2000/svg"
   xmlns:svg="http://www.w3.org/2000/svg"><defs
   id="defs11"><rect
     x="32.11808"
     y="199.00615"
     width="92.575645"
     height="35.266914"
     id="rect12" /><rect
     x="202.78474"
     y="195.85732"
     width="88.79705"
     height="44.083641"
     id="rect11" /></defs><sodipodi:namedview
   id="namedview11"
   pagecolor="#ffffff"
   bordercolor="#000000"
   borderopacity="0.25"
   inkscape:showpageshadow="2"
   inkscape:pageopacity="0.0"
   inkscape:pagecheckerboard="0"
   inkscape:deskcolor="#d1d1d1"
   inkscape:zoom="1.5878906"
   inkscape:cx="85.333335"
   inkscape:cy="58.88315"
   inkscape:window-width="1920"
   inkscape:window-height="1009"
   inkscape:window-x="-8"
   inkscape:window-y="-8"
   inkscape:window-maximized="1"
   inkscape:current-layer="Layer_1" />
<path
   style="fill:#f2f2f2;stroke-width:0.259583"
   d="m 5.0381287,11.317866 v 77.22342 c 0,3.52776 3.64365,6.38829 8.1372003,6.38829 H 146.90092 c 4.49355,0 8.13721,-2.86076 8.13721,-6.38829 v -77.22342 c 0,-3.5305304 -3.64366,-6.3882904 -8.13721,-6.3882904 H 13.175329 c -4.4935503,0 -8.1372003,2.85776 -8.1372003,6.3882904 z"
   id="path1" /><path
   style="fill:#999999;stroke-width:0.105426"
   d="M 11.032569,9.0292356 V 22.862496 c 0,0.63194 3.35514,1.14435 7.49289,1.14435 H 141.6623 c 4.13774,0 7.49288,-0.51245 7.49288,-1.14435 V 9.0292356 c 0,-0.63243 -3.35514,-1.14435 -7.49288,-1.14435 H 18.525459 c -4.13775,0 -7.49289,0.51192 -7.49289,1.14435 z"
   id="path1-2" /><g
   inkscape:groupmode="layer"
   id="layer1"
   inkscape:label="Layer 1"
   transform="matrix(1.0719323,0,0,3.6589899,-171.81288,-410.73501)"><rect
     style="fill:#e6e6e6;stroke-width:0.0827025"
     id="rect15"
     width="135.82376"
     height="13.850712"
     x="166.7803"
     y="123.77131" /></g><ellipse
   style="fill:#999999;stroke-width:2.40345"
   cx="67.201149"
   cy="34.530815"
   id="circle28-5-2-25"
   rx="2.4318063"
   ry="2.3754234" /><ellipse
   style="fill:#999999;stroke-width:2.40345"
   cx="61.454021"
   cy="34.530815"
   id="circle28-5-2-4"
   rx="2.4318063"
   ry="2.3754234" /><ellipse
   style="fill:#999999;stroke-width:2.40345"
   cx="55.323742"
   cy="34.530815"
   id="circle28-5-2-2"
   rx="2.4318063"
   ry="2.3754234" /><ellipse
   style="fill:#999999;stroke-width:2.40345"
   cx="48.810345"
   cy="34.352364"
   id="circle28-5-2-3"
   rx="2.4318063"
   ry="2.3754234" /><ellipse
   style="fill:#999999;stroke-width:2.40345"
   cx="41.868511"
   cy="34.667076"
   id="circle28-5-2"
   rx="2.4318063"
   ry="2.3754234" /><ellipse
   style="fill:#999999;stroke-width:2.40345"
   cx="118.07178"
   cy="34.352364"
   id="circle28-5-2-25-1"
   rx="2.4318063"
   ry="2.3754234" /><ellipse
   style="fill:#999999;stroke-width:2.40345"
   cx="112.32468"
   cy="34.352364"
   id="circle28-5-2-4-6"
   rx="2.4318063"
   ry="2.3754234" /><ellipse
   style="fill:#999999;stroke-width:2.40345"
   cx="106.1944"
   cy="34.352364"
   id="circle28-5-2-2-7"
   rx="2.4318063"
   ry="2.3754234" /><ellipse
   style="fill:#999999;stroke-width:2.40345"
   cx="99.681007"
   cy="34.173912"
   id="circle28-5-2-3-6"
   rx="2.4318063"
   ry="2.3754234" /><ellipse
   style="fill:#999999;stroke-width:2.40345"
   cx="92.739174"
   cy="34.48864"
   id="circle28-5-2-7"
   rx="2.4318063"
   ry="2.3754234" /><ellipse
   style="fill:#b3b3b3;stroke-width:1.66357"
   cx="117.97575"
   cy="76.149239"
   id="circle2-2"
   rx="1.6655228"
   ry="1.661626" /><ellipse
   style="fill:#b3b3b3;stroke-width:1.66357"
   cx="122.9723"
   cy="76.149239"
   id="circle3-7"
   rx="1.6655228"
   ry="1.661626" /><ellipse
   style="fill:#b3b3b3;stroke-width:1.66357"
   cx="127.96888"
   cy="76.149239"
   id="circle4-4"
   rx="1.6655228"
   ry="1.661626" /><ellipse
   style="fill:#b3b3b3;stroke-width:1.66357"
   cx="132.96544"
   cy="76.149239"
   id="circle5-3"
   rx="1.6655228"
   ry="1.661626" /><ellipse
   style="fill:#b3b3b3;stroke-width:1.66357"
   cx="137.96202"
   cy="76.149239"
   id="circle6-20"
   rx="1.6655228"
   ry="1.661626" /><ellipse
   style="fill:#b3b3b3;stroke-width:1.66357"
   cx="142.95857"
   cy="76.149239"
   id="circle7-98"
   rx="1.6655228"
   ry="1.661626" /><ellipse
   style="fill:#b3b3b3;stroke-width:1.66357"
   cx="147.95515"
   cy="76.149239"
   id="circle8-75"
   rx="1.6655228"
   ry="1.661626" /><ellipse
   style="fill:#b3b3b3;stroke-width:1.66357"
   cx="117.78416"
   cy="82.798271"
   id="circle9-5"
   rx="1.6655228"
   ry="1.661626" /><ellipse
   style="fill:#b3b3b3;stroke-width:1.66357"
   cx="122.78074"
   cy="82.798271"
   id="circle10-2"
   rx="1.6655228"
   ry="1.661626" /><ellipse
   style="fill:#b3b3b3;stroke-width:1.66357"
   cx="127.77729"
   cy="82.798271"
   id="circle11-4"
   rx="1.6655228"
   ry="1.661626" /><ellipse
   style="fill:#b3b3b3;stroke-width:1.66357"
   cx="132.77388"
   cy="82.798271"
   id="circle12-3"
   rx="1.6655228"
   ry="1.661626" /><ellipse
   style="fill:#b3b3b3;stroke-width:1.66357"
   cx="137.77043"
   cy="82.798271"
   id="circle13-6"
   rx="1.6655228"
   ry="1.661626" /><ellipse
   style="fill:#b3b3b3;stroke-width:1.66357"
   cx="142.76701"
   cy="82.798271"
   id="circle14-4"
   rx="1.6655228"
   ry="1.661626" /><ellipse
   style="fill:#b3b3b3;stroke-width:1.66357"
   cx="147.7636"
   cy="82.798271"
   id="circle15-8"
   rx="1.6655228"
   ry="1.661626" /><ellipse
   style="fill:#b3b3b3;stroke-width:1.66357"
   cx="117.78416"
   cy="89.444771"
   id="circle16-62"
   rx="1.6655228"
   ry="1.661626" /><ellipse
   style="fill:#b3b3b3;stroke-width:1.66357"
   cx="122.78074"
   cy="89.444771"
   id="circle17-7"
   rx="1.6655228"
   ry="1.661626" /><ellipse
   style="fill:#b3b3b3;stroke-width:1.66357"
   cx="127.77729"
   cy="89.444771"
   id="circle18-2"
   rx="1.6655228"
   ry="1.661626" /><ellipse
   style="fill:#b3b3b3;stroke-width:1.66357"
   cx="132.77388"
   cy="89.444771"
   id="circle19-2"
   rx="1.6655228"
   ry="1.661626" /><ellipse
   style="fill:#b3b3b3;stroke-width:1.66357"
   cx="137.77043"
   cy="89.444771"
   id="circle20-4"
   rx="1.6655228"
   ry="1.661626" /><ellipse
   style="fill:#b3b3b3;stroke-width:1.66357"
   cx="142.76701"
   cy="89.444771"
   id="circle21-96"
   rx="1.6655228"
   ry="1.661626" /><ellipse
   style="fill:#b3b3b3;stroke-width:1.66357"
   cx="147.7636"
   cy="89.444771"
   id="circle22-4"
   rx="1.6655228"
   ry="1.661626" /><ellipse
   style="fill:#b3b3b3;stroke-width:1.66357"
   cx="82.387245"
   cy="76.030678"
   id="circle23-6"
   rx="1.6655228"
   ry="1.661626" /><ellipse
   style="fill:#b3b3b3;stroke-width:1.66357"
   cx="87.383797"
   cy="76.030678"
   id="circle24-76"
   rx="1.6655228"
   ry="1.661626" /><ellipse
   style="fill:#b3b3b3;stroke-width:1.66357"
   cx="92.380379"
   cy="76.030678"
   id="circle25-8"
   rx="1.6655228"
   ry="1.661626" /><ellipse
   style="fill:#b3b3b3;stroke-width:1.66357"
   cx="97.37693"
   cy="76.030678"
   id="circle26-9"
   rx="1.6655228"
   ry="1.661626" /><ellipse
   style="fill:#b3b3b3;stroke-width:1.66357"
   cx="102.37351"
   cy="76.030678"
   id="circle27-8"
   rx="1.6655228"
   ry="1.661626" /><ellipse
   style="fill:#b3b3b3;stroke-width:1.66357"
   cx="107.37006"
   cy="76.030678"
   id="circle28-4"
   rx="1.6655228"
   ry="1.661626" /><ellipse
   style="fill:#b3b3b3;stroke-width:1.66357"
   cx="112.36665"
   cy="76.030678"
   id="circle29-8"
   rx="1.6655228"
   ry="1.661626" /><ellipse
   style="fill:#b3b3b3;stroke-width:1.66357"
   cx="117.98392"
   cy="70.01368"
   id="circle2-9-0"
   rx="1.6655228"
   ry="1.661626" /><ellipse
   style="fill:#b3b3b3;stroke-width:1.66357"
   cx="122.98048"
   cy="70.01368"
   id="circle3-8-6"
   rx="1.6655228"
   ry="1.661626" /><ellipse
   style="fill:#b3b3b3;stroke-width:1.66357"
   cx="127.97706"
   cy="70.01368"
   id="circle4-0-45"
   rx="1.6655228"
   ry="1.661626" /><ellipse
   style="fill:#b3b3b3;stroke-width:1.66357"
   cx="132.97362"
   cy="70.01368"
   id="circle5-2-22"
   rx="1.6655228"
   ry="1.661626" /><ellipse
   style="fill:#b3b3b3;stroke-width:1.66357"
   cx="137.9702"
   cy="70.01368"
   id="circle6-6-2"
   rx="1.6655228"
   ry="1.661626" /><ellipse
   style="fill:#b3b3b3;stroke-width:1.66357"
   cx="142.96675"
   cy="70.01368"
   id="circle7-6-61"
   rx="1.6655228"
   ry="1.661626" /><ellipse
   style="fill:#b3b3b3;stroke-width:1.66357"
   cx="147.96333"
   cy="70.01368"
   id="circle8-8-3"
   rx="1.6655228"
   ry="1.661626" /><ellipse
   style="fill:#b3b3b3;stroke-width:1.66357"
   cx="82.395424"
   cy="69.895134"
   id="circle23-4-4"
   rx="1.6655228"
   ry="1.661626" /><ellipse
   style="fill:#b3b3b3;stroke-width:1.66357"
   cx="87.391975"
   cy="69.895134"
   id="circle24-5-42"
   rx="1.6655228"
   ry="1.661626" /><ellipse
   style="fill:#b3b3b3;stroke-width:1.66357"
   cx="92.388557"
   cy="69.895134"
   id="circle25-5-1"
   rx="1.6655228"
   ry="1.661626" /><ellipse
   style="fill:#b3b3b3;stroke-width:1.66357"
   cx="97.385109"
   cy="69.895134"
   id="circle26-1-9"
   rx="1.6655228"
   ry="1.661626" /><ellipse
   style="fill:#b3b3b3;stroke-width:1.66357"
   cx="102.38169"
   cy="69.895134"
   id="circle27-2-9"
   rx="1.6655228"
   ry="1.661626" /><ellipse
   style="fill:#b3b3b3;stroke-width:1.66357"
   cx="107.37824"
   cy="69.895134"
   id="circle28-5-8"
   rx="1.6655228"
   ry="1.661626" /><ellipse
   style="fill:#b3b3b3;stroke-width:1.66357"
   cx="112.37482"
   cy="69.895134"
   id="circle29-7-1"
   rx="1.6655228"
   ry="1.661626" /><ellipse
   style="fill:#b3b3b3;stroke-width:1.66357"
   cx="82.195686"
   cy="82.67971"
   id="circle30-8"
   rx="1.6655228"
   ry="1.661626" /><ellipse
   style="fill:#b3b3b3;stroke-width:1.66357"
   cx="87.192238"
   cy="82.67971"
   id="circle31-7"
   rx="1.6655228"
   ry="1.661626" /><ellipse
   style="fill:#b3b3b3;stroke-width:1.66357"
   cx="92.188789"
   cy="82.67971"
   id="circle32-7"
   rx="1.6655228"
   ry="1.661626" /><ellipse
   style="fill:#b3b3b3;stroke-width:1.66357"
   cx="97.185371"
   cy="82.67971"
   id="circle33-0"
   rx="1.6655228"
   ry="1.661626" /><ellipse
   style="fill:#b3b3b3;stroke-width:1.66357"
   cx="102.18192"
   cy="82.67971"
   id="circle34-4"
   rx="1.6655228"
   ry="1.661626" /><ellipse
   style="fill:#b3b3b3;stroke-width:1.66357"
   cx="107.1785"
   cy="82.67971"
   id="circle35-1"
   rx="1.6655228"
   ry="1.661626" /><ellipse
   style="fill:#b3b3b3;stroke-width:1.66357"
   cx="112.17509"
   cy="82.67971"
   id="circle36-0"
   rx="1.6655228"
   ry="1.661626" /><ellipse
   style="fill:#b3b3b3;stroke-width:1.66357"
   cx="82.195686"
   cy="89.32621"
   id="circle37-6"
   rx="1.6655228"
   ry="1.661626" /><ellipse
   style="fill:#b3b3b3;stroke-width:1.66357"
   cx="87.192238"
   cy="89.32621"
   id="circle38-3"
   rx="1.6655228"
   ry="1.661626" /><ellipse
   style="fill:#b3b3b3;stroke-width:1.66357"
   cx="92.188789"
   cy="89.32621"
   id="circle39-82"
   rx="1.6655228"
   ry="1.661626" /><ellipse
   style="fill:#b3b3b3;stroke-width:1.66357"
   cx="97.185371"
   cy="89.32621"
   id="circle40-3"
   rx="1.6655228"
   ry="1.661626" /><ellipse
   style="fill:#b3b3b3;stroke-width:1.66357"
   cx="102.18192"
   cy="89.32621"
   id="circle41-0"
   rx="1.6655228"
   ry="1.661626" /><ellipse
   style="fill:#b3b3b3;stroke-width:1.66357"
   cx="107.1785"
   cy="89.32621"
   id="circle42-8"
   rx="1.6655228"
   ry="1.661626" /><ellipse
   style="fill:#b3b3b3;stroke-width:1.66357"
   cx="112.17509"
   cy="89.32621"
   id="circle43-7"
   rx="1.6655228"
   ry="1.661626" /><ellipse
   style="fill:#b3b3b3;stroke-width:1.66357"
   cx="46.136669"
   cy="76.684593"
   id="circle2-8"
   rx="1.6655228"
   ry="1.661626" /><ellipse
   style="fill:#b3b3b3;stroke-width:1.66357"
   cx="51.133251"
   cy="76.684593"
   id="circle3-94"
   rx="1.6655228"
   ry="1.661626" /><ellipse
   style="fill:#b3b3b3;stroke-width:1.66357"
   cx="56.129803"
   cy="76.684593"
   id="circle4-8"
   rx="1.6655228"
   ry="1.661626" /><ellipse
   style="fill:#b3b3b3;stroke-width:1.66357"
   cx="61.126385"
   cy="76.684593"
   id="circle5-8"
   rx="1.6655228"
   ry="1.661626" /><ellipse
   style="fill:#b3b3b3;stroke-width:1.66357"
   cx="66.122932"
   cy="76.684593"
   id="circle6-8"
   rx="1.6655228"
   ry="1.661626" /><ellipse
   style="fill:#b3b3b3;stroke-width:1.66357"
   cx="71.119514"
   cy="76.684593"
   id="circle7-9"
   rx="1.6655228"
   ry="1.661626" /><ellipse
   style="fill:#b3b3b3;stroke-width:1.66357"
   cx="76.116096"
   cy="76.684593"
   id="circle8-84"
   rx="1.6655228"
   ry="1.661626" /><ellipse
   style="fill:#b3b3b3;stroke-width:1.66357"
   cx="46.136669"
   cy="82.61982"
   id="circle9-6"
   rx="1.6655228"
   ry="1.661626" /><ellipse
   style="fill:#b3b3b3;stroke-width:1.66357"
   cx="51.133251"
   cy="82.61982"
   id="circle10-9"
   rx="1.6655228"
   ry="1.661626" /><ellipse
   style="fill:#b3b3b3;stroke-width:1.66357"
   cx="56.129803"
   cy="82.61982"
   id="circle11-6"
   rx="1.6655228"
   ry="1.661626" /><ellipse
   style="fill:#b3b3b3;stroke-width:1.66357"
   cx="61.126385"
   cy="82.61982"
   id="circle12-9"
   rx="1.6655228"
   ry="1.661626" /><ellipse
   style="fill:#b3b3b3;stroke-width:1.66357"
   cx="66.122932"
   cy="82.61982"
   id="circle13-9"
   rx="1.6655228"
   ry="1.661626" /><ellipse
   style="fill:#b3b3b3;stroke-width:1.66357"
   cx="71.119514"
   cy="82.61982"
   id="circle14-9"
   rx="1.6655228"
   ry="1.661626" /><ellipse
   style="fill:#b3b3b3;stroke-width:1.66357"
   cx="76.116096"
   cy="82.61982"
   id="circle15-4"
   rx="1.6655228"
   ry="1.661626" /><ellipse
   style="fill:#b3b3b3;stroke-width:1.66357"
   cx="46.136669"
   cy="89.266319"
   id="circle16-6"
   rx="1.6655228"
   ry="1.661626" /><ellipse
   style="fill:#b3b3b3;stroke-width:1.66357"
   cx="51.133251"
   cy="89.266319"
   id="circle17-9"
   rx="1.6655228"
   ry="1.661626" /><ellipse
   style="fill:#b3b3b3;stroke-width:1.66357"
   cx="56.129803"
   cy="89.266319"
   id="circle18-4"
   rx="1.6655228"
   ry="1.661626" /><ellipse
   style="fill:#b3b3b3;stroke-width:1.66357"
   cx="61.126385"
   cy="89.266319"
   id="circle19-0"
   rx="1.6655228"
   ry="1.661626" /><ellipse
   style="fill:#b3b3b3;stroke-width:1.66357"
   cx="66.122932"
   cy="89.266319"
   id="circle20-9"
   rx="1.6655228"
   ry="1.661626" /><ellipse
   style="fill:#b3b3b3;stroke-width:1.66357"
   cx="71.119514"
   cy="89.266319"
   id="circle21-7"
   rx="1.6655228"
   ry="1.661626" /><ellipse
   style="fill:#b3b3b3;stroke-width:1.66357"
   cx="76.116096"
   cy="89.266319"
   id="circle22-2"
   rx="1.6655228"
   ry="1.661626" /><ellipse
   style="fill:#b3b3b3;stroke-width:1.66357"
   cx="10.548167"
   cy="76.566032"
   id="circle23-3"
   rx="1.6655228"
   ry="1.661626" /><ellipse
   style="fill:#b3b3b3;stroke-width:1.66357"
   cx="15.544734"
   cy="76.566032"
   id="circle24-4"
   rx="1.6655228"
   ry="1.661626" /><ellipse
   style="fill:#b3b3b3;stroke-width:1.66357"
   cx="20.541302"
   cy="76.566032"
   id="circle25-55"
   rx="1.6655228"
   ry="1.661626" /><ellipse
   style="fill:#b3b3b3;stroke-width:1.66357"
   cx="25.537868"
   cy="76.566032"
   id="circle26-3"
   rx="1.6655228"
   ry="1.661626" /><ellipse
   style="fill:#b3b3b3;stroke-width:1.66357"
   cx="30.534435"
   cy="76.566032"
   id="circle27-7"
   rx="1.6655228"
   ry="1.661626" /><ellipse
   style="fill:#b3b3b3;stroke-width:1.66357"
   cx="35.531002"
   cy="76.566032"
   id="circle28-1"
   rx="1.6655228"
   ry="1.661626" /><ellipse
   style="fill:#b3b3b3;stroke-width:1.66357"
   cx="40.527599"
   cy="76.566032"
   id="circle29-06"
   rx="1.6655228"
   ry="1.661626" /><ellipse
   style="fill:#b3b3b3;stroke-width:1.66357"
   cx="46.144848"
   cy="70.549019"
   id="circle2-9-3"
   rx="1.6655228"
   ry="1.661626" /><ellipse
   style="fill:#b3b3b3;stroke-width:1.66357"
   cx="51.14143"
   cy="70.549019"
   id="circle3-8-2"
   rx="1.6655228"
   ry="1.661626" /><ellipse
   style="fill:#b3b3b3;stroke-width:1.66357"
   cx="56.137981"
   cy="70.549019"
   id="circle4-0-1"
   rx="1.6655228"
   ry="1.661626" /><ellipse
   style="fill:#b3b3b3;stroke-width:1.66357"
   cx="61.134563"
   cy="70.549019"
   id="circle5-2-2"
   rx="1.6655228"
   ry="1.661626" /><ellipse
   style="fill:#b3b3b3;stroke-width:1.66357"
   cx="66.131142"
   cy="70.549019"
   id="circle6-6-8"
   rx="1.6655228"
   ry="1.661626" /><ellipse
   style="fill:#b3b3b3;stroke-width:1.66357"
   cx="71.127693"
   cy="70.549019"
   id="circle7-6-7"
   rx="1.6655228"
   ry="1.661626" /><ellipse
   style="fill:#b3b3b3;stroke-width:1.66357"
   cx="76.124275"
   cy="70.549019"
   id="circle8-8-9"
   rx="1.6655228"
   ry="1.661626" /><ellipse
   style="fill:#b3b3b3;stroke-width:1.66357"
   cx="10.556346"
   cy="70.430489"
   id="circle23-4-2"
   rx="1.6655228"
   ry="1.661626" /><ellipse
   style="fill:#b3b3b3;stroke-width:1.66357"
   cx="15.552913"
   cy="70.430489"
   id="circle24-5-4"
   rx="1.6655228"
   ry="1.661626" /><ellipse
   style="fill:#b3b3b3;stroke-width:1.66357"
   cx="20.549496"
   cy="70.430489"
   id="circle25-5-0"
   rx="1.6655228"
   ry="1.661626" /><ellipse
   style="fill:#b3b3b3;stroke-width:1.66357"
   cx="25.546047"
   cy="70.430489"
   id="circle26-1-5"
   rx="1.6655228"
   ry="1.661626" /><ellipse
   style="fill:#b3b3b3;stroke-width:1.66357"
   cx="30.542614"
   cy="70.430489"
   id="circle27-2-4"
   rx="1.6655228"
   ry="1.661626" /><ellipse
   style="fill:#b3b3b3;stroke-width:1.66357"
   cx="35.539196"
   cy="70.430489"
   id="circle28-5-4"
   rx="1.6655228"
   ry="1.661626" /><ellipse
   style="fill:#b3b3b3;stroke-width:1.66357"
   cx="40.535748"
   cy="70.430489"
   id="circle29-7-2"
   rx="1.6655228"
   ry="1.661626" /><ellipse
   style="fill:#b3b3b3;stroke-width:1.66357"
   cx="10.548167"
   cy="82.501259"
   id="circle30-4"
   rx="1.6655228"
   ry="1.661626" /><ellipse
   style="fill:#b3b3b3;stroke-width:1.66357"
   cx="15.544734"
   cy="82.501259"
   id="circle31-8"
   rx="1.6655228"
   ry="1.661626" /><ellipse
   style="fill:#b3b3b3;stroke-width:1.66357"
   cx="20.541302"
   cy="82.501259"
   id="circle32-2"
   rx="1.6655228"
   ry="1.661626" /><ellipse
   style="fill:#b3b3b3;stroke-width:1.66357"
   cx="25.537868"
   cy="82.501259"
   id="circle33-1"
   rx="1.6655228"
   ry="1.661626" /><ellipse
   style="fill:#b3b3b3;stroke-width:1.66357"
   cx="30.534435"
   cy="82.501259"
   id="circle34-0"
   rx="1.6655228"
   ry="1.661626" /><ellipse
   style="fill:#b3b3b3;stroke-width:1.66357"
   cx="35.531002"
   cy="82.501259"
   id="circle35-3"
   rx="1.6655228"
   ry="1.661626" /><ellipse
   style="fill:#b3b3b3;stroke-width:1.66357"
   cx="40.527599"
   cy="82.501259"
   id="circle36-9"
   rx="1.6655228"
   ry="1.661626" /><ellipse
   style="fill:#b3b3b3;stroke-width:1.66357"
   cx="10.548167"
   cy="89.147774"
   id="circle37-5"
   rx="1.6655228"
   ry="1.661626" /><ellipse
   style="fill:#b3b3b3;stroke-width:1.66357"
   cx="15.544734"
   cy="89.147774"
   id="circle38-2"
   rx="1.6655228"
   ry="1.661626" /><ellipse
   style="fill:#b3b3b3;stroke-width:1.66357"
   cx="20.541302"
   cy="89.147774"
   id="circle39-8"
   rx="1.6655228"
   ry="1.661626" /><ellipse
   style="fill:#b3b3b3;stroke-width:1.66357"
   cx="25.537868"
   cy="89.147774"
   id="circle40-7"
   rx="1.6655228"
   ry="1.661626" /><ellipse
   style="fill:#b3b3b3;stroke-width:1.66357"
   cx="30.534435"
   cy="89.147774"
   id="circle41-2"
   rx="1.6655228"
   ry="1.661626" /><ellipse
   style="fill:#b3b3b3;stroke-width:1.66357"
   cx="35.531002"
   cy="89.147774"
   id="circle42-3"
   rx="1.6655228"
   ry="1.661626" /><ellipse
   style="fill:#b3b3b3;stroke-width:1.66357"
   cx="40.527599"
   cy="89.147774"
   id="circle43-47"
   rx="1.6655228"
   ry="1.661626" /><ellipse
   style="fill:#b3b3b3;stroke-width:1.66357"
   cx="117.97575"
   cy="52.593925"
   id="circle2-98"
   rx="1.6655228"
   ry="1.661626" /><ellipse
   style="fill:#b3b3b3;stroke-width:1.66357"
   cx="122.9723"
   cy="52.593925"
   id="circle3-9"
   rx="1.6655228"
   ry="1.661626" /><ellipse
   style="fill:#b3b3b3;stroke-width:1.66357"
   cx="127.96888"
   cy="52.593925"
   id="circle4-7"
   rx="1.6655228"
   ry="1.661626" /><ellipse
   style="fill:#b3b3b3;stroke-width:1.66357"
   cx="132.96544"
   cy="52.593925"
   id="circle5-7"
   rx="1.6655228"
   ry="1.661626" /><ellipse
   style="fill:#b3b3b3;stroke-width:1.66357"
   cx="137.96202"
   cy="52.593925"
   id="circle6-2"
   rx="1.6655228"
   ry="1.661626" /><ellipse
   style="fill:#b3b3b3;stroke-width:1.66357"
   cx="142.95857"
   cy="52.593925"
   id="circle7-8"
   rx="1.6655228"
   ry="1.661626" /><ellipse
   style="fill:#b3b3b3;stroke-width:1.66357"
   cx="147.95515"
   cy="52.593925"
   id="circle8-7"
   rx="1.6655228"
   ry="1.661626" /><ellipse
   style="fill:#b3b3b3;stroke-width:1.66357"
   cx="117.97575"
   cy="58.529167"
   id="circle9-7"
   rx="1.6655228"
   ry="1.661626" /><ellipse
   style="fill:#b3b3b3;stroke-width:1.66357"
   cx="122.9723"
   cy="58.529167"
   id="circle10-5"
   rx="1.6655228"
   ry="1.661626" /><ellipse
   style="fill:#b3b3b3;stroke-width:1.66357"
   cx="127.96888"
   cy="58.529167"
   id="circle11-1"
   rx="1.6655228"
   ry="1.661626" /><ellipse
   style="fill:#b3b3b3;stroke-width:1.66357"
   cx="132.96544"
   cy="58.529167"
   id="circle12-2"
   rx="1.6655228"
   ry="1.661626" /><ellipse
   style="fill:#b3b3b3;stroke-width:1.66357"
   cx="137.96202"
   cy="58.529167"
   id="circle13-4"
   rx="1.6655228"
   ry="1.661626" /><ellipse
   style="fill:#b3b3b3;stroke-width:1.66357"
   cx="142.95857"
   cy="58.529167"
   id="circle14-1"
   rx="1.6655228"
   ry="1.661626" /><ellipse
   style="fill:#b3b3b3;stroke-width:1.66357"
   cx="147.95515"
   cy="58.529167"
   id="circle15-6"
   rx="1.6655228"
   ry="1.661626" /><ellipse
   style="fill:#b3b3b3;stroke-width:1.66357"
   cx="117.97575"
   cy="64.818764"
   id="circle16-1"
   rx="1.6655228"
   ry="1.661626" /><ellipse
   style="fill:#b3b3b3;stroke-width:1.66357"
   cx="122.9723"
   cy="64.818764"
   id="circle17-0"
   rx="1.6655228"
   ry="1.661626" /><ellipse
   style="fill:#b3b3b3;stroke-width:1.66357"
   cx="127.96888"
   cy="64.818764"
   id="circle18-8"
   rx="1.6655228"
   ry="1.661626" /><ellipse
   style="fill:#b3b3b3;stroke-width:1.66357"
   cx="132.96544"
   cy="64.818764"
   id="circle19-1"
   rx="1.6655228"
   ry="1.661626" /><ellipse
   style="fill:#b3b3b3;stroke-width:1.66357"
   cx="137.96202"
   cy="64.818764"
   id="circle20-6"
   rx="1.6655228"
   ry="1.661626" /><ellipse
   style="fill:#b3b3b3;stroke-width:1.66357"
   cx="142.95857"
   cy="64.818764"
   id="circle21-9"
   rx="1.6655228"
   ry="1.661626" /><ellipse
   style="fill:#b3b3b3;stroke-width:1.66357"
   cx="147.95515"
   cy="64.818764"
   id="circle22-9"
   rx="1.6655228"
   ry="1.661626" /><ellipse
   style="fill:#b3b3b3;stroke-width:1.66357"
   cx="82.387245"
   cy="52.47538"
   id="circle23-45"
   rx="1.6655228"
   ry="1.661626" /><ellipse
   style="fill:#b3b3b3;stroke-width:1.66357"
   cx="87.383797"
   cy="52.47538"
   id="circle24-7"
   rx="1.6655228"
   ry="1.661626" /><ellipse
   style="fill:#b3b3b3;stroke-width:1.66357"
   cx="92.380379"
   cy="52.47538"
   id="circle25-7"
   rx="1.6655228"
   ry="1.661626" /><ellipse
   style="fill:#b3b3b3;stroke-width:1.66357"
   cx="97.37693"
   cy="52.47538"
   id="circle26-8"
   rx="1.6655228"
   ry="1.661626" /><ellipse
   style="fill:#b3b3b3;stroke-width:1.66357"
   cx="102.37351"
   cy="52.47538"
   id="circle27-5"
   rx="1.6655228"
   ry="1.661626" /><ellipse
   style="fill:#b3b3b3;stroke-width:1.66357"
   cx="107.37006"
   cy="52.47538"
   id="circle28-8"
   rx="1.6655228"
   ry="1.661626" /><ellipse
   style="fill:#b3b3b3;stroke-width:1.66357"
   cx="112.36665"
   cy="52.47538"
   id="circle29-0"
   rx="1.6655228"
   ry="1.661626" /><ellipse
   style="fill:#b3b3b3;stroke-width:1.66357"
   cx="117.98392"
   cy="46.458366"
   id="circle2-9-5"
   rx="1.6655228"
   ry="1.661626" /><ellipse
   style="fill:#b3b3b3;stroke-width:1.66357"
   cx="122.98048"
   cy="46.458366"
   id="circle3-8-3"
   rx="1.6655228"
   ry="1.661626" /><ellipse
   style="fill:#b3b3b3;stroke-width:1.66357"
   cx="127.97706"
   cy="46.458366"
   id="circle4-0-4"
   rx="1.6655228"
   ry="1.661626" /><ellipse
   style="fill:#b3b3b3;stroke-width:1.66357"
   cx="132.97362"
   cy="46.458366"
   id="circle5-2-0"
   rx="1.6655228"
   ry="1.661626" /><ellipse
   style="fill:#b3b3b3;stroke-width:1.66357"
   cx="137.9702"
   cy="46.458366"
   id="circle6-6-6"
   rx="1.6655228"
   ry="1.661626" /><ellipse
   style="fill:#b3b3b3;stroke-width:1.66357"
   cx="142.96675"
   cy="46.458366"
   id="circle7-6-6"
   rx="1.6655228"
   ry="1.661626" /><ellipse
   style="fill:#b3b3b3;stroke-width:1.66357"
   cx="147.96333"
   cy="46.458366"
   id="circle8-8-7"
   rx="1.6655228"
   ry="1.661626" /><ellipse
   style="fill:#b3b3b3;stroke-width:1.66357"
   cx="82.395424"
   cy="46.339836"
   id="circle23-4-9"
   rx="1.6655228"
   ry="1.661626" /><ellipse
   style="fill:#b3b3b3;stroke-width:1.66357"
   cx="87.391975"
   cy="46.339836"
   id="circle24-5-2"
   rx="1.6655228"
   ry="1.661626" /><ellipse
   style="fill:#b3b3b3;stroke-width:1.66357"
   cx="92.388557"
   cy="46.339836"
   id="circle25-5-6"
   rx="1.6655228"
   ry="1.661626" /><ellipse
   style="fill:#b3b3b3;stroke-width:1.66357"
   cx="97.385109"
   cy="46.339836"
   id="circle26-1-3"
   rx="1.6655228"
   ry="1.661626" /><ellipse
   style="fill:#b3b3b3;stroke-width:1.66357"
   cx="102.38169"
   cy="46.339836"
   id="circle27-2-2"
   rx="1.6655228"
   ry="1.661626" /><ellipse
   style="fill:#b3b3b3;stroke-width:1.66357"
   cx="107.37824"
   cy="46.339836"
   id="circle28-5-6"
   rx="1.6655228"
   ry="1.661626" /><ellipse
   style="fill:#b3b3b3;stroke-width:1.66357"
   cx="112.37482"
   cy="46.339836"
   id="circle29-7-0"
   rx="1.6655228"
   ry="1.661626" /><ellipse
   style="fill:#b3b3b3;stroke-width:1.66357"
   cx="82.387245"
   cy="58.410606"
   id="circle30-2"
   rx="1.6655228"
   ry="1.661626" /><ellipse
   style="fill:#b3b3b3;stroke-width:1.66357"
   cx="87.383797"
   cy="58.410606"
   id="circle31-1"
   rx="1.6655228"
   ry="1.661626" /><ellipse
   style="fill:#b3b3b3;stroke-width:1.66357"
   cx="92.380379"
   cy="58.410606"
   id="circle32-4"
   rx="1.6655228"
   ry="1.661626" /><ellipse
   style="fill:#b3b3b3;stroke-width:1.66357"
   cx="97.37693"
   cy="58.410606"
   id="circle33-7"
   rx="1.6655228"
   ry="1.661626" /><ellipse
   style="fill:#b3b3b3;stroke-width:1.66357"
   cx="102.37351"
   cy="58.410606"
   id="circle34-5"
   rx="1.6655228"
   ry="1.661626" /><ellipse
   style="fill:#b3b3b3;stroke-width:1.66357"
   cx="107.37006"
   cy="58.410606"
   id="circle35-8"
   rx="1.6655228"
   ry="1.661626" /><ellipse
   style="fill:#b3b3b3;stroke-width:1.66357"
   cx="112.36665"
   cy="58.410606"
   id="circle36-8"
   rx="1.6655228"
   ry="1.661626" /><ellipse
   style="fill:#b3b3b3;stroke-width:1.66357"
   cx="82.387245"
   cy="64.700203"
   id="circle37-0"
   rx="1.6655228"
   ry="1.661626" /><ellipse
   style="fill:#b3b3b3;stroke-width:1.66357"
   cx="87.383797"
   cy="64.700203"
   id="circle38-7"
   rx="1.6655228"
   ry="1.661626" /><ellipse
   style="fill:#b3b3b3;stroke-width:1.66357"
   cx="92.380379"
   cy="64.700203"
   id="circle39-0"
   rx="1.6655228"
   ry="1.661626" /><ellipse
   style="fill:#b3b3b3;stroke-width:1.66357"
   cx="97.37693"
   cy="64.700203"
   id="circle40-0"
   rx="1.6655228"
   ry="1.661626" /><ellipse
   style="fill:#b3b3b3;stroke-width:1.66357"
   cx="102.37351"
   cy="64.700203"
   id="circle41-8"
   rx="1.6655228"
   ry="1.661626" /><ellipse
   style="fill:#b3b3b3;stroke-width:1.66357"
   cx="107.37006"
   cy="64.700203"
   id="circle42-2"
   rx="1.6655228"
   ry="1.661626" /><ellipse
   style="fill:#b3b3b3;stroke-width:1.66357"
   cx="112.36665"
   cy="64.700203"
   id="circle43-4"
   rx="1.6655228"
   ry="1.661626" /><ellipse
   style="fill:#b3b3b3;stroke-width:1.66357"
   cx="45.94511"
   cy="52.237022"
   id="circle2"
   rx="1.6655228"
   ry="1.661626" /><ellipse
   style="fill:#b3b3b3;stroke-width:1.66357"
   cx="50.941662"
   cy="52.237022"
   id="circle3"
   rx="1.6655228"
   ry="1.661626" /><ellipse
   style="fill:#b3b3b3;stroke-width:1.66357"
   cx="55.938244"
   cy="52.237022"
   id="circle4"
   rx="1.6655228"
   ry="1.661626" /><ellipse
   style="fill:#b3b3b3;stroke-width:1.66357"
   cx="60.934826"
   cy="52.237022"
   id="circle5"
   rx="1.6655228"
   ry="1.661626" /><ellipse
   style="fill:#b3b3b3;stroke-width:1.66357"
   cx="65.931374"
   cy="52.237022"
   id="circle6"
   rx="1.6655228"
   ry="1.661626" /><ellipse
   style="fill:#b3b3b3;stroke-width:1.66357"
   cx="70.927956"
   cy="52.237022"
   id="circle7"
   rx="1.6655228"
   ry="1.661626" /><ellipse
   style="fill:#b3b3b3;stroke-width:1.66357"
   cx="75.924507"
   cy="52.237022"
   id="circle8"
   rx="1.6655228"
   ry="1.661626" /><ellipse
   style="fill:#b3b3b3;stroke-width:1.66357"
   cx="45.94511"
   cy="58.172249"
   id="circle9"
   rx="1.6655228"
   ry="1.661626" /><ellipse
   style="fill:#b3b3b3;stroke-width:1.66357"
   cx="50.941662"
   cy="58.172249"
   id="circle10"
   rx="1.6655228"
   ry="1.661626" /><ellipse
   style="fill:#b3b3b3;stroke-width:1.66357"
   cx="55.938244"
   cy="58.172249"
   id="circle11"
   rx="1.6655228"
   ry="1.661626" /><ellipse
   style="fill:#b3b3b3;stroke-width:1.66357"
   cx="60.934826"
   cy="58.172249"
   id="circle12"
   rx="1.6655228"
   ry="1.661626" /><ellipse
   style="fill:#b3b3b3;stroke-width:1.66357"
   cx="65.931374"
   cy="58.172249"
   id="circle13"
   rx="1.6655228"
   ry="1.661626" /><ellipse
   style="fill:#b3b3b3;stroke-width:1.66357"
   cx="70.927956"
   cy="58.172249"
   id="circle14"
   rx="1.6655228"
   ry="1.661626" /><ellipse
   style="fill:#b3b3b3;stroke-width:1.66357"
   cx="75.924507"
   cy="58.172249"
   id="circle15"
   rx="1.6655228"
   ry="1.661626" /><ellipse
   style="fill:#b3b3b3;stroke-width:1.66357"
   cx="45.94511"
   cy="64.818764"
   id="circle16"
   rx="1.6655228"
   ry="1.661626" /><ellipse
   style="fill:#b3b3b3;stroke-width:1.66357"
   cx="50.941662"
   cy="64.818764"
   id="circle17"
   rx="1.6655228"
   ry="1.661626" /><ellipse
   style="fill:#b3b3b3;stroke-width:1.66357"
   cx="55.938244"
   cy="64.818764"
   id="circle18"
   rx="1.6655228"
   ry="1.661626" /><ellipse
   style="fill:#b3b3b3;stroke-width:1.66357"
   cx="60.934826"
   cy="64.818764"
   id="circle19"
   rx="1.6655228"
   ry="1.661626" /><ellipse
   style="fill:#b3b3b3;stroke-width:1.66357"
   cx="65.931374"
   cy="64.818764"
   id="circle20"
   rx="1.6655228"
   ry="1.661626" /><ellipse
   style="fill:#b3b3b3;stroke-width:1.66357"
   cx="70.927956"
   cy="64.818764"
   id="circle21"
   rx="1.6655228"
   ry="1.661626" /><ellipse
   style="fill:#b3b3b3;stroke-width:1.66357"
   cx="75.924507"
   cy="64.818764"
   id="circle22"
   rx="1.6655228"
   ry="1.661626" /><ellipse
   style="fill:#b3b3b3;stroke-width:1.66357"
   cx="10.356593"
   cy="52.118477"
   id="circle23"
   rx="1.6655228"
   ry="1.661626" /><ellipse
   style="fill:#b3b3b3;stroke-width:1.66357"
   cx="15.35316"
   cy="52.118477"
   id="circle24"
   rx="1.6655228"
   ry="1.661626" /><ellipse
   style="fill:#b3b3b3;stroke-width:1.66357"
   cx="20.349728"
   cy="52.118477"
   id="circle25"
   rx="1.6655228"
   ry="1.661626" /><ellipse
   style="fill:#b3b3b3;stroke-width:1.66357"
   cx="25.346294"
   cy="52.118477"
   id="circle26"
   rx="1.6655228"
   ry="1.661626" /><ellipse
   style="fill:#b3b3b3;stroke-width:1.66357"
   cx="30.342861"
   cy="52.118477"
   id="circle27"
   rx="1.6655228"
   ry="1.661626" /><ellipse
   style="fill:#b3b3b3;stroke-width:1.66357"
   cx="35.339428"
   cy="52.118477"
   id="circle28"
   rx="1.6655228"
   ry="1.661626" /><ellipse
   style="fill:#b3b3b3;stroke-width:1.66357"
   cx="40.33601"
   cy="52.118477"
   id="circle29"
   rx="1.6655228"
   ry="1.661626" /><ellipse
   style="fill:#b3b3b3;stroke-width:1.66357"
   cx="45.953289"
   cy="46.101463"
   id="circle2-9"
   rx="1.6655228"
   ry="1.661626" /><ellipse
   style="fill:#b3b3b3;stroke-width:1.66357"
   cx="50.949841"
   cy="46.101463"
   id="circle3-8"
   rx="1.6655228"
   ry="1.661626" /><ellipse
   style="fill:#b3b3b3;stroke-width:1.66357"
   cx="55.946423"
   cy="46.101463"
   id="circle4-0"
   rx="1.6655228"
   ry="1.661626" /><ellipse
   style="fill:#b3b3b3;stroke-width:1.66357"
   cx="60.943005"
   cy="46.101463"
   id="circle5-2"
   rx="1.6655228"
   ry="1.661626" /><ellipse
   style="fill:#b3b3b3;stroke-width:1.66357"
   cx="65.939552"
   cy="46.101463"
   id="circle6-6"
   rx="1.6655228"
   ry="1.661626" /><ellipse
   style="fill:#b3b3b3;stroke-width:1.66357"
   cx="70.936134"
   cy="46.101463"
   id="circle7-6"
   rx="1.6655228"
   ry="1.661626" /><ellipse
   style="fill:#b3b3b3;stroke-width:1.66357"
   cx="75.932686"
   cy="46.101463"
   id="circle8-8"
   rx="1.6655228"
   ry="1.661626" /><ellipse
   style="fill:#b3b3b3;stroke-width:1.66357"
   cx="10.364772"
   cy="45.982933"
   id="circle23-4"
   rx="1.6655228"
   ry="1.661626" /><ellipse
   style="fill:#b3b3b3;stroke-width:1.66357"
   cx="15.361339"
   cy="45.982933"
   id="circle24-5"
   rx="1.6655228"
   ry="1.661626" /><ellipse
   style="fill:#b3b3b3;stroke-width:1.66357"
   cx="20.357922"
   cy="45.982933"
   id="circle25-5"
   rx="1.6655228"
   ry="1.661626" /><ellipse
   style="fill:#b3b3b3;stroke-width:1.66357"
   cx="25.354473"
   cy="45.982933"
   id="circle26-1"
   rx="1.6655228"
   ry="1.661626" /><ellipse
   style="fill:#b3b3b3;stroke-width:1.66357"
   cx="30.35104"
   cy="45.982933"
   id="circle27-2"
   rx="1.6655228"
   ry="1.661626" /><ellipse
   style="fill:#b3b3b3;stroke-width:1.66357"
   cx="35.347622"
   cy="45.982933"
   id="circle28-5"
   rx="1.6655228"
   ry="1.661626" /><ellipse
   style="fill:#b3b3b3;stroke-width:1.66357"
   cx="40.344189"
   cy="45.982933"
   id="circle29-7"
   rx="1.6655228"
   ry="1.661626" /><ellipse
   style="fill:#b3b3b3;stroke-width:1.66357"
   cx="10.356593"
   cy="58.053703"
   id="circle30"
   rx="1.6655228"
   ry="1.661626" /><ellipse
   style="fill:#b3b3b3;stroke-width:1.66357"
   cx="15.35316"
   cy="58.053703"
   id="circle31"
   rx="1.6655228"
   ry="1.661626" /><ellipse
   style="fill:#b3b3b3;stroke-width:1.66357"
   cx="20.349728"
   cy="58.053703"
   id="circle32"
   rx="1.6655228"
   ry="1.661626" /><ellipse
   style="fill:#b3b3b3;stroke-width:1.66357"
   cx="25.346294"
   cy="58.053703"
   id="circle33"
   rx="1.6655228"
   ry="1.661626" /><ellipse
   style="fill:#b3b3b3;stroke-width:1.66357"
   cx="30.342861"
   cy="58.053703"
   id="circle34"
   rx="1.6655228"
   ry="1.661626" /><ellipse
   style="fill:#b3b3b3;stroke-width:1.66357"
   cx="35.339428"
   cy="58.053703"
   id="circle35"
   rx="1.6655228"
   ry="1.661626" /><ellipse
   style="fill:#b3b3b3;stroke-width:1.66357"
   cx="40.33601"
   cy="58.053703"
   id="circle36"
   rx="1.6655228"
   ry="1.661626" /><ellipse
   style="fill:#b3b3b3;stroke-width:1.66357"
   cx="10.356593"
   cy="64.700203"
   id="circle37"
   rx="1.6655228"
   ry="1.661626" /><ellipse
   style="fill:#b3b3b3;stroke-width:1.66357"
   cx="15.35316"
   cy="64.700203"
   id="circle38"
   rx="1.6655228"
   ry="1.661626" /><ellipse
   style="fill:#b3b3b3;stroke-width:1.66357"
   cx="20.349728"
   cy="64.700203"
   id="circle39"
   rx="1.6655228"
   ry="1.661626" /><ellipse
   style="fill:#b3b3b3;stroke-width:1.66357"
   cx="25.346294"
   cy="64.700203"
   id="circle40"
   rx="1.6655228"
   ry="1.661626" /><ellipse
   style="fill:#b3b3b3;stroke-width:1.66357"
   cx="30.342861"
   cy="64.700203"
   id="circle41"
   rx="1.6655228"
   ry="1.661626" /><ellipse
   style="fill:#b3b3b3;stroke-width:1.66357"
   cx="35.339428"
   cy="64.700203"
   id="circle42"
   rx="1.6655228"
   ry="1.661626" /><ellipse
   style="fill:#b3b3b3;stroke-width:1.66357"
   cx="40.33601"
   cy="64.700203"
   id="circle43"
   rx="1.6655228"
   ry="1.661626" />




<text
   xml:space="preserve"
   id="text11"
   style="white-space:pre;shape-inside:url(#rect11);fill:#ffffff;stroke-width:0.562"
   transform="matrix(1.0520669,0,0,1.0647784,-142.50505,-180.55382)"><tspan
     x="202.78516"
     y="206.80539"
     id="tspan1">72</tspan></text><text
   xml:space="preserve"
   id="text12"
   style="white-space:pre;shape-inside:url(#rect12);fill:#333333;stroke-width:0.562"
   transform="matrix(0.51299465,0,0,0.51364432,-2.1042313,-71.625978)"><tspan
     x="32.117188"
     y="209.95382"
     id="tspan2">Midea</tspan></text><path
   sodipodi:type="spiral"
   style="fill:none;fill-rule:evenodd;stroke:#000000"
   id="path12"
   sodipodi:cx="-149.88438"
   sodipodi:cy="91.316116"
   sodipodi:expansion="1"
   sodipodi:revolution="3"
   sodipodi:radius="48.557392"
   sodipodi:argument="-18.036642"
   sodipodi:t0="0"
   d="m -149.88438,91.316116 c 1.6735,1.768227 -1.55789,3.128227 -2.93891,2.781469 -3.74248,-0.939692 -4.21507,-5.779478 -2.62403,-8.659286 2.84599,-5.1513 9.87977,-5.570362 14.37966,-2.466589 6.60378,4.554912 6.96763,14.036333 2.30915,20.10004 -6.20902,8.08197 -18.21296,8.38288 -25.82042,2.15171 -9.57321,-7.841292 -9.80746,-22.399163 -1.99427,-31.540795 9.46282,-11.071741 26.59077,-11.237445 37.26118,-1.83683 12.57469,11.078299 12.67082,30.785745 1.67939,42.981555 -12.69005,14.08053 -34.98297,14.10646 -48.70193,1.52195 -15.58835,-14.29933 -15.54369,-39.181778 -1.36451,-54.42231 15.9069,-17.097573 43.38173,-16.982068 60.14268,-1.20707 18.607838,17.513237 18.421305,47.58255 1.04963,65.86306"
   transform="matrix(0.12308995,0,0,0.10356184,34.273459,24.566826)" /><path
   style="fill:#ececec;stroke-width:0.0961043"
   d="m 12.292379,10.092686 v 11.68963 c 0,0.53401 3.29929,0.96703 7.36817,0.96703 H 140.74796 c 4.06888,0 7.36817,-0.43305 7.36817,-0.96703 v -11.68963 c 0,-0.5344304 -3.29929,-0.9670204 -7.36817,-0.9670204 H 19.660549 c -4.06888,0 -7.36817,0.43259 -7.36817,0.9670204 z"
   id="path1-2-8" /><rect
   style="fill:#e6e6e6;stroke-width:0.164998"
   id="rect13"
   width="11.877395"
   height="8.2086706"
   x="132.04961"
   y="29.764793" /><rect
   style="fill:#e6e6e6;stroke-width:0.164998"
   id="rect14"
   width="1.1494253"
   height="1.4275948"
   x="136.64729"
   y="33.51223" /><path
   sodipodi:type="star"
   style="fill:#999999;stroke-width:0.562"
   id="path14"
   inkscape:flatsided="false"
   sodipodi:sides="5"
   sodipodi:cx="471.06519"
   sodipodi:cy="209.08241"
   sodipodi:r1="10.4814"
   sodipodi:r2="5.2407002"
   sodipodi:arg1="0.99945885"
   sodipodi:arg2="1.6277774"
   inkscape:rounded="0"
   inkscape:randomized="0"
   d="m 476.73308,217.89914 -5.96635,-3.58453 -6.33527,2.88281 1.56538,-6.78202 -4.69942,-5.13436 6.93382,-0.60699 3.43086,-6.05603 2.71995,6.40689 6.81982,1.39153 -5.2528,4.56666 z"
   inkscape:transform-center-x="-0.025928018"
   inkscape:transform-center-y="-0.11144051"
   transform="matrix(0.14057667,0,0,0.13527588,75.916489,4.3926356)" /><text
   xml:space="preserve"
   style="font-size:2.72065px;fill:#999999;stroke-width:0.127417"
   x="176.0365"
   y="26.43833"
   id="text14"
   transform="scale(0.75753753,1.3200666)"><tspan
     sodipodi:role="line"
     id="tspan14"
     x="176.0365"
     y="26.43833"
     style="stroke-width:0.127417">Energy</tspan></text></svg>
