<?xml version="1.0" encoding="UTF-8" standalone="no"?>
<!-- Uploaded to: SVG Repo, www.svgrepo.com, Generator: SVG Repo Mixer Tools -->

<svg
   version="1.1"
   id="Layer_1"
   viewBox="0 0 495.62606 509.48093"
   xml:space="preserve"
   sodipodi:docname="midea-ac-fan.svg"
   width="495.62607"
   height="509.48093"
   inkscape:version="1.3.2 (091e20e, 2023-11-25, custom)"
   xmlns:inkscape="http://www.inkscape.org/namespaces/inkscape"
   xmlns:sodipodi="http://sodipodi.sourceforge.net/DTD/sodipodi-0.dtd"
   xmlns="http://www.w3.org/2000/svg"
   xmlns:svg="http://www.w3.org/2000/svg"><defs
   id="defs11"><rect
     x="32.118081"
     y="199.00615"
     width="92.575646"
     height="35.266913"
     id="rect12" /><rect
     x="202.78475"
     y="195.85732"
     width="88.797048"
     height="44.083641"
     id="rect11" /></defs><sodipodi:namedview
   id="namedview11"
   pagecolor="#ffffff"
   bordercolor="#000000"
   borderopacity="0.25"
   inkscape:showpageshadow="2"
   inkscape:pageopacity="0.0"
   inkscape:pagecheckerboard="0"
   inkscape:deskcolor="#d1d1d1"
   inkscape:zoom="1.5878906"
   inkscape:cx="256"
   inkscape:cy="310.1599"
   inkscape:window-width="1920"
   inkscape:window-height="1009"
   inkscape:window-x="-8"
   inkscape:window-y="-8"
   inkscape:window-maximized="1"
   inkscape:current-layer="Layer_1" />
<path
   style="fill:#f2f2f2;stroke-width:0.884165"
   d="m 0.62976646,129.49666 v 272.52946 c 0,12.44984 11.97806954,22.54494 26.75009154,22.54494 H 466.98669 c 14.77202,0 26.75009,-10.09591 26.75009,-22.54494 V 129.49666 c 0,-12.4596 -11.97807,-22.54494 -26.75009,-22.54494 H 27.379858 c -14.772022,0 -26.75009154,10.08534 -26.75009154,22.54494 z"
   id="path1" /><path
   style="fill:#999999;stroke-width:0.359093"
   d="m 20.335793,121.41984 v 48.81901 c 0,2.23018 11.029616,4.03854 24.63195,4.03854 H 449.76534 c 13.60233,0 24.63195,-1.80851 24.63195,-4.03854 v -48.81901 c 0,-2.23192 -11.02962,-4.03854 -24.63195,-4.03854 H 44.967743 c -13.602334,0 -24.63195,1.80662 -24.63195,4.03854 z"
   id="path1-2" /><g
   inkscape:groupmode="layer"
   id="layer1"
   inkscape:label="Layer 1"
   transform="matrix(1.0719323,0,0,3.6589899,-1.1462101,-664.53084)"><rect
     style="fill:#e6e6e6;stroke-width:0.281692"
     id="rect15"
     width="446.50433"
     height="48.8806"
     x="7.5639806"
     y="246.73817" /></g><ellipse
   style="fill:#999999;stroke-width:8.18638"
   cx="204.98322"
   cy="211.41756"
   id="circle28-5-2-25"
   rx="7.9942718"
   ry="8.3831158" /><ellipse
   style="fill:#999999;stroke-width:8.18638"
   cx="186.09023"
   cy="211.41756"
   id="circle28-5-2-4"
   rx="7.9942718"
   ry="8.3831158" /><ellipse
   style="fill:#999999;stroke-width:8.18638"
   cx="165.9377"
   cy="211.41756"
   id="circle28-5-2-2"
   rx="7.9942718"
   ry="8.3831158" /><ellipse
   style="fill:#999999;stroke-width:8.18638"
   cx="144.52565"
   cy="210.7878"
   id="circle28-5-2-3"
   rx="7.9942718"
   ry="8.3831158" /><ellipse
   style="fill:#999999;stroke-width:8.18638"
   cx="121.70523"
   cy="211.89848"
   id="circle28-5-2"
   rx="7.9942718"
   ry="8.3831158" /><ellipse
   style="fill:#999999;stroke-width:8.18638"
   cx="372.21445"
   cy="210.7878"
   id="circle28-5-2-25-1"
   rx="7.9942718"
   ry="8.3831158" /><ellipse
   style="fill:#999999;stroke-width:8.18638"
   cx="353.32147"
   cy="210.7878"
   id="circle28-5-2-4-6"
   rx="7.9942718"
   ry="8.3831158" /><ellipse
   style="fill:#999999;stroke-width:8.18638"
   cx="333.16895"
   cy="210.7878"
   id="circle28-5-2-2-7"
   rx="7.9942718"
   ry="8.3831158" /><ellipse
   style="fill:#999999;stroke-width:8.18638"
   cx="311.7569"
   cy="210.15804"
   id="circle28-5-2-3-6"
   rx="7.9942718"
   ry="8.3831158" /><ellipse
   style="fill:#999999;stroke-width:8.18638"
   cx="288.93649"
   cy="211.26872"
   id="circle28-5-2-7"
   rx="7.9942718"
   ry="8.3831158" /><ellipse
   style="fill:#b3b3b3;stroke-width:5.66629"
   cx="371.89868"
   cy="358.2933"
   id="circle2-2"
   rx="5.4752064"
   ry="5.8640504" /><ellipse
   style="fill:#b3b3b3;stroke-width:5.66629"
   cx="388.32428"
   cy="358.2933"
   id="circle3-7"
   rx="5.4752064"
   ry="5.8640504" /><ellipse
   style="fill:#b3b3b3;stroke-width:5.66629"
   cx="404.74991"
   cy="358.2933"
   id="circle4-4"
   rx="5.4752064"
   ry="5.8640504" /><ellipse
   style="fill:#b3b3b3;stroke-width:5.66629"
   cx="421.17554"
   cy="358.2933"
   id="circle5-3"
   rx="5.4752064"
   ry="5.8640504" /><ellipse
   style="fill:#b3b3b3;stroke-width:5.66629"
   cx="437.60114"
   cy="358.2933"
   id="circle6-20"
   rx="5.4752064"
   ry="5.8640504" /><ellipse
   style="fill:#b3b3b3;stroke-width:5.66629"
   cx="454.02676"
   cy="358.2933"
   id="circle7-98"
   rx="5.4752064"
   ry="5.8640504" /><ellipse
   style="fill:#b3b3b3;stroke-width:5.66629"
   cx="470.45239"
   cy="358.2933"
   id="circle8-75"
   rx="5.4752064"
   ry="5.8640504" /><ellipse
   style="fill:#b3b3b3;stroke-width:5.66629"
   cx="371.26892"
   cy="381.75842"
   id="circle9-5"
   rx="5.4752064"
   ry="5.8640504" /><ellipse
   style="fill:#b3b3b3;stroke-width:5.66629"
   cx="387.69452"
   cy="381.75842"
   id="circle10-2"
   rx="5.4752064"
   ry="5.8640504" /><ellipse
   style="fill:#b3b3b3;stroke-width:5.66629"
   cx="404.12015"
   cy="381.75842"
   id="circle11-4"
   rx="5.4752064"
   ry="5.8640504" /><ellipse
   style="fill:#b3b3b3;stroke-width:5.66629"
   cx="420.54578"
   cy="381.75842"
   id="circle12-3"
   rx="5.4752064"
   ry="5.8640504" /><ellipse
   style="fill:#b3b3b3;stroke-width:5.66629"
   cx="436.97137"
   cy="381.75842"
   id="circle13-6"
   rx="5.4752064"
   ry="5.8640504" /><ellipse
   style="fill:#b3b3b3;stroke-width:5.66629"
   cx="453.397"
   cy="381.75842"
   id="circle14-4"
   rx="5.4752064"
   ry="5.8640504" /><ellipse
   style="fill:#b3b3b3;stroke-width:5.66629"
   cx="469.82263"
   cy="381.75842"
   id="circle15-8"
   rx="5.4752064"
   ry="5.8640504" /><ellipse
   style="fill:#b3b3b3;stroke-width:5.66629"
   cx="371.26892"
   cy="405.21463"
   id="circle16-62"
   rx="5.4752064"
   ry="5.8640504" /><ellipse
   style="fill:#b3b3b3;stroke-width:5.66629"
   cx="387.69452"
   cy="405.21463"
   id="circle17-7"
   rx="5.4752064"
   ry="5.8640504" /><ellipse
   style="fill:#b3b3b3;stroke-width:5.66629"
   cx="404.12015"
   cy="405.21463"
   id="circle18-2"
   rx="5.4752064"
   ry="5.8640504" /><ellipse
   style="fill:#b3b3b3;stroke-width:5.66629"
   cx="420.54578"
   cy="405.21463"
   id="circle19-2"
   rx="5.4752064"
   ry="5.8640504" /><ellipse
   style="fill:#b3b3b3;stroke-width:5.66629"
   cx="436.97137"
   cy="405.21463"
   id="circle20-4"
   rx="5.4752064"
   ry="5.8640504" /><ellipse
   style="fill:#b3b3b3;stroke-width:5.66629"
   cx="453.397"
   cy="405.21463"
   id="circle21-96"
   rx="5.4752064"
   ry="5.8640504" /><ellipse
   style="fill:#b3b3b3;stroke-width:5.66629"
   cx="469.82263"
   cy="405.21463"
   id="circle22-4"
   rx="5.4752064"
   ry="5.8640504" /><ellipse
   style="fill:#b3b3b3;stroke-width:5.66629"
   cx="254.9057"
   cy="357.87491"
   id="circle23-6"
   rx="5.4752064"
   ry="5.8640504" /><ellipse
   style="fill:#b3b3b3;stroke-width:5.66629"
   cx="271.33136"
   cy="357.87491"
   id="circle24-76"
   rx="5.4752064"
   ry="5.8640504" /><ellipse
   style="fill:#b3b3b3;stroke-width:5.66629"
   cx="287.75696"
   cy="357.87491"
   id="circle25-8"
   rx="5.4752064"
   ry="5.8640504" /><ellipse
   style="fill:#b3b3b3;stroke-width:5.66629"
   cx="304.18259"
   cy="357.87491"
   id="circle26-9"
   rx="5.4752064"
   ry="5.8640504" /><ellipse
   style="fill:#b3b3b3;stroke-width:5.66629"
   cx="320.60818"
   cy="357.87491"
   id="circle27-8"
   rx="5.4752064"
   ry="5.8640504" /><ellipse
   style="fill:#b3b3b3;stroke-width:5.66629"
   cx="337.03381"
   cy="357.87491"
   id="circle28-4"
   rx="5.4752064"
   ry="5.8640504" /><ellipse
   style="fill:#b3b3b3;stroke-width:5.66629"
   cx="353.45944"
   cy="357.87491"
   id="circle29-8"
   rx="5.4752064"
   ry="5.8640504" /><ellipse
   style="fill:#b3b3b3;stroke-width:5.66629"
   cx="371.92557"
   cy="336.64026"
   id="circle2-9-0"
   rx="5.4752064"
   ry="5.8640504" /><ellipse
   style="fill:#b3b3b3;stroke-width:5.66629"
   cx="388.35117"
   cy="336.64026"
   id="circle3-8-6"
   rx="5.4752064"
   ry="5.8640504" /><ellipse
   style="fill:#b3b3b3;stroke-width:5.66629"
   cx="404.77679"
   cy="336.64026"
   id="circle4-0-45"
   rx="5.4752064"
   ry="5.8640504" /><ellipse
   style="fill:#b3b3b3;stroke-width:5.66629"
   cx="421.20242"
   cy="336.64026"
   id="circle5-2-22"
   rx="5.4752064"
   ry="5.8640504" /><ellipse
   style="fill:#b3b3b3;stroke-width:5.66629"
   cx="437.62805"
   cy="336.64026"
   id="circle6-6-2"
   rx="5.4752064"
   ry="5.8640504" /><ellipse
   style="fill:#b3b3b3;stroke-width:5.66629"
   cx="454.05365"
   cy="336.64026"
   id="circle7-6-61"
   rx="5.4752064"
   ry="5.8640504" /><ellipse
   style="fill:#b3b3b3;stroke-width:5.66629"
   cx="470.47928"
   cy="336.64026"
   id="circle8-8-3"
   rx="5.4752064"
   ry="5.8640504" /><ellipse
   style="fill:#b3b3b3;stroke-width:5.66629"
   cx="254.9326"
   cy="336.22195"
   id="circle23-4-4"
   rx="5.4752064"
   ry="5.8640504" /><ellipse
   style="fill:#b3b3b3;stroke-width:5.66629"
   cx="271.35825"
   cy="336.22195"
   id="circle24-5-42"
   rx="5.4752064"
   ry="5.8640504" /><ellipse
   style="fill:#b3b3b3;stroke-width:5.66629"
   cx="287.78387"
   cy="336.22195"
   id="circle25-5-1"
   rx="5.4752064"
   ry="5.8640504" /><ellipse
   style="fill:#b3b3b3;stroke-width:5.66629"
   cx="304.20947"
   cy="336.22195"
   id="circle26-1-9"
   rx="5.4752064"
   ry="5.8640504" /><ellipse
   style="fill:#b3b3b3;stroke-width:5.66629"
   cx="320.63507"
   cy="336.22195"
   id="circle27-2-9"
   rx="5.4752064"
   ry="5.8640504" /><ellipse
   style="fill:#b3b3b3;stroke-width:5.66629"
   cx="337.0607"
   cy="336.22195"
   id="circle28-5-8"
   rx="5.4752064"
   ry="5.8640504" /><ellipse
   style="fill:#b3b3b3;stroke-width:5.66629"
   cx="353.48633"
   cy="336.22195"
   id="circle29-7-1"
   rx="5.4752064"
   ry="5.8640504" /><ellipse
   style="fill:#b3b3b3;stroke-width:5.66629"
   cx="254.27594"
   cy="381.34003"
   id="circle30-8"
   rx="5.4752064"
   ry="5.8640504" /><ellipse
   style="fill:#b3b3b3;stroke-width:5.66629"
   cx="270.7016"
   cy="381.34003"
   id="circle31-7"
   rx="5.4752064"
   ry="5.8640504" /><ellipse
   style="fill:#b3b3b3;stroke-width:5.66629"
   cx="287.1272"
   cy="381.34003"
   id="circle32-7"
   rx="5.4752064"
   ry="5.8640504" /><ellipse
   style="fill:#b3b3b3;stroke-width:5.66629"
   cx="303.55283"
   cy="381.34003"
   id="circle33-0"
   rx="5.4752064"
   ry="5.8640504" /><ellipse
   style="fill:#b3b3b3;stroke-width:5.66629"
   cx="319.97842"
   cy="381.34003"
   id="circle34-4"
   rx="5.4752064"
   ry="5.8640504" /><ellipse
   style="fill:#b3b3b3;stroke-width:5.66629"
   cx="336.40405"
   cy="381.34003"
   id="circle35-1"
   rx="5.4752064"
   ry="5.8640504" /><ellipse
   style="fill:#b3b3b3;stroke-width:5.66629"
   cx="352.82968"
   cy="381.34003"
   id="circle36-0"
   rx="5.4752064"
   ry="5.8640504" /><ellipse
   style="fill:#b3b3b3;stroke-width:5.66629"
   cx="254.27594"
   cy="404.79623"
   id="circle37-6"
   rx="5.4752064"
   ry="5.8640504" /><ellipse
   style="fill:#b3b3b3;stroke-width:5.66629"
   cx="270.7016"
   cy="404.79623"
   id="circle38-3"
   rx="5.4752064"
   ry="5.8640504" /><ellipse
   style="fill:#b3b3b3;stroke-width:5.66629"
   cx="287.1272"
   cy="404.79623"
   id="circle39-82"
   rx="5.4752064"
   ry="5.8640504" /><ellipse
   style="fill:#b3b3b3;stroke-width:5.66629"
   cx="303.55283"
   cy="404.79623"
   id="circle40-3"
   rx="5.4752064"
   ry="5.8640504" /><ellipse
   style="fill:#b3b3b3;stroke-width:5.66629"
   cx="319.97842"
   cy="404.79623"
   id="circle41-0"
   rx="5.4752064"
   ry="5.8640504" /><ellipse
   style="fill:#b3b3b3;stroke-width:5.66629"
   cx="336.40405"
   cy="404.79623"
   id="circle42-8"
   rx="5.4752064"
   ry="5.8640504" /><ellipse
   style="fill:#b3b3b3;stroke-width:5.66629"
   cx="352.82968"
   cy="404.79623"
   id="circle43-7"
   rx="5.4752064"
   ry="5.8640504" /><ellipse
   style="fill:#b3b3b3;stroke-width:5.66629"
   cx="135.73631"
   cy="360.18262"
   id="circle2-8"
   rx="5.4752064"
   ry="5.8640504" /><ellipse
   style="fill:#b3b3b3;stroke-width:5.66629"
   cx="152.16191"
   cy="360.18262"
   id="circle3-94"
   rx="5.4752064"
   ry="5.8640504" /><ellipse
   style="fill:#b3b3b3;stroke-width:5.66629"
   cx="168.58754"
   cy="360.18262"
   id="circle4-8"
   rx="5.4752064"
   ry="5.8640504" /><ellipse
   style="fill:#b3b3b3;stroke-width:5.66629"
   cx="185.01317"
   cy="360.18262"
   id="circle5-8"
   rx="5.4752064"
   ry="5.8640504" /><ellipse
   style="fill:#b3b3b3;stroke-width:5.66629"
   cx="201.43877"
   cy="360.18262"
   id="circle6-8"
   rx="5.4752064"
   ry="5.8640504" /><ellipse
   style="fill:#b3b3b3;stroke-width:5.66629"
   cx="217.8644"
   cy="360.18262"
   id="circle7-9"
   rx="5.4752064"
   ry="5.8640504" /><ellipse
   style="fill:#b3b3b3;stroke-width:5.66629"
   cx="234.29002"
   cy="360.18262"
   id="circle8-84"
   rx="5.4752064"
   ry="5.8640504" /><ellipse
   style="fill:#b3b3b3;stroke-width:5.66629"
   cx="135.73631"
   cy="381.12866"
   id="circle9-6"
   rx="5.4752064"
   ry="5.8640504" /><ellipse
   style="fill:#b3b3b3;stroke-width:5.66629"
   cx="152.16191"
   cy="381.12866"
   id="circle10-9"
   rx="5.4752064"
   ry="5.8640504" /><ellipse
   style="fill:#b3b3b3;stroke-width:5.66629"
   cx="168.58754"
   cy="381.12866"
   id="circle11-6"
   rx="5.4752064"
   ry="5.8640504" /><ellipse
   style="fill:#b3b3b3;stroke-width:5.66629"
   cx="185.01317"
   cy="381.12866"
   id="circle12-9"
   rx="5.4752064"
   ry="5.8640504" /><ellipse
   style="fill:#b3b3b3;stroke-width:5.66629"
   cx="201.43877"
   cy="381.12866"
   id="circle13-9"
   rx="5.4752064"
   ry="5.8640504" /><ellipse
   style="fill:#b3b3b3;stroke-width:5.66629"
   cx="217.8644"
   cy="381.12866"
   id="circle14-9"
   rx="5.4752064"
   ry="5.8640504" /><ellipse
   style="fill:#b3b3b3;stroke-width:5.66629"
   cx="234.29002"
   cy="381.12866"
   id="circle15-4"
   rx="5.4752064"
   ry="5.8640504" /><ellipse
   style="fill:#b3b3b3;stroke-width:5.66629"
   cx="135.73631"
   cy="404.58487"
   id="circle16-6"
   rx="5.4752064"
   ry="5.8640504" /><ellipse
   style="fill:#b3b3b3;stroke-width:5.66629"
   cx="152.16191"
   cy="404.58487"
   id="circle17-9"
   rx="5.4752064"
   ry="5.8640504" /><ellipse
   style="fill:#b3b3b3;stroke-width:5.66629"
   cx="168.58754"
   cy="404.58487"
   id="circle18-4"
   rx="5.4752064"
   ry="5.8640504" /><ellipse
   style="fill:#b3b3b3;stroke-width:5.66629"
   cx="185.01317"
   cy="404.58487"
   id="circle19-0"
   rx="5.4752064"
   ry="5.8640504" /><ellipse
   style="fill:#b3b3b3;stroke-width:5.66629"
   cx="201.43877"
   cy="404.58487"
   id="circle20-9"
   rx="5.4752064"
   ry="5.8640504" /><ellipse
   style="fill:#b3b3b3;stroke-width:5.66629"
   cx="217.8644"
   cy="404.58487"
   id="circle21-7"
   rx="5.4752064"
   ry="5.8640504" /><ellipse
   style="fill:#b3b3b3;stroke-width:5.66629"
   cx="234.29002"
   cy="404.58487"
   id="circle22-2"
   rx="5.4752064"
   ry="5.8640504" /><ellipse
   style="fill:#b3b3b3;stroke-width:5.66629"
   cx="18.743347"
   cy="359.76422"
   id="circle23-3"
   rx="5.4752064"
   ry="5.8640504" /><ellipse
   style="fill:#b3b3b3;stroke-width:5.66629"
   cx="35.168991"
   cy="359.76422"
   id="circle24-4"
   rx="5.4752064"
   ry="5.8640504" /><ellipse
   style="fill:#b3b3b3;stroke-width:5.66629"
   cx="51.594604"
   cy="359.76422"
   id="circle25-55"
   rx="5.4752064"
   ry="5.8640504" /><ellipse
   style="fill:#b3b3b3;stroke-width:5.66629"
   cx="68.020218"
   cy="359.76422"
   id="circle26-3"
   rx="5.4752064"
   ry="5.8640504" /><ellipse
   style="fill:#b3b3b3;stroke-width:5.66629"
   cx="84.445831"
   cy="359.76422"
   id="circle27-7"
   rx="5.4752064"
   ry="5.8640504" /><ellipse
   style="fill:#b3b3b3;stroke-width:5.66629"
   cx="100.87144"
   cy="359.76422"
   id="circle28-1"
   rx="5.4752064"
   ry="5.8640504" /><ellipse
   style="fill:#b3b3b3;stroke-width:5.66629"
   cx="117.29707"
   cy="359.76422"
   id="circle29-06"
   rx="5.4752064"
   ry="5.8640504" /><ellipse
   style="fill:#b3b3b3;stroke-width:5.66629"
   cx="135.7632"
   cy="338.52957"
   id="circle2-9-3"
   rx="5.4752064"
   ry="5.8640504" /><ellipse
   style="fill:#b3b3b3;stroke-width:5.66629"
   cx="152.1888"
   cy="338.52957"
   id="circle3-8-2"
   rx="5.4752064"
   ry="5.8640504" /><ellipse
   style="fill:#b3b3b3;stroke-width:5.66629"
   cx="168.61443"
   cy="338.52957"
   id="circle4-0-1"
   rx="5.4752064"
   ry="5.8640504" /><ellipse
   style="fill:#b3b3b3;stroke-width:5.66629"
   cx="185.04005"
   cy="338.52957"
   id="circle5-2-2"
   rx="5.4752064"
   ry="5.8640504" /><ellipse
   style="fill:#b3b3b3;stroke-width:5.66629"
   cx="201.46568"
   cy="338.52957"
   id="circle6-6-8"
   rx="5.4752064"
   ry="5.8640504" /><ellipse
   style="fill:#b3b3b3;stroke-width:5.66629"
   cx="217.89128"
   cy="338.52957"
   id="circle7-6-7"
   rx="5.4752064"
   ry="5.8640504" /><ellipse
   style="fill:#b3b3b3;stroke-width:5.66629"
   cx="234.31691"
   cy="338.52957"
   id="circle8-8-9"
   rx="5.4752064"
   ry="5.8640504" /><ellipse
   style="fill:#b3b3b3;stroke-width:5.66629"
   cx="18.770248"
   cy="338.11127"
   id="circle23-4-2"
   rx="5.4752064"
   ry="5.8640504" /><ellipse
   style="fill:#b3b3b3;stroke-width:5.66629"
   cx="35.195877"
   cy="338.11127"
   id="circle24-5-4"
   rx="5.4752064"
   ry="5.8640504" /><ellipse
   style="fill:#b3b3b3;stroke-width:5.66629"
   cx="51.621506"
   cy="338.11127"
   id="circle25-5-0"
   rx="5.4752064"
   ry="5.8640504" /><ellipse
   style="fill:#b3b3b3;stroke-width:5.66629"
   cx="68.047104"
   cy="338.11127"
   id="circle26-1-5"
   rx="5.4752064"
   ry="5.8640504" /><ellipse
   style="fill:#b3b3b3;stroke-width:5.66629"
   cx="84.472717"
   cy="338.11127"
   id="circle27-2-4"
   rx="5.4752064"
   ry="5.8640504" /><ellipse
   style="fill:#b3b3b3;stroke-width:5.66629"
   cx="100.89835"
   cy="338.11127"
   id="circle28-5-4"
   rx="5.4752064"
   ry="5.8640504" /><ellipse
   style="fill:#b3b3b3;stroke-width:5.66629"
   cx="117.32396"
   cy="338.11127"
   id="circle29-7-2"
   rx="5.4752064"
   ry="5.8640504" /><ellipse
   style="fill:#b3b3b3;stroke-width:5.66629"
   cx="18.743347"
   cy="380.71027"
   id="circle30-4"
   rx="5.4752064"
   ry="5.8640504" /><ellipse
   style="fill:#b3b3b3;stroke-width:5.66629"
   cx="35.168991"
   cy="380.71027"
   id="circle31-8"
   rx="5.4752064"
   ry="5.8640504" /><ellipse
   style="fill:#b3b3b3;stroke-width:5.66629"
   cx="51.594604"
   cy="380.71027"
   id="circle32-2"
   rx="5.4752064"
   ry="5.8640504" /><ellipse
   style="fill:#b3b3b3;stroke-width:5.66629"
   cx="68.020218"
   cy="380.71027"
   id="circle33-1"
   rx="5.4752064"
   ry="5.8640504" /><ellipse
   style="fill:#b3b3b3;stroke-width:5.66629"
   cx="84.445831"
   cy="380.71027"
   id="circle34-0"
   rx="5.4752064"
   ry="5.8640504" /><ellipse
   style="fill:#b3b3b3;stroke-width:5.66629"
   cx="100.87144"
   cy="380.71027"
   id="circle35-3"
   rx="5.4752064"
   ry="5.8640504" /><ellipse
   style="fill:#b3b3b3;stroke-width:5.66629"
   cx="117.29707"
   cy="380.71027"
   id="circle36-9"
   rx="5.4752064"
   ry="5.8640504" /><ellipse
   style="fill:#b3b3b3;stroke-width:5.66629"
   cx="18.743347"
   cy="404.16647"
   id="circle37-5"
   rx="5.4752064"
   ry="5.8640504" /><ellipse
   style="fill:#b3b3b3;stroke-width:5.66629"
   cx="35.168991"
   cy="404.16647"
   id="circle38-2"
   rx="5.4752064"
   ry="5.8640504" /><ellipse
   style="fill:#b3b3b3;stroke-width:5.66629"
   cx="51.594604"
   cy="404.16647"
   id="circle39-8"
   rx="5.4752064"
   ry="5.8640504" /><ellipse
   style="fill:#b3b3b3;stroke-width:5.66629"
   cx="68.020218"
   cy="404.16647"
   id="circle40-7"
   rx="5.4752064"
   ry="5.8640504" /><ellipse
   style="fill:#b3b3b3;stroke-width:5.66629"
   cx="84.445831"
   cy="404.16647"
   id="circle41-2"
   rx="5.4752064"
   ry="5.8640504" /><ellipse
   style="fill:#b3b3b3;stroke-width:5.66629"
   cx="100.87144"
   cy="404.16647"
   id="circle42-3"
   rx="5.4752064"
   ry="5.8640504" /><ellipse
   style="fill:#b3b3b3;stroke-width:5.66629"
   cx="117.29707"
   cy="404.16647"
   id="circle43-47"
   rx="5.4752064"
   ry="5.8640504" /><ellipse
   style="fill:#b3b3b3;stroke-width:5.66629"
   cx="371.89868"
   cy="275.16418"
   id="circle2-98"
   rx="5.4752064"
   ry="5.8640504" /><ellipse
   style="fill:#b3b3b3;stroke-width:5.66629"
   cx="388.32428"
   cy="275.16418"
   id="circle3-9"
   rx="5.4752064"
   ry="5.8640504" /><ellipse
   style="fill:#b3b3b3;stroke-width:5.66629"
   cx="404.74991"
   cy="275.16418"
   id="circle4-7"
   rx="5.4752064"
   ry="5.8640504" /><ellipse
   style="fill:#b3b3b3;stroke-width:5.66629"
   cx="421.17554"
   cy="275.16418"
   id="circle5-7"
   rx="5.4752064"
   ry="5.8640504" /><ellipse
   style="fill:#b3b3b3;stroke-width:5.66629"
   cx="437.60114"
   cy="275.16418"
   id="circle6-2"
   rx="5.4752064"
   ry="5.8640504" /><ellipse
   style="fill:#b3b3b3;stroke-width:5.66629"
   cx="454.02676"
   cy="275.16418"
   id="circle7-8"
   rx="5.4752064"
   ry="5.8640504" /><ellipse
   style="fill:#b3b3b3;stroke-width:5.66629"
   cx="470.45239"
   cy="275.16418"
   id="circle8-7"
   rx="5.4752064"
   ry="5.8640504" /><ellipse
   style="fill:#b3b3b3;stroke-width:5.66629"
   cx="371.89868"
   cy="296.11023"
   id="circle9-7"
   rx="5.4752064"
   ry="5.8640504" /><ellipse
   style="fill:#b3b3b3;stroke-width:5.66629"
   cx="388.32428"
   cy="296.11023"
   id="circle10-5"
   rx="5.4752064"
   ry="5.8640504" /><ellipse
   style="fill:#b3b3b3;stroke-width:5.66629"
   cx="404.74991"
   cy="296.11023"
   id="circle11-1"
   rx="5.4752064"
   ry="5.8640504" /><ellipse
   style="fill:#b3b3b3;stroke-width:5.66629"
   cx="421.17554"
   cy="296.11023"
   id="circle12-2"
   rx="5.4752064"
   ry="5.8640504" /><ellipse
   style="fill:#b3b3b3;stroke-width:5.66629"
   cx="437.60114"
   cy="296.11023"
   id="circle13-4"
   rx="5.4752064"
   ry="5.8640504" /><ellipse
   style="fill:#b3b3b3;stroke-width:5.66629"
   cx="454.02676"
   cy="296.11023"
   id="circle14-1"
   rx="5.4752064"
   ry="5.8640504" /><ellipse
   style="fill:#b3b3b3;stroke-width:5.66629"
   cx="470.45239"
   cy="296.11023"
   id="circle15-6"
   rx="5.4752064"
   ry="5.8640504" /><ellipse
   style="fill:#b3b3b3;stroke-width:5.66629"
   cx="371.89868"
   cy="318.30688"
   id="circle16-1"
   rx="5.4752064"
   ry="5.8640504" /><ellipse
   style="fill:#b3b3b3;stroke-width:5.66629"
   cx="388.32428"
   cy="318.30688"
   id="circle17-0"
   rx="5.4752064"
   ry="5.8640504" /><ellipse
   style="fill:#b3b3b3;stroke-width:5.66629"
   cx="404.74991"
   cy="318.30688"
   id="circle18-8"
   rx="5.4752064"
   ry="5.8640504" /><ellipse
   style="fill:#b3b3b3;stroke-width:5.66629"
   cx="421.17554"
   cy="318.30688"
   id="circle19-1"
   rx="5.4752064"
   ry="5.8640504" /><ellipse
   style="fill:#b3b3b3;stroke-width:5.66629"
   cx="437.60114"
   cy="318.30688"
   id="circle20-6"
   rx="5.4752064"
   ry="5.8640504" /><ellipse
   style="fill:#b3b3b3;stroke-width:5.66629"
   cx="454.02676"
   cy="318.30688"
   id="circle21-9"
   rx="5.4752064"
   ry="5.8640504" /><ellipse
   style="fill:#b3b3b3;stroke-width:5.66629"
   cx="470.45239"
   cy="318.30688"
   id="circle22-9"
   rx="5.4752064"
   ry="5.8640504" /><ellipse
   style="fill:#b3b3b3;stroke-width:5.66629"
   cx="254.9057"
   cy="274.74579"
   id="circle23-45"
   rx="5.4752064"
   ry="5.8640504" /><ellipse
   style="fill:#b3b3b3;stroke-width:5.66629"
   cx="271.33136"
   cy="274.74579"
   id="circle24-7"
   rx="5.4752064"
   ry="5.8640504" /><ellipse
   style="fill:#b3b3b3;stroke-width:5.66629"
   cx="287.75696"
   cy="274.74579"
   id="circle25-7"
   rx="5.4752064"
   ry="5.8640504" /><ellipse
   style="fill:#b3b3b3;stroke-width:5.66629"
   cx="304.18259"
   cy="274.74579"
   id="circle26-8"
   rx="5.4752064"
   ry="5.8640504" /><ellipse
   style="fill:#b3b3b3;stroke-width:5.66629"
   cx="320.60818"
   cy="274.74579"
   id="circle27-5"
   rx="5.4752064"
   ry="5.8640504" /><ellipse
   style="fill:#b3b3b3;stroke-width:5.66629"
   cx="337.03381"
   cy="274.74579"
   id="circle28-8"
   rx="5.4752064"
   ry="5.8640504" /><ellipse
   style="fill:#b3b3b3;stroke-width:5.66629"
   cx="353.45944"
   cy="274.74579"
   id="circle29-0"
   rx="5.4752064"
   ry="5.8640504" /><ellipse
   style="fill:#b3b3b3;stroke-width:5.66629"
   cx="371.92557"
   cy="253.51112"
   id="circle2-9-5"
   rx="5.4752064"
   ry="5.8640504" /><ellipse
   style="fill:#b3b3b3;stroke-width:5.66629"
   cx="388.35117"
   cy="253.51112"
   id="circle3-8-3"
   rx="5.4752064"
   ry="5.8640504" /><ellipse
   style="fill:#b3b3b3;stroke-width:5.66629"
   cx="404.77679"
   cy="253.51112"
   id="circle4-0-4"
   rx="5.4752064"
   ry="5.8640504" /><ellipse
   style="fill:#b3b3b3;stroke-width:5.66629"
   cx="421.20242"
   cy="253.51112"
   id="circle5-2-0"
   rx="5.4752064"
   ry="5.8640504" /><ellipse
   style="fill:#b3b3b3;stroke-width:5.66629"
   cx="437.62805"
   cy="253.51112"
   id="circle6-6-6"
   rx="5.4752064"
   ry="5.8640504" /><ellipse
   style="fill:#b3b3b3;stroke-width:5.66629"
   cx="454.05365"
   cy="253.51112"
   id="circle7-6-6"
   rx="5.4752064"
   ry="5.8640504" /><ellipse
   style="fill:#b3b3b3;stroke-width:5.66629"
   cx="470.47928"
   cy="253.51112"
   id="circle8-8-7"
   rx="5.4752064"
   ry="5.8640504" /><ellipse
   style="fill:#b3b3b3;stroke-width:5.66629"
   cx="254.9326"
   cy="253.09282"
   id="circle23-4-9"
   rx="5.4752064"
   ry="5.8640504" /><ellipse
   style="fill:#b3b3b3;stroke-width:5.66629"
   cx="271.35825"
   cy="253.09282"
   id="circle24-5-2"
   rx="5.4752064"
   ry="5.8640504" /><ellipse
   style="fill:#b3b3b3;stroke-width:5.66629"
   cx="287.78387"
   cy="253.09282"
   id="circle25-5-6"
   rx="5.4752064"
   ry="5.8640504" /><ellipse
   style="fill:#b3b3b3;stroke-width:5.66629"
   cx="304.20947"
   cy="253.09282"
   id="circle26-1-3"
   rx="5.4752064"
   ry="5.8640504" /><ellipse
   style="fill:#b3b3b3;stroke-width:5.66629"
   cx="320.63507"
   cy="253.09282"
   id="circle27-2-2"
   rx="5.4752064"
   ry="5.8640504" /><ellipse
   style="fill:#b3b3b3;stroke-width:5.66629"
   cx="337.0607"
   cy="253.09282"
   id="circle28-5-6"
   rx="5.4752064"
   ry="5.8640504" /><ellipse
   style="fill:#b3b3b3;stroke-width:5.66629"
   cx="353.48633"
   cy="253.09282"
   id="circle29-7-0"
   rx="5.4752064"
   ry="5.8640504" /><ellipse
   style="fill:#b3b3b3;stroke-width:5.66629"
   cx="254.9057"
   cy="295.69183"
   id="circle30-2"
   rx="5.4752064"
   ry="5.8640504" /><ellipse
   style="fill:#b3b3b3;stroke-width:5.66629"
   cx="271.33136"
   cy="295.69183"
   id="circle31-1"
   rx="5.4752064"
   ry="5.8640504" /><ellipse
   style="fill:#b3b3b3;stroke-width:5.66629"
   cx="287.75696"
   cy="295.69183"
   id="circle32-4"
   rx="5.4752064"
   ry="5.8640504" /><ellipse
   style="fill:#b3b3b3;stroke-width:5.66629"
   cx="304.18259"
   cy="295.69183"
   id="circle33-7"
   rx="5.4752064"
   ry="5.8640504" /><ellipse
   style="fill:#b3b3b3;stroke-width:5.66629"
   cx="320.60818"
   cy="295.69183"
   id="circle34-5"
   rx="5.4752064"
   ry="5.8640504" /><ellipse
   style="fill:#b3b3b3;stroke-width:5.66629"
   cx="337.03381"
   cy="295.69183"
   id="circle35-8"
   rx="5.4752064"
   ry="5.8640504" /><ellipse
   style="fill:#b3b3b3;stroke-width:5.66629"
   cx="353.45944"
   cy="295.69183"
   id="circle36-8"
   rx="5.4752064"
   ry="5.8640504" /><ellipse
   style="fill:#b3b3b3;stroke-width:5.66629"
   cx="254.9057"
   cy="317.88849"
   id="circle37-0"
   rx="5.4752064"
   ry="5.8640504" /><ellipse
   style="fill:#b3b3b3;stroke-width:5.66629"
   cx="271.33136"
   cy="317.88849"
   id="circle38-7"
   rx="5.4752064"
   ry="5.8640504" /><ellipse
   style="fill:#b3b3b3;stroke-width:5.66629"
   cx="287.75696"
   cy="317.88849"
   id="circle39-0"
   rx="5.4752064"
   ry="5.8640504" /><ellipse
   style="fill:#b3b3b3;stroke-width:5.66629"
   cx="304.18259"
   cy="317.88849"
   id="circle40-0"
   rx="5.4752064"
   ry="5.8640504" /><ellipse
   style="fill:#b3b3b3;stroke-width:5.66629"
   cx="320.60818"
   cy="317.88849"
   id="circle41-8"
   rx="5.4752064"
   ry="5.8640504" /><ellipse
   style="fill:#b3b3b3;stroke-width:5.66629"
   cx="337.03381"
   cy="317.88849"
   id="circle42-2"
   rx="5.4752064"
   ry="5.8640504" /><ellipse
   style="fill:#b3b3b3;stroke-width:5.66629"
   cx="353.45944"
   cy="317.88849"
   id="circle43-4"
   rx="5.4752064"
   ry="5.8640504" /><ellipse
   style="fill:#b3b3b3;stroke-width:5.66629"
   cx="135.10655"
   cy="273.90463"
   id="circle2"
   rx="5.4752064"
   ry="5.8640504" /><ellipse
   style="fill:#b3b3b3;stroke-width:5.66629"
   cx="151.53215"
   cy="273.90463"
   id="circle3"
   rx="5.4752064"
   ry="5.8640504" /><ellipse
   style="fill:#b3b3b3;stroke-width:5.66629"
   cx="167.95778"
   cy="273.90463"
   id="circle4"
   rx="5.4752064"
   ry="5.8640504" /><ellipse
   style="fill:#b3b3b3;stroke-width:5.66629"
   cx="184.38341"
   cy="273.90463"
   id="circle5"
   rx="5.4752064"
   ry="5.8640504" /><ellipse
   style="fill:#b3b3b3;stroke-width:5.66629"
   cx="200.80901"
   cy="273.90463"
   id="circle6"
   rx="5.4752064"
   ry="5.8640504" /><ellipse
   style="fill:#b3b3b3;stroke-width:5.66629"
   cx="217.23463"
   cy="273.90463"
   id="circle7"
   rx="5.4752064"
   ry="5.8640504" /><ellipse
   style="fill:#b3b3b3;stroke-width:5.66629"
   cx="233.66026"
   cy="273.90463"
   id="circle8"
   rx="5.4752064"
   ry="5.8640504" /><ellipse
   style="fill:#b3b3b3;stroke-width:5.66629"
   cx="135.10655"
   cy="294.85068"
   id="circle9"
   rx="5.4752064"
   ry="5.8640504" /><ellipse
   style="fill:#b3b3b3;stroke-width:5.66629"
   cx="151.53215"
   cy="294.85068"
   id="circle10"
   rx="5.4752064"
   ry="5.8640504" /><ellipse
   style="fill:#b3b3b3;stroke-width:5.66629"
   cx="167.95778"
   cy="294.85068"
   id="circle11"
   rx="5.4752064"
   ry="5.8640504" /><ellipse
   style="fill:#b3b3b3;stroke-width:5.66629"
   cx="184.38341"
   cy="294.85068"
   id="circle12"
   rx="5.4752064"
   ry="5.8640504" /><ellipse
   style="fill:#b3b3b3;stroke-width:5.66629"
   cx="200.80901"
   cy="294.85068"
   id="circle13"
   rx="5.4752064"
   ry="5.8640504" /><ellipse
   style="fill:#b3b3b3;stroke-width:5.66629"
   cx="217.23463"
   cy="294.85068"
   id="circle14"
   rx="5.4752064"
   ry="5.8640504" /><ellipse
   style="fill:#b3b3b3;stroke-width:5.66629"
   cx="233.66026"
   cy="294.85068"
   id="circle15"
   rx="5.4752064"
   ry="5.8640504" /><ellipse
   style="fill:#b3b3b3;stroke-width:5.66629"
   cx="135.10655"
   cy="318.30688"
   id="circle16"
   rx="5.4752064"
   ry="5.8640504" /><ellipse
   style="fill:#b3b3b3;stroke-width:5.66629"
   cx="151.53215"
   cy="318.30688"
   id="circle17"
   rx="5.4752064"
   ry="5.8640504" /><ellipse
   style="fill:#b3b3b3;stroke-width:5.66629"
   cx="167.95778"
   cy="318.30688"
   id="circle18"
   rx="5.4752064"
   ry="5.8640504" /><ellipse
   style="fill:#b3b3b3;stroke-width:5.66629"
   cx="184.38341"
   cy="318.30688"
   id="circle19"
   rx="5.4752064"
   ry="5.8640504" /><ellipse
   style="fill:#b3b3b3;stroke-width:5.66629"
   cx="200.80901"
   cy="318.30688"
   id="circle20"
   rx="5.4752064"
   ry="5.8640504" /><ellipse
   style="fill:#b3b3b3;stroke-width:5.66629"
   cx="217.23463"
   cy="318.30688"
   id="circle21"
   rx="5.4752064"
   ry="5.8640504" /><ellipse
   style="fill:#b3b3b3;stroke-width:5.66629"
   cx="233.66026"
   cy="318.30688"
   id="circle22"
   rx="5.4752064"
   ry="5.8640504" /><ellipse
   style="fill:#b3b3b3;stroke-width:5.66629"
   cx="18.113581"
   cy="273.48624"
   id="circle23"
   rx="5.4752064"
   ry="5.8640504" /><ellipse
   style="fill:#b3b3b3;stroke-width:5.66629"
   cx="34.539211"
   cy="273.48624"
   id="circle24"
   rx="5.4752064"
   ry="5.8640504" /><ellipse
   style="fill:#b3b3b3;stroke-width:5.66629"
   cx="50.964825"
   cy="273.48624"
   id="circle25"
   rx="5.4752064"
   ry="5.8640504" /><ellipse
   style="fill:#b3b3b3;stroke-width:5.66629"
   cx="67.39045"
   cy="273.48624"
   id="circle26"
   rx="5.4752064"
   ry="5.8640504" /><ellipse
   style="fill:#b3b3b3;stroke-width:5.66629"
   cx="83.816063"
   cy="273.48624"
   id="circle27"
   rx="5.4752064"
   ry="5.8640504" /><ellipse
   style="fill:#b3b3b3;stroke-width:5.66629"
   cx="100.24168"
   cy="273.48624"
   id="circle28"
   rx="5.4752064"
   ry="5.8640504" /><ellipse
   style="fill:#b3b3b3;stroke-width:5.66629"
   cx="116.6673"
   cy="273.48624"
   id="circle29"
   rx="5.4752064"
   ry="5.8640504" /><ellipse
   style="fill:#b3b3b3;stroke-width:5.66629"
   cx="135.13344"
   cy="252.2516"
   id="circle2-9"
   rx="5.4752064"
   ry="5.8640504" /><ellipse
   style="fill:#b3b3b3;stroke-width:5.66629"
   cx="151.55904"
   cy="252.2516"
   id="circle3-8"
   rx="5.4752064"
   ry="5.8640504" /><ellipse
   style="fill:#b3b3b3;stroke-width:5.66629"
   cx="167.98466"
   cy="252.2516"
   id="circle4-0"
   rx="5.4752064"
   ry="5.8640504" /><ellipse
   style="fill:#b3b3b3;stroke-width:5.66629"
   cx="184.41029"
   cy="252.2516"
   id="circle5-2"
   rx="5.4752064"
   ry="5.8640504" /><ellipse
   style="fill:#b3b3b3;stroke-width:5.66629"
   cx="200.83592"
   cy="252.2516"
   id="circle6-6"
   rx="5.4752064"
   ry="5.8640504" /><ellipse
   style="fill:#b3b3b3;stroke-width:5.66629"
   cx="217.26152"
   cy="252.2516"
   id="circle7-6"
   rx="5.4752064"
   ry="5.8640504" /><ellipse
   style="fill:#b3b3b3;stroke-width:5.66629"
   cx="233.68715"
   cy="252.2516"
   id="circle8-8"
   rx="5.4752064"
   ry="5.8640504" /><ellipse
   style="fill:#b3b3b3;stroke-width:5.66629"
   cx="18.140482"
   cy="251.8333"
   id="circle23-4"
   rx="5.4752064"
   ry="5.8640504" /><ellipse
   style="fill:#b3b3b3;stroke-width:5.66629"
   cx="34.566097"
   cy="251.8333"
   id="circle24-5"
   rx="5.4752064"
   ry="5.8640504" /><ellipse
   style="fill:#b3b3b3;stroke-width:5.66629"
   cx="50.991726"
   cy="251.8333"
   id="circle25-5"
   rx="5.4752064"
   ry="5.8640504" /><ellipse
   style="fill:#b3b3b3;stroke-width:5.66629"
   cx="67.417336"
   cy="251.8333"
   id="circle26-1"
   rx="5.4752064"
   ry="5.8640504" /><ellipse
   style="fill:#b3b3b3;stroke-width:5.66629"
   cx="83.842949"
   cy="251.8333"
   id="circle27-2"
   rx="5.4752064"
   ry="5.8640504" /><ellipse
   style="fill:#b3b3b3;stroke-width:5.66629"
   cx="100.26858"
   cy="251.8333"
   id="circle28-5"
   rx="5.4752064"
   ry="5.8640504" /><ellipse
   style="fill:#b3b3b3;stroke-width:5.66629"
   cx="116.69419"
   cy="251.8333"
   id="circle29-7"
   rx="5.4752064"
   ry="5.8640504" /><ellipse
   style="fill:#b3b3b3;stroke-width:5.66629"
   cx="18.113581"
   cy="294.43228"
   id="circle30"
   rx="5.4752064"
   ry="5.8640504" /><ellipse
   style="fill:#b3b3b3;stroke-width:5.66629"
   cx="34.539211"
   cy="294.43228"
   id="circle31"
   rx="5.4752064"
   ry="5.8640504" /><ellipse
   style="fill:#b3b3b3;stroke-width:5.66629"
   cx="50.964825"
   cy="294.43228"
   id="circle32"
   rx="5.4752064"
   ry="5.8640504" /><ellipse
   style="fill:#b3b3b3;stroke-width:5.66629"
   cx="67.39045"
   cy="294.43228"
   id="circle33"
   rx="5.4752064"
   ry="5.8640504" /><ellipse
   style="fill:#b3b3b3;stroke-width:5.66629"
   cx="83.816063"
   cy="294.43228"
   id="circle34"
   rx="5.4752064"
   ry="5.8640504" /><ellipse
   style="fill:#b3b3b3;stroke-width:5.66629"
   cx="100.24168"
   cy="294.43228"
   id="circle35"
   rx="5.4752064"
   ry="5.8640504" /><ellipse
   style="fill:#b3b3b3;stroke-width:5.66629"
   cx="116.6673"
   cy="294.43228"
   id="circle36"
   rx="5.4752064"
   ry="5.8640504" /><ellipse
   style="fill:#b3b3b3;stroke-width:5.66629"
   cx="18.113581"
   cy="317.88849"
   id="circle37"
   rx="5.4752064"
   ry="5.8640504" /><ellipse
   style="fill:#b3b3b3;stroke-width:5.66629"
   cx="34.539211"
   cy="317.88849"
   id="circle38"
   rx="5.4752064"
   ry="5.8640504" /><ellipse
   style="fill:#b3b3b3;stroke-width:5.66629"
   cx="50.964825"
   cy="317.88849"
   id="circle39"
   rx="5.4752064"
   ry="5.8640504" /><ellipse
   style="fill:#b3b3b3;stroke-width:5.66629"
   cx="67.39045"
   cy="317.88849"
   id="circle40"
   rx="5.4752064"
   ry="5.8640504" /><ellipse
   style="fill:#b3b3b3;stroke-width:5.66629"
   cx="83.816063"
   cy="317.88849"
   id="circle41"
   rx="5.4752064"
   ry="5.8640504" /><ellipse
   style="fill:#b3b3b3;stroke-width:5.66629"
   cx="100.24168"
   cy="317.88849"
   id="circle42"
   rx="5.4752064"
   ry="5.8640504" /><ellipse
   style="fill:#b3b3b3;stroke-width:5.66629"
   cx="116.6673"
   cy="317.88849"
   id="circle43"
   rx="5.4752064"
   ry="5.8640504" />




<text
   xml:space="preserve"
   id="text11"
   style="white-space:pre;shape-inside:url(#rect11);display:inline;fill:#ffffff;stroke-width:0.562"
   transform="matrix(3.4585438,0,0,3.7577135,-484.40072,-547.63841)"><tspan
     x="202.78516"
     y="206.80539"
     id="tspan1">72</tspan></text><text
   xml:space="preserve"
   id="text12"
   style="white-space:pre;shape-inside:url(#rect12);display:inline;fill:#333333;stroke-width:0.562"
   transform="matrix(1.6864084,0,0,1.8127041,-22.849892,-163.22075)"><tspan
     x="32.117188"
     y="209.95382"
     id="tspan2">Midea</tspan></text><path
   sodipodi:type="spiral"
   style="fill:none;fill-rule:evenodd;stroke:#000000"
   id="path12"
   sodipodi:cx="-149.88438"
   sodipodi:cy="91.316116"
   sodipodi:expansion="1"
   sodipodi:revolution="3"
   sodipodi:radius="48.557392"
   sodipodi:argument="-18.036642"
   sodipodi:t0="0"
   d="m -149.88438,91.316116 c 1.6735,1.768227 -1.55789,3.128227 -2.93891,2.781469 -3.74248,-0.939692 -4.21507,-5.779478 -2.62403,-8.659286 2.84599,-5.1513 9.87977,-5.570362 14.37966,-2.466589 6.60378,4.554912 6.96763,14.036333 2.30915,20.10004 -6.20902,8.08197 -18.21296,8.38288 -25.82042,2.15171 -9.57321,-7.841292 -9.80746,-22.399163 -1.99427,-31.540795 9.46282,-11.071741 26.59077,-11.237445 37.26118,-1.83683 12.57469,11.078299 12.67082,30.785745 1.67939,42.981555 -12.69005,14.08053 -34.98297,14.10646 -48.70193,1.52195 -15.58835,-14.29933 -15.54369,-39.181778 -1.36451,-54.42231 15.9069,-17.097573 43.38173,-16.982068 60.14268,-1.20707 18.607838,17.513237 18.421305,47.58255 1.04963,65.86306"
   transform="matrix(0.40464344,0,0,0.36548048,96.737431,176.25363)" /><path
   style="fill:#e6e6e6;stroke-width:0.136857"
   d="m 24.477245,122.35668 v 7.21103 c 0,0.32942 10.846044,0.59653 24.221987,0.59653 H 446.75956 c 13.37595,0 24.22199,-0.26713 24.22199,-0.59653 v -7.21103 c 0,-0.32968 -10.84604,-0.59653 -24.22199,-0.59653 H 48.699232 c -13.375943,0 -24.221987,0.26685 -24.221987,0.59653 z"
   id="path1-2-8" /><rect
   style="fill:#e6e6e6;stroke-width:0.562"
   id="rect13"
   width="39.045509"
   height="28.96925"
   x="418.16483"
   y="194.59779" /><rect
   style="fill:#e6e6e6;stroke-width:0.562"
   id="rect14"
   width="3.7785978"
   height="5.0381303"
   x="433.27921"
   y="207.82288" /><path
   sodipodi:type="star"
   style="fill:#999999;stroke-width:0.562"
   id="path14"
   inkscape:flatsided="false"
   sodipodi:sides="5"
   sodipodi:cx="471.06519"
   sodipodi:cy="209.08241"
   sodipodi:r1="10.4814"
   sodipodi:r2="5.2407002"
   sodipodi:arg1="0.99945885"
   sodipodi:arg2="1.6277774"
   inkscape:rounded="0"
   inkscape:randomized="0"
   d="m 476.73308,217.89914 -5.96635,-3.58453 -6.33527,2.88281 1.56538,-6.78202 -4.69942,-5.13436 6.93382,-0.60699 3.43086,-6.05603 2.71995,6.40689 6.81982,1.39153 -5.2528,4.56666 z"
   inkscape:transform-center-x="-0.085241051"
   inkscape:transform-center-y="-0.39329796"
   transform="matrix(0.46212896,0,0,0.47740262,233.6339,105.05679)" /><text
   xml:space="preserve"
   style="font-size:9.2668px;fill:#999999;stroke-width:0.433995"
   x="577.80615"
   y="155.52805"
   id="text14"
   transform="scale(0.73113386,1.3677386)"><tspan
     sodipodi:role="line"
     id="tspan14"
     x="577.80615"
     y="155.52805"
     style="stroke-width:0.433995">Energy</tspan></text></svg>
