<?xml version="1.0" encoding="UTF-8" standalone="no"?>
<!-- Generator: Adobe Illustrator 19.2.0, SVG Export Plug-In . SVG Version: 6.00 Build 0)  -->

<svg
   version="1.1"
   id="accold"
   x="0px"
   y="0px"
   viewBox="0 0 28.930253 21.140657"
   enable-background="new 0 0 235.6146 213.1683"
   xml:space="preserve"
   width="62.8666"
   height="50.776859"
   sodipodi:docname="ac-cool.svg"
   inkscape:version="1.2 (dc2aedaf03, 2022-05-15)"
   xmlns:inkscape="http://www.inkscape.org/namespaces/inkscape"
   xmlns:sodipodi="http://sodipodi.sourceforge.net/DTD/sodipodi-0.dtd"
   xmlns="http://www.w3.org/2000/svg"
   xmlns:svg="http://www.w3.org/2000/svg"><defs
   id="defs31" /><sodipodi:namedview
   id="namedview29"
   pagecolor="#ffffff"
   bordercolor="#000000"
   borderopacity="0.25"
   inkscape:showpageshadow="2"
   inkscape:pageopacity="0.0"
   inkscape:pagecheckerboard="0"
   inkscape:deskcolor="#d1d1d1"
   showgrid="false"
   inkscape:zoom="1.6542969"
   inkscape:cx="240.88784"
   inkscape:cy="129.66234"
   inkscape:window-width="1350"
   inkscape:window-height="1050"
   inkscape:window-x="510"
   inkscape:window-y="212"
   inkscape:window-maximized="0"
   inkscape:current-layer="accold" />
<g
   id="g18"
   transform="matrix(0.09917779,0,0,0.09587183,2.699761,-1.7229091)">
	<circle
   fill="#ffffff"
   cx="75.614601"
   cy="185.1683"
   r="4"
   id="circle2" />
	<circle
   fill="#ffffff"
   cx="159.61459"
   cy="185.1683"
   r="4"
   id="circle4" />
	<path
   fill="#5cb0ff"
   d="M 215.5951,53.1683 H 23.6341 c -6.627,0 -12.0195,5.4023 -12.0195,12.0391 v 55.9219 c 0,6.6367 5.3926,12.0391 12.0195,12.0391 H 215.595 c 6.627,0 12.0195,-5.4023 12.0195,-12.0391 V 65.2074 c 1e-4,-6.6367 -5.3925,-12.0391 -12.0194,-12.0391 z m -23.9239,68 H 43.6146 v -8 h 148.0566 z m 19.9434,-12 h -184 v -8 h 184 z"
   id="path6" />
	<path
   fill="#1c71da"
   d="M 215.5951,45.1683 H 23.6341 c -11.0391,0 -20.0195,8.9883 -20.0195,20.0391 v 55.9219 c 0,11.0508 8.9805,20.0391 20.0195,20.0391 H 215.595 c 11.0391,0 20.0195,-8.9883 20.0195,-20.0391 V 65.2074 c 1e-4,-11.0508 -8.9804,-20.0391 -20.0194,-20.0391 z m 12.0195,75.961 c 0,6.6367 -5.3926,12.0391 -12.0195,12.0391 H 23.6341 c -6.627,0 -12.0195,-5.4023 -12.0195,-12.0391 V 65.2074 c 0,-6.6367 5.3926,-12.0391 12.0195,-12.0391 H 215.595 c 6.627,0 12.0195,5.4023 12.0195,12.0391 v 55.9219 z"
   id="path8" />
	<path
   fill="#1c71da"
   d="m 186.4427,174.3402 c -1.5625,-1.5625 -4.0938,-1.5625 -5.6562,0 l -6.8281,6.8281 h -3.0808 c -1.2083,-3.3887 -3.8743,-6.0547 -7.2629,-7.2629 v -3.0808 l 6.8281,-6.8281 c 1.5625,-1.5625 1.5625,-4.0938 0,-5.6562 -1.5625,-1.5624 -4.0938,-1.5625 -5.6562,0 l -5.1719,5.1719 -5.1719,-5.1719 c -1.5625,-1.5625 -4.0938,-1.5625 -5.6562,0 -1.5624,1.5625 -1.5625,4.0938 0,5.6562 l 6.8281,6.8281 v 3.0808 c -3.3887,1.2083 -6.0547,3.8743 -7.2629,7.2629 h -3.0808 l -6.8281,-6.8281 c -1.5625,-1.5625 -4.0938,-1.5625 -5.6562,0 -1.5624,1.5625 -1.5625,4.0938 0,5.6562 l 5.1719,5.1719 -5.1719,5.1719 c -1.5625,1.5625 -1.5625,4.0938 0,5.6562 0.7812,0.7812 1.8047,1.1719 2.8281,1.1719 1.0234,0 2.0469,-0.3906 2.8281,-1.1719 l 6.8281,-6.8281 h 3.0811 c 1.2083,3.3887 3.874,6.0544 7.2627,7.2627 v 3.0811 l -6.8281,6.8281 c -1.5625,1.5625 -1.5625,4.0938 0,5.6562 1.5625,1.5624 4.0938,1.5625 5.6562,0 l 5.1719,-5.1719 5.1719,5.1719 c 0.7812,0.7812 1.8047,1.1719 2.8281,1.1719 1.0234,0 2.0469,-0.3906 2.8281,-1.1719 1.5625,-1.5625 1.5625,-4.0938 0,-5.6562 l -6.8281,-6.8281 v -3.0808 c 3.3887,-1.2083 6.0547,-3.8743 7.2629,-7.2629 h 3.0808 l 6.8281,6.8281 c 0.7812,0.7812 1.8047,1.1719 2.8281,1.1719 1.0234,0 2.0469,-0.3906 2.8281,-1.1719 1.5625,-1.5625 1.5625,-4.0938 0,-5.6562 l -5.1719,-5.1719 5.1719,-5.1719 c 1.5624,-1.5625 1.5624,-4.0938 -1e-4,-5.6563 z m -26.8281,14.8281 c -2.2051,0 -4,-1.793 -4,-4 0,-2.207 1.7949,-4 4,-4 2.2051,0 4,1.793 4,4 0,2.207 -1.7949,4 -4,4 z"
   id="path10" />
	<path
   fill="#1c71da"
   d="m 102.4427,174.3402 c -1.5625,-1.5625 -4.0938,-1.5625 -5.6562,0 l -6.8281,6.8281 h -3.0808 c -1.2083,-3.3887 -3.8743,-6.0547 -7.2629,-7.2629 v -3.0808 l 6.8281,-6.8281 c 1.5625,-1.5625 1.5625,-4.0938 0,-5.6562 -1.5625,-1.5624 -4.0938,-1.5625 -5.6562,0 l -5.1719,5.1719 -5.1719,-5.1719 c -1.5625,-1.5625 -4.0938,-1.5625 -5.6562,0 -1.5624,1.5625 -1.5625,4.0938 0,5.6562 l 6.8281,6.8281 v 3.0808 c -3.3887,1.2083 -6.0547,3.8743 -7.2629,7.2629 H 61.271 l -6.8281,-6.8281 c -1.5625,-1.5625 -4.0938,-1.5625 -5.6562,0 -1.5624,1.5625 -1.5625,4.0938 0,5.6562 l 5.1719,5.1719 -5.1719,5.1719 c -1.5625,1.5625 -1.5625,4.0938 0,5.6562 0.7812,0.7812 1.8047,1.1719 2.8281,1.1719 1.0234,0 2.0469,-0.3906 2.8281,-1.1719 l 6.8281,-6.8281 h 3.0811 c 1.2083,3.3887 3.874,6.0544 7.2627,7.2627 v 3.0811 l -6.8281,6.8281 c -1.5625,1.5625 -1.5625,4.0938 0,5.6562 1.5625,1.5624 4.0938,1.5625 5.6562,0 l 5.1719,-5.1719 5.1719,5.1719 c 0.7812,0.7812 1.8047,1.1719 2.8281,1.1719 1.0234,0 2.0469,-0.3906 2.8281,-1.1719 1.5625,-1.5625 1.5625,-4.0938 0,-5.6562 l -6.8281,-6.8281 v -3.0808 c 3.3887,-1.2083 6.0547,-3.8743 7.2629,-7.2629 h 3.0808 l 6.8281,6.8281 c 0.7812,0.7812 1.8047,1.1719 2.8281,1.1719 1.0234,0 2.0469,-0.3906 2.8281,-1.1719 1.5625,-1.5625 1.5625,-4.0938 0,-5.6562 l -5.1719,-5.1719 5.1719,-5.1719 c 1.5624,-1.5625 1.5624,-4.0938 -1e-4,-5.6563 z m -26.8281,14.8281 c -2.2051,0 -4,-1.793 -4,-4 0,-2.207 1.7949,-4 4,-4 2.2051,0 4,1.793 4,4 0,2.207 -1.7949,4 -4,4 z"
   id="path12" />
	<rect
   x="43.614601"
   y="113.1683"
   fill="#1c71da"
   width="148.05659"
   height="8"
   id="rect14" />
	<rect
   x="27.614599"
   y="101.1683"
   fill="#1c71da"
   width="184"
   height="8"
   id="rect16" />
</g>



<path
   fill="#ffc504"
   d="m 23.042703,6.92065 v 0 c -0.105227,0 -0.206151,-0.04045 -0.280534,-0.112353 L 21.640121,5.7235649 c -0.154916,-0.149704 -0.154916,-0.392566 0,-0.54227 l 1.122048,-1.084646 c 0.154965,-0.1498 0.406153,-0.1498 0.561019,0 l 1.122098,1.084646 c 0.07443,0.0719 0.116226,0.169463 0.116226,0.271135 0,0.101672 -0.04179,0.199231 -0.116177,0.271135 L 23.323238,6.808307 c -0.07438,0.0719 -0.175307,0.112343 -0.280535,0.112343 z m -0.561029,-1.4682201 0.56102,0.542366 0.561068,-0.542366 -0.561068,-0.54227 z"
   id="path26"
   style="stroke-width:0.0975108" />
<path
   style="fill:#000000;stroke-width:0.0271251"
   d="M 4.7348064,11.775072 C 4.0996081,11.671052 3.5327758,11.254098 3.2613643,10.691225 3.0660546,10.286179 3.0765412,10.462386 3.0656207,7.402149 c -0.00585,-1.6401061 8.702e-4,-2.8636141 0.016567,-3.0150671 0.051389,-0.495835 0.2331056,-0.866603 0.5943496,-1.212692 0.2588099,-0.247953 0.5505534,-0.409963 0.8888698,-0.493606 0.2092494,-0.05173 0.3548782,-0.0525 9.9975499,-0.0525 9.642672,0 9.788301,7.67e-4 9.99755,0.0525 0.348291,0.08611 0.629815,0.244383 0.90105,0.506577 0.267064,0.258162 0.421915,0.512756 0.528693,0.869236 l 0.06345,0.211844 V 7.202052 c 0,3.29322 0.01207,3.087345 -0.206415,3.520332 -0.246423,0.48835 -0.691975,0.84564 -1.273804,1.021469 -0.13659,0.04128 -0.872222,0.04488 -9.927761,0.0486 -5.3791322,0.0022 -9.8390449,-0.0056 -9.9109176,-0.01738 z M 24.353828,11.027483 c 0.451265,-0.100567 0.827381,-0.483003 0.913449,-0.928797 0.0398,-0.2061561 0.03755,-5.5689361 -0.0024,-5.7786761 -0.06967,-0.365536 -0.304962,-0.664754 -0.653768,-0.831398 L 24.401264,3.3883579 H 14.562957 4.7246782 l -0.2098456,0.100254 c -0.3488061,0.166644 -0.5840955,0.465862 -0.6537676,0.831398 -0.040351,0.211707 -0.042209,5.573615 -0.002,5.7785611 0.042569,0.216985 0.1730796,0.460851 0.3254708,0.608163 0.1413009,0.136591 0.3989969,0.279405 0.5776065,0.320106 0.1502556,0.03424 19.4380857,0.03487 19.5916877,6.72e-4 z"
   id="path346" /><path
   style="fill:#000000;stroke-width:0.0271251"
   d="M 5.4586439,8.362162 V 7.988793 H 14.562957 23.66727 V 8.362162 8.73553 H 14.562957 5.4586439 Z"
   id="path348" /><path
   style="fill:#000000;stroke-width:0.0271251"
   d="m 7.0312071,9.5089369 v -0.373369 h 7.3386289 7.338628 v 0.373369 0.373368 H 14.369836 7.0312071 Z"
   id="path350" /><path
   style="fill:#f9f9f9;stroke-width:0.0271251"
   d="M 4.7137455,10.978878 C 4.4154241,10.88582 4.2165476,10.73914 4.0490678,10.488654 3.8526305,10.194858 3.8584919,10.296137 3.8584919,7.195723 c 0,-3.0036671 -0.00444,-2.9093701 0.1511012,-3.2060921 0.097009,-0.185057 0.3118751,-0.381911 0.5303247,-0.485869 l 0.1864619,-0.08873 h 9.8365773 9.836577 l 0.186463,0.08873 c 0.326248,0.155259 0.545806,0.419244 0.640272,0.769835 0.06344,0.235457 0.06149,5.605102 -0.0021,5.8755271 -0.07195,0.305796 -0.31397,0.609697 -0.596903,0.749523 -0.277743,0.137261 0.300276,0.129881 -10.078062,0.128683 -9.1969991,-0.0011 -9.6913055,-0.0035 -9.835418,-0.04845 z M 21.708464,9.5089369 V 9.1088989 H 14.356041 7.0036183 v 0.400038 0.400038 h 7.3524227 7.352423 z M 23.694859,8.362162 V 7.962124 H 14.562957 5.4310551 V 8.362162 8.7622 h 9.1319019 9.131902 z m -0.39728,-1.516873 c 0.05918,-0.04221 0.357639,-0.3212311 0.663244,-0.6200581 0.828415,-0.81004 0.831095,-0.731855 -0.05442,-1.588023 -0.913483,-0.883213 -0.803141,-0.882448 -1.706512,-0.01182 -0.908744,0.875802 -0.905587,0.782109 -0.05437,1.613051 0.328637,0.320811 0.634767,0.6058141 0.680288,0.6333411 0.131636,0.0796 0.339368,0.06794 0.471768,-0.02649 z"
   id="path477" /><path
   style="fill:#f9f9f9;stroke-width:0.0271251"
   d="m 22.756839,5.7085779 -0.261004,-0.253358 0.261004,-0.253357 c 0.143553,-0.139346 0.27125,-0.253357 0.283773,-0.253357 0.03069,0 0.516303,0.468152 0.516303,0.497734 0,0.02414 -0.500661,0.515695 -0.525251,0.515695 -0.0076,0 -0.131272,-0.114011 -0.274825,-0.253357 z"
   id="path479" /><path
   style="fill:#4d4d4d;stroke-width:0.0271251"
   d="M 4.6999511,11.758154 C 4.2306156,11.652695 3.8237861,11.414853 3.5376935,11.078672 3.3792727,10.892515 3.1843622,10.524462 3.1371652,10.322347 3.1069552,10.192976 3.0997992,9.5954229 3.0997992,7.202052 c 0,-2.7792791 0.00306,-2.9708791 0.050119,-3.1336301 0.1784674,-0.617281 0.6689972,-1.126542 1.2879396,-1.337121 l 0.1793273,-0.06101 2.4692001,-0.0179 c 3.1597768,-0.0229 11.7518808,-0.0231 14.9531448,-3.55e-4 l 2.4692,0.01755 0.202353,0.0708 c 0.296319,0.103674 0.482336,0.221347 0.733103,0.463755 0.266164,0.257292 0.378597,0.431046 0.503671,0.778378 l 0.09335,0.259242 -0.0097,2.9869491 c -0.01062,3.286279 -0.001,3.105575 -0.183824,3.45366 -0.250074,0.476143 -0.625929,0.807889 -1.135842,1.002547 l -0.203158,0.07755 -9.8768,0.004 c -5.4322412,0.0022 -9.9016312,-0.0015 -9.9319789,-0.0084 z M 24.582657,10.95802 c 0.322825,-0.147843 0.555351,-0.406145 0.660996,-0.734269 0.0511,-0.158712 0.05318,-0.2753131 0.05316,-2.981595 -1.8e-5,-2.0313431 -0.0089,-2.8569321 -0.03196,-2.9617431 -0.07554,-0.343781 -0.308559,-0.6319 -0.652265,-0.806492 l -0.194694,-0.0989 H 14.562957 4.7080199 l -0.1896729,0.09635 c -0.3451868,0.175343 -0.5947277,0.483666 -0.6620843,0.818043 -0.017843,0.08858 -0.02821,1.160177 -0.028563,2.9526411 -5.362e-4,2.7170329 0.00129,2.819287 0.053301,2.979327 0.029621,0.09115 0.085289,0.217575 0.1237065,0.280944 0.1487599,0.245378 0.4912837,0.482008 0.7623293,0.526651 0.06932,0.01142 4.5147293,0.01911 9.8786875,0.0171 l 9.75265,-0.0037 z"
   id="path1004" /><path
   style="fill:#4d4d4d;stroke-width:0.0271251"
   d="M 5.4586439,8.362162 V 7.988793 H 14.562957 23.66727 V 8.362162 8.73553 H 14.562957 5.4586439 Z"
   id="path1006" /><path
   style="fill:#4d4d4d;stroke-width:0.0271251"
   d="m 7.0312071,9.5089369 v -0.373369 h 7.3386289 7.338628 v 0.373369 0.373368 H 14.369836 7.0312071 Z"
   id="path1008" /></svg>
