<?xml version="1.0" encoding="UTF-8" standalone="no"?>
<!-- Generator: Adobe Illustrator 19.2.0, SVG Export Plug-In . SVG Version: 6.00 Build 0)  -->

<svg
   version="1.1"
   id="airconditioning"
   x="0px"
   y="0px"
   viewBox="0 0 28.486424 20.64301"
   enable-background="new 0 0 232 203.3096"
   xml:space="preserve"
   width="62.866592"
   height="51.985844"
   sodipodi:docname="ac-fan.svg"
   inkscape:version="1.2 (dc2aedaf03, 2022-05-15)"
   xmlns:inkscape="http://www.inkscape.org/namespaces/inkscape"
   xmlns:sodipodi="http://sodipodi.sourceforge.net/DTD/sodipodi-0.dtd"
   xmlns="http://www.w3.org/2000/svg"
   xmlns:svg="http://www.w3.org/2000/svg"><defs
   id="defs475" /><sodipodi:namedview
   id="namedview473"
   pagecolor="#ffffff"
   bordercolor="#000000"
   borderopacity="0.25"
   inkscape:showpageshadow="2"
   inkscape:pageopacity="0.0"
   inkscape:pagecheckerboard="0"
   inkscape:deskcolor="#d1d1d1"
   showgrid="false"
   inkscape:zoom="1.6542969"
   inkscape:cx="243.91027"
   inkscape:cy="101.55372"
   inkscape:window-width="1920"
   inkscape:window-height="1027"
   inkscape:window-x="-8"
   inkscape:window-y="-8"
   inkscape:window-maximized="1"
   inkscape:current-layer="airconditioning" />
<g
   id="g462"
   transform="matrix(0.09765625,0,0,0.09220567,2.4651712,0.48407083)">
	<path
   fill="#5cb0ff"
   d="M 211.9805,39.3096 H 20.0195 C 13.3926,39.3096 8,44.7119 8,51.3486 v 55.9219 c 0,6.6367 5.3926,12.0391 12.0195,12.0391 h 191.9609 c 6.627,0 12.0195,-5.4023 12.0195,-12.0391 V 51.3486 c 1e-4,-6.6367 -5.3925,-12.039 -12.0194,-12.039 z m -23.9239,68 H 40 v -8 H 188.0566 Z M 208,95.3096 H 24 v -8 h 184 z"
   id="path450" />
	<path
   fill="#1c71da"
   d="M 211.9805,31.3096 H 20.0195 C 8.9805,31.3096 0,40.2979 0,51.3486 v 55.9219 c 0,11.0508 8.9805,20.0391 20.0195,20.0391 H 104 v 56 h 8 v -56 h 8 v 56 h 8 v -56 h 83.9805 c 11.0391,0 20.0195,-8.9883 20.0195,-20.0391 V 51.3486 c 0,-11.0507 -8.9805,-20.039 -20.0195,-20.039 z M 224,107.2705 c 0,6.6367 -5.3926,12.0391 -12.0195,12.0391 H 20.0195 C 13.3926,119.3096 8,113.9072 8,107.2705 V 51.3486 C 8,44.7119 13.3926,39.3095 20.0195,39.3095 h 191.9609 c 6.627,0 12.0195,5.4023 12.0195,12.0391 v 55.9219 z"
   id="path452" />
	<rect
   x="40"
   y="99.309601"
   fill="#1c71da"
   width="148.05659"
   height="8"
   id="rect454" />
	<rect
   x="24"
   y="87.309601"
   fill="#1c71da"
   width="184"
   height="8"
   id="rect456" />
	<path
   fill="#1c71da"
   d="m 172,179.3096 c -2.209,0 -4,1.7891 -4,4 0,6.6172 -5.3828,12 -12,12 -6.6172,0 -12,-5.3828 -12,-12 v -44 h -8 v 44 c 0,11.0273 8.9727,20 20,20 11.0273,0 20,-8.9727 20,-20 0,-2.211 -1.791,-4 -4,-4 z"
   id="path458" />
	<path
   fill="#1c71da"
   d="m 88,183.3096 c 0,6.6172 -5.3828,12 -12,12 -6.6172,0 -12,-5.3828 -12,-12 0,-2.2109 -1.791,-4 -4,-4 -2.209,0 -4,1.7891 -4,4 0,11.0273 8.9727,20 20,20 11.0273,0 20,-8.9727 20,-20 v -44 h -8 z"
   id="path460" />
</g>


<path
   fill="#00d40b"
   d="m 22.459501,6.8935723 c -0.753877,0 -1.367187,-0.579079 -1.367187,-1.290879 0,-0.7118 0.61331,-1.2908795 1.367187,-1.2908795 0.753877,0 1.367187,0.5790795 1.367187,1.2908795 0,0.7118 -0.61331,1.290879 -1.367187,1.290879 z m 0,-1.844114 c -0.323105,0 -0.585937,0.248163 -0.585937,0.553235 0,0.305071 0.262832,0.553234 0.585937,0.553234 0.323105,0 0.585937,-0.248163 0.585937,-0.553234 0,-0.305072 -0.262832,-0.553235 -0.585937,-0.553235 z"
   id="path468"
   style="stroke-width:0.0948916" />

<path
   style="fill:#f9f9f9;stroke-width:0.0259916"
   d="M 4.1303031,11.43457 C 3.7989926,11.350336 3.5374113,11.145235 3.3815638,10.8475 L 3.2810101,10.655398 V 7.7988663 4.9423343 l 0.099451,-0.189994 C 3.5036277,4.5170398 3.7050911,4.3299268 3.9561898,4.2176228 l 0.1807826,-0.08086 h 9.6577106 9.657711 l 0.201224,0.0939 c 0.249212,0.116292 0.447384,0.3065095 0.566328,0.5435935 l 0.08563,0.170693 v 2.855222 2.8552217 l -0.09966,0.190395 c -0.15537,0.296823 -0.425838,0.507617 -0.755234,0.588604 -0.142702,0.03508 -1.157096,0.03902 -9.669697,0.03753 -8.1069517,-0.0014 -9.5309917,-0.0069 -9.6506858,-0.03736 z M 20.841609,10.008754 V 9.6299163 H 13.606054 6.3704986 v 0.3788377 0.378838 h 7.2355554 7.235555 z M 22.794272,8.8974973 V 8.5186583 H 13.793295 4.7923183 v 0.378839 0.378837 h 9.0009767 9.000977 z m -0.0025,-2.034102 c 0.599834,-0.1335 1.045694,-0.671497 1.045694,-1.261789 0,-0.597288 -0.47516,-1.1514435 -1.091332,-1.2727665 -0.46602,-0.09176 -0.906546,0.03538 -1.251658,0.3612255 -0.549942,0.519248 -0.55282,1.313631 -0.0066,1.829339 0.344832,0.325585 0.821547,0.451349 1.303922,0.343991 z"
   id="path481" /><path
   style="fill:#f9f9f9;stroke-width:0.0259916"
   d="m 22.202579,6.0740373 c -0.397789,-0.196209 -0.41853,-0.704408 -0.03782,-0.926647 0.259618,-0.15155 0.594255,-0.08183 0.763207,0.159001 0.19479,0.277664 0.09786,0.623643 -0.216114,0.771368 -0.186854,0.08792 -0.325543,0.0869 -0.509274,-0.0037 z"
   id="path483" /><path
   style="fill:#000000;stroke-width:0.0259916"
   d="M 12.629722,14.79474 V 12.206014 H 8.4076877 c -4.1293432,0 -4.2266796,-0.0011 -4.4336167,-0.05036 C 3.6039682,12.067553 3.3433921,11.927018 3.0649256,11.665326 2.8618341,11.474469 2.7999937,11.396541 2.6985736,11.203667 2.4663877,10.76211 2.4785456,10.951641 2.4785456,7.7736103 v -2.8034 l 0.06184,-0.201711 c 0.2067149,-0.6742655 0.7247959,-1.1609625 1.412642,-1.3270645 0.2029211,-0.049 0.3441741,-0.04971 9.8378594,-0.04934 10.437709,4.2e-4 9.758475,-0.0084 10.108973,0.130575 0.681732,0.270247 1.12762,0.857245 1.198748,1.5781125 0.01476,0.149571 0.02167,1.35738 0.01654,2.891796 -0.0088,2.6206377 -0.0091,2.6360157 -0.06729,2.8316077 -0.101524,0.341322 -0.252144,0.58165 -0.52717,0.841143 -0.196692,0.185587 -0.286812,0.249783 -0.469972,0.334788 -0.124638,0.05785 -0.321826,0.127835 -0.438196,0.155536 -0.206938,0.04926 -0.304274,0.05036 -4.433616,0.05036 h -4.222031 v 2.588726 2.588727 h -0.374488 -0.374482 v -2.588727 -2.588726 h -0.414608 -0.414606 v 2.588726 2.588727 h -0.374484 -0.374483 z m 10.946666,-3.367057 c 0.35186,-0.134169 0.61561,-0.394399 0.715828,-0.706278 0.05365,-0.166937 0.0544,-0.214477 0.04731,-2.9730507 l -0.0072,-2.8034 -0.05999,-0.138907 C 24.151302,4.5258103 23.893542,4.2824358 23.59674,4.1681568 l -0.14712,-0.05665 H 13.793295 4.1369723 l -0.1471185,0.05665 C 3.6930518,4.2824358 3.4352903,4.5258103 3.3142556,4.8060473 l -0.059994,0.138907 -0.0072,2.8034 c -0.00706,2.7465147 -0.00611,2.8067977 0.046599,2.9708287 0.088797,0.276338 0.3036206,0.51614 0.5825299,0.650265 0.279416,0.13437 -0.3558959,0.126627 9.9706035,0.121514 l 9.576077,-0.0047 z"
   id="path485" /><path
   style="fill:#000000;stroke-width:0.0259916"
   d="m 12.629722,14.79474 v -2.588726 l -2.949057,-0.0027 C 8.0586837,12.201904 6.1237408,12.192381 5.3807924,12.182203 3.9027148,12.161956 3.9223594,12.163941 3.5775074,11.99996 3.1401547,11.791995 2.7556781,11.383043 2.5971617,10.957208 2.5063967,10.713378 2.4935053,10.293051 2.4929394,7.5589363 l -5.41e-4,-2.613982 0.089047,-0.243873 C 2.793984,4.1190058 3.2423281,3.6837458 3.829361,3.4895858 l 0.1738672,-0.05751 3.009242,-0.02012 c 3.5865888,-0.02398 15.9218718,-9.8e-4 16.3933998,0.03054 0.299268,0.02002 0.350166,0.03083 0.534976,0.113648 0.615316,0.275735 1.019998,0.788467 1.12604,1.4266885 0.02313,0.13917 0.02919,0.923042 0.02285,2.954935 l -0.0086,2.7655177 -0.07279,0.202047 c -0.10575,0.293542 -0.244852,0.49982 -0.502138,0.74463 -0.235302,0.223891 -0.392952,0.319222 -0.739918,0.447429 l -0.182918,0.06759 -1.364189,0.01792 c -0.750304,0.0099 -2.691265,0.01909 -4.313246,0.02051 l -2.949057,0.0026 v 2.588726 2.588726 H 14.582383 14.2079 v -2.588734 -2.588726 h -0.414607 -0.414607 v 2.588726 2.588726 h -0.374483 -0.374484 z m 11.002204,-3.380263 c 0.2198,-0.0965 0.43042,-0.265217 0.549122,-0.439873 0.170488,-0.250856 0.164656,-0.13638 0.164656,-3.2321097 v -2.811277 l -0.07906,-0.164626 C 24.155182,4.5344823 23.908598,4.2977238 23.661404,4.1854638 l -0.19065,-0.08658 H 13.793295 4.1158371 l -0.1900485,0.08658 c -0.251816,0.114719 -0.4717023,0.322333 -0.5932035,0.5600935 l -0.091698,0.179441 v 2.814386 c 0,3.0593637 -0.00409,2.9705747 0.1480096,3.2156217 0.091752,0.147824 0.3211908,0.34744 0.4961736,0.43168 0.1231106,0.05927 0.1911769,0.07236 0.4525185,0.08702 0.1691862,0.0095 4.5363851,0.01904 9.7048862,0.0212 l 9.397275,0.0039 z"
   id="path487" /><path
   style="fill:#000000;stroke-width:0.0259916"
   d="m 4.8190671,8.8974973 v -0.353583 h 8.9742279 8.974229 v 0.353583 0.353582 H 13.793295 4.8190671 Z"
   id="path489" /><path
   style="fill:#0000ff;stroke-width:0.0259916"
   d="M 6.3972474,10.008754 V 9.6551723 h 7.2088066 7.208806 v 0.3535817 0.353582 H 13.606054 6.3972474 Z"
   id="path491" /><path
   style="fill:#4d4d4d;stroke-width:0.0259916"
   d="M 6.3972474,10.008754 V 9.6551723 h 7.2088066 7.208806 v 0.3535817 0.353582 H 13.606054 6.3972474 Z"
   id="path564" /><path
   style="fill:#4d4d4d;stroke-width:0.0259916"
   d="m 4.8190671,8.8974973 v -0.353583 h 8.9742279 8.974229 v 0.353583 0.353582 H 13.793295 4.8190671 Z"
   id="path980" /><path
   style="fill:#4d4d4d;stroke-width:0.0259916"
   d="m 12.629722,14.79474 v -2.588726 l -2.949057,-0.0027 c -1.6219813,-0.0014 -3.5569242,-0.01049 -4.2998726,-0.02006 L 4.0299771,12.165887 3.8267832,12.099037 C 3.5326228,12.002256 3.3116369,11.870261 3.0792681,11.652542 2.8615388,11.448541 2.6856006,11.194788 2.5971617,10.957208 2.5063967,10.713378 2.4935053,10.293051 2.4929394,7.5589363 l -5.41e-4,-2.613982 0.089047,-0.243873 c 0.1160171,-0.3177345 0.290454,-0.5779805 0.53354,-0.7960015 0.2144971,-0.192378 0.3939577,-0.299555 0.677034,-0.404335 l 0.1844596,-0.06828 3.0359908,-0.0204 c 3.5987622,-0.02418 15.9187022,-0.0013 16.3934002,0.03044 0.299276,0.02001 0.35016,0.03082 0.534976,0.113641 0.615292,0.275725 1.019848,0.788274 1.12609,1.4266885 0.02319,0.1394 0.02922,0.923025 0.0228,2.967563 l -0.0087,2.7781447 -0.08216,0.206227 c -0.11991,0.300998 -0.237194,0.471149 -0.492658,0.714739 -0.235244,0.224307 -0.391476,0.318925 -0.739918,0.448115 l -0.182918,0.06782 -1.364189,0.0176 c -0.750304,0.0097 -2.691265,0.01881 -4.313247,0.02029 l -2.949057,0.0027 v 2.588726 2.588727 h -0.374488 -0.374482 v -2.588725 -2.588726 h -0.414608 -0.414606 v 2.588726 2.588727 h -0.374484 -0.374483 z m 11.017706,-3.388268 c 0.236852,-0.107557 0.49412,-0.334189 0.5871,-0.517186 0.03271,-0.06439 0.07105,-0.183725 0.08518,-0.265187 0.0153,-0.08824 0.02575,-1.2696117 0.02585,-2.9226457 l 1.78e-4,-2.774534 -0.08456,-0.167773 C 24.147518,4.5336423 23.885278,4.2860398 23.646444,4.1787248 l -0.17769,-0.07984 H 13.793295 4.1178719 l -0.1776915,0.07984 C 3.7013472,4.2860398 3.4391071,4.5336423 3.3254487,4.7591463 l -0.084562,0.167773 1.548e-4,2.774534 c 9.3e-5,1.653034 0.010539,2.8344027 0.025845,2.9226457 0.036834,0.212364 0.1216301,0.360398 0.30751,0.536846 0.2505171,0.237803 0.3847015,0.290868 0.7899273,0.312385 0.1839054,0.0098 4.5520678,0.0195 9.7070272,0.02164 l 9.372653,0.0039 z"
   id="path982" /></svg>
