<?xml version="1.0" encoding="UTF-8" standalone="no"?>
<!-- Generator: Adobe Illustrator 19.2.0, SVG Export Plug-In . SVG Version: 6.00 Build 0)  -->

<svg
   version="1.1"
   id="acnotcancel"
   x="0px"
   y="0px"
   viewBox="0 0 27.390794 17.887775"
   enable-background="new 0 0 232 168.3438"
   xml:space="preserve"
   width="60.448647"
   height="54.40379"
   sodipodi:docname="ac-off.svg"
   inkscape:version="1.2 (dc2aedaf03, 2022-05-15)"
   xmlns:inkscape="http://www.inkscape.org/namespaces/inkscape"
   xmlns:sodipodi="http://sodipodi.sourceforge.net/DTD/sodipodi-0.dtd"
   xmlns="http://www.w3.org/2000/svg"
   xmlns:svg="http://www.w3.org/2000/svg"><defs
   id="defs632" /><sodipodi:namedview
   id="namedview630"
   pagecolor="#ffffff"
   bordercolor="#000000"
   borderopacity="0.25"
   inkscape:showpageshadow="2"
   inkscape:pageopacity="0.0"
   inkscape:pagecheckerboard="0"
   inkscape:deskcolor="#d1d1d1"
   showgrid="false"
   inkscape:zoom="1.6542969"
   inkscape:cx="247.53719"
   inkscape:cy="160.79339"
   inkscape:window-width="1920"
   inkscape:window-height="1027"
   inkscape:window-x="-8"
   inkscape:window-y="-8"
   inkscape:window-maximized="1"
   inkscape:current-layer="acnotcancel" />
<g
   id="g619"
   transform="matrix(0.09765625,0,0,0.09420831,1.9173554,0)">
	<path
   fill="#5cb0ff"
   d="M 211.9805,8 H 20.0195 C 13.3926,8 8,13.4023 8,20.0391 V 75.961 C 8,82.5977 13.3926,88 20.0195,88 H 211.9804 C 218.6074,88 224,82.5977 224,75.9609 V 20.0391 C 224,13.4023 218.6074,8 211.9805,8 Z M 188.0566,76 H 40 V 68 H 188.0566 Z M 208,64 H 24 v -8 h 184 z"
   id="path609" />
	<path
   fill="#1c71da"
   d="M 211.9805,0 H 20.0195 C 8.9805,0 0,8.9883 0,20.0391 V 75.961 C 0,87.0117 8.9805,96 20.0195,96 H 211.9804 C 223.0195,96 232,87.0117 232,75.9609 V 20.0391 C 232,8.9883 223.0195,0 211.9805,0 Z M 224,75.9609 C 224,82.5977 218.6074,88 211.9805,88 H 20.0195 C 13.3926,88 8,82.5977 8,75.9609 V 20.0391 C 8,13.4023 13.3926,8 20.0195,8 H 211.9804 C 218.6074,8 224,13.4023 224,20.0391 Z"
   id="path611" />
	<rect
   x="40"
   y="68"
   fill="#1c71da"
   width="148.05659"
   height="8"
   id="rect613" />
	<rect
   x="24"
   y="56"
   fill="#1c71da"
   width="184"
   height="8"
   id="rect615" />
	<path
   fill="#1c71da"
   d="M 132.9707,121.375 115.0684,139.2773 97.709,121.918 c -1.5625,-1.5625 -4.0938,-1.5625 -5.6562,0 -1.5624,1.5625 -1.5625,4.0938 0,5.6562 l 17.3594,17.3594 -16.0392,16.0391 c -1.5625,1.5625 -1.5625,4.0938 0,5.6562 0.7812,0.7812 1.8047,1.1719 2.8281,1.1719 1.0234,0 2.0469,-0.3906 2.8281,-1.1719 l 16.0391,-16.0391 16.582,16.582 c 0.7812,0.7812 1.8047,1.1719 2.8281,1.1719 1.0234,0 2.0469,-0.3906 2.8281,-1.1719 1.5625,-1.5625 1.5625,-4.0938 0,-5.6562 l -16.582,-16.582 17.9023,-17.9023 c 1.5625,-1.5625 1.5625,-4.0938 0,-5.6562 -1.5625,-1.5624 -4.0936,-1.5626 -5.6561,-1e-4 z"
   id="path617" />
</g>
<path
   fill="#ff5d5d"
   d="m 21.078553,3.4224699 c -0.09999,0 -0.199941,-0.036798 -0.27623,-0.1104028 -0.152539,-0.1471062 -0.152539,-0.3857547 0,-0.532861 l 1.381064,-1.3322562 c 0.152637,-0.1471063 0.399922,-0.1471063 0.552461,0 0.152539,0.1471063 0.152539,0.3857548 0,0.532861 l -1.381064,1.3322562 c -0.07629,0.073596 -0.176289,0.1104028 -0.276231,0.1104028 z"
   id="path621"
   style="stroke-width:0.0959168" />
<path
   fill="#ff5d5d"
   d="m 22.432869,3.4225546 c -0.09999,0 -0.199942,-0.036798 -0.276231,-0.1104027 L 20.775574,1.9798015 c -0.152539,-0.1471063 -0.152539,-0.3857547 0,-0.532861 0.152636,-0.1471063 0.399922,-0.1471063 0.552461,0 l 1.381064,1.3323504 c 0.152539,0.1471063 0.152539,0.3857548 0,0.532861 -0.0763,0.073605 -0.176289,0.1104027 -0.27623,0.1104027 z"
   id="path623"
   style="stroke-width:0.0959168" />


<path
   style="fill:#f9f9f9;stroke-width:0.0262724"
   d="M 3.7173232,8.2637183 C 3.2809057,8.2085029 2.8992066,7.8969431 2.7718437,7.4919749 2.7201139,7.3274932 2.7189712,7.2519019 2.7259931,4.4590005 l 0.0072,-2.8642887 0.09114,-0.1799207 C 2.9971514,1.0736323 3.3339547,0.83375101 3.7147144,0.78063659 c 0.2248995,-0.0313725 18.8366316,-0.0313725 19.0615316,0 0.38076,0.0531144 0.717563,0.29299571 0.89038,0.63415451 l 0.09114,0.1799207 0.0073,2.8642887 c 0.0071,2.807312 0.0062,2.867691 -0.0466,3.035353 -0.104328,0.3313632 -0.40198,0.6203129 -0.761143,0.738889 -0.127782,0.042187 -0.689921,0.045004 -9.604808,0.048148 -5.2079944,0.00184 -9.5438131,-0.00612 -9.6351518,-0.017672 z M 20.293794,6.7813962 V 6.381428 H 13.058238 5.822683 v 0.3999682 0.3999682 h 7.235555 7.235556 z M 22.246458,5.6589048 V 5.271839 H 13.24548 4.2445027 V 5.6589048 6.0459709 H 13.24548 22.246458 Z M 21.221574,3.4125849 c 0.04142,-0.014928 0.177885,-0.1252722 0.303265,-0.2452097 l 0.227965,-0.2180676 0.200016,0.1964431 c 0.200001,0.1964286 0.356625,0.2923428 0.479122,0.2934093 0.121497,0.00106 0.294149,-0.1012175 0.350387,-0.2075604 0.111382,-0.2106191 0.06001,-0.3463063 -0.238297,-0.6294516 L 22.327662,2.3967775 22.57893,2.1500588 C 22.847449,1.886401 22.886812,1.809448 22.849997,1.620136 22.827007,1.5018996 22.677027,1.357218 22.554464,1.3350368 c -0.196115,-0.035492 -0.276065,0.00251 -0.54848,0.2607024 L 21.751073,1.8373417 21.497001,1.5957947 C 21.294599,1.4033703 21.222051,1.3504694 21.140265,1.3356681 20.929972,1.29761 20.724478,1.4164798 20.664016,1.611159 c -0.05352,0.1723214 0.0023,0.2847667 0.274294,0.5523479 l 0.237167,0.2333376 -0.213641,0.2048894 c -0.31219,0.2994014 -0.365567,0.4885718 -0.193512,0.6858268 0.118807,0.1362097 0.290684,0.18362 0.45325,0.1250242 z"
   id="path634" /><path
   style="fill:#000000;stroke-width:0.0262724"
   d="M 3.6152782,9.0139291 C 2.9675993,8.9214055 2.4146517,8.5320287 2.1305388,7.9683988 1.918876,7.5484974 1.9307298,7.7528668 1.9307298,4.5235113 c 0,-2.6440407 0.00375,-2.8912631 0.046301,-3.0508534 C 2.1602294,0.7855327 2.683735,0.26870612 3.4019149,0.06595304 3.5534523,0.02317171 4.097499,0.02026781 13.151859,0.01391133 c 10.814073,-0.00759187 9.830216,-0.02659368 10.31167,0.19915507 0.52924,0.24815495 0.89893,0.69147029 1.0504,1.2595915 0.04255,0.1595903 0.0463,0.4068127 0.0463,3.0508534 0,3.2293555 0.01185,3.0249861 -0.199809,3.4448875 -0.243185,0.4824361 -0.673868,0.8314599 -1.23169,0.9981593 l -0.200179,0.059821 -9.589452,0.00337 c -5.2741983,0.00186 -9.6499185,-0.00526 -9.7238228,-0.01582 z M 23.132554,8.1821119 C 23.381763,8.0632941 23.579937,7.8689423 23.69888,7.6267106 L 23.78451,7.4523107 V 4.5235113 1.5947118 L 23.69888,1.4203123 C 23.551235,1.1196272 23.296406,0.9003045 22.968676,0.79185144 22.825575,0.7444963 22.560025,0.74316665 13.24548,0.74316665 c -9.3145445,0 -9.5800949,0.00133 -9.7231955,0.0486848 C 3.1945546,0.9003045 2.9397251,1.1196272 2.7920806,1.4203123 l -0.085635,0.1743995 v 2.9287995 2.9287994 l 0.085195,0.1734915 c 0.144876,0.2950279 0.3956094,0.5114482 0.7169209,0.6188094 0.126466,0.042256 0.6826731,0.044482 9.7784315,0.039123 l 9.644338,-0.00568 z"
   id="path636" /><path
   style="fill:#000000;stroke-width:0.0262724"
   d="M 4.2712515,5.6589048 V 5.2976432 H 13.24548 22.219709 V 5.6589048 6.0201664 H 13.24548 4.2712515 Z"
   id="path638" /><path
   style="fill:#000000;stroke-width:0.0262724"
   d="M 5.8494318,6.7813962 V 6.4072326 h 7.2088062 7.208807 V 6.7813962 7.1555603 H 13.058238 5.8494318 Z"
   id="path640" /><path
   style="fill:#aa0000;stroke-width:0.0262724"
   d="m 14.917281,15.824478 c -0.03678,-0.01459 -0.448953,-0.394586 -0.915941,-0.844429 l -0.849069,-0.817894 -0.836107,0.804148 c -0.926906,0.891476 -0.925011,0.890166 -1.146995,0.793599 -0.171313,-0.07452 -0.256778,-0.224531 -0.224669,-0.394335 0.0153,-0.08093 0.137733,-0.210501 0.851268,-0.90093 l 0.833393,-0.806407 -0.899127,-0.870879 c -0.990788,-0.95966 -0.980614,-0.94633 -0.889661,-1.165617 0.08354,-0.201416 0.311941,-0.285581 0.508006,-0.187199 0.05896,0.02958 0.4798,0.415122 0.960562,0.879982 l 0.855633,0.82733 0.923164,-0.888226 c 0.795823,-0.765706 0.93676,-0.890615 1.021729,-0.905544 0.265197,-0.04659 0.491123,0.177802 0.435875,0.432922 -0.01423,0.06573 -0.217134,0.276472 -0.938164,0.974438 l -0.920004,0.890574 0.817493,0.786712 c 0.456859,0.439657 0.841569,0.831368 0.872069,0.887939 0.08865,0.164421 0.03459,0.367909 -0.124448,0.468435 -0.08293,0.05242 -0.2481,0.06987 -0.335007,0.03538 z"
   id="path642" /><path
   style="fill:#4d4d4d;stroke-width:0.0262724"
   d="M 3.4244408,8.9622167 C 2.8530748,8.8177263 2.4100985,8.4639428 2.1316042,7.9296922 1.9497037,7.5807428 1.9574786,7.7339846 1.9574786,4.4977071 1.9574786,1.2106059 1.9418137,1.4778256 2.1585689,1.067416 2.3976787,0.61467923 2.7928261,0.28441254 3.308294,0.1064684 L 3.4821613,0.04644785 h 9.6830727 c 7.71481,0 9.722942,0.0066715 9.879217,0.03282107 0.286831,0.04799599 0.650405,0.24528832 0.914349,0.49616916 0.336023,0.31939265 0.52079,0.68249292 0.565279,1.11087352 0.01611,0.155161 0.02217,1.3210347 0.0157,3.0222071 -0.01173,3.0832289 4.56e-4,2.8862791 -0.20169,3.2598801 -0.264376,0.4886144 -0.615387,0.7796212 -1.164238,0.9652134 l -0.236184,0.079865 -9.660879,-0.00142 c -9.3602836,-0.00138 -9.66684,-0.00293 -9.8523472,-0.04984 z M 23.1328,8.1970083 C 23.368775,8.077385 23.576504,7.8769907 23.700506,7.6493464 L 23.797889,7.470568 V 4.5235113 1.5764545 L 23.698459,1.3939102 C 23.55931,1.1384668 23.367973,0.95789725 23.111027,0.83954088 L 22.901804,0.74316665 H 13.244093 3.586382 L 3.3737788,0.84442538 C 3.1135128,0.9683849 2.9295902,1.1422493 2.7925062,1.3939102 L 2.6930712,1.5764545 V 4.5235113 7.470568 l 0.09996,0.183507 c 0.1799344,0.3303268 0.5008365,0.5734831 0.8070566,0.6115297 0.082259,0.01022 4.4690736,0.020105 9.7484762,0.021966 l 9.598914,0.00338 z"
   id="path729" /><path
   style="fill:#4d4d4d;stroke-width:0.0262724"
   d="M 4.2712515,5.6589048 V 5.2976432 H 13.24548 22.219709 V 5.6589048 6.0201664 H 13.24548 4.2712515 Z"
   id="path731" /><path
   style="fill:#4d4d4d;stroke-width:0.0262724"
   d="M 5.8494318,6.7813962 V 6.4072326 h 7.2088062 7.208807 V 6.7813962 7.1555603 H 13.058238 5.8494318 Z"
   id="path733" /><path
   style="fill:#aa0000;stroke-width:0.0262724"
   d="m 20.922924,3.3687241 c -0.128299,-0.062183 -0.214523,-0.1943847 -0.214523,-0.3289104 0,-0.1291231 0.07014,-0.230069 0.330918,-0.4762686 L 21.215743,2.3969849 20.976602,2.1617391 c -0.131527,-0.1293856 -0.251698,-0.2671077 -0.267046,-0.30605 -0.06765,-0.1716648 -3.2e-5,-0.3571226 0.16578,-0.4546496 0.188105,-0.1106396 0.312182,-0.063478 0.627764,0.2386135 l 0.246349,0.2358178 0.265222,-0.2482738 c 0.279345,-0.2614939 0.361927,-0.3023277 0.536583,-0.2653213 0.111922,0.023715 0.232676,0.1391052 0.265469,0.2536785 0.04804,0.1678447 -0.0012,0.262465 -0.277731,0.5341857 l -0.249761,0.2453753 0.236428,0.2320062 c 0.165966,0.1628629 0.244646,0.2608446 0.264006,0.3287725 0.05362,0.188116 -0.06023,0.3768548 -0.26259,0.4353431 -0.160782,0.046471 -0.270902,-0.00572 -0.539944,-0.255924 L 21.750547,2.9152971 21.514863,3.1377838 c -0.303095,0.2861228 -0.400046,0.3239471 -0.591939,0.2309403 z"
   id="path507" /></svg>
