<?xml version="1.0" encoding="UTF-8" standalone="no"?>
<!-- Generator: Adobe Illustrator 19.0.0, SVG Export Plug-In . SVG Version: 6.00 Build 0)  -->

<svg
   version="1.1"
   id="Layer_1"
   x="0px"
   y="0px"
   viewBox="0 0 27.103394 20.022332"
   xml:space="preserve"
   sodipodi:docname="ac-off.svg"
   width="27.103394"
   height="20.022331"
   inkscape:version="1.2 (dc2aedaf03, 2022-05-15)"
   xmlns:inkscape="http://www.inkscape.org/namespaces/inkscape"
   xmlns:sodipodi="http://sodipodi.sourceforge.net/DTD/sodipodi-0.dtd"
   xmlns="http://www.w3.org/2000/svg"
   xmlns:svg="http://www.w3.org/2000/svg"><defs
   id="defs2370" /><sodipodi:namedview
   id="namedview2368"
   pagecolor="#ffffff"
   bordercolor="#000000"
   borderopacity="0.25"
   inkscape:showpageshadow="2"
   inkscape:pageopacity="0.0"
   inkscape:pagecheckerboard="0"
   inkscape:deskcolor="#d1d1d1"
   showgrid="false"
   inkscape:zoom="4.0954279"
   inkscape:cx="99.989551"
   inkscape:cy="52.863829"
   inkscape:window-width="1350"
   inkscape:window-height="1050"
   inkscape:window-x="550"
   inkscape:window-y="74"
   inkscape:window-maximized="0"
   inkscape:current-layer="Layer_1" />
<g
   id="g2335"
   transform="matrix(0.09670432,0,0,0.0932898,2.9300967,1.5527899)">
	<g
   id="g2333">
		<g
   id="g2331">
			<path
   d="M 188.97,28.373 H 17.847 C 8.006,28.373 0,36.386 0,46.237 v 49.852 c 0,9.851 8.006,17.864 17.847,17.864 H 188.97 c 9.841,0 17.846,-8.013 17.846,-17.864 V 46.237 c 0.001,-9.851 -8.005,-17.864 -17.846,-17.864 z m 10.715,67.715 c 0,5.916 -4.807,10.732 -10.715,10.732 H 17.847 c -5.908,0 -10.715,-4.816 -10.715,-10.732 V 46.237 c 0,-5.916 4.807,-10.732 10.715,-10.732 H 188.97 c 5.908,0 10.715,4.816 10.715,10.732 z"
   id="path2323" />
			<rect
   x="35.658001"
   y="88.991997"
   width="131.98599"
   height="7.132"
   id="rect2325" />
			<rect
   x="21.395"
   y="78.293999"
   width="164.02699"
   height="7.132"
   id="rect2327" />
			<path
   d="m 118.537,136.573 -15.959,15.959 -15.475,-15.475 c -1.393,-1.393 -3.649,-1.393 -5.042,0 -1.393,1.393 -1.393,3.649 0,5.042 l 15.475,15.475 -14.298,14.298 c -1.393,1.393 -1.393,3.649 0,5.042 0.696,0.696 1.609,1.045 2.521,1.045 0.912,0 1.825,-0.348 2.521,-1.045 l 14.298,-14.298 14.782,14.782 c 0.696,0.696 1.609,1.045 2.521,1.045 0.912,0 1.825,-0.348 2.521,-1.045 1.393,-1.393 1.393,-3.649 0,-5.042 l -14.782,-14.782 15.959,-15.959 c 1.393,-1.393 1.393,-3.649 0,-5.042 -1.393,-1.393 -3.649,-1.393 -5.042,0 z"
   id="path2329"
   style="fill:#a02c2c" />
		</g>
	</g>
</g>
<g
   id="g2337"
   transform="translate(2.4417472,-11.720387)">
</g>
<g
   id="g2339"
   transform="translate(2.4417472,-11.720387)">
</g>
<g
   id="g2341"
   transform="translate(2.4417472,-11.720387)">
</g>
<g
   id="g2343"
   transform="translate(2.4417472,-11.720387)">
</g>
<g
   id="g2345"
   transform="translate(2.4417472,-11.720387)">
</g>
<g
   id="g2347"
   transform="translate(2.4417472,-11.720387)">
</g>
<g
   id="g2349"
   transform="translate(2.4417472,-11.720387)">
</g>
<g
   id="g2351"
   transform="translate(2.4417472,-11.720387)">
</g>
<g
   id="g2353"
   transform="translate(2.4417472,-11.720387)">
</g>
<g
   id="g2355"
   transform="translate(2.4417472,-11.720387)">
</g>
<g
   id="g2357"
   transform="translate(2.4417472,-11.720387)">
</g>
<g
   id="g2359"
   transform="translate(2.4417472,-11.720387)">
</g>
<g
   id="g2361"
   transform="translate(2.4417472,-11.720387)">
</g>
<g
   id="g2363"
   transform="translate(2.4417472,-11.720387)">
</g>
<g
   id="g2365"
   transform="translate(2.4417472,-11.720387)">
</g>
<path
   fill="#00d40b"
   d="m 20.956536,6.9938489 c -0.533236,0 -0.967044,-0.4184909 -0.967044,-0.9328976 0,-0.5144067 0.433808,-0.9328984 0.967044,-0.9328984 0.533233,0 0.967043,0.4184917 0.967043,0.9328984 0,0.5144067 -0.43381,0.9328976 -0.967043,0.9328976 z m 0,-1.3327105 c -0.22854,0 -0.414448,0.1793428 -0.414448,0.3998129 0,0.2204712 0.185908,0.3998139 0.414448,0.3998139 0.228539,0 0.414447,-0.1793427 0.414447,-0.3998139 0,-0.2204701 -0.185908,-0.3998129 -0.414447,-0.3998129 z"
   id="path468"
   style="fill:#a02c2c;stroke-width:0.0678437" /></svg>
