<?xml version="1.0" encoding="UTF-8" standalone="no"?>
<!-- Generator: Adobe Illustrator 19.2.0, SVG Export Plug-In . SVG Version: 6.00 Build 0)  -->

<svg
   version="1.1"
   id="accold"
   x="0px"
   y="0px"
   viewBox="0 0 235.6146 213.1683"
   enable-background="new 0 0 235.6146 213.1683"
   xml:space="preserve"
   width="512"
   height="512"
   sodipodi:docname="air-conditioner-cool.svg"
   inkscape:version="1.2 (dc2aedaf03, 2022-05-15)"
   xmlns:inkscape="http://www.inkscape.org/namespaces/inkscape"
   xmlns:sodipodi="http://sodipodi.sourceforge.net/DTD/sodipodi-0.dtd"
   xmlns="http://www.w3.org/2000/svg"
   xmlns:svg="http://www.w3.org/2000/svg"><defs
   id="defs31" /><sodipodi:namedview
   id="namedview29"
   pagecolor="#ffffff"
   bordercolor="#000000"
   borderopacity="0.25"
   inkscape:showpageshadow="2"
   inkscape:pageopacity="0.0"
   inkscape:pagecheckerboard="0"
   inkscape:deskcolor="#d1d1d1"
   showgrid="false"
   inkscape:zoom="1.6542969"
   inkscape:cx="255.69776"
   inkscape:cy="256.90673"
   inkscape:window-width="1920"
   inkscape:window-height="1027"
   inkscape:window-x="-8"
   inkscape:window-y="-8"
   inkscape:window-maximized="1"
   inkscape:current-layer="accold" />
<g
   id="g18">
	<circle
   fill="#FFFFFF"
   cx="75.6146"
   cy="185.1683"
   r="4"
   id="circle2" />
	<circle
   fill="#FFFFFF"
   cx="159.6146"
   cy="185.1683"
   r="4"
   id="circle4" />
	<path
   fill="#5CB0FF"
   d="M215.5951,53.1683H23.6341c-6.627,0-12.0195,5.4023-12.0195,12.0391v55.9219   c0,6.6367,5.3926,12.0391,12.0195,12.0391h191.9609c6.627,0,12.0195-5.4023,12.0195-12.0391V65.2074   C227.6146,58.5707,222.222,53.1683,215.5951,53.1683z M191.6712,121.1683H43.6146v-8h148.0566V121.1683z M211.6146,109.1683h-184   v-8h184V109.1683z"
   id="path6" />
	<path
   fill="#1C71DA"
   d="M215.5951,45.1683H23.6341c-11.0391,0-20.0195,8.9883-20.0195,20.0391v55.9219   c0,11.0508,8.9805,20.0391,20.0195,20.0391h191.9609c11.0391,0,20.0195-8.9883,20.0195-20.0391V65.2074   C235.6146,54.1566,226.6341,45.1683,215.5951,45.1683z M227.6146,121.1293c0,6.6367-5.3926,12.0391-12.0195,12.0391H23.6341   c-6.627,0-12.0195-5.4023-12.0195-12.0391V65.2074c0-6.6367,5.3926-12.0391,12.0195-12.0391h191.9609   c6.627,0,12.0195,5.4023,12.0195,12.0391V121.1293z"
   id="path8" />
	<path
   fill="#1C71DA"
   d="M186.4427,174.3402c-1.5625-1.5625-4.0938-1.5625-5.6562,0l-6.8281,6.8281h-3.0808   c-1.2083-3.3887-3.8743-6.0547-7.2629-7.2629v-3.0808l6.8281-6.8281c1.5625-1.5625,1.5625-4.0938,0-5.6562s-4.0938-1.5625-5.6562,0   l-5.1719,5.1719l-5.1719-5.1719c-1.5625-1.5625-4.0938-1.5625-5.6562,0s-1.5625,4.0938,0,5.6562l6.8281,6.8281v3.0808   c-3.3887,1.2083-6.0547,3.8743-7.2629,7.2629h-3.0808l-6.8281-6.8281c-1.5625-1.5625-4.0938-1.5625-5.6562,0   s-1.5625,4.0938,0,5.6562l5.1719,5.1719l-5.1719,5.1719c-1.5625,1.5625-1.5625,4.0938,0,5.6562   c0.7812,0.7812,1.8047,1.1719,2.8281,1.1719s2.0469-0.3906,2.8281-1.1719l6.8281-6.8281h3.0811   c1.2083,3.3887,3.874,6.0544,7.2627,7.2627v3.0811l-6.8281,6.8281c-1.5625,1.5625-1.5625,4.0938,0,5.6562s4.0938,1.5625,5.6562,0   l5.1719-5.1719l5.1719,5.1719c0.7812,0.7812,1.8047,1.1719,2.8281,1.1719s2.0469-0.3906,2.8281-1.1719   c1.5625-1.5625,1.5625-4.0938,0-5.6562l-6.8281-6.8281v-3.0808c3.3887-1.2083,6.0547-3.8743,7.2629-7.2629h3.0808l6.8281,6.8281   c0.7812,0.7812,1.8047,1.1719,2.8281,1.1719s2.0469-0.3906,2.8281-1.1719c1.5625-1.5625,1.5625-4.0938,0-5.6562l-5.1719-5.1719   l5.1719-5.1719C188.0052,178.434,188.0052,175.9027,186.4427,174.3402z M159.6146,189.1683c-2.2051,0-4-1.793-4-4s1.7949-4,4-4   s4,1.793,4,4S161.8197,189.1683,159.6146,189.1683z"
   id="path10" />
	<path
   fill="#1C71DA"
   d="M102.4427,174.3402c-1.5625-1.5625-4.0938-1.5625-5.6562,0l-6.8281,6.8281h-3.0808   c-1.2083-3.3887-3.8743-6.0547-7.2629-7.2629v-3.0808l6.8281-6.8281c1.5625-1.5625,1.5625-4.0938,0-5.6562s-4.0938-1.5625-5.6562,0   l-5.1719,5.1719l-5.1719-5.1719c-1.5625-1.5625-4.0938-1.5625-5.6562,0s-1.5625,4.0938,0,5.6562l6.8281,6.8281v3.0808   c-3.3887,1.2083-6.0547,3.8743-7.2629,7.2629h-3.0808l-6.8281-6.8281c-1.5625-1.5625-4.0938-1.5625-5.6562,0   s-1.5625,4.0938,0,5.6562l5.1719,5.1719l-5.1719,5.1719c-1.5625,1.5625-1.5625,4.0938,0,5.6562   c0.7812,0.7812,1.8047,1.1719,2.8281,1.1719s2.0469-0.3906,2.8281-1.1719l6.8281-6.8281h3.0811   c1.2083,3.3887,3.874,6.0544,7.2627,7.2627v3.0811l-6.8281,6.8281c-1.5625,1.5625-1.5625,4.0938,0,5.6562s4.0938,1.5625,5.6562,0   l5.1719-5.1719l5.1719,5.1719c0.7812,0.7812,1.8047,1.1719,2.8281,1.1719s2.0469-0.3906,2.8281-1.1719   c1.5625-1.5625,1.5625-4.0938,0-5.6562l-6.8281-6.8281v-3.0808c3.3887-1.2083,6.0547-3.8743,7.2629-7.2629h3.0808l6.8281,6.8281   c0.7812,0.7812,1.8047,1.1719,2.8281,1.1719s2.0469-0.3906,2.8281-1.1719c1.5625-1.5625,1.5625-4.0938,0-5.6562l-5.1719-5.1719   l5.1719-5.1719C104.0052,178.434,104.0052,175.9027,102.4427,174.3402z M75.6146,189.1683c-2.2051,0-4-1.793-4-4s1.7949-4,4-4   s4,1.793,4,4S77.8197,189.1683,75.6146,189.1683z"
   id="path12" />
	<rect
   x="43.6146"
   y="113.1683"
   fill="#1C71DA"
   width="148.0566"
   height="8"
   id="rect14" />
	<rect
   x="27.6146"
   y="101.1683"
   fill="#1C71DA"
   width="184"
   height="8"
   id="rect16" />
</g>



<path
   fill="#ffc504"
   d="m 205.11589,90.157445 v 0 c -1.061,0 -2.0786,-0.4219 -2.8286,-1.1719 l -11.3135,-11.3144 c -1.562,-1.5615 -1.562,-4.0947 0,-5.6562 l 11.3135,-11.3135 c 1.5625,-1.5625 4.0952,-1.5625 5.6567,0 l 11.314,11.3135 c 0.7505,0.75 1.1719,1.7676 1.1719,2.8281 0,1.0605 -0.4214,2.0781 -1.1714,2.8281 l -11.314,11.3145 c -0.75,0.75 -1.7676,1.1718 -2.8286,1.1718 z m -5.6568,-15.3144 5.6567,5.6572 5.6572,-5.6572 -5.6572,-5.6562 z"
   id="path26" />
<path
   style="fill:#000000;stroke-width:0.604486"
   d="m 44.588965,330.33493 c -13.917546,-2.35774 -26.337154,-11.80849 -32.283931,-24.56657 -4.2793433,-9.18081 -4.0495757,-5.1869 -4.2888485,-74.55054 -0.128236,-37.1748 0.019066,-64.90696 0.3629923,-68.3398 1.1259674,-11.23864 5.1074712,-19.6425 13.0225272,-27.487 5.670667,-5.62012 12.062928,-9.29226 19.475628,-11.18811 4.584768,-1.17259 7.775576,-1.18992 219.051827,-1.18992 211.27625,0 214.46706,0.0173 219.05183,1.18992 7.63125,1.95174 13.7996,5.53921 19.74249,11.48211 5.85153,5.85153 9.2444,11.62218 11.58396,19.7022 l 1.39032,4.80168 v 66.49351 c 0,74.64444 0.26449,69.97807 -4.52268,79.79221 -5.39925,11.06897 -15.16155,19.16733 -27.90973,23.15267 -2.99278,0.9356 -19.11088,1.01723 -217.52273,1.10159 -117.85974,0.0501 -215.578884,-0.12717 -217.153655,-0.39395 z M 474.45253,313.39001 c 9.88748,-2.27947 18.12839,-10.9478 20.01417,-21.05221 0.87209,-4.67279 0.82273,-126.22606 -0.0532,-130.98003 -1.52655,-8.28529 -6.68187,-15.0674 -14.32441,-18.84455 l -4.59783,-2.27237 H 259.92916 44.367051 l -4.597835,2.27237 c -7.642534,3.77715 -12.797854,10.55926 -14.324407,18.84455 -0.884125,4.79855 -0.924826,126.33211 -0.04386,130.97741 0.932718,4.9182 3.79227,10.44571 7.131246,13.78469 3.09598,3.09598 8.742242,6.33302 12.655676,7.25559 3.292183,0.7761 425.899169,0.79043 429.264659,0.0146 z"
   id="path346"
   transform="matrix(0.46018477,0,0,0.46018477,0,-11.22315)" /><path
   style="fill:#000000;stroke-width:0.604486"
   d="m 60.448642,252.97757 v -8.46281 H 259.92916 459.40968 v 8.46281 8.46281 H 259.92916 60.448642 Z"
   id="path348"
   transform="matrix(0.46018477,0,0,0.46018477,0,-11.22315)" /><path
   style="fill:#000000;stroke-width:0.604486"
   d="m 94.904368,278.97048 v -8.46281 H 255.69776 416.49115 v 8.46281 8.46281 H 255.69776 94.904368 Z"
   id="path350"
   transform="matrix(0.46018477,0,0,0.46018477,0,-11.22315)" /><path
   style="fill:#f9f9f9;stroke-width:0.604486"
   d="m 44.127509,312.28832 c -6.536386,-2.10928 -10.893881,-5.43392 -14.563455,-11.11147 -4.304051,-6.6592 -4.175624,-4.36361 -4.175624,-74.63789 0,-68.08142 -0.09737,-65.94408 3.310711,-72.66961 2.125517,-4.19451 6.833356,-8.65642 11.619706,-11.01274 l 4.085483,-2.01127 h 215.52483 215.52483 l 4.08549,2.01127 c 7.14829,3.5191 11.95892,9.50262 14.02872,17.44914 1.39008,5.33689 1.34722,127.04578 -0.0469,133.17527 -1.57647,6.93121 -6.87924,13.81945 -13.07847,16.98877 -6.08549,3.11117 6.57922,2.94389 -220.8159,2.91674 -201.511303,-0.0241 -212.341827,-0.0793 -215.499411,-1.09821 z M 416.49115,278.97048 v -9.06729 H 255.39551 94.299882 v 9.06729 9.0673 H 255.39551 416.49115 Z m 43.52302,-25.99291 v -9.0673 H 259.92916 59.844156 v 9.0673 9.06729 H 259.92916 460.01417 Z m -8.70463,-34.38158 c 1.29663,-0.95662 7.83606,-7.28106 14.53205,-14.05431 18.15102,-18.36045 18.20973,-16.58829 -1.19232,-35.99427 -20.01492,-20.019 -17.59726,-20.00167 -37.39062,-0.268 -19.91109,19.85103 -19.8419,17.72737 -1.1913,36.56159 7.20062,7.27152 13.90809,13.73143 14.9055,14.35536 2.88421,1.80424 7.43573,1.53988 10.33669,-0.60037 z"
   id="path477"
   transform="matrix(0.46018477,0,0,0.46018477,0,-11.22315)" /><path
   style="fill:#f9f9f9;stroke-width:0.604486"
   d="m 439.46163,192.83117 -5.71874,-5.74262 5.71874,-5.74262 c 3.14531,-3.15844 5.94323,-5.74262 6.21761,-5.74262 0.67235,0 11.3125,10.61117 11.3125,11.28169 0,0.54722 -10.96976,11.68879 -11.50854,11.68879 -0.16656,0 -2.87626,-2.58418 -6.02157,-5.74262 z"
   id="path479"
   transform="matrix(0.46018477,0,0,0.46018477,0,-11.22315)" /><path
   style="fill:#4d4d4d;stroke-width:0.604486"
   d="M 43.825266,329.95145 C 33.541866,327.5611 24.628008,322.17015 18.35956,314.55023 14.888472,310.33078 10.617877,301.98847 9.583765,297.40732 8.9218406,294.47497 8.7650531,280.9308 8.7650531,226.68241 c 0,-62.99541 0.067143,-67.33824 1.0981258,-71.02716 3.9103191,-13.99136 14.6580971,-25.53433 28.2194661,-30.30732 l 3.929161,-1.38289 54.101535,-0.40565 c 69.232479,-0.5191 257.490189,-0.52359 327.631639,-0.008 l 54.10154,0.39783 4.43366,1.60471 c 6.49252,2.34989 10.56825,5.01707 16.0627,10.51152 5.83181,5.83181 8.29527,9.77014 11.03571,17.64279 l 2.04541,5.87601 -0.21157,67.70247 c -0.23277,74.48713 -0.0221,70.39127 -4.02767,78.281 -5.47926,10.79229 -13.71445,18.3117 -24.88694,22.72383 l -4.4513,1.75787 -216.40614,0.0914 C 142.417,330.19132 44.490201,330.10603 43.825266,329.95145 Z M 479.4663,311.81554 c 7.07328,-3.35101 12.16805,-9.20573 14.4828,-16.64302 1.11962,-3.59736 1.16517,-6.24027 1.16464,-67.58112 -3.9e-4,-46.04262 -0.19557,-64.75549 -0.70016,-67.13114 -1.65508,-7.79219 -6.76071,-14.32271 -14.2915,-18.28003 l -4.26582,-2.24162 H 259.92916 44.002058 l -4.155838,2.18383 c -7.563233,3.97436 -13.030812,10.96283 -14.506633,18.54186 -0.390955,2.00775 -0.618091,26.29667 -0.625841,66.92484 -0.01175,61.58452 0.02833,63.90224 1.167865,67.52972 0.649018,2.06601 1.868733,4.93157 2.710478,6.3679 3.25941,5.56176 10.764297,10.92525 16.703054,11.9371 1.51884,0.25879 98.920207,0.43319 216.447477,0.38756 l 213.68595,-0.083 z"
   id="path1004"
   transform="matrix(0.46018477,0,0,0.46018477,0,-11.22315)" /><path
   style="fill:#4d4d4d;stroke-width:0.604486"
   d="m 60.448642,252.97757 v -8.46281 H 259.92916 459.40968 v 8.46281 8.46281 H 259.92916 60.448642 Z"
   id="path1006"
   transform="matrix(0.46018477,0,0,0.46018477,0,-11.22315)" /><path
   style="fill:#4d4d4d;stroke-width:0.604486"
   d="m 94.904368,278.97048 v -8.46281 H 255.69776 416.49115 v 8.46281 8.46281 H 255.69776 94.904368 Z"
   id="path1008"
   transform="matrix(0.46018477,0,0,0.46018477,0,-11.22315)" /></svg>
