<?xml version="1.0" encoding="UTF-8" standalone="no"?>
<!-- Generator: Adobe Illustrator 19.2.0, SVG Export Plug-In . SVG Version: 6.00 Build 0)  -->

<svg
   version="1.1"
   id="acnotcancel"
   x="0px"
   y="0px"
   viewBox="0 0 232 168.3438"
   enable-background="new 0 0 232 168.3438"
   xml:space="preserve"
   width="512"
   height="512"
   sodipodi:docname="air-conditioner-off.svg"
   inkscape:version="1.2 (dc2aedaf03, 2022-05-15)"
   xmlns:inkscape="http://www.inkscape.org/namespaces/inkscape"
   xmlns:sodipodi="http://sodipodi.sourceforge.net/DTD/sodipodi-0.dtd"
   xmlns="http://www.w3.org/2000/svg"
   xmlns:svg="http://www.w3.org/2000/svg"><defs
   id="defs632" /><sodipodi:namedview
   id="namedview630"
   pagecolor="#ffffff"
   bordercolor="#000000"
   borderopacity="0.25"
   inkscape:showpageshadow="2"
   inkscape:pageopacity="0.0"
   inkscape:pagecheckerboard="0"
   inkscape:deskcolor="#d1d1d1"
   showgrid="false"
   inkscape:zoom="1.6542969"
   inkscape:cx="255.69776"
   inkscape:cy="256.90673"
   inkscape:window-width="1920"
   inkscape:window-height="1027"
   inkscape:window-x="-8"
   inkscape:window-y="-8"
   inkscape:window-maximized="1"
   inkscape:current-layer="acnotcancel" />
<g
   id="g619">
	<path
   fill="#5CB0FF"
   d="M211.9805,8H20.0195C13.3926,8,8,13.4023,8,20.0391v55.9219C8,82.5977,13.3926,88,20.0195,88h191.9609   C218.6074,88,224,82.5977,224,75.9609V20.0391C224,13.4023,218.6074,8,211.9805,8z M188.0566,76H40v-8h148.0566V76z M208,64H24v-8   h184V64z"
   id="path609" />
	<path
   fill="#1C71DA"
   d="M211.9805,0H20.0195C8.9805,0,0,8.9883,0,20.0391v55.9219C0,87.0117,8.9805,96,20.0195,96h191.9609   C223.0195,96,232,87.0117,232,75.9609V20.0391C232,8.9883,223.0195,0,211.9805,0z M224,75.9609   C224,82.5977,218.6074,88,211.9805,88H20.0195C13.3926,88,8,82.5977,8,75.9609V20.0391C8,13.4023,13.3926,8,20.0195,8h191.9609   C218.6074,8,224,13.4023,224,20.0391V75.9609z"
   id="path611" />
	<rect
   x="40"
   y="68"
   fill="#1C71DA"
   width="148.0566"
   height="8"
   id="rect613" />
	<rect
   x="24"
   y="56"
   fill="#1C71DA"
   width="184"
   height="8"
   id="rect615" />
	<path
   fill="#1C71DA"
   d="M132.9707,121.375l-17.9023,17.9023L97.709,121.918c-1.5625-1.5625-4.0938-1.5625-5.6562,0   s-1.5625,4.0938,0,5.6562l17.3594,17.3594L93.373,160.9727c-1.5625,1.5625-1.5625,4.0938,0,5.6562   c0.7812,0.7812,1.8047,1.1719,2.8281,1.1719s2.0469-0.3906,2.8281-1.1719l16.0391-16.0391l16.582,16.582   c0.7812,0.7812,1.8047,1.1719,2.8281,1.1719s2.0469-0.3906,2.8281-1.1719c1.5625-1.5625,1.5625-4.0938,0-5.6562l-16.582-16.582   l17.9023-17.9023c1.5625-1.5625,1.5625-4.0938,0-5.6562S134.5332,119.8125,132.9707,121.375z"
   id="path617" />
</g>
<path
   fill="#ff5d5d"
   d="m 196.21067,36.328748 c -1.0239,0 -2.0474,-0.3906 -2.8286,-1.1719 -1.562,-1.5615 -1.562,-4.0947 0,-5.6562 l 14.1421,-14.1416 c 1.563,-1.5615 4.0952,-1.5615 5.6572,0 1.562,1.5615 1.562,4.0947 0,5.6562 l -14.1421,14.1416 c -0.7812,0.7812 -1.8052,1.1719 -2.8286,1.1719 z"
   id="path621" />
<path
   fill="#ff5d5d"
   d="m 210.07886,36.329648 c -1.0239,0 -2.0474,-0.3906 -2.8286,-1.1719 l -14.1421,-14.1426 c -1.562,-1.5615 -1.562,-4.0947 0,-5.6562 1.563,-1.5615 4.0952,-1.5615 5.6572,0 l 14.1421,14.1426 c 1.562,1.5615 1.562,4.0947 0,5.6562 -0.7813,0.7813 -1.8052,1.1719 -2.8286,1.1719 z"
   id="path623" />


<path
   style="fill:#f9f9f9;stroke-width:0.604486"
   d="m 40.67679,263.8248 c -9.862435,-1.29346 -18.488306,-8.59197 -21.366534,-18.07864 -1.16902,-3.8531 -1.194845,-5.62388 -1.03616,-71.04958 l 0.16274,-67.098 2.059643,-4.21477 c 3.905422,-7.991888 11.516711,-13.611276 20.121356,-14.855519 5.082418,-0.734924 425.681905,-0.734924 430.764325,0 8.60465,1.244243 16.21594,6.863631 20.12136,14.855519 l 2.05964,4.21477 0.16406,67.098 c 0.16078,65.76328 0.13983,67.1777 -1.05309,71.1053 -2.35767,7.76242 -9.0842,14.53127 -17.20078,17.309 -2.8877,0.98825 -15.59127,1.05426 -217.0554,1.1279 -117.69351,0.043 -215.677031,-0.14327 -217.74116,-0.41398 z m 374.60538,-34.72445 v -9.36954 H 251.7686 88.255018 v 9.36954 9.36954 H 251.7686 415.28217 Z m 44.12751,-26.29516 V 193.7379 H 256 52.590319 v 9.06729 9.0673 H 256 459.40968 Z m -23.16096,-52.62164 c 0.93594,-0.3497 4.01995,-2.93459 6.85338,-5.74421 l 5.15169,-5.10839 4.52009,4.60182 c 4.51975,4.60148 8.05922,6.84834 10.82748,6.87332 2.74567,0.0248 6.64737,-2.37109 7.91827,-4.86225 2.51708,-4.9339 1.35623,-8.11247 -5.38518,-14.74535 l -4.88967,-4.81095 5.67831,-5.77956 c 6.06816,-6.17637 6.95771,-7.97905 6.12575,-12.41382 -0.51962,-2.76977 -3.90888,-6.15904 -6.67865,-6.67865 -4.43192,-0.83143 -6.23867,0.0588 -12.39489,6.10714 l -5.76063,5.65971 -5.74168,-5.65841 c -4.57401,-4.50768 -6.21349,-5.74692 -8.06174,-6.09365 -4.75233,-0.89154 -9.39621,1.89307 -10.76257,6.45357 -1.20944,4.03675 0.0525,6.67086 6.19867,12.93914 l 5.35965,5.4661 -4.82799,4.79968 c -7.05508,7.01369 -8.26131,11.44514 -4.37312,16.06598 2.68489,3.19081 6.56907,4.30143 10.24283,2.92878 z"
   id="path634"
   transform="matrix(0.453125,0,0,0.453125,0,-31.8281)" /><path
   style="fill:#000000;stroke-width:0.604486"
   d="M 38.370714,281.39902 C 23.734063,279.23159 11.238211,270.11016 4.8176511,256.90673 0.03436463,247.07024 0.30224321,251.85774 0.30224321,176.20779 c 0,-61.93853 0.0847894,-67.72989 1.04634499,-71.46841 C 5.4886164,88.642986 17.319122,76.535956 33.548996,71.786321 36.973533,70.784138 49.268238,70.716112 253.8843,70.567207 c 244.38312,-0.177845 222.14931,-0.622976 233.02951,4.665349 11.9601,5.813206 20.31459,16.198183 23.7376,29.506824 0.96156,3.73852 1.04635,9.52988 1.04635,71.46841 0,75.64995 0.26787,70.86245 -4.51541,80.69894 -5.49564,11.30141 -15.22847,19.47754 -27.83449,23.38259 l -4.52377,1.40135 -216.70839,0.079 C 138.92609,281.81314 40.040848,281.64634 38.370714,281.39902 Z M 479.43424,261.91311 c 5.63178,-2.78339 10.11024,-7.33622 12.79818,-13.01067 l 1.93523,-4.08544 v -68.60921 -68.60921 l -1.93523,-4.08543 C 488.89585,96.469388 483.13706,91.331597 475.73081,88.791007 472.49694,87.681679 466.49586,87.650531 256,87.650531 c -210.495866,0 -216.49694,0.03115 -219.730815,1.140476 -7.406245,2.54059 -13.16504,7.678381 -16.501602,14.722143 l -1.935234,4.08543 v 68.60921 68.60921 l 1.925278,4.06416 c 3.273997,6.91124 8.940226,11.98104 16.201422,14.49605 2.857957,0.98989 15.427471,1.04202 220.979061,0.91648 l 217.94874,-0.13312 z"
   id="path636"
   transform="matrix(0.453125,0,0,0.453125,0,-31.8281)" /><path
   style="fill:#000000;stroke-width:0.604486"
   d="m 53.194805,202.80519 v -8.46281 H 256 458.80519 v 8.46281 8.46281 H 256 53.194805 Z"
   id="path638"
   transform="matrix(0.453125,0,0,0.453125,0,-31.8281)" /><path
   style="fill:#000000;stroke-width:0.604486"
   d="M 88.859504,229.10035 V 220.3353 H 251.7686 414.67769 v 8.76505 8.76506 H 251.7686 88.859504 Z"
   id="path640"
   transform="matrix(0.453125,0,0,0.453125,0,-31.8281)" /><path
   style="fill:#4d4d4d;stroke-width:0.604486"
   d="m 293.7804,440.94098 c -0.83117,-0.34188 -10.14572,-9.24348 -20.699,-19.78136 l -19.18779,-19.15976 -18.89486,18.83774 c -20.94681,20.88348 -20.90399,20.85277 -25.92053,18.59063 -3.87144,-1.74579 -5.80283,-5.25979 -5.0772,-9.23757 0.34584,-1.89582 3.11258,-4.93114 19.23748,-21.10493 l 18.83355,-18.89067 -20.31904,-20.40095 c -22.39044,-22.48072 -22.16052,-22.16845 -20.10512,-27.30541 1.88789,-4.7183 7.04943,-6.68993 11.48023,-4.38526 1.33238,0.69303 10.84282,9.72452 21.7074,20.6142 l 19.33611,19.38078 20.86223,-20.80732 c 17.98451,-17.93718 21.16949,-20.86329 23.08967,-21.21299 5.99309,-1.09148 11.0987,4.16512 9.85019,10.14149 -0.32166,1.53969 -4.90693,6.47655 -21.20123,22.82691 l -20.79081,20.86232 18.47422,18.42929 c 10.32437,10.29928 19.01829,19.47538 19.70755,20.80059 2.00334,3.85168 0.78165,8.61854 -2.81236,10.97342 -1.8742,1.22803 -5.60671,1.63666 -7.57069,0.82885 z"
   id="path642"
   transform="matrix(0.453125,0,0,0.453125,0,-31.8281)" /><path
   style="fill:#4d4d4d;stroke-width:0.604486"
   d="M 34.058051,280.18762 C 21.145969,276.80283 11.135315,268.5152 4.8417273,256 0.73102774,247.82561 0.90672963,251.41541 0.90672963,175.60331 c 0,-77.002683 -0.35400592,-70.74287 4.54436207,-80.357008 C 10.854645,84.640622 19.784431,76.90389 31.433294,72.735422 l 3.929162,-1.406024 H 254.18654 c 174.34408,0 219.72509,0.156284 223.25668,0.768857 6.482,1.12434 14.69826,5.746053 20.66303,11.623115 7.59366,7.482 11.76914,15.987882 12.77454,26.023 0.36415,3.63476 0.501,30.94618 0.35472,70.79735 -0.2651,72.22683 0.0103,67.61314 -4.55792,76.36501 -5.97452,11.44614 -13.9069,18.26318 -26.31017,22.61081 l -5.33742,1.87089 -218.32256,-0.0333 C 45.178009,281.3229 38.250258,281.28657 34.058051,280.18762 Z M 479.43979,262.26207 c 5.33272,-2.80226 10.0271,-7.49664 12.82937,-12.82937 l 2.20073,-4.18801 v -69.0369 -69.0369 l -2.24709,-4.27623 C 489.07833,96.910717 484.75437,92.680748 478.94776,89.908166 L 474.2196,87.650531 H 255.96865 37.7177 l -4.80454,2.372058 C 27.031507,92.926428 22.875111,96.999327 19.7772,102.89466 l -2.247094,4.27623 v 69.0369 69.0369 l 2.258946,4.29878 c 4.066272,7.73814 11.318216,13.43425 18.238367,14.32552 1.858945,0.23942 100.994901,0.47097 220.302131,0.51456 l 216.92223,0.0793 z"
   id="path729"
   transform="matrix(0.453125,0,0,0.453125,0,-31.8281)" /><path
   style="fill:#4d4d4d;stroke-width:0.604486"
   d="m 53.194805,202.80519 v -8.46281 H 256 458.80519 v 8.46281 8.46281 H 256 53.194805 Z"
   id="path731"
   transform="matrix(0.453125,0,0,0.453125,0,-31.8281)" /><path
   style="fill:#4d4d4d;stroke-width:0.604486"
   d="M 88.859504,229.10035 V 220.3353 H 251.7686 414.67769 v 8.76505 8.76506 H 251.7686 88.859504 Z"
   id="path733"
   transform="matrix(0.453125,0,0,0.453125,0,-31.8281)" /></svg>
