<?xml version="1.0" encoding="UTF-8" standalone="no"?>
<!-- Generator: Adobe Illustrator 19.2.0, SVG Export Plug-In . SVG Version: 6.00 Build 0)  -->

<svg
   version="1.1"
   id="airconditioning"
   x="0px"
   y="0px"
   viewBox="0 0 232 203.3096"
   enable-background="new 0 0 232 203.3096"
   xml:space="preserve"
   width="512"
   height="512"
   sodipodi:docname="air-conditioner-fan.svg"
   inkscape:version="1.2 (dc2aedaf03, 2022-05-15)"
   xmlns:inkscape="http://www.inkscape.org/namespaces/inkscape"
   xmlns:sodipodi="http://sodipodi.sourceforge.net/DTD/sodipodi-0.dtd"
   xmlns="http://www.w3.org/2000/svg"
   xmlns:svg="http://www.w3.org/2000/svg"><defs
   id="defs475" /><sodipodi:namedview
   id="namedview473"
   pagecolor="#ffffff"
   bordercolor="#000000"
   borderopacity="0.25"
   inkscape:showpageshadow="2"
   inkscape:pageopacity="0.0"
   inkscape:pagecheckerboard="0"
   inkscape:deskcolor="#d1d1d1"
   showgrid="false"
   inkscape:zoom="1.6542969"
   inkscape:cx="255.69776"
   inkscape:cy="256.90673"
   inkscape:window-width="1920"
   inkscape:window-height="1027"
   inkscape:window-x="-8"
   inkscape:window-y="-8"
   inkscape:window-maximized="1"
   inkscape:current-layer="airconditioning" />
<g
   id="g462">
	<path
   fill="#5CB0FF"
   d="M211.9805,39.3096H20.0195C13.3926,39.3096,8,44.7119,8,51.3486v55.9219   c0,6.6367,5.3926,12.0391,12.0195,12.0391h191.9609c6.627,0,12.0195-5.4023,12.0195-12.0391V51.3486   C224,44.7119,218.6074,39.3096,211.9805,39.3096z M188.0566,107.3096H40v-8h148.0566V107.3096z M208,95.3096H24v-8h184V95.3096z"
   id="path450" />
	<path
   fill="#1C71DA"
   d="M211.9805,31.3096H20.0195C8.9805,31.3096,0,40.2979,0,51.3486v55.9219   c0,11.0508,8.9805,20.0391,20.0195,20.0391H104v56h8v-56h8v56h8v-56h83.9805c11.0391,0,20.0195-8.9883,20.0195-20.0391V51.3486   C232,40.2979,223.0195,31.3096,211.9805,31.3096z M224,107.2705c0,6.6367-5.3926,12.0391-12.0195,12.0391H20.0195   C13.3926,119.3096,8,113.9072,8,107.2705V51.3486c0-6.6367,5.3926-12.0391,12.0195-12.0391h191.9609   c6.627,0,12.0195,5.4023,12.0195,12.0391V107.2705z"
   id="path452" />
	<rect
   x="40"
   y="99.3096"
   fill="#1C71DA"
   width="148.0566"
   height="8"
   id="rect454" />
	<rect
   x="24"
   y="87.3096"
   fill="#1C71DA"
   width="184"
   height="8"
   id="rect456" />
	<path
   fill="#1C71DA"
   d="M172,179.3096c-2.209,0-4,1.7891-4,4c0,6.6172-5.3828,12-12,12s-12-5.3828-12-12v-44h-8v44   c0,11.0273,8.9727,20,20,20s20-8.9727,20-20C176,181.0986,174.209,179.3096,172,179.3096z"
   id="path458" />
	<path
   fill="#1C71DA"
   d="M88,183.3096c0,6.6172-5.3828,12-12,12s-12-5.3828-12-12c0-2.2109-1.791-4-4-4s-4,1.7891-4,4   c0,11.0273,8.9727,20,20,20s20-8.9727,20-20v-44h-8V183.3096z"
   id="path460" />
</g>


<path
   fill="#00d40b"
   d="m 204.74195,69.513101 c -7.7197,0 -14,-6.2803 -14,-14 0,-7.7197 6.2803,-14 14,-14 7.7197,0 14,6.2803 14,14 0,7.7197 -6.2803,14 -14,14 z m 0,-20 c -3.3086,0 -6,2.6914 -6,6 0,3.3086 2.6914,6 6,6 3.3086,0 6,-2.6914 6,-6 0,-3.3086 -2.6914,-6 -6,-6 z"
   id="path468" />

<path
   style="fill:#f9f9f9;stroke-width:0.604486"
   d="M 37.629687,293.75311 C 30.142524,291.737 24.231148,286.82802 20.70921,279.70186 l -2.272374,-4.59783 v -68.36967 -68.36967 l 2.247454,-4.54742 c 2.783395,-5.63181 7.336189,-10.11026 13.010674,-12.79821 l 4.085437,-1.93523 H 256.03135 474.2823 l 4.54741,2.24745 c 5.63182,2.78339 10.11027,7.33619 12.79822,13.01067 l 1.93523,4.08544 v 68.33832 68.33832 l -2.2522,4.55702 c -3.51113,7.10428 -9.62336,12.14954 -17.06724,14.08792 -3.22485,0.83974 -26.14879,0.93399 -218.52184,0.89838 C 72.515948,294.61344 40.334609,294.48148 37.629687,293.75311 Z M 415.28217,259.62692 v -9.0673 H 251.7686 88.255018 v 9.0673 9.06729 H 251.7686 415.28217 Z m 44.12751,-26.5974 v -9.0673 H 256 52.590319 v 9.0673 9.06729 H 256 459.40968 Z m -0.0563,-48.68521 c 13.55545,-3.19524 23.63125,-16.07193 23.63125,-30.20027 0,-14.2958 -10.73795,-27.55924 -24.66257,-30.46304 -10.53145,-2.1962 -20.48672,0.8467 -28.28577,8.64575 -12.42793,12.42794 -12.49297,31.4411 -0.14975,43.78432 7.79272,7.79272 18.56582,10.8028 29.46686,8.23324 z"
   id="path481"
   transform="matrix(0.453125,0,0,0.453125,0,-14.3452)" /><path
   style="fill:#f9f9f9;stroke-width:0.604486"
   d="m 446.03822,165.45143 c -8.98949,-4.69617 -9.4582,-16.85965 -0.85464,-22.17882 5.86701,-3.62729 13.42935,-1.95868 17.24745,3.80559 4.40196,6.64575 2.2114,14.92659 -4.8839,18.46233 -4.22265,2.10423 -7.35683,2.07997 -11.50891,-0.0891 z"
   id="path483"
   transform="matrix(0.453125,0,0,0.453125,0,-14.3452)" /><path
   style="fill:#000000;stroke-width:0.604486"
   d="m 229.70484,374.1771 v -61.95986 h -95.41216 c -93.317463,0 -95.517132,-0.0265 -100.193623,-1.20545 -8.363815,-2.10856 -14.252473,-5.4722 -20.545434,-11.73565 -4.5895881,-4.56806 -5.9870942,-6.43323 -8.2790504,-11.04958 -5.24708026,-10.56843 -4.97232939,-6.0321 -4.97232939,-82.09669 v -67.09799 l 1.39749159,-4.82783 c 4.6714705,-16.13824 16.3793862,-27.78707 31.9237612,-31.76266 4.585737,-1.17283 7.777858,-1.18979 222.322074,-1.18098 235.87786,0.01 220.52807,-0.2003 228.44888,3.12522 15.40619,6.46824 25.48265,20.51775 27.09001,37.77136 0.3335,3.57991 0.48966,32.4882 0.37387,69.21369 -0.19777,62.72367 -0.20602,63.09172 -1.52075,67.77312 -2.29429,8.16937 -5.69809,13.92149 -11.91328,20.13234 -4.445,4.44192 -6.48157,5.97844 -10.62073,8.01299 -2.81664,1.38447 -7.27282,3.05968 -9.90262,3.72266 -4.6765,1.17898 -6.87616,1.20545 -100.19363,1.20545 h -95.41216 v 61.95986 61.95985 h -8.46281 -8.46281 V 374.1771 312.21724 H 256 246.63046 v 61.95986 61.95985 h -8.46281 -8.46281 z m 247.37955,-80.58881 c 7.95156,-3.21129 13.91194,-9.43977 16.17676,-16.90442 1.21228,-3.99557 1.22938,-5.13342 1.06924,-71.15849 l -0.16274,-67.09799 -1.35579,-3.32467 c -2.73522,-6.70732 -8.56027,-12.53238 -15.26759,-15.26759 l -3.32467,-1.35579 H 256 37.780401 l -3.324675,1.35579 c -6.707318,2.73521 -12.532371,8.56027 -15.267588,15.26759 l -1.355789,3.32467 -0.16274,67.09799 c -0.159437,65.73645 -0.138068,67.17931 1.053086,71.10531 2.0067,6.614 6.861405,12.35355 13.164371,15.56377 6.314419,3.21606 -8.042757,3.03074 225.321904,2.90838 l 216.40614,-0.11347 z"
   id="path485"
   transform="matrix(0.453125,0,0,0.453125,0,-14.3452)" /><path
   style="fill:#000000;stroke-width:0.604486"
   d="m 229.70484,374.1771 v -61.95986 l -66.64463,-0.0635 C 126.40567,312.1188 82.67863,311.89093 65.88902,311.64734 32.486502,311.16273 32.930444,311.21025 25.137265,307.28545 15.253696,302.30789 6.5650562,292.51984 2.9828042,282.32768 0.93163308,276.49173 0.64031276,266.43143 0.62752467,200.99174 L 0.61529851,138.42739 2.6276461,132.59042 C 7.4307177,118.65872 17.562674,108.241 30.828808,103.59387 l 3.929161,-1.37639 68.004721,-0.48155 c 81.05196,-0.57394 359.81237,-0.0239 370.46824,0.731 6.76305,0.47912 7.91328,0.73791 12.08973,2.7201 13.90528,6.5996 23.05054,18.87156 25.44696,34.14709 0.52257,3.33098 0.65957,22.09255 0.51649,70.72491 l -0.19476,66.19127 -1.64491,4.83589 c -2.3898,7.02579 -5.53332,11.96294 -11.34763,17.82235 -5.31749,5.35873 -8.88013,7.64042 -16.72112,10.70901 l -4.13366,1.61771 -30.82881,0.42906 c -16.95584,0.23598 -60.81889,0.45692 -97.47343,0.49099 l -66.64463,0.0619 v 61.95986 61.95985 h -8.46281 -8.46281 V 374.1771 312.21724 H 256 246.63046 v 61.95986 61.95985 h -8.46281 -8.46281 z M 478.3395,293.27219 c 4.96718,-2.3097 9.72688,-6.34784 12.40937,-10.52813 3.85281,-6.0041 3.72102,-3.2642 3.72102,-77.35895 V 138.0986 l -1.78657,-3.94022 c -2.51896,-5.55542 -8.09141,-11.22213 -13.67765,-13.90901 l -4.30844,-2.07227 H 256 37.302774 l -4.294834,2.07225 c -5.690693,2.74576 -10.659822,7.71489 -13.405579,13.40558 l -2.072255,4.29483 v 67.36093 c 0,73.22435 -0.09236,71.09921 3.344812,76.9643 2.073461,3.53809 7.258469,8.3158 11.212838,10.33203 2.782131,1.41854 4.320334,1.73183 10.226294,2.0828 3.823376,0.22721 102.51605,0.45557 219.31707,0.50746 l 212.36547,0.0943 z"
   id="path487"
   transform="matrix(0.453125,0,0,0.453125,0,-14.3452)" /><path
   style="fill:#000000;stroke-width:0.604486"
   d="m 53.194805,233.02952 v -8.46281 H 256 458.80519 v 8.46281 8.46281 H 256 53.194805 Z"
   id="path489"
   transform="matrix(0.453125,0,0,0.453125,0,-14.3452)" /><path
   style="fill:#0000ff;stroke-width:0.604486"
   d="m 88.859504,259.62692 v -8.46281 H 251.7686 414.67769 v 8.46281 8.46281 H 251.7686 88.859504 Z"
   id="path491"
   transform="matrix(0.453125,0,0,0.453125,0,-14.3452)" /><path
   style="fill:#4d4d4d;stroke-width:0.604486"
   d="m 88.859504,259.62692 v -8.46281 H 251.7686 414.67769 v 8.46281 8.46281 H 251.7686 88.859504 Z"
   id="path564"
   transform="matrix(0.453125,0,0,0.453125,0,-14.3452)" /><path
   style="fill:#4d4d4d;stroke-width:0.604486"
   d="m 53.194805,233.02952 v -8.46281 H 256 458.80519 v 8.46281 8.46281 H 256 53.194805 Z"
   id="path980"
   transform="matrix(0.453125,0,0,0.453125,0,-14.3452)" /><path
   style="fill:#4d4d4d;stroke-width:0.604486"
   d="m 229.70484,374.1771 v -61.95986 l -66.64463,-0.0635 c -36.65454,-0.0349 -80.38158,-0.25102 -97.17119,-0.4802 l -30.526564,-0.41671 -4.591903,-1.60004 C 24.122934,307.34041 19.12896,304.18116 13.877744,298.97018 8.9573614,294.0875 4.9814011,288.01405 2.9828042,282.32768 0.93163308,276.49173 0.64031276,266.43143 0.62752467,200.99174 l -0.0122262,-62.56435 2.01234763,-5.83697 c 2.6218257,-7.60482 6.5638607,-13.8337 12.0572689,-19.0519 4.847339,-4.60449 8.9029,-7.16971 15.300035,-9.67756 l 4.168533,-1.63417 68.609207,-0.48823 c 81.32705,-0.57873 359.74072,-0.0312 370.46824,0.72852 6.76324,0.47899 7.91316,0.7377 12.08973,2.71995 13.90475,6.59935 23.04716,18.86694 25.44809,34.14709 0.52424,3.33648 0.66029,22.09215 0.51521,71.02716 l -0.19714,66.4935 -1.85661,4.93592 c -2.70981,7.20423 -5.36025,11.27674 -11.1334,17.10693 -5.31615,5.36867 -8.84678,7.63332 -16.72112,10.7254 l -4.13366,1.6232 -30.82881,0.42125 c -16.95584,0.23169 -60.81889,0.45017 -97.47343,0.48551 l -66.64463,0.0643 v 61.95986 61.95985 h -8.46281 -8.46281 V 374.1771 312.21724 H 256 246.63046 v 61.95986 61.95985 h -8.46281 -8.46281 z m 248.98498,-81.09649 c 5.35253,-2.57435 11.16641,-7.99865 13.26766,-12.3786 0.73936,-1.54117 1.60555,-4.39737 1.92486,-6.34711 0.34589,-2.11205 0.58197,-30.38753 0.58405,-69.95207 l 0.004,-66.40708 -1.91098,-4.01559 c -2.56852,-5.3973 -8.49478,-11.32356 -13.89209,-13.89209 l -4.01558,-1.91097 H 256 37.348759 l -4.015584,1.91097 c -5.397303,2.56853 -11.323564,8.49479 -13.89209,13.89209 l -1.910979,4.01559 0.0035,66.40708 c 0.0021,39.56454 0.238169,67.84002 0.584057,69.95207 0.832401,5.08282 2.748672,8.62596 6.949302,12.84913 5.66134,5.69171 8.693723,6.96179 17.851268,7.47678 4.15601,0.23372 102.870457,0.46677 219.365437,0.51788 l 211.80906,0.0929 z"
   id="path982"
   transform="matrix(0.453125,0,0,0.453125,0,-14.3452)" /></svg>
