<?xml version="1.0" encoding="iso-8859-1"?>
<!-- Uploaded to: SVG Repo, www.svgrepo.com, Generator: SVG Repo Mixer Tools -->
<svg version="1.1" id="Layer_1" xmlns="http://www.w3.org/2000/svg" xmlns:xlink="http://www.w3.org/1999/xlink" 
	 viewBox="0 0 512 512" xml:space="preserve">
<path style="fill:#FF877F;" d="M102.4,294.4C81.229,294.4,64,277.171,64,256c0-21.171,17.229-38.4,38.4-38.4s38.4,17.229,38.4,38.4
	C140.8,277.171,123.571,294.4,102.4,294.4z"/>
<path style="fill:#A7B0C0;" d="M12.8,345.6V166.4h486.4v179.2H12.8z M102.4,217.6C81.229,217.6,64,234.829,64,256
	c0,21.171,17.229,38.4,38.4,38.4s38.4-17.229,38.4-38.4C140.8,234.829,123.571,217.6,102.4,217.6z M204.8,217.6
	c-7.057,0-12.8,5.743-12.8,12.8V256c0,7.057,5.743,12.8,12.8,12.8h230.4c7.057,0,12.8-5.743,12.8-12.8v-25.6
	c0-7.057-5.743-12.8-12.8-12.8H204.8z"/>
<rect x="192" y="217.6" style="fill:#6D7584;" width="256" height="51.2"/>
<g>
	<path style="fill:#573A32;" d="M486.4,153.6H25.6C11.46,153.6,0,165.06,0,179.2v153.6c0,14.14,11.46,25.6,25.6,25.6h460.8
		c14.14,0,25.6-11.46,25.6-25.6V179.2C512,165.06,500.54,153.6,486.4,153.6z M486.4,332.8H25.6V179.2h460.8V332.8z"/>
	<path style="fill:#573A32;" d="M204.8,281.6h230.4c14.14,0,25.6-11.46,25.6-25.6v-25.6c0-14.14-11.46-25.6-25.6-25.6H204.8
		c-14.14,0-25.6,11.46-25.6,25.6V256C179.2,270.14,190.66,281.6,204.8,281.6z M204.8,230.4h230.4V256H204.8V230.4z"/>
	<path style="fill:#573A32;" d="M102.4,307.2c28.228,0,51.2-22.972,51.2-51.2c0-28.237-22.972-51.2-51.2-51.2S51.2,227.763,51.2,256
		C51.2,284.228,74.172,307.2,102.4,307.2z M102.4,230.4c14.14,0,25.6,11.46,25.6,25.6c0,14.14-11.46,25.6-25.6,25.6
		S76.8,270.14,76.8,256C76.8,241.86,88.26,230.4,102.4,230.4z"/>
	<path style="fill:#573A32;" d="M192,320h256c7.074,0,12.8-5.726,12.8-12.8s-5.726-12.8-12.8-12.8H192
		c-7.074,0-12.8,5.726-12.8,12.8S184.926,320,192,320z"/>
</g>
</svg>