<?xml version="1.0" encoding="UTF-8" standalone="no"?>
<!-- Uploaded to: SVG Repo, www.svgrepo.com, Generator: SVG Repo Mixer Tools -->

<svg
   version="1.1"
   id="temperaturecomparison"
   viewBox="0 0 133.91263 116.36364"
   enable-background="new 0 0 204 220"
   xml:space="preserve"
   width="336.09445"
   height="270.80994"
   sodipodi:docname="attic-temp.svg"
   inkscape:version="1.2 (dc2aedaf03, 2022-05-15)"
   xmlns:inkscape="http://www.inkscape.org/namespaces/inkscape"
   xmlns:sodipodi="http://sodipodi.sourceforge.net/DTD/sodipodi-0.dtd"
   xmlns="http://www.w3.org/2000/svg"
   xmlns:svg="http://www.w3.org/2000/svg"><defs
   id="defs12054" /><sodipodi:namedview
   id="namedview12052"
   pagecolor="#ffffff"
   bordercolor="#000000"
   borderopacity="0.25"
   inkscape:showpageshadow="2"
   inkscape:pageopacity="0.0"
   inkscape:pagecheckerboard="0"
   inkscape:deskcolor="#d1d1d1"
   showgrid="false"
   inkscape:zoom="1.6542969"
   inkscape:cx="153.84179"
   inkscape:cy="201.29398"
   inkscape:window-width="1920"
   inkscape:window-height="1027"
   inkscape:window-x="-8"
   inkscape:window-y="-8"
   inkscape:window-maximized="1"
   inkscape:current-layer="temperaturecomparison"
   showguides="false" />





<path
   style="fill:#000000;stroke-width:0.128863"
   d="m 63.541721,112.16911 c -4.741811,-0.47866 -9.714201,-2.52788 -13.418945,-5.53022 -3.785712,-3.06794 -6.69046,-7.36432 -8.015892,-11.856202 -0.639325,-2.166666 -0.868032,-3.630392 -0.943588,-6.038957 -0.155691,-4.96311 1.072882,-9.352426 3.818555,-13.642528 1.00466,-1.569779 2.179282,-2.939783 3.884051,-4.530099 1.997037,-1.862962 3.527632,-2.898299 6.139623,-4.153027 l 2.182754,-1.048533 0.0068,-26.269555 c 0.0076,-29.5353905 -0.06986,-27.280348 1.011352,-29.4319238 0.495799,-0.9866203 0.796628,-1.3902206 1.665835,-2.2349229 0.868433,-0.8439485 1.285424,-1.1376178 2.299758,-1.6196251 4.62954,-2.1999312 9.91562,-0.4344626 12.10337,4.0423374 0.97873,2.0027804 0.89087,-0.6377883 0.96476,28.9967884 l 0.0663,26.583152 1.30719,0.571719 c 10.66965,4.666551 16.61302,16.092948 14.09937,27.106518 -1.65709,7.260508 -6.49507,13.297238 -13.3232,16.624408 -4.11665,2.00595 -9.20603,2.89925 -13.848062,2.43067 z m 6.790263,-4.04492 c 2.86489,-0.56744 5.86947,-1.81987 8.17706,-3.40852 1.58529,-1.0914 3.86678,-3.30696 5.001,-4.856494 1.66774,-2.27842 2.92863,-5.154706 3.51797,-8.025035 0.42259,-2.058218 0.42341,-5.516122 0.001,-7.569033 -1.47985,-7.205646 -6.55451,-12.990023 -13.53015,-15.422415 -0.63425,-0.221162 -1.30314,-0.516752 -1.48643,-0.656863 -0.72565,-0.554704 -0.69374,0.255475 -0.69374,-17.611621 v -16.51845 h -5.09782 -5.098038 v 4.954311 4.954311 h 2.237104 c 2.036404,0 2.281294,0.02414 2.729694,0.269044 0.96512,0.527137 1.31932,1.717138 0.75215,2.526988 -0.63394,0.905189 -0.77677,0.947139 -3.375131,0.991237 l -2.343818,0.03978 v 4.946292 4.946294 h 2.226421 c 2.485878,0 2.904198,0.09306 3.388318,0.753779 0.63124,0.861494 0.4389,1.961125 -0.4596,2.627623 l -0.49352,0.366086 -2.330811,0.04206 -2.330809,0.04206 -0.0029,2.75269 c -0.0038,3.655219 -0.130262,3.929455 -2.088632,4.529697 -0.395424,0.121199 -1.367883,0.522557 -2.161019,0.8919 -5.137608,2.392484 -9.132186,6.827036 -10.81916,12.010818 -0.836895,2.571633 -0.941875,3.289465 -0.937118,6.40786 0.004,2.611831 0.02834,2.894177 0.372198,4.314087 0.662119,2.734149 1.553792,4.745219 3.100812,6.993518 3.306218,4.804956 8.872355,8.164206 14.82337,8.946146 1.488389,0.19556 5.413129,0.0605 6.920979,-0.23812 z m 0.95907,-86.740035 c -0.0369,-8.850195 -0.0373,-8.861421 -0.33054,-9.565358 -0.60652,-1.455792 -1.65075,-2.4165707 -3.17158,-2.91811 -1.13454,-0.374149 -2.64096,-0.3053756 -3.70781,0.1692747 -1.017579,0.452728 -1.958967,1.3517403 -2.468646,2.3575243 -0.418449,0.825751 -0.424265,0.862373 -0.469345,2.956401 l -0.04565,2.120291 2.343778,0.04223 2.343773,0.04223 0.49352,0.366089 c 0.88529,0.656702 1.09096,1.765969 0.48161,2.597592 -0.50259,0.68593 -0.92737,0.783811 -3.401597,0.783811 h -2.235148 v 4.954311 4.954312 h 5.102275 5.10227 z"
   id="path12611" /><path
   style="fill:#000000;stroke-width:0.162082"
   d="m 83.861094,21.637205 c -2.1909,-0.433016 -4.41001,-1.86942 -5.7143,-3.698805 -1.82266,-2.556439 -1.82266,-6.116578 0,-8.6730152 3.21206,-4.5052119 9.88006,-5.2052293 13.99704,-1.4694367 3.62305,3.2875309 3.62305,8.3243569 0,11.6118879 -2.23505,2.028128 -5.22674,2.833363 -8.28274,2.229369 z m 3.21584,-4.570715 c 0.83011,-0.209384 1.95077,-1.125224 2.34916,-1.919824 0.40841,-0.814565 0.40841,-2.274982 0,-3.089547 -0.3984,-0.794601 -1.51905,-1.71044 -2.34916,-1.919825 -3.06957,-0.7742611 -5.84582,1.498932 -5.17183,4.23468 0.52134,2.116091 2.78643,3.296204 5.17183,2.694516 z"
   id="path12613" /><path
   style="fill:#ff2a2a;stroke-width:0.128863"
   d="m 63.487377,108.24128 c -7.961175,-1.08354 -14.58729,-6.31201 -17.182764,-13.558393 -0.888142,-2.479638 -1.063538,-3.57433 -1.063538,-6.63784 0,-2.388884 0.03777,-2.895077 0.301303,-4.03849 0.451989,-1.961057 0.862014,-3.093775 1.780013,-4.917381 2.39568,-4.759002 6.409787,-8.241179 11.705884,-10.154668 1.344615,-0.485813 1.900445,-0.907272 2.095244,-1.588721 0.07104,-0.248511 0.129491,-1.633291 0.129892,-3.077293 l 6.54e-4,-2.625452 2.254901,-0.04226 c 2.570668,-0.04817 2.926288,-0.157391 3.469448,-1.065596 0.5563,-0.930181 0.24802,-2.028516 -0.7557,-2.692388 -0.40715,-0.269292 -0.56333,-0.285823 -2.700399,-0.285823 h -2.26825 v -4.827279 -4.827277 l 2.124184,-0.0028 c 2.412055,-0.0032 2.950735,-0.141827 3.509665,-0.903401 0.42019,-0.572542 0.44275,-1.702152 0.0443,-2.220728 -0.64139,-0.834853 -0.77301,-0.870949 -3.334382,-0.914418 l -2.343816,-0.03977 v -4.81926 -4.819257 h 4.967318 4.96732 v 16.52693 c 0,14.985311 0.0198,16.567464 0.2122,16.961485 0.27472,0.562618 0.64227,0.794725 2.07538,1.310587 6.99187,2.516788 11.95628,8.169783 13.42476,15.286823 0.39417,1.910329 0.42091,5.36547 0.0563,7.269853 -0.75223,3.928672 -2.69885,7.63049 -5.49781,10.454947 -3.06962,3.0976 -6.91512,5.16772 -11.16606,6.01097 -1.44634,0.28692 -5.42197,0.42528 -6.806142,0.23689 z"
   id="path12617" /><path
   style="fill:#ffffff;stroke-width:0.128863"
   d="m 61.185709,25.290439 v -4.954311 h 2.226419 c 2.434426,0 2.880166,-0.09211 3.369106,-0.696178 0.64185,-0.792966 0.48777,-1.904845 -0.36809,-2.656262 l -0.52231,-0.458569 -1.66629,-0.0011 c -0.916457,-5.87e-4 -1.982503,-0.038 -2.368985,-0.0831 l -0.7027,-0.082 0.05999,-2.044711 c 0.05647,-1.924701 0.08123,-2.085102 0.421868,-2.732894 0.496946,-0.945047 1.532672,-1.9718752 2.412497,-2.3917726 0.65909,-0.3145507 0.87232,-0.3499521 2.10785,-0.3499521 1.28913,0 1.42878,0.025907 2.24638,0.416743 0.98391,0.4703349 1.85989,1.3250077 2.33573,2.2789057 0.41293,0.827783 0.48906,2.578368 0.50289,11.563874 l 0.011,7.145642 h -5.03268 -5.032674 z"
   id="path20102" /></svg>
