<?xml version="1.0" encoding="UTF-8" standalone="no"?>
<!-- Uploaded to: SVG Repo, www.svgrepo.com, Generator: SVG Repo Mixer Tools -->

<svg
   version="1.1"
   id="temperaturecomparison"
   viewBox="0 0 30.3471 27.792222"
   enable-background="new 0 0 204 220"
   xml:space="preserve"
   width="76.165268"
   height="64.680077"
   sodipodi:docname="attic-both.svg"
   inkscape:version="1.2 (dc2aedaf03, 2022-05-15)"
   xmlns:inkscape="http://www.inkscape.org/namespaces/inkscape"
   xmlns:sodipodi="http://sodipodi.sourceforge.net/DTD/sodipodi-0.dtd"
   xmlns="http://www.w3.org/2000/svg"
   xmlns:svg="http://www.w3.org/2000/svg"><defs
   id="defs12054" /><sodipodi:namedview
   id="namedview12052"
   pagecolor="#ffffff"
   bordercolor="#000000"
   borderopacity="0.25"
   inkscape:showpageshadow="2"
   inkscape:pageopacity="0.0"
   inkscape:pagecheckerboard="0"
   inkscape:deskcolor="#d1d1d1"
   showgrid="false"
   inkscape:zoom="1.6542969"
   inkscape:cx="72.236126"
   inkscape:cy="76.467531"
   inkscape:window-width="1350"
   inkscape:window-height="1050"
   inkscape:window-x="261"
   inkscape:window-y="41"
   inkscape:window-maximized="0"
   inkscape:current-layer="temperaturecomparison"
   showguides="false" />
<g
   id="g12041"
   transform="matrix(0.09859724,0,0,0.09765626,3.7723417,2.0779219)">
	<path
   fill="#d0e8ff"
   d="M 62.7891,130.5391 C 61.1289,130.0117 60,128.4707 60,126.7266 V 60.0196 H 40 V 80 h 8 c 2.2109,0 4,1.791 4,4 0,2.209 -1.7891,4 -4,4 h -8 v 20 h 8 c 2.2109,0 4,1.791 4,4 0,2.209 -1.7891,4 -4,4 h -8 v 10.7266 c 0,1.7441 -1.1289,3.2852 -2.7891,3.8125 C 19.7383,136.082 8,152.0547 8,170.2852 8,193.2871 26.8398,212 50,212 73.1602,212 92,193.2871 92,170.2852 92,152.0547 80.2617,136.082 62.7891,130.5391 Z"
   id="path12029" />
	<path
   fill="#ffffff"
   d="m 48,24 c 2.2109,0 4,1.791 4,4 0,2.209 -1.7891,4 -4,4 H 40 V 52 H 60 V 18.0039 C 60,12.4883 55.5156,8 50,8 44.4844,8 40,12.4883 40,18.0039 V 24 Z"
   id="path12031" />
	<path
   fill="#5cb0ff"
   d="M 166.7891,130.5391 C 165.1289,130.0118 164,128.4707 164,126.7266 V 60.0196 H 144 V 80 h 8 c 2.2109,0 4,1.791 4,4 0,2.209 -1.7891,4 -4,4 h -8 v 20 h 8 c 2.2109,0 4,1.791 4,4 0,2.209 -1.7891,4 -4,4 h -8 v 10.7266 c 0,1.7441 -1.1289,3.2852 -2.7891,3.8125 C 123.7383,136.082 112,152.0547 112,170.2852 112,193.2871 130.8398,212 154,212 c 23.1602,0 42,-18.7129 42,-41.7148 0,-18.2305 -11.7383,-34.2032 -29.2109,-39.7461 z"
   id="path12033" />
	<path
   fill="#ffffff"
   d="m 152,24 c 2.2109,0 4,1.791 4,4 0,2.209 -1.7891,4 -4,4 h -8 v 20 h 20 V 18.0039 C 164,12.4883 159.5156,8 154,8 148.4844,8 144,12.4883 144,18.0039 V 24 Z"
   id="path12035" />
	<path
   fill="#1c71da"
   d="M 68,123.8887 V 60 56.0195 18.0039 C 68,8.0762 59.9258,0 50,0 40.0742,0 32,8.0762 32,18.0039 V 56.0195 60 123.8887 C 12.7422,131.2481 0,149.5391 0,170.2852 0,197.6973 22.4297,220 50,220 c 27.5703,0 50,-22.3027 50,-49.7148 0,-20.7461 -12.7422,-39.0372 -32,-46.3965 z M 50,8 c 5.5156,0 10,4.4883 10,10.0039 V 52 H 40 V 32 h 8 c 2.2109,0 4,-1.791 4,-4 0,-2.209 -1.7891,-4 -4,-4 H 40 V 18.0039 C 40,12.4883 44.4844,8 50,8 Z m 0,204 C 26.8398,212 8,193.2871 8,170.2852 8,152.0547 19.7383,136.0821 37.2109,130.5391 38.8711,130.0117 40,128.4707 40,126.7266 V 116 h 8 c 2.2109,0 4,-1.791 4,-4 0,-2.209 -1.7891,-4 -4,-4 H 40 V 88 h 8 c 2.2109,0 4,-1.791 4,-4 0,-2.209 -1.7891,-4 -4,-4 H 40 V 60.0195 h 20 v 66.707 c 0,1.7441 1.1289,3.2852 2.7891,3.8125 C 80.2617,136.082 92,152.0547 92,170.2852 92,193.2871 73.1602,212 50,212 Z"
   id="path12037" />
	<path
   fill="#1c71da"
   d="M 172,123.8887 V 60 56.0195 18.0039 C 172,8.0762 163.9258,0 154,0 144.0742,0 136,8.0762 136,18.0039 V 56.0195 60 123.8887 c -19.2578,7.3594 -32,25.6504 -32,46.3965 0,27.4121 22.4297,49.7148 50,49.7148 27.5703,0 50,-22.3027 50,-49.7148 0,-20.7461 -12.7422,-39.0372 -32,-46.3965 z M 154,8 c 5.5156,0 10,4.4883 10,10.0039 V 52 H 144 V 32 h 8 c 2.2109,0 4,-1.791 4,-4 0,-2.209 -1.7891,-4 -4,-4 h -8 V 18.0039 C 144,12.4883 148.4844,8 154,8 Z m 0,204 c -23.1602,0 -42,-18.7129 -42,-41.7148 0,-18.2305 11.7383,-34.2031 29.2109,-39.7461 1.6602,-0.5273 2.7891,-2.0684 2.7891,-3.8125 V 116 h 8 c 2.2109,0 4,-1.791 4,-4 0,-2.209 -1.7891,-4 -4,-4 h -8 V 88 h 8 c 2.2109,0 4,-1.791 4,-4 0,-2.209 -1.7891,-4 -4,-4 h -8 V 60.0195 h 20 v 66.707 c 0,1.7441 1.1289,3.2852 2.7891,3.8125 C 184.2617,136.082 196,152.0547 196,170.2852 196,193.2871 177.1602,212 154,212 Z"
   id="path12039" />
</g>




<path
   style="fill:#000000;stroke-width:0.025487"
   d="M 8.1823263,23.52179 C 7.2533392,23.426216 6.2791779,23.01704 5.5533666,22.417552 4.8116928,21.804964 4.2426118,20.94709 3.982941,20.05018 3.8576881,19.617554 3.8128812,19.325286 3.7980792,18.84436 3.7675742,17.853358 4.0082715,16.976927 4.5461875,16.120307 4.7430143,15.806863 4.9731391,15.53331 5.3071273,15.215766 5.6983749,14.843781 5.9982397,14.637052 6.5099657,14.386516 l 0.4276318,-0.209365 0.00135,-5.245337 c 0.0015,-5.8974376 -0.013685,-5.4471656 0.1981378,-5.8767786 0.097134,-0.197002 0.1560703,-0.27759 0.3263607,-0.446255 0.1701383,-0.168514 0.2518323,-0.227152 0.4505546,-0.3233965 0.9069922,-0.439268 1.9426087,-0.08675 2.3712184,0.8071485 0.191749,0.399902 0.174536,-0.12735 0.189012,5.7898936 l 0.01299,5.307954 0.256097,0.114157 c 2.090334,0.931787 3.254725,3.213337 2.762266,5.412456 -0.324649,1.449733 -1.272477,2.655109 -2.610203,3.319459 -0.806511,0.400534 -1.8035915,0.578902 -2.7130307,0.485338 z m 1.3303073,-0.807662 c 0.5612734,-0.113304 1.1499134,-0.36338 1.6020004,-0.680594 0.310582,-0.217922 0.757558,-0.660312 0.979768,-0.969714 0.326733,-0.45494 0.573759,-1.029258 0.689218,-1.602387 0.08279,-0.410972 0.08295,-1.101424 3.33e-4,-1.511336 -0.289916,-1.438778 -1.284112,-2.593765 -2.650739,-3.07945 C 10.008957,14.826487 9.8779108,14.767466 9.8420018,14.739489 9.699836,14.628729 9.7060889,14.790501 9.7060889,11.222913 V 7.9246145 H 8.7073149 7.7085378 v 0.989245 0.9892455 h 0.4382796 c 0.3989611,0 0.4469376,0.0048 0.534784,0.053721 0.1890813,0.105255 0.2584757,0.342867 0.1473593,0.504573 -0.1241978,0.180742 -0.1521823,0.189118 -0.6612369,0.197924 l -0.4591865,0.0079 v 0.987644 0.987644 h 0.4361871 c 0.4870185,0 0.5689735,0.01858 0.6638199,0.15051 0.1236674,0.172017 0.085985,0.391585 -0.090044,0.524667 l -0.096687,0.0731 -0.4566385,0.0084 -0.4566376,0.0084 -5.5e-4,0.54964 c -7.5e-4,0.72985 -0.02552,0.784608 -0.4091927,0.904461 -0.077469,0.0242 -0.2679877,0.104341 -0.4233742,0.178089 -1.0065296,0.477715 -1.7891234,1.363179 -2.1196251,2.398243 -0.1639593,0.513487 -0.1845263,0.656819 -0.1835943,1.27948 7.5e-4,0.521514 0.00556,0.577891 0.072918,0.86141 0.1297184,0.545937 0.3044102,0.947495 0.607493,1.396421 0.6477344,0.959422 1.738219,1.630176 2.904106,1.786308 0.2915972,0.03905 1.060508,0.01208 1.3559167,-0.04754 z M 9.700529,5.3944299 C 9.693304,3.6272794 9.693229,3.6250374 9.635772,3.4844804 9.5169461,3.1937964 9.3123663,3.0019544 9.0144151,2.9018104 8.7921428,2.8271024 8.497013,2.8408349 8.2880027,2.9356104 c -0.1993578,0.090398 -0.3837891,0.269907 -0.483642,0.470735 -0.08198,0.164881 -0.083119,0.1721935 -0.091951,0.590315 l -0.00894,0.4233665 0.4591791,0.00844 0.459179,0.00843 0.096687,0.073099 c 0.1734419,0.131126 0.2137344,0.3526175 0.094355,0.5186705 -0.098466,0.136962 -0.1816864,0.1565065 -0.6664219,0.1565065 H 7.7085463 V 6.1744175 7.163663 h 0.9996061 0.999607 z"
   id="path12611" /><path
   style="fill:#000000;stroke-width:0.0320577"
   d="m 12.163178,5.4449574 c -0.429229,-0.086462 -0.863984,-0.373274 -1.119513,-0.738554 -0.357083,-0.5104535 -0.357083,-1.221319 0,-1.7317725 0.629289,-0.899572 1.935643,-1.039347 2.742218,-0.2934075 0.709804,0.656433 0.709804,1.6621545 0,2.3185875 -0.437878,0.4049635 -1.023993,0.5657475 -1.622705,0.4451465 z m 0.630028,-0.9126515 c 0.16263,-0.04181 0.382182,-0.2246775 0.460233,-0.383338 0.08001,-0.1626475 0.08001,-0.454254 0,-0.6169015 -0.07805,-0.1586605 -0.297603,-0.34153 -0.460233,-0.383338 -0.601372,-0.1546 -1.14528,0.299297 -1.013235,0.8455535 0.102137,0.4225275 0.545902,0.658165 1.013235,0.538024 z"
   id="path12613" /><path
   style="fill:#ff2a2a;stroke-width:0.025487"
   d="M 8.1716798,22.737508 C 6.6119736,22.521152 5.3138248,21.477164 4.8053353,20.030252 4.6313354,19.535134 4.5969734,19.316553 4.5969734,18.704851 c 0,-0.476997 0.00739,-0.578071 0.059029,-0.80638 0.088551,-0.391571 0.1688808,-0.617745 0.3487297,-0.981871 0.4693471,-0.950248 1.2557673,-1.645546 2.293347,-2.02762 0.2634288,-0.097 0.3723237,-0.181158 0.4104877,-0.317225 0.013915,-0.04962 0.02537,-0.326125 0.025445,-0.614454 l 1.28e-4,-0.524234 0.4417671,-0.0084 c 0.5036296,-0.0096 0.573301,-0.03143 0.6797139,-0.212771 0.1089874,-0.185734 0.04859,-0.405043 -0.1480528,-0.5376 -0.079767,-0.05377 -0.110364,-0.05707 -0.5290457,-0.05707 H 7.7341397 v -0.96388 -0.96388 l 0.4161577,-5.5e-4 c 0.4725555,-6.5e-4 0.5780909,-0.02832 0.6875923,-0.180385 0.082322,-0.114321 0.086742,-0.339875 0.00868,-0.443421 C 8.7209123,9.898375 8.6951259,9.891168 8.1933183,9.882488 L 7.7341362,9.874543 V 8.9122645 7.949986 H 8.7073044 9.680472 v 3.299992 c 0,2.992171 0.0039,3.308085 0.04157,3.386761 0.053822,0.11234 0.1258304,0.158685 0.406597,0.261689 1.369806,0.502537 2.342404,1.63129 2.6301,3.052376 0.07722,0.381442 0.08246,1.071342 0.01103,1.451597 -0.147373,0.784452 -0.528744,1.523608 -1.077099,2.087578 -0.601382,0.618508 -1.354771,1.03186 -2.1875888,1.200236 -0.2833582,0.05729 -1.06224,0.08492 -1.3334183,0.0473 z"
   id="path12617" /><text
   xml:space="preserve"
   style="font-style:normal;font-variant:normal;font-weight:bold;font-stretch:normal;font-size:4.90466px;font-family:'Rockwell Extra Bold';-inkscape-font-specification:'Rockwell Extra Bold,  Bold';fill:#000000;stroke-width:0.065687"
   x="21.894173"
   y="5.6218634"
   id="text12673"
   transform="scale(0.9519843,1.0504375)"><tspan
     sodipodi:role="line"
     id="tspan12671"
     style="font-style:normal;font-variant:normal;font-weight:bold;font-stretch:normal;font-size:4.90466px;font-family:'Rockwell Extra Bold';-inkscape-font-specification:'Rockwell Extra Bold,  Bold';fill:#000000;stroke-width:0.065687"
     x="21.894173"
     y="5.6218634">%</tspan></text><path
   style="fill:#000000;stroke-width:0.025487"
   d="M 18.349364,23.510048 C 17.274932,23.379882 16.2569,22.886126 15.478925,22.11786 c -1.885632,-1.862089 -1.91891,-4.850803 -0.07525,-6.75818 0.408018,-0.42212 0.967333,-0.812551 1.511549,-1.055143 l 0.256098,-0.114157 0.01402,-5.307954 c 0.01124,-4.2516671 0.02068,-5.3331921 0.04748,-5.4347801 0.08606,-0.3262305 0.341226,-0.7400115 0.574514,-0.931656 0.56512,-0.464237 1.279261,-0.5492495 1.937193,-0.230606 0.199046,0.096402 0.280346,0.154815 0.451723,0.324557 0.172671,0.17102 0.229249,0.2485815 0.325539,0.4462555 0.211651,0.434494 0.196459,-0.019785 0.196459,5.8761006 v 5.24582 l 0.244967,0.111296 c 0.560379,0.254598 0.981165,0.53615 1.399661,0.936532 0.44102,0.421929 0.715227,0.785181 0.976701,1.293869 0.26141,0.508567 0.414238,1.000891 0.493234,1.588953 0.04994,0.371748 0.036,1.046669 -0.02908,1.407772 -0.1693,0.939401 -0.611004,1.810397 -1.261967,2.488487 -0.44483,0.463366 -0.840322,0.752312 -1.418865,1.036628 -0.865392,0.425282 -1.811104,0.584992 -2.773543,0.468394 z m 1.434139,-0.797554 c 1.077662,-0.226182 2.026775,-0.854894 2.622403,-1.73713 0.302896,-0.448648 0.477469,-0.84982 0.607675,-1.396421 0.06806,-0.285737 0.07226,-0.336555 0.07226,-0.874092 0,-0.536936 -0.0043,-0.588737 -0.07214,-0.875102 -0.250177,-1.055624 -0.842939,-1.918916 -1.718421,-2.5027 -0.247863,-0.16528 -0.708535,-0.394407 -0.935563,-0.465328 -0.208895,-0.06525 -0.307186,-0.13358 -0.360996,-0.250939 -0.04565,-0.09955 -0.04766,-0.241287 -0.0482,-3.395025 l -6e-4,-3.2911425 h -0.998744 -0.998776 v 0.989245 0.9892455 l 0.441769,4.2e-5 c 0.369469,2.5e-5 0.456349,0.00729 0.530889,0.04439 0.27864,0.138657 0.27477,0.540288 -0.0064,0.666716 -0.0928,0.04172 -0.169746,0.04878 -0.537273,0.04926 l -0.428963,5.5e-4 v 0.989246 0.989245 l 0.454571,8.4e-5 c 0.408413,8.4e-5 0.463045,0.0052 0.538035,0.0505 0.24682,0.149051 0.247652,0.500061 0.0016,0.646951 -0.07479,0.04463 -0.13961,0.05174 -0.539571,0.05912 l -0.454573,0.0084 -8.4e-5,0.575005 c -10e-5,0.740673 0.0032,0.733869 -0.435269,0.890731 -1.362047,0.487272 -2.353269,1.641378 -2.642503,3.076742 -0.08243,0.409046 -0.08243,1.10046 0,1.509507 0.360964,1.791302 1.781351,3.083746 3.641288,3.313292 0.0493,0.0061 0.297072,0.0071 0.550606,0.0022 0.344398,-0.0066 0.52574,-0.02246 0.717072,-0.06261 z m 0.160882,-17.3434296 -0.0072,-1.794592 -0.06867,-0.145081 c -0.216482,-0.457341 -0.749734,-0.6871165 -1.224392,-0.527581 -0.299063,0.1005175 -0.505676,0.294858 -0.61947,0.58267 -0.04629,0.117088 -0.05747,0.207468 -0.06656,0.538133 l -0.01092,0.397411 0.457211,0.00844 c 0.402563,0.00742 0.467365,0.014495 0.542209,0.059164 0.246116,0.1468885 0.245282,0.4979005 -0.0016,0.646951 -0.07499,0.045285 -0.129624,0.050414 -0.538037,0.050498 l -0.454573,9.65e-5 V 6.174415 7.16366 h 0.999598 0.999596 z"
   id="path13398" /><path
   style="fill:#4d4d4d;stroke-width:0.025487"
   d="M 7.9128231,22.67794 C 7.5094544,22.59162 7.2702042,22.507142 6.8628264,22.3072 5.7937984,21.782514 5.0321016,20.850804 4.7058084,19.668731 4.6442364,19.445672 4.6384654,19.379502 4.6281634,18.778517 l -0.01113,-0.649244 0.077652,-0.316205 c 0.1902373,-0.774652 0.5395555,-1.392114 1.103637,-1.950812 0.4452296,-0.44098 0.8649342,-0.708286 1.5125487,-0.963328 0.2823373,-0.111189 0.3841852,-0.202296 0.4116862,-0.368271 0.011415,-0.06887 0.021435,-0.339237 0.022275,-0.600816 8.5e-4,-0.261581 0.01017,-0.476286 0.020735,-0.477125 0.010565,-8.5e-4 0.2185943,-0.01046 0.4622906,-0.02139 0.5064945,-0.02271 0.5384475,-0.03458 0.6417874,-0.238699 0.088949,-0.175688 0.062649,-0.31531 -0.087385,-0.463913 L 8.6696559,12.617188 H 8.2080083 7.7463602 v -0.96388 -0.96388 h 0.4035212 c 0.2219368,0 0.4429136,-0.01119 0.4910585,-0.02487 C 8.9141762,10.586948 9.0099071,10.193981 8.8031678,9.998631 8.6942229,9.895689 8.6143549,9.877763 8.2632888,9.877461 8.0846179,9.877295 7.8952166,9.870106 7.8423966,9.861461 L 7.7463606,9.845736 V 8.897858 7.9499795 h 0.9603627 0.9603626 l 0.00165,3.1516335 c 8.5e-4,1.733399 0.010915,3.248199 0.022285,3.366221 0.019095,0.19823 0.02681,0.219661 0.1011649,0.281145 0.04427,0.0366 0.1927023,0.109863 0.3298482,0.162795 1.142926,0.44111 1.978546,1.250403 2.415187,2.339094 0.213603,0.532583 0.306857,1.190425 0.255884,1.805106 -0.131831,1.589773 -1.282866,3.005829 -2.8442734,3.499155 -0.4295936,0.135728 -0.6084419,0.161384 -1.2036544,0.172662 -0.5066965,0.0096 -0.5730735,0.0056 -0.8323142,-0.04985 z"
   id="path14306" /><path
   style="fill:#999999;stroke-width:0.025487"
   d="m 18.33596,22.724576 c -1.719686,-0.276126 -3.066355,-1.535954 -3.422165,-3.20148 -0.102282,-0.478773 -0.10213,-1.153352 4e-4,-1.63649 0.290978,-1.371584 1.244876,-2.473119 2.573981,-2.972364 0.338462,-0.127135 0.385856,-0.159071 0.453919,-0.305881 0.04087,-0.08815 0.04712,-0.17185 0.04761,-0.637963 l 6e-4,-0.536502 0.441769,-0.0088 c 0.407239,-0.0082 0.449131,-0.01338 0.535985,-0.06688 0.12645,-0.07788 0.211552,-0.251068 0.192498,-0.391752 -0.01634,-0.120698 -0.0778,-0.211922 -0.196822,-0.292154 -0.07977,-0.05377 -0.110364,-0.05707 -0.529045,-0.05707 h -0.444386 v -0.96388 -0.96388 h 0.417135 c 0.381653,0 0.426853,-0.0048 0.531401,-0.05707 0.225862,-0.112807 0.292212,-0.394182 0.139666,-0.592272 -0.111164,-0.1444 -0.184848,-0.162394 -0.664817,-0.162394 H 17.99029 V 8.913859 7.9499795 h 0.97317 0.973168 v 3.2999925 c 0,2.992171 0.0039,3.308085 0.04157,3.386761 0.05388,0.112457 0.126069,0.158853 0.406598,0.261318 0.496034,0.181179 0.959515,0.457138 1.332333,0.793282 0.635326,0.572825 1.023202,1.20821 1.249263,2.046438 0.07909,0.293276 0.07954,0.298533 0.08067,0.954397 0.001,0.612281 -0.0032,0.676748 -0.0598,0.900467 -0.190949,0.755058 -0.529849,1.374267 -1.038439,1.897337 -0.601348,0.618476 -1.327443,1.01766 -2.178659,1.197766 -0.339446,0.07182 -1.095342,0.09124 -1.434141,0.03684 z"
   id="path14308" /><path
   style="fill:#d40000;stroke-width:0.12987"
   d="M 7.2059832,22.385536 C 6.3998985,22.067067 5.4394578,21.177414 5.0512479,20.389611 4.699712,19.676232 4.6879017,17.748178 5.0308468,17.059119 c 0.3948571,-0.793363 1.0978848,-1.505776 1.8481935,-1.872868 0.821757,-0.402049 0.869952,-0.46008 0.9636129,-1.160276 0.065615,-0.490527 0.096277,-0.521706 0.550116,-0.559408 0.87779,-0.07292 0.7792163,-0.934099 -0.1069202,-0.934099 H 7.8472059 v -0.901251 -0.901251 l 0.4738599,-0.04031 C 9.2347078,10.611943 9.2025857,9.805195 8.285849,9.805195 H 7.8472059 V 8.896104 7.987013 h 0.9090902 0.9090901 v 3.374436 3.374436 l 0.6540128,0.331414 c 0.935284,0.473944 1.621949,1.144342 2.033315,1.985144 0.936463,1.914064 0.09461,4.192473 -1.934723,5.236176 -0.8206838,0.422083 -2.2776953,0.466047 -3.2120078,0.09692 z"
   id="path851" /><path
   style="fill:#0066ff;stroke-width:0.12987"
   d="m 17.262782,22.288032 c -1.511784,-0.725805 -2.322775,-1.978104 -2.322775,-3.586733 0,-1.551429 0.820138,-2.845678 2.26563,-3.57536 0.753081,-0.380155 0.895871,-0.590839 0.899527,-1.327237 0.0016,-0.320551 0.04788,-0.357143 0.451749,-0.357143 0.298125,0 0.491628,-0.07783 0.573403,-0.230626 0.199164,-0.372143 -0.06057,-0.678465 -0.575287,-0.678465 h -0.448092 v -0.909091 -0.909091 h 0.449976 c 0.298125,0 0.491628,-0.07783 0.573403,-0.230626 0.199164,-0.372143 -0.06057,-0.678465 -0.575287,-0.678465 H 18.106937 V 8.896104 7.987013 h 0.90909 0.909091 v 3.374754 3.374754 l 0.746752,0.380098 c 1.499271,0.763132 2.284757,1.990454 2.294193,3.58468 0.01714,2.897606 -3.080717,4.84582 -5.703281,3.586733 z"
   id="path5127" /></svg>
