<?xml version="1.0" encoding="UTF-8" standalone="no"?>
<!-- Uploaded to: SVG Repo, www.svgrepo.com, Generator: SVG Repo Mixer Tools -->

<svg
   version="1.1"
   id="temperaturecomparison"
   viewBox="0 0 204 220"
   enable-background="new 0 0 204 220"
   xml:space="preserve"
   width="512"
   height="512"
   sodipodi:docname="attic-dile.svg"
   inkscape:version="1.2 (dc2aedaf03, 2022-05-15)"
   xmlns:inkscape="http://www.inkscape.org/namespaces/inkscape"
   xmlns:sodipodi="http://sodipodi.sourceforge.net/DTD/sodipodi-0.dtd"
   xmlns="http://www.w3.org/2000/svg"
   xmlns:svg="http://www.w3.org/2000/svg"><defs
   id="defs12054" /><sodipodi:namedview
   id="namedview12052"
   pagecolor="#ffffff"
   bordercolor="#000000"
   borderopacity="0.25"
   inkscape:showpageshadow="2"
   inkscape:pageopacity="0.0"
   inkscape:pagecheckerboard="0"
   inkscape:deskcolor="#d1d1d1"
   showgrid="false"
   inkscape:zoom="1.6542969"
   inkscape:cx="248.74616"
   inkscape:cy="244.817"
   inkscape:window-width="1920"
   inkscape:window-height="1027"
   inkscape:window-x="-8"
   inkscape:window-y="-8"
   inkscape:window-maximized="1"
   inkscape:current-layer="temperaturecomparison"
   showguides="false" />
<g
   id="g12041"
   transform="translate(-6.6172659)">
	<path
   fill="#d0e8ff"
   d="M 62.7891,130.5391 C 61.1289,130.0117 60,128.4707 60,126.7266 V 60.0196 H 40 V 80 h 8 c 2.2109,0 4,1.791 4,4 0,2.209 -1.7891,4 -4,4 h -8 v 20 h 8 c 2.2109,0 4,1.791 4,4 0,2.209 -1.7891,4 -4,4 h -8 v 10.7266 c 0,1.7441 -1.1289,3.2852 -2.7891,3.8125 C 19.7383,136.082 8,152.0547 8,170.2852 8,193.2871 26.8398,212 50,212 73.1602,212 92,193.2871 92,170.2852 92,152.0547 80.2617,136.082 62.7891,130.5391 Z"
   id="path12029" />
	<path
   fill="#ffffff"
   d="m 48,24 c 2.2109,0 4,1.791 4,4 0,2.209 -1.7891,4 -4,4 H 40 V 52 H 60 V 18.0039 C 60,12.4883 55.5156,8 50,8 44.4844,8 40,12.4883 40,18.0039 V 24 Z"
   id="path12031" />
	<path
   fill="#5cb0ff"
   d="M 166.7891,130.5391 C 165.1289,130.0118 164,128.4707 164,126.7266 V 60.0196 H 144 V 80 h 8 c 2.2109,0 4,1.791 4,4 0,2.209 -1.7891,4 -4,4 h -8 v 20 h 8 c 2.2109,0 4,1.791 4,4 0,2.209 -1.7891,4 -4,4 h -8 v 10.7266 c 0,1.7441 -1.1289,3.2852 -2.7891,3.8125 C 123.7383,136.082 112,152.0547 112,170.2852 112,193.2871 130.8398,212 154,212 c 23.1602,0 42,-18.7129 42,-41.7148 0,-18.2305 -11.7383,-34.2032 -29.2109,-39.7461 z"
   id="path12033" />
	<path
   fill="#ffffff"
   d="m 152,24 c 2.2109,0 4,1.791 4,4 0,2.209 -1.7891,4 -4,4 h -8 v 20 h 20 V 18.0039 C 164,12.4883 159.5156,8 154,8 148.4844,8 144,12.4883 144,18.0039 V 24 Z"
   id="path12035" />
	<path
   fill="#1c71da"
   d="M 68,123.8887 V 60 56.0195 18.0039 C 68,8.0762 59.9258,0 50,0 40.0742,0 32,8.0762 32,18.0039 V 56.0195 60 123.8887 C 12.7422,131.2481 0,149.5391 0,170.2852 0,197.6973 22.4297,220 50,220 c 27.5703,0 50,-22.3027 50,-49.7148 0,-20.7461 -12.7422,-39.0372 -32,-46.3965 z M 50,8 c 5.5156,0 10,4.4883 10,10.0039 V 52 H 40 V 32 h 8 c 2.2109,0 4,-1.791 4,-4 0,-2.209 -1.7891,-4 -4,-4 H 40 V 18.0039 C 40,12.4883 44.4844,8 50,8 Z m 0,204 C 26.8398,212 8,193.2871 8,170.2852 8,152.0547 19.7383,136.0821 37.2109,130.5391 38.8711,130.0117 40,128.4707 40,126.7266 V 116 h 8 c 2.2109,0 4,-1.791 4,-4 0,-2.209 -1.7891,-4 -4,-4 H 40 V 88 h 8 c 2.2109,0 4,-1.791 4,-4 0,-2.209 -1.7891,-4 -4,-4 H 40 V 60.0195 h 20 v 66.707 c 0,1.7441 1.1289,3.2852 2.7891,3.8125 C 80.2617,136.082 92,152.0547 92,170.2852 92,193.2871 73.1602,212 50,212 Z"
   id="path12037" />
	<path
   fill="#1c71da"
   d="M 172,123.8887 V 60 56.0195 18.0039 C 172,8.0762 163.9258,0 154,0 144.0742,0 136,8.0762 136,18.0039 V 56.0195 60 123.8887 c -19.2578,7.3594 -32,25.6504 -32,46.3965 0,27.4121 22.4297,49.7148 50,49.7148 27.5703,0 50,-22.3027 50,-49.7148 0,-20.7461 -12.7422,-39.0372 -32,-46.3965 z M 154,8 c 5.5156,0 10,4.4883 10,10.0039 V 52 H 144 V 32 h 8 c 2.2109,0 4,-1.791 4,-4 0,-2.209 -1.7891,-4 -4,-4 h -8 V 18.0039 C 144,12.4883 148.4844,8 154,8 Z m 0,204 c -23.1602,0 -42,-18.7129 -42,-41.7148 0,-18.2305 11.7383,-34.2031 29.2109,-39.7461 1.6602,-0.5273 2.7891,-2.0684 2.7891,-3.8125 V 116 h 8 c 2.2109,0 4,-1.791 4,-4 0,-2.209 -1.7891,-4 -4,-4 h -8 V 88 h 8 c 2.2109,0 4,-1.791 4,-4 0,-2.209 -1.7891,-4 -4,-4 h -8 V 60.0195 h 20 v 66.707 c 0,1.7441 1.1289,3.2852 2.7891,3.8125 C 184.2617,136.082 196,152.0547 196,170.2852 196,193.2871 177.1602,212 154,212 Z"
   id="path12039" />
</g>




<path
   style="fill:#000000;stroke-width:0.25974"
   d="M 38.11,219.58519 C 28.687957,218.6065 18.807752,214.41655 11.446375,208.2778 3.924116,202.00489 -1.8476583,193.22027 -4.4813092,184.03591 c -1.270346,-4.43009 -1.7247909,-7.42291 -1.8749219,-12.3476 -0.3093608,-10.14786 2.1318319,-19.12251 7.5875193,-27.8943 1.9962736,-3.20966 4.3302636,-6.01085 7.7176621,-9.2625 3.9681397,-3.80912 7.0094517,-5.92603 12.1995127,-8.49152 l 4.337161,-2.14389 0.01348,-53.712246 c 0.01517,-60.3897629 -0.138809,-55.778974 2.009571,-60.178209 0.985158,-2.0173011 1.58291,-2.8425254 3.310037,-4.5696525 1.725587,-1.7255858 2.554154,-2.326039 4.56965,-3.3115789 9.198959,-4.4981062 19.702466,-0.8883272 24.049548,8.2651964 1.944755,4.095 1.770179,-1.304059 1.917006,59.288506 l 0.13171,54.353444 2.597407,1.16897 c 21.200738,9.5415 33.010301,32.90457 28.015654,55.42355 -3.292682,14.84526 -12.905817,27.1883 -26.473394,33.99124 -8.17985,4.10147 -18.29251,5.92797 -27.516293,4.96987 z m 13.492339,-8.27046 c 5.692585,-1.16023 11.662723,-3.72102 16.247923,-6.96927 3.150002,-2.23154 7.683357,-6.76161 9.937067,-9.92987 3.313817,-4.65859 5.819226,-10.53961 6.99024,-16.40845 0.839697,-4.20835 0.841329,-11.27858 0.0034,-15.47608 -2.940477,-14.73308 -13.023882,-26.56015 -26.884585,-31.53356 -1.260247,-0.4522 -2.589348,-1.05658 -2.95355,-1.34306 -1.441882,-1.13418 -1.378467,0.52236 -1.378467,-36.009734 V 59.87013 H 43.434531 33.304656 V 70 80.12987 h 4.445155 c 4.046371,0 4.532961,0.04935 5.423927,0.550103 1.917712,1.077815 2.621527,3.510959 1.494557,5.166824 -1.25965,1.850802 -1.543475,1.936576 -6.706443,2.026742 l -4.657199,0.08133 v 10.113473 10.113478 h 4.42393 c 4.939476,0 5.770685,0.19027 6.732641,1.54122 1.254272,1.76146 0.872088,4.00983 -0.913246,5.37259 l -0.980629,0.74852 -4.631349,0.086 -4.631348,0.086 -0.0057,5.62831 c -0.0076,7.47367 -0.258834,8.03439 -4.15014,9.26168 -0.785714,0.24781 -2.718003,1.06845 -4.293974,1.82363 -10.208497,4.89181 -18.145777,13.95895 -21.4978165,24.55801 -1.6629221,5.25811 -1.8715177,6.72583 -1.8620655,13.10188 0.00792,5.3403 0.05632,5.9176 0.7395618,8.82083 1.31564,5.5904 3.087407,9.70235 6.161356,14.29935 6.5694982,9.82448 17.6294882,16.69301 29.4542332,18.29181 2.957459,0.39987 10.755961,0.12378 13.75208,-0.48687 z M 53.508026,33.961039 c -0.07326,-18.09562 -0.07404,-18.118574 -0.656785,-19.557883 -1.205162,-2.976598 -3.280068,-4.9410608 -6.301974,-5.9665371 -2.254343,-0.7650066 -5.24763,-0.6243884 -7.367472,0.346109 -2.021937,0.9256736 -3.892488,2.7638471 -4.905228,4.8203311 -0.831463,1.688377 -0.843019,1.763257 -0.932595,6.044826 l -0.09071,4.335271 4.657117,0.08634 4.657117,0.08634 0.980629,0.748526 c 1.75909,1.342731 2.167752,3.610802 0.956969,5.311186 -0.998663,1.402493 -1.842709,1.602626 -6.759028,1.602626 H 33.3048 v 10.12987 10.129871 h 10.138286 10.138286 z"
   id="path12611" /><path
   style="fill:#000000;stroke-width:0.326698"
   d="m 78.484873,34.478439 c -4.353358,-0.885369 -8.762755,-3.822324 -11.3544,-7.56279 -3.621639,-5.227042 -3.621639,-12.506308 0,-17.7333479 6.382413,-9.21161596 19.631822,-10.642912 27.812319,-3.004495 7.199038,6.7218759 7.199038,17.0204609 0,23.7423369 -4.441084,4.146827 -10.385614,5.793256 -16.457919,4.558296 z m 6.389921,-9.345547 c 1.64944,-0.42812 3.876188,-2.300699 4.667806,-3.925384 0.811509,-1.665507 0.811509,-4.65156 0,-6.317067 -0.791624,-1.624685 -3.018366,-3.497264 -4.667806,-3.925383 -6.099283,-1.5830999 -11.615746,3.064801 -10.276505,8.65847 1.035905,4.326682 5.536682,6.739609 10.276505,5.509364 z"
   id="path12613" /><path
   style="fill:#ff2a2a;stroke-width:0.25974"
   d="M 38.002018,211.55414 C 22.183055,209.33866 9.0168762,198.64823 3.8596357,183.83185 2.0948846,178.76184 1.7463714,176.52357 1.7463714,170.25974 c 0,-4.88445 0.075041,-5.91944 0.5986922,-8.25733 0.8981091,-4.00969 1.7128328,-6.32571 3.5369108,-10.05436 4.7602466,-9.73053 12.7363306,-16.85039 23.2597476,-20.76282 2.671768,-0.99332 3.77621,-1.85506 4.163278,-3.24839 0.141157,-0.50812 0.2573,-3.33952 0.258096,-6.29201 l 0.0013,-5.36815 4.480519,-0.0864 c 5.107945,-0.0985 5.814574,-0.32181 6.893842,-2.17878 1.105378,-1.9019 0.492818,-4.14762 -1.50159,-5.50501 -0.809019,-0.55061 -1.119341,-0.58441 -5.365727,-0.58441 h -4.507044 v -9.870134 -9.870128 l 4.220782,-0.0057 c 4.792783,-0.0065 5.863154,-0.289987 6.973748,-1.847145 0.83493,-1.170653 0.879759,-3.480318 0.08812,-4.540628 -1.274452,-1.706989 -1.535985,-1.780792 -6.625458,-1.869673 l -4.657193,-0.08132 v -9.853735 -9.853732 h 9.870132 9.870128 V 93.9218 c 0,30.63983 0.03932,33.87479 0.421635,34.68043 0.54588,1.15036 1.276211,1.62494 4.123819,2.6797 13.892938,5.14597 23.757293,16.70441 26.675185,31.25632 0.783208,3.90597 0.836348,10.97055 0.111812,14.86436 -1.494692,8.03279 -5.362662,15.60174 -10.924228,21.37679 -6.09938,6.33352 -13.740448,10.56624 -22.18712,12.2904 -2.873897,0.58662 -10.773525,0.86955 -13.523891,0.48435 z"
   id="path12617" /><text
   xml:space="preserve"
   style="font-style:normal;font-variant:normal;font-weight:bold;font-stretch:normal;font-size:49.9832px;font-family:'Rockwell Extra Bold';-inkscape-font-specification:'Rockwell Extra Bold,  Bold';fill:#000000;stroke-width:0.669419"
   x="175.75645"
   y="37.133175"
   id="text12673"
   transform="scale(0.94743074,1.0554861)"><tspan
     sodipodi:role="line"
     id="tspan12671"
     style="font-style:normal;font-variant:normal;font-weight:bold;font-stretch:normal;font-size:49.9832px;font-family:'Rockwell Extra Bold';-inkscape-font-specification:'Rockwell Extra Bold,  Bold';fill:#000000;stroke-width:0.669419"
     x="175.75645"
     y="37.133175">%</tspan></text><path
   style="fill:#000000;stroke-width:0.25974"
   d="m 141.22686,219.46494 c -10.89717,-1.3329 -21.22234,-6.38895 -29.11279,-14.256 -19.124571,-19.06778 -19.462095,-49.67221 -0.76323,-69.20375 4.13823,-4.32251 9.81096,-8.32052 15.33056,-10.80466 l 2.59741,-1.16897 0.14223,-54.353444 c 0.11396,-43.537067 0.2098,-54.611883 0.48161,-55.652142 0.87287,-3.3406 3.46079,-7.5777164 5.82688,-9.5401542 5.73158,-4.7537892 12.97461,-5.6243192 19.64752,-2.3614062 2.01879,0.9871558 2.84337,1.585303 4.58152,3.323464 1.75125,1.7512443 2.3251,2.5454701 3.3017,4.5696514 2.14662,4.449223 1.99254,-0.2025861 1.99254,60.171267 v 53.717194 l 2.48451,1.13967 c 5.68352,2.60708 9.95123,5.49018 14.19573,9.59009 4.47294,4.32055 7.25403,8.04025 9.90597,13.24922 2.65131,5.20772 4.2013,10.24912 5.00252,16.27087 0.5065,3.8067 0.3651,10.71789 -0.29496,14.41559 -1.71709,9.61946 -6.19695,18.53846 -12.7992,25.48209 -4.51158,4.74487 -8.52274,7.70367 -14.3905,10.61507 -8.77704,4.35489 -18.3687,5.99033 -28.13002,4.79635 z m 14.54543,-8.16694 c 10.92995,-2.31611 20.55612,-8.75411 26.5971,-17.78821 3.07204,-4.59416 4.84263,-8.70215 6.1632,-14.29935 0.69033,-2.92594 0.73294,-3.44632 0.73294,-8.9507 0,-5.49822 -0.0433,-6.02866 -0.73165,-8.96104 -2.53738,-10.80959 -8.54931,-19.6497 -17.42866,-25.62765 -2.51391,-1.69247 -7.18618,-4.03873 -9.48876,-4.76496 -2.11864,-0.6682 -3.11556,-1.36786 -3.66131,-2.56961 -0.46295,-1.01934 -0.48337,-2.47078 -0.48883,-34.765053 l -0.006,-33.701297 H 147.33071 137.20084 V 70 80.12987 l 4.48053,4.29e-4 c 3.74727,2.58e-4 4.62844,0.07473 5.38444,0.454545 2.82603,1.419851 2.7868,5.532553 -0.0651,6.827176 -0.94121,0.427255 -1.72162,0.499494 -5.44918,0.50438 l -4.35065,0.0056 v 10.12987 10.12987 l 4.61038,8.6e-4 c 4.14225,8.6e-4 4.69635,0.0534 5.45692,0.51711 2.5033,1.52628 2.51174,5.12063 0.0156,6.62478 -0.75854,0.45707 -1.41598,0.52981 -5.47249,0.60544 l -4.61039,0.086 -8.6e-4,5.88805 c -0.001,7.58449 0.0325,7.51482 -4.41461,9.12109 -13.81426,4.98966 -23.86751,16.80771 -26.80101,31.50583 -0.83598,4.18863 -0.83598,11.26871 0,15.45735 3.66103,18.34293 18.06696,31.57757 36.93096,33.92812 0.49999,0.0623 3.01298,0.0725 5.5844,0.0225 3.49297,-0.0678 5.33219,-0.22994 7.27273,-0.64114 z m 1.63169,-177.596701 -0.0733,-18.376624 -0.6965,-1.485629 c -2.1956,-4.6831711 -7.604,-7.0360702 -12.4181,-5.4024271 -3.03317,1.0292988 -5.12871,3.0193491 -6.28283,5.9665371 -0.46951,1.198983 -0.58291,2.124472 -0.67509,5.510486 l -0.11081,4.069486 4.63713,0.08636 c 4.08292,0.07604 4.74017,0.148444 5.49924,0.605839 2.49618,1.504143 2.48772,5.098501 -0.0156,6.624779 -0.76057,0.463727 -1.31467,0.516234 -5.45692,0.517106 l -4.6104,9.89e-4 v 10.12987 10.129871 h 10.13819 10.13818 z"
   id="path13398" /><path
   style="fill:#4d4d4d;stroke-width:0.604486"
   d="M 100.94923,490.9246 C 91.428185,488.86747 85.780964,486.85429 76.165289,482.08938 50.932134,469.58545 32.95316,447.38163 25.251393,419.21133 23.79806,413.89556 23.661833,412.31866 23.418667,397.9964 l -0.262692,-15.47231 1.832904,-7.53556 c 4.49033,-18.46093 12.735584,-33.17585 26.05006,-46.49032 10.509121,-10.50912 20.415768,-16.87937 35.701949,-22.95734 6.664239,-2.64978 9.068239,-4.82097 9.717373,-8.77635 0.269359,-1.64126 0.505955,-8.08447 0.525776,-14.31824 0.01983,-6.23377 0.240048,-11.35048 0.489399,-11.37048 0.24935,-0.02 5.159674,-0.24935 10.911834,-0.50967 11.95522,-0.54104 12.70943,-0.82426 15.14865,-5.6885 2.09954,-4.18687 1.47876,-7.51424 -2.06262,-11.05562 l -2.6579,-2.6579 H 107.91674 97.020071 v -22.97049 -22.97048 h 9.524649 c 5.23856,0 10.45445,-0.26666 11.59087,-0.59258 6.44942,-1.84967 8.70903,-11.21457 3.82919,-15.87001 -2.57151,-2.45325 -4.4567,-2.88044 -12.74321,-2.88763 -4.21732,-0.004 -8.68792,-0.17526 -9.934675,-0.38133 l -2.266824,-0.37469 v -22.58914 -22.58915 h 22.668239 22.66824 l 0.038,75.10743 c 0.0209,41.3091 0.25762,77.4087 0.526,80.22134 0.45076,4.72406 0.63279,5.23481 2.38787,6.70002 1.04494,0.87236 4.54851,2.61818 7.78569,3.87961 26.97742,10.51222 46.70127,29.79871 57.00768,55.74359 5.04185,12.69212 7.24298,28.36937 6.03984,43.01799 -3.11171,37.8863 -30.28055,71.6327 -67.13576,83.38926 -10.14005,3.23461 -14.36157,3.84602 -28.41086,4.11479 -11.95999,0.2288 -13.52674,0.13406 -19.64581,-1.18804 z"
   id="path14306"
   transform="matrix(0.4296875,0,0,0.4296875,-8,0)" /><path
   style="fill:#999999;stroke-width:0.604486"
   d="m 346.97521,492.03599 c -40.59116,-6.58042 -72.37775,-36.60371 -80.7762,-76.29531 -2.41422,-11.40976 -2.41064,-27.48585 0.009,-38.99966 6.8682,-32.68657 29.38383,-58.93754 60.75583,-70.83519 7.98901,-3.02979 9.10766,-3.79087 10.71425,-7.28954 0.96465,-2.1007 1.11207,-4.09542 1.12361,-15.20347 l 0.0133,-12.78552 10.42739,-0.21093 c 9.61239,-0.19445 10.60121,-0.31903 12.65133,-1.59383 2.98466,-1.85592 4.99339,-5.98327 4.5437,-9.33593 -0.3858,-2.87639 -1.83643,-5.05037 -4.64579,-6.96241 -1.88282,-1.28143 -2.60501,-1.36009 -12.48751,-1.36009 H 338.815 v -22.97049 -22.97048 h 9.84594 c 9.00846,0 10.07536,-0.11569 12.54309,-1.36009 5.33118,-2.68835 6.89733,-9.39386 3.29664,-14.11459 -2.62387,-3.44008 -4.3631,-3.86889 -15.69223,-3.86889 H 338.815 v -22.97048 -22.97048 h 22.97048 22.97049 v 78.643 c 0,71.30725 0.0915,78.83588 0.98125,80.71084 1.27174,2.67999 2.97571,3.78567 9.59726,6.22753 11.70835,4.31772 22.64823,10.89417 31.44818,18.9049 14.99612,13.65117 24.15146,28.79322 29.48736,48.76925 1.86691,6.98911 1.87739,7.11441 1.90413,22.74448 0.025,14.59144 -0.0761,16.12777 -1.41153,21.45926 -4.50716,17.99402 -12.50652,32.75053 -24.51116,45.21599 -14.19411,14.739 -31.33272,24.25211 -51.42465,28.54423 -8.01222,1.71161 -25.85429,2.17432 -33.85124,0.8779 z"
   id="path14308"
   transform="matrix(0.4296875,0,0,0.4296875,-8,0)" /></svg>
