<?xml version="1.0" encoding="UTF-8" standalone="no"?>
<!-- Uploaded to: SVG Repo, www.svgrepo.com, Generator: SVG Repo Mixer Tools -->

<svg
   version="1.1"
   id="temperaturecomparison"
   viewBox="0 0 204 220"
   enable-background="new 0 0 204 220"
   xml:space="preserve"
   width="512"
   height="512"
   sodipodi:docname="attic-temp.svg"
   inkscape:version="1.2 (dc2aedaf03, 2022-05-15)"
   xmlns:inkscape="http://www.inkscape.org/namespaces/inkscape"
   xmlns:sodipodi="http://sodipodi.sourceforge.net/DTD/sodipodi-0.dtd"
   xmlns="http://www.w3.org/2000/svg"
   xmlns:svg="http://www.w3.org/2000/svg"><defs
   id="defs12054" /><sodipodi:namedview
   id="namedview12052"
   pagecolor="#ffffff"
   bordercolor="#000000"
   borderopacity="0.25"
   inkscape:showpageshadow="2"
   inkscape:pageopacity="0.0"
   inkscape:pagecheckerboard="0"
   inkscape:deskcolor="#d1d1d1"
   showgrid="false"
   inkscape:zoom="1.6542969"
   inkscape:cx="249.35065"
   inkscape:cy="246.02597"
   inkscape:window-width="1920"
   inkscape:window-height="1027"
   inkscape:window-x="-8"
   inkscape:window-y="-8"
   inkscape:window-maximized="1"
   inkscape:current-layer="temperaturecomparison"
   showguides="false" />





<path
   style="fill:#000000;stroke-width:0.25974"
   d="m 96.551558,219.84493 c -9.422043,-0.97869 -19.302248,-5.16864 -26.663625,-11.30739 -7.522259,-6.27291 -13.294034,-15.05753 -15.927685,-24.24189 -1.270346,-4.43009 -1.724791,-7.42291 -1.874922,-12.3476 -0.30936,-10.14786 2.131832,-19.12251 7.58752,-27.8943 1.996273,-3.20966 4.330263,-6.01085 7.717662,-9.2625 3.96814,-3.80912 7.009452,-5.92603 12.199513,-8.49152 l 4.337161,-2.14389 0.01348,-53.712246 c 0.01517,-60.389763 -0.138809,-55.778974 2.009571,-60.178209 0.985158,-2.0173008 1.58291,-2.8425251 3.310037,-4.5696522 1.725587,-1.7255858 2.554154,-2.326039 4.56965,-3.3115789 9.19896,-4.4981062 19.70247,-0.8883272 24.04955,8.2651961 1.94475,4.095 1.77018,-1.3040587 1.917,59.288506 l 0.13171,54.353444 2.59741,1.16897 c 21.20074,9.5415 33.0103,32.90457 28.01565,55.42355 -3.29268,14.84526 -12.90581,27.1883 -26.47339,33.99124 -8.17985,4.10147 -18.29251,5.92797 -27.516292,4.96987 z m 13.492342,-8.27046 c 5.69258,-1.16023 11.66272,-3.72102 16.24792,-6.96927 3.15,-2.23154 7.68336,-6.76161 9.93707,-9.92987 3.31381,-4.65859 5.81922,-10.53961 6.99024,-16.40845 0.83969,-4.20835 0.84133,-11.27858 0.003,-15.47608 -2.94048,-14.73308 -13.02389,-26.56015 -26.88459,-31.53356 -1.26025,-0.4522 -2.58935,-1.05658 -2.95355,-1.34306 -1.44188,-1.13418 -1.37847,0.52236 -1.37847,-36.009734 V 60.12987 H 101.87609 91.746214 v 10.12987 10.12987 h 4.445155 c 4.046371,0 4.532961,0.04935 5.423931,0.550103 1.91771,1.077815 2.62152,3.510959 1.49455,5.166824 -1.25965,1.850802 -1.54347,1.936576 -6.70644,2.026742 l -4.657199,0.08133 v 10.113473 10.113478 h 4.42393 c 4.939479,0 5.770689,0.19027 6.732639,1.54122 1.25427,1.76146 0.87209,4.00983 -0.91324,5.37259 l -0.98063,0.74852 -4.631352,0.086 -4.631348,0.086 -0.0057,5.62831 c -0.0076,7.47367 -0.258834,8.03439 -4.15014,9.26168 -0.785714,0.24781 -2.718003,1.06845 -4.293974,1.82363 -10.208497,4.89181 -18.145777,13.95895 -21.497817,24.55801 -1.662922,5.25811 -1.871518,6.72583 -1.862065,13.10188 0.0079,5.3403 0.05632,5.9176 0.739561,8.82083 1.31564,5.5904 3.087407,9.70235 6.161356,14.29935 6.569499,9.82448 17.629489,16.69301 29.454234,18.29181 2.957459,0.39987 10.755965,0.12378 13.752075,-0.48687 z m 1.90568,-177.353691 c -0.0733,-18.09562 -0.074,-18.118574 -0.65678,-19.557883 -1.20516,-2.976598 -3.28007,-4.9410605 -6.30198,-5.9665368 -2.25434,-0.7650066 -5.247625,-0.6243884 -7.367467,0.346109 -2.021937,0.9256736 -3.892488,2.7638468 -4.905228,4.8203308 -0.831463,1.688377 -0.843019,1.763257 -0.932595,6.044826 l -0.09071,4.335271 4.657117,0.08634 4.657113,0.08634 0.98063,0.748526 c 1.75909,1.342731 2.16775,3.610802 0.95697,5.311186 -0.99866,1.402493 -1.84271,1.602626 -6.759026,1.602626 h -4.441266 v 10.12987 10.129871 h 10.138282 10.13829 z"
   id="path12611" /><path
   style="fill:#000000;stroke-width:0.326698"
   d="m 136.92643,34.738179 c -4.35336,-0.885369 -8.76275,-3.822324 -11.3544,-7.56279 -3.62164,-5.227042 -3.62164,-12.506308 0,-17.7333476 6.38241,-9.211616 19.63182,-10.642912 27.81232,-3.004495 7.19904,6.7218756 7.19904,17.0204606 0,23.7423366 -4.44108,4.146827 -10.38561,5.793256 -16.45792,4.558296 z m 6.38992,-9.345547 c 1.64944,-0.42812 3.87619,-2.300699 4.66781,-3.925384 0.81151,-1.665507 0.81151,-4.65156 0,-6.317067 -0.79163,-1.624685 -3.01837,-3.497264 -4.66781,-3.925383 -6.09928,-1.5830996 -11.61574,3.064801 -10.2765,8.65847 1.0359,4.326682 5.53668,6.739609 10.2765,5.509364 z"
   id="path12613" /><path
   style="fill:#ff2a2a;stroke-width:0.25974"
   d="M 96.443576,211.81388 C 80.624613,209.5984 67.458434,198.90797 62.301193,184.09159 c -1.764751,-5.07001 -2.113264,-7.30828 -2.113264,-13.57211 0,-4.88445 0.07504,-5.91944 0.598692,-8.25733 0.898109,-4.00969 1.712833,-6.32571 3.536911,-10.05436 4.760247,-9.73053 12.736331,-16.85039 23.259748,-20.76282 2.671768,-0.99332 3.77621,-1.85506 4.163278,-3.24839 0.141157,-0.50812 0.2573,-3.33952 0.258096,-6.29201 l 0.0013,-5.36815 4.480519,-0.0864 c 5.107947,-0.0985 5.814577,-0.32181 6.893837,-2.17878 1.10538,-1.9019 0.49282,-4.14762 -1.50159,-5.50501 -0.80901,-0.55061 -1.11934,-0.58441 -5.365722,-0.58441 h -4.507044 v -9.870134 -9.870128 l 4.220782,-0.0057 c 4.792784,-0.0065 5.863154,-0.289987 6.973744,-1.847145 0.83493,-1.170653 0.87976,-3.480318 0.0881,-4.540628 -1.27445,-1.706989 -1.53598,-1.780792 -6.625454,-1.869673 l -4.657193,-0.08132 v -9.853735 -9.853732 h 9.870127 9.87013 V 94.18154 c 0,30.63983 0.0393,33.87479 0.42164,34.68043 0.54588,1.15036 1.27621,1.62494 4.12382,2.6797 13.89293,5.14597 23.75729,16.70441 26.67518,31.25632 0.78321,3.90597 0.83635,10.97055 0.11181,14.86436 -1.49469,8.03279 -5.36266,15.60174 -10.92422,21.37679 -6.09938,6.33352 -13.74045,10.56624 -22.18712,12.2904 -2.8739,0.58662 -10.773529,0.86955 -13.523895,0.48435 z"
   id="path12617" /><path
   style="fill:#ffffff;stroke-width:0.604486"
   d="m 232.42503,98.229042 v -23.57497 h 10.29568 c 11.25756,0 13.3188,-0.438281 15.57985,-3.312747 2.96808,-3.773306 2.25557,-9.064158 -1.70219,-12.639756 l -2.41532,-2.182089 -7.70546,-0.0053 c -4.238,-0.0029 -9.16774,-0.180836 -10.95496,-0.395438 l -3.24951,-0.390184 0.27742,-9.729709 c 0.26113,-9.158645 0.37563,-9.92191 1.95085,-13.004409 2.29804,-4.496984 7.08757,-9.383122 11.15616,-11.381194 3.04783,-1.496782 4.03389,-1.665239 9.74738,-1.665239 5.96137,0 6.60715,0.123278 10.38799,1.983062 4.5499,2.238078 8.60073,6.305019 10.80117,10.844116 1.90953,3.938987 2.26158,12.269103 2.32553,55.026422 l 0.0509,34.002363 h -23.27273 -23.27272 z"
   id="path20102"
   transform="matrix(0.4296875,0,0,0.4296875,-8,0)" /></svg>
