<?xml version="1.0" encoding="UTF-8" standalone="no"?>
<!-- Uploaded to: SVG Repo, www.svgrepo.com, Generator: SVG Repo Mixer Tools -->

<svg
   version="1.1"
   id="temperaturecomparison"
   viewBox="0 0 204 220"
   enable-background="new 0 0 204 220"
   xml:space="preserve"
   width="512"
   height="512"
   sodipodi:docname="attic-humidity.svg"
   inkscape:version="1.2 (dc2aedaf03, 2022-05-15)"
   xmlns:inkscape="http://www.inkscape.org/namespaces/inkscape"
   xmlns:sodipodi="http://sodipodi.sourceforge.net/DTD/sodipodi-0.dtd"
   xmlns="http://www.w3.org/2000/svg"
   xmlns:svg="http://www.w3.org/2000/svg"><defs
   id="defs12054" /><sodipodi:namedview
   id="namedview12052"
   pagecolor="#ffffff"
   bordercolor="#000000"
   borderopacity="0.25"
   inkscape:showpageshadow="2"
   inkscape:pageopacity="0.0"
   inkscape:pagecheckerboard="0"
   inkscape:deskcolor="#d1d1d1"
   showgrid="false"
   inkscape:zoom="1.6542969"
   inkscape:cx="249.35065"
   inkscape:cy="215.80165"
   inkscape:window-width="1920"
   inkscape:window-height="1027"
   inkscape:window-x="-8"
   inkscape:window-y="-8"
   inkscape:window-maximized="1"
   inkscape:current-layer="temperaturecomparison"
   showguides="false" />





<text
   xml:space="preserve"
   style="font-style:normal;font-variant:normal;font-weight:bold;font-stretch:normal;font-size:49.9832px;font-family:'Rockwell Extra Bold';-inkscape-font-specification:'Rockwell Extra Bold,  Bold';fill:#000000;stroke-width:0.669419"
   x="132.71455"
   y="37.133175"
   id="text12673"
   transform="scale(0.94743076,1.0554861)"><tspan
     sodipodi:role="line"
     id="tspan12671"
     style="font-style:normal;font-variant:normal;font-weight:bold;font-stretch:normal;font-size:49.9832px;font-family:'Rockwell Extra Bold';-inkscape-font-specification:'Rockwell Extra Bold,  Bold';fill:#000000;stroke-width:0.669419"
     x="132.71455"
     y="37.133175">%</tspan></text><path
   style="fill:#000000;stroke-width:0.25974"
   d="m 100.44764,219.46494 c -10.89717,-1.3329 -21.22234,-6.38895 -29.11279,-14.256 -19.124571,-19.06778 -19.462095,-49.67221 -0.76323,-69.20375 4.13823,-4.32251 9.81096,-8.32052 15.33056,-10.80466 l 2.59741,-1.16897 0.14223,-54.353444 c 0.11396,-43.537067 0.2098,-54.611883 0.48161,-55.652142 0.87287,-3.3406 3.46079,-7.5777164 5.82688,-9.5401542 5.73158,-4.75378922 12.97461,-5.6243192 19.64752,-2.3614062 2.01879,0.9871558 2.84337,1.585303 4.58152,3.323464 1.75125,1.7512443 2.3251,2.5454701 3.3017,4.5696514 2.14662,4.449223 1.99254,-0.2025861 1.99254,60.171267 v 53.717194 l 2.48451,1.13967 c 5.68352,2.60708 9.95123,5.49018 14.19573,9.59009 4.47294,4.32055 7.25403,8.04025 9.90597,13.24922 2.65131,5.20772 4.2013,10.24912 5.00252,16.27087 0.5065,3.8067 0.3651,10.71789 -0.29496,14.41559 -1.71709,9.61946 -6.19695,18.53846 -12.7992,25.48209 -4.51158,4.74487 -8.52274,7.70367 -14.3905,10.61507 -8.77704,4.35489 -18.3687,5.99033 -28.13002,4.79635 z m 14.54543,-8.16694 c 10.92995,-2.31611 20.55612,-8.75411 26.5971,-17.78821 3.07204,-4.59416 4.84263,-8.70215 6.1632,-14.29935 0.69033,-2.92594 0.73294,-3.44632 0.73294,-8.9507 0,-5.49822 -0.0433,-6.02866 -0.73165,-8.96104 -2.53738,-10.80959 -8.54931,-19.6497 -17.42866,-25.62765 -2.51391,-1.69247 -7.18618,-4.03873 -9.48876,-4.76496 -2.11864,-0.6682 -3.11556,-1.36786 -3.66131,-2.56961 -0.46295,-1.01934 -0.48337,-2.47078 -0.48883,-34.765053 L 116.6811,59.87013 H 106.55149 96.42162 V 70 80.12987 l 4.48053,4.29e-4 c 3.74727,2.58e-4 4.62844,0.07473 5.38444,0.454545 2.82603,1.419851 2.7868,5.532553 -0.0651,6.827176 -0.94121,0.427255 -1.72162,0.499494 -5.44918,0.50438 l -4.35065,0.0056 v 10.12987 10.12987 l 4.61038,8.6e-4 c 4.14225,8.6e-4 4.69635,0.0534 5.45692,0.51711 2.5033,1.52628 2.51174,5.12063 0.0156,6.62478 -0.75854,0.45707 -1.41598,0.52981 -5.47249,0.60544 l -4.61039,0.086 -8.6e-4,5.88805 c -0.001,7.58449 0.0325,7.51482 -4.41461,9.12109 -13.81426,4.98966 -23.86751,16.80771 -26.80101,31.50583 -0.83598,4.18863 -0.83598,11.26871 0,15.45735 3.66103,18.34293 18.06696,31.57757 36.93096,33.92812 0.49999,0.0623 3.01298,0.0725 5.5844,0.0225 3.49297,-0.0678 5.33219,-0.22994 7.27273,-0.64114 z m 1.63169,-177.596701 -0.0733,-18.376624 -0.6965,-1.485629 c -2.1956,-4.6831711 -7.604,-7.0360702 -12.4181,-5.4024271 -3.03317,1.0292988 -5.12871,3.0193491 -6.28283,5.9665371 -0.46951,1.198983 -0.58291,2.124472 -0.67509,5.510486 l -0.11081,4.069486 4.63713,0.08636 c 4.08292,0.07604 4.74017,0.148444 5.49924,0.605839 2.49618,1.504143 2.48772,5.098501 -0.0156,6.624779 -0.76057,0.463727 -1.31467,0.516234 -5.45692,0.517106 l -4.6104,9.89e-4 v 10.12987 10.129871 h 10.13819 10.13818 z"
   id="path13398" /><path
   style="fill:#5599ff;stroke-width:0.25974"
   d="m 98.613746,211.1798 c -5.739048,-1.2244 -10.973613,-3.42349 -15.845488,-6.65684 -3.403954,-2.25913 -8.682265,-7.56293 -10.970759,-11.02376 -5.305077,-8.02271 -7.658123,-17.02376 -6.936295,-26.53324 0.409703,-5.39748 1.527805,-9.56258 3.92495,-14.62101 4.71711,-9.95401 12.890728,-17.31837 23.666487,-21.3233 1.106093,-0.41109 2.286131,-0.92766 2.622301,-1.14793 1.195653,-0.78342 1.317835,-1.44663 1.418055,-7.69716 l 0.0942,-5.87538 1.342764,-0.16132 c 0.738517,-0.0887 2.584649,-0.16234 4.102499,-0.16358 3.57451,-0.003 4.2631,-0.15929 5.30948,-1.20568 1.57618,-1.57618 1.51775,-3.94606 -0.13812,-5.60193 l -0.98686,-0.98686 H 101.3812 96.545452 V 98.051946 87.922076 l 4.480518,-4.3e-4 c 3.75235,-2.58e-4 4.62527,-0.07421 5.37115,-0.454545 1.24137,-0.632985 1.89074,-1.630036 2.01717,-3.097131 0.13316,-1.5452 -0.46276,-2.815579 -1.71244,-3.650419 -0.83526,-0.557988 -1.13113,-0.589592 -5.51948,-0.589592 H 96.545453 V 70.00009 59.87022 h 9.988327 9.98833 l 0.0766,33.961039 c 0.072,31.921851 0.10422,34.011581 0.53655,34.802741 0.57833,1.05834 1.18754,1.45567 3.73437,2.43559 12.62682,4.85832 21.43929,13.88214 25.54617,26.15885 1.59009,4.75327 1.80671,6.31569 1.80671,13.03138 0,6.79283 -0.21205,8.27583 -1.90798,13.34405 -4.08145,12.19726 -14.11975,22.0785 -26.6522,26.23523 -4.56091,1.51274 -6.06838,1.74073 -12.33767,1.86597 -5.33161,0.10649 -5.91496,0.0713 -8.710924,-0.52518 z"
   id="path15582" /><path
   style="fill:#ffffff;stroke-width:0.604486"
   d="M 243.30578,97.661194 V 74.122862 l 11.53302,-0.187759 11.53301,-0.187761 2.03139,-2.21808 c 3.54513,-3.870926 3.55737,-9.285177 0.029,-12.81358 -2.43523,-2.43523 -4.03778,-2.799138 -12.35661,-2.805943 -3.53247,-0.0029 -7.85077,-0.176789 -9.59622,-0.386443 l -3.17356,-0.381188 0.0187,-5.809543 c 0.041,-12.754364 2.05083,-19.124491 7.66755,-24.301803 11.58742,-10.680904 29.79964,-6.877763 37.01078,7.728722 l 1.84846,3.744136 v 42.347951 42.347959 h -23.27273 -23.27273 z"
   id="path20840"
   transform="matrix(0.4296875,0,0,0.4296875,-8,0)" /><path
   style="fill:#ffffff;stroke-width:0.604486"
   d="M 243.30578,97.661194 V 74.122862 l 11.53302,-0.187759 11.53301,-0.187761 2.03139,-2.21808 c 3.54513,-3.870926 3.55737,-9.285177 0.029,-12.81358 -2.43523,-2.43523 -4.03778,-2.799138 -12.35661,-2.805943 -3.53247,-0.0029 -7.85077,-0.176789 -9.59622,-0.386443 l -3.17356,-0.381188 0.0187,-5.809543 c 0.041,-12.754364 2.05083,-19.124491 7.66755,-24.301803 11.63422,-10.724041 30.27699,-6.704902 37.23525,8.027436 l 1.62399,3.438364 v 42.351479 42.351489 h -23.27273 -23.27273 z"
   id="path23760"
   transform="matrix(0.4296875,0,0,0.4296875,-8,0)" /><path
   style="fill:#ffffff;stroke-width:0.604486"
   d="m 243.30578,97.624556 v -23.57497 h 10.53916 c 5.79654,0 11.21019,-0.255124 12.03033,-0.566941 0.82014,-0.311818 2.23155,-1.537639 3.13647,-2.724047 3.56798,-4.677865 2.13718,-11.369875 -2.92206,-13.666788 -2.03685,-0.92474 -3.96891,-1.152868 -9.85419,-1.163541 -4.02633,-0.0073 -8.58264,-0.186259 -10.12515,-0.397683 l -2.80456,-0.384408 0.0187,-5.811578 c 0.041,-12.756503 2.05054,-19.126255 7.66755,-24.303838 11.63422,-10.724041 30.27699,-6.704902 37.23525,8.027436 l 1.62399,3.438364 v 42.351479 42.351489 h -23.27273 -23.27273 z"
   id="path23762"
   transform="matrix(0.4296875,0,0,0.4296875,-8,0)" /></svg>
