<?xml version="1.0" encoding="UTF-8" standalone="no"?>
<!-- Uploaded to: SVG Repo, www.svgrepo.com, Generator: SVG Repo Mixer Tools -->

<svg
   version="1.1"
   id="temperaturecomparison"
   viewBox="0 0 50.337654 47.532481"
   enable-background="new 0 0 204 220"
   xml:space="preserve"
   width="126.33764"
   height="110.62104"
   sodipodi:docname="attic-idle.svg"
   inkscape:version="1.2 (dc2aedaf03, 2022-05-15)"
   xmlns:inkscape="http://www.inkscape.org/namespaces/inkscape"
   xmlns:sodipodi="http://sodipodi.sourceforge.net/DTD/sodipodi-0.dtd"
   xmlns="http://www.w3.org/2000/svg"
   xmlns:svg="http://www.w3.org/2000/svg"><defs
   id="defs12054" /><sodipodi:namedview
   id="namedview12052"
   pagecolor="#ffffff"
   bordercolor="#000000"
   borderopacity="0.25"
   inkscape:showpageshadow="2"
   inkscape:pageopacity="0.0"
   inkscape:pagecheckerboard="0"
   inkscape:deskcolor="#d1d1d1"
   showgrid="false"
   inkscape:zoom="1.6542969"
   inkscape:cx="98.833529"
   inkscape:cy="75.560802"
   inkscape:window-width="1920"
   inkscape:window-height="1027"
   inkscape:window-x="-8"
   inkscape:window-y="-8"
   inkscape:window-maximized="1"
   inkscape:current-layer="temperaturecomparison"
   showguides="false" />
<g
   id="g12041"
   transform="matrix(0.19719465,0,0,0.19531251,3.7723417,2.0779219)">
	<path
   fill="#d0e8ff"
   d="M 62.7891,130.5391 C 61.1289,130.0117 60,128.4707 60,126.7266 V 60.0196 H 40 V 80 h 8 c 2.2109,0 4,1.791 4,4 0,2.209 -1.7891,4 -4,4 h -8 v 20 h 8 c 2.2109,0 4,1.791 4,4 0,2.209 -1.7891,4 -4,4 h -8 v 10.7266 c 0,1.7441 -1.1289,3.2852 -2.7891,3.8125 C 19.7383,136.082 8,152.0547 8,170.2852 8,193.2871 26.8398,212 50,212 73.1602,212 92,193.2871 92,170.2852 92,152.0547 80.2617,136.082 62.7891,130.5391 Z"
   id="path12029" />
	<path
   fill="#ffffff"
   d="m 48,24 c 2.2109,0 4,1.791 4,4 0,2.209 -1.7891,4 -4,4 H 40 V 52 H 60 V 18.0039 C 60,12.4883 55.5156,8 50,8 44.4844,8 40,12.4883 40,18.0039 V 24 Z"
   id="path12031" />
	<path
   fill="#5cb0ff"
   d="M 166.7891,130.5391 C 165.1289,130.0118 164,128.4707 164,126.7266 V 60.0196 H 144 V 80 h 8 c 2.2109,0 4,1.791 4,4 0,2.209 -1.7891,4 -4,4 h -8 v 20 h 8 c 2.2109,0 4,1.791 4,4 0,2.209 -1.7891,4 -4,4 h -8 v 10.7266 c 0,1.7441 -1.1289,3.2852 -2.7891,3.8125 C 123.7383,136.082 112,152.0547 112,170.2852 112,193.2871 130.8398,212 154,212 c 23.1602,0 42,-18.7129 42,-41.7148 0,-18.2305 -11.7383,-34.2032 -29.2109,-39.7461 z"
   id="path12033" />
	<path
   fill="#ffffff"
   d="m 152,24 c 2.2109,0 4,1.791 4,4 0,2.209 -1.7891,4 -4,4 h -8 v 20 h 20 V 18.0039 C 164,12.4883 159.5156,8 154,8 148.4844,8 144,12.4883 144,18.0039 V 24 Z"
   id="path12035" />
	<path
   fill="#1c71da"
   d="M 68,123.8887 V 60 56.0195 18.0039 C 68,8.0762 59.9258,0 50,0 40.0742,0 32,8.0762 32,18.0039 V 56.0195 60 123.8887 C 12.7422,131.2481 0,149.5391 0,170.2852 0,197.6973 22.4297,220 50,220 c 27.5703,0 50,-22.3027 50,-49.7148 0,-20.7461 -12.7422,-39.0372 -32,-46.3965 z M 50,8 c 5.5156,0 10,4.4883 10,10.0039 V 52 H 40 V 32 h 8 c 2.2109,0 4,-1.791 4,-4 0,-2.209 -1.7891,-4 -4,-4 H 40 V 18.0039 C 40,12.4883 44.4844,8 50,8 Z m 0,204 C 26.8398,212 8,193.2871 8,170.2852 8,152.0547 19.7383,136.0821 37.2109,130.5391 38.8711,130.0117 40,128.4707 40,126.7266 V 116 h 8 c 2.2109,0 4,-1.791 4,-4 0,-2.209 -1.7891,-4 -4,-4 H 40 V 88 h 8 c 2.2109,0 4,-1.791 4,-4 0,-2.209 -1.7891,-4 -4,-4 H 40 V 60.0195 h 20 v 66.707 c 0,1.7441 1.1289,3.2852 2.7891,3.8125 C 80.2617,136.082 92,152.0547 92,170.2852 92,193.2871 73.1602,212 50,212 Z"
   id="path12037" />
	<path
   fill="#1c71da"
   d="M 172,123.8887 V 60 56.0195 18.0039 C 172,8.0762 163.9258,0 154,0 144.0742,0 136,8.0762 136,18.0039 V 56.0195 60 123.8887 c -19.2578,7.3594 -32,25.6504 -32,46.3965 0,27.4121 22.4297,49.7148 50,49.7148 27.5703,0 50,-22.3027 50,-49.7148 0,-20.7461 -12.7422,-39.0372 -32,-46.3965 z M 154,8 c 5.5156,0 10,4.4883 10,10.0039 V 52 H 144 V 32 h 8 c 2.2109,0 4,-1.791 4,-4 0,-2.209 -1.7891,-4 -4,-4 h -8 V 18.0039 C 144,12.4883 148.4844,8 154,8 Z m 0,204 c -23.1602,0 -42,-18.7129 -42,-41.7148 0,-18.2305 11.7383,-34.2031 29.2109,-39.7461 1.6602,-0.5273 2.7891,-2.0684 2.7891,-3.8125 V 116 h 8 c 2.2109,0 4,-1.791 4,-4 0,-2.209 -1.7891,-4 -4,-4 h -8 V 88 h 8 c 2.2109,0 4,-1.791 4,-4 0,-2.209 -1.7891,-4 -4,-4 h -8 V 60.0195 h 20 v 66.707 c 0,1.7441 1.1289,3.2852 2.7891,3.8125 C 184.2617,136.082 196,152.0547 196,170.2852 196,193.2871 177.1602,212 154,212 Z"
   id="path12039" />
</g>




<path
   style="fill:#000000;stroke-width:0.050974"
   d="m 12.592319,44.965657 c -1.857976,-0.191148 -3.8063003,-1.0095 -5.2579243,-2.208476 -1.483349,-1.225176 -2.621512,-2.940924 -3.140854,-4.734743 -0.250506,-0.865252 -0.34012,-1.449788 -0.369724,-2.411641 -0.06101,-1.982004 0.420385,-3.734865 1.496218,-5.448106 0.393654,-0.626887 0.853904,-1.173994 1.521881,-1.809082 0.782496,-0.743969 1.382226,-1.157428 2.405679,-1.6585 l 0.8552643,-0.418729 0.0027,-10.490674 c 0.003,-11.7948751 -0.02737,-10.8943311 0.396276,-11.7535571 0.194268,-0.394004 0.312141,-0.55518 0.652722,-0.89251 0.340277,-0.337028 0.503665,-0.454304 0.90111,-0.646793 1.813986,-0.878536 3.885221,-0.173501 4.742442,1.614297 0.383497,0.799804 0.349071,-0.2547 0.378024,11.5797871 l 0.02597,10.615907 0.512194,0.228315 c 4.180672,1.863574 6.509456,6.426674 5.524538,10.824912 -0.649299,2.899465 -2.544958,5.310217 -5.220412,6.638917 -1.613023,0.801068 -3.607186,1.157804 -5.426066,0.970676 z m 2.660617,-1.615324 c 1.122548,-0.226608 2.299828,-0.72676 3.204004,-1.361188 0.621164,-0.435844 1.515117,-1.320624 1.959537,-1.939428 0.653467,-0.90988 1.14752,-2.058516 1.378437,-3.204773 0.165584,-0.821944 0.165906,-2.202848 6.67e-4,-3.022673 -0.579833,-2.877555 -2.568226,-5.187529 -5.301484,-6.158899 -0.248513,-0.08832 -0.510606,-0.206363 -0.582424,-0.262316 -0.284332,-0.22152 -0.271826,0.102024 -0.271826,-7.033152 v -6.596597 h -1.99755 -1.997556 v 1.97849 1.978491 h 0.87656 c 0.797923,0 0.893876,0.0096 1.069569,0.107442 0.378163,0.21051 0.516952,0.685734 0.294719,1.009145 -0.248396,0.361485 -0.304365,0.378237 -1.322475,0.395848 l -0.918374,0.01589 v 1.975288 1.975288 h 0.872375 c 0.974038,0 1.137948,0.03717 1.327641,0.30102 0.247335,0.344035 0.171971,0.78317 -0.180087,1.049334 l -0.193375,0.146195 -0.913278,0.01679 -0.913276,0.01679 -0.0011,1.099279 c -0.0015,1.459701 -0.05104,1.569217 -0.818386,1.808922 -0.154939,0.0484 -0.535976,0.208682 -0.8467493,0.356178 -2.013061,0.955431 -3.57825,2.726358 -4.239254,4.796487 -0.327919,1.026974 -0.369053,1.313638 -0.367189,2.55896 0.0015,1.043028 0.01111,1.155782 0.145837,1.722819 0.259437,1.091875 0.608821,1.894991 1.214987,2.792843 1.29547,1.918844 3.4764413,3.260352 5.8082173,3.572616 0.583195,0.0781 2.121018,0.02416 2.711836,-0.09509 z M 15.628727,8.7109379 c -0.01445,-3.534301 -0.0146,-3.538785 -0.129514,-3.819899 -0.237652,-0.581368 -0.646812,-0.965052 -1.242715,-1.16534 -0.444545,-0.149416 -1.034805,-0.121951 -1.452826,0.0676 -0.398716,0.180795 -0.767579,0.539814 -0.967285,0.94147 -0.16396,0.329762 -0.166239,0.344387 -0.183903,1.18063 l -0.01789,0.846733 0.918359,0.01687 0.918359,0.01687 0.193374,0.146197 c 0.346884,0.262252 0.427469,0.705235 0.18871,1.037341 -0.196932,0.273924 -0.363373,0.313013 -1.332845,0.313013 h -0.875793 v 1.9784901 1.978491 h 1.999214 1.999216 z"
   id="path12611" /><path
   style="fill:#000000;stroke-width:0.0641155"
   d="m 20.554029,8.8119929 c -0.858459,-0.172924 -1.727969,-0.746548 -2.239027,-1.477108 -0.714168,-1.020907 -0.714168,-2.442638 0,-3.463545 1.258578,-1.799144 3.87129,-2.078694 5.48444,-0.586815 1.41961,1.312866 1.41961,3.324309 0,4.637175 -0.875757,0.809927 -2.047987,1.131495 -3.245413,0.890293 z m 1.260058,-1.825303 c 0.325261,-0.08362 0.764364,-0.449355 0.920466,-0.766676 0.160026,-0.325295 0.160026,-0.908508 0,-1.233803 -0.156104,-0.317321 -0.595205,-0.68306 -0.920466,-0.766676 -1.202746,-0.3092 -2.290563,0.598594 -2.026472,1.691107 0.204275,0.845055 1.091804,1.31633 2.026472,1.076048 z"
   id="path12613" /><path
   style="fill:#ff2a2a;stroke-width:0.050974"
   d="M 12.571026,43.397093 C 9.4516107,42.964381 6.8553107,40.876405 5.8383307,37.982582 c -0.348,-0.990236 -0.416724,-1.427398 -0.416724,-2.650803 0,-0.953994 0.01479,-1.156141 0.118058,-1.61276 0.177102,-0.783142 0.337762,-1.23549 0.69746,-1.963742 0.938695,-1.900495 2.511537,-3.291092 4.5866983,-4.055239 0.526858,-0.194007 0.744648,-0.362316 0.820976,-0.634451 0.02783,-0.09924 0.05074,-0.65225 0.05089,-1.228908 l 2.56e-4,-1.048467 0.883535,-0.01687 c 1.00726,-0.01924 1.146603,-0.06285 1.359429,-0.425543 0.217975,-0.371468 0.09718,-0.810085 -0.296106,-1.0752 -0.159534,-0.107541 -0.220728,-0.114143 -1.058092,-0.114143 h -0.888766 v -1.92776 -1.92776 l 0.832316,-0.0011 c 0.945112,-0.0013 1.156183,-0.05664 1.375186,-0.36077 0.164644,-0.228643 0.173484,-0.67975 0.01737,-0.886842 -0.251315,-0.333396 -0.302888,-0.34781 -1.306504,-0.36517 l -0.918375,-0.01589 V 15.746607 13.82205 h 1.946338 1.946337 v 6.599983 c 0,5.984342 0.0078,6.61617 0.08314,6.773522 0.107645,0.22468 0.251661,0.317371 0.813195,0.523379 2.739614,1.005073 4.684812,3.26258 5.260204,6.104751 0.154445,0.762884 0.164923,2.142685 0.02205,2.903195 -0.294746,1.568904 -1.057488,3.047215 -2.1542,4.175155 -1.202764,1.237016 -2.709543,2.06372 -4.375181,2.400472 -0.566717,0.114572 -2.124482,0.169832 -2.666839,0.0946 z"
   id="path12617" /><text
   xml:space="preserve"
   style="font-style:normal;font-variant:normal;font-weight:bold;font-stretch:normal;font-size:9.80931px;font-family:'Rockwell Extra Bold';-inkscape-font-specification:'Rockwell Extra Bold,  Bold';fill:#000000;stroke-width:0.131374"
   x="39.825752"
   y="9.2655821"
   id="text12673"
   transform="scale(0.95198475,1.050437)"><tspan
     sodipodi:role="line"
     id="tspan12671"
     style="font-style:normal;font-variant:normal;font-weight:bold;font-stretch:normal;font-size:9.80931px;font-family:'Rockwell Extra Bold';-inkscape-font-specification:'Rockwell Extra Bold,  Bold';fill:#000000;stroke-width:0.131374"
     x="39.825752"
     y="9.2655821">%</tspan></text><path
   style="fill:#000000;stroke-width:0.050974"
   d="m 32.926412,44.942173 c -2.148865,-0.260332 -4.18493,-1.247844 -5.740883,-2.784376 -3.771266,-3.724178 -3.837823,-9.701606 -0.150508,-13.51636 0.816037,-0.84424 1.934669,-1.625102 3.023102,-2.110285 l 0.512196,-0.228315 0.02804,-10.615907 c 0.02248,-8.5033341 0.04137,-10.6663841 0.09497,-10.8695601 0.172128,-0.652461 0.682452,-1.480023 1.149028,-1.863312 1.130241,-0.928474 2.558526,-1.098499 3.87439,-0.461212 0.398092,0.192804 0.560692,0.30963 0.903448,0.649114 0.345341,0.34204 0.458497,0.497163 0.651077,0.892511 0.423304,0.868988 0.39292,-0.03957 0.39292,11.7522011 v 10.49164 l 0.489933,0.222592 c 1.12076,0.509195 1.962332,1.0723 2.799325,1.873064 0.88204,0.843858 1.430456,1.570362 1.953404,2.587738 0.52282,1.017134 0.828477,2.001782 0.986469,3.177905 0.09988,0.743496 0.072,2.093338 -0.05816,2.815545 -0.338601,1.878801 -1.222009,3.620793 -2.523937,4.976973 -0.889661,0.926732 -1.680645,1.504624 -2.837733,2.073256 -1.730785,0.850564 -3.62221,1.169984 -5.547091,0.936788 z m 2.868281,-1.595108 c 2.155326,-0.452364 4.053554,-1.709788 5.244811,-3.47426 0.605792,-0.897296 0.95494,-1.699639 1.215352,-2.792842 0.136124,-0.571473 0.144528,-0.673109 0.144528,-1.748184 0,-1.073871 -0.0086,-1.177473 -0.144276,-1.750203 -0.500356,-2.111248 -1.685881,-3.837832 -3.436845,-5.005401 -0.495728,-0.33056 -1.417073,-0.788814 -1.871129,-0.930656 -0.417789,-0.130508 -0.614373,-0.26716 -0.721993,-0.501877 -0.09129,-0.19909 -0.09532,-0.482574 -0.0964,-6.79005 l -0.0012,-6.582285 h -1.997489 -1.997553 v 1.97849 1.978491 l 0.883537,8.4e-5 c 0.73894,5e-5 0.9127,0.01459 1.06178,0.08878 0.557281,0.277314 0.549541,1.080576 -0.01284,1.333432 -0.185604,0.08345 -0.339492,0.09756 -1.074548,0.09851 l -0.857925,0.0011 v 1.978491 1.97849 l 0.909141,1.68e-4 c 0.816828,1.68e-4 0.926092,0.01043 1.076072,0.100998 0.493641,0.298102 0.495305,1.000123 0.0032,1.293902 -0.14958,0.08927 -0.27922,0.103479 -1.079144,0.11825 l -0.909145,0.01679 -1.68e-4,1.15001 c -2e-4,1.481346 0.0064,1.467738 -0.87054,1.781463 -2.724097,0.974543 -4.706542,3.282756 -5.28501,6.153483 -0.164857,0.818092 -0.164857,2.20092 0,3.019014 0.721928,3.582605 3.562705,6.167493 7.282583,6.626585 0.0986,0.01216 0.594144,0.01416 1.101213,0.0044 0.688796,-0.01324 1.05148,-0.04491 1.434144,-0.125224 z m 0.321764,-34.6868581 -0.01448,-3.589184 -0.137344,-0.290162 c -0.432964,-0.914682 -1.499468,-1.374233 -2.448785,-1.055162 -0.598128,0.201035 -1.011353,0.589716 -1.238941,1.16534 -0.09258,0.234176 -0.114948,0.414936 -0.133124,1.076266 l -0.02184,0.794822 0.914421,0.01687 c 0.805128,0.01485 0.934732,0.02899 1.08442,0.118328 0.492233,0.293777 0.490565,0.995801 -0.0032,1.293902 -0.149984,0.09057 -0.259248,0.100827 -1.076076,0.100997 l -0.909145,1.93e-4 v 1.9784911 1.97849 h 1.999197 1.999193 z"
   id="path13398" /><path
   style="fill:#4d4d4d;stroke-width:0.050974"
   d="m 12.053312,43.277957 c -0.806738,-0.17264 -1.285239,-0.341596 -2.0999953,-0.74148 -2.138058,-1.049372 -3.661453,-2.912792 -4.31404,-5.276938 -0.123144,-0.446117 -0.134686,-0.578457 -0.15529,-1.780428 l -0.02226,-1.298488 0.155305,-0.63241 c 0.380475,-1.549303 1.079112,-2.784227 2.207276,-3.901624 0.89046,-0.881959 1.72987,-1.416572 3.0251003,-1.926656 0.564675,-0.222377 0.768371,-0.404592 0.823373,-0.736541 0.02283,-0.137738 0.04287,-0.678475 0.04455,-1.201633 0.0017,-0.523161 0.02034,-0.952571 0.04147,-0.95425 0.02113,-0.0017 0.437189,-0.02093 0.924582,-0.04277 1.01299,-0.04541 1.076896,-0.06917 1.283576,-0.477397 0.177898,-0.351377 0.125298,-0.630621 -0.17477,-0.927826 l -0.22521,-0.223062 h -0.923296 -0.923297 v -1.92776 -1.92776 h 0.807043 c 0.443874,0 0.885828,-0.02238 0.982118,-0.04973 0.546473,-0.15523 0.737935,-0.941164 0.324456,-1.331864 -0.21789,-0.205884 -0.377626,-0.241736 -1.079759,-0.24234 -0.357342,-3.32e-4 -0.736145,-0.01471 -0.841785,-0.032 l -0.192073,-0.03145 v -1.895756 -1.895757 h 1.920727 1.920727 l 0.0033,6.303267 c 0.0017,3.466798 0.02183,6.496397 0.04457,6.732442 0.03819,0.396459 0.05362,0.439322 0.20233,0.562289 0.08854,0.07321 0.385405,0.219727 0.659697,0.32559 2.285854,0.882221 3.957097,2.500807 4.83038,4.678188 0.427206,1.065166 0.613713,2.380851 0.511768,3.610213 -0.263662,3.179546 -2.565734,6.011658 -5.688553,6.99831 -0.859188,0.271456 -1.216885,0.322768 -2.407311,0.345324 -1.013394,0.0192 -1.146148,0.01124 -1.66463,-0.0997 z"
   id="path14306" /><path
   style="fill:#999999;stroke-width:0.050974"
   d="m 32.899604,43.371229 c -3.439374,-0.552252 -6.132715,-3.071908 -6.844335,-6.402959 -0.204565,-0.957546 -0.204261,-2.306704 8e-4,-3.272981 0.581956,-2.743167 2.489753,-4.946237 5.147966,-5.944727 0.676924,-0.25427 0.771712,-0.318143 0.90784,-0.611762 0.08174,-0.176299 0.09423,-0.343701 0.09521,-1.275926 l 0.0012,-1.073004 0.883537,-0.01769 c 0.81448,-0.01633 0.898264,-0.02677 1.071972,-0.133758 0.252901,-0.155756 0.423105,-0.502137 0.384997,-0.783504 -0.03268,-0.241397 -0.155604,-0.423844 -0.393645,-0.584309 -0.159536,-0.107543 -0.220728,-0.114145 -1.058092,-0.114145 h -0.888771 v -1.927761 -1.927759 h 0.834269 c 0.763308,0 0.853708,-0.0097 1.062804,-0.114144 0.451725,-0.225615 0.584425,-0.788364 0.279333,-1.184543 -0.222329,-0.288703 -0.369697,-0.324691 -1.329637,-0.324691 h -0.846797 v -1.92777 -1.927759 h 1.946341 1.946337 v 6.599984 c 0,5.984343 0.0078,6.616171 0.08314,6.773523 0.107756,0.224914 0.25214,0.317706 0.813197,0.522636 0.992069,0.362358 1.919033,0.914276 2.664669,1.586563 1.270653,1.145651 2.046405,2.416421 2.498529,4.092877 0.158184,0.586551 0.159072,0.597066 0.16134,1.908793 0.002,1.224563 -0.0065,1.353497 -0.119604,1.800934 -0.3819,1.510117 -1.0597,2.748534 -2.076881,3.794674 -1.202696,1.236952 -2.654889,2.03532 -4.357322,2.395532 -0.678892,0.143644 -2.190685,0.182476 -2.868285,0.07368 z"
   id="path14308" /></svg>
