<?xml version="1.0" encoding="UTF-8" standalone="no"?>
<!-- Uploaded to: SVG Repo, www.svgrepo.com, Generator: SVG Repo Mixer Tools -->

<svg
   version="1.1"
   id="temperaturecomparison"
   viewBox="0 0 140.65643 122.07794"
   enable-background="new 0 0 204 220"
   xml:space="preserve"
   width="353.02005"
   height="284.10864"
   sodipodi:docname="attic-idle.svg"
   inkscape:version="1.2 (dc2aedaf03, 2022-05-15)"
   xmlns:inkscape="http://www.inkscape.org/namespaces/inkscape"
   xmlns:sodipodi="http://sodipodi.sourceforge.net/DTD/sodipodi-0.dtd"
   xmlns="http://www.w3.org/2000/svg"
   xmlns:svg="http://www.w3.org/2000/svg"><defs
   id="defs12054" /><sodipodi:namedview
   id="namedview12052"
   pagecolor="#ffffff"
   bordercolor="#000000"
   borderopacity="0.25"
   inkscape:showpageshadow="2"
   inkscape:pageopacity="0.0"
   inkscape:pagecheckerboard="0"
   inkscape:deskcolor="#d1d1d1"
   showgrid="false"
   inkscape:zoom="1.6542969"
   inkscape:cx="167.74498"
   inkscape:cy="209.75679"
   inkscape:window-width="1920"
   inkscape:window-height="1027"
   inkscape:window-x="-8"
   inkscape:window-y="-8"
   inkscape:window-maximized="1"
   inkscape:current-layer="temperaturecomparison"
   showguides="false" />
<g
   id="g12041"
   transform="matrix(0.4929864,0,0,0.48828125,19.876239,7.7922077)">
	<path
   fill="#d0e8ff"
   d="M 62.7891,130.5391 C 61.1289,130.0117 60,128.4707 60,126.7266 V 60.0196 H 40 V 80 h 8 c 2.2109,0 4,1.791 4,4 0,2.209 -1.7891,4 -4,4 h -8 v 20 h 8 c 2.2109,0 4,1.791 4,4 0,2.209 -1.7891,4 -4,4 h -8 v 10.7266 c 0,1.7441 -1.1289,3.2852 -2.7891,3.8125 C 19.7383,136.082 8,152.0547 8,170.2852 8,193.2871 26.8398,212 50,212 73.1602,212 92,193.2871 92,170.2852 92,152.0547 80.2617,136.082 62.7891,130.5391 Z"
   id="path12029" />
	<path
   fill="#ffffff"
   d="m 48,24 c 2.2109,0 4,1.791 4,4 0,2.209 -1.7891,4 -4,4 H 40 V 52 H 60 V 18.0039 C 60,12.4883 55.5156,8 50,8 44.4844,8 40,12.4883 40,18.0039 V 24 Z"
   id="path12031" />
	<path
   fill="#5cb0ff"
   d="M 166.7891,130.5391 C 165.1289,130.0118 164,128.4707 164,126.7266 V 60.0196 H 144 V 80 h 8 c 2.2109,0 4,1.791 4,4 0,2.209 -1.7891,4 -4,4 h -8 v 20 h 8 c 2.2109,0 4,1.791 4,4 0,2.209 -1.7891,4 -4,4 h -8 v 10.7266 c 0,1.7441 -1.1289,3.2852 -2.7891,3.8125 C 123.7383,136.082 112,152.0547 112,170.2852 112,193.2871 130.8398,212 154,212 c 23.1602,0 42,-18.7129 42,-41.7148 0,-18.2305 -11.7383,-34.2032 -29.2109,-39.7461 z"
   id="path12033" />
	<path
   fill="#ffffff"
   d="m 152,24 c 2.2109,0 4,1.791 4,4 0,2.209 -1.7891,4 -4,4 h -8 v 20 h 20 V 18.0039 C 164,12.4883 159.5156,8 154,8 148.4844,8 144,12.4883 144,18.0039 V 24 Z"
   id="path12035" />
	<path
   fill="#1c71da"
   d="M 68,123.8887 V 60 56.0195 18.0039 C 68,8.0762 59.9258,0 50,0 40.0742,0 32,8.0762 32,18.0039 V 56.0195 60 123.8887 C 12.7422,131.2481 0,149.5391 0,170.2852 0,197.6973 22.4297,220 50,220 c 27.5703,0 50,-22.3027 50,-49.7148 0,-20.7461 -12.7422,-39.0372 -32,-46.3965 z M 50,8 c 5.5156,0 10,4.4883 10,10.0039 V 52 H 40 V 32 h 8 c 2.2109,0 4,-1.791 4,-4 0,-2.209 -1.7891,-4 -4,-4 H 40 V 18.0039 C 40,12.4883 44.4844,8 50,8 Z m 0,204 C 26.8398,212 8,193.2871 8,170.2852 8,152.0547 19.7383,136.0821 37.2109,130.5391 38.8711,130.0117 40,128.4707 40,126.7266 V 116 h 8 c 2.2109,0 4,-1.791 4,-4 0,-2.209 -1.7891,-4 -4,-4 H 40 V 88 h 8 c 2.2109,0 4,-1.791 4,-4 0,-2.209 -1.7891,-4 -4,-4 H 40 V 60.0195 h 20 v 66.707 c 0,1.7441 1.1289,3.2852 2.7891,3.8125 C 80.2617,136.082 92,152.0547 92,170.2852 92,193.2871 73.1602,212 50,212 Z"
   id="path12037" />
	<path
   fill="#1c71da"
   d="M 172,123.8887 V 60 56.0195 18.0039 C 172,8.0762 163.9258,0 154,0 144.0742,0 136,8.0762 136,18.0039 V 56.0195 60 123.8887 c -19.2578,7.3594 -32,25.6504 -32,46.3965 0,27.4121 22.4297,49.7148 50,49.7148 27.5703,0 50,-22.3027 50,-49.7148 0,-20.7461 -12.7422,-39.0372 -32,-46.3965 z M 154,8 c 5.5156,0 10,4.4883 10,10.0039 V 52 H 144 V 32 h 8 c 2.2109,0 4,-1.791 4,-4 0,-2.209 -1.7891,-4 -4,-4 h -8 V 18.0039 C 144,12.4883 148.4844,8 154,8 Z m 0,204 c -23.1602,0 -42,-18.7129 -42,-41.7148 0,-18.2305 11.7383,-34.2031 29.2109,-39.7461 1.6602,-0.5273 2.7891,-2.0684 2.7891,-3.8125 V 116 h 8 c 2.2109,0 4,-1.791 4,-4 0,-2.209 -1.7891,-4 -4,-4 h -8 V 88 h 8 c 2.2109,0 4,-1.791 4,-4 0,-2.209 -1.7891,-4 -4,-4 h -8 V 60.0195 h 20 v 66.707 c 0,1.7441 1.1289,3.2852 2.7891,3.8125 C 184.2617,136.082 196,152.0547 196,170.2852 196,193.2871 177.1602,212 154,212 Z"
   id="path12039" />
</g>




<path
   style="fill:#000000;stroke-width:0.127435"
   d="m 41.926172,115.01154 c -4.644938,-0.47787 -9.515746,-2.52375 -13.144804,-5.52119 -3.708372,-3.06294 -6.553778,-7.35231 -7.852132,-11.836858 -0.626263,-2.16313 -0.850298,-3.624468 -0.924311,-6.029101 -0.15251,-4.95501 1.050964,-9.337163 3.740544,-13.620264 0.984136,-1.567217 2.134761,-2.934985 3.804702,-4.522705 1.956239,-1.859922 3.455564,-2.893569 6.014194,-4.14625 l 2.138161,-1.046821 0.0066,-26.226683 c 0.0075,-29.487189 -0.06843,-27.235828 0.99069,-29.383892 0.485669,-0.98501 0.780352,-1.387951 1.631803,-2.231275 0.850691,-0.8425713 1.259163,-1.1357613 2.252775,-1.616982 4.534962,-2.1963409 9.713047,-0.4337535 11.856099,4.03574 0.958739,1.999512 0.872674,-0.636747 0.945058,28.949467 l 0.06493,26.539767 1.280487,0.570786 c 10.451675,4.658936 16.273631,16.066685 13.811337,27.062281 -1.623248,7.24866 -6.362392,13.27554 -13.051024,16.59729 -4.032554,2.00267 -9.017958,2.89451 -13.565158,2.42669 z m 6.651539,-4.03831 c 2.806368,-0.56652 5.749565,-1.8169 8.010005,-3.40297 1.552909,-1.08961 3.787791,-3.30156 4.89884,-4.84857 1.633666,-2.2747 2.868799,-5.146289 3.446092,-8.011933 0.41396,-2.054859 0.414765,-5.507119 0.0017,-7.55668 C 63.484733,79.95919 58.513752,74.184254 51.680613,71.755831 51.059329,71.53503 50.4041,71.239923 50.224554,71.10004 49.513725,70.546241 49.544988,71.355099 49.544988,53.517162 V 37.02567 h -4.993871 -4.99389 v 4.946225 4.946226 h 2.1914 c 1.994806,0 2.234688,0.0241 2.673922,0.268605 0.945406,0.526277 1.292378,1.714336 0.736797,2.522863 -0.620991,0.903712 -0.760913,0.945594 -3.306186,0.98962 l -2.295935,0.03971 v 4.93822 4.938221 h 2.180937 c 2.435094,0 2.844869,0.09291 3.319101,0.752549 0.618338,0.860088 0.429927,1.957925 -0.450218,2.623335 l -0.483437,0.365488 -2.283192,0.04199 -2.283191,0.04199 -0.0028,2.748198 c -0.0037,3.649253 -0.127602,3.923042 -2.045963,4.522305 -0.387346,0.121001 -1.339939,0.521704 -2.116871,0.890444 -5.03265,2.388579 -8.945621,6.815894 -10.598131,11.991216 -0.819798,2.567436 -0.922633,3.284097 -0.917973,6.397402 0.0039,2.607569 0.02777,2.889453 0.364594,4.307046 0.648593,2.729688 1.52205,4.737477 3.037465,6.982107 3.238673,4.79711 8.691098,8.15088 14.520536,8.93154 1.457987,0.19525 5.302542,0.0604 6.779588,-0.23773 z M 49.51719,24.374747 c -0.03612,-8.835753 -0.0365,-8.846961 -0.323787,-9.549748 -0.594128,-1.453417 -1.617028,-2.412628 -3.106787,-2.913349 -1.11136,-0.373538 -2.58701,-0.304877 -3.632063,0.168999 -0.996788,0.451989 -1.918944,1.349535 -2.418211,2.353677 -0.4099,0.824403 -0.415597,0.860966 -0.459756,2.951575 l -0.04472,2.116832 2.295895,0.04216 2.295895,0.04216 0.483437,0.365491 c 0.867208,0.65563 1.068672,1.763087 0.471773,2.593353 -0.492328,0.684811 -0.908431,0.782532 -3.332109,0.782532 h -2.189483 v 4.946225 4.946226 h 4.998034 4.998037 z"
   id="path12611" /><path
   style="fill:#000000;stroke-width:0.160288"
   d="m 61.830435,24.627383 c -2.146146,-0.432309 -4.319919,-1.866369 -5.597565,-3.692768 -1.785418,-2.552267 -1.785418,-6.106596 0,-8.658862 3.146444,-4.4978592 9.678221,-5.1967342 13.711095,-1.467038 3.549024,3.282166 3.549024,8.310772 0,11.592938 -2.189393,2.024818 -5.119966,2.828738 -8.11353,2.22573 z m 3.150144,-4.563255 c 0.813152,-0.209043 1.910909,-1.123388 2.301165,-1.916691 0.400063,-0.813237 0.400063,-2.27127 0,-3.084506 -0.390259,-0.793303 -1.488013,-1.707649 -2.301165,-1.916691 -3.006863,-0.772998 -5.726404,1.496485 -5.066177,4.227768 0.510687,2.112638 2.729509,3.290825 5.066177,2.69012 z"
   id="path12613" /><path
   style="fill:#ff2a2a;stroke-width:0.127435"
   d="m 41.872939,111.09013 c -7.798534,-1.08178 -14.289281,-6.30172 -16.83173,-13.536276 -0.869999,-2.475591 -1.041811,-3.568497 -1.041811,-6.627007 0,-2.384986 0.03699,-2.890352 0.295147,-4.0319 0.442756,-1.957856 0.844403,-3.088725 1.743649,-4.909355 2.346737,-4.751236 6.278838,-8.22773 11.46674,-10.138096 1.317145,-0.485019 1.86162,-0.905791 2.052439,-1.586128 0.06959,-0.248105 0.126846,-1.630625 0.127238,-3.07227 l 6.41e-4,-2.621167 2.208836,-0.04219 c 2.518148,-0.0481 2.866506,-0.157134 3.39857,-1.063857 0.544936,-0.928662 0.242952,-2.025205 -0.740263,-2.687993 -0.398836,-0.268853 -0.551821,-0.285357 -2.64523,-0.285357 h -2.221913 v -4.819401 -4.819399 l 2.080789,-0.0028 c 2.362777,-0.0032 2.890455,-0.141595 3.437963,-0.901926 0.411609,-0.571608 0.433709,-1.699374 0.04344,-2.217104 -0.628288,-0.83349 -0.757221,-0.869527 -3.266261,-0.912926 l -2.295934,-0.03971 v -4.811394 -4.811393 h 4.865843 4.865839 V 53.65244 c 0,14.960854 0.01938,16.540425 0.20786,16.933804 0.269112,0.561699 0.629154,0.793427 2.032986,1.308447 6.84903,2.512681 11.712023,8.15645 13.150503,15.261875 0.386112,1.907212 0.412308,5.356714 0.05512,7.257988 -0.736863,3.922261 -2.643718,7.618036 -5.385496,10.437886 -3.006911,3.09254 -6.773853,5.1593 -10.937947,6.00118 -1.416793,0.28643 -5.311202,0.42458 -6.667095,0.23649 z"
   id="path12617" /><text
   xml:space="preserve"
   style="font-style:normal;font-variant:normal;font-weight:bold;font-stretch:normal;font-size:24.5232px;font-family:'Rockwell Extra Bold';-inkscape-font-specification:'Rockwell Extra Bold,  Bold';fill:#000000;stroke-width:0.328436"
   x="110.53658"
   y="25.636642"
   id="text12673"
   transform="scale(0.95198457,1.0504372)"><tspan
     sodipodi:role="line"
     id="tspan12671"
     style="font-style:normal;font-variant:normal;font-weight:bold;font-stretch:normal;font-size:24.5232px;font-family:'Rockwell Extra Bold';-inkscape-font-specification:'Rockwell Extra Bold,  Bold';fill:#000000;stroke-width:0.328436"
     x="110.53658"
     y="25.636642">%</tspan></text><path
   style="fill:#000000;stroke-width:0.127435"
   d="m 92.761379,114.95283 c -5.37216,-0.65083 -10.46232,-3.11961 -14.3522,-6.96094 -9.428161,-9.310444 -9.594555,-24.254013 -0.37627,-33.790898 2.04009,-2.1106 4.83667,-4.062754 7.55775,-5.275713 l 1.28049,-0.570786 0.0701,-26.539767 c 0.0562,-21.258334 0.10343,-26.665959 0.23743,-27.173898 0.43032,-1.631153 1.70613,-3.700057 2.87257,-4.6582786 2.8256,-2.3211862 6.39631,-2.7462496 9.68597,-1.1530304 0.995231,0.4820097 1.401731,0.7740738 2.258621,1.622785 0.86335,0.8551 1.14624,1.242905 1.62769,2.231275 1.05826,2.172472 0.9823,-0.09892 0.9823,29.380502 V 68.29318 l 1.22483,0.556479 c 2.8019,1.272988 4.90583,2.680752 6.99831,4.682661 2.2051,2.109644 3.57614,3.925904 4.88351,6.469346 1.30705,2.542832 2.07119,5.004453 2.46617,7.944761 0.2497,1.85874 0.18,5.233344 -0.1454,7.038862 -0.8465,4.697002 -3.05502,9.051981 -6.30984,12.442431 -2.22415,2.31683 -4.20161,3.76156 -7.09433,5.18314 -4.32696,2.12641 -9.055521,2.92496 -13.867721,2.34197 z m 7.1707,-3.98777 c 5.388311,-1.13091 10.133881,-4.27447 13.112021,-8.68565 1.51448,-2.24324 2.38735,-4.249097 3.03838,-6.982104 0.34031,-1.428682 0.36132,-1.682774 0.36132,-4.370459 0,-2.684678 -0.0214,-2.943682 -0.36069,-4.375508 -1.25089,-5.27812 -4.2147,-9.59458 -8.59211,-12.513501 -1.23932,-0.826401 -3.54268,-1.972036 -4.67782,-2.326641 -1.04447,-0.326269 -1.53593,-0.6679 -1.80498,-1.254692 -0.22823,-0.497725 -0.23829,-1.206436 -0.24099,-16.975124 l -0.003,-16.455711 h -4.993721 -4.99388 v 4.946225 4.946226 l 2.20884,2.1e-4 c 1.84735,1.26e-4 2.28175,0.03649 2.65445,0.221945 1.3932,0.693287 1.37385,2.701442 -0.0321,3.333582 -0.46401,0.208621 -0.84873,0.243894 -2.68637,0.24628 l -2.14481,0.0027 v 4.946226 4.946225 l 2.27285,4.2e-4 c 2.04207,4.2e-4 2.31523,0.02607 2.69018,0.252495 1.2341,0.745254 1.23826,2.500308 0.008,3.234756 -0.37395,0.223179 -0.69805,0.258696 -2.69786,0.295625 l -2.27286,0.04199 -4.2e-4,2.875025 c -5e-4,3.703364 0.016,3.669345 -2.17635,4.453657 -6.81024,2.436357 -11.76635,8.20689 -13.21252,15.383706 -0.41214,2.04523 -0.41214,5.5023 0,7.547534 1.80482,8.956513 8.90676,15.418733 18.20645,16.566463 0.24649,0.0304 1.48536,0.0354 2.75303,0.011 1.72199,-0.0331 2.6287,-0.11228 3.58536,-0.31306 z m 0.804411,-86.71714 -0.0362,-8.972961 -0.34336,-0.725405 c -1.082411,-2.286704 -3.748671,-3.435581 -6.121961,-2.637904 -1.49532,0.502588 -2.52838,1.474292 -3.09735,2.913349 -0.23146,0.585441 -0.28737,1.03734 -0.33281,2.690667 l -0.0546,1.987054 2.28605,0.04217 c 2.01282,0.03713 2.33683,0.07248 2.71105,0.29582 1.23058,0.734444 1.22641,2.489502 -0.008,3.234755 -0.37496,0.226429 -0.64812,0.252067 -2.69019,0.252493 l -2.27286,4.83e-4 v 4.946226 4.946226 h 4.99799 4.997981 z"
   id="path13398" /><path
   style="fill:#4d4d4d;stroke-width:0.127435"
   d="m 40.578655,110.79229 c -2.016844,-0.4316 -3.213096,-0.85399 -5.249985,-1.8537 -5.345142,-2.62343 -9.15363,-7.28198 -10.785096,-13.192344 -0.307859,-1.115293 -0.336716,-1.446142 -0.388226,-4.451069 l -0.05565,-3.246221 0.388264,-1.581025 c 0.951187,-3.873257 2.69778,-6.960567 5.518187,-9.754058 2.226148,-2.204897 4.324673,-3.541431 7.562747,-4.816641 1.411686,-0.555942 1.920926,-1.011479 2.058433,-1.841352 0.05706,-0.344346 0.107176,-1.696187 0.111374,-3.004082 0.0042,-1.307901 0.05085,-2.381426 0.10367,-2.385625 0.05282,-0.0044 1.092974,-0.05232 2.311455,-0.106934 2.532475,-0.11351 2.692239,-0.172934 3.208939,-1.193491 0.444745,-0.878442 0.313246,-1.576553 -0.436925,-2.319565 l -0.563023,-0.557647 h -2.30824 -2.308242 v -4.819401 -4.819399 h 2.017607 c 1.109684,0 2.214567,-0.05595 2.455295,-0.124328 1.366181,-0.388076 1.844834,-2.35291 0.811137,-3.32966 -0.544723,-0.514713 -0.944063,-0.604341 -2.699395,-0.60585 -0.893356,-8.3e-4 -1.840363,-0.03677 -2.104463,-0.08 l -0.480181,-0.07861 v -4.73939 -4.739392 h 4.801814 4.801816 l 0.0081,15.758166 c 0.0044,8.666994 0.05457,16.240993 0.111423,16.831106 0.09548,0.991147 0.134043,1.098305 0.505822,1.405722 0.22135,0.183028 0.963512,0.549317 1.649244,0.813975 5.714629,2.205552 9.892734,6.252016 12.075941,11.695469 1.068016,2.662915 1.534282,5.952128 1.279421,9.025532 -0.659155,7.948864 -6.414332,15.029144 -14.221375,17.495774 -2.147968,0.67864 -3.042212,0.80692 -6.018275,0.86331 -2.533485,0.048 -2.86537,0.0281 -4.161573,-0.24926 z"
   id="path14306" /><path
   style="fill:#999999;stroke-width:0.127435"
   d="m 92.694359,111.02547 c -8.59843,-1.38063 -15.33178,-7.67977 -17.11083,-16.007398 -0.51141,-2.393862 -0.51065,-5.766758 0.002,-8.182451 1.45489,-6.857915 6.22438,-12.365591 12.86991,-14.861816 1.69231,-0.635674 1.92928,-0.795357 2.2696,-1.529405 0.20434,-0.440747 0.23557,-0.859253 0.23802,-3.189814 l 0.003,-2.68251 2.20884,-0.04424 c 2.0362,-0.04082 2.24566,-0.06693 2.67993,-0.334395 0.63225,-0.389389 1.05776,-1.255341 0.96249,-1.958759 -0.0817,-0.603492 -0.38901,-1.05961 -0.98411,-1.460772 -0.39884,-0.268852 -0.55182,-0.285356 -2.64523,-0.285356 h -2.22192 v -4.819402 -4.819398 h 2.08567 c 1.90827,0 2.13427,-0.02427 2.65701,-0.285359 1.12931,-0.564038 1.46106,-1.97091 0.69833,-2.961358 -0.55582,-0.721758 -0.92424,-0.811726 -3.32409,-0.811726 h -2.11699 v -4.819418 -4.819398 h 4.86585 4.865841 v 16.499958 c 0,14.960857 0.0194,16.540427 0.20786,16.933806 0.26939,0.562285 0.63035,0.794267 2.03299,1.306592 2.48017,0.905893 4.79758,2.285688 6.66167,3.966406 3.17663,2.864126 5.11601,6.041054 6.24632,10.232192 0.39546,1.466377 0.39768,1.492666 0.40335,4.771983 0.005,3.061406 -0.0161,3.38374 -0.29901,4.502334 -0.95475,3.775293 -2.64925,6.871334 -5.1922,9.486684 -3.00674,3.09238 -6.63722,5.0883 -10.893301,5.98883 -1.69723,0.35911 -5.47671,0.45619 -7.17071,0.18419 z"
   id="path14308" /></svg>
