<?xml version="1.0" encoding="UTF-8" standalone="no"?>
<!-- Uploaded to: SVG Repo, www.svgrepo.com, Generator: SVG Repo Mixer Tools -->

<svg
   version="1.1"
   id="temperaturecomparison"
   viewBox="0 0 142.10154 123.11688"
   enable-background="new 0 0 204 220"
   xml:space="preserve"
   width="356.64697"
   height="286.52658"
   sodipodi:docname="attic-humidity.svg"
   inkscape:version="1.2 (dc2aedaf03, 2022-05-15)"
   xmlns:inkscape="http://www.inkscape.org/namespaces/inkscape"
   xmlns:sodipodi="http://sodipodi.sourceforge.net/DTD/sodipodi-0.dtd"
   xmlns="http://www.w3.org/2000/svg"
   xmlns:svg="http://www.w3.org/2000/svg"><defs
   id="defs12054" /><sodipodi:namedview
   id="namedview12052"
   pagecolor="#ffffff"
   bordercolor="#000000"
   borderopacity="0.25"
   inkscape:showpageshadow="2"
   inkscape:pageopacity="0.0"
   inkscape:pagecheckerboard="0"
   inkscape:deskcolor="#d1d1d1"
   showgrid="false"
   inkscape:zoom="1.6542969"
   inkscape:cx="159.28217"
   inkscape:cy="193.43565"
   inkscape:window-width="1920"
   inkscape:window-height="1027"
   inkscape:window-x="-8"
   inkscape:window-y="-8"
   inkscape:window-maximized="1"
   inkscape:current-layer="temperaturecomparison"
   showguides="false" />





<text
   xml:space="preserve"
   style="font-style:normal;font-variant:normal;font-weight:bold;font-stretch:normal;font-size:24.4954px;font-family:'Rockwell Extra Bold';-inkscape-font-specification:'Rockwell Extra Bold,  Bold';fill:#000000;stroke-width:0.328064"
   x="87.044426"
   y="24.442724"
   id="text12673"
   transform="scale(0.91294945,1.0953509)"><tspan
     sodipodi:role="line"
     id="tspan12671"
     style="font-style:normal;font-variant:normal;font-weight:bold;font-stretch:normal;font-size:24.4954px;font-family:'Rockwell Extra Bold';-inkscape-font-specification:'Rockwell Extra Bold,  Bold';fill:#000000;stroke-width:0.328064"
     x="87.044426"
     y="24.442724">%</tspan></text><path
   style="fill:#000000;stroke-width:0.127292"
   d="m 67.524188,118.45624 c -5.146045,-0.67789 -10.021971,-3.24931 -13.748133,-7.25035 -9.031329,-9.69754 -9.19072,-25.262421 -0.360426,-35.195821 1.954226,-2.198353 4.633098,-4.231671 7.239657,-5.495061 l 1.226593,-0.594518 0.06717,-27.643211 c 0.05382,-22.142192 0.09907,-27.77465 0.227434,-28.303707 0.412202,-1.698971 1.634313,-3.853895 2.751668,-4.8519561 2.706667,-2.417694 6.127087,-2.8604306 9.278287,-1.20097 0.95334,0.50205 1.34274,0.806257 2.16356,1.690256 0.827,0.8906521 1.098,1.2945811 1.55918,2.3240441 1.01372,2.262798 0.94096,-0.103031 0.94096,30.602055 v 27.319627 l 1.17327,0.579616 c 2.68397,1.325915 4.69934,2.792209 6.70375,4.877352 2.11229,2.197356 3.42561,4.089131 4.67796,6.738322 1.25204,2.648555 1.98401,5.212523 2.36237,8.27508 0.23919,1.936021 0.17242,5.450931 -0.13929,7.331519 -0.81087,4.892293 -2.92643,9.428333 -6.04425,12.959743 -2.13053,2.41316 -4.02475,3.91796 -6.79572,5.39864 -4.14484,2.21482 -8.67438,3.04658 -13.28404,2.43934 z m 6.86889,-4.15356 c 5.16153,-1.17793 9.70736,-4.45219 12.56013,-9.04677 1.45073,-2.33651 2.28687,-4.42577 2.91049,-7.272403 0.326,-1.488085 0.34612,-1.752741 0.34612,-4.552172 0,-2.796299 -0.0204,-3.066071 -0.34551,-4.557429 -1.19824,-5.497568 -4.0373,-9.993494 -8.23045,-13.033775 -1.18717,-0.86076 -3.39358,-2.054027 -4.48095,-2.423375 -1.0005,-0.339835 -1.47128,-0.69567 -1.729,-1.306859 -0.21863,-0.518418 -0.22827,-1.256595 -0.23085,-17.680898 l -0.003,-17.139891 h -4.78357 -4.7837 v 5.151875 5.151875 l 2.11587,2.18e-4 c 1.7696,1.31e-4 2.18572,0.03801 2.54273,0.231174 1.33456,0.722111 1.31603,2.81376 -0.0307,3.472182 -0.44447,0.217295 -0.81301,0.254034 -2.5733,0.256519 l -2.054538,0.0028 v 5.151875 5.151875 l 2.177188,4.37e-4 c 1.95613,4.38e-4 2.21779,0.02716 2.57696,0.262993 1.18215,0.77624 1.18614,2.604263 0.007,3.369248 -0.35821,0.232457 -0.66868,0.269452 -2.58431,0.307916 l -2.177196,0.04374 -4.06e-4,2.994559 c -4.72e-4,3.857339 0.01535,3.821906 -2.084742,4.638827 -6.523603,2.537654 -11.271119,8.548108 -12.656426,16.023315 -0.394781,2.130264 -0.394781,5.731069 0,7.861341 1.728873,9.328893 8.531885,16.059793 17.44016,17.255243 0.23612,0.0317 1.42284,0.0369 2.63716,0.0114 1.64951,-0.0345 2.51806,-0.11694 3.43445,-0.32607 z m 0.77054,-90.322582 -0.0346,-9.34603 -0.32891,-0.755565 c -1.03684,-2.381779 -3.59089,-3.578422 -5.86428,-2.74758 -1.43238,0.523484 -2.42197,1.535588 -2.966988,3.034477 -0.22172,0.609782 -0.275272,1.080469 -0.318802,2.802537 l -0.05233,2.069669 2.18982,0.04392 c 1.92811,0.03867 2.23849,0.0755 2.59695,0.308119 1.17879,0.764981 1.17479,2.593009 -0.007,3.369247 -0.35917,0.235844 -0.62084,0.262548 -2.57696,0.262991 l -2.177202,5.03e-4 v 5.151875 5.151876 h 4.787632 4.78762 z"
   id="path13398" /><path
   style="fill:#5599ff;stroke-width:0.127292"
   d="m 66.658158,114.24257 c -2.710192,-0.62271 -5.182146,-1.74113 -7.482826,-3.38556 -1.607472,-1.14895 -4.100086,-3.84637 -5.180797,-5.60649 -2.505253,-4.08021 -3.616449,-8.657989 -3.275575,-13.494344 0.193477,-2.745064 0.721486,-4.863361 1.853507,-7.43599 2.227593,-5.062436 6.087477,-8.807821 11.176189,-10.844658 0.522337,-0.209073 1.079595,-0.471792 1.238347,-0.583817 0.564631,-0.398434 0.62233,-0.735731 0.669658,-3.914641 l 0.04449,-2.988116 0.634097,-0.08204 c 0.34876,-0.04511 1.22057,-0.08256 1.93736,-0.08319 1.68801,-0.0015 2.01319,-0.08101 2.50733,-0.613188 0.74433,-0.801618 0.71674,-2.006897 -0.0652,-2.849044 l -0.46603,-0.5019 h -2.28364 -2.283616 v -5.151871 -5.151875 l 2.115866,-2.19e-4 c 1.772,-1.31e-4 2.18422,-0.03774 2.53645,-0.231174 0.58623,-0.321925 0.89288,-0.829007 0.95259,-1.575146 0.0629,-0.785862 -0.21854,-1.431955 -0.80868,-1.85654 -0.39444,-0.283783 -0.53416,-0.299856 -2.6065,-0.299856 h -2.189746 v -5.151874 -5.151875 h 4.716856 4.71686 l 0.0362,17.271991 c 0.034,16.234896 0.0492,17.297696 0.25338,17.700066 0.27311,0.538253 0.5608,0.740328 1.76351,1.238698 5.96285,2.470857 10.12442,7.060214 12.06384,13.303934 0.7509,2.41743 0.8532,3.21205 0.8532,6.627532 0,3.454714 -0.10014,4.208944 -0.90102,6.786557 -1.92741,6.20331 -6.66787,11.22874 -12.58616,13.34278 -2.15383,0.76935 -2.86571,0.8853 -5.8263,0.949 -2.51778,0.0542 -2.79326,0.0363 -4.11362,-0.2671 z"
   id="path15582" /><path
   style="fill:#ffffff;stroke-width:0.127292"
   d="M 65.681432,28.182259 V 23.03839 l 2.340216,-0.04103 2.34021,-0.04103 0.4122,-0.484721 c 0.71936,-0.84592 0.72184,-2.029104 0.006,-2.800171 -0.49414,-0.532175 -0.81932,-0.6117 -2.50733,-0.613188 -0.71679,-6.1e-4 -1.59304,-0.03863 -1.94721,-0.08445 l -0.643964,-0.0833 0.0038,-1.269568 c 0.0083,-2.787232 0.416143,-4.179305 1.555854,-5.310711 2.35125,-2.3341151 6.04677,-1.503009 7.51002,1.688969 l 0.37508,0.818207 v 9.254363 9.254366 h -4.72237 -4.722373 z"
   id="path20840" /><path
   style="fill:#ffffff;stroke-width:0.127292"
   d="M 65.681432,28.182259 V 23.03839 l 2.340216,-0.04103 2.34021,-0.04103 0.4122,-0.484721 c 0.71936,-0.84592 0.72184,-2.029104 0.006,-2.800171 -0.49414,-0.532175 -0.81932,-0.6117 -2.50733,-0.613188 -0.71679,-6.1e-4 -1.59304,-0.03863 -1.94721,-0.08445 l -0.643964,-0.0833 0.0038,-1.269568 c 0.0083,-2.787232 0.416143,-4.179305 1.555854,-5.310711 2.36075,-2.3435421 6.14364,-1.465233 7.55557,1.754247 l 0.32953,0.751391 v 9.255135 9.255137 h -4.72237 -4.722373 z"
   id="path23760" /><path
   style="fill:#ffffff;stroke-width:0.127292"
   d="m 65.681432,28.174252 v -5.151875 h 2.138546 c 1.1762,0 2.27471,-0.05575 2.44113,-0.123894 0.16641,-0.06814 0.45281,-0.336023 0.63643,-0.59529 0.72399,-1.022261 0.43367,-2.484677 -0.59293,-2.986625 -0.4133,-0.202085 -0.80535,-0.251938 -1.99955,-0.25427 -0.817,-0.0016 -1.74154,-0.0407 -2.05454,-0.08691 l -0.569086,-0.08401 0.0038,-1.270013 c 0.0083,-2.787698 0.416084,-4.17969 1.555856,-5.311155 2.36075,-2.3435421 6.14363,-1.465233 7.55556,1.754247 l 0.32953,0.751391 v 9.255135 9.255137 h -4.72237 -4.722365 z"
   id="path23762" /></svg>
