<?xml version="1.0" encoding="UTF-8" standalone="no"?>
<!-- Uploaded to: SVG Repo, www.svgrepo.com, Generator: SVG Repo Mixer Tools -->

<svg
   version="1.1"
   id="Layer_1"
   viewBox="0 0 520.646 520.646"
   xml:space="preserve"
   sodipodi:docname="bathroom-fan.svg"
   inkscape:version="1.2 (dc2aedaf03, 2022-05-15)"
   xmlns:inkscape="http://www.inkscape.org/namespaces/inkscape"
   xmlns:sodipodi="http://sodipodi.sourceforge.net/DTD/sodipodi-0.dtd"
   xmlns="http://www.w3.org/2000/svg"
   xmlns:svg="http://www.w3.org/2000/svg"><defs
   id="defs7438" /><sodipodi:namedview
   id="namedview7436"
   pagecolor="#ffffff"
   bordercolor="#000000"
   borderopacity="0.25"
   inkscape:showpageshadow="2"
   inkscape:pageopacity="0.0"
   inkscape:pagecheckerboard="0"
   inkscape:deskcolor="#d1d1d1"
   showgrid="false"
   inkscape:zoom="1.6268251"
   inkscape:cx="260.323"
   inkscape:cy="260.63035"
   inkscape:window-width="1920"
   inkscape:window-height="1027"
   inkscape:window-x="-8"
   inkscape:window-y="-8"
   inkscape:window-maximized="1"
   inkscape:current-layer="Layer_1" />
<path
   style="fill:#4d4d4d"
   d="M168.127,511.998h227v0.001h79.337c17.339,0,32.215-10.542,38.569-25.566  c2.119-5.008,3.289-10.514,3.289-16.294V366.807h-0.001V121.196h0.001V41.859c0-12.56-5.541-23.821-14.3-31.492  c-5.853-5.125-13.138-8.653-21.184-9.884c-0.104-0.015-0.209-0.024-0.31-0.04C478.547,0.156,476.524,0,474.464,0h-79.337H149.514  H46.183h-0.001C23.064,0,4.323,18.74,4.323,41.859v79.337h0.001v245.612H4.323V470.14c0,13.003,5.929,24.622,15.234,32.3  c0.349,0.289,0.71,0.564,1.071,0.842c0.17,0.133,0.337,0.271,0.509,0.401C28.122,508.906,36.792,512,46.183,512h96.537"
   id="path7399" />
<g
   style="opacity:0.15;"
   id="g7405">
	<path
   style="fill:#231F20;"
   d="M37.919,503.281c-0.36-0.277-0.721-0.553-1.071-0.842c-9.304-7.678-15.234-19.297-15.234-32.3   V366.808h0.001V121.196h-0.001V41.859C21.614,18.74,40.354,0,63.473,0H46.183h-0.001C23.064,0,4.323,18.74,4.323,41.859v79.337   h0.001v245.612H4.323V470.14c0,13.003,5.929,24.622,15.234,32.3c0.349,0.289,0.71,0.564,1.071,0.842   c0.17,0.133,0.337,0.271,0.509,0.401C28.122,508.906,36.792,512,46.183,512h17.29c-9.391,0-18.061-3.094-25.046-8.318   C38.256,503.552,38.089,503.413,37.919,503.281z"
   id="path7401" />
	<rect
   x="403.769"
   y="503.355"
   style="fill:#231F20;"
   width="0"
   height="17.29"
   id="rect7403" />
</g>
<circle
   style="fill:#53CAF9;"
   cx="260.326"
   cy="254.058"
   r="12.335"
   id="circle7407" />
<path
   style="fill:#B4CCCB;"
   d="M227.126,233.558c7.547-12.235,20.84-18.889,34.353-18.5c6.34-7.373,11.763-15.552,16.135-24.344  c-1.858-38.483-22.576-75.256-58.344-96.035c-36.288,9.799-67.665,31.681-89.517,61.055c15.492,1.782,30.886,6.675,45.253,14.97  C200.338,185.328,218.159,207.961,227.126,233.558z"
   id="path7409" />
<path
   style="fill:#8AACAD;"
   d="M145.476,286.267c25.333-14.626,53.843-18.743,80.494-13.71c-6.823-12.653-5.938-27.492,1.155-39.001  c-3.215-9.177-7.587-17.962-13.017-26.145c-33.726-17.359-75.152-18.048-110.664,1.578c-4.074,14.331-6.254,29.45-6.254,45.069  c0,22.588,4.565,44.128,12.813,63.753C119.276,305.354,131.17,294.527,145.476,286.267z"
   id="path7411" />
<path
   style="fill:#B4CCCB;"
   d="M259.168,293.058c-14.369-0.419-26.778-8.604-33.199-20.501c-9.555-1.805-19.35-2.411-29.152-1.801  c-32.033,20.616-53.39,56.367-53.973,97.154c25.488,26.721,59.827,44.929,98.262,49.867c-6.614-14.698-10.314-30.992-10.314-48.156  C230.793,340.373,241.483,313.623,259.168,293.058z"
   id="path7413" />
<path
   style="fill:#8AACAD;"
   d="M345.639,337.415c-25.332-14.625-43.151-37.258-52.119-62.855  c-7.547,12.235-20.841,18.889-34.353,18.5c-6.34,7.373-11.763,15.552-16.135,24.344c1.863,38.583,22.68,75.451,58.619,96.2  c0.315,0.182,0.633,0.356,0.95,0.532c14.31-3.608,27.88-9.09,40.439-16.167c19.192-11.247,36.317-26.483,49.972-45.353  C376.806,351.051,360.663,346.088,345.639,337.415z"
   id="path7415" />
<path
   style="fill:#B4CCCB;"
   d="M421.057,296.91c9.085-35.24,6.634-73.474-9.036-108.486c-9.46,13.254-21.83,24.753-36.853,33.426  c-25.332,14.625-53.842,18.742-80.493,13.709c6.823,12.653,5.938,27.492-1.155,39.001c3.216,9.177,7.587,17.962,13.017,26.145  c34.345,17.678,76.681,18.083,112.621-2.665C419.798,297.67,420.428,297.29,421.057,296.91z"
   id="path7417" />
<path
   style="fill:#8AACAD;"
   d="M323.828,237.36c32.482-20.905,54.002-57.366,54.002-98.865c0-0.739-0.014-1.475-0.028-2.21  c-25.977-25.488-60.313-42.482-98.47-46.419c6.748,14.82,10.521,31.281,10.521,48.629c0,29.25-10.69,56-28.375,76.564  c14.369,0.419,26.778,8.604,33.199,20.501C304.232,237.363,314.027,237.97,323.828,237.36z"
   id="path7419" />
<path
   style="fill:#53CAF9;"
   d="M443.823,161.673l-12.49-21.167l-0.181-0.285c-38.06-56.289-101.196-89.895-168.888-89.895  c-112.34,0-203.735,91.395-203.735,203.733c0,112.339,91.395,203.733,203.734,203.733s203.735-91.394,203.735-203.733  C465.998,221.56,458.536,190.476,443.823,161.673z M262.264,413.608c-87.977,0-159.55-71.574-159.55-159.549  c0-87.976,71.574-159.548,159.55-159.548s159.55,71.573,159.55,159.547C421.814,342.034,350.24,413.608,262.264,413.608z"
   id="path7421" />
<g
   id="g7431">
	<circle
   style="fill:#8AACAD;"
   cx="457.011"
   cy="58.176"
   r="25.775"
   id="circle7423" />
	<circle
   style="fill:#8AACAD;"
   cx="457.011"
   cy="453.505"
   r="25.775"
   id="circle7425" />
	<circle
   style="fill:#8AACAD;"
   cx="65.231"
   cy="58.176"
   r="25.775"
   id="circle7427" />
	<circle
   style="fill:#8AACAD;"
   cx="65.231"
   cy="453.505"
   r="25.775"
   id="circle7429" />
</g>
<path
   style="opacity:0.15;fill:#231F20;enable-background:new    ;"
   d="M120.753,254.042c0-85.082,66.607-154.6,150.522-159.273  c-2.984-0.166-5.986-0.258-9.01-0.258c-88.107,0-159.532,71.425-159.532,159.532s71.425,159.532,159.532,159.532  c3.024,0,6.027-0.092,9.01-0.258C187.36,408.641,120.753,339.123,120.753,254.042z"
   id="path7433" />
<path
   style="fill:#ececec;stroke-width:0.614694"
   d="M 54.649239,510.82269 C 42.32826,508.13329 31.974653,500.027 26.370335,488.6819 21.38789,478.59568 21.79289,500.19332 21.970283,254.03756 l 0.158709,-220.229378 1.73567,-4.911654 C 28.291472,16.369408 37.048659,7.3866217 49.482884,2.6183409 L 54.707785,0.61469421 266.16259,0.4463208 c 236.06203,-0.18796725 216.50964,-0.54872563 226.20747,4.1737196 9.04185,4.4030086 15.51374,10.9600116 19.70854,19.9677276 4.27951,9.189647 3.95719,-9.660798 3.95719,231.432372 0,242.59936 0.3753,222.37891 -4.30687,232.04706 -5.04088,10.40885 -13.58372,17.85295 -24.89111,21.68976 l -4.91755,1.66862 -211.76215,0.10747 c -174.257447,0.0884 -212.425732,-0.0374 -215.508871,-0.71036 z m 15.905605,-31.95838 c 5.421418,-1.1488 9.573811,-3.4576 13.295089,-7.39231 13.406942,-14.17586 7.582665,-37.03074 -10.890886,-42.73664 -12.329831,-3.8083 -25.628697,1.90605 -30.976667,13.31028 -4.963818,10.58504 -3.140708,21.66738 4.877814,29.65132 3.909333,3.89246 7.929249,6.11711 13.072492,7.23441 4.506496,0.97896 5.721973,0.97129 10.622158,-0.0671 z m 390.396386,0.30478 c 8.48089,-1.38886 15.66319,-6.71095 19.45729,-14.41788 3.87601,-7.87328 3.10231,-18.63389 -1.8582,-25.84373 -2.62168,-3.81049 -6.45038,-6.99585 -10.99953,-9.15127 -3.76345,-1.78315 -4.56189,-1.92904 -10.55752,-1.92904 -6.25899,0 -6.64994,0.0809 -11.16165,2.31075 -5.46444,2.70067 -9.90755,7.14911 -12.58192,12.59702 -1.59733,3.25391 -1.73436,4.09157 -1.73436,10.60204 0,6.67456 0.10952,7.30018 1.96279,11.21248 4.08427,8.62195 12.81825,14.3895 22.93232,15.14351 0.50712,0.0378 2.55048,-0.19794 4.54078,-0.52388 z M 285.52546,456.67601 c 67.76036,-7.64963 127.58575,-49.26362 158.56427,-110.29582 13.98677,-27.55599 21.04868,-55.40943 21.97462,-86.67189 0.90641,-30.60266 -4.86217,-60.16234 -17.16682,-87.96731 -4.81527,-10.88113 -16.48269,-30.66836 -23.86917,-40.48063 C 369.81432,57.913459 271.7233,30.481701 186.68313,64.605646 c -9.48064,3.804281 -24.07642,11.189832 -32.70223,16.547525 -14.44711,8.973429 -32.07699,23.838369 -43.33594,36.539419 -29.534189,33.3171 -46.183843,70.75437 -51.404153,115.58386 -1.13957,9.78608 -0.965872,33.61987 0.320308,43.95064 5.202281,41.78543 21.441641,78.85239 48.136395,109.87315 5.4981,6.3891 19.23179,19.81585 25.38379,24.81649 33.89198,27.54906 74.6701,43.34416 118.63598,45.95275 7.02452,0.41677 25.24083,-0.22628 33.80818,-1.19347 z M 70.366549,83.607836 c 4.234211,-0.577886 10.054879,-3.75907 13.453817,-7.352942 6.538355,-6.913349 8.860307,-15.611943 6.542609,-24.510182 -1.334889,-5.124982 -3.091002,-8.196203 -6.817174,-11.922375 -8.655325,-8.655328 -22.28504,-10.017658 -32.723695,-3.27083 -3.941621,2.547592 -6.538718,5.531311 -8.912699,10.239506 -6.739375,13.365856 -0.347538,29.927767 13.720419,35.551026 2.866371,1.145753 8.612382,2.114505 10.757149,1.813612 0.676163,-0.09486 2.466972,-0.341376 3.979574,-0.547815 z M 463.70845,83.226461 c 6.87525,-1.549435 13.32888,-6.875748 16.74924,-13.823514 3.48156,-7.072038 3.12033,-17.515614 -0.83782,-24.222923 -1.7132,-2.903098 -5.80468,-7.181814 -8.56205,-8.953847 -7.80014,-5.012798 -19.24547,-5.219299 -27.32617,-0.493029 -3.69516,2.161242 -8.65495,7.684985 -10.5504,11.750045 -1.48645,3.187892 -1.6498,4.234387 -1.65744,10.618335 -0.008,6.782292 0.0776,7.256781 2.02638,11.215282 5.64266,11.461865 17.25479,16.817634 30.15826,13.909651 z"
   id="path7920" /><path
   style="fill:#cccccc;stroke-width:0.614694"
   d="M 38.111041,510.8219 C 22.935021,507.4754 11.630809,497.33029 6.592234,482.53496 L 4.9175537,477.6174 4.7492759,258.17157 C 4.5626457,14.79276 4.2517204,33.832729 8.5635704,24.597558 13.683774,13.631046 22.225081,6.1303466 34.115529,2.1586544 37.106358,1.1596463 40.120407,0.75285466 46.102066,0.54088911 L 54.093091,0.2577198 48.925958,2.3909913 C 36.445198,7.5437241 28.392526,15.815686 23.565785,28.441775 l -2.051488,5.366407 V 255.0981 476.38801 l 1.420079,4.91756 c 4.13551,14.32075 15.560966,25.65578 29.690707,29.45573 l 3.31209,0.89072 -7.068983,-0.008 c -3.887941,-0.005 -8.728658,-0.37439 -10.757149,-0.82171 z"
   id="path7922" /><path
   style="fill:#cccccc;stroke-width:0.614694"
   d="m 248.02911,456.99425 c -26.33058,-1.90783 -50.83632,-8.54954 -74.68534,-20.24173 -12.97343,-6.36033 -22.04988,-11.90488 -33.1466,-20.24831 C 97.430621,384.3488 69.186671,337.16702 61.181544,284.50785 52.660531,228.4551 67.872638,171.81816 103.45098,127.13246 c 6.85656,-8.61171 23.16742,-24.93497 31.78175,-31.805928 62.16415,-49.583324 146.94303,-58.64258 217.60175,-23.252373 29.60207,14.826526 55.41826,36.752551 74.3643,63.158571 4.26267,5.94109 14.48507,23.10526 18.30455,30.73471 3.98968,7.96943 9.25816,21.58157 12.05538,31.14741 8.06224,27.57107 10.12405,58.14098 5.87844,87.15834 -3.03767,20.76155 -11.01172,45.15739 -20.82538,63.71325 -10.37516,19.61757 -20.91295,33.79324 -37.192,50.03153 -13.87905,13.84429 -27.10389,23.93009 -43.82524,33.42288 -33.83956,19.21088 -74.58088,28.3781 -113.56542,25.5534 z m 37.23074,-44.79028 c 33.95458,-5.03641 64.89115,-20.51537 89.15444,-44.60799 27.67474,-27.48007 43.23113,-60.42644 47.02339,-99.5893 0.87954,-9.08308 0.36809,-28.33771 -0.97967,-36.88166 -5.71225,-36.21191 -21.17026,-66.3635 -46.80351,-91.29249 -12.88112,-12.52723 -24.43894,-20.81978 -39.87554,-28.61008 -26.59131,-13.41968 -57.33609,-19.12792 -87.3335,-16.214808 -22.13681,2.149753 -46.01697,9.971248 -65.3219,21.394948 -21.31182,12.61128 -41.14223,31.94887 -54.61017,53.25301 -10.97119,17.35468 -19.06374,39.48459 -22.39844,61.25085 -1.62802,10.62649 -1.95224,32.71554 -0.62124,42.32513 6.40911,46.27236 29.58735,85.04951 66.51951,111.287 22.65938,16.09776 49.96554,26.14584 78.32324,28.82125 8.89455,0.83916 27.45824,0.26809 36.92339,-1.13586 z"
   id="path7993" /><path
   style="fill:#999999;stroke-width:0.614694"
   d="m 125.84286,293.054 c -7.15506,-28.8106 -6.22179,-59.3198 2.67392,-87.41269 1.43734,-4.53914 2.5301,-6.97159 3.32244,-7.39563 2.12342,-1.13643 15.45215,-3.09335 23.64754,-3.47195 17.41541,-0.80451 35.57466,2.66981 52.27988,10.00247 l 6.14695,2.69816 3.36519,5.67839 c 3.18092,5.36742 9.21976,18.38665 9.23089,19.90102 0.003,0.38464 -0.82974,2.48345 -1.85015,4.66402 -2.19114,4.68236 -3.65141,11.06437 -3.66628,16.02316 -0.013,4.33422 1.46208,11.76079 3.09049,15.5597 0.66093,1.54191 1.2017,2.86684 1.2017,2.94429 0,0.0775 -2.00544,-0.21425 -4.45653,-0.64825 -6.44402,-1.14099 -19.55815,-1.50983 -27.61127,-0.77658 -21.90041,1.99406 -44.32171,10.92314 -61.81355,24.61667 -2.10575,1.64849 -3.91784,2.99726 -4.02687,2.99726 -0.10903,0 -0.79949,-2.42102 -1.53435,-5.38004 z"
   id="path7997" /><path
   style="fill:#999999;stroke-width:0.614694"
   d="m 311.34262,237.18044 c -1.85945,-0.10021 -6.22144,-0.50789 -9.69332,-0.90596 l -6.31249,-0.72377 -2.717,-3.80753 c -6.01033,-8.42272 -14.8131,-14.12148 -24.99204,-16.17941 l -5.29645,-1.07081 1.8105,-2.13377 c 3.81823,-4.5 11.00416,-15.95274 14.25925,-22.72603 4.07152,-8.47212 7.67885,-19.25676 9.66358,-28.89062 1.30797,-6.34887 1.45482,-8.63446 1.4416,-22.43634 -0.0137,-14.33259 -0.126,-15.88474 -1.66723,-23.05104 -0.90887,-4.22602 -2.48172,-10.16118 -3.49521,-13.18925 -1.01349,-3.028065 -1.73173,-5.616564 -1.59607,-5.75222 0.35816,-0.358163 11.48469,1.591773 17.22303,3.018355 27.0448,6.723485 51.51707,20.161945 72.15627,39.623205 l 5.15459,4.86041 -0.36861,5.54364 c -1.89332,28.47463 -17.93848,59.28154 -40.82504,78.3846 -9.74288,8.13222 -11.40143,9.05875 -16.75434,9.35961 -2.53561,0.14252 -6.13157,0.17713 -7.99102,0.0769 z"
   id="path7999" /><path
   style="fill:#999999;stroke-width:0.614694"
   d="m 290.44301,405.81036 c -26.26738,-19.46562 -43.34929,-49.79234 -46.63172,-82.78855 -0.48597,-4.88515 -0.42053,-5.42476 1.00648,-8.29837 0.83943,-1.69041 2.72965,-4.94061 4.20048,-7.22266 1.47082,-2.28205 2.48863,-4.14919 2.2618,-4.14919 -0.22684,0 0.007,-0.34576 0.52053,-0.76836 1.26394,-1.04095 4.82955,-5.73459 4.85357,-6.38908 0.0477,-1.30021 3.17532,-2.52907 8.20064,-3.22213 10.91378,-1.50514 20.898,-7.03667 26.31442,-14.5789 2.20415,-3.06922 2.71253,-3.27359 3.28277,-1.3197 1.43146,4.90479 8.21046,18.27993 12.54252,24.74673 17.15531,25.60901 46.47132,44.67649 76.39196,49.6862 l 4.31122,0.72184 -6.48843,7.37213 c -19.60189,22.27162 -45.1957,38.5634 -74.16949,47.21272 -11.44308,3.41602 -10.56223,3.46923 -16.59675,-1.00268 z"
   id="path8001" /><path
   style="fill:#cccccc;stroke-width:0.614694"
   d="m 230.81632,405.42624 c -16.89915,-5.52876 -34.3326,-14.86315 -48.86683,-26.16477 -10.93314,-8.50145 -24.47807,-22.77002 -31.86521,-33.56759 l -3.37006,-4.92593 1.16197,-4.06319 c 1.87218,-6.5467 4.18911,-12.28403 8.00799,-19.82989 8.403,-16.60384 19.92348,-30.25394 35.02527,-41.49987 l 6.40739,-4.77142 9.52776,0.35058 c 5.24027,0.19281 11.6171,0.67134 14.17074,1.06339 4.5252,0.69473 4.68517,0.77952 6.30663,3.34249 2.76147,4.36494 6.31431,8.01642 10.74637,11.04471 4.34592,2.96943 13.18184,6.46731 16.41506,6.49823 3.41318,0.0326 3.82527,0.86705 1.65113,3.34327 -5.55514,6.32694 -12.83268,18.82719 -17.03685,29.26329 -5.7279,14.21848 -8.3302,28.018 -8.32923,44.16839 6.1e-4,11.51888 1.00382,19.5609 3.75793,30.12691 1.00572,3.85838 1.75769,7.08614 1.67103,7.17279 -0.0866,0.0867 -2.50814,-0.61148 -5.38109,-1.55139 z"
   id="path8003" /><path
   style="fill:#cccccc;stroke-width:0.614694"
   d="m 226.7534,231.66374 c -0.21843,-0.63438 -1.48657,-3.68591 -2.81808,-6.7812 -9.45348,-21.97601 -26.8285,-41.47506 -48.12616,-54.00941 -5.8539,-3.4452 -15.69254,-8.05318 -20.29152,-9.50364 -1.35233,-0.42651 -2.70764,-1.00474 -3.01179,-1.28496 -1.51763,-1.39818 16.49313,-20.82114 27.5635,-29.72472 12.87959,-10.35868 30.56381,-20.50228 44.47952,-25.51329 5.19272,-1.86988 5.86711,-1.98041 7.34459,-1.20372 3.01946,1.58729 16.83074,15.51357 21.39651,21.57468 13.39296,17.77931 21.34962,37.95934 23.58033,59.80548 l 0.56489,5.53225 -2.81035,4.91755 c -3.54835,6.2089 -6.95571,11.31632 -10.55821,15.82608 -2.69663,3.37576 -2.94655,3.5323 -5.64306,3.53449 -4.21625,0.004 -11.74373,2.13403 -16.65189,4.71319 -4.67283,2.45549 -10.0989,7.03796 -12.89224,10.88783 -1.49671,2.06281 -1.78222,2.22791 -2.12604,1.22939 z"
   id="path8074" /><path
   style="fill:#cccccc;stroke-width:0.614694"
   d="m 343.59771,312.24413 c -10.70232,-1.56325 -22.41075,-5.0656 -32.46691,-9.71183 -4.16894,-1.92617 -4.60435,-2.32047 -6.96083,-6.30362 -3.05706,-5.16735 -6.88036,-12.84261 -8.78275,-17.63131 l -1.40921,-3.54728 1.88846,-4.22345 c 4.87712,-10.90747 4.83607,-22.83213 -0.11669,-33.89344 -0.38174,-0.85256 0.11174,-0.87237 4.66316,-0.18718 7.3136,1.10101 25.0861,1.03308 32.97978,-0.12607 28.24944,-4.14828 54.54199,-18.66291 72.80749,-40.1929 1.56246,-1.84171 3.01383,-3.17557 3.22527,-2.96414 0.86776,0.86776 6.01131,16.65718 7.66321,23.52415 2.77527,11.53682 3.74115,19.28022 4.10209,32.88614 0.43681,16.46623 -0.85512,28.6035 -4.64554,43.64329 l -1.62665,6.45428 -3.38082,1.67629 c -9.8642,4.89092 -22.92057,8.89716 -34.50176,10.5866 -7.96346,1.16169 -25.51926,1.16719 -33.4383,0.0104 z"
   id="path8076" /><path
   style="fill:#e6e6e6;stroke-width:0.614694"
   d="m 56.24452,510.48053 c -12.407887,-1.4786 -23.123813,-9.69035 -30.051559,-23.0289 -2.509789,-4.8323 -2.563778,-5.06964 -3.146002,-13.82974 -0.361757,-5.44299 -0.59507,-92.79318 -0.599275,-224.36339 l -0.0069,-215.450318 1.800459,-4.819381 C 28.863824,16.615345 36.531356,8.6343545 48.932861,3.2877736 L 54.420226,0.92204132 262.638,0.94086878 c 118.1164,0.0106803 211.53459,0.25977152 215.88271,0.57563182 7.35856,0.5345481 7.88682,0.6676389 13.21592,3.3296587 9.53784,4.7643892 15.15612,10.4258457 20.09808,20.2525557 2.32227,4.617633 2.44588,5.168734 3.03329,13.523273 0.84469,12.013557 0.83841,422.292452 -0.007,434.385202 -0.61533,8.80541 -0.65619,8.97989 -3.38246,14.44532 -5.41006,10.84565 -12.58482,17.25375 -24.43436,21.82342 l -4.77727,1.84231 -211.01362,-0.0808 C 155.19616,510.99302 58.442052,510.74241 56.24452,510.48053 Z m 18.191306,-32.39285 c 10.165104,-3.9 16.846264,-13.71603 16.846264,-24.7507 0,-10.46977 -5.780861,-19.44048 -15.367355,-23.84697 -4.541211,-2.0874 -12.936862,-2.57993 -18.198341,-1.0676 -14.578138,4.19023 -22.416897,20.4501 -16.854853,34.96185 2.588073,6.75245 10.192444,13.39631 17.841756,15.58814 3.759832,1.07734 11.796508,0.6254 15.732529,-0.88472 z m 389.888874,0.52307 c 5.08329,-1.5821 8.49188,-3.69309 11.97378,-7.41551 3.66439,-3.91754 5.81542,-8.52736 6.45396,-13.83141 1.42356,-11.8247 -3.68572,-21.754 -14.09808,-27.39799 -3.90606,-2.11727 -4.02241,-2.13867 -11.62921,-2.13867 -7.61379,0 -7.71987,0.0195 -11.66195,2.15143 -4.8276,2.61075 -9.52184,7.18787 -12.00378,11.7043 -1.7922,3.2613 -1.84408,3.58918 -1.84408,11.65408 0,7.92438 0.0785,8.44749 1.74212,11.60714 6.08556,11.55813 19.24379,17.3465 31.06724,13.66663 z M 287.36954,456.7163 c 39.90832,-4.96974 77.66607,-21.6567 107.87884,-47.67681 6.83697,-5.8882 19.58937,-18.88121 25.0451,-25.51765 22.28314,-27.10555 38.00261,-61.83474 43.40778,-95.90118 3.63406,-22.90391 3.40899,-49.95605 -0.5895,-70.85669 -5.47909,-28.63983 -14.81233,-51.09498 -32.25174,-77.59552 C 396.4562,86.889166 334.9874,52.593275 271.38749,50.192382 c -40.5383,-1.530318 -74.14828,6.531452 -110.27361,26.450489 -17.81008,9.820244 -40.00914,28.145269 -53.84573,44.448949 -23.242377,27.38651 -38.420659,58.57701 -45.169991,92.82177 -3.378939,17.14405 -3.691792,20.56788 -3.650918,39.95512 0.04031,19.12131 0.666673,26.00788 3.717933,40.87716 10.726073,52.26991 41.312226,98.29587 85.054086,127.98917 18.26074,12.39594 36.96784,21.23707 57.6803,27.2602 13.55365,3.94136 24.43968,6.00322 41.59282,7.87788 5.16801,0.56481 33.48792,-0.23664 40.87716,-1.15682 z M 76.395101,81.770478 c 5.546181,-2.633584 9.779102,-6.835756 12.544789,-12.453668 1.935359,-3.931271 2.033999,-4.464616 2.017365,-10.907935 -0.02256,-8.749204 -1.314419,-12.265386 -6.570638,-17.8843 -5.343248,-5.711947 -9.910829,-7.801778 -17.78663,-8.138015 -4.526182,-0.193234 -6.713605,0.0017 -9.220413,0.821836 -7.33694,2.400275 -12.246726,6.662759 -15.693802,13.624743 -3.959513,7.99694 -3.423288,17.843424 1.386673,25.462891 6.959175,11.024049 21.407842,15.132161 33.322656,9.474448 z m 386.334649,1.84546 c 5.50189,-1.165854 9.72456,-3.543061 13.36071,-7.521596 4.82704,-5.281557 6.38118,-9.143133 6.65481,-16.535328 0.28917,-7.81162 -0.74058,-11.647167 -4.4969,-16.749759 -5.64111,-7.662915 -12.69082,-10.899087 -22.64499,-10.395196 -7.90101,0.399959 -11.83384,2.020219 -16.6468,6.858198 -2.06419,2.074928 -4.58292,5.290305 -5.59716,7.145285 -1.79136,3.276267 -1.84408,3.60993 -1.84408,11.671061 0,8.259916 0.01,8.316099 2.07461,12.123737 3.88167,7.157364 10.95875,12.350823 18.54387,13.608272 4.83192,0.801033 5.95188,0.779402 10.59593,-0.204674 z"
   id="path8078" /><path
   style="fill:#f2f2f2;stroke-width:0.614694"
   d="m 55.223836,510.10445 c -5.451761,-0.91607 -12.889697,-3.95717 -15.917516,-6.50809 -2.238786,-1.88617 -7.278948,-7.32304 -9.062171,-9.77546 -1.07188,-1.47412 -2.162407,-2.773 -2.423395,-2.8864 -0.260986,-0.1134 -0.318167,-0.45916 -0.127067,-0.76837 0.1911,-0.3092 0.05452,-0.56219 -0.303517,-0.56219 -0.358035,0 -0.607886,-0.20746 -0.555225,-0.46102 0.05266,-0.25356 -0.550468,-1.84408 -1.340287,-3.53449 -0.993496,-2.12634 -1.638644,-5.13047 -2.093503,-9.7484 -0.448011,-4.54842 -0.729742,-75.83078 -0.884328,-223.7487 -0.18807,-179.957952 -0.08627,-217.546719 0.595412,-219.839884 0.452249,-1.521368 1.729938,-4.640569 2.839309,-6.931559 1.109371,-2.290989 2.017039,-4.434735 2.017039,-4.76388 0,-0.329145 0.276612,-0.598445 0.614694,-0.598445 0.338082,0 0.614694,-0.288287 0.614694,-0.640638 0,-0.352351 0.345765,-1.048747 0.768368,-1.547546 1.653815,-1.952007 8.436243,-8.4408355 9.788819,-9.3650805 0.786143,-0.5371887 1.567656,-1.131046 1.736697,-1.3196839 0.309794,-0.3457084 6.228914,-3.2531353 10.729627,-5.2703125 2.317192,-1.03854314 12.39635,-1.07289951 214.835624,-0.7323004 150.93064,0.253937 213.54002,0.5541734 216.32824,1.0373781 2.15813,0.3740071 4.68172,1.0719143 5.60799,1.5509048 0.92627,0.4789905 1.85749,0.6975156 2.0694,0.4856113 0.21191,-0.2119044 0.38528,-0.089966 0.38528,0.270974 0,0.36094 1.24372,1.1677261 2.76382,1.7928581 1.5201,0.6251318 2.76486,1.3440628 2.76612,1.5976242 10e-4,0.2535613 0.27892,0.4610206 0.617,0.4610206 0.33809,0 1.13223,0.4840717 1.76477,1.0757149 0.63254,0.5916432 2.43052,2.2319183 3.99551,3.6450563 1.56499,1.413138 2.84544,2.713179 2.84544,2.888981 0,0.537521 3.91251,6.207084 4.43524,6.427042 0.26949,0.113396 0.33362,0.459162 0.14252,0.768368 -0.1911,0.309206 -0.0382,0.562193 0.3398,0.562193 0.37798,0 0.51629,0.276612 0.30734,0.614694 -0.20894,0.338082 -0.13307,0.614695 0.16863,0.614695 0.30168,0 0.5743,0.345765 0.60581,0.768367 0.0315,0.422603 0.4802,1.912089 0.99706,3.309971 1.36217,3.684042 1.59075,9.504179 1.90389,48.478016 0.37248,46.35973 0.37174,314.43582 -10e-4,355.90795 -0.35684,39.70441 -0.60037,46.16909 -1.86876,49.6083 -0.53564,1.45239 -0.99968,2.98647 -1.0312,3.40907 -0.0315,0.42261 -0.30413,0.76837 -0.60581,0.76837 -0.3017,0 -0.37757,0.27661 -0.16863,0.6147 0.20895,0.33808 0.13137,0.61469 -0.1724,0.61469 -0.49484,0 -1.51979,1.74261 -1.98851,3.38082 -0.0967,0.33808 -0.61824,0.95166 -1.15891,1.36351 -0.54067,0.41185 -0.71403,0.75761 -0.38524,0.76837 0.32878,0.0108 -0.017,0.45015 -0.76837,0.97644 -0.75139,0.5263 -1.36616,1.19017 -1.36616,1.47527 0,0.90216 -4.0837,4.64554 -7.79435,7.1448 -1.96762,1.32527 -3.67027,2.61876 -3.78367,2.87443 -0.1134,0.25567 -0.43686,0.32227 -0.71881,0.14802 -0.28195,-0.17425 -0.94986,0.12039 -1.48423,0.65477 -0.53438,0.53438 -0.9716,0.82922 -0.9716,0.6552 0,-0.17401 -2.00544,0.52718 -4.45654,1.55821 l -4.45653,1.8746 -211.2461,-0.21905 C 115.3087,510.86884 58.315918,510.62402 55.223836,510.10445 Z M 72.22657,478.89637 c 6.008036,-1.2942 13.005681,-7.42219 16.462488,-14.41658 2.201183,-4.45378 2.285685,-4.86456 2.285685,-11.11093 0,-6.007 -0.143703,-6.7895 -1.945212,-10.59209 -2.397885,-5.0614 -6.089388,-9.15095 -10.698857,-11.85249 -4.562176,-2.67381 -9.051484,-3.64088 -15.238911,-3.2827 -14.490113,0.83882 -25.022889,13.44854 -23.878008,28.58649 0.744432,9.8431 8.08602,18.73385 18.522056,22.43041 3.028614,1.07277 10.077789,1.1885 14.490759,0.23789 z m 394.01899,-0.90309 c 7.24579,-2.76294 13.24915,-9.07327 15.45281,-16.24296 1.94472,-6.32719 1.48102,-14.19915 -1.15139,-19.54633 -3.15638,-6.41151 -9.5412,-11.958 -15.89004,-13.80365 -3.32592,-0.96688 -12.47192,-1.01464 -16.05837,-0.0839 -3.82842,0.99356 -12.85606,8.8738 -14.93177,13.03395 -0.50607,1.01425 -1.18925,2.03656 -1.51818,2.2718 -0.67819,0.48503 -0.85423,15.08073 -0.21959,18.20676 0.50697,2.49716 4.30498,8.11902 7.33344,10.85505 3.01598,2.72476 7.33525,5.19589 10.86332,6.21509 4.01713,1.16049 11.85601,0.71998 16.11977,-0.90586 z M 284.91077,457.03464 c 3.21177,-0.3334 6.66943,-0.74862 7.68367,-0.92272 1.01425,-0.17411 2.81223,-0.48296 3.99552,-0.68634 1.18328,-0.20338 2.84296,-0.48096 3.68816,-0.61684 3.20073,-0.51456 15.11685,-3.50712 21.61152,-5.4274 5.16542,-1.52727 13.66846,-4.54871 17.42156,-6.19051 12.61137,-5.5169 20.17196,-9.27541 27.3539,-13.59818 4.20285,-2.52967 14.84223,-9.51775 15.36735,-10.09347 0.16904,-0.18533 1.27549,-1.00606 2.45878,-1.82385 1.18328,-0.81779 2.52114,-1.84594 2.973,-2.28479 0.45187,-0.43884 1.83109,-1.55439 3.06493,-2.479 4.1079,-3.07836 5.86594,-4.69257 14.88533,-13.66765 11.16135,-11.10649 14.82019,-15.18394 20.40872,-22.74369 1.62452,-2.19753 3.21915,-4.32434 3.54362,-4.72624 0.32447,-0.40192 1.69962,-2.47651 3.0559,-4.61021 1.35628,-2.13371 2.88256,-4.41981 3.39173,-5.08021 0.50918,-0.66041 0.92578,-1.43438 0.92578,-1.71994 0,-0.28555 0.93,-1.97303 2.06667,-3.74993 3.14004,-4.90868 10.39031,-20.02559 13.89354,-28.96824 4.63228,-11.82475 8.13026,-24.13643 10.74456,-37.81711 1.63263,-8.54357 2.44593,-19.88413 2.46868,-34.42288 0.0268,-17.14872 -0.40739,-24.90267 -1.89322,-33.80818 -0.19743,-1.18328 -0.47022,-2.84296 -0.6062,-3.68816 -1.28379,-7.97933 -6.44261,-27.262 -8.96269,-33.50084 -0.68281,-1.69041 -1.46092,-3.62669 -1.72912,-4.30286 -0.26821,-0.67616 -1.2078,-2.82747 -2.088,-4.78068 -0.88018,-1.95321 -1.60034,-3.68491 -1.60034,-3.84822 0,-0.38422 -4.29369,-8.99795 -6.26979,-12.57805 -0.83974,-1.52136 -2.4425,-4.42579 -3.56168,-6.45429 -2.9029,-5.26145 -13.82642,-21.58001 -17.2136,-25.71524 -0.50793,-0.62012 -1.33843,-1.6267 -1.84556,-2.23686 -0.50712,-0.61015 -1.88571,-2.31569 -3.06353,-3.79007 -2.76981,-3.46722 -16.56569,-17.26728 -20.82031,-20.826616 -1.81038,-1.514527 -3.77895,-3.168607 -4.3746,-3.67573 -0.59565,-0.507123 -1.99941,-1.613572 -3.11947,-2.458777 -1.12006,-0.845204 -3.30068,-2.513202 -4.84582,-3.706661 -9.59707,-7.412733 -26.61352,-17.191141 -40.57324,-23.315192 -10.10537,-4.433168 -29.67557,-10.714026 -39.38023,-12.638689 -0.84521,-0.167624 -2.22827,-0.443248 -3.07347,-0.612497 -1.69033,-0.338485 -11.00778,-1.827558 -15.36736,-2.455946 -6.13631,-0.884483 -38.90181,-0.875227 -45.79472,0.01294 -10.01472,1.290415 -11.5284,1.502423 -13.21592,1.851031 -0.84521,0.174602 -2.50488,0.466876 -3.68817,0.649497 -1.18329,0.18262 -2.6134,0.465851 -3.17804,0.629401 -1.09649,0.317605 -2.93994,0.734761 -5.42768,1.228238 -0.8452,0.167658 -2.64318,0.597679 -3.99551,0.955602 -1.35233,0.357924 -2.59708,0.652782 -2.76612,0.65524 -0.16904,0.0025 -1.55211,0.495106 -3.07348,1.094774 -1.52136,0.599667 -3.04273,1.154736 -3.38081,1.233487 -0.33809,0.07875 -1.25508,0.386657 -2.03778,0.684236 -0.78269,0.297577 -1.70927,0.541052 -2.05906,0.541052 -2.23243,0 -27.63429,11.476814 -37.09139,16.75826 -5.79019,3.233605 -17.16616,11.134178 -24.58405,17.073532 -8.06554,6.457908 -26.92633,24.516998 -28.76219,27.539618 -0.54609,0.89911 -1.90485,2.63288 -3.01945,3.85283 -1.1146,1.21994 -2.44146,2.83626 -2.94859,3.59182 -0.507119,0.75556 -1.336957,1.89585 -1.844079,2.53397 -2.831165,3.56253 -11.20244,16.26221 -13.949041,21.16145 -5.318694,9.48721 -10.285711,20.28957 -15.137214,32.92071 -3.689046,9.60462 -9.436307,34.27496 -10.517193,45.14545 -1.180211,11.86941 -0.876682,39.96368 0.531291,49.17554 0.15502,1.01425 0.448799,2.95053 0.652842,4.30286 0.935491,6.20014 2.700408,14.57054 3.923086,18.60587 0.334813,1.10502 0.603966,2.07316 0.598119,2.15143 -0.06822,0.91299 4.348458,15.47353 5.916543,19.50517 5.067471,13.02878 12.171017,27.39986 18.607966,37.64553 3.650226,5.81004 12.23543,17.93445 14.00576,19.77954 0.35016,0.36495 2.03201,2.32321 3.73746,4.3517 4.20003,4.99561 16.86917,17.7485 22.13043,22.27673 6.50913,5.60224 16.6129,13.06078 23.83132,17.59216 7.115,4.46644 20.71245,11.85898 24.78437,13.47454 1.42247,0.56437 3.77367,1.55603 5.2249,2.20369 8.86234,3.95509 26.32757,9.62383 33.68065,10.93183 0.8452,0.15035 2.50488,0.52819 3.68816,0.83964 1.18329,0.31145 3.25788,0.72415 4.61021,0.9171 1.35233,0.19295 3.15031,0.48297 3.99551,0.64448 0.84521,0.16152 2.11712,0.40333 2.82648,0.53737 0.70936,0.13404 2.78395,0.43903 4.6102,0.67773 1.82626,0.23871 4.70353,0.66443 6.39394,0.94605 3.82962,0.638 34.21956,0.16935 42.10656,-0.64934 z M 69.837567,83.902514 C 77.76935,82.422208 85.159054,76.742458 88.932213,69.226309 90.896148,65.314149 90.974085,64.885578 90.95771,58.088603 90.942472,51.766949 90.769589,50.650819 89.322371,47.53114 86.111061,40.608701 78.571364,34.363045 71.653815,32.89504 65.826037,31.658302 58.376666,32.339956 54.053746,34.505532 40.890286,41.099798 35.46099,56.221869 41.498559,69.475155 c 1.577486,3.462794 6.827636,9.143319 10.371251,11.221421 3.032608,1.778428 9.59765,3.730211 12.742856,3.788441 1.052621,0.01949 3.403827,-0.242638 5.224901,-0.582503 z M 465.77815,82.784551 c 10.81454,-3.801004 17.06415,-12.845701 17.06415,-24.695948 0,-7.965838 -2.23062,-13.340198 -7.82654,-18.856892 -5.39797,-5.321551 -11.18666,-7.310233 -19.94123,-6.850735 -8.5489,0.448703 -14.21054,3.815168 -20.33195,12.089589 -1.33706,1.80733 -2.61017,4.158535 -2.82913,5.224901 -0.51959,2.53046 -0.50887,14.320891 0.0152,16.691509 0.22421,1.014245 0.4304,2.031785 0.4582,2.261195 0.0278,0.229417 0.40666,0.782641 0.84192,1.229389 0.43526,0.446753 1.42102,1.841568 2.19057,3.099589 2.9531,4.827526 10.28681,9.734427 16.2737,10.88854 3.90661,0.753092 10.25222,0.266021 14.08513,-1.081137 z"
   id="path8080" /><path
   style="fill:#e6e6e6;stroke-width:0.614694"
   d="m 36.188692,509.90192 c -5.421912,-1.4215 -10.4835,-3.93901 -15.293175,-7.60647 -6.080851,-4.63674 -10.468115,-10.84051 -13.8283074,-19.55377 l -1.8423088,-4.77727 0.01793,-216.23852 C 5.2536432,131.32646 5.492623,42.316535 5.8448486,37.49967 6.403667,29.857541 6.5390226,29.299076 8.9735052,24.591091 13.925222,15.015091 19.53113,9.3413745 28.348909,4.9813222 33.95294,2.2103442 39.486934,0.94708549 46.084761,0.93271462 L 50.98501,0.92204132 45.303924,3.7579648 C 41.318198,5.747587 38.266057,7.8609726 35.076315,10.83984 29.59094,15.962576 26.611408,20.310627 23.549335,27.661239 l -2.30459,5.532248 -0.0189,221.813943 -0.0189,221.81394 1.880465,5.62292 c 4.306756,12.87795 14.042092,23.18818 25.93761,27.46931 l 3.223983,1.16029 -5.839595,-0.0117 c -3.694532,-0.007 -7.448918,-0.43359 -10.220721,-1.16029 z"
   id="path8082" /><path
   style="fill:#e6e6e6;stroke-width:0.614694"
   d="M 61.342331,83.284477 C 47.946285,81.328379 37.715864,67.310135 40.146374,54.240698 c 1.563849,-8.409189 6.977645,-15.513844 14.716522,-19.312842 3.225636,-1.583458 4.121398,-1.734369 10.29469,-1.734369 6.352463,0 7.003421,0.118389 10.757149,1.956386 9.602912,4.702024 15.377582,14.506978 14.589995,24.772708 -1.137563,14.827463 -14.469214,25.507402 -29.162399,23.361896 z"
   id="path8084" /><path
   style="fill:#e6e6e6;stroke-width:0.614694"
   d="m 452.74851,83.218879 c -7.76622,-1.317475 -15.2877,-7.075407 -18.77534,-14.373127 -2.51396,-5.260352 -2.90973,-13.414778 -0.91846,-18.923992 2.52493,-6.985693 6.96967,-11.78746 13.92886,-15.047699 3.19437,-1.496501 4.29422,-1.680574 10.04158,-1.680574 5.9833,0 6.75665,0.143231 10.59779,1.962801 5.36285,2.540414 9.79411,6.971671 12.33452,12.334524 1.83719,3.878341 1.9628,4.576208 1.9628,10.905138 0,6.116024 -0.15976,7.08663 -1.67319,10.165365 -5.24161,10.662884 -16.29995,16.557314 -27.49856,14.657564 z"
   id="path8086" /><path
   style="fill:#e6e6e6;stroke-width:0.614694"
   d="m 452.21596,478.49641 c -7.40056,-1.45637 -14.43459,-6.89332 -17.99834,-13.9118 -1.99983,-3.93846 -2.08759,-4.39698 -2.08759,-10.90661 0,-6.33774 0.12874,-7.06435 1.91192,-10.79082 2.79391,-5.8387 6.11157,-9.24475 11.74339,-12.05628 4.65068,-2.32172 4.96737,-2.38889 11.23981,-2.38401 6.03885,0.005 6.72025,0.13479 10.58634,2.02098 5.48453,2.6758 9.85819,7.01899 12.33604,12.2501 1.84854,3.90255 1.97273,4.59038 1.97273,10.92636 0,6.45284 -0.0947,6.95032 -2.07352,10.89331 -3.64593,7.26485 -10.55067,12.49069 -18.49393,13.9971 -3.72582,0.70659 -5.38698,0.69962 -9.13685,-0.0383 z"
   id="path8088" /><path
   style="fill:#e6e6e6;stroke-width:0.614694"
   d="m 59.625338,478.28678 c -4.693631,-1.1649 -9.108219,-3.69314 -12.544937,-7.18449 -12.139879,-12.33288 -8.587548,-32.55149 7.079607,-40.29462 19.687796,-9.73024 41.689671,8.93547 35.305953,29.95248 -2.777788,9.14526 -9.262088,15.26423 -18.477099,17.43609 -4.6977,1.10718 -7.187352,1.12702 -11.363524,0.0905 z"
   id="path8090" /><path
   style="fill:#333333;stroke-width:0.614694"
   d="m 111.27954,203.6068 c 1.27646,-4.34357 6.44295,-16.48301 9.60966,-22.57936 3.71743,-7.15654 13.09107,-21.80878 14.92643,-23.33199 0.84873,-0.70438 2.06229,-0.57044 8.04564,0.88804 3.87539,0.94464 7.04616,1.7901 7.04616,1.87878 0,0.0887 -1.9043,3.02331 -4.23178,6.52137 -4.87899,7.33287 -10.71545,18.26527 -13.62955,25.52983 l -2.01843,5.03173 -6.81054,2.20279 c -3.74579,1.21154 -8.27987,2.88419 -10.07572,3.71701 l -3.26519,1.51421 z"
   id="path8094" /><path
   style="fill:#333333;stroke-width:0.614694"
   d="m 145.06783,158.37358 c -3.38081,-0.82236 -6.64944,-1.6684 -7.2636,-1.88011 -0.95042,-0.32761 -0.49842,-1.11521 3.03622,-5.29058 12.05131,-14.23586 28.66669,-27.83238 44.7972,-36.65796 11.10199,-6.07429 27.38521,-12.58564 36.66918,-14.663304 3.27309,-0.732485 3.5857,-0.697632 5.41297,0.603504 1.0666,0.75948 1.80318,1.51697 1.63685,1.6833 -0.16634,0.16634 -3.57077,1.61826 -7.5654,3.2265 -27.45756,11.05443 -51.47889,29.1868 -68.46918,51.68358 l -2.10729,2.79026 z"
   id="path8096" /><path
   style="fill:#333333;stroke-width:0.614694"
   d="m 113.48583,310.85002 c -0.91255,-1.73433 -4.19441,-12.38708 -5.82227,-18.89883 -6.46592,-25.86497 -6.14848,-53.68072 0.90595,-79.38427 l 1.88794,-6.87892 5.23488,-2.19136 c 6.0569,-2.53547 13.61949,-4.92927 14.0891,-4.45966 0.17764,0.17764 -0.64174,3.32093 -1.82084,6.9851 -5.53367,17.19634 -7.444,31.32986 -7.00716,51.84214 0.32413,15.21973 1.35139,23.34958 4.4696,35.37294 l 1.44204,5.56027 -6.41492,6.54836 c -5.36963,5.48133 -6.50444,6.37823 -6.96432,5.50423 z"
   id="path8098" /><path
   style="fill:#999999;stroke-width:0.614694"
   d="m 231.43237,410.32803 c -17.51636,-3.65964 -33.2252,-9.52955 -47.6388,-17.80116 -12.83355,-7.36486 -21.66953,-14.1008 -33.09165,-25.2268 l -7.2745,-7.0859 0.38992,-3.3825 c 0.64342,-5.58153 2.27073,-14.12778 2.74605,-14.42154 0.24446,-0.15109 1.85184,1.7497 3.57197,4.22398 7.34646,10.56734 21.07367,24.95938 31.50678,33.0327 13.77661,10.66057 31.11883,20.08357 46.83425,25.44766 7.63634,2.60648 8.47319,3.03701 9.03476,4.64793 0.72702,2.08552 1.05147,2.05533 -6.07878,0.56563 z"
   id="path8100" /><path
   style="fill:#b3b3b3;stroke-width:0.614694"
   d="m 245.57034,456.57904 c -18.43771,-1.54185 -39.09022,-6.43987 -56.85922,-13.4849 C 115.8524,414.20719 66.751086,348.53465 59.887321,270.79353 58.974986,260.46015 59.481701,237.48956 60.836959,227.7442 65.07538,197.26666 75.972034,168.10097 92.495077,143.00893 123.09531,96.539147 170.51535,64.925363 225.28543,54.480846 c 23.78589,-4.535909 51.49076,-4.426732 75.8259,0.298809 48.46871,9.411939 93.26696,37.438572 123.042,76.977405 5.06859,6.73066 14.44034,21.87879 19.86822,32.11418 6.55474,12.36034 13.62476,32.54153 16.89969,48.2398 3.21578,15.41476 3.78839,21.88565 3.77669,42.67971 -0.012,21.28301 -0.54516,26.81573 -4.08745,42.4139 -7.11864,31.34639 -20.62779,59.74897 -39.43424,82.90932 -40.48299,49.85524 -97.74104,77.29718 -160.23855,76.7972 -6.93067,-0.0554 -13.84598,-0.2049 -15.36735,-0.33213 z m 30.76551,-43.22808 c 19.93885,-1.55699 42.6557,-8.23261 60.81544,-17.87135 3.21644,-1.70721 9.30573,-5.4035 13.53176,-8.21398 24.31095,-16.16775 45.81037,-41.26227 57.31777,-66.90239 9.27873,-20.67432 13.98676,-42.73508 13.98676,-65.53884 0,-21.59707 -2.68302,-37.09297 -9.802,-56.61205 -14.53296,-39.84701 -46.9585,-74.06149 -86.09628,-90.8463 -51.13104,-21.928291 -108.72034,-16.441979 -154.28227,14.69788 -11.45875,7.83162 -27.49148,23.0009 -36.33243,34.37575 -16.09767,20.71136 -27.80849,48.3016 -31.60343,74.45642 -1.27059,8.75695 -1.82277,29.95558 -1.00193,38.46532 2.378,24.65308 11.90347,51.68714 25.48219,72.32059 24.53302,37.27897 62.07819,61.94247 106.76911,70.13686 11.92793,2.18707 26.08716,2.71341 41.21531,1.53209 z"
   id="path8828" /><path
   style="fill:#b3b3b3;stroke-width:0.614694"
   d="M 237.57931,455.42124 C 191.77073,449.29782 148.12529,427.40443 116.73783,394.80482 86.998185,363.91665 68.803858,327.21915 61.686482,283.76764 60.077974,273.94773 59.42374,246.6923 60.503419,234.48119 c 3.479943,-39.358 20.643895,-79.94727 46.907881,-110.92765 5.75294,-6.78603 18.64625,-19.59047 25.26603,-25.091869 30.05324,-24.975905 65.93572,-40.526227 105.45025,-45.698786 11.06199,-1.448045 36.09812,-1.441396 48.01257,0.01275 39.13496,4.776379 75.13423,20.322933 105.95232,45.756307 7.74353,6.390538 21.20556,20.036138 27.4139,27.787718 8.5719,10.70265 21.50863,31.39875 26.85838,42.96786 9.16665,19.82334 15.60867,43.40631 17.47946,63.98893 1.11321,12.2475 0.41125,43.39548 -1.17776,52.26113 -5.97512,33.3373 -18.8714,64.05638 -37.08112,88.32766 -22.01203,29.33928 -51.45824,52.72908 -83.81535,66.57643 -18.56199,7.94367 -37.43416,12.83703 -58.0886,15.06178 -10.71998,1.15468 -37.2023,1.10745 -46.10207,-0.0822 z m 50.13116,-43.18453 c 34.24026,-5.88292 63.36366,-20.80312 87.26959,-44.70905 24.91188,-24.91188 39.22897,-52.49981 45.28625,-87.26312 1.22862,-7.05121 1.38723,-10.05013 1.39606,-26.39583 0.008,-14.933 -0.19918,-19.66857 -1.08948,-24.89512 -1.70433,-10.00535 -3.41401,-16.76475 -6.62872,-26.20728 -8.38059,-24.6162 -19.85054,-42.9404 -38.63874,-61.7286 -25.89261,-25.89261 -55.21587,-40.42073 -92.54609,-45.851676 -11.06182,-1.609317 -32.23322,-1.466348 -43.64329,0.29472 -31.33834,4.836866 -59.12631,17.642456 -81.44699,37.533406 -23.89159,21.29087 -38.01093,42.52625 -47.65915,71.67901 -6.12158,18.49681 -8.02905,32.63045 -7.50546,55.61299 0.24617,10.80593 0.59361,14.75465 1.89444,21.53114 7.21006,37.55969 25.61771,69.82917 53.56006,93.89331 22.42772,19.31489 53.03692,33.02015 83.30853,37.30135 9.7212,1.37484 36.47921,0.91665 46.44299,-0.79525 z"
   id="path8830" /><path
   style="fill:#e6e6e6;stroke-width:0.614694"
   d="M 237.60077,455.44653 C 220.93976,453.30806 203.12878,448.55615 186.60309,441.84051 117.25847,413.66053 69.401032,350.80355 60.792467,276.59812 60.003569,269.79786 59.858657,264.16205 60.097393,249.56585 60.427041,229.4114 61.35843,221.77453 65.486927,205.37468 77.874747,156.16589 108.03532,113.4721 150.29273,85.327875 186.91896,60.934124 230.47929,49.1416 273.99994,51.838221 c 16.98031,1.052132 29.20298,3.076297 43.68957,7.235322 37.19665,10.678959 71.52377,32.453275 96.89655,61.463247 7.68101,8.78208 12.33791,15.23934 20.46056,28.37063 10.30228,16.65492 17.10588,31.98826 22.16178,49.94616 5.60022,19.8913 6.62158,27.1917 7.021,50.18454 0.37071,21.33946 -0.26152,30.76296 -2.92233,43.55782 -8.25117,39.67685 -25.8979,73.52535 -52.83915,101.35168 -34.51757,35.65155 -76.52049,56.37188 -124.78654,61.55802 -10.47994,1.12606 -37.11302,1.09189 -46.08061,-0.0591 z m 39.69073,-42.08709 c 13.5943,-1.09265 30.5217,-5.11035 43.88622,-10.41634 19.78067,-7.85333 36.36371,-18.69568 52.16471,-34.10641 25.92895,-25.28854 40.85673,-53.53073 46.94959,-88.82497 1.82692,-10.58288 1.97391,-40.24496 0.25086,-50.62467 -4.66081,-28.07688 -16.34177,-54.39818 -33.66584,-75.86093 -5.10822,-6.32857 -18.00322,-19.13535 -24.5148,-24.34709 -35.80102,-28.65441 -82.00643,-40.612656 -127.23903,-32.930247 -26.29448,4.465917 -51.30787,15.638547 -71.61455,31.987797 -8.51038,6.85185 -22.81637,21.2212 -28.69072,28.81779 -15.08223,19.50405 -26.8102,47.05801 -31.00388,72.84126 -1.58879,9.76807 -1.62135,39.71927 -0.0528,48.56085 5.11433,28.82826 16.76712,55.02949 34.03584,76.52943 5.47585,6.81754 16.97132,18.31572 23.56012,23.56566 18.12992,14.44589 39.68822,25.10791 62.33628,30.82947 9.05058,2.28643 13.53691,3.09526 23.41356,4.2211 4.32915,0.49348 22.88106,0.34432 30.18443,-0.2427 z"
   id="path8832" /><path
   style="fill:#333333;stroke-width:0.614694"
   d="m 224.97808,408.51129 c -29.31732,-7.50761 -50.60035,-19.24832 -72.53392,-40.0131 -8.57675,-8.11972 -8.6051,-8.15565 -8.42366,-10.67604 0.24154,-3.35503 2.01171,-13.38787 2.53541,-14.37002 0.26772,-0.50207 1.47957,0.69314 3.42792,3.38082 7.71269,10.6394 23.35047,26.82413 32.7864,33.93315 12.37296,9.32178 30.08391,18.90326 44.92491,24.30401 7.12614,2.59326 9.88417,4.08151 9.88417,5.33355 0,0.97643 -3.38158,0.4686 -12.60123,-1.89237 z"
   id="path8834" /></svg>
