<?xml version="1.0" encoding="UTF-8" standalone="no"?>
<!-- Uploaded to: SVG Repo, www.svgrepo.com, Generator: SVG Repo Mixer Tools -->

<svg
   height="800px"
   width="800px"
   version="1.1"
   id="Layer_1"
   viewBox="0 0 512 512"
   xml:space="preserve"
   sodipodi:docname="bathroom-fan.svg"
   inkscape:version="1.3.2 (091e20e, 2023-11-25, custom)"
   xmlns:inkscape="http://www.inkscape.org/namespaces/inkscape"
   xmlns:sodipodi="http://sodipodi.sourceforge.net/DTD/sodipodi-0.dtd"
   xmlns="http://www.w3.org/2000/svg"
   xmlns:svg="http://www.w3.org/2000/svg"><defs
   id="defs14" /><sodipodi:namedview
   id="namedview14"
   pagecolor="#ffffff"
   bordercolor="#000000"
   borderopacity="0.25"
   inkscape:showpageshadow="2"
   inkscape:pageopacity="0.0"
   inkscape:pagecheckerboard="0"
   inkscape:deskcolor="#d1d1d1"
   inkscape:zoom="1.01625"
   inkscape:cx="400"
   inkscape:cy="400"
   inkscape:window-width="1920"
   inkscape:window-height="1009"
   inkscape:window-x="-8"
   inkscape:window-y="-8"
   inkscape:window-maximized="1"
   inkscape:current-layer="Layer_1" />
<path
   style="fill:#DBE9FD;"
   d="M448.696,473.043H63.304C28.397,473.043,0,444.641,0,409.739V102.261  c0-34.902,28.397-63.304,63.304-63.304h385.391c34.902,0,63.304,28.403,63.304,63.304v307.478  C512,444.641,483.597,473.043,448.696,473.043z"
   id="path1" />
<path
   style="fill:#C5DCFD;"
   d="M448.696,38.957H217.043v434.087h231.652c34.902,0,63.304-28.403,63.304-63.304V102.261  C512,67.359,483.597,38.957,448.696,38.957z"
   id="path2" />
<path
   style="fill:#615349;"
   d="M217.043,139.13c-64.68,0-116.87,52.913-116.87,116.87c0,63.851,52.078,116.87,116.87,116.87  c64.68,0,116.87-52.913,116.87-116.87C333.913,192.149,281.835,139.13,217.043,139.13z"
   id="path3" />
<path
   style="fill:#594C43;"
   d="M333.913,256c0-63.851-52.078-116.87-116.87-116.87V372.87  C281.724,372.87,333.913,319.955,333.913,256z"
   id="path4" />
<path
   style="fill:#B1C6E4;"
   d="M347.051,180.894c-12.93-22.487-31.558-41.325-53.869-54.477  c-22.949-13.528-49.278-20.678-76.139-20.678c-26.86,0-53.188,7.15-76.137,20.678c-22.311,13.152-40.939,31.99-53.862,54.465  C73.789,203.884,66.783,229.86,66.783,256s7.007,52.116,20.255,75.106c12.93,22.487,31.558,41.325,53.869,54.477  c22.949,13.528,49.277,20.678,76.137,20.678c26.861,0,53.19-7.15,76.139-20.678c22.311-13.152,40.939-31.99,53.862-54.466  c13.254-23.004,20.26-48.979,20.26-75.117S360.299,203.887,347.051,180.894z M300.522,289.391  c-18.412,0-33.391-14.979-33.391-33.391h-33.391c0,36.824,29.959,66.783,66.783,66.783c4.52,0,8.936-0.456,13.205-1.317  c-21.513,31.898-57.834,51.404-96.683,51.404c-18.412,0-33.391-14.979-33.391-33.391s14.979-33.391,33.391-33.391v-33.391  c-36.824,0-66.783,29.959-66.783,66.783c0,4.532,0.459,8.959,1.323,13.24c-14.403-9.759-26.679-22.743-35.607-38.271  c-10.486-18.196-15.803-37.861-15.803-58.447c0-18.412,14.979-33.391,33.391-33.391s33.391,14.979,33.391,33.391h33.391  c0-36.824-29.959-66.783-66.783-66.783c-4.519,0-8.933,0.456-13.203,1.317c21.512-31.899,57.833-51.404,96.681-51.404  c18.412,0,33.391,14.979,33.391,33.391s-14.979,33.391-33.391,33.391v33.391c36.824,0,66.783-29.959,66.783-66.783  c0-4.532-0.459-8.96-1.323-13.241c14.404,9.76,26.68,22.744,35.61,38.272c10.485,18.197,15.801,37.862,15.801,58.447  C333.913,274.412,318.934,289.391,300.522,289.391z"
   id="path5" />
<path
   style="fill:#9DB0CA;"
   d="M250.435,172.522c0,18.412-14.979,33.391-33.391,33.391v33.391c36.824,0,66.783-29.959,66.783-66.783  c0-4.532-0.459-8.96-1.323-13.241c14.404,9.76,26.68,22.744,35.61,38.272c10.485,18.197,15.801,37.862,15.801,58.447  c0,18.412-14.979,33.391-33.391,33.391S267.13,274.412,267.13,256h-33.391c0,36.824,29.959,66.783,66.783,66.783  c4.52,0,8.936-0.456,13.205-1.317c-21.513,31.898-57.834,51.404-96.683,51.404v33.391c26.861,0,53.19-7.15,76.139-20.678  c22.311-13.152,40.939-31.99,53.862-54.466c13.254-23.004,20.26-48.979,20.26-75.117s-7.005-52.113-20.253-75.106  c-12.93-22.487-31.558-41.325-53.869-54.477c-22.949-13.528-49.278-20.678-76.139-20.678v33.391  C235.455,139.13,250.435,154.11,250.435,172.522z"
   id="path6" />
<path
   style="fill:#DBE9FD;"
   d="M217.043,306.087c-27.618,0-50.087-22.469-50.087-50.087s22.469-50.087,50.087-50.087  S267.13,228.382,267.13,256S244.661,306.087,217.043,306.087z"
   id="path7" />
<path
   style="fill:#C5DCFD;"
   d="M267.13,256c0-27.618-22.469-50.087-50.087-50.087v100.174  C244.661,306.087,267.13,283.618,267.13,256z"
   id="path8" />
<g
   id="g14">
	<path
   style="fill:#9DB0CA;"
   d="M217.043,239.304c-9.206,0-16.696,7.49-16.696,16.696s7.49,16.696,16.696,16.696   s16.696-7.49,16.696-16.696S226.249,239.304,217.043,239.304z"
   id="path9" />
	<path
   style="fill:#9DB0CA;"
   d="M233.739,256c0-9.206-7.49-16.696-16.696-16.696v33.391   C226.249,272.696,233.739,265.206,233.739,256z"
   id="path10" />
	<path
   style="fill:#9DB0CA;"
   d="M512,172.522h-94.609c-9.22,0-16.696-7.475-16.696-16.696l0,0c0-9.22,7.475-16.696,16.696-16.696   H512V172.522z"
   id="path11" />
	<path
   style="fill:#9DB0CA;"
   d="M512,239.304h-94.609c-9.22,0-16.696-7.475-16.696-16.696l0,0c0-9.22,7.475-16.696,16.696-16.696   H512V239.304z"
   id="path12" />
	<path
   style="fill:#9DB0CA;"
   d="M512,306.087h-94.609c-9.22,0-16.696-7.475-16.696-16.696l0,0c0-9.22,7.475-16.696,16.696-16.696   H512V306.087z"
   id="path13" />
	<path
   style="fill:#9DB0CA;"
   d="M512,372.87h-94.609c-9.22,0-16.696-7.475-16.696-16.696l0,0c0-9.22,7.475-16.696,16.696-16.696H512   V372.87z"
   id="path14" />
</g>
<path
   style="fill:#cccccc;stroke-width:0.98401"
   d="M 86.85754,737.94429 C 41.069299,731.98828 6.2026522,696.29385 1.0518974,650.10147 c -1.46890404,-13.17324 -1.46890404,-487.0297 0,-500.20294 C 6.2046231,103.68848 41.509748,67.656747 87.084871,62.09492 93.075846,61.363802 135.17709,61.013257 217.22017,61.011382 l 121.27921,-0.0028 v 51.545748 51.54575 l -2.21402,0.59333 c -1.21771,0.32634 -5.09225,0.60302 -8.61008,0.61485 -16.83356,0.0566 -42.1103,4.78797 -63.46864,11.88019 -84.84855,28.17472 -146.64164,103.89196 -158.38902,194.07963 -1.95425,15.00339 -1.95425,42.46039 0,57.46378 9.03053,69.32968 47.44422,130.65135 105.7445,168.80516 21.14547,13.83838 50.22278,26.10954 74.96459,31.63646 13.47666,3.01047 31.98478,5.508 40.95297,5.52627 3.62541,0.007 7.58797,0.28044 8.80568,0.60678 l 2.21402,0.59333 v 51.54575 51.54575 l -122.75522,-0.12477 c -67.51538,-0.0686 -125.514355,-0.48368 -128.88662,-0.92233 z"
   id="path15"
   transform="scale(0.64)" /><path
   style="fill:#e6e6e6;stroke-width:0.98401"
   d="m 339.48339,687.39747 v -51.63793 l 3.19804,-0.48428 c 1.75891,-0.26636 8.06888,-0.71619 14.02214,-0.99965 13.41293,-0.63861 29.65392,-3.42175 45.80162,-7.84878 80.58814,-22.09393 144.00219,-87.45874 164.75709,-169.82538 13.4845,-53.5138 7.41803,-109.93337 -17.19552,-159.92248 -26.42016,-53.65821 -70.528,-94.31714 -125.91335,-116.06783 -19.6005,-7.69742 -46.90084,-13.81075 -66.33155,-14.85353 -5.48591,-0.29442 -11.8563,-0.76328 -14.15642,-1.04193 l -4.18205,-0.50663 V 112.60883 61.00861 l 183.27184,0.0058 c 193.08743,0.0061 192.60117,-0.004 206.4485,4.296223 20.18913,6.269645 38.71827,19.31866 51.04743,35.949787 6.64972,8.96998 13.32402,23.18214 16.4484,35.02494 2.51764,9.54303 2.60993,10.90092 3.05701,44.97883 l 0.46097,35.13872 -77.10754,0.28563 -77.10754,0.28563 -4.48188,2.20878 c -20.91528,10.30754 -20.88344,38.92393 0.0538,48.39044 4.3306,1.95803 6.12235,2.00256 81.42681,2.0237 L 800,269.6187 v 25.54457 25.54458 l -76.50677,0.32548 c -84.83282,0.3609 -80.55974,0.0212 -88.53202,7.03865 -14.61699,12.8664 -11.15924,35.77088 6.61321,43.80646 4.3306,1.95803 6.12235,2.00255 81.42681,2.02369 L 800,373.92374 V 400 426.07626 h -76.3926 c -55.70541,0 -77.43855,0.31338 -80.25504,1.15722 -5.37048,1.60903 -12.44575,8.1549 -15.19434,14.05744 -3.13326,6.72863 -3.13326,14.99457 0,21.7232 2.74859,5.90254 9.82386,12.44841 15.19434,14.05745 2.81649,0.84383 24.54963,1.15721 80.25504,1.15721 H 800 v 26.07626 26.07626 l -76.99877,0.01 -76.99877,0.01 -4.92005,2.32991 c -17.25954,8.17333 -20.58533,30.50606 -6.4418,43.25694 8.3051,7.48734 2.49273,7.00557 88.36062,7.32391 L 800,583.59674 v 28.53562 c 0,15.69458 -0.47336,32.78068 -1.0519,37.96911 -4.81818,43.20986 -34.01516,75.8127 -77.66889,86.72906 -5.771,1.44313 -24.73921,1.62903 -194.09594,1.90216 l -187.69988,0.30271 z"
   id="path16"
   transform="scale(0.64)" /><path
   style="fill:#ececec;stroke-width:0.98401"
   d="M 193.84994,738.00351 82.164822,737.47133 73.308733,734.82302 C 38.459668,724.40179 13.424369,698.84356 4.1482862,664.21794 L 1.6409381,654.85855 0.73807026,527.07744 C 0.19027887,449.5496 0.19025122,349.3198 0.738,272.21889 L 1.6407975,145.14145 4.1687752,135.79336 C 12.011116,106.79352 30.172764,84.616434 56.580566,71.793611 75.596133,62.560231 73.334731,62.811169 145.14145,61.96639 179.7786,61.558896 237.45782,61.176694 273.31751,61.117052 l 65.19943,-0.108442 -0.25478,51.41451 -0.25478,51.41452 -8.85609,0.72563 c -25.65132,2.10176 -39.59881,4.54995 -58.54858,10.27699 -52.10171,15.74627 -95.79167,48.15553 -126.44146,93.79443 -20.67715,30.78917 -34.33444,67.12797 -38.82169,103.29522 -1.33328,10.74628 -1.33563,45.36595 -0.004,56.14018 6.4108,51.86235 30.73307,101.55364 67.93591,138.79559 39.75325,39.79503 91.72131,63.41483 149.25329,67.83652 7.43292,0.57127 14.06792,1.23031 14.74442,1.46453 0.9628,0.33335 1.23001,11.54888 1.23001,51.62527 v 51.19939 l -16.48216,-0.22785 c -9.06519,-0.12531 -66.74047,-0.46732 -128.16728,-0.76003 z"
   id="path17"
   transform="scale(0.64)" /><path
   style="fill:#b3b3b3;stroke-width:0.98401"
   d="m 321.77122,633.64166 c -81.3489,-5.9826 -153.80865,-54.16093 -190.82119,-126.87659 -10.97115,-21.55419 -18.30167,-43.28505 -22.85805,-67.76133 -2.90395,-15.59963 -3.60391,-50.4084 -1.36876,-68.06744 7.21945,-57.03798 36.2836,-111.14012 79.7946,-148.53556 40.08456,-34.45058 86.77254,-53.00539 142.38747,-56.58783 l 9.59409,-0.618 v 25.99198 25.99198 l -7.62607,0.18233 c -25.30952,0.60513 -56.29394,9.40165 -80.12696,22.74813 -17.89233,10.01971 -29.64609,19.02685 -43.15965,33.07413 -8.43221,8.76523 -20.29427,23.66207 -19.48559,24.47075 0.23768,0.23768 3.51031,-0.0512 7.27253,-0.64201 10.02493,-1.57422 27.61275,-0.45713 39.0012,2.47715 18.74548,4.82985 37.02201,15.78478 50.30007,30.14979 l 6.69215,7.23996 -7.34086,7.45221 c -4.03746,4.09871 -9.13808,10.26648 -11.33471,13.70614 -4.49635,7.04076 -9.39072,19.07872 -10.45979,25.72639 -1.06908,6.64787 -1.49724,6.62936 -3.79195,-0.16387 -7.09059,-20.99098 -24.37999,-34.39358 -46.36967,-35.94543 -9.80871,-0.6922 -21.9193,2.08063 -29.87298,6.83971 -8.03013,4.80482 -16.25131,13.51798 -20.19775,21.40645 -4.96361,9.92169 -5.88626,15.70119 -5.26103,32.95539 0.95885,26.46122 6.32131,46.55219 19.43548,72.81673 9.42115,18.86832 17.63836,30.65878 31.35427,44.98868 9.28418,9.69979 28.08772,25.25858 29.19183,24.15447 0.24703,-0.24702 -0.0486,-3.94957 -0.65692,-8.22788 -4.41078,-31.02029 9.95909,-68.7023 34.18709,-89.64853 l 5.91873,-5.11703 6.31904,6.43472 c 11.2697,11.47598 23.38264,18.42263 38.73051,22.21156 l 8.57119,2.11598 -5.20589,1.33228 c -18.51311,4.73785 -34.41422,22.93503 -37.43297,42.83816 -3.33609,21.99545 8.39474,44.70432 28.22447,54.63776 5.77588,2.89336 14.02762,5.14084 18.87479,5.14084 h 4.24944 v 26.07626 26.07626 l -3.19803,-0.14242 c -1.75891,-0.0783 -7.84748,-0.48435 -13.53013,-0.90227 z"
   id="path18"
   transform="scale(0.64)" /><path
   style="fill:#b3b3b3;stroke-width:0.98401"
   d="M 339.48339,452.26541 V 426.3322 l 4.46909,-0.50372 c 13.57634,-1.53026 24.07398,-17.01544 21.06054,-31.06664 -2.24968,-10.48987 -11.47578,-19.50997 -21.06054,-20.59032 l -4.46909,-0.50373 v -26.02661 -26.0266 l 6.64207,0.69306 c 23.35171,2.43662 44.17278,14.68371 56.88841,33.46212 33.80567,49.92411 2.76183,115.82908 -57.38041,121.81657 l -6.15007,0.61228 z"
   id="path19"
   transform="scale(0.64)" /><path
   style="fill:#cccccc;stroke-width:0.98401"
   d="m 339.48339,608.61009 v -26.07626 l 7.13408,-0.0799 c 3.92374,-0.044 8.24108,-0.20247 9.59409,-0.35222 10.8856,-1.20487 15.56257,-1.90719 17.46618,-2.62283 1.21771,-0.45778 2.21402,-0.66605 2.21402,-0.4628 0,0.72619 20.62906,-5.19738 27.06027,-7.77027 2.16482,-0.86608 4.82165,-1.85474 5.90406,-2.19706 3.99503,-1.26341 27.06027,-13.35892 27.06027,-14.19052 0,-0.47335 0.47372,-0.86064 1.05271,-0.86064 1.07963,0 8.59213,-4.91089 10.92764,-7.14335 0.71709,-0.68543 2.6322,-2.09813 4.25581,-3.13932 3.95773,-2.53798 25.18468,-23.44358 28.69428,-28.25985 1.53672,-2.10887 3.62,-4.81613 4.62952,-6.01613 2.77036,-3.29309 4.87353,-6.62534 4.44787,-7.04719 -0.20861,-0.20675 -2.37191,0.009 -4.80734,0.47987 -12.54122,2.42371 -34.91149,0.40909 -49.06848,-4.41902 -15.98543,-5.45169 -29.87103,-14.49498 -42.21258,-27.49185 l -7.14822,-7.52778 7.16598,-7.11622 c 12.18022,-12.09563 19.06618,-24.7228 22.36342,-41.00906 l 1.69619,-8.3781 0.69531,4.63662 c 1.86123,12.41157 14.38112,28.52756 27.14799,34.94569 20.78785,10.45044 44.00022,6.67366 60.43967,-9.83388 14.24765,-14.30666 17.92008,-28.37329 14.71364,-56.35817 -1.23432,-10.77271 -1.52373,-12.43636 -3.89433,-22.38622 -0.22564,-0.94711 -0.61802,-2.66873 -0.87193,-3.82583 -0.98558,-4.49135 -3.7151,-13.3087 -5.13638,-16.59237 -0.81988,-1.89422 -1.83621,-4.32965 -2.25851,-5.41206 -1.82111,-4.66771 -13.02072,-27.13904 -14.0916,-28.27392 -0.64685,-0.68551 -1.76845,-2.39689 -2.49245,-3.80307 -0.72401,-1.40618 -2.27382,-3.68967 -3.44404,-5.07443 -1.17021,-1.38476 -2.79187,-3.50617 -3.60368,-4.71426 -6.28079,-9.34675 -24.58389,-27.77285 -35.91636,-36.15774 -0.5412,-0.40044 -2.26144,-1.71747 -3.82274,-2.92674 -1.5613,-1.20927 -3.16137,-2.19867 -3.5557,-2.19867 -0.39434,0 -0.28862,2.32472 0.23493,5.16605 1.57418,8.54312 0.32827,32.45695 -2.16485,41.55149 -5.56518,20.3011 -17.92307,40.35646 -32.01651,51.95895 l -5.50969,4.53588 -6.59502,-6.66502 c -12.83218,-12.96839 -27.26217,-20.52163 -44.4794,-23.28232 l -4.42804,-0.71002 5.14193,-1.31881 c 14.17149,-3.63475 27.53482,-14.59878 34.05393,-27.93977 7.09387,-14.51719 7.14272,-30.34923 0.13926,-45.13765 -7.70216,-16.26381 -27.04182,-29.58483 -43.02516,-29.63542 l -3.69004,-0.0117 v -26.07626 c 0,-24.45503 0.11013,-26.07626 1.77133,-26.07626 7.31931,0 30.49355,2.51777 41.0331,4.45805 72.47998,13.34319 134.83904,61.01933 167.27819,127.89128 31.75256,65.45654 31.75793,139.40577 0.0149,204.67404 -32.51637,66.85828 -94.86124,114.52214 -167.29305,127.89875 -10.08899,1.86322 -34.01268,4.42197 -41.57441,4.44657 -0.95317,0.003 -1.23002,-5.86512 -1.23002,-26.07225 z"
   id="path20"
   transform="scale(0.64)" /><path
   style="fill:#cccccc;stroke-width:0.98401"
   d="m 330.31107,477.18996 c -27.1824,-3.15943 -51.23919,-20.8944 -62.31543,-45.93975 -6.35757,-14.3756 -8.11108,-34.94519 -4.26536,-50.03499 8.38822,-32.9136 34.96568,-55.05889 70.58706,-58.81568 l 4.18204,-0.44105 v 25.98262 25.98263 l -3.19803,0.0216 c -6.93063,0.0468 -16.33736,6.89168 -20.05248,14.59127 -2.22699,4.61544 -2.90383,14.61016 -1.31945,19.48413 2.8885,8.88583 11.91053,16.88456 20.08376,17.8058 l 4.4862,0.50565 v 25.94829 c 0,14.27156 -0.3321,25.8901 -0.738,25.81896 -0.40591,-0.0711 -3.75854,-0.48039 -7.45031,-0.90949 z"
   id="path21"
   transform="scale(0.64)" /><path
   style="fill:#cccccc;stroke-width:0.98401"
   d="m 648.95449,581.6103 c -13.00059,-1.70813 -22.097,-12.06246 -22.097,-25.15274 0,-10.02033 4.99183,-18.09206 13.94922,-22.55571 l 5.09015,-2.53654 H 722.94843 800 v 25.58426 25.58426 l -73.06273,-0.13855 c -40.1845,-0.0762 -75.27675,-0.42944 -77.98278,-0.78498 z"
   id="path22"
   transform="scale(0.64)" /><path
   style="fill:#cccccc;stroke-width:0.98401"
   d="m 675.03075,477.27202 c -29.55377,-0.49509 -31.18518,-0.62028 -35.05457,-2.69013 -18.0905,-9.67709 -17.21652,-37.36589 1.43265,-45.38855 4.64879,-1.99985 6.70422,-2.06888 81.67998,-2.74304 L 800,425.75873 v 26.23502 26.23503 l -46.98647,-0.21876 c -25.84256,-0.12031 -60.93481,-0.45242 -77.98278,-0.738 z"
   id="path23"
   transform="scale(0.64)" /><path
   style="fill:#cccccc;stroke-width:0.98401"
   d="m 679.9508,372.96912 c -34.6355,-0.5028 -36.06109,-0.59881 -39.97462,-2.69227 -8.09491,-4.33018 -13.11869,-12.91947 -13.11869,-22.42937 0,-9.94812 5.04397,-18.1455 14.1071,-22.92661 l 5.03787,-2.65765 76.99877,-0.3056 L 800,321.65201 v 26.13587 26.13586 l -42.06642,-0.21661 c -23.13653,-0.11914 -58.22878,-0.45124 -77.98278,-0.73801 z"
   id="path24"
   transform="scale(0.64)" /><path
   style="fill:#cccccc;stroke-width:0.98401"
   d="m 640.80671,266.09815 c -19.39917,-9.66701 -18.49138,-36.98876 1.54234,-46.42005 3.3641,-1.58372 9.75084,-1.74168 80.65218,-1.99465 L 800,217.40872 v 25.61299 25.61298 h -77.05157 -77.05157 z"
   id="path25"
   transform="scale(0.64)" /><path
   style="fill:#999999;stroke-width:0.98401"
   d="M 335.05535,425.17227 C 322.53426,422.94911 313.94236,412.7053 313.94236,400 c 0,-14.48959 10.69149,-25.15106 25.44994,-25.37848 10.28874,-0.15854 18.08827,4.84533 23.15179,14.85328 8.89318,17.57721 -7.75795,39.20073 -27.48874,35.69747 z"
   id="path26"
   transform="scale(0.64)" /></svg>
