<?xml version="1.0" encoding="UTF-8" standalone="no"?>
<!-- Uploaded to: SVG Repo, www.svgrepo.com, Generator: SVG Repo Mixer Tools -->

<svg
   version="1.1"
   id="Capa_1"
   viewBox="0 0 60 60"
   xml:space="preserve"
   sodipodi:docname="bedroom-curtains-left-partial.svg"
   inkscape:version="1.4.3 (0d15f75, 2025-12-25)"
   xmlns:inkscape="http://www.inkscape.org/namespaces/inkscape"
   xmlns:sodipodi="http://sodipodi.sourceforge.net/DTD/sodipodi-0.dtd"
   xmlns="http://www.w3.org/2000/svg"
   xmlns:svg="http://www.w3.org/2000/svg"><defs
   id="defs15" /><sodipodi:namedview
   id="namedview15"
   pagecolor="#ffffff"
   bordercolor="#000000"
   borderopacity="0.25"
   inkscape:showpageshadow="2"
   inkscape:pageopacity="0.0"
   inkscape:pagecheckerboard="0"
   inkscape:deskcolor="#d1d1d1"
   inkscape:zoom="13.55"
   inkscape:cx="29.9631"
   inkscape:cy="30"
   inkscape:window-width="2880"
   inkscape:window-height="1514"
   inkscape:window-x="-11"
   inkscape:window-y="-11"
   inkscape:window-maximized="1"
   inkscape:current-layer="Capa_1" />
<rect
   x="13"
   y="42"
   style="fill:#bcb7b3;stroke-width:0.668202"
   width="34"
   height="1.7859778"
   id="rect1" />

<rect
   x="13.402214"
   y="7"
   style="fill:#7fabda;stroke-width:1.52591"
   width="32.597786"
   height="32"
   id="rect3" /><rect
   x="12.819186"
   y="21.726936"
   style="fill:#f2f2f2;stroke-width:0.559652"
   width="33.557194"
   height="1.2693727"
   id="rect1-9" />







<line
   style="fill:none;stroke:#38454F;stroke-width:2;stroke-linecap:round;stroke-miterlimit:10;"
   x1="1"
   y1="3"
   x2="59"
   y2="3"
   id="line9" />
<g
   id="g14">
	<path
   style="fill:#7383BF;"
   d="M3,0C2.448,0,2,0.447,2,1v4c0,0.553,0.448,1,1,1s1-0.447,1-1V1C4,0.447,3.552,0,3,0z"
   id="path9" />
	<path
   style="fill:#7383BF;"
   d="M7,0C6.448,0,6,0.447,6,1v4c0,0.553,0.448,1,1,1s1-0.447,1-1V1C8,0.447,7.552,0,7,0z"
   id="path10" />
	<path
   style="fill:#7383BF;"
   d="M11,0c-0.552,0-1,0.447-1,1v4c0,0.553,0.448,1,1,1s1-0.447,1-1V1C12,0.447,11.552,0,11,0z"
   id="path11" />
	
	
	<path
   style="fill:#7383bf"
   d="m 15.114391,-0.11439114 c -0.552,0 -1,0.447 -1,1 V 4.8856089 c 0,0.553 0.448,1 1,1 0.552,0 1,-0.447 1,-1 V 0.88560886 c 0,-0.553 -0.448,-1 -1,-1 z"
   id="path14-4" /><path
   style="fill:#7383bf"
   d="m 19.756458,-0.08118081 c -0.552,0 -1,0.447 -1,1 V 4.9188192 c 0,0.553 0.448,1 1,1 0.552,0 1,-0.447 1,-1 V 0.91881919 c 0,-0.553 -0.448,-1 -1,-1 z"
   id="path14-8" />
</g>



<path
   style="fill:none;stroke-width:0.041476"
   d="M -14.428044,34.317343 V 8.8560886 h 0.99631 0.99631 V 34.317343 59.778598 h -0.99631 -0.99631 z"
   id="path30" /><path
   style="fill:#999999;stroke-width:0.041476"
   d="M 0.19188192,29.380076 V 1.8892993 h 2.98892998 2.98893 V 29.380076 56.87085 h -2.98893 -2.98892998 z m 4.04069598,-0.01845 -0.01856,-25.5166061 -1.01476,-0.020533 -1.01476,-0.020533 V 29.341093 54.878231 h 1.033316 1.033316 z"
   id="path31-7-6" /><path
   style="fill:#b3b3b3;stroke-width:0.0418649"
   d="M 2.1845019,29.453876 V 3.5129157 h 0.99631 0.99631 v 25.9409603 25.94096 h -0.99631 -0.99631 z"
   id="path32-42-0" /><path
   style="fill:none;stroke-width:0.041476"
   d="M 6.2250928,30.232473 V 4.7712175 h 0.99631 0.9963099 V 30.232473 55.693728 h -0.9963099 -0.99631 z"
   id="path30-9" /><path
   style="fill:none;stroke-width:0.041476"
   d="M -5.8191882,31.557196 V 6.095941 h 0.99631 0.99631 v 25.461255 25.461255 h -0.99631 -0.99631 z"
   id="path30-5" /><path
   style="fill:#999999;stroke-width:0.041476"
   d="M 3.8339483,29.350556 V 1.8597786 h 2.98893 2.98893 V 29.350556 56.84133 h -2.98893 -2.98893 z m 4.040696,-0.01845 -0.01856,-25.5166068 -1.01476,-0.020533 -1.01476,-0.020533 V 29.311573 54.848711 h 1.033316 1.033316 z"
   id="path31-7-4" /><path
   style="fill:#b3b3b3;stroke-width:0.0418649"
   d="M 5.8265683,29.424356 V 3.483395 h 0.99631 0.99631 v 25.940961 25.94096 h -0.99631 -0.99631 z"
   id="path32-42-8" /><path
   style="fill:#999999;stroke-width:0.041476"
   d="M 6.8450185,29.512917 V 2.0221402 h 2.98893 2.9889295 V 29.512917 57.003691 H 9.8339485 6.8450185 Z M 10.885714,29.494467 10.867154,3.9778608 9.8523945,3.9573278 8.8376345,3.9367948 V 29.473934 55.011072 h 1.033316 1.0333155 z"
   id="path31-7-5" /><path
   style="fill:#b3b3b3;stroke-width:0.0418649"
   d="M 8.8376385,29.586717 V 3.6457566 h 0.99631 0.9963095 v 25.9409604 25.94096 h -0.9963095 -0.99631 z"
   id="path32-42-09" /><path
   style="fill:none;stroke-width:0.041476"
   d="M 10.446495,30.195573 V 4.7343172 h 0.99631 0.99631 V 30.195573 55.656828 h -0.99631 -0.99631 z"
   id="path30-9-5-0" /><path
   style="fill:#b3b3b3;stroke-width:0.0290496"
   d="M 11.08118,29.387456 V 3.4464947 h 0.479705 0.479705 V 29.387456 55.328416 H 11.560885 11.08118 Z"
   id="path32-42-8-4-1" /><path
   style="fill:#999999;stroke-width:0.041476"
   d="M 11.06642,29.476017 V 1.9852399 h 2.98893 2.98893 V 29.476017 56.966791 h -2.98893 -2.98893 z m 4.040696,-0.01845 -0.01856,-25.5166065 -1.01476,-0.020533 -1.01476,-0.020533 V 29.437034 54.974172 h 1.033316 1.033316 z"
   id="path31-7-5-1-4" /><path
   style="fill:#b3b3b3;stroke-width:0.0418649"
   d="M 13.059041,29.549817 V 3.6088563 h 0.996309 0.99631 v 25.9409607 25.94096 h -0.99631 -0.996309 z"
   id="path32-42-09-2-6" /><path
   style="fill:none;stroke-width:0.041476"
   d="M 14.180812,30.309964 V 4.8487083 h 0.99631 0.99631 V 30.309964 55.771219 h -0.99631 -0.99631 z"
   id="path30-9-5-7" /><path
   style="fill:#b3b3b3;stroke-width:0.0290496"
   d="M 14.815497,29.501847 V 3.5608858 h 0.479705 0.479705 v 25.9409612 25.94096 h -0.479705 -0.479705 z"
   id="path32-42-8-4-17" /><path
   style="fill:#999999;stroke-width:0.041476"
   d="M 14.800737,29.590408 V 2.099631 h 2.98893 2.98893 v 27.490777 27.490774 h -2.98893 -2.98893 z m 4.040696,-0.01845 -0.01856,-25.5166064 -1.01476,-0.020533 -1.01476,-0.020533 V 29.551425 55.088563 h 1.033316 1.033316 z"
   id="path31-7-5-1-7" /><path
   style="fill:#b3b3b3;stroke-width:0.0418649"
   d="M 16.793358,29.664208 V 3.7232474 h 0.996309 0.99631 v 25.9409606 25.94096 h -0.99631 -0.996309 z"
   id="path32-42-09-2-7" /><path
   style="fill:none;stroke-width:0.041476"
   d="M 17.911439,30.166053 V 4.7047969 h 0.99631 0.99631 V 30.166053 55.627308 h -0.99631 -0.99631 z"
   id="path30-9-5-8" /><path
   style="fill:#b3b3b3;stroke-width:0.0290496"
   d="M 18.546124,29.357936 V 3.4169744 h 0.479705 0.479705 v 25.9409616 25.94096 h -0.479705 -0.479705 z"
   id="path32-42-8-4-18" /><path
   style="fill:#999999;stroke-width:0.041476"
   d="M 18.531364,29.446497 V 1.9557196 h 2.98893 2.98893 V 29.446497 56.937271 h -2.98893 -2.98893 z M 22.57206,29.428047 22.5535,3.9114402 21.53874,3.8909072 20.52398,3.8703742 V 29.407514 54.944652 h 1.033316 1.033316 z"
   id="path31-7-5-1-2" /><path
   style="fill:#b3b3b3;stroke-width:0.0418649"
   d="M 20.523985,29.520297 V 3.579336 h 0.996309 0.99631 v 25.940961 25.94096 h -0.99631 -0.996309 z"
   id="path32-42-09-2-66" /></svg>
