<?xml version="1.0" encoding="UTF-8" standalone="no"?>
<!-- Uploaded to: SVG Repo, www.svgrepo.com, Generator: SVG Repo Mixer Tools -->

<svg
   version="1.1"
   id="Capa_1"
   viewBox="0 0 60 60"
   xml:space="preserve"
   sodipodi:docname="bedroom-curtains-right-partial.svg"
   inkscape:version="1.4.3 (0d15f75, 2025-12-25)"
   xmlns:inkscape="http://www.inkscape.org/namespaces/inkscape"
   xmlns:sodipodi="http://sodipodi.sourceforge.net/DTD/sodipodi-0.dtd"
   xmlns="http://www.w3.org/2000/svg"
   xmlns:svg="http://www.w3.org/2000/svg"><defs
   id="defs15" /><sodipodi:namedview
   id="namedview15"
   pagecolor="#ffffff"
   bordercolor="#000000"
   borderopacity="0.25"
   inkscape:showpageshadow="2"
   inkscape:pageopacity="0.0"
   inkscape:pagecheckerboard="0"
   inkscape:deskcolor="#d1d1d1"
   inkscape:zoom="13.55"
   inkscape:cx="29.9631"
   inkscape:cy="30"
   inkscape:window-width="2880"
   inkscape:window-height="1514"
   inkscape:window-x="-11"
   inkscape:window-y="-11"
   inkscape:window-maximized="1"
   inkscape:current-layer="Capa_1" />
<rect
   x="13"
   y="42"
   style="fill:#bcb7b3;stroke-width:0.668202"
   width="34"
   height="1.7859778"
   id="rect1" />

<rect
   x="13.402214"
   y="7"
   style="fill:#7fabda;stroke-width:1.52591"
   width="32.597786"
   height="32"
   id="rect3" /><rect
   x="12.819186"
   y="21.726936"
   style="fill:#f2f2f2;stroke-width:0.559652"
   width="33.557194"
   height="1.2693727"
   id="rect1-9" />







<line
   style="fill:none;stroke:#38454F;stroke-width:2;stroke-linecap:round;stroke-miterlimit:10;"
   x1="1"
   y1="3"
   x2="59"
   y2="3"
   id="line9" />
<g
   id="g14">
	
	
	
	<path
   style="fill:#7383BF;"
   d="M49,0c-0.552,0-1,0.447-1,1v4c0,0.553,0.448,1,1,1s1-0.447,1-1V1C50,0.447,49.552,0,49,0z"
   id="path12" />
	<path
   style="fill:#7383BF;"
   d="M53,0c-0.552,0-1,0.447-1,1v4c0,0.553,0.448,1,1,1s1-0.447,1-1V1C54,0.447,53.552,0,53,0z"
   id="path13" />
	<path
   style="fill:#7383BF;"
   d="M57,0c-0.552,0-1,0.447-1,1v4c0,0.553,0.448,1,1,1s1-0.447,1-1V1C58,0.447,57.552,0,57,0z"
   id="path14" /><path
   style="fill:#7383bf"
   d="m 44.9631,0.01107011 c -0.552,0 -1,0.447 -1,0.99999999 v 4 c 0,0.553 0.448,1 1,1 0.552,0 1,-0.447 1,-1 v -4 c 0,-0.55299999 -0.448,-0.99999999 -1,-0.99999999 z"
   id="path14-0" /><path
   style="fill:#7383bf"
   d="m 39.98893,-0.09594096 c -0.552,0 -1,0.447 -1,1 V 4.904059 c 0,0.553 0.448,1 1,1 0.552,0 1,-0.447 1,-1 V 0.90405904 c 0,-0.553 -0.448,-1 -1,-1 z"
   id="path14-8-1" />
</g>



<path
   style="fill:none;stroke-width:0.041476"
   d="M -14.428044,34.317343 V 8.8560886 h 0.99631 0.99631 V 34.317343 59.778598 h -0.99631 -0.99631 z"
   id="path30" /><path
   style="fill:none;stroke-width:0.041476"
   d="M 48.243542,30.383764 V 4.9225101 h 0.99631 0.99631 V 30.383764 55.845019 h -0.99631 -0.99631 z"
   id="path30-3" /><path
   style="fill:none;stroke-width:0.041476"
   d="M 52.693727,30.357934 V 4.8966791 h 0.99631 0.99631 V 30.357934 55.819189 h -0.99631 -0.99631 z"
   id="path30-38" /><path
   style="fill:#999999;stroke-width:0.041476"
   d="M 53.653137,29.583028 V 2.0922509 h 2.98893 2.98893 V 29.583028 57.073802 h -2.98893 -2.98893 z m 4.040696,-0.01845 -0.01856,-25.5166065 -1.01476,-0.020533 -1.01476,-0.020533 V 29.544045 55.081183 h 1.033316 1.033316 z"
   id="path31-7" /><path
   style="fill:#b3b3b3;stroke-width:0.0418649"
   d="M 55.645757,29.656828 V 3.7158673 h 0.99631 0.99631 v 25.9409607 25.94096 h -0.99631 -0.99631 z"
   id="path32-42" /><path
   style="fill:none;stroke-width:0.041476"
   d="M 6.2250928,30.232473 V 4.7712175 h 0.99631 0.9963099 V 30.232473 55.693728 h -0.9963099 -0.99631 z"
   id="path30-9" /><path
   style="fill:none;stroke-width:0.041476"
   d="M -5.8191882,31.557196 V 6.095941 h 0.99631 0.99631 v 25.461255 25.461255 h -0.99631 -0.99631 z"
   id="path30-5" /><path
   style="fill:none;stroke-width:0.041476"
   d="M 41.354245,30.136532 V 4.6752766 h 0.99631 0.99631 V 30.136532 55.597787 h -0.99631 -0.99631 z"
   id="path30-9-5" /><path
   style="fill:#b3b3b3;stroke-width:0.0290496"
   d="M 41.98893,29.328415 V 3.3874541 h 0.479705 0.479705 V 29.328415 55.269375 H 42.468635 41.98893 Z"
   id="path32-42-8-4" /><path
   style="fill:#999999;stroke-width:0.041476"
   d="M 41.97417,29.416976 V 1.9261993 h 2.98893 2.98893 V 29.416976 56.90775 H 44.9631 41.97417 Z m 4.040696,-0.01845 -0.01856,-25.5166061 -1.01476,-0.020533 -1.01476,-0.020533 V 29.377993 54.915131 h 1.033316 1.033316 z"
   id="path31-7-5-1" /><path
   style="fill:#b3b3b3;stroke-width:0.0418649"
   d="M 43.966791,29.490776 V 3.5498157 H 44.9631 45.95941 V 29.490776 55.431736 H 44.9631 43.966791 Z"
   id="path32-42-09-2" /><path
   style="fill:#999999;stroke-width:0.041476"
   d="M 46.490775,29.546128 V 2.0553506 h 2.98893 2.98893 V 29.546128 57.036902 h -2.98893 -2.98893 z m 4.040696,-0.01845 -0.01856,-25.5166068 -1.01476,-0.020533 -1.01476,-0.020533 V 29.507145 55.044283 h 1.033316 1.033316 z"
   id="path31-7-0" /><path
   style="fill:#b3b3b3;stroke-width:0.0418649"
   d="M 48.483395,29.619928 V 3.678967 h 0.99631 0.99631 v 25.940961 25.94096 h -0.99631 -0.99631 z"
   id="path32-42-6" /><path
   style="fill:#999999;stroke-width:0.041476"
   d="M 49.95203,29.605168 V 2.1143911 h 2.98893 2.98893 V 29.605168 57.095942 h -2.98893 -2.98893 z m 4.040696,-0.01845 -0.01856,-25.5166063 -1.01476,-0.020533 -1.01476,-0.020533 V 29.566185 55.103323 h 1.033316 1.033316 z"
   id="path31-7-3" /><path
   style="fill:#b3b3b3;stroke-width:0.0418649"
   d="M 51.94465,29.678968 V 3.7380075 h 0.99631 0.99631 v 25.9409605 25.94096 h -0.99631 -0.99631 z"
   id="path32-42-89" /><path
   style="fill:none;stroke-width:0.041476"
   d="M 38.313653,30.221403 V 4.7601474 h 0.99631 0.99631 V 30.221403 55.682658 h -0.99631 -0.99631 z"
   id="path30-9-5-3" /><path
   style="fill:#b3b3b3;stroke-width:0.0290496"
   d="M 38.948338,29.413286 V 3.4723249 h 0.479705 0.479705 v 25.9409611 25.94096 h -0.479705 -0.479705 z"
   id="path32-42-8-4-3" /><path
   style="fill:#999999;stroke-width:0.041476"
   d="M 38.933578,29.501847 V 2.0110701 h 2.98893 2.98893 V 29.501847 56.992621 h -2.98893 -2.98893 z m 4.040696,-0.01845 -0.01856,-25.5166063 -1.01476,-0.020533 -1.01476,-0.020533 V 29.462864 55.000002 h 1.033316 1.033316 z"
   id="path31-7-5-1-5" /><path
   style="fill:#b3b3b3;stroke-width:0.0418649"
   d="M 40.926199,29.575647 V 3.6346865 h 0.996309 0.99631 v 25.9409605 25.94096 h -0.99631 -0.996309 z"
   id="path32-42-09-2-9" /><path
   style="fill:none;stroke-width:0.041476"
   d="M 35.690037,30.136532 V 4.6752766 h 0.99631 0.99631 V 30.136532 55.597787 h -0.99631 -0.99631 z"
   id="path30-9-5-38" /><path
   style="fill:#b3b3b3;stroke-width:0.0290496"
   d="M 36.324722,29.328415 V 3.3874541 h 0.479705 0.479705 v 25.9409609 25.94096 h -0.479705 -0.479705 z"
   id="path32-42-8-4-0" /><path
   style="fill:#999999;stroke-width:0.041476"
   d="M 36.309962,29.416976 V 1.9261993 h 2.98893 2.98893 V 29.416976 56.90775 h -2.98893 -2.98893 z m 4.040696,-0.01845 -0.01856,-25.5166061 -1.01476,-0.020533 -1.01476,-0.020533 V 29.377993 54.915131 h 1.033316 1.033316 z"
   id="path31-7-5-1-1" /><path
   style="fill:#b3b3b3;stroke-width:0.0418649"
   d="M 38.302583,29.490776 V 3.5498157 h 0.996309 0.99631 v 25.9409603 25.94096 h -0.99631 -0.996309 z"
   id="path32-42-09-2-2" /></svg>
