<?xml version="1.0" encoding="UTF-8" standalone="no"?>
<!-- Uploaded to: SVG Repo, www.svgrepo.com, Generator: SVG Repo Mixer Tools -->

<svg
   version="1.1"
   id="Capa_1"
   viewBox="0 0 60 60"
   xml:space="preserve"
   sodipodi:docname="bedroom-curtains-left-closed.svg"
   inkscape:version="1.4.3 (0d15f75, 2025-12-25)"
   xmlns:inkscape="http://www.inkscape.org/namespaces/inkscape"
   xmlns:sodipodi="http://sodipodi.sourceforge.net/DTD/sodipodi-0.dtd"
   xmlns="http://www.w3.org/2000/svg"
   xmlns:svg="http://www.w3.org/2000/svg"><defs
   id="defs15" /><sodipodi:namedview
   id="namedview15"
   pagecolor="#ffffff"
   bordercolor="#000000"
   borderopacity="0.25"
   inkscape:showpageshadow="2"
   inkscape:pageopacity="0.0"
   inkscape:pagecheckerboard="0"
   inkscape:deskcolor="#d1d1d1"
   inkscape:zoom="13.55"
   inkscape:cx="29.9631"
   inkscape:cy="30"
   inkscape:window-width="2880"
   inkscape:window-height="1514"
   inkscape:window-x="-11"
   inkscape:window-y="-11"
   inkscape:window-maximized="1"
   inkscape:current-layer="Capa_1" />
<rect
   x="13"
   y="42"
   style="fill:#bcb7b3;stroke-width:0.668202"
   width="34"
   height="1.7859778"
   id="rect1" />

<rect
   x="13.402214"
   y="7"
   style="fill:#7fabda;stroke-width:1.52591"
   width="32.597786"
   height="32"
   id="rect3" /><rect
   x="12.819186"
   y="21.726936"
   style="fill:#f2f2f2;stroke-width:0.559652"
   width="33.557194"
   height="1.2693727"
   id="rect1-9" />







<line
   style="fill:none;stroke:#38454F;stroke-width:2;stroke-linecap:round;stroke-miterlimit:10;"
   x1="1"
   y1="3"
   x2="59"
   y2="3"
   id="line9" /><path
   style="fill:#7383bf"
   d="m 28.885609,-0.0295203 c -0.552,0 -1,0.447 -1,1.00000002 V 4.9704797 c 0,0.553 0.448,1 1,1 0.552,0 1,-0.447 1,-1 V 0.97047972 c 0,-0.55300002 -0.448,-1.00000002 -1,-1.00000002 z"
   id="path14-4" />
<g
   id="g14">
	<path
   style="fill:#7383BF;"
   d="M3,0C2.448,0,2,0.447,2,1v4c0,0.553,0.448,1,1,1s1-0.447,1-1V1C4,0.447,3.552,0,3,0z"
   id="path9" />
	<path
   style="fill:#7383bf"
   d="m 20.579336,0 c -0.552,0 -1,0.447 -1,1 v 4 c 0,0.553 0.448,1 1,1 0.552,0 1,-0.447 1,-1 V 1 c 0,-0.553 -0.448,-1 -1,-1 z"
   id="path10" />
	<path
   style="fill:#7383BF;"
   d="M11,0c-0.552,0-1,0.447-1,1v4c0,0.553,0.448,1,1,1s1-0.447,1-1V1C12,0.447,11.552,0,11,0z"
   id="path11" />
	
	
	
</g>



<path
   style="fill:none;stroke-width:0.041476"
   d="M -14.428044,34.317343 V 8.8560886 h 0.99631 0.99631 V 34.317343 59.778598 h -0.99631 -0.99631 z"
   id="path30" /><path
   style="fill:none;stroke-width:0.041476"
   d="M 48.243542,30.383764 V 4.9225101 h 0.99631 0.99631 V 30.383764 55.845019 h -0.99631 -0.99631 z"
   id="path30-3" /><path
   style="fill:none;stroke-width:0.041476"
   d="M 52.693727,30.357934 V 4.8966791 h 0.99631 0.99631 V 30.357934 55.819189 h -0.99631 -0.99631 z"
   id="path30-38" /><path
   style="fill:none;stroke-width:0.041476"
   d="M 6.2250928,30.232473 V 4.7712175 h 0.99631 0.9963099 V 30.232473 55.693728 h -0.9963099 -0.99631 z"
   id="path30-9" /><path
   style="fill:none;stroke-width:0.041476"
   d="M -5.8191882,31.557196 V 6.095941 h 0.99631 0.99631 v 25.461255 25.461255 h -0.99631 -0.99631 z"
   id="path30-5" /><path
   style="fill:none;stroke-width:0.041476"
   d="M 2.4723246,30.361623 V 4.9003699 h 0.99631 0.99631 V 30.361623 55.822878 h -0.99631 -0.99631 z"
   id="path30-3-4" /><path
   style="fill:none;stroke-width:0.041476"
   d="M 6.9225096,30.335793 V 4.8745389 h 0.99631 0.99631 V 30.335793 55.797048 h -0.99631 -0.99631 z"
   id="path30-38-4" /><path
   style="fill:#999999;stroke-width:0.0939942"
   d="M 1.4575646,29.745389 V 2.2546126 H 16.808119 32.158673 V 29.745389 57.236163 H 16.808119 1.4575646 Z M 22.20978,29.726939 22.114461,4.2103332 16.902853,4.1898002 11.691247,4.1692672 V 29.706406 55.243544 h 5.306907 5.306906 z"
   id="path31-7-0-1" /><path
   style="fill:#b3b3b3;stroke-width:0.152443"
   d="M 2.7121776,29.597787 V 3.6568268 H 15.922512 29.132842 V 29.597787 55.538747 H 15.922512 2.7121776 Z"
   id="path32-42-6-8" /><path
   style="fill:none;stroke-width:0.041476"
   d="M 33.745388,30.199262 V 4.7380071 h 0.99631 0.99631 V 30.199262 55.660517 h -0.99631 -0.99631 z"
   id="path30-9-7" /><path
   style="fill:none;stroke-width:0.041476"
   d="M 29.99262,30.328412 V 4.8671595 h 0.99631 0.99631 V 30.328412 55.789667 h -0.99631 -0.99631 z"
   id="path30-3-4-2" /><path
   style="fill:none;stroke-width:0.041476"
   d="M 34.442805,30.302582 V 4.8413285 h 0.99631 0.99631 V 30.302582 55.763837 h -0.99631 -0.99631 z"
   id="path30-38-4-6" /></svg>
