<?xml version="1.0" encoding="UTF-8" standalone="no"?>
<!-- Uploaded to: SVG Repo, www.svgrepo.com, Generator: SVG Repo Mixer Tools -->

<svg
   version="1.1"
   id="Capa_1"
   viewBox="0 0 60 60"
   xml:space="preserve"
   sodipodi:docname="bedroom-curtains-open.svg"
   inkscape:version="1.4.3 (0d15f75, 2025-12-25)"
   xmlns:inkscape="http://www.inkscape.org/namespaces/inkscape"
   xmlns:sodipodi="http://sodipodi.sourceforge.net/DTD/sodipodi-0.dtd"
   xmlns="http://www.w3.org/2000/svg"
   xmlns:svg="http://www.w3.org/2000/svg"><defs
   id="defs15" /><sodipodi:namedview
   id="namedview15"
   pagecolor="#ffffff"
   bordercolor="#000000"
   borderopacity="0.25"
   inkscape:showpageshadow="2"
   inkscape:pageopacity="0.0"
   inkscape:pagecheckerboard="0"
   inkscape:deskcolor="#d1d1d1"
   inkscape:zoom="13.55"
   inkscape:cx="29.9631"
   inkscape:cy="30"
   inkscape:window-width="2880"
   inkscape:window-height="1514"
   inkscape:window-x="-11"
   inkscape:window-y="-11"
   inkscape:window-maximized="1"
   inkscape:current-layer="Capa_1" />
<rect
   x="13"
   y="42"
   style="fill:#bcb7b3;stroke-width:0.668202"
   width="34"
   height="1.7859778"
   id="rect1" />

<rect
   x="13.402214"
   y="7"
   style="fill:#7fabda;stroke-width:1.52591"
   width="32.597786"
   height="32"
   id="rect3" /><rect
   x="12.819186"
   y="21.726936"
   style="fill:#f2f2f2;stroke-width:0.559652"
   width="33.557194"
   height="1.2693727"
   id="rect1-9" />







<line
   style="fill:none;stroke:#38454F;stroke-width:2;stroke-linecap:round;stroke-miterlimit:10;"
   x1="1"
   y1="3"
   x2="59"
   y2="3"
   id="line9" />
<g
   id="g14">
	<path
   style="fill:#7383BF;"
   d="M3,0C2.448,0,2,0.447,2,1v4c0,0.553,0.448,1,1,1s1-0.447,1-1V1C4,0.447,3.552,0,3,0z"
   id="path9" />
	<path
   style="fill:#7383BF;"
   d="M7,0C6.448,0,6,0.447,6,1v4c0,0.553,0.448,1,1,1s1-0.447,1-1V1C8,0.447,7.552,0,7,0z"
   id="path10" />
	<path
   style="fill:#7383BF;"
   d="M11,0c-0.552,0-1,0.447-1,1v4c0,0.553,0.448,1,1,1s1-0.447,1-1V1C12,0.447,11.552,0,11,0z"
   id="path11" />
	<path
   style="fill:#7383BF;"
   d="M49,0c-0.552,0-1,0.447-1,1v4c0,0.553,0.448,1,1,1s1-0.447,1-1V1C50,0.447,49.552,0,49,0z"
   id="path12" />
	<path
   style="fill:#7383BF;"
   d="M53,0c-0.552,0-1,0.447-1,1v4c0,0.553,0.448,1,1,1s1-0.447,1-1V1C54,0.447,53.552,0,53,0z"
   id="path13" />
	<path
   style="fill:#7383BF;"
   d="M57,0c-0.552,0-1,0.447-1,1v4c0,0.553,0.448,1,1,1s1-0.447,1-1V1C58,0.447,57.552,0,57,0z"
   id="path14" />
</g>



<path
   style="fill:none;stroke-width:0.041476"
   d="M -14.428044,34.317343 V 8.8560886 h 0.99631 0.99631 V 34.317343 59.778598 h -0.99631 -0.99631 z"
   id="path30" /><path
   style="fill:none;stroke-width:0.041476"
   d="M 48.243542,30.383764 V 4.9225101 h 0.99631 0.99631 V 30.383764 55.845019 h -0.99631 -0.99631 z"
   id="path30-3" /><path
   style="fill:none;stroke-width:0.041476"
   d="M 52.693727,30.357934 V 4.8966791 h 0.99631 0.99631 V 30.357934 55.819189 h -0.99631 -0.99631 z"
   id="path30-38" /><path
   style="fill:#999999;stroke-width:0.041476"
   d="M 53.653137,29.583028 V 2.0922509 h 2.98893 2.98893 V 29.583028 57.073802 h -2.98893 -2.98893 z m 4.040696,-0.01845 -0.01856,-25.5166065 -1.01476,-0.020533 -1.01476,-0.020533 V 29.544045 55.081183 h 1.033316 1.033316 z"
   id="path31-7" /><path
   style="fill:#b3b3b3;stroke-width:0.0418649"
   d="M 55.645757,29.656828 V 3.7158673 h 0.99631 0.99631 v 25.9409607 25.94096 h -0.99631 -0.99631 z"
   id="path32-42" /><path
   style="fill:#999999;stroke-width:0.041476"
   d="M 0.19188192,29.380076 V 1.8892993 h 2.98892998 2.98893 V 29.380076 56.87085 h -2.98893 -2.98892998 z m 4.04069598,-0.01845 -0.01856,-25.5166061 -1.01476,-0.020533 -1.01476,-0.020533 V 29.341093 54.878231 h 1.033316 1.033316 z"
   id="path31-7-6" /><path
   style="fill:#b3b3b3;stroke-width:0.0418649"
   d="M 2.1845019,29.453876 V 3.5129157 h 0.99631 0.99631 v 25.9409603 25.94096 h -0.99631 -0.99631 z"
   id="path32-42-0" /><path
   style="fill:none;stroke-width:0.041476"
   d="M 6.2250928,30.232473 V 4.7712175 h 0.99631 0.9963099 V 30.232473 55.693728 h -0.9963099 -0.99631 z"
   id="path30-9" /><path
   style="fill:none;stroke-width:0.041476"
   d="M -5.8191882,31.557196 V 6.095941 h 0.99631 0.99631 v 25.461255 25.461255 h -0.99631 -0.99631 z"
   id="path30-5" /><path
   style="fill:#999999;stroke-width:0.041476"
   d="M 3.8339483,29.350556 V 1.8597786 h 2.98893 2.98893 V 29.350556 56.84133 h -2.98893 -2.98893 z m 4.040696,-0.01845 -0.01856,-25.5166068 -1.01476,-0.020533 -1.01476,-0.020533 V 29.311573 54.848711 h 1.033316 1.033316 z"
   id="path31-7-4" /><path
   style="fill:#b3b3b3;stroke-width:0.0418649"
   d="M 5.8265683,29.424356 V 3.483395 h 0.99631 0.99631 v 25.940961 25.94096 h -0.99631 -0.99631 z"
   id="path32-42-8" /><path
   style="fill:#999999;stroke-width:0.041476"
   d="M 6.8450185,29.512917 V 2.0221402 h 2.98893 2.9889295 V 29.512917 57.003691 H 9.8339485 6.8450185 Z M 10.885714,29.494467 10.867154,3.9778608 9.8523945,3.9573278 8.8376345,3.9367948 V 29.473934 55.011072 h 1.033316 1.0333155 z"
   id="path31-7-5" /><path
   style="fill:#b3b3b3;stroke-width:0.0418649"
   d="M 8.8376385,29.586717 V 3.6457566 h 0.99631 0.9963095 v 25.9409604 25.94096 h -0.9963095 -0.99631 z"
   id="path32-42-09" /><path
   style="fill:#999999;stroke-width:0.041476"
   d="M 46.490775,29.546128 V 2.0553506 h 2.98893 2.98893 V 29.546128 57.036902 h -2.98893 -2.98893 z m 4.040696,-0.01845 -0.01856,-25.5166068 -1.01476,-0.020533 -1.01476,-0.020533 V 29.507145 55.044283 h 1.033316 1.033316 z"
   id="path31-7-0" /><path
   style="fill:#b3b3b3;stroke-width:0.0418649"
   d="M 48.483395,29.619928 V 3.678967 h 0.99631 0.99631 v 25.940961 25.94096 h -0.99631 -0.99631 z"
   id="path32-42-6" /><path
   style="fill:#999999;stroke-width:0.041476"
   d="M 49.95203,29.605168 V 2.1143911 h 2.98893 2.98893 V 29.605168 57.095942 h -2.98893 -2.98893 z m 4.040696,-0.01845 -0.01856,-25.5166063 -1.01476,-0.020533 -1.01476,-0.020533 V 29.566185 55.103323 h 1.033316 1.033316 z"
   id="path31-7-3" /><path
   style="fill:#b3b3b3;stroke-width:0.0418649"
   d="M 51.94465,29.678968 V 3.7380075 h 0.99631 0.99631 v 25.9409605 25.94096 h -0.99631 -0.99631 z"
   id="path32-42-89" /></svg>
