<?xml version="1.0" encoding="UTF-8" standalone="no"?>
<svg
   width="117px"
   height="117px"
   viewBox="0 0 117 117"
   version="1.1"
   id="svg14541"
   sodipodi:docname="bright-brightness-sun-off.svg"
   inkscape:version="1.2 (dc2aedaf03, 2022-05-15)"
   xmlns:inkscape="http://www.inkscape.org/namespaces/inkscape"
   xmlns:sodipodi="http://sodipodi.sourceforge.net/DTD/sodipodi-0.dtd"
   xmlns="http://www.w3.org/2000/svg"
   xmlns:svg="http://www.w3.org/2000/svg">
  <sodipodi:namedview
     id="namedview14543"
     pagecolor="#ffffff"
     bordercolor="#000000"
     borderopacity="0.25"
     inkscape:showpageshadow="2"
     inkscape:pageopacity="0.0"
     inkscape:pagecheckerboard="0"
     inkscape:deskcolor="#d1d1d1"
     showgrid="false"
     inkscape:zoom="7.2393162"
     inkscape:cx="58.430933"
     inkscape:cy="58.569067"
     inkscape:window-width="1920"
     inkscape:window-height="1027"
     inkscape:window-x="-8"
     inkscape:window-y="-8"
     inkscape:window-maximized="1"
     inkscape:current-layer="svg14541" />
  <title
     id="title14516" />
  <desc
     id="desc14518" />
  <defs
     id="defs14520" />
  <g
     fill="none"
     fill-rule="evenodd"
     id="Page-1"
     stroke="none"
     stroke-width="1">
    <g
       fill-rule="nonzero"
       id="sun">
      <path
         d="M58.5,86.6 C74,86.6 86.5,74 86.5,58.6 C86.5,43.2 73.9,30.6 58.5,30.6 C43.1,30.6 30.5,43.2 30.5,58.6 C30.5,74 43,86.6 58.5,86.6 Z M58.5,38.7 C69.5,38.7 78.4,47.6 78.4,58.6 C78.4,69.6 69.5,78.5 58.5,78.5 C47.5,78.5 38.6,69.6 38.6,58.6 C38.6,47.6 47.5,38.7 58.5,38.7 Z"
         fill="#4A4A4A"
         id="Shape" />
      <path
         d="M62.6,17.6 L62.6,4.7 C62.6,2.4 60.8,0.6 58.5,0.6 C56.2,0.6 54.4,2.4 54.4,4.7 L54.4,17.6 C54.4,19.9 56.2,21.7 58.5,21.7 C60.8,21.7 62.6,19.9 62.6,17.6 Z"
         fill="#17AB13"
         id="path14523" />
      <path
         d="M54.4,99.6 L54.4,112.5 C54.4,114.8 56.2,116.6 58.5,116.6 C60.8,116.6 62.6,114.8 62.6,112.5 L62.6,99.6 C62.6,97.3 60.8,95.5 58.5,95.5 C56.2,95.5 54.4,97.3 54.4,99.6 Z"
         fill="#17AB13"
         id="path14525" />
      <path
         d="M90.4,32.5 L99.5,23.4 C101.1,21.8 101.1,19.2 99.5,17.6 C97.9,16 95.3,16 93.7,17.6 L84.6,26.7 C83,28.3 83,30.9 84.6,32.5 C85.4,33.3 86.4,33.7 87.5,33.7 C88.6,33.7 89.6,33.3 90.4,32.5 Z"
         fill="#17AB13"
         id="path14527" />
      <path
         d="M17.5,99.6 C18.3,100.4 19.3,100.8 20.4,100.8 C21.4,100.8 22.5,100.4 23.3,99.6 L32.4,90.5 C34,88.9 34,86.3 32.4,84.7 C30.8,83.1 28.2,83.1 26.6,84.7 L17.5,93.8 C15.9,95.4 15.9,98 17.5,99.6 Z"
         fill="#17AB13"
         id="path14529" />
      <path
         d="M116.5,58.6 C116.5,56.3 114.7,54.5 112.4,54.5 L99.5,54.5 C97.2,54.5 95.4,56.3 95.4,58.6 C95.4,60.9 97.2,62.7 99.5,62.7 L112.4,62.7 C114.6,62.7 116.5,60.9 116.5,58.6 Z"
         fill="#17AB13"
         id="path14531" />
      <path
         d="M4.6,62.7 L17.5,62.7 C19.8,62.7 21.6,60.9 21.6,58.6 C21.6,56.3 19.8,54.5 17.5,54.5 L4.6,54.5 C2.3,54.5 0.5,56.3 0.5,58.6 C0.5,60.9 2.4,62.7 4.6,62.7 Z"
         fill="#17AB13"
         id="path14533" />
      <path
         d="M96.6,100.8 C97.6,100.8 98.7,100.4 99.5,99.6 C101.1,98 101.1,95.4 99.5,93.8 L90.4,84.7 C88.8,83.1 86.2,83.1 84.6,84.7 C83,86.3 83,88.9 84.6,90.5 L93.7,99.6 C94.5,100.4 95.6,100.8 96.6,100.8 Z"
         fill="#17AB13"
         id="path14535" />
      <path
         d="M32.4,32.5 C34,30.9 34,28.3 32.4,26.7 L23.3,17.6 C21.7,16 19.1,16 17.5,17.6 C15.9,19.2 15.9,21.8 17.5,23.4 L26.6,32.5 C27.4,33.3 28.4,33.7 29.5,33.7 C30.6,33.7 31.6,33.3 32.4,32.5 Z"
         fill="#17AB13"
         id="path14537" />
    </g>
  </g>
  <path
     style="fill:#55d400;fill-opacity:0.92228;stroke-width:0.138135"
     d="M 55.668241,86.385961 C 51.428191,85.957491 46.722524,84.272409 43.178947,81.913592 33.634311,75.560113 28.875781,64.156735 31.147487,53.081316 33.445991,41.87525 42.410443,33.14237 53.734357,31.077914 c 1.970929,-0.359319 6.387601,-0.433324 8.480622,-0.1421 10.561741,1.469564 19.375483,8.78736 22.760057,18.897019 1.797269,5.368407 1.910344,11.030251 0.329839,16.515662 -1.012323,3.513447 -2.783228,6.891842 -5.163746,9.850997 -1.049379,1.304453 -3.519728,3.689429 -4.873981,4.705536 -5.593169,4.196607 -12.684296,6.179677 -19.598907,5.480933 z m 7.006812,-8.252994 c 3.673174,-0.818314 6.896482,-2.523358 9.532887,-5.042643 3.069633,-2.933267 4.968238,-6.330147 5.862756,-10.489328 0.409087,-1.902102 0.443403,-5.91475 0.06579,-7.692495 -0.754741,-3.553145 -2.0221,-6.275393 -4.160042,-8.935639 C 72.77744,44.480937 71.386828,43.22024 69.661347,42.06089 66.195529,39.732209 62.762382,38.697724 58.5,38.697724 c -2.562749,0 -4.098482,0.234508 -6.268555,0.957213 -8.514335,2.835551 -14.02217,10.801312 -13.651031,19.742938 0.207038,4.988046 2.074644,9.405747 5.477629,12.95698 3.083571,3.217905 6.792109,5.174289 11.333929,5.979046 1.5606,0.27652 5.645849,0.163812 7.283081,-0.200934 z"
     id="path14614" />
  <path
     style="fill:#808080;fill-opacity:1;stroke-width:0.138135"
     d="m 55.391972,86.304525 c -1.26882,-0.142896 -4.059454,-0.792524 -5.571984,-1.297095 -4.353856,-1.452419 -8.014393,-3.752516 -11.220631,-7.050476 -4.030436,-4.145736 -6.553522,-9.122148 -7.5887,-14.96758 -0.30872,-1.743278 -0.415095,-5.200336 -0.216772,-7.044864 1.190119,-11.068878 8.615459,-20.30241 19.14177,-23.803107 2.892507,-0.96195 4.139674,-1.16195 7.706493,-1.235838 3.634254,-0.07529 4.990582,0.05421 7.63484,0.728956 12.680463,3.235708 21.516105,14.968509 21.011827,27.901488 -0.158456,4.06387 -1.119834,7.920015 -2.823948,11.327037 -4.254375,8.50574 -12.370117,14.223229 -21.853215,15.395451 -1.099784,0.135947 -5.154809,0.165955 -6.21968,0.04603 z m 7.804604,-8.240894 c 3.706741,-0.927078 6.770829,-2.658504 9.455156,-5.342832 2.206059,-2.206059 3.760786,-4.675936 4.758134,-7.558891 0.859907,-2.485667 0.98083,-3.323988 0.970904,-6.730975 -0.0086,-2.969051 -0.019,-3.076656 -0.449645,-4.677528 C 76.316178,47.750098 72.761339,43.362356 67.29078,40.620015 64.479195,39.210593 62.177071,38.705337 58.5,38.690665 c -2.865362,-0.01143 -3.8445,0.130385 -6.190952,0.896692 -6.740395,2.201288 -11.68348,7.587254 -13.320216,14.513661 -0.337374,1.427711 -0.37078,1.819303 -0.375277,4.398982 -0.0043,2.471598 0.0359,3.014133 0.316114,4.265665 0.895675,4.000353 2.59661,7.122904 5.42064,9.951131 2.820715,2.824907 6.21155,4.651148 10.292805,5.543509 1.070681,0.234104 1.621897,0.261536 4.202222,0.209128 2.57978,-0.0524 3.151342,-0.105701 4.35124,-0.405802 z"
     id="path14685" />
  <path
     style="fill:#808080;fill-opacity:1;stroke-width:0.138135"
     d=""
     id="path14912" />
  <path
     style="fill:#808080;fill-opacity:1;stroke-width:0.138135"
     d="m 19.546045,100.64185 c -1.229148,-0.33819 -2.270057,-1.194936 -2.782273,-2.29002 -0.452553,-0.967528 -0.449716,-2.359315 0.0068,-3.31523 0.483256,-1.012004 10.219326,-10.705733 11.172097,-11.123511 1.482456,-0.650039 3.290887,-0.254208 4.437112,0.971198 0.831968,0.889441 1.086441,1.51387 1.099504,2.697969 0.01884,1.708016 -0.06949,1.823075 -5.743783,7.481753 -3.81494,3.80444 -5.165117,5.067081 -5.645711,5.279671 -0.727363,0.32174 -1.940986,0.464 -2.543703,0.29817 z"
     id="path14914" />
  <path
     style="fill:#808080;fill-opacity:1;stroke-width:0.138135"
     d="M 3.3814093,62.398178 C 2.0462828,61.930782 1.1470173,61.004223 0.75837865,59.695535 0.49890198,58.821782 0.49900641,58.316001 0.75884414,57.441033 1.0691815,56.396013 1.7792004,55.559898 2.7816753,55.058956 l 0.8539505,-0.426725 h 7.4251352 7.425137 l 0.869133,0.449923 c 2.955424,1.529928 2.868142,5.583486 -0.154323,7.167123 l -0.621605,0.325693 -7.252066,0.033 c -6.6158966,0.03011 -7.3129075,0.0117 -7.9456277,-0.209796 z"
     id="path14916" />
  <path
     style="fill:#808080;fill-opacity:1;stroke-width:0.138135"
     d="m 28.041322,33.345066 c -0.682545,-0.26356 -1.280386,-0.814588 -5.883854,-5.423114 -3.306247,-3.309879 -5.217466,-5.325767 -5.387249,-5.682283 -0.198337,-0.416472 -0.263135,-0.858686 -0.263135,-1.795749 0,-1.098291 0.04284,-1.315672 0.367546,-1.864817 1.02127,-1.727201 2.953322,-2.472176 4.834426,-1.864093 0.68501,0.221436 1.110617,0.609987 5.946775,5.429014 5.800476,5.77993 5.832433,5.821039 5.828795,7.498243 -0.006,2.781592 -2.838737,4.708535 -5.443304,3.702799 z"
     id="path14918" />
  <path
     style="fill:#808080;fill-opacity:1;stroke-width:0.138135"
     d="m 57.14165,21.378533 c -0.896468,-0.298722 -1.908207,-1.232436 -2.317991,-2.139226 l -0.329562,-0.729272 v -7.3902 c 0,-7.2698746 0.0048,-7.4006574 0.296874,-8.0324116 0.381841,-0.8260136 1.283904,-1.724764 2.099876,-2.09216443 0.915253,-0.41210268 2.370063,-0.39333723 3.269712,0.0421757 0.851391,0.412151 1.670087,1.2314543 2.04847,2.0499887 0.292041,0.6317542 0.296874,0.762537 0.296874,8.0324116 v 7.3902 l -0.329562,0.729272 c -0.847274,1.87489 -3.036472,2.805075 -5.034691,2.139226 z"
     id="path14920" />
  <path
     style="fill:#808080;fill-opacity:1;stroke-width:0.138135"
     d="M 98.559032,62.516783 C 94.957938,61.615712 94.379603,56.708254 97.68014,55.058956 l 0.853951,-0.426725 h 7.425139 7.42513 l 0.86914,0.449923 c 2.93597,1.519859 2.86107,5.638946 -0.12924,7.107409 l -0.78483,0.385407 -7.183,0.02275 c -3.95064,0.01251 -7.369476,-0.02391 -7.597398,-0.08094 z"
     id="path14922" />
  <path
     style="fill:#808080;fill-opacity:1;stroke-width:0.138135"
     d="m 86.384499,33.49247 c -0.740321,-0.226755 -1.757491,-1.001558 -2.216491,-1.688356 -0.50292,-0.752517 -0.803041,-1.969431 -0.667455,-2.706367 0.24064,-1.307929 0.479003,-1.592566 5.773881,-6.89477 4.579928,-4.586266 5.220217,-5.177568 5.870949,-5.421783 1.906277,-0.715414 3.929544,0.0074 4.968637,1.774972 0.3373,0.573775 0.3789,0.781041 0.3789,1.887754 0,0.940731 -0.0644,1.377647 -0.26468,1.795749 -0.16821,0.351144 -2.081457,2.379793 -5.249118,5.565726 -5.501456,5.53319 -5.739522,5.721206 -7.325862,5.785735 -0.459618,0.0187 -1.03056,-0.0257 -1.268761,-0.09866 z"
     id="path14924" />
  <path
     style="fill:#808080;fill-opacity:1;stroke-width:0.138135"
     d="m 95.79634,100.64411 c -1.218929,-0.32329 -1.541074,-0.59941 -6.589753,-5.648152 -5.678637,-5.67871 -5.693569,-5.698207 -5.68175,-7.418626 0.0081,-1.178788 0.261318,-1.801316 1.095426,-2.693045 1.146224,-1.225406 2.954655,-1.621237 4.437111,-0.971198 0.952771,0.417778 10.68884,10.111507 11.172096,11.123511 0.69879,1.463351 0.33507,3.374509 -0.859653,4.517091 -0.921338,0.881129 -2.521555,1.369419 -3.573477,1.090419 z"
     id="path14926" />
  <path
     style="fill:#999999;fill-opacity:1;stroke-width:0.138135"
     d="m 57.168418,116.29997 c -0.869062,-0.26757 -1.931162,-1.24697 -2.344759,-2.1622 l -0.329562,-0.72927 v -7.3902 -7.390201 l 0.334688,-0.680024 c 1.543112,-3.135321 5.923777,-3.112877 7.380244,0.03781 0.292041,0.631754 0.296874,0.762537 0.296874,8.032415 v 7.3902 l -0.329562,0.72927 c -0.845098,1.87008 -2.972849,2.78874 -5.007923,2.1622 z"
     id="path14928" />
  <path
     style="fill:#999999;fill-opacity:1;stroke-width:0.138135"
     d="M 3.5906051,62.376838 C 1.8624001,61.851142 0.6910088,60.307945 0.69078194,58.556597 0.69069639,57.896209 0.78067693,57.535205 1.1092597,56.877653 1.5571134,55.981418 1.9938936,55.57655 3.1379698,54.997166 l 0.7206146,-0.364935 h 7.2587506 7.258751 l 0.763525,0.430907 c 0.990297,0.558889 1.545961,1.1254 1.945578,1.983554 0.830111,1.782617 0.04168,3.995326 -1.799993,5.051633 l -0.706093,0.404986 -7.321134,-0.01058 c -4.0266231,-0.0058 -7.4769369,-0.05797 -7.6673639,-0.115896 z"
     id="path14930" />
  <path
     style="fill:#999999;fill-opacity:1;stroke-width:0.138135"
     d=""
     id="path14932" />
  <path
     style="fill:#999999;fill-opacity:1;stroke-width:0.138135"
     d="m 28.222327,33.345257 c -0.631017,-0.182553 -2.726619,-2.129048 -7.184262,-6.673082 -2.480524,-2.528599 -3.998136,-4.183298 -4.178571,-4.556029 -0.35801,-0.739548 -0.395138,-2.499959 -0.0673,-3.190831 0.661515,-1.39404 2.052032,-2.297117 3.550307,-2.30576 1.617048,-0.0093 1.675933,0.03638 7.289732,5.657996 5.767736,5.775772 5.892167,5.939006 5.762133,7.558955 -0.125733,1.566363 -1.300909,3.078964 -2.723188,3.50509 -0.610905,0.183031 -1.822575,0.184842 -2.448853,0.0037 z"
     id="path14934" />
  <path
     style="fill:#999999;fill-opacity:1;stroke-width:0.138135"
     d="M 56.809372,21.126689 C 55.977316,20.712057 55.191967,19.891706 54.818223,19.046797 54.564212,18.472561 54.553733,18.100593 54.592051,11.018082 54.637242,2.6653548 54.580479,3.1232155 55.710963,1.9927317 56.623295,1.0803993 57.21715,0.83358943 58.5,0.83358943 c 1.284507,0 1.950053,0.27732247 2.822127,1.17593527 1.094619,1.12793 1.04077,0.6802163 1.085867,9.0282073 l 0.04023,7.446232 -0.358785,0.73333 c -0.957569,1.957202 -3.406777,2.842892 -5.280063,1.909395 z"
     id="path14936" />
  <path
     style="fill:#999999;fill-opacity:1;stroke-width:0.138135"
     d="m 86.198981,33.343533 c -0.188288,-0.07513 -0.655122,-0.372747 -1.03741,-0.661376 -0.919903,-0.694534 -1.463289,-1.691424 -1.556773,-2.856042 -0.128504,-1.600883 0.0078,-1.779499 5.755883,-7.545419 5.602597,-5.619933 5.644881,-5.652744 7.284857,-5.652744 1.488139,0 2.769207,0.791918 3.488212,2.156307 0.4169,0.791118 0.40946,2.500022 -0.0147,3.376239 -0.216874,0.447996 -1.741259,2.068854 -5.283652,5.618035 -5.590649,5.601363 -5.752153,5.72618 -7.388779,5.710349 -0.497908,-0.0048 -1.05934,-0.07022 -1.247628,-0.145349 z"
     id="path14938" />
  <path
     style="fill:#999999;fill-opacity:1;stroke-width:0.138135"
     d="m 97.863096,62.179133 c -2.023688,-0.942354 -2.851488,-3.500978 -1.773487,-5.481622 0.427153,-0.784819 0.85084,-1.155767 1.946826,-1.704492 l 0.720615,-0.360788 h 7.25875 7.25875 l 0.74984,0.423185 c 0.97179,0.548444 1.54958,1.137768 1.95515,1.994171 0.85313,1.801474 0.074,3.949561 -1.8113,4.993913 l -0.82881,0.459109 -7.3902,3.04e-4 -7.390198,3.04e-4 -0.695936,-0.324071 z"
     id="path14940" />
  <path
     style="fill:#999999;fill-opacity:1;stroke-width:0.138135"
     d="m 95.029188,100.26309 c -0.601923,-0.294403 -1.749181,-1.364515 -5.738599,-5.352718 -5.713287,-5.711547 -5.80888,-5.838176 -5.687537,-7.534097 0.07864,-1.099117 0.479449,-1.908704 1.302891,-2.631696 1.241033,-1.089641 3.001215,-1.370587 4.189395,-0.668677 1.268375,0.749286 10.535049,10.02093 11.092882,11.098832 0.20375,0.393702 0.28561,0.810648 0.28477,1.450414 -0.002,1.710932 -0.976372,3.10856 -2.586494,3.710982 -1.078702,0.4036 -1.92713,0.38191 -2.857308,-0.073 z"
     id="path14942" />
  <path
     style="fill:#999999;fill-opacity:1;stroke-width:0.138135"
     d="m 56.961594,116.11283 c -0.822095,-0.3733 -1.637936,-1.16339 -2.045189,-1.98064 l -0.353241,-0.70887 v -7.36767 -7.367668 l 0.345324,-0.681463 c 0.751416,-1.482849 2.010919,-2.280725 3.591512,-2.27517 1.576629,0.0055 2.845712,0.757641 3.526087,2.089674 l 0.341682,0.668942 0.04022,7.446235 0.04023,7.44623 -0.358785,0.73333 c -0.435823,0.89079 -1.37868,1.75145 -2.240359,2.04506 -0.871398,0.29691 -2.175666,0.27524 -2.887482,-0.048 z"
     id="path14944" />
  <path
     style="fill:#afdde9;fill-opacity:1;stroke-width:0.138135"
     d="m 18.967218,100.37161 c -1.472959,-0.692696 -2.435081,-2.144123 -2.437675,-3.677395 -0.0026,-1.557761 0.09478,-1.682553 5.610365,-7.187015 3.115313,-3.109029 5.264184,-5.145189 5.694212,-5.395542 1.665324,-0.969515 4.029997,-0.187097 5.135444,1.699206 0.259504,0.442812 0.378159,0.877413 0.427384,1.565411 0.121499,1.698099 0.02746,1.822784 -5.686285,7.539205 -3.303263,3.30481 -5.19187,5.09313 -5.592648,5.29567 -0.878364,0.44389 -2.384964,0.52061 -3.150797,0.16046 z"
     id="path14946" />
  <path
     style="fill:#afdde9;fill-opacity:1;stroke-width:0.138135"
     d="m 56.971489,116.11726 c -0.793334,-0.36033 -1.53471,-1.05204 -2.003413,-1.8692 l -0.402319,-0.70142 -0.0013,-7.42933 -0.0013,-7.429328 0.345324,-0.681463 c 1.477361,-2.915432 5.33717,-3.108165 7.041916,-0.351626 l 0.417365,0.674869 0.04112,7.577648 0.04112,7.57765 -0.381797,0.70149 c -0.479925,0.88178 -1.390584,1.69196 -2.219128,1.97427 -0.865753,0.29499 -2.175874,0.27516 -2.877587,-0.0436 z"
     id="path15779" />
  <path
     style="fill:#afdde9;fill-opacity:1;stroke-width:0.138135"
     d="m 18.973524,100.30146 c -1.223031,-0.555715 -2.235627,-2.02193 -2.362472,-3.420803 -0.124707,-1.375292 0.223002,-1.880146 3.815411,-5.539758 4.568485,-4.653948 7.311318,-7.192712 7.990818,-7.396295 0.911417,-0.273067 1.685593,-0.203901 2.593935,0.231747 1.547067,0.741986 2.271005,1.873746 2.276187,3.558453 0.0029,0.955973 -0.01659,1.013276 -0.635526,1.864817 -0.773306,1.063921 -9.546939,9.857677 -10.388189,10.412009 -0.510572,0.33644 -0.761994,0.40058 -1.726682,0.44049 -0.772429,0.032 -1.266313,-0.0156 -1.563482,-0.15066 z"
     id="path15781" />
  <path
     style="fill:#afdde9;fill-opacity:1;stroke-width:0.138135"
     d="m 56.806138,115.9486 c -0.652386,-0.32293 -1.577595,-1.29707 -1.980879,-2.08566 -0.247549,-0.48406 -0.262095,-0.9156 -0.262095,-7.77557 0,-8.212291 -0.06603,-7.692254 1.143215,-9.004127 0.740775,-0.803645 1.478322,-1.169251 2.528884,-1.25358 1.203535,-0.09661 2.141092,0.241329 2.970443,1.070679 1.120185,1.120186 1.05007,0.558519 1.124674,9.009328 l 0.06672,7.55785 -0.383747,0.67191 c -0.45066,0.78908 -1.199161,1.48284 -1.984842,1.8397 -0.815478,0.37039 -2.443584,0.35496 -3.222373,-0.0305 z"
     id="path15783" />
  <path
     style="fill:#afdde9;fill-opacity:1;stroke-width:0.138135"
     d="m 95.242398,100.30091 c -0.640041,-0.27892 -2.957129,-2.44624 -6.974393,-6.523612 -3.762569,-3.818866 -4.368696,-4.529851 -4.551044,-5.338356 -0.135876,-0.602458 0.03543,-1.862217 0.340704,-2.505542 0.328705,-0.692695 1.457158,-1.670569 2.232796,-1.934856 0.792984,-0.270196 1.838235,-0.283168 2.430918,-0.03017 0.648903,0.276998 1.705761,1.237557 5.466223,4.968148 4.008397,3.976555 5.773619,5.881853 6.039928,6.519207 0.25696,0.615 0.24881,1.495056 -0.0223,2.407982 -0.28682,0.965825 -1.355242,2.066157 -2.328117,2.397649 -0.805318,0.2744 -2.052806,0.29312 -2.634715,0.0396 z"
     id="path15785" />
  <path
     style="fill:#afdde9;fill-opacity:1;stroke-width:0.138135"
     d="m 98.125703,62.240342 c -0.767252,-0.348399 -1.66373,-1.178744 -2.014727,-1.866102 -0.395157,-0.773836 -0.484139,-2.191241 -0.192655,-3.068817 0.320904,-0.96615 0.894976,-1.589429 1.997632,-2.168858 l 0.959748,-0.504334 h 7.145989 7.14598 l 0.71191,0.407312 c 1.5418,0.88213 2.34341,2.092297 2.34341,3.537766 0,1.53509 -0.88509,2.823182 -2.49818,3.635669 -0.57071,0.287453 -0.71652,0.292869 -7.80461,0.289891 -6.768768,-0.0028 -7.258974,-0.01935 -7.794497,-0.262527 z"
     id="path15787" />
  <path
     style="fill:#afdde9;fill-opacity:1;stroke-width:0.138135"
     d="m 86.817591,33.359381 c -0.835516,-0.0883 -1.779496,-0.695466 -2.406205,-1.547658 -0.51179,-0.695927 -0.708919,-1.350761 -0.721409,-2.396415 -0.0079,-0.663442 0.06127,-0.875029 0.508333,-1.554452 0.719589,-1.09359 9.883845,-10.241402 10.769222,-10.749898 0.594462,-0.341415 0.828397,-0.394734 1.679345,-0.38276 1.108185,0.0156 1.856789,0.317551 2.649466,1.068687 0.798897,0.75703 1.048287,1.393676 1.036927,2.647035 -0.006,0.607792 -0.0768,1.269928 -0.15836,1.471414 -0.323962,0.800059 -9.268787,9.884392 -10.706745,10.873732 -0.727494,0.50053 -1.578445,0.683626 -2.650574,0.570315 z"
     id="path15789" />
  <path
     style="fill:#afdde9;fill-opacity:1;stroke-width:0.138135"
     d="m 57.568597,21.336852 c -1.107326,-0.275134 -2.44946,-1.486839 -2.74167,-2.475234 -0.09561,-0.323402 -0.129799,-3.023003 -0.10067,-7.948985 0.04289,-7.2533512 0.05208,-7.4745213 0.332798,-8.0118066 0.358035,-0.6852626 1.531453,-1.6629435 2.228048,-1.8563886 2.300099,-0.6387398 4.576417,0.6586545 4.872095,2.7768652 0.0672,0.4814002 0.153763,3.9816671 0.192366,7.778371 l 0.07019,6.903097 -0.410781,0.717971 c -0.936218,1.636338 -2.800055,2.524172 -4.442373,2.11611 z"
     id="path15791" />
  <path
     style="fill:#afdde9;fill-opacity:1;stroke-width:0.138135"
     d="m 28.106913,33.228554 c -0.505791,-0.205102 -2.841322,-2.398942 -6.421228,-6.031667 -4.588276,-4.655974 -4.806811,-4.916997 -4.977233,-5.944902 -0.402627,-2.428442 1.017699,-4.304308 3.451658,-4.558707 1.475538,-0.154224 1.830048,0.104223 6.552864,4.777208 4.188629,4.144435 6.018888,6.098558 6.397204,6.830142 0.297625,0.575541 0.249876,1.891761 -0.09708,2.676115 -0.423245,0.956816 -0.902382,1.511911 -1.699756,1.969223 -0.635824,0.364661 -0.840995,0.410105 -1.821604,0.403486 -0.607793,-0.0041 -1.230963,-0.05851 -1.384823,-0.120898 z"
     id="path15793" />
  <path
     style="fill:#d5e5ff;fill-opacity:1;stroke-width:0.138135"
     d="M 7.3211334,62.372872 3.3842975,62.298701 2.7427172,61.92154 C 0.95907595,60.873005 0.28095155,58.724705 1.1639345,56.919953 1.5903233,56.048446 2.0658998,55.607565 3.1937404,55.038233 L 3.998025,54.632231 h 7.13559 7.13559 l 0.711907,0.407312 c 1.564516,0.895126 2.326149,2.05077 2.326149,3.529524 0,1.461287 -0.783558,2.73964 -2.164868,3.531924 l -0.701425,0.40232 -3.591499,-0.02813 c -1.975325,-0.01547 -5.3630758,-0.06151 -7.5283356,-0.102305 z"
     id="path15795" />
  <path
     style="fill:#d5e5ff;fill-opacity:1;stroke-width:0.138135"
     d="m 18.973524,100.30146 c -1.223031,-0.555715 -2.235627,-2.02193 -2.362472,-3.420803 -0.136648,-1.506972 0.05894,-1.7613 5.614246,-7.300374 2.704982,-2.697078 5.180217,-5.081707 5.500521,-5.299177 0.881045,-0.598182 2.08343,-0.661715 3.165469,-0.167262 1.612421,0.736821 2.395445,1.913567 2.397799,3.603466 0.0012,0.885531 -0.04201,1.033918 -0.503138,1.726683 -0.600611,0.902302 -9.662626,10.004608 -10.522261,10.569047 -0.509667,0.33464 -0.763705,0.39924 -1.726682,0.43908 -0.772429,0.032 -1.266313,-0.0156 -1.563482,-0.15066 z"
     id="path15935" />
  <path
     style="fill:#d5e5ff;fill-opacity:1;stroke-width:0.138135"
     d="m 56.806138,115.9486 c -0.652386,-0.32293 -1.577595,-1.29707 -1.980879,-2.08566 -0.247549,-0.48406 -0.262095,-0.9156 -0.262095,-7.77557 0,-7.107064 0.0062,-7.275567 0.290715,-7.844644 0.377011,-0.754203 1.290738,-1.703517 1.984443,-2.061734 0.763484,-0.394249 2.066973,-0.478702 2.935581,-0.190196 0.835537,0.27752 1.720101,1.007101 2.164862,1.785559 l 0.328789,0.575475 0.07263,7.54408 0.07263,7.54408 -0.391607,0.68568 c -0.457931,0.80181 -1.202923,1.49474 -1.992701,1.85346 -0.815478,0.37039 -2.443584,0.35496 -3.222373,-0.0305 z"
     id="path15937" />
  <path
     style="fill:#d5e5ff;fill-opacity:1;stroke-width:0.138135"
     d="M 94.818547,99.90747 C 94.045912,99.399089 87.521306,93.016556 85.532365,90.823495 83.95483,89.08406 83.639484,88.471569 83.76623,87.393158 c 0.1236,-1.051647 0.485698,-1.794116 1.180022,-2.419592 0.847719,-0.76366 1.565124,-1.05017 2.638569,-1.053767 0.777502,-0.0026 1.00185,0.05764 1.588548,0.426594 0.889828,0.559579 10.123139,9.79289 10.682716,10.682717 0.368475,0.585942 0.429625,0.813104 0.429625,1.59596 0,2.156374 -1.598207,3.71982 -3.809548,3.72668 -0.873031,0.003 -1.050631,-0.0449 -1.657615,-0.44428 z"
     id="path15939" />
  <path
     style="fill:#d5e5ff;fill-opacity:1;stroke-width:0.138135"
     d="m 101.79294,62.367769 -3.534679,-0.06907 -0.58789,-0.407713 C 96.880414,61.343137 96.170651,60.49113 96.003763,59.890373 95.928515,59.619499 95.867209,58.993831 95.867527,58.5 c 0.0011,-1.644028 0.68059,-2.599512 2.514244,-3.535269 l 0.651548,-0.3325 h 7.022411 7.02241 l 0.68319,0.427759 c 1.67312,1.047582 2.33093,2.035835 2.33576,3.509077 0.003,0.816238 -0.0605,1.082243 -0.40566,1.70673 -0.44875,0.81203 -1.08764,1.407343 -1.93759,1.805421 -0.4907,0.229818 -0.99318,0.264203 -4.48938,0.307201 -2.16526,0.02663 -5.52744,0.01734 -7.47152,-0.02065 z"
     id="path15941" />
  <path
     style="fill:#d5e5ff;fill-opacity:1;stroke-width:0.138135"
     d="m 86.282665,33.165116 c -1.847162,-0.687496 -3.035145,-3.072484 -2.327397,-4.672467 0.158604,-0.35855 0.980119,-1.374747 1.992437,-2.464602 2.200606,-2.369158 8.212812,-8.249938 8.970946,-8.774843 0.523739,-0.362618 0.685169,-0.400427 1.695218,-0.397035 1.32699,0.0045 1.930671,0.265662 2.804227,1.213357 0.629784,0.683231 0.866074,1.331052 0.866074,2.374394 0,1.274467 -0.15687,1.542562 -2.18473,3.733709 -3.133715,3.386047 -8.320587,8.403867 -9.053993,8.758901 -0.811201,0.392696 -2.047109,0.494952 -2.762782,0.228586 z"
     id="path15943" />
  <path
     style="fill:#d5e5ff;fill-opacity:1;stroke-width:0.138135"
     d="m 56.941639,20.98563 c -0.858463,-0.427791 -1.92409,-1.566086 -2.036028,-2.174873 -0.04438,-0.241371 -0.06189,-3.826607 -0.0389,-7.967191 l 0.04179,-7.5283358 0.318819,-0.5127465 c 0.345961,-0.5563975 1.057971,-1.1681535 1.822267,-1.5656831 1.07626,-0.55979016 3.066832,-0.1968375 4.053087,0.7390233 0.865239,0.8210277 0.96641,1.2207645 1.073171,4.2402328 0.05372,1.5194805 0.103346,4.9391413 0.110269,7.5992463 l 0.01259,4.836555 -0.481282,0.714663 c -1.201074,1.783493 -3.208316,2.450041 -4.87578,1.619109 z"
     id="path15945" />
  <path
     style="fill:#d5e5ff;fill-opacity:1;stroke-width:0.138135"
     d="m 27.61311,32.789687 c -0.334288,-0.237425 -2.756922,-2.583987 -5.38363,-5.214581 -5.468581,-5.476671 -5.603476,-5.65642 -5.485224,-7.309147 0.03657,-0.511126 0.175959,-1.146385 0.309751,-1.411689 0.646741,-1.282459 1.986158,-2.070917 3.518033,-2.070917 0.741754,0 0.880888,0.0525 1.686967,0.636526 1.037542,0.75173 9.955922,9.659301 10.544836,10.532056 0.352031,0.521702 0.404379,0.722814 0.395509,1.51948 -0.01626,1.460756 -0.634101,2.598709 -1.818887,3.350078 -0.57718,0.366038 -0.737548,0.399877 -1.895048,0.399877 -1.194508,0 -1.298156,-0.0239 -1.872307,-0.431683 z"
     id="path15947" />
  <path
     style="fill:#d5e5ff;fill-opacity:1;stroke-width:0.138135"
     d="m 28.455726,33.129648 c -0.56887,-0.117617 -1.142749,-0.627888 -5.095082,-4.53035 -3.945499,-3.895713 -5.96014,-6.045772 -6.323629,-6.748683 -0.276256,-0.53422 -0.259882,-2.132727 0.02895,-2.826044 0.517389,-1.241961 1.920531,-2.114207 3.438044,-2.137219 0.756987,-0.01148 0.937513,0.04139 1.538381,0.450543 0.998683,0.680039 10.59326,10.32397 10.875562,10.931505 0.659725,1.419786 -0.119158,3.603527 -1.615028,4.528026 -0.47382,0.292836 -2.112748,0.484072 -2.847196,0.332222 z"
     id="path15949" />
  <path
     style="fill:#d5e5ff;fill-opacity:1;stroke-width:0.138135"
     d="m 28.386659,33.131198 c -0.529618,-0.145903 -1.268657,-0.813871 -5.162425,-4.665969 -4.003429,-3.960587 -5.819219,-5.90298 -6.19185,-6.623569 -0.271634,-0.525282 -0.252502,-2.130371 0.03358,-2.817089 0.513037,-1.231514 1.937938,-2.122676 3.441823,-2.152588 0.736473,-0.01465 0.914781,0.03858 1.524682,0.455176 1.007199,0.687968 10.601157,10.332317 10.885068,10.942241 0.661511,1.421118 -0.118519,3.603388 -1.619595,4.531104 -0.47558,0.293924 -2.294692,0.500558 -2.911282,0.330694 z"
     id="path15951" />
  <path
     style="fill:#dbdee3;fill-opacity:1;stroke-width:0.138135"
     d="M 53.596222,85.911626 C 47.937424,84.715125 43.483462,82.462654 39.678179,78.872948 35.25468,74.700048 32.451247,69.652473 31.20165,63.61098 c -0.293835,-1.42062 -0.328569,-1.946305 -0.328569,-4.972845 0,-2.959323 0.03886,-3.575819 0.309458,-4.909474 1.428467,-7.040274 5.132408,-13.046377 10.603175,-17.193515 3.69392,-2.800191 8.569945,-4.883835 12.570248,-5.371573 1.599307,-0.194996 6.971902,-0.19692 8.261616,-0.003 0.546371,0.08217 1.588787,0.298108 2.31648,0.479863 5.065647,1.265243 9.470831,3.747528 13.111553,7.388249 3.944438,3.944438 6.515248,8.711276 7.670173,14.222158 0.490837,2.342088 0.617479,6.293393 0.283349,8.840614 -0.781075,5.954492 -3.329773,11.277463 -7.456398,15.572739 -0.828442,0.862301 -1.978413,1.948618 -2.55549,2.414039 -3.067538,2.474017 -6.767054,4.349607 -10.569252,5.358427 -2.573376,0.682783 -3.849529,0.828065 -7.194262,0.819022 -2.671219,-0.0072 -3.231191,-0.04886 -4.627509,-0.3441 z m 9.600354,-7.774588 c 3.753027,-0.945295 6.682682,-2.617342 9.467333,-5.403308 2.743429,-2.744724 4.411081,-5.669914 5.39776,-9.468087 C 78.359215,62.120254 78.38464,61.745269 78.384798,58.5 l 1.38e-4,-3.522432 -0.51585,-1.726683 C 77.216804,51.067422 75.741416,48.067774 74.530185,46.462416 71.62653,42.61393 66.738143,39.612907 62.160567,38.8686 c -1.55532,-0.252893 -6.397059,-0.253989 -7.528336,-0.0017 -4.297538,0.958385 -8.166086,3.132299 -10.907432,6.129386 -2.497509,2.730503 -4.371343,6.506819 -4.987054,10.050354 -0.322859,1.85812 -0.212247,6.483508 0.193248,8.080874 1.010432,3.980396 2.59434,6.796352 5.403959,9.607442 2.874902,2.876407 6.164084,4.677298 10.192441,5.580559 1.434865,0.321733 7.150418,0.204067 8.669183,-0.178472 z"
     id="path16022" />
</svg>
