<?xml version="1.0" encoding="UTF-8" standalone="no"?>
<svg
   width="117px"
   height="117px"
   viewBox="0 0 117 117"
   version="1.1"
   id="svg14541"
   sodipodi:docname="bright-brightness-sun.svg"
   inkscape:version="1.2 (dc2aedaf03, 2022-05-15)"
   xmlns:inkscape="http://www.inkscape.org/namespaces/inkscape"
   xmlns:sodipodi="http://sodipodi.sourceforge.net/DTD/sodipodi-0.dtd"
   xmlns="http://www.w3.org/2000/svg"
   xmlns:svg="http://www.w3.org/2000/svg">
  <sodipodi:namedview
     id="namedview14543"
     pagecolor="#ffffff"
     bordercolor="#000000"
     borderopacity="0.25"
     inkscape:showpageshadow="2"
     inkscape:pageopacity="0.0"
     inkscape:pagecheckerboard="0"
     inkscape:deskcolor="#d1d1d1"
     showgrid="false"
     inkscape:zoom="7.2393162"
     inkscape:cx="58.430933"
     inkscape:cy="58.569067"
     inkscape:window-width="1920"
     inkscape:window-height="1027"
     inkscape:window-x="-8"
     inkscape:window-y="-8"
     inkscape:window-maximized="1"
     inkscape:current-layer="svg14541" />
  <title
     id="title14516" />
  <desc
     id="desc14518" />
  <defs
     id="defs14520" />
  <g
     fill="none"
     fill-rule="evenodd"
     id="Page-1"
     stroke="none"
     stroke-width="1">
    <g
       fill-rule="nonzero"
       id="sun">
      <path
         d="M58.5,86.6 C74,86.6 86.5,74 86.5,58.6 C86.5,43.2 73.9,30.6 58.5,30.6 C43.1,30.6 30.5,43.2 30.5,58.6 C30.5,74 43,86.6 58.5,86.6 Z M58.5,38.7 C69.5,38.7 78.4,47.6 78.4,58.6 C78.4,69.6 69.5,78.5 58.5,78.5 C47.5,78.5 38.6,69.6 38.6,58.6 C38.6,47.6 47.5,38.7 58.5,38.7 Z"
         fill="#4A4A4A"
         id="Shape" />
      <path
         d="M62.6,17.6 L62.6,4.7 C62.6,2.4 60.8,0.6 58.5,0.6 C56.2,0.6 54.4,2.4 54.4,4.7 L54.4,17.6 C54.4,19.9 56.2,21.7 58.5,21.7 C60.8,21.7 62.6,19.9 62.6,17.6 Z"
         fill="#17AB13"
         id="path14523" />
      <path
         d="M54.4,99.6 L54.4,112.5 C54.4,114.8 56.2,116.6 58.5,116.6 C60.8,116.6 62.6,114.8 62.6,112.5 L62.6,99.6 C62.6,97.3 60.8,95.5 58.5,95.5 C56.2,95.5 54.4,97.3 54.4,99.6 Z"
         fill="#17AB13"
         id="path14525" />
      <path
         d="M90.4,32.5 L99.5,23.4 C101.1,21.8 101.1,19.2 99.5,17.6 C97.9,16 95.3,16 93.7,17.6 L84.6,26.7 C83,28.3 83,30.9 84.6,32.5 C85.4,33.3 86.4,33.7 87.5,33.7 C88.6,33.7 89.6,33.3 90.4,32.5 Z"
         fill="#17AB13"
         id="path14527" />
      <path
         d="M17.5,99.6 C18.3,100.4 19.3,100.8 20.4,100.8 C21.4,100.8 22.5,100.4 23.3,99.6 L32.4,90.5 C34,88.9 34,86.3 32.4,84.7 C30.8,83.1 28.2,83.1 26.6,84.7 L17.5,93.8 C15.9,95.4 15.9,98 17.5,99.6 Z"
         fill="#17AB13"
         id="path14529" />
      <path
         d="M116.5,58.6 C116.5,56.3 114.7,54.5 112.4,54.5 L99.5,54.5 C97.2,54.5 95.4,56.3 95.4,58.6 C95.4,60.9 97.2,62.7 99.5,62.7 L112.4,62.7 C114.6,62.7 116.5,60.9 116.5,58.6 Z"
         fill="#17AB13"
         id="path14531" />
      <path
         d="M4.6,62.7 L17.5,62.7 C19.8,62.7 21.6,60.9 21.6,58.6 C21.6,56.3 19.8,54.5 17.5,54.5 L4.6,54.5 C2.3,54.5 0.5,56.3 0.5,58.6 C0.5,60.9 2.4,62.7 4.6,62.7 Z"
         fill="#17AB13"
         id="path14533" />
      <path
         d="M96.6,100.8 C97.6,100.8 98.7,100.4 99.5,99.6 C101.1,98 101.1,95.4 99.5,93.8 L90.4,84.7 C88.8,83.1 86.2,83.1 84.6,84.7 C83,86.3 83,88.9 84.6,90.5 L93.7,99.6 C94.5,100.4 95.6,100.8 96.6,100.8 Z"
         fill="#17AB13"
         id="path14535" />
      <path
         d="M32.4,32.5 C34,30.9 34,28.3 32.4,26.7 L23.3,17.6 C21.7,16 19.1,16 17.5,17.6 C15.9,19.2 15.9,21.8 17.5,23.4 L26.6,32.5 C27.4,33.3 28.4,33.7 29.5,33.7 C30.6,33.7 31.6,33.3 32.4,32.5 Z"
         fill="#17AB13"
         id="path14537" />
    </g>
  </g>
  <path
     style="fill:#55d400;fill-opacity:0.92228;stroke-width:0.138135"
     d="M 55.668241,86.385961 C 51.428191,85.957491 46.722524,84.272409 43.178947,81.913592 33.634311,75.560113 28.875781,64.156735 31.147487,53.081316 33.445991,41.87525 42.410443,33.14237 53.734357,31.077914 c 1.970929,-0.359319 6.387601,-0.433324 8.480622,-0.1421 10.561741,1.469564 19.375483,8.78736 22.760057,18.897019 1.797269,5.368407 1.910344,11.030251 0.329839,16.515662 -1.012323,3.513447 -2.783228,6.891842 -5.163746,9.850997 -1.049379,1.304453 -3.519728,3.689429 -4.873981,4.705536 -5.593169,4.196607 -12.684296,6.179677 -19.598907,5.480933 z m 7.006812,-8.252994 c 3.673174,-0.818314 6.896482,-2.523358 9.532887,-5.042643 3.069633,-2.933267 4.968238,-6.330147 5.862756,-10.489328 0.409087,-1.902102 0.443403,-5.91475 0.06579,-7.692495 -0.754741,-3.553145 -2.0221,-6.275393 -4.160042,-8.935639 C 72.77744,44.480937 71.386828,43.22024 69.661347,42.06089 66.195529,39.732209 62.762382,38.697724 58.5,38.697724 c -2.562749,0 -4.098482,0.234508 -6.268555,0.957213 -8.514335,2.835551 -14.02217,10.801312 -13.651031,19.742938 0.207038,4.988046 2.074644,9.405747 5.477629,12.95698 3.083571,3.217905 6.792109,5.174289 11.333929,5.979046 1.5606,0.27652 5.645849,0.163812 7.283081,-0.200934 z"
     id="path14614" />
  <path
     style="fill:#17ab13;fill-opacity:1;stroke-width:0.138135"
     d="m 55.391972,86.304525 c -1.26882,-0.142896 -4.059454,-0.792524 -5.571984,-1.297095 -4.353856,-1.452419 -8.014393,-3.752516 -11.220631,-7.050476 -4.030436,-4.145736 -6.553522,-9.122148 -7.5887,-14.96758 -0.30872,-1.743278 -0.415095,-5.200336 -0.216772,-7.044864 1.190119,-11.068878 8.615459,-20.30241 19.14177,-23.803107 2.892507,-0.96195 4.139674,-1.16195 7.706493,-1.235838 3.634254,-0.07529 4.990582,0.05421 7.63484,0.728956 12.680463,3.235708 21.516105,14.968509 21.011827,27.901488 -0.158456,4.06387 -1.119834,7.920015 -2.823948,11.327037 -4.254375,8.50574 -12.370117,14.223229 -21.853215,15.395451 -1.099784,0.135947 -5.154809,0.165955 -6.21968,0.04603 z m 7.804604,-8.240894 c 3.706741,-0.927078 6.770829,-2.658504 9.455156,-5.342832 2.206059,-2.206059 3.760786,-4.675936 4.758134,-7.558891 0.859907,-2.485667 0.98083,-3.323988 0.970904,-6.730975 -0.0086,-2.969051 -0.019,-3.076656 -0.449645,-4.677528 C 76.316178,47.750098 72.761339,43.362356 67.29078,40.620015 64.479195,39.210593 62.177071,38.705337 58.5,38.690665 c -2.865362,-0.01143 -3.8445,0.130385 -6.190952,0.896692 -6.740395,2.201288 -11.68348,7.587254 -13.320216,14.513661 -0.337374,1.427711 -0.37078,1.819303 -0.375277,4.398982 -0.0043,2.471598 0.0359,3.014133 0.316114,4.265665 0.895675,4.000353 2.59661,7.122904 5.42064,9.951131 2.820715,2.824907 6.21155,4.651148 10.292805,5.543509 1.070681,0.234104 1.621897,0.261536 4.202222,0.209128 2.57978,-0.0524 3.151342,-0.105701 4.35124,-0.405802 z"
     id="path14685" />
</svg>
