<?xml version="1.0" encoding="UTF-8" standalone="no"?>
<svg
   width="238.68143"
   height="309.84503"
   viewBox="0 0 238.68143 309.84504"
   aria-hidden="true"
   role="img"
   class="iconify iconify--noto"
   preserveAspectRatio="xMidYMid"
   version="1.1"
   id="svg15"
   sodipodi:docname="candle-lit.svg"
   inkscape:version="1.4.2 (f4327f4, 2025-05-13)"
   xmlns:inkscape="http://www.inkscape.org/namespaces/inkscape"
   xmlns:sodipodi="http://sodipodi.sourceforge.net/DTD/sodipodi-0.dtd"
   xmlns="http://www.w3.org/2000/svg"
   xmlns:svg="http://www.w3.org/2000/svg">
  <defs
     id="defs15">
    <filter
       style="color-interpolation-filters:sRGB"
       inkscape:label="Blur"
       id="filter15"
       x="-0.054993693"
       y="-0.058442208"
       width="1.1099874"
       height="1.1168844">
      <feGaussianBlur
         stdDeviation="2 2"
         result="blur"
         id="feGaussianBlur15" />
    </filter>
    <filter
       style="color-interpolation-filters:sRGB"
       inkscape:label="Blur"
       id="filter15-0"
       x="-0.054993697"
       y="-0.058442216"
       width="1.1099874"
       height="1.1168844">
      <feGaussianBlur
         stdDeviation="2 2"
         result="blur"
         id="feGaussianBlur15-9" />
    </filter>
    <filter
       style="color-interpolation-filters:sRGB"
       inkscape:label="Blur"
       id="filter15-0-8"
       x="-0.054993697"
       y="-0.058442216"
       width="1.1099874"
       height="1.1168844">
      <feGaussianBlur
         stdDeviation="2 2"
         result="blur"
         id="feGaussianBlur15-9-2" />
    </filter>
    <linearGradient
       id="linearGradient1"
       gradientUnits="userSpaceOnUse"
       x1="63.848"
       y1="66.192001"
       x2="63.848"
       y2="132.535"
       gradientTransform="matrix(1,0,0,2.1987581,55.734317,5.6467104)">
      <stop
         offset="0"
         stop-color="#e0e0e0"
         id="stop4-5" />
      <stop
         offset="1"
         stop-color="#b0bec5"
         id="stop5-1" />
    </linearGradient>
  </defs>
  <sodipodi:namedview
     id="namedview15"
     pagecolor="#ffffff"
     bordercolor="#000000"
     borderopacity="0.25"
     inkscape:showpageshadow="2"
     inkscape:pageopacity="0.0"
     inkscape:pagecheckerboard="0"
     inkscape:deskcolor="#d1d1d1"
     inkscape:zoom="6.3515625"
     inkscape:cx="119.6556"
     inkscape:cy="208.37392"
     inkscape:window-width="2880"
     inkscape:window-height="1514"
     inkscape:window-x="-11"
     inkscape:window-y="-11"
     inkscape:window-maximized="1"
     inkscape:current-layer="svg15" />
  <radialGradient
     id="IconifyId17ecdb2904d178eab6011"
     cx="64.939003"
     cy="25.413"
     r="39.390999"
     gradientTransform="matrix(1.1044759,0,0,1.0387167,-9.6575917,1.4386817)"
     gradientUnits="userSpaceOnUse">
    <stop
       offset=".088"
       stop-color="#ffe265"
       stop-opacity=".7"
       id="stop1" />
    <stop
       offset=".398"
       stop-color="#ffec99"
       stop-opacity=".448"
       id="stop2" />
    <stop
       offset=".949"
       stop-color="#fff"
       stop-opacity="0"
       id="stop3" />
  </radialGradient>
  <path
     d="m 161.44383,101.71306 c 0,21.32799 -14.74566,40.83145 -43.75406,40.23377 -35.689006,-0.75497 -43.528676,-20.0697 -43.528676,-41.38195 0,-21.312261 15.534459,-40.737082 47.263386,-40.737082 28.75083,0 40.01935,20.557281 40.01935,41.885262 z"
     fill="url(#IconifyId17ecdb2904d178eab6011)"
     id="path3"
     style="fill:#ffeeaa;fill-opacity:0.59751;stroke-width:1.59122;filter:url(#filter15)" />
  <path
     d="m 107.08273,69.685263 c 0,21.327982 -14.74566,40.831447 -43.75405,40.233757 C 27.63967,109.16405 19.8,89.849328 19.8,68.537075 19.8,47.224821 35.334459,27.8 67.063389,27.8 c 28.750821,0 40.019341,20.557281 40.019341,41.885263 z"
     fill="url(#IconifyId17ecdb2904d178eab6011)"
     id="path3-8"
     style="fill:#fff6d5;fill-opacity:0.59751;stroke-width:1.59122;filter:url(#filter15-0)"
     transform="matrix(2.457691,0,0,2.5927391,-35.877668,-69.065964)" />
  <linearGradient
     id="IconifyId17ecdb2904d178eab6012"
     gradientUnits="userSpaceOnUse"
     x1="63.848"
     y1="66.192001"
     x2="63.848"
     y2="132.535"
     gradientTransform="matrix(1,0,0,2.4612768,55.734317,-9.1147197)">
    <stop
       offset="0"
       stop-color="#e0e0e0"
       id="stop4" />
    <stop
       offset="1"
       stop-color="#b0bec5"
       id="stop5" />
  </linearGradient>
  <path
     d="m 100.73432,129.28289 v 149.25186 c 0,9.69743 8.44,17.5489 18.85,17.5489 10.41,0 18.85,-7.85147 18.85,-17.5489 V 129.28289 Z"
     fill="url(#IconifyId17ecdb2904d178eab6012)"
     id="path5"
     style="fill:url(#IconifyId17ecdb2904d178eab6012);stroke-width:1.56883" />
  <path
     d="m 139.91432,139.0529 c -1.4,-3.1 -0.06,-4.96 -0.49,-8.24001 -0.16,-1.21 -0.07,-3.18 -3.1,-4.77 h -0.01 c -0.24,-0.13 -0.5,-0.25 -0.77,-0.37 -0.94,-0.41 -2.04,-0.78 -2.91,-0.87 h -0.01 c -5.71,-1.28 -15.06,-1.76 -23.73,-4.04 -4.19,-1.1 -6.52,-0.77 -7.43,-0.24 h -0.01 c -2.190003,1.14 -1.990003,5.79 -1.640003,9.35 0.350003,3.56001 0.720003,7.37001 -1,10.50001 -0.45,0.83 -1.05,1.59 -1.33,2.49 -0.58,1.86 0.47,4.07 2.28,4.79 -1,2.18 -1.91,4.49 -1.77,6.88 0.13,2.39 1.58,4.86 3.890003,5.48 0.59,0.16 1.25,0.18 1.79,-0.1 1.46,-0.77 1.79,-2.57 1.81,-3.75 0.13,-8.88 -1.83,-17.15 -1.45,-26.02001 0.01,-0.21 0.03,-0.44 0.16,-0.61 0.15,-0.19 0.42,-0.24 0.66,-0.25 1.42,-0.09 2.85,0.7 3.54,1.94 0.63,1.14001 0.64,2.52001 1.18,3.71001 0.85,1.86 3.11,2.95 5.1,2.47 1.11,-0.27 2.07,-0.95 3.1,-1.43 1.04,-0.48 2.78,-1.17 3.29,-0.14 2.28,4.63 5.18,4.44 5.32,5.22 0,0 1.1,8.1 0.93,13.66 -0.2,6.52 -1.27,12.75 -0.37,14.96 1.02,2.51 2.98,2.17 3.74,1.67 3.37,-2.21 0.72,-10.5 0.96,-12.13 0,0 2.53,0.96 3.23,-1.83 0.72,-2.89 -2.33,-9.22 -2.19,-14.45 0.09,-3.2 1.54,-4.44 3.23,-3.04 0.22,0.19 1.27,0.59 1.68,2.89 0.42,2.38 0.05,6.13 0.81,7.89 0.76,1.76 3.77,-0.22 3.77,-4.04 -0.02,-1.99 -1.44,-5.76 -2.26,-7.58 z"
     fill="#eeeeee"
     id="path6" />
  <radialGradient
     id="IconifyId17ecdb2904d178eab6013"
     cx="64.362999"
     cy="49.504002"
     r="22.627001"
     gradientTransform="matrix(0.9846,0.1746,-0.0561,0.3163,59.499317,95.66089)"
     gradientUnits="userSpaceOnUse">
    <stop
       offset="0"
       stop-color="#fff176"
       id="stop6" />
    <stop
       offset="1"
       stop-color="#fff176"
       stop-opacity="0"
       id="stop7" />
  </radialGradient>
  <path
     d="m 108.89432,120.78289 c -5.52,-1.45 -7.82,-0.41 -7.88,0.29 -0.31,3.9 18.46,8.43 26.41,9.4 7.48,0.92001 11.01,0.03 10.6,-2.43 -0.75,-4.52 -15.75,-3.74 -29.13,-7.26 z"
     fill="url(#IconifyId17ecdb2904d178eab6013)"
     id="path7"
     style="fill:url(#IconifyId17ecdb2904d178eab6013)" />
  <radialGradient
     id="IconifyId17ecdb2904d178eab6014"
     cx="62.870998"
     cy="40.667999"
     r="31.156"
     gradientUnits="userSpaceOnUse"
     gradientTransform="translate(55.734317,73.05289)">
    <stop
       offset=".17"
       stop-color="#ff9616"
       id="stop8" />
    <stop
       offset=".654"
       stop-color="#ffd429"
       id="stop9" />
  </radialGradient>
  <path
     d="m 125.92432,115.98289 c -3.95,2.5 -9.05,2.63 -13.17,0.42 -4.55,-2.44 -9.34,-8.95 -5.21,-20.63 3.99,-11.3 11.34,-16.7 14.55,-18.61 0.54,-0.32 1.18,0.16 1.05,0.76 -0.59,2.7 -0.84,8.73 4.96,17.43 5.55,8.32 4.47,16.42 -2.18,20.63 z"
     fill="url(#IconifyId17ecdb2904d178eab6014)"
     id="path9"
     style="fill:url(#IconifyId17ecdb2904d178eab6014)" />
  <path
     d="m 118.01432,123.18289 c 0,0 -1.34,-3.08 -0.94,-7.46 0.22,-2.42 1.02,-4.31 1.44,-6.03 0.54,-2.16 0.57,-3.85 0.57,-3.85 0.79,0.2 1.83,1.73 1.59,4.58 -0.18,2.13 -0.83,5.42 -0.79,6.31 0.11,2.42 0.58,4.82 1.33,7.13 0.01,0.03 0.02,0.05 0.02,0.08 0.25,0.77 -3.05,-0.08 -3.22,-0.76 z"
     fill="#546e7a"
     id="path10" />
  <linearGradient
     id="IconifyId17ecdb2904d178eab6015"
     gradientUnits="userSpaceOnUse"
     x1="63.983002"
     y1="34.004002"
     x2="61.483002"
     y2="52.754002"
     gradientTransform="translate(55.734317,73.05289)">
    <stop
       offset="0"
       stop-color="#ffa726"
       id="stop10" />
    <stop
       offset=".598"
       stop-color="#ffa726"
       stop-opacity="0"
       id="stop11" />
  </linearGradient>
  <path
     d="m 117.08432,115.71289 c 0.22,-2.42 1.02,-4.31 1.44,-6.03 0.54,-2.16 0.57,-3.85 0.57,-3.85 0.79,0.2 1.83,1.73 1.59,4.58 -0.18,2.13 -0.83,5.42 -0.79,6.31 0.09,2.42 -3.21,3.38 -2.81,-1.01 z"
     fill="url(#IconifyId17ecdb2904d178eab6015)"
     id="path11"
     style="fill:url(#IconifyId17ecdb2904d178eab6015)" />
  <path
     d="m 104.86432,121.64289 c 1.97,0.92 3.55,2.49 5.43,3.58 1.35,0.78 2.85,1.3 4.39,1.52 0.97,0.14 2,0.18 2.84,0.68 0.51,0.31 0.95,1 0.6,1.49 -0.16,0.23 -0.44,0.33 -0.71,0.38 -1.02,0.19 -2.05,-0.23 -3.09,-0.32 -1.56,-0.13 -3.24,0.47 -4.66,-0.22 -1.26,-0.61 -1.92,-2.08 -3.17,-2.71 -0.7,-0.36 -1.51,-0.41 -2.3,-0.44 -1.5,-0.07 -4.200003,-0.65 -3.94,-2.74 0.29,-2.18 3.22,-1.86 4.61,-1.22 z"
     fill="#fffde7"
     id="path12" />
  <path
     d="m 127.76432,132.5229 c 2.65,0.87 5.74,0.79 8.01,-0.83 0.88,-0.63001 1.65,-1.56001 1.71,-2.64001 0.07,-1.08 -0.82,-2.24 -1.9,-2.15 -0.7,0.06 -1.26,0.56 -1.84,0.94 -2.57,1.66 -5.17,0.65 -7.94,0.96 -4.35,0.48 0.28,3.17001 1.96,3.72001 z"
     fill="#fffde7"
     id="path13" />
  <path
     d="m 129.09432,165.6229 c 0.05,0.92 0.08,1.87 -0.17,2.76 -0.06,0.21 -0.71,1.2 -1.55,0.53 -0.77,-0.61 -0.65,-1.78 -0.6,-2.76 0.15,-3.09 0.34,-5.73 0.81,-8.76 0.2,-1.3 0.87,-0.15 0.95,0.65 0.08,0.8 0.11,1.76 0.17,2.36 0.19,1.73 0.3,3.47 0.39,5.22 z"
     fill="#ffffff"
     id="path14" />
  <path
     d="m 101.69432,146.8129 c -0.2,0.06 -0.41,0.1 -0.61,0.04 -0.35,-0.09 -0.59,-0.43 -0.66,-0.78 -0.07,-0.35 0,-0.71 0.08,-1.06 0.36,-1.42 1.07,-2.73 1.76,-4.03 0.96,-1.77 1.51,1.4 1.48,2.13 -0.05,1.42 -0.54,3.22 -2.05,3.7 z"
     fill="#ffffff"
     id="path15" />
  <rect
     style="fill:#e3e2db;stroke-width:0.428255"
     id="rect2"
     width="62.031979"
     height="24.671959"
     x="88.63961"
     y="278.98645"
     rx="9.5863752" />
</svg>
