<?xml version="1.0" encoding="UTF-8" standalone="no"?>
<svg
   width="127.52767"
   height="145.00369"
   viewBox="0 0 127.52767 145.00369"
   aria-hidden="true"
   role="img"
   class="iconify iconify--noto"
   preserveAspectRatio="xMidYMid"
   version="1.1"
   id="svg15"
   sodipodi:docname="candle-lit.svg"
   inkscape:version="1.3.2 (091e20e, 2023-11-25, custom)"
   xmlns:inkscape="http://www.inkscape.org/namespaces/inkscape"
   xmlns:sodipodi="http://sodipodi.sourceforge.net/DTD/sodipodi-0.dtd"
   xmlns="http://www.w3.org/2000/svg"
   xmlns:svg="http://www.w3.org/2000/svg">
  <defs
     id="defs15">
    <filter
       style="color-interpolation-filters:sRGB"
       inkscape:label="Blur"
       id="filter15"
       x="-0.054993695"
       y="-0.058442214"
       width="1.1099874"
       height="1.1168844">
      <feGaussianBlur
         stdDeviation="2 2"
         result="blur"
         id="feGaussianBlur15" />
    </filter>
  </defs>
  <sodipodi:namedview
     id="namedview15"
     pagecolor="#ffffff"
     bordercolor="#000000"
     borderopacity="0.25"
     inkscape:showpageshadow="2"
     inkscape:pageopacity="0.0"
     inkscape:pagecheckerboard="0"
     inkscape:deskcolor="#d1d1d1"
     inkscape:zoom="6.3515625"
     inkscape:cx="64"
     inkscape:cy="68.408364"
     inkscape:window-width="1920"
     inkscape:window-height="1009"
     inkscape:window-x="-8"
     inkscape:window-y="-8"
     inkscape:window-maximized="1"
     inkscape:current-layer="svg15" />
  <radialGradient
     id="IconifyId17ecdb2904d178eab6011"
     cx="64.939003"
     cy="25.413"
     r="39.390999"
     gradientTransform="matrix(1.1044759,0,0,1.0387167,-9.6575917,1.4386817)"
     gradientUnits="userSpaceOnUse">
    <stop
       offset=".088"
       stop-color="#ffe265"
       stop-opacity=".7"
       id="stop1" />
    <stop
       offset=".398"
       stop-color="#ffec99"
       stop-opacity=".448"
       id="stop2" />
    <stop
       offset=".949"
       stop-color="#fff"
       stop-opacity="0"
       id="stop3" />
  </radialGradient>
  <path
     d="m 105.70951,45.663861 c 0,21.327982 -14.745663,40.831446 -43.754053,40.23376 -35.68901,-0.754973 -43.52868,-20.069695 -43.52868,-41.381948 0,-21.312254 15.534459,-40.737075 47.263389,-40.737075 28.750821,0 40.019344,20.557281 40.019344,41.885263 z"
     fill="url(#IconifyId17ecdb2904d178eab6011)"
     id="path3"
     style="fill:#ffdd55;stroke-width:1.59122;filter:url(#filter15)" />
  <linearGradient
     id="IconifyId17ecdb2904d178eab6012"
     gradientUnits="userSpaceOnUse"
     x1="63.848"
     y1="66.192001"
     x2="63.848"
     y2="132.535"
     gradientTransform="translate(0,17.00369)">
    <stop
       offset="0"
       stop-color="#e0e0e0"
       id="stop4" />
    <stop
       offset="1"
       stop-color="#b0bec5"
       id="stop5" />
  </linearGradient>
  <path
     d="m 45,73.23369 v 60.64 c 0,3.94 8.44,7.13 18.85,7.13 10.41,0 18.85,-3.19 18.85,-7.13 v -60.64 z"
     fill="url(#IconifyId17ecdb2904d178eab6012)"
     id="path5"
     style="fill:url(#IconifyId17ecdb2904d178eab6012)" />
  <path
     d="m 84.18,83.00369 c -1.4,-3.1 -0.06,-4.96 -0.49,-8.24 -0.16,-1.21 -0.07,-3.18 -3.1,-4.77 h -0.01 c -0.24,-0.13 -0.5,-0.25 -0.77,-0.37 -0.94,-0.41 -2.04,-0.78 -2.91,-0.87 h -0.01 c -5.71,-1.28 -15.06,-1.76 -23.73,-4.04 -4.19,-1.1 -6.52,-0.77 -7.43,-0.24 h -0.01 c -2.19,1.14 -1.99,5.79 -1.64,9.35 0.35,3.56 0.72,7.37 -1,10.5 -0.45,0.83 -1.05,1.59 -1.33,2.49 -0.58,1.86 0.47,4.07 2.28,4.79 -1,2.18 -1.91,4.49 -1.77,6.88 0.13,2.39 1.58,4.86 3.89,5.48 0.59,0.16 1.25,0.18 1.79,-0.1 1.46,-0.77 1.79,-2.57 1.81,-3.75 0.13,-8.88 -1.83,-17.15 -1.45,-26.02 0.01,-0.21 0.03,-0.44 0.16,-0.61 0.15,-0.19 0.42,-0.24 0.66,-0.25 1.42,-0.09 2.85,0.7 3.54,1.94 0.63,1.14 0.64,2.52 1.18,3.71 0.85,1.86 3.11,2.95 5.1,2.47 1.11,-0.27 2.07,-0.95 3.1,-1.43 1.04,-0.48 2.78,-1.17 3.29,-0.14 2.28,4.63 5.18,4.44 5.32,5.22 0,0 1.1,8.1 0.93,13.66 -0.2,6.52 -1.27,12.75 -0.37,14.96 1.02,2.51 2.98,2.17 3.74,1.67 3.37,-2.21 0.72,-10.5 0.96,-12.13 0,0 2.53,0.96 3.23,-1.83 0.72,-2.89 -2.33,-9.22 -2.19,-14.45 0.09,-3.2 1.54,-4.44 3.23,-3.04 0.22,0.19 1.27,0.59 1.68,2.89 0.42,2.38 0.05,6.13 0.81,7.89 0.76,1.76 3.77,-0.22 3.77,-4.04 -0.02,-1.99 -1.44,-5.76 -2.26,-7.58 z"
     fill="#eeeeee"
     id="path6" />
  <radialGradient
     id="IconifyId17ecdb2904d178eab6013"
     cx="64.362999"
     cy="49.504002"
     r="22.627001"
     gradientTransform="matrix(0.9846,0.1746,-0.0561,0.3163,3.765,39.61169)"
     gradientUnits="userSpaceOnUse">
    <stop
       offset="0"
       stop-color="#fff176"
       id="stop6" />
    <stop
       offset="1"
       stop-color="#fff176"
       stop-opacity="0"
       id="stop7" />
  </radialGradient>
  <path
     d="m 53.16,64.73369 c -5.52,-1.45 -7.82,-0.41 -7.88,0.29 -0.31,3.9 18.46,8.43 26.41,9.4 7.48,0.92 11.01,0.03 10.6,-2.43 -0.75,-4.52 -15.75,-3.74 -29.13,-7.26 z"
     fill="url(#IconifyId17ecdb2904d178eab6013)"
     id="path7"
     style="fill:url(#IconifyId17ecdb2904d178eab6013)" />
  <radialGradient
     id="IconifyId17ecdb2904d178eab6014"
     cx="62.870998"
     cy="40.667999"
     r="31.156"
     gradientUnits="userSpaceOnUse"
     gradientTransform="translate(0,17.00369)">
    <stop
       offset=".17"
       stop-color="#ff9616"
       id="stop8" />
    <stop
       offset=".654"
       stop-color="#ffd429"
       id="stop9" />
  </radialGradient>
  <path
     d="m 70.19,59.93369 c -3.95,2.5 -9.05,2.63 -13.17,0.42 -4.55,-2.44 -9.34,-8.95 -5.21,-20.63 3.99,-11.3 11.34,-16.7 14.55,-18.61 0.54,-0.32 1.18,0.16 1.05,0.76 -0.59,2.7 -0.84,8.73 4.96,17.43 5.55,8.32 4.47,16.42 -2.18,20.63 z"
     fill="url(#IconifyId17ecdb2904d178eab6014)"
     id="path9"
     style="fill:url(#IconifyId17ecdb2904d178eab6014)" />
  <path
     d="m 62.28,67.13369 c 0,0 -1.34,-3.08 -0.94,-7.46 0.22,-2.42 1.02,-4.31 1.44,-6.03 0.54,-2.16 0.57,-3.85 0.57,-3.85 0.79,0.2 1.83,1.73 1.59,4.58 -0.18,2.13 -0.83,5.42 -0.79,6.31 0.11,2.42 0.58,4.82 1.33,7.13 0.01,0.03 0.02,0.05 0.02,0.08 0.25,0.77 -3.05,-0.08 -3.22,-0.76 z"
     fill="#546e7a"
     id="path10" />
  <linearGradient
     id="IconifyId17ecdb2904d178eab6015"
     gradientUnits="userSpaceOnUse"
     x1="63.983002"
     y1="34.004002"
     x2="61.483002"
     y2="52.754002"
     gradientTransform="translate(0,17.00369)">
    <stop
       offset="0"
       stop-color="#ffa726"
       id="stop10" />
    <stop
       offset=".598"
       stop-color="#ffa726"
       stop-opacity="0"
       id="stop11" />
  </linearGradient>
  <path
     d="m 61.35,59.66369 c 0.22,-2.42 1.02,-4.31 1.44,-6.03 0.54,-2.16 0.57,-3.85 0.57,-3.85 0.79,0.2 1.83,1.73 1.59,4.58 -0.18,2.13 -0.83,5.42 -0.79,6.31 0.09,2.42 -3.21,3.38 -2.81,-1.01 z"
     fill="url(#IconifyId17ecdb2904d178eab6015)"
     id="path11"
     style="fill:url(#IconifyId17ecdb2904d178eab6015)" />
  <path
     d="m 49.13,65.59369 c 1.97,0.92 3.55,2.49 5.43,3.58 1.35,0.78 2.85,1.3 4.39,1.52 0.97,0.14 2,0.18 2.84,0.68 0.51,0.31 0.95,1 0.6,1.49 -0.16,0.23 -0.44,0.33 -0.71,0.38 -1.02,0.19 -2.05,-0.23 -3.09,-0.32 -1.56,-0.13 -3.24,0.47 -4.66,-0.22 -1.26,-0.61 -1.92,-2.08 -3.17,-2.71 -0.7,-0.36 -1.51,-0.41 -2.3,-0.44 -1.5,-0.07 -4.2,-0.65 -3.94,-2.74 0.29,-2.18 3.22,-1.86 4.61,-1.22 z"
     fill="#fffde7"
     id="path12" />
  <path
     d="m 72.03,76.47369 c 2.65,0.87 5.74,0.79 8.01,-0.83 0.88,-0.63 1.65,-1.56 1.71,-2.64 0.07,-1.08 -0.82,-2.24 -1.9,-2.15 -0.7,0.06 -1.26,0.56 -1.84,0.94 -2.57,1.66 -5.17,0.65 -7.94,0.96 -4.35,0.48 0.28,3.17 1.96,3.72 z"
     fill="#fffde7"
     id="path13" />
  <path
     d="m 73.36,109.57369 c 0.05,0.92 0.08,1.87 -0.17,2.76 -0.06,0.21 -0.71,1.2 -1.55,0.53 -0.77,-0.61 -0.65,-1.78 -0.6,-2.76 0.15,-3.09 0.34,-5.73 0.81,-8.76 0.2,-1.3 0.87,-0.15 0.95,0.65 0.08,0.8 0.11,1.76 0.17,2.36 0.19,1.73 0.3,3.47 0.39,5.22 z"
     fill="#ffffff"
     id="path14" />
  <path
     d="m 45.96,90.76369 c -0.2,0.06 -0.41,0.1 -0.61,0.04 -0.35,-0.09 -0.59,-0.43 -0.66,-0.78 -0.07,-0.35 0,-0.71 0.08,-1.06 0.36,-1.42 1.07,-2.73 1.76,-4.03 0.96,-1.77 1.51,1.4 1.48,2.13 -0.05,1.42 -0.54,3.22 -2.05,3.7 z"
     fill="#ffffff"
     id="path15" />
</svg>
