<?xml version="1.0" encoding="UTF-8" standalone="no"?>
<!-- Uploaded to: SVG Repo, www.svgrepo.com, Generator: SVG Repo Mixer Tools -->

<svg
   fill="#000000"
   width="800px"
   height="800px"
   viewBox="0 0 24 24"
   id="cylinder"
   data-name="Flat Color"
   class="icon flat-color"
   version="1.1"
   sodipodi:docname="ceramic-light-off.svg"
   inkscape:version="1.3 (0e150ed6c4, 2023-07-21)"
   xmlns:inkscape="http://www.inkscape.org/namespaces/inkscape"
   xmlns:sodipodi="http://sodipodi.sourceforge.net/DTD/sodipodi-0.dtd"
   xmlns="http://www.w3.org/2000/svg"
   xmlns:svg="http://www.w3.org/2000/svg">
  <defs
     id="defs1279" />
  <sodipodi:namedview
     id="namedview1277"
     pagecolor="#ffffff"
     bordercolor="#000000"
     borderopacity="0.25"
     inkscape:showpageshadow="2"
     inkscape:pageopacity="0.0"
     inkscape:pagecheckerboard="0"
     inkscape:deskcolor="#d1d1d1"
     showgrid="false"
     inkscape:zoom="1.05875"
     inkscape:cx="400.47226"
     inkscape:cy="386.77686"
     inkscape:window-width="1920"
     inkscape:window-height="1027"
     inkscape:window-x="-8"
     inkscape:window-y="-8"
     inkscape:window-maximized="1"
     inkscape:current-layer="cylinder" />
  <path
     id="primary"
     d="m 11.724219,20.173554 c -1.7511012,0 -3.52233,-0.696693 -3.52233,-2.247396 V 7.438312 c 0,-1.550703 1.7712288,-2.2473947 3.52233,-2.2473947 1.751101,0 3.52233,0.6966917 3.52233,2.2473947 v 10.487846 c 0,1.550703 -1.771229,2.247396 -3.52233,2.247396 z"
     style="fill:#e6e6e6;stroke-width:0.61397" />
  <path
     style="fill:#ffe680;stroke-width:0.0178722"
     d="m 11.111123,5.1818525 c -0.03529,0.00449 -0.166819,0.019021 -0.292289,0.032289 C 9.8270267,5.3189626 8.9565883,5.6668196 8.5518051,6.1201169 8.1797121,6.5368049 8.1208609,7.0896433 8.3997007,7.548964 c 0.3451268,0.5685122 1.1726975,0.9489615 2.4333913,1.1186716 0.289178,0.038927 1.521592,0.038927 1.810771,0 C 13.904556,8.4979255 14.732127,8.1174762 15.077254,7.548964 15.307648,7.1694443 15.310222,6.71443 15.084054,6.3380897 14.747207,5.7774612 13.939389,5.3900708 12.757878,5.2225702 12.518649,5.1886589 11.295256,5.1584084 11.111074,5.1818519 Z"
     id="path1397" />
  <ellipse
     style="fill:#f9f9f9;stroke-width:0.03"
     id="path2"
     cx="9.1806374"
     cy="9.6906729"
     rx="0.14167652"
     ry="0.085005909" />
  <ellipse
     style="fill:#f9f9f9;stroke-width:0.03"
     id="path3"
     cx="11.390791"
     cy="10.809917"
     rx="0.1133412"
     ry="0.099173553" />
  <ellipse
     style="fill:#f9f9f9;stroke-width:0.03"
     id="path4"
     cx="13.671783"
     cy="13.161747"
     rx="0.070838258"
     ry="0.099173553" />
  <ellipse
     style="fill:#f9f9f9;stroke-width:0.03"
     id="path5"
     cx="10.002361"
     cy="17.270367"
     rx="0.14167652"
     ry="0.12750885" />
  <ellipse
     style="fill:#f9f9f9;stroke-width:0.03"
     id="path6"
     cx="9.2939787"
     cy="13.785124"
     rx="0.14167652"
     ry="0.15584415" />
  <ellipse
     style="fill:#f9f9f9;stroke-width:0.03"
     id="path7"
     cx="13.884297"
     cy="9.88902"
     rx="0.14167652"
     ry="0.085005909" />
  <ellipse
     style="fill:#f9f9f9;stroke-width:0.03"
     id="path8"
     cx="13.515939"
     cy="16.845337"
     rx="0.14167652"
     ry="0.18417946" />
  <circle
     style="fill:#f9f9f9;stroke-width:0.03"
     id="path9"
     cx="11.376623"
     cy="13.926801"
     r="0.12750885" />
  <ellipse
     style="fill:#f9f9f9;stroke-width:0.03"
     id="path10"
     cx="12.340023"
     cy="18.913813"
     rx="0.15584415"
     ry="0.070838258" />
  <ellipse
     style="fill:#f9f9f9;stroke-width:0.03"
     id="path11"
     cx="13.841795"
     cy="14.819363"
     rx="0.099173553"
     ry="0.14167652" />
  <ellipse
     style="fill:#f9f9f9;stroke-width:0.03"
     id="path12"
     cx="12.665879"
     cy="11.702479"
     rx="0.056670602"
     ry="0.085005909" />
  <ellipse
     style="fill:#f9f9f9;stroke-width:0.03"
     id="path13"
     cx="10.356552"
     cy="15.55608"
     rx="0.12750885"
     ry="0.14167652" />
  <ellipse
     style="fill:#f9f9f9;stroke-width:0.03"
     id="path14"
     cx="14.564344"
     cy="11.008265"
     rx="0.1133412"
     ry="0.070838258" />
  <path
     style="fill:#cccccc;stroke-width:0.94451"
     d="m 365.05313,288.85105 c -14.08672,-1.20702 -35.99873,-6.2318 -48.89553,-11.21255 -31.84562,-12.29879 -46.81469,-34.14672 -39.54854,-57.7226 7.14715,-23.18976 38.907,-40.37196 84.54389,-45.73858 6.0634,-0.71302 18.77716,-0.92938 36.36364,-0.61884 22.69586,0.40076 28.71005,0.80973 37.43028,2.54527 29.81298,5.93351 50.3343,15.24611 61.70207,28.00046 20.62644,23.14235 12.11241,52.85313 -19.74288,68.89519 -14.32512,7.21403 -37.42514,13.44788 -57.40755,15.49223 -8.88325,0.90881 -45.23303,1.14879 -54.44538,0.35942 z"
     id="path15"
     transform="scale(0.03)" />
  <path
     style="fill:#cccccc;stroke-width:0.94451"
     d="m 302.45459,324.27277 c -1.61546,-1.61546 0.35585,-3.61161 3.56666,-3.61161 3.21081,0 5.18212,1.99615 3.56667,3.61161 -1.43247,1.43246 -5.70087,1.43246 -7.13333,0 z"
     id="path16"
     transform="scale(0.03)" />
  <path
     style="fill:#cccccc;stroke-width:0.94451"
     d="m 377.22648,361.81359 c -0.94041,-2.45069 0.3777,-4.47621 2.69846,-4.14666 3.02678,0.42981 3.02678,4.89749 0,5.3273 -1.27724,0.18137 -2.35711,-0.2911 -2.69846,-1.18064 z"
     id="path17"
     transform="scale(0.03)" />
  <path
     style="fill:#cccccc;stroke-width:0.94451"
     d="m 459.24325,330.88434 c -1.61545,-1.61546 0.35586,-3.61161 3.56667,-3.61161 3.21081,0 5.18212,1.99615 3.56666,3.61161 -1.43246,1.43246 -5.70086,1.43246 -7.13333,0 z"
     id="path18"
     transform="scale(0.03)" />
  <path
     style="fill:#cccccc;stroke-width:0.94451"
     d="m 483.0994,367.85837 c -0.36739,-0.59445 -0.24013,-1.50867 0.28281,-2.0316 1.34177,-1.34178 4.45722,-0.55313 4.45722,1.12831 0,1.69807 -3.80114,2.42244 -4.74003,0.90329 z"
     id="path19"
     transform="scale(0.03)" />
  <path
     style="fill:#cccccc;stroke-width:0.94451"
     d="m 420.96766,391.17763 c -0.26726,-0.69646 -0.10022,-1.86529 0.3712,-2.5974 0.73738,-1.14515 0.97687,-1.14515 1.71425,0 0.91544,1.42168 0.37371,3.86369 -0.85712,3.86369 -0.40833,0 -0.96107,-0.56983 -1.22833,-1.26629 z"
     id="path20"
     transform="scale(0.03)" />
  <path
     style="fill:#cccccc;stroke-width:0.94451"
     d="m 453.96777,440.14168 c -0.72604,-1.89202 0.24957,-4.2503 1.75832,-4.2503 1.50876,0 2.48436,2.35828 1.75833,4.2503 -0.7011,1.82703 -2.81555,1.82703 -3.51665,0 z"
     id="path21"
     transform="scale(0.03)" />
  <path
     style="fill:#cccccc;stroke-width:0.94451"
     d="m 459.1243,496.1039 c -1.03732,-2.78616 0.16069,-5.90319 2.26885,-5.90319 0.91995,0 1.9848,0.85006 2.36635,1.88902 0.91198,2.48335 -0.49718,6.13931 -2.36635,6.13931 -0.8127,0 -1.83368,-0.95631 -2.26885,-2.12514 z"
     id="path22"
     transform="scale(0.03)" />
  <path
     style="fill:#cccccc;stroke-width:0.94451"
     d="m 447.69382,565.75676 c -0.69048,-0.83197 -1.25541,-2.74246 -1.25541,-4.24554 0,-5.77522 5.30209,-7.569 7.67748,-2.59741 2.3979,5.01869 -3.08631,10.8623 -6.42207,6.84295 z"
     id="path23"
     transform="scale(0.03)" />
  <path
     style="fill:#cccccc;stroke-width:0.94451"
     d="m 407.53722,631.37445 c -1.07744,-1.74334 0.95311,-2.96379 4.38518,-2.63569 4.51919,0.43201 4.3176,3.04445 -0.26441,3.42637 -1.89979,0.15835 -3.75413,-0.19746 -4.12077,-0.79068 z"
     id="path24"
     transform="scale(0.03)" />
  <path
     style="fill:#cccccc;stroke-width:0.94451"
     d="m 330.17372,577.97268 c -0.81632,-0.81633 -1.48423,-1.84854 -1.48423,-2.29381 0,-1.4418 2.92031,-3.77804 4.72255,-3.77804 1.80224,0 4.72255,2.33624 4.72255,3.77804 0,1.44179 -2.92031,3.77804 -4.72255,3.77804 -0.96475,0 -2.42199,-0.66791 -3.23832,-1.48423 z"
     id="path25"
     transform="scale(0.03)" />
  <path
     style="fill:#cccccc;stroke-width:0.94451"
     d="m 342.00505,520.66116 c -1.16499,-3.1291 0.1919,-5.8563 3.08611,-6.20273 1.90292,-0.22777 2.69738,0.22482 3.31591,1.88902 0.44738,1.20371 0.5815,2.8261 0.29804,3.60532 -1.23072,3.38323 -5.53476,3.83829 -6.70006,0.70839 z"
     id="path26"
     transform="scale(0.03)" />
  <path
     style="fill:#cccccc;stroke-width:0.94451"
     d="m 376.45471,466.52049 c -1.75592,-1.75593 -1.77099,-1.88217 -0.50648,-4.24492 1.2723,-2.37732 5.2728,-2.37732 6.5451,0 0.53776,1.00481 0.97774,2.03702 0.97774,2.29381 0,0.98677 -3.02944,3.43534 -4.25029,3.43534 -0.70501,0 -1.94974,-0.6679 -2.76607,-1.48423 z"
     id="path27"
     transform="scale(0.03)" />
  <path
     style="fill:#cccccc;stroke-width:0.94451"
     d="m 306.40665,461.86541 c -1.43321,-2.18737 -1.43321,-2.53519 0,-4.72255 0.85094,-1.2987 2.37763,-2.36128 3.39264,-2.36128 1.01501,0 2.5417,1.06258 3.39264,2.36128 1.43322,2.18736 1.43322,2.53518 0,4.72255 -0.85094,1.2987 -2.37763,2.36127 -3.39264,2.36127 -1.01501,0 -2.5417,-1.06257 -3.39264,-2.36127 z"
     id="path28"
     transform="scale(0.03)" />
</svg>
