<?xml version="1.0" encoding="UTF-8" standalone="no"?>
<!-- Uploaded to: SVG Repo, www.svgrepo.com, Generator: SVG Repo Mixer Tools -->

<svg
   fill="#000000"
   width="313.57733"
   height="530.81464"
   viewBox="0 0 9.4073199 15.924439"
   id="cylinder"
   data-name="Flat Color"
   class="icon flat-color"
   version="1.1"
   sodipodi:docname="ceramic-light-on.svg"
   inkscape:version="1.3 (0e150ed6c4, 2023-07-21)"
   xmlns:inkscape="http://www.inkscape.org/namespaces/inkscape"
   xmlns:sodipodi="http://sodipodi.sourceforge.net/DTD/sodipodi-0.dtd"
   xmlns="http://www.w3.org/2000/svg"
   xmlns:svg="http://www.w3.org/2000/svg">
  <defs
     id="defs1279" />
  <sodipodi:namedview
     id="namedview1277"
     pagecolor="#ffffff"
     bordercolor="#000000"
     borderopacity="0.25"
     inkscape:showpageshadow="2"
     inkscape:pageopacity="0.0"
     inkscape:pagecheckerboard="0"
     inkscape:deskcolor="#d1d1d1"
     showgrid="false"
     inkscape:zoom="1.05875"
     inkscape:cx="164.34475"
     inkscape:cy="382.05431"
     inkscape:window-width="1920"
     inkscape:window-height="1027"
     inkscape:window-x="-8"
     inkscape:window-y="-8"
     inkscape:window-maximized="1"
     inkscape:current-layer="cylinder" />
  <path
     id="primary"
     d="m 4.6403937,15.498229 c -1.7511012,0 -3.52233,-0.696693 -3.52233,-2.247396 V 2.7629873 c 0,-1.550703 1.7712288,-2.24739468 3.52233,-2.24739468 1.751101,0 3.52233,0.69669168 3.52233,2.24739468 V 13.250833 c 0,1.550703 -1.771229,2.247396 -3.52233,2.247396 z"
     style="fill:#e6e6e6;stroke-width:0.61397" />
  <path
     style="fill:#ffe680;stroke-width:0.0178722"
     d="m 4.0272977,0.50652782 c -0.03529,0.00449 -0.166819,0.019021 -0.292289,0.032289 -0.9918073,0.1048211 -1.8622457,0.4526781 -2.2670289,0.90597538 -0.372093,0.416688 -0.4309442,0.9695264 -0.1521044,1.4288471 0.3451268,0.5685122 1.1726975,0.9489615 2.4333913,1.1186716 0.289178,0.038927 1.521592,0.038927 1.810771,0 1.260693,-0.1697101 2.088264,-0.5501594 2.433391,-1.1186716 0.230394,-0.3795197 0.232968,-0.834534 0.0068,-1.2108743 C 7.6633817,1.1021365 6.8555637,0.71474612 5.6740527,0.54724552 5.4348237,0.51333422 4.2114307,0.48308372 4.0272487,0.50652722 Z"
     id="path1397" />
  <ellipse
     style="fill:#f9f9f9;stroke-width:0.03"
     id="path2"
     cx="2.096812"
     cy="5.0153484"
     rx="0.14167652"
     ry="0.085005909" />
  <ellipse
     style="fill:#f9f9f9;stroke-width:0.03"
     id="path3"
     cx="4.3069658"
     cy="6.134593"
     rx="0.1133412"
     ry="0.099173553" />
  <ellipse
     style="fill:#f9f9f9;stroke-width:0.03"
     id="path4"
     cx="6.5879583"
     cy="8.4864225"
     rx="0.070838258"
     ry="0.099173553" />
  <ellipse
     style="fill:#f9f9f9;stroke-width:0.03"
     id="path5"
     cx="2.9185359"
     cy="12.595042"
     rx="0.14167652"
     ry="0.12750885" />
  <ellipse
     style="fill:#f9f9f9;stroke-width:0.03"
     id="path6"
     cx="2.2101533"
     cy="9.1097994"
     rx="0.14167652"
     ry="0.15584415" />
  <ellipse
     style="fill:#f9f9f9;stroke-width:0.03"
     id="path7"
     cx="6.8004723"
     cy="5.2136955"
     rx="0.14167652"
     ry="0.085005909" />
  <ellipse
     style="fill:#f9f9f9;stroke-width:0.03"
     id="path8"
     cx="6.4321136"
     cy="12.170012"
     rx="0.14167652"
     ry="0.18417946" />
  <circle
     style="fill:#f9f9f9;stroke-width:0.03"
     id="path9"
     cx="4.292798"
     cy="9.2514763"
     r="0.12750885" />
  <ellipse
     style="fill:#f9f9f9;stroke-width:0.03"
     id="path10"
     cx="5.2561979"
     cy="14.238488"
     rx="0.15584415"
     ry="0.070838258" />
  <ellipse
     style="fill:#f9f9f9;stroke-width:0.03"
     id="path11"
     cx="6.7579699"
     cy="10.144038"
     rx="0.099173553"
     ry="0.14167652" />
  <ellipse
     style="fill:#f9f9f9;stroke-width:0.03"
     id="path12"
     cx="5.5820541"
     cy="7.0271549"
     rx="0.056670602"
     ry="0.085005909" />
  <ellipse
     style="fill:#f9f9f9;stroke-width:0.03"
     id="path13"
     cx="3.2727268"
     cy="10.880755"
     rx="0.12750885"
     ry="0.14167652" />
  <ellipse
     style="fill:#f9f9f9;stroke-width:0.03"
     id="path14"
     cx="7.4805193"
     cy="6.3329401"
     rx="0.1133412"
     ry="0.070838258" />
  <path
     style="fill:#cccccc;stroke-width:0.0283353"
     d="M 3.8677687,3.9902068 C 3.4451667,3.9539962 2.7878067,3.8032528 2.4009027,3.6538303 1.4455341,3.2848666 0.99646198,2.6294287 1.2144465,1.9221523 1.428861,1.2264595 2.3816565,0.71099352 3.7507637,0.54999492 c 0.181902,-0.0213906 0.563314,-0.0278814 1.090909,-0.0185652 0.680875,0.0120228 0.861301,0.0242919 1.122908,0.0763581 0.894389,0.1780053 1.510029,0.45738328 1.851062,0.84001378 0.618793,0.6942705 0.363372,1.5855939 -0.592286,2.0668557 -0.429754,0.2164209 -1.122754,0.4034364 -1.722227,0.4647669 -0.266497,0.027264 -1.356991,0.034464 -1.633361,0.010783 z"
     id="path15" />
  <path
     style="fill:#cccccc;stroke-width:0.0283353"
     d="m 1.9898124,5.0528584 c -0.048464,-0.048464 0.010675,-0.1083483 0.1069998,-0.1083483 0.096324,0 0.1554636,0.059885 0.1070001,0.1083483 -0.042974,0.042974 -0.1710261,0.042974 -0.2139999,0 z"
     id="path16" />
  <path
     style="fill:#cccccc;stroke-width:0.0283353"
     d="m 4.2329687,6.179083 c -0.02821,-0.073521 0.01133,-0.1342863 0.08095,-0.1243998 0.0908,0.012894 0.0908,0.1469247 0,0.159819 -0.03832,0.00544 -0.07071,-0.00873 -0.08095,-0.035419 z"
     id="path17" />
  <path
     style="fill:#cccccc;stroke-width:0.0283353"
     d="m 6.6934727,5.2512055 c -0.04846,-0.048464 0.01067,-0.1083483 0.107,-0.1083483 0.09632,0 0.155463,0.059884 0.106999,0.1083483 -0.04297,0.042974 -0.171025,0.042974 -0.213999,0 z"
     id="path18" />
  <path
     style="fill:#cccccc;stroke-width:0.0283353"
     d="m 7.4091567,6.3604264 c -0.01102,-0.017834 -0.0072,-0.04526 0.0085,-0.060948 0.04025,-0.040253 0.133717,-0.016594 0.133717,0.033849 0,0.050942 -0.114034,0.072673 -0.142201,0.027099 z"
     id="path19" />
  <path
     style="fill:#cccccc;stroke-width:0.0283353"
     d="m 5.5452047,7.0600042 c -0.008,-0.020894 -0.003,-0.055959 0.01114,-0.077922 0.02212,-0.034355 0.02931,-0.034355 0.05143,0 0.02746,0.04265 0.01121,0.1159107 -0.02571,0.1159107 -0.01225,0 -0.02883,-0.017095 -0.03685,-0.037989 z"
     id="path20" />
  <path
     style="fill:#cccccc;stroke-width:0.0283353"
     d="m 6.5352077,8.5289257 c -0.02178,-0.056761 0.0075,-0.127509 0.05275,-0.127509 0.04526,0 0.07453,0.070748 0.05275,0.127509 -0.02103,0.054811 -0.08447,0.054811 -0.1055,0 z"
     id="path21" />
  <path
     style="fill:#cccccc;stroke-width:0.0283353"
     d="m 6.6899037,10.207792 c -0.03112,-0.08358 0.0048,-0.177095 0.06807,-0.177095 0.0276,0 0.05954,0.0255 0.07099,0.05667 0.02736,0.0745 -0.01492,0.18418 -0.07099,0.18418 -0.02438,0 -0.05501,-0.02869 -0.06807,-0.06376 z"
     id="path22" />
  <path
     style="fill:#cccccc;stroke-width:0.0283353"
     d="m 6.3469897,12.297378 c -0.02072,-0.02496 -0.03766,-0.08227 -0.03766,-0.127366 0,-0.173257 0.159063,-0.22707 0.230325,-0.07792 0.07194,0.15056 -0.09259,0.325869 -0.192662,0.205288 z"
     id="path23" />
  <path
     style="fill:#cccccc;stroke-width:0.0283353"
     d="m 5.1422917,14.265909 c -0.03232,-0.0523 0.02859,-0.08891 0.131555,-0.07907 0.135576,0.01296 0.129528,0.09133 -0.0079,0.102791 -0.05699,0.0048 -0.112624,-0.0059 -0.123623,-0.02372 z"
     id="path24" />
  <path
     style="fill:#cccccc;stroke-width:0.0283353"
     d="m 2.8213863,12.663856 c -0.02449,-0.02449 -0.044527,-0.05546 -0.044527,-0.06881 0,-0.04325 0.087609,-0.113341 0.1416764,-0.113341 0.05407,0 0.141677,0.07009 0.141677,0.113341 0,0.04325 -0.08761,0.113342 -0.141677,0.113342 -0.028942,0 -0.07266,-0.02004 -0.097149,-0.04453 z"
     id="path25" />
  <path
     style="fill:#cccccc;stroke-width:0.0283353"
     d="m 3.1763257,10.94451 c -0.03495,-0.09387 0.0058,-0.175689 0.09258,-0.186082 0.05709,-0.0068 0.08092,0.0067 0.09948,0.05667 0.01342,0.03611 0.01745,0.08478 0.0089,0.108159 -0.03692,0.101497 -0.166042,0.115149 -0.201002,0.02125 z"
     id="path26" />
  <path
     style="fill:#cccccc;stroke-width:0.0283353"
     d="m 4.2098157,9.32029 c -0.05268,-0.052678 -0.05313,-0.056465 -0.01519,-0.1273476 0.03817,-0.07132 0.158184,-0.07132 0.196353,0 0.01613,0.030144 0.02933,0.061111 0.02933,0.068814 0,0.029603 -0.09088,0.1030602 -0.127509,0.1030602 -0.02115,0 -0.05849,-0.020037 -0.08298,-0.044527 z"
     id="path27" />
  <path
     style="fill:#ffcc00;stroke-width:0.0283353"
     d="m 2.1083742,9.1806376 c -0.042996,-0.065621 -0.042996,-0.076056 0,-0.1416765 0.025528,-0.038961 0.071329,-0.070838 0.1017792,-0.070838 0.03045,0 0.076251,0.031877 0.1017792,0.070838 0.042997,0.065621 0.042997,0.076055 0,0.1416765 -0.025528,0.038961 -0.071329,0.070838 -0.1017792,0.070838 -0.03045,0 -0.076251,-0.031877 -0.1017792,-0.070838 z"
     id="path28" />
  <path
     style="fill:#ffcc00;stroke-width:0.0283353"
     d=""
     id="path29" />
  <path
     style="fill:#ffcc00;stroke-width:0.0283353"
     d="m 2.839197,12.646045 c -0.050673,-0.05067 -0.041204,-0.10157 0.022668,-0.121842 0.082255,-0.02611 0.1700117,0.0099 0.1700117,0.06972 0,0.08083 -0.1290584,0.115747 -0.19268,0.05213 z"
     id="path30" />
  <path
     style="fill:#ffcc00;stroke-width:0.0283353"
     d="m 3.1872897,10.921899 c -0.02178,-0.06862 0.02934,-0.140317 0.100043,-0.140317 0.05903,0 0.09279,0.07114 0.06913,0.145668 -0.02334,0.07354 -0.145362,0.06968 -0.169177,-0.0054 z"
     id="path31" />
  <path
     style="fill:#ffcc00;stroke-width:0.0283353"
     d="M 3.6977567,3.9622009 C 3.4141387,3.9198538 2.864325,3.7922755 2.6187249,3.7118227 1.6175811,3.3838726 1.08471,2.7836233 1.1928591,2.1056665 1.2386148,1.8188359 1.3345404,1.6460194 1.5849546,1.3992787 1.7784108,1.2086608 1.8555258,1.1560987 2.1580809,1.0086331 2.5613562,0.81207642 2.9343777,0.69543012 3.4274997,0.61167702 c 0.29845,-0.0506895 0.466103,-0.0591054 1.173454,-0.0589062 0.908267,2.7e-4 1.190033,0.02286 1.629765,0.1307451 0.435109,0.1067502 0.692472,0.1986273 1.008639,0.36007768 0.361564,0.1846314 0.638727,0.4471896 0.782152,0.7409346 0.09027,0.1848837 0.09655,0.2162274 0.09655,0.4817001 -5e-6,0.2530614 -0.0086,0.3013722 -0.07868,0.4441245 -0.235485,0.4794468 -0.678907,0.7951515 -1.441485,1.0262994 -0.679528,0.205974 -0.840071,0.2258154 -1.880067,0.2323581 -0.514286,0.00324 -0.973318,1.8e-4 -1.020071,-0.00681 z"
     id="path32" />
  <path
     style="fill:#ffcc00;stroke-width:0.0283353"
     d="m 1.9985019,5.0309128 c -0.010243,-0.016573 3.84e-4,-0.037426 0.023615,-0.046341 0.060013,-0.023029 0.1738686,-0.00288 0.1738686,0.030776 0,0.03906 -0.174465,0.05281 -0.1974836,0.015565 z"
     id="path33" />
  <path
     style="fill:#ffcc00;stroke-width:0.0283353"
     d="m 4.2502947,6.1345927 c 0,-0.037781 0.01889,-0.056671 0.05667,-0.056671 0.03778,0 0.05667,0.01889 0.05667,0.056671 0,0.037781 -0.01889,0.056671 -0.05667,0.056671 -0.03778,0 -0.05667,-0.01889 -0.05667,-0.056671 z"
     id="path34" />
  <path
     style="fill:#ffcc00;stroke-width:0.0283353"
     d="m 6.7021617,5.2292599 c -0.01024,-0.016573 3.84e-4,-0.037426 0.02362,-0.046341 0.06001,-0.023029 0.173868,-0.00288 0.173868,0.030776 0,0.03906 -0.174465,0.05281 -0.197484,0.015565 z"
     id="path35" />
  <path
     style="fill:#ffcc00;stroke-width:0.0283353"
     d=""
     id="path36" />
  <path
     style="fill:#ffcc00;stroke-width:0.0283353"
     d="m 7.4238487,6.3329398 c 0,-0.015584 0.0255,-0.028335 0.05667,-0.028335 0.03117,0 0.05667,0.012751 0.05667,0.028335 0,0.015584 -0.0255,0.028335 -0.05667,0.028335 -0.03117,0 -0.05667,-0.012751 -0.05667,-0.028335 z"
     id="path37" />
  <path
     style="fill:#ffcc00;stroke-width:0.0283353"
     d=""
     id="path38" />
  <path
     style="fill:#ffcc00;stroke-width:0.0283353"
     d="m 5.5537187,7.0271545 c 0,-0.023377 0.01275,-0.042503 0.02834,-0.042503 0.01558,0 0.02834,0.019126 0.02834,0.042503 0,0.023377 -0.01275,0.042503 -0.02834,0.042503 -0.01558,0 -0.02834,-0.019126 -0.02834,-0.042503 z"
     id="path39" />
  <path
     style="fill:#ffcc00;stroke-width:0.0283353"
     d="m 4.2262557,9.311401 c -0.02101,-0.013317 -0.03359,-0.048187 -0.02795,-0.077488 0.01445,-0.075038 0.174528,-0.075038 0.188979,0 0.01583,0.082224 -0.08045,0.1285557 -0.161032,0.077488 z"
     id="path40" />
  <path
     style="fill:#ffcc00;stroke-width:0.0283353"
     d=""
     id="path41" />
  <path
     style="fill:#ffcc00;stroke-width:0.0283353"
     d="m 6.7025657,10.190532 c -0.0214,-0.06744 0.0084,-0.145668 0.0554,-0.145668 0.04705,0 0.07681,0.07823 0.0554,0.145668 -0.02157,0.06796 -0.08924,0.06796 -0.110807,0 z"
     id="path42" />
  <path
     style="fill:#ffcc00;stroke-width:0.0283353"
     d=""
     id="path43" />
  <path
     style="fill:#ffcc00;stroke-width:0.0283353"
     d=""
     id="path44" />
  <path
     style="fill:#ffcc00;stroke-width:0.0283353"
     d="m 6.5454547,8.4864226 c 0,-0.031483 0.01889,-0.056671 0.0425,-0.056671 0.02361,0 0.0425,0.025187 0.0425,0.056671 0,0.031484 -0.01889,0.056671 -0.0425,0.056671 -0.02361,0 -0.0425,-0.025187 -0.0425,-0.056671 z"
     id="path45" />
  <path
     style="fill:#ffcc00;stroke-width:0.0283353"
     d="m 6.3419517,12.24085 c -0.04239,-0.09304 0.0083,-0.212515 0.09016,-0.212515 0.08186,0 0.132552,0.119478 0.09016,0.212515 -0.04231,0.09285 -0.138017,0.09285 -0.180323,0 z"
     id="path46" />
  <path
     style="fill:#ffcc00;stroke-width:0.0283353"
     d=""
     id="path47" />
  <path
     style="fill:#ffcc00;stroke-width:0.0283353"
     d=""
     id="path48" />
  <path
     style="fill:#ffcc00;stroke-width:0.0283353"
     d="m 5.1570247,14.238489 c 0,-0.01558 0.04463,-0.02834 0.09917,-0.02834 0.05455,0 0.09917,0.01275 0.09917,0.02834 0,0.01558 -0.04463,0.02834 -0.09917,0.02834 -0.05455,0 -0.09917,-0.01275 -0.09917,-0.02834 z"
     id="path49" />
  <path
     style="fill:#ffcc00;stroke-width:0.0283353"
     d=""
     id="path50" />
  <path
     style="fill:#f2f2f2;stroke-width:0.0283353"
     d="M 3.9952777,15.45557 C 2.9230697,15.339379 2.0069277,14.944699 1.5584115,14.405752 1.4087445,14.225909 1.308333,14.048457 1.2075897,13.785761 l -0.06001,-0.156481 -0.00583,-5.5678869 -0.00583,-5.5678866 0.05828,0.1511277 c 0.2371488,0.6149586 0.8936973,1.029288 2.00173,1.2632352 0.445227,0.094004 0.84712,0.1299114 1.45106,0.129645 0.611897,-2.7e-4 1.019797,-0.035582 1.450859,-0.1256028 0.984312,-0.2055579 1.673253,-0.5913546 1.924824,-1.0778736 0.05246,-0.1014627 0.105207,-0.1845249 0.117204,-0.1845825 0.012,-6e-5 0.01828,2.4512529 0.01395,5.4473568 -0.0088,6.0649457 0.0087,5.5415997 -0.199263,5.9681497 -0.119727,0.245542 -0.520908,0.656054 -0.80348,0.822167 -0.417363,0.245353 -0.89717,0.410242 -1.498194,0.514864 -0.390828,0.06803 -1.26383,0.09625 -1.657615,0.05358 z m 1.37486,-1.171512 c 0.04582,-0.03351 0.04825,-0.04629 0.01611,-0.08501 -0.0208,-0.02506 -0.07932,-0.04557 -0.130053,-0.04557 -0.05073,0 -0.109254,0.02051 -0.130054,0.04557 -0.03213,0.03872 -0.02971,0.0515 0.01611,0.08501 0.02966,0.02169 0.08094,0.03944 0.11394,0.03944 0.033,0 0.08428,-0.01775 0.113939,-0.03944 z m -2.364733,-1.576672 c 0.08379,-0.04485 0.07372,-0.189951 -0.01603,-0.230842 -0.10813,-0.04927 -0.2125153,0.0079 -0.2125153,0.116482 0,0.122118 0.1106208,0.177471 0.2285453,0.11436 z m 3.516567,-0.385922 c 0.102207,-0.0925 0.03973,-0.349799 -0.08494,-0.349799 -0.130506,0 -0.198614,0.235583 -0.09971,0.344876 0.05819,0.0643 0.117291,0.06587 0.18464,0.0049 z m -3.176543,-1.314196 c 0.08395,-0.04493 0.07561,-0.217421 -0.01245,-0.257544 -0.104565,-0.04764 -0.187763,0.01023 -0.187763,0.13062 0,0.131339 0.08787,0.187045 0.20021,0.126924 z m 3.481843,-0.748038 c 0.04624,-0.05571 0.02619,-0.216252 -0.03151,-0.252368 -0.06846,-0.042852 -0.136968,0.02465 -0.136968,0.134978 0,0.139211 0.09527,0.205595 0.168476,0.11739 z M 4.3824977,9.3577333 c 0.03816,-0.060871 0.04188,-0.1663878 0.0073,-0.2080248 -0.04052,-0.048829 -0.144385,-0.052048 -0.190527,-0.00591 -0.04383,0.043833 -0.04383,0.171516 0,0.2153484 0.04448,0.044482 0.154965,0.043628 0.183206,-0.00142 z M 2.307303,9.2352841 c 0.094571,-0.094571 0.028514,-0.2954967 -0.09715,-0.2954967 -0.07713,0 -0.1416765,0.077455 -0.1416765,0.1700118 0,0.092557 0.064546,0.1700118 0.1416765,0.1700118 0.028942,0 0.07266,-0.020037 0.09715,-0.044527 z M 6.6446277,8.4860395 c 0,-0.0799 -0.01084,-0.09879 -0.05667,-0.09879 -0.04354,0 -0.05724,0.019701 -0.0591,0.085006 -0.0031,0.1084923 0.01066,0.1328076 0.06883,0.1216107 0.033,-0.00635 0.04694,-0.038384 0.04694,-0.1078267 z m -1.020071,-1.461246 c 0,-0.1048572 -0.08317,-0.1159023 -0.08891,-0.011807 -0.0048,0.086729 0.01283,0.1198107 0.05608,0.1053918 0.01805,-0.00602 0.03282,-0.048131 0.03282,-0.093585 z m 1.924483,-0.6240471 c 0.06356,-0.02439 0.05563,-0.1172292 -0.01185,-0.138645 -0.0826,-0.026217 -0.170011,0.00997 -0.170011,0.070386 0,0.072137 0.08683,0.1047264 0.181861,0.068259 z M 4.3908417,6.2067922 c 0.07527,-0.090697 -0.03528,-0.2300196 -0.133463,-0.1681911 -0.09811,0.061783 -0.06315,0.2093328 0.04959,0.2093328 0.02735,0 0.0651,-0.018514 0.08388,-0.041142 z m 2.524943,-0.9388014 c 0.0565,-0.068075 -0.0025,-0.1393014 -0.115312,-0.1393014 -0.11285,0 -0.17181,0.071226 -0.115313,0.1393014 0.02048,0.024683 0.07238,0.044878 0.115313,0.044878 0.04294,0 0.09483,-0.020195 0.115312,-0.044878 z m -4.70366,-0.1983471 c 0.056497,-0.068075 -0.00246,-0.1393014 -0.1153125,-0.1393014 -0.1128492,0 -0.1718097,0.071226 -0.1153125,0.1393014 0.047993,0.057828 0.1826319,0.057828 0.230625,0 z"
     id="path51" />
</svg>
