<?xml version="1.0" encoding="UTF-8" standalone="no"?>
<!-- Uploaded to: SVG Repo, www.svgrepo.com, Generator: SVG Repo Mixer Tools -->

<svg
   fill="#000000"
   width="316.41086"
   height="525.14758"
   viewBox="0 0 9.492326 15.754427"
   id="cylinder"
   data-name="Flat Color"
   class="icon flat-color"
   version="1.1"
   sodipodi:docname="ceramic-light-on.svg"
   inkscape:version="1.3 (0e150ed6c4, 2023-07-21)"
   xmlns:inkscape="http://www.inkscape.org/namespaces/inkscape"
   xmlns:sodipodi="http://sodipodi.sourceforge.net/DTD/sodipodi-0.dtd"
   xmlns="http://www.w3.org/2000/svg"
   xmlns:svg="http://www.w3.org/2000/svg">
  <defs
     id="defs1279" />
  <sodipodi:namedview
     id="namedview1277"
     pagecolor="#ffffff"
     bordercolor="#000000"
     borderopacity="0.25"
     inkscape:showpageshadow="2"
     inkscape:pageopacity="0.0"
     inkscape:pagecheckerboard="0"
     inkscape:deskcolor="#d1d1d1"
     showgrid="false"
     inkscape:zoom="1.3995495"
     inkscape:cx="152.90635"
     inkscape:cy="299.0248"
     inkscape:window-width="1920"
     inkscape:window-height="1027"
     inkscape:window-x="1912"
     inkscape:window-y="-8"
     inkscape:window-maximized="1"
     inkscape:current-layer="cylinder" />
  <path
     id="primary"
     d="m 4.7253995,15.526565 c -1.7511012,0 -3.52233,-0.696693 -3.52233,-2.247396 V 2.7913226 c 0,-1.550703 1.7712288,-2.24739472 3.52233,-2.24739472 1.751101,0 3.52233,0.69669172 3.52233,2.24739472 V 13.279169 c 0,1.550703 -1.771229,2.247396 -3.52233,2.247396 z"
     style="fill:#e6e6e6;stroke-width:0.61397" />
  <path
     style="fill:#ffe680;stroke-width:0.0178722"
     d="m 4.1123035,0.53486308 c -0.03529,0.00449 -0.166819,0.019021 -0.292289,0.032289 C 2.8282072,0.67197318 1.9577688,1.0198302 1.5529856,1.4731275 1.1808926,1.8898155 1.1220414,2.4426539 1.4008812,2.9019746 1.746008,3.4704868 2.5735787,3.8509361 3.8342725,4.0206462 c 0.289178,0.038927 1.521592,0.038927 1.810771,0 1.260693,-0.1697101 2.088264,-0.5501594 2.433391,-1.1186716 0.230394,-0.3795197 0.232968,-0.834534 0.0068,-1.2108743 C 7.7483875,1.1304718 6.9405695,0.74308138 5.7590585,0.57558078 5.5198295,0.54166948 4.2964365,0.51141898 4.1122545,0.53486248 Z"
     id="path1397" />
  <ellipse
     style="fill:#f9f9f9;stroke-width:0.03"
     id="path2"
     cx="2.1818178"
     cy="5.0436835"
     rx="0.14167652"
     ry="0.085005909" />
  <ellipse
     style="fill:#f9f9f9;stroke-width:0.03"
     id="path3"
     cx="4.3919716"
     cy="6.1629281"
     rx="0.1133412"
     ry="0.099173553" />
  <ellipse
     style="fill:#f9f9f9;stroke-width:0.03"
     id="path4"
     cx="6.6729641"
     cy="8.5147572"
     rx="0.070838258"
     ry="0.099173553" />
  <ellipse
     style="fill:#f9f9f9;stroke-width:0.03"
     id="path5"
     cx="3.0035417"
     cy="12.623377"
     rx="0.14167652"
     ry="0.12750885" />
  <ellipse
     style="fill:#f9f9f9;stroke-width:0.03"
     id="path6"
     cx="2.2951591"
     cy="9.138134"
     rx="0.14167652"
     ry="0.15584415" />
  <ellipse
     style="fill:#f9f9f9;stroke-width:0.03"
     id="path7"
     cx="6.885478"
     cy="5.2420306"
     rx="0.14167652"
     ry="0.085005909" />
  <ellipse
     style="fill:#f9f9f9;stroke-width:0.03"
     id="path8"
     cx="6.5171194"
     cy="12.198347"
     rx="0.14167652"
     ry="0.18417946" />
  <circle
     style="fill:#f9f9f9;stroke-width:0.03"
     id="path9"
     cx="4.3778038"
     cy="9.2798109"
     r="0.12750885" />
  <ellipse
     style="fill:#f9f9f9;stroke-width:0.03"
     id="path10"
     cx="5.3412037"
     cy="14.266823"
     rx="0.15584415"
     ry="0.070838258" />
  <ellipse
     style="fill:#f9f9f9;stroke-width:0.03"
     id="path11"
     cx="6.8429756"
     cy="10.172373"
     rx="0.099173553"
     ry="0.14167652" />
  <ellipse
     style="fill:#f9f9f9;stroke-width:0.03"
     id="path12"
     cx="5.6670599"
     cy="7.05549"
     rx="0.056670602"
     ry="0.085005909" />
  <ellipse
     style="fill:#f9f9f9;stroke-width:0.03"
     id="path13"
     cx="3.3577325"
     cy="10.90909"
     rx="0.12750885"
     ry="0.14167652" />
  <ellipse
     style="fill:#f9f9f9;stroke-width:0.03"
     id="path14"
     cx="7.5655251"
     cy="6.3612752"
     rx="0.1133412"
     ry="0.070838258" />
  <path
     style="fill:#cccccc;stroke-width:0.0283353"
     d="M 3.9527745,4.0185421 C 3.5301725,3.9823315 2.8728125,3.8315881 2.4859085,3.6821656 1.5305399,3.3132019 1.0814678,2.657764 1.2994523,1.9504876 1.5138668,1.2547948 2.4666623,0.73932878 3.8357695,0.57833018 c 0.181902,-0.021391 0.563314,-0.027881 1.090909,-0.018565 0.680875,0.012023 0.861301,0.024292 1.122908,0.076358 0.894389,0.1780053 1.510029,0.45738332 1.851062,0.84001382 0.618793,0.6942705 0.363372,1.5855939 -0.592286,2.0668557 -0.429754,0.2164209 -1.122754,0.4034364 -1.722227,0.4647669 -0.266497,0.027264 -1.356991,0.034464 -1.633361,0.010783 z"
     id="path15" />
  <path
     style="fill:#cccccc;stroke-width:0.0283353"
     d="m 2.0748182,5.0811937 c -0.048464,-0.048464 0.010675,-0.1083483 0.1069998,-0.1083483 0.096324,0 0.1554636,0.059885 0.1070001,0.1083483 -0.042974,0.042974 -0.1710261,0.042974 -0.2139999,0 z"
     id="path16" />
  <path
     style="fill:#cccccc;stroke-width:0.0283353"
     d="m 4.3179745,6.2074186 c -0.02821,-0.07352 0.01133,-0.134287 0.08095,-0.1244 0.0908,0.01289 0.0908,0.146925 0,0.159819 -0.03832,0.0054 -0.07071,-0.0087 -0.08095,-0.035419 z"
     id="path17" />
  <path
     style="fill:#cccccc;stroke-width:0.0283353"
     d="m 6.7784785,5.2795408 c -0.04846,-0.048464 0.01067,-0.1083483 0.107,-0.1083483 0.09632,0 0.155463,0.059884 0.106999,0.1083483 -0.04297,0.042974 -0.171025,0.042974 -0.213999,0 z"
     id="path18" />
  <path
     style="fill:#cccccc;stroke-width:0.0283353"
     d="m 7.4941625,6.3887616 c -0.01102,-0.01783 -0.0072,-0.04526 0.0085,-0.06095 0.04025,-0.04025 0.133717,-0.01659 0.133717,0.03385 0,0.05094 -0.114034,0.07267 -0.142201,0.0271 z"
     id="path19" />
  <path
     style="fill:#cccccc;stroke-width:0.0283353"
     d="m 5.6302105,7.0883396 c -0.008,-0.02089 -0.003,-0.05596 0.01114,-0.07792 0.02212,-0.03435 0.02931,-0.03435 0.05143,0 0.02746,0.04265 0.01121,0.115911 -0.02571,0.115911 -0.01225,0 -0.02883,-0.01709 -0.03685,-0.03799 z"
     id="path20" />
  <path
     style="fill:#cccccc;stroke-width:0.0283353"
     d="m 6.6202135,8.5572606 c -0.02178,-0.05676 0.0075,-0.127509 0.05275,-0.127509 0.04526,0 0.07453,0.07075 0.05275,0.127509 -0.02103,0.05481 -0.08447,0.05481 -0.1055,0 z"
     id="path21" />
  <path
     style="fill:#cccccc;stroke-width:0.0283353"
     d="m 6.7749095,10.236128 c -0.03112,-0.08359 0.0048,-0.177096 0.06807,-0.177096 0.0276,0 0.05954,0.0255 0.07099,0.05667 0.02736,0.0745 -0.01492,0.184179 -0.07099,0.184179 -0.02438,0 -0.05501,-0.02869 -0.06807,-0.06375 z"
     id="path22" />
  <path
     style="fill:#cccccc;stroke-width:0.0283353"
     d="m 6.4319955,12.325714 c -0.02072,-0.02496 -0.03766,-0.08227 -0.03766,-0.127366 0,-0.173257 0.159063,-0.22707 0.230325,-0.07792 0.07194,0.150561 -0.09259,0.325869 -0.192662,0.205289 z"
     id="path23" />
  <path
     style="fill:#cccccc;stroke-width:0.0283353"
     d="m 5.2272975,14.294244 c -0.03232,-0.0523 0.02859,-0.08891 0.131555,-0.07907 0.135576,0.01296 0.129528,0.09133 -0.0079,0.102791 -0.05699,0.0048 -0.112624,-0.0059 -0.123623,-0.02372 z"
     id="path24" />
  <path
     style="fill:#cccccc;stroke-width:0.0283353"
     d="m 2.9063921,12.692191 c -0.02449,-0.02449 -0.044527,-0.05546 -0.044527,-0.06881 0,-0.04325 0.087609,-0.113341 0.1416764,-0.113341 0.05407,0 0.141677,0.07009 0.141677,0.113341 0,0.04325 -0.08761,0.113341 -0.141677,0.113341 -0.028942,0 -0.07266,-0.02004 -0.097149,-0.04453 z"
     id="path25" />
  <path
     style="fill:#cccccc;stroke-width:0.0283353"
     d="m 3.2613315,10.972846 c -0.03495,-0.09387 0.0058,-0.175689 0.09258,-0.186082 0.05709,-0.0068 0.08092,0.0067 0.09948,0.05667 0.01342,0.03611 0.01745,0.08478 0.0089,0.10816 -0.03692,0.101497 -0.166042,0.115149 -0.201002,0.02125 z"
     id="path26" />
  <path
     style="fill:#cccccc;stroke-width:0.0283353"
     d="m 4.2948215,9.3486256 c -0.05268,-0.05268 -0.05313,-0.05647 -0.01519,-0.127348 0.03817,-0.07132 0.158184,-0.07132 0.196353,0 0.01613,0.03014 0.02933,0.06111 0.02933,0.06881 0,0.0296 -0.09088,0.103061 -0.127509,0.103061 -0.02115,0 -0.05849,-0.02004 -0.08298,-0.04453 z"
     id="path27" />
  <path
     style="fill:#cccccc;stroke-width:0.0283353"
     d="m 2.19338,9.2089726 c -0.042996,-0.06562 -0.042996,-0.07606 0,-0.141676 0.025528,-0.03896 0.071329,-0.07084 0.1017792,-0.07084 0.03045,0 0.076251,0.03188 0.1017792,0.07084 0.042997,0.06562 0.042997,0.07606 0,0.141676 -0.025528,0.03896 -0.071329,0.07084 -0.1017792,0.07084 -0.03045,0 -0.076251,-0.03188 -0.1017792,-0.07084 z"
     id="path28" />
  <path
     style="fill:#ffcc00;stroke-width:0.94451"
     d="M 119.29711,131.71645 C 106.08554,129.38933 95.921296,126.75885 84.848126,122.80114 57.129509,112.89412 40.66111,94.110414 42.314032,74.287131 c 0.719283,-8.626269 1.960419,-12.267778 6.496357,-19.0604 9.898996,-14.823863 31.391244,-26.176461 62.163021,-32.835644 11.68884,-2.529531 12.1898,-2.556152 47.70428,-2.53499 l 35.89138,0.02139 11.33412,2.671308 c 15.96838,3.763544 25.14038,6.770434 34.94687,11.456759 28.59342,13.664224 39.92047,36.625303 29.11977,59.028688 -3.88974,8.068298 -14.95742,18.446628 -25.34173,23.763308 -13.81361,7.07246 -32.01661,12.49661 -51.59702,15.37495 -15.16943,2.22991 -60.0615,1.95225 -73.73397,-0.45605 z"
     id="path29"
     transform="scale(0.03)" />
  <path
     style="fill:#ffcc00;stroke-width:0.94451"
     d="m 226.21015,174.80361 c 0,-1.48104 2.37863,-2.27775 4.95868,-1.66089 3.09807,0.74072 1.85214,3.0084 -1.65289,3.0084 -2.23329,0 -3.30579,-0.43717 -3.30579,-1.34751 z"
     id="path30"
     transform="scale(0.03)" />
  <path
     style="fill:#ffcc00;stroke-width:0.94451"
     d="m 144.20282,205.74376 c 0.40038,-2.07904 4.08526,-2.36121 4.08526,-0.31283 0,0.77922 -0.99413,1.55754 -2.20918,1.7296 -1.71317,0.24259 -2.13439,-0.0755 -1.87608,-1.41677 z"
     id="path31"
     transform="scale(0.03)" />
  <path
     style="fill:#ffcc00;stroke-width:0.94451"
     d=""
     id="path32"
     transform="scale(0.03)" />
  <path
     style="fill:#ffcc00;stroke-width:0.94451"
     d="m 73.671783,306.49351 c -1.649713,-1.82292 -1.649713,-1.95513 0,-3.77804 2.156684,-2.38311 3.510376,-2.38311 5.66706,0 1.649712,1.82291 1.649712,1.95512 0,3.77804 -0.940247,1.03896 -2.215335,1.88902 -2.83353,1.88902 -0.618195,0 -1.893283,-0.85006 -2.83353,-1.88902 z"
     id="path33"
     transform="scale(0.03)" />
  <path
     style="fill:#ffcc00;stroke-width:0.94451"
     d="m 143.09327,310.7438 c -1.44366,-1.7395 0.23021,-4.25029 2.83353,-4.25029 2.60332,0 4.27719,2.51079 2.83353,4.25029 -0.6467,0.77922 -1.92178,1.41677 -2.83353,1.41677 -0.91175,0 -2.18683,-0.63755 -2.83353,-1.41677 z"
     id="path34"
     transform="scale(0.03)" />
  <path
     style="fill:#ffcc00;stroke-width:0.94451"
     d="m 109.47906,365.6468 c -1.05001,-2.73627 0.0196,-4.84397 2.45831,-4.84397 1.9796,0 2.34834,0.44494 2.34834,2.83353 0,2.22106 -0.46027,2.89889 -2.12937,3.13591 -1.24881,0.17733 -2.35594,-0.28808 -2.67728,-1.12547 z"
     id="path35"
     transform="scale(0.03)" />
  <path
     style="fill:#ffcc00;stroke-width:0.94451"
     d="m 96.812279,422.19599 c -1.55082,-1.86863 0.301592,-4.2503 3.305781,-4.2503 3.0042,0 4.85661,2.38167 3.30579,4.2503 -1.51215,1.82203 -5.099421,1.82203 -6.611571,0 z"
     id="path36"
     transform="scale(0.03)" />
  <path
     style="fill:#ffcc00;stroke-width:0.94451"
     d="m 214.31938,408.97285 c -0.86767,-3.45708 0.29695,-7.08383 2.27477,-7.08383 2.38886,0 3.94894,1.86571 3.94894,4.72255 0,4.75867 -5.1332,6.70621 -6.22371,2.36128 z"
     id="path37"
     transform="scale(0.03)" />
  <path
     style="fill:#ffcc00;stroke-width:0.94451"
     d="m 174.2621,475.5608 c 0,-0.51948 1.4876,-0.94451 3.30579,-0.94451 1.81818,0 3.30578,0.42503 3.30578,0.94451 0,0.51948 -1.4876,0.94451 -3.30578,0.94451 -1.81819,0 -3.30579,-0.42503 -3.30579,-0.94451 z"
     id="path38"
     transform="scale(0.03)" />
  <path
     style="fill:#ffcc00;stroke-width:0.94451"
     d=""
     id="path39"
     transform="scale(0.03)" />
  <path
     style="fill:#ffcc00;stroke-width:0.94451"
     d="m 226.60302,341.10184 c -0.85821,-2.23647 -0.0441,-4.85627 1.50909,-4.85627 0.92122,0 1.40383,0.94705 1.40383,2.75482 0,2.98556 -2.01565,4.43969 -2.91292,2.10145 z"
     id="path40"
     transform="scale(0.03)" />
  <path
     style="fill:#ffcc00;stroke-width:0.94451"
     d=""
     id="path41"
     transform="scale(0.03)" />
  <path
     style="fill:#ffcc00;stroke-width:0.94451"
     d=""
     id="path42"
     transform="scale(0.03)" />
  <path
     style="fill:#ffcc00;stroke-width:0.94451"
     d=""
     id="path43"
     transform="scale(0.03)" />
  <path
     style="fill:#ffcc00;stroke-width:0.94451"
     d=""
     id="path44"
     transform="scale(0.03)" />
  <path
     style="fill:#ffcc00;stroke-width:0.94451"
     d=""
     id="path45"
     transform="scale(0.03)" />
  <path
     style="fill:#ffcc00;stroke-width:0.94451"
     d=""
     id="path46"
     transform="scale(0.03)" />
  <path
     style="fill:#ffcc00;stroke-width:0.94451"
     d="m 69.421488,168.19204 c 0,-1.48104 2.37863,-2.27775 4.958677,-1.66089 3.098068,0.74072 1.852143,3.0084 -1.652892,3.0084 -2.233291,0 -3.305785,-0.43717 -3.305785,-1.34751 z"
     id="path47"
     transform="scale(0.03)" />
  <path
     style="fill:#ffcc00;stroke-width:0.94451"
     d=""
     id="path48"
     transform="scale(0.03)" />
  <path
     style="fill:#ffcc00;stroke-width:0.94451"
     d=""
     id="path49"
     transform="scale(0.03)" />
  <path
     style="fill:#ffcc00;stroke-width:0.383964"
     d="m 250.44065,213.27716 c -0.77633,-0.47043 -0.87886,-1.54437 -0.21118,-2.21204 0.95189,-0.9519 4.14681,-0.29732 4.14681,0.84961 0,1.18982 -2.68602,2.11967 -3.93563,1.36243 z"
     id="path50"
     transform="scale(0.03)" />
  <path
     style="fill:#ffcc00;stroke-width:0.383964"
     d="m 188.1478,236.58399 c -0.57315,-0.87474 -0.5732,-1.06513 -6.5e-4,-2.42547 0.59129,-1.40485 0.64797,-1.44019 1.17224,-0.73089 0.70933,0.95966 0.7097,3.06048 6.5e-4,3.64894 -0.44288,0.36756 -0.67164,0.27143 -1.17224,-0.49258 z"
     id="path51"
     transform="scale(0.03)" />
  <path
     style="fill:#ffcc00;stroke-width:0.383964"
     d="m 220.9849,285.50262 c -0.896,-1.67419 0.0315,-4.24885 1.53061,-4.24885 1.39375,0 2.19019,3.15456 1.12154,4.44221 -0.65475,0.78892 -2.1862,0.67727 -2.65215,-0.19336 z"
     id="path52"
     transform="scale(0.03)" />
</svg>
