<?xml version="1.0" encoding="UTF-8" standalone="no"?>
<!-- Uploaded to: SVG Repo, www.svgrepo.com, Generator: SVG Repo Mixer Tools -->

<svg
   fill="#000000"
   width="800px"
   height="800px"
   viewBox="0 0 24 24"
   id="cylinder"
   data-name="Flat Color"
   class="icon flat-color"
   version="1.1"
   sodipodi:docname="ceramic-light-on.svg"
   inkscape:version="1.3 (0e150ed6c4, 2023-07-21)"
   xmlns:inkscape="http://www.inkscape.org/namespaces/inkscape"
   xmlns:sodipodi="http://sodipodi.sourceforge.net/DTD/sodipodi-0.dtd"
   xmlns="http://www.w3.org/2000/svg"
   xmlns:svg="http://www.w3.org/2000/svg">
  <defs
     id="defs1279" />
  <sodipodi:namedview
     id="namedview1277"
     pagecolor="#ffffff"
     bordercolor="#000000"
     borderopacity="0.25"
     inkscape:showpageshadow="2"
     inkscape:pageopacity="0.0"
     inkscape:pagecheckerboard="0"
     inkscape:deskcolor="#d1d1d1"
     showgrid="false"
     inkscape:zoom="1.05875"
     inkscape:cx="400.47226"
     inkscape:cy="386.77686"
     inkscape:window-width="1920"
     inkscape:window-height="1027"
     inkscape:window-x="-8"
     inkscape:window-y="-8"
     inkscape:window-maximized="1"
     inkscape:current-layer="cylinder" />
  <path
     id="primary"
     d="m 11.724219,20.173554 c -1.7511012,0 -3.52233,-0.696693 -3.52233,-2.247396 V 7.438312 c 0,-1.550703 1.7712288,-2.2473947 3.52233,-2.2473947 1.751101,0 3.52233,0.6966917 3.52233,2.2473947 v 10.487846 c 0,1.550703 -1.771229,2.247396 -3.52233,2.247396 z"
     style="fill:#e6e6e6;stroke-width:0.61397" />
  <path
     style="fill:#ffe680;stroke-width:0.0178722"
     d="m 11.111123,5.1818525 c -0.03529,0.00449 -0.166819,0.019021 -0.292289,0.032289 C 9.8270267,5.3189626 8.9565883,5.6668196 8.5518051,6.1201169 8.1797121,6.5368049 8.1208609,7.0896433 8.3997007,7.548964 c 0.3451268,0.5685122 1.1726975,0.9489615 2.4333913,1.1186716 0.289178,0.038927 1.521592,0.038927 1.810771,0 C 13.904556,8.4979255 14.732127,8.1174762 15.077254,7.548964 15.307648,7.1694443 15.310222,6.71443 15.084054,6.3380897 14.747207,5.7774612 13.939389,5.3900708 12.757878,5.2225702 12.518649,5.1886589 11.295256,5.1584084 11.111074,5.1818519 Z"
     id="path1397" />
  <ellipse
     style="fill:#f9f9f9;stroke-width:0.03"
     id="path2"
     cx="9.1806374"
     cy="9.6906729"
     rx="0.14167652"
     ry="0.085005909" />
  <ellipse
     style="fill:#f9f9f9;stroke-width:0.03"
     id="path3"
     cx="11.390791"
     cy="10.809917"
     rx="0.1133412"
     ry="0.099173553" />
  <ellipse
     style="fill:#f9f9f9;stroke-width:0.03"
     id="path4"
     cx="13.671783"
     cy="13.161747"
     rx="0.070838258"
     ry="0.099173553" />
  <ellipse
     style="fill:#f9f9f9;stroke-width:0.03"
     id="path5"
     cx="10.002361"
     cy="17.270367"
     rx="0.14167652"
     ry="0.12750885" />
  <ellipse
     style="fill:#f9f9f9;stroke-width:0.03"
     id="path6"
     cx="9.2939787"
     cy="13.785124"
     rx="0.14167652"
     ry="0.15584415" />
  <ellipse
     style="fill:#f9f9f9;stroke-width:0.03"
     id="path7"
     cx="13.884297"
     cy="9.88902"
     rx="0.14167652"
     ry="0.085005909" />
  <ellipse
     style="fill:#f9f9f9;stroke-width:0.03"
     id="path8"
     cx="13.515939"
     cy="16.845337"
     rx="0.14167652"
     ry="0.18417946" />
  <circle
     style="fill:#f9f9f9;stroke-width:0.03"
     id="path9"
     cx="11.376623"
     cy="13.926801"
     r="0.12750885" />
  <ellipse
     style="fill:#f9f9f9;stroke-width:0.03"
     id="path10"
     cx="12.340023"
     cy="18.913813"
     rx="0.15584415"
     ry="0.070838258" />
  <ellipse
     style="fill:#f9f9f9;stroke-width:0.03"
     id="path11"
     cx="13.841795"
     cy="14.819363"
     rx="0.099173553"
     ry="0.14167652" />
  <ellipse
     style="fill:#f9f9f9;stroke-width:0.03"
     id="path12"
     cx="12.665879"
     cy="11.702479"
     rx="0.056670602"
     ry="0.085005909" />
  <ellipse
     style="fill:#f9f9f9;stroke-width:0.03"
     id="path13"
     cx="10.356552"
     cy="15.55608"
     rx="0.12750885"
     ry="0.14167652" />
  <ellipse
     style="fill:#f9f9f9;stroke-width:0.03"
     id="path14"
     cx="14.564344"
     cy="11.008265"
     rx="0.1133412"
     ry="0.070838258" />
  <path
     style="fill:#cccccc;stroke-width:0.94451"
     d="m 365.05313,288.85105 c -14.08672,-1.20702 -35.99873,-6.2318 -48.89553,-11.21255 -31.84562,-12.29879 -46.81469,-34.14672 -39.54854,-57.7226 7.14715,-23.18976 38.907,-40.37196 84.54389,-45.73858 6.0634,-0.71302 18.77716,-0.92938 36.36364,-0.61884 22.69586,0.40076 28.71005,0.80973 37.43028,2.54527 29.81298,5.93351 50.3343,15.24611 61.70207,28.00046 20.62644,23.14235 12.11241,52.85313 -19.74288,68.89519 -14.32512,7.21403 -37.42514,13.44788 -57.40755,15.49223 -8.88325,0.90881 -45.23303,1.14879 -54.44538,0.35942 z"
     id="path15"
     transform="scale(0.03)" />
  <path
     style="fill:#cccccc;stroke-width:0.94451"
     d="m 302.45459,324.27277 c -1.61546,-1.61546 0.35585,-3.61161 3.56666,-3.61161 3.21081,0 5.18212,1.99615 3.56667,3.61161 -1.43247,1.43246 -5.70087,1.43246 -7.13333,0 z"
     id="path16"
     transform="scale(0.03)" />
  <path
     style="fill:#cccccc;stroke-width:0.94451"
     d="m 377.22648,361.81359 c -0.94041,-2.45069 0.3777,-4.47621 2.69846,-4.14666 3.02678,0.42981 3.02678,4.89749 0,5.3273 -1.27724,0.18137 -2.35711,-0.2911 -2.69846,-1.18064 z"
     id="path17"
     transform="scale(0.03)" />
  <path
     style="fill:#cccccc;stroke-width:0.94451"
     d="m 459.24325,330.88434 c -1.61545,-1.61546 0.35586,-3.61161 3.56667,-3.61161 3.21081,0 5.18212,1.99615 3.56666,3.61161 -1.43246,1.43246 -5.70086,1.43246 -7.13333,0 z"
     id="path18"
     transform="scale(0.03)" />
  <path
     style="fill:#cccccc;stroke-width:0.94451"
     d="m 483.0994,367.85837 c -0.36739,-0.59445 -0.24013,-1.50867 0.28281,-2.0316 1.34177,-1.34178 4.45722,-0.55313 4.45722,1.12831 0,1.69807 -3.80114,2.42244 -4.74003,0.90329 z"
     id="path19"
     transform="scale(0.03)" />
  <path
     style="fill:#cccccc;stroke-width:0.94451"
     d="m 420.96766,391.17763 c -0.26726,-0.69646 -0.10022,-1.86529 0.3712,-2.5974 0.73738,-1.14515 0.97687,-1.14515 1.71425,0 0.91544,1.42168 0.37371,3.86369 -0.85712,3.86369 -0.40833,0 -0.96107,-0.56983 -1.22833,-1.26629 z"
     id="path20"
     transform="scale(0.03)" />
  <path
     style="fill:#cccccc;stroke-width:0.94451"
     d="m 453.96777,440.14168 c -0.72604,-1.89202 0.24957,-4.2503 1.75832,-4.2503 1.50876,0 2.48436,2.35828 1.75833,4.2503 -0.7011,1.82703 -2.81555,1.82703 -3.51665,0 z"
     id="path21"
     transform="scale(0.03)" />
  <path
     style="fill:#cccccc;stroke-width:0.94451"
     d="m 459.1243,496.1039 c -1.03732,-2.78616 0.16069,-5.90319 2.26885,-5.90319 0.91995,0 1.9848,0.85006 2.36635,1.88902 0.91198,2.48335 -0.49718,6.13931 -2.36635,6.13931 -0.8127,0 -1.83368,-0.95631 -2.26885,-2.12514 z"
     id="path22"
     transform="scale(0.03)" />
  <path
     style="fill:#cccccc;stroke-width:0.94451"
     d="m 447.69382,565.75676 c -0.69048,-0.83197 -1.25541,-2.74246 -1.25541,-4.24554 0,-5.77522 5.30209,-7.569 7.67748,-2.59741 2.3979,5.01869 -3.08631,10.8623 -6.42207,6.84295 z"
     id="path23"
     transform="scale(0.03)" />
  <path
     style="fill:#cccccc;stroke-width:0.94451"
     d="m 407.53722,631.37445 c -1.07744,-1.74334 0.95311,-2.96379 4.38518,-2.63569 4.51919,0.43201 4.3176,3.04445 -0.26441,3.42637 -1.89979,0.15835 -3.75413,-0.19746 -4.12077,-0.79068 z"
     id="path24"
     transform="scale(0.03)" />
  <path
     style="fill:#cccccc;stroke-width:0.94451"
     d="m 330.17372,577.97268 c -0.81632,-0.81633 -1.48423,-1.84854 -1.48423,-2.29381 0,-1.4418 2.92031,-3.77804 4.72255,-3.77804 1.80224,0 4.72255,2.33624 4.72255,3.77804 0,1.44179 -2.92031,3.77804 -4.72255,3.77804 -0.96475,0 -2.42199,-0.66791 -3.23832,-1.48423 z"
     id="path25"
     transform="scale(0.03)" />
  <path
     style="fill:#cccccc;stroke-width:0.94451"
     d="m 342.00505,520.66116 c -1.16499,-3.1291 0.1919,-5.8563 3.08611,-6.20273 1.90292,-0.22777 2.69738,0.22482 3.31591,1.88902 0.44738,1.20371 0.5815,2.8261 0.29804,3.60532 -1.23072,3.38323 -5.53476,3.83829 -6.70006,0.70839 z"
     id="path26"
     transform="scale(0.03)" />
  <path
     style="fill:#cccccc;stroke-width:0.94451"
     d="m 376.45471,466.52049 c -1.75592,-1.75593 -1.77099,-1.88217 -0.50648,-4.24492 1.2723,-2.37732 5.2728,-2.37732 6.5451,0 0.53776,1.00481 0.97774,2.03702 0.97774,2.29381 0,0.98677 -3.02944,3.43534 -4.25029,3.43534 -0.70501,0 -1.94974,-0.6679 -2.76607,-1.48423 z"
     id="path27"
     transform="scale(0.03)" />
  <path
     style="fill:#ffcc00;stroke-width:0.94451"
     d="m 306.40665,461.86541 c -1.43321,-2.18737 -1.43321,-2.53519 0,-4.72255 0.85094,-1.2987 2.37763,-2.36128 3.39264,-2.36128 1.01501,0 2.5417,1.06258 3.39264,2.36128 1.43322,2.18736 1.43322,2.53518 0,4.72255 -0.85094,1.2987 -2.37763,2.36127 -3.39264,2.36127 -1.01501,0 -2.5417,-1.06257 -3.39264,-2.36127 z"
     id="path28"
     transform="scale(0.03)" />
  <path
     style="fill:#ffcc00;stroke-width:0.94451"
     d=""
     id="path29"
     transform="scale(0.03)" />
  <path
     style="fill:#ffcc00;stroke-width:0.94451"
     d="m 330.76741,577.37898 c -1.68909,-1.68909 -1.37346,-3.38565 0.75561,-4.06139 2.74183,-0.87022 5.66706,0.32932 5.66706,2.32387 0,2.69443 -4.30195,3.85824 -6.42267,1.73752 z"
     id="path30"
     transform="scale(0.03)" />
  <path
     style="fill:#ffcc00;stroke-width:0.94451"
     d="m 342.3705,519.90745 c -0.72593,-2.28721 0.97811,-4.67723 3.33477,-4.67723 1.96754,0 3.09294,2.37129 2.30445,4.85561 -0.77804,2.45137 -4.8454,2.3227 -5.63922,-0.17838 z"
     id="path31"
     transform="scale(0.03)" />
  <path
     style="fill:#ffcc00;stroke-width:0.94451"
     d="m 359.38607,287.91752 c -9.45394,-1.41157 -27.78106,-5.66418 -35.96773,-8.34594 -33.37146,-10.93167 -51.13383,-30.93998 -47.52886,-53.53854 1.52519,-9.56102 4.72271,-15.32157 13.06985,-23.54626 6.44854,-6.35393 9.01904,-8.106 19.10421,-13.02152 13.44251,-6.55189 25.87656,-10.4401 42.31395,-13.23187 9.94835,-1.68965 15.53678,-1.97018 39.11515,-1.96354 30.27557,0.009 39.66775,0.762 54.32551,4.35817 14.50361,3.55834 23.08239,6.62091 33.6213,12.00259 12.05211,6.15438 21.2909,14.90632 26.07171,24.69782 3.00905,6.16279 3.21846,7.20758 3.21829,16.05667 -1.7e-4,8.43538 -0.28546,10.04574 -2.6226,14.80415 -7.84952,15.98156 -22.63026,26.50505 -48.04952,34.20998 -22.65092,6.8658 -28.00235,7.52718 -62.6689,7.74527 -17.14286,0.10784 -32.44392,0.006 -34.00236,-0.22698 z"
     id="path32"
     transform="scale(0.03)" />
  <path
     style="fill:#ffcc00;stroke-width:0.94451"
     d="m 302.74424,323.54125 c -0.34142,-0.55243 0.0128,-1.24754 0.78718,-1.54469 2.00044,-0.76764 5.79562,-0.0959 5.79562,1.02587 0,1.30199 -5.8155,1.76033 -6.5828,0.51882 z"
     id="path33"
     transform="scale(0.03)" />
  <path
     style="fill:#ffcc00;stroke-width:0.94451"
     d="m 377.80401,360.33058 c 0,-1.25935 0.62968,-1.88902 1.88902,-1.88902 1.25935,0 1.88902,0.62967 1.88902,1.88902 0,1.25935 -0.62967,1.88902 -1.88902,1.88902 -1.25934,0 -1.88902,-0.62967 -1.88902,-1.88902 z"
     id="path34"
     transform="scale(0.03)" />
  <path
     style="fill:#ffcc00;stroke-width:0.94451"
     d="m 459.53291,330.15282 c -0.34142,-0.55243 0.0128,-1.24754 0.78718,-1.54469 2.00044,-0.76764 5.79561,-0.0959 5.79561,1.02587 0,1.30199 -5.81549,1.76033 -6.58279,0.51882 z"
     id="path35"
     transform="scale(0.03)" />
  <path
     style="fill:#ffcc00;stroke-width:0.94451"
     d=""
     id="path36"
     transform="scale(0.03)" />
  <path
     style="fill:#ffcc00;stroke-width:0.94451"
     d="m 483.58914,366.94215 c 0,-0.51948 0.85006,-0.94451 1.88902,-0.94451 1.03896,0 1.88902,0.42503 1.88902,0.94451 0,0.51948 -0.85006,0.94451 -1.88902,0.94451 -1.03896,0 -1.88902,-0.42503 -1.88902,-0.94451 z"
     id="path37"
     transform="scale(0.03)" />
  <path
     style="fill:#ffcc00;stroke-width:0.94451"
     d=""
     id="path38"
     transform="scale(0.03)" />
  <path
     style="fill:#ffcc00;stroke-width:0.94451"
     d="m 421.25148,390.08264 c 0,-0.77922 0.42503,-1.41676 0.94451,-1.41676 0.51948,0 0.94451,0.63754 0.94451,1.41676 0,0.77923 -0.42503,1.41677 -0.94451,1.41677 -0.51948,0 -0.94451,-0.63754 -0.94451,-1.41677 z"
     id="path39"
     transform="scale(0.03)" />
  <path
     style="fill:#ffcc00;stroke-width:0.94451"
     d="m 377.0027,466.22419 c -0.70047,-0.4439 -1.11967,-1.60623 -0.93158,-2.58294 0.4817,-2.50127 5.81761,-2.50127 6.29932,0 0.52782,2.7408 -2.68165,4.28519 -5.36774,2.58294 z"
     id="path40"
     transform="scale(0.03)" />
  <path
     style="fill:#ffcc00;stroke-width:0.94451"
     d=""
     id="path41"
     transform="scale(0.03)" />
  <path
     style="fill:#ffcc00;stroke-width:0.94451"
     d="m 459.54636,495.52857 c -0.71347,-2.24795 0.27833,-4.85561 1.84679,-4.85561 1.56846,0 2.56026,2.60766 1.84679,4.85561 -0.71901,2.26541 -2.97456,2.26541 -3.69358,0 z"
     id="path42"
     transform="scale(0.03)" />
  <path
     style="fill:#ffcc00;stroke-width:0.94451"
     d=""
     id="path43"
     transform="scale(0.03)" />
  <path
     style="fill:#ffcc00;stroke-width:0.94451"
     d=""
     id="path44"
     transform="scale(0.03)" />
  <path
     style="fill:#ffcc00;stroke-width:0.94451"
     d="m 454.30933,438.72491 c 0,-1.04945 0.62967,-1.88902 1.41676,-1.88902 0.78709,0 1.41677,0.83957 1.41677,1.88902 0,1.04946 -0.62968,1.88902 -1.41677,1.88902 -0.78709,0 -1.41676,-0.83956 -1.41676,-1.88902 z"
     id="path45"
     transform="scale(0.03)" />
  <path
     style="fill:#ffcc00;stroke-width:0.94451"
     d="m 447.5259,563.87249 c -1.41303,-3.10125 0.27662,-7.08382 3.00539,-7.08382 2.72876,0 4.41841,3.98257 3.00538,7.08382 -1.4102,3.09505 -4.60057,3.09505 -6.01077,0 z"
     id="path46"
     transform="scale(0.03)" />
  <path
     style="fill:#ffcc00;stroke-width:0.94451"
     d=""
     id="path47"
     transform="scale(0.03)" />
  <path
     style="fill:#ffcc00;stroke-width:0.94451"
     d=""
     id="path48"
     transform="scale(0.03)" />
  <path
     style="fill:#ffcc00;stroke-width:0.94451"
     d="m 408.02834,630.46045 c 0,-0.51948 1.4876,-0.94451 3.30578,-0.94451 1.81818,0 3.30579,0.42503 3.30579,0.94451 0,0.51948 -1.48761,0.94451 -3.30579,0.94451 -1.81818,0 -3.30578,-0.42503 -3.30578,-0.94451 z"
     id="path49"
     transform="scale(0.03)" />
  <path
     style="fill:#ffcc00;stroke-width:0.94451"
     d=""
     id="path50"
     transform="scale(0.03)" />
  <path
     style="fill:#f2f2f2;stroke-width:0.94451"
     d="m 369.30342,671.02981 c -35.74026,-3.87302 -66.27832,-17.02903 -81.22886,-34.99392 -4.9889,-5.99477 -8.33595,-11.90985 -11.69406,-20.66637 l -2.00033,-5.21604 -0.19433,-185.59622 -0.19433,-185.59622 1.94267,5.03759 c 7.90496,20.49862 29.78991,34.3096 66.72432,42.10784 14.84091,3.13347 28.23734,4.33038 48.36865,4.3215 20.39658,-0.009 33.99325,-1.18608 48.36198,-4.18676 32.81041,-6.85193 55.77509,-19.71182 64.16081,-35.92912 1.74884,-3.38209 3.50689,-6.15083 3.90679,-6.15275 0.3999,-0.002 0.60921,81.70843 0.46511,181.57856 -0.29167,202.16484 0.29077,184.71999 -6.64212,198.93832 -3.9909,8.18473 -17.3636,21.86848 -26.78264,27.40558 -13.91212,8.17843 -29.90568,13.67471 -49.93982,17.16213 -13.02761,2.26776 -42.12765,3.20831 -55.25384,1.78588 z m 45.82869,-39.05039 c 1.52745,-1.1169 1.60822,-1.54295 0.53713,-2.83353 -0.69335,-0.83543 -2.64415,-1.51897 -4.33512,-1.51897 -1.69097,0 -3.64177,0.68354 -4.33512,1.51897 -1.07109,1.29058 -0.99032,1.71663 0.53713,2.83353 0.98877,0.72301 2.69786,1.31456 3.79799,1.31456 1.10013,0 2.80922,-0.59155 3.79799,-1.31456 z m -78.82444,-52.55574 c 2.79307,-1.49481 2.45718,-6.33168 -0.53435,-7.69471 -3.60432,-1.64224 -7.08383,0.26492 -7.08383,3.88271 0,4.07062 3.68736,5.91571 7.61818,3.812 z m 117.2189,-12.86405 c 3.4069,-3.08319 1.32436,-11.65998 -2.83117,-11.65998 -4.35019,0 -6.62046,7.85278 -3.32351,11.49587 1.93963,2.14328 3.9097,2.1958 6.15468,0.16411 z M 347.64179,522.75308 c 2.7983,-1.49762 2.52043,-7.24737 -0.41488,-8.58479 -3.48552,-1.58811 -6.25879,0.34116 -6.25879,4.35401 0,4.37794 2.92907,6.23482 6.67367,4.23078 z m 116.06144,-24.9346 c 1.54123,-1.85707 0.87313,-7.2084 -1.05027,-8.41226 -2.28216,-1.42841 -4.56559,0.82185 -4.56559,4.49927 0,4.64037 3.17574,6.85315 5.61586,3.91299 z M 382.21078,467.7686 c 1.2721,-2.02902 1.39588,-5.54626 0.24403,-6.93416 -1.35081,-1.62763 -4.81285,-1.73495 -6.35091,-0.1969 -1.46109,1.46109 -1.46109,5.7172 0,7.17828 1.48274,1.48274 5.16551,1.45426 6.10688,-0.0472 z m -69.17317,-4.08164 c 3.15238,-3.15238 0.95045,-9.84989 -3.23832,-9.84989 -2.57101,0 -4.72255,2.58185 -4.72255,5.66706 0,3.08522 2.15154,5.66706 4.72255,5.66706 0.96475,0 2.422,-0.6679 3.23832,-1.48423 z m 144.5775,-24.97482 c 0,-2.66334 -0.36121,-3.29301 -1.88902,-3.29301 -1.45121,0 -1.90781,0.6567 -1.97013,2.83353 -0.10353,3.61641 0.35521,4.42692 2.29433,4.05369 1.09994,-0.21172 1.56482,-1.27948 1.56482,-3.59421 z m -34.00236,-48.7082 c 0,-3.49524 -2.77249,-3.86341 -2.96356,-0.39355 -0.1592,2.89098 0.4276,3.99369 1.86948,3.51306 0.60175,-0.20058 1.09408,-1.60437 1.09408,-3.11951 z m 64.14943,-20.80157 c 2.11869,-0.81301 1.85419,-3.90764 -0.395,-4.6215 -2.75347,-0.87391 -5.66706,0.33235 -5.66706,2.34621 0,2.40457 2.89428,3.49088 6.06206,2.27529 z m -105.27327,-6.46514 c 2.50905,-3.02322 -1.17614,-7.66732 -4.44877,-5.60637 -3.2702,2.05942 -2.10515,6.97776 1.65289,6.97776 0.91175,0 2.16989,-0.61713 2.79588,-1.37139 z m 84.16476,-31.29338 c 1.88324,-2.26917 -0.0821,-4.64338 -3.84375,-4.64338 -3.76165,0 -5.72699,2.37421 -3.84375,4.64338 0.68283,0.82277 2.41252,1.49594 3.84375,1.49594 1.43122,0 3.16091,-0.67317 3.84375,-1.49594 z M 309.865,324.83228 c 1.88324,-2.26917 -0.0821,-4.64338 -3.84375,-4.64338 -3.76164,0 -5.72699,2.37421 -3.84375,4.64338 1.59978,1.92761 6.08773,1.92761 7.6875,0 z"
     id="path51"
     transform="scale(0.03)" />
</svg>
