<?xml version="1.0" encoding="UTF-8" standalone="no"?>
<!-- Generator: Adobe Illustrator 19.0.0, SVG Export Plug-In . SVG Version: 6.00 Build 0)  -->

<svg
   version="1.1"
   id="Layer_1"
   x="0px"
   y="0px"
   viewBox="0 0 513.20898 505.35065"
   xml:space="preserve"
   sodipodi:docname="ceramic-lamp.svg"
   width="513.20898"
   height="505.35065"
   inkscape:version="1.2 (dc2aedaf03, 2022-05-15)"
   xmlns:inkscape="http://www.inkscape.org/namespaces/inkscape"
   xmlns:sodipodi="http://sodipodi.sourceforge.net/DTD/sodipodi-0.dtd"
   xmlns="http://www.w3.org/2000/svg"
   xmlns:svg="http://www.w3.org/2000/svg"><defs
   id="defs12481" /><sodipodi:namedview
   id="namedview12479"
   pagecolor="#ffffff"
   bordercolor="#000000"
   borderopacity="0.25"
   inkscape:showpageshadow="2"
   inkscape:pageopacity="0.0"
   inkscape:pagecheckerboard="0"
   inkscape:deskcolor="#d1d1d1"
   showgrid="false"
   inkscape:zoom="1.6542969"
   inkscape:cx="188.29752"
   inkscape:cy="201.89847"
   inkscape:window-width="1920"
   inkscape:window-height="1027"
   inkscape:window-x="-8"
   inkscape:window-y="-8"
   inkscape:window-maximized="1"
   inkscape:current-layer="Layer_1" />
<path
   style="fill:#bdbdbd"
   d="m 348,501.35065 c 0,-12 -10,-20 -22.8,-24 H 186.8 c -12.4,4 -22.8,12 -22.8,24 z"
   id="path12414" />
<path
   style="fill:#140500"
   d="M 348,505.35065 H 164 c -2.4,0 -4,-1.6 -4,-4 0,-12.4 9.2,-22.8 25.6,-28 0.4,0 0.8,0 1.2,0 h 138.4 c 0.4,0 0.8,0 1.2,0 16,5.2 25.6,15.2 25.6,28 0,2.4 -2,4 -4,4 z m -179.6,-8 h 174.8 c -2.4,-9.6 -13.2,-14 -18.8,-16 H 187.2 c -5.2,2 -16,6.4 -18.8,16 z"
   id="path12416" />
<polyline
   style="fill:#e0e0e0"
   points="264,348 264,484 244,484 244,348 "
   id="polyline12418"
   transform="translate(0,-6.6493506)" />
<path
   style="fill:#140500"
   d="m 264,481.35065 h -20 c -2.4,0 -4,-1.6 -4,-4 v -136 c 0,-2.4 1.6,-4 4,-4 2.4,0 4,1.6 4,4 v 132 h 12 v -132 c 0,-2.4 1.6,-4 4,-4 2.4,0 4,1.6 4,4 v 136 c 0,2.4 -1.6,4 -4,4 z"
   id="path12420" />
<rect
   x="200"
   y="14.27627"
   style="fill:#ffb540;stroke-width:1.15266"
   width="108"
   height="457.03897"
   id="rect12422" />
<g
   id="g12446"
   transform="matrix(1,0,0,1.3211334,0.60448647,9.6717824)">
	<path
   style="fill:#140500"
   d="M 308,352 H 200 c -2.4,0 -4,-1.6 -4,-4 V 4 c 0,-2.4 1.6,-4 4,-4 h 108 c 2.4,0 4,1.6 4,4 v 344 c 0,2.4 -1.6,4 -4,4 z M 204,344 H 304 V 8 H 204 Z"
   id="path12424" />
	<path
   style="fill:#140500"
   d="m 256,296 h -56 c -2.4,0 -4,-1.6 -4,-4 0,-2.4 1.6,-4 4,-4 h 56 c 2.4,0 4,1.6 4,4 0,2.4 -1.6,4 -4,4 z"
   id="path12426" />
	<path
   style="fill:#140500"
   d="m 292,296 h -16 c -2.4,0 -4,-1.6 -4,-4 0,-2.4 1.6,-4 4,-4 h 16 c 2.4,0 4,1.6 4,4 0,2.4 -1.6,4 -4,4 z"
   id="path12428" />
	<path
   style="fill:#140500"
   d="m 256,240 h -56 c -2.4,0 -4,-1.6 -4,-4 0,-2.4 1.6,-4 4,-4 h 56 c 2.4,0 4,1.6 4,4 0,2.4 -1.6,4 -4,4 z"
   id="path12430" />
	<path
   style="fill:#140500"
   d="m 292,240 h -16 c -2.4,0 -4,-1.6 -4,-4 0,-2.4 1.6,-4 4,-4 h 16 c 2.4,0 4,1.6 4,4 0,2.4 -1.6,4 -4,4 z"
   id="path12432" />
	<path
   style="fill:#140500"
   d="m 256,184 h -56 c -2.4,0 -4,-1.6 -4,-4 0,-2.4 1.6,-4 4,-4 h 56 c 2.4,0 4,1.6 4,4 0,2.4 -1.6,4 -4,4 z"
   id="path12434" />
	<path
   style="fill:#140500"
   d="m 292,184 h -16 c -2.4,0 -4,-1.6 -4,-4 0,-2.4 1.6,-4 4,-4 h 16 c 2.4,0 4,1.6 4,4 0,2.4 -1.6,4 -4,4 z"
   id="path12436" />
	<path
   style="fill:#140500"
   d="m 256,128 h -56 c -2.4,0 -4,-1.6 -4,-4 0,-2.4 1.6,-4 4,-4 h 56 c 2.4,0 4,1.6 4,4 0,2.4 -1.6,4 -4,4 z"
   id="path12438" />
	<path
   style="fill:#140500"
   d="m 292,128 h -16 c -2.4,0 -4,-1.6 -4,-4 0,-2.4 1.6,-4 4,-4 h 16 c 2.4,0 4,1.6 4,4 0,2.4 -1.6,4 -4,4 z"
   id="path12440" /><path
   style="fill:#140500;stroke-width:1.14941"
   d="m 264.30223,2.9967803 h -16 c -2.39999,0 -4,-2.11381305 -4,-5.284533 0,-3.170721 1.60001,-5.284534 4,-5.284534 h 16 c 2.4,0 4,2.113813 4,5.284534 0,3.17071995 -1.6,5.284533 -4,5.284533 z"
   id="path12440-1" />
	<path
   style="fill:#140500"
   d="m 256,68 h -56 c -2.4,0 -4,-1.6 -4,-4 0,-2.4 1.6,-4 4,-4 h 56 c 2.4,0 4,1.6 4,4 0,2.4 -1.6,4 -4,4 z"
   id="path12442" />
	<path
   style="fill:#140500"
   d="m 292,68 h -16 c -2.4,0 -4,-1.6 -4,-4 0,-2.4 1.6,-4 4,-4 h 16 c 2.4,0 4,1.6 4,4 0,2.4 -1.6,4 -4,4 z"
   id="path12444" />
</g>
<g
   id="g12448"
   transform="translate(0,-6.6493506)">
</g>
<g
   id="g12450"
   transform="translate(0,-6.6493506)">
</g>
<g
   id="g12452"
   transform="translate(0,-6.6493506)">
</g>
<g
   id="g12454"
   transform="translate(0,-6.6493506)">
</g>
<g
   id="g12456"
   transform="translate(0,-6.6493506)">
</g>
<g
   id="g12458"
   transform="translate(0,-6.6493506)">
</g>
<g
   id="g12460"
   transform="translate(0,-6.6493506)">
</g>
<g
   id="g12462"
   transform="translate(0,-6.6493506)">
</g>
<g
   id="g12464"
   transform="translate(0,-6.6493506)">
</g>
<g
   id="g12466"
   transform="translate(0,-6.6493506)">
</g>
<g
   id="g12468"
   transform="translate(0,-6.6493506)">
</g>
<g
   id="g12470"
   transform="translate(0,-6.6493506)">
</g>
<g
   id="g12472"
   transform="translate(0,-6.6493506)">
</g>
<g
   id="g12474"
   transform="translate(0,-6.6493506)">
</g>
<g
   id="g12476"
   transform="translate(0,-6.6493506)">
</g>
<path
   style="fill:#ececec;fill-opacity:0.92228;stroke-width:0.604486"
   d="m 204.61865,432.51004 v -31.4333 h 26.62488 26.62488 l 1.48374,-1.48374 c 1.89589,-1.89589 2.064,-6.12831 0.32856,-8.2722 l -1.15517,-1.42706 -26.95344,-0.16922 -26.95345,-0.16922 v -31.41519 -31.4152 h 27.16762 27.16761 l 0.941,-1.34348 c 1.36386,-1.94716 1.20409,-6.01735 -0.31184,-7.94454 l -1.25284,-1.59273 h -26.85577 -26.85578 v -31.4333 -31.43329 h 26.85578 26.85577 l 1.25284,-1.59274 c 1.91142,-2.42997 1.46786,-7.30962 -0.80222,-8.8254 -0.36582,-0.24426 -12.70195,-0.44827 -27.41364,-0.45336 l -26.74853,-0.009 v -31.43329 -31.4333 h 26.62488 26.62488 l 1.48374,-1.48374 c 2.09634,-2.09633 2.09634,-6.42142 0,-8.51775 l -1.48374,-1.48375 H 231.24353 204.61865 V 133.9121 100.07896 l 26.95345,-0.169221 26.95344,-0.16922 1.15517,-1.42706 c 1.73544,-2.14389 1.56733,-6.376309 -0.32856,-8.272196 l -1.48374,-1.483742 H 231.24353 204.61865 V 54.403778 20.250295 h 49.87013 49.87013 V 242.09681 463.94333 h -49.87013 -49.87013 z m 90.63925,-32.60855 c 1.61403,-1.61404 2.15849,-4.96236 1.14919,-7.06733 -1.39517,-2.90975 -2.94256,-3.28718 -12.73194,-3.10551 -10.29498,0.19105 -10.74637,0.40098 -11.20875,5.213 -0.25455,2.64921 -0.0982,3.21465 1.26589,4.57878 1.53862,1.53861 1.66323,1.55631 10.95334,1.55631 8.50117,0 9.50906,-0.11204 10.57227,-1.17525 z m 0.19518,-74.23443 c 2.17528,-2.4138 1.7153,-7.89049 -0.77462,-9.22306 -0.61645,-0.32991 -5.23136,-0.59984 -10.25533,-0.59984 -8.8924,0 -9.17385,0.0394 -10.61825,1.48374 -1.74519,1.74518 -1.97622,4.8778 -0.56149,7.61357 l 0.92225,1.78344 h 10.16706 c 8.91675,0 10.28429,-0.13009 11.12038,-1.05785 z m 0.27797,-74.32552 c 1.39658,-2.13181 1.32305,-6.4222 -0.13773,-8.03636 -1.00783,-1.11363 -1.85634,-1.20764 -10.82278,-1.19911 -5.35107,0.005 -10.02852,0.2091 -10.39433,0.45336 -2.27009,1.51578 -2.71365,6.39543 -0.80223,8.8254 l 1.25285,1.59274 h 9.91622 9.91621 z m -1.44477,-72.67831 c 3.42553,-1.30239 3.44559,-9.04124 0.0268,-10.34106 -0.83494,-0.31745 -5.41452,-0.57719 -10.17683,-0.57719 -10.3969,0 -11.19027,0.35934 -11.66333,5.28259 -0.26183,2.72486 -0.113,3.27394 1.25939,4.64634 1.5288,1.52879 1.71112,1.55631 10.3095,1.55631 4.81425,0 9.42427,-0.25514 10.24449,-0.56699 z m 0.57516,-79.837071 c 0.85048,-0.66898 1.72463,-2.02813 1.94255,-3.02033 0.49806,-2.26765 -0.65008,-5.85909 -2.12553,-6.648724 -0.61645,-0.329911 -5.23136,-0.599844 -10.25533,-0.599844 -8.8924,0 -9.17385,0.03935 -10.61825,1.483742 -2.43067,2.430658 -1.7643,8.233626 1.07653,9.374926 0.75288,0.30247 5.20847,0.56718 9.9013,0.588261 7.66818,0.0344 8.68903,-0.0849 10.07873,-1.178031 z"
   id="path12574" /><rect
   x="248.82274"
   y="71.285057"
   width="16.167999"
   height="393.00482"
   id="rect12988"
   inkscape:transform-center-y="22.039896"
   style="fill:#008033;stroke-width:1.8206" /></svg>
