<?xml version="1.0" encoding="UTF-8" standalone="no"?>
<!-- Uploaded to: SVG Repo, www.svgrepo.com, Generator: SVG Repo Mixer Tools -->

<svg
   fill="#000000"
   width="316.41086"
   height="525.14758"
   viewBox="0 0 9.492326 15.754427"
   id="cylinder"
   data-name="Flat Color"
   class="icon flat-color"
   version="1.1"
   sodipodi:docname="ceramic-light-off.svg"
   inkscape:version="1.3 (0e150ed6c4, 2023-07-21)"
   xmlns:inkscape="http://www.inkscape.org/namespaces/inkscape"
   xmlns:sodipodi="http://sodipodi.sourceforge.net/DTD/sodipodi-0.dtd"
   xmlns="http://www.w3.org/2000/svg"
   xmlns:svg="http://www.w3.org/2000/svg">
  <defs
     id="defs1279" />
  <sodipodi:namedview
     id="namedview1277"
     pagecolor="#ffffff"
     bordercolor="#000000"
     borderopacity="0.25"
     inkscape:showpageshadow="2"
     inkscape:pageopacity="0.0"
     inkscape:pagecheckerboard="0"
     inkscape:deskcolor="#d1d1d1"
     showgrid="false"
     inkscape:zoom="1.05875"
     inkscape:cx="153.01063"
     inkscape:cy="298.93743"
     inkscape:window-width="1920"
     inkscape:window-height="1027"
     inkscape:window-x="1912"
     inkscape:window-y="-8"
     inkscape:window-maximized="1"
     inkscape:current-layer="cylinder" />
  <path
     id="primary"
     d="m 4.7253995,15.526565 c -1.7511012,0 -3.52233,-0.696693 -3.52233,-2.247396 V 2.7913226 c 0,-1.550703 1.7712288,-2.24739472 3.52233,-2.24739472 1.751101,0 3.52233,0.69669172 3.52233,2.24739472 V 13.279169 c 0,1.550703 -1.771229,2.247396 -3.52233,2.247396 z"
     style="fill:#e6e6e6;stroke-width:0.61397" />
  <path
     style="fill:#ffe680;stroke-width:0.0178722"
     d="m 4.1123035,0.53486308 c -0.03529,0.00449 -0.166819,0.019021 -0.292289,0.032289 C 2.8282072,0.67197318 1.9577688,1.0198302 1.5529856,1.4731275 1.1808926,1.8898155 1.1220414,2.4426539 1.4008812,2.9019746 1.746008,3.4704868 2.5735787,3.8509361 3.8342725,4.0206462 c 0.289178,0.038927 1.521592,0.038927 1.810771,0 1.260693,-0.1697101 2.088264,-0.5501594 2.433391,-1.1186716 0.230394,-0.3795197 0.232968,-0.834534 0.0068,-1.2108743 C 7.7483875,1.1304718 6.9405695,0.74308138 5.7590585,0.57558078 5.5198295,0.54166948 4.2964365,0.51141898 4.1122545,0.53486248 Z"
     id="path1397" />
  <ellipse
     style="fill:#f9f9f9;stroke-width:0.03"
     id="path2"
     cx="2.1818178"
     cy="5.0436835"
     rx="0.14167652"
     ry="0.085005909" />
  <ellipse
     style="fill:#f9f9f9;stroke-width:0.03"
     id="path3"
     cx="4.3919716"
     cy="6.1629281"
     rx="0.1133412"
     ry="0.099173553" />
  <ellipse
     style="fill:#f9f9f9;stroke-width:0.03"
     id="path4"
     cx="6.6729641"
     cy="8.5147572"
     rx="0.070838258"
     ry="0.099173553" />
  <ellipse
     style="fill:#f9f9f9;stroke-width:0.03"
     id="path5"
     cx="3.0035417"
     cy="12.623377"
     rx="0.14167652"
     ry="0.12750885" />
  <ellipse
     style="fill:#f9f9f9;stroke-width:0.03"
     id="path6"
     cx="2.2951591"
     cy="9.138134"
     rx="0.14167652"
     ry="0.15584415" />
  <ellipse
     style="fill:#f9f9f9;stroke-width:0.03"
     id="path7"
     cx="6.885478"
     cy="5.2420306"
     rx="0.14167652"
     ry="0.085005909" />
  <ellipse
     style="fill:#f9f9f9;stroke-width:0.03"
     id="path8"
     cx="6.5171194"
     cy="12.198347"
     rx="0.14167652"
     ry="0.18417946" />
  <circle
     style="fill:#f9f9f9;stroke-width:0.03"
     id="path9"
     cx="4.3778038"
     cy="9.2798109"
     r="0.12750885" />
  <ellipse
     style="fill:#f9f9f9;stroke-width:0.03"
     id="path10"
     cx="5.3412037"
     cy="14.266823"
     rx="0.15584415"
     ry="0.070838258" />
  <ellipse
     style="fill:#f9f9f9;stroke-width:0.03"
     id="path11"
     cx="6.8429756"
     cy="10.172373"
     rx="0.099173553"
     ry="0.14167652" />
  <ellipse
     style="fill:#f9f9f9;stroke-width:0.03"
     id="path12"
     cx="5.6670599"
     cy="7.05549"
     rx="0.056670602"
     ry="0.085005909" />
  <ellipse
     style="fill:#f9f9f9;stroke-width:0.03"
     id="path13"
     cx="3.3577325"
     cy="10.90909"
     rx="0.12750885"
     ry="0.14167652" />
  <ellipse
     style="fill:#f9f9f9;stroke-width:0.03"
     id="path14"
     cx="7.5655251"
     cy="6.3612752"
     rx="0.1133412"
     ry="0.070838258" />
  <path
     style="fill:#cccccc;stroke-width:0.0283353"
     d="M 3.9527745,4.0185421 C 3.5301725,3.9823315 2.8728125,3.8315881 2.4859085,3.6821656 1.5305399,3.3132019 1.0814678,2.657764 1.2994523,1.9504876 1.5138668,1.2547948 2.4666623,0.73932878 3.8357695,0.57833018 c 0.181902,-0.021391 0.563314,-0.027881 1.090909,-0.018565 0.680875,0.012023 0.861301,0.024292 1.122908,0.076358 0.894389,0.1780053 1.510029,0.45738332 1.851062,0.84001382 0.618793,0.6942705 0.363372,1.5855939 -0.592286,2.0668557 -0.429754,0.2164209 -1.122754,0.4034364 -1.722227,0.4647669 -0.266497,0.027264 -1.356991,0.034464 -1.633361,0.010783 z"
     id="path15" />
  <path
     style="fill:#cccccc;stroke-width:0.0283353"
     d="m 2.0748182,5.0811937 c -0.048464,-0.048464 0.010675,-0.1083483 0.1069998,-0.1083483 0.096324,0 0.1554636,0.059885 0.1070001,0.1083483 -0.042974,0.042974 -0.1710261,0.042974 -0.2139999,0 z"
     id="path16" />
  <path
     style="fill:#cccccc;stroke-width:0.0283353"
     d="m 4.3179745,6.2074186 c -0.02821,-0.07352 0.01133,-0.134287 0.08095,-0.1244 0.0908,0.01289 0.0908,0.146925 0,0.159819 -0.03832,0.0054 -0.07071,-0.0087 -0.08095,-0.035419 z"
     id="path17" />
  <path
     style="fill:#cccccc;stroke-width:0.0283353"
     d="m 6.7784785,5.2795408 c -0.04846,-0.048464 0.01067,-0.1083483 0.107,-0.1083483 0.09632,0 0.155463,0.059884 0.106999,0.1083483 -0.04297,0.042974 -0.171025,0.042974 -0.213999,0 z"
     id="path18" />
  <path
     style="fill:#cccccc;stroke-width:0.0283353"
     d="m 7.4941625,6.3887616 c -0.01102,-0.01783 -0.0072,-0.04526 0.0085,-0.06095 0.04025,-0.04025 0.133717,-0.01659 0.133717,0.03385 0,0.05094 -0.114034,0.07267 -0.142201,0.0271 z"
     id="path19" />
  <path
     style="fill:#cccccc;stroke-width:0.0283353"
     d="m 5.6302105,7.0883396 c -0.008,-0.02089 -0.003,-0.05596 0.01114,-0.07792 0.02212,-0.03435 0.02931,-0.03435 0.05143,0 0.02746,0.04265 0.01121,0.115911 -0.02571,0.115911 -0.01225,0 -0.02883,-0.01709 -0.03685,-0.03799 z"
     id="path20" />
  <path
     style="fill:#cccccc;stroke-width:0.0283353"
     d="m 6.6202135,8.5572606 c -0.02178,-0.05676 0.0075,-0.127509 0.05275,-0.127509 0.04526,0 0.07453,0.07075 0.05275,0.127509 -0.02103,0.05481 -0.08447,0.05481 -0.1055,0 z"
     id="path21" />
  <path
     style="fill:#cccccc;stroke-width:0.0283353"
     d="m 6.7749095,10.236128 c -0.03112,-0.08359 0.0048,-0.177096 0.06807,-0.177096 0.0276,0 0.05954,0.0255 0.07099,0.05667 0.02736,0.0745 -0.01492,0.184179 -0.07099,0.184179 -0.02438,0 -0.05501,-0.02869 -0.06807,-0.06375 z"
     id="path22" />
  <path
     style="fill:#cccccc;stroke-width:0.0283353"
     d="m 6.4319955,12.325714 c -0.02072,-0.02496 -0.03766,-0.08227 -0.03766,-0.127366 0,-0.173257 0.159063,-0.22707 0.230325,-0.07792 0.07194,0.150561 -0.09259,0.325869 -0.192662,0.205289 z"
     id="path23" />
  <path
     style="fill:#cccccc;stroke-width:0.0283353"
     d="m 5.2272975,14.294244 c -0.03232,-0.0523 0.02859,-0.08891 0.131555,-0.07907 0.135576,0.01296 0.129528,0.09133 -0.0079,0.102791 -0.05699,0.0048 -0.112624,-0.0059 -0.123623,-0.02372 z"
     id="path24" />
  <path
     style="fill:#cccccc;stroke-width:0.0283353"
     d="m 2.9063921,12.692191 c -0.02449,-0.02449 -0.044527,-0.05546 -0.044527,-0.06881 0,-0.04325 0.087609,-0.113341 0.1416764,-0.113341 0.05407,0 0.141677,0.07009 0.141677,0.113341 0,0.04325 -0.08761,0.113341 -0.141677,0.113341 -0.028942,0 -0.07266,-0.02004 -0.097149,-0.04453 z"
     id="path25" />
  <path
     style="fill:#cccccc;stroke-width:0.0283353"
     d="m 3.2613315,10.972846 c -0.03495,-0.09387 0.0058,-0.175689 0.09258,-0.186082 0.05709,-0.0068 0.08092,0.0067 0.09948,0.05667 0.01342,0.03611 0.01745,0.08478 0.0089,0.10816 -0.03692,0.101497 -0.166042,0.115149 -0.201002,0.02125 z"
     id="path26" />
  <path
     style="fill:#cccccc;stroke-width:0.0283353"
     d="m 4.2948215,9.3486256 c -0.05268,-0.05268 -0.05313,-0.05647 -0.01519,-0.127348 0.03817,-0.07132 0.158184,-0.07132 0.196353,0 0.01613,0.03014 0.02933,0.06111 0.02933,0.06881 0,0.0296 -0.09088,0.103061 -0.127509,0.103061 -0.02115,0 -0.05849,-0.02004 -0.08298,-0.04453 z"
     id="path27" />
  <path
     style="fill:#cccccc;stroke-width:0.0283353"
     d="m 2.19338,9.2089726 c -0.042996,-0.06562 -0.042996,-0.07606 0,-0.141676 0.025528,-0.03896 0.071329,-0.07084 0.1017792,-0.07084 0.03045,0 0.076251,0.03188 0.1017792,0.07084 0.042997,0.06562 0.042997,0.07606 0,0.141676 -0.025528,0.03896 -0.071329,0.07084 -0.1017792,0.07084 -0.03045,0 -0.076251,-0.03188 -0.1017792,-0.07084 z"
     id="path28" />
</svg>
