<?xml version="1.0" encoding="UTF-8" standalone="no"?>
<!-- Uploaded to: SVG Repo, www.svgrepo.com, Generator: SVG Repo Mixer Tools -->

<svg
   fill="#000000"
   width="316.41086"
   height="525.14758"
   viewBox="0 0 9.492326 15.754427"
   id="cylinder"
   data-name="Flat Color"
   class="icon flat-color"
   version="1.1"
   sodipodi:docname="ceramic-light-off.svg"
   inkscape:version="1.3 (0e150ed6c4, 2023-07-21)"
   xmlns:inkscape="http://www.inkscape.org/namespaces/inkscape"
   xmlns:sodipodi="http://sodipodi.sourceforge.net/DTD/sodipodi-0.dtd"
   xmlns="http://www.w3.org/2000/svg"
   xmlns:svg="http://www.w3.org/2000/svg">
  <defs
     id="defs1279" />
  <sodipodi:namedview
     id="namedview1277"
     pagecolor="#ffffff"
     bordercolor="#000000"
     borderopacity="0.25"
     inkscape:showpageshadow="2"
     inkscape:pageopacity="0.0"
     inkscape:pagecheckerboard="0"
     inkscape:deskcolor="#d1d1d1"
     showgrid="false"
     inkscape:zoom="1.3995495"
     inkscape:cx="152.90635"
     inkscape:cy="299.0248"
     inkscape:window-width="1920"
     inkscape:window-height="1027"
     inkscape:window-x="1912"
     inkscape:window-y="-8"
     inkscape:window-maximized="1"
     inkscape:current-layer="cylinder" />
  <path
     id="primary"
     d="m 4.7253995,15.526565 c -1.7511012,0 -3.52233,-0.696693 -3.52233,-2.247396 V 2.7913226 c 0,-1.550703 1.7712288,-2.24739472 3.52233,-2.24739472 1.751101,0 3.52233,0.69669172 3.52233,2.24739472 V 13.279169 c 0,1.550703 -1.771229,2.247396 -3.52233,2.247396 z"
     style="fill:#e6e6e6;stroke-width:0.61397" />
  <path
     style="fill:#ffe680;stroke-width:0.0178722"
     d="m 4.1123035,0.53486308 c -0.03529,0.00449 -0.166819,0.019021 -0.292289,0.032289 C 2.8282072,0.67197318 1.9577688,1.0198302 1.5529856,1.4731275 1.1808926,1.8898155 1.1220414,2.4426539 1.4008812,2.9019746 1.746008,3.4704868 2.5735787,3.8509361 3.8342725,4.0206462 c 0.289178,0.038927 1.521592,0.038927 1.810771,0 1.260693,-0.1697101 2.088264,-0.5501594 2.433391,-1.1186716 0.230394,-0.3795197 0.232968,-0.834534 0.0068,-1.2108743 C 7.7483875,1.1304718 6.9405695,0.74308138 5.7590585,0.57558078 5.5198295,0.54166948 4.2964365,0.51141898 4.1122545,0.53486248 Z"
     id="path1397" />
  <ellipse
     style="fill:#f9f9f9;stroke-width:0.03"
     id="path2"
     cx="2.1818178"
     cy="5.0436835"
     rx="0.14167652"
     ry="0.085005909" />
  <ellipse
     style="fill:#f9f9f9;stroke-width:0.03"
     id="path3"
     cx="4.3919716"
     cy="6.1629281"
     rx="0.1133412"
     ry="0.099173553" />
  <ellipse
     style="fill:#f9f9f9;stroke-width:0.03"
     id="path4"
     cx="6.6729641"
     cy="8.5147572"
     rx="0.070838258"
     ry="0.099173553" />
  <ellipse
     style="fill:#f9f9f9;stroke-width:0.03"
     id="path5"
     cx="3.0035417"
     cy="12.623377"
     rx="0.14167652"
     ry="0.12750885" />
  <ellipse
     style="fill:#f9f9f9;stroke-width:0.03"
     id="path6"
     cx="2.2951591"
     cy="9.138134"
     rx="0.14167652"
     ry="0.15584415" />
  <ellipse
     style="fill:#f9f9f9;stroke-width:0.03"
     id="path7"
     cx="6.885478"
     cy="5.2420306"
     rx="0.14167652"
     ry="0.085005909" />
  <ellipse
     style="fill:#f9f9f9;stroke-width:0.03"
     id="path8"
     cx="6.5171194"
     cy="12.198347"
     rx="0.14167652"
     ry="0.18417946" />
  <circle
     style="fill:#f9f9f9;stroke-width:0.03"
     id="path9"
     cx="4.3778038"
     cy="9.2798109"
     r="0.12750885" />
  <ellipse
     style="fill:#f9f9f9;stroke-width:0.03"
     id="path10"
     cx="5.3412037"
     cy="14.266823"
     rx="0.15584415"
     ry="0.070838258" />
  <ellipse
     style="fill:#f9f9f9;stroke-width:0.03"
     id="path11"
     cx="6.8429756"
     cy="10.172373"
     rx="0.099173553"
     ry="0.14167652" />
  <ellipse
     style="fill:#f9f9f9;stroke-width:0.03"
     id="path12"
     cx="5.6670599"
     cy="7.05549"
     rx="0.056670602"
     ry="0.085005909" />
  <ellipse
     style="fill:#f9f9f9;stroke-width:0.03"
     id="path13"
     cx="3.3577325"
     cy="10.90909"
     rx="0.12750885"
     ry="0.14167652" />
  <ellipse
     style="fill:#f9f9f9;stroke-width:0.03"
     id="path14"
     cx="7.5655251"
     cy="6.3612752"
     rx="0.1133412"
     ry="0.070838258" />
  <path
     style="fill:#cccccc;stroke-width:0.0283353"
     d="M 3.9527745,4.0185421 C 3.5301725,3.9823315 2.8728125,3.8315881 2.4859085,3.6821656 1.5305399,3.3132019 1.0814678,2.657764 1.2994523,1.9504876 1.5138668,1.2547948 2.4666623,0.73932878 3.8357695,0.57833018 c 0.181902,-0.021391 0.563314,-0.027881 1.090909,-0.018565 0.680875,0.012023 0.861301,0.024292 1.122908,0.076358 0.894389,0.1780053 1.510029,0.45738332 1.851062,0.84001382 0.618793,0.6942705 0.363372,1.5855939 -0.592286,2.0668557 -0.429754,0.2164209 -1.122754,0.4034364 -1.722227,0.4647669 -0.266497,0.027264 -1.356991,0.034464 -1.633361,0.010783 z"
     id="path15" />
  <path
     style="fill:#cccccc;stroke-width:0.0283353"
     d="m 2.0748182,5.0811937 c -0.048464,-0.048464 0.010675,-0.1083483 0.1069998,-0.1083483 0.096324,0 0.1554636,0.059885 0.1070001,0.1083483 -0.042974,0.042974 -0.1710261,0.042974 -0.2139999,0 z"
     id="path16" />
  <path
     style="fill:#cccccc;stroke-width:0.0283353"
     d="m 4.3179745,6.2074186 c -0.02821,-0.07352 0.01133,-0.134287 0.08095,-0.1244 0.0908,0.01289 0.0908,0.146925 0,0.159819 -0.03832,0.0054 -0.07071,-0.0087 -0.08095,-0.035419 z"
     id="path17" />
  <path
     style="fill:#cccccc;stroke-width:0.0283353"
     d="m 6.7784785,5.2795408 c -0.04846,-0.048464 0.01067,-0.1083483 0.107,-0.1083483 0.09632,0 0.155463,0.059884 0.106999,0.1083483 -0.04297,0.042974 -0.171025,0.042974 -0.213999,0 z"
     id="path18" />
  <path
     style="fill:#cccccc;stroke-width:0.0283353"
     d="m 7.4941625,6.3887616 c -0.01102,-0.01783 -0.0072,-0.04526 0.0085,-0.06095 0.04025,-0.04025 0.133717,-0.01659 0.133717,0.03385 0,0.05094 -0.114034,0.07267 -0.142201,0.0271 z"
     id="path19" />
  <path
     style="fill:#cccccc;stroke-width:0.0283353"
     d="m 5.6302105,7.0883396 c -0.008,-0.02089 -0.003,-0.05596 0.01114,-0.07792 0.02212,-0.03435 0.02931,-0.03435 0.05143,0 0.02746,0.04265 0.01121,0.115911 -0.02571,0.115911 -0.01225,0 -0.02883,-0.01709 -0.03685,-0.03799 z"
     id="path20" />
  <path
     style="fill:#cccccc;stroke-width:0.0283353"
     d="m 6.6202135,8.5572606 c -0.02178,-0.05676 0.0075,-0.127509 0.05275,-0.127509 0.04526,0 0.07453,0.07075 0.05275,0.127509 -0.02103,0.05481 -0.08447,0.05481 -0.1055,0 z"
     id="path21" />
  <path
     style="fill:#cccccc;stroke-width:0.0283353"
     d="m 6.7749095,10.236128 c -0.03112,-0.08359 0.0048,-0.177096 0.06807,-0.177096 0.0276,0 0.05954,0.0255 0.07099,0.05667 0.02736,0.0745 -0.01492,0.184179 -0.07099,0.184179 -0.02438,0 -0.05501,-0.02869 -0.06807,-0.06375 z"
     id="path22" />
  <path
     style="fill:#cccccc;stroke-width:0.0283353"
     d="m 6.4319955,12.325714 c -0.02072,-0.02496 -0.03766,-0.08227 -0.03766,-0.127366 0,-0.173257 0.159063,-0.22707 0.230325,-0.07792 0.07194,0.150561 -0.09259,0.325869 -0.192662,0.205289 z"
     id="path23" />
  <path
     style="fill:#cccccc;stroke-width:0.0283353"
     d="m 5.2272975,14.294244 c -0.03232,-0.0523 0.02859,-0.08891 0.131555,-0.07907 0.135576,0.01296 0.129528,0.09133 -0.0079,0.102791 -0.05699,0.0048 -0.112624,-0.0059 -0.123623,-0.02372 z"
     id="path24" />
  <path
     style="fill:#cccccc;stroke-width:0.0283353"
     d="m 2.9063921,12.692191 c -0.02449,-0.02449 -0.044527,-0.05546 -0.044527,-0.06881 0,-0.04325 0.087609,-0.113341 0.1416764,-0.113341 0.05407,0 0.141677,0.07009 0.141677,0.113341 0,0.04325 -0.08761,0.113341 -0.141677,0.113341 -0.028942,0 -0.07266,-0.02004 -0.097149,-0.04453 z"
     id="path25" />
  <path
     style="fill:#cccccc;stroke-width:0.0283353"
     d="m 3.2613315,10.972846 c -0.03495,-0.09387 0.0058,-0.175689 0.09258,-0.186082 0.05709,-0.0068 0.08092,0.0067 0.09948,0.05667 0.01342,0.03611 0.01745,0.08478 0.0089,0.10816 -0.03692,0.101497 -0.166042,0.115149 -0.201002,0.02125 z"
     id="path26" />
  <path
     style="fill:#cccccc;stroke-width:0.0283353"
     d="m 4.2948215,9.3486256 c -0.05268,-0.05268 -0.05313,-0.05647 -0.01519,-0.127348 0.03817,-0.07132 0.158184,-0.07132 0.196353,0 0.01613,0.03014 0.02933,0.06111 0.02933,0.06881 0,0.0296 -0.09088,0.103061 -0.127509,0.103061 -0.02115,0 -0.05849,-0.02004 -0.08298,-0.04453 z"
     id="path27" />
  <path
     style="fill:#cccccc;stroke-width:0.0283353"
     d="m 2.19338,9.2089726 c -0.042996,-0.06562 -0.042996,-0.07606 0,-0.141676 0.025528,-0.03896 0.071329,-0.07084 0.1017792,-0.07084 0.03045,0 0.076251,0.03188 0.1017792,0.07084 0.042997,0.06562 0.042997,0.07606 0,0.141676 -0.025528,0.03896 -0.071329,0.07084 -0.1017792,0.07084 -0.03045,0 -0.076251,-0.03188 -0.1017792,-0.07084 z"
     id="path28" />
  <path
     style="fill:#ffcc00;stroke-width:0.94451"
     d="M 119.29711,131.71645 C 106.08554,129.38933 95.921296,126.75885 84.848126,122.80114 57.129509,112.89412 40.66111,94.110414 42.314032,74.287131 c 0.719283,-8.626269 1.960419,-12.267778 6.496357,-19.0604 9.898996,-14.823863 31.391244,-26.176461 62.163021,-32.835644 11.68884,-2.529531 12.1898,-2.556152 47.70428,-2.53499 l 35.89138,0.02139 11.33412,2.671308 c 15.96838,3.763544 25.14038,6.770434 34.94687,11.456759 28.59342,13.664224 39.92047,36.625303 29.11977,59.028688 -3.88974,8.068298 -14.95742,18.446628 -25.34173,23.763308 -13.81361,7.07246 -32.01661,12.49661 -51.59702,15.37495 -15.16943,2.22991 -60.0615,1.95225 -73.73397,-0.45605 z"
     id="path29"
     transform="scale(0.03)" />
  <path
     style="fill:#ffcc00;stroke-width:0.94451"
     d="m 226.21015,174.80361 c 0,-1.48104 2.37863,-2.27775 4.95868,-1.66089 3.09807,0.74072 1.85214,3.0084 -1.65289,3.0084 -2.23329,0 -3.30579,-0.43717 -3.30579,-1.34751 z"
     id="path30"
     transform="scale(0.03)" />
  <path
     style="fill:#ffcc00;stroke-width:0.94451"
     d="m 144.20282,205.74376 c 0.40038,-2.07904 4.08526,-2.36121 4.08526,-0.31283 0,0.77922 -0.99413,1.55754 -2.20918,1.7296 -1.71317,0.24259 -2.13439,-0.0755 -1.87608,-1.41677 z"
     id="path31"
     transform="scale(0.03)" />
  <path
     style="fill:#ffcc00;stroke-width:0.94451"
     d=""
     id="path32"
     transform="scale(0.03)" />
  <path
     style="fill:#ffcc00;stroke-width:0.94451"
     d="m 73.671783,306.49351 c -1.649713,-1.82292 -1.649713,-1.95513 0,-3.77804 2.156684,-2.38311 3.510376,-2.38311 5.66706,0 1.649712,1.82291 1.649712,1.95512 0,3.77804 -0.940247,1.03896 -2.215335,1.88902 -2.83353,1.88902 -0.618195,0 -1.893283,-0.85006 -2.83353,-1.88902 z"
     id="path33"
     transform="scale(0.03)" />
  <path
     style="fill:#ffcc00;stroke-width:0.94451"
     d="m 143.09327,310.7438 c -1.44366,-1.7395 0.23021,-4.25029 2.83353,-4.25029 2.60332,0 4.27719,2.51079 2.83353,4.25029 -0.6467,0.77922 -1.92178,1.41677 -2.83353,1.41677 -0.91175,0 -2.18683,-0.63755 -2.83353,-1.41677 z"
     id="path34"
     transform="scale(0.03)" />
  <path
     style="fill:#ffcc00;stroke-width:0.94451"
     d="m 109.47906,365.6468 c -1.05001,-2.73627 0.0196,-4.84397 2.45831,-4.84397 1.9796,0 2.34834,0.44494 2.34834,2.83353 0,2.22106 -0.46027,2.89889 -2.12937,3.13591 -1.24881,0.17733 -2.35594,-0.28808 -2.67728,-1.12547 z"
     id="path35"
     transform="scale(0.03)" />
  <path
     style="fill:#ffcc00;stroke-width:0.94451"
     d="m 96.812279,422.19599 c -1.55082,-1.86863 0.301592,-4.2503 3.305781,-4.2503 3.0042,0 4.85661,2.38167 3.30579,4.2503 -1.51215,1.82203 -5.099421,1.82203 -6.611571,0 z"
     id="path36"
     transform="scale(0.03)" />
  <path
     style="fill:#ffcc00;stroke-width:0.94451"
     d="m 214.31938,408.97285 c -0.86767,-3.45708 0.29695,-7.08383 2.27477,-7.08383 2.38886,0 3.94894,1.86571 3.94894,4.72255 0,4.75867 -5.1332,6.70621 -6.22371,2.36128 z"
     id="path37"
     transform="scale(0.03)" />
  <path
     style="fill:#ffcc00;stroke-width:0.94451"
     d="m 174.2621,475.5608 c 0,-0.51948 1.4876,-0.94451 3.30579,-0.94451 1.81818,0 3.30578,0.42503 3.30578,0.94451 0,0.51948 -1.4876,0.94451 -3.30578,0.94451 -1.81819,0 -3.30579,-0.42503 -3.30579,-0.94451 z"
     id="path38"
     transform="scale(0.03)" />
  <path
     style="fill:#ffcc00;stroke-width:0.94451"
     d=""
     id="path39"
     transform="scale(0.03)" />
  <path
     style="fill:#ffcc00;stroke-width:0.94451"
     d="m 226.60302,341.10184 c -0.85821,-2.23647 -0.0441,-4.85627 1.50909,-4.85627 0.92122,0 1.40383,0.94705 1.40383,2.75482 0,2.98556 -2.01565,4.43969 -2.91292,2.10145 z"
     id="path40"
     transform="scale(0.03)" />
  <path
     style="fill:#ffcc00;stroke-width:0.94451"
     d=""
     id="path41"
     transform="scale(0.03)" />
  <path
     style="fill:#ffcc00;stroke-width:0.94451"
     d=""
     id="path42"
     transform="scale(0.03)" />
  <path
     style="fill:#ffcc00;stroke-width:0.94451"
     d=""
     id="path43"
     transform="scale(0.03)" />
  <path
     style="fill:#ffcc00;stroke-width:0.94451"
     d=""
     id="path44"
     transform="scale(0.03)" />
  <path
     style="fill:#ffcc00;stroke-width:0.94451"
     d=""
     id="path45"
     transform="scale(0.03)" />
  <path
     style="fill:#ffcc00;stroke-width:0.94451"
     d=""
     id="path46"
     transform="scale(0.03)" />
  <path
     style="fill:#ffcc00;stroke-width:0.94451"
     d="m 69.421488,168.19204 c 0,-1.48104 2.37863,-2.27775 4.958677,-1.66089 3.098068,0.74072 1.852143,3.0084 -1.652892,3.0084 -2.233291,0 -3.305785,-0.43717 -3.305785,-1.34751 z"
     id="path47"
     transform="scale(0.03)" />
  <path
     style="fill:#ffcc00;stroke-width:0.94451"
     d=""
     id="path48"
     transform="scale(0.03)" />
  <path
     style="fill:#ffcc00;stroke-width:0.94451"
     d=""
     id="path49"
     transform="scale(0.03)" />
  <path
     style="fill:#ffcc00;stroke-width:0.383964"
     d="m 250.44065,213.27716 c -0.77633,-0.47043 -0.87886,-1.54437 -0.21118,-2.21204 0.95189,-0.9519 4.14681,-0.29732 4.14681,0.84961 0,1.18982 -2.68602,2.11967 -3.93563,1.36243 z"
     id="path50"
     transform="scale(0.03)" />
  <path
     style="fill:#ffcc00;stroke-width:0.383964"
     d="m 188.1478,236.58399 c -0.57315,-0.87474 -0.5732,-1.06513 -6.5e-4,-2.42547 0.59129,-1.40485 0.64797,-1.44019 1.17224,-0.73089 0.70933,0.95966 0.7097,3.06048 6.5e-4,3.64894 -0.44288,0.36756 -0.67164,0.27143 -1.17224,-0.49258 z"
     id="path51"
     transform="scale(0.03)" />
  <path
     style="fill:#ffcc00;stroke-width:0.383964"
     d="m 220.9849,285.50262 c -0.896,-1.67419 0.0315,-4.24885 1.53061,-4.24885 1.39375,0 2.19019,3.15456 1.12154,4.44221 -0.65475,0.78892 -2.1862,0.67727 -2.65215,-0.19336 z"
     id="path52"
     transform="scale(0.03)" />
  <circle
     style="fill:#ffcc00;stroke-width:0.03"
     id="path53"
     cx="2.5936918"
     cy="6.9665279"
     r="0.15004829" />
  <circle
     style="fill:#ffcc00;stroke-width:0.03"
     id="path54"
     cx="5.9483428"
     cy="6.1198263"
     r="0.16076602" />
  <circle
     style="fill:#ffcc00;stroke-width:0.03"
     id="path55"
     cx="4.812263"
     cy="8.1776314"
     r="0.16076602" />
  <circle
     style="fill:#ffcc00;stroke-width:0.03"
     id="path56"
     cx="4.8872867"
     cy="4.9515934"
     r="0.15004829" />
  <ellipse
     style="fill:#ffcc00;stroke-width:0.03"
     id="path57"
     cx="7.2666245"
     cy="7.5560026"
     rx="0.17148376"
     ry="0.16076602" />
  <ellipse
     style="fill:#ffcc00;stroke-width:0.03"
     id="path58"
     cx="2.0470874"
     cy="5.9804959"
     rx="0.16076602"
     ry="0.12861282" />
  <ellipse
     style="fill:#ffcc00;stroke-width:0.03"
     id="path59"
     cx="2.4329257"
     cy="8.166914"
     rx="0.13933055"
     ry="0.12861282" />
  <ellipse
     style="fill:#ffcc00;stroke-width:0.03"
     id="path60"
     cx="3.0652723"
     cy="4.5550375"
     rx="0.15004829"
     ry="0.13933055" />
  <ellipse
     style="fill:#ffcc00;stroke-width:0.03"
     id="path61"
     cx="7.7060513"
     cy="4.0298681"
     rx="0.13933055"
     ry="0.12861282" />
  <circle
     style="fill:#ffcc00;stroke-width:0.03"
     id="path62"
     cx="5.3159962"
     cy="10.353332"
     r="0.12861282" />
  <ellipse
     style="fill:#ffcc00;stroke-width:0.03"
     id="path63"
     cx="4.4264245"
     cy="12.261088"
     rx="0.096459612"
     ry="0.10717735" />
  <ellipse
     style="fill:#ffcc00;stroke-width:0.03"
     id="path64"
     cx="3.9226909"
     cy="7.2559061"
     rx="0.15004829"
     ry="0.13933055" />
  <path
     style="fill:#cccccc;stroke-width:0.714516"
     d="m 129.76872,132.51229 c -17.76238,-1.3729 -40.961652,-7.55977 -55.459093,-14.79002 -8.581333,-4.27974 -13.990798,-8.21836 -20.009556,-14.56892 -8.641164,-9.117533 -12.318538,-18.300103 -11.55114,-28.843723 0.546664,-7.510871 1.960921,-11.972913 5.559587,-17.54075 7.154394,-11.069238 19.316726,-19.662691 38.08985,-26.912879 7.604129,-2.936717 25.674582,-7.63905 33.513332,-8.720912 3.37343,-0.465581 19.45993,-0.77139 40.57759,-0.77139 h 34.98838 l 12.65885,3.178959 c 27.64274,6.941798 41.26918,13.454363 53.01911,25.33973 8.43423,8.531447 12.1466,16.957928 12.1466,27.570789 0,10.62522 -3.07371,17.644828 -11.62777,26.554926 -11.38056,11.85426 -25.36118,18.91433 -49.20162,24.84631 -17.4906,4.35203 -21.90242,4.80212 -49.56327,5.0565 -13.75443,0.12649 -28.66781,-0.0529 -33.14085,-0.39862 z"
     id="path65"
     transform="scale(0.03)" />
  <path
     style="fill:#cccccc;stroke-width:0.714516"
     d="m 159.8188,168.04375 c -1.93796,-2.06285 -1.98379,-4.34672 -0.12455,-6.20596 1.89681,-1.89681 4.39672,-1.80774 6.30609,0.22468 2.00308,2.13219 1.97008,4.13655 -0.10013,6.08141 -2.13219,2.00309 -4.13655,1.97009 -6.08141,-0.10013 z"
     id="path66"
     transform="scale(0.03)" />
  <path
     style="fill:#cccccc;stroke-width:0.714516"
     d="m 254.1285,137.11791 c -2.22156,-1.55604 -1.83663,-4.5273 0.77496,-5.98175 1.76457,-0.98274 2.16525,-0.98274 3.92983,0 2.61158,1.45445 2.99652,4.42571 0.77495,5.98175 -0.89584,0.62748 -2.12878,1.14087 -2.73987,1.14087 -0.61108,0 -1.84402,-0.51339 -2.73987,-1.14087 z"
     id="path67"
     transform="scale(0.03)" />
  <path
     style="fill:#cccccc;stroke-width:0.714516"
     d="m 98.960416,154.69264 c -0.785967,-0.78597 -1.429031,-2.0721 -1.429031,-2.85807 0,-1.98051 2.498795,-4.28709 4.644355,-4.28709 2.14555,0 4.64435,2.30658 4.64435,4.28709 0,1.98052 -2.4988,4.2871 -4.64435,4.2871 -0.98246,0 -2.429356,-0.64307 -3.215324,-1.42903 z"
     id="path68"
     transform="scale(0.03)" />
  <path
     style="fill:#cccccc;stroke-width:0.714516"
     d="m 64.663666,201.85067 c -0.785968,-0.78597 -1.429032,-1.91133 -1.429032,-2.50081 0,-1.79053 2.722747,-3.92983 5.00161,-3.92983 2.278862,0 5.001609,2.1393 5.001609,3.92983 0,1.79054 -2.722747,3.92984 -5.001609,3.92984 -1.19086,0 -2.778672,-0.63513 -3.572578,-1.42903 z"
     id="path69"
     transform="scale(0.03)" />
  <path
     style="fill:#cccccc;stroke-width:0.714516"
     d="m 70.043625,168.30256 c -0.257909,-0.4173 0.0066,-0.94121 0.587779,-1.16423 1.550729,-0.59507 5.107254,-0.0569 5.107254,0.77285 0,0.98152 -5.113131,1.33292 -5.695033,0.39138 z"
     id="path70"
     transform="scale(0.03)" />
  <path
     style="fill:#cccccc;stroke-width:0.714516"
     d=""
     id="path71"
     transform="scale(0.03)" />
  <path
     style="fill:#cccccc;stroke-width:0.714516"
     d="m 195.03029,207.24201 c -2.22544,-2.22543 -2.22544,-4.27015 0,-6.49559 0.9646,-0.9646 2.42611,-1.75381 3.2478,-1.75381 1.92776,0 5.00161,3.07385 5.00161,5.00161 0,1.92776 -3.07385,5.00161 -5.00161,5.00161 -0.82169,0 -2.2832,-0.78922 -3.2478,-1.75382 z"
     id="path72"
     transform="scale(0.03)" />
  <path
     style="fill:#cccccc;stroke-width:0.714516"
     d=""
     id="path73"
     transform="scale(0.03)" />
  <path
     style="fill:#cccccc;stroke-width:0.714516"
     d="m 157.16096,275.83552 c -2.22544,-2.22544 -2.22544,-4.27016 0,-6.4956 0.9646,-0.9646 2.42611,-1.75381 3.2478,-1.75381 1.92776,0 5.00161,3.07385 5.00161,5.00161 0,1.92776 -3.07385,5.00161 -5.00161,5.00161 -0.82169,0 -2.2832,-0.78922 -3.2478,-1.75381 z"
     id="path74"
     transform="scale(0.03)" />
  <path
     style="fill:#cccccc;stroke-width:0.714516"
     d="m 127.54104,244.72161 c -0.78597,-0.78597 -1.42903,-2.0721 -1.42903,-2.85807 0,-1.98051 2.4988,-4.28709 4.64435,-4.28709 2.14556,0 4.64435,2.30658 4.64435,4.28709 0,1.98052 -2.49879,4.2871 -4.64435,4.2871 -0.98246,0 -2.42935,-0.64307 -3.21532,-1.42903 z"
     id="path75"
     transform="scale(0.03)" />
  <path
     style="fill:#cccccc;stroke-width:0.714516"
     d="m 83.365622,235.20822 c -1.937952,-2.06285 -1.983788,-4.34672 -0.12455,-6.20596 1.896815,-1.89681 4.396727,-1.80774 6.306091,0.22468 2.003086,2.13219 1.970085,4.13655 -0.10013,6.08141 -2.132188,2.00309 -4.136545,1.97009 -6.081411,-0.10013 z"
     id="path76"
     transform="scale(0.03)" />
  <path
     style="fill:#cccccc;stroke-width:0.714516"
     d="m 78.357654,275.01943 c -2.221565,-1.55604 -1.83663,-4.5273 0.774953,-5.98175 1.76458,-0.98274 2.165257,-0.98274 3.929836,0 2.611584,1.45445 2.996518,4.42571 0.774954,5.98175 -0.895845,0.62748 -2.128787,1.14087 -2.739872,1.14087 -0.611084,0 -1.844026,-0.51339 -2.739871,-1.14087 z"
     id="path77"
     transform="scale(0.03)" />
  <path
     style="fill:#cccccc;stroke-width:0.714516"
     d=""
     id="path78"
     transform="scale(0.03)" />
  <path
     style="fill:#cccccc;stroke-width:0.714516"
     d="m 74.372446,306.39516 -1.883155,-1.88315 1.570605,-1.67184 c 1.936295,-2.06109 2.580054,-2.08109 4.641775,-0.1442 1.796628,1.68784 1.373579,3.53813 -1.113257,4.86905 -1.054438,0.56432 -1.726133,0.31998 -3.215968,-1.16986 z"
     id="path79"
     transform="scale(0.03)" />
  <path
     style="fill:#cccccc;stroke-width:0.714516"
     d="m 144.1178,311.02866 c -1.45677,-1.45678 -0.99122,-3.36887 0.93815,-3.85311 3.24244,-0.8138 5.34201,2.47048 2.5385,3.97087 -1.78221,0.95381 -2.42691,0.93198 -3.47665,-0.11776 z"
     id="path80"
     transform="scale(0.03)" />
  <path
     style="fill:#cccccc;stroke-width:0.714516"
     d="m 174.45256,347.73423 c -2.30741,-2.54966 -0.55318,-6.55301 2.87147,-6.55301 1.79508,0 3.80569,2.14179 3.80569,4.05398 0,3.27331 -4.46435,4.94415 -6.67716,2.49903 z"
     id="path81"
     transform="scale(0.03)" />
  <path
     style="fill:#cccccc;stroke-width:0.714516"
     d=""
     id="path82"
     transform="scale(0.03)" />
  <path
     style="fill:#cccccc;stroke-width:0.714516"
     d="m 238.61575,255.11456 c -0.9646,-0.96459 -1.75381,-2.4261 -1.75381,-3.2478 0,-2.0775 3.13297,-5.00161 5.35886,-5.00161 2.2259,0 5.35887,2.92411 5.35887,5.00161 0,2.07751 -3.13297,5.00161 -5.35887,5.00161 -1.01818,0 -2.64046,-0.78921 -3.60505,-1.75381 z"
     id="path83"
     transform="scale(0.03)" />
  <path
     style="fill:#cccccc;stroke-width:0.714516"
     d=""
     id="path84"
     transform="scale(0.03)" />
  <path
     style="fill:#cccccc;stroke-width:0.714516"
     d=""
     id="path85"
     transform="scale(0.03)" />
  <path
     style="fill:#cccccc;stroke-width:0.714516"
     d="m 228.10912,175.57682 c -1.533,-0.32859 -1.63336,-1.49016 -0.17703,-2.049 1.41158,-0.54168 4.80755,0.32654 4.32585,1.10595 -0.49581,0.80224 -2.58753,1.2777 -4.14882,0.94305 z"
     id="path86"
     transform="scale(0.03)" />
  <path
     style="fill:#cccccc;stroke-width:0.714516"
     d="m 145.2253,203.52101 c 0.49123,-0.19822 1.29506,-0.19822 1.78629,0 0.49123,0.19821 0.0893,0.36039 -0.89314,0.36039 -0.98246,0 -1.38438,-0.16218 -0.89315,-0.36039 z"
     id="path87"
     transform="scale(0.03)" />
  <path
     style="fill:#cccccc;stroke-width:0.714516"
     d="m 145.2253,203.52101 c 0.49123,-0.19822 1.29506,-0.19822 1.78629,0 0.49123,0.19821 0.0893,0.36039 -0.89314,0.36039 -0.98246,0 -1.38438,-0.16218 -0.89315,-0.36039 z"
     id="path88"
     transform="scale(0.03)" />
  <path
     style="fill:#cccccc;stroke-width:0.714516"
     d=""
     id="path89"
     transform="scale(0.03)" />
  <path
     style="fill:#cccccc;stroke-width:0.714516"
     d=""
     id="path90"
     transform="scale(0.03)" />
  <path
     style="fill:#cccccc;stroke-width:0.714516"
     d=""
     id="path91"
     transform="scale(0.03)" />
  <path
     style="fill:#cccccc;stroke-width:0.714516"
     d=""
     id="path92"
     transform="scale(0.03)" />
  <path
     style="fill:#cccccc;stroke-width:0.714516"
     d="m 144.68942,205.8329 c 0,-0.66281 0.61091,-1.12417 1.48857,-1.12417 1.74131,0 1.49518,1.66966 -0.29738,2.01731 -0.70506,0.13674 -1.19119,-0.22776 -1.19119,-0.89314 z"
     id="path93"
     transform="scale(0.03)" />
  <path
     style="fill:#cccccc;stroke-width:0.714516"
     d="m 250.43773,212.21115 c 0,-0.58948 0.62409,-1.07178 1.38687,-1.07178 1.79707,0 2.50564,1.15337 1.05139,1.71142 -1.78379,0.68451 -2.43826,0.51281 -2.43826,-0.63964 z"
     id="path94"
     transform="scale(0.03)" />
  <path
     style="fill:#cccccc;stroke-width:0.714516"
     d=""
     id="path95"
     transform="scale(0.03)" />
  <path
     style="fill:#cccccc;stroke-width:0.714516"
     d="m 221.44966,285.2186 c -0.53407,-1.39176 0.063,-3.34218 1.02309,-3.34218 1.23918,0 1.58936,2.38831 0.50864,3.46903 -0.95269,0.95269 -1.12288,0.9386 -1.53173,-0.12685 z"
     id="path96"
     transform="scale(0.03)" />
  <path
     style="fill:#cccccc;stroke-width:0.714516"
     d=""
     id="path97"
     transform="scale(0.03)" />
  <path
     style="fill:#cccccc;stroke-width:0.714516"
     d=""
     id="path98"
     transform="scale(0.03)" />
  <path
     style="fill:#cccccc;stroke-width:0.714516"
     d=""
     id="path99"
     transform="scale(0.03)" />
  <path
     style="fill:#cccccc;stroke-width:0.714516"
     d=""
     id="path100"
     transform="scale(0.03)" />
  <path
     style="fill:#cccccc;stroke-width:0.714516"
     d="m 231.20222,339.33539 c 0.0343,-0.83237 0.20359,-1.00168 0.43169,-0.43169 0.2064,0.51579 0.18101,1.13206 -0.0564,1.36949 -0.23743,0.23743 -0.40631,-0.18458 -0.37528,-0.9378 z"
     id="path101"
     transform="scale(0.03)" />
  <path
     style="fill:#cccccc;stroke-width:0.714516"
     d=""
     id="path102"
     transform="scale(0.03)" />
  <path
     style="fill:#cccccc;stroke-width:0.714516"
     d="m 227.31563,341.39997 c -0.95088,-0.95089 -0.46578,-4.50584 0.61486,-4.50584 0.70974,0 1.07177,0.70983 1.07177,2.10137 0,2.09745 -0.82191,3.26918 -1.68663,2.40447 z"
     id="path103"
     transform="scale(0.03)" />
  <path
     style="fill:#cccccc;stroke-width:0.714516"
     d=""
     id="path104"
     transform="scale(0.03)" />
  <path
     style="fill:#cccccc;stroke-width:0.714516"
     d="m 215.47029,410.18478 c -0.46512,-0.56043 -0.74563,-2.40924 -0.62337,-4.10846 0.19636,-2.72915 0.43954,-3.11472 2.08495,-3.30572 3.53733,-0.41062 4.36225,5.68607 1.06706,7.88632 -1.13305,0.75657 -1.57783,0.67352 -2.52864,-0.47214 z"
     id="path105"
     transform="scale(0.03)" />
  <path
     style="fill:#cccccc;stroke-width:0.714516"
     d="m 145.54684,411.06085 c -2.01124,-2.01123 -0.2464,-5.97916 2.42562,-5.4536 2.00063,0.39351 2.82981,2.37115 1.87386,4.46924 -0.88985,1.95301 -2.87609,2.40776 -4.29948,0.98436 z"
     id="path106"
     transform="scale(0.03)" />
  <path
     style="fill:#cccccc;stroke-width:0.714516"
     d="m 97.909114,422.38207 c -2.562246,-1.87356 0.04728,-4.61941 3.553706,-3.73935 2.16688,0.54385 2.40557,2.8962 0.40263,3.96814 -1.80588,0.96648 -2.366006,0.93409 -3.956336,-0.22879 z"
     id="path107"
     transform="scale(0.03)" />
  <path
     style="fill:#cccccc;stroke-width:0.714516"
     d="m 109.97179,365.20934 c -0.79433,-2.06997 0.0149,-3.66443 1.85969,-3.66443 1.49755,0 1.77651,0.33659 1.77651,2.14355 0,1.68021 -0.34819,2.19299 -1.61086,2.37229 -0.94472,0.13415 -1.78226,-0.21793 -2.02534,-0.85141 z"
     id="path108"
     transform="scale(0.03)" />
  <path
     style="fill:#cccccc;stroke-width:0.714516"
     d="m 175.41359,475.51016 c 0,-0.39298 0.9646,-0.71452 2.14355,-0.71452 1.17895,0 2.14354,0.32154 2.14354,0.71452 0,0.39298 -0.96459,0.71452 -2.14354,0.71452 -1.17895,0 -2.14355,-0.32154 -2.14355,-0.71452 z"
     id="path109"
     transform="scale(0.03)" />
  <path
     style="fill:#cccccc;stroke-width:0.714516"
     d=""
     id="path110"
     transform="scale(0.03)" />
  <path
     style="fill:#b3b3b3;stroke-width:0.714516"
     d=""
     id="path111"
     transform="scale(0.03)" />
  <path
     style="fill:#e6e6e6;stroke-width:0.714516"
     d="M 138.61603,516.50512 C 110.89851,513.67225 87.426,506.2843 70.624124,495.10471 56.193866,485.50315 47.330259,474.16683 42.733668,459.43356 l -2.006276,-6.43064 -0.206761,-181.84423 c -0.113719,-100.01433 -0.009,-182.941185 0.232672,-184.281902 0.43761,-2.427555 0.446098,-2.418593 2.045989,2.160014 7.679551,21.977528 33.301347,36.543388 77.953848,44.316388 8.57571,1.49283 11.42772,1.61712 37.15482,1.61914 25.80842,0.002 28.57356,-0.11891 37.44671,-1.6379 32.98019,-5.64585 53.84374,-14.33185 67.34173,-28.03599 5.11431,-5.19242 10.60583,-13.888335 10.60583,-16.7945 0,-0.536676 0.32153,-0.975774 0.71452,-0.975774 1.02654,0 0.98191,355.902624 -0.0456,363.458134 -4.43846,32.63746 -35.18543,55.84279 -84.64223,63.88115 -7.42844,1.20736 -13.10518,1.54887 -28.56293,1.71831 -10.61056,0.1163 -20.57805,0.08 -22.14999,-0.0806 z m 44.05319,-39.27695 c 1.44999,-0.89614 0.50785,-3.04078 -1.6692,-3.7997 -5.60881,-1.95525 -11.28062,2.04125 -6.0492,4.2624 1.46569,0.62231 6.4459,0.32375 7.7184,-0.4627 z m -79.56193,-52.85954 c 3.27246,-2.29212 1.0608,-8.16327 -3.0751,-8.16327 -4.55567,0 -6.546663,6.0675 -2.679434,8.16551 2.54207,1.37909 3.783104,1.37861 5.754534,-0.002 z m 117.8632,-13.70444 c 2.575,-3.92995 0.47738,-10.17817 -3.41695,-10.17817 -3.0552,0 -4.98514,2.23111 -4.98514,5.76309 0,3.50066 0.99362,5.55413 3.05676,6.31734 2.17569,0.80484 3.99603,0.15703 5.34533,-1.90226 z m -70.97324,0.84578 c 2.28543,-2.28543 0.66673,-6.73686 -2.44977,-6.73686 -1.83448,0 -3.57258,1.91192 -3.57258,3.92984 0,2.01792 1.7381,3.92983 3.57258,3.92983 0.72983,0 1.83223,-0.50526 2.44977,-1.12281 z m -35.13546,-44.42756 c 2.29392,-2.56552 1.60044,-6.60781 -1.36545,-7.95916 -1.65597,-0.75451 -2.19471,-0.68531 -3.76834,0.48403 -2.29488,1.7053 -2.82878,5.41012 -1.06114,7.36334 1.54229,1.7042 4.71983,1.76155 6.19493,0.11179 z m 65.55341,-18.75603 c 2.83003,-2.83004 0.77246,-7.85968 -3.21532,-7.85968 -2.29307,0 -4.64435,2.35128 -4.64435,4.64435 0,2.29308 2.35128,4.64436 4.64435,4.64436 0.98246,0 2.42935,-0.64307 3.21532,-1.42903 z m 49.92436,-5.24834 c 2.20893,-2.6616 1.19064,-8.38472 -1.58703,-8.91965 -2.05827,-0.39639 -4.03736,1.93455 -4.03736,4.75513 0,4.05019 3.54242,6.67314 5.62439,4.16452 z m -81.49778,-30.50528 c 1.95037,-1.81705 2.00746,-4.53008 0.13473,-6.40281 -1.92277,-1.92277 -3.98189,-1.79918 -6.15023,0.36916 -2.03643,2.03642 -1.84153,4.1503 0.57535,6.24011 1.89833,1.64144 3.52284,1.57978 5.44015,-0.20646 z m -69.035375,-4.08063 c 1.688998,-1.96658 2.00547,-3.53844 1.185814,-5.8897 -1.284935,-3.68598 -4.868879,-4.68349 -7.619636,-2.12077 -1.906573,1.77625 -2.111069,6.04278 -0.381246,7.95421 1.5134,1.67229 5.399588,1.70437 6.815068,0.0563 z M 224.00065,286.52077 c 0.48923,-0.58947 0.64999,-1.07177 0.35726,-1.07177 -0.29273,0 -0.20836,-0.40192 0.18748,-0.89315 1.02643,-1.27376 -0.22092,-4.10846 -1.80784,-4.10846 -2.88142,0 -4.09123,3.8323 -1.90118,6.02234 1.40007,1.40008 2.03617,1.41034 3.16428,0.051 z m -59.62958,-9.97074 c 3.54414,-3.54414 1.03278,-9.67844 -3.96231,-9.67844 -2.93744,0 -5.71612,2.77868 -5.71612,5.71613 0,2.93744 2.77868,5.71612 5.71612,5.71612 1.39214,0 2.85679,-0.64828 3.96231,-1.75381 z m -79.700966,-1.10425 c 2.963965,-2.96397 0.738644,-7.85967 -3.572579,-7.85967 -2.611943,0 -5.001609,2.21898 -5.001609,4.64435 0,2.42537 2.389666,4.64435 5.001609,4.64435 1.19086,0 2.778672,-0.63512 3.572579,-1.42903 z M 247.04378,255.38192 c 1.63852,-2.0048 1.58907,-5.08216 -0.1155,-7.18721 -1.0831,-1.33757 -2.05774,-1.68681 -4.70748,-1.68681 -2.64974,0 -3.62437,0.34924 -4.70748,1.68681 -2.33948,2.88914 -1.45809,7.35478 1.7175,8.70195 2.35137,0.99751 6.40146,0.21229 7.81296,-1.51474 z m -112.8112,-9.99766 c 1.2484,-0.98198 1.88265,-2.16809 1.88265,-3.52072 0,-2.35132 -2.8396,-5.0016 -5.35887,-5.0016 -2.51927,0 -5.35886,2.65028 -5.35886,5.0016 0,2.35133 2.83959,5.00161 5.35886,5.00161 0.87647,0 2.44077,-0.6664 3.47622,-1.48089 z m 56.04294,-7.95071 c 2.13801,-2.13802 -0.0941,-6.73751 -2.35791,-4.85871 -1.75625,1.45756 -0.95776,5.71613 1.07178,5.71613 0.23579,0 0.81455,-0.38584 1.28613,-0.85742 z M 90.061449,235.82264 c 0.964596,-0.9646 1.753811,-2.58687 1.753811,-3.60506 0,-2.38227 -2.976593,-5.35886 -5.358867,-5.35886 -2.382275,0 -5.358868,2.97659 -5.358868,5.35886 0,1.01819 0.789215,2.64046 1.753811,3.60506 0.964596,0.96459 2.586872,1.75381 3.605057,1.75381 1.018184,0 2.64046,-0.78922 3.605056,-1.75381 z M 254.7718,213.9723 c 1.66732,-0.89233 1.82086,-3.22617 0.25184,-3.82826 -3.01051,-1.15524 -6.72945,-0.18769 -6.72945,1.75079 0,2.37981 3.69714,3.56553 6.47761,2.07747 z m -52.5314,-6.01577 c 3.54414,-3.54414 1.03278,-9.67844 -3.96231,-9.67844 -1.39214,0 -2.85679,0.64829 -3.96231,1.75381 -1.10553,1.10552 -1.75381,2.57017 -1.75381,3.96232 0,1.39214 0.64828,2.85679 1.75381,3.96231 1.10552,1.10552 2.57017,1.75381 3.96231,1.75381 1.39214,0 2.85679,-0.64829 3.96231,-1.75381 z m -52.95767,-0.0835 c 3.28604,-3.28603 -1.06503,-7.57851 -5.3548,-5.28269 -1.77834,0.95174 -1.86416,4.62466 -0.13166,5.63376 1.84595,1.07516 4.2116,0.92379 5.48646,-0.35107 z m -77.213009,-5.35969 c 1.081619,-0.8508 1.882648,-2.19679 1.882648,-3.16346 0,-2.11461 -3.113527,-4.64435 -5.716125,-4.64435 -2.602598,0 -5.716125,2.52974 -5.716125,4.64435 0,2.11461 3.113527,4.64436 5.716125,4.64436 1.072956,0 2.798021,-0.6664 3.833477,-1.4809 z m 161.341999,-26.1387 c 1.59705,-1.4453 1.6253,-1.96936 0.18386,-3.4108 -1.27575,-1.27574 -5.43355,-1.4882 -7.49835,-0.38316 -1.55762,0.83362 -1.8121,2.8316 -0.52464,4.11906 1.26572,1.26572 6.31257,1.05642 7.83913,-0.3251 z m -157.268831,-5.9878 c 2.517956,-1.34757 0.865016,-5.7535 -1.777999,-4.73929 -0.569091,0.21838 -1.13924,0.0835 -1.266999,-0.29981 -0.341818,-1.02545 -4.657251,0.64292 -5.178846,2.00218 -1.094111,2.85121 4.624767,4.96309 8.223844,3.03692 z m 90.371731,-1.72867 c 0.9646,-0.9646 1.75381,-2.58687 1.75381,-3.60506 0,-2.38227 -2.97659,-5.35886 -5.35886,-5.35886 -2.38228,0 -5.35887,2.97659 -5.35887,5.35886 0,2.38228 2.97659,5.35887 5.35887,5.35887 1.01818,0 2.64045,-0.78922 3.60505,-1.75381 z m -60.86266,-13.30288 c 1.24839,-0.98198 1.88264,-2.1681 1.88264,-3.52072 0,-2.35131 -2.83959,-5.00161 -5.35886,-5.00161 -2.519272,0 -5.358871,2.6503 -5.358871,5.00161 0,2.35132 2.839599,5.00161 5.358871,5.00161 0.87646,0 2.44076,-0.6664 3.47622,-1.48089 z m 154.78899,-17.81103 c 2.96397,-2.96396 0.73865,-7.85967 -3.57258,-7.85967 -2.61194,0 -5.00161,2.21897 -5.00161,4.64435 0,2.42538 2.38967,4.64435 5.00161,4.64435 1.19086,0 2.77868,-0.63512 3.57258,-1.42903 z"
     id="path112"
     transform="scale(0.03)" />
</svg>
