<?xml version="1.0" encoding="UTF-8" standalone="no"?>
<!-- Generator: Adobe Illustrator 19.0.0, SVG Export Plug-In . SVG Version: 6.00 Build 0)  -->

<svg
   version="1.1"
   id="Layer_1"
   x="0px"
   y="0px"
   viewBox="0 0 512 512"
   style="enable-background:new 0 0 512 512;"
   xml:space="preserve"
   sodipodi:docname="chimney-home-on.svg"
   inkscape:version="1.2 (dc2aedaf03, 2022-05-15)"
   xmlns:inkscape="http://www.inkscape.org/namespaces/inkscape"
   xmlns:sodipodi="http://sodipodi.sourceforge.net/DTD/sodipodi-0.dtd"
   xmlns="http://www.w3.org/2000/svg"
   xmlns:svg="http://www.w3.org/2000/svg"><defs
   id="defs16405" /><sodipodi:namedview
   id="namedview16403"
   pagecolor="#ffffff"
   bordercolor="#000000"
   borderopacity="0.25"
   inkscape:showpageshadow="2"
   inkscape:pageopacity="0.0"
   inkscape:pagecheckerboard="0"
   inkscape:deskcolor="#d1d1d1"
   showgrid="false"
   inkscape:zoom="1.6514684"
   inkscape:cx="171.96817"
   inkscape:cy="239.78661"
   inkscape:window-width="1920"
   inkscape:window-height="1027"
   inkscape:window-x="-8"
   inkscape:window-y="-8"
   inkscape:window-maximized="1"
   inkscape:current-layer="Layer_1" />
<rect
   x="379.59"
   y="76.37"
   style="fill:#5B5D6E;"
   width="44.14"
   height="70.62"
   id="rect16312" />
<polygon
   style="fill:#91BEF0;"
   points="494.345,199.952 256,49.883 17.655,199.952 17.655,464.779 494.345,464.779 "
   id="polygon16314" />
<g
   id="g16320">
	<polygon
   style="fill:#E4EAF6;"
   points="494.345,217.607 476.69,208.451 476.69,464.779 494.345,464.779  "
   id="polygon16316" />
	<polygon
   style="fill:#E4EAF6;"
   points="17.655,217.607 17.655,464.779 35.31,464.779 35.31,208.451  "
   id="polygon16318" />
</g>
<g
   id="g16326">
	<rect
   x="17.655"
   y="429.47"
   style="fill:#C7CFE2;"
   width="476.69"
   height="26.483"
   id="rect16322" />
	<rect
   x="203.03"
   y="270.58"
   style="fill:#C7CFE2;"
   width="105.93"
   height="194.21"
   id="rect16324" />
</g>
<path
   style="fill:#FFFFFF;"
   d="M308.966,473.607H203.034c-4.875,0-8.828-3.953-8.828-8.828V270.572c0-4.875,3.953-8.828,8.828-8.828  h105.931c4.875,0,8.828,3.953,8.828,8.828v194.207C317.793,469.654,313.841,473.607,308.966,473.607z M211.862,455.952h88.276V279.4  h-88.276V455.952z"
   id="path16328" />
<rect
   x="70.62"
   y="270.58"
   style="fill:#B4E1FA;"
   width="88.28"
   height="123.59"
   id="rect16330" />
<polygon
   style="fill:#A0D2F0;"
   points="140.138,394.158 70.621,270.572 70.621,349.038 96,394.158 "
   id="polygon16332" />
<polygon
   style="fill:#DAF0FD;"
   points="158.897,333.346 123.586,270.572 97.103,270.572 158.897,380.426 "
   id="polygon16334" />
<rect
   x="70.62"
   y="270.58"
   style="fill:#A0D2F0;"
   width="88.28"
   height="26.483"
   id="rect16336" />
<g
   id="g16342">
	<polygon
   style="fill:#B4E1FA;"
   points="138.483,297.055 123.586,270.572 97.103,270.572 112,297.055  "
   id="polygon16338" />
	<rect
   x="353.1"
   y="270.58"
   style="fill:#B4E1FA;"
   width="88.28"
   height="123.59"
   id="rect16340" />
</g>
<polygon
   style="fill:#A0D2F0;"
   points="422.621,394.158 353.103,270.572 353.103,349.038 378.483,394.158 "
   id="polygon16344" />
<polygon
   style="fill:#DAF0FD;"
   points="441.379,333.346 406.069,270.572 379.586,270.572 441.379,380.426 "
   id="polygon16346" />
<rect
   x="353.1"
   y="270.58"
   style="fill:#A0D2F0;"
   width="88.28"
   height="26.483"
   id="rect16348" />
<polygon
   style="fill:#B4E1FA;"
   points="420.966,297.055 406.069,270.572 379.586,270.572 394.483,297.055 "
   id="polygon16350" />
<path
   style="fill:#FFFFFF;"
   d="M441.379,261.745h-88.276c-4.875,0-8.828,3.953-8.828,8.828v123.586c0,4.875,3.953,8.828,8.828,8.828  h88.276c4.875,0,8.828-3.953,8.828-8.828V270.572C450.207,265.697,446.254,261.745,441.379,261.745z M432.552,305.883h-26.483  v-26.482h26.483V305.883z M388.414,279.4v26.482h-26.483V279.4H388.414z M361.931,323.538h26.483v61.793h-26.483V323.538z   M406.069,385.331v-61.793h26.483v61.793H406.069z"
   id="path16352" />
<circle
   style="fill:#B4E1FA;"
   cx="256"
   cy="173.47"
   r="35.31"
   id="circle16354" />
<path
   style="fill:#C7CFE2;"
   d="M17.655,234.207L256,79.026l238.345,155.181v-25.434L270.45,62.999  c-8.783-5.719-20.115-5.719-28.898,0L17.655,208.773V234.207z"
   id="path16356" />
<path
   style="fill:#707487;"
   d="M241.55,42.683L4.813,196.818C1.811,198.772,0,202.112,0,205.695v5.254  c0,6.214,6.892,9.951,12.099,6.56L256,58.71l243.901,158.798c5.207,3.391,12.099-0.346,12.099-6.56v-5.254  c0-3.583-1.811-6.923-4.813-8.877L270.45,42.683C261.665,36.963,250.335,36.963,241.55,42.683z"
   id="path16358" />
<path
   style="fill:#A0D2F0;"
   d="M256,164.641c14.812,0,27.448,9.139,32.692,22.069c1.661-4.095,2.618-8.552,2.618-13.241  c0-19.501-15.809-35.31-35.31-35.31s-35.31,15.809-35.31,35.31c0,4.69,0.958,9.146,2.618,13.241  C228.552,173.78,241.188,164.641,256,164.641z"
   id="path16360" />
<g
   id="g16366">
	<path
   style="fill:#FFFFFF;"
   d="M256,217.607c-24.338,0-44.138-19.8-44.138-44.138s19.8-44.138,44.138-44.138   s44.138,19.8,44.138,44.138S280.338,217.607,256,217.607z M256,146.986c-14.602,0-26.483,11.88-26.483,26.483   s11.881,26.483,26.483,26.483c14.602,0,26.483-11.88,26.483-26.483S270.602,146.986,256,146.986z"
   id="path16362" />
	<path
   style="fill:#FFFFFF;"
   d="M158.897,261.745H70.621c-4.875,0-8.828,3.953-8.828,8.828v123.586c0,4.875,3.953,8.828,8.828,8.828   h88.276c4.875,0,8.828-3.953,8.828-8.828V270.572C167.724,265.697,163.772,261.745,158.897,261.745z M150.069,305.883h-26.483   v-26.482h26.483V305.883z M105.931,279.4v26.482H79.448V279.4H105.931z M79.448,323.538h26.483v61.793H79.448V323.538z    M123.586,385.331v-61.793h26.483v61.793H123.586z"
   id="path16364" />
</g>
<path
   style="fill:#8F96AC;"
   d="M507.586,473.607H4.414c-2.438,0-4.414-1.976-4.414-4.414v-8.828c0-2.438,1.976-4.414,4.414-4.414  h503.172c2.438,0,4.414,1.976,4.414,4.414v8.828C512,471.63,510.024,473.607,507.586,473.607z"
   id="path16368" />
<path
   style="fill:#6F7589;"
   d="M428.138,85.193h-52.966c-2.438,0-4.414-1.976-4.414-4.414v-8.828c0-2.438,1.976-4.414,4.414-4.414  h52.966c2.438,0,4.414,1.976,4.414,4.414v8.828C432.552,83.217,430.575,85.193,428.138,85.193z"
   id="path16370" />
<g
   id="g16372">
</g>
<g
   id="g16374">
</g>
<g
   id="g16376">
</g>
<g
   id="g16378">
</g>
<g
   id="g16380">
</g>
<g
   id="g16382">
</g>
<g
   id="g16384">
</g>
<g
   id="g16386">
</g>
<g
   id="g16388">
</g>
<g
   id="g16390">
</g>
<g
   id="g16392">
</g>
<g
   id="g16394">
</g>
<g
   id="g16396">
</g>
<g
   id="g16398">
</g>
<g
   id="g16400">
</g>
<path
   style="fill:#999999;stroke-width:0.604486"
   d="M 35.814094,326.05589 35.966942,222.62417 145.92791,151.02906 c 60.47854,-39.3773 110.25799,-71.46379 110.62102,-71.3033 0.36302,0.160489 49.89546,32.36857 110.07209,71.5735 l 109.41204,71.28171 0.15285,103.45332 0.15284,103.45331 h -79.18944 -79.18945 v -80.41611 c 0,-88.3232 0.22686,-83.07132 -3.70965,-85.87891 l -2.03297,-1.44996 H 256 199.78276 l -2.03297,1.44996 c -3.93651,2.80759 -3.70965,-2.44429 -3.70965,85.87891 V 429.4876 H 114.85069 35.661245 Z m 127.769256,75.89023 c 0.91794,-0.68548 2.22983,-1.99745 2.91531,-2.91549 1.23804,-1.65808 1.24738,-2.09533 1.40561,-65.79507 0.1585,-63.8118 0.15315,-64.13859 -1.09419,-66.71524 -0.91588,-1.89197 -1.95243,-2.92769 -3.84875,-3.84568 -2.56826,-1.24328 -3.07923,-1.25466 -49.07819,-1.09418 l -46.482904,0.16216 -2.032972,1.44996 c -3.903044,2.78372 -3.709649,-0.82473 -3.709649,69.21618 0,35.37997 0.237401,64.37621 0.533425,65.15283 0.786284,2.06283 3.60769,4.65685 5.750493,5.28705 1.07376,0.3158 21.577442,0.50741 47.924737,0.44787 45.48363,-0.10279 46.06855,-0.11934 47.71708,-1.35039 z m 282.22539,0.13745 c 0.9974,-0.60988 2.35749,-1.83397 3.02243,-2.72018 1.18909,-1.58482 1.21152,-2.67502 1.36357,-66.29137 0.145,-60.66872 0.0888,-64.80859 -0.90673,-66.75278 -0.58373,-1.14 -1.82921,-2.63611 -2.76773,-3.32468 -1.68635,-1.23722 -2.25413,-1.25384 -48.29637,-1.4141 -46.10733,-0.1605 -46.61684,-0.14916 -49.18524,1.09418 -1.89118,0.91551 -2.93313,1.95425 -3.84059,3.82881 -1.23311,2.54728 -1.24531,3.19229 -1.24531,65.8721 0,52.2732 0.14438,63.63848 0.82883,65.24481 1.03225,2.42258 3.30945,4.56377 5.5904,5.25651 0.95774,0.29086 22.41478,0.48086 47.68231,0.42221 43.38994,-0.10071 46.04166,-0.16821 47.75443,-1.21551 z M 264.63514,216.95584 c 8.97446,-1.85373 15.2519,-5.17212 22.02533,-11.64309 9.50535,-9.08089 14.40258,-21.4213 13.58077,-34.22185 -0.44735,-6.96802 -1.64487,-11.43116 -4.79033,-17.85359 -2.07118,-4.22893 -3.53801,-6.15815 -8.28948,-10.90251 -4.6962,-4.68918 -6.73138,-6.23981 -10.91113,-8.31335 -7.38161,-3.66196 -11.61869,-4.63091 -20.2503,-4.63091 -8.56505,0 -12.72705,0.95431 -20.2503,4.64322 -4.22063,2.06953 -6.16899,3.55027 -10.91113,8.29241 -4.74591,4.7459 -6.22072,6.68715 -8.28948,10.91114 -4.62649,9.44639 -6.01214,19.01582 -4.11162,28.39526 1.87382,9.24768 5.12081,15.54628 11.50604,22.3197 10.50707,11.14584 25.88859,16.06122 40.69163,13.00357 z"
   id="path16407" /><path
   style="fill:#cccccc;stroke-width:0.604486"
   d="m 36.160718,326.27161 c 0.146965,-78.28202 0.366006,-103.37848 0.90673,-103.88822 1.982643,-1.86903 213.539622,-139.006961 218.374172,-141.55705 1.43013,-0.754356 -4.45301,-4.449671 67.95862,42.68614 24.76883,16.12308 68.83589,44.80687 97.9268,63.74175 29.09091,18.93487 53.21412,34.73625 53.60714,35.11415 0.54283,0.52196 0.76076,25.49566 0.90673,103.90323 l 0.19215,103.21612 -79.02182,-6e-5 -79.02182,-7e-5 -0.1659,-81.1523 c -0.12395,-60.63007 -0.34584,-81.55333 -0.87745,-82.7381 -0.39136,-0.8722 -1.64755,-2.16429 -2.79154,-2.87132 l -2.07999,-1.2855 H 256 199.92546 l -2.07999,1.2855 c -1.14399,0.70703 -2.40018,1.99912 -2.79154,2.87132 -0.53161,1.18477 -0.7535,22.10803 -0.87745,82.7381 l -0.1659,81.1523 -79.02182,6e-5 -79.021818,6e-5 z m 127.689392,75.74615 c 0.85003,-0.64608 2.07411,-1.87016 2.72019,-2.72019 1.14646,-1.50838 1.17468,-3.11389 1.17468,-66.83004 0,-62.12881 -0.0532,-65.36285 -1.09985,-66.90487 -0.60492,-0.89118 -1.82901,-2.11527 -2.72019,-2.72019 -1.52732,-1.03671 -4.33904,-1.10935 -48.97803,-1.26527 l -47.357693,-0.16543 -2.10313,1.29981 c -1.156722,0.71489 -2.423327,2.01342 -2.814679,2.88562 -0.528011,1.17675 -0.754584,18.30837 -0.878386,66.4166 -0.14636,56.87385 -0.05474,65.04757 0.746487,66.59697 0.977324,1.88993 3.492155,3.93915 5.465214,4.45333 0.664935,0.17328 22.154427,0.27305 47.754427,0.2217 45.08256,-0.0904 46.59403,-0.13028 48.09096,-1.26804 z m 282.43069,0.10841 c 0.89474,-0.58645 2.10662,-1.79842 2.69307,-2.69327 0.99875,-1.52397 1.07798,-5.68641 1.2512,-65.72948 0.12371,-42.88104 -0.0219,-64.8112 -0.43987,-66.24328 -0.34364,-1.17745 -1.46474,-2.94557 -2.49134,-3.92916 l -1.86654,-1.78836 h -47.86596 c -45.28629,0 -47.95329,0.0593 -49.4863,1.09985 -0.89118,0.60492 -2.11527,1.82901 -2.72019,2.72019 -1.04321,1.53689 -1.10909,4.87355 -1.27926,64.78917 -0.0987,34.74286 -0.0126,64.33385 0.19114,65.75777 0.41251,2.8821 3.43958,6.48319 5.85682,6.96742 0.7619,0.15263 22.34294,0.24104 47.95786,0.19647 43.39682,-0.0755 46.68351,-0.15375 48.19937,-1.14732 z M 265.31251,217.02262 c 10.71369,-2.25369 21.04622,-9.11674 27.20731,-18.07157 5.86607,-8.52605 8.23464,-16.94392 7.74134,-27.5126 -0.56567,-12.1191 -3.82053,-19.68803 -12.20722,-28.38692 -6.11077,-6.33824 -10.77421,-9.41507 -18.15075,-11.97544 -4.41645,-1.53294 -5.59614,-1.67934 -13.60095,-1.68786 -9.80098,-0.0104 -12.67284,0.60109 -20.55254,4.37641 -6.16522,2.95388 -16.35473,12.98112 -19.17352,18.86818 -3.37029,7.03886 -4.48426,11.29883 -4.83749,18.49931 -0.65814,13.41612 3.54278,24.47725 12.81943,33.7539 5.81911,5.81911 14.13217,10.49227 21.51138,12.09256 5.18809,1.12511 14.0078,1.14529 19.24301,0.044 z"
   id="path16409" /><path
   style="fill:#f9f9f9;stroke-width:0.604486"
   d="m 18.134593,331.85027 v -97.63733 l 7.707202,-5.00514 c 4.238961,-2.75283 8.047225,-5.21131 8.462809,-5.46328 0.603324,-0.36581 0.755609,20.32064 0.755609,102.64247 V 429.4876 h -8.46281 -8.46281 z"
   id="path16411" /><path
   style="fill:#f9f9f9;stroke-width:0.604486"
   d="m 476.93979,326.38699 c 0,-82.31993 0.1523,-103.00898 0.75561,-102.64603 0.41558,0.25001 4.22384,2.71188 8.46281,5.47081 l 7.7072,5.01624 v 97.6298 97.62979 h -8.46281 -8.46281 z"
   id="path16551" /><path
   style="fill:#f9f9f9;stroke-width:0.604486"
   d="m 18.134593,223.78539 v -9.79891 L 136.86681,136.68836 c 65.30271,-42.513964 118.91703,-77.304834 119.14292,-77.313043 0.22589,-0.0082 53.83582,34.771674 119.13319,77.288633 l 118.72249,77.30355 v 9.81498 9.81498 l -8.91618,-5.81969 C 383.19238,161.35999 256.08503,78.863404 255.72453,79.003893 255.46508,79.104999 205.97488,111.28595 145.74629,150.51712 85.517704,189.74829 32.166103,224.48752 27.187179,227.71541 l -9.052586,5.86889 z"
   id="path16553" /><path
   style="fill:#2c5aa0;stroke-width:0.604486"
   d="M 212.17473,367.52774 V 279.57497 H 256 299.82527 v 87.95277 87.95278 H 256 212.17473 Z"
   id="path16555" /><path
   style="fill:#ffe680;stroke-width:0.604486"
   d="m 134.62173,289.70012 c -2.29812,-4.07273 -4.49971,-8.017 -4.89241,-8.76506 l -0.714,-1.36009 h 10.29753 10.29754 v 8.76505 8.76506 h -5.40513 -5.40514 z"
   id="path16711" /><path
   style="fill:#ffe680;stroke-width:0.604486"
   d="m 88.310491,301.61792 c -1.194147,-2.17249 -2.171176,-4.07662 -2.171176,-4.23141 0,-0.15479 4.352302,-0.28143 9.671783,-0.28143 h 9.671782 v 4.2314 4.23141 h -7.500606 -7.500607 z"
   id="path16713" /><path
   style="fill:#ffe680;stroke-width:0.604486"
   d="m 89.896496,382.79103 c -0.647522,-1.08052 -3.253888,-5.6715 -5.791923,-10.20217 l -4.614608,-8.23758 v -20.3244 -20.3244 l 10.42739,0.013 10.427395,0.013 2.56906,4.60473 2.56907,4.60472 v 25.9088 25.9088 H 98.278345 91.07381 Z"
   id="path16715" /><path
   style="fill:#ffe680;stroke-width:0.604486"
   d="m 123.61747,375.38607 c 0,-5.15325 0.10708,-9.36954 0.23795,-9.36954 0.13087,0 2.48063,4.01228 5.22169,8.91617 2.74105,4.9039 5.0982,9.12019 5.2381,9.36954 0.1399,0.24935 -2.20985,0.45337 -5.22168,0.45337 h -5.47606 z"
   id="path16717" /><path
   style="fill:#ffe680;stroke-width:0.604486"
   d="m 367.89982,374.87434 -5.51021,-9.88127 v -20.6453 -20.64529 h 10.22732 10.22731 l 2.76914,5.08006 2.76915,5.08006 v 25.4465 25.44651 h -7.48625 -7.48625 z"
   id="path16719" /><path
   style="fill:#ffe680;stroke-width:0.604486"
   d="m 362.38961,292.57143 v -12.99646 h 11.04347 11.04347 l 1.95299,3.55249 c 1.77419,3.22725 1.95299,4.0284 1.95299,8.75078 v 5.19829 l -10.25198,0.16539 -10.25198,0.1654 2.36783,4.08028 2.36783,4.08029 h -5.11231 -5.11231 z"
   id="path16721" /><path
   style="fill:#ffe680;stroke-width:0.604486"
   d="m 417.0571,289.70012 c -2.25854,-4.07273 -4.4972,-8.017 -4.97479,-8.76506 l -0.86834,-1.36009 h 10.64803 10.64804 v 8.76505 8.76506 h -5.67324 -5.67324 z"
   id="path16723" /><path
   style="fill:#ffe680;stroke-width:0.604486"
   d="m 412.09252,375.0102 -5.5754,-10.04764 v -20.63004 -20.63004 l 1.36009,0.004 c 1.15677,0.003 3.09968,3.10336 12.99646,20.73741 l 11.63637,20.73364 v 9.7546 9.75461 l -7.42107,0.18567 -7.42106,0.18567 z"
   id="path16729" /><path
   style="fill:#ffeeaa;stroke-width:0.604486"
   d="m 412.10862,374.47127 -5.5915,-10.25159 v -20.2586 c 0,-12.5553 0.2209,-20.2586 0.58094,-20.2586 1.5417,0 3.37726,2.92107 16.54841,26.33491 l 8.86357,15.75639 v 9.10817 c 0,10.69493 0.76075,9.84183 -8.76506,9.82903 l -6.04486,-0.008 -5.5915,-10.25159 z"
   id="path16731" /><path
   style="fill:#ffeeaa;stroke-width:0.604486"
   d="m 406.51712,288.30353 v -8.80154 l 2.25581,0.18761 c 2.21604,0.18431 2.33806,0.33148 6.92152,8.34818 2.56614,4.48831 4.67924,8.36458 4.69578,8.61393 0.0165,0.24935 -3.09814,0.45337 -6.92152,0.45337 h -6.95159 z"
   id="path16733" /><path
   style="fill:#ffeeaa;stroke-width:0.604486"
   d="m 370.95238,301.88421 c -1.10866,-2.01813 -1.92472,-3.7522 -1.81346,-3.85349 0.11126,-0.10129 4.48658,-0.2952 9.72295,-0.4309 l 9.52066,-0.24674 v 4.10741 4.1074 l -7.70721,-0.007 -7.7072,-0.007 z"
   id="path16735" /><path
   style="fill:#ffeeaa;stroke-width:0.604486"
   d="m 423.79701,301.69163 c -1.19225,-2.13195 -2.16773,-4.03608 -2.16773,-4.23141 0,-0.19533 2.44817,-0.35514 5.44038,-0.35514 h 5.44038 v 4.2314 4.23141 h -3.27265 -3.27265 z"
   id="path16737" /><path
   style="fill:#ffeeaa;stroke-width:0.604486"
   d="m 362.38961,375.55381 c 0,-7.85256 0.11792,-9.02697 0.80422,-8.00945 1.16321,1.72461 9.47205,16.56156 9.47205,16.91408 0,0.16344 -2.31216,0.29717 -5.13814,0.29717 h -5.13813 z"
   id="path16739" /><path
   style="fill:#ffeeaa;stroke-width:0.604486"
   d="m 134.024,382.79103 c -0.64752,-1.08052 -3.25388,-5.6715 -5.79192,-10.20217 l -4.61461,-8.23758 v -20.36455 -20.36455 l 1.63735,0.19127 c 1.47014,0.17174 2.7974,2.2537 12.99646,20.38649 l 11.35911,20.19521 v 10.18023 10.18023 h -7.20454 -7.20453 z"
   id="path16741" /><path
   style="fill:#ffeeaa;stroke-width:0.604486"
   d="m 123.61747,288.34002 v -8.76505 h 2.3827 2.38271 l 4.17839,7.40496 c 2.29812,4.07273 4.4997,8.017 4.89241,8.76505 l 0.714,1.3601 h -7.2751 -7.27511 z"
   id="path16743" /><path
   style="fill:#fff6d5;stroke-width:0.604486"
   d="m 421.15214,344.01464 c -6.05446,-10.77117 -11.0081,-19.74779 -11.0081,-19.94805 0,-0.20026 5.03235,-0.36411 11.183,-0.36411 h 11.183 v 19.94805 c 0,10.97143 -0.0787,19.94805 -0.1749,19.94805 -0.0962,0 -5.12854,-8.81277 -11.183,-19.58394 z"
   id="path16747" /><path
   style="fill:#fff6d5;stroke-width:0.604486"
   d="m 406.51712,301.33648 v -4.2314 h 7.11431 7.1143 l 2.10411,3.76701 c 1.15727,2.07186 2.19479,3.97599 2.30561,4.2314 0.11082,0.25542 -4.03746,0.4644 -9.21842,0.4644 h -9.41991 z"
   id="path16749" /><path
   style="fill:#fff6d5;stroke-width:0.604486"
   d="m 406.51712,375.55381 c 0,-7.85256 0.11792,-9.02697 0.80422,-8.00945 1.16321,1.72461 9.47205,16.56156 9.47205,16.91408 0,0.16344 -2.31216,0.29717 -5.13814,0.29717 h -5.13813 z"
   id="path16751" /><path
   style="fill:#fff6d5;stroke-width:0.604486"
   d="m 123.61747,301.33648 v -4.2314 h 7.17982 c 5.03013,0 7.35427,0.22623 7.76245,0.7556 0.32045,0.41559 1.4618,2.31972 2.53633,4.23141 l 1.9537,3.4758 h -9.71615 -9.71615 z"
   id="path16759" /><path
   style="fill:#ffeeaa;stroke-width:0.604486"
   d="m 138.36073,343.47271 -10.94741,-19.46799 10.88306,-0.16509 c 5.98569,-0.0908 10.98386,-0.0643 11.10704,0.0589 0.12318,0.12318 0.15213,8.95806 0.0643,19.63308 l -0.15961,19.40911 z"
   id="path16761" /><path
   style="fill:#ffeeaa;stroke-width:0.604486"
   d="m 79.489965,292.55809 v -13.0098 l 11.332311,0.16446 11.332314,0.16446 1.65002,3.02244 c 1.45583,2.66671 1.65169,3.68051 1.66415,8.61393 l 0.0141,5.5915 h -9.974025 c -5.485715,0 -9.974026,0.12143 -9.974026,0.26985 0,0.14843 0.952066,1.89431 2.115702,3.87976 1.163637,1.98544 2.115703,3.76814 2.115703,3.96155 0,0.1934 -2.312161,0.35165 -5.138135,0.35165 h -5.138134 z"
   id="path16763" /><path
   style="fill:#ffeeaa;stroke-width:0.370251"
   d="m 103.99019,282.57791 -1.5314,-2.66801 1.47737,-0.11574 c 0.81256,-0.0636 1.55105,-0.0421 1.64109,0.048 0.09,0.09 0.11435,1.34272 0.054,2.78374 l -0.10968,2.62003 z"
   id="path16769" /><path
   style="fill:#ffeeaa;stroke-width:0.370251"
   d="m 142.82069,304.43904 c -0.39162,-0.66183 -1.1769,-2.03638 -1.74506,-3.05457 -0.56816,-1.01819 -1.35791,-2.39275 -1.75499,-3.05458 l -0.72197,-1.20331 h 5.58397 5.58397 v 4.25789 4.25788 h -3.11694 -3.11694 z"
   id="path16771" /><path
   style="fill:#ffeeaa;stroke-width:0.370251"
   d="m 105.85057,328.4128 c 6.5e-4,-2.64729 0.0596,-3.6817 0.13105,-2.29867 0.0714,1.38303 0.0709,3.549 -0.001,4.81327 -0.0721,1.26427 -0.13053,0.1327 -0.12988,-2.5146 z"
   id="path16773" /><path
   style="fill:#ffeeaa;stroke-width:0.370251"
   d="m 79.789131,375.55812 c 0,-5.32853 0.06947,-9.61877 0.154376,-9.53386 0.08491,0.0849 2.569693,4.44461 5.521749,9.68824 l 5.367373,9.53386 H 85.31088 79.789131 Z"
   id="path16775" /><path
   style="fill:#ffeeaa;stroke-width:0.370251"
   d="m 105.73594,328.38195 c 0.0178,-0.43132 0.1055,-0.51906 0.2237,-0.22369 0.10695,0.26727 0.0938,0.58661 -0.0292,0.70964 -0.12303,0.12303 -0.21054,-0.0956 -0.19447,-0.48595 z"
   id="path16777" /><path
   style="fill:#ffeeaa;stroke-width:0.370251"
   d="m 103.19426,328.2216 c -1.26545,-2.24336 -2.30081,-4.15941 -2.30081,-4.25789 0,-0.0985 1.08298,-0.17905 2.40663,-0.17905 h 2.40663 v 4.25789 c 0,2.34184 -0.0476,4.25789 -0.10582,4.25789 -0.0582,0 -1.14119,-1.83548 -2.40663,-4.07884 z"
   id="path16779" /><path
   style="fill:#ffeeaa;stroke-width:0.370251"
   d="m 385.68624,328.23385 c -1.26012,-2.23663 -2.29114,-4.15268 -2.29114,-4.25789 0,-0.10521 1.08299,-0.1913 2.40664,-0.1913 h 2.40663 v 4.25789 c 0,2.34184 -0.052,4.25789 -0.1155,4.25789 -0.0635,0 -1.1465,-1.82997 -2.40663,-4.06659 z"
   id="path16781" /><path
   style="fill:#ffeeaa;stroke-width:0.370251"
   d="m 386.4987,282.6355 -1.52454,-2.7256 1.47051,-0.11574 c 0.80879,-0.0636 1.54419,-0.0421 1.63423,0.048 0.09,0.09 0.11435,1.36864 0.054,2.84134 l -0.10969,2.67763 z"
   id="path16785" /><path
   style="fill:#ffeeaa;stroke-width:0.370251"
   d="m 250.66005,199.22599 c -6.71038,-1.55286 -12.17075,-5.12333 -15.96343,-10.4383 -2.05918,-2.88568 -3.27872,-5.55406 -4.21941,-9.2321 l -0.74472,-2.91184 1.76288,-1.80884 c 3.65725,-3.75262 8.99088,-6.87473 14.80004,-8.66341 3.01033,-0.9269 3.73889,-1.0019 9.73329,-1.0019 5.99576,0 6.72249,0.0748 9.73634,1.00278 5.45092,1.67829 10.06308,4.29748 14.02256,7.96326 2.56314,2.37302 2.67047,3.02914 1.21166,7.40729 -2.67574,8.03039 -8.88152,14.20957 -17.01016,16.93724 -3.63846,1.22094 -9.78879,1.56507 -13.32905,0.74582 z"
   id="path16787" /><path
   style="fill:#ffe680;stroke-width:0.370251"
   d="m 229.84014,172.35193 c 0.36864,-7.08864 2.76562,-12.50767 7.69729,-17.40181 3.25421,-3.22944 6.38107,-5.17707 10.53087,-6.55935 2.61501,-0.87104 3.54757,-0.9876 7.9604,-0.99495 4.51975,-0.008 5.28202,0.0902 7.9604,1.02031 5.24449,1.82127 9.36768,4.70399 12.55546,8.7781 3.63043,4.63985 5.2759,9.09992 5.66048,15.34282 l 0.22808,3.70252 -2.25161,-2.08331 c -3.2123,-2.97219 -7.33345,-5.61891 -10.89456,-6.99681 -13.24918,-5.12649 -27.41328,-2.47218 -37.4686,7.0215 l -2.18039,2.05862 z"
   id="path16789" /></svg>
