<?xml version="1.0" encoding="UTF-8" standalone="no"?>
<!-- Generator: Adobe Illustrator 19.0.0, SVG Export Plug-In . SVG Version: 6.00 Build 0)  -->

<svg
   version="1.1"
   id="Layer_1"
   x="0px"
   y="0px"
   viewBox="0 0 512 512"
   style="enable-background:new 0 0 512 512;"
   xml:space="preserve"
   sodipodi:docname="chimney-home.svg"
   inkscape:version="1.2 (dc2aedaf03, 2022-05-15)"
   xmlns:inkscape="http://www.inkscape.org/namespaces/inkscape"
   xmlns:sodipodi="http://sodipodi.sourceforge.net/DTD/sodipodi-0.dtd"
   xmlns="http://www.w3.org/2000/svg"
   xmlns:svg="http://www.w3.org/2000/svg"><defs
   id="defs16405" /><sodipodi:namedview
   id="namedview16403"
   pagecolor="#ffffff"
   bordercolor="#000000"
   borderopacity="0.25"
   inkscape:showpageshadow="2"
   inkscape:pageopacity="0.0"
   inkscape:pagecheckerboard="0"
   inkscape:deskcolor="#d1d1d1"
   showgrid="false"
   inkscape:zoom="1.6542969"
   inkscape:cx="255.69776"
   inkscape:cy="256.90673"
   inkscape:window-width="1920"
   inkscape:window-height="1027"
   inkscape:window-x="-8"
   inkscape:window-y="-8"
   inkscape:window-maximized="1"
   inkscape:current-layer="Layer_1" />
<rect
   x="379.59"
   y="76.37"
   style="fill:#5B5D6E;"
   width="44.14"
   height="70.62"
   id="rect16312" />
<polygon
   style="fill:#91BEF0;"
   points="494.345,199.952 256,49.883 17.655,199.952 17.655,464.779 494.345,464.779 "
   id="polygon16314" />
<g
   id="g16320">
	<polygon
   style="fill:#E4EAF6;"
   points="494.345,217.607 476.69,208.451 476.69,464.779 494.345,464.779  "
   id="polygon16316" />
	<polygon
   style="fill:#E4EAF6;"
   points="17.655,217.607 17.655,464.779 35.31,464.779 35.31,208.451  "
   id="polygon16318" />
</g>
<g
   id="g16326">
	<rect
   x="17.655"
   y="429.47"
   style="fill:#C7CFE2;"
   width="476.69"
   height="26.483"
   id="rect16322" />
	<rect
   x="203.03"
   y="270.58"
   style="fill:#C7CFE2;"
   width="105.93"
   height="194.21"
   id="rect16324" />
</g>
<path
   style="fill:#FFFFFF;"
   d="M308.966,473.607H203.034c-4.875,0-8.828-3.953-8.828-8.828V270.572c0-4.875,3.953-8.828,8.828-8.828  h105.931c4.875,0,8.828,3.953,8.828,8.828v194.207C317.793,469.654,313.841,473.607,308.966,473.607z M211.862,455.952h88.276V279.4  h-88.276V455.952z"
   id="path16328" />
<rect
   x="70.62"
   y="270.58"
   style="fill:#B4E1FA;"
   width="88.28"
   height="123.59"
   id="rect16330" />
<polygon
   style="fill:#A0D2F0;"
   points="140.138,394.158 70.621,270.572 70.621,349.038 96,394.158 "
   id="polygon16332" />
<polygon
   style="fill:#DAF0FD;"
   points="158.897,333.346 123.586,270.572 97.103,270.572 158.897,380.426 "
   id="polygon16334" />
<rect
   x="70.62"
   y="270.58"
   style="fill:#A0D2F0;"
   width="88.28"
   height="26.483"
   id="rect16336" />
<g
   id="g16342">
	<polygon
   style="fill:#B4E1FA;"
   points="138.483,297.055 123.586,270.572 97.103,270.572 112,297.055  "
   id="polygon16338" />
	<rect
   x="353.1"
   y="270.58"
   style="fill:#B4E1FA;"
   width="88.28"
   height="123.59"
   id="rect16340" />
</g>
<polygon
   style="fill:#A0D2F0;"
   points="422.621,394.158 353.103,270.572 353.103,349.038 378.483,394.158 "
   id="polygon16344" />
<polygon
   style="fill:#DAF0FD;"
   points="441.379,333.346 406.069,270.572 379.586,270.572 441.379,380.426 "
   id="polygon16346" />
<rect
   x="353.1"
   y="270.58"
   style="fill:#A0D2F0;"
   width="88.28"
   height="26.483"
   id="rect16348" />
<polygon
   style="fill:#B4E1FA;"
   points="420.966,297.055 406.069,270.572 379.586,270.572 394.483,297.055 "
   id="polygon16350" />
<path
   style="fill:#FFFFFF;"
   d="M441.379,261.745h-88.276c-4.875,0-8.828,3.953-8.828,8.828v123.586c0,4.875,3.953,8.828,8.828,8.828  h88.276c4.875,0,8.828-3.953,8.828-8.828V270.572C450.207,265.697,446.254,261.745,441.379,261.745z M432.552,305.883h-26.483  v-26.482h26.483V305.883z M388.414,279.4v26.482h-26.483V279.4H388.414z M361.931,323.538h26.483v61.793h-26.483V323.538z   M406.069,385.331v-61.793h26.483v61.793H406.069z"
   id="path16352" />
<circle
   style="fill:#B4E1FA;"
   cx="256"
   cy="173.47"
   r="35.31"
   id="circle16354" />
<path
   style="fill:#C7CFE2;"
   d="M17.655,234.207L256,79.026l238.345,155.181v-25.434L270.45,62.999  c-8.783-5.719-20.115-5.719-28.898,0L17.655,208.773V234.207z"
   id="path16356" />
<path
   style="fill:#707487;"
   d="M241.55,42.683L4.813,196.818C1.811,198.772,0,202.112,0,205.695v5.254  c0,6.214,6.892,9.951,12.099,6.56L256,58.71l243.901,158.798c5.207,3.391,12.099-0.346,12.099-6.56v-5.254  c0-3.583-1.811-6.923-4.813-8.877L270.45,42.683C261.665,36.963,250.335,36.963,241.55,42.683z"
   id="path16358" />
<path
   style="fill:#A0D2F0;"
   d="M256,164.641c14.812,0,27.448,9.139,32.692,22.069c1.661-4.095,2.618-8.552,2.618-13.241  c0-19.501-15.809-35.31-35.31-35.31s-35.31,15.809-35.31,35.31c0,4.69,0.958,9.146,2.618,13.241  C228.552,173.78,241.188,164.641,256,164.641z"
   id="path16360" />
<g
   id="g16366">
	<path
   style="fill:#FFFFFF;"
   d="M256,217.607c-24.338,0-44.138-19.8-44.138-44.138s19.8-44.138,44.138-44.138   s44.138,19.8,44.138,44.138S280.338,217.607,256,217.607z M256,146.986c-14.602,0-26.483,11.88-26.483,26.483   s11.881,26.483,26.483,26.483c14.602,0,26.483-11.88,26.483-26.483S270.602,146.986,256,146.986z"
   id="path16362" />
	<path
   style="fill:#FFFFFF;"
   d="M158.897,261.745H70.621c-4.875,0-8.828,3.953-8.828,8.828v123.586c0,4.875,3.953,8.828,8.828,8.828   h88.276c4.875,0,8.828-3.953,8.828-8.828V270.572C167.724,265.697,163.772,261.745,158.897,261.745z M150.069,305.883h-26.483   v-26.482h26.483V305.883z M105.931,279.4v26.482H79.448V279.4H105.931z M79.448,323.538h26.483v61.793H79.448V323.538z    M123.586,385.331v-61.793h26.483v61.793H123.586z"
   id="path16364" />
</g>
<path
   style="fill:#8F96AC;"
   d="M507.586,473.607H4.414c-2.438,0-4.414-1.976-4.414-4.414v-8.828c0-2.438,1.976-4.414,4.414-4.414  h503.172c2.438,0,4.414,1.976,4.414,4.414v8.828C512,471.63,510.024,473.607,507.586,473.607z"
   id="path16368" />
<path
   style="fill:#6F7589;"
   d="M428.138,85.193h-52.966c-2.438,0-4.414-1.976-4.414-4.414v-8.828c0-2.438,1.976-4.414,4.414-4.414  h52.966c2.438,0,4.414,1.976,4.414,4.414v8.828C432.552,83.217,430.575,85.193,428.138,85.193z"
   id="path16370" />
<g
   id="g16372">
</g>
<g
   id="g16374">
</g>
<g
   id="g16376">
</g>
<g
   id="g16378">
</g>
<g
   id="g16380">
</g>
<g
   id="g16382">
</g>
<g
   id="g16384">
</g>
<g
   id="g16386">
</g>
<g
   id="g16388">
</g>
<g
   id="g16390">
</g>
<g
   id="g16392">
</g>
<g
   id="g16394">
</g>
<g
   id="g16396">
</g>
<g
   id="g16398">
</g>
<g
   id="g16400">
</g>
<path
   style="fill:#999999;stroke-width:0.604486"
   d="M 35.814094,326.05589 35.966942,222.62417 145.92791,151.02906 c 60.47854,-39.3773 110.25799,-71.46379 110.62102,-71.3033 0.36302,0.160489 49.89546,32.36857 110.07209,71.5735 l 109.41204,71.28171 0.15285,103.45332 0.15284,103.45331 h -79.18944 -79.18945 v -80.41611 c 0,-88.3232 0.22686,-83.07132 -3.70965,-85.87891 l -2.03297,-1.44996 H 256 199.78276 l -2.03297,1.44996 c -3.93651,2.80759 -3.70965,-2.44429 -3.70965,85.87891 V 429.4876 H 114.85069 35.661245 Z m 127.769256,75.89023 c 0.91794,-0.68548 2.22983,-1.99745 2.91531,-2.91549 1.23804,-1.65808 1.24738,-2.09533 1.40561,-65.79507 0.1585,-63.8118 0.15315,-64.13859 -1.09419,-66.71524 -0.91588,-1.89197 -1.95243,-2.92769 -3.84875,-3.84568 -2.56826,-1.24328 -3.07923,-1.25466 -49.07819,-1.09418 l -46.482904,0.16216 -2.032972,1.44996 c -3.903044,2.78372 -3.709649,-0.82473 -3.709649,69.21618 0,35.37997 0.237401,64.37621 0.533425,65.15283 0.786284,2.06283 3.60769,4.65685 5.750493,5.28705 1.07376,0.3158 21.577442,0.50741 47.924737,0.44787 45.48363,-0.10279 46.06855,-0.11934 47.71708,-1.35039 z m 282.22539,0.13745 c 0.9974,-0.60988 2.35749,-1.83397 3.02243,-2.72018 1.18909,-1.58482 1.21152,-2.67502 1.36357,-66.29137 0.145,-60.66872 0.0888,-64.80859 -0.90673,-66.75278 -0.58373,-1.14 -1.82921,-2.63611 -2.76773,-3.32468 -1.68635,-1.23722 -2.25413,-1.25384 -48.29637,-1.4141 -46.10733,-0.1605 -46.61684,-0.14916 -49.18524,1.09418 -1.89118,0.91551 -2.93313,1.95425 -3.84059,3.82881 -1.23311,2.54728 -1.24531,3.19229 -1.24531,65.8721 0,52.2732 0.14438,63.63848 0.82883,65.24481 1.03225,2.42258 3.30945,4.56377 5.5904,5.25651 0.95774,0.29086 22.41478,0.48086 47.68231,0.42221 43.38994,-0.10071 46.04166,-0.16821 47.75443,-1.21551 z M 264.63514,216.95584 c 8.97446,-1.85373 15.2519,-5.17212 22.02533,-11.64309 9.50535,-9.08089 14.40258,-21.4213 13.58077,-34.22185 -0.44735,-6.96802 -1.64487,-11.43116 -4.79033,-17.85359 -2.07118,-4.22893 -3.53801,-6.15815 -8.28948,-10.90251 -4.6962,-4.68918 -6.73138,-6.23981 -10.91113,-8.31335 -7.38161,-3.66196 -11.61869,-4.63091 -20.2503,-4.63091 -8.56505,0 -12.72705,0.95431 -20.2503,4.64322 -4.22063,2.06953 -6.16899,3.55027 -10.91113,8.29241 -4.74591,4.7459 -6.22072,6.68715 -8.28948,10.91114 -4.62649,9.44639 -6.01214,19.01582 -4.11162,28.39526 1.87382,9.24768 5.12081,15.54628 11.50604,22.3197 10.50707,11.14584 25.88859,16.06122 40.69163,13.00357 z"
   id="path16407" /><path
   style="fill:#cccccc;stroke-width:0.604486"
   d="m 36.160718,326.27161 c 0.146965,-78.28202 0.366006,-103.37848 0.90673,-103.88822 1.982643,-1.86903 213.539622,-139.006961 218.374172,-141.55705 1.43013,-0.754356 -4.45301,-4.449671 67.95862,42.68614 24.76883,16.12308 68.83589,44.80687 97.9268,63.74175 29.09091,18.93487 53.21412,34.73625 53.60714,35.11415 0.54283,0.52196 0.76076,25.49566 0.90673,103.90323 l 0.19215,103.21612 -79.02182,-6e-5 -79.02182,-7e-5 -0.1659,-81.1523 c -0.12395,-60.63007 -0.34584,-81.55333 -0.87745,-82.7381 -0.39136,-0.8722 -1.64755,-2.16429 -2.79154,-2.87132 l -2.07999,-1.2855 H 256 199.92546 l -2.07999,1.2855 c -1.14399,0.70703 -2.40018,1.99912 -2.79154,2.87132 -0.53161,1.18477 -0.7535,22.10803 -0.87745,82.7381 l -0.1659,81.1523 -79.02182,6e-5 -79.021818,6e-5 z m 127.689392,75.74615 c 0.85003,-0.64608 2.07411,-1.87016 2.72019,-2.72019 1.14646,-1.50838 1.17468,-3.11389 1.17468,-66.83004 0,-62.12881 -0.0532,-65.36285 -1.09985,-66.90487 -0.60492,-0.89118 -1.82901,-2.11527 -2.72019,-2.72019 -1.52732,-1.03671 -4.33904,-1.10935 -48.97803,-1.26527 l -47.357693,-0.16543 -2.10313,1.29981 c -1.156722,0.71489 -2.423327,2.01342 -2.814679,2.88562 -0.528011,1.17675 -0.754584,18.30837 -0.878386,66.4166 -0.14636,56.87385 -0.05474,65.04757 0.746487,66.59697 0.977324,1.88993 3.492155,3.93915 5.465214,4.45333 0.664935,0.17328 22.154427,0.27305 47.754427,0.2217 45.08256,-0.0904 46.59403,-0.13028 48.09096,-1.26804 z m 282.43069,0.10841 c 0.89474,-0.58645 2.10662,-1.79842 2.69307,-2.69327 0.99875,-1.52397 1.07798,-5.68641 1.2512,-65.72948 0.12371,-42.88104 -0.0219,-64.8112 -0.43987,-66.24328 -0.34364,-1.17745 -1.46474,-2.94557 -2.49134,-3.92916 l -1.86654,-1.78836 h -47.86596 c -45.28629,0 -47.95329,0.0593 -49.4863,1.09985 -0.89118,0.60492 -2.11527,1.82901 -2.72019,2.72019 -1.04321,1.53689 -1.10909,4.87355 -1.27926,64.78917 -0.0987,34.74286 -0.0126,64.33385 0.19114,65.75777 0.41251,2.8821 3.43958,6.48319 5.85682,6.96742 0.7619,0.15263 22.34294,0.24104 47.95786,0.19647 43.39682,-0.0755 46.68351,-0.15375 48.19937,-1.14732 z M 265.31251,217.02262 c 10.71369,-2.25369 21.04622,-9.11674 27.20731,-18.07157 5.86607,-8.52605 8.23464,-16.94392 7.74134,-27.5126 -0.56567,-12.1191 -3.82053,-19.68803 -12.20722,-28.38692 -6.11077,-6.33824 -10.77421,-9.41507 -18.15075,-11.97544 -4.41645,-1.53294 -5.59614,-1.67934 -13.60095,-1.68786 -9.80098,-0.0104 -12.67284,0.60109 -20.55254,4.37641 -6.16522,2.95388 -16.35473,12.98112 -19.17352,18.86818 -3.37029,7.03886 -4.48426,11.29883 -4.83749,18.49931 -0.65814,13.41612 3.54278,24.47725 12.81943,33.7539 5.81911,5.81911 14.13217,10.49227 21.51138,12.09256 5.18809,1.12511 14.0078,1.14529 19.24301,0.044 z"
   id="path16409" /><path
   style="fill:#f9f9f9;stroke-width:0.604486"
   d="m 18.134593,331.85027 v -97.63733 l 7.707202,-5.00514 c 4.238961,-2.75283 8.047225,-5.21131 8.462809,-5.46328 0.603324,-0.36581 0.755609,20.32064 0.755609,102.64247 V 429.4876 h -8.46281 -8.46281 z"
   id="path16411" /><path
   style="fill:#f9f9f9;stroke-width:0.604486"
   d="m 476.93979,326.38699 c 0,-82.31993 0.1523,-103.00898 0.75561,-102.64603 0.41558,0.25001 4.22384,2.71188 8.46281,5.47081 l 7.7072,5.01624 v 97.6298 97.62979 h -8.46281 -8.46281 z"
   id="path16551" /><path
   style="fill:#f9f9f9;stroke-width:0.604486"
   d="m 18.134593,223.78539 v -9.79891 L 136.86681,136.68836 c 65.30271,-42.513964 118.91703,-77.304834 119.14292,-77.313043 0.22589,-0.0082 53.83582,34.771674 119.13319,77.288633 l 118.72249,77.30355 v 9.81498 9.81498 l -8.91618,-5.81969 C 383.19238,161.35999 256.08503,78.863404 255.72453,79.003893 255.46508,79.104999 205.97488,111.28595 145.74629,150.51712 85.517704,189.74829 32.166103,224.48752 27.187179,227.71541 l -9.052586,5.86889 z"
   id="path16553" /><path
   style="fill:#2c5aa0;stroke-width:0.604486"
   d="M 212.17473,367.52774 V 279.57497 H 256 299.82527 v 87.95277 87.95278 H 256 212.17473 Z"
   id="path16555" /></svg>
