<?xml version="1.0" encoding="UTF-8" standalone="no"?>
<svg
   width="36px"
   height="36px"
   viewBox="0 0 36 36"
   aria-hidden="true"
   role="img"
   class="iconify iconify--twemoji"
   preserveAspectRatio="xMidYMid meet"
   version="1.1"
   id="svg5843"
   sodipodi:docname="christmas-tree-white-on.svg"
   inkscape:version="1.4.2 (f4327f4, 2025-05-13)"
   xmlns:inkscape="http://www.inkscape.org/namespaces/inkscape"
   xmlns:sodipodi="http://sodipodi.sourceforge.net/DTD/sodipodi-0.dtd"
   xmlns="http://www.w3.org/2000/svg"
   xmlns:svg="http://www.w3.org/2000/svg">
  <defs
     id="defs5847" />
  <sodipodi:namedview
     id="namedview5845"
     pagecolor="#ffffff"
     bordercolor="#000000"
     borderopacity="0.25"
     inkscape:showpageshadow="2"
     inkscape:pageopacity="0.0"
     inkscape:pagecheckerboard="0"
     inkscape:deskcolor="#d1d1d1"
     showgrid="false"
     inkscape:zoom="23.527778"
     inkscape:cx="17.978748"
     inkscape:cy="18.021251"
     inkscape:window-width="2880"
     inkscape:window-height="1514"
     inkscape:window-x="-11"
     inkscape:window-y="-11"
     inkscape:window-maximized="1"
     inkscape:current-layer="svg5843" />
  <path
     fill="#662113"
     d="M22.088 32.83c0 1.997-1.619 2.712-3.616 2.712s-3.616-.715-3.616-2.712l.904-8.136c0-1.996.715-1.808 2.712-1.808c1.997 0 2.712-.188 2.712 1.808l.904 8.136z"
     id="path5809" />
  <path
     fill="#5C913B"
     d="M30.59 27.675c-6.294-5.392-8.843-13.112-12.118-13.112s-5.824 7.721-12.118 13.112c-2.645 2.266-1.385 3.577 2.241 3.314c3.232-.233 6.255-.966 9.877-.966s6.646.733 9.876.966c3.627.263 4.886-1.049 2.242-3.314z"
     id="path5811" />
  <path
     fill="#3E721D"
     d="M28.546 25.538c-4.837-4.435-7.555-10.787-10.074-10.787c-2.517 0-5.236 6.352-10.073 10.787c-3.844 3.524 5.037 4.315 10.073 0c5.034 4.316 13.917 3.524 10.074 0z"
     id="path5813" />
  <path
     fill="#5C913B"
     d="M28.546 21.945c-4.837-4.143-7.555-10.077-10.074-10.077c-2.517 0-5.236 5.934-10.073 10.077c-3.844 3.292 5.037 4.031 10.073 0c5.034 4.032 13.917 3.292 10.074 0z"
     id="path5815" />
  <path
     fill="#3E721D"
     d="M26.336 19.003c-3.775-3.235-5.897-7.868-7.864-7.868c-1.965 0-4.088 4.632-7.864 7.868c-3 2.57 3.932 3.147 7.864 0c3.93 3.146 10.865 2.57 7.864 0z"
     id="path5817" />
  <path
     fill="#5C913B"
     d="M26.336 16.311c-3.775-3.235-5.897-7.867-7.864-7.867c-1.965 0-4.088 4.632-7.864 7.867c-3 2.571 3.932 3.147 7.864 0c3.93 3.147 10.865 2.571 7.864 0z"
     id="path5819" />
  <path
     fill="#3E721D"
     d="M24.818 13.92c-3.047-2.61-4.76-6.349-6.347-6.349c-1.586 0-3.299 3.739-6.347 6.349c-2.422 2.075 3.174 2.54 6.347 0c3.174 2.54 8.77 2.075 6.347 0z"
     id="path5821" />
  <path
     fill="#5C913B"
     d="M24.818 11.894c-3.047-2.61-4.76-6.349-6.347-6.349c-1.586 0-3.299 3.739-6.347 6.349c-2.422 2.075 3.174 2.54 6.347 0c3.174 2.54 8.77 2.075 6.347 0z"
     id="path5823" />
  <path
     fill="#3E721D"
     d="M23.301 8.911C20.983 6.925 19.68 4.08 18.472 4.08c-1.207 0-2.511 2.845-4.83 4.831c-1.843 1.579 2.415 1.933 4.83 0c2.414 1.933 6.673 1.579 4.829 0z"
     id="path5825" />
  <path
     fill="#5C913B"
     d="M23.301 7.832C20.983 5.845 19.68 3 18.472 3c-1.207 0-2.511 2.845-4.83 4.832c-1.843 1.579 2.415 1.933 4.83 0c2.414 1.932 6.673 1.578 4.829 0z"
     id="path5827" />
  <circle
     fill="#FFCC4D"
     cx="16.5"
     cy="12.042"
     r="1.5"
     id="circle5829"
     style="fill:#f2f2f2" />
  <circle
     fill="#FFCC4D"
     cx="20"
     cy="25"
     r="2"
     id="circle5831"
     style="fill:#f9f9f9" />
  <circle
     fill="#DD2E44"
     cx="22.5"
     cy="15.5"
     r="2.5"
     id="circle5833"
     style="fill:#ffff81;fill-opacity:1" />
  <circle
     fill="#DD2E44"
     cx="10"
     cy="26"
     r="2"
     id="circle5835"
     style="fill:#f9f9f9" />
  <circle
     fill="#A6D388"
     cx="14"
     cy="19"
     r="2"
     id="circle5837"
     style="fill:#f9f9f9" />
  <circle
     fill="#A6D388"
     cx="26"
     cy="23"
     r="2"
     id="circle5839"
     style="fill:#f9f9f9" />
  <path
     fill="#FFAC33"
     d="M19.379 1.679c.143.275.512.549.817.609l1.379.269c.305.06.377.29.159.512l-.983 1.004c-.217.222-.365.657-.326.965l.17 1.394c.038.309-.159.448-.438.31L18.9 6.117c-.279-.138-.738-.144-1.02-.013l-1.274.594c-.282.13-.476-.014-.43-.322l.205-1.39c.045-.307-.091-.745-.302-.973l-.959-1.027c-.212-.227-.135-.457.172-.508l1.385-.234c.307-.051.681-.316.832-.588L18.19.427c.151-.272.394-.269.537.006l.652 1.246z"
     id="path5841" />
  <path
     style="fill:#ffff81;fill-opacity:1;stroke-width:0.0238867"
     d="m 16.080744,13.459254 c -0.427489,-0.159721 -0.709654,-0.40784 -0.916102,-0.805569 -0.09946,-0.191614 -0.115253,-0.273291 -0.116804,-0.604098 -0.0016,-0.331856 0.01343,-0.41353 0.113157,-0.616579 0.141738,-0.288595 0.411793,-0.56762 0.692606,-0.71561 0.188284,-0.09923 0.260977,-0.112049 0.637544,-0.112454 0.503385,-5.42e-4 0.727267,0.08563 1.04314,0.401503 0.315873,0.315872 0.402045,0.539755 0.401503,1.04314 -4.06e-4,0.377144 -0.01316,0.44919 -0.113198,0.639484 -0.150052,0.28543 -0.415026,0.543528 -0.702302,0.684079 -0.28263,0.138278 -0.78789,0.180128 -1.039544,0.0861 z"
     id="path1" />
  <path
     style="fill:#ffff81;fill-opacity:1;stroke-width:0.0238867"
     d="m 13.699941,20.950246 c -0.815463,-0.118064 -1.517572,-0.82663 -1.649364,-1.664532 -0.145428,-0.924606 0.421633,-1.838589 1.341246,-2.161807 0.485741,-0.170725 1.177487,-0.09267 1.626641,0.18354 1.06469,0.654743 1.267894,2.117758 0.421658,3.035816 -0.433289,0.470063 -1.094032,0.700533 -1.740181,0.606983 z"
     id="path2" />
  <path
     style="fill:#ffff81;fill-opacity:1;stroke-width:0.0238867"
     d="M 9.5260828,27.922097 C 9.2224502,27.84647 8.7831976,27.582017 8.5654105,27.343724 7.9847942,26.708437 7.8623645,25.857276 8.2427354,25.10041 8.3697529,24.84767 8.6470564,24.4817 8.7115462,24.4817 c 0.010202,0 0.1058623,-0.05893 0.2125788,-0.130949 0.9027659,-0.60927 2.130626,-0.337344 2.744834,0.60788 0.424288,0.65295 0.38689,1.573358 -0.08983,2.210975 -0.210478,0.281512 -0.561535,0.550474 -0.878402,0.672985 -0.276603,0.106944 -0.8961272,0.148877 -1.1746392,0.07951 z"
     id="path3" />
  <path
     style="fill:#ffff81;fill-opacity:1;stroke-width:0.0238867"
     d="m 19.557056,26.921945 c -0.576966,-0.139653 -1.107711,-0.577769 -1.359729,-1.122418 -0.108535,-0.23456 -0.130625,-0.34098 -0.145623,-0.701534 -0.0148,-0.355672 -0.0026,-0.469738 0.07482,-0.699005 0.187095,-0.554129 0.518495,-0.924019 1.062074,-1.185424 0.278366,-0.133866 0.365789,-0.154705 0.712636,-0.169875 0.328409,-0.01436 0.446959,-6.96e-4 0.700176,0.08072 0.54051,0.173798 1.034212,0.633946 1.228247,1.144772 0.434575,1.144078 -0.218989,2.373779 -1.410948,2.654744 -0.33031,0.07786 -0.533723,0.07739 -0.861656,-0.002 z"
     id="path4" />
  <path
     style="fill:#ffff81;fill-opacity:1;stroke-width:0.0238867"
     d="m 25.629712,24.941785 c -0.484771,-0.09244 -1.02368,-0.458018 -1.288967,-0.874383 -0.232913,-0.365555 -0.317232,-0.69808 -0.29537,-1.16484 0.01694,-0.361734 0.03744,-0.44868 0.17316,-0.734465 0.205356,-0.432421 0.514891,-0.741278 0.949984,-0.947903 0.283026,-0.134408 0.380066,-0.158308 0.706071,-0.173894 0.27404,-0.0131 0.453282,0.0023 0.651962,0.0561 0.933377,0.252653 1.581865,1.242001 1.426937,2.176965 -0.135777,0.819386 -0.763184,1.479176 -1.56894,1.64992 -0.323591,0.06857 -0.449837,0.07066 -0.754837,0.0125 z"
     id="path5" />
  <path
     style="fill:#ffff81;fill-opacity:1;stroke-width:0.0238867"
     d="M 19.492556,6.3831672 18.753707,6.0141676 h -0.366228 -0.366228 l -0.760396,0.3528965 c -1.131623,0.5251813 -1.138637,0.5200873 -0.96139,-0.6982164 0.177852,-1.222472 0.159705,-1.2795158 -0.702859,-2.209313 -0.604899,-0.6520474 -0.66414,-0.762126 -0.476181,-0.8848153 0.0526,-0.034333 0.449469,-0.1217279 0.881936,-0.1942114 0.868929,-0.1456364 1.075513,-0.2210507 1.333499,-0.4867972 0.09202,-0.094788 0.34289,-0.4879257 0.55749,-0.87364 0.424247,-0.76252523 0.523669,-0.86240686 0.699785,-0.70302406 0.04712,0.0426434 0.260853,0.41051648 0.474961,0.81749576 0.40705,0.7737227 0.551735,0.9511358 0.890317,1.091705 0.08002,0.03322 0.49932,0.1310698 0.931788,0.2174435 1.177818,0.2352375 1.182359,0.2499529 0.340786,1.1045307 -0.879468,0.8930587 -0.897614,0.9508117 -0.727594,2.3156359 0.07801,0.6262368 0.08048,0.7099583 0.02349,0.7969303 -0.04174,0.063704 -0.103602,0.096182 -0.179579,0.09428 -0.06375,-0.0016 -0.448386,-0.1689514 -0.854752,-0.3719008 z"
     id="path6" />
</svg>
