<?xml version="1.0" encoding="iso-8859-1"?>
<!-- Generator: Adobe Illustrator 19.1.0, SVG Export Plug-In . SVG Version: 6.00 Build 0)  -->
<svg version="1.1" id="Capa_1" xmlns="http://www.w3.org/2000/svg" xmlns:xlink="http://www.w3.org/1999/xlink" x="0px" y="0px"
	 viewBox="0 0 605.658 605.658" style="enable-background:new 0 0 605.658 605.658;" xml:space="preserve">
<g>
	<g>
		<path d="M438.975,242.866c0,39.101,42.282,103.09,50.759,115.52c3.799,5.569,10.104,8.903,16.848,8.903
			c6.744,0,13.047-3.334,16.848-8.903c8.475-12.429,50.759-76.419,50.759-115.52c0-31.433-13.426-58.266-33.739-72.493
			c1.438-2.794,2.266-5.957,2.266-9.313c0-8.532-5.245-15.831-12.686-18.873c13.904-3.713,27.02-7.78,39.18-12.193
			c10.586-3.84,16.055-15.533,12.215-26.123c-3.84-10.582-15.529-16.053-26.123-12.213c-63.635,23.08-155.96,36.319-253.293,36.319
			c-97.35,0-189.679-13.237-253.31-36.319c-10.59-3.85-22.285,1.631-26.125,12.213c-3.84,10.588,1.629,22.283,12.215,26.123
			c12.466,4.523,25.933,8.687,40.234,12.478c-7.99,2.761-13.74,10.329-13.74,19.257c0,3.161,0.74,6.142,2.023,8.812
			c-20.172,14.271-33.497,41.02-33.497,72.326c0,39.101,42.278,103.088,50.751,115.52c3.799,5.569,10.109,8.903,16.852,8.903
			c6.74,0,13.047-3.334,16.844-8.903c8.475-12.429,50.759-76.419,50.759-115.52c0-31.307-13.322-58.055-33.501-72.324
			c1.283-2.671,2.023-5.651,2.023-8.812c0-2.402-0.438-4.698-1.199-6.84c45.753,7.969,96.673,12.698,149.271,13.673v35.65
			c-9.018,2.111-15.737,10.18-15.737,19.84c0,3.357,0.828,6.519,2.266,9.313c-20.313,14.23-33.748,41.064-33.748,72.495
			c0,39.094,42.29,103.094,50.769,115.526c3.799,5.571,10.104,8.903,16.848,8.903s13.051-3.336,16.848-8.907
			c8.475-12.431,50.747-76.431,50.747-115.522c0-31.437-13.431-58.274-33.743-72.502c1.438-2.794,2.262-5.951,2.262-9.307
			c0-9.658-6.719-17.727-15.733-19.84v-35.648c52.494-0.975,103.317-5.683,149-13.628c-0.61,1.933-0.94,3.989-0.94,6.122
			c0,3.359,0.828,6.517,2.266,9.311C452.405,184.6,438.975,211.433,438.975,242.866z M506.576,308.413
			c-13.957-24.222-26.82-51.595-26.82-65.548c0-25.107,14.136-42.606,26.824-42.606c12.69,0,26.824,17.497,26.824,42.606
			C533.407,256.784,520.533,284.169,506.576,308.413z M97.413,308.397c-13.953-24.239-26.82-51.616-26.82-65.531
			c0-25.107,14.136-42.606,26.82-42.606s26.82,17.497,26.82,42.606C124.233,256.782,111.365,284.159,97.413,308.397z M302.007,371.4
			c-13.957-24.245-26.832-51.624-26.832-65.537c0-25.109,14.144-42.608,26.837-42.608c12.682,0,26.812,17.497,26.812,42.608
			C328.823,319.776,315.959,347.157,302.007,371.4z"/>
		<path d="M302.007,442.953c-11.259,0-20.393,9.132-20.393,20.39v31.498c0,11.261,9.134,20.39,20.393,20.39
			c11.259,0,20.388-9.13,20.388-20.39v-31.498C322.395,452.085,313.265,442.953,302.007,442.953z"/>
		<path d="M231.94,420.615l-22.256,22.273c-7.961,7.967-7.957,20.878,0.008,28.839c3.983,3.979,9.197,5.969,14.413,5.969
			c5.223,0,10.439-1.992,14.422-5.977l22.26-22.273c7.961-7.967,7.957-20.876-0.008-28.839
			C252.81,412.65,239.905,412.656,231.94,420.615z"/>
		<path d="M371.977,420.619c-7.961-7.967-20.874-7.971-28.837-0.012c-7.965,7.959-7.969,20.87-0.012,28.837l22.252,22.273
			c3.983,3.985,9.205,5.979,14.426,5.979c5.214,0,10.431-1.99,14.413-5.967c7.961-7.961,7.969-20.87,0.012-28.839L371.977,420.619z"
			/>
		<path d="M507.461,379.965c-11.259,0-20.393,9.132-20.393,20.39v31.496c0,11.259,9.134,20.39,20.393,20.39
			s20.392-9.132,20.392-20.39v-31.496C527.854,389.094,518.72,379.965,507.461,379.965z"/>
		<path d="M599.693,379.897l-22.252-22.273c-7.957-7.965-20.866-7.971-28.833-0.014c-7.969,7.959-7.974,20.868-0.016,28.837
			l22.252,22.273c3.979,3.987,9.201,5.981,14.422,5.981c5.218,0,10.431-1.99,14.409-5.967
			C607.648,400.775,607.652,387.867,599.693,379.897z"/>
		<path d="M98.285,383.78c-11.263,0-20.393,9.132-20.393,20.39v31.498c0,11.259,9.13,20.39,20.393,20.39
			c11.259,0,20.388-9.132,20.388-20.39v-31.498C118.674,392.91,109.544,383.78,98.285,383.78z"/>
		<path d="M28.233,361.436L5.968,383.711c-7.961,7.965-7.957,20.874,0.008,28.837c3.979,3.981,9.197,5.971,14.413,5.971
			s10.439-1.992,14.422-5.977l22.265-22.275c7.957-7.965,7.957-20.874-0.008-28.837C49.107,353.469,36.194,353.469,28.233,361.436z"
			/>
	</g>
</g>
<g>
</g>
<g>
</g>
<g>
</g>
<g>
</g>
<g>
</g>
<g>
</g>
<g>
</g>
<g>
</g>
<g>
</g>
<g>
</g>
<g>
</g>
<g>
</g>
<g>
</g>
<g>
</g>
<g>
</g>
</svg>
