<?xml version="1.0" encoding="iso-8859-1"?>
<!-- Generator: Adobe Illustrator 19.0.0, SVG Export Plug-In . SVG Version: 6.00 Build 0)  -->
<svg version="1.1" id="Layer_1" xmlns="http://www.w3.org/2000/svg" xmlns:xlink="http://www.w3.org/1999/xlink" x="0px" y="0px"
	 viewBox="0 0 512 512" style="enable-background:new 0 0 512 512;" xml:space="preserve">
<g>
	<g>
		<path d="M473.967,453.641c-28.433-18.423-50.645-36.582-63.403-47.71c15.693-8.03,23.56-26.121,23.987-27.136
			c0.981-2.304,0.896-4.924-0.23-7.159c-1.118-2.236-3.166-3.874-5.598-4.463c-11.469-2.79-29.875-17.203-43.127-28.809
			c18.603-5.018,35.9-14.66,36.855-15.189c3.166-1.784,4.855-5.376,4.216-8.951c-0.64-3.567-3.473-6.349-7.057-6.921
			c-12.493-1.988-43.836-29.448-67.319-52.531c11.836-2.884,19.755-8.61,20.241-8.977c2.722-2.005,4.002-5.427,3.26-8.738
			c-0.742-3.302-3.371-5.862-6.699-6.502c-8.542-1.664-22.784-14.43-34.304-26.701c16.836-2.389,28.817-8.124,29.474-8.448
			c2.807-1.365,4.634-4.139,4.796-7.253c0.154-3.106-1.399-6.05-4.045-7.689c-38.033-23.458-70.647-84.267-85.299-114.961
			c5.427-3.635,11.947-5.769,18.953-5.769c4.71,0,8.533-3.823,8.533-8.533c0-4.719-3.823-8.533-8.533-8.533
			c-18.825,0-34.133-15.309-34.133-34.133C264.533,3.814,260.71,0,256,0c-4.71,0-8.533,3.814-8.533,8.533
			c0,18.825-15.309,34.133-34.133,34.133c-4.71,0-8.533,3.814-8.533,8.533c0,4.71,3.823,8.533,8.533,8.533
			c7.006,0,13.525,2.133,18.953,5.769c-14.66,30.694-47.275,91.511-85.299,114.961c-2.645,1.638-4.198,4.582-4.045,7.689
			c0.162,3.115,1.988,5.888,4.787,7.253c0.666,0.316,12.646,6.059,29.474,8.448c-11.836,12.561-26.095,25.105-34.295,26.701
			c-3.328,0.64-5.956,3.2-6.699,6.502c-0.742,3.311,0.538,6.733,3.26,8.738c0.486,0.367,8.405,6.093,20.233,8.977
			c-24.328,23.885-55.364,50.637-67.311,52.531c-3.584,0.572-6.417,3.354-7.057,6.921c-0.64,3.576,1.05,7.168,4.215,8.951
			c0.956,0.529,18.253,10.172,36.847,15.189c-13.244,11.605-31.65,26.018-43.119,28.809c-2.432,0.589-4.48,2.227-5.598,4.463
			c-1.126,2.236-1.212,4.855-0.23,7.159c0.427,1.016,8.286,19.115,23.996,27.145c-12.74,11.11-34.935,29.244-63.411,47.701
			c-3.14,2.022-4.591,5.854-3.584,9.446c0.998,3.601,4.233,6.127,7.962,6.246c3.26,0.077,60.151,1.613,109.687-9.225
			c-7.62,5.393-13.696,8.96-16.503,9.267c-4.523,0.503-7.851,4.463-7.578,8.994c0.265,4.506,4.002,8.03,8.516,8.03h0.068
			c2.603-0.026,59.725-0.759,89.284-22.673c1.297,1.084,2.867,2.27,4.514,3.456v27.75h-17.067c-4.71,0-8.533,3.814-8.533,8.533
			c0,4.71,3.823,8.533,8.533,8.533H230.4h51.2h17.067c4.71,0,8.533-3.823,8.533-8.533c0-4.719-3.823-8.533-8.533-8.533H281.6v-27.75
			c1.647-1.186,3.217-2.372,4.514-3.456c29.559,21.914,86.682,22.647,89.284,22.673h0.068c4.514,0,8.252-3.524,8.525-8.03
			c0.265-4.531-3.063-8.491-7.578-8.994c-2.807-0.307-8.883-3.874-16.503-9.259c49.536,10.82,106.419,9.267,109.679,9.216
			c3.729-0.119,6.963-2.645,7.962-6.246C478.558,459.494,477.107,455.663,473.967,453.641z M256,36.804
			c3.789,5.7,8.695,10.598,14.396,14.396c-2.236,1.485-4.241,3.268-6.212,5.077c-0.307,0.23-0.64,0.427-0.922,0.691
			c-0.094,0.094-0.171,0.188-0.256,0.282c-0.486,0.469-0.913,0.981-1.374,1.468c-1.988,2.082-3.823,4.267-5.402,6.596
			c-0.068,0.094-0.162,0.171-0.23,0.273c-0.068-0.102-0.162-0.179-0.222-0.273c-1.596-2.338-3.439-4.54-5.436-6.63
			c-0.444-0.469-0.862-0.964-1.331-1.425c-0.094-0.085-0.171-0.196-0.273-0.29c-0.307-0.29-0.666-0.512-1.007-0.759
			c-1.946-1.784-3.917-3.55-6.127-5.009C247.305,47.403,252.211,42.505,256,36.804z M221.867,160.503
			c0-8.516,6.929-15.437,15.445-15.437h11.776c8.516,0,15.445,6.921,15.445,15.437v11.785c0,8.516-6.929,15.445-15.445,15.445
			h-11.776c-8.516,0-15.445-6.929-15.445-15.445V160.503z M204.8,394.155c0,8.516-6.929,15.445-15.445,15.445h-11.776
			c-8.516,0-15.445-6.929-15.445-15.445V382.37c0-8.516,6.929-15.437,15.445-15.437h11.776c8.516,0,15.445,6.921,15.445,15.437
			V394.155z M214.955,307.2h-11.776c-8.516,0-15.445-6.929-15.445-15.445V279.97c0-8.516,6.929-15.437,15.445-15.437h11.776
			c8.516,0,15.445,6.921,15.445,15.437v11.785C230.4,300.271,223.471,307.2,214.955,307.2z M264.533,494.933h-17.067v-18.893
			c2.406,0.776,4.813,1.348,7.219,1.724l1.314,0.196l1.314-0.196c2.406-0.375,4.813-0.947,7.219-1.724V494.933z M273.067,351.488
			c0,8.516-6.929,15.445-15.445,15.445h-11.776c-8.516,0-15.445-6.929-15.445-15.445v-11.785c0-8.516,6.929-15.437,15.445-15.437
			h11.776c8.516,0,15.445,6.921,15.445,15.437V351.488z M290.133,249.088c0,8.516-6.929,15.445-15.445,15.445h-11.776
			c-8.516,0-15.445-6.929-15.445-15.445v-11.784c0-8.516,6.929-15.437,15.445-15.437h11.776c8.516,0,15.445,6.921,15.445,15.437
			V249.088z M341.333,402.688c0,8.516-6.929,15.445-15.445,15.445h-11.776c-8.516,0-15.445-6.929-15.445-15.445v-11.785
			c0-8.516,6.929-15.437,15.445-15.437h11.776c8.516,0,15.445,6.921,15.445,15.437V402.688z M341.333,308.821
			c0,8.516-6.929,15.445-15.445,15.445h-11.776c-8.516,0-15.445-6.929-15.445-15.445v-11.785c0-8.516,6.929-15.437,15.445-15.437
			h11.776c8.516,0,15.445,6.921,15.445,15.437V308.821z"/>
	</g>
</g>
<g>
</g>
<g>
</g>
<g>
</g>
<g>
</g>
<g>
</g>
<g>
</g>
<g>
</g>
<g>
</g>
<g>
</g>
<g>
</g>
<g>
</g>
<g>
</g>
<g>
</g>
<g>
</g>
<g>
</g>
</svg>
