<?xml version="1.0" encoding="iso-8859-1"?>
<!-- Generator: Adobe Illustrator 18.0.0, SVG Export Plug-In . SVG Version: 6.00 Build 0)  -->
<!DOCTYPE svg PUBLIC "-//W3C//DTD SVG 1.1//EN" "http://www.w3.org/Graphics/SVG/1.1/DTD/svg11.dtd">
<svg version="1.1" id="Capa_1" xmlns="http://www.w3.org/2000/svg" xmlns:xlink="http://www.w3.org/1999/xlink" x="0px" y="0px"
	 viewBox="0 0 297 297" style="enable-background:new 0 0 297 297;" xml:space="preserve">
<path d="M268.347,249.814l-33.065-55.118c2.232-0.786,4.158-2.337,5.361-4.461c1.764-3.116,1.716-6.939-0.127-10.011l-33.056-55.104
	c3.876-1.355,6.661-5.035,6.661-9.374c0-2.277-0.766-4.375-2.054-6.052l-41.075-60.552c4.504-5.212,7.237-11.996,7.237-19.41
	C178.23,13.338,164.894,0,148.5,0s-29.73,13.338-29.73,29.731c0,7.414,2.733,14.198,7.238,19.411l-41.395,61.021
	c-2.067,3.047-2.28,6.984-0.558,10.235c1.189,2.243,3.174,3.886,5.494,4.702l-33.065,55.122c-1.843,3.071-1.891,6.895-0.127,10.011
	c1.203,2.124,3.129,3.675,5.361,4.461l-33.064,55.118c-1.843,3.071-1.891,6.895-0.126,10.011c1.765,3.116,5.068,5.042,8.649,5.042
	h85.549v22.194c0,5.489,4.451,9.94,9.94,9.94h31.666c5.489,0,9.941-4.45,9.941-9.94v-22.194h85.551c3.581,0,6.885-1.926,8.65-5.042
	C270.237,256.708,270.189,252.885,268.347,249.814z M148.5,19.879c5.432,0,9.852,4.42,9.852,9.852c0,5.434-4.42,9.855-9.852,9.855
	s-9.852-4.422-9.852-9.855C138.648,24.299,143.068,19.879,148.5,19.879z M143.337,59.008c1.679,0.295,3.401,0.458,5.163,0.458
	s3.485-0.163,5.164-0.458l31.745,46.798h-73.818L143.337,59.008z M112.381,125.685h72.237l29.822,49.713H82.56L112.381,125.685z
	 M154.393,277.121h-11.787v-12.255h11.787V277.121z M54.729,244.987l29.821-49.711h127.898l29.821,49.711H54.729z"/>
<g>
</g>
<g>
</g>
<g>
</g>
<g>
</g>
<g>
</g>
<g>
</g>
<g>
</g>
<g>
</g>
<g>
</g>
<g>
</g>
<g>
</g>
<g>
</g>
<g>
</g>
<g>
</g>
<g>
</g>
</svg>
