<?xml version="1.0" encoding="UTF-8" standalone="no"?>
<!-- Uploaded to: SVG Repo, www.svgrepo.com, Generator: SVG Repo Mixer Tools -->

<svg
   version="1.1"
   id="Layer_1"
   viewBox="0 0 512 512"
   xml:space="preserve"
   sodipodi:docname="cinema-screen-off.svg"
   inkscape:version="1.2 (dc2aedaf03, 2022-05-15)"
   xmlns:inkscape="http://www.inkscape.org/namespaces/inkscape"
   xmlns:sodipodi="http://sodipodi.sourceforge.net/DTD/sodipodi-0.dtd"
   xmlns="http://www.w3.org/2000/svg"
   xmlns:svg="http://www.w3.org/2000/svg"><defs
   id="defs57" /><sodipodi:namedview
   id="namedview55"
   pagecolor="#ffffff"
   bordercolor="#000000"
   borderopacity="0.25"
   inkscape:showpageshadow="2"
   inkscape:pageopacity="0.0"
   inkscape:pagecheckerboard="0"
   inkscape:deskcolor="#d1d1d1"
   showgrid="false"
   inkscape:zoom="1.6542969"
   inkscape:cx="165.32704"
   inkscape:cy="256.30224"
   inkscape:window-width="1920"
   inkscape:window-height="1027"
   inkscape:window-x="-8"
   inkscape:window-y="-8"
   inkscape:window-maximized="1"
   inkscape:current-layer="Layer_1" />
<g
   id="g8">
	<path
   style="fill:#FF5023;"
   d="M313.837,463.145v-64.631c0-15.273,10.574-27.655,23.616-27.655h58.798h16.464   c13.042,0,23.616,12.381,23.616,27.655v64.631H313.837z"
   id="path2" />
	<path
   style="fill:#FF5023;"
   d="M191.342,463.145v-64.631c0-15.273,10.574-27.655,23.616-27.655h54.899h20.364   c13.042,0,23.616,12.381,23.616,27.655v64.631H191.342z"
   id="path4" />
	<path
   style="fill:#FF5023;"
   d="M68.848,463.145v-64.631c0-15.273,10.574-27.655,23.616-27.655h57.757h17.505   c13.042,0,23.616,12.381,23.616,27.655v64.631H68.848z"
   id="path6" />
</g>
<g
   id="g18">
	<path
   style="fill:#891C00;"
   d="M167.312,370.859h-17.505h-7.036c13.043,0,23.616,10.574,23.616,23.616v55.193h24.542v-55.193   C190.928,381.432,180.355,370.859,167.312,370.859z"
   id="path10" />
	<path
   style="fill:#891C00;"
   d="M290.221,370.859h-17.505h-7.036c13.043,0,23.616,10.574,23.616,23.616v55.193h24.542v-55.193   C313.837,381.432,303.263,370.859,290.221,370.859z"
   id="path12" />
	<path
   style="fill:#891C00;"
   d="M412.716,370.859H395.21h-7.036c13.043,0,23.616,10.574,23.616,23.616v55.193h24.542v-55.193   C436.331,381.432,425.758,370.859,412.716,370.859z"
   id="path14" />
	<rect
   x="68.848"
   y="417.001"
   style="opacity:0.22;fill:#891C00;enable-background:new    ;"
   width="364.625"
   height="56.857"
   id="rect16" />
</g>
<g
   id="g26">
	<path
   style="fill:#FF5023;"
   d="M252.589,508.198H130.095v-45.053c0-13.042,10.574-23.616,23.616-23.616h75.262   c13.042,0,23.616,10.574,23.616,23.616v45.053H252.589z"
   id="path20" />
	<path
   style="fill:#FF5023;"
   d="M375.084,508.198H252.589v-45.053c0-13.042,10.574-23.616,23.616-23.616h75.262   c13.042,0,23.616,10.574,23.616,23.616v45.053H375.084z"
   id="path22" />
	<path
   style="fill:#FF5023;"
   d="M497.578,508.198H375.083v-45.053c0-13.042,10.574-23.616,23.616-23.616h75.262   c13.042,0,23.616,10.574,23.616,23.616v45.053H497.578z"
   id="path24" />
</g>
<polygon
   style="fill:#77757E;"
   points="68.848,10.392 504.393,10.392 504.393,311.173 7.601,311.173 7.601,10.392 "
   id="polygon28" />

<path
   style="fill:#77757E;"
   d="M255.419,253.887c-51.338,0-93.103-41.766-93.103-93.104s41.765-93.104,93.103-93.104  c23.718,0,46.311,8.922,63.616,25.123c3.065,2.869,3.224,7.681,0.354,10.748c-2.867,3.065-7.68,3.224-10.748,0.354  c-14.476-13.552-33.378-21.016-53.222-21.016c-42.951,0-77.895,34.944-77.895,77.896s34.944,77.896,77.895,77.896  c38.254,0,71.371-28.478,77.032-66.243c0.623-4.154,4.492-7.013,8.646-6.393c4.154,0.623,7.016,4.494,6.393,8.646  c-3.273,21.828-14.297,41.861-31.043,56.408C299.528,245.793,277.855,253.887,255.419,253.887z"
   id="path32" />

<path
   style="fill:#FF5023;"
   d="M130.095,508.198H7.601v-45.053c0-13.042,10.574-23.616,23.616-23.616h75.262  c13.042,0,23.616,10.574,23.616,23.616L130.095,508.198L130.095,508.198z"
   id="path40" />
<g
   id="g50">
	<path
   style="fill:#891C00;"
   d="M106.48,439.529H81.846c13.042,0,23.616,10.574,23.616,23.616v45.054h24.634v-45.054   C130.095,450.101,119.522,439.529,106.48,439.529z"
   id="path42" />
	<path
   style="fill:#891C00;"
   d="M229.02,439.529h-24.634c13.042,0,23.616,10.574,23.616,23.616v45.054h24.634v-45.054   C252.636,450.101,242.062,439.529,229.02,439.529z"
   id="path44" />
	<path
   style="fill:#891C00;"
   d="M351.514,439.529H326.88c13.042,0,23.616,10.574,23.616,23.616v45.054h24.634v-45.054   C375.13,450.101,364.557,439.529,351.514,439.529z"
   id="path46" />
	<path
   style="fill:#891C00;"
   d="M473.962,439.529h-24.634c13.042,0,23.616,10.574,23.616,23.616v45.054h24.634v-45.054   C497.578,450.101,487.005,439.529,473.962,439.529z"
   id="path48" />
</g>
<path
   style="fill:#77757E;"
   d="M256.215,107.068c16.401,0,31.67,10.746,31.67,28.701c0,30.539-44.819,40.436-44.819,55.14v3.393  h39.305c3.109,0,5.796,3.676,5.796,7.918c0,4.242-2.686,8.2-5.796,8.2h-50.333c-3.251,0-8.058-2.262-8.058-5.797V190.91  c0-22.621,45.524-34.639,45.524-54.574c0-5.796-3.817-12.582-13.149-12.582c-6.928,0-12.583,3.675-12.583,12.441  c0,3.393-3.534,6.786-9.613,6.786c-4.807,0-8.342-2.262-8.342-9.897C225.817,116.966,240.521,107.068,256.215,107.068z"
   id="path52" />
<path
   style="fill:#333333;stroke-width:0.604486"
   d="M 8.1605667,160.79339 V 10.578512 H 256 503.83943 V 160.79339 311.00826 H 256 8.1605667 Z"
   id="path576" /><path
   style="fill:#a02c2c;stroke-width:0.604486"
   d="m 69.213695,405.73739 c 0,-15.34015 1.701712,-21.1693 8.082176,-27.68519 3.653159,-3.7307 7.5102,-5.74823 12.553842,-6.56663 4.94796,-0.80288 50.215817,-0.80688 55.831517,-0.005 8.18357,1.16863 14.56986,5.85573 18.08514,13.27325 l 1.86291,3.93089 0.18217,14.05431 0.18218,14.05431 H 117.60366 69.213695 Z"
   id="path578" /><path
   style="fill:#a02c2c;stroke-width:0.604486"
   d="m 191.93161,405.15702 c 0.008,-12.58682 0.44185,-15.35366 3.28766,-20.95534 2.11783,-4.16872 7.0253,-9.06399 10.89958,-10.87248 4.88707,-2.28126 9.8194,-2.5881 37.76509,-2.34942 25.71668,0.21966 26.40139,0.25651 29.79855,1.60385 6.52219,2.58675 11.23176,7.35497 13.88656,14.05946 1.14129,2.88225 1.31673,4.77493 1.54802,16.70048 l 0.26086,13.44982 h -48.72674 -48.72675 z"
   id="path649" /><path
   style="fill:#a02c2c;stroke-width:0.604486"
   d="m 314.17622,404.55254 c 0.28977,-13.15416 0.83888,-15.91083 4.36927,-21.93499 2.1954,-3.74617 7.65201,-8.4458 11.65724,-10.04007 3.39522,-1.35146 4.06034,-1.38764 29.413,-1.60004 28.21799,-0.2364 33.75008,0.13333 38.78375,2.59211 4.30419,2.10245 8.57586,6.53276 10.7855,11.18606 l 1.86579,3.92916 0.19131,14.05431 0.19132,14.05431 h -48.76342 -48.76341 z"
   id="path651" /><path
   style="fill:#a02c2c;stroke-width:0.604486"
   d="m 8.2928404,482.51728 0.1699695,-25.55356 1.9830621,-4.02688 c 3.104406,-6.30391 9.004454,-10.93706 15.975378,-12.54503 1.503651,-0.34685 14.16579,-0.60459 30.12235,-0.61316 22.947477,-0.0123 28.126771,0.14112 31.125072,0.92208 6.670743,1.7375 12.309532,6.48497 15.314558,12.89379 l 1.59292,3.39722 0.16997,25.53955 0.16997,25.53955 H 56.519481 8.1228708 Z"
   id="path653" /><path
   style="fill:#a02c2c;stroke-width:0.604486"
   d="m 130.38728,482.83353 0.18179,-25.23731 1.91888,-4.05049 c 2.4413,-5.15325 6.40748,-9.11943 11.56073,-11.56074 l 4.05049,-1.91887 h 30.86016 30.86016 l 4.61393,2.28033 c 5.25027,2.59482 8.57643,5.93953 11.18327,11.24566 l 1.6702,3.39963 0.17584,25.53955 0.17583,25.53955 h -48.71654 -48.71654 z"
   id="path655" /><path
   style="fill:#a02c2c;stroke-width:0.604486"
   d="m 253.10398,482.53129 0.17583,-25.53955 1.59292,-3.39722 c 2.94552,-6.28189 8.45618,-10.98534 15.11035,-12.89695 2.97204,-0.85381 7.11899,-0.95334 32.64227,-0.78338 21.30328,0.14186 29.84424,0.39927 31.47276,0.94856 5.95294,2.00788 12.03027,7.86564 14.53855,14.01328 1.31813,3.23068 1.36169,4.02965 1.54083,28.25974 l 0.18436,24.93507 h -48.71686 -48.71685 z"
   id="path657" /><path
   style="fill:#a02c2c;stroke-width:0.604486"
   d="m 375.55114,484.68375 c -0.17764,-25.16818 0.10111,-28.48374 2.7789,-33.05304 2.11223,-3.60425 7.08807,-8.05026 11.12964,-9.94454 l 3.45649,-1.62005 h 30.52657 c 34.20512,0 33.69876,-0.0562 39.56692,4.38982 3.8371,2.90718 6.54905,6.48193 8.13677,10.72548 1.20132,3.21084 1.25971,4.51451 1.25971,28.12815 v 24.76127 h -48.34496 -48.34497 z"
   id="path659" /><path
   style="fill:#c83737;stroke-width:0.604486"
   d="m 129.67824,457.89847 c -0.078,-4.25179 -5.94096,-12.30109 -11.20839,-15.38801 -4.84841,-2.84136 -8.50595,-3.38097 -22.658752,-3.34292 -7.148052,0.0192 -16.056671,0.0252 -19.79693,0.0134 l -6.800473,-0.0215 v -10.88076 -10.88076 h 48.358915 48.35891 v 10.80595 10.80596 l -8.91617,0.2827 c -7.91327,0.2509 -9.29014,0.45482 -12.24085,1.81292 -7.02089,3.23144 -11.31877,7.87614 -13.88065,15.00072 -0.82067,2.28228 -1.19646,2.83638 -1.21561,1.79235 z"
   id="path661" /><path
   style="fill:#c83737;stroke-width:0.604486"
   d="m 252.27084,458.05986 c -0.90406,-6.01725 -6.82984,-13.60866 -12.78785,-16.38227 -4.59993,-2.14138 -8.29317,-2.56481 -21.86788,-2.50715 -6.98182,0.0297 -15.61842,0.0393 -19.19244,0.0214 l -6.49823,-0.0325 v -10.88076 -10.88076 h 48.66116 48.66115 v 10.88076 10.88076 h -7.22408 c -3.97325,0 -8.66557,0.30158 -10.42739,0.67019 -6.83693,1.43043 -13.92134,6.78959 -16.46273,12.45361 -0.56527,1.25983 -1.2718,2.83464 -1.57006,3.49957 -0.29826,0.66494 -0.62439,2.02503 -0.72475,3.02243 -0.16039,1.59411 -0.22896,1.50396 -0.5669,-0.74533 z"
   id="path732" /><path
   style="fill:#c83737;stroke-width:0.604486"
   d="m 374.95151,458.15179 c -0.1815,-0.30556 -0.5167,-1.4264 -0.7449,-2.49075 -0.64512,-3.00896 -4.74855,-8.87243 -7.88539,-11.26759 -5.83812,-4.45773 -7.89459,-4.88905 -24.1819,-5.07179 -7.97923,-0.0895 -17.56789,-0.16266 -21.30815,-0.16252 l -6.80047,2.5e-4 v -10.88076 -10.88076 h 48.66115 48.66116 v 10.79984 10.79984 l -9.21842,0.28638 c -8.5721,0.2663 -9.47244,0.40708 -12.84156,2.00798 -6.27538,2.98186 -11.47517,8.82536 -13.27384,14.91709 -0.40572,1.3741 -0.88618,2.24836 -1.06768,1.94279 z"
   id="path734" /></svg>
