<?xml version="1.0" encoding="UTF-8" standalone="no"?>
<!-- Uploaded to: SVG Repo, www.svgrepo.com, Generator: SVG Repo Mixer Tools -->

<svg
   version="1.1"
   id="Layer_1"
   viewBox="0 0 512 512"
   xml:space="preserve"
   sodipodi:docname="cinema-screen-on.svg"
   inkscape:version="1.2 (dc2aedaf03, 2022-05-15)"
   xmlns:inkscape="http://www.inkscape.org/namespaces/inkscape"
   xmlns:sodipodi="http://sodipodi.sourceforge.net/DTD/sodipodi-0.dtd"
   xmlns="http://www.w3.org/2000/svg"
   xmlns:svg="http://www.w3.org/2000/svg"><defs
   id="defs57" /><sodipodi:namedview
   id="namedview55"
   pagecolor="#ffffff"
   bordercolor="#000000"
   borderopacity="0.25"
   inkscape:showpageshadow="2"
   inkscape:pageopacity="0.0"
   inkscape:pagecheckerboard="0"
   inkscape:deskcolor="#d1d1d1"
   showgrid="false"
   inkscape:zoom="1.6542969"
   inkscape:cx="165.32704"
   inkscape:cy="256.30224"
   inkscape:window-width="1920"
   inkscape:window-height="1027"
   inkscape:window-x="-8"
   inkscape:window-y="-8"
   inkscape:window-maximized="1"
   inkscape:current-layer="Layer_1" />
<g
   id="g8">
	<path
   style="fill:#FF5023;"
   d="M313.837,463.145v-64.631c0-15.273,10.574-27.655,23.616-27.655h58.798h16.464   c13.042,0,23.616,12.381,23.616,27.655v64.631H313.837z"
   id="path2" />
	<path
   style="fill:#FF5023;"
   d="M191.342,463.145v-64.631c0-15.273,10.574-27.655,23.616-27.655h54.899h20.364   c13.042,0,23.616,12.381,23.616,27.655v64.631H191.342z"
   id="path4" />
	<path
   style="fill:#FF5023;"
   d="M68.848,463.145v-64.631c0-15.273,10.574-27.655,23.616-27.655h57.757h17.505   c13.042,0,23.616,12.381,23.616,27.655v64.631H68.848z"
   id="path6" />
</g>
<g
   id="g18">
	<path
   style="fill:#891C00;"
   d="M167.312,370.859h-17.505h-7.036c13.043,0,23.616,10.574,23.616,23.616v55.193h24.542v-55.193   C190.928,381.432,180.355,370.859,167.312,370.859z"
   id="path10" />
	<path
   style="fill:#891C00;"
   d="M290.221,370.859h-17.505h-7.036c13.043,0,23.616,10.574,23.616,23.616v55.193h24.542v-55.193   C313.837,381.432,303.263,370.859,290.221,370.859z"
   id="path12" />
	<path
   style="fill:#891C00;"
   d="M412.716,370.859H395.21h-7.036c13.043,0,23.616,10.574,23.616,23.616v55.193h24.542v-55.193   C436.331,381.432,425.758,370.859,412.716,370.859z"
   id="path14" />
	<rect
   x="68.848"
   y="417.001"
   style="opacity:0.22;fill:#891C00;enable-background:new    ;"
   width="364.625"
   height="56.857"
   id="rect16" />
</g>
<g
   id="g26">
	<path
   style="fill:#FF5023;"
   d="M252.589,508.198H130.095v-45.053c0-13.042,10.574-23.616,23.616-23.616h75.262   c13.042,0,23.616,10.574,23.616,23.616v45.053H252.589z"
   id="path20" />
	<path
   style="fill:#FF5023;"
   d="M375.084,508.198H252.589v-45.053c0-13.042,10.574-23.616,23.616-23.616h75.262   c13.042,0,23.616,10.574,23.616,23.616v45.053H375.084z"
   id="path22" />
	<path
   style="fill:#FF5023;"
   d="M497.578,508.198H375.083v-45.053c0-13.042,10.574-23.616,23.616-23.616h75.262   c13.042,0,23.616,10.574,23.616,23.616v45.053H497.578z"
   id="path24" />
</g>
<polygon
   style="fill:#77757E;"
   points="68.848,10.392 504.393,10.392 504.393,311.173 7.601,311.173 7.601,10.392 "
   id="polygon28" />
<circle
   style="fill:#D7D5D9;"
   cx="256"
   cy="160.778"
   r="113.228"
   id="circle30" />
<path
   style="fill:#77757E;"
   d="M255.419,253.887c-51.338,0-93.103-41.766-93.103-93.104s41.765-93.104,93.103-93.104  c23.718,0,46.311,8.922,63.616,25.123c3.065,2.869,3.224,7.681,0.354,10.748c-2.867,3.065-7.68,3.224-10.748,0.354  c-14.476-13.552-33.378-21.016-53.222-21.016c-42.951,0-77.895,34.944-77.895,77.896s34.944,77.896,77.895,77.896  c38.254,0,71.371-28.478,77.032-66.243c0.623-4.154,4.492-7.013,8.646-6.393c4.154,0.623,7.016,4.494,6.393,8.646  c-3.273,21.828-14.297,41.861-31.043,56.408C299.528,245.793,277.855,253.887,255.419,253.887z"
   id="path32" />
<g
   id="g38">
	<path
   style="fill:#3E3B43;"
   d="M504.396,153.179H368.07c-4.2,0-7.604,3.404-7.604,7.604c0,57.923-47.123,105.046-105.047,105.046   c-57.907,0-105.02-47.098-105.046-105c0-0.016,0.002-0.031,0.002-0.047c0-0.015-0.002-0.031-0.002-0.047   c0.025-57.903,47.138-105.001,105.046-105.001c30.668,0,59.73,13.358,79.731,36.647c2.736,3.185,7.538,3.552,10.723,0.814   c3.186-2.735,3.551-7.537,0.814-10.723c-21.106-24.576-51.03-39.479-83.083-41.659v-29.41c0-4.2-3.404-7.604-7.604-7.604   c-4.2,0-7.604,3.404-7.604,7.604v29.332c-60.534,3.504-109.193,51.984-112.985,112.441H7.604c-4.2,0-7.604,3.404-7.604,7.604   c0,4.2,3.404,7.604,7.604,7.604h127.807c3.792,60.458,52.451,108.935,112.985,112.439v29.333c0,4.2,3.404,7.604,7.604,7.604   c4.2,0,7.604-3.404,7.604-7.604v-29.404c59.994-4.052,108.066-52.297,111.833-112.368h128.959c4.2,0,7.604-3.404,7.604-7.604   C512,156.582,508.596,153.179,504.396,153.179z"
   id="path34" />
	<path
   style="fill:#3E3B43;"
   d="M321.056,147.556c-2.587,0-5.11-1.321-6.533-3.704c-2.154-3.604-0.979-8.273,2.626-10.428   l116.02-69.351c3.603-2.153,8.274-0.98,10.428,2.626c2.154,3.604,0.979,8.273-2.626,10.428l-116.02,69.351   C323.729,147.208,322.385,147.556,321.056,147.556z"
   id="path36" />
</g>
<path
   style="fill:#FF5023;"
   d="M130.095,508.198H7.601v-45.053c0-13.042,10.574-23.616,23.616-23.616h75.262  c13.042,0,23.616,10.574,23.616,23.616L130.095,508.198L130.095,508.198z"
   id="path40" />
<g
   id="g50">
	<path
   style="fill:#891C00;"
   d="M106.48,439.529H81.846c13.042,0,23.616,10.574,23.616,23.616v45.054h24.634v-45.054   C130.095,450.101,119.522,439.529,106.48,439.529z"
   id="path42" />
	<path
   style="fill:#891C00;"
   d="M229.02,439.529h-24.634c13.042,0,23.616,10.574,23.616,23.616v45.054h24.634v-45.054   C252.636,450.101,242.062,439.529,229.02,439.529z"
   id="path44" />
	<path
   style="fill:#891C00;"
   d="M351.514,439.529H326.88c13.042,0,23.616,10.574,23.616,23.616v45.054h24.634v-45.054   C375.13,450.101,364.557,439.529,351.514,439.529z"
   id="path46" />
	<path
   style="fill:#891C00;"
   d="M473.962,439.529h-24.634c13.042,0,23.616,10.574,23.616,23.616v45.054h24.634v-45.054   C497.578,450.101,487.005,439.529,473.962,439.529z"
   id="path48" />
</g>
<path
   style="fill:#77757E;"
   d="M256.215,107.068c16.401,0,31.67,10.746,31.67,28.701c0,30.539-44.819,40.436-44.819,55.14v3.393  h39.305c3.109,0,5.796,3.676,5.796,7.918c0,4.242-2.686,8.2-5.796,8.2h-50.333c-3.251,0-8.058-2.262-8.058-5.797V190.91  c0-22.621,45.524-34.639,45.524-54.574c0-5.796-3.817-12.582-13.149-12.582c-6.928,0-12.583,3.675-12.583,12.441  c0,3.393-3.534,6.786-9.613,6.786c-4.807,0-8.342-2.262-8.342-9.897C225.817,116.966,240.521,107.068,256.215,107.068z"
   id="path52" />
</svg>
