<?xml version="1.0" encoding="UTF-8" standalone="no"?>
<!-- Generator: Adobe Illustrator 19.0.0, SVG Export Plug-In . SVG Version: 6.00 Build 0)  -->

<svg
   version="1.1"
   id="Layer_1"
   x="0px"
   y="0px"
   viewBox="0 0 512 512"
   style="enable-background:new 0 0 512 512;"
   xml:space="preserve"
   sodipodi:docname="circular-target-ceiling-light-colored-com.svg"
   inkscape:version="1.2 (dc2aedaf03, 2022-05-15)"
   xmlns:inkscape="http://www.inkscape.org/namespaces/inkscape"
   xmlns:sodipodi="http://sodipodi.sourceforge.net/DTD/sodipodi-0.dtd"
   xmlns="http://www.w3.org/2000/svg"
   xmlns:svg="http://www.w3.org/2000/svg"><defs
   id="defs41" /><sodipodi:namedview
   id="namedview39"
   pagecolor="#ffffff"
   bordercolor="#000000"
   borderopacity="0.25"
   inkscape:showpageshadow="2"
   inkscape:pageopacity="0.0"
   inkscape:pagecheckerboard="0"
   inkscape:deskcolor="#d1d1d1"
   showgrid="false"
   inkscape:zoom="1.6542969"
   inkscape:cx="159.28217"
   inkscape:cy="256.90673"
   inkscape:window-width="1920"
   inkscape:window-height="1027"
   inkscape:window-x="-8"
   inkscape:window-y="-8"
   inkscape:window-maximized="1"
   inkscape:current-layer="Layer_1" />
<circle
   style="fill:#AEB5CA;"
   cx="256"
   cy="256"
   r="224"
   id="circle2" />
<path
   style="fill:#D7DEED;"
   d="M401.742,131.001C430.577,164.59,448,208.26,448,256c0,106.039-85.961,192-192,192S64,362.039,64,256  S149.961,64,256,64c47.74,0,91.41,17.424,124.999,46.258"
   id="path4" />

<g
   id="g8">
</g>
<g
   id="g10">
</g>
<g
   id="g12">
</g>
<g
   id="g14">
</g>
<g
   id="g16">
</g>
<g
   id="g18">
</g>
<g
   id="g20">
</g>
<g
   id="g22">
</g>
<g
   id="g24">
</g>
<g
   id="g26">
</g>
<g
   id="g28">
</g>
<g
   id="g30">
</g>
<g
   id="g32">
</g>
<g
   id="g34">
</g>
<g
   id="g36">
</g>
<path
   style="fill:#e6e6e6;stroke-width:0.604486"
   d="M 237.86541,478.97823 C 185.36201,474.73037 135.5423,451.62618 97.910256,414.0732 35.836434,352.12979 15.870567,259.99028 46.604196,177.30334 50.05783,168.01155 58.205043,151.11576 63.704002,141.84155 80.419094,113.65089 104.17809,88.506752 131.17355,70.43854 168.41703,45.511276 211.54473,32.352497 256,32.352497 c 44.80374,0 88.24035,13.377401 125.73318,38.722694 43.02404,29.084429 75.26426,73.759549 89.39313,123.871679 11.33507,40.20308 11.33569,81.93676 0.002,122.10626 -6.76269,23.96831 -18.5572,48.49654 -33.04252,68.7163 -29.71122,41.47328 -72.53528,71.67514 -121.03248,85.35869 -25.60062,7.22325 -53.16349,9.95564 -79.18772,7.85011 z m 42.7701,-32.24384 c 22.30837,-3.09199 40.05407,-8.51805 60.29483,-18.43618 18.16765,-8.90229 33.32147,-19.47366 47.58734,-33.19711 17.63648,-16.96591 29.1882,-32.70629 39.75545,-54.17076 9.99757,-20.30733 15.31363,-37.75369 18.56499,-60.927 1.46407,-10.43475 1.4475,-37.59783 -0.0294,-48.1828 -4.81532,-34.51179 -17.14942,-64.70919 -37.53506,-91.89651 -6.29997,-8.40196 -28.79575,-30.89774 -37.19771,-37.19771 -27.19389,-20.390568 -57.43508,-32.746583 -91.89651,-37.54729 -10.64005,-1.482229 -37.71887,-1.482229 -48.35892,0 -35.91046,5.002567 -68.45797,18.784372 -95.82242,40.57472 -7.86593,6.26365 -24.19921,22.58854 -30.26633,30.25078 -21.89914,27.65669 -35.551266,59.91325 -40.55276,95.81601 -1.472809,10.57243 -1.482482,37.73905 -0.01716,48.1828 6.343306,45.21033 25.411056,83.16949 57.32599,114.12181 31.56966,30.61746 72.30586,49.3436 116.28427,53.45503 8.55072,0.79939 33.65261,0.29224 41.86338,-0.84579 z"
   id="path477" /><path
   style="fill:#edddbf;stroke-width:0.604486;fill-opacity:1"
   d="M 241.79457,447.22309 C 206.68646,444.379 173.24611,432.32021 145.07674,412.34605 128.36935,400.49928 111.97915,384.10039 99.678027,366.92326 84.791653,346.13613 73.269918,319.71712 68.310398,294.99821 c -3.084866,-15.37539 -3.589284,-20.7817 -3.6104,-38.69597 -0.02139,-18.15044 0.621848,-25.07714 3.698289,-39.8247 9.69038,-46.45287 37.418853,-88.86658 76.073973,-116.36338 26.05974,-18.537253 54.40216,-29.713286 87.04604,-34.324146 10.95223,-1.546973 38.45324,-1.548894 48.9634,-0.0034 37.65031,5.536316 67.74359,18.506025 96.32096,41.512746 7.35894,5.92445 24.56455,23.3622 30.11721,30.52356 25.67597,33.11471 39.38368,71.15792 40.51235,112.43448 0.89725,32.81317 -5.49282,62.12634 -19.83196,90.97521 -9.72077,19.55719 -20.41614,34.39253 -36.18863,50.19658 -32.0555,32.11964 -73.24122,51.39019 -118.78825,55.58031 -6.06596,0.55803 -24.96096,0.68896 -30.82881,0.21361 z"
   id="path686" /><path
   style="fill:#b3b3b3;fill-opacity:1;stroke-width:0.604486"
   d="M 243.00354,479.0035 C 173.94464,475.38101 107.92517,437.21197 69.531155,378.71074 49.044009,347.49433 36.86684,312.53497 33.494418,275.25306 c -0.9353,-10.33968 -0.403122,-37.85092 0.916165,-47.36168 4.846015,-34.935 16.486322,-66.30116 35.107824,-94.60212 C 106.44889,77.162316 165.3991,41.372217 233.31929,33.841792 c 17.38462,-1.927462 42.12211,-1.061745 60.74503,2.125844 63.51809,10.872062 119.2331,49.020103 153.13984,104.854794 13.48132,22.19986 23.21046,47.59397 28.14748,73.46801 2.97578,15.59546 3.37481,20.52713 3.37481,41.70956 0,21.18398 -0.39973,26.12321 -3.37552,41.70956 -9.9688,52.21368 -38.33137,99.30108 -79.78355,132.45626 -32.51962,26.01055 -70.09125,41.96794 -111.45876,47.33868 -6.32934,0.82174 -28.60985,2.29578 -31.13105,2.05957 -0.4987,-0.0467 -4.98702,-0.29898 -9.97403,-0.56057 z m 29.61984,-31.37866 c 27.6869,-1.91034 56.89789,-11.46039 83.41912,-27.27251 25.8006,-15.38248 50.37649,-40.22388 65.43294,-66.13987 11.97023,-20.60381 19.75146,-41.50152 23.96478,-64.36122 3.78064,-20.51216 3.7864,-47.17702 0.0146,-67.63621 -5.13608,-27.85926 -15.17214,-52.31505 -30.90812,-75.31658 -6.03925,-8.82766 -8.29722,-11.46935 -20.09556,-23.51057 -13.4194,-13.69563 -20.44232,-19.86416 -29.88503,-26.249294 -25.66156,-17.352266 -53.22248,-27.88439 -84.38668,-32.247513 -7.80491,-1.092721 -40.54322,-1.093705 -48.35892,-0.0015 -35.32939,4.937315 -68.83872,19.105188 -95.79688,40.503297 -5.45434,4.32939 -22.12561,20.67309 -27.72586,27.18108 -8.05455,9.36008 -18.046714,24.5848 -24.276919,36.98988 -9.015147,17.95023 -16.24369,41.46251 -19.140003,62.25666 -1.266511,9.09295 -1.072419,41.34293 0.301956,50.17238 6.812625,43.76662 24.668985,79.64574 54.558076,109.62455 21.79141,21.85682 46.55861,37.3018 75.25474,46.92933 13.04536,4.37671 25.72617,7.10042 43.172,9.27291 3.9014,0.48583 26.43737,0.35838 34.45573,-0.19487 z"
   id="path5596" /></svg>
