<?xml version="1.0" encoding="UTF-8" standalone="no"?>
<!-- Generator: Adobe Illustrator 19.0.0, SVG Export Plug-In . SVG Version: 6.00 Build 0)  -->

<svg
   version="1.1"
   id="Layer_1"
   x="0px"
   y="0px"
   viewBox="0 0 512 512"
   style="enable-background:new 0 0 512 512;"
   xml:space="preserve"
   sodipodi:docname="cooling-fan-ceiling.svg"
   inkscape:version="1.2 (dc2aedaf03, 2022-05-15)"
   xmlns:inkscape="http://www.inkscape.org/namespaces/inkscape"
   xmlns:sodipodi="http://sodipodi.sourceforge.net/DTD/sodipodi-0.dtd"
   xmlns="http://www.w3.org/2000/svg"
   xmlns:svg="http://www.w3.org/2000/svg"><defs
   id="defs8900" /><sodipodi:namedview
   id="namedview8898"
   pagecolor="#ffffff"
   bordercolor="#000000"
   borderopacity="0.25"
   inkscape:showpageshadow="2"
   inkscape:pageopacity="0.0"
   inkscape:pagecheckerboard="0"
   inkscape:deskcolor="#d1d1d1"
   showgrid="false"
   inkscape:zoom="1.6542969"
   inkscape:cx="188.29752"
   inkscape:cy="256.30224"
   inkscape:window-width="1920"
   inkscape:window-height="1027"
   inkscape:window-x="-8"
   inkscape:window-y="-8"
   inkscape:window-maximized="1"
   inkscape:current-layer="Layer_1" />



<path
   style="fill:#57545C;"
   d="M334.067,272.101l-10.954-59.862c42.635-16.526,88.582-16.529,129.018,0.341  c-11.518-52.825-43.802-97.891-87.885-126.194c-40.231,16.592-73.046,49.182-91.658,90.508l-60.289,10.474  c-15.798-42.227-15.532-88.226,1.14-128.204c-53.325,11.461-98.789,44.076-127.168,88.641c16.653,39.9,49.062,72.445,90.107,90.97  l10.835,60.032c-42.148,15.649-88.014,15.311-127.879-1.351c11.306,53.301,43.735,98.796,88.125,127.296  c40.141-16.554,72.896-49.04,91.531-90.235l60.588-11.703c16.144,42.441,16.019,88.784-0.725,129.031  c52.826-11.52,97.892-43.809,126.193-87.897C408.389,323.574,375.607,290.676,334.067,272.101z"
   id="path8851" />
<circle
   style="fill:#FFDA44;"
   cx="255.714"
   cy="255.511"
   r="74.762"
   id="circle8853" />
<circle
   style="fill:#FFCD00;"
   cx="255.734"
   cy="255.511"
   r="31.622"
   id="circle8855" />
<g
   style="opacity:0.23;"
   id="g8859">
	<path
   style="fill:#FFFFFF;"
   d="M330.125,255.835c0-21.323-8.941-40.545-23.261-54.165L186.05,227.813   c-3.504,8.656-5.45,18.109-5.45,28.022c0,21.323,8.941,40.545,23.261,54.165l120.814-26.143   C328.178,275.201,330.125,265.748,330.125,255.835z"
   id="path8857" />
</g>

<path
   d="M256.001,216.758c-21.639,0-39.243,17.604-39.243,39.243s17.604,39.242,39.243,39.242s39.243-17.603,39.243-39.242  S277.639,216.758,256.001,216.758z M256.001,279.996c-13.231,0-23.996-10.764-23.996-23.995c0-13.232,10.764-23.996,23.996-23.996  c13.232,0,23.996,10.764,23.996,23.996C279.996,269.232,269.232,279.996,256.001,279.996z"
   id="path8863" />

<g
   id="g8867">
</g>
<g
   id="g8869">
</g>
<g
   id="g8871">
</g>
<g
   id="g8873">
</g>
<g
   id="g8875">
</g>
<g
   id="g8877">
</g>
<g
   id="g8879">
</g>
<g
   id="g8881">
</g>
<g
   id="g8883">
</g>
<g
   id="g8885">
</g>
<g
   id="g8887">
</g>
<g
   id="g8889">
</g>
<g
   id="g8891">
</g>
<g
   id="g8893">
</g>
<g
   id="g8895">
</g>
</svg>
