<?xml version="1.0" encoding="UTF-8" standalone="no"?>
<!-- Generator: Adobe Illustrator 19.0.0, SVG Export Plug-In . SVG Version: 6.00 Build 0)  -->

<svg
   version="1.1"
   id="Layer_1"
   x="0px"
   y="0px"
   viewBox="0 0 471.5 471.5"
   xml:space="preserve"
   sodipodi:docname="cooling-fan-ceiling-on.svg"
   inkscape:version="1.3.2 (091e20e, 2023-11-25, custom)"
   width="471.5"
   height="471.5"
   xmlns:inkscape="http://www.inkscape.org/namespaces/inkscape"
   xmlns:sodipodi="http://sodipodi.sourceforge.net/DTD/sodipodi-0.dtd"
   xmlns="http://www.w3.org/2000/svg"
   xmlns:svg="http://www.w3.org/2000/svg"><defs
   id="defs8900" /><sodipodi:namedview
   id="namedview8898"
   pagecolor="#ffffff"
   bordercolor="#000000"
   borderopacity="0.25"
   inkscape:showpageshadow="2"
   inkscape:pageopacity="0.0"
   inkscape:pagecheckerboard="0"
   inkscape:deskcolor="#d1d1d1"
   showgrid="false"
   inkscape:zoom="1.6542969"
   inkscape:cx="169.55844"
   inkscape:cy="234.84297"
   inkscape:window-width="1920"
   inkscape:window-height="1009"
   inkscape:window-x="-8"
   inkscape:window-y="-8"
   inkscape:window-maximized="1"
   inkscape:current-layer="Layer_1" />



<path
   style="fill:#57545c"
   d="m 314.11894,251.54847 -10.954,-59.862 c 42.635,-16.526 88.582,-16.529 129.018,0.341 -11.518,-52.825 -43.802,-97.891008 -87.885,-126.194008 -40.231,16.592 -73.046,49.182008 -91.658,90.508008 l -60.289,10.474 c -15.798,-42.227 -15.532,-88.226008 1.14,-128.204008 -53.325,11.461 -98.788991,44.076 -127.167991,88.641008 16.653,39.9 49.061991,72.445 90.106991,90.97 l 10.835,60.032 c -42.148,15.649 -88.013991,15.311 -127.878991,-1.351 11.306,53.301 43.735,98.796 88.124991,127.296 40.141,-16.554 72.896,-49.04 91.531,-90.235 l 60.588,-11.703 c 16.144,42.441 16.019,88.784 -0.725,129.031 52.826,-11.52 97.892,-43.809 126.193,-87.897 -16.657,-40.374 -49.439,-73.272 -90.979,-91.847 z"
   id="path8851" />
<circle
   style="fill:#ffda44"
   cx="235.76595"
   cy="234.95847"
   r="74.762001"
   id="circle8853" />
<circle
   style="fill:#ffcd00"
   cx="235.78593"
   cy="234.95847"
   r="31.622"
   id="circle8855" />
<g
   style="opacity:0.23"
   id="g8859"
   transform="translate(-19.948051,-20.552538)">
	<path
   style="fill:#ffffff"
   d="m 330.125,255.835 c 0,-21.323 -8.941,-40.545 -23.261,-54.165 L 186.05,227.813 c -3.504,8.656 -5.45,18.109 -5.45,28.022 0,21.323 8.941,40.545 23.261,54.165 l 120.814,-26.143 c 3.503,-8.656 5.45,-18.109 5.45,-28.022 z"
   id="path8857" />
</g>

<path
   d="m 236.05294,196.20547 c -21.639,0 -39.243,17.604 -39.243,39.243 0,21.639 17.604,39.242 39.243,39.242 21.639,0 39.243,-17.603 39.243,-39.242 0,-21.639 -17.605,-39.243 -39.243,-39.243 z m 0,63.238 c -13.231,0 -23.996,-10.764 -23.996,-23.995 0,-13.232 10.764,-23.996 23.996,-23.996 13.232,0 23.996,10.764 23.996,23.996 -0.001,13.231 -10.765,23.995 -23.996,23.995 z"
   id="path8863" />

<g
   id="g8867"
   transform="translate(-19.343565,-24.783943)">
</g>
<g
   id="g8869"
   transform="translate(-19.343565,-24.783943)">
</g>
<g
   id="g8871"
   transform="translate(-19.343565,-24.783943)">
</g>
<g
   id="g8873"
   transform="translate(-19.343565,-24.783943)">
</g>
<g
   id="g8875"
   transform="translate(-19.343565,-24.783943)">
</g>
<g
   id="g8877"
   transform="translate(-19.343565,-24.783943)">
</g>
<g
   id="g8879"
   transform="translate(-19.343565,-24.783943)">
</g>
<g
   id="g8881"
   transform="translate(-19.343565,-24.783943)">
</g>
<g
   id="g8883"
   transform="translate(-19.343565,-24.783943)">
</g>
<g
   id="g8885"
   transform="translate(-19.343565,-24.783943)">
</g>
<g
   id="g8887"
   transform="translate(-19.343565,-24.783943)">
</g>
<g
   id="g8889"
   transform="translate(-19.343565,-24.783943)">
</g>
<g
   id="g8891"
   transform="translate(-19.343565,-24.783943)">
</g>
<g
   id="g8893"
   transform="translate(-19.343565,-24.783943)">
</g>
<g
   id="g8895"
   transform="translate(-19.343565,-24.783943)">
</g>
<g
   id="g17256-5-3"
   style="fill:#666666"
   transform="matrix(0.32763229,-0.54223854,0.45107402,0.27266863,-47.889552,230.89009)">
	<path
   style="fill:#666666"
   d="m 437.058,98.55 c -6.458,6.458 -17.037,6.458 -23.607,0 C 370.024,55.123 312.901,33.409 255.889,33.409 V 0.004 c 65.586,0 131.283,24.943 181.169,74.939 6.57,6.459 6.57,17.037 0,23.607 z"
   id="path17252-8-2" />
	<path
   style="fill:#666666;stroke-width:0.641344"
   d="m 440.13505,116.22387 c -0.74006,0 -1.48075,-0.0823 -2.21394,-0.25093 L 381.3642,103.00608 c -3.72841,-0.85554 -6.71613,-3.788364 -7.79281,-7.649177 -1.07293,-3.864107 -0.065,-8.035788 2.63487,-10.879039 l 44.25503,-46.670928 c 2.69982,-2.850495 6.6618,-3.896379 10.31589,-2.778706 3.66096,1.135456 6.44509,4.286281 7.25322,8.218225 l 12.29938,59.637125 c 0.7538,3.65928 -0.30539,7.47004 -2.81848,10.11636 -1.97724,2.08584 -4.63896,3.22393 -7.37625,3.22393 z"
   id="path17254-2-2" />
</g><g
   id="g17256-5-3-4"
   style="fill:#666666"
   transform="matrix(0.53295588,0.3425253,-0.28505768,0.4433487,248.89328,-46.825637)">
	<path
   style="fill:#666666"
   d="m 437.058,98.55 c -6.458,6.458 -17.037,6.458 -23.607,0 C 370.024,55.123 312.901,33.409 255.889,33.409 V 0.004 c 65.586,0 131.283,24.943 181.169,74.939 6.57,6.459 6.57,17.037 0,23.607 z"
   id="path17252-8-2-4" />
	<path
   style="fill:#666666;stroke-width:0.641344"
   d="m 440.13505,116.22387 c -0.74006,0 -1.48075,-0.0823 -2.21394,-0.25093 L 381.3642,103.00608 c -3.72841,-0.85554 -6.71613,-3.788364 -7.79281,-7.649177 -1.07293,-3.864107 -0.065,-8.035788 2.63487,-10.879039 l 44.25503,-46.670928 c 2.69982,-2.850495 6.6618,-3.896379 10.31589,-2.778706 3.66096,1.135456 6.44509,4.286281 7.25322,8.218225 l 12.29938,59.637125 c 0.7538,3.65928 -0.30539,7.47004 -2.81848,10.11636 -1.97724,2.08584 -4.63896,3.22393 -7.37625,3.22393 z"
   id="path17254-2-2-5" />
</g><g
   id="g17256-5-3-7"
   style="fill:#666666"
   transform="matrix(-0.33934982,0.53498342,-0.44503607,-0.2824161,517.95559,245.0061)">
	<path
   style="fill:#666666"
   d="m 437.058,98.55 c -6.458,6.458 -17.037,6.458 -23.607,0 C 370.024,55.123 312.901,33.409 255.889,33.409 V 0.004 c 65.586,0 131.283,24.943 181.169,74.939 6.57,6.459 6.57,17.037 0,23.607 z"
   id="path17252-8-2-6" />
	<path
   style="fill:#666666;stroke-width:0.641344"
   d="m 440.13505,116.22387 c -0.74006,0 -1.48075,-0.0823 -2.21394,-0.25093 L 381.3642,103.00608 c -3.72841,-0.85554 -6.71613,-3.788364 -7.79281,-7.649177 -1.07293,-3.864107 -0.065,-8.035788 2.63487,-10.879039 l 44.25503,-46.670928 c 2.69982,-2.850495 6.6618,-3.896379 10.31589,-2.778706 3.66096,1.135456 6.44509,4.286281 7.25322,8.218225 l 12.29938,59.637125 c 0.7538,3.65928 -0.30539,7.47004 -2.81848,10.11636 -1.97724,2.08584 -4.63896,3.22393 -7.37625,3.22393 z"
   id="path17254-2-2-2" />
</g><g
   id="g17256-5-3-9"
   style="fill:#666666"
   transform="matrix(-0.51463069,-0.36948722,0.30748627,-0.4280983,211.85677,524.5218)">
	<path
   style="fill:#666666"
   d="m 437.058,98.55 c -6.458,6.458 -17.037,6.458 -23.607,0 C 370.024,55.123 312.901,33.409 255.889,33.409 V 0.004 c 65.586,0 131.283,24.943 181.169,74.939 6.57,6.459 6.57,17.037 0,23.607 z"
   id="path17252-8-2-9" />
	<path
   style="fill:#666666;stroke-width:0.641344"
   d="m 440.13505,116.22387 c -0.74006,0 -1.48075,-0.0823 -2.21394,-0.25093 L 381.3642,103.00608 c -3.72841,-0.85554 -6.71613,-3.788364 -7.79281,-7.649177 -1.07293,-3.864107 -0.065,-8.035788 2.63487,-10.879039 l 44.25503,-46.670928 c 2.69982,-2.850495 6.6618,-3.896379 10.31589,-2.778706 3.66096,1.135456 6.44509,4.286281 7.25322,8.218225 l 12.29938,59.637125 c 0.7538,3.65928 -0.30539,7.47004 -2.81848,10.11636 -1.97724,2.08584 -4.63896,3.22393 -7.37625,3.22393 z"
   id="path17254-2-2-54" />
</g></svg>
