<?xml version="1.0" encoding="UTF-8" standalone="no"?>
<!-- Generator: Adobe Illustrator 19.0.0, SVG Export Plug-In . SVG Version: 6.00 Build 0)  -->

<svg
   version="1.1"
   id="Layer_1"
   x="0px"
   y="0px"
   viewBox="0 0 395.32998 395.32999"
   xml:space="preserve"
   sodipodi:docname="cooling-fan-ceiling-off.svg"
   inkscape:version="1.3.2 (091e20e, 2023-11-25, custom)"
   width="395.32999"
   height="395.32999"
   xmlns:inkscape="http://www.inkscape.org/namespaces/inkscape"
   xmlns:sodipodi="http://sodipodi.sourceforge.net/DTD/sodipodi-0.dtd"
   xmlns="http://www.w3.org/2000/svg"
   xmlns:svg="http://www.w3.org/2000/svg"><defs
   id="defs8900" /><sodipodi:namedview
   id="namedview8898"
   pagecolor="#ffffff"
   bordercolor="#000000"
   borderopacity="0.25"
   inkscape:showpageshadow="2"
   inkscape:pageopacity="0.0"
   inkscape:pagecheckerboard="0"
   inkscape:deskcolor="#d1d1d1"
   showgrid="false"
   inkscape:zoom="1.6542969"
   inkscape:cx="132.08028"
   inkscape:cy="200.38725"
   inkscape:window-width="1920"
   inkscape:window-height="1009"
   inkscape:window-x="-8"
   inkscape:window-y="-8"
   inkscape:window-maximized="1"
   inkscape:current-layer="Layer_1" />



<path
   style="fill:#57545c"
   d="m 276.64079,214.67479 -10.954,-59.862 c 42.635,-16.526 88.582,-16.529 129.018,0.341 -11.518,-52.825 -43.802,-97.891 -87.885,-126.194 -40.231,16.592 -73.046,49.182 -91.658,90.508 l -60.289,10.474 c -15.798,-42.227 -15.532,-88.226 1.14,-128.2039993 C 102.68779,13.19879 57.223791,45.81379 28.844791,90.37879 c 16.653,39.9 49.062,72.445 90.106999,90.97 l 10.835,60.032 c -42.147999,15.649 -88.013999,15.311 -127.8789993,-1.351 11.3060003,53.301 43.7350003,98.796 88.1250003,127.296 40.140999,-16.554 72.895999,-49.04 91.530999,-90.235 l 60.588,-11.703 c 16.144,42.441 16.019,88.784 -0.725,129.031 52.826,-11.52 97.892,-43.809 126.193,-87.897 -16.657,-40.374 -49.439,-73.272 -90.979,-91.847 z"
   id="path8851" />
<circle
   style="fill:#ffda44"
   cx="198.2878"
   cy="198.08479"
   r="74.762001"
   id="circle8853" />
<circle
   style="fill:#ffcd00"
   cx="198.30779"
   cy="198.08479"
   r="31.622"
   id="circle8855" />
<g
   style="opacity:0.23"
   id="g8859"
   transform="translate(-57.426209,-57.42621)">
	<path
   style="fill:#ffffff"
   d="m 330.125,255.835 c 0,-21.323 -8.941,-40.545 -23.261,-54.165 L 186.05,227.813 c -3.504,8.656 -5.45,18.109 -5.45,28.022 0,21.323 8.941,40.545 23.261,54.165 l 120.814,-26.143 c 3.503,-8.656 5.45,-18.109 5.45,-28.022 z"
   id="path8857" />
</g>

<path
   d="m 198.57479,159.33179 c -21.639,0 -39.243,17.604 -39.243,39.243 0,21.639 17.604,39.242 39.243,39.242 21.639,0 39.243,-17.603 39.243,-39.242 0,-21.639 -17.605,-39.243 -39.243,-39.243 z m 0,63.238 c -13.231,0 -23.996,-10.764 -23.996,-23.995 0,-13.232 10.764,-23.996 23.996,-23.996 13.232,0 23.996,10.764 23.996,23.996 -10e-4,13.231 -10.765,23.995 -23.996,23.995 z"
   id="path8863" />

<g
   id="g8867"
   transform="translate(-56.821723,-59.239669)">
</g>
<g
   id="g8869"
   transform="translate(-56.821723,-59.239669)">
</g>
<g
   id="g8871"
   transform="translate(-56.821723,-59.239669)">
</g>
<g
   id="g8873"
   transform="translate(-56.821723,-59.239669)">
</g>
<g
   id="g8875"
   transform="translate(-56.821723,-59.239669)">
</g>
<g
   id="g8877"
   transform="translate(-56.821723,-59.239669)">
</g>
<g
   id="g8879"
   transform="translate(-56.821723,-59.239669)">
</g>
<g
   id="g8881"
   transform="translate(-56.821723,-59.239669)">
</g>
<g
   id="g8883"
   transform="translate(-56.821723,-59.239669)">
</g>
<g
   id="g8885"
   transform="translate(-56.821723,-59.239669)">
</g>
<g
   id="g8887"
   transform="translate(-56.821723,-59.239669)">
</g>
<g
   id="g8889"
   transform="translate(-56.821723,-59.239669)">
</g>
<g
   id="g8891"
   transform="translate(-56.821723,-59.239669)">
</g>
<g
   id="g8893"
   transform="translate(-56.821723,-59.239669)">
</g>
<g
   id="g8895"
   transform="translate(-56.821723,-59.239669)">
</g>
<path
   style="fill:#4d4d4d;stroke-width:0.604486"
   d="M 85.481701,363.85119 C 49.795061,339.49491 22.738556,303.95487 8.6936177,262.98628 c -2.689109,-7.84404 -6.48061,-21.49052 -6.0817,-21.88943 0.11473,-0.11473 3.314244,0.90205 7.1100289,2.2595 9.3432344,3.34134 21.0157534,6.27495 31.4704324,7.90933 7.464262,1.16689 11.044612,1.3566 25.603372,1.3566 18.20644,0 25.35554,-0.73725 40.455719,-4.172 7.98083,-1.81536 21.90654,-6.14194 22.4146,-6.96401 0.20147,-0.32598 -0.34072,-4.43586 -1.20487,-9.13306 -0.86415,-4.6972 -1.42344,-8.6881 -1.24287,-8.86867 0.18057,-0.18057 0.3283,0.11646 0.3283,0.66007 0,2.05055 7.38434,15.4293 11.13214,20.16893 6.21028,7.85377 16.53228,16.11409 26.25267,21.00905 9.00454,4.53448 21.16905,7.54254 30.92216,7.64648 l 4.53365,0.0483 -9.4417,1.91869 -9.44169,1.9187 -3.91781,7.58406 c -9.35927,18.11764 -18.92468,31.19996 -33.3763,45.64775 -10.67538,10.67254 -19.82254,18.06927 -30.5663,24.717 -6.19834,3.83524 -19.941159,10.88474 -22.444249,11.51297 -1.20682,0.3029 -2.44151,-0.2295 -5.7175,-2.46537 z"
   id="path18062" /><path
   style="fill:#4d4d4d;stroke-width:0.604486"
   d="m 120.92005,190.56096 c -0.76695,-4.40334 -1.52889,-8.36156 -1.69321,-8.79604 -0.16431,-0.4345 -3.56114,-2.42537 -7.54851,-4.42418 C 80.076341,161.49915 53.519101,136.20726 36.860133,106.08736 33.129152,99.34164 29.619835,91.80247 29.619835,90.53283 c 0,-0.49277 1.820275,-3.50675 4.045057,-6.69774 C 46.183741,65.87936 62.731991,48.92436 80.111561,36.246782 101.18699,20.873243 127.4782,8.6821157 151.6234,3.0870217 c 3.55123,-0.822914 3.79498,-0.813646 3.38848,0.128843 -1.83501,4.254594 -6.49035,19.2066533 -7.75041,24.8927533 -2.86686,12.937035 -3.49151,18.490132 -3.82406,33.995562 -0.425,19.81639 0.91173,32.23279 5.3041,49.26812 1.97646,7.66547 5.20312,17.71306 5.9222,18.4413 0.24629,0.24944 4.2424,-0.22544 8.88023,-1.05527 4.63785,-0.82984 8.56845,-1.50746 8.73469,-1.50582 0.16623,0.002 -2.68997,1.46255 -6.34711,3.24645 -24.40361,11.90379 -39.73555,33.91666 -42.64968,61.23442 -0.38361,3.59599 -0.75818,6.60464 -0.83239,6.6859 -0.0742,0.0812 -0.76244,-3.45499 -1.5294,-7.85832 z"
   id="path18064" /><path
   style="fill:#4d4d4d;stroke-width:0.604486"
   d="m 265.55977,164.81622 c -4.57735,-9.56338 -12.91806,-19.65662 -21.81072,-26.39355 -6.12823,-4.64265 -17.79729,-10.5857 -24.32048,-12.38643 -5.14437,-1.4201 -14.68532,-2.98651 -18.73908,-3.07654 -1.92441,-0.0427 -0.19014,-0.53009 5.9282,-1.6659 l 8.6484,-1.60549 4.38429,-8.46281 c 9.80668,-18.9294 19.91205,-32.58031 34.91594,-47.16641 12.40345,-12.05807 25.82915,-21.735444 40.5486,-29.227828 12.00656,-6.111491 11.08481,-5.971157 16.17737,-2.462951 36.71416,25.291999 64.07709,61.649109 77.5833,103.084909 2.8486,8.73925 5.46818,18.37144 5.0972,18.74242 -0.11761,0.11761 -2.31785,-0.60315 -4.8894,-1.60169 -11.43012,-4.43833 -27.90058,-8.1976 -42.33277,-9.66218 -10.30877,-1.04613 -31.61499,-0.43629 -42.33536,1.21176 -9.84236,1.51307 -24.17295,5.07366 -32.61962,8.1047 -3.28123,1.17745 -6.06742,2.24235 -6.19152,2.36645 -0.1241,0.12411 0.33452,3.2924 1.01916,7.04066 0.68465,3.74825 1.15867,6.89796 1.05339,6.99936 -0.10529,0.10139 -1.05789,-1.62593 -2.1169,-3.83848 z"
   id="path18066" /><path
   style="fill:#4d4d4d;stroke-width:0.604486"
   d="m 242.57338,392.79631 c 0.18243,-0.59902 1.45705,-4.33047 2.83248,-8.29213 6.96012,-20.04722 10.04402,-43.26222 8.61904,-64.88239 -0.73139,-11.09664 -2.76065,-24.70372 -4.9939,-33.48613 -1.52403,-5.99335 -5.97821,-19.97249 -6.56601,-20.60698 -0.22691,-0.24493 -3.20042,0.0951 -6.6078,0.75561 -3.40737,0.66052 -6.66161,1.19572 -7.23164,1.18935 -0.57003,-0.006 1.43981,-1.32623 4.46632,-2.933 7.70874,-4.09256 13.56025,-8.60254 19.88569,-15.32668 11.6379,-12.37145 18.78595,-28.37273 20.03318,-44.84535 0.22873,-3.02092 0.48574,-5.22056 0.57112,-4.88809 0.0854,0.33246 0.74575,3.91613 1.46748,7.96369 l 1.31224,7.35921 6.74483,3.33014 c 29.04579,14.34088 54.40197,36.99246 71.28904,63.68504 4.20355,6.64435 12.5278,22.84031 12.5278,24.37453 0,1.14669 -5.97819,9.71415 -12.63943,18.11383 -5.96925,7.52708 -21.74517,23.3139 -29.37237,29.39267 -22.40984,17.8603 -46.02809,30.16065 -71.63164,37.30568 -11.03113,3.07839 -11.10212,3.09027 -10.70643,1.791 z"
   id="path18068" /><path
   style="fill:#666666;fill-opacity:0;stroke-width:0.604486"
   d="m 87.832161,364.85264 c -3.90852,-2.2349 -13.21933,-9.2932 -20.18521,-15.30191 C 44.170921,329.3005 25.116023,302.81096 13.076059,273.68792 9.1002397,264.07095 2.4718247,242.74816 3.2242177,241.99577 c 0.164375,-0.16437 3.725587,0.81597 7.9138063,2.17855 8.867373,2.88486 19.413033,5.53316 28.25115,7.09463 5.279267,0.9327 9.581257,1.10256 27.708817,1.09407 19.56855,-0.009 22.12501,-0.12966 29.01535,-1.36746 9.264849,-1.66437 20.168119,-4.40326 27.806369,-6.98496 l 5.74262,-1.94097 -0.13733,-3.29258 c -0.0755,-1.81092 -0.30431,-3.70893 -0.50838,-4.21781 -0.20407,-0.50888 -0.46935,-2.25592 -0.58952,-3.8823 l -0.21847,-2.95706 3.97359,6.88622 c 4.94226,8.56494 9.20927,13.91995 15.19875,19.07412 8.98683,7.73352 18.13759,12.93814 28.42083,16.16474 5.21456,1.63619 14.3277,3.32903 18.54058,3.44406 1.67041,0.0456 0.0282,0.56029 -5.31198,1.66477 l -7.72993,1.59874 -4.2454,8.10067 c -10.08473,19.24277 -19.47977,31.72871 -35.98825,47.8281 -13.41073,13.07841 -23.77518,20.52177 -40.38428,29.00245 -5.208059,2.65926 -9.658799,4.83174 -9.890519,4.82773 -0.23172,-0.004 -1.56365,-0.66048 -2.95986,-1.45884 z"
   id="path1" /></svg>
