<?xml version="1.0" encoding="UTF-8" standalone="no"?>
<!-- Uploaded to: SVG Repo, www.svgrepo.com, Generator: SVG Repo Mixer Tools -->

<svg
   fill="#000000"
   width="1406.3754"
   height="804.72253"
   viewBox="0 0 42.191261 24.141676"
   id="cylinder"
   data-name="Flat Color"
   class="icon flat-color"
   version="1.1"
   sodipodi:docname="cylinder-light-off.svg"
   inkscape:version="1.2 (dc2aedaf03, 2022-05-15)"
   xmlns:inkscape="http://www.inkscape.org/namespaces/inkscape"
   xmlns:sodipodi="http://sodipodi.sourceforge.net/DTD/sodipodi-0.dtd"
   xmlns="http://www.w3.org/2000/svg"
   xmlns:svg="http://www.w3.org/2000/svg">
  <defs
     id="defs1279" />
  <sodipodi:namedview
     id="namedview1277"
     pagecolor="#ffffff"
     bordercolor="#000000"
     borderopacity="0.25"
     inkscape:showpageshadow="2"
     inkscape:pageopacity="0.0"
     inkscape:pagecheckerboard="0"
     inkscape:deskcolor="#d1d1d1"
     showgrid="false"
     inkscape:zoom="1.05875"
     inkscape:cx="709.79929"
     inkscape:cy="409.91736"
     inkscape:window-width="1920"
     inkscape:window-height="1027"
     inkscape:window-x="-8"
     inkscape:window-y="-8"
     inkscape:window-maximized="1"
     inkscape:current-layer="cylinder" />
  <path
     id="primary"
     d="m 3.9420173,3.6061237 c -1.8265085,0 -3.67401224,0.7454597 -3.67401224,2.4047078 V 17.232804 c 0,1.659248 1.84750374,2.404701 3.67401224,2.404701 1.8265122,0 3.6740144,-0.745453 3.6740144,-2.404701 V 6.0108315 c 0,-1.6592481 -1.8475022,-2.4047078 -3.6740144,-2.4047078 z"
     style="fill:#000000;stroke-width:0.648614" />
  <path
     style="fill:#999999;stroke-width:0.0188813"
     d="M 3.3025203,19.647215 C 3.2657013,19.642405 3.1285182,19.626851 2.9976444,19.612655 1.9631261,19.500499 1.0552048,19.128308 0.6329896,18.64327 0.24487294,18.197412 0.18348756,17.605875 0.4743349,17.114401 c 0.35998909,-0.608299 1.2231994,-1.015376 2.5381808,-1.19697 0.3016312,-0.04167 1.5871177,-0.04167 1.8887497,0 1.3149812,0.181594 2.1781893,0.588671 2.5381804,1.19697 0.2403152,0.406091 0.2430008,0.892958 0.00694,1.295646 -0.3513529,0.599867 -1.1939693,1.014373 -2.4263496,1.193594 -0.249531,0.0363 -1.5256075,0.06865 -1.7177203,0.04365 z"
     id="path1397" />
  <path
     id="primary-5"
     d="m 38.193213,3.3764011 c -1.826508,0 -3.674012,0.7454595 -3.674012,2.4047072 V 17.003078 c 0,1.659247 1.847504,2.404701 3.674012,2.404701 1.826512,0 3.674014,-0.745454 3.674014,-2.404701 V 5.7811083 c 0,-1.6592477 -1.847502,-2.4047072 -3.674014,-2.4047072 z"
     style="fill:#000000;stroke-width:0.648614" />
  <path
     style="fill:#999999;stroke-width:0.0188813"
     d="m 37.553716,19.417488 c -0.03682,-0.0048 -0.174002,-0.02037 -0.304876,-0.03455 -1.034518,-0.112156 -1.942439,-0.484347 -2.364655,-0.969386 -0.388116,-0.445857 -0.449502,-1.037394 -0.158654,-1.528868 0.359989,-0.608299 1.223199,-1.015376 2.538181,-1.19697 0.301631,-0.04167 1.587117,-0.04167 1.888749,0 1.314981,0.181594 2.178189,0.588671 2.538181,1.19697 0.240315,0.406091 0.243,0.892958 0.0069,1.295646 -0.351353,0.599867 -1.19397,1.014373 -2.42635,1.193594 -0.249531,0.0363 -1.525608,0.06865 -1.71772,0.04365 z"
     id="path1397-9" />
</svg>
