<?xml version="1.0" encoding="UTF-8" standalone="no"?>
<!-- Uploaded to: SVG Repo, www.svgrepo.com, Generator: SVG Repo Mixer Tools -->

<svg
   fill="#000000"
   width="800px"
   height="800px"
   viewBox="0 0 24 24"
   id="cylinder"
   data-name="Flat Color"
   class="icon flat-color"
   version="1.1"
   sodipodi:docname="cylinder-light-on.svg"
   inkscape:version="1.2 (dc2aedaf03, 2022-05-15)"
   xmlns:inkscape="http://www.inkscape.org/namespaces/inkscape"
   xmlns:sodipodi="http://sodipodi.sourceforge.net/DTD/sodipodi-0.dtd"
   xmlns="http://www.w3.org/2000/svg"
   xmlns:svg="http://www.w3.org/2000/svg">
  <defs
     id="defs1279" />
  <sodipodi:namedview
     id="namedview1277"
     pagecolor="#ffffff"
     bordercolor="#000000"
     borderopacity="0.25"
     inkscape:showpageshadow="2"
     inkscape:pageopacity="0.0"
     inkscape:pagecheckerboard="0"
     inkscape:deskcolor="#d1d1d1"
     showgrid="false"
     inkscape:zoom="1.05875"
     inkscape:cx="400.94451"
     inkscape:cy="420.30697"
     inkscape:window-width="1920"
     inkscape:window-height="1027"
     inkscape:window-x="-8"
     inkscape:window-y="-8"
     inkscape:window-maximized="1"
     inkscape:current-layer="cylinder" />
  <path
     id="primary"
     d="m 12.396694,0.27154667 c -3.4799998,0 -6.9999998,1.06955023 -6.9999998,3.45016233 v 16.100757 c 0,2.380612 3.52,3.450161 6.9999998,3.450161 3.48,0 7,-1.069549 7,-3.450161 V 3.721709 c 0,-2.3806121 -3.52,-3.45016233 -7,-3.45016233 z"
     style="fill:#000000;stroke-width:1.07241" />
  <path
     style="fill:#ffe680;stroke-width:0.031217"
     d="m 11.178276,23.286543 c -0.07013,-0.0069 -0.331523,-0.0292 -0.580873,-0.04957 C 8.6263644,23.076054 6.8965239,22.54203 6.0920898,21.846136 5.3526216,21.206444 5.2356654,20.357736 5.7898095,19.652595 c 0.6858777,-0.87277 2.3305263,-1.456829 4.8359285,-1.717365 0.57469,-0.05976 3.023893,-0.05976 3.598583,0 2.505402,0.260536 4.150051,0.844595 4.835929,1.717365 0.457868,0.582632 0.462983,1.281162 0.01361,1.858913 -0.669423,0.860667 -2.274818,1.455382 -4.622858,1.712526 -0.475425,0.05206 -2.9067,0.0985 -3.272728,0.06251 z"
     id="path1397" />
</svg>
