<?xml version="1.0" encoding="UTF-8" standalone="no"?>
<!-- Generator: Adobe Illustrator 19.0.0, SVG Export Plug-In . SVG Version: 6.00 Build 0)  -->

<svg
   version="1.1"
   id="Layer_1"
   x="0px"
   y="0px"
   viewBox="0 0 91.995049 77.402725"
   xml:space="preserve"
   sodipodi:docname="dawn.svg"
   width="91.995049"
   height="77.402725"
   inkscape:version="1.4.3 (0d15f75, 2025-12-25)"
   xmlns:inkscape="http://www.inkscape.org/namespaces/inkscape"
   xmlns:sodipodi="http://sodipodi.sourceforge.net/DTD/sodipodi-0.dtd"
   xmlns="http://www.w3.org/2000/svg"
   xmlns:svg="http://www.w3.org/2000/svg"><defs
   id="defs22" /><sodipodi:namedview
   id="namedview22"
   pagecolor="#ffffff"
   bordercolor="#000000"
   borderopacity="0.25"
   inkscape:showpageshadow="2"
   inkscape:pageopacity="0.0"
   inkscape:pagecheckerboard="0"
   inkscape:deskcolor="#d1d1d1"
   inkscape:zoom="1.5761719"
   inkscape:cx="262.66171"
   inkscape:cy="179.23172"
   inkscape:window-width="1920"
   inkscape:window-height="1009"
   inkscape:window-x="-8"
   inkscape:window-y="-8"
   inkscape:window-maximized="1"
   inkscape:current-layer="Layer_1" />
<g
   id="g7"
   transform="matrix(0.17100372,0,0,0.16592094,6.9789343,-3.1399486)">
	<path
   style="fill:#358e4c"
   d="m 0,388.414 c 0,0 81.814,-88.276 159.753,-88.276 0,0 36.078,1.933 30.923,25.768 0,0 13.859,-4.087 30.252,-9.437 63.815,-20.851 134.171,-2.251 178.697,47.996 0.777,0.883 1.562,1.766 2.339,2.666 0,0 75.573,56.594 110.036,56.594 H 0 Z"
   id="path1" />
	<g
   id="g6">
		<path
   style="fill:#f29c1f"
   d="m 229.517,123.586 c -4.882,0 -8.828,-3.955 -8.828,-8.828 V 97.103 c 0,-4.873 3.946,-8.828 8.828,-8.828 4.882,0 8.828,3.955 8.828,8.828 v 17.655 c 0,4.873 -3.946,8.828 -8.828,8.828"
   id="path2" />
		<path
   style="fill:#f29c1f"
   d="m 397.241,273.655 h -17.655 c -4.882,0 -8.828,-3.955 -8.828,-8.828 0,-4.873 3.946,-8.828 8.828,-8.828 h 17.655 c 4.882,0 8.828,3.955 8.828,8.828 0,4.873 -3.946,8.828 -8.828,8.828"
   id="path3" />
		<path
   style="fill:#f29c1f"
   d="M 79.448,273.655 H 61.793 c -4.882,0 -8.828,-3.955 -8.828,-8.828 0,-4.873 3.946,-8.827 8.828,-8.827 h 17.655 c 4.882,0 8.828,3.955 8.828,8.828 0,4.873 -3.946,8.827 -8.828,8.827"
   id="path4" />
		<path
   style="fill:#f29c1f"
   d="m 123.405,167.539 c -2.26,0 -4.52,-0.865 -6.241,-2.586 l -12.482,-12.482 c -3.452,-3.452 -3.452,-9.031 0,-12.482 3.452,-3.452 9.031,-3.452 12.482,0 l 12.482,12.482 c 3.452,3.452 3.452,9.031 0,12.482 -1.721,1.721 -3.981,2.586 -6.241,2.586"
   id="path5" />
		<path
   style="fill:#f29c1f"
   d="m 335.629,167.539 c -2.26,0 -4.52,-0.865 -6.241,-2.586 -3.452,-3.452 -3.452,-9.031 0,-12.482 l 12.482,-12.482 c 3.452,-3.452 9.031,-3.452 12.482,0 3.452,3.452 3.452,9.031 0,12.482 l -12.482,12.482 c -1.721,1.721 -3.981,2.586 -6.241,2.586"
   id="path6" />
	</g>
	<path
   style="fill:#f0c419"
   d="m 159.756,300.138 c 0,0 36.07,1.933 30.923,25.768 0.247,-1.174 12.597,-3.831 13.85,-4.22 0.026,-0.009 0.062,-0.018 0.097,-0.026 5.014,-1.562 10.019,-3.213 15.033,-4.785 0.433,-0.141 0.83,-0.274 1.262,-0.406 36.617,-11.961 75.37,-10.884 110.177,1.66 v 0 c 8.377,-15.934 13.18,-34.048 13.18,-53.301 0,-63.382 -51.385,-114.759 -114.759,-114.759 -63.382,0 -114.759,51.377 -114.759,114.759 0,14.257 3.196,28.672 7.962,41.278 12.22,-3.735 24.676,-5.968 37.034,-5.968"
   id="path7" />
</g>
<g
   id="g8"
   transform="matrix(0.17100372,0,0,0.16592094,6.9789343,-3.1399486)">
</g>
<g
   id="g9"
   transform="matrix(0.17100372,0,0,0.16592094,6.9789343,-3.1399486)">
</g>
<g
   id="g10"
   transform="matrix(0.17100372,0,0,0.16592094,6.9789343,-3.1399486)">
</g>
<g
   id="g11"
   transform="matrix(0.17100372,0,0,0.16592094,6.9789343,-3.1399486)">
</g>
<g
   id="g12"
   transform="matrix(0.17100372,0,0,0.16592094,6.9789343,-3.1399486)">
</g>
<g
   id="g13"
   transform="matrix(0.17100372,0,0,0.16592094,6.9789343,-3.1399486)">
</g>
<g
   id="g14"
   transform="matrix(0.17100372,0,0,0.16592094,6.9789343,-3.1399486)">
</g>
<g
   id="g15"
   transform="matrix(0.17100372,0,0,0.16592094,6.9789343,-3.1399486)">
</g>
<g
   id="g16"
   transform="matrix(0.17100372,0,0,0.16592094,6.9789343,-3.1399486)">
</g>
<g
   id="g17"
   transform="matrix(0.17100372,0,0,0.16592094,6.9789343,-3.1399486)">
</g>
<g
   id="g18"
   transform="matrix(0.17100372,0,0,0.16592094,6.9789343,-3.1399486)">
</g>
<g
   id="g19"
   transform="matrix(0.17100372,0,0,0.16592094,6.9789343,-3.1399486)">
</g>
<g
   id="g20"
   transform="matrix(0.17100372,0,0,0.16592094,6.9789343,-3.1399486)">
</g>
<g
   id="g21"
   transform="matrix(0.17100372,0,0,0.16592094,6.9789343,-3.1399486)">
</g>
<g
   id="g22"
   transform="matrix(0.17100372,0,0,0.16592094,6.9789343,-3.1399486)">
</g>
</svg>
