<?xml version="1.0" encoding="UTF-8" standalone="no"?>
<!-- Uploaded to: SVG Repo, www.svgrepo.com, Generator: SVG Repo Mixer Tools -->

<svg
   version="1.1"
   id="Layer_1"
   viewBox="0 0 363.062 363.062"
   xml:space="preserve"
   sodipodi:docname="dehumidifier.svg"
   inkscape:version="1.4.3 (0d15f75, 2025-12-25)"
   xmlns:inkscape="http://www.inkscape.org/namespaces/inkscape"
   xmlns:sodipodi="http://sodipodi.sourceforge.net/DTD/sodipodi-0.dtd"
   xmlns="http://www.w3.org/2000/svg"
   xmlns:svg="http://www.w3.org/2000/svg"><defs
   id="defs15" /><sodipodi:namedview
   id="namedview15"
   pagecolor="#ffffff"
   bordercolor="#000000"
   borderopacity="0.25"
   inkscape:showpageshadow="2"
   inkscape:pageopacity="0.0"
   inkscape:pagecheckerboard="0"
   inkscape:deskcolor="#d1d1d1"
   inkscape:zoom="2.2392869"
   inkscape:cx="181.30772"
   inkscape:cy="181.53101"
   inkscape:window-width="2880"
   inkscape:window-height="1514"
   inkscape:window-x="-11"
   inkscape:window-y="-11"
   inkscape:window-maximized="1"
   inkscape:current-layer="g15" />
<g
   id="g15">
	<path
   style="fill:#cccccc"
   d="M314.113,112.957v234.038c0,8.836-7.23,16.066-16.065,16.066H100.473   c-8.836,0-16.065-7.23-16.065-16.066V112.957H314.113z"
   id="path1" />
	<path
   style="fill:#C3C6C8;"
   d="M84.406,333.308v13.688c0,8.836,7.229,16.066,16.065,16.066h197.576   c8.836,0,16.065-7.23,16.065-16.066v-13.688H84.406z"
   id="path2" />
	<path
   style="fill:#009bde;fill-opacity:1"
   d="M314.113,76.891c0-18.608-15.082-33.692-33.689-33.692H118.1c-18.607,0-33.692,15.084-33.692,33.692   v36.066h229.707V76.891H314.113z"
   id="path3" />
	<path
   style="fill:#cccccc"
   d="M272.228,112.957v234.038c0,8.836-7.229,16.066-16.065,16.066H65.014   c-8.836,0-16.065-7.23-16.065-16.066V112.957H272.228z"
   id="path4" />
	<path
   style="fill:#3E4A57;"
   d="M272.228,76.891c0-18.608-15.084-33.692-33.691-33.692h-155.9   c-18.607,0-33.689,15.084-33.689,33.692v36.066h223.28V76.891z"
   id="path5" />
	<g
   id="g6">
		<circle
   style="fill:#FFFFFF;"
   cx="230.93"
   cy="67.12"
   r="7.854"
   id="circle5" />
		<circle
   style="fill:#D16A70;"
   cx="230.93"
   cy="91.823"
   r="7.854"
   id="circle6" />
	</g>
	
	
	
	<g
   id="g14"
   style="fill:#ececec">
		<rect
   x="89.908"
   y="112.957"
   style="fill:#ececec"
   width="17.013"
   height="137.667"
   id="rect9" />
		<rect
   x="120.637"
   y="112.957"
   style="fill:#ececec"
   width="17.016"
   height="137.667"
   id="rect10" />
		<rect
   x="151.364"
   y="112.957"
   style="fill:#ececec"
   width="17.016"
   height="137.667"
   id="rect11" />
		<rect
   x="182.092"
   y="112.957"
   style="fill:#ececec"
   width="17.016"
   height="137.667"
   id="rect12" />
		<rect
   x="212.821"
   y="112.957"
   style="fill:#ececec"
   width="17.014"
   height="137.667"
   id="rect13" />
		<rect
   x="243.549"
   y="112.957"
   style="fill:#ececec"
   width="17.014"
   height="137.667"
   id="rect14" />
	</g>
	<path
   style="fill:#E8E8E8;"
   d="M48.947,333.308v13.688c0,8.836,7.229,16.066,16.065,16.066h191.149   c8.836,0,16.065-7.23,16.065-16.066v-13.688H48.947z"
   id="path14" />
	<path
   style="opacity:0.4;fill:#ececec;enable-background:new"
   d="m 274.01428,112.957 v 234.038 c 0,8.836 -7.229,16.066 -16.065,16.066 H 66.800278 c -8.836,0 -16.065,-7.23 -16.065,-16.066 V 112.957 Z"
   id="path15" />
<path
   style="fill:#77b8e8;fill-opacity:1;stroke-width:0.250973"
   d="m 49.346067,92.511577 c 0,-18.637933 0.06254,-20.268799 0.903363,-23.556606 3.452983,-13.50195 14.23844,-23.22634 27.921841,-25.174908 2.568828,-0.365811 26.034179,-0.468127 84.827049,-0.369872 91.51219,0.152935 82.75678,-0.203231 90.69356,3.689369 6.99147,3.428978 13.00243,9.973413 15.97077,17.388179 2.23408,5.580641 2.52222,8.933579 2.52222,29.350613 V 112.53583 H 160.76547 49.346067 Z M 233.09986,99.53375 c 0.97691,-0.271216 2.51502,-1.231924 3.418,-2.134912 4.94288,-4.942873 2.03809,-12.850087 -4.90509,-13.352312 -4.80569,-0.347612 -8.08117,2.291317 -8.45612,6.812788 -0.35114,4.234312 1.43098,7.209603 5.10229,8.518391 2.13007,0.759345 2.61188,0.774875 4.84092,0.156045 z m 1.27333,-25.119 c 4.87924,-2.038675 6.10407,-9.067646 2.25143,-12.920291 -3.73304,-3.733041 -9.50613,-3.052952 -12.58576,1.482642 -0.90164,1.327915 -1.03071,1.979196 -0.89269,4.504362 0.18471,3.379518 1.4564,5.530439 4.01527,6.791398 1.81502,0.89441 5.24901,0.961973 7.21175,0.141889 z"
   id="path16" /></g>
</svg>
