<?xml version="1.0" encoding="UTF-8" standalone="no"?>
<!-- Uploaded to: SVG Repo, www.svgrepo.com, Generator: SVG Repo Mixer Tools -->

<svg
   height="800"
   width="800"
   version="1.1"
   id="Capa_1"
   viewBox="0 0 58 58"
   xml:space="preserve"
   sodipodi:docname="dehydrator-time.svg"
   inkscape:version="1.3.2 (091e20e, 2023-11-25, custom)"
   xmlns:inkscape="http://www.inkscape.org/namespaces/inkscape"
   xmlns:sodipodi="http://sodipodi.sourceforge.net/DTD/sodipodi-0.dtd"
   xmlns="http://www.w3.org/2000/svg"
   xmlns:svg="http://www.w3.org/2000/svg"><defs
   id="defs14" /><sodipodi:namedview
   id="namedview14"
   pagecolor="#ffffff"
   bordercolor="#000000"
   borderopacity="0.25"
   inkscape:showpageshadow="2"
   inkscape:pageopacity="0.0"
   inkscape:pagecheckerboard="0"
   inkscape:deskcolor="#d1d1d1"
   inkscape:zoom="0.5875"
   inkscape:cx="400"
   inkscape:cy="400.85106"
   inkscape:window-width="1920"
   inkscape:window-height="1027"
   inkscape:window-x="-8"
   inkscape:window-y="-8"
   inkscape:window-maximized="1"
   inkscape:current-layer="Capa_1" />
<g
   id="g14">
	<g
   id="g12">
		<circle
   style="fill:#ecf0f1"
   cx="29"
   cy="29"
   r="29"
   id="circle1" />
		<path
   style="fill:#545e73"
   d="M 29,4 C 42.785,4 54,15.215 54,29 54,42.785 42.785,54 29,54 15.215,54 4,42.785 4,29 4,15.215 15.215,4 29,4 M 29,0 C 12.984,0 0,12.984 0,29 0,45.016 12.984,58 29,58 45.016,58 58,45.016 58,29 58,12.984 45.016,0 29,0 Z"
   id="path1" />
		<g
   id="g9">
			<path
   style="fill:#8697cb"
   d="m 29,5.879 c -0.552,0 -1,0.447 -1,1 v 1 c 0,0.553 0.448,1 1,1 0.552,0 1,-0.447 1,-1 v -1 c 0,-0.553 -0.448,-1 -1,-1 z"
   id="path2" />
			<path
   style="fill:#8697cb"
   d="m 29,48.879 c -0.552,0 -1,0.447 -1,1 v 1 c 0,0.553 0.448,1 1,1 0.552,0 1,-0.447 1,-1 v -1 c 0,-0.553 -0.448,-1 -1,-1 z"
   id="path3" />
			<path
   style="fill:#8697cb"
   d="m 51,27.879 h -1 c -0.552,0 -1,0.447 -1,1 0,0.553 0.448,1 1,1 h 1 c 0.552,0 1,-0.447 1,-1 0,-0.553 -0.448,-1 -1,-1 z"
   id="path4" />
			<path
   style="fill:#8697cb"
   d="M 8,27.879 H 7 c -0.552,0 -1,0.447 -1,1 0,0.553 0.448,1 1,1 h 1 c 0.552,0 1,-0.447 1,-1 0,-0.553 -0.448,-1 -1,-1 z"
   id="path5" />
			<path
   style="fill:#8697cb"
   d="m 43.849,12.615 -0.707,0.707 c -0.391,0.391 -0.391,1.023 0,1.414 0.195,0.195 0.451,0.293 0.707,0.293 0.256,0 0.512,-0.098 0.707,-0.293 l 0.707,-0.707 c 0.391,-0.391 0.391,-1.023 0,-1.414 -0.391,-0.391 -1.023,-0.391 -1.414,0 z"
   id="path6" />
			<path
   style="fill:#8697cb"
   d="m 13.444,43.021 -0.707,0.707 c -0.391,0.391 -0.391,1.023 0,1.414 0.195,0.195 0.451,0.293 0.707,0.293 0.256,0 0.512,-0.098 0.707,-0.293 l 0.707,-0.707 c 0.391,-0.391 0.391,-1.023 0,-1.414 -0.391,-0.391 -1.024,-0.39 -1.414,0 z"
   id="path7" />
			<path
   style="fill:#8697cb"
   d="m 44.556,43.021 c -0.391,-0.391 -1.023,-0.391 -1.414,0 -0.391,0.391 -0.391,1.023 0,1.414 l 0.707,0.707 c 0.195,0.195 0.451,0.293 0.707,0.293 0.256,0 0.512,-0.098 0.707,-0.293 0.391,-0.391 0.391,-1.023 0,-1.414 z"
   id="path8" />
			<path
   style="fill:#8697cb"
   d="m 14.151,12.615 c -0.391,-0.391 -1.023,-0.391 -1.414,0 -0.391,0.391 -0.391,1.023 0,1.414 l 0.707,0.707 c 0.195,0.195 0.451,0.293 0.707,0.293 0.256,0 0.512,-0.098 0.707,-0.293 0.391,-0.391 0.391,-1.023 0,-1.414 z"
   id="path9" />
		</g>
		<path
   style="fill:#545e73"
   d="m 26,29.879 h -8 c -0.553,0 -1,-0.447 -1,-1 0,-0.553 0.447,-1 1,-1 h 8 c 0.553,0 1,0.447 1,1 0,0.553 -0.447,1 -1,1 z"
   id="path10" />
		<path
   style="fill:#545e73"
   d="m 29,26.879 c -0.553,0 -1,-0.447 -1,-1 v -11 c 0,-0.553 0.447,-1 1,-1 0.553,0 1,0.447 1,1 v 11 c 0,0.553 -0.447,1 -1,1 z"
   id="path11" />
		<path
   style="fill:#545e73"
   d="m 29,32.879 c -2.206,0 -4,-1.794 -4,-4 0,-2.206 1.794,-4 4,-4 2.206,0 4,1.794 4,4 0,2.206 -1.794,4 -4,4 z m 0,-6 c -1.103,0 -2,0.897 -2,2 0,1.103 0.897,2 2,2 1.103,0 2,-0.897 2,-2 0,-1.103 -0.897,-2 -2,-2 z"
   id="path12" />
	</g>
	
</g><polygon
   class="cls-2"
   points="10.143,17 5,5 59,5 53.857,17 "
   id="polygon5"
   transform="matrix(-0.52373877,0,0,-0.50954934,60.464405,54.373579)"
   style="fill:#bdc3c7;stroke:#000000;stroke-width:2px;stroke-linecap:round;stroke-linejoin:round" /><path
   class="cls-3"
   d="m 47.894675,48.768537 h -8.379821 a 3.1424327,3.0572958 0 0 1 -3.142432,-3.057296 v 0 h 14.664685 v 0 a 3.1424327,3.0572958 0 0 1 -3.142432,3.057296 z"
   id="path6-7"
   style="fill:#ffffff;stroke:#000000;stroke-width:1.03319px;stroke-linecap:round;stroke-linejoin:round" /><path
   class="cls-4"
   d="m 43.719535,42.653946 c -0.543956,-0.709956 -0.588579,-1.199531 -0.506404,-1.528649 0.173148,-0.693445 0.961427,-0.884832 1.012806,-1.528647 a 1.4217413,1.3832226 0 0 0 -0.506402,-1.019099"
   id="path7-7"
   style="fill:none;stroke:#000000;stroke-width:1.03319px;stroke-linecap:round;stroke-linejoin:round" /><path
   class="cls-4"
   d="m 46.861966,43.673044 c -0.543953,-0.709955 -0.588578,-1.19953 -0.506403,-1.528648 0.173148,-0.693446 0.961428,-0.884832 1.012806,-1.528648 A 1.4218984,1.3833754 0 0 0 46.861966,39.59665"
   id="path8-6"
   style="fill:none;stroke:#000000;stroke-width:1.03319px;stroke-linecap:round;stroke-linejoin:round" /><path
   class="cls-4"
   d="m 40.577101,43.673044 c -0.543955,-0.709955 -0.588578,-1.19953 -0.506402,-1.528648 0.173147,-0.693446 0.961426,-0.884832 1.012806,-1.528648 A 1.4217413,1.3832226 0 0 0 40.577101,39.59665"
   id="path9-2"
   style="fill:none;stroke:#000000;stroke-width:1.03319px;stroke-linecap:round;stroke-linejoin:round" /><path
   style="fill:#e6e6e6;stroke-width:0.0397859"
   d="m 31.497104,48.783867 1.114899,-2.531191 h 1.624963 c 1.266202,0 1.62781,0.01083 1.637858,0.04905 0.0071,0.02698 0.04315,0.172671 0.08014,0.323757 0.07472,0.305249 0.315819,0.824017 0.515406,1.108992 0.189777,0.270966 0.622299,0.69857 0.907941,0.897616 0.336911,0.234773 0.857238,0.466078 1.289406,0.57319 l 0.358062,0.08875 h 4.678986 4.678984 l 0.358063,-0.08875 c 0.432168,-0.107112 0.952494,-0.338417 1.289406,-0.57319 0.285641,-0.199046 0.718163,-0.62665 0.90794,-0.897616 0.199587,-0.284975 0.440686,-0.803743 0.515406,-1.108992 0.03699,-0.151086 0.07304,-0.296777 0.08014,-0.323757 0.01004,-0.03823 0.371657,-0.04905 1.637858,-0.04905 h 1.624964 l 1.114899,2.531191 1.114897,2.53119 H 43.704765 30.382206 Z"
   id="path10-1" /><path
   style="fill:#e6e6e6;stroke-width:0.0397859"
   d="m 39.134887,48.208993 c -0.911266,-0.127052 -1.77241,-0.81655 -2.062075,-1.651059 -0.0462,-0.133106 -0.084,-0.256242 -0.084,-0.273635 0,-0.01739 3.022183,-0.03162 6.715958,-0.03162 3.693775,0 6.715957,0.01423 6.715957,0.03162 0,0.107399 -0.192169,0.552016 -0.325026,0.752 -0.439646,0.661789 -1.08834,1.069838 -1.868624,1.175425 -0.387065,0.05238 -8.714867,0.04987 -9.092185,-0.0028 z"
   id="path11-1" /><path
   style="fill:#cccccc;stroke-width:0.0397859"
   d="m 30.414026,51.304818 c 0,-0.0056 0.497865,-1.140254 1.106365,-2.521381 l 1.106365,-2.51114 0.476826,-0.01276 c 0.262255,-0.007 0.987212,-6.61e-4 1.611016,0.01416 l 1.134192,0.02692 0.08784,0.31941 c 0.189088,0.687477 0.560857,1.265257 1.153008,1.791924 0.435284,0.387149 0.976777,0.660057 1.633179,0.82311 0.30757,0.07641 0.446491,0.07859 4.981937,0.07859 4.565419,0 4.672468,-0.0017 4.988162,-0.08014 0.419401,-0.104181 0.959661,-0.332641 1.263931,-0.534479 0.313095,-0.207692 0.81653,-0.696086 1.010324,-0.980142 0.198181,-0.290483 0.439699,-0.82376 0.523188,-1.15521 l 0.06624,-0.262962 1.136257,-0.02697 c 0.624942,-0.01484 1.35083,-0.02123 1.613084,-0.01422 l 0.476826,0.01276 1.106365,2.511139 c 0.608501,1.381127 1.106364,2.515747 1.106364,2.52138 0,0.0056 -5.980831,0.01024 -13.290737,0.01024 -7.309906,0 -13.290738,-0.0046 -13.290738,-0.01024 z"
   id="path12-4" /><ellipse
   style="fill:#800000;stroke-width:0.0413276"
   id="path13"
   cx="49.573666"
   cy="46.723595"
   rx="0.44369686"
   ry="0.37281108" />
</svg>
