<?xml version="1.0" encoding="UTF-8" standalone="no"?>
<!-- Uploaded to: SVG Repo, www.svgrepo.com, Generator: SVG Repo Mixer Tools -->

<svg
   width="781.7088"
   height="363.89893"
   viewBox="0 0 62.536704 29.111914"
   id="filled"
   version="1.1"
   sodipodi:docname="dehydrator.svg"
   inkscape:version="1.3.2 (091e20e, 2023-11-25, custom)"
   xmlns:inkscape="http://www.inkscape.org/namespaces/inkscape"
   xmlns:sodipodi="http://sodipodi.sourceforge.net/DTD/sodipodi-0.dtd"
   xmlns="http://www.w3.org/2000/svg"
   xmlns:svg="http://www.w3.org/2000/svg">
  <sodipodi:namedview
     id="namedview9"
     pagecolor="#ffffff"
     bordercolor="#000000"
     borderopacity="0.25"
     inkscape:showpageshadow="2"
     inkscape:pageopacity="0.0"
     inkscape:pagecheckerboard="0"
     inkscape:deskcolor="#d1d1d1"
     inkscape:zoom="1.03875"
     inkscape:cx="399.51865"
     inkscape:cy="281.58845"
     inkscape:window-width="1920"
     inkscape:window-height="1027"
     inkscape:window-x="-8"
     inkscape:window-y="-8"
     inkscape:window-maximized="1"
     inkscape:current-layer="filled" />
  <defs
     id="defs1">
    <style
       id="style1">.cls-1{fill:#f7d7c7;}.cls-1,.cls-2,.cls-3,.cls-4{stroke:#000000;stroke-linecap:round;stroke-linejoin:round;stroke-width:2px;}.cls-2{fill:#bdc3c7;}.cls-3{fill:#ffffff;}.cls-4{fill:none;}</style>
  </defs>
  <title
     id="title1" />
  <polygon
     class="cls-2"
     points="5,5 59,5 53.857,17 10.143,17 "
     id="polygon5"
     transform="rotate(180,32,16.344164)" />
  <path
     class="cls-3"
     d="M 40,21.688327 H 24 a 6,6 0 0 1 -6,-6 v 0 h 28 v 0 a 6,6 0 0 1 -6,6 z"
     id="path6" />
  <path
     class="cls-4"
     d="m 32.0282,9.6883273 c -1.0386,-1.3933 -1.1238,-2.3541 -0.9669,-3 0.3306,-1.3609 1.8357,-1.7365 1.9338,-3 a 2.7146,2.7146 0 0 0 -0.9669,-2"
     id="path7" />
  <path
     class="cls-4"
     d="m 38.0282,11.688327 c -1.0386,-1.3933 -1.1238,-2.3540997 -0.9669,-2.9999997 0.3306,-1.3609 1.8357,-1.7365 1.9338,-3 a 2.7149,2.7149 0 0 0 -0.9669,-2"
     id="path8" />
  <path
     class="cls-4"
     d="m 26.0282,11.688327 c -1.0386,-1.3933 -1.1238,-2.3540997 -0.9669,-2.9999997 0.3306,-1.3609 1.8357,-1.7365 1.9338,-3 a 2.7146,2.7146 0 0 0 -0.9669,-2"
     id="path9" />
  <path
     style="fill:#e6e6e6;stroke-width:0.962696"
     d="m 108.64148,271.48014 26.60913,-62.09386 h 38.78277 c 30.22026,0 38.85072,0.26568 39.09055,1.20337 0.16928,0.66185 1.02999,4.23586 1.91266,7.94224 1.78334,7.48821 7.53761,20.21434 12.30115,27.20521 4.52938,6.6472 14.85233,17.13696 21.6697,22.01986 8.041,5.75932 20.45956,11.43357 30.77404,14.06118 l 8.54584,2.17705 H 400 511.67268 l 8.54584,-2.17705 c 10.31448,-2.62761 22.73304,-8.30186 30.77404,-14.06118 6.81737,-4.8829 17.14032,-15.37266 21.6697,-22.01986 4.76354,-6.99087 10.51781,-19.717 12.30115,-27.20521 0.88267,-3.70638 1.74338,-7.28039 1.91266,-7.94224 0.23983,-0.93769 8.87029,-1.20337 39.09055,-1.20337 h 38.78277 l 26.60913,62.09386 26.60912,62.09387 H 400 82.032356 Z"
     id="path10"
     transform="scale(0.08)" />
  <path
     style="fill:#e6e6e6;stroke-width:0.962696"
     d="m 290.93137,257.37764 c -21.74908,-3.11678 -42.30184,-20.03119 -49.21526,-40.50293 -1.1027,-3.26529 -2.00492,-6.28599 -2.00492,-6.71266 0,-0.42667 72.12997,-0.77577 160.28881,-0.77577 88.15884,0 160.28881,0.3491 160.28881,0.77577 0,2.63466 -4.58649,13.54175 -7.75736,18.4477 -10.49294,16.23462 -25.97524,26.24468 -44.59817,28.8349 -9.23807,1.28489 -207.99652,1.22352 -217.00191,-0.067 z"
     id="path11"
     transform="scale(0.08)" />
  <path
     style="fill:#cccccc;stroke-width:0.962696"
     d="m 82.791817,333.3228 c 0,-0.13816 11.882453,-27.9721 26.405453,-61.85319 l 26.40545,-61.60198 11.38035,-0.313 c 6.25919,-0.17216 23.56165,-0.0159 38.44991,0.3473 l 27.06957,0.66031 2.09674,7.83561 c 4.51289,16.86483 13.38587,31.0386 27.51864,43.95853 10.38889,9.49734 23.31261,16.19218 38.97891,20.19214 7.34071,1.87425 10.65628,1.92801 118.90316,1.92801 108.96222,0 111.51713,-0.0422 119.05176,-1.96595 10.00982,-2.55573 22.9041,-8.16018 30.16605,-13.11155 7.47262,-5.09501 19.488,-17.07603 24.11329,-24.04433 4.72997,-7.12599 10.49424,-20.20808 12.48684,-28.33905 l 1.58086,-6.45086 27.11889,-0.66158 c 14.91539,-0.36388 32.24005,-0.52074 38.49924,-0.34858 l 11.38035,0.313 26.40545,61.60198 c 14.523,33.88109 26.40545,61.71503 26.40545,61.85319 0,0.13817 -142.74368,0.25121 -317.20818,0.25121 -174.4645,0 -317.208183,-0.11304 -317.208183,-0.25121 z"
     id="path12"
     transform="scale(0.08)" />
  <ellipse
     style="fill:#800000;stroke-width:0.08"
     id="path13"
     cx="43.205776"
     cy="17.675091"
     rx="0.84717208"
     ry="0.73164862" />
</svg>
