<?xml version="1.0" encoding="UTF-8" standalone="no"?>
<!-- Uploaded to: SVG Repo, www.svgrepo.com, Generator: SVG Repo Mixer Tools -->

<svg
   version="1.1"
   id="Layer_1"
   viewBox="0 0 473.931 473.931"
   xml:space="preserve"
   sodipodi:docname="desk-on.svg"
   inkscape:version="1.2 (dc2aedaf03, 2022-05-15)"
   xmlns:inkscape="http://www.inkscape.org/namespaces/inkscape"
   xmlns:sodipodi="http://sodipodi.sourceforge.net/DTD/sodipodi-0.dtd"
   xmlns:xlink="http://www.w3.org/1999/xlink"
   xmlns="http://www.w3.org/2000/svg"
   xmlns:svg="http://www.w3.org/2000/svg"><defs
   id="defs88"><linearGradient
     id="linearGradient747"
     gradientUnits="userSpaceOnUse"
     x1="-4.4390001"
     y1="540.86938"
     x2="5.9180002"
     y2="540.86938"
     gradientTransform="matrix(3.7418,0,0,-3.7418,186.5716,2214.0598)">
	<stop
   offset="0"
   style="stop-color:#959397"
   id="stop4-4" />
	<stop
   offset="0.234"
   style="stop-color:#A6A4AA"
   id="stop6-8" />
	<stop
   offset="0.731"
   style="stop-color:#C4C2CC"
   id="stop8-5" />
	<stop
   offset="1"
   style="stop-color:#D0CED9"
   id="stop10-9" />
</linearGradient><linearGradient
     id="linearGradient755"
     gradientUnits="userSpaceOnUse"
     x1="0.7385"
     y1="544.66821"
     x2="0.7385"
     y2="537.79218"
     gradientTransform="matrix(3.7418,0,0,-3.7418,186.5716,2214.0598)">
	<stop
   offset="0.115"
   style="stop-color:#959397"
   id="stop15-5" />
	<stop
   offset="0.142"
   style="stop-color:#99989B"
   id="stop17-2" />
	<stop
   offset="0.372"
   style="stop-color:#BABAB7"
   id="stop19-8" />
	<stop
   offset="0.497"
   style="stop-color:#C6C7C2"
   id="stop21-8" />
	<stop
   offset="0.624"
   style="stop-color:#78767C"
   id="stop23-7" />
	<stop
   offset="1"
   style="stop-color:#97969E"
   id="stop25-7" />
</linearGradient><linearGradient
     id="linearGradient761"
     gradientUnits="userSpaceOnUse"
     x1="-17.486"
     y1="555.83118"
     x2="18.962999"
     y2="555.83118"
     gradientTransform="matrix(3.7418,0,0,-3.7418,186.5716,2214.0598)">
	<stop
   offset="0"
   style="stop-color:#959397"
   id="stop30-3" />
	<stop
   offset="0.234"
   style="stop-color:#A6A4AA"
   id="stop32-0" />
	<stop
   offset="0.731"
   style="stop-color:#C4C2CC"
   id="stop34-4" />
	<stop
   offset="1"
   style="stop-color:#D0CED9"
   id="stop36-9" />
</linearGradient><linearGradient
     inkscape:collect="always"
     xlink:href="#SVGID_1_"
     id="linearGradient773"
     gradientUnits="userSpaceOnUse"
     gradientTransform="matrix(3.7418,0,0,-3.7417988,327.44845,2212.6271)"
     x1="-4.439"
     y1="540.8694"
     x2="5.918"
     y2="540.8694" /><linearGradient
     inkscape:collect="always"
     xlink:href="#SVGID_2_"
     id="linearGradient775"
     gradientUnits="userSpaceOnUse"
     gradientTransform="matrix(3.7418,0,0,-3.7417988,327.44845,2212.6271)"
     x1="0.7385"
     y1="544.6682"
     x2="0.7385"
     y2="537.7922" /><linearGradient
     inkscape:collect="always"
     xlink:href="#SVGID_3_"
     id="linearGradient777"
     gradientUnits="userSpaceOnUse"
     gradientTransform="matrix(3.7418,0,0,-3.7417988,327.44845,2212.6271)"
     x1="-17.486"
     y1="555.8312"
     x2="18.963"
     y2="555.8312" /><linearGradient
     inkscape:collect="always"
     xlink:href="#SVGID_1_"
     id="linearGradient347"
     gradientUnits="userSpaceOnUse"
     gradientTransform="matrix(3.7418,0,0,-3.7418,160.90747,2213.4895)"
     x1="-4.439"
     y1="540.8694"
     x2="5.918"
     y2="540.8694" /><linearGradient
     inkscape:collect="always"
     xlink:href="#SVGID_2_"
     id="linearGradient349"
     gradientUnits="userSpaceOnUse"
     gradientTransform="matrix(3.7418,0,0,-3.7418,160.90747,2213.4895)"
     x1="0.7385"
     y1="544.6682"
     x2="0.7385"
     y2="537.7922" /><linearGradient
     inkscape:collect="always"
     xlink:href="#SVGID_3_"
     id="linearGradient351"
     gradientUnits="userSpaceOnUse"
     gradientTransform="matrix(3.7418,0,0,-3.7418,160.90747,2213.4895)"
     x1="-17.486"
     y1="555.8312"
     x2="18.963"
     y2="555.8312" /><filter
     inkscape:label="Apparition"
     inkscape:menu="Blurs"
     inkscape:menu-tooltip="Edges are partly feathered out"
     style="color-interpolation-filters:sRGB;"
     id="filter517"
     x="-0.059477585"
     y="-0.99016692"
     width="1.1189552"
     height="2.9803338"><feMorphology
       radius="4"
       in="SourceGraphic"
       result="result0"
       id="feMorphology511" /><feGaussianBlur
       in="result0"
       stdDeviation="8"
       result="result91"
       id="feGaussianBlur513" /><feComposite
       operator="in"
       in="SourceGraphic"
       in2="result91"
       id="feComposite515" /></filter><filter
     inkscape:label="Blur Double"
     inkscape:menu="Blurs"
     inkscape:menu-tooltip="Overlays two copies with different blur amounts and modifiable blend and composite"
     style="color-interpolation-filters:sRGB;"
     id="filter529"
     x="-0.037247838"
     y="-0.62009203"
     width="1.0744957"
     height="2.2401841"><feGaussianBlur
       stdDeviation="5"
       result="fbSourceGraphic"
       id="feGaussianBlur521" /><feGaussianBlur
       stdDeviation="0.01"
       in="SourceGraphic"
       result="result1"
       id="feGaussianBlur523" /><feComposite
       in2="result1"
       operator="arithmetic"
       in="fbSourceGraphic"
       k2="0.5"
       k3="0.5"
       result="result2"
       id="feComposite525" /><feBlend
       in2="fbSourceGraphic"
       mode="normal"
       result="result3"
       id="feBlend527" /></filter></defs><sodipodi:namedview
   id="namedview86"
   pagecolor="#ffffff"
   bordercolor="#000000"
   borderopacity="0.25"
   inkscape:showpageshadow="2"
   inkscape:pageopacity="0.0"
   inkscape:pagecheckerboard="0"
   inkscape:deskcolor="#d1d1d1"
   showgrid="false"
   inkscape:zoom="1.7534198"
   inkscape:cx="200.4654"
   inkscape:cy="240.10223"
   inkscape:window-width="1920"
   inkscape:window-height="1011"
   inkscape:window-x="-8"
   inkscape:window-y="-8"
   inkscape:window-maximized="1"
   inkscape:current-layer="Layer_1" />

<linearGradient
   id="SVGID_1_"
   gradientUnits="userSpaceOnUse"
   x1="-4.439"
   y1="540.8694"
   x2="5.918"
   y2="540.8694"
   gradientTransform="matrix(3.7418 0 0 -3.7418 186.5716 2214.0598)">
	<stop
   offset="0"
   style="stop-color:#959397"
   id="stop4" />
	<stop
   offset="0.234"
   style="stop-color:#A6A4AA"
   id="stop6" />
	<stop
   offset="0.731"
   style="stop-color:#C4C2CC"
   id="stop8" />
	<stop
   offset="1"
   style="stop-color:#D0CED9"
   id="stop10" />
</linearGradient>
<path
   style="fill:url(#linearGradient347)"
   d="m 183.04387,201.72069 c 0,1.197 -0.973,0.92 -2.17,0.92 h -34.413 c -1.197,0 -2.163,0.277 -2.163,-0.92 v -1.478 l 5.066,-7.6 -0.094,-13.777 c 0,-1.197 0.965,-2.163 2.163,-2.163 h 24.482 c 1.19,0 2.163,0.965 2.163,2.163 l -0.079,13.811 5.051,7.562 v 1.482 h -0.006 z"
   id="path13" />
<linearGradient
   id="SVGID_2_"
   gradientUnits="userSpaceOnUse"
   x1="0.7385"
   y1="544.6682"
   x2="0.7385"
   y2="537.7922"
   gradientTransform="matrix(3.7418 0 0 -3.7418 186.5716 2214.0598)">
	<stop
   offset="0.115"
   style="stop-color:#959397"
   id="stop15" />
	<stop
   offset="0.142"
   style="stop-color:#99989B"
   id="stop17" />
	<stop
   offset="0.372"
   style="stop-color:#BABAB7"
   id="stop19" />
	<stop
   offset="0.497"
   style="stop-color:#C6C7C2"
   id="stop21" />
	<stop
   offset="0.624"
   style="stop-color:#78767C"
   id="stop23" />
	<stop
   offset="1"
   style="stop-color:#97969E"
   id="stop25" />
</linearGradient>
<path
   style="fill:url(#linearGradient349)"
   d="m 183.04387,200.24669 c 0,1.197 -0.973,0.928 -2.17,0.928 h -34.413 c -1.197,0 -2.163,0.269 -2.163,-0.928 l 5.066,-8.849 -0.094,-13.762 c 0,-1.197 0.965,-2.163 2.163,-2.163 h 24.482 c 1.19,0 2.163,0.965 2.163,2.163 l -0.079,13.811 z"
   id="path28" />
<linearGradient
   id="SVGID_3_"
   gradientUnits="userSpaceOnUse"
   x1="-17.486"
   y1="555.8312"
   x2="18.963"
   y2="555.8312"
   gradientTransform="matrix(3.7418 0 0 -3.7418 186.5716 2214.0598)">
	<stop
   offset="0"
   style="stop-color:#959397"
   id="stop30" />
	<stop
   offset="0.234"
   style="stop-color:#A6A4AA"
   id="stop32" />
	<stop
   offset="0.731"
   style="stop-color:#C4C2CC"
   id="stop34" />
	<stop
   offset="1"
   style="stop-color:#D0CED9"
   id="stop36" />
</linearGradient>
<path
   style="fill:url(#linearGradient351)"
   d="m 231.86287,173.90769 c 0,4.494 -3.648,8.142 -8.142,8.142 h -120.1 c -4.494004,0 -8.142004,-3.648 -8.142004,-8.142 V 93.497686 c 0,-4.494 3.648,-8.142 8.142004,-8.142 h 120.099 c 4.494,0 8.142,3.648 8.142,8.142 v 80.410004 z"
   id="path39" />
<path
   style="fill:#08090b"
   d="M 231.86287,164.11969 H 95.478866 V 93.493686 c 0,-4.494 3.648,-8.142 8.142004,-8.142 h 120.099 c 4.494,0 8.142,3.648 8.142,8.142 v 70.626004 z"
   id="path41" />
<rect
   x="101.33087"
   y="90.829689"
   style="fill:#676767"
   width="124.414"
   height="67.801003"
   id="rect43" />
<rect
   x="101.33087"
   y="90.70269"
   style="fill:#343433"
   width="124.414"
   height="0.43000001"
   id="rect45" />
<path
   style="fill:url(#linearGradient773);stroke-width:1.00001"
   d="m 349.58485,200.85939 c 0,1.19697 -0.973,0.92011 -2.17,0.92011 h -34.413 c -1.197,0 -2.163,0.27686 -2.163,-0.92011 v -1.478 l 5.066,-7.59999 -0.094,-13.77703 c 0,-1.19696 0.965,-2.16294 2.163,-2.16294 h 24.482 c 1.19,0 2.163,0.9651 2.163,2.16294 l -0.079,13.8111 5.051,7.56201 v 1.48191 z"
   id="path13-2" /><path
   style="fill:url(#linearGradient775);stroke-width:1.00001"
   d="m 349.58485,199.38548 c 0,1.19701 -0.973,0.92797 -2.17,0.92797 h -34.413 c -1.197,0 -2.163,0.26904 -2.163,-0.92797 l 5.066,-8.84904 -0.094,-13.76204 c 0,-1.19699 0.965,-2.16291 2.163,-2.16291 h 24.482 c 1.19,0 2.163,0.96495 2.163,2.16291 l -0.079,13.81097 z"
   id="path28-3" /><path
   style="fill:url(#linearGradient777);stroke-width:1.00001"
   d="m 398.40385,173.04639 c 0,4.49417 -3.648,8.14198 -8.142,8.14198 h -120.1 c -4.494,0 -8.142,-3.64781 -8.142,-8.14198 V 92.636416 c 0,-4.49396 3.648,-8.14198 8.142,-8.14198 h 120.099 c 4.494,0 8.142,3.64802 8.142,8.14198 v 80.409974 z"
   id="path39-7" /><path
   style="fill:#08090b;stroke-width:1.00001"
   d="m 398.40385,163.25847 h -136.384 V 92.632436 c 0,-4.4939 3.648,-8.14197 8.142,-8.14197 h 120.099 c 4.494,0 8.142,3.64807 8.142,8.14197 v 70.626034 z"
   id="path41-2" /><rect
   x="267.87186"
   y="89.968422"
   style="fill:#676767;stroke-width:1.00001"
   width="124.414"
   height="67.800941"
   id="rect43-9" /><rect
   x="267.87186"
   y="89.841499"
   style="fill:#343433;stroke-width:1.00001"
   width="124.414"
   height="0.42999998"
   id="rect45-9" />


<g
   id="g63">
	<path
   style="fill:#000000;stroke-width:0.710974"
   d="m 404.63853,204.7828 c 2.89945,0 5.24844,4.662 5.24844,10.391 v 123.257 c 0,5.729 -2.34899,10.383 -5.24844,10.383 v 0 c -2.89592,0 -5.24491,-4.655 -5.24491,-10.383 v -123.257 c 0,-5.729 2.34899,-10.391 5.24491,-10.391 z"
   id="path57" />
	<path
   style="fill:#000000;stroke-width:0.691456"
   d="m 72.639009,204.7828 c 2.73719,0 4.962799,4.662 4.962799,10.391 v 123.257 c 0,5.729 -2.225609,10.383 -4.962799,10.383 v 0 c -2.742448,0 -4.964233,-4.655 -4.964233,-10.383 v -123.257 c 0,-5.729 2.221785,-10.391 4.964233,-10.391 z"
   id="path59" />
	<path
   style="fill:#776850;stroke-width:0.716407"
   d="m 412.963,235.02271 c 0,3.81799 -6.043,6.91334 -13.478,6.91334 H 78.48 c -7.439,0 -13.47,-3.09381 -13.47,-6.91334 v 0 c 0,-3.81799 6.028,-6.91744 13.47,-6.91744 h 321.006 c 7.43,0 13.477,3.0974 13.477,6.91744 z"
   id="path61" /><path
   style="fill:#776850;stroke-width:0.549185"
   d="m 413.50841,204.17365 c 0,2.24364 -6.043,4.06262 -13.478,4.06262 H 79.025413 c -7.439,0 -13.47,-1.81807 -13.47,-4.06262 v 0 c 0,-2.24363 6.028,-4.06502 13.47,-4.06502 H 400.03141 c 7.43,0 13.477,1.82018 13.477,4.06502 z"
   id="path61-9" />
</g>





<path
   style="fill:#5fbcd3;stroke-width:0.570314"
   d="m 77.847872,219.99489 c 0,-4.31507 -0.238726,-8.67797 -0.530503,-9.69534 L 76.786866,208.4498 H 238.49761 400.20836 l -0.41728,1.2832 c -0.22951,0.70577 -0.54405,5.06867 -0.699,9.69534 l -0.2817,8.41213 H 238.32913 77.847872 Z"
   id="path487" /><path
   style="fill:#5fbcd3;stroke-width:0.570314;filter:url(#filter517)"
   d="m 77.840084,219.42834 c -0.0043,-4.62667 -0.162536,-8.98957 -0.351673,-9.69534 l -0.343886,-1.2832 H 238.54987 399.95521 l -0.49665,2.13867 c -0.27316,1.17628 -0.50277,4.34847 -0.51025,7.04933 -0.007,2.70086 -0.17682,6.10136 -0.37629,7.55666 l -0.36268,2.64601 H 238.02861 77.847872 Z"
   id="path489" /><path
   style="fill:#5fbcd3;stroke-width:0.570314;filter:url(#filter529)"
   d="m 77.840084,219.42834 c -0.0043,-4.62667 -0.162536,-8.98957 -0.351673,-9.69534 l -0.343886,-1.2832 H 238.54987 399.95521 l -0.49665,2.13867 c -0.27316,1.17628 -0.50277,4.34847 -0.51025,7.04933 -0.007,2.70086 -0.17682,6.10136 -0.37629,7.55666 l -0.36268,2.64601 H 238.02861 77.847872 Z"
   id="path519" /></svg>
