<?xml version="1.0" encoding="UTF-8" standalone="no"?>
<!-- Uploaded to: SVG Repo, www.svgrepo.com, Generator: SVG Repo Mixer Tools -->

<svg
   width="137.7943"
   height="101.11526"
   viewBox="0 0 11.023544 8.0892206"
   aria-hidden="true"
   role="img"
   class="iconify iconify--emojione"
   preserveAspectRatio="xMidYMid"
   version="1.1"
   id="svg5"
   sodipodi:docname="diminished-light.svg"
   inkscape:version="1.4.3 (0d15f75, 2025-12-25)"
   xmlns:inkscape="http://www.inkscape.org/namespaces/inkscape"
   xmlns:sodipodi="http://sodipodi.sourceforge.net/DTD/sodipodi-0.dtd"
   xmlns="http://www.w3.org/2000/svg"
   xmlns:svg="http://www.w3.org/2000/svg">
  <defs
     id="defs5" />
  <sodipodi:namedview
     id="namedview5"
     pagecolor="#ffffff"
     bordercolor="#000000"
     borderopacity="0.25"
     inkscape:showpageshadow="2"
     inkscape:pageopacity="0.0"
     inkscape:pagecheckerboard="0"
     inkscape:deskcolor="#d1d1d1"
     inkscape:zoom="1.00875"
     inkscape:cx="69.392813"
     inkscape:cy="103.59356"
     inkscape:window-width="1920"
     inkscape:window-height="1009"
     inkscape:window-x="-8"
     inkscape:window-y="-8"
     inkscape:window-maximized="1"
     inkscape:current-layer="svg5" />
  <path
     d="m 3.2688969,3.6838614 c 1.055944,-1.238144 1.557183,0.04913 2.192086,0.04913 0.501239,0 1.122776,-1.287277 1.817827,-0.235837 -0.795299,-0.560113 -1.089359,0.638725 -1.918075,0.638725 -0.634903,0 -0.882181,-1.110399 -2.091838,-0.452021"
     fill="#979797"
     id="path1"
     style="stroke-width:0.0810385" />
  <path
     d="m 7.2788099,4.6763424 c -0.614853,-0.746818 -1.009161,-0.137572 -1.517084,0.176877 -0.320793,0.196531 -0.654952,0.147399 -0.989111,-0.373408 0.240594,0.127745 0.768566,0.550286 1.289855,-0.196531 -0.447774,0.294796 -1.009162,0.08844 -1.463618,-0.245663 -0.50124,-0.363583 -0.908914,-0.422541 -1.329955,0.245663 0.260644,-0.294796 0.641586,-0.22601 0.935646,-0.108092 -0.187129,0.0098 -0.594803,0.07861 -0.935646,0.854909 1.029211,-1.257797 1.40347,0.461847 2.212136,0.461847 0.781933,0 0.708418,-1.287276 1.797777,-0.815602"
     fill="#d0d0d0"
     id="path2"
     style="stroke-width:0.0810385" />
  <path
     d="m 3.2688969,3.2613204 c 0.126981,-0.530633 1.015845,-1.297104 1.724263,0.0098 -0.989112,-0.668178 -1.724263,-0.0098 -1.724263,-0.0098"
     fill="#979797"
     id="path3"
     style="stroke-width:0.0810385" />
  <path
     d="m 5.9488559,2.7208604 c 0.414357,-0.668205 1.075993,-0.304623 1.329954,0.02948 -0.207179,-0.03931 -0.835398,-0.235836 -1.102726,0.196531 -0.427724,0.668205 -0.928963,0.56994 -1.08936,0.334103 0,-0.0098 0.507923,0.01965 0.862132,-0.560113"
     fill="#d0d0d0"
     id="path4"
     style="stroke-width:0.0810385" />
  <path
     d="m 6.1694009,4.2538014 c 0.534655,-1.30693 1.109409,-0.206358 1.109409,-0.206358 -0.62822,-0.324276 -1.109409,0.206358 -1.109409,0.206358"
     fill="#979797"
     id="path5"
     style="stroke-width:0.0810385" />
</svg>
