<?xml version="1.0" encoding="UTF-8" standalone="no"?>
<svg
   width="70.838249"
   height="37.515934"
   viewBox="0 -2.33 70.838249 37.515934"
   version="1.1"
   id="svg7702"
   sodipodi:docname="dogs-both.svg"
   inkscape:version="1.2 (dc2aedaf03, 2022-05-15)"
   xmlns:inkscape="http://www.inkscape.org/namespaces/inkscape"
   xmlns:sodipodi="http://sodipodi.sourceforge.net/DTD/sodipodi-0.dtd"
   xmlns="http://www.w3.org/2000/svg"
   xmlns:svg="http://www.w3.org/2000/svg">
  <defs
     id="defs7706" />
  <sodipodi:namedview
     id="namedview7704"
     pagecolor="#ffffff"
     bordercolor="#000000"
     borderopacity="0.25"
     inkscape:showpageshadow="2"
     inkscape:pageopacity="0.0"
     inkscape:pagecheckerboard="0"
     inkscape:deskcolor="#d1d1d1"
     showgrid="false"
     inkscape:zoom="8.8229167"
     inkscape:cx="40.576151"
     inkscape:cy="36.835891"
     inkscape:window-width="1920"
     inkscape:window-height="1027"
     inkscape:window-x="-8"
     inkscape:window-y="-8"
     inkscape:window-maximized="1"
     inkscape:current-layer="svg7702" />
  <g
     transform="matrix(0.40613867,0,0,0.38451178,-63.77947,-124.30568)"
     id="g7700">
    <path
       d="m 199.465,325.075 c 0,0 -5.642,-5.29 -12.341,-5.025 -6.699,0.265 -24.58,11.375 -24.684,21.16 -0.187,17.626 -5.739,25.4 0.986,32.263 11.5,11.741 16.361,9.634 20.965,-9.787 2.663,-11.234 15.074,-38.611 15.074,-38.611 z"
       fill="#a05132"
       id="path7644" />
    <path
       d="m 195.807,334.266 c -0.458,-3.147 -0.772,-5.289 -0.772,-5.289 0,0 -6.074,-2.753 -7.908,-1.835 -1.834,0.918 -8.41,21.407 -10.7,27.371 -2.29,5.964 4.893,23.191 0,25.51 a 3.7,3.7 0 0 0 -0.667,0.406 c 4.458,-0.624 5.88,-9.214 8.635,-16.743 2.491,-6.819 7.805,-20.329 11.412,-29.42 z"
       fill="#8f3f25"
       id="path7646" />
    <path
       d="m 208.109,324.284 c 0,0 -15.912,-5.557 -19.482,5.948 -3.57,11.505 -11.5,22.611 -11.5,29.752 0,7.141 8.374,31.339 15.493,31.339 h 15.493 z"
       fill="#ce783f"
       id="path7648" />
    <path
       d="m 206.82,323.931 c 0,0 -0.754,29.926 -5.371,35.73 -7.136,8.97 -17.4,13.085 -16.31,19.572 1.379,8.242 9.034,14.073 11.22,22.007 2.186,7.934 4.257,10.138 11.75,10.138 v -87.094 z"
       fill="#f7dcc6"
       id="path7650" />
    <path
       d="m 198.929,350.542 c -0.83,-1.985 -2.409,-6.193 -6.723,-5.171 a 26.714,26.714 0 0 0 -6.487,2.29 0.283,0.283 0 0 0 0.061,0.519 3.065,3.065 0 0 1 1.724,1.07 9.3,9.3 0 0 0 4.593,3.709 c 1.7,0.588 4.127,-0.68 5.62,-0.678 a 3.241,3.241 0 0 1 1.65,0.946 0.29,0.29 0 0 0 0.459,-0.328 c -0.302,-0.822 -0.683,-1.846 -0.897,-2.357 z"
       fill="#a05132"
       id="path7652" />
    <ellipse
       cx="3.7349999"
       cy="3.8510001"
       rx="3.7349999"
       ry="3.8510001"
       transform="translate(189.046,345.325)"
       fill="#4f3a2b"
       id="ellipse7654" />
    <ellipse
       cx="2.2550001"
       cy="2.325"
       rx="2.2550001"
       ry="2.325"
       transform="translate(190.525,346.851)"
       fill="#35251a"
       id="ellipse7656" />
    <ellipse
       cx="0.69599998"
       cy="0.71799999"
       rx="0.69599998"
       ry="0.71799999"
       transform="translate(190.304,347.117)"
       fill="#fbfcfc"
       id="ellipse7658" />
    <path
       d="m 208.109,371.282 c 0,0 -9.514,-1.02 -9.514,3.262 0,4.282 5.369,8.563 9.514,8.563 z"
       fill="#4f3a2b"
       id="path7660" />
    <path
       d="m 203.352,379.641 c 0,0 -3.738,-3.466 -1.291,-3.67 2.447,-0.204 5.324,5.959 1.291,3.67 z"
       fill="#35251a"
       id="path7662" />
    <path
       d="m 208.109,384.738 c 0,0 -5.531,3.466 -8.644,3.466 -3.113,0 -11.676,-9.377 -11.676,-8.053 0,1.324 3.874,7.849 7.544,12.538 3.67,4.689 4.145,14.679 12.776,14.679 z"
       fill="#4f3a2b"
       id="path7664" />
    <path
       d="m 202.723,344.879 c 0.364,0.319 0.383,7.162 -0.917,5.378 -1.3,-1.784 -1.376,-3.144 -0.612,-2.655 0.764,0.489 0.918,-3.258 1.529,-2.723 z"
       fill="#a05132"
       id="path7666" />
    <path
       d="m 208.109,391.323 c 0,0 -6.762,1.57 -7.985,3.1 -1.223,1.53 1.971,12.539 3.992,13.558 a 9.86,9.86 0 0 0 3.993,1.019 z"
       fill="#f37777"
       id="path7668" />
    <path
       d="m 202.367,336.622 c -0.8,-1.063 -1.937,1.02 -5,2.447 -3.063,1.427 -1.521,3.568 2.094,3.466 3.615,-0.102 4.129,-4.282 2.906,-5.913 z"
       fill="#f7dcc6"
       id="path7670" />
    <path
       d="m 216.753,325.075 c 0,0 5.642,-5.29 12.342,-5.025 6.7,0.265 24.579,11.375 24.683,21.16 0.187,17.626 5.74,25.4 -0.985,32.263 -11.5,11.741 -16.362,9.634 -20.965,-9.787 -2.664,-11.234 -15.075,-38.611 -15.075,-38.611 z"
       fill="#a05132"
       id="path7672" />
    <path
       d="m 220.411,334.266 c 0.458,-3.147 0.772,-5.289 0.772,-5.289 0,0 6.074,-2.753 7.909,-1.835 1.835,0.918 8.41,21.407 10.7,27.371 2.29,5.964 -4.893,23.191 0,25.51 a 3.663,3.663 0 0 1 0.667,0.406 c -4.458,-0.624 -5.88,-9.214 -8.634,-16.743 -2.492,-6.819 -7.81,-20.329 -11.414,-29.42 z"
       fill="#8f3f25"
       id="path7674" />
    <path
       d="m 208.109,324.284 c 0,0 15.912,-5.557 19.482,5.948 3.57,11.505 11.5,22.611 11.5,29.752 0,7.141 -8.374,31.339 -15.493,31.339 h -15.489 z"
       fill="#ce783f"
       id="path7676" />
    <path
       d="m 209.4,323.931 c 0,0 0.754,29.926 5.37,35.73 7.136,8.97 17.4,13.085 16.31,19.572 -1.379,8.242 -9.034,14.073 -11.219,22.007 -2.185,7.934 -4.258,10.138 -11.751,10.138 v -87.094 z"
       fill="#f7dcc6"
       id="path7678" />
    <path
       d="m 217.289,350.542 c 0.83,-1.985 2.409,-6.193 6.723,-5.171 a 26.7,26.7 0 0 1 6.487,2.29 0.283,0.283 0 0 1 -0.061,0.519 3.065,3.065 0 0 0 -1.724,1.07 9.3,9.3 0 0 1 -4.592,3.709 c -1.7,0.588 -4.127,-0.68 -5.621,-0.678 a 3.241,3.241 0 0 0 -1.65,0.946 0.29,0.29 0 0 1 -0.459,-0.328 c 0.302,-0.822 0.683,-1.846 0.897,-2.357 z"
       fill="#a05132"
       id="path7680" />
    <ellipse
       cx="3.7349999"
       cy="3.8510001"
       rx="3.7349999"
       ry="3.8510001"
       transform="translate(219.704,345.325)"
       fill="#4f3a2b"
       id="ellipse7682" />
    <ellipse
       cx="2.2550001"
       cy="2.325"
       rx="2.2550001"
       ry="2.325"
       transform="translate(221.183,346.851)"
       fill="#35251a"
       id="ellipse7684" />
    <ellipse
       cx="0.69599998"
       cy="0.71799999"
       rx="0.69599998"
       ry="0.71799999"
       transform="translate(224.522,347.117)"
       fill="#fbfcfc"
       id="ellipse7686" />
    <path
       d="m 208.109,371.282 c 0,0 9.514,-1.02 9.514,3.262 0,4.282 -5.368,8.563 -9.514,8.563 z"
       fill="#4f3a2b"
       id="path7688" />
    <path
       d="m 212.866,379.641 c 0,0 3.738,-3.466 1.292,-3.67 -2.446,-0.204 -5.324,5.959 -1.292,3.67 z"
       fill="#35251a"
       id="path7690" />
    <path
       d="m 208.109,384.738 c 0,0 5.531,3.466 8.644,3.466 3.113,0 11.676,-9.377 11.676,-8.053 0,1.324 -3.874,7.849 -7.543,12.538 -3.669,4.689 -4.146,14.679 -12.777,14.679 z"
       fill="#4f3a2b"
       id="path7692" />
    <path
       d="m 213.495,344.879 c -0.364,0.319 -0.382,7.162 0.917,5.378 1.299,-1.784 1.377,-3.144 0.612,-2.655 -0.765,0.489 -0.917,-3.258 -1.529,-2.723 z"
       fill="#a05132"
       id="path7694" />
    <path
       d="m 208.109,391.323 c 0,0 6.762,1.57 7.985,3.1 1.223,1.53 -1.97,12.539 -3.992,13.558 A 9.86,9.86 0 0 1 208.109,409 Z"
       fill="#f37777"
       id="path7696" />
    <path
       d="m 213.852,336.622 c 0.8,-1.063 1.937,1.02 4.995,2.447 3.058,1.427 1.521,3.568 -2.094,3.466 -3.615,-0.102 -4.125,-4.282 -2.901,-5.913 z"
       fill="#f7dcc6"
       id="path7698" />
  </g>
  <g
     transform="matrix(0.30338618,0,0,0.34390466,-85.095385,-155.92252)"
     id="g7748">
    <path
       d="m 446.68,475.492 c 0,0 -5.354,-3.79 -10.159,3.231 -4.805,7.021 -18.168,10.3 -20.2,19.93 -2.032,9.63 11.028,24.064 10.511,29.91 -0.517,5.846 -4.574,12.344 0,12.057 4.574,-0.287 12.828,-11.822 12.442,-18.992 -0.386,-7.17 -3.5,-20.79 -1.944,-25.046 1.556,-4.256 9.352,-10.838 9.352,-10.838 z"
       fill="#232931"
       id="path7708" />
    <path
       d="m 464.1,469.952 c 0,0 -16.955,-5.9 -20.581,3.154 -3.258,8.134 -3.324,18.222 -6.345,22.557 -3.021,4.335 3.642,14.005 4.389,19.443 0.747,5.438 -1.165,14.113 1.285,18.086 2.45,3.973 3.995,6.911 9.736,9.5 5.741,2.589 11.516,-0.392 11.516,-0.392 z"
       fill="#393e46"
       id="path7710" />
    <path
       d="m 455.16,534.519 c -1.374,-3.763 4.528,-19 2.4,-20.017 -3.79,-1.813 -9.2,14.2 -11.318,13.9 -1.422,-0.2 -3.014,-2.676 -4.685,-2.752 -0.027,2.985 0.076,5.818 1.294,7.542 7.464,10.561 3.995,12.241 9.736,14.833 5.741,2.592 11.516,-0.393 11.516,-0.393 v -7.449 c 0,0 -7.569,-1.901 -8.943,-5.664 z"
       fill="#f7a747"
       id="path7712" />
    <path
       d="m 464.1,531.452 c 0,0 -8.944,-0.958 -8.944,3.067 0,4.025 5.047,8.049 8.944,8.049 z"
       fill="#232931"
       id="path7714" />
    <path
       d="m 459.632,539.31 c 0,0 -3.514,-3.258 -1.214,-3.45 2.3,-0.192 5.005,5.603 1.214,3.45 z"
       fill="#393e46"
       id="path7716" />
    <path
       d="m 453.264,505.368 c -0.656,-1.569 -1.9,-4.9 -5.314,-4.088 a 21.158,21.158 0 0 0 -5.128,1.811 0.224,0.224 0 0 0 0.048,0.41 2.423,2.423 0 0 1 1.363,0.846 7.354,7.354 0 0 0 3.63,2.931 c 1.343,0.466 3.262,-0.537 4.443,-0.535 a 2.55,2.55 0 0 1 1.3,0.748 0.229,0.229 0 0 0 0.363,-0.259 c -0.235,-0.65 -0.536,-1.46 -0.705,-1.864 z"
       fill="#ffffff"
       id="path7718" />
    <ellipse
       cx="2.9519999"
       cy="3.0439999"
       rx="2.9519999"
       ry="3.0439999"
       transform="translate(445.452,501.244)"
       fill="#393e46"
       id="ellipse7720" />
    <ellipse
       cx="1.7819999"
       cy="1.8380001"
       rx="1.7819999"
       ry="1.8380001"
       transform="translate(446.621,502.45)"
       fill="#232931"
       id="ellipse7722" />
    <ellipse
       cx="0.55000001"
       cy="0.56699997"
       rx="0.55000001"
       ry="0.56699997"
       transform="translate(446.446,502.661)"
       fill="#fbfcfc"
       id="ellipse7724" />
    <path
       d="m 456.3,490.727 c -2.184,-1.808 -5.606,2.7 -4.793,3.9 0.813,1.2 3.679,1.431 4.793,4.1 1.114,2.669 2.932,4 2.58,0.31 -0.352,-3.69 -1.427,-7.359 -2.58,-8.31 z"
       fill="#f7a747"
       id="path7726" />
    <path
       d="m 481.528,475.492 c 0,0 5.353,-3.79 10.158,3.231 4.805,7.021 18.168,10.3 20.2,19.93 2.032,9.63 -11.028,24.064 -10.511,29.91 0.517,5.846 4.575,12.344 0,12.057 -4.575,-0.287 -12.825,-11.82 -12.44,-18.992 0.385,-7.172 3.5,-20.79 1.945,-25.046 -1.555,-4.256 -9.352,-10.838 -9.352,-10.838 z"
       fill="#232931"
       id="path7728" />
    <path
       d="m 464.1,469.952 c 0,0 16.954,-5.9 20.58,3.154 3.258,8.134 3.324,18.222 6.346,22.557 3.022,4.335 -3.642,14.005 -4.39,19.443 -0.748,5.438 1.166,14.113 -1.285,18.086 -2.451,3.973 -3.994,6.911 -9.736,9.5 C 469.873,545.281 464.1,542.3 464.1,542.3 Z"
       fill="#393e46"
       id="path7730" />
    <path
       d="m 473.048,534.519 c 1.374,-3.763 -4.528,-19 -2.4,-20.017 3.79,-1.813 9.2,14.2 11.319,13.9 1.421,-0.2 3.013,-2.676 4.685,-2.752 0.027,2.985 -0.077,5.818 -1.295,7.542 -7.463,10.561 -3.994,12.241 -9.736,14.833 -5.742,2.592 -11.515,-0.393 -11.515,-0.393 v -7.449 c 0,0 7.568,-1.901 8.942,-5.664 z"
       fill="#f7a747"
       id="path7732" />
    <path
       d="m 464.1,531.452 c 0,0 8.944,-0.958 8.944,3.067 0,4.025 -5.047,8.049 -8.944,8.049 z"
       fill="#232931"
       id="path7734" />
    <path
       d="m 468.576,539.31 c 0,0 3.514,-3.258 1.214,-3.45 -2.3,-0.192 -5.005,5.603 -1.214,3.45 z"
       fill="#393e46"
       id="path7736" />
    <path
       d="m 474.943,505.368 c 0.657,-1.569 1.9,-4.9 5.315,-4.088 a 21.162,21.162 0 0 1 5.127,1.811 0.223,0.223 0 0 1 -0.048,0.41 2.426,2.426 0 0 0 -1.363,0.846 7.349,7.349 0 0 1 -3.63,2.931 c -1.342,0.466 -3.262,-0.537 -4.442,-0.535 a 2.552,2.552 0 0 0 -1.305,0.748 0.229,0.229 0 0 1 -0.362,-0.259 c 0.238,-0.65 0.54,-1.46 0.708,-1.864 z"
       fill="#ffffff"
       id="path7738" />
    <ellipse
       cx="2.9519999"
       cy="3.0439999"
       rx="2.9519999"
       ry="3.0439999"
       transform="translate(476.852,501.244)"
       fill="#393e46"
       id="ellipse7740" />
    <ellipse
       cx="1.7819999"
       cy="1.8380001"
       rx="1.7819999"
       ry="1.8380001"
       transform="translate(478.022,502.45)"
       fill="#232931"
       id="ellipse7742" />
    <ellipse
       cx="0.55000001"
       cy="0.56699997"
       rx="0.55000001"
       ry="0.56699997"
       transform="translate(480.661,502.661)"
       fill="#fbfcfc"
       id="ellipse7744" />
    <path
       d="m 471.9,490.727 c 2.183,-1.808 5.6,2.7 4.792,3.9 -0.808,1.2 -3.678,1.431 -4.792,4.1 -1.114,2.669 -2.932,4 -2.581,0.31 0.351,-3.69 1.436,-7.359 2.581,-8.31 z"
       fill="#f7a747"
       id="path7746" />
  </g>
</svg>
