<?xml version="1.0" encoding="iso-8859-1"?>
<!-- Uploaded to: SVG Repo, www.svgrepo.com, Generator: SVG Repo Mixer Tools -->
<svg version="1.1" id="Layer_1" xmlns="http://www.w3.org/2000/svg" xmlns:xlink="http://www.w3.org/1999/xlink" 
	 viewBox="0 0 512.001 512.001" xml:space="preserve">
<g>
	<path style="fill:#29ABE2;" d="M231.331,116.412c20.428-45.744,76.36-101.859,76.36-101.859s83.716,83.99,83.716,130.225
		s-37.481,83.716-83.716,83.716c-18.399,0-35.412-5.936-49.228-15.996"/>
	<path style="fill:#29ABE2;" d="M264.006,191.132c0,29.477-23.897,53.374-53.374,53.374s-53.374-23.897-53.374-53.374
		s53.374-106.748,53.374-106.748S264.006,161.655,264.006,191.132z"/>
</g>
<g>
	<path style="fill:#0071BC;" d="M210.632,84.384c0,0-1.07,1.557-2.8,4.137c15.806,24.974,40.162,66.674,40.162,86.599
		c0,29.477-23.897,53.374-53.374,53.374c-10.639,0-20.525-3.149-28.849-8.513c9.499,14.74,26.022,24.525,44.861,24.525
		c29.478,0,53.374-23.897,53.374-53.374S210.632,84.384,210.632,84.384z"/>
	<path style="fill:#0071BC;" d="M307.692,14.554c0,0-0.398,0.403-0.98,0.998c24.782,28.469,60.677,74.931,60.677,105.208
		c0,46.235-37.481,83.716-83.716,83.716c-10.184,0-19.917-1.876-28.945-5.206l3.735,13.227
		c13.816,10.06,30.829,15.996,49.228,15.996c46.235,0,83.716-37.481,83.716-83.716S307.692,14.554,307.692,14.554z"/>
</g>
<path style="fill:#F4D9BF;" d="M207.964,340.58h80.061c22.108,0,40.03-17.922,40.03-40.03l0,0H127.903v96.073l152.116,24.018
	l224.17-72.054v-32.024H328.055"/>
<g>
	<polygon style="fill:#EFCAA6;" points="488.176,316.407 271.5,388.538 126.878,364.597 126.878,396.622 279.374,420.64 
		503.924,348.585 503.924,316.407 	"/>
	<path style="fill:#EFCAA6;" d="M288.024,284.119h-3.38c-0.117,1.042-0.29,0.496-0.411,0.758L288.024,284.119z"/>
	<path style="fill:#EFCAA6;" d="M316.925,340.58H207.964v-24.018h112.086v20.894C320.049,339.18,318.649,340.58,316.925,340.58z"/>
</g>
<g>
	<polygon style="fill:#FFFFFF;" points="503.924,348.585 457.053,364.597 457.053,340.363 503.924,340.363 	"/>
	<path style="fill:#FFFFFF;" d="M296.346,340.58h-8.322v-24.018h32.024l-3.042,9.127C314.043,334.581,305.72,340.58,296.346,340.58z
		"/>
</g>
<rect x="7.812" y="300.553" style="fill:#39B54A;" width="120.092" height="200.147"/>
<polygon style="fill:#8CC63F;" points="7.812,500.701 7.812,500.701 7.812,300.549 127.903,300.549 "/>
<rect x="31.054" y="436.186" style="fill:#FFFFFF;" width="15.623" height="40.621"/>
<path d="M335.163,308.749c0.461-2.665,0.703-5.405,0.703-8.2v-7.812H0v215.775h135.715V405.764l144.924,22.882l231.362-74.367
	v-45.531L335.163,308.749L335.163,308.749z M120.091,492.889H15.623V308.361h104.468V492.889z M496.377,342.891l-33.074,10.631
	v-13.159h-15.623v18.18l-168.28,54.089l-143.685-22.686V308.36h183.571c-2.895,11.575-12.068,20.684-23.674,23.498v-15.452h-15.623
	v16.361h-72.024v15.623h80.061c17.713,0,33.208-9.675,41.477-24.018h166.875v18.519H496.377z"/>
<rect x="272.692" y="389.315" width="15.623" height="15.623"/>
<path d="M355.704,57.517c-20.978-26.839-41.611-47.608-42.48-48.477l-5.532-5.552l-5.533,5.552
	c-2.115,2.123-47.712,48.115-71.566,91.428c-6.655-10.49-11.913-18.178-13.533-20.523l-6.427-9.305l-6.427,9.305
	c-5.605,8.115-54.758,80.17-54.758,111.188c0,33.737,27.448,61.186,61.186,61.186c21.582,0,40.575-11.242,51.471-28.167
	c13.819,7.969,29.396,12.154,45.588,12.154c50.469,0,91.528-41.058,91.528-91.527C399.22,123.818,384.578,94.459,355.704,57.517z
	 M210.632,236.694c-25.124,0-45.562-20.44-45.562-45.562c0-19.381,28.686-67.068,45.562-92.746
	c16.876,25.678,45.563,73.364,45.563,92.746C256.195,216.254,235.756,236.694,210.632,236.694z M307.691,220.682
	c-13.844,0-27.143-3.686-38.859-10.697c1.93-5.942,2.985-12.276,2.985-18.853c0-18.05-16.645-49.996-31.669-75.153
	c16.794-34.81,53.572-75.396,67.545-90.169c7.549,7.974,21.748,23.465,35.794,41.449c26.238,33.591,40.107,60.398,40.107,77.52
	C383.596,186.632,349.545,220.682,307.691,220.682z"/>
<g>
	<path style="fill:#FFFFFF;" d="M208.12,228.299v-15.623c13.54,0,24.056-10.842,24.056-24.382h15.623
		C247.8,210.168,229.993,228.299,208.12,228.299z"/>
	<path style="fill:#FFFFFF;" d="M303.944,204.281v-15.623c27.081,0,48.323-21.195,48.323-48.275h15.623
		C367.891,175.796,339.357,204.281,303.944,204.281z"/>
</g>
</svg>