<?xml version="1.0" encoding="iso-8859-1"?>
<!-- Generator: Adobe Illustrator 19.0.0, SVG Export Plug-In . SVG Version: 6.00 Build 0)  -->
<svg version="1.1" id="Layer_1" xmlns="http://www.w3.org/2000/svg" xmlns:xlink="http://www.w3.org/1999/xlink" x="0px" y="0px"
	 viewBox="0 0 511.998 511.998" style="enable-background:new 0 0 511.998 511.998;" xml:space="preserve">
<path style="fill:#F1D5BC;" d="M110.468,452.151l26.464,21.285c21.164,17.022,47.511,26.302,74.671,26.302h74.534
	c23.965,0,47.373-7.227,67.168-20.738l117.152-79.961c7.287-4.975,11.648-13.228,11.648-22.052l0,0
	c0-19.738-20.678-32.652-38.414-23.991l-105.609,51.57v-25.267c0-15.118-12.255-27.373-27.373-27.373h-84.827
	c-18.583,0-37.061-2.795-54.813-8.289l-61.655-19.084L110.468,452.151z"/>
<rect x="29.891" y="292.096" style="fill:#CC473C;" width="77.374" height="205.047"/>
<path style="fill:#5FABD2;" d="M360.635,154.175c0,47.405-38.429,85.835-85.835,85.835s-85.835-38.429-85.835-85.835
	S274.8,12.262,274.8,12.262S360.635,106.77,360.635,154.175z"/>
<g>
	<path style="fill:#231F20;" d="M494.368,376.987c0-13.526-6.85-25.88-18.323-33.046c-11.472-7.165-25.58-7.898-37.732-1.964
		l-87.966,42.954v-5.634c0-21.854-17.78-39.634-39.635-39.634h-84.827c-17.369,0-34.591-2.604-51.187-7.741l-55.167-17.076v-22.75
		c0-6.771-5.491-12.262-12.262-12.262H29.891c-6.771,0-12.262,5.491-12.262,12.262V497.14c0,6.771,5.491,12.262,12.262,12.262
		h77.376c6.771,0,12.262-5.491,12.262-12.262v-21.966l9.718,7.816c23.261,18.707,52.509,29.009,82.357,29.009h74.534
		c26.543,0,52.158-7.909,74.08-22.871l117.151-79.961C488.014,401.903,494.368,389.873,494.368,376.987z M95.004,484.88H42.154
		V304.359h52.852V484.88H95.004z M463.545,388.91l-117.152,79.961c-17.83,12.171-38.665,18.604-60.255,18.604h-74.534
		c-24.278,0-48.068-8.38-66.987-23.595l-25.088-20.179V340.519l47.917,14.831c18.947,5.864,38.609,8.837,58.438,8.837h84.827
		c8.332,0,15.111,6.777,15.111,15.109v16.093c-15.873,4.226-52.324,11.941-89.607,5.941c-6.682-1.078-12.978,3.473-14.055,10.158
		c-1.075,6.687,3.471,12.978,10.158,14.055c11.182,1.8,22.228,2.521,32.758,2.521c41.407,0,74.809-11.157,76.933-11.882h0.001
		c0.013-0.005,0.039-0.013,0.049-0.017c0.454-0.156,0.888-0.341,1.311-0.542c0.031-0.015,0.064-0.023,0.093-0.038l105.61-51.571
		c4.57-2.232,9.665-1.967,13.98,0.728c4.315,2.694,6.79,7.159,6.79,12.245C469.844,381.762,467.49,386.22,463.545,388.91z"/>
	<path style="fill:#231F20;" d="M274.8,252.271c54.091,0,98.097-44.006,98.097-98.097c0-50.678-79.909-140.124-89.021-150.157
		C281.553,1.458,278.258,0,274.8,0s-6.753,1.458-9.076,4.017c-9.112,10.033-89.021,99.479-89.021,150.157
		C176.703,208.266,220.71,252.271,274.8,252.271z M274.803,30.827c26.654,31.11,73.57,92.309,73.57,123.348
		c0,40.568-33.005,73.573-73.573,73.573s-73.573-33.005-73.573-73.573C201.228,123.168,248.147,61.949,274.803,30.827z"/>
	<path style="fill:#231F20;" d="M274.8,203.223c26.795,0,48.797-21.795,49.047-48.584c0.063-6.771-5.376-12.314-12.147-12.377
		c-0.039,0-0.077,0-0.118,0c-6.718,0-12.196,5.415-12.26,12.147c-0.125,13.394-11.125,24.29-24.523,24.29
		c-6.771,0-12.262,5.491-12.262,12.262S268.029,203.223,274.8,203.223z"/>
</g>
<g>
</g>
<g>
</g>
<g>
</g>
<g>
</g>
<g>
</g>
<g>
</g>
<g>
</g>
<g>
</g>
<g>
</g>
<g>
</g>
<g>
</g>
<g>
</g>
<g>
</g>
<g>
</g>
<g>
</g>
</svg>
