<?xml version="1.0" encoding="UTF-8" standalone="no"?>
<!-- Uploaded to: SVG Repo, www.svgrepo.com, Generator: SVG Repo Mixer Tools -->

<svg
   fill="#000000"
   width="58.488239"
   height="62.453533"
   viewBox="0 0 18.716237 19.985131"
   id="Flat"
   version="1.1"
   sodipodi:docname="dusk.svg"
   inkscape:version="1.4.3 (0d15f75, 2025-12-25)"
   xmlns:inkscape="http://www.inkscape.org/namespaces/inkscape"
   xmlns:sodipodi="http://sodipodi.sourceforge.net/DTD/sodipodi-0.dtd"
   xmlns="http://www.w3.org/2000/svg"
   xmlns:svg="http://www.w3.org/2000/svg">
  <defs
     id="defs1" />
  <sodipodi:namedview
     id="namedview1"
     pagecolor="#ffffff"
     bordercolor="#000000"
     borderopacity="0.25"
     inkscape:showpageshadow="2"
     inkscape:pageopacity="0.0"
     inkscape:pagecheckerboard="0"
     inkscape:deskcolor="#d1d1d1"
     inkscape:zoom="1.00875"
     inkscape:cx="44.609665"
     inkscape:cy="24.287485"
     inkscape:window-width="1920"
     inkscape:window-height="1009"
     inkscape:window-x="-8"
     inkscape:window-y="-8"
     inkscape:window-maximized="1"
     inkscape:current-layer="Flat" />
  <g
     opacity="0.2"
     id="g1"
     transform="matrix(0.07182523,0,0,0.07476249,-0.15273757,0.74018224)">
    <circle
       cx="128"
       cy="128"
       r="60"
       id="circle1" />
  </g>
  <path
     d="M 9.0408924,5.2259322 A 4.8841158,5.0838496 0 1 0 13.925002,10.309782 4.8896557,5.0896161 0 0 0 9.0408924,5.2259322 Z m 0,8.9714998 a 3.7349121,3.8876497 0 1 1 3.7349096,-3.88765 3.7391498,3.8920607 0 0 1 -3.7349096,3.88765 z M 8.4662824,3.4316322 v -0.5981 a 0.574605,0.59810323 0 0 1 1.14921,0 v 0.5981 a 0.574605,0.59810323 0 0 1 -1.14921,0 z m -4.91048,2.01455 a 0.57458965,0.59808725 0 1 1 0.81259,-0.84582 l 0.4063,0.42294 a 0.57460186,0.59809996 0 0 1 -0.81263,0.84582 z m -0.54823,4.8635998 a 0.57459684,0.59809473 0 0 1 -0.5746,0.5981 h -0.57461 a 0.5746019,0.5981 0 0 1 0,-1.1961998 h 0.57461 a 0.57459684,0.59809473 0 0 1 0.5746,0.5980998 z m 1.76711,4.44067 a 0.57454081,0.59803641 0 0 1 0,0.84583 l -0.40629,0.42291 a 0.57459465,0.59809246 0 0 1 -0.8126,-0.84583 l 0.4063,-0.42291 a 0.57460186,0.59809996 0 0 1 0.81259,0 z m 4.84081,2.43748 v 0.5981 a 0.574605,0.59810323 0 0 1 -1.14921,0 v -0.5981 a 0.574605,0.59810323 0 0 1 1.14921,0 z m 4.9104896,-2.01457 a 0.57459465,0.59809246 0 1 1 -0.8126,0.84583 l -0.40629,-0.42292 a 0.57459037,0.598088 0 0 1 0.81259,-0.84582 z m 2.27203,-4.86358 a 0.57459684,0.59809473 0 0 1 -0.5746,0.5981 h -0.5746 a 0.5746019,0.5981 0 0 1 0,-1.1961998 h 0.5746 a 0.57459684,0.59809473 0 0 1 0.5746,0.5980998 z m -3.49092,-4.4406398 a 0.57459396,0.59809173 0 0 1 0,-0.84585 l 0.4063,-0.42293 a 0.57458965,0.59808725 0 1 1 0.81259,0.84582 l -0.40626,0.42294 a 0.57462557,0.59812463 0 0 1 -0.81263,1e-5 z"
     id="path1"
     style="stroke-width:0.0732791" />
  <path
     style="fill:#aa4400;stroke-width:0.557125"
     d="m 23.791822,42.377642 c -2.154171,-1.076129 -4.188205,-3.205244 -5.364902,-5.615686 -1.721046,-3.52553 -1.766608,-4.251551 -0.495663,-7.898291 1.501687,-4.30881 6.571815,-8.544266 10.2203,-8.537778 3.53712,0.0063 8.560406,3.799246 10.198694,7.700776 2.095818,4.991123 0.251161,10.603331 -4.543939,13.82454 -4.044338,2.716868 -5.478791,2.792275 -10.01449,0.526439 z"
     id="path2"
     transform="scale(0.32000001)" />
</svg>
