<?xml version="1.0" encoding="UTF-8" standalone="no"?>
<!-- Generator: Adobe Illustrator 19.0.0, SVG Export Plug-In . SVG Version: 6.00 Build 0)  -->

<svg
   version="1.1"
   id="Layer_1"
   x="0px"
   y="0px"
   viewBox="0 0 368.73673 482.98464"
   xml:space="preserve"
   sodipodi:docname="electric-lamp-kitchen-sink-off.svg"
   inkscape:version="1.2 (dc2aedaf03, 2022-05-15)"
   width="368.73672"
   height="482.98465"
   xmlns:inkscape="http://www.inkscape.org/namespaces/inkscape"
   xmlns:sodipodi="http://sodipodi.sourceforge.net/DTD/sodipodi-0.dtd"
   xmlns="http://www.w3.org/2000/svg"
   xmlns:svg="http://www.w3.org/2000/svg"><defs
   id="defs9055" /><sodipodi:namedview
   id="namedview9053"
   pagecolor="#ffffff"
   bordercolor="#000000"
   borderopacity="0.25"
   inkscape:showpageshadow="2"
   inkscape:pageopacity="0.0"
   inkscape:pagecheckerboard="0"
   inkscape:deskcolor="#d1d1d1"
   showgrid="false"
   inkscape:zoom="1.6542969"
   inkscape:cx="119.08382"
   inkscape:cy="257.51121"
   inkscape:window-width="1920"
   inkscape:window-height="1027"
   inkscape:window-x="-8"
   inkscape:window-y="-8"
   inkscape:window-maximized="1"
   inkscape:current-layer="Layer_1" />
<polygon
   style="fill:#999999"
   points="271.673,0 256,0 245.543,159.149 271.673,159.149 "
   id="polygon8996"
   transform="matrix(0.88433096,0,0,0.13400083,-37.487296,182.5549)" />
<rect
   x="171.41556"
   style="fill:#999999;stroke-width:0.358923"
   width="15.068514"
   height="21.325092"
   id="rect8998"
   y="182.5549" />









<g
   id="g9022"
   transform="translate(-69.515938,44.731995)">
</g>
<g
   id="g9024"
   transform="translate(-69.515938,44.731995)">
</g>
<g
   id="g9026"
   transform="translate(-69.515938,44.731995)">
</g>
<g
   id="g9028"
   transform="translate(-69.515938,44.731995)">
</g>
<g
   id="g9030"
   transform="translate(-69.515938,44.731995)">
</g>
<g
   id="g9032"
   transform="translate(-69.515938,44.731995)">
</g>
<g
   id="g9034"
   transform="translate(-69.515938,44.731995)">
</g>
<g
   id="g9036"
   transform="translate(-69.515938,44.731995)">
</g>
<g
   id="g9038"
   transform="translate(-69.515938,44.731995)">
</g>
<g
   id="g9040"
   transform="translate(-69.515938,44.731995)">
</g>
<g
   id="g9042"
   transform="translate(-69.515938,44.731995)">
</g>
<g
   id="g9044"
   transform="translate(-69.515938,44.731995)">
</g>
<g
   id="g9046"
   transform="translate(-69.515938,44.731995)">
</g>
<g
   id="g9048"
   transform="translate(-69.515938,44.731995)">
</g>
<g
   id="g9050"
   transform="translate(-69.515938,44.731995)">
</g>
<path
   style="fill:#808080;stroke-width:0.470726"
   d="m 179.53154,101.39999 3e-4,-85.381099 h 3.83368 3.83366 l 0.12089,2.696244 0.12089,2.696245 0.0518,-2.696245 0.0518,-2.696244 h 3.85228 3.85226 v 85.538289 c 0,68.10265 -0.0785,85.48042 -0.38522,85.25447 -0.78373,-0.57739 -9.11675,-0.9012 -12.17349,-0.47305 l -3.15918,0.44249 z"
   id="path18701" /><ellipse
   style="fill:#f2f2f2;stroke-width:0.743712"
   id="path6308"
   cx="185.87959"
   cy="274.4368"
   rx="80.698944"
   ry="79.792191" /><path
   style="fill:#ffe680;stroke-width:0.719658"
   d="m 178.1328,319.92136 c -4.75763,-0.56464 -13.23965,-3.90039 -18.59868,-7.31377 -5.64993,-3.59857 -15.40876,-14.46166 -18.23347,-20.29646 -3.99776,-8.25824 -4.88732,-12.90595 -4.52895,-23.66408 0.25832,-7.75834 0.63578,-10.26452 2.20581,-14.65348 3.44201,-9.62173 11.24725,-19.14804 21.64712,-26.42041 l 5.59542,-3.91274 v -13.211 -13.21109 h 20.57654 20.57664 v 13.21109 13.211 l 5.64804,3.93222 c 7.5081,5.22722 15.44102,13.85545 18.58855,20.21802 4.03225,8.15086 5.59638,15.68165 5.20531,25.06215 -0.56828,13.63996 -4.60812,22.33136 -15.3632,33.05618 -9.80385,9.77625 -18.24095,13.45821 -32.48929,14.17841 -3.57392,0.18018 -8.44722,0.0943 -10.82984,-0.18541 z m 28.22974,-48.46894 c 1.52616,-1.98806 2.05629,-3.66595 2.43617,-7.71131 l 0.48605,-5.17033 -3.8142,-3.48796 c -2.09785,-1.9184 -4.13874,-4.50084 -4.53538,-5.73874 -0.39644,-1.2379 -1.08251,-6.26985 -1.52406,-11.18207 -0.91097,-10.12981 -1.70435,-12.56507 -4.99034,-15.31231 -1.95845,-1.63733 -2.99602,-1.93914 -6.66516,-1.93914 -8.58386,0 -10.91692,3.31177 -12.12805,17.21604 -1.0649,12.22681 -1.05709,12.20218 -4.95881,15.54139 -5.32751,4.5594 -6.52029,11.05469 -3.00731,16.37545 2.45462,3.71769 3.40227,3.89715 20.72341,3.92458 l 16.02744,0.021 z"
   id="path3421" /><path
   style="fill:#ffeeaa;stroke-width:0.972318"
   d="m 164.58875,273.13485 c -1.70449,-1.65869 -2.39471,-3.47163 -2.46524,-6.47527 -0.0892,-3.85467 0.32522,-4.56324 5.46712,-9.32428 5.14817,-4.7665 5.58817,-5.518 5.86958,-10.02704 0.49746,-7.97814 3.31971,-24.01449 4.79265,-27.23767 1.82327,-3.98976 6.79799,-5.59972 12.76422,-4.13095 6.20652,1.52809 6.33466,1.91611 10.64707,32.26496 0.52568,3.70274 2.64388,6.72862 6.56351,9.37821 5.0641,3.42303 5.89763,10.09028 1.97874,15.82766 -1.35133,1.97777 -1.90584,2.02827 -22.31803,2.02827 h -20.93242 z"
   id="path3427" /><rect
   x="76.463989"
   y="2.8358939"
   style="fill:#808080;stroke-width:5.50998"
   width="212.18181"
   height="14.880755"
   id="rect8339" /><line
   style="fill:none;stroke:#38454f;stroke-width:5.25602;stroke-linecap:round;stroke-linejoin:round;stroke-miterlimit:10"
   x1="63.029667"
   y1="2.7201996"
   x2="297.84869"
   y2="2.7201996"
   id="line8341" /><path
   style="fill:#999999;stroke-width:0.608523"
   d="m 179.53228,102.99077 1.8e-4,-85.609001 H 128.15112 76.769775 V 11.562195 5.7426209 H 182.5549 288.34002 v 5.8195741 5.819574 H 241.79457 195.24911 V 43.31531 c 0,14.263446 -0.1806,52.787493 -0.40134,85.609 l -0.40134,59.67546 h -7.45717 -7.45716 z m 8.46299,-83.464948 c 0,-1.179229 -0.27201,-2.144053 -0.60448,-2.144053 -0.67244,0 -0.8031,1.825616 -0.23757,3.319125 0.57589,1.520871 0.84205,1.14945 0.84205,-1.175072 z"
   id="path7591" /><path
   style="fill:#6f8a91;stroke-width:0.604486"
   d="m 199.48052,195.41111 c -3.26136,-0.73408 -21.60812,-0.95651 -25.23731,-0.30598 l -2.56907,0.46051 v -6.35425 -6.35425 h 3.92916 3.92916 V 100.34474 17.832349 H 128.15112 76.769775 V 11.787485 5.7426209 H 182.5549 288.34002 v 6.0448641 6.044864 h -46.52835 -46.52836 l -0.17317,18.587957 c -0.0952,10.223377 -0.23802,40.757497 -0.31728,67.853604 -0.0793,27.0961 -0.32397,56.81416 -0.5438,66.04014 -0.29867,12.53437 -0.22279,16.77449 0.30017,16.77449 0.39687,0 0.69988,-0.91598 0.69988,-2.1157 v -2.1157 h 3.62692 3.62692 v 6.64935 c 0,3.65714 -0.068,6.61955 -0.15112,6.58312 -0.0831,-0.0365 -1.37521,-0.34175 -2.87131,-0.6785 z M 187.99527,19.645808 c 0,-1.32987 -0.27201,-2.417945 -0.60448,-2.417945 -0.66878,0 -0.8412,3.793198 -0.2015,4.4329 0.70592,0.705917 0.80598,0.455754 0.80598,-2.014955 z"
   id="path7593" /><path
   style="fill:#999999;stroke-width:0.604486"
   d="m 171.67414,189.10841 v -6.25127 h 3.92916 3.92916 V 100.34474 17.832349 H 128.15112 76.769775 V 11.787485 5.7426209 H 182.5549 288.34002 v 6.0448641 6.044864 H 241.85741 195.3748 l -0.34772,8.613932 c -0.65429,16.20869 -0.98251,160.642259 -0.36506,160.642259 0.3229,0 0.58709,-0.95206 0.58709,-2.1157 v -2.1157 h 3.62692 3.62692 l -0.009,5.5915 c -0.005,3.07532 -0.2091,5.89553 -0.45336,6.26711 -0.31245,0.47531 -2.05707,0.53285 -5.88449,0.19408 -6.98275,-0.61804 -17.92387,-0.62957 -21.61039,-0.0228 l -2.87131,0.47262 v -6.25128 z M 187.99527,19.645808 c 0,-1.32987 -0.27201,-2.417945 -0.60448,-2.417945 -0.33247,0 -0.60449,1.088075 -0.60449,2.417945 0,1.329871 0.27202,2.417946 0.60449,2.417946 0.33247,0 0.60448,-1.088075 0.60448,-2.417946 z"
   id="path7871" /><path
   style="fill:#cccccc;stroke-width:0.604486"
   d="m 173.4876,353.03811 c -8.17287,-1.3572 -15.46436,-3.71676 -23.29716,-7.53909 -19.47904,-9.50555 -33.89841,-25.90124 -40.7207,-46.30188 -5.1886,-15.51543 -5.1886,-34.00519 0,-49.52061 6.84376,-20.46483 20.99106,-36.59106 40.74513,-46.44457 4.29721,-2.14349 14.29179,-5.86715 15.74785,-5.86715 0.14908,0 0.27104,5.81669 0.27104,12.92598 v 12.92597 l -5.15719,3.74695 c -9.80426,7.12326 -16.00515,13.93988 -20.18392,22.18812 -3.22731,6.37019 -3.7535,8.84163 -4.10359,19.27376 -0.35535,10.58867 0.0399,13.59046 2.65135,20.13469 2.10765,5.28177 3.86531,8.02682 8.961,13.99495 7.07145,8.28216 13.31459,12.52778 23.6999,16.11698 4.26556,1.4742 5.51109,1.62542 13.17378,1.59941 17.20716,-0.0584 26.84521,-4.08417 37.89244,-15.82744 10.3144,-10.96427 13.76337,-19.4604 13.77641,-33.93651 0.011,-12.1965 -3.19191,-21.64166 -10.36062,-30.55288 -3.95844,-4.92063 -10.01859,-10.43945 -15.35184,-13.98053 l -3.28815,-2.18321 v -12.91087 c 0,-7.10099 0.0884,-12.91088 0.19636,-12.91088 1.06491,0 9.92793,3.47642 13.7856,5.40724 18.509,9.26405 32.25697,24.51719 39.54164,43.8708 6.57586,17.47043 6.30846,38.55786 -0.7114,56.10345 -9.96311,24.90199 -31.12479,42.75759 -57.88307,48.84002 -7.20513,1.6378 -22.04736,2.06577 -29.38486,0.8473 z"
   id="path7908" /><path
   style="fill:#d4aa00;stroke-width:0.604486"
   d="m 176.15308,319.22188 c -4.94026,-1.13323 -12.12687,-4.17931 -16.39945,-6.95098 -3.73191,-2.42093 -12.23751,-11.04396 -15.33661,-15.54835 -2.59296,-3.76874 -5.71941,-10.76724 -6.52596,-14.60827 -0.95543,-4.55 -0.82729,-18.93838 0.21236,-23.84434 2.26047,-10.6669 11.08268,-22.17421 24.09857,-31.43312 l 4.03177,-2.86801 v -13.302 -13.302 h 20.55254 20.55254 v 13.25753 13.25752 l 4.98701,3.60995 c 5.97264,4.32342 13.95085,12.37842 17.01115,17.17487 2.92466,4.58386 5.50624,11.22398 6.43339,16.5474 1.18984,6.83178 0.49108,18.73911 -1.45286,24.75739 -2.61096,8.08334 -9.25056,17.02777 -17.66452,23.79644 -5.77763,4.64788 -10.35009,6.97343 -16.7208,8.5042 -6.65074,1.59806 -18.83558,2.08576 -23.77913,0.95177 z m 32.85521,-44.40573 c 1.66854,-0.89298 3.77093,-5.62856 3.77093,-8.49394 0,-3.70964 -0.95603,-5.44102 -5.69964,-10.32221 -2.42323,-2.49351 -4.56593,-5.07769 -4.76156,-5.74262 -0.19563,-0.66494 -0.93277,-5.28926 -1.63808,-10.27627 -1.61517,-11.42023 -3.32906,-19.418 -4.56565,-21.30527 -2.07005,-3.15931 -9.9005,-4.39572 -14.37917,-2.27045 -3.13428,1.48731 -4.32505,4.17281 -6.07671,13.70456 -1.19584,6.50719 -2.76281,17.94139 -2.77851,20.27472 -0.002,0.26246 -1.93028,2.51733 -4.2856,5.01084 -5.68808,6.02182 -6.58693,7.53202 -6.58968,11.07162 -0.003,3.33947 0.59499,4.73733 3.24383,7.5879 l 1.89204,2.03615 20.333,-0.31592 c 12.59558,-0.19571 20.79033,-0.56068 21.5348,-0.95911 z"
   id="path7910" /><path
   style="fill:#ffcc00;stroke-width:0.604486"
   d="m 165.55202,273.73365 c -2.32014,-2.50459 -2.94517,-4.02102 -2.94517,-7.14542 0,-3.71992 1.01228,-5.47868 5.29965,-9.20772 4.29721,-3.7376 5.33714,-5.7445 5.88368,-11.35454 0.9788,-10.04708 3.39345,-22.90196 4.82011,-25.6608 2.1675,-4.19149 6.87466,-5.68132 12.6477,-4.00305 5.28114,1.53527 5.77933,2.79213 8.7645,22.11189 1.00208,6.48538 2.26259,12.67486 2.80113,13.75439 0.53855,1.07954 2.32745,3.09968 3.97534,4.4892 4.04345,3.40949 5.37577,5.71142 5.37577,9.28804 0,3.2264 -1.86677,7.74747 -3.50357,8.48518 -0.56654,0.25534 -10.14271,0.57526 -21.28037,0.71093 l -20.2503,0.24667 z"
   id="path7912" /></svg>
