<?xml version="1.0" encoding="UTF-8" standalone="no"?>
<!-- Generator: Adobe Illustrator 19.0.0, SVG Export Plug-In . SVG Version: 6.00 Build 0)  -->

<svg
   version="1.1"
   id="Layer_1"
   x="0px"
   y="0px"
   viewBox="0 0 512 512"
   style="enable-background:new 0 0 512 512;"
   xml:space="preserve"
   sodipodi:docname="electric-lamp-kitchen-sink.svg"
   inkscape:version="1.2 (dc2aedaf03, 2022-05-15)"
   xmlns:inkscape="http://www.inkscape.org/namespaces/inkscape"
   xmlns:sodipodi="http://sodipodi.sourceforge.net/DTD/sodipodi-0.dtd"
   xmlns="http://www.w3.org/2000/svg"
   xmlns:svg="http://www.w3.org/2000/svg"><defs
   id="defs9055" /><sodipodi:namedview
   id="namedview9053"
   pagecolor="#ffffff"
   bordercolor="#000000"
   borderopacity="0.25"
   inkscape:showpageshadow="2"
   inkscape:pageopacity="0.0"
   inkscape:pagecheckerboard="0"
   inkscape:deskcolor="#d1d1d1"
   showgrid="false"
   inkscape:zoom="1.6542969"
   inkscape:cx="188.59976"
   inkscape:cy="209.1523"
   inkscape:window-width="1920"
   inkscape:window-height="1027"
   inkscape:window-x="-8"
   inkscape:window-y="-8"
   inkscape:window-maximized="1"
   inkscape:current-layer="Layer_1" />
<polygon
   style="fill:#999999"
   points="271.673,0 256,0 245.543,159.149 271.673,159.149 "
   id="polygon8996" />
<rect
   x="240.327"
   style="fill:#999999"
   width="15.673"
   height="159.148"
   id="rect8998" />
<path
   style="fill:#F39624;"
   d="M310.128,306.981l-75.042-20.915L256,361.108C285.893,361.108,310.128,336.874,310.128,306.981z"
   id="path9000" />
<g
   id="g9006">
	<path
   style="fill:#F7C02D;"
   d="M201.872,306.981c0,29.893,24.234,54.128,54.128,54.128v-75.042L201.872,306.981z"
   id="path9002" />
	<polygon
   style="fill:#F7C02D;"
   points="271.673,512 271.673,401.667 256,401.667 245.543,456.834 256,512  "
   id="polygon9004" />
</g>
<path
   style="fill:#808080"
   d="M310.128,306.981L310.128,306.981h111.866c0-90.301-74.318-163.505-165.994-163.505l-20.915,94.988  L256,306.981H310.128z"
   id="path9008" />
<rect
   x="240.327"
   y="401.669"
   style="fill:#FBE27B;"
   width="15.673"
   height="110.331"
   id="rect9010" />
<polygon
   style="fill:#F7C02D;"
   points="122.112,463.034 200.129,385.017 189.046,373.933 142.643,405.548 111.029,451.951 "
   id="polygon9012" />
<rect
   x="136.656"
   y="352.241"
   transform="matrix(0.7071 0.7071 -0.7071 0.7071 330.4005 17.1548)"
   style="fill:#FBE27B;"
   width="15.673"
   height="110.33"
   id="rect9014" />
<polygon
   style="fill:#F7C02D;"
   points="412.054,440.869 334.037,362.851 322.954,373.933 354.568,420.337 400.971,451.951 "
   id="polygon9016" />
<rect
   x="348.582"
   y="363.319"
   transform="matrix(0.7071 -0.7071 0.7071 0.7071 -191.5198 374.5972)"
   style="fill:#FBE27B;"
   width="15.673"
   height="110.33"
   id="rect9018" />
<path
   style="fill:#b3b3b3"
   d="M326.165,196.426c-20.981-13.358-45.244-20.418-70.165-20.418v-32.533  c-91.675,0-165.994,73.203-165.994,163.505h111.866H256v-99.625c18.948,0,37.389,5.365,53.331,15.514  c15.541,9.894,28.041,23.84,36.148,40.331l28.131-13.829C362.965,227.719,346.559,209.411,326.165,196.426z"
   id="path9020" />
<g
   id="g9022">
</g>
<g
   id="g9024">
</g>
<g
   id="g9026">
</g>
<g
   id="g9028">
</g>
<g
   id="g9030">
</g>
<g
   id="g9032">
</g>
<g
   id="g9034">
</g>
<g
   id="g9036">
</g>
<g
   id="g9038">
</g>
<g
   id="g9040">
</g>
<g
   id="g9042">
</g>
<g
   id="g9044">
</g>
<g
   id="g9046">
</g>
<g
   id="g9048">
</g>
<g
   id="g9050">
</g>
<path
   style="fill:#808080;stroke-width:0.604486"
   d="m 240.58497,72.085005 6.2e-4,-71.78276179 h 7.51959 7.51959 l 0.23712,2.26682409 0.23712,2.266824 0.10161,-2.266824 0.10162,-2.26682409 h 7.55608 7.55608 V 72.217158 c 0,57.256192 -0.15402,71.866272 -0.75561,71.676302 -1.53725,-0.48542 -17.88215,-0.75767 -23.87783,-0.39771 l -6.19661,0.37202 z"
   id="path18701" /></svg>
