<?xml version="1.0" encoding="UTF-8" standalone="no"?>
<!-- Created with Inkscape (http://www.inkscape.org/) -->

<svg
   width="346.49362mm"
   height="218.01062mm"
   viewBox="0 0 346.49363 218.01062"
   version="1.1"
   id="svg1"
   inkscape:version="1.3 (0e150ed6c4, 2023-07-21)"
   sodipodi:docname="entry-stairs-on.svg"
   xmlns:inkscape="http://www.inkscape.org/namespaces/inkscape"
   xmlns:sodipodi="http://sodipodi.sourceforge.net/DTD/sodipodi-0.dtd"
   xmlns="http://www.w3.org/2000/svg"
   xmlns:svg="http://www.w3.org/2000/svg">
  <sodipodi:namedview
     id="namedview1"
     pagecolor="#ffffff"
     bordercolor="#000000"
     borderopacity="0.25"
     inkscape:showpageshadow="2"
     inkscape:pageopacity="0.0"
     inkscape:pagecheckerboard="0"
     inkscape:deskcolor="#d1d1d1"
     inkscape:document-units="mm"
     inkscape:zoom="1.184265"
     inkscape:cx="603.75002"
     inkscape:cy="297.65298"
     inkscape:window-width="1920"
     inkscape:window-height="1027"
     inkscape:window-x="-8"
     inkscape:window-y="-8"
     inkscape:window-maximized="1"
     inkscape:current-layer="layer1">
    <inkscape:page
       x="0"
       y="0"
       width="346.49365"
       height="218.01062"
       id="page1"
       margin="0"
       bleed="0" />
  </sodipodi:namedview>
  <defs
     id="defs1" />
  <g
     inkscape:label="Layer 1"
     inkscape:groupmode="layer"
     id="layer1"
     transform="translate(55.60851,-53.712768)">
    <g
       id="g2125"
       transform="matrix(0.2812739,0,0,0.34917765,142.75834,92.349604)">&#10;	<path
   style="fill:#ffffff"
   d="m 342.78,182.237 c 0,5.207 3.471,8.678 8.678,8.678 5.207,0 8.678,-3.471 8.678,-8.678 0,-5.207 -3.471,-8.678 -8.678,-8.678 -5.207,0 -8.678,3.472 -8.678,8.678 z"
   id="path2085" />
&#10;	<path
   style="fill:#ffffff"
   d="m 290.712,182.237 c 0,5.207 3.471,8.678 8.678,8.678 5.207,0 8.678,-3.471 8.678,-8.678 0,-5.207 -3.471,-8.678 -8.678,-8.678 -5.207,0 -8.678,3.472 -8.678,8.678 z"
   id="path2087" />
&#10;	<path
   style="fill:#ffffff"
   d="m 342.78,130.169 c 0,5.207 3.471,8.678 8.678,8.678 5.207,0 8.678,-3.471 8.678,-8.678 0,-5.207 -3.471,-8.678 -8.678,-8.678 -5.207,0.001 -8.678,3.472 -8.678,8.678 z"
   id="path2089" />
&#10;	<path
   style="fill:#ffffff"
   d="m 290.712,130.169 c 0,5.207 3.471,8.678 8.678,8.678 5.207,0 8.678,-3.471 8.678,-8.678 0,-5.207 -3.471,-8.678 -8.678,-8.678 -5.207,0 -8.678,3.472 -8.678,8.678 z"
   id="path2091" />
&#10;	<path
   style="fill:#ffffff"
   d="m 316.746,156.203 c 0,5.207 3.471,8.678 8.678,8.678 5.207,0 8.678,-3.471 8.678,-8.678 0,-5.207 -3.471,-8.678 -8.678,-8.678 -5.207,0 -8.678,3.472 -8.678,8.678 z"
   id="path2093" />
&#10;	<path
   style="fill:#ffffff"
   d="m 264.678,156.203 c 0,5.207 3.471,8.678 8.678,8.678 5.207,0 8.678,-3.471 8.678,-8.678 0,-5.207 -3.471,-8.678 -8.678,-8.678 -5.207,0 -8.678,3.472 -8.678,8.678 z"
   id="path2095" />
&#10;	<path
   style="fill:#ffffff"
   d="m 316.746,104.136 c 0,5.207 3.471,8.678 8.678,8.678 5.207,0 8.678,-3.471 8.678,-8.678 0,-5.207 -3.471,-8.678 -8.678,-8.678 -5.207,0 -8.678,3.471 -8.678,8.678 z"
   id="path2097" />
&#10;	<path
   style="fill:#ffffff"
   d="m 264.678,104.136 c 0,5.207 3.471,8.678 8.678,8.678 5.207,0 8.678,-3.471 8.678,-8.678 0,-5.207 -3.471,-8.678 -8.678,-8.678 -5.207,0 -8.678,3.471 -8.678,8.678 z"
   id="path2099" />
&#10;	<path
   style="fill:#ffffff"
   d="m 238.644,182.237 c 0,5.207 3.471,8.678 8.678,8.678 5.207,0 8.678,-3.471 8.678,-8.678 0,-5.207 -3.471,-8.678 -8.678,-8.678 -5.207,0 -8.678,3.472 -8.678,8.678 z"
   id="path2101" />
&#10;	<path
   style="fill:#ffffff"
   d="m 186.576,182.237 c 0,5.207 3.471,8.678 8.678,8.678 5.207,0 8.678,-3.471 8.678,-8.678 0,-5.207 -3.471,-8.678 -8.678,-8.678 -5.207,0 -8.678,3.472 -8.678,8.678 z"
   id="path2103" />
&#10;	<path
   style="fill:#ffffff"
   d="m 238.644,130.169 c 0,5.207 3.471,8.678 8.678,8.678 5.207,0 8.678,-3.471 8.678,-8.678 0,-5.207 -3.471,-8.678 -8.678,-8.678 -5.207,0 -8.678,3.472 -8.678,8.678 z"
   id="path2105" />
&#10;	<path
   style="fill:#ffffff"
   d="m 186.576,130.169 c 0,5.207 3.471,8.678 8.678,8.678 5.207,0 8.678,-3.471 8.678,-8.678 0,-5.207 -3.471,-8.678 -8.678,-8.678 -5.207,0.001 -8.678,3.472 -8.678,8.678 z"
   id="path2107" />
&#10;	<path
   style="fill:#ffffff"
   d="m 212.61,156.203 c 0,5.207 3.471,8.678 8.678,8.678 5.207,0 8.678,-3.471 8.678,-8.678 0,-5.207 -3.471,-8.678 -8.678,-8.678 -5.207,0 -8.678,3.472 -8.678,8.678 z"
   id="path2109" />
&#10;	<path
   style="fill:#ffffff"
   d="m 160.542,156.203 c 0,5.207 3.471,8.678 8.678,8.678 5.207,0 8.678,-3.471 8.678,-8.678 0,-5.207 -3.471,-8.678 -8.678,-8.678 -5.207,0 -8.678,3.472 -8.678,8.678 z"
   id="path2111" />
&#10;	<path
   style="fill:#ffffff"
   d="m 212.61,104.136 c 0,5.207 3.471,8.678 8.678,8.678 5.207,0 8.678,-3.471 8.678,-8.678 0,-5.207 -3.471,-8.678 -8.678,-8.678 -5.207,0 -8.678,3.471 -8.678,8.678 z"
   id="path2113" />
&#10;	<path
   style="fill:#ffffff"
   d="m 160.542,104.136 c 0,5.207 3.471,8.678 8.678,8.678 5.207,0 8.678,-3.471 8.678,-8.678 0,-5.207 -3.471,-8.678 -8.678,-8.678 -5.207,0 -8.678,3.471 -8.678,8.678 z"
   id="path2115" />
&#10;	<path
   style="fill:#ffffff"
   d="m 342.78,78.102 c 0,5.207 3.471,8.678 8.678,8.678 5.207,0 8.678,-3.471 8.678,-8.678 0,-5.207 -3.471,-8.678 -8.678,-8.678 -5.207,0 -8.678,3.471 -8.678,8.678 z"
   id="path2117" />
&#10;	<path
   style="fill:#ffffff"
   d="m 290.712,78.102 c 0,5.207 3.471,8.678 8.678,8.678 5.207,0 8.678,-3.471 8.678,-8.678 0,-5.207 -3.471,-8.678 -8.678,-8.678 -5.207,0 -8.678,3.471 -8.678,8.678 z"
   id="path2119" />
&#10;	<path
   style="fill:#ffffff"
   d="m 238.644,78.102 c 0,5.207 3.471,8.678 8.678,8.678 5.207,0 8.678,-3.472 8.678,-8.678 0,-5.207 -3.471,-8.678 -8.678,-8.678 -5.207,0 -8.678,3.471 -8.678,8.678 z"
   id="path2121" />
&#10;	<path
   style="fill:#ffffff"
   d="m 186.576,78.102 c 0,5.207 3.471,8.678 8.678,8.678 5.207,0 8.678,-3.471 8.678,-8.678 0,-5.207 -3.471,-8.678 -8.678,-8.678 -5.207,0 -8.678,3.471 -8.678,8.678 z"
   id="path2123" />
&#10;</g>
    <path
       style="fill:#7fabda;stroke-width:0.303616"
       d="m 186.49387,155.21353 h 57.56106 v -40.52229 h -57.56106 z"
       id="path2135"
       sodipodi:nodetypes="ccccc" />
    <path
       style="fill:#dbd6d2;stroke-width:0.313387"
       d="M 280.66835,271.12856 H 148.86057 c -1.46458,0 -2.44089,-1.21201 -2.44089,-3.03016 0,-1.81816 0.97631,-3.03018 2.44089,-3.03018 h 131.80778 c 1.46463,0 2.4409,1.21202 2.4409,3.03018 0,1.81815 -0.97627,3.03016 -2.4409,3.03016"
       id="path2179" />
    <path
       style="fill:#b3b3b3;stroke-width:0.189436"
       d="m 186.89681,187.50013 v -6.01562 h 4.84578 4.84572 v 6.01562 6.01558 h -1.02025 -1.02003 l -3.1e-4,-3.11335 c -2.9e-4,-3.43685 -0.15626,-4.16192 -1.07539,-4.99796 -0.62091,-0.56479 -2.2276,-0.59759 -2.88978,-0.059 -0.87769,0.7138 -1.04034,1.44266 -1.10579,4.95138 l -0.06,3.21888 h -1.25989 -1.26011 z"
       id="path2453"
       sodipodi:nodetypes="cccccccccssscccc" />
    <path
       style="fill:#999999;stroke-width:0.313387"
       d="m 194.4097,188.40349 0.0522,9.09022 c 0.0115,1.81818 -0.95883,3.03875 -2.42342,3.05172 -1.46453,0.0129 -2.44783,-1.19038 -2.45827,-3.00853 l -0.0521,-9.09019 c -0.011,-1.81817 0.95893,-3.03874 2.42342,-3.05176 1.46461,-0.0128 2.44784,1.19067 2.45823,3.00854"
       id="path2133"
       sodipodi:nodetypes="csssssc" />
    <path
       style="fill:#b3b3b3;stroke-width:0.189436"
       d="M 166.13695,178.67854 V 92.455141 h 48.62752 48.62751 v 86.223399 86.22337 h -4.76078 -4.76069 v -80.3133 -80.31337 h -39.10604 -39.10605 v 80.31337 80.3133 h -4.76074 -4.76073 z"
       id="path2593" />
    <path
       style="fill:#ececec;stroke-width:0.189436"
       d="M 166.13695,178.67854 V 92.455141 h 48.62752 48.62751 v 86.223399 86.22337 h -4.76078 -4.76069 v -80.3133 -80.31337 h -39.10604 -39.10605 v 80.31337 80.3133 h -4.76074 -4.76073 z"
       id="path2595" />
    <rect
       style="fill:#e6e6e6;stroke:none;stroke-width:0.264583"
       id="rect4890"
       width="57.727276"
       height="1.7493114"
       x="186.5204"
       y="132.83366" />
    <rect
       style="fill:#e6e6e6;stroke:none;stroke-width:0.264583"
       id="rect5015"
       width="1.4994097"
       height="40.733963"
       x="205.51292"
       y="114.34094" />
    <rect
       style="fill:#e6e6e6;stroke:none;stroke-width:0.269529"
       id="rect5017"
       width="1.7493114"
       height="41.233765"
       x="224.25554"
       y="113.84114" />
    <path
       style="fill:#ececec;stroke-width:0.249901"
       d="m 176.02453,184.43835 v -80.21842 h 38.98465 38.98465 v 80.21842 80.21842 h -38.98465 -38.98465 z m 17.20697,15.88749 c 1.15699,-0.5983 1.28154,-1.24628 1.33883,-6.96526 0.0292,-2.91426 0.0892,-4.08976 0.1334,-2.61221 l 0.0803,2.68644 h 1.1161 1.11611 v -6.12259 -6.12259 h -4.99804 -4.99803 v 6.12259 6.12259 h 1.24951 1.24951 l 0.009,2.68644 c 0.01,2.88465 0.23707,3.64048 1.26816,4.21196 0.78304,0.43401 1.58644,0.43158 2.43526,-0.007 z m 51.20506,-65.68039 0.0639,-20.42945 h -9.12287 c -7.94261,0 -9.12287,-0.0485 -9.12287,-0.37486 0,-0.2618 -0.26378,-0.37485 -0.87465,-0.37485 -0.60413,0 -0.87466,0.11397 -0.87466,0.36846 0,0.32139 -2.39613,0.36863 -18.75833,0.36981 -10.31708,7.5e-4 -18.86372,0.0665 -18.99252,0.1461 -0.26785,0.16553 -0.33368,40.41651 -0.0665,40.68365 0.0922,0.0922 13.10895,0.13906 28.9261,0.10412 l 28.75847,-0.0635 z"
       id="path1" />
    <path
       style="fill:#ececec;stroke-width:0.249902"
       d="m 175.77463,184.68825 v -80.21842 h 38.98465 38.98465 v 80.21842 80.21842 h -38.98465 -38.98465 z m 17.64849,15.65606 c 0.63851,-0.54922 0.69544,-0.76519 0.87279,-3.31119 0.10435,-1.49801 0.19684,-2.86423 0.20553,-3.03603 0.0102,-0.20148 0.41664,-0.31238 1.14481,-0.31238 h 1.129 l -0.0669,-6.06012 -0.0669,-6.06011 -4.93556,-0.0678 -4.93556,-0.0678 v 6.12788 6.12787 h 1.22858 1.22858 l 0.0834,3.02103 c 0.0816,2.95518 0.0987,3.03416 0.78457,3.62357 0.943,0.81037 2.39541,0.81692 3.32769,0.015 z m 50.82455,-65.35243 v -20.45787 l -9.04541,-0.11844 c -6.5585,-0.0859 -9.07203,-0.19829 -9.14224,-0.4089 -0.12322,-0.36969 -1.615,-0.38 -1.9813,-0.0137 -0.19458,0.19458 -5.83133,0.32446 -18.98003,0.43732 l -18.70324,0.16055 -0.0639,20.42946 -0.0639,20.42945 h 28.99004 28.99005 z"
       id="path2" />
    <path
       style="fill:#f9f9f9;stroke-width:0.249902"
       d="m 175.77463,184.68825 v -80.21842 h 38.98465 38.98465 v 80.21842 80.21842 h -38.98465 -38.98465 z m 17.24398,15.86835 c 0.85378,-0.4415 1.24391,-1.57223 1.25009,-3.62317 0.002,-0.75595 0.0738,-1.79617 0.15905,-2.31159 0.1518,-0.91843 0.17697,-0.93713 1.26101,-0.93713 h 1.10612 l -0.0566,-5.81021 c -0.0311,-3.19562 -0.10578,-5.95079 -0.16595,-6.12259 -0.0824,-0.2354 -1.30361,-0.31238 -4.95574,-0.31238 h -4.84634 v 6.12259 6.12259 h 1.2495 1.24951 v 2.31324 c 0,1.27228 0.11255,2.70568 0.25012,3.18533 0.45663,1.59219 1.94576,2.17663 3.49918,1.37332 z m 51.22906,-65.56472 v -20.45787 l -8.93399,-0.11735 c -7.048,-0.0926 -9.05155,-0.19089 -9.49094,-0.4657 -0.46422,-0.29035 -0.69309,-0.29422 -1.37446,-0.0232 -0.63317,0.25181 -4.99694,0.35738 -19.3531,0.46818 l -18.5356,0.14307 -0.13816,0.52574 c -0.076,0.28915 -0.14229,9.49408 -0.14736,20.45539 l -0.009,19.92965 h 28.99141 28.99141 z"
       id="path3" />
    <path
       style="fill:#b3b3b3;stroke-width:0.450355"
       d="m -46.983732,224.02193 v -38.95567 h 6.530142 6.530142 v 38.95567 38.95567 h -6.530142 -6.530142 z"
       id="path13" />
    <g
       id="g13"
       transform="matrix(0.8970713,0,0,0.8970713,-53.288696,113.2347)">&#10;	<g
   id="g12">&#10;		<rect
   x="6.8579998"
   y="80.054001"
   width="15.092"
   height="87.021004"
   id="rect1" />
&#10;		<polygon
   points="0,173.946 28.808,173.946 21.95,168.939 6.858,168.939 "
   id="polygon1" />
&#10;		&#10;		<rect
   x="214.006"
   y="80.054001"
   width="15.082"
   height="87.021004"
   id="rect2" />
&#10;		<polygon
   points="214.006,168.939 207.146,173.946 235.953,173.946 229.098,168.939 "
   id="polygon2" />
&#10;		&#10;		&#10;		&#10;		&#10;		&#10;		&#10;		&#10;		&#10;		&#10;		&#10;		&#10;	</g>
&#10;</g>
    <path
       style="fill:#f2f2f2;stroke-width:0.450355"
       d="m 139.01272,224.02193 v -38.95567 h 6.53014 6.53014 v 38.95567 38.95567 h -6.53014 -6.53014 z"
       id="path14" />
    <path
       style="fill:#f2f2f2;stroke-width:0.450355"
       d="m -46.983732,224.24711 v -39.18085 h 6.530142 6.530142 v 39.18085 39.18085 h -6.530142 -6.530142 z"
       id="path15" />
    <path
       style="fill:#f2f2f2;stroke-width:0.450355"
       d="m -52.387987,269.09692 c 0,-0.1021 1.302938,-1.1154 2.895417,-2.25177 l 2.895418,-2.06613 h 6.236643 6.236642 l 3.127724,2.25178 3.127724,2.25177 h -12.259784 c -6.742882,0 -12.259784,-0.0835 -12.259784,-0.18565 z"
       id="path16" />
    <path
       style="fill:#f2f2f2;stroke-width:0.450355"
       d="m 136.08541,267.0308 3.12773,-2.25178 h 6.23664 6.23664 l 2.89542,2.06613 c 1.59248,1.13637 2.89541,2.14967 2.89541,2.25177 0,0.10211 -5.5169,0.18565 -12.25978,0.18565 h -12.25978 z"
       id="path17" />
    <rect
       style="fill:#aa8800;stroke-width:0.230046"
       id="rect17"
       width="172.48581"
       height="7.8304968"
       x="-33.923447"
       y="189.34462" />
    <rect
       style="fill:#666666;stroke-width:0.264583"
       id="rect18"
       width="172.03546"
       height="1.3510637"
       x="-34.555363"
       y="205.91342" />
    <rect
       style="fill:#666666;stroke-width:0.264583"
       id="rect18-0"
       width="172.03546"
       height="1.3510637"
       x="-33.444946"
       y="216.92322" />
    <rect
       style="fill:#666666;stroke-width:0.264583"
       id="rect18-7"
       width="172.03546"
       height="1.3510637"
       x="-32.994591"
       y="227.28137" />
    <rect
       style="fill:#666666;stroke-width:0.264583"
       id="rect18-1"
       width="172.03546"
       height="1.3510637"
       x="-33.444946"
       y="237.18918" />
    <rect
       style="fill:#666666;stroke-width:0.264583"
       id="rect18-8"
       width="172.03546"
       height="1.3510637"
       x="-33.444946"
       y="247.99768" />
    <rect
       style="fill:#666666;stroke-width:0.264583"
       id="rect18-13"
       width="172.03546"
       height="1.3510637"
       x="-32.994591"
       y="258.35583" />
    <circle
       style="fill:#aeb5ca;stroke-width:0.0446429"
       cx="98.580002"
       cy="90.497917"
       id="circle2"
       r="10" />
    <path
       style="fill:#d7deed;stroke-width:0.0446429"
       d="m 105.08632,84.917622 c 1.28731,1.499504 2.06509,3.449046 2.06509,5.580306 0,4.733874 -3.83752,8.571425 -8.571417,8.571425 -4.733877,0 -8.571432,-3.837551 -8.571432,-8.571425 0,-4.733903 3.837555,-8.571424 8.571432,-8.571424 2.131257,0 4.080797,0.777857 5.580297,2.065073"
       id="path4" />
    <path
       style="fill:#e6e6e6;stroke-width:0.026986"
       d="m 97.770418,100.4523 c -2.343899,-0.18958 -4.568,-1.221063 -6.248001,-2.89754 -2.771151,-2.765314 -3.662488,-6.87871 -2.290447,-10.57007 0.154174,-0.41481 0.517893,-1.169113 0.763382,-1.583137 0.746209,-1.258492 1.806887,-2.381012 3.012028,-3.187624 1.662662,-1.112813 3.58801,-1.700273 5.572613,-1.700273 2.000177,0 3.939287,0.597196 5.613107,1.728696 1.92068,1.298404 3.36003,3.292845 3.99076,5.529993 0.50604,1.794761 0.50608,3.657887 1.1e-4,5.451167 -0.30196,1.07 -0.82846,2.165034 -1.47512,3.067677 -1.32646,1.851484 -3.2382,3.199808 -5.40326,3.810671 -1.14289,0.32247 -2.373358,0.44444 -3.535156,0.35044 z m 1.909391,-1.439459 c 0.995901,-0.137877 1.788111,-0.380251 2.691721,-0.823029 0.81106,-0.397426 1.48758,-0.869352 2.12442,-1.482028 0.78734,-0.757388 1.30306,-1.460078 1.77485,-2.418324 0.44626,-0.906572 0.68359,-1.685428 0.82878,-2.71996 0.0649,-0.46585 0.0641,-1.678474 -0.001,-2.151004 -0.21503,-1.540718 -0.76564,-2.88883 -1.67571,-4.102542 -0.28128,-0.375081 -1.28552,-1.379346 -1.66059,-1.660604 -1.21406,-0.910292 -2.56408,-1.46189 -4.102547,-1.676236 -0.474995,-0.06621 -1.683867,-0.06621 -2.158884,0 -1.603138,0.223446 -3.056154,0.838602 -4.277775,1.811392 -0.351163,0.279686 -1.080325,1.008408 -1.351173,1.350471 -0.977642,1.234665 -1.587114,2.674696 -1.810396,4.277519 -0.06578,0.471957 -0.0662,1.684761 -7.63e-4,2.151004 0.283185,2.018328 1.134422,3.712917 2.559198,5.094713 1.40937,1.366859 3.227946,2.20286 5.191271,2.386393 0.381719,0.03568 1.502351,0.01213 1.868908,-0.0378 z"
       id="path477" />
    <path
       style="fill:#edddbf;fill-opacity:1;stroke-width:0.026986"
       d="m 97.945829,99.034672 c -1.567317,-0.126987 -3.060206,-0.665318 -4.31776,-1.557014 -0.74587,-0.528862 -1.47757,-1.260972 -2.026734,-2.027793 -0.664569,-0.928009 -1.178937,-2.107433 -1.400342,-3.210965 -0.137712,-0.686392 -0.160237,-0.927738 -0.161171,-1.727487 -9.67e-4,-0.810269 0.02776,-1.119525 0.165096,-1.777889 0.432607,-2.073782 1.670476,-3.967264 3.396168,-5.194795 1.163382,-0.827565 2.428657,-1.326493 3.885974,-1.532311 0.488948,-0.06924 1.716661,-0.06924 2.185866,-1.52e-4 1.680814,0.247031 3.024294,0.826146 4.300064,1.853239 0.32849,0.264567 1.09659,1.042939 1.34452,1.362656 1.14619,1.47834 1.7582,3.176679 1.80862,5.019395 0.0397,1.464884 -0.24526,2.773508 -0.88542,4.061389 -0.43391,0.873101 -0.91139,1.535396 -1.61557,2.240928 -1.43105,1.433923 -3.26968,2.294203 -5.303031,2.481275 -0.270797,0.02419 -1.114326,0.03084 -1.37628,0.0091 z"
       id="path686" />
    <path
       style="fill:#b3b3b3;fill-opacity:1;stroke-width:0.026986"
       d="m 97.999804,100.45345 c -3.082993,-0.16177 -6.030298,-1.8657 -7.744311,-4.477384 -0.914605,-1.393586 -1.458228,-2.95426 -1.608783,-4.618642 -0.04176,-0.461587 -0.01798,-1.689752 0.04091,-2.114359 0.21634,-1.559585 0.735996,-2.959855 1.567315,-4.223305 1.648685,-2.505676 4.28039,-4.103448 7.31255,-4.439615 0.776093,-0.08617 1.880456,-0.04747 2.711825,0.09495 2.83563,0.485352 5.32289,2.188377 6.83661,4.681021 0.60185,0.991052 1.0362,2.124729 1.25657,3.279813 0.13297,0.69622 0.15059,0.9164 0.15059,1.862038 0,0.945698 -0.0177,1.16621 -0.15074,1.862037 -0.445,2.330971 -1.71125,4.433084 -3.56176,5.913207 -1.45177,1.161192 -3.12908,1.873589 -4.975832,2.113329 -0.28257,0.0366 -1.277235,0.1025 -1.389786,0.0919 -0.02227,-0.002 -0.222634,-0.0121 -0.445258,-0.0242 z m 1.322305,-1.400848 c 1.236031,-0.08527 2.540081,-0.511628 3.724081,-1.217522 1.15181,-0.686724 2.2489,-1.795699 2.92111,-2.952658 0.53438,-0.919816 0.88176,-1.852754 1.06981,-2.873288 0.1688,-0.915704 0.16906,-2.106104 6.5e-4,-3.01948 -0.22923,-1.243706 -0.67729,-2.335476 -1.37979,-3.362328 -0.26959,-0.394098 -0.3704,-0.51202 -0.89714,-1.049589 -0.59904,-0.611407 -0.91259,-0.886799 -1.33414,-1.171836 -1.14563,-0.774652 -2.37601,-1.244855 -3.767267,-1.439637 -0.348443,-0.04868 -1.809967,-0.04868 -2.158884,-6e-5 -1.577203,0.220422 -3.07316,0.852904 -4.276638,1.808186 -0.243509,0.19321 -0.987758,0.9229 -1.237767,1.21344 -0.359581,0.417864 -0.805654,1.097544 -1.08379,1.651322 -0.402464,0.80135 -0.725164,1.85103 -0.85447,2.779344 -0.05654,0.405921 -0.04783,1.845649 0.01346,2.239808 0.30414,1.953894 1.101289,3.555628 2.435618,4.893974 0.972833,0.975754 2.07851,1.66526 3.359589,2.095068 0.582398,0.195326 1.148497,0.316966 1.927331,0.413964 0.174162,0.02116 1.180242,0.01512 1.538192,-0.0091 z"
       id="path5596" />
    <circle
       style="fill:#aeb5ca;stroke-width:0.0446429"
       cx="7.2726178"
       cy="89.866005"
       id="circle2-0"
       r="10" />
    <path
       style="fill:#d7deed;stroke-width:0.0446429"
       d="m 13.778948,84.285701 c 1.287277,1.499505 2.065087,3.449047 2.065087,5.580307 0,4.733873 -3.837548,8.571424 -8.5714375,8.571424 -4.7338742,0 -8.571425,-3.837551 -8.571425,-8.571424 0,-4.733904 3.8375508,-8.571426 8.571425,-8.571426 2.1312606,0 4.0808165,0.777858 5.5803215,2.065075"
       id="path4-6" />
    <path
       style="fill:#e6e6e6;stroke-width:0.026986"
       d="M 6.4630223,99.820377 C 4.1191255,99.630796 1.8950246,98.599317 0.21502444,96.92284 -2.55613,94.157525 -3.4474638,90.044129 -2.0754251,86.35277 c 0.1541785,-0.41481 0.5178945,-1.169113 0.7633828,-1.583138 0.74620993,-1.258492 1.80688783,-2.381012 3.0120282,-3.187623 1.6626597,-1.112815 3.5880115,-1.700275 5.5726116,-1.700275 2.000171,0 3.9393115,0.597196 5.6130975,1.728696 1.920711,1.298404 3.360013,3.292846 3.990756,5.529994 0.506038,1.794761 0.506068,3.657888 9e-5,5.451168 -0.301904,1.069998 -0.828438,2.165034 -1.475104,3.067676 -1.326399,1.851485 -3.238192,3.199809 -5.403241,3.81067 -1.1428838,0.32247 -2.3733619,0.444443 -3.5351587,0.350439 z m 1.9093872,-1.439456 c 0.9959058,-0.137877 1.7881255,-0.380251 2.6917195,-0.823031 0.811072,-0.397424 1.487576,-0.869352 2.124442,-1.482028 0.787347,-0.757386 1.303045,-1.460077 1.774808,-2.418322 0.446314,-0.906574 0.683639,-1.685428 0.82879,-2.71996 0.06534,-0.46585 0.06461,-1.678474 -0.0013,-2.151006 -0.214987,-1.540717 -0.765618,-2.888829 -1.675686,-4.102541 -0.281257,-0.37508 -1.285538,-1.379347 -1.660618,-1.660604 -1.214016,-0.910291 -2.5640631,-1.461891 -4.1025275,-1.676235 -0.4749956,-0.06621 -1.6838702,-0.06621 -2.158881,0 -1.6031393,0.223446 -3.0561564,0.838602 -4.2777754,1.811391 -0.3511635,0.279685 -1.08032505,1.008409 -1.35118114,1.350471 -0.97763999,1.234666 -1.58710986,2.674697 -1.81039116,4.277518 -0.065751,0.471958 -0.066185,1.684763 -7.601e-4,2.151006 0.28318337,2.018328 1.13441924,3.712917 2.5591954,5.094712 1.4093709,1.366858 3.2279435,2.20286 5.191272,2.386394 0.3817168,0.03568 1.5023472,0.01213 1.8689004,-0.0378 z"
       id="path477-1" />
    <path
       style="fill:#edddbf;fill-opacity:1;stroke-width:0.026986"
       d="M 6.6384381,98.402752 C 5.0711128,98.27576 3.5782302,97.737433 2.320675,96.845737 1.5748078,96.316876 0.84310636,95.584765 0.29394103,94.817945 -0.37062858,93.889934 -0.8849923,92.71051 -1.1063984,91.60698 c -0.1377107,-0.686394 -0.1602367,-0.927739 -0.1611788,-1.727487 -9.601e-4,-0.810271 0.027761,-1.119527 0.1651018,-1.777889 0.43260656,-2.073783 1.67047752,-3.967266 3.3961644,-5.194795 1.1633839,-0.827565 2.4286646,-1.326493 3.8859746,-1.532312 0.4889503,-0.06924 1.7166618,-0.06924 2.1858672,-1.51e-4 1.6808162,0.24703 3.0242722,0.826144 4.3000442,1.853239 0.328532,0.264567 1.096638,1.042937 1.34453,1.362656 1.14624,1.478339 1.758193,3.176677 1.808575,5.019393 0.04009,1.464886 -0.245213,2.773508 -0.885343,4.061391 -0.433966,0.8731 -0.911437,1.535395 -1.615566,2.240927 -1.43105,1.433922 -3.2697,2.294204 -5.3030562,2.481274 -0.270795,0.02419 -1.1143258,0.03084 -1.3762767,0.0091 z"
       id="path686-1" />
    <path
       style="fill:#b3b3b3;fill-opacity:1;stroke-width:0.026986"
       d="m 6.6924097,99.821525 c -3.082991,-0.161763 -6.03029734,-1.865695 -7.7443105,-4.477379 -0.9146048,-1.393588 -1.4582298,-2.954261 -1.6087827,-4.618644 -0.041761,-0.461586 -0.017993,-1.68975 0.040893,-2.114358 0.2163389,-1.559584 0.7359965,-2.959854 1.5673125,-4.223304 1.64868918,-2.505676 4.2803897,-4.10345 7.3125533,-4.439615 0.7760888,-0.08617 1.8804515,-0.04747 2.7118267,0.09495 2.835628,0.485352 5.322909,2.188376 6.836607,4.68102 0.60184,0.991053 1.036182,2.12473 1.256591,3.279814 0.132871,0.696219 0.150574,0.916399 0.150574,1.862038 0,0.945697 -0.01781,1.16621 -0.150726,1.862037 -0.445047,2.330971 -1.711238,4.433083 -3.561785,5.913207 -1.451763,1.161192 -3.129071,1.873588 -4.9758245,2.11333 -0.2825723,0.03659 -1.2772379,0.102507 -1.3897929,0.09192 -0.022227,-0.002 -0.2226288,-0.01213 -0.4452583,-0.02419 z M 8.0147148,98.420681 C 9.2507421,98.335414 10.5548,97.909054 11.73879,97.20316 c 1.151803,-0.686726 2.24894,-1.795699 2.921109,-2.952659 0.534392,-0.919816 0.88176,-1.852755 1.069859,-2.873287 0.168779,-0.915704 0.169035,-2.106104 6.39e-4,-3.01948 -0.229286,-1.243706 -0.677327,-2.335476 -1.379835,-3.362328 -0.269598,-0.3941 -0.370411,-0.512021 -0.897107,-1.04959 -0.599085,-0.611407 -0.912604,-0.886799 -1.334157,-1.171835 -1.145606,-0.774652 -2.3760078,-1.244856 -3.7672681,-1.439637 -0.348442,-0.04868 -1.8099698,-0.04868 -2.158881,-6e-5 C 4.615937,81.554705 3.1199849,82.187186 1.9165074,83.142469 1.673,83.33568 0.92875051,84.06537 0.67874227,84.35591 c -0.35958425,0.417864 -0.80565931,1.097544 -1.08379475,1.65132 -0.40246229,0.801351 -0.72516422,1.851032 -0.85446312,2.779344 -0.05654,0.405922 -0.047877,1.84565 0.013458,2.23981 0.30413604,1.953894 1.10128984,3.555628 2.4356144,4.893973 0.9728358,0.975753 2.0785136,1.66526 3.3595923,2.095068 0.5823946,0.195327 1.1484923,0.316967 1.9273324,0.413964 0.1741609,0.02116 1.1802405,0.01512 1.538192,-0.0091 z"
       id="path5596-9" />
    <path
       style="fill:#bdbdbd;stroke-width:0.0787972"
       d="m 207.30644,54.715472 c 0,1.03975 0.71662,1.73292 1.63389,2.0795 h 9.91785 c 0.8886,-0.34658 1.63388,-1.03975 1.63388,-2.0795 z"
       id="path1-6" />
    <path
       style="fill:#140500;stroke-width:0.0731922"
       d="m 206.93208,54.129522 h 13.75099 c 0.17934,0 0.29893,0.11469 0.29893,0.28674 0,0.8889 -0.68755,1.63443 -1.91318,2.00719 -0.0299,0 -0.0598,0 -0.0897,0 h -10.34313 c -0.0299,0 -0.0598,0 -0.0897,0 -1.19575,-0.37276 -1.91318,-1.08962 -1.91318,-2.00719 0,-0.17205 0.14945,-0.28674 0.29894,-0.28674 z m 13.42216,0.57348 h -13.06345 c 0.17936,0.68818 0.98648,1.0036 1.40499,1.14697 h 10.25345 c 0.38863,-0.14337 1.19574,-0.45879 1.40501,-1.14697 z"
       id="path2-1" />
    <polyline
       style="fill:#e0e0e0"
       points="264,348 264,484 244,484 244,348 "
       id="polyline2"
       transform="matrix(-0.16832974,0,0,-0.14648785,256.89997,129.13127)" />
    <path
       style="fill:#140500;stroke-width:0.0990036"
       d="m 213.32538,55.730282 h 1.27091 c 0.15253,0 0.2542,0.2468 0.2542,0.61699 v 20.97734 c 0,0.37018 -0.10167,0.61698 -0.2542,0.61698 -0.15249,0 -0.25417,-0.2468 -0.25417,-0.61698 v -20.36036 h -0.76253 v 20.36036 c 0,0.37018 -0.1017,0.61698 -0.25421,0.61698 -0.1525,0 -0.25414,-0.2468 -0.25414,-0.61698 v -20.97734 c 0,-0.37019 0.10164,-0.61699 0.25414,-0.61699 z"
       id="path3-4" />
    <rect
       x="-228.05446"
       y="-106.9468"
       style="fill:#ffb540;stroke-width:0.146623"
       width="28"
       height="28.526146"
       id="rect3"
       transform="scale(-1)" />
    <g
       id="g14"
       transform="matrix(-0.20950931,0,0,-0.08522727,267.04785,107.56759)">&#10;	<path
   style="fill:#140500"
   d="M 308,352 H 200 c -2.4,0 -4,-1.6 -4,-4 V 4 c 0,-2.4 1.6,-4 4,-4 h 108 c 2.4,0 4,1.6 4,4 v 344 c 0,2.4 -1.6,4 -4,4 z M 204,344 H 304 V 8 H 204 Z"
   id="path4-1" />
&#10;	<path
   style="fill:#140500"
   d="m 256,296 h -56 c -2.4,0 -4,-1.6 -4,-4 0,-2.4 1.6,-4 4,-4 h 56 c 2.4,0 4,1.6 4,4 0,2.4 -1.6,4 -4,4 z"
   id="path5" />
&#10;	<path
   style="fill:#140500"
   d="m 292,296 h -16 c -2.4,0 -4,-1.6 -4,-4 0,-2.4 1.6,-4 4,-4 h 16 c 2.4,0 4,1.6 4,4 0,2.4 -1.6,4 -4,4 z"
   id="path6" />
&#10;	<path
   style="fill:#140500"
   d="m 256,240 h -56 c -2.4,0 -4,-1.6 -4,-4 0,-2.4 1.6,-4 4,-4 h 56 c 2.4,0 4,1.6 4,4 0,2.4 -1.6,4 -4,4 z"
   id="path7" />
&#10;	<path
   style="fill:#140500"
   d="m 292,240 h -16 c -2.4,0 -4,-1.6 -4,-4 0,-2.4 1.6,-4 4,-4 h 16 c 2.4,0 4,1.6 4,4 0,2.4 -1.6,4 -4,4 z"
   id="path8" />
&#10;	<path
   style="fill:#140500"
   d="m 256,184 h -56 c -2.4,0 -4,-1.6 -4,-4 0,-2.4 1.6,-4 4,-4 h 56 c 2.4,0 4,1.6 4,4 0,2.4 -1.6,4 -4,4 z"
   id="path9" />
&#10;	<path
   style="fill:#140500"
   d="m 292,184 h -16 c -2.4,0 -4,-1.6 -4,-4 0,-2.4 1.6,-4 4,-4 h 16 c 2.4,0 4,1.6 4,4 0,2.4 -1.6,4 -4,4 z"
   id="path10" />
&#10;	<path
   style="fill:#140500"
   d="m 256,128 h -56 c -2.4,0 -4,-1.6 -4,-4 0,-2.4 1.6,-4 4,-4 h 56 c 2.4,0 4,1.6 4,4 0,2.4 -1.6,4 -4,4 z"
   id="path11" />
&#10;	<path
   style="fill:#140500"
   d="m 292,128 h -16 c -2.4,0 -4,-1.6 -4,-4 0,-2.4 1.6,-4 4,-4 h 16 c 2.4,0 4,1.6 4,4 0,2.4 -1.6,4 -4,4 z"
   id="path12" />
&#10;	<path
   style="fill:#140500"
   d="m 256,68 h -56 c -2.4,0 -4,-1.6 -4,-4 0,-2.4 1.6,-4 4,-4 h 56 c 2.4,0 4,1.6 4,4 0,2.4 -1.6,4 -4,4 z"
   id="path13-6" />
&#10;	<path
   style="fill:#140500"
   d="m 292,68 h -16 c -2.4,0 -4,-1.6 -4,-4 0,-2.4 1.6,-4 4,-4 h 16 c 2.4,0 4,1.6 4,4 0,2.4 -1.6,4 -4,4 z"
   id="path14-7" />
&#10;</g>
    <path
       style="fill:#e6e6e6;stroke-width:0.844406"
       d="m 79.796331,577.57344 v -2.11101 H 404.47029 729.14425 v 2.11101 2.11102 H 404.47029 79.796331 Z"
       id="path25"
       transform="matrix(0.26458333,0,0,0.26458333,-55.60851,53.712768)" />
    <path
       style="fill:#e6e6e6;stroke-width:0.844406"
       d="m 84.018359,619.79372 v -2.11101 H 408.69232 733.36628 v 2.11101 2.11102 H 408.69232 84.018359 Z"
       id="path26"
       transform="matrix(0.26458333,0,0,0.26458333,-55.60851,53.712768)" />
    <path
       style="fill:#e6e6e6;stroke-width:0.844406"
       d="m 85.70717,658.63638 v -2.11101 h 324.67396 324.67396 v 2.11101 2.11102 H 410.38113 85.70717 Z"
       id="path27"
       transform="matrix(0.26458333,0,0,0.26458333,-55.60851,53.712768)" />
    <path
       style="fill:#e6e6e6;stroke-width:0.844406"
       d="m 84.018359,695.79023 v -2.11101 H 408.69232 733.36628 v 2.11101 2.11101 H 408.69232 84.018359 Z"
       id="path28"
       transform="matrix(0.26458333,0,0,0.26458333,-55.60851,53.712768)" />
    <path
       style="fill:#e6e6e6;stroke-width:0.844406"
       d="m 84.018359,737.16611 v -2.11102 H 408.69232 733.36628 v 2.11102 2.11101 H 408.69232 84.018359 Z"
       id="path29"
       transform="matrix(0.26458333,0,0,0.26458333,-55.60851,53.712768)" />
    <path
       style="fill:#e6e6e6;stroke-width:0.844406"
       d="m 85.70717,776.00876 v -2.11101 h 324.67396 324.67396 v 2.11101 2.11102 H 410.38113 85.70717 Z"
       id="path30"
       transform="matrix(0.26458333,0,0,0.26458333,-55.60851,53.712768)" />
    <ellipse
       style="fill:#e6e6e6;stroke-width:0.264583"
       id="path31"
       cx="208.24538"
       cy="85.661201"
       rx="1.3404939"
       ry="1.5639096" />
    <ellipse
       style="fill:#e6e6e6;stroke-width:0.264583"
       id="path32"
       cx="217.62885"
       cy="90.911476"
       rx="1.3404939"
       ry="1.2287861" />
    <circle
       style="fill:#e6e6e6;stroke-width:0.264583"
       id="path33"
       cx="208.6922"
       cy="96.831993"
       r="1.5639096" />
    <ellipse
       style="fill:#e6e6e6;stroke-width:0.264583"
       id="path34"
       cx="215.28296"
       cy="101.41201"
       rx="1.2287861"
       ry="1.4522017" />
    <ellipse
       style="fill:#e6e6e6;stroke-width:0.264583"
       id="path35"
       cx="220.1981"
       cy="97.725647"
       rx="1.4522017"
       ry="1.5639096" />
    <ellipse
       style="fill:#e6e6e6;stroke-width:0.264583"
       id="path36"
       cx="221.53862"
       cy="86.331451"
       rx="1.4522017"
       ry="1.5639096" />
    <ellipse
       style="fill:#e6e6e6;stroke-width:0.264583"
       id="path37"
       cx="214.2776"
       cy="83.091927"
       rx="1.5639096"
       ry="1.8990331" />
    <circle
       style="fill:#e6e6e6;stroke-width:0.264583"
       id="path38"
       cx="211.5966"
       cy="92.810509"
       r="1.3404939" />
    <ellipse
       style="fill:#e6e6e6;stroke-width:0.264583"
       id="path39"
       cx="208.91562"
       cy="104.42812"
       rx="1.7873251"
       ry="1.3404939" />
    <ellipse
       style="fill:#e6e6e6;stroke-width:0.264583"
       id="path40"
       cx="221.53862"
       cy="80.969475"
       rx="1.4522017"
       ry="1.3404939" />
    <ellipse
       style="fill:#e6e6e6;stroke-width:0.264583"
       id="path41"
       cx="206.12292"
       cy="81.639725"
       rx="1.2287861"
       ry="0.89366257" />
    <ellipse
       style="fill:#e6e6e6;stroke-width:0.264583"
       id="path42"
       cx="220.08641"
       cy="105.09837"
       rx="1.1170783"
       ry="1.3404939" />
    <ellipse
       style="fill:#e6e6e6;stroke-width:0.264583"
       id="path43"
       cx="217.07028"
       cy="96.273445"
       rx="1.6756173"
       ry="2.1224487" />
    <ellipse
       style="fill:#e6e6e6;stroke-width:0.264583"
       id="path44"
       cx="216.84688"
       cy="84.990959"
       rx="1.4522017"
       ry="1.7873251" />
    <circle
       style="fill:#e6e6e6;stroke-width:0.264583"
       id="path45"
       cx="209.25072"
       cy="92.251968"
       r="1.4522017" />
    <ellipse
       style="fill:#e6e6e6;stroke-width:0.264583"
       id="path46"
       cx="212.04346"
       cy="98.842728"
       rx="1.3404939"
       ry="0.89366257" />
    <ellipse
       style="fill:#e6e6e6;stroke-width:0.264583"
       id="path47"
       cx="212.15514"
       cy="104.2047"
       rx="1.4522017"
       ry="1.3404939" />
    <ellipse
       style="fill:#e6e6e6;stroke-width:0.264583"
       id="path48"
       cx="213.04883"
       cy="87.001701"
       rx="2.3458643"
       ry="2.0107408" />
    <ellipse
       style="fill:#e6e6e6;stroke-width:0.264583"
       id="path49"
       cx="204.89413"
       cy="89.459274"
       rx="1.3404939"
       ry="1.7873251" />
    <ellipse
       style="fill:#e6e6e6;stroke-width:0.264583"
       id="path50"
       cx="205.00584"
       cy="99.289558"
       rx="1.2287861"
       ry="1.3404939" />
    <polygon
       style="fill:#f7c02d"
       points="122.112,463.034 200.129,385.017 189.046,373.933 142.643,405.548 111.029,451.951 "
       id="polygon9012"
       transform="matrix(0.09922706,0,0,0.1030034,73.114879,64.005088)" />
    <rect
       x="135.80411"
       y="4.96559"
       transform="matrix(0.69378169,0.72018537,-0.69378169,0.72018537,0,0)"
       style="fill:#fbe27b;stroke-width:0.101132"
       width="1.5850401"
       height="11.157881"
       id="rect9014" />
    <polygon
       style="fill:#f7c02d"
       points="111.029,451.951 122.112,463.034 200.129,385.017 189.046,373.933 142.643,405.548 "
       id="polygon9012-0"
       transform="matrix(0.06850833,-0.07343603,0.06991941,0.07055056,59.99287,91.763401)" />
    <rect
       x="96.701019"
       y="105.09871"
       transform="matrix(0.99995799,-0.00916594,0.00850622,0.99996382,0,0)"
       style="fill:#fbe27b;stroke-width:0.101097"
       width="1.5551754"
       height="11.364224"
       id="rect9014-4" />
    <polygon
       style="fill:#f7c02d"
       points="412.054,440.869 334.037,362.851 322.954,373.933 354.568,420.337 400.971,451.951 "
       id="polygon9016"
       transform="matrix(0.09922706,0,0,0.1030034,73.114879,64.005088)" />
    <rect
       x="3.025213"
       y="146.96486"
       transform="matrix(0.69378169,-0.72018537,0.69378169,0.72018537,0,0)"
       style="fill:#fbe27b;stroke-width:0.101132"
       width="1.5850401"
       height="11.157881"
       id="rect9018" />
    <polygon
       style="fill:#f7c02d"
       points="189.046,373.933 142.643,405.548 111.029,451.951 122.112,463.034 200.129,385.017 "
       id="polygon9012-1"
       transform="matrix(0.09922706,0,0,0.1030034,-18.290338,63.687658)" />
    <rect
       x="69.709099"
       y="70.619835"
       transform="matrix(0.69378169,0.72018537,-0.69378169,0.72018537,0,0)"
       style="fill:#fbe27b;stroke-width:0.101132"
       width="1.5850401"
       height="11.157881"
       id="rect9014-3" />
    <polygon
       style="fill:#f7c02d"
       points="200.129,385.017 189.046,373.933 142.643,405.548 111.029,451.951 122.112,463.034 "
       id="polygon9012-0-9"
       transform="matrix(0.06850833,-0.07343603,0.06991941,0.07055056,-31.412347,91.445974)" />
    <rect
       x="5.3017898"
       y="103.94347"
       transform="matrix(0.99995799,-0.00916594,0.00850622,0.99996382,0,0)"
       style="fill:#fbe27b;stroke-width:0.101097"
       width="1.5551754"
       height="11.364224"
       id="rect9014-4-1" />
    <polygon
       style="fill:#f7c02d"
       points="322.954,373.933 354.568,420.337 400.971,451.951 412.054,440.869 334.037,362.851 "
       id="polygon9016-0"
       transform="matrix(0.09922706,0,0,0.1030034,-18.290338,63.687658)" />
    <rect
       x="-62.629032"
       y="80.86985"
       transform="matrix(0.69378169,-0.72018537,0.69378169,0.72018537,0,0)"
       style="fill:#fbe27b;stroke-width:0.101132"
       width="1.5850401"
       height="11.157881"
       id="rect9018-4" />
    <polygon
       style="fill:#f7c02d"
       points="189.046,373.933 142.643,405.548 111.029,451.951 122.112,463.034 200.129,385.017 "
       id="polygon9012-4"
       transform="matrix(0.09922706,0,0,0.1030034,188.36914,72.624284)" />
    <rect
       x="224.85045"
       y="-72.11274"
       transform="matrix(0.69378169,0.72018537,-0.69378169,0.72018537,0,0)"
       style="fill:#fbe27b;stroke-width:0.101132"
       width="1.5850401"
       height="11.157881"
       id="rect9014-9" />
    <polygon
       style="fill:#f7c02d"
       points="200.129,385.017 189.046,373.933 142.643,405.548 111.029,451.951 122.112,463.034 "
       id="polygon9012-0-7"
       transform="matrix(0.06850833,-0.07343603,0.06991941,0.07055056,175.24713,100.3826)" />
    <rect
       x="211.87782"
       y="114.77396"
       transform="matrix(0.99995799,-0.00916594,0.00850622,0.99996382,0,0)"
       style="fill:#fbe27b;stroke-width:0.101097"
       width="1.5551754"
       height="11.364224"
       id="rect9014-4-12" />
    <polygon
       style="fill:#f7c02d"
       points="322.954,373.933 354.568,420.337 400.971,451.951 412.054,440.869 334.037,362.851 "
       id="polygon9016-3"
       transform="matrix(0.09922706,0,0,0.1030034,188.36914,72.624284)" />
    <rect
       x="80.103539"
       y="236.0112"
       transform="matrix(0.69378169,-0.72018537,0.69378169,0.72018537,0,0)"
       style="fill:#fbe27b;stroke-width:0.101132"
       width="1.5850401"
       height="11.157881"
       id="rect9018-5" />
    <path
       style="fill:#ffcc00;stroke-width:0.844406"
       d="M 1064.3733,147.34878 V 94.151227 h 3.7998 3.7998 v 53.197553 53.19755 h -3.7998 -3.7998 z"
       id="path51"
       transform="matrix(0.26458333,0,0,0.26458333,-55.60851,53.712768)" />
    <path
       style="fill:#ffcc00;stroke-width:0.844406"
       d="m 979.08832,169.18945 v -31.35688 l 1.75009,2.22489 c 1.00547,1.27824 2.59614,2.22489 3.73854,2.22489 4.062,0 6.8946,-6.77243 4.61452,-11.03279 -0.82195,-1.53584 -0.55113,-1.6333 4.53868,-1.6333 2.97704,0 6.60025,-0.23749 8.05155,-0.52775 3.1934,-0.63868 3.5657,-2.84987 0.4799,-2.84987 -2.0623,0 -2.1001,-0.084 -0.8444,-1.8767 1.7917,-2.558 1.65,-5.06863 -0.4356,-7.72009 -2.25707,-2.86937 -5.22006,-2.86937 -7.4771,0 -2.08564,2.65146 -2.2273,5.16209 -0.43561,7.72009 1.31111,1.87188 1.30243,1.8767 -3.37762,1.8767 -2.58066,0 -4.69212,0.37998 -4.69212,0.84441 0,0.46442 -0.54239,0.8444 -1.20532,0.8444 -0.66292,0 -1.99286,1.0012 -2.95542,2.22489 l -1.75009,2.22489 v -19.113 -19.113003 h 39.26488 39.2648 v 6.755243 6.75525 h -3.4379 c -3.1254,0 -3.3173,-0.12063 -2.111,-1.32693 1.8789,-1.87894 1.6444,-5.06671 -0.5211,-7.084236 -4.9644,-4.625045 -12.2843,0.827196 -9.0996,6.777866 0.8385,1.56659 0.512,1.6333 -7.9921,1.6333 -7.9845,0 -8.9556,-0.16697 -9.7647,-1.67884 -2.0035,-3.74346 -7.6543,-3.11206 -9.8928,1.10537 -1.5651,2.94875 -1.5083,4.91101 0.2405,8.29485 1.1206,2.16858 1.0738,2.24774 -1.6291,2.75482 -5.4236,1.01747 -8.4137,5.9089 -6.4743,10.59108 1.0653,2.57183 5.2678,5.10929 8.4619,5.10929 2.2624,0 7.5996,-2.43967 7.5996,-3.47383 0,-0.41151 7.7896,-0.7482 17.3103,-0.7482 h 17.3103 v 7.17745 7.17745 h -10.1117 -10.1118 l 0.4891,-2.44526 c 0.3611,-1.80563 0.024,-2.91003 -1.2877,-4.22203 -3.7366,-3.73654 -10.0571,-0.74665 -9.0514,4.28172 l 0.501,2.50495 -7.8016,-0.47153 c -13.2065,-0.79819 -13.957,-0.91423 -15.6143,-2.41401 -2.2884,-2.07098 -5.50091,-1.80146 -7.80877,0.65514 -1.68072,1.78905 -2.7429,2.11102 -6.96435,2.11102 -4.28815,0 -4.94203,0.20558 -4.69993,1.47771 0.22084,1.16045 1.29812,1.53137 5.01764,1.72765 3.74122,0.19742 5.14545,0.68533 6.68313,2.32211 1.96798,2.09482 6.14848,2.8336 7.12188,1.25857 0.2808,-0.45419 1.2353,-0.0812 2.1609,0.84441 0.9119,0.9119 2.608,1.65801 3.769,1.65801 2.3341,0 5.4887,-2.66924 5.4887,-4.64423 0,-1.0921 2.9085,-1.26661 21.1101,-1.26661 h 21.1101 v 7.17745 7.17745 h -5.2175 c -2.8697,0 -6.4948,-0.46185 -8.0559,-1.02632 -2.2275,-0.80549 -3.1918,-0.80549 -4.4816,0 -2.249,1.40453 -2.2522,1.40241 -2.8703,-1.89251 -0.5774,-3.07758 -3.8829,-6.36964 -6.3956,-6.36964 -2.5128,0 -5.8183,3.29206 -6.3957,6.36964 -0.5421,2.89001 -0.5914,2.91883 -4.9944,2.91883 -2.69,0 -4.8184,0.44771 -5.3873,1.1332 -1.4439,1.73975 -0.2779,2.24442 5.1856,2.24442 4.1173,0 5.464,0.37785 7.5237,2.11101 2.9938,2.51907 4.8981,2.65488 7.5149,0.53596 1.9358,-1.56753 1.9514,-1.56254 3.2601,1.04646 2.6611,5.30532 9.5916,4.53175 10.7377,-1.19853 0.4784,-2.39226 0.6857,-2.4949 5.0377,-2.4949 h 4.5386 v 8.02185 8.02186 h -14.2493 -14.2494 l -0.5085,-2.54256 c -1.0696,-5.34811 -8.4684,-5.34811 -9.538,0 -0.3848,1.92415 -0.9712,2.54256 -2.4106,2.54256 -2.3421,0 -4.6119,2.31014 -2.8373,2.88767 2.031,0.66092 7.8399,1.42972 10.0169,1.32572 1.1611,-0.0555 9.2357,-0.28243 17.9436,-0.50437 l 15.8326,-0.40351 v 8.05791 8.0579 h -39.2648 -39.26488 z m 66.23798,28.63578 c 2.5629,-3.65911 0.572,-9.10057 -3.3298,-9.10057 -2.2528,0 -4.6442,2.82615 -4.6442,5.48863 0,2.66249 2.3914,5.48864 4.6442,5.48864 1.1253,0 2.5958,-0.82879 3.3298,-1.8767 z m -40.7844,-2.25958 c 1.7814,-1.40125 2.2413,-1.4544 3.6529,-0.4222 3.6992,2.70492 9.7362,0.0339 9.7362,-4.30778 0,-4.69228 -6.739,-7.19371 -10.1611,-3.77166 -1.5751,1.57512 -1.8696,1.61 -3.5655,0.4222 -4.1157,-2.88276 -11.60559,-0.17616 -11.60559,4.19387 0,4.59037 7.81479,7.13285 11.94309,3.88557 z m -0.5436,-12.75183 c 0,-1.04902 -1.5937,-1.26661 -9.27692,-1.26661 -8.23016,0 -9.30962,0.16993 -9.56692,1.506 -0.26665,1.38458 0.48121,1.48669 9.2769,1.2666 7.83464,-0.19604 9.56694,-0.46873 9.56694,-1.50599 z m -15.62152,-6.75525 c 0.92884,-0.92884 1.68881,-2.63877 1.68881,-3.79982 0,-2.53559 -2.72589,-5.48864 -5.06644,-5.48864 -2.34054,0 -5.06643,2.95305 -5.06643,5.48864 0,2.53559 2.72589,5.48863 5.06643,5.48863 0.92885,0 2.44878,-0.75996 3.37763,-1.68881 z m 27.13852,-3.32472 c 1.621,-1.33025 1.8194,-1.92189 1.0616,-3.16652 -1.3967,-2.29404 -4.9227,-3.28632 -7.5019,-2.11116 -3.1193,1.42129 -3.6305,3.48876 -1.3242,5.3563 2.478,2.0065 5.258,1.97835 7.7645,-0.0786 z m -12.323,-5.50315 c 2.6415,-2.64154 2.6415,-5.87929 0,-8.52083 -2.8109,-2.81082 -5.98312,-2.66695 -8.84934,0.40134 -1.63908,1.75464 -3.27004,2.55258 -5.6093,2.74432 -2.33657,0.19152 -3.37991,0.70121 -3.5783,1.74806 -0.23328,1.231 0.35828,1.47771 3.54332,1.47771 2.95238,0 4.30426,0.4809 5.93438,2.11101 2.67859,2.6786 5.90454,2.69306 8.55924,0.0384 z m 0.806,-57.88017 c 0,-0.96143 -1.2502,-1.32663 -5.18857,-1.5157 -4.52507,-0.21723 -5.13755,-0.44408 -4.78976,-1.77403 0.55113,-2.10753 -1.90107,-4.30992 -4.79879,-4.30992 -3.06396,0 -5.35207,2.20944 -4.72132,4.55901 0.26193,0.97571 0.48142,2.45144 0.48776,3.27939 0.0105,1.3686 0.8746,1.48368 9.5111,1.26661 7.77498,-0.19541 9.49958,-0.46869 9.49958,-1.50536 z"
       id="path52"
       transform="matrix(0.26458333,0,0,0.26458333,-55.60851,53.712768)" />
    <path
       style="fill:#ffcc00;stroke-width:0.844406"
       d="m 1023.9859,123.36376 c -0.5717,-1.58118 -1.6824,-3.12155 -2.4681,-3.42304 -1.2273,-0.47096 -1.2534,-0.65889 -0.1855,-1.33423 1.8966,-1.19948 2.5095,-0.97596 2.5095,0.91529 0,2.24634 3.6498,5.87245 5.9109,5.87245 0.971,0 2.6982,-0.93268 3.8382,-2.07263 2.8199,-2.81989 2.8199,-7.38974 0,-10.20963 l -2.0727,-2.07263 h 13.0499 13.0499 v 7.59965 7.59965 h -2.3869 c -2.1612,0 -2.3525,-0.23489 -2.0226,-2.48311 0.4477,-3.04979 -2.8888,-6.80535 -6.0459,-6.80535 -2.8289,0 -5.8301,3.87998 -5.379,6.95389 l 0.3426,2.33457 h -8.5503 -8.5504 z"
       id="path53"
       transform="matrix(0.26458333,0,0,0.26458333,-55.60851,53.712768)" />
    <path
       style="fill:#ffcc00;stroke-width:0.844406"
       d="M 966.42223,147.34878 V 94.151227 h 2.95542 2.95542 v 53.197553 53.19755 h -2.95542 -2.95542 z"
       id="path54"
       transform="matrix(0.26458333,0,0,0.26458333,-55.60851,53.712768)" />
    <path
       style="fill:#ffcc00;stroke-width:0.844406"
       d="m 575.24789,170.12489 c -8.9037,-2.23748 -17.42679,-9.42969 -21.4871,-18.13188 -2.06753,-4.43119 -2.36392,-6.07223 -2.36392,-13.08829 0,-6.93636 0.30623,-8.67521 2.26305,-12.85022 4.42622,-9.4436 13.08182,-16.23923 23.54095,-18.48231 12.78549,-2.742 28.1997,5.19333 34.32772,17.6721 2.12225,4.32166 2.3543,5.66804 2.3543,13.66043 0,7.84414 -0.25993,9.42079 -2.25472,13.67642 -4.82489,10.29328 -15.82873,17.60932 -27.20534,18.0878 -3.30274,0.13891 -7.43146,-0.10592 -9.17494,-0.54405 z"
       id="path55"
       transform="matrix(0.26458333,0,0,0.26458333,-55.60851,53.712768)" />
    <path
       style="fill:#ffdd55;stroke-width:0.844406"
       d="m 228.65325,167.28314 c -9.07357,-2.96127 -17.29694,-10.49988 -20.63825,-18.91969 -1.44806,-3.64898 -1.91526,-6.55204 -1.92993,-11.99194 -0.017,-6.31849 0.2996,-7.85458 2.64576,-12.83557 6.18309,-13.12696 19.32609,-20.2778 33.68785,-18.32886 10.09597,1.37005 19.63394,8.6312 24.2865,18.48905 2.26253,4.79383 2.58339,6.37847 2.5647,12.66608 -0.0275,9.24244 -2.24247,15.16183 -8.05208,21.51846 -6.12691,6.70382 -13.12932,9.96575 -22.12052,10.3044 -4.25007,0.16008 -8.24775,-0.18515 -10.44403,-0.90193 z"
       id="path56"
       transform="matrix(0.26458333,0,0,0.26458333,-55.60851,53.712768)" />
    <path
       style="fill:#ffe680;stroke-width:0.844406"
       d="m 995.13202,194.6355 c -0.92884,-0.92885 -1.68881,-2.25879 -1.68881,-2.95542 0,-2.28429 3.21811,-4.64424 6.33304,-4.64424 3.11495,0 6.33305,2.35995 6.33305,4.64424 0,2.28428 -3.2181,4.64423 -6.33305,4.64423 -1.82954,0 -3.59877,-0.64336 -4.64423,-1.68881 z"
       id="path57"
       transform="matrix(0.26458333,0,0,0.26458333,-55.60851,53.712768)" />
    <path
       style="fill:#ffe680;stroke-width:0.844406"
       d="m 1011.4772,132.1998 c -2.345,-1.00232 -4.5235,-4.14431 -4.5235,-6.52416 0,-1.03182 0.9171,-2.94218 2.0379,-4.24525 1.7445,-2.02805 2.6669,-2.3692 6.4062,-2.3692 3.7392,0 4.6617,0.34115 6.4061,2.3692 2.5466,2.9606 2.591,5.75985 0.1367,8.6132 -2.0916,2.43155 -7.3055,3.506 -10.4634,2.15621 z"
       id="path58"
       transform="matrix(0.26458333,0,0,0.26458333,-55.60851,53.712768)" />
    <path
       style="fill:#ffe680;stroke-width:0.844406"
       d="m 1006.5561,150.75357 c -1.134,-1.25307 -1.8792,-1.46069 -3.0308,-0.8444 -0.8399,0.44948 -2.122,0.81723 -2.8491,0.81723 -1.86472,0 -4.69977,-3.05625 -4.69977,-5.06643 0,-2.19167 2.89764,-5.06643 5.10677,-5.06643 0.951,0 2.6269,0.96872 3.7242,2.15272 1.2083,1.30375 2.2111,1.80327 2.5427,1.26661 0.8733,-1.41294 4.2811,-1.02666 5.8058,0.65808 1.8333,2.02585 1.7736,4.60887 -0.1467,6.34678 -2.0651,1.86887 -4.6173,1.7644 -6.4531,-0.26416 z"
       id="path59"
       transform="matrix(0.26458333,0,0,0.26458333,-55.60851,53.712768)" />
    <path
       style="fill:#ffe680;stroke-width:0.844406"
       d="m 1039.0411,170.14773 c -0.9288,-0.92884 -1.6888,-2.63877 -1.6888,-3.79982 0,-2.53559 2.7259,-5.48864 5.0664,-5.48864 2.3406,0 5.0665,2.95305 5.0665,5.48864 0,2.53559 -2.7259,5.48863 -5.0665,5.48863 -0.9288,0 -2.4487,-0.75996 -3.3776,-1.68881 z"
       id="path60"
       transform="matrix(0.26458333,0,0,0.26458333,-55.60851,53.712768)" />
    <path
       style="fill:#ff7f2a;stroke-width:0.844406"
       d="m 982.17461,175.35878 c -1.83337,-2.02585 -1.77366,-4.60887 0.14672,-6.34678 2.00705,-1.81636 3.76831,-1.7694 5.50237,0.14671 1.83337,2.02585 1.77366,4.60887 -0.14672,6.34679 -2.00705,1.81635 -3.76831,1.76939 -5.50237,-0.14672 z"
       id="path61"
       transform="matrix(0.26458333,0,0,0.26458333,-55.60851,53.712768)" />
    <path
       style="fill:#ff7f2a;stroke-width:0.844406"
       d="m 1044.1075,127.08305 c -0.9288,-0.92885 -1.6888,-2.63877 -1.6888,-3.79983 0,-2.53559 2.7259,-5.48864 5.0665,-5.48864 2.3405,0 5.0664,2.95305 5.0664,5.48864 0,2.53559 -2.7259,5.48864 -5.0664,5.48864 -0.9289,0 -2.4488,-0.75997 -3.3777,-1.68881 z"
       id="path62"
       transform="matrix(0.26458333,0,0,0.26458333,-55.60851,53.712768)" />
    <path
       style="fill:#ff7f2a;stroke-width:0.844406"
       d="m 986.47686,107.59408 c -3.73336,-2.17448 0.76942,-6.1697 4.85534,-4.30803 2.51995,1.14816 2.73846,3.13604 0.47771,4.34596 -2.02338,1.08288 -3.42586,1.0729 -5.33305,-0.0379 z"
       id="path63"
       transform="matrix(0.26458333,0,0,0.26458333,-55.60851,53.712768)" />
    <path
       style="fill:#ff7f2a;stroke-width:0.844406"
       d="m 1039.5236,197.5306 c -2.4914,-2.49147 -0.8409,-7.96154 2.4024,-7.96154 1.583,0 3.8704,2.83135 3.8704,4.79095 0,1.78309 -2.4245,4.49751 -4.0171,4.49751 -0.5108,0 -1.5259,-0.59711 -2.2557,-1.32692 z"
       id="path64"
       transform="matrix(0.26458333,0,0,0.26458333,-55.60851,53.712768)" />
    <path
       style="fill:#ff7f2a;stroke-width:0.844406"
       d="m 1016.3034,115.56969 c -2.2296,-2.83455 -2.2296,-6.22615 0,-9.06071 2.2571,-2.86937 5.2201,-2.86937 7.4771,0 2.2297,2.83456 2.2297,6.22616 0,9.06071 -2.257,2.86937 -5.22,2.86937 -7.4771,0 z"
       id="path65"
       transform="matrix(0.26458333,0,0,0.26458333,-55.60851,53.712768)" />
    <path
       style="fill:#ff7f2a;stroke-width:0.844406"
       d=""
       id="path66"
       transform="matrix(0.26458333,0,0,0.26458333,-55.60851,53.712768)" />
    <path
       style="fill:#ff7f2a;stroke-width:0.844406"
       d="m 1006.439,150.2357 c -1.31,-0.91678 -2.3439,-1.03258 -3.9084,-0.43776 -2.88643,1.0974 -5.70977,-0.8889 -5.70977,-4.01697 0,-4.37152 3.89357,-5.75065 7.72557,-2.73644 1.3435,1.05678 2.829,1.45624 4.3407,1.16725 2.7553,-0.5267 4.8218,0.97066 4.8218,3.49372 0,3.7038 -3.7351,5.00379 -7.2699,2.5302 z"
       id="path67"
       transform="matrix(0.26458333,0,0,0.26458333,-55.60851,53.712768)" />
    <path
       style="fill:#ffe680;stroke-width:0.844406"
       d="m 1008.7822,194.13164 c -2.6254,-1.83891 -2.1705,-5.3503 0.9158,-7.06916 2.0854,-1.16139 2.5589,-1.16139 4.6442,0 3.0864,1.71886 3.5413,5.23025 0.9159,7.06916 -1.0587,0.74155 -2.5158,1.34826 -3.238,1.34826 -0.7221,0 -2.1792,-0.60671 -3.2379,-1.34826 z"
       id="path68"
       transform="matrix(0.26458333,0,0,0.26458333,-55.60851,53.712768)" />
    <path
       style="fill:#ffe680;stroke-width:0.844406"
       d="m 1044.2472,106.31346 c -2.6254,-1.83891 -2.1705,-5.35031 0.9159,-7.069165 2.0853,-1.161387 2.5588,-1.161387 4.6442,0 3.0863,1.718855 3.5412,5.230255 0.9158,7.069165 -1.0587,0.74154 -2.5158,1.34826 -3.2379,1.34826 -0.7222,0 -2.1793,-0.60672 -3.238,-1.34826 z"
       id="path69"
       transform="matrix(0.26458333,0,0,0.26458333,-55.60851,53.712768)" />
    <path
       style="fill:#ffe680;stroke-width:0.844406"
       d="m 981.62153,139.74913 c -3.2716,-3.27161 -1.197,-10.97727 2.95542,-10.97727 2.28428,0 4.64423,3.21811 4.64423,6.33304 0,3.11493 -2.35995,6.33304 -4.64423,6.33304 -0.69663,0 -2.02657,-0.75996 -2.95542,-1.68881 z"
       id="path70"
       transform="matrix(0.26458333,0,0,0.26458333,-55.60851,53.712768)" />
    <path
       style="fill:#ffe680;stroke-width:0.844406"
       d="m 1027.2409,166.79159 c -2.045,-2.04503 -2.9144,-5.22843 -2.2025,-8.06481 0.6983,-2.78226 3.4281,-5.46716 5.5587,-5.46716 3.5881,0 6.654,5.36781 5.5587,9.73214 -0.6983,2.78226 -3.4282,5.46716 -5.5587,5.46716 -0.9289,0 -2.4392,-0.7503 -3.3562,-1.66733 z"
       id="path71"
       transform="matrix(0.26458333,0,0,0.26458333,-55.60851,53.712768)" />
  </g>
</svg>
