<?xml version="1.0" encoding="UTF-8" standalone="no"?>
<!-- Created with Inkscape (http://www.inkscape.org/) -->

<svg
   width="346.49362mm"
   height="218.01062mm"
   viewBox="0 0 346.49363 218.01062"
   version="1.1"
   id="svg1"
   inkscape:version="1.3 (0e150ed6c4, 2023-07-21)"
   sodipodi:docname="entry-stairs.svg"
   xmlns:inkscape="http://www.inkscape.org/namespaces/inkscape"
   xmlns:sodipodi="http://sodipodi.sourceforge.net/DTD/sodipodi-0.dtd"
   xmlns="http://www.w3.org/2000/svg"
   xmlns:svg="http://www.w3.org/2000/svg">
  <sodipodi:namedview
     id="namedview1"
     pagecolor="#ffffff"
     bordercolor="#000000"
     borderopacity="0.25"
     inkscape:showpageshadow="2"
     inkscape:pageopacity="0.0"
     inkscape:pagecheckerboard="0"
     inkscape:deskcolor="#d1d1d1"
     inkscape:document-units="mm"
     inkscape:zoom="0.4187009"
     inkscape:cx="606.6383"
     inkscape:cy="357.05679"
     inkscape:window-width="1920"
     inkscape:window-height="1027"
     inkscape:window-x="1912"
     inkscape:window-y="-8"
     inkscape:window-maximized="1"
     inkscape:current-layer="layer1">
    <inkscape:page
       x="0"
       y="0"
       width="346.49365"
       height="218.01062"
       id="page1"
       margin="0"
       bleed="0" />
  </sodipodi:namedview>
  <defs
     id="defs1" />
  <g
     inkscape:label="Layer 1"
     inkscape:groupmode="layer"
     id="layer1"
     transform="translate(55.60851,-53.712768)">
    <g
       id="g2125"
       transform="matrix(0.2812739,0,0,0.34917765,142.75834,92.349604)">&#10;	<path
   style="fill:#ffffff"
   d="m 342.78,182.237 c 0,5.207 3.471,8.678 8.678,8.678 5.207,0 8.678,-3.471 8.678,-8.678 0,-5.207 -3.471,-8.678 -8.678,-8.678 -5.207,0 -8.678,3.472 -8.678,8.678 z"
   id="path2085" />
&#10;	<path
   style="fill:#ffffff"
   d="m 290.712,182.237 c 0,5.207 3.471,8.678 8.678,8.678 5.207,0 8.678,-3.471 8.678,-8.678 0,-5.207 -3.471,-8.678 -8.678,-8.678 -5.207,0 -8.678,3.472 -8.678,8.678 z"
   id="path2087" />
&#10;	<path
   style="fill:#ffffff"
   d="m 342.78,130.169 c 0,5.207 3.471,8.678 8.678,8.678 5.207,0 8.678,-3.471 8.678,-8.678 0,-5.207 -3.471,-8.678 -8.678,-8.678 -5.207,0.001 -8.678,3.472 -8.678,8.678 z"
   id="path2089" />
&#10;	<path
   style="fill:#ffffff"
   d="m 290.712,130.169 c 0,5.207 3.471,8.678 8.678,8.678 5.207,0 8.678,-3.471 8.678,-8.678 0,-5.207 -3.471,-8.678 -8.678,-8.678 -5.207,0 -8.678,3.472 -8.678,8.678 z"
   id="path2091" />
&#10;	<path
   style="fill:#ffffff"
   d="m 316.746,156.203 c 0,5.207 3.471,8.678 8.678,8.678 5.207,0 8.678,-3.471 8.678,-8.678 0,-5.207 -3.471,-8.678 -8.678,-8.678 -5.207,0 -8.678,3.472 -8.678,8.678 z"
   id="path2093" />
&#10;	<path
   style="fill:#ffffff"
   d="m 264.678,156.203 c 0,5.207 3.471,8.678 8.678,8.678 5.207,0 8.678,-3.471 8.678,-8.678 0,-5.207 -3.471,-8.678 -8.678,-8.678 -5.207,0 -8.678,3.472 -8.678,8.678 z"
   id="path2095" />
&#10;	<path
   style="fill:#ffffff"
   d="m 316.746,104.136 c 0,5.207 3.471,8.678 8.678,8.678 5.207,0 8.678,-3.471 8.678,-8.678 0,-5.207 -3.471,-8.678 -8.678,-8.678 -5.207,0 -8.678,3.471 -8.678,8.678 z"
   id="path2097" />
&#10;	<path
   style="fill:#ffffff"
   d="m 264.678,104.136 c 0,5.207 3.471,8.678 8.678,8.678 5.207,0 8.678,-3.471 8.678,-8.678 0,-5.207 -3.471,-8.678 -8.678,-8.678 -5.207,0 -8.678,3.471 -8.678,8.678 z"
   id="path2099" />
&#10;	<path
   style="fill:#ffffff"
   d="m 238.644,182.237 c 0,5.207 3.471,8.678 8.678,8.678 5.207,0 8.678,-3.471 8.678,-8.678 0,-5.207 -3.471,-8.678 -8.678,-8.678 -5.207,0 -8.678,3.472 -8.678,8.678 z"
   id="path2101" />
&#10;	<path
   style="fill:#ffffff"
   d="m 186.576,182.237 c 0,5.207 3.471,8.678 8.678,8.678 5.207,0 8.678,-3.471 8.678,-8.678 0,-5.207 -3.471,-8.678 -8.678,-8.678 -5.207,0 -8.678,3.472 -8.678,8.678 z"
   id="path2103" />
&#10;	<path
   style="fill:#ffffff"
   d="m 238.644,130.169 c 0,5.207 3.471,8.678 8.678,8.678 5.207,0 8.678,-3.471 8.678,-8.678 0,-5.207 -3.471,-8.678 -8.678,-8.678 -5.207,0 -8.678,3.472 -8.678,8.678 z"
   id="path2105" />
&#10;	<path
   style="fill:#ffffff"
   d="m 186.576,130.169 c 0,5.207 3.471,8.678 8.678,8.678 5.207,0 8.678,-3.471 8.678,-8.678 0,-5.207 -3.471,-8.678 -8.678,-8.678 -5.207,0.001 -8.678,3.472 -8.678,8.678 z"
   id="path2107" />
&#10;	<path
   style="fill:#ffffff"
   d="m 212.61,156.203 c 0,5.207 3.471,8.678 8.678,8.678 5.207,0 8.678,-3.471 8.678,-8.678 0,-5.207 -3.471,-8.678 -8.678,-8.678 -5.207,0 -8.678,3.472 -8.678,8.678 z"
   id="path2109" />
&#10;	<path
   style="fill:#ffffff"
   d="m 160.542,156.203 c 0,5.207 3.471,8.678 8.678,8.678 5.207,0 8.678,-3.471 8.678,-8.678 0,-5.207 -3.471,-8.678 -8.678,-8.678 -5.207,0 -8.678,3.472 -8.678,8.678 z"
   id="path2111" />
&#10;	<path
   style="fill:#ffffff"
   d="m 212.61,104.136 c 0,5.207 3.471,8.678 8.678,8.678 5.207,0 8.678,-3.471 8.678,-8.678 0,-5.207 -3.471,-8.678 -8.678,-8.678 -5.207,0 -8.678,3.471 -8.678,8.678 z"
   id="path2113" />
&#10;	<path
   style="fill:#ffffff"
   d="m 160.542,104.136 c 0,5.207 3.471,8.678 8.678,8.678 5.207,0 8.678,-3.471 8.678,-8.678 0,-5.207 -3.471,-8.678 -8.678,-8.678 -5.207,0 -8.678,3.471 -8.678,8.678 z"
   id="path2115" />
&#10;	<path
   style="fill:#ffffff"
   d="m 342.78,78.102 c 0,5.207 3.471,8.678 8.678,8.678 5.207,0 8.678,-3.471 8.678,-8.678 0,-5.207 -3.471,-8.678 -8.678,-8.678 -5.207,0 -8.678,3.471 -8.678,8.678 z"
   id="path2117" />
&#10;	<path
   style="fill:#ffffff"
   d="m 290.712,78.102 c 0,5.207 3.471,8.678 8.678,8.678 5.207,0 8.678,-3.471 8.678,-8.678 0,-5.207 -3.471,-8.678 -8.678,-8.678 -5.207,0 -8.678,3.471 -8.678,8.678 z"
   id="path2119" />
&#10;	<path
   style="fill:#ffffff"
   d="m 238.644,78.102 c 0,5.207 3.471,8.678 8.678,8.678 5.207,0 8.678,-3.472 8.678,-8.678 0,-5.207 -3.471,-8.678 -8.678,-8.678 -5.207,0 -8.678,3.471 -8.678,8.678 z"
   id="path2121" />
&#10;	<path
   style="fill:#ffffff"
   d="m 186.576,78.102 c 0,5.207 3.471,8.678 8.678,8.678 5.207,0 8.678,-3.471 8.678,-8.678 0,-5.207 -3.471,-8.678 -8.678,-8.678 -5.207,0 -8.678,3.471 -8.678,8.678 z"
   id="path2123" />
&#10;</g>
    <path
       style="fill:#7fabda;stroke-width:0.303616"
       d="m 186.49387,155.21353 h 57.56106 v -40.52229 h -57.56106 z"
       id="path2135"
       sodipodi:nodetypes="ccccc" />
    <path
       style="fill:#dbd6d2;stroke-width:0.313387"
       d="M 280.66835,271.12856 H 148.86057 c -1.46458,0 -2.44089,-1.21201 -2.44089,-3.03016 0,-1.81816 0.97631,-3.03018 2.44089,-3.03018 h 131.80778 c 1.46463,0 2.4409,1.21202 2.4409,3.03018 0,1.81815 -0.97627,3.03016 -2.4409,3.03016"
       id="path2179" />
    <path
       style="fill:#b3b3b3;stroke-width:0.189436"
       d="m 186.89681,187.50013 v -6.01562 h 4.84578 4.84572 v 6.01562 6.01558 h -1.02025 -1.02003 l -3.1e-4,-3.11335 c -2.9e-4,-3.43685 -0.15626,-4.16192 -1.07539,-4.99796 -0.62091,-0.56479 -2.2276,-0.59759 -2.88978,-0.059 -0.87769,0.7138 -1.04034,1.44266 -1.10579,4.95138 l -0.06,3.21888 h -1.25989 -1.26011 z"
       id="path2453"
       sodipodi:nodetypes="cccccccccssscccc" />
    <path
       style="fill:#999999;stroke-width:0.313387"
       d="m 194.4097,188.40349 0.0522,9.09022 c 0.0115,1.81818 -0.95883,3.03875 -2.42342,3.05172 -1.46453,0.0129 -2.44783,-1.19038 -2.45827,-3.00853 l -0.0521,-9.09019 c -0.011,-1.81817 0.95893,-3.03874 2.42342,-3.05176 1.46461,-0.0128 2.44784,1.19067 2.45823,3.00854"
       id="path2133"
       sodipodi:nodetypes="csssssc" />
    <path
       style="fill:#b3b3b3;stroke-width:0.189436"
       d="M 166.13695,178.67854 V 92.455141 h 48.62752 48.62751 v 86.223399 86.22337 h -4.76078 -4.76069 v -80.3133 -80.31337 h -39.10604 -39.10605 v 80.31337 80.3133 h -4.76074 -4.76073 z"
       id="path2593" />
    <path
       style="fill:#ececec;stroke-width:0.189436"
       d="M 166.13695,178.67854 V 92.455141 h 48.62752 48.62751 v 86.223399 86.22337 h -4.76078 -4.76069 v -80.3133 -80.31337 h -39.10604 -39.10605 v 80.31337 80.3133 h -4.76074 -4.76073 z"
       id="path2595" />
    <rect
       style="fill:#e6e6e6;stroke:none;stroke-width:0.264583"
       id="rect4890"
       width="57.727276"
       height="1.7493114"
       x="186.5204"
       y="132.83366" />
    <rect
       style="fill:#e6e6e6;stroke:none;stroke-width:0.264583"
       id="rect5015"
       width="1.4994097"
       height="40.733963"
       x="205.51292"
       y="114.34094" />
    <rect
       style="fill:#e6e6e6;stroke:none;stroke-width:0.269529"
       id="rect5017"
       width="1.7493114"
       height="41.233765"
       x="224.25554"
       y="113.84114" />
    <path
       style="fill:#ececec;stroke-width:0.249901"
       d="m 176.02453,184.43835 v -80.21842 h 38.98465 38.98465 v 80.21842 80.21842 h -38.98465 -38.98465 z m 17.20697,15.88749 c 1.15699,-0.5983 1.28154,-1.24628 1.33883,-6.96526 0.0292,-2.91426 0.0892,-4.08976 0.1334,-2.61221 l 0.0803,2.68644 h 1.1161 1.11611 v -6.12259 -6.12259 h -4.99804 -4.99803 v 6.12259 6.12259 h 1.24951 1.24951 l 0.009,2.68644 c 0.01,2.88465 0.23707,3.64048 1.26816,4.21196 0.78304,0.43401 1.58644,0.43158 2.43526,-0.007 z m 51.20506,-65.68039 0.0639,-20.42945 h -9.12287 c -7.94261,0 -9.12287,-0.0485 -9.12287,-0.37486 0,-0.2618 -0.26378,-0.37485 -0.87465,-0.37485 -0.60413,0 -0.87466,0.11397 -0.87466,0.36846 0,0.32139 -2.39613,0.36863 -18.75833,0.36981 -10.31708,7.5e-4 -18.86372,0.0665 -18.99252,0.1461 -0.26785,0.16553 -0.33368,40.41651 -0.0665,40.68365 0.0922,0.0922 13.10895,0.13906 28.9261,0.10412 l 28.75847,-0.0635 z"
       id="path1" />
    <path
       style="fill:#ececec;stroke-width:0.249902"
       d="m 175.77463,184.68825 v -80.21842 h 38.98465 38.98465 v 80.21842 80.21842 h -38.98465 -38.98465 z m 17.64849,15.65606 c 0.63851,-0.54922 0.69544,-0.76519 0.87279,-3.31119 0.10435,-1.49801 0.19684,-2.86423 0.20553,-3.03603 0.0102,-0.20148 0.41664,-0.31238 1.14481,-0.31238 h 1.129 l -0.0669,-6.06012 -0.0669,-6.06011 -4.93556,-0.0678 -4.93556,-0.0678 v 6.12788 6.12787 h 1.22858 1.22858 l 0.0834,3.02103 c 0.0816,2.95518 0.0987,3.03416 0.78457,3.62357 0.943,0.81037 2.39541,0.81692 3.32769,0.015 z m 50.82455,-65.35243 v -20.45787 l -9.04541,-0.11844 c -6.5585,-0.0859 -9.07203,-0.19829 -9.14224,-0.4089 -0.12322,-0.36969 -1.615,-0.38 -1.9813,-0.0137 -0.19458,0.19458 -5.83133,0.32446 -18.98003,0.43732 l -18.70324,0.16055 -0.0639,20.42946 -0.0639,20.42945 h 28.99004 28.99005 z"
       id="path2" />
    <path
       style="fill:#f9f9f9;stroke-width:0.249902"
       d="m 175.77463,184.68825 v -80.21842 h 38.98465 38.98465 v 80.21842 80.21842 h -38.98465 -38.98465 z m 17.24398,15.86835 c 0.85378,-0.4415 1.24391,-1.57223 1.25009,-3.62317 0.002,-0.75595 0.0738,-1.79617 0.15905,-2.31159 0.1518,-0.91843 0.17697,-0.93713 1.26101,-0.93713 h 1.10612 l -0.0566,-5.81021 c -0.0311,-3.19562 -0.10578,-5.95079 -0.16595,-6.12259 -0.0824,-0.2354 -1.30361,-0.31238 -4.95574,-0.31238 h -4.84634 v 6.12259 6.12259 h 1.2495 1.24951 v 2.31324 c 0,1.27228 0.11255,2.70568 0.25012,3.18533 0.45663,1.59219 1.94576,2.17663 3.49918,1.37332 z m 51.22906,-65.56472 v -20.45787 l -8.93399,-0.11735 c -7.048,-0.0926 -9.05155,-0.19089 -9.49094,-0.4657 -0.46422,-0.29035 -0.69309,-0.29422 -1.37446,-0.0232 -0.63317,0.25181 -4.99694,0.35738 -19.3531,0.46818 l -18.5356,0.14307 -0.13816,0.52574 c -0.076,0.28915 -0.14229,9.49408 -0.14736,20.45539 l -0.009,19.92965 h 28.99141 28.99141 z"
       id="path3" />
    <path
       style="fill:#b3b3b3;stroke-width:0.450355"
       d="m -46.983732,224.02193 v -38.95567 h 6.530142 6.530142 v 38.95567 38.95567 h -6.530142 -6.530142 z"
       id="path13" />
    <g
       id="g13"
       transform="matrix(0.8970713,0,0,0.8970713,-53.288696,113.2347)">&#10;	<g
   id="g12">&#10;		<rect
   x="6.8579998"
   y="80.054001"
   width="15.092"
   height="87.021004"
   id="rect1" />
&#10;		<polygon
   points="0,173.946 28.808,173.946 21.95,168.939 6.858,168.939 "
   id="polygon1" />
&#10;		&#10;		<rect
   x="214.006"
   y="80.054001"
   width="15.082"
   height="87.021004"
   id="rect2" />
&#10;		<polygon
   points="214.006,168.939 207.146,173.946 235.953,173.946 229.098,168.939 "
   id="polygon2" />
&#10;		&#10;		&#10;		&#10;		&#10;		&#10;		&#10;		&#10;		&#10;		&#10;		&#10;		&#10;	</g>
&#10;</g>
    <path
       style="fill:#f2f2f2;stroke-width:0.450355"
       d="m 139.01272,224.02193 v -38.95567 h 6.53014 6.53014 v 38.95567 38.95567 h -6.53014 -6.53014 z"
       id="path14" />
    <path
       style="fill:#f2f2f2;stroke-width:0.450355"
       d="m -46.983732,224.24711 v -39.18085 h 6.530142 6.530142 v 39.18085 39.18085 h -6.530142 -6.530142 z"
       id="path15" />
    <path
       style="fill:#f2f2f2;stroke-width:0.450355"
       d="m -52.387987,269.09692 c 0,-0.1021 1.302938,-1.1154 2.895417,-2.25177 l 2.895418,-2.06613 h 6.236643 6.236642 l 3.127724,2.25178 3.127724,2.25177 h -12.259784 c -6.742882,0 -12.259784,-0.0835 -12.259784,-0.18565 z"
       id="path16" />
    <path
       style="fill:#f2f2f2;stroke-width:0.450355"
       d="m 136.08541,267.0308 3.12773,-2.25178 h 6.23664 6.23664 l 2.89542,2.06613 c 1.59248,1.13637 2.89541,2.14967 2.89541,2.25177 0,0.10211 -5.5169,0.18565 -12.25978,0.18565 h -12.25978 z"
       id="path17" />
    <rect
       style="fill:#aa8800;stroke-width:0.230046"
       id="rect17"
       width="172.48581"
       height="7.8304968"
       x="-33.923447"
       y="189.34462" />
    <rect
       style="fill:#666666;stroke-width:0.264583"
       id="rect18"
       width="172.03546"
       height="1.3510637"
       x="-34.555363"
       y="205.91342" />
    <rect
       style="fill:#666666;stroke-width:0.264583"
       id="rect18-0"
       width="172.03546"
       height="1.3510637"
       x="-33.444946"
       y="216.92322" />
    <rect
       style="fill:#666666;stroke-width:0.264583"
       id="rect18-7"
       width="172.03546"
       height="1.3510637"
       x="-32.994591"
       y="227.28137" />
    <rect
       style="fill:#666666;stroke-width:0.264583"
       id="rect18-1"
       width="172.03546"
       height="1.3510637"
       x="-33.444946"
       y="237.18918" />
    <rect
       style="fill:#666666;stroke-width:0.264583"
       id="rect18-8"
       width="172.03546"
       height="1.3510637"
       x="-33.444946"
       y="247.99768" />
    <rect
       style="fill:#666666;stroke-width:0.264583"
       id="rect18-13"
       width="172.03546"
       height="1.3510637"
       x="-32.994591"
       y="258.35583" />
    <ellipse
       style="fill:#aeb5ca;stroke-width:0.0208804"
       cx="94.25103"
       cy="83.805206"
       id="circle2"
       rx="6.614583"
       ry="3.3072915" />
    <path
       style="fill:#d7deed;stroke-width:0.0208804"
       d="m 98.554697,81.959641 c 0.85148,0.49593 1.36597,1.1407 1.36597,1.84557 0,1.56563 -2.53838,2.83482 -5.66965,2.83482 -3.13126,0 -5.66964,-1.26919 -5.66964,-2.83482 0,-1.56564 2.53838,-2.83482 5.66964,-2.83482 1.40974,0 2.69929,0.25726 3.69115,0.68298"
       id="path4" />
    <path
       style="fill:#e6e6e6;stroke-width:0.0126219"
       d="m 93.715517,87.097411 c -1.55039,-0.0627 -3.02154,-0.40384 -4.13279,-0.9583 -1.833003,-0.91457 -2.422583,-2.27499 -1.515037,-3.49583 0.101983,-0.13719 0.342566,-0.38666 0.504946,-0.52359 0.493587,-0.41622 1.195181,-0.78747 1.992331,-1.05424 1.09978,-0.36804 2.37332,-0.56233 3.68605,-0.56233 1.32303,0 2.60569,0.19751 3.71283,0.57173 1.27047,0.42942 2.222513,1.08904 2.639723,1.82893 0.33472,0.59358 0.33474,1.20977 6e-5,1.80286 -0.1997,0.35388 -0.54798,0.71604 -0.975723,1.01457 -0.87736,0.61234 -2.14193,1.05827 -3.57402,1.2603 -0.75597,0.10665 -1.56988,0.14699 -2.33836,0.1159 z m 1.26298,-0.47607 c 0.65875,-0.0456 1.18277,-0.12576 1.78046,-0.2722 0.53649,-0.13144 0.98397,-0.28752 1.40523,-0.49015 0.5208,-0.25049 0.86191,-0.48289 1.17396,-0.79981 0.29522,-0.29983 0.4522,-0.55742 0.54821,-0.89957 0.0432,-0.15407 0.0427,-0.55512 -8.8e-4,-0.7114 -0.14219,-0.50956 -0.50641,-0.95542 -1.10838,-1.35683 -0.18604,-0.12405 -0.85033,-0.45619 -1.09843,-0.54921 -0.80302,-0.30106 -1.69602,-0.48349 -2.71365,-0.55438 -0.31419,-0.0219 -1.11381,-0.0219 -1.42801,0 -1.06041,0.0739 -2.02152,0.27735 -2.82957,0.59908 -0.23228,0.0925 -0.71459,0.33351 -0.89375,0.44664 -0.646668,0.40834 -1.049807,0.8846 -1.197498,1.4147 -0.04349,0.15609 -0.04378,0.5572 -5.03e-4,0.7114 0.187314,0.66752 0.750371,1.22797 1.692801,1.68497 0.93224,0.45206 2.13515,0.72855 3.43381,0.78925 0.25249,0.0118 0.99374,0.004 1.2362,-0.0125 z"
       id="path477" />
    <path
       style="fill:#edddbf;fill-opacity:1;stroke-width:0.0126219"
       d="m 93.831547,86.628561 c -1.03672,-0.042 -2.0242,-0.22004 -2.85602,-0.51495 -0.49336,-0.17491 -0.97735,-0.41704 -1.3406,-0.67065 -0.439585,-0.30692 -0.779815,-0.69699 -0.926266,-1.06196 -0.09109,-0.22701 -0.10599,-0.30683 -0.106613,-0.57133 -6.35e-4,-0.26798 0.01836,-0.37026 0.109208,-0.588 0.286151,-0.68586 1.104951,-1.31209 2.246421,-1.71807 0.76953,-0.2737 1.60646,-0.43871 2.57041,-0.50678 0.32342,-0.0229 1.1355,-0.0229 1.44586,-5e-5 1.11179,0.0817 2.00043,0.27323 2.8443,0.61292 0.21731,0.0875 0.72538,0.34493 0.88935,0.45067 0.75819,0.48893 1.16297,1.05062 1.1963,1.66006 0.0265,0.48448 -0.1622,0.91728 -0.58562,1.34322 -0.28705,0.28876 -0.60288,0.5078 -1.06863,0.74114 -0.94658,0.47424 -2.16277,0.75876 -3.50775,0.82063 -0.17912,0.008 -0.73708,0.0102 -0.91035,0.003 z"
       id="path686" />
    <path
       style="fill:#b3b3b3;fill-opacity:1;stroke-width:0.0126219"
       d="m 93.867247,87.097791 c -2.03927,-0.0535 -3.98879,-0.61704 -5.122538,-1.4808 -0.604973,-0.4609 -0.964558,-0.97706 -1.064143,-1.52752 -0.02762,-0.15266 -0.0119,-0.55885 0.02705,-0.69928 0.143099,-0.5158 0.486831,-0.97891 1.036712,-1.39677 1.090539,-0.8287 2.831299,-1.35713 4.836949,-1.46831 0.51335,-0.0285 1.24384,-0.0157 1.79376,0.0314 1.87565,0.16052 3.52088,0.72376 4.52213,1.54815 0.398093,0.32777 0.685393,0.70271 0.831183,1.08473 0.0879,0.23026 0.0996,0.30308 0.0996,0.61583 0,0.31277 -0.0118,0.3857 -0.0997,0.61583 -0.29438,0.77092 -1.131913,1.46615 -2.355973,1.95567 -0.96028,0.38404 -2.06975,0.61965 -3.2913,0.69894 -0.18691,0.0121 -0.84484,0.0339 -0.91929,0.0304 -0.0147,-6.8e-4 -0.14726,-0.004 -0.29452,-0.008 z m 0.87465,-0.4633 c 0.81758,-0.0282 1.68016,-0.16921 2.46332,-0.40267 0.76187,-0.22712 1.48758,-0.59389 1.93219,-0.97653 0.35348,-0.30421 0.58325,-0.61276 0.70767,-0.95028 0.11164,-0.30285 0.11181,-0.69655 4.2e-4,-0.99863 -0.15166,-0.41133 -0.44802,-0.77241 -0.9127,-1.11202 -0.17833,-0.13034 -0.24501,-0.16934 -0.5934,-0.34713 -0.39627,-0.20221 -0.60365,-0.29329 -0.88249,-0.38756 -0.75777,-0.2562 -1.57163,-0.41171 -2.49189,-0.47613 -0.23048,-0.0161 -1.19722,-0.0161 -1.42801,-2e-5 -1.04326,0.0729 -2.03277,0.28208 -2.82882,0.59802 -0.16107,0.0639 -0.65336,0.30523 -0.81873,0.40132 -0.23785,0.1382 -0.53291,0.36299 -0.716885,0.54614 -0.266212,0.26503 -0.479666,0.61219 -0.565192,0.91921 -0.0374,0.13425 -0.03167,0.61041 0.0089,0.74077 0.201173,0.64621 0.728457,1.17595 1.611057,1.61858 0.64349,0.32271 1.37485,0.55075 2.22223,0.6929 0.38523,0.0646 0.75968,0.10483 1.27485,0.13691 0.1152,0.007 0.78068,0.005 1.01745,-0.003 z"
       id="path5596" />
    <ellipse
       style="fill:#aeb5ca;stroke-width:0.0208804"
       cx="3.8872006"
       cy="83.173294"
       id="circle2-0"
       rx="6.614583"
       ry="3.3072915" />
    <path
       style="fill:#d7deed;stroke-width:0.0208804"
       d="m 8.190867,81.327726 c 0.85148,0.49593 1.36597,1.1407 1.36597,1.84557 0,1.56563 -2.53838,2.83482 -5.66965,2.83482 -3.13125998,0 -5.66964,-1.26919 -5.66964,-2.83482 0,-1.56564 2.53838002,-2.83482 5.66964,-2.83482 1.40974,0 2.69929,0.25726 3.69115,0.68298"
       id="path4-6" />
    <path
       style="fill:#e6e6e6;stroke-width:0.0126219"
       d="m 3.351687,86.465496 c -1.55039,-0.0627 -3.02153998,-0.40384 -4.13278998,-0.9583 -1.83300302,-0.91457 -2.42258302,-2.27499 -1.51503702,-3.49583 0.101983,-0.13719 0.342566,-0.38666 0.504946,-0.52359 0.493587,-0.41622 1.19518102,-0.78747 1.99233102,-1.05424 1.09977998,-0.36804 2.37331998,-0.56233 3.68604998,-0.56233 1.32303,0 2.60569,0.19751 3.71283,0.57173 1.27047,0.42942 2.22251,1.08904 2.63972,1.82893 0.33472,0.59358 0.33474,1.20977 6e-5,1.80286 -0.1997,0.35388 -0.54798,0.71604 -0.97572,1.01457 -0.87736,0.61234 -2.14193,1.05827 -3.57402,1.2603 -0.75597,0.10665 -1.56988,0.14699 -2.33836,0.1159 z m 1.26298,-0.47607 c 0.65875,-0.0456 1.18277,-0.12576 1.78046,-0.2722 0.53649,-0.13144 0.98397,-0.28752 1.40523,-0.49015 0.5208,-0.25049 0.86191,-0.48289 1.17396,-0.79981 0.29522,-0.29983 0.4522,-0.55742 0.54821,-0.89957 0.0432,-0.15407 0.0427,-0.55512 -8.8e-4,-0.7114 -0.14219,-0.50956 -0.50641,-0.95542 -1.10838,-1.35683 -0.18604,-0.12405 -0.85033,-0.45619 -1.09843,-0.54921 -0.80302,-0.30106 -1.69602,-0.48349 -2.71365,-0.55438 -0.31419,-0.0219 -1.11381,-0.0219 -1.42801,0 -1.06041,0.0739 -2.02152,0.27735 -2.82956998,0.59908 -0.23228,0.0925 -0.71459,0.33351 -0.89375,0.44664 -0.64666802,0.40834 -1.04980702,0.8846 -1.19749802,1.4147 -0.04349,0.15609 -0.04378,0.5572 -5.03e-4,0.7114 0.187314,0.66752 0.75037102,1.22797 1.69280102,1.68497 0.93224,0.45206 2.13514998,0.72855 3.43380998,0.78925 0.25249,0.0118 0.99374,0.004 1.2362,-0.0125 z"
       id="path477-1" />
    <path
       style="fill:#edddbf;fill-opacity:1;stroke-width:0.0126219"
       d="m 3.467717,85.996646 c -1.03672,-0.042 -2.0242,-0.22004 -2.85601998,-0.51495 -0.49336,-0.17491 -0.97735,-0.41704 -1.3406,-0.67065 -0.43958502,-0.30692 -0.77981502,-0.69699 -0.92626602,-1.06196 -0.09109,-0.22701 -0.10599,-0.30683 -0.106613,-0.57133 -6.35e-4,-0.26798 0.01836,-0.37026 0.109208,-0.588 0.286151,-0.68586 1.10495102,-1.31209 2.24642102,-1.71807 0.76952998,-0.2737 1.60645998,-0.43871 2.57040998,-0.50678 0.32342,-0.0229 1.1355,-0.0229 1.44586,-5e-5 1.11179,0.0817 2.00043,0.27323 2.8443,0.61292 0.21731,0.0875 0.72538,0.34493 0.88935,0.45067 0.75819,0.48893 1.16297,1.05062 1.1963,1.66006 0.0265,0.48448 -0.1622,0.91728 -0.58562,1.34322 -0.28705,0.28876 -0.60288,0.5078 -1.06863,0.74114 -0.94658,0.47424 -2.16277,0.75876 -3.50775,0.82063 -0.17912,0.008 -0.73708,0.0102 -0.91035,0.003 z"
       id="path686-1" />
    <path
       style="fill:#b3b3b3;fill-opacity:1;stroke-width:0.0126219"
       d="m 3.503417,86.465876 c -2.03927,-0.0535 -3.98878998,-0.61704 -5.122538,-1.4808 -0.604973,-0.4609 -0.964558,-0.97706 -1.064143,-1.52752 -0.02762,-0.15266 -0.0119,-0.55885 0.02705,-0.69928 0.143099,-0.5158 0.486831,-0.97891 1.036712,-1.39677 1.09053902,-0.8287 2.831299,-1.35713 4.836949,-1.46831 0.51335,-0.0285 1.24384,-0.0157 1.79376,0.0314 1.87565,0.16052 3.52088,0.72376 4.52213,1.54815 0.39809,0.32777 0.68539,0.70271 0.83118,1.08473 0.0879,0.23026 0.0996,0.30308 0.0996,0.61583 0,0.31277 -0.0118,0.3857 -0.0997,0.61583 -0.29438,0.77092 -1.13191,1.46615 -2.35597,1.95567 -0.96028,0.38404 -2.06975,0.61965 -3.2913,0.69894 -0.18691,0.0121 -0.84484,0.0339 -0.91929,0.0304 -0.0147,-6.8e-4 -0.14726,-0.004 -0.29452,-0.008 z m 0.87465,-0.4633 c 0.81758,-0.0282 1.68016,-0.16921 2.46332,-0.40267 0.76187,-0.22712 1.48758,-0.59389 1.93219,-0.97653 0.35348,-0.30421 0.58325,-0.61276 0.70767,-0.95028 0.11164,-0.30285 0.11181,-0.69655 4.2e-4,-0.99863 -0.15166,-0.41133 -0.44802,-0.77241 -0.9127,-1.11202 -0.17833,-0.13034 -0.24501,-0.16934 -0.5934,-0.34713 -0.39627,-0.20221 -0.60365,-0.29329 -0.88249,-0.38756 -0.75777,-0.2562 -1.57163,-0.41171 -2.49189,-0.47613 -0.23048,-0.0161 -1.19722,-0.0161 -1.42801,-2e-5 -1.04326,0.0729 -2.03277,0.28208 -2.82881998,0.59802 -0.16107,0.0639 -0.65336,0.30523 -0.81873,0.40132 -0.23785,0.1382 -0.53291002,0.36299 -0.71688502,0.54614 -0.266212,0.26503 -0.479666,0.61219 -0.565192,0.91921 -0.0374,0.13425 -0.03167,0.61041 0.0089,0.74077 0.201173,0.64621 0.728457,1.17595 1.61105702,1.61858 0.64349,0.32271 1.37484998,0.55075 2.22222998,0.6929 0.38523,0.0646 0.75968,0.10483 1.27485,0.13691 0.1152,0.007 0.78068,0.005 1.01745,-0.003 z"
       id="path5596-9" />
    <path
       style="fill:#bdbdbd;stroke-width:0.0787972"
       d="m 207.30644,54.715472 c 0,1.03975 0.71662,1.73292 1.63389,2.0795 h 9.91785 c 0.8886,-0.34658 1.63388,-1.03975 1.63388,-2.0795 z"
       id="path1-6" />
    <path
       style="fill:#140500;stroke-width:0.0731922"
       d="m 206.93208,54.129522 h 13.75099 c 0.17934,0 0.29893,0.11469 0.29893,0.28674 0,0.8889 -0.68755,1.63443 -1.91318,2.00719 -0.0299,0 -0.0598,0 -0.0897,0 h -10.34313 c -0.0299,0 -0.0598,0 -0.0897,0 -1.19575,-0.37276 -1.91318,-1.08962 -1.91318,-2.00719 0,-0.17205 0.14945,-0.28674 0.29894,-0.28674 z m 13.42216,0.57348 h -13.06345 c 0.17936,0.68818 0.98648,1.0036 1.40499,1.14697 h 10.25345 c 0.38863,-0.14337 1.19574,-0.45879 1.40501,-1.14697 z"
       id="path2-1" />
    <polyline
       style="fill:#e0e0e0"
       points="264,348 264,484 244,484 244,348 "
       id="polyline2"
       transform="matrix(-0.16832974,0,0,-0.14648785,256.89997,129.13127)" />
    <path
       style="fill:#140500;stroke-width:0.0990036"
       d="m 213.32538,55.730282 h 1.27091 c 0.15253,0 0.2542,0.2468 0.2542,0.61699 v 20.97734 c 0,0.37018 -0.10167,0.61698 -0.2542,0.61698 -0.15249,0 -0.25417,-0.2468 -0.25417,-0.61698 v -20.36036 h -0.76253 v 20.36036 c 0,0.37018 -0.1017,0.61698 -0.25421,0.61698 -0.1525,0 -0.25414,-0.2468 -0.25414,-0.61698 v -20.97734 c 0,-0.37019 0.10164,-0.61699 0.25414,-0.61699 z"
       id="path3-4" />
    <rect
       x="-223.23404"
       y="-97.746735"
       style="fill:#ffb540;stroke-width:0.0979144"
       width="18.179605"
       height="19.593216"
       id="rect3"
       transform="scale(-1)" />
    <g
       id="g14"
       transform="matrix(-0.13602845,0,0,-0.05853845,248.55132,98.173122)">&#10;	<path
   style="fill:#140500"
   d="M 308,352 H 200 c -2.4,0 -4,-1.6 -4,-4 V 4 c 0,-2.4 1.6,-4 4,-4 h 108 c 2.4,0 4,1.6 4,4 v 344 c 0,2.4 -1.6,4 -4,4 z M 204,344 H 304 V 8 H 204 Z"
   id="path4-1" />
&#10;	<path
   style="fill:#140500"
   d="m 256,296 h -56 c -2.4,0 -4,-1.6 -4,-4 0,-2.4 1.6,-4 4,-4 h 56 c 2.4,0 4,1.6 4,4 0,2.4 -1.6,4 -4,4 z"
   id="path5" />
&#10;	<path
   style="fill:#140500"
   d="m 292,296 h -16 c -2.4,0 -4,-1.6 -4,-4 0,-2.4 1.6,-4 4,-4 h 16 c 2.4,0 4,1.6 4,4 0,2.4 -1.6,4 -4,4 z"
   id="path6" />
&#10;	<path
   style="fill:#140500"
   d="m 256,240 h -56 c -2.4,0 -4,-1.6 -4,-4 0,-2.4 1.6,-4 4,-4 h 56 c 2.4,0 4,1.6 4,4 0,2.4 -1.6,4 -4,4 z"
   id="path7" />
&#10;	<path
   style="fill:#140500"
   d="m 292,240 h -16 c -2.4,0 -4,-1.6 -4,-4 0,-2.4 1.6,-4 4,-4 h 16 c 2.4,0 4,1.6 4,4 0,2.4 -1.6,4 -4,4 z"
   id="path8" />
&#10;	<path
   style="fill:#140500"
   d="m 256,184 h -56 c -2.4,0 -4,-1.6 -4,-4 0,-2.4 1.6,-4 4,-4 h 56 c 2.4,0 4,1.6 4,4 0,2.4 -1.6,4 -4,4 z"
   id="path9" />
&#10;	<path
   style="fill:#140500"
   d="m 292,184 h -16 c -2.4,0 -4,-1.6 -4,-4 0,-2.4 1.6,-4 4,-4 h 16 c 2.4,0 4,1.6 4,4 0,2.4 -1.6,4 -4,4 z"
   id="path10" />
&#10;	<path
   style="fill:#140500"
   d="m 256,128 h -56 c -2.4,0 -4,-1.6 -4,-4 0,-2.4 1.6,-4 4,-4 h 56 c 2.4,0 4,1.6 4,4 0,2.4 -1.6,4 -4,4 z"
   id="path11" />
&#10;	<path
   style="fill:#140500"
   d="m 292,128 h -16 c -2.4,0 -4,-1.6 -4,-4 0,-2.4 1.6,-4 4,-4 h 16 c 2.4,0 4,1.6 4,4 0,2.4 -1.6,4 -4,4 z"
   id="path12" />
&#10;	<path
   style="fill:#140500"
   d="m 256,68 h -56 c -2.4,0 -4,-1.6 -4,-4 0,-2.4 1.6,-4 4,-4 h 56 c 2.4,0 4,1.6 4,4 0,2.4 -1.6,4 -4,4 z"
   id="path13-6" />
&#10;	<path
   style="fill:#140500"
   d="m 292,68 h -16 c -2.4,0 -4,-1.6 -4,-4 0,-2.4 1.6,-4 4,-4 h 16 c 2.4,0 4,1.6 4,4 0,2.4 -1.6,4 -4,4 z"
   id="path14-7" />
&#10;</g>
  </g>
</svg>
