<?xml version="1.0" encoding="iso-8859-1"?>
<!-- Uploaded to: SVG Repo, www.svgrepo.com, Generator: SVG Repo Mixer Tools -->
<svg height="800px" width="800px" version="1.1" id="Layer_1" xmlns="http://www.w3.org/2000/svg" xmlns:xlink="http://www.w3.org/1999/xlink" 
	 viewBox="0 0 511.625 511.625" xml:space="preserve">
<polygon style="fill:#455A64;" points="501.2,357.813 468,357.813 436,357.813 96,357.813 13.2,357.813 111.6,270.613 
	111.6,270.213 148.8,237.813 364,237.813 "/>
<g>
	<path style="fill:#78909C;" d="M505.6,359.813l-0.8-0.8c-1.2-0.8-2.4-1.2-3.6-1.2H468h-32H96H13.2c-1.2,0-2,0-3.2,0.4l0,0
		c-3.2,1.2-6,4-6,7.6v19.6c0,4.4,4.8,8,9.2,8H96h405.2c4.4,0,6.8-3.6,6.8-8v-19.6C508,363.413,507.2,361.413,505.6,359.813z
		 M46.8,381.813c-3.2,0-6-2.8-6-6s2.8-6,6-6s6,2.8,6,6S50.4,381.813,46.8,381.813z M75.2,381.813c-3.2,0-6-2.8-6-6s2.8-6,6-6
		s6,2.8,6,6S78.4,381.813,75.2,381.813z"/>
	<polygon style="fill:#78909C;" points="364,117.813 364,237.813 148.8,237.813 148,237.813 148,117.813 	"/>
</g>
<circle style="fill:#17DD9F;" cx="75.2" cy="375.813" r="6"/>
<path style="fill:#F23B3B;" d="M40.8,375.813c0-3.2,2.8-6,6-6s6,2.8,6,6s-2.8,6-6,6S40.8,379.013,40.8,375.813z"/>
<path d="M364,241.813H148c-2.4,0-4-1.6-4-4v-120c0-2.4,1.6-4,4-4h216c2.4,0,4,1.6,4,4v120C368,240.213,366.4,241.813,364,241.813z
	 M152,233.813h208v-112H152V233.813z"/>
<path d="M10,362.213c-1.6,0-3.2-1.2-3.6-2.8c-0.8-2,0.4-4.4,2.4-5.2c1.6-0.4,2.8-0.8,4.4-0.8H436c2.4,0,4,1.6,4,4s-1.6,4-4,4H13.2
	c-0.4,0-1.2,0-2,0.4C11.2,362.213,10.8,362.213,10,362.213z"/>
<path d="M501.2,397.813h-488c-6.4,0-13.2-5.2-13.2-12v-19.6c0-4.8,3.6-9.2,8.8-11.2c2-0.8,4.4,0.4,5.2,2.4s-0.4,4.4-2.4,5.2
	c-2,0.8-3.6,2.4-3.6,3.6v19.6c0,2,2.8,4,5.2,4h488c2.4,0,2.8-3.2,2.8-4v-19.6c0-1.6-0.4-2.8-1.2-3.6c-1.6-1.6-1.6-4,0-5.6
	s4-1.6,5.6,0c2,2.4,3.2,5.6,3.2,8.8v19.6C512,392.613,507.6,397.813,501.2,397.813z"/>
<path d="M504.8,363.013c-0.8,0-1.6-0.4-2.4-0.8c-0.4-0.4-0.8-0.4-1.2-0.4H468c-2.4,0-4-1.6-4-4s1.6-4,4-4h33.2c2.4,0,4.4,0.8,6.4,2
	c1.6,1.2,2,4,0.8,5.6C507.6,362.613,506.4,363.013,504.8,363.013z"/>
<path d="M6.8,365.413c-1.2,0-2.4-0.4-3.2-1.2c-1.6-1.6-1.2-4,0.4-5.6l142-123.6c1.6-1.6,4-1.2,5.6,0.4s1.2,4-0.4,5.6l-142,123.6
	C8.8,365.013,7.6,365.413,6.8,365.413z"/>
<path d="M507.6,365.413c-0.8,0-2-0.4-2.8-0.8l-2.8-2.4l-139.6-121.2c-1.6-1.6-2-4-0.4-5.6s4-2,5.6-0.4l142.4,123.6
	c1.6,1.6,2,4,0.4,5.6C510,365.013,508.8,365.413,507.6,365.413z"/>
<path d="M46.8,385.813c-5.6,0-10-4.4-10-10s4.4-10,10-10s10,4.4,10,10S52.4,385.813,46.8,385.813z M46.8,373.813c-1.2,0-2,0.8-2,2
	s0.8,2,2,2s2-0.8,2-2S48,373.813,46.8,373.813z"/>
<path d="M75.2,385.813c-5.6,0-10-4.4-10-10s4.4-10,10-10s10,4.4,10,10S80.8,385.813,75.2,385.813z M75.2,373.813c-1.2,0-2,0.8-2,2
	s0.8,2,2,2s2-0.8,2-2S76.4,373.813,75.2,373.813z"/>
<path d="M120,373.813H96c-2.4,0-4-1.6-4-4s1.6-4,4-4h24c2.4,0,4,1.6,4,4S122.4,373.813,120,373.813z"/>
<path d="M120,385.813H96c-2.4,0-4-1.6-4-4s1.6-4,4-4h24c2.4,0,4,1.6,4,4S122.4,385.813,120,385.813z"/>
<path d="M344,165.813c-2.4,0-4-1.6-4-4v-20h-12c-2.4,0-4-1.6-4-4s1.6-4,4-4h16c2.4,0,4,1.6,4,4v24
	C348,164.213,346.4,165.813,344,165.813z"/>
<path d="M344,193.813c-2.4,0-4-1.6-4-4v-12c0-2.4,1.6-4,4-4s4,1.6,4,4v12C348,192.213,346.4,193.813,344,193.813z"/>
</svg>