<?xml version="1.0" encoding="UTF-8" standalone="no"?>
<!-- Uploaded to: SVG Repo, www.svgrepo.com, Generator: SVG Repo Mixer Tools -->

<svg
   height="800px"
   width="800px"
   version="1.1"
   id="Layer_1"
   viewBox="0 0 512.003 512.003"
   xml:space="preserve"
   sodipodi:docname="fan-blade.svg"
   inkscape:version="1.2 (dc2aedaf03, 2022-05-15)"
   xmlns:inkscape="http://www.inkscape.org/namespaces/inkscape"
   xmlns:sodipodi="http://sodipodi.sourceforge.net/DTD/sodipodi-0.dtd"
   xmlns="http://www.w3.org/2000/svg"
   xmlns:svg="http://www.w3.org/2000/svg"><defs
   id="defs666" /><sodipodi:namedview
   id="namedview664"
   pagecolor="#ffffff"
   bordercolor="#000000"
   borderopacity="0.25"
   inkscape:showpageshadow="2"
   inkscape:pageopacity="0.0"
   inkscape:pagecheckerboard="0"
   inkscape:deskcolor="#d1d1d1"
   showgrid="false"
   inkscape:zoom="1.05875"
   inkscape:cx="381.1098"
   inkscape:cy="401.41677"
   inkscape:window-width="1920"
   inkscape:window-height="1027"
   inkscape:window-x="-8"
   inkscape:window-y="-8"
   inkscape:window-maximized="1"
   inkscape:current-layer="Layer_1" />
<path
   style="fill:#C3C3C7;"
   d="M256.005,237.413c10.304,0,20.132,2.068,29.102,5.793c7.247,3.009,13.927,7.106,19.843,12.086  c16.812-23.268,27.186-58.936,27.186-100.336c0-73.538-32.73-128.991-76.131-128.991c-43.401,0-76.131,55.453-76.131,128.991  c0,41.4,10.374,77.068,27.186,100.336c5.916-4.981,12.596-9.077,19.843-12.086C235.873,239.481,245.701,237.413,256.005,237.413z"
   id="path651" />
<path
   style="fill:#A9A8AE;"
   d="M66.721,486.039c0.002,0,0,0,0.003,0c27.583,0,59.55-9.684,90.003-27.267  c35.832-20.689,61.528-47.49,73.28-73.671c-7.386-2.691-14.231-6.507-20.352-11.221c-15.603-12.013-26.423-29.924-29.111-50.369  c-0.427-3.264-0.673-6.588-0.673-9.967c0-4.57,0.427-9.038,1.202-13.388c-3.375-0.338-6.865-0.517-10.471-0.517  c-27.586,0-59.553,9.684-90.007,27.267c-27.524,15.891-50.532,36.53-64.785,58.118c-17.411,26.37-20.557,52.05-8.86,72.308  C17.639,475.842,38.865,486.038,66.721,486.039z"
   id="path653" />
<path
   style="fill:#C3C3C7;"
   d="M331.463,323.51c-2.686,20.445-13.509,38.356-29.109,50.369c-6.155,4.74-13.043,8.568-20.476,11.263  c2.322,5.12,5.182,10.299,8.621,15.509c14.252,21.587,37.259,42.227,64.783,58.118c30.454,17.583,62.419,27.268,90.006,27.268  c0.003,0-0.002,0,0.002,0c27.852,0,49.082-10.195,59.762-28.702c11.7-20.259,8.556-45.941-8.855-72.311  c-14.251-21.588-37.259-42.229-64.785-58.12c-30.454-17.583-62.418-27.267-90.004-27.267c-3.606,0-7.098,0.178-10.475,0.517  c0.776,4.349,1.202,8.82,1.202,13.388C332.136,316.924,331.889,320.245,331.463,323.51z"
   id="path655" />
<path
   style="fill:#313133;"
   d="M180.545,323.51c2.687,20.447,13.509,38.357,29.111,50.369c6.121,4.714,12.966,8.528,20.352,11.221  c8.115,2.956,16.871,4.574,25.996,4.574c9.08,0,17.793-1.604,25.874-4.534c7.433-2.694,14.321-6.522,20.476-11.263  c15.601-12.013,26.421-29.924,29.109-50.369c0.427-3.265,0.673-6.588,0.673-9.967c0-4.57-0.427-9.038-1.202-13.388  c-3.188-17.883-12.628-33.622-25.984-44.864c-5.916-4.981-12.596-9.077-19.843-12.086c-8.97-3.726-18.798-5.793-29.102-5.793  c-10.304,0-20.132,2.068-29.102,5.793c-7.247,3.009-13.927,7.106-19.843,12.086c-13.357,11.242-22.797,26.981-25.984,44.864  c-0.776,4.349-1.202,8.818-1.202,13.388C179.872,316.924,180.119,320.247,180.545,323.51z"
   id="path657" />
<path
   style="fill:#A9A8AE;"
   d="M179.872,154.955c0,41.4,10.374,77.068,27.186,100.336c5.916-4.979,12.596-9.077,19.843-12.086  c8.97-3.726,18.796-5.793,29.1-5.793V25.964C212.6,25.966,179.872,81.419,179.872,154.955z"
   id="path659" />
<path
   style="fill:#222224;"
   d="M226.903,243.205c-7.247,3.009-13.927,7.107-19.843,12.086  c-13.357,11.242-22.797,26.981-25.984,44.864c-0.776,4.349-1.202,8.818-1.202,13.388c0,3.38,0.245,6.702,0.673,9.967  c2.687,20.447,13.509,38.357,29.111,50.369c6.121,4.714,12.966,8.529,20.352,11.221c8.115,2.956,16.87,4.574,25.995,4.574V237.413  C245.699,237.413,235.873,239.481,226.903,243.205z"
   id="path661" />
<path
   style="fill:#80b3ff;stroke-width:0.94451"
   d="m 678.63046,758.30502 c -9.24246,-0.8859 -28.1881,-4.28792 -38.6068,-6.93252 -21.85789,-5.54824 -40.48029,-12.57022 -63.87254,-24.08453 -57.90338,-28.50165 -106.37416,-71.60362 -130.2189,-115.79535 -2.40558,-4.45829 -4.37378,-8.36277 -4.37378,-8.67664 0,-0.31386 3.94094,-2.4375 8.75765,-4.7192 36.12645,-17.11325 60.58248,-49.25702 67.35928,-88.53362 1.17924,-6.83459 1.4424,-12.77023 1.1043,-24.90799 l -0.44388,-15.93514 19.46257,0.47648 c 37.28585,0.91285 70.49034,9.57455 111.08003,28.97626 94.50395,45.17251 158.78377,125.36784 149.78987,186.87743 -5.36204,36.67125 -32.33541,62.69566 -73.75681,71.16198 -8.86917,1.81282 -36.27367,3.05206 -46.28099,2.09284 z"
   id="path854"
   transform="scale(0.64000375)" /><path
   style="fill:#8080ff;stroke-width:0.94451"
   d="m 475.07918,397.15132 c -1.09954,-1.7791 -14.60993,-10.42837 -22.22466,-14.22812 -14.05962,-7.01572 -34.18894,-12.20301 -47.3539,-12.20301 H 400 V 205.77291 40.825631 l 6.97237,0.631819 c 48.84638,4.426344 89.06602,55.016692 104.82963,131.86014 4.90135,23.8928 5.74265,33.8825 5.76694,68.47698 0.0182,25.90351 -0.31093,34.57901 -1.70202,44.86423 -5.75924,42.58153 -17.49311,77.59616 -35.21261,105.07674 -4.302,6.67182 -4.61246,6.97341 -5.57513,5.41578 z"
   id="path856"
   transform="scale(0.64000375)" /><path
   style="fill:#87aade;stroke-width:0.94451"
   d="m 663.04604,755.54007 c -23.81877,-4.11713 -43.39156,-9.74655 -63.94286,-18.39091 -67.26724,-28.2942 -122.15663,-73.01503 -151.09521,-123.10401 -3.02776,-5.24067 -5.50502,-9.97536 -5.50502,-10.52152 0,-0.54618 2.86895,-2.3954 6.37544,-4.10942 32.34875,-15.81236 54.38941,-40.35869 64.56529,-71.90536 4.66127,-14.45056 5.56458,-21.05705 5.56458,-40.69701 0,-16.3888 0.13638,-17.86121 1.6529,-17.84564 12.85254,0.13191 40.96616,2.23921 49.59188,3.71723 55.33782,9.48215 117.59068,41.11101 163.84962,83.24718 33.40361,30.42656 57.02541,67.61846 63.04519,99.26302 1.90208,9.99872 1.93567,25.88084 0.0737,34.81116 -7.64863,36.68303 -39.51483,62.63461 -82.1826,66.92887 -17.2681,1.73792 -36.92408,1.21108 -51.99286,-1.39359 z"
   id="path1146"
   transform="scale(0.64000375)" /><path
   style="fill:#87aade;stroke-width:0.94451"
   d="m 469.42149,392.31823 c -18.89506,-13.10856 -43.43895,-21.59804 -62.442,-21.59804 H 400 V 205.82814 40.936094 l 2.5974,0.488451 c 1.42857,0.268647 5.13242,0.769413 8.23078,1.112813 27.27092,3.022511 54.79122,24.742171 74.29359,58.634222 16.09611,27.9725 28.06547,68.39004 31.01687,104.73619 1.27463,15.69704 1.25501,59.30389 -0.033,73.19495 -2.88447,31.11007 -12.00239,65.45283 -24.02705,90.49817 -4.93433,10.27743 -14.01279,26.17245 -15.38461,26.93619 -0.36353,0.20239 -3.63616,-1.6961 -7.27252,-4.21885 z"
   id="path1148"
   transform="scale(0.64000375)" /><path
   style="fill:#5f8dd3;stroke-width:0.94451"
   d="M 88.311688,758.25747 C 44.54111,753.56997 14.420883,731.45388 3.6638397,696.1039 1.3133419,688.37965 1.0796414,686.26627 1.1049291,672.9634 c 0.030741,-16.17142 1.74623,-24.98194 7.8316074,-40.22204 15.4892145,-38.79092 51.7719065,-79.0876 99.2372735,-110.21599 37.40314,-24.52945 77.85531,-41.72229 115.99156,-49.29833 16.42905,-3.26374 26.52458,-4.26098 43.22777,-4.27006 l 14.26446,-0.008 -0.44058,15.82055 c -0.33483,12.02359 -0.0689,17.97403 1.10762,24.79338 6.65282,38.55809 30.41969,70.3979 65.31075,87.49499 12.41181,6.08196 12.04869,4.02508 3.42106,19.37901 -29.28139,52.10985 -96.6,103.43849 -167.8215,127.95939 -28.63789,9.85976 -55.41297,14.64551 -80.28336,14.34974 -6.233762,-0.0742 -12.82172,-0.2941 -14.639902,-0.48882 z"
   id="path1219"
   transform="scale(0.64000375)" /><path
   style="fill:#5f8dd3;stroke-width:0.94451"
   d="m 319.85058,392.63538 c -15.10554,-22.26768 -27.75937,-56.85274 -33.5915,-91.81126 -6.07872,-36.43656 -5.90478,-84.44655 0.43487,-120.03053 4.44727,-24.96219 11.89876,-48.51749 21.6367,-68.3969 14.06209,-28.706923 30.42868,-47.929717 51.07411,-59.987299 11.29348,-6.595749 26.69941,-11.323204 36.90029,-11.323204 H 400 v 164.817003 164.817 h -5.54334 c -19.28738,0 -45.82517,9.18588 -63.63716,22.02759 l -7.31509,5.27387 z"
   id="path1221"
   transform="scale(0.64000375)" /></svg>
