<?xml version="1.0" encoding="iso-8859-1"?>
<!-- Uploaded to: SVG Repo, www.svgrepo.com, Generator: SVG Repo Mixer Tools -->
<svg height="800px" width="800px" version="1.1" id="Layer_1" xmlns="http://www.w3.org/2000/svg" xmlns:xlink="http://www.w3.org/1999/xlink" 
	 viewBox="0 0 512 512" xml:space="preserve">
<path d="M227.413,512c-3.759,0-7.447-1.528-10.106-4.188c-2.659-2.659-4.188-6.346-4.188-10.106c0-0.943,0.1-1.872,0.286-2.802
	c0.186-0.915,0.457-1.815,0.815-2.673s0.8-1.687,1.315-2.471c0.515-0.772,1.115-1.517,1.772-2.174
	c0.658-0.658,1.387-1.244,2.173-1.771c0.772-0.515,1.601-0.959,2.459-1.316c0.872-0.357,1.772-0.628,2.687-0.813
	c4.646-0.929,9.577,0.586,12.893,3.901c0.658,0.658,1.258,1.401,1.772,2.174c0.529,0.786,0.958,1.615,1.315,2.471
	c0.357,0.859,0.643,1.758,0.815,2.673c0.186,0.929,0.286,1.858,0.286,2.802c0,3.759-1.529,7.447-4.188,10.106
	C234.86,510.471,231.172,512,227.413,512z"/>
<path d="M257.259,469.118c-0.929,0-1.873-0.099-2.787-0.286c-0.915-0.186-1.815-0.456-2.673-0.813
	c-0.858-0.357-1.701-0.802-2.473-1.315c-0.786-0.515-1.515-1.115-2.173-1.772c-0.658-0.658-1.258-1.401-1.772-2.174
	c-0.515-0.786-0.958-1.615-1.315-2.471c-0.357-0.859-0.629-1.758-0.815-2.673c-0.186-0.929-0.286-1.858-0.286-2.787
	c0-0.943,0.1-1.872,0.286-2.802c0.186-0.915,0.457-1.815,0.815-2.673c0.357-0.858,0.8-1.687,1.315-2.471
	c0.515-0.772,1.115-1.517,1.772-2.174c0.658-0.658,1.387-1.244,2.173-1.771c0.772-0.515,1.615-0.959,2.473-1.316
	c0.858-0.357,1.758-0.627,2.673-0.813c1.844-0.372,3.745-0.372,5.589,0c0.915,0.186,1.815,0.456,2.673,0.813
	c0.858,0.357,1.687,0.802,2.459,1.316c0.786,0.527,1.515,1.113,2.173,1.771c0.672,0.658,1.258,1.401,1.787,2.174
	c0.515,0.786,0.958,1.615,1.315,2.471c0.357,0.859,0.629,1.758,0.815,2.673c0.186,0.929,0.272,1.858,0.272,2.802
	c0,0.929-0.086,1.858-0.272,2.787c-0.186,0.915-0.457,1.815-0.815,2.673c-0.357,0.858-0.8,1.687-1.315,2.471
	c-0.529,0.772-1.115,1.517-1.787,2.174C264.706,467.59,261.032,469.118,257.259,469.118z"/>
<path d="M287.119,512c-0.929,0-1.872-0.099-2.802-0.286c-0.901-0.186-1.801-0.456-2.673-0.813c-0.858-0.357-1.687-0.802-2.459-1.315
	c-0.786-0.515-1.515-1.115-2.173-1.772c-2.659-2.659-4.188-6.346-4.188-10.106c0-0.943,0.086-1.872,0.272-2.802
	c0.186-0.915,0.457-1.815,0.815-2.673c0.357-0.858,0.8-1.687,1.315-2.471c0.529-0.772,1.129-1.517,1.787-2.174
	s1.387-1.244,2.173-1.771c0.772-0.515,1.601-0.959,2.459-1.316c0.872-0.357,1.772-0.628,2.673-0.813
	c4.646-0.929,9.577,0.586,12.907,3.901c0.658,0.658,1.258,1.401,1.772,2.174c0.515,0.786,0.958,1.615,1.315,2.471
	c0.357,0.859,0.629,1.758,0.815,2.673c0.186,0.929,0.286,1.858,0.286,2.802c0,3.759-1.529,7.447-4.188,10.106
	c-0.658,0.658-1.387,1.258-2.173,1.772c-0.772,0.513-1.601,0.958-2.473,1.315c-0.858,0.357-1.758,0.628-2.673,0.813
	C288.99,511.901,288.048,512,287.119,512z"/>
<polygon style="fill:#7BD36A;" points="199.986,406.97 293.051,406.97 475.605,224.417 265.482,14.294 36.395,243.381 "/>
<path d="M133.645,250.951c-3.759,0-7.447-1.515-10.106-4.174c-0.658-0.658-1.258-1.401-1.772-2.173
	c-0.515-0.788-0.958-1.617-1.315-2.473c-0.357-0.856-0.629-1.758-0.815-2.673c-0.186-0.915-0.272-1.858-0.272-2.787
	c0-0.943,0.086-1.872,0.272-2.802c0.186-0.915,0.457-1.801,0.815-2.673c0.357-0.858,0.8-1.687,1.315-2.459
	c0.515-0.786,1.115-1.515,1.772-2.173c0.658-0.673,1.401-1.258,2.173-1.787c0.786-0.515,1.615-0.958,2.473-1.315
	c0.858-0.357,1.758-0.629,2.673-0.815c1.844-0.372,3.745-0.372,5.589,0c0.915,0.186,1.815,0.457,2.673,0.815
	c0.858,0.357,1.687,0.8,2.473,1.315c0.772,0.529,1.515,1.113,2.173,1.787c0.658,0.658,1.258,1.387,1.772,2.173
	c0.515,0.772,0.958,1.601,1.315,2.459c0.357,0.872,0.629,1.758,0.815,2.673c0.186,0.929,0.272,1.858,0.272,2.802
	c0,0.929-0.086,1.874-0.272,2.787c-0.186,0.915-0.457,1.817-0.815,2.673c-0.357,0.856-0.8,1.687-1.315,2.473
	c-0.529,0.77-1.115,1.515-1.772,2.173c-0.672,0.658-1.401,1.258-2.173,1.772c-0.786,0.513-1.615,0.958-2.473,1.315
	c-0.858,0.357-1.758,0.628-2.673,0.815C135.518,250.866,134.588,250.951,133.645,250.951z"/>
<path style="fill:#EB87BF;" d="M268.599,167.996c-15.656-58.426-89.201,15.119-30.775,30.775
	c-58.426-15.656-31.507,84.81,11.264,42.038c-42.772,42.772,57.694,69.691,42.038,11.264c15.656,58.426,89.201-15.119,30.775-30.775
	c58.426,15.656,31.507-84.81-11.264-42.038C353.409,136.49,252.943,109.57,268.599,167.996z"/>
<path d="M485.712,214.31L275.591,4.187C272.909,1.507,269.274,0,265.482,0s-7.427,1.507-10.107,4.187L26.288,233.272
	c-5.582,5.582-5.582,14.633,0,20.216l163.589,163.591c2.68,2.68,6.316,4.187,10.107,4.187h93.066c3.791,0,7.427-1.507,10.107-4.187
	l182.553-182.554C491.294,228.942,491.294,219.891,485.712,214.31z M298.504,381.304L174.081,256.881
	c-5.582-5.58-14.633-5.58-20.216,0c-5.582,5.582-5.582,14.633,0,20.216l115.579,115.579h-63.539L56.61,243.381L265.482,34.51
	l189.907,189.907L298.504,381.304z"/>
<path d="M259.55,134.221c-6.858-2.903-13.196-2.863-16.289-2.591c-20.477,1.791-40.011,21.325-41.804,41.802
	c-0.27,3.093-0.312,9.433,2.593,16.289c-5.942,4.487-9.078,9.996-10.39,12.81c-8.686,18.629-1.537,45.313,15.302,57.103
	c2.544,1.781,8.01,4.986,15.403,5.899c0.915,7.391,4.118,12.86,5.899,15.403c8.363,11.943,24.22,19.014,39.38,19.012
	c6.212,0,12.308-1.186,17.723-3.712c2.814-1.312,8.325-4.445,12.81-10.39c6.857,2.903,13.195,2.865,16.289,2.591
	c20.477-1.791,40.01-21.325,41.802-41.802c0.27-3.093,0.312-9.433-2.593-16.289c5.943-4.488,9.078-9.996,10.39-12.812
	c8.686-18.629,1.537-45.313-15.302-57.103c-2.544-1.781-8.01-4.986-15.403-5.899c-0.913-7.393-4.118-12.859-5.899-15.403
	c-11.791-16.837-38.475-23.987-57.103-15.3C269.546,125.144,264.037,128.278,259.55,134.221z M272.299,181.803
	c6.389-1.711,10.602-7.491,10.599-13.806c0-1.221-0.159-2.464-0.49-3.699c-2.15-8.026-1.465-12.923,2.037-14.557
	c6.178-2.886,17.69,0.2,21.602,5.789c2.217,3.165,0.36,7.749-5.515,13.624c-2.792,2.792-4.187,6.451-4.187,10.107
	c0,3.659,1.397,7.316,4.187,10.107c5.582,5.58,14.633,5.58,20.214,0c5.876-5.875,10.46-7.73,13.624-5.515
	c5.587,3.912,8.671,15.42,5.788,21.602c-1.634,3.501-6.529,4.187-14.555,2.037c-7.623-2.047-15.463,2.481-17.506,10.107
	c-0.332,1.235-0.49,2.477-0.49,3.699c-0.004,6.315,4.208,12.095,10.599,13.806c8.025,2.151,11.924,5.193,11.587,9.041
	c-0.595,6.795-9.019,15.219-15.815,15.813c-3.842,0.36-6.89-3.562-9.041-11.587c-2.043-7.624-9.883-12.148-17.507-10.107
	c-6.389,1.711-10.602,7.491-10.597,13.806c0,1.221,0.159,2.464,0.49,3.699c2.15,8.026,1.465,12.923-2.035,14.557
	c-6.182,2.882-17.69-0.2-21.604-5.789c-2.216-3.165-0.36-7.747,5.515-13.622c2.792-2.792,4.187-6.449,4.187-10.107
	c0-3.658-1.395-7.316-4.187-10.107c-5.582-5.58-14.633-5.58-20.216,0c-5.875,5.875-10.456,7.727-13.622,5.515
	c-5.589-3.912-8.672-15.422-5.789-21.604c1.634-3.501,6.529-4.187,14.555-2.035c7.627,2.045,15.463-2.481,17.507-10.107
	c0.332-1.235,0.49-2.477,0.49-3.699c0.004-6.315-4.208-12.096-10.597-13.806c-8.026-2.151-11.924-5.193-11.587-9.041
	c0.595-6.797,9.019-15.22,15.815-15.815c3.851-0.35,6.89,3.562,9.041,11.587C256.834,179.32,264.671,183.845,272.299,181.803z"/>
</svg>