<?xml version="1.0" encoding="UTF-8" standalone="no"?>
<!-- Uploaded to: SVG Repo, www.svgrepo.com, Generator: SVG Repo Mixer Tools -->

<svg
   height="800px"
   width="800px"
   version="1.1"
   id="Capa_1"
   viewBox="0 0 58 58"
   xml:space="preserve"
   sodipodi:docname="fertilize-seconds.svg"
   inkscape:version="1.3.1 (91b66b0783, 2023-11-16)"
   xmlns:inkscape="http://www.inkscape.org/namespaces/inkscape"
   xmlns:sodipodi="http://sodipodi.sourceforge.net/DTD/sodipodi-0.dtd"
   xmlns="http://www.w3.org/2000/svg"
   xmlns:svg="http://www.w3.org/2000/svg"><defs
   id="defs14" /><sodipodi:namedview
   id="namedview14"
   pagecolor="#ffffff"
   bordercolor="#000000"
   borderopacity="0.25"
   inkscape:showpageshadow="2"
   inkscape:pageopacity="0.0"
   inkscape:pagecheckerboard="0"
   inkscape:deskcolor="#d1d1d1"
   inkscape:zoom="0.5875"
   inkscape:cx="400"
   inkscape:cy="399.14894"
   inkscape:window-width="1920"
   inkscape:window-height="1027"
   inkscape:window-x="-8"
   inkscape:window-y="-8"
   inkscape:window-maximized="1"
   inkscape:current-layer="Capa_1" />
<g
   id="g14">
	<g
   id="g12">
		<circle
   style="fill:#ECF0F1;"
   cx="29"
   cy="29"
   r="29"
   id="circle1" />
		<path
   style="fill:#545E73;"
   d="M29,4c13.785,0,25,11.215,25,25S42.785,54,29,54S4,42.785,4,29S15.215,4,29,4 M29,0    C12.984,0,0,12.984,0,29s12.984,29,29,29s29-12.984,29-29S45.016,0,29,0L29,0z"
   id="path1" />
		<g
   id="g9">
			<path
   style="fill:#8697CB;"
   d="M29,5.879c-0.552,0-1,0.447-1,1v1c0,0.553,0.448,1,1,1s1-0.447,1-1v-1     C30,6.326,29.552,5.879,29,5.879z"
   id="path2" />
			<path
   style="fill:#8697CB;"
   d="M29,48.879c-0.552,0-1,0.447-1,1v1c0,0.553,0.448,1,1,1s1-0.447,1-1v-1     C30,49.326,29.552,48.879,29,48.879z"
   id="path3" />
			<path
   style="fill:#8697CB;"
   d="M51,27.879h-1c-0.552,0-1,0.447-1,1s0.448,1,1,1h1c0.552,0,1-0.447,1-1S51.552,27.879,51,27.879z"
   id="path4" />
			<path
   style="fill:#8697CB;"
   d="M8,27.879H7c-0.552,0-1,0.447-1,1s0.448,1,1,1h1c0.552,0,1-0.447,1-1S8.552,27.879,8,27.879z"
   id="path5" />
			<path
   style="fill:#8697CB;"
   d="M43.849,12.615l-0.707,0.707c-0.391,0.391-0.391,1.023,0,1.414     c0.195,0.195,0.451,0.293,0.707,0.293s0.512-0.098,0.707-0.293l0.707-0.707c0.391-0.391,0.391-1.023,0-1.414     S44.24,12.224,43.849,12.615z"
   id="path6" />
			<path
   style="fill:#8697CB;"
   d="M13.444,43.021l-0.707,0.707c-0.391,0.391-0.391,1.023,0,1.414     c0.195,0.195,0.451,0.293,0.707,0.293s0.512-0.098,0.707-0.293l0.707-0.707c0.391-0.391,0.391-1.023,0-1.414     S13.834,42.631,13.444,43.021z"
   id="path7" />
			<path
   style="fill:#8697CB;"
   d="M44.556,43.021c-0.391-0.391-1.023-0.391-1.414,0s-0.391,1.023,0,1.414l0.707,0.707     c0.195,0.195,0.451,0.293,0.707,0.293s0.512-0.098,0.707-0.293c0.391-0.391,0.391-1.023,0-1.414L44.556,43.021z"
   id="path8" />
			<path
   style="fill:#8697CB;"
   d="M14.151,12.615c-0.391-0.391-1.023-0.391-1.414,0s-0.391,1.023,0,1.414l0.707,0.707     c0.195,0.195,0.451,0.293,0.707,0.293s0.512-0.098,0.707-0.293c0.391-0.391,0.391-1.023,0-1.414L14.151,12.615z"
   id="path9" />
		</g>
		<path
   style="fill:#545E73;"
   d="M26,29.879h-8c-0.553,0-1-0.447-1-1s0.447-1,1-1h8c0.553,0,1,0.447,1,1S26.553,29.879,26,29.879z"
   id="path10" />
		<path
   style="fill:#545E73;"
   d="M29,26.879c-0.553,0-1-0.447-1-1v-11c0-0.553,0.447-1,1-1s1,0.447,1,1v11    C30,26.432,29.553,26.879,29,26.879z"
   id="path11" />
		<path
   style="fill:#545E73;"
   d="M29,32.879c-2.206,0-4-1.794-4-4s1.794-4,4-4s4,1.794,4,4S31.206,32.879,29,32.879z M29,26.879    c-1.103,0-2,0.897-2,2s0.897,2,2,2s2-0.897,2-2S30.103,26.879,29,26.879z"
   id="path12" />
	</g>
	
</g>
<path
   d="m 43.921664,56.971117 c -0.174773,0 -0.346245,-0.06491 -0.469874,-0.177909 -0.123629,-0.112955 -0.194719,-0.269581 -0.194719,-0.429307 0,-0.04006 0.0046,-0.07952 0.0133,-0.11903 0.0086,-0.03887 0.02125,-0.0771 0.03789,-0.113551 0.01664,-0.03645 0.0372,-0.07166 0.06114,-0.104969 0.02394,-0.03279 0.05184,-0.06444 0.08239,-0.09235 0.03059,-0.02795 0.06449,-0.05285 0.101032,-0.07523 0.03589,-0.02188 0.07444,-0.04074 0.114331,-0.0559 0.04054,-0.01516 0.08239,-0.02668 0.12493,-0.03454 0.216014,-0.03946 0.445279,0.02489 0.599455,0.165716 0.03059,0.02795 0.05849,0.05952 0.08239,0.09235 0.0246,0.03339 0.04454,0.06861 0.06114,0.10497 0.0166,0.03649 0.0299,0.07468 0.03789,0.11355 0.0086,0.03946 0.0133,0.07893 0.0133,0.11903 0,0.159684 -0.07109,0.316352 -0.194719,0.429308 -0.123629,0.112913 -0.295101,0.177866 -0.469874,0.177866 z"
   id="path1-8"
   style="stroke-width:0.0444421" /><path
   d="m 45.30934,55.149469 c -0.04319,0 -0.08708,-0.0042 -0.12958,-0.01215 -0.04254,-0.0079 -0.08439,-0.01937 -0.12428,-0.03454 -0.03989,-0.01516 -0.07909,-0.03407 -0.114981,-0.05586 -0.03655,-0.02188 -0.07044,-0.04737 -0.101033,-0.07528 -0.03059,-0.02795 -0.05849,-0.05952 -0.08239,-0.09235 -0.02394,-0.03339 -0.04454,-0.06861 -0.06114,-0.104969 -0.0166,-0.03649 -0.02924,-0.07468 -0.03789,-0.113551 -0.0086,-0.03946 -0.0133,-0.07893 -0.0133,-0.118393 0,-0.04006 0.0047,-0.07952 0.0133,-0.11903 0.0086,-0.03887 0.02125,-0.0771 0.03789,-0.11355 0.0166,-0.03645 0.03719,-0.07166 0.06114,-0.10497 0.02394,-0.03279 0.05184,-0.06444 0.08239,-0.09235 0.03059,-0.02795 0.06449,-0.05285 0.101033,-0.07523 0.03589,-0.02188 0.07509,-0.04074 0.114981,-0.0559 0.03989,-0.01516 0.08174,-0.02664 0.12428,-0.03454 0.08574,-0.0158 0.174122,-0.0158 0.259858,0 0.04254,0.0079 0.08439,0.01937 0.12428,0.03454 0.03989,0.01517 0.07844,0.03407 0.11433,0.0559 0.03654,0.02239 0.07044,0.04728 0.101033,0.07523 0.03124,0.02795 0.05849,0.05951 0.08309,0.09235 0.02394,0.03339 0.04454,0.06861 0.06114,0.10497 0.0166,0.03649 0.02924,0.07468 0.03789,0.11355 0.0086,0.03946 0.01265,0.07893 0.01265,0.11903 0,0.03946 -0.004,0.07893 -0.01265,0.118393 -0.0086,0.03887 -0.02125,0.0771 -0.03789,0.113551 -0.0166,0.03645 -0.0372,0.07166 -0.06114,0.104969 -0.0246,0.03279 -0.05184,0.06444 -0.08309,0.09235 -0.123676,0.112914 -0.294497,0.177824 -0.469921,0.177824 z"
   id="path2-2"
   style="stroke-width:0.0444421" /><path
   d="m 46.697668,56.971117 c -0.04319,0 -0.08704,-0.0042 -0.130278,-0.01215 -0.04189,-0.0079 -0.08374,-0.01937 -0.12428,-0.03454 -0.03989,-0.01516 -0.07844,-0.03407 -0.11433,-0.05586 -0.03655,-0.02188 -0.07044,-0.04737 -0.101033,-0.07528 -0.123629,-0.112956 -0.194719,-0.269581 -0.194719,-0.429308 0,-0.04006 0.004,-0.07952 0.01265,-0.11903 0.0086,-0.03887 0.02125,-0.0771 0.03789,-0.11355 0.0166,-0.03645 0.03719,-0.07166 0.06114,-0.104969 0.02459,-0.03279 0.05249,-0.06444 0.08309,-0.09235 0.03059,-0.02791 0.06449,-0.05285 0.101032,-0.07523 0.03589,-0.02188 0.07444,-0.04074 0.114331,-0.0559 0.04054,-0.01516 0.08239,-0.02668 0.12428,-0.03454 0.216013,-0.03946 0.445278,0.02489 0.600105,0.165717 0.03059,0.02795 0.05849,0.05952 0.08239,0.09235 0.02395,0.03339 0.04454,0.06861 0.06114,0.10497 0.0166,0.03649 0.02924,0.07468 0.03789,0.11355 0.0086,0.03946 0.0133,0.07893 0.0133,0.11903 0,0.159684 -0.07109,0.316352 -0.194719,0.429308 -0.03059,0.02795 -0.06449,0.05344 -0.101033,0.07528 -0.03589,0.02179 -0.07444,0.0407 -0.114981,0.05586 -0.03989,0.01516 -0.08174,0.02668 -0.12428,0.03454 -0.04259,0.0079 -0.08639,0.01211 -0.12958,0.01211 z"
   id="path3-2"
   style="stroke-width:0.0444421" /><polygon
   style="fill:#7bd36a"
   points="36.395,243.381 199.986,406.97 293.051,406.97 475.605,224.417 265.482,14.294 "
   id="polygon3"
   transform="matrix(0.04649455,0,0,0.04248047,33.348198,35.221117)" /><path
   d="m 39.561963,45.881633 c -0.174773,0 -0.346245,-0.06436 -0.469874,-0.177314 -0.03059,-0.02795 -0.05849,-0.05952 -0.08239,-0.09231 -0.02395,-0.03348 -0.04454,-0.06869 -0.06114,-0.105054 -0.0166,-0.03636 -0.02924,-0.07468 -0.03789,-0.11355 -0.0087,-0.03887 -0.01265,-0.07893 -0.01265,-0.118393 0,-0.04006 0.004,-0.07952 0.01265,-0.11903 0.0086,-0.03887 0.02125,-0.07651 0.03789,-0.113551 0.0166,-0.03645 0.0372,-0.07167 0.06114,-0.104459 0.02394,-0.03339 0.05184,-0.06436 0.08239,-0.09231 0.03059,-0.02859 0.06514,-0.05344 0.101033,-0.07591 0.03654,-0.02188 0.07509,-0.0407 0.11498,-0.05586 0.03989,-0.01516 0.08174,-0.02672 0.12428,-0.03462 0.08574,-0.0158 0.174122,-0.0158 0.259858,0 0.04254,0.0079 0.08439,0.01941 0.124281,0.03462 0.03989,0.01517 0.07844,0.03398 0.11498,0.05586 0.03589,0.02247 0.07044,0.04728 0.101033,0.07591 0.03059,0.02795 0.05849,0.05892 0.08239,0.09231 0.02394,0.03279 0.04454,0.06801 0.06114,0.104459 0.0166,0.03704 0.02924,0.07468 0.03789,0.113551 0.0087,0.03946 0.01265,0.07893 0.01265,0.11903 0,0.03946 -0.004,0.07961 -0.01265,0.118393 -0.0086,0.03887 -0.02125,0.07719 -0.03789,0.11355 -0.0166,0.03636 -0.03719,0.07166 -0.06114,0.105054 -0.0246,0.03271 -0.05184,0.06436 -0.08239,0.09231 -0.03125,0.02795 -0.06514,0.05344 -0.101033,0.07528 -0.03654,0.02179 -0.07509,0.0407 -0.11498,0.05586 -0.03989,0.01516 -0.08174,0.02668 -0.124281,0.03462 -0.04319,0.0079 -0.08643,0.01155 -0.130277,0.01155 z"
   id="path4-7"
   style="stroke-width:0.0444421" /><path
   style="fill:#eb87bf;stroke-width:0.0444421"
   d="m 45.836589,42.357666 c -0.727919,-2.481964 -4.147361,0.642262 -1.43087,1.307336 -2.716491,-0.665074 -1.464904,3.602769 0.523714,1.785794 -1.988664,1.816975 2.682457,2.960506 1.954539,0.4785 0.727918,2.481964 4.14736,-0.642262 1.430869,-1.307336 2.716491,0.665074 1.464904,-3.602769 -0.523714,-1.785794 1.988665,-1.81689 -2.682457,-2.960464 -1.954538,-0.4785 z"
   id="path5-0" /><path
   d="m 55.93116,44.325106 -9.769482,-8.926123 c -0.124698,-0.113848 -0.293705,-0.177866 -0.470013,-0.177866 -0.176307,0 -0.345315,0.06402 -0.46992,0.177866 l -10.651298,9.731638 c -0.259532,0.237126 -0.259532,0.621616 0,0.858785 l 7.605997,6.949422 c 0.124606,0.113848 0.29366,0.177866 0.469921,0.177866 h 4.327062 c 0.176261,0 0.345315,-0.06402 0.46992,-0.177866 l 8.48772,-7.754979 c 0.259626,-0.237169 0.259626,-0.621659 9.3e-5,-0.858743 z m -8.704152,7.093983 -5.784991,-5.285547 c -0.259533,-0.237041 -0.680355,-0.237041 -0.939934,0 -0.259533,0.237126 -0.259533,0.621617 0,0.858785 l 5.373794,4.90985 h -2.954218 l -6.941404,-6.342121 9.71141,-8.872938 8.829641,8.067338 z"
   id="path6-4"
   style="stroke-width:0.0444421" /><path
   d="M 45.415859,40.922888 C 45.097,40.799567 44.802317,40.801266 44.65851,40.812821 c -0.952069,0.07608 -1.860294,0.905896 -1.943659,1.775769 -0.01255,0.131392 -0.0145,0.400718 0.120561,0.691964 -0.276271,0.19061 -0.422078,0.424635 -0.483079,0.544175 -0.403851,0.791368 -0.07146,1.924917 0.71146,2.425762 0.118282,0.07566 0.372422,0.211807 0.716156,0.250592 0.04254,0.313973 0.191464,0.546299 0.274271,0.654327 0.388834,0.507344 1.126098,0.807723 1.830956,0.807638 0.288824,0 0.572254,-0.05038 0.824022,-0.157687 0.130836,-0.05574 0.387068,-0.188826 0.595595,-0.441372 0.318814,0.123321 0.613496,0.121706 0.75735,0.110067 0.952069,-0.07608 1.860247,-0.905896 1.943565,-1.775769 0.01256,-0.131392 0.0145,-0.400718 -0.12056,-0.691964 0.276317,-0.190652 0.422078,-0.424635 0.483078,-0.54426 0.403852,-0.791368 0.07146,-1.924917 -0.711459,-2.425762 -0.118282,-0.07566 -0.372421,-0.211808 -0.716156,-0.250592 -0.04245,-0.314058 -0.191464,-0.546256 -0.274271,-0.654327 -0.548217,-0.715243 -1.788878,-1.018979 -2.654978,-0.649951 -0.130743,0.05586 -0.386881,0.188995 -0.595503,0.441457 z m 0.592759,2.021306 c 0.297054,-0.07268 0.492936,-0.318222 0.492796,-0.586486 0,-0.05187 -0.0074,-0.104672 -0.02278,-0.157135 -0.09996,-0.340948 -0.06812,-0.548975 0.09471,-0.618388 0.287243,-0.122599 0.822489,0.0085 1.004375,0.245919 0.103079,0.134451 0.01674,0.329181 -0.256417,0.578754 -0.129813,0.118606 -0.194673,0.274042 -0.194673,0.42935 0,0.155436 0.06495,0.310787 0.194673,0.42935 0.259532,0.237041 0.680355,0.237041 0.939841,0 0.273202,-0.249573 0.486333,-0.328374 0.633442,-0.234279 0.259764,0.166183 0.403154,0.655049 0.26911,0.917663 -0.07597,0.148724 -0.303563,0.177865 -0.676728,0.08653 -0.354428,-0.08696 -0.718946,0.105394 -0.813934,0.42935 -0.01544,0.05246 -0.02278,0.105224 -0.02278,0.157135 -1.86e-4,0.268264 0.195649,0.513801 0.492796,0.586485 0.373119,0.09137 0.554401,0.220601 0.538732,0.384066 -0.02766,0.288655 -0.419334,0.64651 -0.735311,0.671743 -0.178632,0.01529 -0.320348,-0.151315 -0.420357,-0.492221 -0.09499,-0.323871 -0.459506,-0.516052 -0.813981,-0.42935 -0.297053,0.07268 -0.492935,0.318222 -0.492702,0.586486 0,0.05187 0.0074,0.104672 0.02278,0.157135 0.09996,0.340948 0.06812,0.548975 -0.09462,0.618388 -0.28743,0.122429 -0.822489,-0.0085 -1.004468,-0.245919 -0.103032,-0.134451 -0.01674,-0.329097 0.256417,-0.578669 0.129813,-0.118606 0.194673,-0.273957 0.194673,-0.429351 0,-0.155393 -0.06486,-0.310786 -0.194673,-0.429349 -0.259533,-0.237041 -0.680355,-0.237041 -0.939934,0 -0.273155,0.249573 -0.486147,0.328246 -0.633349,0.23428 -0.259858,-0.166184 -0.4032,-0.655134 -0.269157,-0.917748 0.07597,-0.148725 0.303563,-0.177866 0.676729,-0.08645 0.354614,0.08687 0.718945,-0.105394 0.81398,-0.42935 0.01544,-0.05246 0.02278,-0.105224 0.02278,-0.157136 1.86e-4,-0.268264 -0.195649,-0.513843 -0.492703,-0.586485 -0.373165,-0.09137 -0.554401,-0.220601 -0.538732,-0.384066 0.02766,-0.28874 0.419334,-0.646553 0.735311,-0.671828 0.179051,-0.01487 0.320348,0.151315 0.420357,0.492221 0.09476,0.323871 0.459134,0.516095 0.813794,0.42935 z"
   id="path7-0"
   style="stroke-width:0.0444421" /></svg>
