<?xml version="1.0" encoding="utf-8"?>
<!-- Uploaded to: SVG Repo, www.svgrepo.com, Generator: SVG Repo Mixer Tools -->
<svg width="800px" height="800px" viewBox="0 0 1024 1024" class="icon"  version="1.1" xmlns="http://www.w3.org/2000/svg"><path d="M701.8 674.8L492.4 884.2c-31 31-81.3 31-112.4 0L114.7 618.8c-31-31-31-81.3 0-112.4l366-366 273.5 273.5" fill="#00B36A" /><path d="M436.2 930.1c-26.2 0-52.3-10-72.3-29.9L98.6 634.9c-19.3-19.3-29.9-45-29.9-72.3 0-27.3 10.6-53 29.9-72.3l382.1-382.1 289.5 289.6c8.9 8.9 8.9 23.3 0 32.2-8.9 8.9-23.3 8.9-32.2 0L480.7 172.6 130.8 522.5c-10.7 10.7-16.6 24.9-16.6 40.1 0 15.1 5.9 29.4 16.6 40.1l265.4 265.4c22.1 22.1 58.1 22.1 80.2 0l209.4-209.4c8.9-8.9 23.3-8.9 32.2 0 8.9 8.9 8.9 23.3 0 32.2L508.5 900.2c-19.9 20-46.1 29.9-72.3 29.9z" fill="" /><path d="M314.1 307L114.7 506.4c-31 31-31 81.3 0 112.4l231.7 231.7C194.4 652.7 216.9 454 314.1 307z" fill="#009957" /><path d="M853.2 566.7c-4.1 21.7-25.1 36-46.8 31.8-21.7-4.1-36-25.1-31.8-46.8 4.1-21.7 51.4-62.5 51.4-62.5s4.9 8.7 10.5 20.5c1.9 4.1 4 8.5 5.9 13.1 2 4.6 3.8 9.3 5.5 14 4.1 11.5 6.7 22.6 5.3 29.9zM913.6 624.1c14.1-9.6 33.2-5.9 42.8 8.2 9.6 14.1 5.9 33.2-8.2 42.8-14.1 9.6-62 6-62 6s2.1-7.4 5.4-16.9c1.2-3.3 2.5-6.8 3.9-10.3 1.4-3.6 3-7.2 4.6-10.6 4.2-8.5 8.8-16 13.5-19.2zM866.6 774.8c4.7 17.5-5.7 35.4-23.2 40-17.5 4.7-35.4-5.7-40-23.2-4.7-17.5 15.7-64.2 15.7-64.2s6.7 4.6 15 11.3c2.9 2.3 5.9 4.8 9 7.5s6.1 5.5 9 8.3c7.1 7.2 13 14.5 14.5 20.3z" fill="#1A1A1A" /><path d="M484.6 167.7l-12.9-12.9c-10.3-10.3-10.3-27.1 0-37.4L498 91.1c13.8-13.8 36.5-13.8 50.3 0 13.8 13.8 13.8 36.5 0 50.3L522 167.7c-10.3 10.3-27.1 10.3-37.4 0zM678.1 361.2l-12.9-12.9c-10.3-10.3-10.3-27.1 0-37.4l26.3-26.3c13.8-13.8 36.5-13.8 50.3 0 13.8 13.8 13.8 36.5 0 50.3l-26.3 26.3c-10.3 10.4-27.1 10.4-37.4 0zM581.3 264.5l-12.9-12.9c-10.3-10.3-10.3-27.1 0-37.4l26.3-26.3c13.8-13.8 36.5-13.8 50.3 0 13.8 13.8 13.8 36.5 0 50.3l-26.3 26.3c-10.3 10.3-27 10.3-37.4 0z" fill="#1A1A1A" /><path d="M445 716.1c-4.1 0-8.2-0.4-12.2-1.3-32.2-6.8-53.9-39.7-55.3-79.6-2.1 0.1-4.2 0.2-6.3 0.2-41.5 0-74.4-21.4-82-53.3-8.5-35.6 16.5-72 58.5-88.7-12.8-39.4-2.9-79.1 26.4-96.2 9.3-5.4 19.7-8.2 30.9-8.2 26.3 0 53.7 15.7 73 41 16.6-10.4 34.9-16.1 52.3-16.1 18.4 0 34.3 6.2 46.2 18 23.6 23.6 23.9 62.6 2.9 97 34.2 23 50.8 60.1 38.4 91.6-10.3 26.2-38.1 42.4-72.6 42.4-9 0-18.2-1.1-27.4-3.3-14.6 34.1-42.6 56.5-72.8 56.5z m-23.2-129l-5.1 29.1c-5.2 29.5 5.7 57.7 23.9 61.5 1.4 0.3 2.9 0.5 4.4 0.5 17.5 0 35.7-20.2 42.4-47l5.3-21.5 20.4 8.6c0.5 0.2 0.9 0.4 1.4 0.6l0.5 0.2c9.9 3.9 20.3 5.9 30.1 5.9 18.6 0 32.9-7 37.3-18.3 6.9-17.5-10.9-42.3-38.8-54.1L519 542.2l17.9-19.8c20-22 25.7-50.6 12.6-63.6-5.7-5.7-13.7-6.9-19.3-6.9-14.3 0-30.9 7.4-44.5 19.7l-18.3 16.7-11.3-22c-0.8-1.5-1.5-2.9-2.3-4.2-14.1-24.2-34.8-35.1-48.9-35.1-4.4 0-8.4 1-11.8 3-16.2 9.5-17.6 39.9-3 66.4l12.4 22.6-26.8 5.4c-0.4 0.1-0.8 0.2-1.3 0.3-30.2 7.2-52.8 30-48.3 48.7 3.4 14.2 21.9 24.2 45.1 24.2 6.6 0 13.3-0.8 20-2.4l0.5-0.1c0.5-0.1 1-0.3 1.5-0.4l28.6-7.6z" fill="#1A1A1A" /><path d="M460.2 546.7m-46.2 0a46.2 46.2 0 1 0 92.4 0 46.2 46.2 0 1 0-92.4 0Z" fill="#1A1A1A" /><path d="M436.2 930.1c-26.2 0-52.3-10-72.3-29.9L98.6 634.9c-19.3-19.3-29.9-45-29.9-72.3 0-27.3 10.6-53 29.9-72.3l382.1-382.1 289.5 289.6c8.9 8.9 8.9 23.3 0 32.2-8.9 8.9-23.3 8.9-32.2 0L480.7 172.6 130.8 522.5c-10.7 10.7-16.6 24.9-16.6 40.1 0 15.1 5.9 29.4 16.6 40.1l265.4 265.4c22.1 22.1 58.1 22.1 80.2 0l209.4-209.4c8.9-8.9 23.3-8.9 32.2 0 8.9 8.9 8.9 23.3 0 32.2L508.5 900.2c-19.9 20-46.1 29.9-72.3 29.9z" fill="#1A1A1A" /></svg>