<?xml version="1.0" encoding="UTF-8" standalone="no"?>
<!-- Uploaded to: SVG Repo, www.svgrepo.com, Generator: SVG Repo Mixer Tools -->

<svg
   height="800px"
   width="800px"
   version="1.1"
   id="Capa_1"
   viewBox="0 0 58 58"
   xml:space="preserve"
   sodipodi:docname="fertilize-seconds.svg"
   inkscape:version="1.3.1 (91b66b0783, 2023-11-16)"
   xmlns:inkscape="http://www.inkscape.org/namespaces/inkscape"
   xmlns:sodipodi="http://sodipodi.sourceforge.net/DTD/sodipodi-0.dtd"
   xmlns="http://www.w3.org/2000/svg"
   xmlns:svg="http://www.w3.org/2000/svg"><defs
   id="defs14" /><sodipodi:namedview
   id="namedview14"
   pagecolor="#ffffff"
   bordercolor="#000000"
   borderopacity="0.25"
   inkscape:showpageshadow="2"
   inkscape:pageopacity="0.0"
   inkscape:pagecheckerboard="0"
   inkscape:deskcolor="#d1d1d1"
   inkscape:zoom="0.5875"
   inkscape:cx="400"
   inkscape:cy="399.14894"
   inkscape:window-width="1920"
   inkscape:window-height="1027"
   inkscape:window-x="-8"
   inkscape:window-y="-8"
   inkscape:window-maximized="1"
   inkscape:current-layer="Capa_1" />
<g
   id="g14">
	<g
   id="g12">
		<circle
   style="fill:#ECF0F1;"
   cx="29"
   cy="29"
   r="29"
   id="circle1" />
		<path
   style="fill:#545E73;"
   d="M29,4c13.785,0,25,11.215,25,25S42.785,54,29,54S4,42.785,4,29S15.215,4,29,4 M29,0    C12.984,0,0,12.984,0,29s12.984,29,29,29s29-12.984,29-29S45.016,0,29,0L29,0z"
   id="path1" />
		<g
   id="g9">
			<path
   style="fill:#8697CB;"
   d="M29,5.879c-0.552,0-1,0.447-1,1v1c0,0.553,0.448,1,1,1s1-0.447,1-1v-1     C30,6.326,29.552,5.879,29,5.879z"
   id="path2" />
			<path
   style="fill:#8697CB;"
   d="M29,48.879c-0.552,0-1,0.447-1,1v1c0,0.553,0.448,1,1,1s1-0.447,1-1v-1     C30,49.326,29.552,48.879,29,48.879z"
   id="path3" />
			<path
   style="fill:#8697CB;"
   d="M51,27.879h-1c-0.552,0-1,0.447-1,1s0.448,1,1,1h1c0.552,0,1-0.447,1-1S51.552,27.879,51,27.879z"
   id="path4" />
			<path
   style="fill:#8697CB;"
   d="M8,27.879H7c-0.552,0-1,0.447-1,1s0.448,1,1,1h1c0.552,0,1-0.447,1-1S8.552,27.879,8,27.879z"
   id="path5" />
			<path
   style="fill:#8697CB;"
   d="M43.849,12.615l-0.707,0.707c-0.391,0.391-0.391,1.023,0,1.414     c0.195,0.195,0.451,0.293,0.707,0.293s0.512-0.098,0.707-0.293l0.707-0.707c0.391-0.391,0.391-1.023,0-1.414     S44.24,12.224,43.849,12.615z"
   id="path6" />
			<path
   style="fill:#8697CB;"
   d="M13.444,43.021l-0.707,0.707c-0.391,0.391-0.391,1.023,0,1.414     c0.195,0.195,0.451,0.293,0.707,0.293s0.512-0.098,0.707-0.293l0.707-0.707c0.391-0.391,0.391-1.023,0-1.414     S13.834,42.631,13.444,43.021z"
   id="path7" />
			<path
   style="fill:#8697CB;"
   d="M44.556,43.021c-0.391-0.391-1.023-0.391-1.414,0s-0.391,1.023,0,1.414l0.707,0.707     c0.195,0.195,0.451,0.293,0.707,0.293s0.512-0.098,0.707-0.293c0.391-0.391,0.391-1.023,0-1.414L44.556,43.021z"
   id="path8" />
			<path
   style="fill:#8697CB;"
   d="M14.151,12.615c-0.391-0.391-1.023-0.391-1.414,0s-0.391,1.023,0,1.414l0.707,0.707     c0.195,0.195,0.451,0.293,0.707,0.293s0.512-0.098,0.707-0.293c0.391-0.391,0.391-1.023,0-1.414L14.151,12.615z"
   id="path9" />
		</g>
		<path
   style="fill:#545E73;"
   d="M26,29.879h-8c-0.553,0-1-0.447-1-1s0.447-1,1-1h8c0.553,0,1,0.447,1,1S26.553,29.879,26,29.879z"
   id="path10" />
		<path
   style="fill:#545E73;"
   d="M29,26.879c-0.553,0-1-0.447-1-1v-11c0-0.553,0.447-1,1-1s1,0.447,1,1v11    C30,26.432,29.553,26.879,29,26.879z"
   id="path11" />
		<path
   style="fill:#545E73;"
   d="M29,32.879c-2.206,0-4-1.794-4-4s1.794-4,4-4s4,1.794,4,4S31.206,32.879,29,32.879z M29,26.879    c-1.103,0-2,0.897-2,2s0.897,2,2,2s2-0.897,2-2S30.103,26.879,29,26.879z"
   id="path12" />
	</g>
	
</g>
<path
   d="m 39.699364,55.829617 c -0.23303,0 -0.46166,-0.08655 -0.626498,-0.237212 -0.164839,-0.150606 -0.259626,-0.359441 -0.259626,-0.572409 0,-0.05341 0.0061,-0.106026 0.01773,-0.158706 0.01147,-0.05183 0.02833,-0.1028 0.05052,-0.151402 0.02219,-0.0486 0.0496,-0.09555 0.08152,-0.139958 0.03192,-0.04372 0.06912,-0.08592 0.109853,-0.123133 0.04079,-0.03727 0.08599,-0.07047 0.134709,-0.100307 0.04785,-0.02917 0.09925,-0.05432 0.152442,-0.07453 0.05405,-0.02021 0.109853,-0.03557 0.166573,-0.04605 0.288019,-0.05261 0.593705,0.03319 0.799273,0.220955 0.04079,0.03727 0.07799,0.07936 0.109854,0.123133 0.0328,0.04452 0.05939,0.09148 0.08152,0.13996 0.02213,0.04865 0.03987,0.09957 0.05052,0.1514 0.01147,0.05261 0.01773,0.10524 0.01773,0.158707 0,0.212912 -0.09479,0.421802 -0.259625,0.57241 -0.164839,0.150551 -0.393468,0.237155 -0.626499,0.237155 z"
   id="path1-8"
   style="stroke-width:0.0592561" /><path
   d="m 41.549599,53.400754 c -0.05759,0 -0.116107,-0.0056 -0.172773,-0.0162 -0.05672,-0.01053 -0.11252,-0.02583 -0.165707,-0.04605 -0.05319,-0.02021 -0.105453,-0.04543 -0.153308,-0.07448 -0.04873,-0.02917 -0.09392,-0.06316 -0.134711,-0.100373 -0.04079,-0.03727 -0.07799,-0.07936 -0.109853,-0.123134 -0.03192,-0.04452 -0.05939,-0.09148 -0.08152,-0.139958 -0.02213,-0.04865 -0.03899,-0.09957 -0.05052,-0.151402 -0.01147,-0.05261 -0.01773,-0.105239 -0.01773,-0.157857 0,-0.05341 0.0063,-0.106026 0.01773,-0.158706 0.01147,-0.05183 0.02833,-0.1028 0.05052,-0.1514 0.02213,-0.0486 0.04959,-0.09555 0.08152,-0.13996 0.03192,-0.04372 0.06912,-0.08592 0.109853,-0.123134 0.04079,-0.03727 0.08599,-0.07047 0.134711,-0.100306 0.04785,-0.02917 0.10012,-0.05432 0.153308,-0.07453 0.05319,-0.02021 0.108987,-0.03552 0.165707,-0.04605 0.11432,-0.02107 0.232162,-0.02107 0.346477,0 0.05672,0.01053 0.11252,0.02583 0.165707,0.04605 0.05319,0.02023 0.104586,0.04543 0.15244,0.07453 0.04872,0.02985 0.09392,0.06304 0.13471,0.100306 0.04165,0.03727 0.07799,0.07935 0.110787,0.123134 0.03192,0.04452 0.05939,0.09148 0.08152,0.13996 0.02213,0.04865 0.03899,0.09957 0.05052,0.1514 0.01147,0.05261 0.01687,0.10524 0.01687,0.158706 0,0.05261 -0.0053,0.10524 -0.01687,0.157857 -0.01147,0.05183 -0.02833,0.1028 -0.05052,0.151402 -0.02213,0.0486 -0.0496,0.09555 -0.08152,0.139958 -0.0328,0.04372 -0.06912,0.08592 -0.110787,0.123134 -0.164901,0.150552 -0.392662,0.237098 -0.626561,0.237098 z"
   id="path2-2"
   style="stroke-width:0.0592561" /><path
   d="m 43.400703,55.829617 c -0.05759,0 -0.116053,-0.0056 -0.173704,-0.0162 -0.05585,-0.01053 -0.111653,-0.02583 -0.165707,-0.04605 -0.05319,-0.02021 -0.104586,-0.04543 -0.15244,-0.07448 -0.04873,-0.02917 -0.09392,-0.06316 -0.13471,-0.100373 -0.164839,-0.150608 -0.259626,-0.359441 -0.259626,-0.572411 0,-0.05341 0.0053,-0.106026 0.01687,-0.158706 0.01147,-0.05183 0.02833,-0.1028 0.05052,-0.1514 0.02213,-0.0486 0.04959,-0.09555 0.08152,-0.139959 0.03279,-0.04372 0.06999,-0.08592 0.110787,-0.123133 0.04079,-0.03721 0.08599,-0.07047 0.134709,-0.100307 0.04785,-0.02917 0.09925,-0.05432 0.152441,-0.07453 0.05405,-0.02021 0.109854,-0.03557 0.165707,-0.04605 0.288017,-0.05261 0.593704,0.03319 0.80014,0.220956 0.04079,0.03727 0.07799,0.07936 0.109853,0.123133 0.03193,0.04452 0.05939,0.09148 0.08152,0.13996 0.02213,0.04865 0.03899,0.09957 0.05052,0.1514 0.01147,0.05261 0.01773,0.10524 0.01773,0.158706 0,0.212912 -0.09479,0.421803 -0.259626,0.572411 -0.04079,0.03727 -0.08599,0.07125 -0.13471,0.100373 -0.04785,0.02905 -0.09925,0.05427 -0.153308,0.07448 -0.05319,0.02021 -0.108987,0.03557 -0.165707,0.04605 -0.05679,0.01053 -0.115187,0.01615 -0.172773,0.01615 z"
   id="path3-2"
   style="stroke-width:0.0592561" /><polygon
   style="fill:#7bd36a"
   points="475.605,224.417 265.482,14.294 36.395,243.381 199.986,406.97 293.051,406.97 "
   id="polygon3"
   transform="matrix(0.06199273,0,0,0.05664061,25.60141,26.829628)" /><path
   d="m 33.88643,41.043644 c -0.233031,0 -0.46166,-0.08581 -0.626499,-0.236418 -0.04079,-0.03727 -0.07799,-0.07936 -0.109853,-0.12308 -0.03193,-0.04464 -0.05939,-0.09159 -0.08152,-0.140072 -0.02213,-0.04848 -0.03899,-0.09957 -0.05052,-0.1514 -0.0116,-0.05183 -0.01687,-0.10524 -0.01687,-0.157858 0,-0.05341 0.0053,-0.106026 0.01687,-0.158706 0.01147,-0.05183 0.02833,-0.102014 0.05052,-0.151401 0.02213,-0.0486 0.0496,-0.09556 0.08152,-0.139279 0.03192,-0.04452 0.06912,-0.08581 0.109853,-0.12308 0.04079,-0.03812 0.08685,-0.07125 0.134711,-0.101213 0.04872,-0.02917 0.10012,-0.05427 0.153306,-0.07448 0.05319,-0.02021 0.108987,-0.03563 0.165707,-0.04616 0.11432,-0.02107 0.232163,-0.02107 0.346477,0 0.05672,0.01053 0.11252,0.02588 0.165708,0.04616 0.05319,0.02023 0.104587,0.04531 0.153307,0.07448 0.04785,0.02996 0.09392,0.06304 0.134711,0.101213 0.04079,0.03727 0.07799,0.07856 0.109853,0.12308 0.03192,0.04372 0.05939,0.09068 0.08152,0.139279 0.02213,0.04939 0.03899,0.09957 0.05052,0.151401 0.0116,0.05261 0.01687,0.10524 0.01687,0.158706 0,0.05261 -0.0053,0.106147 -0.01687,0.157858 -0.01147,0.05183 -0.02833,0.10292 -0.05052,0.1514 -0.02213,0.04848 -0.04959,0.09555 -0.08152,0.140072 -0.0328,0.04361 -0.06912,0.08581 -0.109853,0.12308 -0.04167,0.03727 -0.08685,0.07125 -0.134711,0.100373 -0.04872,0.02905 -0.10012,0.05427 -0.153307,0.07448 -0.05319,0.02021 -0.108986,0.03557 -0.165708,0.04616 -0.05759,0.01053 -0.11524,0.0154 -0.173702,0.0154 z"
   id="path4-7"
   style="stroke-width:0.0592561" /><path
   style="fill:#eb87bf;stroke-width:0.0592561"
   d="m 42.252598,36.345023 c -0.970559,-3.309284 -5.529815,0.856349 -1.907827,1.743114 -3.621988,-0.886765 -1.953205,4.80369 0.698285,2.381058 -2.651552,2.422632 3.57661,3.94734 2.606052,0.638 0.970558,3.309284 5.529814,-0.856349 1.907826,-1.743114 3.621988,0.886765 1.953205,-4.803691 -0.698286,-2.381058 2.651554,-2.422519 -3.576609,-3.947284 -2.60605,-0.638 z"
   id="path5-0" /><path
   d="M 55.712025,38.968276 42.68605,27.066783 c -0.166264,-0.151798 -0.391607,-0.237155 -0.626684,-0.237155 -0.235076,0 -0.46042,0.08536 -0.62656,0.237155 L 27.231075,40.042295 c -0.346043,0.316168 -0.346043,0.828821 0,1.145046 l 10.141329,9.265893 c 0.166142,0.151797 0.391547,0.237155 0.626562,0.237155 h 5.769416 c 0.235014,0 0.46042,-0.08536 0.62656,-0.237155 L 55.711901,40.113266 c 0.346168,-0.316225 0.346168,-0.828879 1.24e-4,-1.14499 z m -11.605535,9.45864 -7.713322,-7.047393 c -0.346044,-0.316055 -0.90714,-0.316055 -1.253245,0 -0.346044,0.316168 -0.346044,0.828822 0,1.145046 l 7.165059,6.546464 H 38.366024 L 29.110819,40.614875 42.059366,28.784295 53.83222,39.540742 Z"
   id="path6-4"
   style="stroke-width:0.0592561" /><path
   d="m 41.691624,34.431987 c -0.425145,-0.164428 -0.818056,-0.162163 -1.009798,-0.146756 -1.269426,0.10144 -2.480392,1.20786 -2.591546,2.367691 -0.01673,0.175189 -0.01933,0.53429 0.160748,0.922618 -0.368361,0.254147 -0.56277,0.56618 -0.644105,0.725566 -0.538468,1.055157 -0.09528,2.566556 0.948613,3.234349 0.15771,0.10088 0.496563,0.282409 0.954875,0.334122 0.05672,0.418631 0.255285,0.728399 0.365695,0.872436 0.518445,0.676458 1.501464,1.076963 2.441274,1.07685 0.385099,0 0.763006,-0.06717 1.098696,-0.210249 0.174448,-0.07432 0.516091,-0.251768 0.794127,-0.588496 0.425085,0.164428 0.817995,0.162275 1.0098,0.146756 1.269425,-0.10144 2.480329,-1.207861 2.59142,-2.367691 0.01675,-0.175189 0.01933,-0.534291 -0.160747,-0.922618 0.368423,-0.254203 0.562771,-0.56618 0.644104,-0.72568 0.53847,-1.055157 0.09528,-2.566555 -0.948612,-3.234348 -0.157709,-0.10088 -0.496561,-0.282411 -0.954874,-0.334123 -0.0566,-0.418744 -0.255286,-0.728341 -0.365695,-0.872436 -0.730956,-0.953657 -2.385171,-1.358638 -3.539971,-0.866601 -0.174324,0.07448 -0.515841,0.251994 -0.794004,0.58861 z m 0.790346,2.695073 c 0.396072,-0.09691 0.657248,-0.424296 0.657061,-0.781981 0,-0.06916 -0.0099,-0.139562 -0.03037,-0.209513 -0.13328,-0.454597 -0.09083,-0.731966 0.12628,-0.824517 0.38299,-0.163465 1.096652,0.01133 1.339166,0.327892 0.137439,0.179268 0.02232,0.438908 -0.341889,0.771671 -0.173084,0.158142 -0.259564,0.36539 -0.259564,0.572467 0,0.207248 0.0866,0.414382 0.259564,0.572466 0.346043,0.316055 0.90714,0.316055 1.253121,0 0.36427,-0.332763 0.648444,-0.437831 0.84459,-0.312371 0.346352,0.221577 0.537538,0.873398 0.358813,1.22355 -0.101293,0.198298 -0.404751,0.237153 -0.902304,0.115373 -0.472571,-0.115947 -0.958595,0.140525 -1.085245,0.572466 -0.02059,0.06995 -0.03037,0.140299 -0.03037,0.209514 -2.48e-4,0.357685 0.260866,0.685067 0.657062,0.781979 0.497492,0.121827 0.739201,0.294135 0.718309,0.512088 -0.03688,0.384873 -0.559112,0.862013 -0.980415,0.895657 -0.238176,0.02039 -0.42713,-0.201753 -0.560476,-0.656294 -0.126653,-0.431828 -0.612674,-0.688069 -1.085308,-0.572467 -0.39607,0.09691 -0.657246,0.424296 -0.656936,0.781981 0,0.06916 0.0099,0.139563 0.03037,0.209514 0.13328,0.454597 0.09083,0.731966 -0.12616,0.824517 -0.38324,0.163238 -1.096652,-0.01133 -1.339291,-0.327892 -0.137376,-0.179268 -0.02232,-0.438796 0.341889,-0.771559 0.173084,-0.158141 0.259564,-0.365275 0.259564,-0.572467 0,-0.207191 -0.08648,-0.414382 -0.259564,-0.572465 -0.346044,-0.316055 -0.90714,-0.316055 -1.253245,0 -0.364207,0.332763 -0.648196,0.437661 -0.844465,0.312373 -0.346478,-0.221579 -0.5376,-0.873512 -0.358876,-1.223664 0.101293,-0.1983 0.40475,-0.237154 0.902305,-0.115266 0.472819,0.115826 0.958593,-0.140526 1.085307,-0.572467 0.02059,-0.06995 0.03037,-0.140298 0.03037,-0.209514 2.48e-4,-0.357686 -0.260865,-0.685124 -0.656937,-0.78198 -0.497554,-0.121827 -0.739202,-0.294135 -0.71831,-0.512088 0.03688,-0.384987 0.559112,-0.86207 0.980415,-0.89577 0.238735,-0.01983 0.427131,0.201753 0.560476,0.656294 0.126347,0.431828 0.612179,0.688127 1.085059,0.572467 z"
   id="path7-0"
   style="stroke-width:0.0592561" /></svg>
