<?xml version="1.0" encoding="UTF-8" standalone="no"?>
<!-- Uploaded to: SVG Repo, www.svgrepo.com, Generator: SVG Repo Mixer Tools -->

<svg
   height="800px"
   width="800px"
   version="1.1"
   id="Capa_1"
   viewBox="0 0 58 58"
   xml:space="preserve"
   sodipodi:docname="fertilize-seconds.svg"
   inkscape:version="1.3.1 (91b66b0783, 2023-11-16)"
   xmlns:inkscape="http://www.inkscape.org/namespaces/inkscape"
   xmlns:sodipodi="http://sodipodi.sourceforge.net/DTD/sodipodi-0.dtd"
   xmlns="http://www.w3.org/2000/svg"
   xmlns:svg="http://www.w3.org/2000/svg"><defs
   id="defs14" /><sodipodi:namedview
   id="namedview14"
   pagecolor="#ffffff"
   bordercolor="#000000"
   borderopacity="0.25"
   inkscape:showpageshadow="2"
   inkscape:pageopacity="0.0"
   inkscape:pagecheckerboard="0"
   inkscape:deskcolor="#d1d1d1"
   inkscape:zoom="0.5875"
   inkscape:cx="400"
   inkscape:cy="399.14894"
   inkscape:window-width="1920"
   inkscape:window-height="1027"
   inkscape:window-x="-8"
   inkscape:window-y="-8"
   inkscape:window-maximized="1"
   inkscape:current-layer="Capa_1" />
<g
   id="g14">
	<g
   id="g12">
		<circle
   style="fill:#ECF0F1;"
   cx="29"
   cy="29"
   r="29"
   id="circle1" />
		<path
   style="fill:#545E73;"
   d="M29,4c13.785,0,25,11.215,25,25S42.785,54,29,54S4,42.785,4,29S15.215,4,29,4 M29,0    C12.984,0,0,12.984,0,29s12.984,29,29,29s29-12.984,29-29S45.016,0,29,0L29,0z"
   id="path1" />
		<g
   id="g9">
			<path
   style="fill:#8697CB;"
   d="M29,5.879c-0.552,0-1,0.447-1,1v1c0,0.553,0.448,1,1,1s1-0.447,1-1v-1     C30,6.326,29.552,5.879,29,5.879z"
   id="path2" />
			<path
   style="fill:#8697CB;"
   d="M29,48.879c-0.552,0-1,0.447-1,1v1c0,0.553,0.448,1,1,1s1-0.447,1-1v-1     C30,49.326,29.552,48.879,29,48.879z"
   id="path3" />
			<path
   style="fill:#8697CB;"
   d="M51,27.879h-1c-0.552,0-1,0.447-1,1s0.448,1,1,1h1c0.552,0,1-0.447,1-1S51.552,27.879,51,27.879z"
   id="path4" />
			<path
   style="fill:#8697CB;"
   d="M8,27.879H7c-0.552,0-1,0.447-1,1s0.448,1,1,1h1c0.552,0,1-0.447,1-1S8.552,27.879,8,27.879z"
   id="path5" />
			<path
   style="fill:#8697CB;"
   d="M43.849,12.615l-0.707,0.707c-0.391,0.391-0.391,1.023,0,1.414     c0.195,0.195,0.451,0.293,0.707,0.293s0.512-0.098,0.707-0.293l0.707-0.707c0.391-0.391,0.391-1.023,0-1.414     S44.24,12.224,43.849,12.615z"
   id="path6" />
			<path
   style="fill:#8697CB;"
   d="M13.444,43.021l-0.707,0.707c-0.391,0.391-0.391,1.023,0,1.414     c0.195,0.195,0.451,0.293,0.707,0.293s0.512-0.098,0.707-0.293l0.707-0.707c0.391-0.391,0.391-1.023,0-1.414     S13.834,42.631,13.444,43.021z"
   id="path7" />
			<path
   style="fill:#8697CB;"
   d="M44.556,43.021c-0.391-0.391-1.023-0.391-1.414,0s-0.391,1.023,0,1.414l0.707,0.707     c0.195,0.195,0.451,0.293,0.707,0.293s0.512-0.098,0.707-0.293c0.391-0.391,0.391-1.023,0-1.414L44.556,43.021z"
   id="path8" />
			<path
   style="fill:#8697CB;"
   d="M14.151,12.615c-0.391-0.391-1.023-0.391-1.414,0s-0.391,1.023,0,1.414l0.707,0.707     c0.195,0.195,0.451,0.293,0.707,0.293s0.512-0.098,0.707-0.293c0.391-0.391,0.391-1.023,0-1.414L14.151,12.615z"
   id="path9" />
		</g>
		<path
   style="fill:#545E73;"
   d="M26,29.879h-8c-0.553,0-1-0.447-1-1s0.447-1,1-1h8c0.553,0,1,0.447,1,1S26.553,29.879,26,29.879z"
   id="path10" />
		<path
   style="fill:#545E73;"
   d="M29,26.879c-0.553,0-1-0.447-1-1v-11c0-0.553,0.447-1,1-1s1,0.447,1,1v11    C30,26.432,29.553,26.879,29,26.879z"
   id="path11" />
		<path
   style="fill:#545E73;"
   d="M29,32.879c-2.206,0-4-1.794-4-4s1.794-4,4-4s4,1.794,4,4S31.206,32.879,29,32.879z M29,26.879    c-1.103,0-2,0.897-2,2s0.897,2,2,2s2-0.897,2-2S30.103,26.879,29,26.879z"
   id="path12" />
	</g>
	
</g>
<polygon
   style="fill:#7bd36a"
   points="475.605,224.417 265.482,14.294 36.395,243.381 199.986,406.97 293.051,406.97 "
   id="polygon3"
   transform="matrix(0.07749091,0,0,0.07080074,20.19578,26.462936)" /><path
   d="m 30.552055,44.23045 c -0.291289,0 -0.577075,-0.107262 -0.783124,-0.295522 -0.05099,-0.04659 -0.09749,-0.0992 -0.137316,-0.15385 -0.03991,-0.0558 -0.07424,-0.114487 -0.1019,-0.17509 -0.02766,-0.0606 -0.04874,-0.124462 -0.06315,-0.18925 -0.0145,-0.06479 -0.02109,-0.13155 -0.02109,-0.197322 0,-0.06676 0.0066,-0.132533 0.02109,-0.198383 0.01434,-0.06479 0.03541,-0.127517 0.06315,-0.189251 0.02766,-0.06075 0.062,-0.11945 0.1019,-0.174099 0.0399,-0.05565 0.0864,-0.107262 0.137316,-0.153849 0.05099,-0.04765 0.108563,-0.08906 0.168389,-0.126517 0.0609,-0.03646 0.12515,-0.06784 0.191632,-0.0931 0.06649,-0.02526 0.136234,-0.04454 0.207134,-0.0577 0.1429,-0.02634 0.290204,-0.02634 0.433096,0 0.0709,0.01316 0.14065,0.03235 0.207135,0.0577 0.06649,0.02529 0.130734,0.05664 0.191634,0.0931 0.05981,0.03745 0.1174,0.0788 0.168389,0.126517 0.05099,0.04659 0.09749,0.0982 0.137316,0.153849 0.0399,0.05465 0.07424,0.11335 0.1019,0.174099 0.02766,0.06174 0.04874,0.124463 0.06315,0.189251 0.0145,0.06576 0.02109,0.13155 0.02109,0.198383 0,0.06576 -0.0066,0.132684 -0.02109,0.197322 -0.01434,0.06479 -0.03541,0.12865 -0.06315,0.18925 -0.02766,0.0606 -0.06199,0.119438 -0.1019,0.17509 -0.041,0.05451 -0.0864,0.107263 -0.137316,0.15385 -0.05209,0.04659 -0.108563,0.08906 -0.168389,0.125466 -0.0609,0.03631 -0.12515,0.06784 -0.191634,0.0931 -0.06649,0.02526 -0.136232,0.04446 -0.207135,0.0577 -0.07199,0.01316 -0.14405,0.01925 -0.217127,0.01925 z"
   id="path4-7"
   style="stroke-width:0.0740701" /><path
   style="fill:#eb87bf;stroke-width:0.0740701"
   d="m 41.009765,38.357176 c -1.213199,-4.136604 -6.912269,1.070436 -2.384784,2.178892 -4.527485,-1.108456 -2.441506,6.004611 0.872856,2.976321 -3.31444,3.02829 4.470763,4.934174 3.257565,0.7975 1.213198,4.136604 6.912268,-1.070436 2.384783,-2.178892 4.527485,1.108456 2.441506,-6.004611 -0.872857,-2.976321 3.314442,-3.028148 -4.470762,-4.934104 -3.257563,-0.7975 z"
   id="path5-0" /><path
   d="M 57.834049,41.636241 41.55158,26.75938 c -0.20783,-0.189748 -0.489509,-0.296444 -0.783355,-0.296444 -0.293845,0 -0.575525,0.1067 -0.7832,0.296444 L 22.232861,42.978765 c -0.432554,0.39521 -0.432554,1.036026 0,1.431307 l 12.676661,11.582362 c 0.207678,0.189747 0.489434,0.296444 0.783203,0.296444 h 7.21177 c 0.293767,0 0.575525,-0.1067 0.7832,-0.296444 L 57.833894,43.067478 c 0.43271,-0.395281 0.43271,-1.036098 1.55e-4,-1.431237 z M 43.32713,53.459538 33.685477,44.650299 c -0.432555,-0.395069 -1.133925,-0.395069 -1.566556,0 -0.432555,0.39521 -0.432555,1.036027 0,1.431307 l 8.956324,8.183078 H 36.151547 L 24.582541,43.694489 40.768225,28.906269 55.484293,42.351824 Z"
   id="path6-4"
   style="stroke-width:0.0740701" /><path
   d="m 40.308547,35.965882 c -0.531431,-0.205535 -1.02257,-0.202704 -1.262247,-0.183445 -1.586783,0.1268 -3.10049,1.509824 -3.239433,2.959613 -0.02091,0.218986 -0.02416,0.667862 0.200935,1.153272 -0.460451,0.317683 -0.703462,0.707725 -0.805131,0.906957 -0.673085,1.318946 -0.1191,3.208194 1.185766,4.042935 0.197138,0.1261 0.620704,0.353011 1.193594,0.417652 0.0709,0.523289 0.319106,0.910499 0.457119,1.090545 0.648056,0.845572 1.87683,1.346203 3.051592,1.346062 0.481374,0 0.953758,-0.08396 1.37337,-0.262811 0.21806,-0.0929 0.645114,-0.31471 0.992659,-0.73562 0.531357,0.205535 1.022494,0.202844 1.26225,0.183445 1.586782,-0.1268 3.100412,-1.509826 3.239275,-2.959613 0.02094,-0.218986 0.02416,-0.667863 -0.200933,-1.153272 0.460528,-0.317753 0.703463,-0.707725 0.80513,-0.9071 0.673087,-1.318945 0.1191,-3.208192 -1.185765,-4.042933 -0.197137,-0.1261 -0.620702,-0.353014 -1.193593,-0.417654 -0.07075,-0.52343 -0.319107,-0.910426 -0.457119,-1.090545 -0.913695,-1.19207 -2.981464,-1.698297 -4.424964,-1.08325 -0.217905,0.0931 -0.644801,0.314992 -0.992505,0.735762 z m 0.987933,3.36884 c 0.49509,-0.121137 0.82156,-0.53037 0.821326,-0.977476 0,-0.08645 -0.01237,-0.174452 -0.03796,-0.261891 -0.1666,-0.568246 -0.113538,-0.914957 0.15785,-1.030646 0.478737,-0.204331 1.370815,0.01416 1.673957,0.409865 0.171799,0.224085 0.0279,0.548635 -0.427361,0.964588 -0.216355,0.197678 -0.324455,0.456738 -0.324455,0.715584 0,0.25906 0.10825,0.517977 0.324455,0.715582 0.432554,0.395069 1.133925,0.395069 1.566401,0 0.455338,-0.415954 0.810555,-0.547288 1.055738,-0.390464 0.43294,0.276972 0.671922,1.091748 0.448516,1.529437 -0.126616,0.247873 -0.505939,0.296442 -1.12788,0.144217 -0.590714,-0.144934 -1.198244,0.175656 -1.356556,0.715582 -0.02574,0.08744 -0.03796,0.175374 -0.03796,0.261892 -3.1e-4,0.447106 0.326083,0.856334 0.821328,0.977474 0.621865,0.152284 0.924001,0.367668 0.897886,0.64011 -0.0461,0.481091 -0.69889,1.077516 -1.225519,1.119571 -0.29772,0.02549 -0.533912,-0.252192 -0.700595,-0.820368 -0.158316,-0.539785 -0.765842,-0.860086 -1.356635,-0.715583 -0.495087,0.121137 -0.821557,0.53037 -0.82117,0.977476 0,0.08645 0.01238,0.174453 0.03796,0.261892 0.1666,0.568246 0.113537,0.914957 -0.1577,1.030646 -0.47905,0.204047 -1.370815,-0.01416 -1.674114,-0.409865 -0.17172,-0.224085 -0.0279,-0.548495 0.427361,-0.964448 0.216355,-0.197676 0.324455,-0.456594 0.324455,-0.715584 0,-0.258988 -0.1081,-0.517977 -0.324455,-0.715581 -0.432555,-0.395068 -1.133925,-0.395068 -1.566556,0 -0.455259,0.415954 -0.810245,0.547076 -1.055581,0.390466 -0.433098,-0.276973 -0.672,-1.091889 -0.448595,-1.529579 0.126616,-0.247875 0.505937,-0.296443 1.127881,-0.144083 0.591024,0.144783 1.198241,-0.175657 1.356634,-0.715583 0.02574,-0.08744 0.03796,-0.175373 0.03796,-0.261893 3.1e-4,-0.447107 -0.326081,-0.856404 -0.821171,-0.977474 -0.621943,-0.152284 -0.924003,-0.367669 -0.897888,-0.64011 0.0461,-0.481234 0.69889,-1.077587 1.225519,-1.119712 0.298419,-0.02479 0.533914,0.252191 0.700595,0.820367 0.157934,0.539785 0.765224,0.860158 1.356324,0.715584 z"
   id="path7-0"
   style="stroke-width:0.0740701" /></svg>
