<?xml version="1.0" encoding="UTF-8" standalone="no"?>
<!-- Generator: Adobe Illustrator 19.0.0, SVG Export Plug-In . SVG Version: 6.00 Build 0)  -->

<svg
   version="1.1"
   id="Layer_1"
   x="0px"
   y="0px"
   viewBox="0 0 512 512"
   style="enable-background:new 0 0 512 512;"
   xml:space="preserve"
   sodipodi:docname="fireplace-chimney-blue.svg"
   inkscape:version="1.4.2 (f4327f4, 2025-05-13)"
   xmlns:inkscape="http://www.inkscape.org/namespaces/inkscape"
   xmlns:sodipodi="http://sodipodi.sourceforge.net/DTD/sodipodi-0.dtd"
   xmlns="http://www.w3.org/2000/svg"
   xmlns:svg="http://www.w3.org/2000/svg"><defs
   id="defs34" /><sodipodi:namedview
   id="namedview34"
   pagecolor="#ffffff"
   bordercolor="#000000"
   borderopacity="0.25"
   inkscape:showpageshadow="2"
   inkscape:pageopacity="0.0"
   inkscape:pagecheckerboard="0"
   inkscape:deskcolor="#d1d1d1"
   inkscape:zoom="1.5878906"
   inkscape:cx="255.68512"
   inkscape:cy="255.68512"
   inkscape:window-width="2880"
   inkscape:window-height="1514"
   inkscape:window-x="-11"
   inkscape:window-y="-11"
   inkscape:window-maximized="1"
   inkscape:current-layer="Layer_1" />
<rect
   x="102.4"
   y="366.933"
   style="fill:#BF360C;"
   width="76.8"
   height="68.267"
   id="rect1" />
<rect
   x="179.2"
   y="366.933"
   style="fill:#E65100;"
   width="153.6"
   height="68.267"
   id="rect2" />
<rect
   x="332.8"
   y="366.933"
   style="fill:#BF360C;"
   width="76.8"
   height="68.267"
   id="rect3" />
<rect
   x="102.4"
   y="162.133"
   style="fill:#E65100;"
   width="153.6"
   height="68.267"
   id="rect4" />
<rect
   x="256"
   y="162.133"
   style="fill:#BF360C;"
   width="153.6"
   height="68.267"
   id="rect5" />
<rect
   x="256"
   y="298.667"
   style="fill:#E64A19;"
   width="153.6"
   height="68.267"
   id="rect6" />
<rect
   x="102.4"
   y="298.667"
   style="fill:#E65100;"
   width="153.6"
   height="68.267"
   id="rect7" />
<rect
   x="102.4"
   y="230.4"
   style="fill:#E64A19;"
   width="76.8"
   height="68.267"
   id="rect8" />
<rect
   x="179.2"
   y="230.4"
   style="fill:#EF6C00;"
   width="153.6"
   height="68.267"
   id="rect9" />
<rect
   x="332.8"
   y="230.4"
   style="fill:#E65100;"
   width="76.8"
   height="68.267"
   id="rect10" />
<rect
   x="17.067"
   y="179.2"
   style="fill:#A1887F;"
   width="85.333"
   height="170.667"
   id="rect11" />
<g
   id="g12">
	<path
   style="fill:#BCAAA4;"
   d="M110.933,435.2H8.533v-76.8c3.328-3.328,5.197-5.205,8.533-8.533H102.4   c3.328,3.328,5.197,5.205,8.533,8.533V435.2z"
   id="path11" />
	<path
   style="fill:#BCAAA4;"
   d="M503.467,435.2h-102.4v-76.8c3.328-3.328,5.197-5.205,8.533-8.533h85.333   c3.328,3.328,5.197,5.205,8.533,8.533V435.2z"
   id="path12" />
</g>
<rect
   x="409.6"
   y="179.2"
   style="fill:#A1887F;"
   width="85.333"
   height="170.667"
   id="rect12" />
<g
   id="g14">
	<rect
   x="8.533"
   y="162.133"
   style="fill:#BCAAA4;"
   width="494.933"
   height="17.067"
   id="rect13" />
	<rect
   x="8.533"
   y="93.867"
   style="fill:#BCAAA4;"
   width="494.933"
   height="17.067"
   id="rect14" />
</g>
<rect
   x="17.067"
   y="110.933"
   style="fill:#A1887F;"
   width="477.867"
   height="51.2"
   id="rect15" />
<path
   style="fill:#D7CCC8;"
   d="M503.467,93.867H8.533C3.823,93.867,0,90.044,0,85.333V76.8h512v8.533  C512,90.044,508.177,93.867,503.467,93.867z"
   id="path15" />
<g
   id="g16">
	<rect
   x="110.933"
   y="401.067"
   style="fill:#3E2723;"
   width="290.133"
   height="34.133"
   id="rect16" />
	<path
   style="fill:#3E2723;"
   d="M170.044,357.06c-6.938,14.071-3.908,44.006,9.156,44.006h153.6   c13.065,0,16.094-29.935,9.156-44.006c-25.404,14.37-54.69,22.673-85.956,22.673C224.734,379.733,195.447,371.43,170.044,357.06z"
   id="path16" />
</g>
<path
   style="fill:#EF6C00;"
   d="M332.8,349.867H179.2c-4.002,0-7.031,2.876-9.156,7.194c25.404,14.37,54.69,22.673,85.956,22.673  c31.266,0,60.553-8.303,85.956-22.673C339.831,352.742,336.802,349.867,332.8,349.867z"
   id="path17" />
<path
   style="fill:#FB8C00;"
   d="M304.802,298.027L304.802,298.027c-9.489-17.502-14.669-37.649-14.669-58.957  c0-14.891,2.637-29.175,7.458-42.394c-28.126,2.688-50.125,26.368-50.125,55.194c0,3.686,0.393,7.279,1.084,10.761  c-9.105-15.735-25.685-26.607-44.919-27.674c7.322,9.395,11.716,21.18,11.716,34.014c0,10.095-2.739,19.533-7.407,27.716  c-4.668,8.183-7.407,17.621-7.407,27.716c0,30.635,24.832,55.467,55.467,55.467s55.467-24.832,55.467-55.467  C311.467,314.854,309.052,305.869,304.802,298.027z"
   id="path18" />
<path
   style="fill:#5555ff"
   d="M242.953,279.057c0.085,0.085,0.179,0.162,0.265,0.247c3.721,3.473,9.711,1.28,10.837-3.686  c1.519-6.716,4.036-13.141,7.424-19.055c4.523-7.893,16.64-4.557,16.632,4.54v0.273c0,19.243,4.685,38.067,13.559,54.426  c3.174,5.879,4.864,12.544,4.864,19.268c0,22.349-18.185,40.533-40.533,40.533c-22.349,0-40.533-18.185-40.533-40.533  c0-7.04,1.877-14.054,5.427-20.284c4.821-8.439,7.364-17.98,7.364-27.588c0-0.393,0-0.785-0.009-1.178  C228.087,278.255,237.235,273.792,242.953,279.057z"
   id="path19" />
<path
   style="fill:#FFFDE7;"
   d="M283.733,347.87c0,15.317-12.416,27.733-27.733,27.733c-15.317,0-27.733-12.416-27.733-27.733  s12.416-34.671,27.733-34.671C271.317,313.199,283.733,332.553,283.733,347.87z"
   id="path20" />
<g
   id="g20">
</g>
<g
   id="g21">
</g>
<g
   id="g22">
</g>
<g
   id="g23">
</g>
<g
   id="g24">
</g>
<g
   id="g25">
</g>
<g
   id="g26">
</g>
<g
   id="g27">
</g>
<g
   id="g28">
</g>
<g
   id="g29">
</g>
<g
   id="g30">
</g>
<g
   id="g31">
</g>
<g
   id="g32">
</g>
<g
   id="g33">
</g>
<g
   id="g34">
</g>
<path
   style="fill:#0000aa;stroke-width:0.353929"
   d="m 248.12792,379.09929 c -13.66197,-2.10604 -27.71042,-10.27018 -35.63976,-20.71175 -3.81643,-5.02558 -8.32395,-14.06457 -9.68378,-19.41903 -3.77833,-14.87749 -2.05148,-27.64429 5.86882,-43.38886 3.69299,-7.34121 5.42216,-12.68838 6.41715,-19.844 1.71687,-12.34715 -1.77134,-27.09242 -8.83935,-37.36541 l -1.95235,-2.83764 h 1.95268 c 5.35143,0 16.43417,3.67333 23.11834,7.66249 4.74653,2.83275 13.2426,10.93123 16.39843,15.63102 l 2.5734,3.83241 -0.35614,-7.23119 c -0.71464,-14.51058 2.77797,-25.93476 11.38785,-37.24913 7.94349,-10.43866 22.04221,-18.87708 34.71437,-20.77739 2.7208,-0.40801 3.00392,-0.34111 2.63416,0.62245 -5.22037,13.60406 -7.94586,37.43697 -6.15511,53.82306 1.63981,15.00495 5.78903,29.51257 12.1144,42.35755 8.67111,17.60851 10.39005,29.40418 6.5234,44.76464 -2.53763,10.08081 -10.3388,21.86391 -19.05943,28.78786 -5.08198,4.03495 -14.18718,8.50899 -20.60502,10.12473 -5.86358,1.47618 -15.99812,2.05277 -21.41206,1.21819 z m 19.20787,-4.73906 c 10.47875,-3.11656 20.37354,-11.4173 25.10588,-21.06134 2.74417,-5.59233 4.49314,-12.73325 4.49314,-18.34517 0,-6.13542 -1.8244,-12.53453 -6.26082,-21.95987 -8.06439,-17.13313 -10.97318,-28.34287 -11.94939,-46.05001 -0.36999,-6.71104 -0.73576,-9.02655 -1.67996,-10.63481 -2.40862,-4.10261 -8.58947,-5.65635 -12.65056,-3.18009 -3.18719,1.94339 -7.42968,10.34103 -9.94808,19.69134 -1.20764,4.48369 -2.6049,6.49285 -5.2022,7.48034 -1.96081,0.74549 -3.62367,0.27973 -6.38115,-1.78734 -3.0097,-2.25614 -6.86431,-2.56521 -10.00162,-0.80194 -3.75151,2.10847 -4.57845,4.04778 -5.19134,12.17443 -0.71121,9.43034 -1.87179,13.60987 -6.59156,23.73785 -5.81406,12.47616 -7.00144,19.14638 -5.15688,28.96925 3.13259,16.68201 17.28458,30.37122 34.09597,32.98103 3.51551,0.54574 13.83429,-0.17739 17.31857,-1.21367 z"
   id="path34" /><path
   style="fill:#afafe9;stroke-width:0.353929"
   d="m 249.23044,374.36763 c -8.85771,-2.38517 -15.7141,-8.72916 -18.99818,-17.57837 -1.69619,-4.57053 -1.85928,-12.06663 -0.38278,-17.59458 2.5245,-9.45169 10.04507,-19.61604 17.33379,-23.42733 3.02418,-1.58135 4.143,-1.81118 8.81673,-1.81118 4.67373,0 5.79255,0.22983 8.81673,1.81118 4.95643,2.59173 10.53196,8.54654 13.69535,14.62698 3.37759,6.49215 4.62792,11.22982 4.63912,17.57821 0.0313,17.75339 -16.9478,30.96552 -33.92076,26.39509 z"
   id="path35" /><path
   style="fill:#afafe9;stroke-width:0.353929"
   d="m 179.79828,264.50185 v -34.00739 h 35.83413 35.83412 l -1.46671,4.33525 c -2.06522,6.10425 -3.05464,13.76051 -2.62842,20.33912 l 0.3618,5.58452 -2.70115,-3.63621 c -7.6622,-10.31465 -18.40915,-17.47926 -31.0394,-20.69285 -3.39337,-0.8634 -7.07588,-1.48809 -8.18335,-1.3882 l -2.01357,0.18162 2.20826,3.46372 c 10.62278,16.66206 11.87981,36.18243 3.49825,54.32427 l -2.54263,5.50353 h -13.58067 -13.58066 z"
   id="path36" /><path
   style="fill:#afafe9;stroke-width:0.353929"
   d="m 302.7591,293.31365 c -8.11127,-16.72809 -12.08757,-34.20067 -12.11042,-53.21525 l -0.0115,-9.60394 h 20.78228 20.78229 v 34.00739 34.00738 h -13.46167 -13.46167 z"
   id="path37" /><path
   style="fill:#5555ff;stroke-width:0.353929"
   d="m 111.15375,362.25487 v -4.26912 l -4.09348,-4.05709 -4.09348,-4.0571 v -25.36628 -25.36629 h 51.57347 51.57346 l -1.88105,4.84432 c -2.69834,6.9491 -3.70055,12.56454 -3.70055,20.73454 0,7.93525 1.38699,15.16974 4.07255,21.24227 l 1.57448,3.56018 h -14.16018 c -16.42095,0 -17.55651,0.29536 -20.97449,5.45556 -1.92771,2.91031 -3.84153,8.09296 -3.84153,10.4029 0,1.08997 -1.35221,1.14523 -28.0246,1.14523 h -28.0246 z"
   id="path38" /><path
   style="fill:#5555ff;stroke-width:0.353929"
   d="m 344.52009,363.72342 c -0.60921,-4.06251 -3.86255,-10.15515 -6.49593,-12.16518 l -2.25744,-1.72306 -14.95901,-0.18894 -14.95901,-0.18893 1.56056,-3.52869 c 2.67201,-6.04189 4.05862,-13.28845 4.05862,-21.21077 0,-8.17 -1.00221,-13.78544 -3.70055,-20.73454 l -1.88105,-4.84432 h 51.57346 51.57347 v 25.36629 25.36628 l -4.09348,4.0571 -4.09348,4.05709 v 4.26912 4.26912 h -27.9531 -27.95309 z"
   id="path39" /><path
   style="fill:#5555ff;stroke-width:0.353929"
   d="M 102.96679,204.67405 V 179.48339 H 179.48339 256 v 21.0755 21.07549 l -2.26198,4.11516 -2.26197,4.11516 h -74.25463 -74.25463 z"
   id="path40" /><path
   style="fill:#000080;stroke-width:0.353929"
   d="m 291.01673,226.87331 c 0.93511,-7.86871 2.4618,-15.6194 4.42197,-22.44946 1.18265,-4.12089 2.01854,-7.62425 1.85753,-7.78527 -0.59233,-0.59233 -8.77033,1.21217 -13.89134,3.06517 -9.05356,3.27596 -20.11509,11.68979 -25.99105,19.7698 l -1.37394,1.8893 L 256.02,200.42312 256,179.48339 h 76.51661 76.5166 v 25.19066 25.19065 h -59.18598 -59.18599 z"
   id="path41" /><path
   style="fill:#000080;stroke-width:0.353929"
   d="m 111.15375,383.84256 v -16.68881 h 27.78371 27.78371 l -0.42802,4.56761 c -0.91286,9.74154 1.71165,21.01392 6.03657,25.92728 l 2.53747,2.88273 h -31.85672 -31.85672 z"
   id="path42" /><path
   style="fill:#0000ff;stroke-width:0.353929"
   d="m 339.67028,397.64864 c 4.32492,-4.91336 6.94943,-16.18574 6.03657,-25.92728 l -0.42802,-4.56761 h 27.78371 27.78371 v 16.68881 16.68881 h -31.85672 -31.85672 z"
   id="path43" /><path
   style="fill:#0000ff;stroke-width:0.353929"
   d="m 102.96679,264.50185 v -34.00739 h 38.10086 38.10086 v 34.00739 34.00738 h -38.10086 -38.10086 z"
   id="path44" /><path
   style="fill:#0000ff;stroke-width:0.353929"
   d="m 332.83149,264.50185 v -34.00739 h 38.10086 38.10086 v 34.00739 34.00738 h -38.10086 -38.10086 z"
   id="path45" /><path
   style="fill:#0000ff;stroke-width:0.353929"
   d="m 236.47724,378.41037 c -12.82023,-1.48074 -28.74615,-5.27689 -40.70805,-9.70328 -3.41525,-1.26378 -10.56138,-4.3939 -15.88029,-6.95583 l -9.67076,-4.65804 1.28721,-2.05461 c 2.82776,-4.51357 2.93378,-4.5395 19.98895,-4.88855 10.90389,-0.22316 15.3855,-0.11434 15.38485,0.37356 -0.002,1.26656 6.41746,9.84607 10.11944,13.52513 6.31171,6.27262 13.00317,10.30713 21.99772,13.26316 5.60563,1.84227 5.25282,1.99611 -2.51907,1.09846 z"
   id="path46" /><path
   style="fill:#0000ff;stroke-width:0.353929"
   d="m 271.11439,378.08689 c 12.65142,-3.47686 26.52409,-14.20944 32.79978,-25.37552 l 1.43953,-2.56131 h 14.32766 c 7.92937,0 15.05983,0.27837 15.96721,0.62335 1.68644,0.64119 4.39995,3.23522 5.4661,5.22543 0.52935,0.98813 -0.57366,1.69224 -9.03569,5.76799 -11.351,5.46724 -19.1187,8.42652 -30.01791,11.43601 -8.37985,2.31385 -22.57479,4.91224 -30.00203,5.4919 l -4.40836,0.34405 z"
   id="path47" /></svg>
