<?xml version="1.0" encoding="UTF-8" standalone="no"?>
<!-- Generator: Adobe Illustrator 19.0.0, SVG Export Plug-In . SVG Version: 6.00 Build 0)  -->

<svg
   version="1.1"
   id="Layer_1"
   x="0px"
   y="0px"
   viewBox="0 0 512 512"
   style="enable-background:new 0 0 512 512;"
   xml:space="preserve"
   sodipodi:docname="fireplace-chimney-color-off.svg"
   inkscape:version="1.2 (dc2aedaf03, 2022-05-15)"
   xmlns:inkscape="http://www.inkscape.org/namespaces/inkscape"
   xmlns:sodipodi="http://sodipodi.sourceforge.net/DTD/sodipodi-0.dtd"
   xmlns="http://www.w3.org/2000/svg"
   xmlns:svg="http://www.w3.org/2000/svg"><defs
   id="defs5255" /><sodipodi:namedview
   id="namedview5253"
   pagecolor="#ffffff"
   bordercolor="#000000"
   borderopacity="0.25"
   inkscape:showpageshadow="2"
   inkscape:pageopacity="0.0"
   inkscape:pagecheckerboard="0"
   inkscape:deskcolor="#d1d1d1"
   showgrid="false"
   inkscape:zoom="1.6542969"
   inkscape:cx="255.69776"
   inkscape:cy="256.30224"
   inkscape:window-width="1920"
   inkscape:window-height="1027"
   inkscape:window-x="-8"
   inkscape:window-y="-8"
   inkscape:window-maximized="1"
   inkscape:current-layer="Layer_1" />
<rect
   x="102.4"
   y="366.933"
   style="fill:#4d4d4d"
   width="76.8"
   height="68.267"
   id="rect5168" />
<rect
   x="179.2"
   y="366.933"
   style="fill:#E65100;"
   width="153.6"
   height="68.267"
   id="rect5170" />
<rect
   x="332.8"
   y="366.933"
   style="fill:#666666"
   width="76.8"
   height="68.267"
   id="rect5172" />
<rect
   x="102.4"
   y="162.133"
   style="fill:#999999"
   width="153.6"
   height="68.267"
   id="rect5174" />
<rect
   x="256"
   y="162.133"
   style="fill:#999999"
   width="153.6"
   height="68.267"
   id="rect5176" />
<rect
   x="256"
   y="298.667"
   style="fill:#999999"
   width="153.6"
   height="68.267"
   id="rect5178" />
<rect
   x="102.4"
   y="298.667"
   style="fill:#999999"
   width="153.6"
   height="68.267"
   id="rect5180" />
<rect
   x="102.4"
   y="230.4"
   style="fill:#999999"
   width="76.8"
   height="68.267"
   id="rect5182" />
<rect
   x="179.2"
   y="230.4"
   style="fill:#999999"
   width="153.6"
   height="68.267"
   id="rect5184" />
<rect
   x="332.8"
   y="230.4"
   style="fill:#999999"
   width="76.8"
   height="68.267"
   id="rect5186" />
<rect
   x="17.067"
   y="179.2"
   style="fill:#A1887F;"
   width="85.333"
   height="170.667"
   id="rect5188" />
<g
   id="g5194">
	<path
   style="fill:#BCAAA4;"
   d="M110.933,435.2H8.533v-76.8c3.328-3.328,5.197-5.205,8.533-8.533H102.4   c3.328,3.328,5.197,5.205,8.533,8.533V435.2z"
   id="path5190" />
	<path
   style="fill:#BCAAA4;"
   d="M503.467,435.2h-102.4v-76.8c3.328-3.328,5.197-5.205,8.533-8.533h85.333   c3.328,3.328,5.197,5.205,8.533,8.533V435.2z"
   id="path5192" />
</g>
<rect
   x="409.6"
   y="179.2"
   style="fill:#A1887F;"
   width="85.333"
   height="170.667"
   id="rect5196" />
<g
   id="g5202">
	<rect
   x="8.533"
   y="162.133"
   style="fill:#BCAAA4;"
   width="494.933"
   height="17.067"
   id="rect5198" />
	<rect
   x="8.533"
   y="93.867"
   style="fill:#BCAAA4;"
   width="494.933"
   height="17.067"
   id="rect5200" />
</g>
<rect
   x="17.067"
   y="110.933"
   style="fill:#A1887F;"
   width="477.867"
   height="51.2"
   id="rect5204" />
<path
   style="fill:#D7CCC8;"
   d="M503.467,93.867H8.533C3.823,93.867,0,90.044,0,85.333V76.8h512v8.533  C512,90.044,508.177,93.867,503.467,93.867z"
   id="path5206" />
<g
   id="g5212">
	<rect
   x="110.933"
   y="401.067"
   style="fill:#3E2723;"
   width="290.133"
   height="34.133"
   id="rect5208" />
	<path
   style="fill:#3E2723;"
   d="M170.044,357.06c-6.938,14.071-3.908,44.006,9.156,44.006h153.6   c13.065,0,16.094-29.935,9.156-44.006c-25.404,14.37-54.69,22.673-85.956,22.673C224.734,379.733,195.447,371.43,170.044,357.06z"
   id="path5210" />
</g>
<path
   style="fill:#EF6C00;"
   d="M332.8,349.867H179.2c-4.002,0-7.031,2.876-9.156,7.194c25.404,14.37,54.69,22.673,85.956,22.673  c31.266,0,60.553-8.303,85.956-22.673C339.831,352.742,336.802,349.867,332.8,349.867z"
   id="path5214" />



<g
   id="g5222">
</g>
<g
   id="g5224">
</g>
<g
   id="g5226">
</g>
<g
   id="g5228">
</g>
<g
   id="g5230">
</g>
<g
   id="g5232">
</g>
<g
   id="g5234">
</g>
<g
   id="g5236">
</g>
<g
   id="g5238">
</g>
<g
   id="g5240">
</g>
<g
   id="g5242">
</g>
<g
   id="g5244">
</g>
<g
   id="g5246">
</g>
<g
   id="g5248">
</g>
<g
   id="g5250">
</g>
</svg>
