<?xml version="1.0" encoding="UTF-8" standalone="no"?>
<!-- Generator: Adobe Illustrator 19.0.0, SVG Export Plug-In . SVG Version: 6.00 Build 0)  -->

<svg
   version="1.1"
   id="Layer_1"
   x="0px"
   y="0px"
   viewBox="0 0 512 512"
   style="enable-background:new 0 0 512 512;"
   xml:space="preserve"
   sodipodi:docname="fireplace-chimney-blue-orange.svg"
   inkscape:version="1.4.2 (f4327f4, 2025-05-13)"
   xmlns:inkscape="http://www.inkscape.org/namespaces/inkscape"
   xmlns:sodipodi="http://sodipodi.sourceforge.net/DTD/sodipodi-0.dtd"
   xmlns="http://www.w3.org/2000/svg"
   xmlns:svg="http://www.w3.org/2000/svg"><defs
   id="defs34" /><sodipodi:namedview
   id="namedview34"
   pagecolor="#ffffff"
   bordercolor="#000000"
   borderopacity="0.25"
   inkscape:showpageshadow="2"
   inkscape:pageopacity="0.0"
   inkscape:pagecheckerboard="0"
   inkscape:deskcolor="#d1d1d1"
   inkscape:zoom="1.5878906"
   inkscape:cx="183.262"
   inkscape:cy="255.68512"
   inkscape:window-width="1920"
   inkscape:window-height="1094"
   inkscape:window-x="1881"
   inkscape:window-y="1609"
   inkscape:window-maximized="1"
   inkscape:current-layer="Layer_1" />
<rect
   x="102.4"
   y="366.933"
   style="fill:#BF360C;"
   width="76.8"
   height="68.267"
   id="rect1" />
<rect
   x="179.2"
   y="366.933"
   style="fill:#E65100;"
   width="153.6"
   height="68.267"
   id="rect2" />
<rect
   x="332.8"
   y="366.933"
   style="fill:#BF360C;"
   width="76.8"
   height="68.267"
   id="rect3" />
<rect
   x="102.4"
   y="162.133"
   style="fill:#E65100;"
   width="153.6"
   height="68.267"
   id="rect4" />
<rect
   x="256"
   y="162.133"
   style="fill:#BF360C;"
   width="153.6"
   height="68.267"
   id="rect5" />
<rect
   x="256"
   y="298.667"
   style="fill:#E64A19;"
   width="153.6"
   height="68.267"
   id="rect6" />
<rect
   x="102.4"
   y="298.667"
   style="fill:#E65100;"
   width="153.6"
   height="68.267"
   id="rect7" />
<rect
   x="102.4"
   y="230.4"
   style="fill:#E64A19;"
   width="76.8"
   height="68.267"
   id="rect8" />
<rect
   x="179.2"
   y="230.4"
   style="fill:#EF6C00;"
   width="153.6"
   height="68.267"
   id="rect9" />
<rect
   x="332.8"
   y="230.4"
   style="fill:#E65100;"
   width="76.8"
   height="68.267"
   id="rect10" />
<rect
   x="17.067"
   y="179.2"
   style="fill:#A1887F;"
   width="85.333"
   height="170.667"
   id="rect11" />
<g
   id="g12">
	<path
   style="fill:#BCAAA4;"
   d="M110.933,435.2H8.533v-76.8c3.328-3.328,5.197-5.205,8.533-8.533H102.4   c3.328,3.328,5.197,5.205,8.533,8.533V435.2z"
   id="path11" />
	<path
   style="fill:#BCAAA4;"
   d="M503.467,435.2h-102.4v-76.8c3.328-3.328,5.197-5.205,8.533-8.533h85.333   c3.328,3.328,5.197,5.205,8.533,8.533V435.2z"
   id="path12" />
</g>
<rect
   x="409.6"
   y="179.2"
   style="fill:#A1887F;"
   width="85.333"
   height="170.667"
   id="rect12" />
<g
   id="g14">
	<rect
   x="8.533"
   y="162.133"
   style="fill:#BCAAA4;"
   width="494.933"
   height="17.067"
   id="rect13" />
	<rect
   x="8.533"
   y="93.867"
   style="fill:#BCAAA4;"
   width="494.933"
   height="17.067"
   id="rect14" />
</g>
<rect
   x="17.067"
   y="110.933"
   style="fill:#A1887F;"
   width="477.867"
   height="51.2"
   id="rect15" />
<path
   style="fill:#D7CCC8;"
   d="M503.467,93.867H8.533C3.823,93.867,0,90.044,0,85.333V76.8h512v8.533  C512,90.044,508.177,93.867,503.467,93.867z"
   id="path15" />
<g
   id="g16">
	<rect
   x="110.933"
   y="401.067"
   style="fill:#3E2723;"
   width="290.133"
   height="34.133"
   id="rect16" />
	<path
   style="fill:#3E2723;"
   d="M170.044,357.06c-6.938,14.071-3.908,44.006,9.156,44.006h153.6   c13.065,0,16.094-29.935,9.156-44.006c-25.404,14.37-54.69,22.673-85.956,22.673C224.734,379.733,195.447,371.43,170.044,357.06z"
   id="path16" />
</g>
<path
   style="fill:#EF6C00;"
   d="M332.8,349.867H179.2c-4.002,0-7.031,2.876-9.156,7.194c25.404,14.37,54.69,22.673,85.956,22.673  c31.266,0,60.553-8.303,85.956-22.673C339.831,352.742,336.802,349.867,332.8,349.867z"
   id="path17" />
<path
   style="fill:#FB8C00;"
   d="M304.802,298.027L304.802,298.027c-9.489-17.502-14.669-37.649-14.669-58.957  c0-14.891,2.637-29.175,7.458-42.394c-28.126,2.688-50.125,26.368-50.125,55.194c0,3.686,0.393,7.279,1.084,10.761  c-9.105-15.735-25.685-26.607-44.919-27.674c7.322,9.395,11.716,21.18,11.716,34.014c0,10.095-2.739,19.533-7.407,27.716  c-4.668,8.183-7.407,17.621-7.407,27.716c0,30.635,24.832,55.467,55.467,55.467s55.467-24.832,55.467-55.467  C311.467,314.854,309.052,305.869,304.802,298.027z"
   id="path18" />
<path
   style="fill:#5555ff"
   d="M242.953,279.057c0.085,0.085,0.179,0.162,0.265,0.247c3.721,3.473,9.711,1.28,10.837-3.686  c1.519-6.716,4.036-13.141,7.424-19.055c4.523-7.893,16.64-4.557,16.632,4.54v0.273c0,19.243,4.685,38.067,13.559,54.426  c3.174,5.879,4.864,12.544,4.864,19.268c0,22.349-18.185,40.533-40.533,40.533c-22.349,0-40.533-18.185-40.533-40.533  c0-7.04,1.877-14.054,5.427-20.284c4.821-8.439,7.364-17.98,7.364-27.588c0-0.393,0-0.785-0.009-1.178  C228.087,278.255,237.235,273.792,242.953,279.057z"
   id="path19" />
<path
   style="fill:#FFFDE7;"
   d="M283.733,347.87c0,15.317-12.416,27.733-27.733,27.733c-15.317,0-27.733-12.416-27.733-27.733  s12.416-34.671,27.733-34.671C271.317,313.199,283.733,332.553,283.733,347.87z"
   id="path20" />
<g
   id="g20">
</g>
<g
   id="g21">
</g>
<g
   id="g22">
</g>
<g
   id="g23">
</g>
<g
   id="g24">
</g>
<g
   id="g25">
</g>
<g
   id="g26">
</g>
<g
   id="g27">
</g>
<g
   id="g28">
</g>
<g
   id="g29">
</g>
<g
   id="g30">
</g>
<g
   id="g31">
</g>
<g
   id="g32">
</g>
<g
   id="g33">
</g>
<g
   id="g34">
</g>
<path
   style="fill:#0000aa;stroke-width:0.353929"
   d="m 248.12792,379.09929 c -13.66197,-2.10604 -27.71042,-10.27018 -35.63976,-20.71175 -3.81643,-5.02558 -8.32395,-14.06457 -9.68378,-19.41903 -3.77833,-14.87749 -2.05148,-27.64429 5.86882,-43.38886 3.69299,-7.34121 5.42216,-12.68838 6.41715,-19.844 1.71687,-12.34715 -1.77134,-27.09242 -8.83935,-37.36541 l -1.95235,-2.83764 h 1.95268 c 5.35143,0 16.43417,3.67333 23.11834,7.66249 4.74653,2.83275 13.2426,10.93123 16.39843,15.63102 l 2.5734,3.83241 -0.35614,-7.23119 c -0.71464,-14.51058 2.77797,-25.93476 11.38785,-37.24913 7.94349,-10.43866 22.04221,-18.87708 34.71437,-20.77739 2.7208,-0.40801 3.00392,-0.34111 2.63416,0.62245 -5.22037,13.60406 -7.94586,37.43697 -6.15511,53.82306 1.63981,15.00495 5.78903,29.51257 12.1144,42.35755 8.67111,17.60851 10.39005,29.40418 6.5234,44.76464 -2.53763,10.08081 -10.3388,21.86391 -19.05943,28.78786 -5.08198,4.03495 -14.18718,8.50899 -20.60502,10.12473 -5.86358,1.47618 -15.99812,2.05277 -21.41206,1.21819 z m 19.20787,-4.73906 c 10.47875,-3.11656 20.37354,-11.4173 25.10588,-21.06134 2.74417,-5.59233 4.49314,-12.73325 4.49314,-18.34517 0,-6.13542 -1.8244,-12.53453 -6.26082,-21.95987 -8.06439,-17.13313 -10.97318,-28.34287 -11.94939,-46.05001 -0.36999,-6.71104 -0.73576,-9.02655 -1.67996,-10.63481 -2.40862,-4.10261 -8.58947,-5.65635 -12.65056,-3.18009 -3.18719,1.94339 -7.42968,10.34103 -9.94808,19.69134 -1.20764,4.48369 -2.6049,6.49285 -5.2022,7.48034 -1.96081,0.74549 -3.62367,0.27973 -6.38115,-1.78734 -3.0097,-2.25614 -6.86431,-2.56521 -10.00162,-0.80194 -3.75151,2.10847 -4.57845,4.04778 -5.19134,12.17443 -0.71121,9.43034 -1.87179,13.60987 -6.59156,23.73785 -5.81406,12.47616 -7.00144,19.14638 -5.15688,28.96925 3.13259,16.68201 17.28458,30.37122 34.09597,32.98103 3.51551,0.54574 13.83429,-0.17739 17.31857,-1.21367 z"
   id="path34" /><path
   style="fill:#afafe9;stroke-width:0.353929"
   d="m 249.23044,374.36763 c -8.85771,-2.38517 -15.7141,-8.72916 -18.99818,-17.57837 -1.69619,-4.57053 -1.85928,-12.06663 -0.38278,-17.59458 2.5245,-9.45169 10.04507,-19.61604 17.33379,-23.42733 3.02418,-1.58135 4.143,-1.81118 8.81673,-1.81118 4.67373,0 5.79255,0.22983 8.81673,1.81118 4.95643,2.59173 10.53196,8.54654 13.69535,14.62698 3.37759,6.49215 4.62792,11.22982 4.63912,17.57821 0.0313,17.75339 -16.9478,30.96552 -33.92076,26.39509 z"
   id="path35" /><path
   style="fill:#afafe9;stroke-width:0.353929"
   d="m 179.79828,264.50185 v -34.00739 h 35.83413 35.83412 l -1.46671,4.33525 c -2.06522,6.10425 -3.05464,13.76051 -2.62842,20.33912 l 0.3618,5.58452 -2.70115,-3.63621 c -7.6622,-10.31465 -18.40915,-17.47926 -31.0394,-20.69285 -3.39337,-0.8634 -7.07588,-1.48809 -8.18335,-1.3882 l -2.01357,0.18162 2.20826,3.46372 c 10.62278,16.66206 11.87981,36.18243 3.49825,54.32427 l -2.54263,5.50353 h -13.58067 -13.58066 z"
   id="path36" /><path
   style="fill:#afafe9;stroke-width:0.353929"
   d="m 302.7591,293.31365 c -8.11127,-16.72809 -12.08757,-34.20067 -12.11042,-53.21525 l -0.0115,-9.60394 h 20.78228 20.78229 v 34.00739 34.00738 h -13.46167 -13.46167 z"
   id="path37" /><path
   style="fill:#5555ff;stroke-width:0.353929"
   d="m 111.15375,362.25487 v -4.26912 l -4.09348,-4.05709 -4.09348,-4.0571 v -25.36628 -25.36629 h 51.57347 51.57346 l -1.88105,4.84432 c -2.69834,6.9491 -3.70055,12.56454 -3.70055,20.73454 0,7.93525 1.38699,15.16974 4.07255,21.24227 l 1.57448,3.56018 h -14.16018 c -16.42095,0 -17.55651,0.29536 -20.97449,5.45556 -1.92771,2.91031 -3.84153,8.09296 -3.84153,10.4029 0,1.08997 -1.35221,1.14523 -28.0246,1.14523 h -28.0246 z"
   id="path38" /><path
   style="fill:#5555ff;stroke-width:0.353929"
   d="m 344.52009,363.72342 c -0.60921,-4.06251 -3.86255,-10.15515 -6.49593,-12.16518 l -2.25744,-1.72306 -14.95901,-0.18894 -14.95901,-0.18893 1.56056,-3.52869 c 2.67201,-6.04189 4.05862,-13.28845 4.05862,-21.21077 0,-8.17 -1.00221,-13.78544 -3.70055,-20.73454 l -1.88105,-4.84432 h 51.57346 51.57347 v 25.36629 25.36628 l -4.09348,4.0571 -4.09348,4.05709 v 4.26912 4.26912 h -27.9531 -27.95309 z"
   id="path39" /><path
   style="fill:#5555ff;stroke-width:0.353929"
   d="M 102.96679,204.67405 V 179.48339 H 179.48339 256 v 21.0755 21.07549 l -2.26198,4.11516 -2.26197,4.11516 h -74.25463 -74.25463 z"
   id="path40" /><path
   style="fill:#000080;stroke-width:0.353929"
   d="m 291.01673,226.87331 c 0.93511,-7.86871 2.4618,-15.6194 4.42197,-22.44946 1.18265,-4.12089 2.01854,-7.62425 1.85753,-7.78527 -0.59233,-0.59233 -8.77033,1.21217 -13.89134,3.06517 -9.05356,3.27596 -20.11509,11.68979 -25.99105,19.7698 l -1.37394,1.8893 L 256.02,200.42312 256,179.48339 h 76.51661 76.5166 v 25.19066 25.19065 h -59.18598 -59.18599 z"
   id="path41" /><path
   style="fill:#000080;stroke-width:0.353929"
   d="m 111.15375,383.84256 v -16.68881 h 27.78371 27.78371 l -0.42802,4.56761 c -0.91286,9.74154 1.71165,21.01392 6.03657,25.92728 l 2.53747,2.88273 h -31.85672 -31.85672 z"
   id="path42" /><path
   style="fill:#0000ff;stroke-width:0.353929"
   d="m 339.67028,397.64864 c 4.32492,-4.91336 6.94943,-16.18574 6.03657,-25.92728 l -0.42802,-4.56761 h 27.78371 27.78371 v 16.68881 16.68881 h -31.85672 -31.85672 z"
   id="path43" /><path
   style="fill:#0000ff;stroke-width:0.353929"
   d="m 102.96679,264.50185 v -34.00739 h 38.10086 38.10086 v 34.00739 34.00738 h -38.10086 -38.10086 z"
   id="path44" /><path
   style="fill:#0000ff;stroke-width:0.353929"
   d="m 332.83149,264.50185 v -34.00739 h 38.10086 38.10086 v 34.00739 34.00738 h -38.10086 -38.10086 z"
   id="path45" /><path
   style="fill:#0000ff;stroke-width:0.353929"
   d="m 236.47724,378.41037 c -12.82023,-1.48074 -28.74615,-5.27689 -40.70805,-9.70328 -3.41525,-1.26378 -10.56138,-4.3939 -15.88029,-6.95583 l -9.67076,-4.65804 1.28721,-2.05461 c 2.82776,-4.51357 2.93378,-4.5395 19.98895,-4.88855 10.90389,-0.22316 15.3855,-0.11434 15.38485,0.37356 -0.002,1.26656 6.41746,9.84607 10.11944,13.52513 6.31171,6.27262 13.00317,10.30713 21.99772,13.26316 5.60563,1.84227 5.25282,1.99611 -2.51907,1.09846 z"
   id="path46" /><path
   style="fill:#ff7f2a;stroke-width:0.353929"
   d="m 271.11439,378.08689 c 12.65142,-3.47686 26.52409,-14.20944 32.79978,-25.37552 l 1.43953,-2.56131 h 14.32766 c 7.92937,0 15.05983,0.27837 15.96721,0.62335 1.68644,0.64119 4.39995,3.23522 5.4661,5.22543 0.52935,0.98813 -0.57366,1.69224 -9.03569,5.76799 -11.351,5.46724 -19.1187,8.42652 -30.01791,11.43601 -8.37985,2.31385 -22.57479,4.91224 -30.00203,5.4919 l -4.40836,0.34405 z"
   id="path47" /><path
   style="fill:#ff6600;stroke-width:0.353929"
   d="m 231.84414,377.47656 c -13.53544,-2.11095 -30.30367,-6.65623 -40.36685,-10.94205 -9.093,-3.87264 -20.49574,-9.34314 -20.49574,-9.83291 0,-1.43356 3.44684,-4.6904 5.52749,-5.22279 2.99159,-0.76548 25.82244,-1.60654 28.2343,-1.04012 1.31831,0.30961 2.4276,1.40541 4.02419,3.97522 2.97793,4.79321 13.32267,15.0769 17.82053,17.71536 2.00793,1.17786 5.97546,3.07885 8.81672,4.22442 5.61809,2.26516 5.00451,2.45866 -3.56064,1.12287 z"
   id="path48" /><path
   style="fill:#aa4400;stroke-width:0.353929"
   d="m 237.04735,370.44929 c -9.77101,-5.8118 -15.69611,-12.94228 -19.22259,-23.13318 -1.48964,-4.30478 -1.74486,-6.04647 -1.75333,-11.96556 -0.0115,-8.04837 0.93584,-11.90208 4.79932,-19.52275 4.96726,-9.79788 7.41635,-18.27844 7.42305,-25.70415 0.005,-5.2445 1.00586,-8.50887 3.25347,-10.60844 3.34027,-3.12028 7.63298,-3.14178 11.2999,-0.0566 3.53371,2.97311 8.60889,2.05184 10.75151,-1.95168 0.34696,-0.64831 1.18914,-3.20203 1.87151,-5.67494 1.60988,-5.83426 6.19096,-15.41599 8.29008,-17.33943 2.30305,-2.11032 6.95306,-2.47624 9.68153,-0.76187 3.66395,2.30217 4.12076,3.66356 4.68242,13.95476 0.90315,16.54816 4.5285,30.48044 11.87172,45.62328 5.09886,10.51463 5.94464,13.65701 5.93264,22.04182 -0.008,5.91901 -0.26358,7.65995 -1.75241,11.95952 -3.31914,9.58534 -9.59005,17.39609 -17.95767,22.3672 -5.46587,3.24721 -6.73866,3.21945 -2.59416,-0.0566 3.78425,-2.99128 7.80245,-8.87901 9.1732,-13.44119 4.23806,-14.10527 -4.66864,-34.63286 -17.83132,-41.09647 -3.10214,-1.52332 -4.37037,-1.77429 -8.96622,-1.77429 -4.69895,0 -5.80848,0.23078 -9.08063,1.8887 -13.23545,6.70611 -21.95515,26.87619 -17.71691,40.98206 1.37075,4.56218 5.38895,10.44991 9.1732,13.44119 3.70744,2.93056 2.97438,3.38785 -1.32831,0.82861 z"
   id="path49" /><path
   style="fill:#ff6600;stroke-width:0.353929"
   d="m 243.80752,377.85664 c -2.72259,-0.69351 -7.30602,-2.36491 -10.1854,-3.71424 -12.89404,-6.04235 -20.6914,-13.66288 -26.77972,-26.1724 -4.17233,-8.57279 -5.22896,-13.24759 -5.27217,-23.32547 -0.0423,-9.87323 1.19559,-15.15072 6.04083,-25.75328 6.94878,-15.20562 8.51597,-21.75352 7.90057,-33.00954 -0.54517,-9.97158 -3.83729,-20.00962 -9.26365,-28.24595 l -1.31129,-1.99032 2.70263,0.30033 c 4.20136,0.46688 12.93529,3.2705 17.80692,5.71608 7.40645,3.71807 14.76693,10.2024 20.241,17.83161 l 2.44068,3.40157 0.38619,-11.00471 c 0.31203,-8.89152 0.65579,-11.85123 1.79018,-15.41308 3.34644,-10.50737 10.70802,-21.26411 18.69382,-27.31538 7.48438,-5.67132 20.53295,-11.41524 25.93221,-11.41524 1.17902,0 1.4168,0.24127 1.08617,1.10209 -1.1326,2.94874 -3.01962,10.66935 -4.27138,17.47601 -1.20067,6.5289 -1.38902,9.74233 -1.38417,23.61624 0.005,14.97256 0.11727,16.57033 1.65597,23.61624 2.25472,10.32472 5.63027,20.4703 9.94391,29.88744 4.534,9.89821 6.58476,15.55923 7.84272,21.64939 3.58716,17.36656 -2.85448,36.07834 -17.04412,49.51002 -4.26985,4.04177 -6.52991,5.58916 -12.3343,8.4449 -9.20315,4.52792 -12.807,5.42701 -23.16559,5.77939 -7.099,0.2415 -9.31864,0.0812 -13.45201,-0.9717 z m 19.95864,-2.53314 c 8.1876,-1.18372 18.32323,-7.23274 24.0399,-14.3472 6.51094,-8.10291 9.43235,-17.17448 8.96238,-27.82993 -0.32159,-7.29131 -1.04107,-9.62522 -7.57145,-24.56088 -6.55421,-14.99018 -8.62554,-23.32212 -10.14103,-40.79245 -0.6304,-7.26723 -1.19201,-10.71117 -1.93046,-11.83818 -1.69967,-2.59404 -4.69105,-4.04336 -8.35082,-4.04599 -2.78484,-0.002 -3.62652,0.29807 -5.53407,1.97292 -2.69315,2.36462 -6.47573,9.96394 -8.79666,17.67275 -1.25544,4.16985 -2.1054,5.862 -3.5587,7.08487 -2.45423,2.0651 -3.61384,2.02252 -7.69848,-0.28271 -4.22437,-2.38408 -8.07756,-2.53874 -11.1822,-0.44881 -3.02384,2.03553 -3.79678,4.09603 -4.73031,12.61011 -1.00273,9.14512 -1.94092,12.53614 -6.04307,21.84229 -5.07319,11.50908 -5.64763,13.50413 -5.98496,20.78608 -0.47477,10.24873 2.00835,18.49386 7.99636,26.55165 4.97579,6.69569 14.33878,13.09382 22.39607,15.30419 3.74449,1.02723 12.20718,1.17723 18.1275,0.32129 z"
   id="path50" /><path
   style="fill:#0000ff;stroke-width:0.353929"
   d="m 234.61431,368.43461 c -7.20913,-4.78259 -13.11504,-12.31865 -16.17793,-20.64338 -1.62153,-4.40719 -1.79618,-5.65125 -1.79066,-12.75556 0.007,-8.84778 0.17708,-9.52755 5.046,-20.15252 4.39745,-9.59612 5.89415,-14.70033 6.64615,-22.66541 0.78606,-8.32581 1.90725,-11.5203 4.63505,-13.20617 2.8892,-1.78563 5.76665,-1.60223 9.4871,0.60467 3.52474,2.0908 5.80054,2.34155 8.51446,0.93813 2.24843,-1.16271 2.67673,-1.93751 4.99847,-9.04232 2.37434,-7.26577 6.44591,-15.33547 8.58743,-17.02 2.50385,-1.96953 7.11984,-1.8284 9.64315,0.29483 2.46761,2.07636 3.03196,4.28539 3.84945,15.06798 1.20455,15.88793 4.12119,26.88459 11.41569,43.04076 5.43893,12.0464 6.42499,16.01543 6.04803,24.34423 -0.22812,5.04031 -0.65789,7.24769 -2.15253,11.056 -3.24402,8.26567 -8.65238,15.14391 -15.62883,19.87641 -3.96398,2.68899 -4.83631,2.72173 -2.22687,0.0836 7.00567,-7.08275 9.6499,-15.08944 8.19702,-24.82043 -1.78662,-11.96617 -8.68606,-22.83468 -17.95332,-28.2814 -2.90639,-1.7082 -3.60746,-1.84528 -9.43729,-1.84528 -5.34292,0 -6.75462,0.22501 -9.31184,1.48419 -9.13752,4.49932 -17.08177,16.72381 -18.81,28.94455 -1.26713,8.96015 1.0411,16.43452 7.13411,23.10125 3.56591,3.90168 3.38234,4.31267 -0.71284,1.59589 z"
   id="path51" /><path
   style="fill:#ff6600;stroke-width:0.353929"
   d="m 102.96679,264.50185 v -34.00739 h 38.10086 38.10086 v 34.00739 34.00738 h -38.10086 -38.10086 z"
   id="path52" /><path
   style="fill:#ff6600;stroke-width:0.353929"
   d="m 332.83149,264.50185 v -34.00739 h 38.10086 38.10086 v 34.00739 34.00738 h -38.10086 -38.10086 z"
   id="path53" /><path
   style="fill:#d45500;stroke-width:0.353929"
   d="m 340.02461,397.71907 c 4.24265,-5.55817 6.28905,-13.91731 5.9344,-24.24083 l -0.21731,-6.32572 27.55227,6.2e-4 27.55228,6.1e-4 v 16.68881 16.68881 h -31.48416 -31.48415 z"
   id="path54" /><path
   style="fill:#d45500;stroke-width:0.353929"
   d="m 291.26691,228.08637 c 0,-3.07815 1.93002,-13.32839 4.15491,-22.06654 1.17851,-4.62858 2.14276,-8.66696 2.14276,-8.97417 0,-1.97586 -12.72461,1.28319 -20.20511,5.17497 -5.81939,3.02758 -14.37478,9.81924 -18.05273,14.33108 l -2.67697,3.28391 -0.003,-12.14659 c -0.001,-6.68063 -0.18683,-15.75988 -0.41207,-20.17611 l -0.40951,-8.02953 h 76.61379 76.61379 v 25.19066 25.19065 h -58.88315 -58.88315 z"
   id="path55" /><path
   style="fill:#d45500;stroke-width:0.353929"
   d="m 111.15375,383.84256 v -16.68881 h 27.57454 27.57453 l -0.25133,6.25755 c -0.40988,10.20472 1.66846,18.73284 5.9239,24.30777 l 2.14667,2.8123 h -31.48415 -31.48416 z"
   id="path56" /><path
   style="fill:#ff7f2a;stroke-width:0.353929"
   d="m 102.96679,204.67664 v -25.19325 h 76.11612 76.11612 l 0.40049,2.92185 C 255.81978,184.01226 256,193.3213 256,203.09201 v 17.76492 l -2.3758,4.34644 -2.3758,4.34645 -74.1408,0.16003 -74.14081,0.16003 z"
   id="path57" /><path
   style="fill:#ff7f2a;stroke-width:0.353929"
   d="m 345.17931,365.52783 c -0.21024,-0.54789 -0.38226,-1.38744 -0.38226,-1.86567 0,-2.30727 -2.88446,-8.11438 -5.44523,-10.96257 l -2.85845,-3.17929 -12.69441,-0.007 c -6.98193,-0.004 -13.74616,-0.1808 -15.03164,-0.39332 -2.29097,-0.37875 -2.3204,-0.41912 -1.48688,-2.03981 3.24099,-6.30174 5.04278,-18.84933 4.11495,-28.65632 -0.46088,-4.87137 -2.64698,-13.30739 -4.79349,-18.49771 -0.25889,-0.62599 10.19634,-0.78721 51.05288,-0.78721 h 51.37843 v 25.0514 25.05141 l -4.09348,4.05709 -4.09348,4.0571 v 4.584 4.584 h -27.64234 c -24.62525,0 -27.68406,-0.10873 -28.0246,-0.99616 z"
   id="path58" /><path
   style="fill:#de8787;stroke-width:0.353929"
   d="m 111.15375,361.93999 v -4.584 l -4.09348,-4.0571 -4.09348,-4.05709 v -25.05141 -25.0514 h 51.37843 c 40.85654,0 51.31177,0.16122 51.05288,0.78721 -6.67159,16.13213 -6.72017,33.66951 -0.13432,48.492 0.45814,1.03113 -0.40599,1.1021 -13.41982,1.1021 -16.66684,0 -17.61841,0.24107 -20.95599,5.30913 -1.22441,1.85924 -2.58212,4.75517 -3.01714,6.43541 -0.43503,1.68023 -0.87852,3.36348 -0.98554,3.74055 -0.24105,0.8493 -17.70439,1.51434 -39.82994,1.51681 l -15.9016,0.002 z"
   id="path59" /><path
   style="fill:#ff7f2a;stroke-width:0.353929"
   d="m 111.15375,361.6251 v -4.89888 l -4.09348,-4.05709 -4.09348,-4.0571 v -24.8401 -24.8401 l 50.8063,0.42362 c 27.94347,0.23299 50.87317,0.49215 50.9549,0.5759 0.0817,0.0838 -0.55141,2.23671 -1.40698,4.78433 -0.85557,2.54762 -2.01272,7.79042 -2.57143,11.65067 -1.30999,9.0509 -0.52213,18.38049 2.25023,26.64644 1.02616,3.05957 1.77914,5.65361 1.67328,5.76454 -0.10586,0.11092 -6.10025,0.35105 -13.32086,0.53362 -7.2206,0.18256 -14.19753,0.6004 -15.50428,0.92853 -2.95951,0.74313 -6.26597,4.97216 -7.8082,9.98684 -0.58587,1.90505 -1.4167,3.85646 -1.84627,4.33648 -0.61854,0.69118 -5.21338,0.97829 -22.08504,1.37999 -11.71721,0.27898 -23.92541,0.52388 -27.12935,0.54422 l -5.82534,0.037 z"
   id="path61" /><path
   style="fill:#3737c8;stroke-width:0.353929"
   d="m 229.00855,362.90283 c -8.82686,-8.88035 -12.05661,-16.33764 -12.05055,-27.82402 0.004,-7.92385 0.3688,-9.41547 4.71342,-19.28213 4.39829,-9.98855 5.73782,-14.50178 6.95107,-23.41994 0.55426,-4.07412 1.56061,-8.56833 2.23636,-9.98714 2.05316,-4.3109 5.95393,-5.16059 11.28629,-2.45848 5.85377,2.96633 10.49021,1.72632 12.31205,-3.29286 7.32535,-20.1813 10.46447,-24.50997 16.58022,-22.86317 4.64324,1.25029 5.4048,3.09549 6.70925,16.25597 1.70943,17.24634 4.02429,25.91736 11.63766,43.59256 4.94389,11.47771 5.66119,14.18845 5.66119,21.39404 0,11.42915 -3.31139,19.08952 -12.05406,27.88517 -3.0125,3.03075 -5.77929,5.51045 -6.14843,5.51045 -0.36914,0 0.46031,-1.48782 1.84323,-3.30627 7.15423,-9.40741 7.45461,-21.94106 0.84238,-35.14964 -3.30673,-6.6055 -8.96267,-12.72002 -14.16324,-15.31157 -2.80333,-1.39696 -4.14652,-1.65141 -8.70183,-1.64844 -6.91664,0.005 -9.17425,0.66912 -13.77315,4.05464 -8.57243,6.31066 -15.22989,19.96803 -15.22989,31.24317 0,7.11237 1.96801,12.04022 7.7201,19.33091 0.42426,0.53774 0.38089,0.7872 -0.13686,0.7872 -0.41687,0 -3.22271,-2.4797 -6.23521,-5.51045 z"
   id="path62" /><path
   style="fill:#6600ff;stroke-width:0.353929"
   d="m 248.1197,373.57814 c -10.04218,-3.4725 -17.07705,-11.6805 -18.64547,-21.75478 -1.57296,-10.10346 2.91139,-22.14256 11.41526,-30.64643 5.04695,-5.04695 9.09623,-6.92355 14.93951,-6.92355 2.72816,0 5.56693,0.39573 6.93287,0.96646 9.16125,3.82781 17.90284,16.21932 19.72449,27.96016 2.06635,13.3179 -5.76982,26.18362 -18.56903,30.48737 -4.08431,1.37335 -11.69224,1.33038 -15.79763,-0.0892 z"
   id="path63" /><path
   style="fill:#6600ff;stroke-width:0.353929"
   d="m 179.79828,264.50185 v -34.00739 h 35.64917 c 33.69301,0 35.62594,0.0605 35.22587,1.1021 -1.99828,5.20253 -3.01709,10.79894 -3.39003,18.62169 l -0.4149,8.70287 -3.14883,-3.95358 c -6.82983,-8.57535 -18.58459,-16.06116 -29.54232,-18.81349 -4.57517,-1.14918 -10.44784,-1.67975 -10.44784,-0.94392 0,0.16902 1.42519,2.79042 3.1671,5.82534 4.83118,8.41734 6.99129,15.78374 7.38524,25.18511 0.43859,10.46663 -0.66102,16.03532 -5.34988,27.09307 l -2.2031,5.19558 h -13.46524 -13.46524 z"
   id="path64" /><path
   style="fill:#6600ff;stroke-width:0.353929"
   d="m 302.53319,291.8721 c -7.62885,-16.17314 -10.69958,-29.88305 -11.59621,-51.7737 l -0.39337,-9.60394 h 20.82906 20.82905 v 34.00739 34.00738 h -13.26891 -13.2689 z"
   id="path65" /><path
   style="fill:#6600ff;stroke-width:0.353929"
   d="m 340.62643,397.40882 c 3.824,-5.55912 4.91202,-9.82446 5.26774,-20.65113 l 0.31556,-9.60394 h 27.31826 27.31826 v 16.68881 16.68881 H 369.66237 338.4785 Z"
   id="path66" /><path
   style="fill:#6600ff;stroke-width:0.353929"
   d="m 111.15375,383.84256 v -16.68881 h 27.31826 27.31826 l 0.31148,9.60394 c 0.34984,10.78665 1.31843,14.58502 5.21923,20.4674 l 2.1925,3.30628 h -31.17986 -31.17987 z"
   id="path67" /><path
   style="fill:#ff7f2a;stroke-width:0.353929"
   d="m 302.74904,291.42435 c -7.95517,-17.67918 -10.4544,-29.51097 -11.70626,-55.41943 l -0.26625,-5.51046 h 20.71259 20.7126 v 34.00739 34.00738 h -13.13233 -13.13234 z"
   id="path68" /><path
   style="fill:#ff7f2a;stroke-width:0.353929"
   d="m 179.79828,264.40439 v -34.10483 l 35.00011,0.35546 c 19.25006,0.1955 35.10064,0.45597 35.22349,0.57883 0.12286,0.12286 -0.32055,2.18497 -0.98536,4.58247 -0.96902,3.49458 -2.48301,16.31029 -2.48301,21.01826 0,0.55726 -0.96071,-0.15581 -2.26875,-1.68397 -8.15724,-9.5299 -18.78498,-16.31276 -30.23093,-19.29405 -4.19114,-1.09165 -10.32443,-1.27263 -10.32443,-0.30465 0,0.357 1.10195,2.59372 2.44879,4.9705 6.05432,10.68416 7.84354,17.99967 7.48213,30.59198 -0.22442,7.81939 -0.47269,9.45787 -2.19476,14.48463 -1.06794,3.11734 -2.66308,7.29741 -3.54475,9.28905 l -1.60304,3.62116 h -13.25974 -13.25975 z"
   id="path69" /><path
   style="fill:#d45500;stroke-width:0.353929"
   d="m 102.96667,204.51661 1.2e-4,-25.03322 h 75.8444 c 71.69575,0 75.86122,0.0603 76.15196,1.1021 0.16916,0.60615 0.49963,9.65094 0.73439,20.09954 l 0.42682,18.99745 -2.37708,4.52359 c -1.3074,2.48798 -2.68151,4.6276 -3.05357,4.7547 -0.37207,0.1271 -33.76289,0.31164 -74.20182,0.41007 l -73.52533,0.17898 z"
   id="path70" /><path
   style="fill:#5f5fd3;stroke-width:0.353929"
   d="m 304.39864,294.2583 c -8.81659,-19.41909 -11.56079,-31.29212 -12.88181,-55.73431 l -0.43397,-8.02953 h 20.55943 20.55943 v 34.00739 34.00738 h -12.93655 -12.93654 z"
   id="path71" /><path
   style="fill:#5f5fd3;stroke-width:0.353929"
   d="m 179.79828,264.50529 v -34.00394 l 31.64575,0.33808 c 35.52251,0.37951 38.53777,0.53745 37.98057,1.98951 -0.77875,2.02937 -2.2973,12.0671 -2.67116,17.65647 l -0.38936,5.82121 -5.25357,-5.04365 c -10.66394,-10.23781 -23.21386,-16.36014 -33.53598,-16.36014 -2.96953,0 -3.84513,0.21158 -3.84513,0.92914 0,0.51103 1.39321,3.55753 3.09603,6.76999 4.9249,9.29109 5.84604,12.97301 6.19382,24.7574 0.34019,11.52735 -0.0831,13.92417 -4.35245,24.64282 l -2.5918,6.50705 h -13.13836 -13.13836 z"
   id="path72" /><path
   style="fill:#ddff55;stroke-width:0.353929"
   d="m 246.76182,372.61736 c -7.64861,-3.21998 -13.48599,-9.40005 -16.00899,-16.94882 -3.33757,-9.98593 0.55388,-23.42194 9.61965,-33.21381 5.42919,-5.86402 9.06436,-7.64155 15.62752,-7.64155 6.56317,0 10.19834,1.77753 15.62753,7.64155 7.97461,8.61331 11.93395,19.54458 10.48117,28.93728 -1.32743,8.58223 -6.91942,16.32933 -14.65771,20.30667 -3.51712,1.80773 -4.53347,2.02167 -10.50634,2.21154 -5.83629,0.18552 -7.03166,0.0337 -10.18283,-1.29286 z"
   id="path1" /><path
   style="fill:#0000ff;stroke-width:0.353929"
   d="m 243.80923,377.53948 c -8.93628,-2.51109 -18.65001,-7.7653 -24.68403,-13.35173 -4.66361,-4.31768 -8.41153,-9.49345 -11.84555,-16.35837 -4.06092,-8.11815 -5.12467,-12.87448 -5.12467,-22.91401 0,-10.3568 1.03181,-14.98252 5.72247,-25.65472 6.6714,-15.17874 8.64737,-23.54909 7.88882,-33.41754 -0.65158,-8.4769 -2.63193,-15.69891 -6.32499,-23.06618 -3.82856,-7.63761 -4.00364,-7.44053 4.45137,-5.01072 13.32942,3.83062 22.48957,10.18487 31.16651,21.61972 1.85437,2.44378 3.15512,3.67636 3.32295,3.14883 0.15168,-0.47678 0.43196,-5.40118 0.62283,-10.94312 0.40897,-11.87447 0.82073,-13.85398 4.49765,-21.62209 4.41116,-9.3193 10.56949,-16.93242 17.52735,-21.66784 7.40131,-5.03724 18.64315,-9.92532 22.8267,-9.92532 h 2.07765 l -0.90968,2.57831 c -0.50033,1.41808 -1.69218,6.16494 -2.64857,10.54859 -1.69989,7.79151 -1.73884,8.42933 -1.73653,28.43767 l 0.002,20.46741 2.30195,8.50184 c 2.48798,9.18896 5.53379,17.57631 10.51995,28.96925 5.28533,12.07651 6.58272,17.25325 6.62894,26.45019 0.0461,9.16729 -0.95948,13.8498 -4.71224,21.94327 -3.28762,7.0903 -6.9808,12.09798 -13.412,18.18565 -4.34183,4.10989 -6.64234,5.71082 -11.86081,8.25395 -9.62056,4.68841 -11.92695,5.23861 -23.16302,5.52567 -7.39963,0.18905 -10.57772,0.02 -13.13542,-0.69871 z m 22.89691,-2.54013 c 12.25237,-3.19134 23.8755,-13.83795 28.03871,-25.68302 2.56338,-7.2933 3.05123,-17.56193 1.17212,-24.6718 -0.36617,-1.38548 -2.7632,-7.53302 -5.32671,-13.6612 -7.82719,-18.71115 -8.94447,-22.92934 -11.05259,-41.7279 -0.70104,-6.25137 -1.6078,-12.06404 -2.01501,-12.91703 -2.13041,-4.46272 -10.3383,-6.07783 -14.23294,-2.80071 -2.66861,2.24549 -5.81441,8.14524 -8.53256,16.00229 -2.43355,7.03436 -4.57178,10.07626 -7.08288,10.07626 -0.81264,0 -2.87566,-0.70849 -4.58449,-1.57442 -5.60887,-2.84223 -11.84419,-1.66315 -14.08118,2.6627 -0.50448,0.97557 -1.48728,5.73505 -2.18399,10.57663 -1.29539,9.00194 -2.23781,12.0784 -7.90534,25.80619 -4.41777,10.70062 -5.16705,19.35652 -2.54988,29.45655 2.71355,10.47192 10.48458,19.73616 21.34004,25.44055 2.41983,1.27158 5.54138,2.66968 6.93677,3.10688 3.70327,1.1603 17.47253,1.1029 22.05993,-0.092 z"
   id="path2" /><path
   style="fill:#d4ff2a;stroke-width:0.353929"
   d="m 228.10965,361.19853 c -8.44396,-8.92046 -11.28821,-16.59698 -10.71713,-28.92513 0.24826,-5.35947 0.55994,-6.46941 4.70646,-16.76048 4.79289,-11.89527 5.30004,-13.5922 6.77567,-22.67159 1.32127,-8.12968 2.09186,-10.60555 3.84719,-12.36088 1.89171,-1.89171 5.35599,-1.9779 9.42331,-0.23444 1.6161,0.69274 4.27882,1.25953 5.91716,1.25953 3.96848,0 5.69191,-1.84261 8.24644,-8.81673 3.03745,-8.29256 6.7082,-15.44256 8.85583,-17.24967 2.19818,-1.84965 4.07324,-2.04961 7.153,-0.7628 2.95923,1.23645 3.85197,4.13786 5.44543,17.69759 1.74574,14.85566 3.91206,23.02044 10.35971,39.04551 6.27904,15.60599 6.89403,18.10767 6.42204,26.12399 -0.58647,9.96052 -3.26186,15.90026 -10.67875,23.70832 -4.47605,4.71212 -6.17914,5.71739 -3.63638,2.14641 4.44108,-6.23692 5.41524,-17.41557 2.33444,-26.78807 -3.20192,-9.74098 -10.3047,-18.96578 -17.00503,-22.08544 -2.76236,-1.28615 -4.22496,-1.51849 -9.55904,-1.51849 -5.39193,0 -6.78295,0.22591 -9.67197,1.57081 -6.70605,3.12181 -13.61532,12.12324 -16.91207,22.03312 -1.37072,4.1203 -1.6832,6.24279 -1.71525,11.65068 -0.0351,5.92419 0.13892,6.99279 1.67181,10.26533 0.94105,2.00903 2.31786,4.50506 3.05959,5.54671 2.64525,3.71492 0.67393,2.40406 -4.32246,-2.87428 z"
   id="path3" /><path
   style="fill:#ff6600;stroke-width:0.353929"
   d="m 245.23173,371.30176 c -11.56498,-5.822 -17.3594,-17.91308 -14.47517,-30.205 2.26147,-9.63785 10.11736,-20.64201 17.21567,-24.11489 4.61907,-2.2599 10.87839,-2.41238 15.40689,-0.37531 8.76641,3.94342 17.49312,17.43739 18.54217,28.67148 0.41071,4.39821 -0.76708,10.06941 -3.00034,14.44697 -1.90211,3.72844 -7.52235,9.4177 -11.42853,11.56889 -3.00528,1.65504 -3.96313,1.84024 -10.54777,2.03939 -7.23771,0.21891 -7.24515,0.21762 -11.71292,-2.03153 z"
   id="path4" /><path
   style="fill:#e5ff80;stroke-width:0.353929"
   d="m 227.36534,359.78287 c -4.18581,-4.65613 -6.62741,-8.84543 -8.28121,-14.20892 -1.1133,-3.61056 -1.27377,-5.43768 -1.05089,-11.96556 l 0.26305,-7.70433 4.47403,-11.33579 c 3.15407,-7.99143 4.86239,-13.37957 5.79038,-18.26322 2.40523,-12.65773 2.61149,-13.4078 4.14082,-15.05797 1.78899,-1.93035 5.68433,-2.21634 9.34649,-0.68619 1.24347,0.51956 3.84152,0.94465 5.77343,0.94465 4.38599,0 5.634,-1.11172 8.13023,-7.24231 3.62717,-8.90817 7.9241,-17.23006 9.56166,-18.51816 3.25419,-2.55975 7.7417,-1.24334 9.41522,2.76195 0.46593,1.11514 1.58937,7.37042 2.49653,13.90063 2.10745,15.17052 4.1164,22.86005 9.94531,38.06714 6.15455,16.05665 6.73048,18.13381 6.73048,24.27435 0,7.02908 -0.86565,11.14399 -3.43859,16.34558 -1.76825,3.57479 -9.02022,12.83147 -9.1275,11.65067 -0.0157,-0.17318 0.59326,-1.87355 1.35334,-3.77859 1.15113,-2.88522 1.38335,-4.7259 1.39039,-11.02092 0.007,-6.57365 -0.20566,-8.1524 -1.63666,-12.13053 -3.32276,-9.23718 -10.84531,-18.76819 -17.02815,-21.57455 -2.13065,-0.96709 -4.1191,-1.22087 -9.6137,-1.22696 -8.78298,-0.01 -11.54169,1.13026 -17.07607,7.05643 -4.31185,4.6171 -6.97557,8.92704 -9.48433,15.34579 -1.52205,3.89422 -1.70162,5.18863 -1.73824,12.52982 -0.0389,7.80072 0.0429,8.34591 1.73336,11.55586 0.97581,1.85289 1.64769,3.4954 1.49307,3.65002 -0.15462,0.15462 -1.75772,-1.36138 -3.56245,-3.36889 z"
   id="path5" /><path
   style="fill:#ff9955;stroke-width:0.353929"
   d="m 305.05145,294.88807 c -8.95646,-19.91127 -11.8441,-32.29679 -13.21448,-56.67896 l -0.4336,-7.71464 h 20.24174 20.24173 v 34.00738 34.00738 h -12.60326 -12.60327 z"
   id="path6" /><path
   style="fill:#ff9955;stroke-width:0.353929"
   d="m 180.11264,264.65929 -5.2e-4,-33.84994 32.59093,0.37647 c 17.92501,0.20705 33.46157,0.57275 34.5257,0.81265 l 1.93478,0.43619 -0.8026,3.89468 c -0.44143,2.14207 -1.14203,7.16088 -1.55689,11.15291 -0.41485,3.99202 -0.84774,7.37056 -0.96196,7.50785 -0.11423,0.1373 -2.30289,-1.74061 -4.86371,-4.17313 -7.71527,-7.32876 -16.96035,-12.90078 -24.74455,-14.91358 -4.92337,-1.27306 -12.8193,-1.36489 -12.8193,-0.14909 0,0.46831 1.57556,4.06178 3.50126,7.9855 4.46033,9.0882 5.25204,12.21634 5.73435,22.65711 0.48914,10.58874 -0.2157,14.92305 -4.0171,24.70263 l -2.88021,7.40969 h -12.81983 -12.81983 z"
   id="path7" /><path
   style="fill:#ff9955;stroke-width:0.353929"
   d="m 111.46864,383.84256 v -16.6888 h 26.98204 26.98204 l 0.38291,9.28905 c 0.4293,10.4146 1.65307,15.55205 4.83794,20.30996 1.04336,1.55868 1.89822,3.0465 1.8997,3.30628 0.001,0.25978 -13.74195,0.47232 -30.54097,0.47232 h -30.54366 z"
   id="path8" /><path
   style="fill:#d45500;stroke-width:0.353929"
   d="m 339.44404,400.29279 c 0,-0.13122 0.99851,-1.89678 2.21891,-3.92346 1.22041,-2.02668 2.50919,-4.76284 2.86396,-6.08036 0.96367,-3.57879 1.83438,-12.06909 1.83978,-17.93964 l 0.005,-5.19557 h 27.07995 27.07995 v 16.6888 16.68881 h -30.54366 c -16.79902,0 -30.54367,-0.10736 -30.54367,-0.23858 z"
   id="path9" /><path
   style="fill:#d45500;stroke-width:0.353929"
   d="m 111.46864,383.84256 v -16.6888 h 26.76506 c 14.72079,0 26.77091,0.21254 26.77804,0.47232 0.007,0.25978 0.28191,4.58155 0.61061,9.60394 0.65114,9.94916 1.66847,14.34175 4.46154,19.26378 l 1.81857,3.20474 -20.2981,0.41536 c -11.16394,0.22845 -24.76155,0.41583 -30.2169,0.41642 l -9.91882,10e-4 z"
   id="path10" /><path
   style="fill:#ffdd55;stroke-width:0.353929"
   d="m 226.81705,358.61739 c -3.26164,-3.70542 -5.52826,-7.57021 -7.07301,-12.0601 -0.96232,-2.79703 -1.21513,-5.27397 -1.21513,-11.90549 v -8.37367 l 3.80796,-9.84516 c 3.88031,-10.03221 5.98488,-17.18233 7.8708,-26.74047 1.35265,-6.85543 2.23928,-8.53206 4.9924,-9.44067 1.77813,-0.58683 2.87287,-0.5357 5.61834,0.26243 4.84704,1.40907 9.89167,1.30341 11.86461,-0.2485 0.87519,-0.68842 2.62902,-3.6992 3.94363,-6.76999 5.50981,-12.87026 8.66911,-18.08419 11.2577,-18.57903 2.24573,-0.42929 5.21088,1.02879 6.27438,3.08538 0.50692,0.98026 1.68263,6.5987 2.61269,12.48542 3.03639,19.21845 4.11654,23.18806 12.54472,46.10253 4.10091,11.14954 4.92053,15.74861 4.14544,23.26115 -0.6528,6.32721 -2.83425,11.51003 -7.27193,17.27713 -3.09101,4.01701 -3.92034,4.45512 -2.75131,1.45346 1.05995,-2.7216 1.46148,-13.86913 0.65531,-18.19312 -1.9411,-10.41127 -12.36207,-24.65289 -19.64791,-26.85143 -3.51881,-1.06182 -16.79371,-0.43235 -19.31434,0.91584 -5.13044,2.74409 -11.96671,11.40622 -15.3807,19.48865 -1.72296,4.07901 -1.95857,5.42234 -2.2435,12.79143 -0.28799,7.44822 -0.18999,8.524 1.02721,11.27567 0.74006,1.67304 1.23536,3.1521 1.10065,3.28681 -0.1347,0.13471 -1.40281,-1.07052 -2.81801,-2.67827 z"
   id="path13" /></svg>
