<?xml version="1.0" encoding="UTF-8" standalone="no"?>
<!-- Generator: Adobe Illustrator 19.0.0, SVG Export Plug-In . SVG Version: 6.00 Build 0)  -->

<svg
   version="1.1"
   id="Layer_1"
   x="0px"
   y="0px"
   viewBox="0 0 512 512"
   style="enable-background:new 0 0 512 512;"
   xml:space="preserve"
   sodipodi:docname="fireplace-chimney-orange-blue.svg"
   inkscape:version="1.4.2 (f4327f4, 2025-05-13)"
   xmlns:inkscape="http://www.inkscape.org/namespaces/inkscape"
   xmlns:sodipodi="http://sodipodi.sourceforge.net/DTD/sodipodi-0.dtd"
   xmlns="http://www.w3.org/2000/svg"
   xmlns:svg="http://www.w3.org/2000/svg"><defs
   id="defs34" /><sodipodi:namedview
   id="namedview34"
   pagecolor="#ffffff"
   bordercolor="#000000"
   borderopacity="0.25"
   inkscape:showpageshadow="2"
   inkscape:pageopacity="0.0"
   inkscape:pagecheckerboard="0"
   inkscape:deskcolor="#d1d1d1"
   inkscape:zoom="1.5878906"
   inkscape:cx="255.68512"
   inkscape:cy="256"
   inkscape:window-width="2880"
   inkscape:window-height="1514"
   inkscape:window-x="-11"
   inkscape:window-y="-11"
   inkscape:window-maximized="1"
   inkscape:current-layer="Layer_1" />
<rect
   x="102.4"
   y="366.933"
   style="fill:#BF360C;"
   width="76.8"
   height="68.267"
   id="rect1" />
<rect
   x="179.2"
   y="366.933"
   style="fill:#E65100;"
   width="153.6"
   height="68.267"
   id="rect2" />
<rect
   x="332.8"
   y="366.933"
   style="fill:#BF360C;"
   width="76.8"
   height="68.267"
   id="rect3" />
<rect
   x="102.4"
   y="162.133"
   style="fill:#E65100;"
   width="153.6"
   height="68.267"
   id="rect4" />
<rect
   x="256"
   y="162.133"
   style="fill:#BF360C;"
   width="153.6"
   height="68.267"
   id="rect5" />
<rect
   x="256"
   y="298.667"
   style="fill:#E64A19;"
   width="153.6"
   height="68.267"
   id="rect6" />
<rect
   x="102.4"
   y="298.667"
   style="fill:#E65100;"
   width="153.6"
   height="68.267"
   id="rect7" />
<rect
   x="102.4"
   y="230.4"
   style="fill:#E64A19;"
   width="76.8"
   height="68.267"
   id="rect8" />
<rect
   x="179.2"
   y="230.4"
   style="fill:#EF6C00;"
   width="153.6"
   height="68.267"
   id="rect9" />
<rect
   x="332.8"
   y="230.4"
   style="fill:#E65100;"
   width="76.8"
   height="68.267"
   id="rect10" />
<rect
   x="17.067"
   y="179.2"
   style="fill:#A1887F;"
   width="85.333"
   height="170.667"
   id="rect11" />
<g
   id="g12">
	<path
   style="fill:#BCAAA4;"
   d="M110.933,435.2H8.533v-76.8c3.328-3.328,5.197-5.205,8.533-8.533H102.4   c3.328,3.328,5.197,5.205,8.533,8.533V435.2z"
   id="path11" />
	<path
   style="fill:#BCAAA4;"
   d="M503.467,435.2h-102.4v-76.8c3.328-3.328,5.197-5.205,8.533-8.533h85.333   c3.328,3.328,5.197,5.205,8.533,8.533V435.2z"
   id="path12" />
</g>
<rect
   x="409.6"
   y="179.2"
   style="fill:#A1887F;"
   width="85.333"
   height="170.667"
   id="rect12" />
<g
   id="g14">
	<rect
   x="8.533"
   y="162.133"
   style="fill:#BCAAA4;"
   width="494.933"
   height="17.067"
   id="rect13" />
	<rect
   x="8.533"
   y="93.867"
   style="fill:#BCAAA4;"
   width="494.933"
   height="17.067"
   id="rect14" />
</g>
<rect
   x="17.067"
   y="110.933"
   style="fill:#A1887F;"
   width="477.867"
   height="51.2"
   id="rect15" />
<path
   style="fill:#D7CCC8;"
   d="M503.467,93.867H8.533C3.823,93.867,0,90.044,0,85.333V76.8h512v8.533  C512,90.044,508.177,93.867,503.467,93.867z"
   id="path15" />
<g
   id="g16">
	<rect
   x="110.933"
   y="401.067"
   style="fill:#3E2723;"
   width="290.133"
   height="34.133"
   id="rect16" />
	<path
   style="fill:#3E2723;"
   d="M170.044,357.06c-6.938,14.071-3.908,44.006,9.156,44.006h153.6   c13.065,0,16.094-29.935,9.156-44.006c-25.404,14.37-54.69,22.673-85.956,22.673C224.734,379.733,195.447,371.43,170.044,357.06z"
   id="path16" />
</g>
<path
   style="fill:#EF6C00;"
   d="M332.8,349.867H179.2c-4.002,0-7.031,2.876-9.156,7.194c25.404,14.37,54.69,22.673,85.956,22.673  c31.266,0,60.553-8.303,85.956-22.673C339.831,352.742,336.802,349.867,332.8,349.867z"
   id="path17" />
<path
   style="fill:#FB8C00;"
   d="M304.802,298.027L304.802,298.027c-9.489-17.502-14.669-37.649-14.669-58.957  c0-14.891,2.637-29.175,7.458-42.394c-28.126,2.688-50.125,26.368-50.125,55.194c0,3.686,0.393,7.279,1.084,10.761  c-9.105-15.735-25.685-26.607-44.919-27.674c7.322,9.395,11.716,21.18,11.716,34.014c0,10.095-2.739,19.533-7.407,27.716  c-4.668,8.183-7.407,17.621-7.407,27.716c0,30.635,24.832,55.467,55.467,55.467s55.467-24.832,55.467-55.467  C311.467,314.854,309.052,305.869,304.802,298.027z"
   id="path18" />
<path
   style="fill:#5555ff"
   d="M242.953,279.057c0.085,0.085,0.179,0.162,0.265,0.247c3.721,3.473,9.711,1.28,10.837-3.686  c1.519-6.716,4.036-13.141,7.424-19.055c4.523-7.893,16.64-4.557,16.632,4.54v0.273c0,19.243,4.685,38.067,13.559,54.426  c3.174,5.879,4.864,12.544,4.864,19.268c0,22.349-18.185,40.533-40.533,40.533c-22.349,0-40.533-18.185-40.533-40.533  c0-7.04,1.877-14.054,5.427-20.284c4.821-8.439,7.364-17.98,7.364-27.588c0-0.393,0-0.785-0.009-1.178  C228.087,278.255,237.235,273.792,242.953,279.057z"
   id="path19" />
<path
   style="fill:#FFFDE7;"
   d="M283.733,347.87c0,15.317-12.416,27.733-27.733,27.733c-15.317,0-27.733-12.416-27.733-27.733  s12.416-34.671,27.733-34.671C271.317,313.199,283.733,332.553,283.733,347.87z"
   id="path20" />
<g
   id="g20">
</g>
<g
   id="g21">
</g>
<g
   id="g22">
</g>
<g
   id="g23">
</g>
<g
   id="g24">
</g>
<g
   id="g25">
</g>
<g
   id="g26">
</g>
<g
   id="g27">
</g>
<g
   id="g28">
</g>
<g
   id="g29">
</g>
<g
   id="g30">
</g>
<g
   id="g31">
</g>
<g
   id="g32">
</g>
<g
   id="g33">
</g>
<g
   id="g34">
</g>
<path
   style="fill:#0000aa;stroke-width:0.353929"
   d="m 248.12792,379.09929 c -13.66197,-2.10604 -27.71042,-10.27018 -35.63976,-20.71175 -3.81643,-5.02558 -8.32395,-14.06457 -9.68378,-19.41903 -3.77833,-14.87749 -2.05148,-27.64429 5.86882,-43.38886 3.69299,-7.34121 5.42216,-12.68838 6.41715,-19.844 1.71687,-12.34715 -1.77134,-27.09242 -8.83935,-37.36541 l -1.95235,-2.83764 h 1.95268 c 5.35143,0 16.43417,3.67333 23.11834,7.66249 4.74653,2.83275 13.2426,10.93123 16.39843,15.63102 l 2.5734,3.83241 -0.35614,-7.23119 c -0.71464,-14.51058 2.77797,-25.93476 11.38785,-37.24913 7.94349,-10.43866 22.04221,-18.87708 34.71437,-20.77739 2.7208,-0.40801 3.00392,-0.34111 2.63416,0.62245 -5.22037,13.60406 -7.94586,37.43697 -6.15511,53.82306 1.63981,15.00495 5.78903,29.51257 12.1144,42.35755 8.67111,17.60851 10.39005,29.40418 6.5234,44.76464 -2.53763,10.08081 -10.3388,21.86391 -19.05943,28.78786 -5.08198,4.03495 -14.18718,8.50899 -20.60502,10.12473 -5.86358,1.47618 -15.99812,2.05277 -21.41206,1.21819 z m 19.20787,-4.73906 c 10.47875,-3.11656 20.37354,-11.4173 25.10588,-21.06134 2.74417,-5.59233 4.49314,-12.73325 4.49314,-18.34517 0,-6.13542 -1.8244,-12.53453 -6.26082,-21.95987 -8.06439,-17.13313 -10.97318,-28.34287 -11.94939,-46.05001 -0.36999,-6.71104 -0.73576,-9.02655 -1.67996,-10.63481 -2.40862,-4.10261 -8.58947,-5.65635 -12.65056,-3.18009 -3.18719,1.94339 -7.42968,10.34103 -9.94808,19.69134 -1.20764,4.48369 -2.6049,6.49285 -5.2022,7.48034 -1.96081,0.74549 -3.62367,0.27973 -6.38115,-1.78734 -3.0097,-2.25614 -6.86431,-2.56521 -10.00162,-0.80194 -3.75151,2.10847 -4.57845,4.04778 -5.19134,12.17443 -0.71121,9.43034 -1.87179,13.60987 -6.59156,23.73785 -5.81406,12.47616 -7.00144,19.14638 -5.15688,28.96925 3.13259,16.68201 17.28458,30.37122 34.09597,32.98103 3.51551,0.54574 13.83429,-0.17739 17.31857,-1.21367 z"
   id="path34" /><path
   style="fill:#afafe9;stroke-width:0.353929"
   d="m 249.23044,374.36763 c -8.85771,-2.38517 -15.7141,-8.72916 -18.99818,-17.57837 -1.69619,-4.57053 -1.85928,-12.06663 -0.38278,-17.59458 2.5245,-9.45169 10.04507,-19.61604 17.33379,-23.42733 3.02418,-1.58135 4.143,-1.81118 8.81673,-1.81118 4.67373,0 5.79255,0.22983 8.81673,1.81118 4.95643,2.59173 10.53196,8.54654 13.69535,14.62698 3.37759,6.49215 4.62792,11.22982 4.63912,17.57821 0.0313,17.75339 -16.9478,30.96552 -33.92076,26.39509 z"
   id="path35" /><path
   style="fill:#afafe9;stroke-width:0.353929"
   d="m 179.79828,264.50185 v -34.00739 h 35.83413 35.83412 l -1.46671,4.33525 c -2.06522,6.10425 -3.05464,13.76051 -2.62842,20.33912 l 0.3618,5.58452 -2.70115,-3.63621 c -7.6622,-10.31465 -18.40915,-17.47926 -31.0394,-20.69285 -3.39337,-0.8634 -7.07588,-1.48809 -8.18335,-1.3882 l -2.01357,0.18162 2.20826,3.46372 c 10.62278,16.66206 11.87981,36.18243 3.49825,54.32427 l -2.54263,5.50353 h -13.58067 -13.58066 z"
   id="path36" /><path
   style="fill:#afafe9;stroke-width:0.353929"
   d="m 302.7591,293.31365 c -8.11127,-16.72809 -12.08757,-34.20067 -12.11042,-53.21525 l -0.0115,-9.60394 h 20.78228 20.78229 v 34.00739 34.00738 h -13.46167 -13.46167 z"
   id="path37" /><path
   style="fill:#5555ff;stroke-width:0.353929"
   d="m 111.15375,362.25487 v -4.26912 l -4.09348,-4.05709 -4.09348,-4.0571 v -25.36628 -25.36629 h 51.57347 51.57346 l -1.88105,4.84432 c -2.69834,6.9491 -3.70055,12.56454 -3.70055,20.73454 0,7.93525 1.38699,15.16974 4.07255,21.24227 l 1.57448,3.56018 h -14.16018 c -16.42095,0 -17.55651,0.29536 -20.97449,5.45556 -1.92771,2.91031 -3.84153,8.09296 -3.84153,10.4029 0,1.08997 -1.35221,1.14523 -28.0246,1.14523 h -28.0246 z"
   id="path38" /><path
   style="fill:#5555ff;stroke-width:0.353929"
   d="m 344.52009,363.72342 c -0.60921,-4.06251 -3.86255,-10.15515 -6.49593,-12.16518 l -2.25744,-1.72306 -14.95901,-0.18894 -14.95901,-0.18893 1.56056,-3.52869 c 2.67201,-6.04189 4.05862,-13.28845 4.05862,-21.21077 0,-8.17 -1.00221,-13.78544 -3.70055,-20.73454 l -1.88105,-4.84432 h 51.57346 51.57347 v 25.36629 25.36628 l -4.09348,4.0571 -4.09348,4.05709 v 4.26912 4.26912 h -27.9531 -27.95309 z"
   id="path39" /><path
   style="fill:#5555ff;stroke-width:0.353929"
   d="M 102.96679,204.67405 V 179.48339 H 179.48339 256 v 21.0755 21.07549 l -2.26198,4.11516 -2.26197,4.11516 h -74.25463 -74.25463 z"
   id="path40" /><path
   style="fill:#000080;stroke-width:0.353929"
   d="m 291.01673,226.87331 c 0.93511,-7.86871 2.4618,-15.6194 4.42197,-22.44946 1.18265,-4.12089 2.01854,-7.62425 1.85753,-7.78527 -0.59233,-0.59233 -8.77033,1.21217 -13.89134,3.06517 -9.05356,3.27596 -20.11509,11.68979 -25.99105,19.7698 l -1.37394,1.8893 L 256.02,200.42312 256,179.48339 h 76.51661 76.5166 v 25.19066 25.19065 h -59.18598 -59.18599 z"
   id="path41" /><path
   style="fill:#000080;stroke-width:0.353929"
   d="m 111.15375,383.84256 v -16.68881 h 27.78371 27.78371 l -0.42802,4.56761 c -0.91286,9.74154 1.71165,21.01392 6.03657,25.92728 l 2.53747,2.88273 h -31.85672 -31.85672 z"
   id="path42" /><path
   style="fill:#0000ff;stroke-width:0.353929"
   d="m 339.67028,397.64864 c 4.32492,-4.91336 6.94943,-16.18574 6.03657,-25.92728 l -0.42802,-4.56761 h 27.78371 27.78371 v 16.68881 16.68881 h -31.85672 -31.85672 z"
   id="path43" /><path
   style="fill:#0000ff;stroke-width:0.353929"
   d="m 102.96679,264.50185 v -34.00739 h 38.10086 38.10086 v 34.00739 34.00738 h -38.10086 -38.10086 z"
   id="path44" /><path
   style="fill:#0000ff;stroke-width:0.353929"
   d="m 332.83149,264.50185 v -34.00739 h 38.10086 38.10086 v 34.00739 34.00738 h -38.10086 -38.10086 z"
   id="path45" /><path
   style="fill:#0000ff;stroke-width:0.353929"
   d="m 236.47724,378.41037 c -12.82023,-1.48074 -28.74615,-5.27689 -40.70805,-9.70328 -3.41525,-1.26378 -10.56138,-4.3939 -15.88029,-6.95583 l -9.67076,-4.65804 1.28721,-2.05461 c 2.82776,-4.51357 2.93378,-4.5395 19.98895,-4.88855 10.90389,-0.22316 15.3855,-0.11434 15.38485,0.37356 -0.002,1.26656 6.41746,9.84607 10.11944,13.52513 6.31171,6.27262 13.00317,10.30713 21.99772,13.26316 5.60563,1.84227 5.25282,1.99611 -2.51907,1.09846 z"
   id="path46" /><path
   style="fill:#ff7f2a;stroke-width:0.353929"
   d="m 271.11439,378.08689 c 12.65142,-3.47686 26.52409,-14.20944 32.79978,-25.37552 l 1.43953,-2.56131 h 14.32766 c 7.92937,0 15.05983,0.27837 15.96721,0.62335 1.68644,0.64119 4.39995,3.23522 5.4661,5.22543 0.52935,0.98813 -0.57366,1.69224 -9.03569,5.76799 -11.351,5.46724 -19.1187,8.42652 -30.01791,11.43601 -8.37985,2.31385 -22.57479,4.91224 -30.00203,5.4919 l -4.40836,0.34405 z"
   id="path47" /><path
   style="fill:#ff6600;stroke-width:0.353929"
   d="m 231.84414,377.47656 c -13.53544,-2.11095 -30.30367,-6.65623 -40.36685,-10.94205 -9.093,-3.87264 -20.49574,-9.34314 -20.49574,-9.83291 0,-1.43356 3.44684,-4.6904 5.52749,-5.22279 2.99159,-0.76548 25.82244,-1.60654 28.2343,-1.04012 1.31831,0.30961 2.4276,1.40541 4.02419,3.97522 2.97793,4.79321 13.32267,15.0769 17.82053,17.71536 2.00793,1.17786 5.97546,3.07885 8.81672,4.22442 5.61809,2.26516 5.00451,2.45866 -3.56064,1.12287 z"
   id="path48" /><path
   style="fill:#aa4400;stroke-width:0.353929"
   d="m 237.04735,370.44929 c -9.77101,-5.8118 -15.69611,-12.94228 -19.22259,-23.13318 -1.48964,-4.30478 -1.74486,-6.04647 -1.75333,-11.96556 -0.0115,-8.04837 0.93584,-11.90208 4.79932,-19.52275 4.96726,-9.79788 7.41635,-18.27844 7.42305,-25.70415 0.005,-5.2445 1.00586,-8.50887 3.25347,-10.60844 3.34027,-3.12028 7.63298,-3.14178 11.2999,-0.0566 3.53371,2.97311 8.60889,2.05184 10.75151,-1.95168 0.34696,-0.64831 1.18914,-3.20203 1.87151,-5.67494 1.60988,-5.83426 6.19096,-15.41599 8.29008,-17.33943 2.30305,-2.11032 6.95306,-2.47624 9.68153,-0.76187 3.66395,2.30217 4.12076,3.66356 4.68242,13.95476 0.90315,16.54816 4.5285,30.48044 11.87172,45.62328 5.09886,10.51463 5.94464,13.65701 5.93264,22.04182 -0.008,5.91901 -0.26358,7.65995 -1.75241,11.95952 -3.31914,9.58534 -9.59005,17.39609 -17.95767,22.3672 -5.46587,3.24721 -6.73866,3.21945 -2.59416,-0.0566 3.78425,-2.99128 7.80245,-8.87901 9.1732,-13.44119 4.23806,-14.10527 -4.66864,-34.63286 -17.83132,-41.09647 -3.10214,-1.52332 -4.37037,-1.77429 -8.96622,-1.77429 -4.69895,0 -5.80848,0.23078 -9.08063,1.8887 -13.23545,6.70611 -21.95515,26.87619 -17.71691,40.98206 1.37075,4.56218 5.38895,10.44991 9.1732,13.44119 3.70744,2.93056 2.97438,3.38785 -1.32831,0.82861 z"
   id="path49" /><path
   style="fill:#ff6600;stroke-width:0.353929"
   d="m 243.80752,377.85664 c -2.72259,-0.69351 -7.30602,-2.36491 -10.1854,-3.71424 -12.89404,-6.04235 -20.6914,-13.66288 -26.77972,-26.1724 -4.17233,-8.57279 -5.22896,-13.24759 -5.27217,-23.32547 -0.0423,-9.87323 1.19559,-15.15072 6.04083,-25.75328 6.94878,-15.20562 8.51597,-21.75352 7.90057,-33.00954 -0.54517,-9.97158 -3.83729,-20.00962 -9.26365,-28.24595 l -1.31129,-1.99032 2.70263,0.30033 c 4.20136,0.46688 12.93529,3.2705 17.80692,5.71608 7.40645,3.71807 14.76693,10.2024 20.241,17.83161 l 2.44068,3.40157 0.38619,-11.00471 c 0.31203,-8.89152 0.65579,-11.85123 1.79018,-15.41308 3.34644,-10.50737 10.70802,-21.26411 18.69382,-27.31538 7.48438,-5.67132 20.53295,-11.41524 25.93221,-11.41524 1.17902,0 1.4168,0.24127 1.08617,1.10209 -1.1326,2.94874 -3.01962,10.66935 -4.27138,17.47601 -1.20067,6.5289 -1.38902,9.74233 -1.38417,23.61624 0.005,14.97256 0.11727,16.57033 1.65597,23.61624 2.25472,10.32472 5.63027,20.4703 9.94391,29.88744 4.534,9.89821 6.58476,15.55923 7.84272,21.64939 3.58716,17.36656 -2.85448,36.07834 -17.04412,49.51002 -4.26985,4.04177 -6.52991,5.58916 -12.3343,8.4449 -9.20315,4.52792 -12.807,5.42701 -23.16559,5.77939 -7.099,0.2415 -9.31864,0.0812 -13.45201,-0.9717 z m 19.95864,-2.53314 c 8.1876,-1.18372 18.32323,-7.23274 24.0399,-14.3472 6.51094,-8.10291 9.43235,-17.17448 8.96238,-27.82993 -0.32159,-7.29131 -1.04107,-9.62522 -7.57145,-24.56088 -6.55421,-14.99018 -8.62554,-23.32212 -10.14103,-40.79245 -0.6304,-7.26723 -1.19201,-10.71117 -1.93046,-11.83818 -1.69967,-2.59404 -4.69105,-4.04336 -8.35082,-4.04599 -2.78484,-0.002 -3.62652,0.29807 -5.53407,1.97292 -2.69315,2.36462 -6.47573,9.96394 -8.79666,17.67275 -1.25544,4.16985 -2.1054,5.862 -3.5587,7.08487 -2.45423,2.0651 -3.61384,2.02252 -7.69848,-0.28271 -4.22437,-2.38408 -8.07756,-2.53874 -11.1822,-0.44881 -3.02384,2.03553 -3.79678,4.09603 -4.73031,12.61011 -1.00273,9.14512 -1.94092,12.53614 -6.04307,21.84229 -5.07319,11.50908 -5.64763,13.50413 -5.98496,20.78608 -0.47477,10.24873 2.00835,18.49386 7.99636,26.55165 4.97579,6.69569 14.33878,13.09382 22.39607,15.30419 3.74449,1.02723 12.20718,1.17723 18.1275,0.32129 z"
   id="path50" /><path
   style="fill:#0000ff;stroke-width:0.353929"
   d="m 234.61431,368.43461 c -7.20913,-4.78259 -13.11504,-12.31865 -16.17793,-20.64338 -1.62153,-4.40719 -1.79618,-5.65125 -1.79066,-12.75556 0.007,-8.84778 0.17708,-9.52755 5.046,-20.15252 4.39745,-9.59612 5.89415,-14.70033 6.64615,-22.66541 0.78606,-8.32581 1.90725,-11.5203 4.63505,-13.20617 2.8892,-1.78563 5.76665,-1.60223 9.4871,0.60467 3.52474,2.0908 5.80054,2.34155 8.51446,0.93813 2.24843,-1.16271 2.67673,-1.93751 4.99847,-9.04232 2.37434,-7.26577 6.44591,-15.33547 8.58743,-17.02 2.50385,-1.96953 7.11984,-1.8284 9.64315,0.29483 2.46761,2.07636 3.03196,4.28539 3.84945,15.06798 1.20455,15.88793 4.12119,26.88459 11.41569,43.04076 5.43893,12.0464 6.42499,16.01543 6.04803,24.34423 -0.22812,5.04031 -0.65789,7.24769 -2.15253,11.056 -3.24402,8.26567 -8.65238,15.14391 -15.62883,19.87641 -3.96398,2.68899 -4.83631,2.72173 -2.22687,0.0836 7.00567,-7.08275 9.6499,-15.08944 8.19702,-24.82043 -1.78662,-11.96617 -8.68606,-22.83468 -17.95332,-28.2814 -2.90639,-1.7082 -3.60746,-1.84528 -9.43729,-1.84528 -5.34292,0 -6.75462,0.22501 -9.31184,1.48419 -9.13752,4.49932 -17.08177,16.72381 -18.81,28.94455 -1.26713,8.96015 1.0411,16.43452 7.13411,23.10125 3.56591,3.90168 3.38234,4.31267 -0.71284,1.59589 z"
   id="path51" /><path
   style="fill:#ff6600;stroke-width:0.353929"
   d="m 102.96679,264.50185 v -34.00739 h 38.10086 38.10086 v 34.00739 34.00738 h -38.10086 -38.10086 z"
   id="path52" /><path
   style="fill:#ff6600;stroke-width:0.353929"
   d="m 332.83149,264.50185 v -34.00739 h 38.10086 38.10086 v 34.00739 34.00738 h -38.10086 -38.10086 z"
   id="path53" /><path
   style="fill:#d45500;stroke-width:0.353929"
   d="m 340.02461,397.71907 c 4.24265,-5.55817 6.28905,-13.91731 5.9344,-24.24083 l -0.21731,-6.32572 27.55227,6.2e-4 27.55228,6.1e-4 v 16.68881 16.68881 h -31.48416 -31.48415 z"
   id="path54" /><path
   style="fill:#d45500;stroke-width:0.353929"
   d="m 291.26691,228.08637 c 0,-3.07815 1.93002,-13.32839 4.15491,-22.06654 1.17851,-4.62858 2.14276,-8.66696 2.14276,-8.97417 0,-1.97586 -12.72461,1.28319 -20.20511,5.17497 -5.81939,3.02758 -14.37478,9.81924 -18.05273,14.33108 l -2.67697,3.28391 -0.003,-12.14659 c -0.001,-6.68063 -0.18683,-15.75988 -0.41207,-20.17611 l -0.40951,-8.02953 h 76.61379 76.61379 v 25.19066 25.19065 h -58.88315 -58.88315 z"
   id="path55" /><path
   style="fill:#d45500;stroke-width:0.353929"
   d="m 111.15375,383.84256 v -16.68881 h 27.57454 27.57453 l -0.25133,6.25755 c -0.40988,10.20472 1.66846,18.73284 5.9239,24.30777 l 2.14667,2.8123 h -31.48415 -31.48416 z"
   id="path56" /><path
   style="fill:#ff7f2a;stroke-width:0.353929"
   d="m 102.96679,204.67664 v -25.19325 h 76.11612 76.11612 l 0.40049,2.92185 C 255.81978,184.01226 256,193.3213 256,203.09201 v 17.76492 l -2.3758,4.34644 -2.3758,4.34645 -74.1408,0.16003 -74.14081,0.16003 z"
   id="path57" /><path
   style="fill:#ff7f2a;stroke-width:0.353929"
   d="m 345.17931,365.52783 c -0.21024,-0.54789 -0.38226,-1.38744 -0.38226,-1.86567 0,-2.30727 -2.88446,-8.11438 -5.44523,-10.96257 l -2.85845,-3.17929 -12.69441,-0.007 c -6.98193,-0.004 -13.74616,-0.1808 -15.03164,-0.39332 -2.29097,-0.37875 -2.3204,-0.41912 -1.48688,-2.03981 3.24099,-6.30174 5.04278,-18.84933 4.11495,-28.65632 -0.46088,-4.87137 -2.64698,-13.30739 -4.79349,-18.49771 -0.25889,-0.62599 10.19634,-0.78721 51.05288,-0.78721 h 51.37843 v 25.0514 25.05141 l -4.09348,4.05709 -4.09348,4.0571 v 4.584 4.584 h -27.64234 c -24.62525,0 -27.68406,-0.10873 -28.0246,-0.99616 z"
   id="path58" /><path
   style="fill:#de8787;stroke-width:0.353929"
   d="m 111.15375,361.93999 v -4.584 l -4.09348,-4.0571 -4.09348,-4.05709 v -25.05141 -25.0514 h 51.37843 c 40.85654,0 51.31177,0.16122 51.05288,0.78721 -6.67159,16.13213 -6.72017,33.66951 -0.13432,48.492 0.45814,1.03113 -0.40599,1.1021 -13.41982,1.1021 -16.66684,0 -17.61841,0.24107 -20.95599,5.30913 -1.22441,1.85924 -2.58212,4.75517 -3.01714,6.43541 -0.43503,1.68023 -0.87852,3.36348 -0.98554,3.74055 -0.24105,0.8493 -17.70439,1.51434 -39.82994,1.51681 l -15.9016,0.002 z"
   id="path59" /><path
   style="fill:#ff7f2a;stroke-width:0.353929"
   d="m 111.15375,361.6251 v -4.89888 l -4.09348,-4.05709 -4.09348,-4.0571 v -24.8401 -24.8401 l 50.8063,0.42362 c 27.94347,0.23299 50.87317,0.49215 50.9549,0.5759 0.0817,0.0838 -0.55141,2.23671 -1.40698,4.78433 -0.85557,2.54762 -2.01272,7.79042 -2.57143,11.65067 -1.30999,9.0509 -0.52213,18.38049 2.25023,26.64644 1.02616,3.05957 1.77914,5.65361 1.67328,5.76454 -0.10586,0.11092 -6.10025,0.35105 -13.32086,0.53362 -7.2206,0.18256 -14.19753,0.6004 -15.50428,0.92853 -2.95951,0.74313 -6.26597,4.97216 -7.8082,9.98684 -0.58587,1.90505 -1.4167,3.85646 -1.84627,4.33648 -0.61854,0.69118 -5.21338,0.97829 -22.08504,1.37999 -11.71721,0.27898 -23.92541,0.52388 -27.12935,0.54422 l -5.82534,0.037 z"
   id="path61" /><path
   style="fill:#3737c8;stroke-width:0.353929"
   d="m 229.00855,362.90283 c -8.82686,-8.88035 -12.05661,-16.33764 -12.05055,-27.82402 0.004,-7.92385 0.3688,-9.41547 4.71342,-19.28213 4.39829,-9.98855 5.73782,-14.50178 6.95107,-23.41994 0.55426,-4.07412 1.56061,-8.56833 2.23636,-9.98714 2.05316,-4.3109 5.95393,-5.16059 11.28629,-2.45848 5.85377,2.96633 10.49021,1.72632 12.31205,-3.29286 7.32535,-20.1813 10.46447,-24.50997 16.58022,-22.86317 4.64324,1.25029 5.4048,3.09549 6.70925,16.25597 1.70943,17.24634 4.02429,25.91736 11.63766,43.59256 4.94389,11.47771 5.66119,14.18845 5.66119,21.39404 0,11.42915 -3.31139,19.08952 -12.05406,27.88517 -3.0125,3.03075 -5.77929,5.51045 -6.14843,5.51045 -0.36914,0 0.46031,-1.48782 1.84323,-3.30627 7.15423,-9.40741 7.45461,-21.94106 0.84238,-35.14964 -3.30673,-6.6055 -8.96267,-12.72002 -14.16324,-15.31157 -2.80333,-1.39696 -4.14652,-1.65141 -8.70183,-1.64844 -6.91664,0.005 -9.17425,0.66912 -13.77315,4.05464 -8.57243,6.31066 -15.22989,19.96803 -15.22989,31.24317 0,7.11237 1.96801,12.04022 7.7201,19.33091 0.42426,0.53774 0.38089,0.7872 -0.13686,0.7872 -0.41687,0 -3.22271,-2.4797 -6.23521,-5.51045 z"
   id="path62" /><path
   style="fill:#6600ff;stroke-width:0.353929"
   d="m 248.1197,373.57814 c -10.04218,-3.4725 -17.07705,-11.6805 -18.64547,-21.75478 -1.57296,-10.10346 2.91139,-22.14256 11.41526,-30.64643 5.04695,-5.04695 9.09623,-6.92355 14.93951,-6.92355 2.72816,0 5.56693,0.39573 6.93287,0.96646 9.16125,3.82781 17.90284,16.21932 19.72449,27.96016 2.06635,13.3179 -5.76982,26.18362 -18.56903,30.48737 -4.08431,1.37335 -11.69224,1.33038 -15.79763,-0.0892 z"
   id="path63" /><path
   style="fill:#6600ff;stroke-width:0.353929"
   d="m 179.79828,264.50185 v -34.00739 h 35.64917 c 33.69301,0 35.62594,0.0605 35.22587,1.1021 -1.99828,5.20253 -3.01709,10.79894 -3.39003,18.62169 l -0.4149,8.70287 -3.14883,-3.95358 c -6.82983,-8.57535 -18.58459,-16.06116 -29.54232,-18.81349 -4.57517,-1.14918 -10.44784,-1.67975 -10.44784,-0.94392 0,0.16902 1.42519,2.79042 3.1671,5.82534 4.83118,8.41734 6.99129,15.78374 7.38524,25.18511 0.43859,10.46663 -0.66102,16.03532 -5.34988,27.09307 l -2.2031,5.19558 h -13.46524 -13.46524 z"
   id="path64" /><path
   style="fill:#6600ff;stroke-width:0.353929"
   d="m 302.53319,291.8721 c -7.62885,-16.17314 -10.69958,-29.88305 -11.59621,-51.7737 l -0.39337,-9.60394 h 20.82906 20.82905 v 34.00739 34.00738 h -13.26891 -13.2689 z"
   id="path65" /><path
   style="fill:#6600ff;stroke-width:0.353929"
   d="m 340.62643,397.40882 c 3.824,-5.55912 4.91202,-9.82446 5.26774,-20.65113 l 0.31556,-9.60394 h 27.31826 27.31826 v 16.68881 16.68881 H 369.66237 338.4785 Z"
   id="path66" /><path
   style="fill:#6600ff;stroke-width:0.353929"
   d="m 111.15375,383.84256 v -16.68881 h 27.31826 27.31826 l 0.31148,9.60394 c 0.34984,10.78665 1.31843,14.58502 5.21923,20.4674 l 2.1925,3.30628 h -31.17986 -31.17987 z"
   id="path67" /><path
   style="fill:#ff7f2a;stroke-width:0.353929"
   d="m 302.74904,291.42435 c -7.95517,-17.67918 -10.4544,-29.51097 -11.70626,-55.41943 l -0.26625,-5.51046 h 20.71259 20.7126 v 34.00739 34.00738 h -13.13233 -13.13234 z"
   id="path68" /><path
   style="fill:#ff7f2a;stroke-width:0.353929"
   d="m 179.79828,264.40439 v -34.10483 l 35.00011,0.35546 c 19.25006,0.1955 35.10064,0.45597 35.22349,0.57883 0.12286,0.12286 -0.32055,2.18497 -0.98536,4.58247 -0.96902,3.49458 -2.48301,16.31029 -2.48301,21.01826 0,0.55726 -0.96071,-0.15581 -2.26875,-1.68397 -8.15724,-9.5299 -18.78498,-16.31276 -30.23093,-19.29405 -4.19114,-1.09165 -10.32443,-1.27263 -10.32443,-0.30465 0,0.357 1.10195,2.59372 2.44879,4.9705 6.05432,10.68416 7.84354,17.99967 7.48213,30.59198 -0.22442,7.81939 -0.47269,9.45787 -2.19476,14.48463 -1.06794,3.11734 -2.66308,7.29741 -3.54475,9.28905 l -1.60304,3.62116 h -13.25974 -13.25975 z"
   id="path69" /><path
   style="fill:#d45500;stroke-width:0.353929"
   d="m 102.96667,204.51661 1.2e-4,-25.03322 h 75.8444 c 71.69575,0 75.86122,0.0603 76.15196,1.1021 0.16916,0.60615 0.49963,9.65094 0.73439,20.09954 l 0.42682,18.99745 -2.37708,4.52359 c -1.3074,2.48798 -2.68151,4.6276 -3.05357,4.7547 -0.37207,0.1271 -33.76289,0.31164 -74.20182,0.41007 l -73.52533,0.17898 z"
   id="path70" /><path
   style="fill:#5f5fd3;stroke-width:0.353929"
   d="m 304.39864,294.2583 c -8.81659,-19.41909 -11.56079,-31.29212 -12.88181,-55.73431 l -0.43397,-8.02953 h 20.55943 20.55943 v 34.00739 34.00738 h -12.93655 -12.93654 z"
   id="path71" /><path
   style="fill:#ff7f2a;stroke-width:0.353929"
   d="m 179.79828,264.50529 v -34.00394 l 31.64575,0.33808 c 35.52251,0.37951 38.53777,0.53745 37.98057,1.98951 -0.77875,2.02937 -2.2973,12.0671 -2.67116,17.65647 l -0.38936,5.82121 -5.25357,-5.04365 c -10.66394,-10.23781 -23.21386,-16.36014 -33.53598,-16.36014 -2.96953,0 -3.84513,0.21158 -3.84513,0.92914 0,0.51103 1.39321,3.55753 3.09603,6.76999 4.9249,9.29109 5.84604,12.97301 6.19382,24.7574 0.34019,11.52735 -0.0831,13.92417 -4.35245,24.64282 l -2.5918,6.50705 h -13.13836 -13.13836 z"
   id="path72" /><path
   style="fill:#ff7f2a;stroke-width:0.353929"
   d="m 302.9896,290.04223 c -6.86732,-16.32404 -9.62064,-28.09353 -10.76293,-46.00779 -0.19878,-3.11734 -0.5186,-7.43911 -0.71071,-9.60394 l -0.3493,-3.93604 h 20.51753 20.51753 v 34.00739 34.00738 h -12.82508 -12.82508 z"
   id="path73" /><path
   style="fill:#ff7f2a;stroke-width:0.353929"
   d="m 247.39037,372.86335 c -9.9768,-3.59169 -16.9668,-12.77399 -17.65033,-23.18609 -0.56775,-8.64827 2.37034,-17.13235 8.69409,-25.10524 5.65695,-7.1322 10.59578,-9.82227 17.98005,-9.79331 6.00072,0.0235 9.24934,1.54221 14.35939,6.71276 4.33096,4.38224 7.33829,9.13608 9.66714,15.28138 2.24371,5.92061 2.34025,15.13501 0.21441,20.4634 -2.75548,6.90655 -8.8724,12.97353 -15.70457,15.57635 -4.43476,1.6895 -12.93988,1.71407 -17.56018,0.0508 z"
   id="path74" /><path
   style="fill:#ff7f2a;stroke-width:0.353929"
   d="m 111.15375,383.84256 v -16.68881 h 26.99223 26.99223 l 0.39713,3.30627 c 0.21842,1.81845 0.40452,5.43174 0.41354,8.02952 0.0285,8.21127 1.68139,13.87757 5.92443,20.30997 l 1.1424,1.73186 h -30.93098 -30.93098 z"
   id="path75" /><path
   style="fill:#ff6600;stroke-width:0.353929"
   d="m 340.12669,398.79951 c 4.24304,-6.4324 5.8959,-12.0987 5.92443,-20.30997 0.009,-2.59778 0.19512,-6.21107 0.41354,-8.02952 l 0.39713,-3.30627 h 26.99223 26.99223 v 16.68881 16.68881 h -30.93098 -30.93098 z"
   id="path76" /><path
   style="fill:#ff6600;stroke-width:0.353929"
   d="m 111.15375,383.84256 v -16.68881 h 26.76507 c 14.72079,0 26.79199,0.0709 26.82491,0.15744 0.0329,0.0866 0.42458,4.83346 0.87039,10.54859 0.84411,10.82136 2.10073,15.56487 5.32167,20.08826 0.71791,1.00821 1.30529,2.00191 1.30529,2.20822 0,0.20631 -13.74465,0.37511 -30.54366,0.37511 h -30.54367 z"
   id="path77" /><path
   style="fill:#ff6600;stroke-width:0.353929"
   d="m 228.96171,362.37481 c -7.58376,-8.10706 -10.55158,-14.0802 -11.36071,-22.86491 -0.79954,-8.6806 0.0439,-13.28985 4.29957,-23.49556 4.55518,-10.92407 5.4186,-13.78576 6.99716,-23.19116 1.39089,-8.2872 2.06467,-10.4043 3.95264,-12.41974 1.69341,-1.80773 4.96727,-1.86318 9.29477,-0.15744 4.36284,1.71967 8.29791,1.65973 10.33483,-0.15744 0.97452,-0.86939 2.66882,-4.24145 4.38429,-8.7258 5.71127,-14.92963 8.42696,-18.32697 13.83829,-17.3118 4.25301,0.79787 5.13602,2.89399 6.69537,15.89375 2.21155,18.43681 4.33304,26.15399 12.91992,46.99766 3.978,9.65616 4.82131,14.44059 4.02139,22.81502 -0.57521,6.02197 -1.90905,10.00174 -4.9064,14.63922 -2.4777,3.83349 -9.87211,12.12738 -10.81214,12.12738 -0.29494,0 0.34231,-1.30179 1.4161,-2.89286 7.93142,-11.75211 4.65755,-31.3587 -7.23795,-43.34684 -2.48512,-2.50447 -5.87481,-5.19963 -7.53264,-5.98925 -2.69918,-1.28561 -3.75391,-1.41219 -10.09066,-1.21099 -6.78578,0.21546 -7.21227,0.31186 -10.38397,2.34713 -4.77412,3.06355 -9.76046,8.89376 -12.65693,14.79894 -6.09424,12.42462 -6.12217,23.80852 -0.0818,33.33323 1.03267,1.62835 1.63292,2.96064 1.33389,2.96064 -0.29903,0 -2.2903,-1.86714 -4.42504,-4.14918 z"
   id="path78" /><path
   style="fill:#0000ff;stroke-width:0.353929"
   d="m 251.752,373.38517 c -7.96276,-0.98504 -15.41468,-6.76004 -19.22224,-14.89661 -1.61927,-3.4603 -2.02391,-5.21924 -2.23989,-9.73676 -0.42617,-8.91375 2.54914,-16.70045 9.75178,-25.52139 5.90915,-7.23683 15.5144,-10.01236 23.35173,-6.74771 7.10016,2.95759 15.83282,15.07302 17.84266,24.75441 1.19328,5.74797 0.50218,12.40488 -1.79815,17.32059 -3.45427,7.38159 -11.20903,13.7123 -17.87539,14.59282 -5.31336,0.70181 -5.91741,0.71626 -9.8105,0.23465 z"
   id="path79" /><path
   style="fill:#000080;stroke-width:0.353929"
   d="m 227.668,377.41482 c -6.35536,-7.19414 -9.04642,-12.6154 -10.17695,-20.50188 -1.08629,-7.57785 -0.1742,-13.40036 3.59659,-22.9596 4.69558,-11.90364 5.71557,-15.24729 7.52801,-24.67776 2.09333,-10.89196 3.17286,-12.87888 7.15395,-13.16707 1.49322,-0.10809 4.01416,0.24615 5.60208,0.78721 1.58792,0.54106 4.37012,0.98375 6.18267,0.98375 2.85937,0 3.49788,-0.24046 4.82427,-1.81678 0.84079,-0.99922 2.32755,-3.76232 3.30392,-6.14022 3.65816,-8.9093 7.10414,-15.71407 8.80697,-17.3911 2.33388,-2.29852 6.01217,-2.40181 8.18415,-0.22983 1.93298,1.93297 2.49646,4.19532 4.09628,16.44631 2.0975,16.06212 3.60563,21.65542 10.85341,40.25278 5.70621,14.6418 6.58302,18.82296 5.67816,27.07676 -0.84159,7.67662 -3.24359,12.96225 -8.98706,19.77608 -3.6797,4.36546 -5.58694,5.72928 -3.54268,2.53328 1.81986,-2.84519 2.98009,-8.32758 2.97694,-14.06694 -0.006,-11.11949 -3.63629,-19.76186 -11.70429,-27.86424 -2.84385,-2.85597 -6.19116,-5.61907 -7.43847,-6.14023 -1.56156,-0.65246 -4.46771,-0.94756 -9.33154,-0.94756 -8.40074,0 -10.77054,0.88048 -15.90595,5.90973 -4.40106,4.31009 -7.55691,9.12953 -9.8308,15.01308 -3.73987,9.67668 -3.82528,18.3997 -0.25699,26.24812 0.85074,1.87119 1.43595,3.51303 1.30046,3.64851 -0.13549,0.13549 -1.4464,-1.11209 -2.91313,-2.7724 z"
   id="path80" /><path
   style="fill:#d40000;stroke-width:0.353929"
   d="m 250.09137,372.75092 c -6.90658,-1.62139 -13.24764,-6.89673 -16.94727,-14.09901 -1.67841,-3.26744 -1.97733,-4.60456 -2.20972,-9.8842 -0.21745,-4.94019 -0.0185,-6.92361 1.04244,-10.39115 2.66756,-8.71879 9.80476,-17.97074 16.1511,-20.93664 1.87518,-0.87635 4.83888,-1.59581 7.32711,-1.77871 3.55716,-0.26148 4.70585,-0.0656 7.72719,1.3176 6.34263,2.90375 13.7904,12.3245 16.76461,21.20569 1.12574,3.36156 1.32782,5.16322 1.13014,10.07626 -0.20424,5.0762 -0.53682,6.61405 -2.19483,10.1487 -2.2525,4.80202 -7.35783,10.20633 -11.68163,12.36574 -4.91803,2.45619 -11.71777,3.2414 -17.10914,1.97572 z"
   id="path81" /><path
   style="fill:#ffff00;stroke-width:0.353929"
   d="m 245.92374,378.12956 c -0.51956,-0.18872 -2.78672,-0.93044 -5.03813,-1.6483 -10.52172,-3.35477 -21.03603,-10.30287 -26.86576,-17.75352 -3.90554,-4.99144 -9.74299,-16.53767 -11.02288,-21.80277 -1.1201,-4.60777 -1.11019,-20.01416 0.0158,-24.56089 0.47178,-1.90504 2.96584,-8.49678 5.54236,-14.6483 6.5401,-15.61475 7.37135,-19.22987 6.97729,-30.34446 -0.37261,-10.50966 -2.05517,-17.10472 -6.49976,-25.47682 -1.54424,-2.90882 -2.66789,-5.42859 -2.497,-5.59948 0.52814,-0.52814 8.8774,1.73111 14.37833,3.89068 8.95259,3.51464 16.84807,9.70121 23.53178,18.43852 l 3.68216,4.81353 0.46593,-8.75701 c 0.8431,-15.84582 2.13541,-20.90785 7.66101,-30.00841 5.95718,-9.81138 12.1481,-15.60876 22.20898,-20.79724 9.26243,-4.7767 17.95481,-7.08475 16.9647,-4.50455 -0.66685,1.73778 -2.78498,10.45681 -3.96572,16.32442 -0.94704,4.7062 -1.14056,8.82012 -1.14056,24.246 0,18.2155 0.0341,18.71331 1.74532,25.50553 2.58638,10.26569 5.14244,17.63594 10.37437,29.9139 6.0244,14.13766 7.71795,20.62819 7.71795,29.57903 0,8.43488 -1.46953,14.60199 -5.36524,22.5161 -3.25289,6.60823 -8.43594,13.44995 -13.88884,18.33355 -4.06776,3.64306 -15.19527,9.56479 -21.05096,11.2027 -3.45538,0.9665 -21.9781,1.84715 -23.93112,1.13779 z m 23.78975,-4.02331 c 9.04469,-3.22937 18.88545,-11.86925 23.08879,-20.27123 3.2108,-6.41801 4.35226,-12.43408 3.96691,-20.90757 -0.35761,-7.86342 -0.94797,-9.86986 -7.27006,-24.70839 -6.515,-15.29132 -7.99484,-21.18324 -10.13142,-40.33811 -0.66199,-5.93485 -1.53261,-11.40537 -1.93472,-12.1567 -1.31521,-2.45752 -4.39114,-3.81281 -8.65923,-3.81538 -3.63431,-0.002 -4.07273,0.15534 -6.11408,2.19668 -2.53826,2.53826 -5.70984,8.89528 -8.48586,17.00884 -1.97569,5.77442 -4.00746,8.50185 -6.33337,8.50185 -0.63903,0 -2.67784,-0.70572 -4.53068,-1.56827 -4.2508,-1.97885 -8.69006,-2.09214 -11.59638,-0.29594 -2.57309,1.59026 -3.73386,4.61442 -4.70398,12.25535 -1.15341,9.08442 -2.2122,12.85695 -6.49483,23.14132 -4.73331,11.36665 -5.44939,14.27492 -5.44939,22.13211 0,11.80643 4.15849,21.66002 12.35671,29.27938 5.26855,4.89655 10.2258,8.00648 15.94636,10.00396 3.73821,1.30529 4.99595,1.41887 13.26151,1.19762 7.43465,-0.19901 9.86604,-0.50667 13.08372,-1.65552 z"
   id="path82" /></svg>
