<?xml version="1.0" encoding="UTF-8" standalone="no"?>
<!-- Generator: Adobe Illustrator 19.0.0, SVG Export Plug-In . SVG Version: 6.00 Build 0)  -->

<svg
   version="1.1"
   id="Layer_1"
   x="0px"
   y="0px"
   viewBox="0 0 512 512"
   style="enable-background:new 0 0 512 512;"
   xml:space="preserve"
   sodipodi:docname="fireplace-chimney-orange.svg"
   inkscape:version="1.4.2 (f4327f4, 2025-05-13)"
   xmlns:inkscape="http://www.inkscape.org/namespaces/inkscape"
   xmlns:sodipodi="http://sodipodi.sourceforge.net/DTD/sodipodi-0.dtd"
   xmlns="http://www.w3.org/2000/svg"
   xmlns:svg="http://www.w3.org/2000/svg"><defs
   id="defs34" /><sodipodi:namedview
   id="namedview34"
   pagecolor="#ffffff"
   bordercolor="#000000"
   borderopacity="0.25"
   inkscape:showpageshadow="2"
   inkscape:pageopacity="0.0"
   inkscape:pagecheckerboard="0"
   inkscape:deskcolor="#d1d1d1"
   inkscape:zoom="1.5878906"
   inkscape:cx="255.68512"
   inkscape:cy="255.68512"
   inkscape:window-width="1920"
   inkscape:window-height="1094"
   inkscape:window-x="1881"
   inkscape:window-y="1609"
   inkscape:window-maximized="1"
   inkscape:current-layer="Layer_1" />
<rect
   x="102.4"
   y="366.933"
   style="fill:#BF360C;"
   width="76.8"
   height="68.267"
   id="rect1" />
<rect
   x="179.2"
   y="366.933"
   style="fill:#E65100;"
   width="153.6"
   height="68.267"
   id="rect2" />
<rect
   x="332.8"
   y="366.933"
   style="fill:#BF360C;"
   width="76.8"
   height="68.267"
   id="rect3" />
<rect
   x="102.4"
   y="162.133"
   style="fill:#E65100;"
   width="153.6"
   height="68.267"
   id="rect4" />
<rect
   x="256"
   y="162.133"
   style="fill:#BF360C;"
   width="153.6"
   height="68.267"
   id="rect5" />
<rect
   x="256"
   y="298.667"
   style="fill:#E64A19;"
   width="153.6"
   height="68.267"
   id="rect6" />
<rect
   x="102.4"
   y="298.667"
   style="fill:#E65100;"
   width="153.6"
   height="68.267"
   id="rect7" />
<rect
   x="102.4"
   y="230.4"
   style="fill:#E64A19;"
   width="76.8"
   height="68.267"
   id="rect8" />
<rect
   x="179.2"
   y="230.4"
   style="fill:#EF6C00;"
   width="153.6"
   height="68.267"
   id="rect9" />
<rect
   x="332.8"
   y="230.4"
   style="fill:#E65100;"
   width="76.8"
   height="68.267"
   id="rect10" />
<rect
   x="17.067"
   y="179.2"
   style="fill:#A1887F;"
   width="85.333"
   height="170.667"
   id="rect11" />
<g
   id="g12">
	<path
   style="fill:#BCAAA4;"
   d="M110.933,435.2H8.533v-76.8c3.328-3.328,5.197-5.205,8.533-8.533H102.4   c3.328,3.328,5.197,5.205,8.533,8.533V435.2z"
   id="path11" />
	<path
   style="fill:#BCAAA4;"
   d="M503.467,435.2h-102.4v-76.8c3.328-3.328,5.197-5.205,8.533-8.533h85.333   c3.328,3.328,5.197,5.205,8.533,8.533V435.2z"
   id="path12" />
</g>
<rect
   x="409.6"
   y="179.2"
   style="fill:#A1887F;"
   width="85.333"
   height="170.667"
   id="rect12" />
<g
   id="g14">
	<rect
   x="8.533"
   y="162.133"
   style="fill:#BCAAA4;"
   width="494.933"
   height="17.067"
   id="rect13" />
	<rect
   x="8.533"
   y="93.867"
   style="fill:#BCAAA4;"
   width="494.933"
   height="17.067"
   id="rect14" />
</g>
<rect
   x="17.067"
   y="110.933"
   style="fill:#A1887F;"
   width="477.867"
   height="51.2"
   id="rect15" />
<path
   style="fill:#D7CCC8;"
   d="M503.467,93.867H8.533C3.823,93.867,0,90.044,0,85.333V76.8h512v8.533  C512,90.044,508.177,93.867,503.467,93.867z"
   id="path15" />
<g
   id="g16">
	<rect
   x="110.933"
   y="401.067"
   style="fill:#3E2723;"
   width="290.133"
   height="34.133"
   id="rect16" />
	<path
   style="fill:#3E2723;"
   d="M170.044,357.06c-6.938,14.071-3.908,44.006,9.156,44.006h153.6   c13.065,0,16.094-29.935,9.156-44.006c-25.404,14.37-54.69,22.673-85.956,22.673C224.734,379.733,195.447,371.43,170.044,357.06z"
   id="path16" />
</g>
<path
   style="fill:#EF6C00;"
   d="M332.8,349.867H179.2c-4.002,0-7.031,2.876-9.156,7.194c25.404,14.37,54.69,22.673,85.956,22.673  c31.266,0,60.553-8.303,85.956-22.673C339.831,352.742,336.802,349.867,332.8,349.867z"
   id="path17" />
<path
   style="fill:#FB8C00;"
   d="M304.802,298.027L304.802,298.027c-9.489-17.502-14.669-37.649-14.669-58.957  c0-14.891,2.637-29.175,7.458-42.394c-28.126,2.688-50.125,26.368-50.125,55.194c0,3.686,0.393,7.279,1.084,10.761  c-9.105-15.735-25.685-26.607-44.919-27.674c7.322,9.395,11.716,21.18,11.716,34.014c0,10.095-2.739,19.533-7.407,27.716  c-4.668,8.183-7.407,17.621-7.407,27.716c0,30.635,24.832,55.467,55.467,55.467s55.467-24.832,55.467-55.467  C311.467,314.854,309.052,305.869,304.802,298.027z"
   id="path18" />

<path
   style="fill:#FFFDE7;"
   d="M283.733,347.87c0,15.317-12.416,27.733-27.733,27.733c-15.317,0-27.733-12.416-27.733-27.733  s12.416-34.671,27.733-34.671C271.317,313.199,283.733,332.553,283.733,347.87z"
   id="path20" />
<g
   id="g20">
</g>
<g
   id="g21">
</g>
<g
   id="g22">
</g>
<g
   id="g23">
</g>
<g
   id="g24">
</g>
<g
   id="g25">
</g>
<g
   id="g26">
</g>
<g
   id="g27">
</g>
<g
   id="g28">
</g>
<g
   id="g29">
</g>
<g
   id="g30">
</g>
<g
   id="g31">
</g>
<g
   id="g32">
</g>
<g
   id="g33">
</g>
<g
   id="g34">
</g>
</svg>
