<?xml version="1.0" encoding="iso-8859-1"?>
<!-- Generator: Adobe Illustrator 19.0.0, SVG Export Plug-In . SVG Version: 6.00 Build 0)  -->
<svg version="1.1" id="Layer_1" xmlns="http://www.w3.org/2000/svg" xmlns:xlink="http://www.w3.org/1999/xlink" x="0px" y="0px"
	 viewBox="0 0 512 512" style="enable-background:new 0 0 512 512;" xml:space="preserve">
<path style="fill:#3E3D42;" d="M462.022,444.807H49.978c-9.2,0-16.659-7.459-16.659-16.659V83.852c0-9.2,7.459-16.659,16.659-16.659
	h412.043c9.2,0,16.659,7.459,16.659,16.659v344.295C478.681,437.348,471.222,444.807,462.022,444.807z"/>
<path style="fill:#2D2D30;" d="M255.445,444.807h206.577c9.2,0,16.659-7.459,16.659-16.659V83.852c0-2.371-0.503-4.622-1.396-6.664
	h-221.84V444.807z"/>
<path style="fill:#CC7400;" d="M395.384,444.807H116.616c-9.2,0-16.659-7.459-16.659-16.659V289.874
	c0-86.043,70.001-156.043,156.043-156.043s156.043,70.001,156.043,156.043v138.273C412.043,437.348,404.584,444.807,395.384,444.807
	z"/>
<path style="fill:#AA6100;" d="M255.445,133.837v310.969h139.939c9.2,0,16.659-7.459,16.659-16.659V289.874
	c0-86.043-70.001-156.043-156.043-156.043C255.815,133.831,255.63,133.837,255.445,133.837z"/>
<path style="fill:#FF9811;" d="M255.466,410.703c-13.408,0.001-26.753-2.899-39.103-8.631
	c-30.329-14.074-49.655-42.711-50.436-74.739c-0.709-28.992,13.936-54.205,39.172-67.447c5.513-2.893,12.136-2.692,17.462,0.529
	c1.137,0.689,2.182,1.494,3.12,2.395c-0.201-2.634-0.315-5.241-0.329-7.808c-0.155-31.79,15.822-46.237,29.253-52.758
	c5.118-2.483,11.117-2.37,16.137,0.307c5.02,2.679,8.454,7.598,9.239,13.234c1.815,13.022,13.446,30.368,31.913,47.589
	c41.695,38.874,37.353,81.249,19.385,107.944c-11.377,16.904-28.967,29.545-49.531,35.595
	C273.141,409.447,264.289,410.703,255.466,410.703z"/>
<path style="fill:#FFDA44;" d="M207.555,303.973c-4.154,6.347-6.284,14.027-6.078,22.494c0.352,14.422,8.38,33.383,29.855,43.348
	l0,0c27.708,12.859,57.576,0.765,70.445-18.352c12.851-19.094,7.7-41.721-14.136-62.079c-8.726-8.139-18.489-18.486-26.547-30.204
	c0.796,11.773,4.376,26.726,8.738,43.463l0.51,1.958c1.49,5.724,0.037,11.815-3.878,16.249c-3.914,4.434-9.78,6.626-15.642,5.861
	C238.974,325.156,219.902,317.318,207.555,303.973z"/>
<path style="fill:#57565C;" d="M495.341,511.445H256H16.659c-4.6,0-8.765-1.865-11.78-4.879C1.864,503.551,0,499.385,0,494.785
	v-33.319v-33.319c0-4.6,1.865-8.765,4.879-11.78s7.18-4.879,11.78-4.879H256h239.341c4.6,0,8.765,1.865,11.78,4.879
	c3.015,3.014,4.879,7.18,4.879,11.78v33.319v33.319c0,4.6-1.865,8.765-4.879,11.78C504.107,509.581,499.941,511.445,495.341,511.445
	z"/>
<path style="fill:#3E3D42;" d="M495.341,511.445c4.6,0,8.765-1.865,11.779-4.88c3.015-3.014,4.88-7.179,4.88-11.779v-33.319v-33.319
	c0-4.6-1.865-8.765-4.88-11.779c-3.014-3.015-7.179-4.88-11.779-4.88H255.445v99.957H495.341z"/>
<path style="fill:#57565C;" d="M495.341,100.512H256H16.659c-4.6,0-8.765-1.865-11.78-4.879S0,88.453,0,83.852V50.534V17.215
	c0-4.6,1.865-8.765,4.879-11.78s7.18-4.879,11.78-4.879H256h239.341c4.6,0,8.765,1.865,11.78,4.879S512,12.615,512,17.215v33.319
	v33.319c0,4.6-1.865,8.765-4.879,11.78C504.107,98.648,499.941,100.512,495.341,100.512z"/>
<path style="fill:#3E3D42;" d="M495.341,100.512c4.6,0,8.765-1.865,11.779-4.88c3.015-3.014,4.88-7.179,4.88-11.779V50.534V17.215
	c0-4.6-1.865-8.765-4.88-11.779c-3.014-3.015-7.179-4.88-11.779-4.88H255.445v99.957H495.341z"/>
<g>
</g>
<g>
</g>
<g>
</g>
<g>
</g>
<g>
</g>
<g>
</g>
<g>
</g>
<g>
</g>
<g>
</g>
<g>
</g>
<g>
</g>
<g>
</g>
<g>
</g>
<g>
</g>
<g>
</g>
</svg>
