<?xml version="1.0" encoding="UTF-8" standalone="no"?>
<svg
   version="1.0"
   width="240.01924pt"
   height="152.33694pt"
   viewBox="0 0 240.01924 152.33694"
   preserveAspectRatio="xMidYMid"
   id="svg6"
   sodipodi:docname="flood-light-off.svg"
   inkscape:version="1.3.2 (091e20e, 2023-11-25, custom)"
   xmlns:inkscape="http://www.inkscape.org/namespaces/inkscape"
   xmlns:sodipodi="http://sodipodi.sourceforge.net/DTD/sodipodi-0.dtd"
   xmlns="http://www.w3.org/2000/svg"
   xmlns:svg="http://www.w3.org/2000/svg">
  <defs
     id="defs6" />
  <sodipodi:namedview
     id="namedview6"
     pagecolor="#ffffff"
     bordercolor="#000000"
     borderopacity="0.25"
     inkscape:showpageshadow="2"
     inkscape:pageopacity="0.0"
     inkscape:pagecheckerboard="0"
     inkscape:deskcolor="#d1d1d1"
     inkscape:document-units="pt"
     inkscape:zoom="3.3872283"
     inkscape:cx="160.01283"
     inkscape:cy="80.449257"
     inkscape:window-width="1920"
     inkscape:window-height="1027"
     inkscape:window-x="-8"
     inkscape:window-y="-8"
     inkscape:window-maximized="1"
     inkscape:current-layer="svg6" />
  <g
     transform="matrix(0.1,0,0,-0.1,28.120337,152.33694)"
     fill="#000000"
     stroke="none"
     id="g6"
     style="fill:#999999">
    <path
       d="m 750,1374 c -60,-28 -114,-74 -136,-117 -15,-28 -16,-28 -83,-21 -83,8 -170,-12 -256,-60 -33,-18 -76,-38 -96,-45 C 47,1088 -27,937 15,794 66,618 222,478 402,448 c 52,-8 76,-7 128,6 104,27 165,86 195,190 10,32 27,80 39,105 21,46 22,47 56,39 47,-10 125,0 179,23 52,23 61,23 61,5 0,-24 68,-150 103,-192 19,-22 42,-57 51,-79 51,-121 169,-147 320,-71 91,45 155,101 217,189 54,78 89,173 89,246 0,86 -63,170 -139,187 -14,3 -66,26 -116,50 -113,56 -212,78 -322,71 -46,-3 -81,-1 -78,3 9,15 -18,61 -34,58 -9,-2 -28,11 -44,29 -16,18 -56,46 -89,63 -83,41 -185,43 -268,4 z m 420,-135 c 0,-6 -4,-7 -10,-4 -5,3 -10,11 -10,16 0,6 5,7 10,4 6,-3 10,-11 10,-16 z M 374,1043 c 4,-5 12,-9 17,-9 5,-1 13,-2 18,-3 5,0 8,-12 6,-26 -2,-26 9,-33 21,-14 4,8 9,8 17,0 6,-6 16,-11 21,-11 6,0 -1,8 -17,18 -15,10 -24,21 -21,25 4,3 16,0 28,-8 11,-8 26,-15 33,-15 23,0 114,-100 134,-147 50,-118 -1,-242 -111,-269 -44,-11 -120,-6 -120,8 0,6 11,8 26,5 21,-4 29,2 50,35 24,38 36,109 21,124 -3,4 -28,-1 -54,-12 -27,-10 -54,-17 -62,-15 -7,1 -10,-2 -6,-8 4,-7 -5,-10 -27,-7 -18,2 -38,0 -44,-5 -17,-14 -41,18 -26,33 8,8 8,15 1,24 -7,8 -7,14 1,19 5,3 10,11 10,16 0,6 -5,7 -11,3 -6,-3 -16,0 -21,7 -8,11 -9,11 -5,-2 3,-10 -3,-34 -14,-54 -11,-20 -16,-34 -11,-31 6,3 12,-3 15,-14 3,-11 10,-20 17,-20 6,0 8,5 4,12 -5,7 -3,8 5,3 9,-5 9,-11 3,-17 -13,-13 61,-78 88,-78 11,0 21,-4 25,-9 9,-15 -52,5 -83,28 -72,51 -139,153 -128,193 2,10 0,16 -5,12 -5,-3 -9,5 -8,18 1,37 24,103 34,101 6,-1 20,7 32,19 11,11 29,18 40,16 15,-3 13,-7 -11,-20 l -29,-15 37,-7 c 21,-4 40,-5 43,-2 3,3 14,-6 25,-19 11,-14 24,-25 30,-25 6,0 0,9 -13,20 l -24,20 32,-17 c 17,-10 29,-22 26,-27 -3,-5 -1,-6 6,-2 6,4 18,3 25,-3 9,-8 13,-7 13,4 0,8 -5,11 -10,8 -6,-3 -7,-1 -3,6 8,12 19,8 49,-17 9,-8 17,-11 17,-6 0,5 -9,15 -20,22 -12,7 -18,17 -14,23 4,7 10,7 18,0 9,-7 12,-4 12,14 0,13 -2,23 -5,23 -4,0 -10,1 -16,2 -5,2 -19,3 -30,4 -12,1 -19,7 -18,16 2,10 -7,16 -29,17 -34,3 -54,23 -35,35 15,10 22,10 31,1 z M 212,968 c -7,-7 -12,-8 -12,-2 0,14 12,26 19,19 2,-3 -1,-11 -7,-17 z m 1170,-31 c -26,-27 -29,-46 -5,-26 15,13 15,12 4,-9 -7,-13 -10,-26 -7,-30 3,-3 6,0 6,6 0,6 8,9 18,6 13,-5 14,-4 3,4 -9,7 -10,12 -2,16 6,4 11,2 11,-4 0,-6 4,-8 10,-5 5,3 7,0 4,-9 -4,-11 2,-14 25,-12 19,1 30,-2 27,-8 -2,-6 -9,-10 -15,-8 -7,1 -10,-2 -6,-8 4,-6 13,-7 23,-2 9,5 24,8 32,7 8,-1 21,3 28,9 10,7 13,6 12,-5 -4,-23 0,-39 8,-38 20,3 32,-3 32,-17 0,-11 6,-14 20,-9 11,3 20,3 20,-2 0,-15 -31,-54 -39,-49 -4,3 -7,-4 -7,-16 1,-31 -28,-46 -49,-25 -9,9 -21,17 -26,17 -6,0 -7,5 -3,12 5,7 0,9 -14,6 -12,-3 -23,-1 -26,6 -2,6 -5,1 -5,-11 -1,-28 -15,-29 -40,-4 -11,11 -22,17 -25,13 -3,-3 -6,0 -6,6 0,6 -8,16 -19,21 -16,9 -18,7 -15,-25 4,-49 48,-113 89,-128 29,-11 0,-26 -50,-26 -25,0 -35,3 -27,9 10,6 3,13 -25,27 -21,10 -43,17 -50,16 -6,-1 -15,12 -19,30 -18,84 7,162 78,243 22,25 42,45 46,45 3,0 -4,-10 -16,-23 z m 296,-32 c 3,-38 -14,-122 -27,-130 -4,-2 -5,11 -3,28 2,27 -2,35 -33,55 -20,12 -39,21 -43,18 -4,-2 -13,2 -20,10 -11,12 -9,14 11,14 13,0 38,-5 56,-11 46,-16 48,-5 4,22 l -38,24 30,6 c 52,12 60,7 63,-36 z m -158,-31 c 0,-8 -19,-13 -24,-6 -3,5 1,9 9,9 8,0 15,-2 15,-3 z M 1373,745 c -3,-9 -8,-14 -10,-11 -3,3 -2,9 2,15 9,16 15,13 8,-4 z m -33,-141 c 0,-2 -9,0 -20,6 -11,6 -20,13 -20,16 0,2 9,0 20,-6 11,-6 20,-13 20,-16 z"
       id="path1"
       style="fill:#999999" />
    <path
       d="m 354,881 c 4,-6 1,-11 -6,-11 -8,-1 -6,-6 6,-15 24,-18 13,-20 -17,-3 -19,10 -20,9 -10,-4 7,-8 10,-18 6,-21 -17,-17 18,-5 38,14 13,11 18,17 11,14 -9,-5 -12,-1 -10,10 2,10 -3,20 -11,23 -8,3 -11,0 -7,-7 z"
       id="path2"
       style="fill:#999999" />
    <path
       d="m 622,720 c 0,-14 2,-19 5,-12 2,6 2,18 0,25 -3,6 -5,1 -5,-13 z"
       id="path3"
       style="fill:#999999" />
    <path
       d="m 586,693 c -6,-14 -5,-15 5,-6 7,7 10,15 7,18 -3,3 -9,-2 -12,-12 z"
       id="path4"
       style="fill:#999999" />
    <path
       d="m 1333,875 c -6,-14 -7,-23 -2,-19 13,8 31,44 22,44 -4,0 -13,-11 -20,-25 z"
       id="path5"
       style="fill:#999999" />
    <path
       d="m 1306,825 c -9,-26 -7,-32 5,-12 6,10 9,21 6,23 -2,3 -7,-2 -11,-11 z"
       id="path6"
       style="fill:#999999" />
  </g>
  <path
     style="fill:#cccccc;stroke-width:0.22142"
     d="m 161.98215,108.68391 c -4.24419,-0.90967 -7.85604,-3.42513 -10.38183,-7.2304 -0.45626,-0.68738 -1.31098,-2.273599 -1.89938,-3.524929 -1.15856,-2.463877 -3.02967,-5.418315 -4.87654,-7.699942 -3.73563,-4.614983 -10.01453,-16.06482 -10.54718,-19.233225 -0.26155,-1.555793 -0.28141,-1.5804 -1.27409,-1.578218 -0.59503,0.0015 -1.79685,0.365183 -3.36173,1.017833 -4.51519,1.883107 -7.73881,2.746657 -11.88254,3.183142 -3.04991,0.321263 -4.71802,0.274913 -7.4941,-0.208237 -3.4515,-0.60069 -3.60864,-0.526088 -5.08386,2.413635 -1.47169,2.932687 -2.13597,4.630327 -4.24231,10.841782 -0.966638,2.850533 -2.221062,6.080295 -2.787612,7.177238 -3.453751,6.687101 -8.981894,10.869491 -17.146464,12.972391 -4.615132,1.18869 -7.103018,1.36123 -11.304964,0.78405 C 52.764533,105.27281 37.562906,93.186549 31.142146,76.943439 29.168147,71.949661 28.420315,67.913484 28.639608,63.436824 c 0.39326,-8.02803 4.069399,-15.415343 9.96011,-20.015145 2.282669,-1.782437 4.35427,-2.906814 7.787767,-4.226869 1.461372,-0.561844 5.546571,-2.458461 9.078219,-4.214704 6.657485,-3.310685 9.723173,-4.504239 13.838748,-5.387792 3.195558,-0.686038 6.807513,-0.996309 9.716002,-0.834613 8.07413,0.448875 8.506056,0.446052 9.141545,-0.05976 0.324721,-0.258458 1.038168,-1.241444 1.585438,-2.184414 2.578217,-4.44237 7.362232,-8.534117 13.266153,-11.346478 4.5367,-2.161077 8.71892,-2.990538 14.11758,-2.799941 8.141,0.287413 15.04299,3.264795 21.37923,9.222588 2.33393,2.194524 3.73762,3.098631 4.81085,3.098631 1.3194,0 3.25242,2.909345 3.25662,4.901454 l 0.002,1.026603 1.00806,0.15117 c 0.55443,0.08314 3.81761,0.08199 7.25151,-0.0025 7.03821,-0.1733 9.43053,-0.0055 14.61486,1.025059 5.82276,1.157477 9.74581,2.61919 20.7453,7.72963 4.1661,1.935595 6.13245,2.737297 8.74609,3.565867 2.79692,0.886671 4.54974,1.982039 6.8754,4.296546 2.25263,2.24184 3.40071,3.86985 4.46495,6.331418 2.12016,4.903912 2.20108,9.835342 0.27398,16.69836 -2.78253,9.909487 -10.14554,20.92179 -18.47835,27.636675 -6.45926,5.205111 -15.42824,9.575431 -21.89423,10.668401 -2.45421,0.41484 -6.18591,0.39981 -8.20545,-0.033 z M 77.94564,94.424446 c 2.228051,-0.27621 5.044356,-1.200225 6.805338,-2.232802 2.027778,-1.189013 5.085977,-4.405208 6.182697,-6.50211 2.752101,-5.261963 3.013576,-11.879085 0.705864,-17.863185 -1.425129,-3.69549 -6.728448,-10.465268 -10.773933,-13.753125 -1.673999,-1.360493 -2.466366,-1.804905 -3.590034,-2.013503 -0.426234,-0.07913 -1.517719,-0.59064 -2.425521,-1.136692 -1.183464,-0.71187 -1.88838,-0.992828 -2.490975,-0.992828 -1.510135,0 -0.924399,1.030568 1.64996,2.902995 0.877197,0.638018 1.479579,1.198478 1.33863,1.245458 -0.344127,0.114712 -1.405907,-0.450728 -1.926429,-1.025903 -0.626336,-0.692092 -1.315802,-0.585315 -1.998283,0.309465 -1.113864,1.460348 -1.675662,0.839528 -1.675662,-1.851697 0,-2.128433 -0.179328,-2.37354 -1.893209,-2.587673 -0.936786,-0.117045 -1.442224,-0.331545 -2.124573,-0.901635 -1.055022,-0.881445 -1.726118,-0.93624 -2.953391,-0.241155 -2.473724,1.401023 -0.91111,3.382733 3.100887,3.932543 2.121471,0.29073 2.763186,0.643612 2.763186,1.519477 0,1.224293 0.550389,1.566188 3.093463,1.921635 3.885352,0.543053 3.648782,0.397215 3.725586,2.296688 0.07745,1.915425 -0.124814,2.247787 -0.965488,1.58652 -0.779358,-0.613043 -1.332895,-0.596573 -1.75807,0.05235 -0.465992,0.711195 -0.153785,1.473037 0.928062,2.264647 1.291447,0.944978 2.283307,1.916753 2.283307,2.237078 0,0.47997 -0.346113,0.334095 -1.584998,-0.668025 -2.077984,-1.68087 -2.892236,-2.143163 -3.774794,-2.143163 -0.696713,0 -0.883268,0.105728 -1.172098,0.66426 -0.358561,0.693383 -0.344842,0.711998 0.55355,0.75096 0.45657,0.0198 0.565706,0.150083 0.622935,0.743625 0.08177,0.84813 -0.118929,0.894923 -0.969362,0.225968 -0.651993,-0.512858 -2.047136,-0.664073 -2.811318,-0.304703 -0.298879,0.14055 -0.359699,0.104445 -0.26032,-0.154537 0.225964,-0.588848 -1.33347,-2.01102 -3.55396,-3.241125 -1.167993,-0.647048 -2.170882,-1.129185 -2.228643,-1.071428 -0.05776,0.05775 0.576604,0.693195 1.409698,1.41207 0.833096,0.718868 1.686041,1.53123 1.895433,1.805235 0.360866,0.472223 0.360361,0.498195 -0.0097,0.498195 -0.214718,0 -1.29633,-0.946567 -2.403583,-2.103487 -1.107253,-1.15692 -2.156803,-2.111055 -2.332336,-2.120295 -0.175531,-0.0092 -0.966801,-0.0052 -1.758378,0.0095 -0.791577,0.01447 -2.286162,-0.12951 -3.3213,-0.31998 -3.271522,-0.601958 -3.19327,-0.448103 -0.881853,-1.733858 2.883249,-1.603845 3.189911,-2.355637 0.964248,-2.363895 -1.257533,-0.0045 -2.219655,0.443925 -3.819822,1.780995 -0.750771,0.62733 -1.836117,1.31742 -2.41188,1.53354 -1.270984,0.477083 -1.758023,1.225238 -2.708663,4.160858 -1.530814,4.727212 -1.672984,8.61567 -0.295683,8.087152 0.233384,-0.08956 0.297853,0.281723 0.301524,1.73649 0.0035,1.386705 0.140068,2.23413 0.544975,3.38166 1.578457,4.473458 6.562609,10.910423 11.277242,14.564415 2.773945,2.14989 6.706583,3.970275 8.706182,4.030005 1.810179,0.05407 0.657596,-1.132717 -1.415838,-1.457865 -2.120792,-0.332572 -4.843437,-2.041162 -7.354356,-4.615207 -1.575499,-1.615103 -1.986251,-2.439375 -1.587183,-3.18504 0.375162,-0.700995 0.232575,-1.215855 -0.484943,-1.751048 -0.745592,-0.55614 -0.959798,-0.385747 -0.646153,0.513975 0.198636,0.569813 0.179181,0.708548 -0.115204,0.821513 -0.683287,0.2622 -1.053149,-0.155813 -1.999196,-2.259465 -0.267327,-0.594428 -0.562135,-0.908948 -0.896502,-0.956438 -0.274007,-0.03892 -0.498195,-0.161917 -0.498195,-0.273337 0,-0.111428 0.486828,-1.225433 1.081841,-2.475578 1.135603,-2.385945 1.575199,-3.821895 1.575199,-5.145412 v -0.794258 l 0.651088,0.481365 c 0.533837,0.39468 0.832898,0.45645 1.66065,0.342998 0.944261,-0.129428 1.009562,-0.105653 1.009562,0.3675 0,0.287467 -0.334599,0.83019 -0.77497,1.257007 -0.426233,0.413123 -0.77497,0.9006 -0.77497,1.083285 0,0.182678 0.269601,0.721178 0.599114,1.19667 l 0.599114,0.864518 -0.629666,1.164015 c -0.781723,1.445122 -0.677215,2.45985 0.341636,3.31716 0.789641,0.66444 1.496799,0.71565 2.477452,0.179407 0.567675,-0.31041 1.281145,-0.390112 3.587079,-0.400695 3.715029,-0.01703 3.512273,0.02707 3.360697,-0.73083 l -0.126667,-0.633337 1.425876,-0.133155 c 0.836061,-0.07807 2.923445,-0.640185 5.046263,-1.358925 1.991214,-0.674175 4.083826,-1.289295 4.650247,-1.366935 l 1.029857,-0.141158 0.360992,0.860258 c 0.717038,1.708732 -0.05664,6.47346 -1.590032,9.792285 -0.950102,2.056372 -2.594597,4.372402 -3.497585,4.925835 -0.601017,0.368355 -0.952695,0.407355 -2.582849,0.286387 -1.594753,-0.118327 -1.933931,-0.08359 -2.189403,0.224228 -0.619108,0.74598 0.529707,1.36005 3.301533,1.764757 1.213967,0.177248 4.654334,0.128288 6.426988,-0.09146 z m 93.31989,-1.346257 c 3.0755,-0.546255 3.31932,-1.354043 0.82482,-2.7327 -2.84563,-1.572728 -5.23194,-4.317345 -6.91298,-7.950945 -0.88429,-1.911413 -1.22896,-3.19623 -1.43264,-5.34039 -0.1469,-1.546463 0.0549,-1.998495 0.80784,-1.809518 0.86353,0.216735 2.36136,1.636928 2.43923,2.312798 0.0541,0.46983 0.19241,0.609142 0.62312,0.627825 0.30446,0.0132 0.66061,0.0381 0.79146,0.05535 0.13086,0.01725 0.87815,0.588045 1.66065,1.26846 0.78251,0.680415 1.70748,1.385992 2.0555,1.567957 1.22338,0.639668 2.13499,-0.08377 2.13499,-1.69428 0,-0.347452 0.059,-0.785595 0.13121,-0.97365 0.11763,-0.30654 0.18723,-0.305205 0.67272,0.0129 0.42733,0.279998 0.86374,0.32487 2.06959,0.212798 l 1.52808,-0.14202 -0.0419,0.926167 c -0.0356,0.784763 0.032,0.945383 0.44246,1.05204 0.45042,0.117053 1.52127,0.84645 3.0192,2.0565 0.96196,0.777098 2.56473,0.709118 3.45798,-0.14667 0.72426,-0.693885 1.11486,-1.7385 1.1224,-3.001755 0.006,-0.964972 0.17378,-1.222147 0.91727,-1.40394 1.25255,-0.306255 3.95984,-4.16166 3.59323,-5.117047 -0.13101,-0.341393 -0.30948,-0.373815 -1.2807,-0.232658 -2.35861,0.342788 -2.40406,0.330165 -2.66762,-0.740737 -0.32561,-1.32303 -0.98358,-1.805258 -2.46315,-1.805258 -1.49066,0 -1.70686,-0.33282 -1.63475,-2.516595 0.0287,-0.868822 0.0384,-1.704225 0.0215,-1.856452 -0.0482,-0.43539 -0.62954,-0.326318 -1.5669,0.293992 -0.66402,0.439433 -1.28708,0.610523 -2.70765,0.743535 -1.01483,0.09502 -2.23097,0.336368 -2.70252,0.536333 -1.06057,0.449737 -1.9925,0.466087 -2.34517,0.04117 -0.3588,-0.43233 -0.0766,-0.83628 0.46426,-0.664605 0.93524,0.296835 2.02245,-1.10139 1.24369,-1.599473 -0.15223,-0.09736 -1.2428,-0.193627 -2.4235,-0.21393 -1.18069,-0.02032 -2.24932,-0.100312 -2.37471,-0.17781 -0.1357,-0.08387 -0.1732,-0.540532 -0.0927,-1.12815 l 0.13531,-0.987255 -0.68973,0.137948 c -0.59987,0.11997 -0.71849,0.06232 -0.91037,-0.442343 -0.23428,-0.616222 -0.65424,-0.725175 -1.35324,-0.351082 -0.56642,0.303142 -0.54148,0.837757 0.0699,1.49835 l 0.4982,0.53829 -0.70663,-0.151275 c -0.85294,-0.182603 -1.61828,0.176175 -1.61828,0.75861 0,0.232087 -0.0996,0.483562 -0.22142,0.558825 -0.50131,0.309825 -0.17378,-1.440413 0.55355,-2.958105 0.42623,-0.889403 0.77497,-1.65879 0.77497,-1.70976 0,-0.266753 -0.5474,-0.0099 -1.45427,0.682305 -1.60881,1.228027 -1.86964,0.998992 -0.70457,-0.618705 0.39578,-0.549555 1.24272,-1.611818 1.88206,-2.360588 0.63935,-0.748762 1.16246,-1.455855 1.16246,-1.57131 0,-0.602932 -0.83778,0.03097 -3.01476,2.28105 -7.49944,7.751303 -10.85232,15.469208 -10.06277,23.163188 0.49211,4.79547 1.08965,6.015195 3.0963,6.320272 1.18679,0.180435 4.6409,1.586123 5.95089,2.42178 1.09492,0.69846 1.38624,1.214348 0.85396,1.512233 -0.52474,0.293655 -0.45179,0.819637 0.13186,0.950722 1.35506,0.304335 4.12357,0.245723 6.25228,-0.132367 z m -9.42429,-1.65393 c -0.57656,-0.618405 -2.85204,-1.85988 -3.40893,-1.85988 -0.60678,0 -0.35688,0.591585 0.49188,1.164495 1.33756,0.90285 2.11561,1.252807 2.80635,1.262257 l 0.6475,0.0089 z m 3.15022,-12.654105 c 0.78557,-0.94056 1.11502,-2.490975 0.52931,-2.490975 -0.47599,0 -1.51383,1.881165 -1.34001,2.428852 0.17502,0.551423 0.38838,0.567773 0.8107,0.0621 z m 28.60016,-4.21797 c 1.01193,-1.11816 2.11468,-6.152843 2.29323,-10.46985 0.2219,-5.365035 -0.27165,-6.415043 -3.00255,-6.38784 -1.64706,0.01642 -6.01438,0.88305 -6.04311,1.199182 -0.0103,0.113093 1.06548,0.89427 2.39056,1.735943 5.28115,3.354517 5.4734,3.993157 0.81144,2.695522 -2.95195,-0.821662 -6.37742,-1.25364 -7.25887,-0.915397 -0.31311,0.12015 -0.31422,0.198262 -0.0112,0.784222 0.48598,0.939788 1.52756,1.597253 2.65033,1.672943 1.09794,0.07402 3.94241,1.49169 5.53891,2.760555 0.54759,0.435217 1.21221,1.225132 1.47693,1.755367 0.42071,0.842655 0.46406,1.19118 0.34426,2.767748 -0.13482,1.774447 -0.0292,2.80008 0.28819,2.80008 0.0887,0 0.32356,-0.17931 0.52189,-0.398475 z m -13.7037,-9.02769 c 0.66951,-0.66951 0.28026,-0.980573 -1.22706,-0.980573 -0.90441,0 -1.25176,0.345428 -1.00197,0.99639 0.17358,0.452325 1.77223,0.440985 2.22903,-0.01583 z M 49.439742,55.515414 c 0.723909,-0.755603 0.855389,-1.557045 0.311776,-1.900448 -0.335473,-0.21192 -0.505371,-0.135945 -1.051744,0.470355 -1.295541,1.43763 -0.584257,2.812283 0.739968,1.430093 z M 145.10656,28.271821 c -0.0437,-0.937391 -0.63484,-1.590714 -1.43931,-1.590714 -0.51901,0 -0.62995,0.09449 -0.62995,0.536562 0,0.753368 1.04504,1.939401 1.6347,1.855251 0.37827,-0.05399 0.46218,-0.20868 0.43456,-0.801099 z"
     id="path7" />
  <path
     style="fill:#ffcc00;stroke-width:0.22142"
     d="m 70.632972,94.128661 c -3.285961,-0.603892 -3.23019,-1.719645 0.0683,-1.366402 0.762748,0.08168 1.632338,0.05497 1.932423,-0.0594 1.355887,-0.516743 3.565101,-3.664095 4.62181,-6.584453 1.278842,-3.534247 1.689614,-7.809322 0.879374,-9.151965 -0.271443,-0.449805 -0.432469,-0.49413 -1.434824,-0.394972 -0.620988,0.06142 -2.165392,0.480577 -3.432009,0.93144 -3.081219,1.096785 -6.031538,1.876177 -7.102117,1.876177 -0.854237,0 -0.873686,0.01732 -0.805844,0.71961 l 0.06952,0.719618 h -2.98917 c -2.412116,0 -3.134656,0.07478 -3.742803,0.387487 -1.255734,0.645638 -1.927523,0.470948 -2.743892,-0.713527 -0.528005,-0.766088 -0.470318,-1.56537 0.176226,-2.441708 0.688222,-0.932835 0.688926,-1.21575 0.0058,-2.32491 -0.300029,-0.487125 -0.548615,-0.945127 -0.552416,-1.01778 -0.0038,-0.07268 0.341826,-0.491182 0.76806,-0.93006 0.552085,-0.568462 0.774969,-0.998137 0.774969,-1.49397 v -0.696015 l -1.128786,0.15525 c -1.095242,0.15063 -1.154704,0.129938 -2.000931,-0.696382 l -0.872145,-0.851625 0.145094,1.234515 c 0.180418,1.535077 -0.211189,2.971687 -1.572459,5.768572 -1.128422,2.318468 -1.20804,2.783693 -0.493757,2.885138 0.365578,0.0519 0.675193,0.44139 1.163115,1.463115 0.710952,1.48875 1.034894,1.80948 1.833004,1.814842 0.615361,0.0037 0.832221,-0.466597 0.500506,-1.086412 -0.275861,-0.515445 -0.177858,-0.56595 0.448136,-0.230933 0.453323,0.242618 0.579353,0.979815 0.206864,1.21002 -0.342597,0.21174 -0.261727,1.28013 0.14292,1.888163 0.599369,0.900615 2.542569,2.848807 3.842639,3.852502 1.950007,1.505475 3.161919,2.111535 4.875061,2.437958 1.02198,0.19473 1.772175,0.473692 2.067171,0.76869 l 0.463035,0.463042 h -0.468719 c -1.64648,0 -6.211,-2.079802 -8.731584,-3.97851 -2.231073,-1.680615 -6.330827,-6.067635 -8.091873,-8.658847 -2.885083,-4.245135 -3.841129,-6.598313 -3.841129,-9.454418 0,-1.768282 -0.02498,-1.866705 -0.445738,-1.756672 -0.696835,0.182227 -0.959644,-0.56646 -0.793145,-2.259495 0.286661,-2.914898 1.912009,-8.20827 2.74306,-8.933498 0.207841,-0.181372 0.732745,-0.443535 1.166453,-0.582577 0.433707,-0.139035 1.380278,-0.760395 2.103489,-1.380795 0.723212,-0.620393 1.713486,-1.314158 2.20061,-1.541685 0.969009,-0.452618 2.655955,-0.56202 2.887564,-0.187268 0.197691,0.319868 -0.313796,0.680903 -2.720487,1.920248 -1.125917,0.579802 -2.047578,1.11462 -2.048134,1.188487 -0.002,0.267323 5.682544,1.109595 7.164009,1.061475 l 1.518813,-0.04935 2.070775,2.139173 c 1.547792,1.59891 2.212721,2.139172 2.632812,2.139172 0.797087,0 0.705036,-0.30894 -0.464653,-1.55943 -1.164879,-1.245345 -1.054161,-1.38294 0.374435,-0.465315 1.795619,1.153373 2.332451,1.799918 2.211793,2.66382 -0.03089,0.221175 0.100999,0.26517 0.471961,0.157448 1.444783,-0.41955 1.843226,-0.390945 2.702256,0.193995 1.100114,0.749115 1.514843,0.606255 1.42412,-0.490545 -0.05978,-0.72279 -0.14882,-0.841313 -0.677731,-0.902168 -0.66331,-0.07632 -0.753636,-0.250185 -0.343201,-0.660622 0.671358,-0.671363 1.713279,-0.251453 4.304949,1.734952 1.482896,1.13658 2.071947,1.350525 2.071947,0.752535 0,-0.6327 -0.443456,-1.18974 -1.66633,-2.09313 -1.366814,-1.009725 -1.948742,-1.76382 -1.753584,-2.272395 0.222957,-0.581017 0.77522,-0.630352 1.568428,-0.140122 1.185638,0.732765 1.40919,0.493095 1.405256,-1.50654 -0.0019,-0.947625 -0.07659,-1.8315 -0.166065,-1.964168 -0.177969,-0.263895 -2.028418,-0.653325 -4.216131,-0.887295 -1.678082,-0.17946 -2.266032,-0.601582 -2.454713,-1.76238 -0.174253,-1.072027 -0.59889,-1.303852 -2.992347,-1.633635 -1.997231,-0.275182 -3.387231,-0.939585 -3.887058,-1.857967 -0.331637,-0.609345 -0.320893,-0.642098 0.41432,-1.263293 1.018874,-0.860865 1.875058,-1.028917 2.603256,-0.510967 1.409098,1.002247 1.778519,1.169475 2.890315,1.308382 1.463622,0.182865 1.612053,0.426075 1.612053,2.641388 0,0.92937 0.103144,1.882492 0.229209,2.118045 0.36562,0.683167 1.191174,0.52923 1.859268,-0.346688 0.325105,-0.426232 0.696238,-0.774967 0.824744,-0.774967 0.128503,0 0.611692,0.299422 1.073754,0.665377 0.462059,0.365963 1.148961,0.727155 1.526446,0.80265 1.049439,0.209888 0.882784,-0.425917 -0.330433,-1.26063 -1.371551,-0.94365 -2.492199,-1.94481 -2.781031,-2.484495 -0.223567,-0.417742 -0.185736,-0.43749 0.617366,-0.32223 0.470539,0.0675 1.650225,0.580373 2.621526,1.13964 0.971298,0.559268 1.961139,1.01685 2.199646,1.01685 1.416273,0 4.756247,2.828378 8.497797,7.196145 4.16063,4.857 5.935639,8.210573 6.814446,12.87471 0.474452,2.518088 0.334065,6.537008 -0.313688,8.980163 -1.551755,5.852812 -5.766101,10.35717 -11.325211,12.10455 -2.847769,0.895132 -7.396169,1.160542 -10.40674,0.607267 z M 87.450475,83.453364 c 0.712946,-0.811995 0.849976,-1.74939 0.255731,-1.74939 -0.428611,0 -1.098132,0.965422 -1.266825,1.826715 -0.185192,0.945517 0.13449,0.921075 1.011094,-0.07733 z m 3.549745,-3.23091 c 0.0031,-1.14471 -0.258753,-1.762155 -0.601795,-1.419113 -0.196417,0.196418 -0.161458,2.66655 0.04241,2.996415 0.306062,0.495218 0.555704,-0.208695 0.559385,-1.577302 z M 62.872701,69.974071 c 1.196937,-0.606532 3.774711,-2.662755 3.774711,-3.01098 0,-0.12195 -0.274007,-0.19305 -0.608904,-0.157995 -0.59049,0.0618 -0.609196,0.03022 -0.618522,-1.043362 -0.01193,-1.37292 -0.337471,-1.988198 -1.213547,-2.293598 -0.774541,-0.270007 -0.9093,-0.112005 -0.822896,0.964853 0.04331,0.539722 -0.03998,0.677325 -0.444915,0.735015 -0.824356,0.11745 -0.583636,0.827452 0.626494,1.84785 0.626712,0.52845 1.004294,0.988485 0.852775,1.03899 -0.149553,0.04988 -1.151247,-0.340373 -2.225987,-0.867165 -1.07474,-0.526793 -2.016108,-0.89577 -2.091928,-0.819953 -0.07582,0.07582 0.157016,0.568328 0.517415,1.094453 0.875157,1.277602 1.028536,1.823085 0.610225,2.170252 -0.479605,0.39804 -0.417112,0.88983 0.113072,0.88983 0.247611,0 0.937014,-0.246682 1.532007,-0.54819 z"
     id="path8" />
  <path
     style="fill:#ffcc00;stroke-width:0.22142"
     d="m 166.2864,93.181021 c -1.58023,-0.248895 -1.63236,-0.280102 -1.22325,-0.732165 0.20701,-0.22875 0.34143,-0.597465 0.29869,-0.819367 -0.1575,-0.817823 -4.54947,-2.963738 -7.13722,-3.487245 -1.24266,-0.251393 -1.3884,-0.344303 -1.85583,-1.183065 -0.279,-0.50064 -0.66448,-1.638773 -0.85664,-2.52918 -0.42464,-1.967723 -0.47923,-6.374633 -0.10372,-8.372235 0.84524,-4.496265 3.25269,-9.326153 6.84275,-13.728038 2.01531,-2.47104 4.84984,-5.445705 5.02705,-5.27556 0.0855,0.08208 -0.23754,0.580275 -0.71783,1.107105 -1.4281,1.566488 -2.4882,3.066668 -2.4882,3.521153 0,0.611872 0.71634,0.539782 1.54231,-0.15522 0.37983,-0.319605 0.7375,-0.534203 0.79483,-0.47688 0.0573,0.0573 -0.14617,0.670402 -0.4522,1.36239 -0.53009,1.198635 -0.72422,2.553862 -0.41072,2.867355 0.22643,0.226432 0.73998,-0.300338 0.73998,-0.759038 0,-0.524167 0.8165,-0.740895 1.62836,-0.432225 1.22164,0.46446 1.40508,0.271808 0.53049,-0.557137 -0.94595,-0.896588 -1.00214,-1.094415 -0.40205,-1.415573 0.6427,-0.343957 0.86206,-0.281205 0.9402,0.26898 0.0573,0.403478 0.21086,0.497595 0.80769,0.495023 l 0.73692,-0.003 -0.14049,0.93687 c -0.1671,1.114305 -0.14644,1.123282 2.80729,1.22037 2.2045,0.07245 2.71297,0.337185 2.05151,1.068097 -0.24979,0.276015 -0.58576,0.417788 -0.83538,0.352508 -0.89871,-0.23502 -1.4045,0.513652 -0.7734,1.144755 0.3777,0.3777 1.84835,0.328867 2.65478,-0.08816 0.37635,-0.194618 1.50821,-0.428948 2.51524,-0.52074 1.38376,-0.12612 2.08001,-0.312825 2.85055,-0.764393 0.56077,-0.328627 1.10468,-0.544912 1.20869,-0.48063 0.10401,0.06428 0.13923,0.813915 0.0783,1.665848 -0.0703,0.983482 -0.009,1.793655 0.16679,2.21919 0.25483,0.61521 0.36538,0.670207 1.34743,0.670207 1.59308,0 2.15491,0.34188 2.49855,1.520408 0.38382,1.316302 0.74163,1.526415 2.01805,1.185022 1.19699,-0.320145 1.817,-0.342615 1.98431,-0.07192 0.30569,0.494618 -1.43505,3.295928 -2.72709,4.388603 -0.31882,0.269632 -0.7932,0.493815 -1.05418,0.498195 -0.56587,0.0095 -0.74165,0.392782 -0.74817,1.63137 -0.0101,1.902817 -1.23861,3.469252 -2.72099,3.469252 -0.5585,0 -1.74336,-0.715965 -2.99385,-1.809052 -0.40577,-0.35469 -1.03768,-0.70488 -1.40426,-0.778193 -0.6493,-0.129862 -0.66272,-0.158452 -0.52025,-1.108545 l 0.14625,-0.97524 -1.68363,0.152565 c -1.56422,0.14175 -1.72227,0.116265 -2.22848,-0.359295 -0.29967,-0.281527 -0.59405,-0.462682 -0.65418,-0.402555 -0.0601,0.06015 -0.19425,0.730403 -0.29806,1.489515 -0.33123,2.42199 -1.12643,2.554403 -3.36182,0.5598 -1.47756,-1.318395 -2.35614,-1.846627 -2.97572,-1.78908 -0.2791,0.02595 -0.46646,-0.164475 -0.58506,-0.594562 -0.22679,-0.82242 -0.77902,-1.417883 -1.79652,-1.937198 -1.10879,-0.565905 -1.64716,-0.537457 -1.806,0.09542 -0.19904,0.793057 0.24623,4.123402 0.74523,5.573752 1.31249,3.814845 4.73196,8.130405 7.46512,9.421425 1.15335,0.544793 1.83472,1.05165 1.83472,1.364813 0,0.422107 -2.03116,1.068082 -4.01567,1.277107 -2.12479,0.2238 -2.33695,0.22887 -3.29119,0.07856 z m -7.0929,-21.907665 c 0.75558,-1.191442 1.04015,-2.242597 0.69936,-2.58339 -0.38373,-0.383722 -1.09748,0.436095 -1.46907,1.68738 -0.63579,2.140958 -0.28143,2.553473 0.76971,0.89601 z m 2.71969,-5.013427 c 0.66305,-0.706148 1.93708,-3.108608 1.93742,-3.65343 3.2e-4,-0.50889 -0.83983,-0.284273 -1.39223,0.37221 -1.0839,1.288147 -2.09543,4.000837 -1.49186,4.000837 0.14904,0 0.57504,-0.323827 0.94667,-0.719617 z"
     id="path9" />
  <path
     style="fill:#ffcc00;stroke-width:0.22142"
     d="m 192.99728,74.394849 c -0.0706,-0.183915 -0.0739,-1.255035 -0.008,-2.380268 0.14802,-2.508135 -0.11472,-3.128265 -1.94803,-4.597852 -1.5616,-1.25178 -4.41467,-2.703585 -5.47388,-2.785418 -0.43605,-0.03368 -0.86408,-0.06712 -0.95118,-0.07433 -0.34589,-0.02857 -1.72371,-1.408402 -1.72371,-1.72626 0,-0.5538 3.84472,-0.24828 6.31047,0.501465 2.86582,0.871388 4.07468,1.100468 4.35068,0.82446 0.45641,-0.456405 -0.2868,-1.171095 -3.19496,-3.072352 -1.60989,-1.052498 -3.00678,-1.984995 -3.10418,-2.072213 -0.25951,-0.23238 4.39056,-1.111147 5.87867,-1.110945 2.12729,2.93e-4 2.59898,0.904298 2.59956,4.982123 5.1e-4,3.61434 -0.9795,8.978272 -2.0091,10.996447 -0.48433,0.94935 -0.54393,0.99159 -0.72676,0.51513 z"
     id="path10" />
  <path
     style="fill:#ffcc00;stroke-width:0.22142"
     d="m 48.269555,55.565416 c 0,-0.98166 1.132881,-2.155275 1.615041,-1.673115 0.381558,0.381555 -0.852773,2.01624 -1.522441,2.01624 -0.05093,0 -0.0926,-0.154402 -0.0926,-0.343125 z"
     id="path11" />
  <path
     style="fill:#ffcc00;stroke-width:0.22142"
     d="m 63.824308,67.034296 c -0.63935,-0.639675 -1.162455,-1.255492 -1.162455,-1.368472 0,-0.11298 0.224188,-0.237263 0.498195,-0.276173 0.436592,-0.06203 0.491135,-0.184612 0.441103,-0.991515 -0.05057,-0.81567 -0.008,-0.90792 0.373145,-0.808252 0.774424,0.202515 1.226816,0.934185 1.252622,2.025907 0.03487,1.475243 0.0539,1.544948 0.443487,1.62429 0.285462,0.05812 0.254259,0.1548 -0.166065,0.514433 l -0.517577,0.442837 z"
     id="path12" />
  <path
     style="fill:#ffcc00;stroke-width:0.22142"
     d="m 61.501116,69.658584 c 0.359388,-0.626198 0.351055,-0.670493 -0.333283,-1.771358 -0.386039,-0.621007 -0.664304,-1.129102 -0.618367,-1.129102 0.04594,0 0.811213,0.348735 1.700613,0.774967 0.8894,0.426233 1.863447,0.774975 2.16455,0.774975 0.527338,0 0.51943,0.02123 -0.215174,0.57756 -0.823979,0.62403 -2.36974,1.402493 -2.800468,1.410353 -0.183535,0.003 -0.151747,-0.195045 0.102129,-0.637395 z"
     id="path13" />
  <path
     style="fill:#ffcc00;stroke-width:0.22142"
     d="m 161.09781,66.204571 c 0.37557,-1.566172 2.03931,-3.998062 2.45251,-3.584857 0.23772,0.23772 -1.17277,2.875132 -1.9183,3.586965 l -0.69351,0.662152 z"
     id="path14" />
  <path
     style="fill:#ffcc00;stroke-width:0.22142"
     d="m 158.40226,71.297236 c 0.2814,-1.165177 1.05899,-2.596035 1.28692,-2.368102 0.25026,0.25026 -0.57909,2.31741 -1.10276,2.748615 -0.30282,0.249352 -0.32514,0.203227 -0.18416,-0.380513 z"
     id="path15" />
  <path
     style="fill:#ffcc00;stroke-width:0.22142"
     d="m 160.79525,91.546186 c -0.75739,-0.303907 -2.52923,-1.56351 -2.39215,-1.700587 0.14882,-0.148823 2.26892,0.896257 3.01206,1.484767 0.59531,0.471435 0.28572,0.579218 -0.61991,0.21582 z"
     id="path16" />
  <path
     style="fill:#ffcc00;stroke-width:0.22142"
     d=""
     id="path17" />
  <path
     style="fill:#ffcc00;stroke-width:0.22142"
     d="m 177.84117,65.263539 c 0.0785,-0.414083 1.24242,-0.649155 1.91757,-0.38727 0.32907,0.127642 0.32262,0.174352 -0.0634,0.458437 -0.23639,0.173978 -0.7668,0.31632 -1.17869,0.31632 -0.59358,0 -0.73366,-0.08036 -0.67548,-0.387487 z"
     id="path18" />
  <ellipse
     style="fill:#ffcc00;stroke-width:0.75"
     id="path19"
     cx="61.886883"
     cy="67.090256"
     rx="14.724428"
     ry="18.599277" />
  <ellipse
     style="fill:#ffcc00;stroke-width:0.75"
     id="path20"
     cx="61.997593"
     cy="70.190125"
     rx="19.484959"
     ry="20.370638" />
  <ellipse
     style="fill:#ffcc00;stroke-width:2.3307"
     id="path21"
     cx="0.20061436"
     cy="96.986282"
     rx="23.54657"
     ry="30.503021"
     transform="matrix(0.8050445,-0.59321442,0.67410353,0.73863688,0,0)" />
  <ellipse
     style="fill:#ffcc00;stroke-width:2.3307"
     id="path21-8"
     cx="163.0242"
     cy="-119.73224"
     rx="23.54657"
     ry="30.503021"
     transform="matrix(0.48656741,0.87364304,-0.81800576,0.57521003,0,0)" />
  <path
     style="fill:#f2f2f2;stroke-width:0.22142"
     d="m 161.27391,108.40151 c -3.57111,-0.96406 -6.91563,-3.30461 -9.04083,-6.3269 -0.51379,-0.73069 -1.60216,-2.618804 -2.41859,-4.195814 -1.53094,-2.95716 -2.81849,-4.978312 -5.03047,-7.896675 -3.65222,-4.818555 -8.84016,-14.029732 -10.02959,-17.807527 -0.22861,-0.726113 -0.46655,-1.469663 -0.52875,-1.652333 -0.0622,-0.18267 -0.12271,-0.48159 -0.13448,-0.66426 -0.0345,-0.535815 -1.81099,-0.477907 -3.45341,0.112583 -5.93974,2.13546 -7.34449,2.590267 -9.24861,2.994337 -3.16964,0.672638 -7.97225,0.819968 -11.08805,0.340155 -3.53895,-0.54498 -3.74651,-0.43806 -5.34346,2.752688 -1.23442,2.466375 -3.17051,7.463722 -2.99909,7.741087 0.0653,0.105713 0.0391,0.225623 -0.0582,0.266475 -0.0973,0.04087 -0.80441,1.817948 -1.57124,3.949118 -2.055169,5.711685 -3.218525,7.901752 -5.744075,10.813432 -3.316758,3.823864 -8.23076,6.556044 -14.652449,8.146744 -2.293771,0.56818 -2.919677,0.63093 -6.310469,0.63256 -3.045262,0.002 -4.239679,-0.0945 -6.254127,-0.50232 C 59.911584,105.59519 52.295076,101.99195 46.166062,97.074601 42.184546,93.880209 37.702068,88.766634 34.924489,84.250299 32.278257,79.947541 29.850121,73.819846 29.140188,69.652921 c -0.445899,-2.617192 -0.455422,-6.807405 -0.02155,-9.482595 0.913376,-5.631727 3.492359,-10.743007 7.40963,-14.68512 2.708532,-2.725707 5.599902,-4.510977 10.35741,-6.395156 1.004693,-0.397903 1.826715,-0.795292 1.826715,-0.88309 0,-0.08779 0.130393,-0.159628 0.289762,-0.159628 0.400987,0 3.474377,-1.432696 3.474377,-1.619621 0,-0.08346 0.140763,-0.151739 0.312809,-0.151739 0.172043,0 2.189733,-0.908036 4.483755,-2.017861 6.605779,-3.19581 9.764583,-4.269005 14.829418,-5.038254 2.021147,-0.306972 3.466215,-0.342197 9.047905,-0.220547 7.768847,0.169318 6.783836,0.497206 9.111562,-3.033031 4.480907,-6.795757 12.966969,-12.073995 21.307729,-13.253181 2.89714,-0.409587 8.66398,-0.142261 11.5398,0.534933 5.37128,1.264825 10.21237,3.834179 14.46596,7.677648 3.20094,2.892314 4.11002,3.506144 5.70264,3.85055 0.3151,0.06814 0.83383,0.329127 1.15272,0.579964 0.72185,0.56781 1.84868,2.87687 2.05126,4.203374 0.0837,0.548014 0.26451,1.0675 0.40183,1.154412 0.13731,0.08691 3.80073,0.162689 8.14093,0.168394 9.23502,0.01214 11.57247,0.238941 17.23989,1.672772 4.29105,1.085613 7.58976,2.377736 16.97824,6.650466 3.38808,1.541929 6.38426,2.81716 6.65819,2.833846 0.27392,0.01669 0.49811,0.09689 0.49819,0.178221 9e-5,0.08133 0.82218,0.419106 1.82687,0.750605 2.77178,0.914541 4.46853,1.819146 6.21721,3.314631 7.03036,6.012405 8.95493,13.779225 5.97893,24.12864 -2.47684,8.613547 -8.20772,17.881875 -15.26552,24.688327 -4.93057,4.754985 -11.56867,8.953969 -18.22476,11.528229 -4.30507,1.66499 -6.08329,2.03056 -10.31356,2.12026 -3.19318,0.0677 -4.00387,0.0151 -5.34462,-0.34686 z m 13.01294,-8.09026 c 7.45208,-1.299534 14.18248,-4.946844 20.00918,-10.843291 7.03149,-7.115663 10.79819,-15.863468 10.44597,-24.259778 -0.2164,-5.1585 -1.85304,-9.325012 -4.96501,-12.639817 -3.93436,-4.190775 -8.64618,-6.079058 -15.11273,-6.05649 -5.13497,0.01792 -8.92567,0.969817 -14.06017,3.530685 -3.98151,1.985812 -6.53925,3.871417 -10.20203,7.521082 -3.36396,3.351908 -5.42394,6.142905 -7.31908,9.916358 -3.4037,6.777172 -4.28642,14.638402 -2.29398,20.429527 2.26257,6.576285 7.6458,11.120505 14.68735,12.398274 2.16971,0.39371 6.56271,0.39543 8.8105,0.004 z M 75.873013,97.963066 c 8.198588,-0.914197 14.409653,-5.662245 16.680519,-12.751417 1.195499,-3.732105 1.323031,-6.615 0.53228,-12.032348 C 92.310827,67.869969 90.472563,64.361889 85.265974,58.256199 77.709036,49.394281 65.567787,43.993239 55.559338,45.041184 46.510996,45.988599 40.09973,51.228886 38.064673,59.340556 c -0.595723,2.37453 -0.700949,6.75759 -0.225917,9.410348 2.337535,13.053667 14.24577,25.145025 28.037495,28.46865 3.785597,0.912277 6.603612,1.121865 9.996762,0.743512 z M 145.17162,28.784102 c 0.13858,-0.361128 -0.0225,-1.15144 -0.33128,-1.625131 -0.10651,-0.163409 -0.54931,-0.345035 -0.98399,-0.403614 -0.76179,-0.102662 -0.78964,-0.08178 -0.77088,0.578034 0.035,1.232994 1.72006,2.404743 2.08615,1.450711 z"
     id="path22" />
  <path
     style="fill:#806600;stroke-width:0.295227"
     d="m 220.68191,133.46874 c -10.3241,-1.99854 -17.4908,-8.69646 -19.9919,-18.68423 -0.85998,-3.43419 -0.92292,-9.93084 -0.13243,-13.66939 3.90956,-18.489943 20.18596,-34.536351 38.84872,-38.299771 1.7992,-0.362816 3.8562,-0.503307 7.10794,-0.485467 3.90296,0.02141 4.98852,0.1347 7.38066,0.770229 9.18985,2.441501 15.61972,8.825374 18.06886,17.939599 0.5776,2.149472 0.67234,3.208163 0.66051,7.380666 -0.0115,4.067027 -0.12725,5.33427 -0.70083,7.675892 -2.22829,9.096902 -6.73279,16.783582 -13.93782,23.784122 -6.68918,6.49933 -14.02051,10.72657 -22.34367,12.88335 -2.98083,0.77242 -4.08408,0.90733 -8.16983,0.99903 -3.17495,0.0713 -5.40117,-0.0251 -6.79021,-0.29403 z"
     id="path30"
     transform="scale(0.75)" />
  <path
     style="fill:#806600;stroke-width:0.295227"
     d="M 93.064232,130.33199 C 73.159067,127.82833 55.021255,111.51268 50.902494,92.405936 50.204899,89.169824 50.19,82.517775 50.874156,79.754461 c 1.219918,-4.927256 3.188533,-8.499595 6.541688,-11.870851 3.588645,-3.608015 7.904955,-5.910957 13.290934,-7.091299 3.5342,-0.774524 10.270831,-0.706825 14.318492,0.143891 13.247217,2.784231 24.6629,10.703331 32.73515,22.708486 4.65663,6.925401 6.67316,13.456916 6.62431,21.455992 -0.0197,3.2237 -0.1638,4.65288 -0.65493,6.49499 -2.53592,9.51167 -9.75906,16.25975 -19.56269,18.27608 -2.85274,0.58672 -8.30157,0.81259 -11.102878,0.46024 z"
     id="path31"
     transform="scale(0.75)" />
</svg>
