<?xml version="1.0" encoding="UTF-8" standalone="no"?>
<svg
   version="1.0"
   width="184.000000pt"
   height="184.000000pt"
   viewBox="0 0 184.000000 184.000000"
   preserveAspectRatio="xMidYMid meet"
   id="svg6"
   sodipodi:docname="flood-light-off.svg"
   inkscape:version="1.3.2 (091e20e, 2023-11-25, custom)"
   xmlns:inkscape="http://www.inkscape.org/namespaces/inkscape"
   xmlns:sodipodi="http://sodipodi.sourceforge.net/DTD/sodipodi-0.dtd"
   xmlns="http://www.w3.org/2000/svg"
   xmlns:svg="http://www.w3.org/2000/svg">
  <defs
     id="defs6" />
  <sodipodi:namedview
     id="namedview6"
     pagecolor="#ffffff"
     bordercolor="#000000"
     borderopacity="0.25"
     inkscape:showpageshadow="2"
     inkscape:pageopacity="0.0"
     inkscape:pagecheckerboard="0"
     inkscape:deskcolor="#d1d1d1"
     inkscape:document-units="pt"
     inkscape:zoom="3.3872283"
     inkscape:cx="122.51905"
     inkscape:cy="122.66667"
     inkscape:window-width="1920"
     inkscape:window-height="1027"
     inkscape:window-x="-8"
     inkscape:window-y="-8"
     inkscape:window-maximized="1"
     inkscape:current-layer="svg6" />
  <g
     transform="translate(0.000000,184.000000) scale(0.100000,-0.100000)"
     fill="#000000"
     stroke="none"
     id="g6"
     style="fill:#999999">
    <path
       d="M750 1374 c-60 -28 -114 -74 -136 -117 -15 -28 -16 -28 -83 -21 -83 8 -170 -12 -256 -60 -33 -18 -76 -38 -96 -45 -132 -43 -206 -194 -164 -337 51 -176 207 -316 387 -346 52 -8 76 -7 128 6 104 27 165 86 195 190 10 32 27 80 39 105 21 46 22 47 56 39 47 -10 125 0 179 23 52 23 61 23 61 5 0 -24 68 -150 103 -192 19 -22 42 -57 51 -79 51 -121 169 -147 320 -71 91 45 155 101 217 189 54 78 89 173 89 246 0 86 -63 170 -139 187 -14 3 -66 26 -116 50 -113 56 -212 78 -322 71 -46 -3 -81 -1 -78 3 9 15 -18 61 -34 58 -9 -2 -28 11 -44 29 -16 18 -56 46 -89 63 -83 41 -185 43 -268 4z m420 -135 c0 -6 -4 -7 -10 -4 -5 3 -10 11 -10 16 0 6 5 7 10 4 6 -3 10 -11 10 -16z m-796 -196 c4 -5 12 -9 17 -9 5 -1 13 -2 18 -3 5 0 8 -12 6 -26 -2 -26 9 -33 21 -14 4 8 9 8 17 0 6 -6 16 -11 21 -11 6 0 -1 8 -17 18 -15 10 -24 21 -21 25 4 3 16 0 28 -8 11 -8 26 -15 33 -15 23 0 114 -100 134 -147 50 -118 -1 -242 -111 -269 -44 -11 -120 -6 -120 8 0 6 11 8 26 5 21 -4 29 2 50 35 24 38 36 109 21 124 -3 4 -28 -1 -54 -12 -27 -10 -54 -17 -62 -15 -7 1 -10 -2 -6 -8 4 -7 -5 -10 -27 -7 -18 2 -38 0 -44 -5 -17 -14 -41 18 -26 33 8 8 8 15 1 24 -7 8 -7 14 1 19 5 3 10 11 10 16 0 6 -5 7 -11 3 -6 -3 -16 0 -21 7 -8 11 -9 11 -5 -2 3 -10 -3 -34 -14 -54 -11 -20 -16 -34 -11 -31 6 3 12 -3 15 -14 3 -11 10 -20 17 -20 6 0 8 5 4 12 -5 7 -3 8 5 3 9 -5 9 -11 3 -17 -13 -13 61 -78 88 -78 11 0 21 -4 25 -9 9 -15 -52 5 -83 28 -72 51 -139 153 -128 193 2 10 0 16 -5 12 -5 -3 -9 5 -8 18 1 37 24 103 34 101 6 -1 20 7 32 19 11 11 29 18 40 16 15 -3 13 -7 -11 -20 l-29 -15 37 -7 c21 -4 40 -5 43 -2 3 3 14 -6 25 -19 11 -14 24 -25 30 -25 6 0 0 9 -13 20 l-24 20 32 -17 c17 -10 29 -22 26 -27 -3 -5 -1 -6 6 -2 6 4 18 3 25 -3 9 -8 13 -7 13 4 0 8 -5 11 -10 8 -6 -3 -7 -1 -3 6 8 12 19 8 49 -17 9 -8 17 -11 17 -6 0 5 -9 15 -20 22 -12 7 -18 17 -14 23 4 7 10 7 18 0 9 -7 12 -4 12 14 0 13 -2 23 -5 23 -4 0 -10 1 -16 2 -5 2 -19 3 -30 4 -12 1 -19 7 -18 16 2 10 -7 16 -29 17 -34 3 -54 23 -35 35 15 10 22 10 31 1z m-162 -75 c-7 -7 -12 -8 -12 -2 0 14 12 26 19 19 2 -3 -1 -11 -7 -17z m1170 -31 c-26 -27 -29 -46 -5 -26 15 13 15 12 4 -9 -7 -13 -10 -26 -7 -30 3 -3 6 0 6 6 0 6 8 9 18 6 13 -5 14 -4 3 4 -9 7 -10 12 -2 16 6 4 11 2 11 -4 0 -6 4 -8 10 -5 5 3 7 0 4 -9 -4 -11 2 -14 25 -12 19 1 30 -2 27 -8 -2 -6 -9 -10 -15 -8 -7 1 -10 -2 -6 -8 4 -6 13 -7 23 -2 9 5 24 8 32 7 8 -1 21 3 28 9 10 7 13 6 12 -5 -4 -23 0 -39 8 -38 20 3 32 -3 32 -17 0 -11 6 -14 20 -9 11 3 20 3 20 -2 0 -15 -31 -54 -39 -49 -4 3 -7 -4 -7 -16 1 -31 -28 -46 -49 -25 -9 9 -21 17 -26 17 -6 0 -7 5 -3 12 5 7 0 9 -14 6 -12 -3 -23 -1 -26 6 -2 6 -5 1 -5 -11 -1 -28 -15 -29 -40 -4 -11 11 -22 17 -25 13 -3 -3 -6 0 -6 6 0 6 -8 16 -19 21 -16 9 -18 7 -15 -25 4 -49 48 -113 89 -128 29 -11 0 -26 -50 -26 -25 0 -35 3 -27 9 10 6 3 13 -25 27 -21 10 -43 17 -50 16 -6 -1 -15 12 -19 30 -18 84 7 162 78 243 22 25 42 45 46 45 3 0 -4 -10 -16 -23z m296 -32 c3 -38 -14 -122 -27 -130 -4 -2 -5 11 -3 28 2 27 -2 35 -33 55 -20 12 -39 21 -43 18 -4 -2 -13 2 -20 10 -11 12 -9 14 11 14 13 0 38 -5 56 -11 46 -16 48 -5 4 22 l-38 24 30 6 c52 12 60 7 63 -36z m-158 -31 c0 -8 -19 -13 -24 -6 -3 5 1 9 9 9 8 0 15 -2 15 -3z m-147 -129 c-3 -9 -8 -14 -10 -11 -3 3 -2 9 2 15 9 16 15 13 8 -4z m-33 -141 c0 -2 -9 0 -20 6 -11 6 -20 13 -20 16 0 2 9 0 20 -6 11 -6 20 -13 20 -16z"
       id="path1"
       style="fill:#999999" />
    <path
       d="M354 881 c4 -6 1 -11 -6 -11 -8 -1 -6 -6 6 -15 24 -18 13 -20 -17 -3 -19 10 -20 9 -10 -4 7 -8 10 -18 6 -21 -17 -17 18 -5 38 14 13 11 18 17 11 14 -9 -5 -12 -1 -10 10 2 10 -3 20 -11 23 -8 3 -11 0 -7 -7z"
       id="path2"
       style="fill:#999999" />
    <path
       d="M622 720 c0 -14 2 -19 5 -12 2 6 2 18 0 25 -3 6 -5 1 -5 -13z"
       id="path3"
       style="fill:#999999" />
    <path
       d="M586 693 c-6 -14 -5 -15 5 -6 7 7 10 15 7 18 -3 3 -9 -2 -12 -12z"
       id="path4"
       style="fill:#999999" />
    <path
       d="M1333 875 c-6 -14 -7 -23 -2 -19 13 8 31 44 22 44 -4 0 -13 -11 -20 -25z"
       id="path5"
       style="fill:#999999" />
    <path
       d="M1306 825 c-9 -26 -7 -32 5 -12 6 10 9 21 6 23 -2 3 -7 -2 -11 -11z"
       id="path6"
       style="fill:#999999" />
  </g>
  <path
     style="fill:#cccccc;stroke-width:0.295227"
     d="m 178.48242,187.12929 c -5.65892,-1.21289 -10.47472,-4.56684 -13.84245,-9.64053 -0.60834,-0.91651 -1.74797,-3.03147 -2.5325,-4.69991 -1.54475,-3.28517 -4.03956,-7.22442 -6.50206,-10.26659 -4.98084,-6.15331 -13.3527,-21.41976 -14.06291,-25.6443 -0.34873,-2.07439 -0.37521,-2.1072 -1.69878,-2.10429 -0.79337,0.002 -2.3958,0.48691 -4.48231,1.35711 -6.02025,2.51081 -10.3184,3.66221 -15.84338,4.24419 -4.06654,0.42835 -6.29069,0.36655 -9.99213,-0.27765 -4.602,-0.80092 -4.81152,-0.70145 -6.77848,3.21818 -1.96226,3.91025 -2.847961,6.17377 -5.656417,14.45571 -1.28885,3.80071 -2.961415,8.10706 -3.716815,9.56965 -4.605001,8.91613 -11.975859,14.49265 -22.861952,17.29652 -6.153509,1.58492 -9.47069,1.81498 -15.073285,1.0454 C 32.858928,182.58115 12.590092,166.46614 4.0290795,144.80866 1.3970809,138.15029 0.39997074,132.76872 0.69236152,126.79984 1.2167083,116.0958 6.1182272,106.24605 13.972508,100.11298 c 3.043559,-2.376582 5.805694,-3.875752 10.383689,-5.635825 1.948496,-0.749126 7.395428,-3.277948 12.104292,-5.619606 8.876647,-4.414246 12.964231,-6.005651 18.451665,-7.183722 4.260743,-0.914718 9.076684,-1.328412 12.954669,-1.112818 10.765507,0.5985 11.341408,0.594736 12.188727,-0.07968 0.432961,-0.34461 1.384223,-1.655258 2.113917,-2.912551 3.437622,-5.923161 9.816309,-11.378823 17.688208,-15.128638 6.048925,-2.881436 11.625225,-3.987384 18.823435,-3.733255 10.85467,0.383218 20.05732,4.353061 28.50564,12.296785 3.1119,2.926032 4.98349,4.131507 6.41447,4.131507 1.75919,0 4.33655,3.879127 4.34215,6.535272 l 0.003,1.368805 1.34409,0.201559 c 0.73924,0.110857 5.09014,0.10932 9.66867,-0.0034 9.38429,-0.231066 12.57405,-0.0073 19.48649,1.366746 7.76368,1.543302 12.99441,3.492253 27.6604,10.306173 5.55479,2.580794 8.17659,3.64973 11.66145,4.754489 3.72922,1.182229 6.06632,2.642719 9.1672,5.728729 3.0035,2.98912 4.53428,5.1598 5.95326,8.44189 2.82689,6.53855 2.93478,13.11379 0.36531,22.26448 -3.71004,13.21265 -13.52739,27.89572 -24.6378,36.8489 -8.61235,6.94015 -20.57099,12.76724 -29.1923,14.22453 -3.27228,0.55312 -8.24788,0.53309 -10.9406,-0.044 z M 66.433737,168.11667 c 2.970735,-0.36828 6.725808,-1.6003 9.073784,-2.97707 2.703704,-1.58535 6.781303,-5.87361 8.243596,-8.66948 3.669469,-7.01595 4.018102,-15.83878 0.941153,-23.81758 -1.900173,-4.92732 -8.971264,-13.95369 -14.365244,-18.3375 -2.231999,-1.81399 -3.288488,-2.40654 -4.786713,-2.68467 -0.568311,-0.1055 -2.023625,-0.78752 -3.234028,-1.51559 -1.577951,-0.94916 -2.51784,-1.32377 -3.321299,-1.32377 -2.013514,0 -1.232533,1.37409 2.199946,3.87066 1.169596,0.85069 1.972772,1.59797 1.78484,1.66061 -0.458836,0.15295 -1.874542,-0.60097 -2.568572,-1.36787 -0.835114,-0.92279 -1.754402,-0.78042 -2.664377,0.41262 -1.485152,1.94713 -2.234216,1.11937 -2.234216,-2.46893 0,-2.83791 -0.239104,-3.16472 -2.524279,-3.45023 -1.249048,-0.15606 -1.922965,-0.44206 -2.832764,-1.20218 -1.406696,-1.17526 -2.30149,-1.24832 -3.937854,-0.32154 -3.298299,1.86803 -1.214814,4.51031 4.134516,5.24339 2.828628,0.38764 3.684248,0.85815 3.684248,2.02597 0,1.63239 0.733851,2.08825 4.124617,2.56218 5.180469,0.72407 4.865043,0.52962 4.967448,3.06225 0.103265,2.5539 -0.166419,2.99705 -1.287318,2.11536 -1.039144,-0.81739 -1.777193,-0.79543 -2.344093,0.0698 -0.621322,0.94826 -0.205047,1.96405 1.237416,3.01953 1.72193,1.25997 3.044409,2.55567 3.044409,2.98277 0,0.63996 -0.461483,0.44546 -2.11333,-0.8907 -2.770645,-2.24116 -3.856315,-2.85755 -5.033059,-2.85755 -0.928951,0 -1.177691,0.14097 -1.562797,0.88568 -0.478081,0.92451 -0.459789,0.94933 0.738067,1.00128 0.60876,0.0264 0.754274,0.20011 0.830579,0.9915 0.109033,1.13084 -0.158572,1.19323 -1.292482,0.30129 -0.869324,-0.68381 -2.729515,-0.88543 -3.748424,-0.40627 -0.398506,0.1874 -0.479599,0.13926 -0.347093,-0.20605 0.301285,-0.78513 -1.777961,-2.68136 -4.738614,-4.3215 -1.557324,-0.86273 -2.894509,-1.50558 -2.971524,-1.42857 -0.07702,0.077 0.768805,0.92426 1.879598,1.88276 1.110794,0.95849 2.248054,2.04164 2.527244,2.40698 0.481154,0.62963 0.480481,0.66426 -0.01291,0.66426 -0.286291,0 -1.72844,-1.26209 -3.204777,-2.80465 -1.476337,-1.54256 -2.875738,-2.81474 -3.109782,-2.82706 -0.234041,-0.0123 -1.289068,-0.007 -2.344504,0.0127 -1.055435,0.0193 -3.048215,-0.17268 -4.428399,-0.42664 -4.36203,-0.80261 -4.257694,-0.59747 -1.175805,-2.31181 3.844332,-2.13846 4.253215,-3.14085 1.285665,-3.15186 -1.676711,-0.006 -2.959541,0.5919 -5.093097,2.37466 -1.001027,0.83644 -2.448155,1.75656 -3.215839,2.04472 -1.694646,0.63611 -2.344031,1.63365 -3.611551,5.54781 -2.041085,6.30295 -2.230645,11.48756 -0.394244,10.78287 0.311178,-0.11941 0.397137,0.37563 0.402032,2.31532 0.0047,1.84894 0.186757,2.97884 0.726633,4.50888 2.10461,5.96461 8.750145,14.54723 15.036323,19.41922 3.698593,2.86652 8.94211,5.2937 11.608243,5.37334 2.413572,0.0721 0.876794,-1.51029 -1.887785,-1.94382 -2.827722,-0.44343 -6.457915,-2.72155 -9.805808,-6.15361 -2.100665,-2.15347 -2.648334,-3.2525 -2.116244,-4.24672 0.500217,-0.93466 0.3101,-1.62114 -0.64659,-2.33473 -0.994123,-0.74152 -1.279731,-0.51433 -0.861537,0.6853 0.264848,0.75975 0.238907,0.94473 -0.153606,1.09535 -0.911049,0.3496 -1.404198,-0.20775 -2.665595,-3.01262 -0.356436,-0.79257 -0.749513,-1.21193 -1.195335,-1.27525 -0.365343,-0.0519 -0.66426,-0.21589 -0.66426,-0.36445 0,-0.14857 0.649103,-1.63391 1.442454,-3.30077 1.514138,-3.18126 2.100266,-5.09586 2.100266,-6.86055 v -1.05901 l 0.868117,0.64182 c 0.711782,0.52624 1.11053,0.6086 2.2142,0.45733 1.259014,-0.17257 1.346082,-0.14087 1.346082,0.49 0,0.38329 -0.446131,1.10692 -1.033293,1.67601 -0.568311,0.55083 -1.033293,1.2008 -1.033293,1.44438 0,0.24357 0.359468,0.96157 0.798818,1.59556 l 0.798819,1.15269 -0.839554,1.55202 c -1.042298,1.92683 -0.902954,3.2798 0.455514,4.42288 1.052855,0.88592 1.995732,0.9542 3.30327,0.23921 0.756899,-0.41388 1.708193,-0.52015 4.782772,-0.53426 4.953372,-0.0227 4.68303,0.0361 4.480929,-0.97444 l -0.16889,-0.84445 1.901168,-0.17754 c 1.114749,-0.10409 3.897927,-0.85358 6.728351,-1.8119 2.654952,-0.8989 5.445101,-1.71906 6.200329,-1.82258 l 1.373143,-0.18821 0.481323,1.14701 c 0.95605,2.27831 -0.07552,8.63128 -2.120043,13.05638 -1.266803,2.74183 -3.459463,5.82987 -4.663447,6.56778 -0.801355,0.49114 -1.27026,0.54314 -3.443798,0.38185 -2.126338,-0.15777 -2.578575,-0.11146 -2.919204,0.29897 -0.825478,0.99464 0.706276,1.8134 4.402044,2.35301 1.618622,0.23633 6.205779,0.17105 8.569317,-0.12195 z m 124.426513,-1.79501 c 4.10067,-0.72834 4.42576,-1.80539 1.09977,-3.6436 -3.79418,-2.09697 -6.97593,-5.75646 -9.21731,-10.60126 -1.17905,-2.54855 -1.63861,-4.26164 -1.91019,-7.12052 -0.19587,-2.06195 0.0732,-2.66466 1.07712,-2.41269 1.15137,0.28898 3.14848,2.18257 3.25231,3.08373 0.0722,0.62644 0.25654,0.81219 0.83083,0.8371 0.40594,0.0176 0.88081,0.0508 1.05528,0.0738 0.17447,0.023 1.17086,0.78406 2.2142,1.69128 1.04334,0.90722 2.27664,1.84799 2.74066,2.09061 1.63117,0.85289 2.84666,-0.11169 2.84666,-2.25904 0,-0.46327 0.0787,-1.04746 0.17494,-1.2982 0.15684,-0.40872 0.24964,-0.40694 0.89696,0.0172 0.56977,0.37333 1.15165,0.43316 2.75946,0.28373 l 2.03743,-0.18936 -0.0559,1.23489 c -0.0474,1.04635 0.0427,1.26051 0.58994,1.40272 0.60056,0.15607 2.02836,1.1286 4.0256,2.742 1.28262,1.03613 3.41965,0.94549 4.61065,-0.19556 0.96568,-0.92518 1.48647,-2.318 1.49653,-4.00234 0.008,-1.28663 0.23171,-1.62953 1.22303,-1.87192 1.67006,-0.40834 5.27978,-5.54888 4.79097,-6.82273 -0.17468,-0.45519 -0.41264,-0.49842 -1.7076,-0.31021 -3.14481,0.45705 -3.20542,0.44022 -3.55683,-0.98765 -0.43415,-1.76404 -1.31144,-2.40701 -3.2842,-2.40701 -1.98755,0 -2.27581,-0.44376 -2.17967,-3.35546 0.0383,-1.15843 0.0512,-2.2723 0.0287,-2.47527 -0.0643,-0.58052 -0.83939,-0.43509 -2.0892,0.39199 -0.88536,0.58591 -1.71611,0.81403 -3.6102,0.99138 -1.35311,0.12669 -2.97463,0.44849 -3.60336,0.71511 -1.4141,0.59965 -2.65667,0.62145 -3.1269,0.0549 -0.4784,-0.57644 -0.10216,-1.11504 0.61902,-0.88614 1.24699,0.39578 2.6966,-1.46852 1.65825,-2.13263 -0.20297,-0.12981 -1.65707,-0.25817 -3.23133,-0.28524 -1.57426,-0.0271 -2.99909,-0.13375 -3.16628,-0.23708 -0.18093,-0.11182 -0.23094,-0.72071 -0.12355,-1.5042 l 0.18042,-1.31634 -0.91965,0.18393 c -0.79982,0.15996 -0.95798,0.0831 -1.21382,-0.58979 -0.31238,-0.82163 -0.87232,-0.9669 -1.80432,-0.46811 -0.75523,0.40419 -0.72197,1.11701 0.0932,1.9978 l 0.66426,0.71772 -0.94217,-0.2017 c -1.13725,-0.24347 -2.15771,0.2349 -2.15771,1.01148 0,0.30945 -0.13285,0.64475 -0.29522,0.7451 -0.66841,0.4131 -0.23171,-1.92055 0.73806,-3.94414 0.56831,-1.18587 1.0333,-2.21172 1.0333,-2.27968 0,-0.35567 -0.72987,-0.0132 -1.93903,0.90974 -2.14508,1.63737 -2.49285,1.33199 -0.93943,-0.82494 0.52771,-0.73274 1.65696,-2.14909 2.50942,-3.14745 0.85247,-0.99835 1.54994,-1.94114 1.54994,-2.09508 0,-0.80391 -1.11703,0.0413 -4.01967,3.0414 -9.99926,10.33507 -14.46977,20.62561 -13.41703,30.88425 0.65614,6.39396 1.45286,8.02026 4.1284,8.42703 1.58239,0.24058 6.18786,2.11483 7.93452,3.22904 1.45989,0.93128 1.84832,1.61913 1.13861,2.01631 -0.69965,0.39154 -0.60238,1.09285 0.17581,1.26763 1.80675,0.40578 5.4981,0.32763 8.33638,-0.17649 z m -12.56571,-2.20524 c -0.76875,-0.82454 -3.80272,-2.47984 -4.54525,-2.47984 -0.80903,0 -0.47584,0.78878 0.65584,1.55266 1.78342,1.2038 2.82082,1.67041 3.7418,1.68301 l 0.86334,0.0118 z m 4.20029,-16.87214 c 1.04743,-1.25408 1.48669,-3.3213 0.70574,-3.3213 -0.63465,0 -2.01844,2.50822 -1.78667,3.23847 0.23335,0.73523 0.51783,0.75703 1.08093,0.0828 z m 38.13355,-5.62396 c 1.34923,-1.49088 2.81957,-8.20379 3.05763,-13.9598 0.29587,-7.15338 -0.3622,-8.55339 -4.0034,-8.51712 -2.19608,0.0219 -8.01917,1.1774 -8.05747,1.59891 -0.0137,0.15079 1.42064,1.19236 3.18741,2.31459 7.04153,4.47269 7.29786,5.32421 1.08192,3.59403 -3.93593,-1.09555 -8.50323,-1.67152 -9.6785,-1.22053 -0.41747,0.1602 -0.41896,0.26435 -0.0149,1.04563 0.64797,1.25305 2.03674,2.12967 3.53377,2.23059 1.46392,0.0987 5.25655,1.98892 7.38521,3.68074 0.73013,0.58029 1.61629,1.63351 1.96925,2.34049 0.56094,1.12354 0.61874,1.58824 0.45901,3.69033 -0.17976,2.36593 -0.039,3.73344 0.38425,3.73344 0.11827,0 0.43141,-0.23908 0.69586,-0.5313 z M 202.35677,129.5834 c 0.89269,-0.89268 0.37369,-1.30743 -1.63607,-1.30743 -1.20588,0 -1.66902,0.46057 -1.33596,1.32852 0.23143,0.6031 2.36297,0.58798 2.97203,-0.0211 z M 28.425873,116.23796 c 0.965213,-1.00747 1.140519,-2.07606 0.415702,-2.53393 -0.447298,-0.28256 -0.673828,-0.18126 -1.402326,0.62714 -1.727387,1.91684 -0.779009,3.74971 0.986624,1.90679 z M 155.98163,79.913169 c -0.0583,-1.249854 -0.84646,-2.120951 -1.91908,-2.120951 -0.69201,0 -0.83993,0.125988 -0.83993,0.715416 0,1.00449 1.39338,2.585868 2.1796,2.473667 0.50435,-0.07198 0.61624,-0.27824 0.57941,-1.068132 z"
     id="path7"
     transform="scale(0.75)" />
  <path
     style="fill:#ffcc00;stroke-width:0.295227"
     d="m 56.683514,167.72229 c -4.381282,-0.80519 -4.30692,-2.29286 0.09107,-1.82187 1.016997,0.10891 2.17645,0.0733 2.576564,-0.0792 1.80785,-0.68899 4.753468,-4.88546 6.162413,-8.77927 1.705123,-4.71233 2.252819,-10.41243 1.172499,-12.20262 -0.361924,-0.59974 -0.576625,-0.65884 -1.913098,-0.52663 -0.827984,0.0819 -2.88719,0.64077 -4.576013,1.24192 -4.108291,1.46238 -8.04205,2.50157 -9.469489,2.50157 -1.138983,0 -1.164914,0.0231 -1.074459,0.95948 l 0.09269,0.95949 h -3.98556 c -3.216155,0 -4.179542,0.0997 -4.990404,0.51665 -1.674312,0.86085 -2.570031,0.62793 -3.658523,-0.95137 -0.704006,-1.02145 -0.62709,-2.08716 0.234968,-3.25561 0.91763,-1.24378 0.918568,-1.621 0.0077,-3.09988 -0.400038,-0.6495 -0.731487,-1.26017 -0.736554,-1.35704 -0.0051,-0.0969 0.455768,-0.65491 1.024079,-1.24008 0.736114,-0.75795 1.033293,-1.33085 1.033293,-1.99196 v -0.92802 l -1.505048,0.207 c -1.460323,0.20084 -1.539606,0.17325 -2.667908,-0.92851 l -1.16286,-1.1355 0.193458,1.64602 c 0.240558,2.04677 -0.281585,3.96225 -2.096612,7.69143 -1.504563,3.09129 -1.61072,3.71159 -0.658342,3.84685 0.487437,0.0692 0.900257,0.58852 1.55082,1.95082 0.947935,1.985 1.379858,2.41264 2.444005,2.41979 0.820481,0.005 1.109628,-0.62213 0.667341,-1.44855 -0.367815,-0.68726 -0.237144,-0.7546 0.597515,-0.30791 0.60443,0.32349 0.77247,1.30642 0.275818,1.61336 -0.456795,0.28232 -0.348969,1.70684 0.19056,2.51755 0.799159,1.20082 3.390092,3.79841 5.123519,5.13667 2.600009,2.0073 4.215892,2.81538 6.500082,3.25061 1.36264,0.25964 2.3629,0.63159 2.756227,1.02492 l 0.617381,0.61739 h -0.624959 c -2.195307,0 -8.281333,-2.77307 -11.642112,-5.30468 -2.974764,-2.24082 -8.441103,-8.09018 -10.789164,-11.54513 -3.846778,-5.66018 -5.121506,-8.79775 -5.121506,-12.60589 0,-2.35771 -0.0333,-2.48894 -0.594317,-2.34223 -0.929113,0.24297 -1.279525,-0.75528 -1.057527,-3.01266 0.382215,-3.88653 2.549346,-10.94436 3.657414,-11.91133 0.277121,-0.24183 0.976993,-0.59138 1.55527,-0.77677 0.578277,-0.18538 1.840371,-1.01386 2.804653,-1.84106 0.964282,-0.82719 2.284648,-1.75221 2.934146,-2.05558 1.292012,-0.60349 3.541273,-0.74936 3.850086,-0.24969 0.263588,0.42649 -0.418395,0.90787 -3.627316,2.56033 -1.501223,0.77307 -2.730104,1.48616 -2.730846,1.58465 -0.0027,0.35643 7.576725,1.47946 9.552012,1.4153 l 2.025084,-0.0658 2.761034,2.85223 c 2.063722,2.13188 2.950294,2.85223 3.510416,2.85223 1.062782,0 0.940047,-0.41192 -0.619538,-2.07924 -1.553172,-1.66046 -1.405548,-1.84392 0.499247,-0.62042 2.394159,1.53783 3.109935,2.39989 2.949057,3.55176 -0.04119,0.2949 0.134665,0.35356 0.629282,0.20993 1.926377,-0.5594 2.457634,-0.52126 3.603008,0.25866 1.466818,0.99882 2.01979,0.80834 1.898826,-0.65406 -0.07971,-0.96372 -0.198427,-1.12175 -0.903641,-1.20289 -0.884413,-0.10176 -1.004848,-0.33358 -0.457601,-0.88083 0.895144,-0.89515 2.284372,-0.33527 5.739932,2.31327 1.977194,1.51544 2.762595,1.8007 2.762595,1.00338 0,-0.8436 -0.591274,-1.58632 -2.221773,-2.79084 -1.822419,-1.3463 -2.598322,-2.35176 -2.338112,-3.02986 0.297276,-0.77469 1.033627,-0.84047 2.091238,-0.18683 1.58085,0.97702 1.87892,0.65746 1.873674,-2.00872 -0.0025,-1.2635 -0.102125,-2.442 -0.22142,-2.61889 -0.237292,-0.35186 -2.704557,-0.8711 -5.621508,-1.18306 -2.237443,-0.23928 -3.021376,-0.80211 -3.272951,-2.34984 -0.232337,-1.42937 -0.79852,-1.73847 -3.989796,-2.17818 -2.662974,-0.36691 -4.516308,-1.25278 -5.182743,-2.47729 -0.442183,-0.81246 -0.427858,-0.85613 0.552426,-1.68439 1.358499,-1.14782 2.500077,-1.37189 3.471008,-0.68129 1.878797,1.33633 2.371359,1.5593 3.853754,1.74451 1.951496,0.24382 2.149404,0.5681 2.149404,3.52185 0,1.23916 0.137525,2.50999 0.305612,2.82406 0.487493,0.91089 1.588231,0.70564 2.479024,-0.46225 0.433473,-0.56831 0.928317,-1.03329 1.099658,-1.03329 0.171337,0 0.81559,0.39923 1.431672,0.88717 0.616079,0.48795 1.531948,0.96954 2.035262,1.0702 1.399251,0.27985 1.177045,-0.56789 -0.440578,-1.68084 -1.828734,-1.2582 -3.322932,-2.59308 -3.708041,-3.31266 -0.29809,-0.55699 -0.247648,-0.58332 0.823154,-0.42964 0.627386,0.09 2.200301,0.77383 3.495368,1.51952 1.295065,0.74569 2.614852,1.3558 2.932862,1.3558 1.888364,0 6.341662,3.77117 11.330396,9.59486 5.547507,6.476 7.914185,10.94743 9.085928,17.16628 0.632602,3.35745 0.44542,8.71601 -0.418251,11.97355 -2.069007,7.80375 -7.688135,13.80956 -15.100281,16.1394 -3.797025,1.19351 -9.861559,1.54739 -13.875653,0.80969 z m 22.423337,-14.23373 c 0.950594,-1.08266 1.133301,-2.33252 0.340975,-2.33252 -0.571482,0 -1.464177,1.28723 -1.689101,2.43562 -0.246922,1.26069 0.17932,1.2281 1.348126,-0.1031 z m 4.732993,-4.30788 c 0.0041,-1.52628 -0.345004,-2.34954 -0.802393,-1.89215 -0.26189,0.26189 -0.215277,3.5554 0.05654,3.99522 0.408082,0.66029 0.740939,-0.27826 0.745848,-2.10307 z M 46.336486,135.51617 c 1.595916,-0.80871 5.032948,-3.55034 5.032948,-4.01464 0,-0.1626 -0.365343,-0.2574 -0.811873,-0.21066 -0.787319,0.0824 -0.812261,0.0403 -0.824696,-1.39115 -0.0159,-1.83056 -0.449961,-2.65093 -1.618062,-3.05813 -1.032722,-0.36001 -1.2124,-0.14934 -1.097195,1.28647 0.05774,0.71963 -0.05331,0.9031 -0.59322,0.98002 -1.099141,0.1566 -0.778181,1.10327 0.835326,2.4638 0.835615,0.7046 1.339058,1.31798 1.137033,1.38532 -0.199404,0.0665 -1.534996,-0.45383 -2.967983,-1.15622 -1.432987,-0.70239 -2.688144,-1.19436 -2.789237,-1.09327 -0.101094,0.1011 0.209355,0.75777 0.689886,1.45927 1.166877,1.70347 1.371382,2.43078 0.813634,2.89367 -0.639473,0.53072 -0.55615,1.18644 0.150763,1.18644 0.330147,0 1.249351,-0.32891 2.042676,-0.73092 z"
     id="path8"
     transform="scale(0.75)" />
  <path
     style="fill:#ffcc00;stroke-width:0.295227"
     d="m 184.22142,166.45877 c -2.10698,-0.33186 -2.17649,-0.37347 -1.63101,-0.97622 0.27602,-0.305 0.45524,-0.79662 0.39826,-1.09249 -0.21,-1.09043 -6.06596,-3.95165 -9.5163,-4.64966 -1.65687,-0.33519 -1.8512,-0.45907 -2.47443,-1.57742 -0.372,-0.66752 -0.88598,-2.18503 -1.14219,-3.37224 -0.56619,-2.62363 -0.63898,-8.49951 -0.13829,-11.16298 1.12698,-5.99502 4.33692,-12.43487 9.12366,-18.30405 2.68708,-3.29472 6.46646,-7.26094 6.70273,-7.03408 0.11398,0.10944 -0.31672,0.7737 -0.9571,1.47614 -1.90414,2.08865 -3.3176,4.08889 -3.3176,4.69487 0,0.81583 0.95512,0.71971 2.05641,-0.20696 0.50644,-0.42614 0.98333,-0.71227 1.05977,-0.63584 0.0764,0.0764 -0.19489,0.89387 -0.60293,1.81652 -0.70679,1.59818 -0.96562,3.40515 -0.54763,3.82314 0.30191,0.30191 0.98665,-0.40045 0.98665,-1.01205 0,-0.69889 1.08866,-0.98786 2.17114,-0.5763 1.62885,0.61928 1.87344,0.36241 0.70732,-0.74285 -1.26127,-1.19545 -1.33618,-1.45922 -0.53606,-1.88743 0.85693,-0.45861 1.14941,-0.37494 1.25359,0.35864 0.0764,0.53797 0.28115,0.66346 1.07692,0.66003 l 0.98257,-0.004 -0.18732,1.24916 c -0.2228,1.48574 -0.19526,1.49771 3.74305,1.62716 2.93933,0.0966 3.61729,0.44958 2.73534,1.42413 -0.33305,0.36802 -0.78101,0.55705 -1.11384,0.47001 -1.19827,-0.31336 -1.87266,0.68487 -1.03119,1.52634 0.5036,0.5036 2.46446,0.43849 3.5397,-0.11754 0.5018,-0.25949 2.01095,-0.57193 3.35366,-0.69432 1.84501,-0.16816 2.77334,-0.4171 3.80073,-1.01919 0.74769,-0.43817 1.4729,-0.72655 1.61158,-0.64084 0.13868,0.0857 0.18565,1.08522 0.10437,2.22113 -0.0938,1.31131 -0.0126,2.39154 0.22238,2.95892 0.33977,0.82028 0.48718,0.89361 1.79657,0.89361 2.12411,0 2.87322,0.45584 3.33141,2.02721 0.51176,1.75507 0.98884,2.03522 2.69073,1.58003 1.59598,-0.42686 2.42267,-0.45682 2.64574,-0.0959 0.40759,0.65949 -1.9134,4.39457 -3.63612,5.85147 -0.42509,0.35951 -1.0576,0.65842 -1.40557,0.66426 -0.75449,0.0127 -0.98886,0.52371 -0.99756,2.17516 -0.0134,2.53709 -1.65148,4.62567 -3.62799,4.62567 -0.74466,0 -2.32448,-0.95462 -3.9918,-2.41207 -0.54102,-0.47292 -1.38357,-0.93984 -1.87234,-1.03759 -0.86574,-0.17315 -0.88363,-0.21127 -0.69367,-1.47806 l 0.195,-1.30032 -2.24484,0.20342 c -2.08562,0.189 -2.29636,0.15502 -2.97131,-0.47906 -0.39956,-0.37537 -0.79206,-0.61691 -0.87223,-0.53674 -0.0802,0.0802 -0.259,0.97387 -0.39742,1.98602 -0.44164,3.22932 -1.5019,3.40587 -4.48242,0.7464 -1.97008,-1.75786 -3.14153,-2.46217 -3.96763,-2.38544 -0.37214,0.0346 -0.62195,-0.2193 -0.78008,-0.79275 -0.30239,-1.09656 -1.03869,-1.89051 -2.39536,-2.58293 -1.47839,-0.75454 -2.19621,-0.71661 -2.408,0.12723 -0.26539,1.05741 0.32831,5.49787 0.99364,7.43167 1.74999,5.08646 6.30928,10.84054 9.95349,12.5619 1.5378,0.72639 2.4463,1.4022 2.4463,1.81975 0,0.56281 -2.70822,1.42411 -5.35423,1.70281 -2.83306,0.2984 -3.11593,0.30516 -4.38825,0.10475 z m -9.45721,-29.21022 c 1.00745,-1.58859 1.38687,-2.99013 0.93248,-3.44452 -0.51163,-0.51163 -1.4633,0.58146 -1.95876,2.24984 -0.84772,2.85461 -0.37523,3.40463 1.02628,1.19468 z m 3.62626,-6.68457 c 0.88406,-0.94153 2.58277,-4.14481 2.58322,-4.87124 4.3e-4,-0.67852 -1.11977,-0.37903 -1.8563,0.49628 -1.4452,1.71753 -2.79391,5.33445 -1.98915,5.33445 0.19872,0 0.76672,-0.43177 1.26223,-0.95949 z"
     id="path9"
     transform="scale(0.75)" />
  <path
     style="fill:#ffcc00;stroke-width:0.295227"
     d="m 219.83592,141.41054 c -0.0941,-0.24522 -0.0986,-1.67338 -0.0101,-3.17369 0.19735,-3.34418 -0.15296,-4.17102 -2.59738,-6.13047 -2.08213,-1.66904 -5.88622,-3.60478 -7.29851,-3.71389 -0.5814,-0.0449 -1.1521,-0.0895 -1.26823,-0.0991 -0.46119,-0.0381 -2.29828,-1.87787 -2.29828,-2.30168 0,-0.7384 5.12629,-0.33104 8.41396,0.66862 3.82109,1.16185 5.4329,1.46729 5.8009,1.09928 0.60855,-0.60854 -0.3824,-1.56146 -4.25994,-4.09647 -2.14653,-1.40333 -4.00904,-2.64666 -4.13891,-2.76295 -0.34601,-0.30984 5.85408,-1.48153 7.83822,-1.48126 2.83639,3.9e-4 3.46531,1.20573 3.46608,6.64283 6.8e-4,4.81912 -1.306,11.97103 -2.6788,14.66193 -0.64577,1.2658 -0.72523,1.32212 -0.96901,0.68684 z"
     id="path10"
     transform="scale(0.75)" />
  <path
     style="fill:#ffcc00;stroke-width:0.295227"
     d="m 26.865624,116.30463 c 0,-1.30888 1.510508,-2.8737 2.153388,-2.23082 0.508744,0.50874 -1.137031,2.68832 -2.029921,2.68832 -0.06791,0 -0.123467,-0.20587 -0.123467,-0.4575 z"
     id="path11"
     transform="scale(0.75)" />
  <path
     style="fill:#ffcc00;stroke-width:0.295227"
     d="m 47.605295,131.59647 c -0.852467,-0.8529 -1.54994,-1.67399 -1.54994,-1.82463 0,-0.15064 0.298917,-0.31635 0.66426,-0.36823 0.582123,-0.0827 0.654847,-0.24615 0.588137,-1.32202 -0.06743,-1.08756 -0.01065,-1.21056 0.497527,-1.07767 1.032565,0.27002 1.635754,1.24558 1.670163,2.70121 0.0465,1.96699 0.07187,2.05993 0.591315,2.16572 0.380617,0.0775 0.339012,0.2064 -0.22142,0.68591 l -0.690102,0.59045 z"
     id="path12"
     transform="scale(0.75)" />
  <path
     style="fill:#ffcc00;stroke-width:0.295227"
     d="m 44.507705,135.09552 c 0.479185,-0.83493 0.468074,-0.89399 -0.444377,-2.36181 -0.514718,-0.82801 -0.885738,-1.50547 -0.824489,-1.50547 0.06125,0 1.081617,0.46498 2.267484,1.03329 1.185866,0.56831 2.484596,1.0333 2.886066,1.0333 0.703118,0 0.692574,0.0283 -0.286898,0.77008 -1.098639,0.83204 -3.159654,1.86999 -3.733958,1.88047 -0.244713,0.004 -0.202329,-0.26006 0.136172,-0.84986 z"
     id="path13"
     transform="scale(0.75)" />
  <path
     style="fill:#ffcc00;stroke-width:0.295227"
     d="m 177.30329,130.49017 c 0.50076,-2.08823 2.71908,-5.33075 3.27002,-4.77981 0.31696,0.31696 -1.56369,3.83351 -2.55774,4.78262 l -0.92467,0.88287 z"
     id="path14"
     transform="scale(0.75)" />
  <path
     style="fill:#ffcc00;stroke-width:0.295227"
     d="m 173.70923,137.28039 c 0.3752,-1.55357 1.41199,-3.46138 1.71589,-3.15747 0.33368,0.33368 -0.77212,3.08988 -1.47035,3.66482 -0.40376,0.33247 -0.43352,0.27097 -0.24554,-0.50735 z"
     id="path15"
     transform="scale(0.75)" />
  <path
     style="fill:#ffcc00;stroke-width:0.295227"
     d="m 176.89988,164.27899 c -1.00985,-0.40521 -3.3723,-2.08468 -3.18953,-2.26745 0.19843,-0.19843 3.02522,1.19501 4.01608,1.97969 0.79374,0.62858 0.38096,0.77229 -0.82655,0.28776 z"
     id="path16"
     transform="scale(0.75)" />
  <path
     style="fill:#ffcc00;stroke-width:0.295227"
     d=""
     id="path17"
     transform="scale(0.75)" />
  <path
     style="fill:#ffcc00;stroke-width:0.295227"
     d="m 199.62778,129.23546 c 0.10459,-0.55211 1.65655,-0.86554 2.55676,-0.51636 0.43876,0.17019 0.43015,0.23247 -0.0845,0.61125 -0.31519,0.23197 -1.0224,0.42176 -1.57159,0.42176 -0.79143,0 -0.97821,-0.10715 -0.90064,-0.51665 z"
     id="path18"
     transform="scale(0.75)" />
  <ellipse
     style="fill:#ffcc00;stroke-width:0.75"
     id="path19"
     cx="33.766544"
     cy="98.753311"
     rx="14.724428"
     ry="18.599277" />
  <ellipse
     style="fill:#ffcc00;stroke-width:0.75"
     id="path20"
     cx="33.877254"
     cy="101.85318"
     rx="19.484959"
     ry="20.370638" />
  <ellipse
     style="fill:#ffcc00;stroke-width:2.3307"
     id="path21"
     cx="-42.146194"
     cy="105.84357"
     rx="23.54657"
     ry="30.503021"
     transform="matrix(0.8050445,-0.59321442,0.67410353,0.73863688,0,0)" />
  <ellipse
     style="fill:#ffcc00;stroke-width:2.3307"
     id="path21-8"
     cx="172.80321"
     cy="-79.538765"
     rx="23.54657"
     ry="30.503021"
     transform="matrix(0.48656741,0.87364304,-0.81800576,0.57521003,0,0)" />
  <path
     style="fill:#f2f2f2;stroke-width:0.295227"
     d="m 177.53809,186.75275 c -4.76148,-1.28541 -9.22084,-4.40614 -12.05443,-8.43586 -0.68506,-0.97425 -2.13622,-3.49174 -3.22479,-5.59442 -2.04126,-3.94288 -3.75799,-6.63775 -6.7073,-10.5289 -4.86962,-6.42474 -11.78688,-18.70631 -13.37278,-23.74337 -0.30482,-0.96815 -0.62207,-1.95955 -0.705,-2.20311 -0.0829,-0.24356 -0.16362,-0.64212 -0.17931,-0.88568 -0.046,-0.71442 -2.41465,-0.63721 -4.60455,0.15011 -7.91965,2.84728 -9.79265,3.45369 -12.33147,3.99245 -4.22619,0.89685 -10.62967,1.09329 -14.78407,0.45354 -4.7186,-0.72664 -4.99534,-0.58408 -7.12461,3.67025 -1.64589,3.2885 -4.227353,9.95163 -3.998795,10.32145 0.08712,0.14095 0.05219,0.30083 -0.07761,0.3553 -0.129799,0.0545 -1.07254,2.42393 -2.094984,5.26549 -2.740223,7.61558 -4.291364,10.53567 -7.658764,14.41791 -4.422344,5.09849 -10.974347,8.74139 -19.536599,10.86232 -3.058361,0.75758 -3.892902,0.84124 -8.413959,0.84342 -4.060349,0.002 -5.652905,-0.12595 -8.338835,-0.66976 -9.941905,-2.0129 -20.097249,-6.81721 -28.269267,-13.37368 -5.308689,-4.25919 -11.285325,-11.07729 -14.9887643,-17.09907 -3.5283084,-5.73701 -6.7658241,-13.90727 -7.7124006,-19.46317 -0.59453276,-3.48959 -0.60722969,-9.07654 -0.028733,-12.64346 1.2178346,-7.50897 4.6564781,-14.32401 9.8795059,-19.58016 3.611376,-3.634276 7.466535,-6.014636 13.809879,-8.526875 1.339591,-0.530537 2.43562,-1.06039 2.43562,-1.177453 0,-0.11706 0.173858,-0.212838 0.38635,-0.212838 0.534649,0 4.632503,-1.910261 4.632503,-2.159494 0,-0.111274 0.187684,-0.202319 0.417078,-0.202319 0.229391,0 2.919644,-1.210715 5.97834,-2.690481 8.807705,-4.26108 13.019444,-5.692007 19.772558,-6.717673 2.694862,-0.409296 4.62162,-0.456262 12.063873,-0.294062 10.358463,0.225757 9.045115,0.662941 12.148749,-4.044041 5.974543,-9.06101 17.289295,-16.098661 28.410305,-17.670909 3.86285,-0.546115 11.55197,-0.189681 15.3864,0.713245 7.1617,1.686433 13.61649,5.112238 19.28794,10.236864 4.26793,3.856418 5.48003,4.674858 7.60352,5.134066 0.42014,0.09086 1.11178,0.438836 1.53696,0.773285 0.96247,0.75708 2.46491,3.835827 2.73502,5.604499 0.11159,0.730686 0.35268,1.423333 0.53577,1.539216 0.18308,0.115882 5.06764,0.216919 10.85457,0.224526 12.31336,0.01619 15.42997,0.318588 22.98653,2.230362 5.72139,1.447484 10.11967,3.170315 22.63765,8.867288 4.51744,2.055905 8.51235,3.756213 8.87758,3.778461 0.36523,0.02225 0.66415,0.129183 0.66426,0.237628 1.2e-4,0.108446 1.09624,0.558808 2.43583,1.000807 3.6957,1.219388 5.95803,2.425528 8.28961,4.419508 9.37381,8.01654 11.93991,18.3723 7.97191,32.17152 -3.30246,11.48473 -10.94363,23.8425 -20.35403,32.91777 -6.5741,6.33998 -15.4249,11.93863 -24.29968,15.37097 -5.74009,2.21999 -8.11105,2.70741 -13.75141,2.82701 -4.25758,0.0903 -5.3385,0.0201 -7.12617,-0.46248 z m 17.35059,-10.78701 c 9.93611,-1.73271 18.90998,-6.59579 26.67891,-14.45772 9.37532,-9.48755 14.39759,-21.15129 13.92796,-32.34637 -0.28853,-6.878 -2.47072,-12.43335 -6.62002,-16.85309 -5.24581,-5.5877 -11.52823,-8.10541 -20.1503,-8.07532 -6.84663,0.0239 -11.90089,1.29309 -18.74689,4.70758 -5.30868,2.64775 -8.71901,5.16189 -13.60271,10.02811 -4.48528,4.46921 -7.23192,8.19054 -9.75877,13.22181 -4.53827,9.03623 -5.71523,19.51787 -3.05864,27.23937 3.01676,8.76838 10.19439,14.82734 19.58313,16.53103 2.89294,0.52495 8.75028,0.52724 11.74733,0.005 z M 63.670235,172.83483 c 10.931451,-1.21893 19.212871,-7.54966 22.240692,-17.00189 1.593999,-4.97614 1.764041,-8.82 0.709707,-16.04313 -1.033314,-7.07911 -3.484332,-11.75655 -10.426451,-19.89747 -10.075917,-11.81589 -26.26425,-19.01728 -39.608848,-17.62002 -12.064456,1.26322 -20.612811,8.25027 -23.32622,19.06583 -0.794297,3.16604 -0.934598,9.01012 -0.301223,12.54713 3.116713,17.40489 18.99436,33.5267 37.383327,37.9582 5.047463,1.21637 8.804816,1.49582 13.329016,0.99135 z M 156.06838,80.596211 c 0.18477,-0.481504 -0.03,-1.535254 -0.44171,-2.166841 -0.14201,-0.217879 -0.73241,-0.460047 -1.31199,-0.538153 -1.01572,-0.136882 -1.05285,-0.109042 -1.02784,0.770713 0.0467,1.643991 2.29341,3.206323 2.78154,1.934281 z"
     id="path22"
     transform="scale(0.75)" />
  <path
     style="fill:#806600;stroke-width:0.295227"
     d="m 183.18813,175.68615 c -10.3241,-1.99854 -17.4908,-8.69646 -19.9919,-18.68423 -0.85998,-3.43419 -0.92292,-9.93084 -0.13243,-13.66939 3.90956,-18.48994 20.18596,-34.53635 38.84872,-38.29977 1.7992,-0.36282 3.8562,-0.50331 7.10794,-0.48547 3.90296,0.0214 4.98852,0.1347 7.38066,0.77023 9.18985,2.4415 15.61972,8.82537 18.06887,17.9396 0.57759,2.14947 0.67234,3.20816 0.6605,7.38067 -0.0115,4.06702 -0.12725,5.33427 -0.70083,7.67589 -2.22829,9.0969 -6.73279,16.78358 -13.93782,23.78412 -6.68918,6.49933 -14.02051,10.72657 -22.34367,12.88335 -2.98083,0.77242 -4.08408,0.90733 -8.16983,0.99903 -3.17495,0.0713 -5.40117,-0.0251 -6.79021,-0.29403 z"
     id="path23"
     transform="scale(0.75)" />
  <path
     style="fill:#806600;stroke-width:0.295227"
     d="m 55.57045,172.5494 c -19.905165,-2.50366 -38.042977,-18.81931 -42.161738,-37.92605 -0.697595,-3.23612 -0.712494,-9.88817 -0.02834,-12.65148 1.219918,-4.92725 3.188533,-8.49959 6.541688,-11.87085 3.588645,-3.60802 7.904955,-5.91096 13.290934,-7.0913 3.5342,-0.77452 10.270832,-0.70682 14.318492,0.14389 13.247218,2.78423 24.662903,10.70333 32.735152,22.70849 4.656627,6.9254 6.673164,13.45691 6.624313,21.45599 -0.01969,3.2237 -0.163801,4.65288 -0.654931,6.49499 -2.535923,9.51167 -9.759065,16.25975 -19.562697,18.27608 -2.85274,0.58672 -8.301567,0.81259 -11.102875,0.46024 z"
     id="path24"
     transform="scale(0.75)" />
</svg>
