<?xml version="1.0" encoding="UTF-8" standalone="no"?>
<!-- Uploaded to: SVG Repo, www.svgrepo.com, Generator: SVG Repo Mixer Tools -->

<svg
   width="800px"
   height="800px"
   viewBox="0 0 24 24"
   fill="none"
   version="1.1"
   id="svg1"
   sodipodi:docname="flooded.svg"
   inkscape:version="1.4.2 (f4327f4, 2025-05-13)"
   xmlns:inkscape="http://www.inkscape.org/namespaces/inkscape"
   xmlns:sodipodi="http://sodipodi.sourceforge.net/DTD/sodipodi-0.dtd"
   xmlns="http://www.w3.org/2000/svg"
   xmlns:svg="http://www.w3.org/2000/svg">
  <defs
     id="defs1" />
  <sodipodi:namedview
     id="namedview1"
     pagecolor="#ffffff"
     bordercolor="#000000"
     borderopacity="0.25"
     inkscape:showpageshadow="2"
     inkscape:pageopacity="0.0"
     inkscape:pagecheckerboard="0"
     inkscape:deskcolor="#d1d1d1"
     inkscape:zoom="1.01625"
     inkscape:cx="400"
     inkscape:cy="400"
     inkscape:window-width="2880"
     inkscape:window-height="1514"
     inkscape:window-x="-11"
     inkscape:window-y="-11"
     inkscape:window-maximized="1"
     inkscape:current-layer="svg1" />
  <path
     d="M2.5 14.5L3.11612 15.1161C3.68206 15.6821 4.44964 16 5.25 16C6.05036 16 6.81794 15.6821 7.38388 15.1161L7.61612 14.8839C8.18206 14.3179 8.94964 14 9.75 14C10.5504 14 11.3179 14.3179 11.8839 14.8839L12.1161 15.1161C12.6821 15.6821 13.4496 16 14.25 16C15.0504 16 15.8179 15.6821 16.3839 15.1161L16.6161 14.8839C17.1821 14.3179 17.9496 14 18.75 14C19.5504 14 20.3179 14.3179 20.8839 14.8839L21.5 15.5M2.5 19.5L3.11612 20.1161C3.68206 20.6821 4.44964 21 5.25 21C6.05036 21 6.81794 20.6821 7.38388 20.1161L7.61612 19.8839C8.18206 19.3179 8.94964 19 9.75 19C10.5504 19 11.3179 19.3179 11.8839 19.8839L12.1161 20.1161C12.6821 20.6821 13.4496 21 14.25 21C15.0504 21 15.8179 20.6821 16.3839 20.1161L16.6161 19.8839C17.1821 19.3179 17.9496 19 18.75 19C19.5504 19 20.3179 19.3179 20.8839 19.8839L21.5 20.5M12 11V3M12 3L9 6M12 3L15 6"
     stroke="#000000"
     stroke-width="2"
     stroke-linecap="round"
     stroke-linejoin="round"
     id="path1" />
  <path
     style="fill:#003380;stroke-width:0.553014"
     d="M 159.74927,731.96638 C 143.49952,730.10343 123.6472,723.56239 109.26111,715.3313 97.165349,708.41064 89.102791,701.7924 72.240785,684.94279 52.58576,665.30221 51.216944,663.02629 51.188058,649.9385 c -0.01819,-8.24117 0.215081,-9.28884 3.359549,-15.08864 6.078704,-11.21183 16.105826,-17.27704 28.601224,-17.30032 11.877347,-0.0221 15.866447,2.36431 34.794209,20.81536 17.44702,17.00761 23.68719,21.35243 36.5465,25.44608 19.33424,6.15489 41.19783,3.1787 57.85091,-7.87499 3.07382,-2.04028 11.11903,-8.9634 17.87826,-15.38472 13.95697,-13.25923 22.71859,-19.52711 37.18806,-26.60358 18.97937,-9.28209 36.08645,-13.11247 58.30049,-13.05382 11.24786,0.0297 17.14579,0.54412 24.78564,2.16185 28.03791,5.93701 47.39095,16.5913 71.49702,39.36074 11.69758,11.04898 14.80949,13.4249 22.60195,17.25647 16.68965,8.20633 34.83694,9.61208 51.58759,3.99617 11.48326,-3.84993 16.88376,-7.4129 30.06079,-19.83249 23.85465,-22.48346 41.50513,-32.89432 66.29845,-39.10509 37.28067,-9.33887 74.35461,-2.80985 107.03235,18.84925 7.42367,4.92047 14.23227,10.88373 27.21935,23.83986 20.73104,20.68163 21.99234,22.74208 22.02155,35.9742 0.0182,8.24117 -0.21509,9.28885 -3.35956,15.08864 -6.0787,11.21183 -16.10582,17.27704 -28.60122,17.30032 -11.82945,0.0221 -16.10063,-2.49308 -33.87179,-19.94582 -8.16018,-8.01398 -16.96772,-16.01437 -19.5723,-17.77866 -21.76438,-14.74276 -50.85289,-15.62303 -73.27478,-2.21742 -3.63795,2.17506 -12.5032,9.52549 -19.70056,16.33428 -7.19735,6.80879 -16.28159,14.53593 -20.1872,17.17141 -15.25634,10.29487 -33.65534,17.86712 -51.84356,21.33659 -13.56651,2.58787 -35.61842,2.40451 -48.89388,-0.40656 -28.10754,-5.95176 -47.63829,-16.72491 -71.60326,-39.49637 -11.83581,-11.24636 -14.64588,-13.39169 -22.5275,-17.19844 -16.81982,-8.12383 -34.91129,-9.49889 -51.5558,-3.91857 -11.48327,3.84994 -16.93978,7.44594 -30.08859,19.82931 -6.59194,6.20817 -15.08496,13.61331 -18.8734,16.45586 -27.28142,20.46984 -61.60259,29.85833 -95.10928,26.01698 z"
     id="path8"
     transform="scale(0.03)" />
  <path
     style="fill:#003380;stroke-width:0.553014"
     d="M 152.52153,564.22443 C 133.36197,560.80577 112.88921,552.1473 97.120971,540.79409 92.755352,537.65081 81.841689,527.8629 72.868386,519.04316 53.110964,499.62386 51.157341,496.38946 51.187671,483.14883 c 0.01473,-6.43026 0.506349,-9.42784 2.126336,-12.96499 2.976661,-6.49937 9.429433,-13.102 15.919442,-16.28916 4.743912,-2.32967 6.767781,-2.72617 13.915382,-2.72617 12.851573,0 15.965398,1.84589 36.085629,21.39175 14.82406,14.40088 17.63208,16.68035 24.9937,20.28912 11.43,5.60316 18.92642,7.33719 31.4176,7.26733 20.49696,-0.11463 32.83969,-5.86119 52.16745,-24.28826 18.81803,-17.94109 34.61416,-28.01233 54.59761,-34.81016 15.44629,-5.25441 23.80554,-6.55146 42.31243,-6.56537 18.57887,-0.014 25.01947,0.92953 40.83641,5.9822 20.70052,6.61273 35.76028,15.8625 53.65982,32.95809 6.5652,6.27033 13.89337,12.7411 16.28482,14.37949 18.8288,12.89967 41.07523,16.03943 62.02473,8.75392 10.55643,-3.67117 16.80686,-7.90595 29.63344,-20.07721 15.46999,-14.67961 25.23042,-21.77591 39.58742,-28.78197 21.06359,-10.2788 39.84064,-14.26499 63.01641,-13.37777 26.11301,0.99966 47.7109,7.97518 69.53964,22.45939 12.61995,8.37382 43.02921,38.2646 46.8566,46.05768 3.56175,7.2522 3.80853,19.64374 0.533,26.76341 -2.85439,6.20429 -9.50411,13.21613 -15.53672,16.3828 -4.34328,2.2799 -6.12116,2.60521 -14.30765,2.61796 -13.38368,0.0209 -15.53345,-1.24324 -35.91636,-21.11948 -14.89813,-14.52779 -17.64319,-16.76344 -25.09225,-20.4358 -11.83342,-5.83382 -19.56744,-7.42866 -33.45634,-6.89906 -20.74446,0.79102 -31.4949,6.02196 -51.42294,25.02133 -19.08466,18.19529 -34.68812,27.83683 -56.07769,34.65098 -13.04963,4.15727 -25.42934,6.00811 -40.21795,6.01282 -20.45156,0.007 -39.57071,-4.37152 -57.71396,-13.21576 -15.35473,-7.48493 -23.39087,-13.45204 -42.85031,-31.81786 -16.20542,-15.29467 -29.22917,-20.8461 -48.97672,-20.87654 -11.12222,-0.0171 -21.35362,2.30438 -30.55694,6.93342 -8.10556,4.0769 -12.01956,7.11953 -23.967,18.63129 -15.55037,14.98329 -27.57984,23.23967 -43.86997,30.10998 -17.01489,7.17598 -33.20878,10.27318 -53.055,10.14717 -7.30628,-0.0464 -16.82657,-0.71643 -21.15621,-1.48897 z"
     id="path9"
     transform="scale(0.03)" />
  <path
     style="fill:#003380;stroke-width:0.553014"
     d="m 392.56127,398.64758 c -10.09479,-2.62342 -19.47816,-10.93344 -23.01268,-20.3803 -1.98804,-5.3135 -2.02091,-6.96974 -2.02091,-101.79743 0,-53.01783 -0.32041,-96.39605 -0.71201,-96.39605 -0.39161,0 -11.35102,10.6032 -24.35425,23.56267 -19.95641,19.88924 -24.55561,23.9801 -29.50095,26.24025 -12.27674,5.61082 -26.9871,2.52828 -36.50786,-7.6502 -6.64978,-7.10915 -8.77467,-12.43952 -8.76227,-21.98052 0.0189,-14.53689 -2.24313,-11.7252 58.41964,-72.61531 C 387.22807,66.283545 385.82021,67.430569 400,67.430569 c 14.17979,0 12.77193,-1.147024 73.89002,60.200121 60.66278,60.89011 58.40075,58.07842 58.41964,72.61531 0.0124,9.541 -2.11248,14.87137 -8.76227,21.98052 -9.52076,10.17848 -24.23112,13.26102 -36.50786,7.6502 -4.94534,-2.26015 -9.54454,-6.35101 -29.50095,-26.24025 -13.00323,-12.95947 -23.96264,-23.56267 -24.35425,-23.56267 -0.3916,0 -0.71201,43.37822 -0.71201,96.39605 0,94.82769 -0.0329,96.48393 -2.02091,101.79743 -4.36005,11.65328 -15.77234,20.02894 -28.30373,20.77252 -3.61665,0.21461 -7.93054,0.0381 -9.58641,-0.39222 z"
     id="path10"
     transform="scale(0.03)" />
</svg>
