<?xml version="1.0" encoding="UTF-8" standalone="no"?>
<svg
   version="1.0"
   width="240.01924pt"
   height="152.33694pt"
   viewBox="0 0 240.01924 152.33694"
   preserveAspectRatio="xMidYMid"
   id="svg6"
   sodipodi:docname="flood-light-off.svg"
   inkscape:version="1.3.2 (091e20e, 2023-11-25, custom)"
   xmlns:inkscape="http://www.inkscape.org/namespaces/inkscape"
   xmlns:sodipodi="http://sodipodi.sourceforge.net/DTD/sodipodi-0.dtd"
   xmlns="http://www.w3.org/2000/svg"
   xmlns:svg="http://www.w3.org/2000/svg">
  <defs
     id="defs6" />
  <sodipodi:namedview
     id="namedview6"
     pagecolor="#ffffff"
     bordercolor="#000000"
     borderopacity="0.25"
     inkscape:showpageshadow="2"
     inkscape:pageopacity="0.0"
     inkscape:pagecheckerboard="0"
     inkscape:deskcolor="#d1d1d1"
     inkscape:document-units="pt"
     inkscape:zoom="3.8907476"
     inkscape:cx="157.81029"
     inkscape:cy="114.2454"
     inkscape:window-width="1920"
     inkscape:window-height="1027"
     inkscape:window-x="-8"
     inkscape:window-y="-8"
     inkscape:window-maximized="1"
     inkscape:current-layer="svg6" />
  <g
     transform="matrix(0.1,0,0,-0.1,28.120337,152.33694)"
     fill="#000000"
     stroke="none"
     id="g6"
     style="fill:#999999">
    <path
       d="m 750,1374 c -60,-28 -114,-74 -136,-117 -15,-28 -16,-28 -83,-21 -83,8 -170,-12 -256,-60 -33,-18 -76,-38 -96,-45 C 47,1088 -27,937 15,794 66,618 222,478 402,448 c 52,-8 76,-7 128,6 104,27 165,86 195,190 10,32 27,80 39,105 21,46 22,47 56,39 47,-10 125,0 179,23 52,23 61,23 61,5 0,-24 68,-150 103,-192 19,-22 42,-57 51,-79 51,-121 169,-147 320,-71 91,45 155,101 217,189 54,78 89,173 89,246 0,86 -63,170 -139,187 -14,3 -66,26 -116,50 -113,56 -212,78 -322,71 -46,-3 -81,-1 -78,3 9,15 -18,61 -34,58 -9,-2 -28,11 -44,29 -16,18 -56,46 -89,63 -83,41 -185,43 -268,4 z m 420,-135 c 0,-6 -4,-7 -10,-4 -5,3 -10,11 -10,16 0,6 5,7 10,4 6,-3 10,-11 10,-16 z M 374,1043 c 4,-5 12,-9 17,-9 5,-1 13,-2 18,-3 5,0 8,-12 6,-26 -2,-26 9,-33 21,-14 4,8 9,8 17,0 6,-6 16,-11 21,-11 6,0 -1,8 -17,18 -15,10 -24,21 -21,25 4,3 16,0 28,-8 11,-8 26,-15 33,-15 23,0 114,-100 134,-147 50,-118 -1,-242 -111,-269 -44,-11 -120,-6 -120,8 0,6 11,8 26,5 21,-4 29,2 50,35 24,38 36,109 21,124 -3,4 -28,-1 -54,-12 -27,-10 -54,-17 -62,-15 -7,1 -10,-2 -6,-8 4,-7 -5,-10 -27,-7 -18,2 -38,0 -44,-5 -17,-14 -41,18 -26,33 8,8 8,15 1,24 -7,8 -7,14 1,19 5,3 10,11 10,16 0,6 -5,7 -11,3 -6,-3 -16,0 -21,7 -8,11 -9,11 -5,-2 3,-10 -3,-34 -14,-54 -11,-20 -16,-34 -11,-31 6,3 12,-3 15,-14 3,-11 10,-20 17,-20 6,0 8,5 4,12 -5,7 -3,8 5,3 9,-5 9,-11 3,-17 -13,-13 61,-78 88,-78 11,0 21,-4 25,-9 9,-15 -52,5 -83,28 -72,51 -139,153 -128,193 2,10 0,16 -5,12 -5,-3 -9,5 -8,18 1,37 24,103 34,101 6,-1 20,7 32,19 11,11 29,18 40,16 15,-3 13,-7 -11,-20 l -29,-15 37,-7 c 21,-4 40,-5 43,-2 3,3 14,-6 25,-19 11,-14 24,-25 30,-25 6,0 0,9 -13,20 l -24,20 32,-17 c 17,-10 29,-22 26,-27 -3,-5 -1,-6 6,-2 6,4 18,3 25,-3 9,-8 13,-7 13,4 0,8 -5,11 -10,8 -6,-3 -7,-1 -3,6 8,12 19,8 49,-17 9,-8 17,-11 17,-6 0,5 -9,15 -20,22 -12,7 -18,17 -14,23 4,7 10,7 18,0 9,-7 12,-4 12,14 0,13 -2,23 -5,23 -4,0 -10,1 -16,2 -5,2 -19,3 -30,4 -12,1 -19,7 -18,16 2,10 -7,16 -29,17 -34,3 -54,23 -35,35 15,10 22,10 31,1 z M 212,968 c -7,-7 -12,-8 -12,-2 0,14 12,26 19,19 2,-3 -1,-11 -7,-17 z m 1170,-31 c -26,-27 -29,-46 -5,-26 15,13 15,12 4,-9 -7,-13 -10,-26 -7,-30 3,-3 6,0 6,6 0,6 8,9 18,6 13,-5 14,-4 3,4 -9,7 -10,12 -2,16 6,4 11,2 11,-4 0,-6 4,-8 10,-5 5,3 7,0 4,-9 -4,-11 2,-14 25,-12 19,1 30,-2 27,-8 -2,-6 -9,-10 -15,-8 -7,1 -10,-2 -6,-8 4,-6 13,-7 23,-2 9,5 24,8 32,7 8,-1 21,3 28,9 10,7 13,6 12,-5 -4,-23 0,-39 8,-38 20,3 32,-3 32,-17 0,-11 6,-14 20,-9 11,3 20,3 20,-2 0,-15 -31,-54 -39,-49 -4,3 -7,-4 -7,-16 1,-31 -28,-46 -49,-25 -9,9 -21,17 -26,17 -6,0 -7,5 -3,12 5,7 0,9 -14,6 -12,-3 -23,-1 -26,6 -2,6 -5,1 -5,-11 -1,-28 -15,-29 -40,-4 -11,11 -22,17 -25,13 -3,-3 -6,0 -6,6 0,6 -8,16 -19,21 -16,9 -18,7 -15,-25 4,-49 48,-113 89,-128 29,-11 0,-26 -50,-26 -25,0 -35,3 -27,9 10,6 3,13 -25,27 -21,10 -43,17 -50,16 -6,-1 -15,12 -19,30 -18,84 7,162 78,243 22,25 42,45 46,45 3,0 -4,-10 -16,-23 z m 296,-32 c 3,-38 -14,-122 -27,-130 -4,-2 -5,11 -3,28 2,27 -2,35 -33,55 -20,12 -39,21 -43,18 -4,-2 -13,2 -20,10 -11,12 -9,14 11,14 13,0 38,-5 56,-11 46,-16 48,-5 4,22 l -38,24 30,6 c 52,12 60,7 63,-36 z m -158,-31 c 0,-8 -19,-13 -24,-6 -3,5 1,9 9,9 8,0 15,-2 15,-3 z M 1373,745 c -3,-9 -8,-14 -10,-11 -3,3 -2,9 2,15 9,16 15,13 8,-4 z m -33,-141 c 0,-2 -9,0 -20,6 -11,6 -20,13 -20,16 0,2 9,0 20,-6 11,-6 20,-13 20,-16 z"
       id="path1"
       style="fill:#999999" />
    <path
       d="m 354,881 c 4,-6 1,-11 -6,-11 -8,-1 -6,-6 6,-15 24,-18 13,-20 -17,-3 -19,10 -20,9 -10,-4 7,-8 10,-18 6,-21 -17,-17 18,-5 38,14 13,11 18,17 11,14 -9,-5 -12,-1 -10,10 2,10 -3,20 -11,23 -8,3 -11,0 -7,-7 z"
       id="path2"
       style="fill:#999999" />
    <path
       d="m 622,720 c 0,-14 2,-19 5,-12 2,6 2,18 0,25 -3,6 -5,1 -5,-13 z"
       id="path3"
       style="fill:#999999" />
    <path
       d="m 586,693 c -6,-14 -5,-15 5,-6 7,7 10,15 7,18 -3,3 -9,-2 -12,-12 z"
       id="path4"
       style="fill:#999999" />
    <path
       d="m 1333,875 c -6,-14 -7,-23 -2,-19 13,8 31,44 22,44 -4,0 -13,-11 -20,-25 z"
       id="path5"
       style="fill:#999999" />
    <path
       d="m 1306,825 c -9,-26 -7,-32 5,-12 6,10 9,21 6,23 -2,3 -7,-2 -11,-11 z"
       id="path6"
       style="fill:#999999" />
  </g>
  <path
     style="fill:#cccccc;stroke-width:0.22142"
     d="m 161.98215,108.68391 c -4.24419,-0.90967 -7.85604,-3.42513 -10.38183,-7.2304 -0.45626,-0.68738 -1.31098,-2.273599 -1.89938,-3.524929 -1.15856,-2.463877 -3.02967,-5.418315 -4.87654,-7.699942 -3.73563,-4.614983 -10.01453,-16.06482 -10.54718,-19.233225 -0.26155,-1.555793 -0.28141,-1.5804 -1.27409,-1.578218 -0.59503,0.0015 -1.79685,0.365183 -3.36173,1.017833 -4.51519,1.883107 -7.73881,2.746657 -11.88254,3.183142 -3.04991,0.321263 -4.71802,0.274913 -7.4941,-0.208237 -3.4515,-0.60069 -3.60864,-0.526088 -5.08386,2.413635 -1.47169,2.932687 -2.13597,4.630327 -4.24231,10.841782 -0.966638,2.850533 -2.221062,6.080295 -2.787612,7.177238 -3.453751,6.687101 -8.981894,10.869491 -17.146464,12.972391 -4.615132,1.18869 -7.103018,1.36123 -11.304964,0.78405 C 52.764533,105.27281 37.562906,93.186549 31.142146,76.943439 29.168147,71.949661 28.420315,67.913484 28.639608,63.436824 c 0.39326,-8.02803 4.069399,-15.415343 9.96011,-20.015145 2.282669,-1.782437 4.35427,-2.906814 7.787767,-4.226869 1.461372,-0.561844 5.546571,-2.458461 9.078219,-4.214704 6.657485,-3.310685 9.723173,-4.504239 13.838748,-5.387792 3.195558,-0.686038 6.807513,-0.996309 9.716002,-0.834613 8.07413,0.448875 8.506056,0.446052 9.141545,-0.05976 0.324721,-0.258458 1.038168,-1.241444 1.585438,-2.184414 2.578217,-4.44237 7.362232,-8.534117 13.266153,-11.346478 4.5367,-2.161077 8.71892,-2.990538 14.11758,-2.799941 8.141,0.287413 15.04299,3.264795 21.37923,9.222588 2.33393,2.194524 3.73762,3.098631 4.81085,3.098631 1.3194,0 3.25242,2.909345 3.25662,4.901454 l 0.002,1.026603 1.00806,0.15117 c 0.55443,0.08314 3.81761,0.08199 7.25151,-0.0025 7.03821,-0.1733 9.43053,-0.0055 14.61486,1.025059 5.82276,1.157477 9.74581,2.61919 20.7453,7.72963 4.1661,1.935595 6.13245,2.737297 8.74609,3.565867 2.79692,0.886671 4.54974,1.982039 6.8754,4.296546 2.25263,2.24184 3.40071,3.86985 4.46495,6.331418 2.12016,4.903912 2.20108,9.835342 0.27398,16.69836 -2.78253,9.909487 -10.14554,20.92179 -18.47835,27.636675 -6.45926,5.205111 -15.42824,9.575431 -21.89423,10.668401 -2.45421,0.41484 -6.18591,0.39981 -8.20545,-0.033 z M 77.94564,94.424446 c 2.228051,-0.27621 5.044356,-1.200225 6.805338,-2.232802 2.027778,-1.189013 5.085977,-4.405208 6.182697,-6.50211 2.752101,-5.261963 3.013576,-11.879085 0.705864,-17.863185 -1.425129,-3.69549 -6.728448,-10.465268 -10.773933,-13.753125 -1.673999,-1.360493 -2.466366,-1.804905 -3.590034,-2.013503 -0.426234,-0.07913 -1.517719,-0.59064 -2.425521,-1.136692 -1.183464,-0.71187 -1.88838,-0.992828 -2.490975,-0.992828 -1.510135,0 -0.924399,1.030568 1.64996,2.902995 0.877197,0.638018 1.479579,1.198478 1.33863,1.245458 -0.344127,0.114712 -1.405907,-0.450728 -1.926429,-1.025903 -0.626336,-0.692092 -1.315802,-0.585315 -1.998283,0.309465 -1.113864,1.460348 -1.675662,0.839528 -1.675662,-1.851697 0,-2.128433 -0.179328,-2.37354 -1.893209,-2.587673 -0.936786,-0.117045 -1.442224,-0.331545 -2.124573,-0.901635 -1.055022,-0.881445 -1.726118,-0.93624 -2.953391,-0.241155 -2.473724,1.401023 -0.91111,3.382733 3.100887,3.932543 2.121471,0.29073 2.763186,0.643612 2.763186,1.519477 0,1.224293 0.550389,1.566188 3.093463,1.921635 3.885352,0.543053 3.648782,0.397215 3.725586,2.296688 0.07745,1.915425 -0.124814,2.247787 -0.965488,1.58652 -0.779358,-0.613043 -1.332895,-0.596573 -1.75807,0.05235 -0.465992,0.711195 -0.153785,1.473037 0.928062,2.264647 1.291447,0.944978 2.283307,1.916753 2.283307,2.237078 0,0.47997 -0.346113,0.334095 -1.584998,-0.668025 -2.077984,-1.68087 -2.892236,-2.143163 -3.774794,-2.143163 -0.696713,0 -0.883268,0.105728 -1.172098,0.66426 -0.358561,0.693383 -0.344842,0.711998 0.55355,0.75096 0.45657,0.0198 0.565706,0.150083 0.622935,0.743625 0.08177,0.84813 -0.118929,0.894923 -0.969362,0.225968 -0.651993,-0.512858 -2.047136,-0.664073 -2.811318,-0.304703 -0.298879,0.14055 -0.359699,0.104445 -0.26032,-0.154537 0.225964,-0.588848 -1.33347,-2.01102 -3.55396,-3.241125 -1.167993,-0.647048 -2.170882,-1.129185 -2.228643,-1.071428 -0.05776,0.05775 0.576604,0.693195 1.409698,1.41207 0.833096,0.718868 1.686041,1.53123 1.895433,1.805235 0.360866,0.472223 0.360361,0.498195 -0.0097,0.498195 -0.214718,0 -1.29633,-0.946567 -2.403583,-2.103487 -1.107253,-1.15692 -2.156803,-2.111055 -2.332336,-2.120295 -0.175531,-0.0092 -0.966801,-0.0052 -1.758378,0.0095 -0.791577,0.01447 -2.286162,-0.12951 -3.3213,-0.31998 -3.271522,-0.601958 -3.19327,-0.448103 -0.881853,-1.733858 2.883249,-1.603845 3.189911,-2.355637 0.964248,-2.363895 -1.257533,-0.0045 -2.219655,0.443925 -3.819822,1.780995 -0.750771,0.62733 -1.836117,1.31742 -2.41188,1.53354 -1.270984,0.477083 -1.758023,1.225238 -2.708663,4.160858 -1.530814,4.727212 -1.672984,8.61567 -0.295683,8.087152 0.233384,-0.08956 0.297853,0.281723 0.301524,1.73649 0.0035,1.386705 0.140068,2.23413 0.544975,3.38166 1.578457,4.473458 6.562609,10.910423 11.277242,14.564415 2.773945,2.14989 6.706583,3.970275 8.706182,4.030005 1.810179,0.05407 0.657596,-1.132717 -1.415838,-1.457865 -2.120792,-0.332572 -4.843437,-2.041162 -7.354356,-4.615207 -1.575499,-1.615103 -1.986251,-2.439375 -1.587183,-3.18504 0.375162,-0.700995 0.232575,-1.215855 -0.484943,-1.751048 -0.745592,-0.55614 -0.959798,-0.385747 -0.646153,0.513975 0.198636,0.569813 0.179181,0.708548 -0.115204,0.821513 -0.683287,0.2622 -1.053149,-0.155813 -1.999196,-2.259465 -0.267327,-0.594428 -0.562135,-0.908948 -0.896502,-0.956438 -0.274007,-0.03892 -0.498195,-0.161917 -0.498195,-0.273337 0,-0.111428 0.486828,-1.225433 1.081841,-2.475578 1.135603,-2.385945 1.575199,-3.821895 1.575199,-5.145412 v -0.794258 l 0.651088,0.481365 c 0.533837,0.39468 0.832898,0.45645 1.66065,0.342998 0.944261,-0.129428 1.009562,-0.105653 1.009562,0.3675 0,0.287467 -0.334599,0.83019 -0.77497,1.257007 -0.426233,0.413123 -0.77497,0.9006 -0.77497,1.083285 0,0.182678 0.269601,0.721178 0.599114,1.19667 l 0.599114,0.864518 -0.629666,1.164015 c -0.781723,1.445122 -0.677215,2.45985 0.341636,3.31716 0.789641,0.66444 1.496799,0.71565 2.477452,0.179407 0.567675,-0.31041 1.281145,-0.390112 3.587079,-0.400695 3.715029,-0.01703 3.512273,0.02707 3.360697,-0.73083 l -0.126667,-0.633337 1.425876,-0.133155 c 0.836061,-0.07807 2.923445,-0.640185 5.046263,-1.358925 1.991214,-0.674175 4.083826,-1.289295 4.650247,-1.366935 l 1.029857,-0.141158 0.360992,0.860258 c 0.717038,1.708732 -0.05664,6.47346 -1.590032,9.792285 -0.950102,2.056372 -2.594597,4.372402 -3.497585,4.925835 -0.601017,0.368355 -0.952695,0.407355 -2.582849,0.286387 -1.594753,-0.118327 -1.933931,-0.08359 -2.189403,0.224228 -0.619108,0.74598 0.529707,1.36005 3.301533,1.764757 1.213967,0.177248 4.654334,0.128288 6.426988,-0.09146 z m 93.31989,-1.346257 c 3.0755,-0.546255 3.31932,-1.354043 0.82482,-2.7327 -2.84563,-1.572728 -5.23194,-4.317345 -6.91298,-7.950945 -0.88429,-1.911413 -1.22896,-3.19623 -1.43264,-5.34039 -0.1469,-1.546463 0.0549,-1.998495 0.80784,-1.809518 0.86353,0.216735 2.36136,1.636928 2.43923,2.312798 0.0541,0.46983 0.19241,0.609142 0.62312,0.627825 0.30446,0.0132 0.66061,0.0381 0.79146,0.05535 0.13086,0.01725 0.87815,0.588045 1.66065,1.26846 0.78251,0.680415 1.70748,1.385992 2.0555,1.567957 1.22338,0.639668 2.13499,-0.08377 2.13499,-1.69428 0,-0.347452 0.059,-0.785595 0.13121,-0.97365 0.11763,-0.30654 0.18723,-0.305205 0.67272,0.0129 0.42733,0.279998 0.86374,0.32487 2.06959,0.212798 l 1.52808,-0.14202 -0.0419,0.926167 c -0.0356,0.784763 0.032,0.945383 0.44246,1.05204 0.45042,0.117053 1.52127,0.84645 3.0192,2.0565 0.96196,0.777098 2.56473,0.709118 3.45798,-0.14667 0.72426,-0.693885 1.11486,-1.7385 1.1224,-3.001755 0.006,-0.964972 0.17378,-1.222147 0.91727,-1.40394 1.25255,-0.306255 3.95984,-4.16166 3.59323,-5.117047 -0.13101,-0.341393 -0.30948,-0.373815 -1.2807,-0.232658 -2.35861,0.342788 -2.40406,0.330165 -2.66762,-0.740737 -0.32561,-1.32303 -0.98358,-1.805258 -2.46315,-1.805258 -1.49066,0 -1.70686,-0.33282 -1.63475,-2.516595 0.0287,-0.868822 0.0384,-1.704225 0.0215,-1.856452 -0.0482,-0.43539 -0.62954,-0.326318 -1.5669,0.293992 -0.66402,0.439433 -1.28708,0.610523 -2.70765,0.743535 -1.01483,0.09502 -2.23097,0.336368 -2.70252,0.536333 -1.06057,0.449737 -1.9925,0.466087 -2.34517,0.04117 -0.3588,-0.43233 -0.0766,-0.83628 0.46426,-0.664605 0.93524,0.296835 2.02245,-1.10139 1.24369,-1.599473 -0.15223,-0.09736 -1.2428,-0.193627 -2.4235,-0.21393 -1.18069,-0.02032 -2.24932,-0.100312 -2.37471,-0.17781 -0.1357,-0.08387 -0.1732,-0.540532 -0.0927,-1.12815 l 0.13531,-0.987255 -0.68973,0.137948 c -0.59987,0.11997 -0.71849,0.06232 -0.91037,-0.442343 -0.23428,-0.616222 -0.65424,-0.725175 -1.35324,-0.351082 -0.56642,0.303142 -0.54148,0.837757 0.0699,1.49835 l 0.4982,0.53829 -0.70663,-0.151275 c -0.85294,-0.182603 -1.61828,0.176175 -1.61828,0.75861 0,0.232087 -0.0996,0.483562 -0.22142,0.558825 -0.50131,0.309825 -0.17378,-1.440413 0.55355,-2.958105 0.42623,-0.889403 0.77497,-1.65879 0.77497,-1.70976 0,-0.266753 -0.5474,-0.0099 -1.45427,0.682305 -1.60881,1.228027 -1.86964,0.998992 -0.70457,-0.618705 0.39578,-0.549555 1.24272,-1.611818 1.88206,-2.360588 0.63935,-0.748762 1.16246,-1.455855 1.16246,-1.57131 0,-0.602932 -0.83778,0.03097 -3.01476,2.28105 -7.49944,7.751303 -10.85232,15.469208 -10.06277,23.163188 0.49211,4.79547 1.08965,6.015195 3.0963,6.320272 1.18679,0.180435 4.6409,1.586123 5.95089,2.42178 1.09492,0.69846 1.38624,1.214348 0.85396,1.512233 -0.52474,0.293655 -0.45179,0.819637 0.13186,0.950722 1.35506,0.304335 4.12357,0.245723 6.25228,-0.132367 z m -9.42429,-1.65393 c -0.57656,-0.618405 -2.85204,-1.85988 -3.40893,-1.85988 -0.60678,0 -0.35688,0.591585 0.49188,1.164495 1.33756,0.90285 2.11561,1.252807 2.80635,1.262257 l 0.6475,0.0089 z m 3.15022,-12.654105 c 0.78557,-0.94056 1.11502,-2.490975 0.52931,-2.490975 -0.47599,0 -1.51383,1.881165 -1.34001,2.428852 0.17502,0.551423 0.38838,0.567773 0.8107,0.0621 z m 28.60016,-4.21797 c 1.01193,-1.11816 2.11468,-6.152843 2.29323,-10.46985 0.2219,-5.365035 -0.27165,-6.415043 -3.00255,-6.38784 -1.64706,0.01642 -6.01438,0.88305 -6.04311,1.199182 -0.0103,0.113093 1.06548,0.89427 2.39056,1.735943 5.28115,3.354517 5.4734,3.993157 0.81144,2.695522 -2.95195,-0.821662 -6.37742,-1.25364 -7.25887,-0.915397 -0.31311,0.12015 -0.31422,0.198262 -0.0112,0.784222 0.48598,0.939788 1.52756,1.597253 2.65033,1.672943 1.09794,0.07402 3.94241,1.49169 5.53891,2.760555 0.54759,0.435217 1.21221,1.225132 1.47693,1.755367 0.42071,0.842655 0.46406,1.19118 0.34426,2.767748 -0.13482,1.774447 -0.0292,2.80008 0.28819,2.80008 0.0887,0 0.32356,-0.17931 0.52189,-0.398475 z m -13.7037,-9.02769 c 0.66951,-0.66951 0.28026,-0.980573 -1.22706,-0.980573 -0.90441,0 -1.25176,0.345428 -1.00197,0.99639 0.17358,0.452325 1.77223,0.440985 2.22903,-0.01583 z M 49.439742,55.515414 c 0.723909,-0.755603 0.855389,-1.557045 0.311776,-1.900448 -0.335473,-0.21192 -0.505371,-0.135945 -1.051744,0.470355 -1.295541,1.43763 -0.584257,2.812283 0.739968,1.430093 z M 145.10656,28.271821 c -0.0437,-0.937391 -0.63484,-1.590714 -1.43931,-1.590714 -0.51901,0 -0.62995,0.09449 -0.62995,0.536562 0,0.753368 1.04504,1.939401 1.6347,1.855251 0.37827,-0.05399 0.46218,-0.20868 0.43456,-0.801099 z"
     id="path7" />
  <path
     style="fill:#ffcc00;stroke-width:0.22142"
     d="m 70.632972,94.128661 c -3.285961,-0.603892 -3.23019,-1.719645 0.0683,-1.366402 0.762748,0.08168 1.632338,0.05497 1.932423,-0.0594 1.355887,-0.516743 3.565101,-3.664095 4.62181,-6.584453 1.278842,-3.534247 1.689614,-7.809322 0.879374,-9.151965 -0.271443,-0.449805 -0.432469,-0.49413 -1.434824,-0.394972 -0.620988,0.06142 -2.165392,0.480577 -3.432009,0.93144 -3.081219,1.096785 -6.031538,1.876177 -7.102117,1.876177 -0.854237,0 -0.873686,0.01732 -0.805844,0.71961 l 0.06952,0.719618 h -2.98917 c -2.412116,0 -3.134656,0.07478 -3.742803,0.387487 -1.255734,0.645638 -1.927523,0.470948 -2.743892,-0.713527 -0.528005,-0.766088 -0.470318,-1.56537 0.176226,-2.441708 0.688222,-0.932835 0.688926,-1.21575 0.0058,-2.32491 -0.300029,-0.487125 -0.548615,-0.945127 -0.552416,-1.01778 -0.0038,-0.07268 0.341826,-0.491182 0.76806,-0.93006 0.552085,-0.568462 0.774969,-0.998137 0.774969,-1.49397 v -0.696015 l -1.128786,0.15525 c -1.095242,0.15063 -1.154704,0.129938 -2.000931,-0.696382 l -0.872145,-0.851625 0.145094,1.234515 c 0.180418,1.535077 -0.211189,2.971687 -1.572459,5.768572 -1.128422,2.318468 -1.20804,2.783693 -0.493757,2.885138 0.365578,0.0519 0.675193,0.44139 1.163115,1.463115 0.710952,1.48875 1.034894,1.80948 1.833004,1.814842 0.615361,0.0037 0.832221,-0.466597 0.500506,-1.086412 -0.275861,-0.515445 -0.177858,-0.56595 0.448136,-0.230933 0.453323,0.242618 0.579353,0.979815 0.206864,1.21002 -0.342597,0.21174 -0.261727,1.28013 0.14292,1.888163 0.599369,0.900615 2.542569,2.848807 3.842639,3.852502 1.950007,1.505475 3.161919,2.111535 4.875061,2.437958 1.02198,0.19473 1.772175,0.473692 2.067171,0.76869 l 0.463035,0.463042 h -0.468719 c -1.64648,0 -6.211,-2.079802 -8.731584,-3.97851 -2.231073,-1.680615 -6.330827,-6.067635 -8.091873,-8.658847 -2.885083,-4.245135 -3.841129,-6.598313 -3.841129,-9.454418 0,-1.768282 -0.02498,-1.866705 -0.445738,-1.756672 -0.696835,0.182227 -0.959644,-0.56646 -0.793145,-2.259495 0.286661,-2.914898 1.912009,-8.20827 2.74306,-8.933498 0.207841,-0.181372 0.732745,-0.443535 1.166453,-0.582577 0.433707,-0.139035 1.380278,-0.760395 2.103489,-1.380795 0.723212,-0.620393 1.713486,-1.314158 2.20061,-1.541685 0.969009,-0.452618 2.655955,-0.56202 2.887564,-0.187268 0.197691,0.319868 -0.313796,0.680903 -2.720487,1.920248 -1.125917,0.579802 -2.047578,1.11462 -2.048134,1.188487 -0.002,0.267323 5.682544,1.109595 7.164009,1.061475 l 1.518813,-0.04935 2.070775,2.139173 c 1.547792,1.59891 2.212721,2.139172 2.632812,2.139172 0.797087,0 0.705036,-0.30894 -0.464653,-1.55943 -1.164879,-1.245345 -1.054161,-1.38294 0.374435,-0.465315 1.795619,1.153373 2.332451,1.799918 2.211793,2.66382 -0.03089,0.221175 0.100999,0.26517 0.471961,0.157448 1.444783,-0.41955 1.843226,-0.390945 2.702256,0.193995 1.100114,0.749115 1.514843,0.606255 1.42412,-0.490545 -0.05978,-0.72279 -0.14882,-0.841313 -0.677731,-0.902168 -0.66331,-0.07632 -0.753636,-0.250185 -0.343201,-0.660622 0.671358,-0.671363 1.713279,-0.251453 4.304949,1.734952 1.482896,1.13658 2.071947,1.350525 2.071947,0.752535 0,-0.6327 -0.443456,-1.18974 -1.66633,-2.09313 -1.366814,-1.009725 -1.948742,-1.76382 -1.753584,-2.272395 0.222957,-0.581017 0.77522,-0.630352 1.568428,-0.140122 1.185638,0.732765 1.40919,0.493095 1.405256,-1.50654 -0.0019,-0.947625 -0.07659,-1.8315 -0.166065,-1.964168 -0.177969,-0.263895 -2.028418,-0.653325 -4.216131,-0.887295 -1.678082,-0.17946 -2.266032,-0.601582 -2.454713,-1.76238 -0.174253,-1.072027 -0.59889,-1.303852 -2.992347,-1.633635 -1.997231,-0.275182 -3.387231,-0.939585 -3.887058,-1.857967 -0.331637,-0.609345 -0.320893,-0.642098 0.41432,-1.263293 1.018874,-0.860865 1.875058,-1.028917 2.603256,-0.510967 1.409098,1.002247 1.778519,1.169475 2.890315,1.308382 1.463622,0.182865 1.612053,0.426075 1.612053,2.641388 0,0.92937 0.103144,1.882492 0.229209,2.118045 0.36562,0.683167 1.191174,0.52923 1.859268,-0.346688 0.325105,-0.426232 0.696238,-0.774967 0.824744,-0.774967 0.128503,0 0.611692,0.299422 1.073754,0.665377 0.462059,0.365963 1.148961,0.727155 1.526446,0.80265 1.049439,0.209888 0.882784,-0.425917 -0.330433,-1.26063 -1.371551,-0.94365 -2.492199,-1.94481 -2.781031,-2.484495 -0.223567,-0.417742 -0.185736,-0.43749 0.617366,-0.32223 0.470539,0.0675 1.650225,0.580373 2.621526,1.13964 0.971298,0.559268 1.961139,1.01685 2.199646,1.01685 1.416273,0 4.756247,2.828378 8.497797,7.196145 4.16063,4.857 5.935639,8.210573 6.814446,12.87471 0.474452,2.518088 0.334065,6.537008 -0.313688,8.980163 -1.551755,5.852812 -5.766101,10.35717 -11.325211,12.10455 -2.847769,0.895132 -7.396169,1.160542 -10.40674,0.607267 z M 87.450475,83.453364 c 0.712946,-0.811995 0.849976,-1.74939 0.255731,-1.74939 -0.428611,0 -1.098132,0.965422 -1.266825,1.826715 -0.185192,0.945517 0.13449,0.921075 1.011094,-0.07733 z m 3.549745,-3.23091 c 0.0031,-1.14471 -0.258753,-1.762155 -0.601795,-1.419113 -0.196417,0.196418 -0.161458,2.66655 0.04241,2.996415 0.306062,0.495218 0.555704,-0.208695 0.559385,-1.577302 z M 62.872701,69.974071 c 1.196937,-0.606532 3.774711,-2.662755 3.774711,-3.01098 0,-0.12195 -0.274007,-0.19305 -0.608904,-0.157995 -0.59049,0.0618 -0.609196,0.03022 -0.618522,-1.043362 -0.01193,-1.37292 -0.337471,-1.988198 -1.213547,-2.293598 -0.774541,-0.270007 -0.9093,-0.112005 -0.822896,0.964853 0.04331,0.539722 -0.03998,0.677325 -0.444915,0.735015 -0.824356,0.11745 -0.583636,0.827452 0.626494,1.84785 0.626712,0.52845 1.004294,0.988485 0.852775,1.03899 -0.149553,0.04988 -1.151247,-0.340373 -2.225987,-0.867165 -1.07474,-0.526793 -2.016108,-0.89577 -2.091928,-0.819953 -0.07582,0.07582 0.157016,0.568328 0.517415,1.094453 0.875157,1.277602 1.028536,1.823085 0.610225,2.170252 -0.479605,0.39804 -0.417112,0.88983 0.113072,0.88983 0.247611,0 0.937014,-0.246682 1.532007,-0.54819 z"
     id="path8" />
  <path
     style="fill:#ffcc00;stroke-width:0.22142"
     d="m 166.2864,93.181021 c -1.58023,-0.248895 -1.63236,-0.280102 -1.22325,-0.732165 0.20701,-0.22875 0.34143,-0.597465 0.29869,-0.819367 -0.1575,-0.817823 -4.54947,-2.963738 -7.13722,-3.487245 -1.24266,-0.251393 -1.3884,-0.344303 -1.85583,-1.183065 -0.279,-0.50064 -0.66448,-1.638773 -0.85664,-2.52918 -0.42464,-1.967723 -0.47923,-6.374633 -0.10372,-8.372235 0.84524,-4.496265 3.25269,-9.326153 6.84275,-13.728038 2.01531,-2.47104 4.84984,-5.445705 5.02705,-5.27556 0.0855,0.08208 -0.23754,0.580275 -0.71783,1.107105 -1.4281,1.566488 -2.4882,3.066668 -2.4882,3.521153 0,0.611872 0.71634,0.539782 1.54231,-0.15522 0.37983,-0.319605 0.7375,-0.534203 0.79483,-0.47688 0.0573,0.0573 -0.14617,0.670402 -0.4522,1.36239 -0.53009,1.198635 -0.72422,2.553862 -0.41072,2.867355 0.22643,0.226432 0.73998,-0.300338 0.73998,-0.759038 0,-0.524167 0.8165,-0.740895 1.62836,-0.432225 1.22164,0.46446 1.40508,0.271808 0.53049,-0.557137 -0.94595,-0.896588 -1.00214,-1.094415 -0.40205,-1.415573 0.6427,-0.343957 0.86206,-0.281205 0.9402,0.26898 0.0573,0.403478 0.21086,0.497595 0.80769,0.495023 l 0.73692,-0.003 -0.14049,0.93687 c -0.1671,1.114305 -0.14644,1.123282 2.80729,1.22037 2.2045,0.07245 2.71297,0.337185 2.05151,1.068097 -0.24979,0.276015 -0.58576,0.417788 -0.83538,0.352508 -0.89871,-0.23502 -1.4045,0.513652 -0.7734,1.144755 0.3777,0.3777 1.84835,0.328867 2.65478,-0.08816 0.37635,-0.194618 1.50821,-0.428948 2.51524,-0.52074 1.38376,-0.12612 2.08001,-0.312825 2.85055,-0.764393 0.56077,-0.328627 1.10468,-0.544912 1.20869,-0.48063 0.10401,0.06428 0.13923,0.813915 0.0783,1.665848 -0.0703,0.983482 -0.009,1.793655 0.16679,2.21919 0.25483,0.61521 0.36538,0.670207 1.34743,0.670207 1.59308,0 2.15491,0.34188 2.49855,1.520408 0.38382,1.316302 0.74163,1.526415 2.01805,1.185022 1.19699,-0.320145 1.817,-0.342615 1.98431,-0.07192 0.30569,0.494618 -1.43505,3.295928 -2.72709,4.388603 -0.31882,0.269632 -0.7932,0.493815 -1.05418,0.498195 -0.56587,0.0095 -0.74165,0.392782 -0.74817,1.63137 -0.0101,1.902817 -1.23861,3.469252 -2.72099,3.469252 -0.5585,0 -1.74336,-0.715965 -2.99385,-1.809052 -0.40577,-0.35469 -1.03768,-0.70488 -1.40426,-0.778193 -0.6493,-0.129862 -0.66272,-0.158452 -0.52025,-1.108545 l 0.14625,-0.97524 -1.68363,0.152565 c -1.56422,0.14175 -1.72227,0.116265 -2.22848,-0.359295 -0.29967,-0.281527 -0.59405,-0.462682 -0.65418,-0.402555 -0.0601,0.06015 -0.19425,0.730403 -0.29806,1.489515 -0.33123,2.42199 -1.12643,2.554403 -3.36182,0.5598 -1.47756,-1.318395 -2.35614,-1.846627 -2.97572,-1.78908 -0.2791,0.02595 -0.46646,-0.164475 -0.58506,-0.594562 -0.22679,-0.82242 -0.77902,-1.417883 -1.79652,-1.937198 -1.10879,-0.565905 -1.64716,-0.537457 -1.806,0.09542 -0.19904,0.793057 0.24623,4.123402 0.74523,5.573752 1.31249,3.814845 4.73196,8.130405 7.46512,9.421425 1.15335,0.544793 1.83472,1.05165 1.83472,1.364813 0,0.422107 -2.03116,1.068082 -4.01567,1.277107 -2.12479,0.2238 -2.33695,0.22887 -3.29119,0.07856 z m -7.0929,-21.907665 c 0.75558,-1.191442 1.04015,-2.242597 0.69936,-2.58339 -0.38373,-0.383722 -1.09748,0.436095 -1.46907,1.68738 -0.63579,2.140958 -0.28143,2.553473 0.76971,0.89601 z m 2.71969,-5.013427 c 0.66305,-0.706148 1.93708,-3.108608 1.93742,-3.65343 3.2e-4,-0.50889 -0.83983,-0.284273 -1.39223,0.37221 -1.0839,1.288147 -2.09543,4.000837 -1.49186,4.000837 0.14904,0 0.57504,-0.323827 0.94667,-0.719617 z"
     id="path9" />
  <path
     style="fill:#ffcc00;stroke-width:0.22142"
     d="m 192.99728,74.394849 c -0.0706,-0.183915 -0.0739,-1.255035 -0.008,-2.380268 0.14802,-2.508135 -0.11472,-3.128265 -1.94803,-4.597852 -1.5616,-1.25178 -4.41467,-2.703585 -5.47388,-2.785418 -0.43605,-0.03368 -0.86408,-0.06712 -0.95118,-0.07433 -0.34589,-0.02857 -1.72371,-1.408402 -1.72371,-1.72626 0,-0.5538 3.84472,-0.24828 6.31047,0.501465 2.86582,0.871388 4.07468,1.100468 4.35068,0.82446 0.45641,-0.456405 -0.2868,-1.171095 -3.19496,-3.072352 -1.60989,-1.052498 -3.00678,-1.984995 -3.10418,-2.072213 -0.25951,-0.23238 4.39056,-1.111147 5.87867,-1.110945 2.12729,2.93e-4 2.59898,0.904298 2.59956,4.982123 5.1e-4,3.61434 -0.9795,8.978272 -2.0091,10.996447 -0.48433,0.94935 -0.54393,0.99159 -0.72676,0.51513 z"
     id="path10" />
  <path
     style="fill:#ffcc00;stroke-width:0.22142"
     d="m 48.269555,55.565416 c 0,-0.98166 1.132881,-2.155275 1.615041,-1.673115 0.381558,0.381555 -0.852773,2.01624 -1.522441,2.01624 -0.05093,0 -0.0926,-0.154402 -0.0926,-0.343125 z"
     id="path11" />
  <path
     style="fill:#ffcc00;stroke-width:0.22142"
     d="m 63.824308,67.034296 c -0.63935,-0.639675 -1.162455,-1.255492 -1.162455,-1.368472 0,-0.11298 0.224188,-0.237263 0.498195,-0.276173 0.436592,-0.06203 0.491135,-0.184612 0.441103,-0.991515 -0.05057,-0.81567 -0.008,-0.90792 0.373145,-0.808252 0.774424,0.202515 1.226816,0.934185 1.252622,2.025907 0.03487,1.475243 0.0539,1.544948 0.443487,1.62429 0.285462,0.05812 0.254259,0.1548 -0.166065,0.514433 l -0.517577,0.442837 z"
     id="path12" />
  <path
     style="fill:#ffcc00;stroke-width:0.22142"
     d="m 61.501116,69.658584 c 0.359388,-0.626198 0.351055,-0.670493 -0.333283,-1.771358 -0.386039,-0.621007 -0.664304,-1.129102 -0.618367,-1.129102 0.04594,0 0.811213,0.348735 1.700613,0.774967 0.8894,0.426233 1.863447,0.774975 2.16455,0.774975 0.527338,0 0.51943,0.02123 -0.215174,0.57756 -0.823979,0.62403 -2.36974,1.402493 -2.800468,1.410353 -0.183535,0.003 -0.151747,-0.195045 0.102129,-0.637395 z"
     id="path13" />
  <path
     style="fill:#ffcc00;stroke-width:0.22142"
     d="m 161.09781,66.204571 c 0.37557,-1.566172 2.03931,-3.998062 2.45251,-3.584857 0.23772,0.23772 -1.17277,2.875132 -1.9183,3.586965 l -0.69351,0.662152 z"
     id="path14" />
  <path
     style="fill:#ffcc00;stroke-width:0.22142"
     d="m 158.40226,71.297236 c 0.2814,-1.165177 1.05899,-2.596035 1.28692,-2.368102 0.25026,0.25026 -0.57909,2.31741 -1.10276,2.748615 -0.30282,0.249352 -0.32514,0.203227 -0.18416,-0.380513 z"
     id="path15" />
  <path
     style="fill:#ffcc00;stroke-width:0.22142"
     d="m 160.79525,91.546186 c -0.75739,-0.303907 -2.52923,-1.56351 -2.39215,-1.700587 0.14882,-0.148823 2.26892,0.896257 3.01206,1.484767 0.59531,0.471435 0.28572,0.579218 -0.61991,0.21582 z"
     id="path16" />
  <path
     style="fill:#ffcc00;stroke-width:0.22142"
     d=""
     id="path17" />
  <path
     style="fill:#ffcc00;stroke-width:0.22142"
     d="m 177.84117,65.263539 c 0.0785,-0.414083 1.24242,-0.649155 1.91757,-0.38727 0.32907,0.127642 0.32262,0.174352 -0.0634,0.458437 -0.23639,0.173978 -0.7668,0.31632 -1.17869,0.31632 -0.59358,0 -0.73366,-0.08036 -0.67548,-0.387487 z"
     id="path18" />
  <ellipse
     style="fill:#ffcc00;stroke-width:0.75"
     id="path19"
     cx="61.886883"
     cy="67.090256"
     rx="14.724428"
     ry="18.599277" />
  <ellipse
     style="fill:#ffcc00;stroke-width:0.75"
     id="path20"
     cx="61.997593"
     cy="70.190125"
     rx="19.484959"
     ry="20.370638" />
  <ellipse
     style="fill:#ffcc00;stroke-width:2.3307"
     id="path21"
     cx="0.20061436"
     cy="96.986282"
     rx="23.54657"
     ry="30.503021"
     transform="matrix(0.8050445,-0.59321442,0.67410353,0.73863688,0,0)" />
  <ellipse
     style="fill:#ffcc00;stroke-width:2.3307"
     id="path21-8"
     cx="163.0242"
     cy="-119.73224"
     rx="23.54657"
     ry="30.503021"
     transform="matrix(0.48656741,0.87364304,-0.81800576,0.57521003,0,0)" />
  <path
     style="fill:#f2f2f2;stroke-width:0.22142"
     d="m 161.27391,108.40151 c -3.57111,-0.96406 -6.91563,-3.30461 -9.04083,-6.3269 -0.51379,-0.73069 -1.60216,-2.618804 -2.41859,-4.195814 -1.53094,-2.95716 -2.81849,-4.978312 -5.03047,-7.896675 -3.65222,-4.818555 -8.84016,-14.029732 -10.02959,-17.807527 -0.22861,-0.726113 -0.46655,-1.469663 -0.52875,-1.652333 -0.0622,-0.18267 -0.12271,-0.48159 -0.13448,-0.66426 -0.0345,-0.535815 -1.81099,-0.477907 -3.45341,0.112583 -5.93974,2.13546 -7.34449,2.590267 -9.24861,2.994337 -3.16964,0.672638 -7.97225,0.819968 -11.08805,0.340155 -3.53895,-0.54498 -3.74651,-0.43806 -5.34346,2.752688 -1.23442,2.466375 -3.17051,7.463722 -2.99909,7.741087 0.0653,0.105713 0.0391,0.225623 -0.0582,0.266475 -0.0973,0.04087 -0.80441,1.817948 -1.57124,3.949118 -2.055169,5.711685 -3.218525,7.901752 -5.744075,10.813432 -3.316758,3.823864 -8.23076,6.556044 -14.652449,8.146744 -2.293771,0.56818 -2.919677,0.63093 -6.310469,0.63256 -3.045262,0.002 -4.239679,-0.0945 -6.254127,-0.50232 C 59.911584,105.59519 52.295076,101.99195 46.166062,97.074601 42.184546,93.880209 37.702068,88.766634 34.924489,84.250299 32.278257,79.947541 29.850121,73.819846 29.140188,69.652921 c -0.445899,-2.617192 -0.455422,-6.807405 -0.02155,-9.482595 0.913376,-5.631727 3.492359,-10.743007 7.40963,-14.68512 2.708532,-2.725707 5.599902,-4.510977 10.35741,-6.395156 1.004693,-0.397903 1.826715,-0.795292 1.826715,-0.88309 0,-0.08779 0.130393,-0.159628 0.289762,-0.159628 0.400987,0 3.474377,-1.432696 3.474377,-1.619621 0,-0.08346 0.140763,-0.151739 0.312809,-0.151739 0.172043,0 2.189733,-0.908036 4.483755,-2.017861 6.605779,-3.19581 9.764583,-4.269005 14.829418,-5.038254 2.021147,-0.306972 3.466215,-0.342197 9.047905,-0.220547 7.768847,0.169318 6.783836,0.497206 9.111562,-3.033031 4.480907,-6.795757 12.966969,-12.073995 21.307729,-13.253181 2.89714,-0.409587 8.66398,-0.142261 11.5398,0.534933 5.37128,1.264825 10.21237,3.834179 14.46596,7.677648 3.20094,2.892314 4.11002,3.506144 5.70264,3.85055 0.3151,0.06814 0.83383,0.329127 1.15272,0.579964 0.72185,0.56781 1.84868,2.87687 2.05126,4.203374 0.0837,0.548014 0.26451,1.0675 0.40183,1.154412 0.13731,0.08691 3.80073,0.162689 8.14093,0.168394 9.23502,0.01214 11.57247,0.238941 17.23989,1.672772 4.29105,1.085613 7.58976,2.377736 16.97824,6.650466 3.38808,1.541929 6.38426,2.81716 6.65819,2.833846 0.27392,0.01669 0.49811,0.09689 0.49819,0.178221 9e-5,0.08133 0.82218,0.419106 1.82687,0.750605 2.77178,0.914541 4.46853,1.819146 6.21721,3.314631 7.03036,6.012405 8.95493,13.779225 5.97893,24.12864 -2.47684,8.613547 -8.20772,17.881875 -15.26552,24.688327 -4.93057,4.754985 -11.56867,8.953969 -18.22476,11.528229 -4.30507,1.66499 -6.08329,2.03056 -10.31356,2.12026 -3.19318,0.0677 -4.00387,0.0151 -5.34462,-0.34686 z m 13.01294,-8.09026 c 7.45208,-1.299534 14.18248,-4.946844 20.00918,-10.843291 7.03149,-7.115663 10.79819,-15.863468 10.44597,-24.259778 -0.2164,-5.1585 -1.85304,-9.325012 -4.96501,-12.639817 -3.93436,-4.190775 -8.64618,-6.079058 -15.11273,-6.05649 -5.13497,0.01792 -8.92567,0.969817 -14.06017,3.530685 -3.98151,1.985812 -6.53925,3.871417 -10.20203,7.521082 -3.36396,3.351908 -5.42394,6.142905 -7.31908,9.916358 -3.4037,6.777172 -4.28642,14.638402 -2.29398,20.429527 2.26257,6.576285 7.6458,11.120505 14.68735,12.398274 2.16971,0.39371 6.56271,0.39543 8.8105,0.004 z M 75.873013,97.963066 c 8.198588,-0.914197 14.409653,-5.662245 16.680519,-12.751417 1.195499,-3.732105 1.323031,-6.615 0.53228,-12.032348 C 92.310827,67.869969 90.472563,64.361889 85.265974,58.256199 77.709036,49.394281 65.567787,43.993239 55.559338,45.041184 46.510996,45.988599 40.09973,51.228886 38.064673,59.340556 c -0.595723,2.37453 -0.700949,6.75759 -0.225917,9.410348 2.337535,13.053667 14.24577,25.145025 28.037495,28.46865 3.785597,0.912277 6.603612,1.121865 9.996762,0.743512 z M 145.17162,28.784102 c 0.13858,-0.361128 -0.0225,-1.15144 -0.33128,-1.625131 -0.10651,-0.163409 -0.54931,-0.345035 -0.98399,-0.403614 -0.76179,-0.102662 -0.78964,-0.08178 -0.77088,0.578034 0.035,1.232994 1.72006,2.404743 2.08615,1.450711 z"
     id="path22" />
  <path
     style="fill:#e6e6e6;stroke-width:0.295227"
     d="m 213.80978,143.95016 c -3.4303,-1.19402 -5.43535,-2.46762 -8.17641,-5.19364 -2.3837,-2.37064 -2.61217,-2.71359 -7.07998,-10.62816 -1.09994,-1.9485 -2.95768,-4.87124 -4.12832,-6.49499 -7.08135,-9.82222 -12.8263,-19.96873 -14.87699,-26.275168 l -0.86399,-2.65704 -1.20555,-0.09023 c -0.88775,-0.06644 -2.95657,0.499237 -7.84798,2.145881 -4.38586,1.476458 -7.62421,2.384097 -9.53241,2.671722 -3.50327,0.528054 -9.41006,0.564585 -13.72415,0.08488 -3.03686,-0.337683 -3.22346,-0.326228 -3.99916,0.245481 -0.44752,0.32983 -1.2386,1.302227 -1.75796,2.160882 -1.13135,1.870462 -3.44627,7.274282 -4.43268,10.347372 -1.27407,3.96932 -4.22718,11.60017 -5.55945,14.36567 -3.84756,7.9867 -10.48755,13.48143 -20.21547,16.72874 -4.52421,1.51025 -7.3801,1.97116 -12.205232,1.96978 -8.15276,-0.002 -15.673768,-1.96576 -24.545004,-6.40774 C 63.217695,131.69543 55.064398,124.49754 48.146157,114.40032 44.017734,108.37486 40.346071,99.823 39.125902,93.390788 38.560629,90.410915 38.541365,82.637672 39.091632,79.563574 c 1.239533,-6.9247 4.692975,-13.600444 9.62076,-18.597595 3.100562,-3.144208 6.595907,-5.485712 11.30038,-7.570033 4.742905,-2.101349 4.914919,-2.180054 8.184578,-3.744894 6.817843,-3.262983 15.134238,-6.999891 17.713598,-7.959469 1.542559,-0.573865 4.398876,-1.416134 6.347372,-1.871708 3.441324,-0.80461 3.846904,-0.832852 14.17088,-0.986753 7.89892,-0.117751 10.79967,-0.25637 11.29607,-0.539809 0.36735,-0.209756 1.34447,-1.405424 2.17138,-2.65704 5.71146,-8.644891 14.18449,-14.744053 24.55575,-17.676028 2.39053,-0.675807 3.41183,-0.784274 8.47499,-0.900093 4.23766,-0.09693 6.53604,-0.01315 8.70919,0.317502 7.79733,1.18637 15.2847,4.964686 22.58484,11.396892 3.15881,2.783249 4.62469,3.777337 6.27943,4.258381 2.31261,0.672294 3.26425,1.928565 4.49736,5.936985 l 0.63574,2.066587 10.60501,0.205254 c 11.49463,0.222472 15.00453,0.479971 19.67337,1.44331 6.86281,1.416028 11.768,3.201157 24.88269,9.055485 4.54649,2.029527 8.79776,3.873244 9.44726,4.09715 0.64949,0.223903 1.44661,0.53823 1.77136,0.698503 0.32474,0.160273 1.82994,0.747393 3.34487,1.30471 3.50449,1.28924 5.50131,2.494001 8.09283,4.882721 3.9349,3.626968 6.91168,8.519092 8.09114,13.297223 0.80041,3.242544 0.72745,9.718627 -0.15633,13.875651 -3.23833,15.232134 -14.27448,32.123184 -27.41786,41.963574 -6.04128,4.52309 -13.36138,8.48818 -20.05689,10.86426 -4.57895,1.62497 -7.46494,2.08516 -13.04674,2.08037 -4.31356,-0.004 -4.76886,-0.0588 -7.05488,-0.85455 z m 21.92509,-10.77638 c 10.22126,-2.77035 18.45917,-8.0375 25.97968,-16.61089 5.69526,-6.4926 9.67314,-14.6438 10.95361,-22.445384 0.63382,-3.861718 0.42758,-10.188599 -0.44073,-13.520636 -2.22267,-8.529192 -8.97541,-15.420563 -17.29923,-17.654372 -6.34536,-1.702858 -14.75772,-1.300282 -21.34895,1.021667 -3.55314,1.251696 -9.10311,4.075551 -12.2806,6.248433 -3.17201,2.169137 -9.55766,8.258404 -12.12809,11.565179 -4.45575,5.732173 -7.31699,11.781234 -8.8674,18.746893 -0.667,2.99669 -0.89837,9.05522 -0.46025,12.05159 1.36149,9.3113 7.4545,16.85005 16.2051,20.05023 3.56091,1.30226 5.39744,1.53646 11.2765,1.43798 4.84081,-0.0811 5.79689,-0.18234 8.41036,-0.89069 z m -130.2292,-3.23584 c 8.56782,-2.23579 14.96541,-7.81324 17.69606,-15.4275 1.72321,-4.80511 2.05636,-8.97556 1.22803,-15.372977 -1.03451,-7.989751 -2.99853,-12.22176 -9.15251,-19.721499 C 109.12384,71.916921 101.90994,66.514843 93.586842,63.173271 83.056716,58.94561 73.29805,58.696224 64.607134,62.432674 c -6.98215,3.001808 -11.957835,8.936534 -13.99131,16.688063 -0.416687,1.588399 -0.545382,3.193741 -0.556181,6.937826 -0.01495,5.182435 0.130905,6.136849 1.669313,10.923385 4.892998,15.223862 19.628454,28.694512 35.738154,32.670612 4.442485,1.09646 5.912651,1.25398 10.695745,1.14593 3.580375,-0.0809 4.986495,-0.24566 7.342815,-0.86055 z m 88.163,-92.124091 c 0,-1.314234 -0.59401,-1.99307 -1.86676,-2.133325 -1.02064,-0.112473 -1.08551,-0.07021 -1.08551,0.707322 0,0.998394 0.71815,2.095844 1.58153,2.416862 0.95587,0.355401 1.37074,0.0555 1.37074,-0.990859 z"
     id="path31"
     transform="scale(0.75)" />
  <path
     style="fill:#f9f9f9;stroke-width:0.295227"
     d="m 218.3343,144.83165 c -0.10817,-0.17502 -0.70353,-0.31821 -1.32303,-0.31821 -0.6195,0 -1.68862,-0.19838 -2.37583,-0.44084 -0.6872,-0.24246 -1.35682,-0.37448 -1.48803,-0.29339 -0.13122,0.0811 -0.28314,0.0259 -0.3376,-0.12257 -0.0545,-0.14851 -0.36473,-0.3154 -0.68948,-0.37087 -0.32474,-0.0555 -0.65687,-0.16765 -0.73806,-0.2493 -0.0812,-0.0816 -0.88992,-0.63329 -1.79719,-1.22588 -2.64233,-1.72584 -5.17403,-4.26573 -6.98089,-7.00344 -0.92404,-1.40009 -1.81796,-2.64322 -1.9865,-2.76252 -0.16853,-0.11929 -0.20565,-0.21893 -0.0825,-0.22142 0.22344,-0.005 -1.49346,-3.26724 -1.86661,-3.54724 -0.1082,-0.0812 -0.29001,-0.44653 -0.40402,-0.81187 -0.11402,-0.36534 -0.3168,-0.66426 -0.45063,-0.66426 -0.13383,0 -0.32668,-0.33213 -0.42857,-0.73807 -0.10188,-0.40594 -0.31556,-0.73807 -0.47484,-0.73807 -0.15928,0 -0.2896,-0.19927 -0.2896,-0.44284 0,-0.24356 -0.13286,-0.44283 -0.29523,-0.44283 -0.16237,0 -0.29523,-0.19928 -0.29523,-0.44284 0,-0.24357 -0.10042,-0.44284 -0.22316,-0.44284 -0.12273,0 -0.39778,-0.39451 -0.61121,-0.87669 -0.21344,-0.48218 -0.76415,-1.27929 -1.22381,-1.77136 -0.45967,-0.49207 -0.78433,-0.89467 -0.72148,-0.89467 0.0628,0 -1.09497,-1.82672 -2.57293,-4.05937 -1.47796,-2.23265 -3.28121,-5.08897 -4.00722,-6.34737 -0.72601,-1.25841 -1.46339,-2.28801 -1.63862,-2.28801 -0.17522,0 -0.23245,-0.0861 -0.12718,-0.19141 0.23786,-0.23786 -1.26847,-3.05608 -1.63348,-3.05608 -0.14615,0 -0.18362,-0.13285 -0.0833,-0.29523 0.10036,-0.16237 0.0339,-0.29523 -0.14761,-0.29523 -0.18154,0 -0.24797,-0.13285 -0.14761,-0.29522 0.10035,-0.16238 0.0339,-0.29523 -0.14762,-0.29523 -0.18154,0 -0.24796,-0.13285 -0.14761,-0.29523 0.10035,-0.16237 0.0339,-0.29522 -0.14761,-0.29522 -0.18154,0 -0.24797,-0.13285 -0.14762,-0.29523 0.10036,-0.16237 0.0339,-0.29523 -0.14761,-0.29523 -0.18154,0 -0.24797,-0.13285 -0.14761,-0.29522 0.10035,-0.16238 0.0639,-0.29523 -0.081,-0.29523 -0.14489,0 -0.26344,-0.20049 -0.26344,-0.44553 0,-0.52616 -1.33499,-3.498339 -1.63177,-3.63291 -0.11266,-0.05108 -0.13166,-0.283574 -0.0422,-0.516646 0.0894,-0.23307 0.0197,-0.423766 -0.15493,-0.423766 -0.17465,0 -0.24108,-0.199278 -0.14761,-0.44284 0.0935,-0.243561 0.015,-0.442839 -0.17431,-0.442839 -0.18933,0 -0.27567,-0.110932 -0.19188,-0.246515 0.0838,-0.135583 -5.1e-4,-0.744591 -0.18734,-1.353351 l -0.3397,-1.106837 -1.6404,0.155543 c -0.90222,0.08555 -2.22172,0.362426 -2.93223,0.615285 -0.71051,0.252858 -1.47867,0.459741 -1.70704,0.459741 -0.22836,0 -0.90913,0.219673 -1.51282,0.488161 -0.60368,0.268488 -1.26368,0.461944 -1.46665,0.4299 -0.20297,-0.03205 -0.36903,0.08825 -0.36903,0.267327 0,0.179076 -0.11147,0.2567 -0.24771,0.172501 -0.33829,-0.209076 -3.29501,0.757977 -3.29501,1.077699 0,0.140964 -0.12831,0.177 -0.28513,0.08008 -0.24697,-0.152635 -2.83028,0.435666 -4.14327,0.943547 -0.24356,0.09421 -0.73953,0.142329 -1.10215,0.106922 -0.36263,-0.03541 -0.81626,0.03262 -1.00809,0.151177 -0.19183,0.118554 -1.19044,0.185039 -2.21915,0.147746 -1.0287,-0.03729 -1.87037,0.04099 -1.87037,0.17396 0,0.132973 -0.9837,0.241767 -2.18601,0.241767 -1.2023,0 -2.03263,-0.102237 -1.84516,-0.227192 0.18746,-0.124955 -0.58913,-0.226029 -1.72575,-0.224609 -1.13662,0.0014 -3.08533,-0.07224 -4.33045,-0.163691 l -2.26387,-0.166274 -1.24906,1.571789 c -1.18323,1.488955 -2.70628,4.387385 -2.72633,5.188315 -0.005,0.20297 -0.0937,0.36903 -0.19694,0.36903 -0.15573,0 -1.29224,2.76698 -1.33389,3.2475 -0.007,0.0812 -0.11824,0.31368 -0.24711,0.51664 -0.12888,0.20297 -0.12685,0.37107 0.005,0.37356 0.13136,0.002 0.0926,0.10212 -0.0862,0.22142 -0.32441,0.21647 -1.98703,4.90537 -1.98737,5.60478 -1e-4,0.20297 -0.10033,0.36904 -0.22274,0.36904 -0.22417,0 -0.72559,1.7284 -0.62095,2.14039 0.0309,0.12178 -0.0661,0.22142 -0.21553,0.22142 -0.24987,0 -0.72116,1.50768 -0.61107,1.95486 0.0262,0.10633 -0.0653,0.2746 -0.20339,0.37395 -0.13804,0.0993 -0.8223,1.50914 -1.52058,3.13288 -3.23758,7.52852 -8.18732,12.79602 -15.40201,16.39078 -1.05544,0.52587 -1.9854,1.03864 -2.06659,1.13948 -0.0812,0.10084 -0.28047,0.19075 -0.44284,0.1998 -0.70128,0.0391 -1.91897,0.51144 -1.91897,0.74434 0,0.13968 -0.19928,0.17749 -0.44284,0.084 -0.24357,-0.0935 -0.44284,-0.027 -0.44284,0.14761 0,0.17465 -0.19928,0.24108 -0.44284,0.14762 -0.24357,-0.0935 -0.44284,-0.015 -0.44284,0.1743 0,0.18933 -0.12171,0.26902 -0.27045,0.17708 -0.14875,-0.0919 -0.64695,-0.0126 -1.1071,0.17623 -0.46016,0.18886 -0.9695,0.36885 -1.13188,0.39998 -0.16237,0.0311 -0.36165,0.0876 -0.44284,0.12557 -0.18394,0.0859 -0.80811,0.16221 -4.87124,0.59542 -3.443091,0.3671 -7.145673,0.22104 -11.354037,-0.44789 -1.373483,-0.21832 -2.556929,-0.33726 -2.629876,-0.26431 -0.07295,0.0729 -0.296942,-0.004 -0.497758,-0.17039 -0.200816,-0.16666 -0.478746,-0.27727 -0.617617,-0.24579 -0.138872,0.0315 -0.451774,-0.0268 -0.695336,-0.12941 -0.799916,-0.33712 -5.454982,-1.80545 -5.756919,-1.81588 -0.162375,-0.006 -0.476711,-0.18219 -0.698527,-0.39241 -0.221815,-0.21022 -0.552759,-0.33239 -0.73543,-0.2715 -0.182672,0.0609 -0.516511,-0.0737 -0.741866,-0.29903 -0.225356,-0.22535 -0.5833,-0.34313 -0.795435,-0.26173 -0.212135,0.0814 -0.427497,0.0386 -0.47858,-0.095 -0.05109,-0.13369 -1.354975,-0.87164 -2.897535,-1.63989 -6.728421,-3.35101 -12.123362,-7.19842 -17.145775,-12.22756 -3.96476,-3.97006 -6.362969,-6.9128 -9.16486,-11.24581 -1.102476,-1.70493 -2.198698,-3.3213 -2.436049,-3.59193 -0.237351,-0.27062 -0.354051,-0.56953 -0.259332,-0.66426 0.09472,-0.0947 0.01722,-0.17221 -0.172216,-0.17221 -0.189437,0 -0.318109,-0.0996 -0.285939,-0.22142 0.10971,-0.41531 -0.392668,-1.54994 -0.686263,-1.54994 -0.161016,0 -0.210648,-0.13285 -0.110295,-0.29523 0.100353,-0.16237 0.06391,-0.29522 -0.08099,-0.29522 -0.144895,0 -0.263445,-0.18474 -0.263445,-0.41052 0,-0.63776 -0.730367,-2.24652 -1.019906,-2.24652 -0.142675,0 -0.226369,-0.0996 -0.185986,-0.22142 0.118156,-0.35632 -1.059351,-3.61653 -1.306202,-3.61653 -0.123653,0 -0.148354,-0.19928 -0.05489,-0.442839 0.09346,-0.243562 0.02704,-0.44284 -0.147613,-0.44284 -0.174651,0 -0.241077,-0.199278 -0.147614,-0.44284 0.09346,-0.243562 0.02704,-0.44284 -0.147613,-0.44284 -0.174651,0 -0.241077,-0.199277 -0.147613,-0.442839 0.09346,-0.243562 0.01503,-0.44284 -0.174303,-0.44284 -0.189329,0 -0.27495,-0.112107 -0.190267,-0.249127 0.138857,-0.224674 -0.192807,-1.860026 -0.608096,-2.998366 -0.434799,-1.191821 -0.749476,-13.805418 -0.350557,-14.051843 0.156496,-0.09668 0.479371,-1.694666 0.710033,-3.514142 0.02058,-0.162375 0.191946,-0.671717 0.380801,-1.131875 0.188856,-0.460155 0.268158,-0.95835 0.176226,-1.1071 -0.09193,-0.148747 -0.04086,-0.270451 0.113496,-0.270451 0.254129,0 0.730072,-1.184547 0.77103,-1.918973 0.0091,-0.162375 0.09504,-0.361653 0.191079,-0.44284 0.09604,-0.08119 0.725704,-1.210429 1.399259,-2.509427 3.333896,-6.429649 8.525374,-11.507444 15.129101,-14.797806 1.530091,-0.762379 2.863263,-1.509172 2.962604,-1.659537 0.09934,-0.150365 0.265407,-0.262046 0.369034,-0.248177 0.670208,0.08969 1.087825,-0.03069 1.485301,-0.428167 0.249361,-0.249363 0.528216,-0.439052 0.619679,-0.42153 0.418234,0.08011 2.807058,-1.010018 2.807058,-1.280986 0,-0.167378 0.0757,-0.228623 0.168222,-0.136102 0.202865,0.202865 5.217382,-2.075892 5.474091,-2.487603 0.09934,-0.159325 0.270785,-0.265084 0.380984,-0.235024 0.383735,0.104675 3.423956,-1.255691 3.423956,-1.53207 0,-0.153099 0.132852,-0.196255 0.295226,-0.0959 0.162375,0.100354 0.295227,0.03393 0.295227,-0.147613 0,-0.18154 0.132852,-0.247966 0.295226,-0.147613 0.162375,0.100353 0.295227,0.07004 0.295227,-0.06737 0,-0.137403 0.232491,-0.268049 0.516647,-0.290323 0.284155,-0.02228 1.645888,-0.559409 3.026073,-1.193632 1.380184,-0.634222 3.140473,-1.393004 3.911753,-1.686181 0.771279,-0.293177 1.402326,-0.655693 1.402326,-0.805591 0,-0.149897 0.111469,-0.20365 0.247707,-0.11945 0.309427,0.191236 3.295013,-0.744428 3.295013,-1.032636 0,-0.11618 0.265704,-0.141754 0.590453,-0.05683 0.324749,0.08492 0.590453,0.01023 0.590453,-0.165987 0,-0.176216 0.185839,-0.24908 0.412978,-0.161919 0.227138,0.08716 0.497097,0.02237 0.599906,-0.143985 0.102813,-0.166353 0.375594,-0.230064 0.60618,-0.141579 0.230587,0.08848 0.589338,0.05576 0.797227,-0.07272 0.439011,-0.271323 1.278724,-0.426116 2.26311,-0.417184 0.381613,0.0035 0.823069,-0.07357 0.981018,-0.171188 0.157946,-0.09762 2.070988,-0.15727 4.251206,-0.132563 2.18022,0.02471 3.96402,-0.0611 3.96402,-0.19069 -1e-5,-0.129586 2.98042,-0.235611 6.62317,-0.235611 h 6.62319 l 0.89461,-0.857051 c 0.49203,-0.471377 0.83207,-0.958225 0.75565,-1.081884 -0.0764,-0.123659 -0.0192,-0.269394 0.12714,-0.323856 0.14635,-0.05446 1.0942,-1.228264 2.10632,-2.608449 2.36587,-3.22622 6.44734,-7.179067 9.74425,-9.437164 2.42274,-1.659366 8.16547,-4.733714 8.84234,-4.733714 0.16555,0 0.30099,-0.140693 0.30099,-0.31265 0,-0.171958 0.10576,-0.24729 0.23501,-0.167405 0.20167,0.124641 2.82319,-0.61695 4.19339,-1.186253 0.24356,-0.101198 0.90782,-0.235762 1.47613,-0.299033 0.56831,-0.06327 1.22812,-0.185226 1.46624,-0.271013 0.4365,-0.15726 12.3878,-0.146011 14.03316,0.01321 0.48712,0.04714 1.08496,0.156025 1.32852,0.241971 1.06334,0.375222 3.08453,0.753369 3.30348,0.618052 0.13158,-0.08132 0.23924,-0.02377 0.23924,0.12789 0,0.237772 1.30583,0.690324 2.2142,0.767357 0.16237,0.01377 0.3629,0.114016 0.44562,0.22277 0.0827,0.108753 0.87984,0.483566 1.77136,0.832918 3.39647,1.33093 8.46,4.577836 12.2945,7.883646 0.9992,0.861436 1.88991,1.566247 1.97936,1.566247 0.0894,0 0.48815,0.298917 0.886,0.66426 1.18003,1.083582 1.62281,1.402327 1.94804,1.402327 0.16923,0 0.30769,0.116734 0.30769,0.25941 0,0.253499 1.18432,0.818115 2.06659,0.985229 0.24356,0.04613 0.50926,0.153375 0.59045,0.238313 0.0812,0.08494 0.5193,0.391073 0.97358,0.680301 1.06182,0.676029 1.82012,1.935739 2.60754,4.331733 0.34686,1.055435 0.74466,2.064048 0.88401,2.241363 0.13936,0.177315 0.17308,0.40268 0.075,0.500812 -0.0981,0.09813 0.0691,0.168201 0.3716,0.155709 0.58895,-0.02432 17.90288,0.394322 21.76201,0.526196 1.27461,0.04356 2.39278,0.154495 2.48482,0.24653 0.092,0.09204 0.53701,0.167336 0.98882,0.167336 1.23494,0 6.8689,1.125369 9.67314,1.932185 1.36087,0.391539 2.58975,0.640539 2.73085,0.553335 0.1411,-0.0872 0.25654,-0.0036 0.25654,0.185682 0,0.18933 0.1907,0.27106 0.42377,0.181622 0.23307,-0.08944 0.46556,-0.0618 0.51664,0.06142 0.12667,0.30554 4.11364,1.872598 4.29723,1.689005 0.0807,-0.0807 0.34733,0.05386 0.59249,0.299027 0.24517,0.245168 0.62791,0.375861 0.85054,0.290435 0.22262,-0.08543 0.40477,-0.03964 0.40477,0.101752 0,0.320679 1.65832,0.91993 1.89388,0.684371 0.095,-0.09499 0.17271,-0.03904 0.17271,0.124332 0,0.383975 1.43656,1.041574 1.79348,0.820987 0.15021,-0.09283 0.2731,-0.0384 0.2731,0.120966 0,0.287695 2.01152,1.102432 2.43562,0.986517 0.12178,-0.03329 0.22142,0.06203 0.22142,0.211814 0,0.275062 2.02581,1.081099 2.43562,0.969093 0.12178,-0.03329 0.22142,0.06203 0.22142,0.211813 0,0.275063 2.02581,1.0811 2.43562,0.969094 0.12178,-0.03329 0.22142,0.06203 0.22142,0.211813 0,0.275062 2.02581,1.081099 2.43562,0.969093 0.12178,-0.03329 0.22142,0.06203 0.22142,0.211813 0,0.263461 1.64884,0.930118 2.1812,0.881895 0.14421,-0.01306 0.34349,0.09638 0.44284,0.243211 0.24942,0.368667 2.68898,1.306428 2.69456,1.035791 0.002,-0.120464 0.10213,-0.07703 0.22142,0.09652 0.29364,0.427199 2.61395,1.322161 2.84051,1.095607 0.0996,-0.09958 0.18104,-0.01184 0.18104,0.194968 0,0.212947 0.19206,0.302321 0.44284,0.206083 0.24357,-0.09346 0.44284,-0.06252 0.44284,0.06878 0,0.255908 2.3617,1.117595 2.73085,0.996375 0.12178,-0.03999 0.22142,0.06798 0.22142,0.239942 0,0.171958 0.13285,0.230543 0.29523,0.130189 0.16237,-0.100353 0.29522,-0.04518 0.29522,0.122608 0,0.167789 0.39856,0.51117 0.88568,0.763072 0.48713,0.251902 0.88568,0.398228 0.88568,0.325169 0,-0.07306 1.27041,1.077946 2.82314,2.55779 1.65417,1.576528 3.49624,3.702254 4.44876,5.133802 1.8162,2.729571 3.5407,6.648923 3.81193,8.663544 0.0984,0.730686 0.24383,1.527485 0.32323,1.770663 0.22581,0.691601 0.27788,7.667883 0.0578,7.750449 -0.10811,0.04056 -0.25712,0.870865 -0.33115,1.845113 -0.074,0.974248 -0.22984,1.997489 -0.34625,2.273868 -0.11641,0.276382 -0.12562,0.641725 -0.0205,0.811873 0.10516,0.170151 0.035,0.309365 -0.15589,0.309365 -0.19889,0 -0.28273,0.246057 -0.19637,0.576297 0.0829,0.316965 0.0412,0.615882 -0.0926,0.66426 -0.1338,0.04838 -0.28576,0.486519 -0.3377,0.973643 -0.0519,0.487124 -0.17289,0.952106 -0.26878,1.033293 -0.32145,0.272164 -1.14538,3.022873 -0.98378,3.284355 0.0878,0.142102 0.0391,0.258365 -0.10819,0.258365 -0.34275,0 -1.27907,2.360012 -1.07032,2.697772 0.0865,0.13997 0.0412,0.25449 -0.10069,0.25449 -0.36083,0 -1.29996,2.047 -1.09286,2.38209 0.0935,0.15122 0.007,0.27495 -0.19193,0.27495 -0.19902,0 -0.28128,0.0806 -0.18281,0.17904 0.0985,0.0985 -0.0819,0.45915 -0.40088,0.80151 -0.31895,0.34236 -0.5144,0.7932 -0.43433,1.00187 0.0801,0.20866 0.0289,0.37939 -0.11368,0.37939 -0.14261,0 -0.78911,0.96318 -1.43667,2.1404 -5.68621,10.33698 -14.71534,20.12662 -24.41308,26.46934 -1.62375,1.062 -5.01148,2.96384 -7.52828,4.2263 -2.51681,1.26247 -4.72792,2.42038 -4.91359,2.57314 -0.18567,0.15277 -0.39936,0.21598 -0.47486,0.14047 -0.0755,-0.0755 -0.75751,0.12857 -1.51557,0.45351 -2.31019,0.99026 -6.79181,2.09178 -9.83937,2.41838 -5.09581,0.54609 -6.79981,0.61323 -7.00815,0.27614 z m 14.8063,-10.94589 c 0.3573,-0.005 0.72689,-0.13454 0.82133,-0.28733 0.0944,-0.1528 0.35328,-0.20814 0.57522,-0.12297 0.22194,0.0852 0.49257,0.0108 0.6014,-0.16533 0.10883,-0.17609 0.32155,-0.24373 0.4727,-0.15031 0.15115,0.0934 0.44089,0.0657 0.64386,-0.0615 0.20297,-0.12725 0.67305,-0.27317 1.04463,-0.32426 0.37159,-0.0511 0.96942,-0.20461 1.32852,-0.34114 0.35911,-0.13654 0.72519,-0.23095 0.81352,-0.20981 0.0883,0.0211 0.5201,-0.19711 0.95949,-0.48501 0.43939,-0.2879 0.79889,-0.43869 0.79889,-0.33508 0,0.1036 0.33213,-0.0292 0.73806,-0.29523 0.40594,-0.26598 0.73807,-0.41263 0.73807,-0.32588 0,0.22799 4.83665,-2.23099 5.05186,-2.5684 0.0993,-0.15574 0.29862,-0.27074 0.44284,-0.25555 0.14422,0.0152 0.49623,-0.17273 0.78224,-0.41762 0.28601,-0.24489 0.65136,-0.44526 0.81187,-0.44526 0.16052,0 0.29186,-0.13285 0.29186,-0.29522 0,-0.16238 0.19927,-0.29523 0.44284,-0.29523 0.24356,0 0.44284,-0.13285 0.44284,-0.29523 0,-0.16237 0.17988,-0.29522 0.39973,-0.29522 0.21985,0 0.7581,-0.33213 1.19611,-0.73807 0.43802,-0.40594 0.91486,-0.73806 1.05967,-0.73806 0.1448,0 0.43687,-0.24273 0.64905,-0.5394 0.21217,-0.29667 0.60459,-0.66201 0.87205,-0.81187 1.6146,-0.90472 8.51779,-8.29701 9.67977,-10.36562 0.25416,-0.45246 0.66139,-0.9862 0.90495,-1.1861 0.24356,-0.19989 0.33802,-0.36766 0.20992,-0.37283 -0.12811,-0.005 0.0182,-0.27892 0.3251,-0.60835 0.6296,-0.6758 3.73191,-6.48647 3.46311,-6.48647 -0.0956,0 0.0438,-0.33213 0.3098,-0.73807 0.26598,-0.40594 0.39883,-0.73807 0.29523,-0.73807 -0.10361,0 0.0293,-0.33213 0.29523,-0.73806 0.26598,-0.40594 0.38562,-0.73807 0.26588,-0.73807 -0.11974,0 -0.0523,-0.19928 0.14981,-0.44284 0.20214,-0.24356 0.26856,-0.44284 0.14761,-0.44284 -0.12095,0 -0.0793,-0.16938 0.0925,-0.376389 0.1718,-0.207016 0.3575,-0.705211 0.41265,-1.1071 0.0552,-0.401892 0.20986,-0.905614 0.34379,-1.119384 0.13393,-0.213771 0.16493,-0.467252 0.0689,-0.56329 -0.096,-0.09604 -0.0471,-0.328253 0.10874,-0.516032 0.15585,-0.187782 0.382,-1.063542 0.50256,-1.946137 0.28015,-2.050925 0.28094,-10.093861 0.001,-11.642425 -0.11735,-0.649498 -0.26021,-1.44661 -0.31747,-1.771359 -0.0573,-0.32475 -0.13022,-0.590454 -0.16213,-0.590454 -0.0319,0 -0.10759,-0.378126 -0.16818,-0.84028 -0.12313,-0.939225 -2.45496,-5.894772 -2.84604,-6.04834 -0.13784,-0.05413 -0.25061,-0.286618 -0.25061,-0.516647 0,-0.230031 -0.13285,-0.418238 -0.29523,-0.418238 -0.16237,0 -0.29522,-0.154921 -0.29522,-0.344267 0,-0.189347 -0.19196,-0.55469 -0.42657,-0.811873 -0.23461,-0.257184 -0.98659,-1.103401 -1.67107,-1.880485 -2.17527,-2.469562 -7.28556,-5.832772 -9.48471,-6.242121 -0.36826,-0.06855 -0.70277,-0.134502 -0.74336,-0.146568 -0.0406,-0.01207 -0.11982,0.01127 -0.17605,0.05187 -0.0562,0.04059 -0.32515,-0.111191 -0.59759,-0.337296 -0.27244,-0.226109 -0.57955,-0.326899 -0.68247,-0.223983 -0.10292,0.102919 -0.34132,0.05915 -0.52979,-0.09727 -0.84762,-0.70346 -9.67031,-1.122446 -12.77332,-0.606599 -1.09719,0.182399 -2.52427,0.401824 -3.17128,0.487614 -0.64702,0.08579 -1.3235,0.278068 -1.5033,0.42729 -0.1798,0.149219 -0.39253,0.205693 -0.47272,0.125492 -0.18921,-0.189205 -3.45171,0.932385 -3.97471,1.366433 -0.22064,0.183117 -0.40116,0.241746 -0.40116,0.130286 0,-0.11146 -0.4982,0.05128 -1.1071,0.361653 -0.60891,0.310366 -1.97064,0.983946 -3.02608,1.496846 -2.72231,1.322934 -5.1496,2.718589 -5.26487,3.027221 -0.0541,0.144918 -0.26722,0.263487 -0.47354,0.263487 -0.20632,0 -0.7335,0.33213 -1.17151,0.738067 -0.43802,0.405936 -0.87811,0.738066 -0.978,0.738066 -0.21509,0 -0.46182,0.228583 -5.91392,5.47902 -2.31384,2.228252 -4.20698,4.217729 -4.20698,4.421054 0,0.203329 -0.19928,0.446156 -0.44284,0.539621 -0.24356,0.09346 -0.44284,0.359167 -0.44284,0.590454 0,0.231283 -0.19928,0.496987 -0.44284,0.590453 -0.24356,0.09346 -0.44284,0.373379 -0.44284,0.622039 0,0.248658 -0.13285,0.452105 -0.29523,0.452105 -0.16237,0 -0.29522,0.199278 -0.29522,0.44284 0,0.243561 -0.13286,0.442839 -0.29523,0.442839 -0.16238,0 -0.29523,0.199278 -0.29523,0.44284 0,0.243562 -0.1239,0.44284 -0.27533,0.44284 -0.15143,0 -0.36862,0.298917 -0.48263,0.66426 -0.11402,0.365343 -0.31047,0.731247 -0.43656,0.813122 -0.24091,0.15642 -2.6615,4.893163 -2.77949,5.439031 -0.0376,0.174152 -0.23489,0.715196 -0.43834,1.20232 -0.20345,0.487124 -0.40272,1.018532 -0.44284,1.180906 -0.0401,0.162375 -0.23727,0.693783 -0.43813,1.180907 -0.20086,0.487124 -0.39565,1.157005 -0.43288,1.488621 -0.0372,0.331619 -0.16685,0.763388 -0.28805,0.959487 -0.12119,0.196101 -0.14392,0.480218 -0.0505,0.631371 0.0934,0.151156 0.0285,0.362202 -0.14432,0.468994 -0.17279,0.106793 -0.28739,0.414888 -0.25467,0.684668 0.0327,0.26977 -0.0542,0.75589 -0.19313,1.08027 -0.31731,0.74075 -0.35771,10.47754 -0.0507,12.21261 0.12541,0.7087 0.36206,1.53903 0.5259,1.84516 0.16384,0.30614 0.21895,0.55662 0.12247,0.55662 -0.0965,0 -0.0718,0.16606 0.0549,0.36903 0.12666,0.20297 0.2676,0.6086 0.31319,0.9014 0.0456,0.2928 0.30925,0.95706 0.58589,1.47613 0.27665,0.51908 0.47568,1.04341 0.44229,1.16519 -0.0334,0.12178 0.08,0.22142 0.25196,0.22142 0.17195,0 0.23755,0.12151 0.14577,0.27001 -0.0918,0.14851 -0.0664,0.31457 0.0564,0.36904 0.1228,0.0545 0.45954,0.564 0.74833,1.13231 0.69193,1.36164 1.44467,2.30116 3.75572,4.6876 1.8323,1.89207 4.13317,3.80409 4.13317,3.43466 0,-0.0958 0.28582,0.0922 0.63516,0.4176 0.34935,0.32546 0.7479,0.52208 0.88568,0.43692 0.13779,-0.0851 0.25052,0.008 0.25052,0.20703 0,0.19902 0.0868,0.27505 0.19291,0.16895 0.10609,-0.1061 0.62407,0.0736 1.15106,0.39927 1.11687,0.69026 4.29496,1.83059 4.50803,1.61752 0.0802,-0.0802 0.32242,7.5e-4 0.53826,0.17988 0.21584,0.17913 0.56019,0.26279 0.76523,0.18591 0.20503,-0.0769 0.63849,-0.0371 0.96324,0.0884 0.32475,0.12552 3.04822,0.17581 6.05215,0.11177 3.00393,-0.064 5.75403,-0.12073 6.11132,-0.12597 z m -129.80433,-3.39988 c 0.16933,-0.10465 0.78687,-0.24969 1.37232,-0.3223 0.58545,-0.0726 1.21209,-0.22475 1.39253,-0.33808 0.18045,-0.11333 0.66021,-0.25058 1.06615,-0.305 0.40593,-0.0544 1.03698,-0.29334 1.40232,-0.53093 0.36535,-0.23759 0.66426,-0.36058 0.66426,-0.27332 0,0.23934 3.6753,-1.65547 3.78874,-1.95329 0.0541,-0.14209 0.28662,-0.25835 0.51665,-0.25835 0.23003,0 0.41824,-0.13285 0.41824,-0.29523 0,-0.16237 0.13846,-0.29522 0.30769,-0.29522 0.43386,0 0.91271,-0.41193 3.71414,-3.19511 1.36023,-1.35137 2.47316,-2.58581 2.47316,-2.74319 0,-0.15738 0.26111,-0.56642 0.58024,-0.90897 0.31913,-0.34255 0.51057,-0.73555 0.42542,-0.87333 -0.0852,-0.13779 -0.0303,-0.25052 0.122,-0.25052 0.22809,0 1.0443,-1.54243 1.09358,-2.06659 0.008,-0.0812 0.17454,-0.43649 0.3709,-0.78956 0.19636,-0.35307 0.39477,-0.88448 0.44092,-1.18091 0.0461,-0.29642 0.16133,-0.67181 0.25596,-0.83418 0.1989,-0.34128 0.51306,-1.59413 0.7749,-3.09021 0.10039,-0.57363 0.18438,-2.90289 0.18664,-5.17614 0.004,-4.12137 -0.13093,-5.651333 -0.84679,-9.594861 -0.20405,-1.124073 -1.01512,-3.806428 -1.29439,-4.280787 -0.0956,-0.162374 -0.19562,-0.438228 -0.22227,-0.613005 -0.19831,-1.300332 -4.18745,-7.855895 -5.10794,-8.394141 -0.25823,-0.150996 -0.33945,-0.278578 -0.18049,-0.283515 0.15896,-0.0049 0.002,-0.307894 -0.34813,-0.673237 -1.52204,-1.586814 -2.15509,-2.328692 -2.15509,-2.52557 0,-0.246425 -6.50469,-6.611187 -7.99099,-7.819086 -1.57159,-1.277212 -5.29421,-3.809525 -5.29421,-3.601384 0,0.102503 -0.20876,-0.0224 -0.46392,-0.277557 -0.25516,-0.255162 -0.64265,-0.463928 -0.861082,-0.463928 -0.218432,0 -0.441432,-0.116506 -0.495559,-0.258902 -0.09231,-0.242863 -4.198226,-2.414517 -4.52841,-2.395118 -0.08371,0.0049 -0.542287,-0.19278 -1.019066,-0.439332 -0.47678,-0.24655 -1.106433,-0.494641 -1.399233,-0.55131 -0.2928,-0.05667 -0.91582,-0.25979 -1.384483,-0.45138 -0.468666,-0.191591 -1.0665,-0.391217 -1.32852,-0.443614 -0.262022,-0.0524 -0.675679,-0.177809 -0.919241,-0.278697 -0.243562,-0.100885 -0.805992,-0.244501 -1.249842,-0.319146 -0.443853,-0.07464 -0.923616,-0.207786 -1.066146,-0.295873 -0.142527,-0.08809 -0.709338,-0.222193 -1.259581,-0.298013 -0.550244,-0.07582 -1.73113,-0.277747 -2.62419,-0.448724 -1.566467,-0.299903 -8.665002,-0.253092 -10.480546,0.06911 -0.487124,0.08645 -1.402306,0.238245 -2.033736,0.337323 -0.631431,0.09908 -1.295691,0.272391 -1.476133,0.385135 -0.180443,0.112744 -0.542456,0.238449 -0.804478,0.279344 -0.26202,0.04089 -0.859854,0.220141 -1.328519,0.398328 -0.468666,0.178187 -0.885928,0.313451 -0.927249,0.300591 -0.271858,-0.08462 -4.79611,2.407824 -4.79611,2.642211 0,0.160562 -0.205739,0.291932 -0.457199,0.291932 -0.570818,0 -6.037787,5.500039 -6.037787,6.074311 0,0.231372 -0.130321,0.420674 -0.289602,0.420674 -0.159281,0 -0.372961,0.33213 -0.474845,0.738067 -0.101883,0.405937 -0.287575,0.738067 -0.412647,0.738067 -0.19146,0 -1.000383,1.601022 -1.044151,2.066586 -0.0076,0.08119 -0.179909,0.44653 -0.382836,0.811873 -0.202928,0.365343 -0.281592,0.66426 -0.17481,0.66426 0.106782,0 0.02876,0.199278 -0.173375,0.44284 -0.202139,0.243562 -0.251619,0.444874 -0.109956,0.44736 0.141663,0.0025 0.09328,0.108868 -0.107509,0.2364 -0.200793,0.127532 -0.408631,0.629703 -0.461861,1.115933 -0.05323,0.486226 -0.179712,1.018233 -0.28107,1.182238 -0.588394,0.952041 -0.333668,13.102231 0.295781,14.108455 0.112844,0.180393 0.24212,0.49405 0.28728,0.697019 0.19347,0.869545 0.336139,1.407265 0.39165,1.476133 0.03272,0.04059 0.0927,0.206658 0.133298,0.369033 0.04059,0.162375 0.10702,0.361653 0.147613,0.44284 0.04059,0.08119 0.10702,0.280465 0.147614,0.44284 0.04059,0.162375 0.100285,0.32844 0.132648,0.369033 0.03236,0.04059 0.115641,0.379798 0.185063,0.753785 0.06942,0.373987 0.352568,1.104673 0.629214,1.623749 0.276647,0.51907 0.475679,1.04341 0.442294,1.16519 -0.03339,0.12178 0.07215,0.22142 0.234527,0.22142 0.162375,0 0.263639,0.0996 0.225031,0.22142 -0.118376,0.37339 0.714698,2.14039 1.009116,2.14039 0.152258,0 0.194726,0.13285 0.09437,0.29523 -0.100353,0.16237 -0.05617,0.29522 0.09819,0.29522 0.154355,0 0.364004,0.33213 0.465888,0.73807 0.101884,0.40594 0.323404,0.73807 0.492268,0.73807 0.168864,0 0.237353,0.11273 0.152198,0.25051 -0.08516,0.13779 0.106282,0.53079 0.425416,0.87334 0.319135,0.34255 0.580245,0.74183 0.580245,0.88728 0,0.14545 0.33213,0.62283 0.738066,1.06085 0.405937,0.43801 0.738067,0.92656 0.738067,1.08567 0,0.1591 0.198515,0.36546 0.441144,0.45856 0.242629,0.0931 0.374216,0.27758 0.292414,0.40994 -0.0818,0.13235 0.184665,0.5029 0.592149,0.82342 0.407483,0.32053 0.740879,0.6768 0.740879,0.79172 0,0.31398 6.355301,6.64391 6.670539,6.64391 0.150078,0 0.438805,0.2657 0.641614,0.59045 0.202809,0.32475 0.552682,0.59045 0.777497,0.59045 0.224812,0 0.48522,0.19928 0.578685,0.44284 0.09346,0.24356 0.37338,0.44284 0.62204,0.44284 0.248658,0 0.452104,0.11405 0.452104,0.25343 0,0.13939 0.730686,0.73858 1.623747,1.33153 0.89306,0.59296 1.623746,1.00515 1.623746,0.91598 0,-0.0892 0.285824,0.10416 0.635163,0.42962 0.349341,0.32546 0.747897,0.52207 0.885679,0.43692 0.137786,-0.0852 0.250518,-0.0371 0.250518,0.10682 0,0.25885 5.470759,3.00209 6.242588,3.13027 0.220006,0.0365 0.665715,0.21165 0.990464,0.38915 0.886985,0.48481 4.644007,1.59827 4.8152,1.42708 0.08213,-0.0821 0.30013,-0.0242 0.484449,0.1288 0.184319,0.15297 0.794375,0.33333 1.355684,0.40081 0.561308,0.0675 1.219838,0.20115 1.4634,0.29706 0.243562,0.0959 0.841396,0.23075 1.32852,0.29963 1.307718,0.1849 11.014302,-0.03 11.373172,-0.25175 z m 90.27207,-92.701611 c 0.0762,-1.030548 -0.0203,-1.244094 -0.75927,-1.680621 -0.4656,-0.275038 -1.13592,-0.47827 -1.48961,-0.451628 -1.04379,0.07863 -0.8742,1.655067 0.28775,2.674657 1.25998,1.105619 1.85138,0.942052 1.96113,-0.542408 z"
     id="path32"
     transform="scale(0.75)" />
  <path
     style="fill:#e6e6e6;stroke-width:0.295227"
     d="m 215.99673,144.21535 c -3.49343,-0.73612 -4.57742,-1.204 -7.07728,-3.05474 -3.43796,-2.54527 -6.61101,-6.40389 -9.01738,-10.96567 -0.51392,-0.97424 -1.19515,-2.16991 -1.51385,-2.65704 -0.3187,-0.48712 -0.68203,-1.08495 -0.80742,-1.32852 -0.12538,-0.24356 -1.02369,-1.62523 -1.99624,-3.07038 -6.92388,-10.28844 -10.94393,-16.8202 -13.00977,-21.1382 -1.97711,-4.132525 -2.53542,-5.482977 -3.05641,-7.392979 -0.49939,-1.830818 -0.56006,-1.91068 -1.52505,-2.007733 -1.34029,-0.134803 -3.33766,0.331874 -8.18494,1.912369 -6.08654,1.984567 -9.1542,2.701956 -13.1271,3.069849 -3.18906,0.29531 -4.42234,0.270053 -8.03468,-0.164544 -0.48713,-0.05861 -2.07681,-0.133127 -3.53263,-0.165605 l -2.64695,-0.05905 -0.99971,1.296745 c -1.8034,2.339248 -3.81863,6.861968 -6.40749,14.380118 -0.70918,2.0595 -1.45586,4.20953 -1.65929,4.77784 -0.90199,2.51995 -4.22357,9.09929 -5.59615,11.0848 -1.83603,2.65591 -5.50076,6.21024 -8.17308,7.92687 -2.60877,1.6758 -6.53308,3.72078 -7.14018,3.72078 -0.26518,0 -0.60836,0.11876 -0.76261,0.2639 -0.54522,0.51302 -5.33427,1.76169 -7.95636,2.0745 -6.34625,0.75709 -13.624295,0.0954 -19.63257,-1.78478 -2.029683,-0.63517 -4.022463,-1.30306 -4.4284,-1.48419 -0.405936,-0.18114 -1.00377,-0.42706 -1.328519,-0.54652 -1.280546,-0.47101 -6.932804,-3.43073 -9.447253,-4.9469 -5.680257,-3.42511 -11.131611,-8.0912 -15.776384,-13.5038 -3.078817,-3.58778 -7.593836,-10.20687 -8.870175,-13.00382 -0.515204,-1.12901 -1.258472,-2.71891 -1.651706,-3.53311 -0.393234,-0.81421 -0.714971,-1.62764 -0.714971,-1.80764 0,-0.18 -0.257901,-0.9103 -0.573112,-1.62288 -1.453806,-3.286575 -2.086791,-6.89074 -2.284117,-13.005589 -0.134351,-4.163342 -0.08412,-6.34084 0.174132,-7.5479 0.669264,-3.128168 1.289211,-5.531942 1.503498,-5.829649 0.116876,-0.162374 0.296219,-0.646386 0.398538,-1.075581 0.30541,-1.281092 3.548867,-6.875229 5.160599,-8.90072 3.021933,-3.797713 7.004518,-7.026754 11.5627,-9.374916 1.055435,-0.54371 2.271611,-1.227998 2.702614,-1.520638 0.431002,-0.292641 1.045782,-0.532075 1.366177,-0.532075 0.320395,0 0.747923,-0.199278 0.950061,-0.44284 0.202139,-0.243562 0.56577,-0.44284 0.80807,-0.44284 0.2423,0 1.056358,-0.312917 1.809018,-0.695368 0.752659,-0.382454 2.23201,-1.075475 3.287445,-1.540047 1.055435,-0.464574 2.271613,-1.081622 2.702614,-1.371218 0.431001,-0.289597 0.952239,-0.52654 1.158301,-0.52654 0.206065,0 1.44765,-0.519186 2.759079,-1.153744 1.311429,-0.634559 3.712938,-1.714834 5.336685,-2.400611 1.623746,-0.685776 3.483674,-1.479125 4.133172,-1.762996 6.20588,-2.712351 12.265031,-3.499408 27.164094,-3.528492 l 5.61254,-0.01096 0.64374,-0.811873 c 0.35405,-0.446531 1.65633,-2.122076 2.89394,-3.723434 1.23762,-1.601358 2.73998,-3.441458 3.33859,-4.08911 1.34021,-1.450026 5.33121,-4.827614 7.19181,-6.086441 2.45208,-1.659004 8.58587,-4.659822 11.31493,-5.535577 2.62003,-0.840766 2.76968,-0.854036 10.74412,-0.952734 6.76392,-0.08371 8.43038,-0.01959 10.18532,0.391946 6.69362,1.569655 11.93827,4.361198 19.35337,10.301124 4.423,3.543081 5.80138,4.499256 6.85736,4.75694 0.43428,0.105973 1.32013,0.646796 1.96856,1.201831 0.94916,0.812443 1.39656,1.579051 2.29523,3.932808 l 1.11625,2.923655 3.55779,0.166946 c 1.95678,0.09182 7.21121,0.243047 11.67651,0.336062 6.10657,0.127202 9.02146,0.317444 11.76109,0.767593 5.1416,0.844821 10.35502,2.144103 13.6284,3.396458 1.54256,0.590164 3.07036,1.174759 3.39511,1.2991 0.73175,0.280176 2.65866,1.086245 3.83795,1.605501 0.48712,0.214486 1.21781,0.528072 1.62374,0.696859 2.14651,0.892512 10.36929,4.533102 11.10368,4.916093 0.46915,0.24467 1.07765,0.445672 1.35222,0.446672 0.27458,10e-4 0.57602,0.126071 0.66988,0.277933 0.0938,0.151864 0.93202,0.568609 1.86259,0.926102 0.93056,0.357493 2.68833,1.03949 3.90614,1.515552 1.21781,0.476062 2.58266,0.980899 3.03299,1.121864 1.53565,0.480679 3.56232,1.914683 6.04765,4.2791 3.69062,3.51106 6.22386,7.21918 7.65345,11.203013 1.1394,3.175138 1.61536,9.349653 0.99304,12.882527 -0.15494,0.879548 -0.42453,2.415308 -0.59911,3.412799 -0.46012,2.629096 -2.31347,8.178563 -3.83115,11.471575 -1.50315,3.2615 -2.10544,4.39795 -3.98975,7.52828 -3.71829,6.17704 -6.7162,10.06422 -11.80844,15.31122 -5.72531,5.89932 -10.34377,9.29943 -18.71267,13.77631 -6.6822,3.57458 -11.02789,5.06974 -17.16547,5.90584 -4.05384,0.55225 -6.36141,0.51374 -9.55642,-0.15949 z m 19.79559,-10.91573 c 1.91888,-0.48449 3.88742,-1.066 4.37454,-1.29224 0.48713,-0.22624 1.75541,-0.76327 2.81842,-1.1934 1.89281,-0.76589 5.73683,-2.91712 7.56851,-4.23556 0.50756,-0.36534 1.016,-0.66426 1.12987,-0.66426 0.11387,0 0.5712,-0.29892 1.01629,-0.66426 0.44508,-0.36534 1.39422,-1.12179 2.1092,-1.681 2.01292,-1.57436 7.24168,-7.00479 9.11237,-9.46381 2.42087,-3.18225 5.36909,-8.28639 6.22424,-10.77577 0.11156,-0.32475 0.35044,-0.92258 0.53084,-1.32852 0.45321,-1.0198 1.08158,-3.014281 1.72073,-5.461692 0.76355,-2.923785 0.7691,-12.587823 0.009,-15.746036 -1.02858,-4.273966 -3.73524,-8.875339 -7.1019,-12.073328 -2.35356,-2.235651 -6.04898,-4.604842 -8.01446,-5.138196 -0.6495,-0.176247 -1.44661,-0.432409 -1.77136,-0.56925 -1.6145,-0.680302 -3.35267,-0.922869 -7.70784,-1.075655 -8.23376,-0.28885 -12.58014,0.679709 -20.24773,4.512064 -5.75009,2.873963 -8.4385,4.888011 -13.85606,10.380395 -2.68469,2.721771 -4.96613,5.181166 -5.06987,5.465321 -0.10374,0.284156 -0.32564,0.516647 -0.49311,0.516647 -0.16747,0 -0.30449,0.1502 -0.30449,0.333774 0,0.183575 -0.4629,0.978092 -1.02866,1.765589 -2.80429,3.903377 -5.58738,10.443296 -6.66597,15.664237 -0.55268,2.67524 -0.61129,3.70265 -0.47718,8.36396 0.17625,6.12583 0.54829,7.72722 2.81206,12.10429 1.83076,3.53984 6.46481,8.30959 9.68521,9.96885 5.16158,2.65942 7.23042,3.10381 14.6229,3.14099 5.19459,0.0261 5.71856,-0.0235 9.00441,-0.85314 z M 102.6437,130.61799 c 6.07271,-0.82837 11.15624,-3.38164 15.33065,-7.70004 4.69888,-4.86097 6.52448,-9.32056 6.81033,-16.63636 0.3436,-8.793753 -1.3553,-15.61988 -5.3878,-21.647983 -2.6629,-3.980714 -3.29157,-4.720269 -8.08306,-9.508641 -4.5697,-4.566731 -7.24585,-6.732192 -10.64154,-8.610813 -0.730685,-0.404245 -2.059205,-1.1463 -2.952265,-1.649012 -3.288881,-1.851349 -9.138138,-3.836028 -13.728038,-4.657989 -2.779031,-0.497666 -9.034313,-0.555082 -12.047742,-0.110583 -1.167724,0.17225 -3.185953,0.65574 -4.48495,1.074424 -4.253592,1.370997 -6.708384,2.840878 -9.98841,5.980873 -3.380912,3.236569 -5.294782,6.362786 -6.774196,11.065327 -0.591487,1.880133 -0.651834,2.648741 -0.615664,7.84137 0.02206,3.166306 0.175421,6.288327 0.340814,6.937826 1.091485,4.28628 2.781261,8.688641 4.419496,11.514071 1.905452,3.2863 2.296863,3.91953 2.848639,4.60852 0.339513,0.42394 0.816574,1.08479 1.060136,1.46855 0.692706,1.09144 9.304516,9.71732 9.701471,9.71732 0.195122,0 0.431235,0.19928 0.524698,0.44284 0.09347,0.24356 0.299428,0.44284 0.457696,0.44284 0.158268,0 0.841528,0.447 1.518353,0.99333 1.677189,1.35382 7.14909,4.34386 10.382619,5.67342 1.461372,0.60089 4.384115,1.52966 6.494986,2.06394 3.442183,0.87126 4.284783,0.97351 8.171176,0.99161 2.383276,0.0111 5.372441,-0.12158 6.642601,-0.29484 z m 90.96736,-92.889378 c 0.0812,-1.115471 0.003,-1.28102 -0.79721,-1.695007 -1.18782,-0.614245 -2.08857,-0.589808 -2.13242,0.05785 -0.0715,1.056643 0.0856,1.422287 0.95896,2.23127 1.23561,1.144544 1.85774,0.956986 1.97067,-0.594113 z"
     id="path33"
     transform="scale(0.75)" />
  <path
     style="fill:#aa8800;stroke-width:0.25702"
     d="m 223.22188,133.84122 c -1.86281,-0.14181 -5.10729,-0.87766 -7.15375,-1.62247 -7.59279,-2.7634 -13.10157,-8.85127 -15.26977,-16.87493 -0.61807,-2.28721 -0.68014,-2.9491 -0.69355,-7.39541 -0.0164,-5.42624 0.2527,-7.19837 1.79513,-11.822924 2.34541,-7.032117 5.98753,-12.904427 11.53607,-18.599965 4.79577,-4.922829 9.01483,-8.042878 14.627,-10.816841 16.82264,-8.315038 34.15534,-4.92778 41.44002,8.098452 2.20384,3.940833 3.19521,8.117756 3.19521,13.462344 0,4.188375 -0.47814,7.294632 -1.72358,11.19727 -2.34434,7.346134 -6.50107,14.023684 -12.40448,19.927094 -7.24541,7.24541 -16.31939,12.23824 -25.18139,13.85569 -2.53358,0.46242 -7.82209,0.7702 -10.16691,0.59169 z"
     id="path48"
     transform="scale(0.75)" />
  <path
     style="fill:#aa8800;stroke-width:0.25702"
     d="M 94.241164,130.41252 C 80.183146,129.26326 65.716188,120.2779 57.245006,107.43437 49.97562,96.412929 48.258723,83.944207 52.702839,74.447513 c 2.62713,-5.613952 7.191033,-9.780604 13.458956,-12.287463 6.658191,-2.662947 15.627613,-2.605377 24.111268,0.154759 11.960277,3.891247 22.301327,12.405831 29.201577,24.043916 2.69707,4.548923 4.35831,9.879649 4.92178,15.793435 0.60822,6.38344 -1.06802,13.0849 -4.46294,17.84245 -1.24472,1.74433 -4.09313,4.54364 -5.85029,5.74944 -5.21526,3.57884 -12.42393,5.27491 -19.842026,4.66847 z"
     id="path49"
     transform="scale(0.75)" />
  <path
     style="fill:#999999;stroke-width:0.25702"
     d="m 92.843288,130.17208 c -14.60527,-1.842 -29.316909,-11.94096 -37.054433,-25.43642 -4.212836,-7.347852 -6.083622,-15.546526 -5.14205,-22.534913 0.795245,-5.902343 3.230844,-10.823636 7.242827,-14.634627 7.815738,-7.424187 19.795896,-9.239403 32.701911,-4.954946 9.712317,3.224235 18.582887,9.732937 25.154617,18.456978 4.34548,5.768668 6.56295,10.507644 7.91821,16.922039 0.73588,3.482879 0.80832,9.666789 0.14706,12.552339 -1.22325,5.33782 -3.07024,8.71986 -6.72441,12.31304 -3.7408,3.67836 -7.05185,5.46783 -12.39505,6.69893 -3.16136,0.72839 -8.68657,1.01638 -11.848682,0.61758 z"
     id="path23"
     transform="scale(0.75)" />
  <path
     style="fill:#b3b3b3;stroke-width:0.25702"
     d="m 220.46791,133.27044 c -3.85818,-0.81354 -6.96075,-2.07355 -9.7115,-3.94402 -4.54143,-3.08811 -7.93609,-7.80388 -9.69385,-13.46647 -0.67437,-2.17243 -0.70083,-2.47406 -0.70553,-8.04005 -0.005,-6.49266 0.20384,-7.73366 2.20758,-13.088263 2.68086,-7.164081 6.3775,-12.641555 12.59572,-18.663595 4.42467,-4.285074 8.08267,-6.833143 13.61963,-9.487069 5.6042,-2.686154 10.336,-3.915497 16.04332,-4.168131 10.2547,-0.453923 18.74006,3.514465 23.71,11.088553 2.75773,4.202728 3.91658,8.567011 3.92587,14.78498 0.007,4.76075 -0.40729,7.400377 -1.83158,11.666817 -5.25424,15.738878 -19.696,29.058358 -35.57049,32.806288 -4.4885,1.05972 -10.91863,1.28493 -14.58917,0.51096 z"
     id="path24"
     transform="scale(0.75)" />
  <path
     style="fill:#b3b3b3;stroke-width:0.25702"
     d="m 92.398695,130.01179 c -0.282722,-0.0601 -1.439312,-0.287 -2.5702,-0.50429 -7.22124,-1.38749 -15.70164,-5.58301 -22.103721,-10.9354 -8.292012,-6.93243 -13.838791,-15.48115 -16.232004,-25.016815 -0.779678,-3.106598 -1.089566,-8.952708 -0.630542,-11.895326 0.989431,-6.342844 4.331713,-12.039993 9.258117,-15.781093 2.306358,-1.751443 6.317998,-3.667546 9.409604,-4.494363 2.358844,-0.630848 2.975774,-0.687035 7.704565,-0.701704 4.417398,-0.0137 5.510985,0.06537 7.775172,0.562216 7.332434,1.608992 14.054003,4.720724 20.168124,9.336779 3.0417,2.296429 8.23679,7.593624 10.68357,10.89355 6.00244,8.095393 8.61032,16.062399 8.20226,25.057726 -0.55489,12.23206 -9.07587,21.39118 -21.64116,23.26189 -2.33134,0.34709 -8.756556,0.48607 -10.023785,0.21683 z"
     id="path25"
     transform="scale(0.75)" />
</svg>
