<?xml version="1.0" encoding="UTF-8" standalone="no"?>
<!-- Uploaded to: SVG Repo, www.svgrepo.com, Generator: SVG Repo Mixer Tools -->

<svg
   width="800px"
   height="800px"
   viewBox="0 0 64 64"
   aria-hidden="true"
   role="img"
   class="iconify iconify--emojione"
   preserveAspectRatio="xMidYMid meet"
   version="1.1"
   id="svg18"
   sodipodi:docname="fountain2.svg"
   inkscape:version="1.3.2 (091e20e, 2023-11-25, custom)"
   xmlns:inkscape="http://www.inkscape.org/namespaces/inkscape"
   xmlns:sodipodi="http://sodipodi.sourceforge.net/DTD/sodipodi-0.dtd"
   xmlns="http://www.w3.org/2000/svg"
   xmlns:svg="http://www.w3.org/2000/svg">
  <defs
     id="defs18" />
  <sodipodi:namedview
     id="namedview18"
     pagecolor="#ffffff"
     bordercolor="#000000"
     borderopacity="0.25"
     inkscape:showpageshadow="2"
     inkscape:pageopacity="0.0"
     inkscape:pagecheckerboard="0"
     inkscape:deskcolor="#d1d1d1"
     inkscape:zoom="0.5875"
     inkscape:cx="400"
     inkscape:cy="399.14894"
     inkscape:window-width="1920"
     inkscape:window-height="1027"
     inkscape:window-x="-8"
     inkscape:window-y="-8"
     inkscape:window-maximized="1"
     inkscape:current-layer="svg18" />
  <path
     d="m 32.612765,39.868085 c -10.464188,0 -19.006382,-1.9 -19.006382,-4.3 v 5.2 c 0,2.4 8.542194,4.3 19.006382,4.3 10.464189,0 19.006384,-1.9 19.006384,-4.3 v -5.2 c 0,2.4 -8.542195,4.3 -19.006384,4.3"
     fill="#d0d0d0"
     id="path2"
     style="stroke-width:0.843712" />
  <ellipse
     cx="31.931915"
     cy="29.868084"
     rx="24.576595"
     ry="4.8000002"
     fill="#e8e8e8"
     id="ellipse2"
     style="stroke-width:0.897658" />
  <ellipse
     cx="32.340424"
     cy="29.868084"
     rx="22.636171"
     ry="2.9000001"
     fill="#42ade2"
     id="ellipse3"
     style="stroke-width:0.938501" />
  <path
     d="m 35.93617,26.968085 c -1.6,-1.5 -1.7,-6.3 -1.7,-6.3 h -4.2 c 0,0 -0.1,4.9 -1.7,6.3 -0.9,0.8 -3.3,1.8 -3.8,2.9 -0.2,0.5 3.4,1 7.6,1 4.2,0 7.9,-0.5 7.6,-1 -0.5,-1.1 -2.9,-2.1 -3.8,-2.9"
     fill="#e8e8e8"
     id="path3" />
  <path
     d="m 32.13617,20.668085 h -2.1 c 0,0 0,1.7 -0.4,3.3 0.8,0.1 1.6,0.1 2.5,0.1 0.9,0 1.7,0 2.5,-0.1 -0.3,-1.7 -0.4,-3.3 -0.4,-3.3 h -2.1"
     fill="#d0d0d0"
     id="path4" />
  <path
     d="m 44.155319,29.121276 c -4,2.5 -20.9,2.3 -25.4,0 -2.7,-1.4 -2.5,-7.7 -2.5,-7.7 h 30.5 c -0.1,-0.1 -0.2,6.2 -2.6,7.7"
     fill="#d0d0d0"
     id="path6" />
  <ellipse
     cx="31.727659"
     cy="21.621277"
     rx="15.2"
     ry="1.9"
     fill="#e8e8e8"
     id="ellipse6" />
  <ellipse
     cx="31.455318"
     cy="21.757446"
     rx="13.3"
     ry="1"
     fill="#42ade2"
     id="ellipse7" />
  <path
     d="m 31.659574,34.568085 c -13.012235,0 -23.6234038,-2.1 -23.6234038,-4.8 v 5.7 c 0,2.6 10.6111688,4.8 23.6234038,4.8 13.012236,0 23.623405,-2.1 23.623405,-4.8 v -5.7 c 0,2.7 -10.611169,4.8 -23.623405,4.8"
     fill="#d0d0d0"
     id="path8"
     style="stroke-width:0.880078" />
  <g
     fill="#b4d7ee"
     id="g17"
     transform="matrix(1,0,0,0.37309217,0.13617021,13.344681)">
    <path
       d="m 21.5,24.4 c 0,0 -7.6,-6 -7.6,21.5 0,0 0.5,0.8 3.4,0.8 0,0 -0.1,-21.5 4.2,-22.3"
       id="path15" />
    <path
       d="m 42.5,24.4 c 0,0 7.6,-6 7.6,21.5 0,0 -0.5,0.8 -3.4,0.8 0,0 0.1,-21.5 -4.2,-22.3"
       id="path16" />
  </g>
</svg>
