<?xml version="1.0" encoding="UTF-8" standalone="no"?>
<!-- Uploaded to: SVG Repo, www.svgrepo.com, Generator: SVG Repo Mixer Tools -->

<svg
   height="800px"
   width="800px"
   version="1.1"
   id="Layer_1"
   viewBox="0 0 512 512"
   xml:space="preserve"
   sodipodi:docname="fountain.svg"
   inkscape:version="1.3.2 (091e20e, 2023-11-25, custom)"
   xmlns:inkscape="http://www.inkscape.org/namespaces/inkscape"
   xmlns:sodipodi="http://sodipodi.sourceforge.net/DTD/sodipodi-0.dtd"
   xmlns="http://www.w3.org/2000/svg"
   xmlns:svg="http://www.w3.org/2000/svg"><defs
   id="defs14" /><sodipodi:namedview
   id="namedview14"
   pagecolor="#ffffff"
   bordercolor="#000000"
   borderopacity="0.25"
   inkscape:showpageshadow="2"
   inkscape:pageopacity="0.0"
   inkscape:pagecheckerboard="0"
   inkscape:deskcolor="#d1d1d1"
   inkscape:zoom="0.5875"
   inkscape:cx="400"
   inkscape:cy="399.14894"
   inkscape:window-width="1920"
   inkscape:window-height="1027"
   inkscape:window-x="-8"
   inkscape:window-y="-8"
   inkscape:window-maximized="1"
   inkscape:current-layer="Layer_1" />
<path
   style="fill:#C6C5CB;"
   d="M437.239,200.954c-99.681-57.552-262.796-57.552-362.477,0C24.92,229.73,0,267.661,0,305.592v26.159  c0,37.931,24.92,75.863,74.761,104.638c99.681,57.552,262.796,57.552,362.477,0C487.079,407.614,512,369.683,512,331.751v-26.159  C512,267.661,487.079,229.73,437.239,200.954z"
   id="path1" />
<path
   style="fill:#D8D8DA;"
   d="M74.761,410.231c-99.681-57.551-99.681-151.725,0-209.277s262.796-57.551,362.477,0  s99.681,151.725,0,209.277S174.443,467.781,74.761,410.231z"
   id="path2" />
<path
   style="fill:#59A4FF;"
   d="M105.834,392.29c-82.591-47.685-82.591-125.712,0-173.397s217.741-47.684,300.331,0  s82.591,125.712,0,173.397S188.426,439.974,105.834,392.29z"
   id="path3" />
<path
   style="fill:#C6C5CB;"
   d="M105.834,233.445c82.591-47.685,217.741-47.685,300.331,0c38.107,22.002,58.617,50.463,61.559,79.423  c3.435-33.806-17.075-68.291-61.559-93.974c-82.591-47.685-217.741-47.685-300.331,0c-44.484,25.683-64.993,60.168-61.559,93.974  C47.217,283.908,67.727,255.446,105.834,233.445z"
   id="path4" />
<path
   style="fill:#ACABB1;"
   d="M312.095,302.644l-35.192-107.538l0,0c0.026-3.073-1.975-6.144-6.01-8.474  c-8.084-4.668-21.404-4.668-29.598,0c-4.1,2.335-6.168,5.416-6.198,8.497l-35.192,107.513c-5.202,11.231-0.226,23.741,14.961,32.509  c22.623,13.061,59.645,13.061,82.268,0C312.319,326.384,317.296,313.874,312.095,302.644z"
   id="path5" />
<path
   style="fill:#c6c5cb;stroke-width:1.16311"
   d="m 346.619,156.24975 c -49.84,-38.929 -131.399,-38.929 -181.239,0 -25.724,20.09086 -38.134,46.78081 -37.305,73.26108 L 128,248.45178 c 0,25.65775 12.461,51.31414 37.381,70.77864 49.84,38.929 131.399,38.929 181.239,0 24.92,-19.46314 37.381,-45.12224 37.381,-70.77864 v -21.42204 c -0.002,-25.6591 -12.461,-51.31685 -37.382,-70.77999 z"
   id="path6" />
<path
   style="fill:#D8D8DA;"
   d="M165.38,253.272c-49.84-28.776-49.84-75.863,0-104.638s131.399-28.776,181.239,0  s49.84,75.863,0,104.638S215.221,282.048,165.38,253.272z"
   id="path7" />
<path
   style="fill:#59A4FF;"
   d="M188.035,240.193c-37.381-21.582-37.381-56.897,0-78.479s98.549-21.582,135.929,0  s37.381,56.897,0,78.479S225.415,261.775,188.035,240.193z"
   id="path8" />
<path
   style="fill:#C6C5CB;"
   d="M188.035,169.374c37.381-21.582,98.549-21.582,135.929,0c17.011,9.821,26.254,22.489,27.782,35.41  c1.83-15.472-7.414-31.309-27.782-43.069c-37.381-21.582-98.549-21.582-135.929,0c-20.369,11.76-29.612,27.597-27.782,43.069  C161.781,191.862,171.024,179.196,188.035,169.374z"
   id="path9" />





</svg>
