<?xml version="1.0" encoding="UTF-8" standalone="no"?>
<!-- Uploaded to: SVG Repo, www.svgrepo.com, Generator: SVG Repo Mixer Tools -->

<svg
   width="800px"
   height="800px"
   viewBox="0 0 64 64"
   aria-hidden="true"
   role="img"
   class="iconify iconify--emojione"
   preserveAspectRatio="xMidYMid meet"
   version="1.1"
   id="svg18"
   sodipodi:docname="fountain2.svg"
   inkscape:version="1.3.2 (091e20e, 2023-11-25, custom)"
   xmlns:inkscape="http://www.inkscape.org/namespaces/inkscape"
   xmlns:sodipodi="http://sodipodi.sourceforge.net/DTD/sodipodi-0.dtd"
   xmlns="http://www.w3.org/2000/svg"
   xmlns:svg="http://www.w3.org/2000/svg">
  <defs
     id="defs18" />
  <sodipodi:namedview
     id="namedview18"
     pagecolor="#ffffff"
     bordercolor="#000000"
     borderopacity="0.25"
     inkscape:showpageshadow="2"
     inkscape:pageopacity="0.0"
     inkscape:pagecheckerboard="0"
     inkscape:deskcolor="#d1d1d1"
     inkscape:zoom="0.5875"
     inkscape:cx="400"
     inkscape:cy="399.14894"
     inkscape:window-width="1920"
     inkscape:window-height="1027"
     inkscape:window-x="-8"
     inkscape:window-y="-8"
     inkscape:window-maximized="1"
     inkscape:current-layer="svg18" />
  <path
     d="m 32.612765,39.868085 c -10.464188,0 -19.006382,-1.9 -19.006382,-4.3 v 5.2 c 0,2.4 8.542194,4.3 19.006382,4.3 10.464189,0 19.006384,-1.9 19.006384,-4.3 v -5.2 c 0,2.4 -8.542195,4.3 -19.006384,4.3"
     fill="#d0d0d0"
     id="path2"
     style="stroke-width:0.843712" />
  <ellipse
     cx="31.931915"
     cy="29.868084"
     rx="24.576595"
     ry="4.8000002"
     fill="#e8e8e8"
     id="ellipse2"
     style="stroke-width:0.897658" />
  <ellipse
     cx="32.340424"
     cy="29.868084"
     rx="22.636171"
     ry="2.9000001"
     fill="#42ade2"
     id="ellipse3"
     style="stroke-width:0.938501" />
  <path
     d="m 35.93617,26.968085 c -1.6,-1.5 -1.7,-6.3 -1.7,-6.3 h -4.2 c 0,0 -0.1,4.9 -1.7,6.3 -0.9,0.8 -3.3,1.8 -3.8,2.9 -0.2,0.5 3.4,1 7.6,1 4.2,0 7.9,-0.5 7.6,-1 -0.5,-1.1 -2.9,-2.1 -3.8,-2.9"
     fill="#e8e8e8"
     id="path3" />
  <path
     d="m 32.13617,20.668085 h -2.1 c 0,0 0,1.7 -0.4,3.3 0.8,0.1 1.6,0.1 2.5,0.1 0.9,0 1.7,0 2.5,-0.1 -0.3,-1.7 -0.4,-3.3 -0.4,-3.3 h -2.1"
     fill="#d0d0d0"
     id="path4" />
  <path
     d="m 44.155319,29.121276 c -4,2.5 -20.9,2.3 -25.4,0 -2.7,-1.4 -2.5,-7.7 -2.5,-7.7 h 30.5 c -0.1,-0.1 -0.2,6.2 -2.6,7.7"
     fill="#d0d0d0"
     id="path6" />
  <ellipse
     cx="31.727659"
     cy="21.621277"
     rx="15.2"
     ry="1.9"
     fill="#e8e8e8"
     id="ellipse6" />
  <ellipse
     cx="31.455318"
     cy="21.757446"
     rx="13.3"
     ry="1"
     fill="#42ade2"
     id="ellipse7" />
  <path
     d="m 31.659574,34.568085 c -13.012235,0 -23.6234038,-2.1 -23.6234038,-4.8 v 5.7 c 0,2.6 10.6111688,4.8 23.6234038,4.8 13.012236,0 23.623405,-2.1 23.623405,-4.8 v -5.7 c 0,2.7 -10.611169,4.8 -23.623405,4.8"
     fill="#d0d0d0"
     id="path8"
     style="stroke-width:0.880078" />
  <g
     fill="#b4d7ee"
     id="g17"
     transform="matrix(1,0,0,0.37309217,0.13617021,13.344681)">
    <path
       d="m 21.5,24.4 c 0,0 -7.6,-6 -7.6,21.5 0,0 0.5,0.8 3.4,0.8 0,0 -0.1,-21.5 4.2,-22.3"
       id="path15" />
    <path
       d="m 42.5,24.4 c 0,0 7.6,-6 7.6,21.5 0,0 -0.5,0.8 -3.4,0.8 0,0 0.1,-21.5 -4.2,-22.3"
       id="path16" />
  </g>
  <path
     style="fill:#0000aa;stroke-width:1.70213"
     d="m 357.44681,561.53738 c -55.48211,-3.77782 -93.59469,-8.90169 -125.30791,-16.84642 -25.27078,-6.33078 -48.39822,-16.4804 -55.96869,-24.5622 -4.85066,-5.1783 -5.13556,-6.29452 -5.68907,-22.2894 l -0.58269,-16.83811 -9.63007,-2.68018 c -28.18886,-7.84535 -48.70853,-17.819 -55.44881,-26.95106 -3.26418,-4.42248 -3.58445,-7.48938 -4.07003,-38.97466 l -0.52705,-34.17445 4.31005,5.12221 c 9.41399,11.18789 41.51904,23.68493 81.85044,31.86065 114.84116,23.27987 303.73312,23.27453 418.59016,-0.0118 40.66383,-8.24427 72.55283,-20.64089 82.01088,-31.88114 l 4.33726,-5.15454 -0.55427,35.08624 -0.55424,35.08623 -5.95745,6.17186 c -5.74131,5.94795 -24.94002,16.42059 -34.32895,18.72599 l -4.54172,1.11519 -0.56467,20.18627 -0.56466,20.18627 -5.66718,5.84217 c -16.24162,16.7431 -70.42303,31.11325 -145.82218,38.67534 -17.3598,1.74109 -118.34125,3.46162 -135.31915,2.30557 z"
     id="path1"
     transform="scale(0.08)" />
  <path
     style="fill:#2c5aa0;stroke-width:1.70213"
     d="m 352.34043,384.53097 c -36.8865,-3.05522 -53.28744,-4.97116 -72.34043,-8.45074 -33.26806,-6.07561 -49.84574,-12.62419 -56.09243,-22.15785 -2.65671,-4.05465 -2.61528,-5.15539 0.68527,-18.20729 4.75802,-18.81543 11.924,-33.50853 20.54893,-42.13345 6.90785,-6.90786 7.47888,-7.13787 15.0617,-6.06705 61.9781,8.75237 204.03592,8.86293 270.0093,0.21014 15.96137,-2.09343 17.35441,-2.03084 22.37132,1.00528 6.73804,4.07771 13.25245,12.56536 18.58643,24.21628 l 4.15101,9.06702 -3.41338,9.92116 c -4.05092,11.77426 -10.05389,22.38146 -15.59314,27.55307 -9.66762,9.02597 -36.74354,16.96152 -74.61288,21.86794 -20.13142,2.60826 -109.67292,4.80627 -129.3617,3.17549 z"
     id="path5"
     transform="scale(0.08)" />
  <path
     style="fill:#2c5aa0;stroke-width:1.70213"
     d="m 342.12766,559.71185 c -64.8426,-6.46977 -90.69145,-10.50264 -118.29787,-18.45651 -19.94158,-5.7455 -41.8751,-16.39342 -47.47336,-23.04657 -3.39299,-4.03234 -4.44503,-7.15636 -4.45633,-13.23298 -0.008,-4.37498 -0.47869,-11.81435 -1.04567,-16.53194 l -1.03087,-8.57742 -13.84753,-3.88034 c -16.57389,-4.64432 -38.98345,-14.91445 -46.55645,-21.33647 -6.663,-5.65033 -6.96203,-7.35267 -7.80791,-44.44852 l -0.66008,-28.94785 5.1697,4.82922 c 40.68194,38.00263 248.40584,58.20993 421.53828,41.00709 80.02116,-7.95109 141.10772,-24.21275 159.30234,-42.40737 l 3.68827,-3.68827 -0.84581,33.33283 c -0.84059,33.12778 -0.87334,33.36233 -5.32508,38.12959 -5.18094,5.54813 -19.27427,13.94104 -30.6423,18.24819 -7.34547,2.78308 -7.95752,3.4877 -9.02998,10.39577 -0.63273,4.07568 -1.2072,13.19625 -1.27659,20.26793 -0.12011,12.23924 -0.39221,13.10636 -5.65808,18.03056 -8.50138,7.94977 -16.09055,11.8741 -35.42155,18.31636 -32.65093,10.88127 -81.61396,18.99547 -129.2593,21.42097 -29.51736,1.50265 -117.88339,1.89082 -131.06383,0.57573 z"
     id="path7"
     transform="scale(0.08)" />
  <path
     style="fill:#d5e5ff;stroke-width:1.70213"
     d="m 324.51254,429.60975 c -88.6672,-4.30176 -168.51747,-18.42021 -201.95935,-35.70877 -11.89157,-6.14762 -16.22033,-9.68984 -19.37543,-15.85493 l -2.52439,-4.93266 -1.603614,5.78373 -1.603615,5.78373 -2.583116,-5.86831 c -2.987927,-6.78795 -2.398804,-9.3657 3.631657,-15.89057 6.163138,-6.66842 15.801998,-11.94889 32.569148,-17.84242 14.65273,-5.15033 47.24693,-13.30404 48.41633,-12.11175 0.35022,0.35707 -0.13648,4.54523 -1.08157,9.30701 l -1.71833,8.6578 -11.31885,2.19465 c -27.59865,5.35121 -44.51035,13.20209 -44.51035,20.66293 0,4.77007 7.98801,9.77142 22.81452,14.28434 96.62406,29.41062 424.55542,29.41062 521.17948,0 35.52735,-10.81388 28.69429,-24.28216 -17.18549,-33.8734 -7.48936,-1.56567 -15.27817,-3.19826 -17.30847,-3.62799 -2.82106,-0.5971 -4.09706,-2.68311 -5.41171,-8.84708 -0.94615,-4.43617 -1.54029,-8.24572 -1.32034,-8.46567 0.21995,-0.21995 8.78287,1.80514 19.02873,4.50019 53.11377,13.97096 71.91435,28.9584 57.62645,45.93861 -5.62649,6.68669 -7.50179,6.61328 -7.53433,-0.29493 -0.0143,-3.04256 -0.76856,-6.68086 -1.67607,-8.08511 -1.42572,-2.20615 -1.65355,-2.1661 -1.67607,0.2946 -0.0654,7.14108 -17.96664,19.00897 -40.07809,26.5703 -64.85748,22.17894 -199.17287,33.52047 -324.79713,27.4257 z"
     id="path9"
     transform="scale(0.08)" />
</svg>
