<?xml version="1.0" encoding="UTF-8" standalone="no"?>
<!-- Uploaded to: SVG Repo, www.svgrepo.com, Generator: SVG Repo Mixer Tools -->

<svg
   version="1.1"
   id="Layer_1"
   viewBox="0 0 130.00001 130"
   xml:space="preserve"
   sodipodi:docname="greenhouse-fan-blade.svg"
   inkscape:version="1.3.2 (091e20e, 2023-11-25, custom)"
   width="130"
   height="130"
   xmlns:inkscape="http://www.inkscape.org/namespaces/inkscape"
   xmlns:sodipodi="http://sodipodi.sourceforge.net/DTD/sodipodi-0.dtd"
   xmlns="http://www.w3.org/2000/svg"
   xmlns:svg="http://www.w3.org/2000/svg"><defs
   id="defs10776" /><sodipodi:namedview
   id="namedview10774"
   pagecolor="#ffffff"
   bordercolor="#000000"
   borderopacity="0.25"
   inkscape:showpageshadow="2"
   inkscape:pageopacity="0.0"
   inkscape:pagecheckerboard="0"
   inkscape:deskcolor="#d1d1d1"
   showgrid="false"
   inkscape:zoom="1.6268251"
   inkscape:cx="69.153101"
   inkscape:cy="58.088605"
   inkscape:window-width="1920"
   inkscape:window-height="1009"
   inkscape:window-x="-8"
   inkscape:window-y="-8"
   inkscape:window-maximized="1"
   inkscape:current-layer="Layer_1" />


<ellipse
   style="fill:#53caf9;stroke-width:0.389621"
   cx="64.38755"
   cy="64.773338"
   id="circle10745"
   rx="4.7970681"
   ry="4.8149648" />
<path
   style="fill:#b4cccb;stroke-width:0.389621"
   d="m 51.476057,56.771177 c 2.935076,-4.775939 8.10466,-7.373317 13.359834,-7.221474 2.465641,-2.878051 4.574635,-6.07072 6.274885,-9.502681 C 70.388235,25.025193 62.331004,10.670862 48.420871,2.5597803 34.308521,6.3848235 22.106048,14.926453 13.607835,26.392589 c 6.024826,0.69561 12.011581,2.605583 17.59882,5.84354 9.851603,5.708476 16.782214,14.543257 20.269402,24.535048 z"
   id="path10747" />
<path
   style="fill:#8aacad;stroke-width:0.389621"
   d="M 19.722492,77.346131 C 29.574473,71.636876 40.661918,70.029799 51.026563,71.994434 48.373033,67.055336 48.717235,61.26293 51.475689,56.770398 50.225368,53.188157 48.525118,49.758925 46.413405,46.564697 33.297371,39.788615 17.186862,39.519664 3.3762605,47.180673 1.7919159,52.774779 0.94412071,58.676474 0.94412071,64.773345 c 0,8.817224 1.77530659,17.225366 4.98298249,24.885975 3.606236,-4.862582 8.2318448,-9.088902 13.7953888,-12.313189 z"
   id="path10749" />
<path
   style="fill:#b4cccb;stroke-width:0.389621"
   d="M 63.937182,79.996992 C 58.349086,79.833437 53.523236,76.63842 51.026155,71.994434 47.310203,71.289851 43.500909,71.053298 39.688918,71.29141 c -12.45756,8.047456 -20.763297,22.002847 -20.989951,37.92404 9.912184,10.43053 23.26657,17.53802 38.213917,19.46557 -2.572118,-5.73736 -4.011098,-12.09772 -4.011098,-18.79768 3.68e-4,-11.41695 4.157757,-21.858808 11.035396,-29.886348 z"
   id="path10751" />
<path
   style="fill:#8aacad;stroke-width:0.389621"
   d="M 97.56565,97.311734 C 87.714037,91.602869 80.78424,82.768088 77.296607,72.776303 c -2.935026,4.775933 -8.105018,7.373321 -13.359814,7.221469 -2.465641,2.87805 -4.574615,6.070719 -6.274885,9.50268 0.724522,15.060858 8.820212,29.452268 22.796847,37.551638 0.122526,0.071 0.246167,0.13897 0.36942,0.20767 5.565207,-1.40838 10.842532,-3.54828 15.726703,-6.31078 7.463752,-4.39027 14.123652,-10.33764 19.434052,-17.70354 -6.30249,-0.61089 -12.58049,-2.54821 -18.42328,-5.933706 z"
   id="path10753" />
<path
   style="fill:#b4cccb;stroke-width:0.389621"
   d="m 126.89562,81.500622 c 3.53312,-13.755932 2.57992,-28.680555 -3.51411,-42.347499 -3.67899,5.173702 -8.48964,9.662327 -14.33207,13.04784 -9.851618,5.708861 -20.939063,7.315938 -31.303707,5.351303 2.653536,4.939098 2.309335,10.731504 -0.449126,15.224037 1.250716,3.582244 2.950578,7.011467 5.06228,10.205695 13.356768,6.900604 29.821173,7.058693 43.798193,-1.040287 0.24888,-0.144428 0.49393,-0.292754 0.73854,-0.441089 z"
   id="path10755" />
<path
   style="fill:#8aacad;stroke-width:0.389621"
   d="m 89.083376,58.255291 c 12.632174,-8.160273 21.001304,-22.392818 21.001304,-38.591937 0,-0.288467 -0.006,-0.575764 -0.0115,-0.862672 C 99.970878,8.8514444 86.617586,2.2178314 71.778421,0.68102485 74.402738,6.4660162 75.869992,12.891558 75.869992,19.663354 c 0,11.41773 -4.157338,21.859588 -11.034977,29.886738 5.588095,0.163555 10.413935,3.358582 12.911026,8.002564 3.715949,0.703804 7.525214,0.940747 11.336818,0.702635 z"
   id="path10757" />



<path
   style="fill:#999999;stroke-width:0.239501"
   d="m 52.911224,123.85991 c -6.572079,-2.15815 -13.35188,-5.80183 -19.00423,-10.21342 -4.251899,-3.31854 -9.519498,-8.88827 -12.39236,-13.1031 l -1.31061,-1.922828 0.451893,-1.586062 c 0.728107,-2.555508 1.629136,-4.795069 3.114311,-7.740593 3.267898,-6.48131 7.748193,-11.809623 13.621282,-16.199468 l 2.491815,-1.862527 3.705274,0.136853 c 2.03798,0.07525 4.517948,0.262056 5.511038,0.415098 1.759848,0.271178 1.822052,0.304285 2.452671,1.30474 1.073902,1.703848 2.455606,3.129204 4.179252,4.3113 1.690105,1.159113 5.126375,2.52451 6.383722,2.536582 1.327415,0.01269 1.487684,0.338451 0.642178,1.30504 -2.160406,2.469718 -4.990638,7.349188 -6.625598,11.422916 -2.227598,5.550187 -3.239654,10.936829 -3.239255,17.241119 2.48e-4,4.49639 0.390396,7.6356 1.46146,11.76004 0.391143,1.50612 0.683594,2.76607 0.649874,2.7999 -0.03385,0.0339 -0.975429,-0.23869 -2.092717,-0.60559 z"
   id="path11341" /><path
   style="fill:#999999;stroke-width:0.239501"
   d="M 51.33119,56.031759 C 51.24617,55.784123 50.753028,54.592963 50.235224,53.384719 46.55877,44.806377 39.801638,37.194923 31.519028,32.302143 29.242457,30.957311 25.416188,29.158589 23.6277,28.592398 c -0.525964,-0.166482 -1.053023,-0.392193 -1.171308,-0.501576 -0.590209,-0.545785 6.414157,-8.12753 10.719399,-11.603039 5.008857,-4.04351 11.886166,-8.00306 17.298043,-9.9591109 2.019436,-0.7299054 2.281701,-0.773055 2.85631,-0.4698688 1.174255,0.6195932 6.545474,6.0557127 8.321029,8.4216747 5.208551,6.940147 8.30285,14.817413 9.170397,23.345051 l 0.219695,2.159517 -1.092937,1.919557 c -1.379922,2.423651 -2.705028,4.417325 -4.106096,6.177714 -1.048693,1.317721 -1.145911,1.378828 -2.194575,1.379687 -1.639698,0.002 -4.567139,0.833013 -6.475883,1.839793 -1.81725,0.958505 -3.927449,2.747269 -5.013805,4.25007 -0.582075,0.805212 -0.693063,0.869657 -0.826779,0.479892 z"
   id="path11343" /><path
   style="fill:#b3b3b3;stroke-width:0.239501"
   d="m 96.771815,87.486292 c -4.162158,-0.61021 -8.715577,-1.977356 -12.626351,-3.791007 -1.62133,-0.75188 -1.790648,-0.905792 -2.707089,-2.460616 -1.18889,-2.017077 -2.675748,-5.013115 -3.415612,-6.882377 l -0.548017,-1.384684 0.734409,-1.648618 c 1.896747,-4.257728 1.880748,-8.912526 -0.0454,-13.230302 -0.148371,-0.332795 0.04351,-0.34053 1.813557,-0.07305 2.84422,0.429777 9.755918,0.403265 12.825805,-0.04926 10.986133,-1.619279 21.211303,-7.28507 28.314723,-15.689295 0.60763,-0.718913 1.17212,-1.239586 1.25429,-1.157054 0.33749,0.338731 2.3378,6.502126 2.9802,9.182646 1.07937,4.503401 1.45496,7.52604 1.59527,12.837105 0.16998,6.427588 -0.33251,11.165368 -1.80658,17.036149 l -0.63259,2.519424 -1.31482,0.654338 c -3.83619,1.909174 -8.91381,3.473012 -13.41772,4.132477 -3.09693,0.45347 -9.924383,0.455618 -13.004056,0.004 z"
   id="path11345" /><path
   style="fill:#999999;stroke-width:0.239501"
   d="M 12.087178,79.995433 C 9.304585,68.749222 9.6675233,56.839959 13.12706,45.873894 c 0.558988,-1.771851 0.983971,-2.721351 1.292092,-2.886874 0.825833,-0.443608 6.009345,-1.207489 9.196512,-1.355275 6.772814,-0.314048 13.834964,1.042155 20.331523,3.904457 l 2.390584,1.053228 1.308719,2.216557 c 1.237076,2.095173 3.58558,7.177236 3.589881,7.768369 9.96e-4,0.150144 -0.322657,0.969406 -0.719498,1.820596 -0.852156,1.827762 -1.420034,4.318975 -1.425848,6.254641 -0.005,1.691857 0.568635,4.590823 1.201923,6.073727 0.257028,0.601876 0.467337,1.119071 0.467337,1.1493 0,0.03028 -0.779979,-0.08064 -1.733156,-0.246296 -0.953237,-0.165703 -3.09639,-0.36934 -4.762591,-0.452531 -10.419429,-0.520203 -21.540515,3.093009 -30.014564,9.751754 -0.818974,0.643487 -1.523714,1.169985 -1.566076,1.169985 -0.04241,0 -0.310939,-0.945043 -0.59672,-2.100099 z"
   id="path11347" /><path
   style="fill:#808080;stroke-width:0.239501"
   d="M 84.227868,58.167503 C 83.504669,58.138123 81.808273,57.98694 80.458108,57.83156 L 78.00318,57.549029 76.946542,56.062767 c -2.337421,-3.287808 -5.760749,-5.51233 -9.71937,-6.315634 l -2.059783,-0.417995 0.704083,-0.832913 c 1.484906,-1.756581 4.279467,-6.227149 5.545425,-8.871105 1.583389,-3.307089 2.986289,-7.51687 3.758111,-11.277449 0.508711,-2.478283 0.565798,-3.370454 0.560661,-8.758015 -0.006,-5.594726 -0.04898,-6.200609 -0.648361,-8.997978 C 74.733847,8.9420605 74.122104,6.625264 73.727994,5.4432573 73.333884,4.2612607 73.054555,3.2508331 73.10729,3.1978804 73.246572,3.058079 77.573677,3.8192323 79.805317,4.3760997 90.323002,7.0006093 99.840228,12.246313 107.86681,19.843007 l 2.00461,1.897262 -0.14332,2.163955 c -0.41274,6.230247 -2.97758,13.948465 -6.55737,19.732867 -2.94823,4.763931 -7.054982,9.273792 -11.4827,12.609946 -2.287611,1.723605 -2.548065,1.856551 -3.705336,1.891466 -0.68465,0.02069 -1.513708,0.04767 -1.842478,0.05996 -0.328641,0.01229 -1.189259,-0.002 -1.912348,-0.03098 z"
   id="path11349" /><path
   style="fill:#808080;stroke-width:0.239501"
   d="m 76.099981,124.00985 c -10.215357,-7.59839 -16.859822,-19.43894 -18.13486,-32.316494 -0.192823,-1.947607 -0.172255,-2.09902 0.455527,-3.359232 0.783063,-1.571952 3.117527,-5.156205 4.462176,-6.85099 l 0.961779,-1.212255 2.192723,-0.293033 c 4.308447,-0.575765 8.217449,-2.731585 10.345111,-5.705288 0.857114,-1.198065 1.054875,-1.277839 1.276611,-0.515147 0.556698,1.91459 3.193001,7.135569 4.877769,9.65989 6.670439,9.994613 18.072943,17.439499 29.703893,19.394169 l 1.67172,0.28095 -2.39159,2.75856 c -7.49423,8.64416 -17.683723,15.16957 -28.966391,18.55026 -4.450268,1.33345 -4.107629,1.35422 -6.454468,-0.39139 z"
   id="path11351" /><path
   style="fill:#666666;stroke-width:0.239501"
   d="M 61.398147,79.56008 C 56.186709,78.529727 51.773506,74.44005 49.893263,68.898517 49.549887,67.88652 49.448169,66.907461 49.45699,64.699457 c 0.01045,-2.485617 0.09747,-3.12 0.640466,-4.639259 1.688664,-4.724948 5.26344,-8.241335 9.86638,-9.705203 2.37357,-0.754858 6.471442,-0.754858 8.845012,0 5.955275,1.893955 10.18339,7.287748 10.55928,13.470419 0.455308,7.48913 -4.865972,14.364482 -12.193911,15.755052 -2.242402,0.42551 -3.543903,0.420923 -5.77607,-0.02039 z m 4.968068,-10.273037 c 2.599437,-1.119551 3.652511,-4.588865 2.167575,-7.140935 -1.779319,-3.057924 -6.773999,-2.966709 -8.395728,0.153332 -1.324458,2.548213 -0.272808,5.859448 2.216278,6.97788 0.939797,0.422252 3.042211,0.427349 4.011875,0.01 z"
   id="path11574" /><path
   style="fill:#4d4d4d;stroke-width:0.239501"
   d="m 62.1224,68.830925 c -2.753472,-1.565357 -3.190183,-5.334389 -0.862599,-7.445081 0.855531,-0.775833 2.201982,-1.36265 3.126556,-1.36265 0.924544,0 2.270975,0.586817 3.126546,1.36265 3.129752,2.838119 1.114551,7.98466 -3.126546,7.98466 -0.922533,0 -1.598014,-0.160976 -2.263957,-0.539579 z"
   id="path11576" /><path
   style="fill:#999999;stroke-width:0.239501"
   d="m 80.66701,57.763268 c -2.435873,-0.271329 -2.497041,-0.293274 -3.091242,-1.109308 -0.33345,-0.457867 -1.474204,-1.697264 -2.535093,-2.754198 -2.216975,-2.208719 -4.408095,-3.44131 -7.30758,-4.110738 -0.986121,-0.22767 -1.879762,-0.486777 -1.985931,-0.575804 -0.106178,-0.08904 0.390118,-0.940047 1.103042,-1.891167 3.90941,-5.216122 6.800511,-11.651735 8.348597,-18.583987 0.492234,-2.204526 0.54259,-3.042026 0.54259,-9.028445 0,-7.232181 -0.08034,-7.879864 -1.66185,-13.3937689 -0.442107,-1.5414132 -0.755097,-2.8524889 -0.695561,-2.9135058 0.20255,-0.2075637 5.140274,0.7424865 8.121863,1.5627082 9.581025,2.6356817 18.460951,7.7093765 26.464905,15.1212015 l 1.83186,1.696344 -0.24592,2.605073 c -0.77021,8.159207 -4.08698,16.449073 -9.2608,23.146271 -3.035993,3.929879 -8.845544,9.248765 -11.164039,10.22111 -0.991029,0.415626 -4.774189,0.419294 -8.464841,0.008 z"
   id="path13933" /><path
   style="fill:#808080;stroke-width:0.239501"
   d="m 77.175714,124.66135 c -1.795925,-1.23123 -4.540049,-3.63623 -6.611401,-5.79437 -5.384709,-5.61032 -9.22176,-12.50496 -11.197765,-20.120677 -0.812462,-3.131322 -1.53137,-8.020685 -1.334135,-9.073423 0.21832,-1.165148 2.659151,-5.09213 5.501947,-8.851959 0.221736,-0.293223 0.861515,-0.508521 1.964915,-0.661254 4.56915,-0.632394 8.556553,-2.685506 10.70343,-5.511134 0.916092,-1.20574 1.331597,-1.470913 1.331597,-0.849811 0,0.835451 4.390354,9.028155 5.989154,11.17616 6.411638,8.614137 16.589054,15.307318 26.522174,17.442258 1.51207,0.32498 2.93597,0.66348 3.16441,0.75223 0.33953,0.13195 -0.0557,0.68618 -2.1682,3.04071 -7.21354,8.03977 -16.468104,14.06588 -26.921156,17.52966 -5.122931,1.69756 -5.701193,1.7743 -6.94497,0.92161 z"
   id="path13935" /><path
   style="fill:#999999;stroke-width:0.239501"
   d="M 97.017185,87.444102 C 93.552311,86.969296 87.883744,85.280367 84.387509,83.681165 82.919488,83.009648 82.465524,82.665331 81.929534,81.816689 80.884365,80.162056 79.307766,77.103992 78.40165,74.973874 l -0.834992,-1.962817 0.697423,-1.666045 c 1.627284,-3.887469 1.849378,-7.940492 0.633716,-11.564437 -0.332036,-0.989782 -0.583021,-1.821006 -0.557694,-1.847177 0.02539,-0.02618 0.849438,0.06505 1.831348,0.202737 1.017611,0.142689 4.098261,0.205675 7.164037,0.146487 6.082888,-0.117458 8.227435,-0.460925 13.267502,-2.124892 7.2796,-2.403322 13.63524,-6.479078 19.11092,-12.255376 1.39204,-1.468494 2.58873,-2.612098 2.65923,-2.541328 0.25663,0.257588 2.24588,6.488875 2.83571,8.882847 1.18294,4.800981 1.3799,6.504021 1.50719,13.026172 0.13328,6.829855 -0.13943,10.144018 -1.23467,15.00613 -1.10377,4.900026 -0.68152,4.294562 -3.98119,5.708376 -3.59996,1.542462 -6.95216,2.555398 -10.46237,3.161361 -2.19657,0.379202 -3.72114,0.461524 -8.00826,0.432415 -2.91231,-0.01979 -5.617916,-0.08014 -6.012365,-0.134225 z"
   id="path13993" /><path
   style="fill:#999999;stroke-width:0.239501"
   d="m 77.175714,124.65944 c -2.970499,-2.04243 -7.406699,-6.3039 -9.714024,-9.33143 -5.217839,-6.84649 -8.645189,-15.493914 -9.42421,-23.778053 -0.202501,-2.152802 0.1194,-2.937419 2.894009,-7.054966 2.898568,-4.301487 2.597814,-4.040891 5.139119,-4.45344 4.172571,-0.677373 7.105158,-2.176446 9.645567,-4.930554 1.567291,-1.699162 1.818127,-1.883602 1.818127,-1.336918 0,0.531486 3.222201,6.869127 4.638243,9.122858 3.218637,5.122639 8.49435,10.273697 14.088986,13.756132 4.497289,2.799356 9.245919,4.742191 14.468599,5.919611 1.49393,0.33682 2.75239,0.64857 2.79639,0.69274 0.044,0.0442 -1.09031,1.38734 -2.52075,2.98475 -7.42952,8.2967 -16.776385,14.27765 -27.853675,17.82328 -4.231241,1.35432 -4.780551,1.40818 -5.976381,0.58599 z"
   id="path13995" /><path
   style="fill:#999999;stroke-width:0.239501"
   d="M 94.148534,86.789563 C 89.720796,85.72962 84.570516,83.874228 82.979979,82.76609 82.208326,82.228459 80.113678,78.583419 78.71027,75.335998 l -1.002837,-2.320544 0.638654,-1.601301 c 0.951465,-2.385628 1.332234,-4.305204 1.336166,-6.7363 0.003,-1.909324 -0.462834,-4.603325 -1.054348,-6.097012 -0.124855,-0.315118 0.757895,-0.360256 7.09139,-0.362594 8.254475,-0.003 9.306533,-0.140821 14.713545,-1.926712 7.32718,-2.420133 13.20081,-6.12079 18.81636,-11.855227 1.31481,-1.342634 2.56922,-2.541149 2.78758,-2.663382 0.34388,-0.192485 0.54298,0.235134 1.48714,3.193988 1.22839,3.849775 2.13472,7.355114 2.58934,10.014745 0.43809,2.563183 0.42504,17.225615 -0.0176,19.675548 -0.70282,3.890597 -1.50647,7.106569 -1.91862,7.678266 -0.59158,0.820442 -5.81048,2.916734 -10.00939,4.020506 l -3.2854,0.863641 -7.17167,0.07115 c -6.861488,0.06805 -7.274902,0.04637 -9.562096,-0.501167 z"
   id="path13997" /></svg>
