<?xml version="1.0" encoding="UTF-8" standalone="no"?>
<!-- Uploaded to: SVG Repo, www.svgrepo.com, Generator: SVG Repo Mixer Tools -->

<svg
   version="1.1"
   id="Layer_1"
   viewBox="0 0 130.00001 130"
   xml:space="preserve"
   sodipodi:docname="greenhouse-fan-blades.svg"
   inkscape:version="1.3.2 (091e20e, 2023-11-25, custom)"
   width="130"
   height="130"
   xmlns:inkscape="http://www.inkscape.org/namespaces/inkscape"
   xmlns:sodipodi="http://sodipodi.sourceforge.net/DTD/sodipodi-0.dtd"
   xmlns="http://www.w3.org/2000/svg"
   xmlns:svg="http://www.w3.org/2000/svg"><defs
   id="defs10776" /><sodipodi:namedview
   id="namedview10774"
   pagecolor="#ffffff"
   bordercolor="#000000"
   borderopacity="0.25"
   inkscape:showpageshadow="2"
   inkscape:pageopacity="0.0"
   inkscape:pagecheckerboard="0"
   inkscape:deskcolor="#d1d1d1"
   showgrid="false"
   inkscape:zoom="1.6268251"
   inkscape:cx="69.153101"
   inkscape:cy="58.088605"
   inkscape:window-width="1920"
   inkscape:window-height="1009"
   inkscape:window-x="-8"
   inkscape:window-y="-8"
   inkscape:window-maximized="1"
   inkscape:current-layer="Layer_1" />


<ellipse
   style="fill:#53caf9;stroke-width:0.390622"
   cx="64.669281"
   cy="64.818527"
   id="circle10745"
   rx="4.8183703"
   ry="4.8183594" />
<path
   style="fill:#b4cccb;stroke-width:0.390622"
   d="m 51.700451,56.810723 c 2.94811,-4.779306 8.14065,-7.378516 13.41916,-7.226566 2.47659,-2.88008 4.59495,-6.075 6.30275,-9.50938 C 70.696611,25.042357 62.603601,10.677905 48.631698,2.5611049 34.45668,6.3888449 22.20002,14.936497 13.66407,26.410717 c 6.05158,0.6961 12.06492,2.60742 17.67697,5.84766 9.89535,5.7125 16.856738,14.55351 20.359411,24.552346 z"
   id="path10747" />
<path
   style="fill:#8aacad;stroke-width:0.390622"
   d="m 19.80588,77.400183 c 9.89573,-5.71328 21.03241,-7.32149 31.443081,-5.35547 -2.665313,-4.94258 -2.319583,-10.73907 0.45112,-15.23477 -1.255873,-3.584766 -2.963673,-7.016416 -5.084763,-10.212896 -13.174278,-6.78086 -29.356328,-7.05 -43.2282572,0.61641 -1.5913801,5.59805 -2.44294009,11.503906 -2.44294009,17.605076 0,8.82344 1.78319009,17.23751 5.00511009,24.90352 3.62225,-4.86601 8.2683992,-9.09531 13.8566492,-12.32187 z"
   id="path10749" />
<path
   style="fill:#b4cccb;stroke-width:0.390622"
   d="m 64.216911,80.052913 c -5.61291,-0.16367 -10.46019,-3.36094 -12.96836,-8.0082 -3.732453,-0.70508 -7.558663,-0.9418 -11.387581,-0.70352 -12.51288,8.05313 -20.8555,22.01836 -21.08316,37.950777 9.9562,10.43789 23.369888,17.55039 38.383611,19.4793 -2.58354,-5.74141 -4.02891,-12.10625 -4.02891,-18.81094 3.7e-4,-11.424997 4.17622,-21.874217 11.0844,-29.907417 z"
   id="path10751" />
<path
   style="fill:#8aacad;stroke-width:0.390622"
   d="m 97.994711,97.379863 c -9.89536,-5.71289 -16.85593,-14.5539 -20.35905,-24.55273 -2.94806,4.7793 -8.14101,7.37852 -13.41914,7.22656 -2.47659,2.88008 -4.59493,6.075 -6.30275,9.50938 0.72774,15.071477 8.85938,29.473037 22.89808,37.578117 0.12307,0.0711 0.24726,0.13906 0.37106,0.20781 5.58992,-1.40937 10.89068,-3.55078 15.79654,-6.31523 7.496899,-4.39336 14.186369,-10.34492 19.520349,-17.71602 -6.33047,-0.61132 -12.63635,-2.55 -18.505089,-5.937887 z"
   id="path10753" />
<path
   style="fill:#b4cccb;stroke-width:0.390622"
   d="m 127.45493,81.557603 c 3.5488,-13.76563 2.59137,-28.700776 -3.52972,-42.377356 -3.69533,5.17735 -8.52734,9.66914 -14.39571,13.05704 -9.895369,5.712886 -21.032049,7.321096 -31.442719,5.355076 2.66532,4.94258 2.31959,10.73907 -0.45112,15.23477 1.25627,3.58477 2.96368,7.01641 5.08476,10.21289 13.41608,6.90547 29.953599,7.06367 43.992689,-1.04102 0.24998,-0.14453 0.49612,-0.29296 0.74182,-0.4414 z"
   id="path10755" />
<path
   style="fill:#8aacad;stroke-width:0.390622"
   d="m 89.474771,58.295883 c 12.688269,-8.166026 21.094559,-22.408606 21.094559,-38.619146 0,-0.28867 -0.006,-0.57617 -0.0115,-0.86328 C 100.41062,8.8572049 86.998031,2.2189149 72.092971,0.68102485 c 2.63597,5.78907005 4.10974,12.21914215 4.10974,18.99571215 0,11.42578 -4.1758,21.875 -11.08398,29.90781 5.61291,0.16367 10.46018,3.36095 12.96836,8.008206 3.73245,0.7043 7.55863,0.94141 11.38716,0.70313 z"
   id="path10757" />



<path
   style="fill:#b3b3b3;stroke-width:0.240116"
   d="M 53.141991,123.94676 C 46.540728,121.78708 39.73082,118.14084 34.05337,113.72614 29.78259,110.40526 24.4916,104.8316 21.60598,100.6138 l -1.31643,-1.924187 0.4539,-1.58718 c 0.73134,-2.55731 1.63637,-4.79845 3.12814,-7.74605 3.28241,-6.48588 7.7826,-11.81795 13.68177,-16.21089 l 2.50288,-1.86384 3.721728,0.13695 c 2.04703,0.0753 4.53801,0.26224 5.53551,0.41539 1.767663,0.27137 1.830143,0.3045 2.463563,1.30566 1.07867,1.70505 2.46651,3.13141 4.19781,4.31434 1.69761,1.15993 5.14914,2.52629 6.41207,2.53837 1.33331,0.0127 1.49429,0.33869 0.64503,1.30596 -2.17,2.47146 -5.0128,7.35437 -6.65502,11.43097 -2.23749,5.5541 -3.25404,10.944537 -3.25364,17.253277 2.5e-4,4.49956 0.39213,7.64098 1.46795,11.76833 0.39288,1.50718 0.68663,2.76802 0.65276,2.80187 -0.034,0.0339 -0.97976,-0.23886 -2.10201,-0.60601 z"
   id="path11341" /><path
   style="fill:#b3b3b3;stroke-width:0.240116"
   d="m 51.554941,56.070783 c -0.0854,-0.24781 -0.58073,-1.43981 -1.100833,-2.648906 -3.69278,-8.58439 -10.479918,-16.20121 -18.799308,-21.09744 -2.28668,-1.34578 -6.12994,-3.14577 -7.92637,-3.71236 -0.5283,-0.1666 -1.0577,-0.39247 -1.17651,-0.50193 -0.59283,-0.54617 6.44264,-8.13326 10.767,-11.61122 5.0311,-4.04636 11.938948,-8.0087021 17.374858,-9.9661321 2.028403,-0.73042 2.291833,-0.7736 2.868993,-0.4702 1.17947,0.62003 6.57454,6.0599821 8.35798,8.4276121 5.23168,6.94504 8.33972,14.82786 9.21112,23.36151 l 0.22067,2.16104 -1.09779,1.92091 c -1.38605,2.42536 -2.71704,4.42044 -4.12433,6.18207 -1.05335,1.31865 -1.151,1.3798 -2.20432,1.38066 -1.64698,0.002 -4.58742,0.8336 -6.50464,1.84109 -1.82532,0.95918 -3.94489,2.749206 -5.03607,4.253066 -0.58466,0.80578 -0.69614,0.87027 -0.83045,0.48023 z"
   id="path11343" /><path
   style="fill:#b3b3b3;stroke-width:0.240116"
   d="m 97.197351,87.547493 c -4.18064,-0.61064 -8.75428,-1.97875 -12.68242,-3.79368 -1.62853,-0.75241 -1.7986,-0.90643 -2.71911,-2.46235 -1.19417,-2.0185 -2.68763,-5.01665 -3.43078,-6.88723 l -0.55045,-1.38566 0.73767,-1.64978 c 1.90517,-4.26073 1.8891,-8.91881 -0.0456,-13.23963 -0.14903,-0.33303 0.0437,-0.34077 1.82161,-0.0731 2.85685,0.43008 9.79924,0.40355 12.88276,-0.0493 11.034919,-1.62042 21.305489,-7.290206 28.440459,-15.700356 0.61033,-0.71942 1.17732,-1.24046 1.25986,-1.15787 0.33899,0.33897 2.34818,6.50671 2.99343,9.18912 1.08417,4.506576 1.46142,7.531346 1.60236,12.846156 0.17073,6.43212 -0.33399,11.17324 -1.81461,17.04816 l -0.6354,2.5212 -1.32065,0.6548 c -3.85323,1.91052 -8.9534,3.47546 -13.47731,4.13539 -3.11068,0.45379 -9.96845,0.45594 -13.061799,0.004 z"
   id="path11345" /><path
   style="fill:#999999;stroke-width:0.240116"
   d="m 12.13666,80.051353 c -2.7949492,-11.25414 -2.4303992,-23.1718 1.0445,-34.145596 0.56147,-1.7731 0.98834,-2.72327 1.29783,-2.88891 0.8295,-0.44392 6.03603,-1.20834 9.23735,-1.35623 6.80289,-0.31427 13.8964,1.04289 20.421808,3.90721 l 2.4012,1.05397 1.31453,2.21812 c 1.24257,2.09665 3.601503,7.182296 3.605823,7.773846 10e-4,0.15025 -0.32409,0.97009 -0.722693,1.82188 -0.85594,1.82905 -1.42634,4.32202 -1.43218,6.25905 -0.005,1.69305 0.57116,4.59406 1.20726,6.07801 0.25817,0.6023 0.469413,1.11986 0.469413,1.15011 0,0.0303 -0.783443,-0.0807 -1.740853,-0.24647 -0.95747,-0.16582 -3.11014,-0.3696 -4.78374,-0.45285 -10.465698,-0.52057 -21.636168,3.09519 -30.147848,9.75863 -0.82261,0.64394 -1.53048,1.17081 -1.57303,1.17081 -0.0426,0 -0.31232,-0.94571 -0.59937,-2.10158 z"
   id="path11347" /><path
   style="fill:#808080;stroke-width:0.240116"
   d="m 84.597701,58.208033 c -0.72641,-0.0294 -2.43034,-0.18069 -3.7865,-0.33618 l -2.46583,-0.28273 -1.06133,-1.48731 c -2.3478,-3.290126 -5.78633,-5.516216 -9.76253,-6.320086 l -2.06893,-0.41829 0.70721,-0.8335 c 1.4915,-1.75782 4.29847,-6.23154 5.57005,-8.87736 1.59042,-3.30942 2.99955,-7.52217 3.7748,-11.2854 0.51097,-2.48003 0.56831,-3.37283 0.56315,-8.76419 -0.006,-5.59867 -0.0492,-6.20498 -0.65124,-9.004322 -0.35503,-1.6507801 -0.96949,-3.9692101 -1.36535,-5.1520501 -0.39586,-1.18283 -0.67643,-2.19397 -0.62346,-2.24696 0.1399,-0.1399 4.48622,0.62179 6.72777,1.17905 10.56439,2.62636 20.123879,7.8757621 28.186109,15.4778121 l 2.01351,1.8986 -0.14396,2.16548 c -0.41457,6.23464 -2.9908,13.9583 -6.58649,19.74678 -2.96132,4.76729 -7.086309,9.28033 -11.533689,12.618836 -2.29777,1.72482 -2.55938,1.85786 -3.72179,1.8928 -0.68769,0.0207 -1.52043,0.0477 -1.85066,0.06 -0.3301,0.0123 -1.19454,-0.002 -1.92084,-0.031 z"
   id="path11349" /><path
   style="fill:#808080;stroke-width:0.240116"
   d="m 76.433721,124.0968 c -10.26072,-7.60375 -16.93469,-19.45264 -18.21539,-32.339277 -0.19368,-1.94898 -0.17302,-2.1005 0.45755,-3.3616 0.78654,-1.57306 3.13137,-5.15984 4.48199,-6.85582 l 0.96605,-1.21311 2.20246,-0.29324 c 4.32758,-0.57617 8.25394,-2.73351 10.39105,-5.70931 0.86092,-1.19891 1.05956,-1.27874 1.28228,-0.51551 0.55917,1.91594 3.20718,7.1406 4.89943,9.6667 6.70006,10.00166 18.153199,17.451797 29.835799,19.407847 l 1.67914,0.28114 -2.40221,2.76051 c -7.52751,8.65025 -17.762249,15.18026 -29.095019,18.56334 -4.47003,1.33439 -4.12587,1.35517 -6.48313,-0.39167 z"
   id="path11351" /><path
   style="fill:#666666;stroke-width:0.240116"
   d="m 61.666601,79.615693 c -5.23458,-1.03108 -9.66738,-5.12364 -11.555973,-10.66908 -0.3449,-1.01271 -0.44707,-1.99246 -0.43821,-4.20202 0.0105,-2.48737 0.0979,-3.1222 0.64331,-4.64253 1.696163,-4.72828 5.286813,-8.247146 9.910193,-9.712046 2.38411,-0.75539 6.50018,-0.75539 8.88429,0 5.98172,1.89529 10.22861,7.292886 10.60617,13.479916 0.45733,7.49441 -4.88758,14.37461 -12.24806,15.76616 -2.25236,0.42581 -3.55964,0.42122 -5.80172,-0.0204 z m 4.99013,-10.28028 c 2.61098,-1.12034 3.66873,-4.5921 2.1772,-7.14597 -1.78722,-3.06008 -6.80408,-2.9688 -8.43301,0.15344 -1.33034,2.55001 -0.27402,5.86358 2.22612,6.9828 0.94397,0.42255 3.05572,0.42765 4.02969,0.01 z"
   id="path11574" /><path
   style="fill:#4d4d4d;stroke-width:0.240116"
   d="m 62.394071,68.878973 c -2.7657,-1.56646 -3.20435,-5.33815 -0.86643,-7.45033 0.85933,-0.77638 2.21176,-1.36361 3.14044,-1.36361 0.92865,0 2.28106,0.58723 3.14043,1.36361 3.14365,2.84012 1.1195,7.99029 -3.14043,7.99029 -0.92663,0 -1.60511,-0.16109 -2.27401,-0.53996 z"
   id="path11576" /><path
   style="fill:#999999;stroke-width:0.240116"
   d="m 81.021031,57.803513 c -2.44669,-0.27152 -2.50813,-0.29348 -3.10497,-1.11009 -0.33493,-0.45819 -1.48075,-1.69846 -2.54635,-2.75614 -2.22682,-2.210276 -4.42767,-3.443736 -7.34003,-4.113636 -0.9905,-0.22783 -1.88811,-0.48712 -1.99475,-0.57621 -0.10665,-0.0891 0.39185,-0.94071 1.10794,-1.8925 3.92677,-5.2198 6.83071,-11.65995 8.38567,-18.59709 0.49442,-2.20608 0.545,-3.04417 0.545,-9.03481 0,-7.23728 -0.0807,-7.88542 -1.66923,-13.4032121 -0.44407,-1.5425 -0.75845,-2.8545 -0.69865,-2.91556 0.20345,-0.20771 5.1631,0.74301 8.15793,1.56381 9.62357,2.63754 18.542929,7.7148121 26.582429,15.1318621 l 1.83999,1.69754 -0.24701,2.60691 c -0.77363,8.16496 -4.10513,16.46067 -9.30192,23.16259 -3.049479,3.93265 -8.884829,9.255286 -11.213619,10.228316 -0.99543,0.41592 -4.79539,0.41959 -8.50243,0.008 z"
   id="path13933" /><path
   style="fill:#808080;stroke-width:0.240116"
   d="m 77.514231,124.74876 c -1.8039,-1.2321 -4.56021,-3.63879 -6.64076,-5.79845 -5.40862,-5.61428 -9.26271,-12.51378 -11.24749,-20.134867 -0.81607,-3.13353 -1.53817,-8.02634 -1.34006,-9.07982 0.21929,-1.16597 2.67096,-5.09572 5.52638,-8.8582 0.22272,-0.29343 0.86534,-0.50888 1.97364,-0.66172 4.58944,-0.63284 8.59455,-2.6874 10.75096,-5.51502 0.92016,-1.20659 1.33751,-1.47195 1.33751,-0.85041 0,0.83604 4.40985,9.03452 6.01575,11.18404 6.44011,8.62021 16.662719,15.318107 26.639949,17.454557 1.51878,0.32521 2.94901,0.66395 3.17846,0.75276 0.34104,0.13204 -0.0559,0.68666 -2.17783,3.04285 -7.24557,8.04544 -16.541229,14.0758 -27.040699,17.54202 -5.14568,1.69876 -5.72651,1.77555 -6.97581,0.92226 z"
   id="path13935" /><path
   style="fill:#999999;stroke-width:0.240116"
   d="m 97.443811,87.505273 c -3.48026,-0.47514 -9.174,-2.16526 -12.68576,-3.76559 -1.47454,-0.67199 -1.93052,-1.01655 -2.46889,-1.86579 -1.04981,-1.6558 -2.63341,-4.71602 -3.54355,-6.84764 l -0.8387,-1.9642 0.70052,-1.66722 c 1.63451,-3.89021 1.85759,-7.94609 0.63653,-11.57259 -0.33351,-0.99048 -0.58561,-1.82229 -0.56017,-1.84848 0.0255,-0.0262 0.85321,0.0651 1.83948,0.20288 1.02213,0.14279 4.11646,0.20582 7.19585,0.14659 6.1099,-0.11754 8.26397,-0.46125 13.326419,-2.12639 7.31193,-2.405016 13.69579,-6.483646 19.19578,-12.264016 1.39823,-1.46953 2.60023,-2.61394 2.67104,-2.54312 0.25777,0.25777 2.25586,6.49345 2.8483,8.88911 1.1882,4.804366 1.38603,6.508606 1.51389,13.035356 0.13387,6.83467 -0.14005,10.15117 -1.24016,15.01671 -1.10867,4.90348 -0.68454,4.29759 -3.99886,5.7124 -3.61595,1.54355 -6.98304,2.5572 -10.50883,3.16359 -2.20633,0.37947 -3.73767,0.46185 -8.04383,0.43272 -2.92524,-0.0198 -5.642859,-0.0802 -6.039059,-0.13432 z"
   id="path13993" /><path
   style="fill:#999999;stroke-width:0.240116"
   d="m 77.514231,124.74685 c -2.98369,-2.04387 -7.43959,-6.30834 -9.75716,-9.33801 -5.24101,-6.85132 -8.68358,-15.504837 -9.46606,-23.794817 -0.2034,-2.15432 0.11993,-2.93949 2.90686,-7.05994 2.91144,-4.30452 2.60935,-4.04374 5.16194,-4.45658 4.1911,-0.67785 7.13671,-2.17798 9.6884,-4.93403 1.57425,-1.70036 1.8262,-1.88493 1.8262,-1.33786 0,0.53186 3.23651,6.87397 4.65884,9.12929 3.23293,5.12625 8.53207,10.28094 14.15155,13.76583 4.517259,2.80133 9.286979,4.745537 14.532849,5.923787 1.50056,0.33706 2.76461,0.64902 2.80881,0.69323 0.0442,0.0442 -1.09515,1.38831 -2.53195,2.98685 -7.46251,8.30255 -16.850879,14.28772 -27.977359,17.83585 -4.25003,1.35527 -4.80178,1.40917 -6.00292,0.5864 z"
   id="path13995" /><path
   style="fill:#808080;stroke-width:0.240116"
   d="m 94.562421,86.850273 c -4.4474,-1.06069 -9.62055,-2.91739 -11.21815,-4.02631 -0.77508,-0.53801 -2.87903,-4.18562 -4.28867,-7.43533 l -1.00729,-2.32218 0.64149,-1.60243 c 0.95569,-2.38731 1.33815,-4.30824 1.3421,-6.74105 0.003,-1.91067 -0.46489,-4.60657 -1.05903,-6.10131 -0.12541,-0.31534 0.76126,-0.36051 7.12288,-0.36285 8.29113,-0.003 9.34786,-0.14092 14.778879,-1.92807 7.35972,-2.42184 13.25943,-6.125106 18.89992,-11.863586 1.32065,-1.34358 2.58063,-2.54294 2.79996,-2.66526 0.34541,-0.19262 0.54539,0.2353 1.49374,3.19624 1.23385,3.85249 2.1442,7.3603 2.60084,10.021806 0.44004,2.56499 0.42693,17.23776 -0.0177,19.68942 -0.70594,3.89334 -1.51316,7.11158 -1.92714,7.68368 -0.5942,0.82102 -5.83628,2.91879 -10.05384,4.02334 l -3.29998,0.86425 -7.20352,0.0712 c -6.891959,0.0681 -7.307209,0.0464 -9.604559,-0.50152 z"
   id="path13997" /></svg>
