<?xml version="1.0" encoding="UTF-8" standalone="no"?>
<!-- Uploaded to: SVG Repo, www.svgrepo.com, Generator: SVG Repo Mixer Tools -->

<svg
   version="1.1"
   id="Layer_1"
   viewBox="0 0 228.05153 232.9691"
   xml:space="preserve"
   sodipodi:docname="greenhouse-fan.svg"
   inkscape:version="1.3.2 (091e20e, 2023-11-25, custom)"
   width="228.05153"
   height="232.9691"
   xmlns:inkscape="http://www.inkscape.org/namespaces/inkscape"
   xmlns:sodipodi="http://sodipodi.sourceforge.net/DTD/sodipodi-0.dtd"
   xmlns="http://www.w3.org/2000/svg"
   xmlns:svg="http://www.w3.org/2000/svg"><defs
   id="defs10776" /><sodipodi:namedview
   id="namedview10774"
   pagecolor="#ffffff"
   bordercolor="#000000"
   borderopacity="0.25"
   inkscape:showpageshadow="2"
   inkscape:pageopacity="0.0"
   inkscape:pagecheckerboard="0"
   inkscape:deskcolor="#d1d1d1"
   showgrid="false"
   inkscape:zoom="1.6268251"
   inkscape:cx="119.55803"
   inkscape:cy="103.57598"
   inkscape:window-width="1920"
   inkscape:window-height="1009"
   inkscape:window-x="-8"
   inkscape:window-y="-8"
   inkscape:window-maximized="1"
   inkscape:current-layer="Layer_1" />
<path
   style="fill:#547475;stroke-width:0.390622"
   d="m 77.829469,211.67842 h 88.672041 v 3.9e-4 h 30.99111 c 6.77304,0 12.58397,-4.11797 15.066,-9.98672 0.82778,-1.95625 1.28479,-4.10703 1.28479,-6.36484 V 154.96318 H 213.843 V 59.021384 h 4.1e-4 V 28.030363 c 0,-4.90625 -2.16446,-9.30508 -5.58596,-12.30156 -2.28631,-2.00196 -5.13204,-3.38008 -8.27506,-3.86094 -0.0406,-0.006 -0.0816,-0.009 -0.12103,-0.0156 -0.77383,-0.1121 -1.56407,-0.17304 -2.36874,-0.17304 h -30.99111 -95.942761 -40.36374 -3.9e-4 c -9.03049,0 -16.35121,7.32031 -16.35121,16.35117 v 30.991021 h 3.9e-4 V 154.9636 h -3.9e-4 v 40.36407 c 0,5.07929 2.31603,9.61797 5.9508,12.61718 0.13633,0.1129 0.27734,0.22032 0.41836,0.32891 0.0664,0.052 0.13164,0.10586 0.19883,0.15664 2.72852,2.04024 6.11524,3.24883 9.78361,3.24883 h 37.70984"
   id="path10737" />
<g
   style="opacity:0.15"
   id="g10743"
   transform="matrix(0.39062577,0,0,0.390625,12.154739,11.679193)">
	<path
   style="fill:#231f20"
   d="m 37.919,503.281 c -0.36,-0.277 -0.721,-0.553 -1.071,-0.842 -9.304,-7.678 -15.234,-19.297 -15.234,-32.3 V 366.808 h 10e-4 V 121.196 H 21.614 V 41.859 C 21.614,18.74 40.354,0 63.473,0 H 46.183 46.182 C 23.064,0 4.323,18.74 4.323,41.859 v 79.337 H 4.324 V 366.808 H 4.323 V 470.14 c 0,13.003 5.929,24.622 15.234,32.3 0.349,0.289 0.71,0.564 1.071,0.842 0.17,0.133 0.337,0.271 0.509,0.401 6.985,5.223 15.655,8.317 25.046,8.317 h 17.29 c -9.391,0 -18.061,-3.094 -25.046,-8.318 -0.171,-0.13 -0.338,-0.269 -0.508,-0.401 z"
   id="path10739" />
	<rect
   x="403.76901"
   y="503.35501"
   style="fill:#231f20"
   width="0"
   height="17.290001"
   id="rect10741" />
</g>
<ellipse
   style="fill:#53caf9;stroke-width:0.390622"
   cx="113.84482"
   cy="110.92059"
   id="circle10745"
   rx="4.8183703"
   ry="4.8183594" />
<path
   style="fill:#b4cccb;stroke-width:0.390622"
   d="m 100.87599,102.91279 c 2.94811,-4.779306 8.14065,-7.378516 13.41916,-7.226566 2.47659,-2.88008 4.59495,-6.075 6.30275,-9.50938 -0.72575,-15.03242 -8.81876,-29.396872 -22.790663,-37.513672 -14.175018,3.82774 -26.431678,12.375392 -34.967628,23.849612 6.05158,0.6961 12.06492,2.60742 17.67697,5.84766 9.89535,5.7125 16.856738,14.55351 20.359411,24.552346 z"
   id="path10747" />
<path
   style="fill:#8aacad;stroke-width:0.390622"
   d="m 68.981419,123.50225 c 9.89573,-5.71328 21.03241,-7.32149 31.443081,-5.35547 -2.665313,-4.94258 -2.319583,-10.73907 0.45112,-15.23477 -1.255873,-3.584766 -2.963673,-7.016416 -5.084763,-10.212896 -13.174278,-6.78086 -29.356328,-7.05 -43.228258,0.61641 -1.59138,5.59805 -2.44294,11.503906 -2.44294,17.605076 0,8.82344 1.78319,17.23751 5.00511,24.90352 3.62225,-4.86601 8.2684,-9.09531 13.85665,-12.32187 z"
   id="path10749" />
<path
   style="fill:#b4cccb;stroke-width:0.390622"
   d="m 113.39245,126.15498 c -5.61291,-0.16367 -10.46019,-3.36094 -12.96836,-8.0082 -3.732453,-0.70508 -7.558663,-0.9418 -11.387581,-0.70352 -12.51288,8.05313 -20.8555,22.01836 -21.08316,37.95078 9.9562,10.43789 23.369888,17.55039 38.383611,19.4793 -2.58354,-5.74141 -4.02891,-12.10625 -4.02891,-18.81094 3.7e-4,-11.425 4.17622,-21.87422 11.0844,-29.90742 z"
   id="path10751" />
<path
   style="fill:#8aacad;stroke-width:0.390622"
   d="m 147.17025,143.48193 c -9.89536,-5.71289 -16.85593,-14.5539 -20.35905,-24.55273 -2.94806,4.7793 -8.14101,7.37852 -13.41914,7.22656 -2.47659,2.88008 -4.59493,6.075 -6.30275,9.50938 0.72774,15.07148 8.85938,29.47304 22.89808,37.57812 0.12307,0.0711 0.24726,0.13906 0.37106,0.20781 5.58992,-1.40937 10.89068,-3.55078 15.79654,-6.31523 7.4969,-4.39336 14.18637,-10.34492 19.52035,-17.71602 -6.33047,-0.61132 -12.63635,-2.55 -18.50509,-5.93789 z"
   id="path10753" />
<path
   style="fill:#b4cccb;stroke-width:0.390622"
   d="m 176.63047,127.65967 c 3.5488,-13.76563 2.59137,-28.700776 -3.52972,-42.377356 -3.69533,5.17735 -8.52734,9.66914 -14.39571,13.05704 -9.89537,5.712886 -21.03205,7.321096 -31.44272,5.355076 2.66532,4.94258 2.31959,10.73907 -0.45112,15.23477 1.25627,3.58477 2.96368,7.01641 5.08476,10.21289 13.41608,6.90547 29.9536,7.06367 43.99269,-1.04102 0.24998,-0.14453 0.49612,-0.29296 0.74182,-0.4414 z"
   id="path10755" />
<path
   style="fill:#8aacad;stroke-width:0.390622"
   d="m 138.65031,104.39795 c 12.68827,-8.166026 21.09456,-22.408606 21.09456,-38.619146 0,-0.28867 -0.006,-0.57617 -0.0115,-0.86328 -10.14721,-9.956252 -23.5598,-16.594542 -38.46486,-18.132432 2.63597,5.78907 4.10974,12.219142 4.10974,18.995712 0,11.42578 -4.1758,21.875 -11.08398,29.90781 5.61291,0.16367 10.46018,3.36095 12.96836,8.008206 3.73245,0.7043 7.55863,0.94141 11.38716,0.70313 z"
   id="path10757" />
<path
   style="fill:#53caf9;stroke-width:0.390622"
   d="m 185.52343,74.832704 -4.87888,-8.26836 -0.0708,-0.11132 C 165.70663,44.465132 141.04409,31.337782 114.60179,31.337782 c -43.882881,0 -79.584121,35.701172 -79.584121,79.583208 0,43.88243 35.70124,79.58321 79.583761,79.58321 43.88253,0 79.58413,-35.70078 79.58413,-79.58321 0,-12.694916 -2.91484,-24.837106 -8.66213,-36.088286 z m -70.92164,98.412116 c -34.366071,0 -62.324331,-27.95859 -62.324331,-62.32383 0,-34.365626 27.95865,-62.323438 62.324331,-62.323438 34.36572,0 62.32437,27.958202 62.32437,62.323048 0,34.36563 -27.95865,62.32422 -62.32437,62.32422 z"
   id="path10759" />
<g
   id="g10769"
   transform="matrix(0.39062577,0,0,0.390625,12.154739,11.679193)">
	<circle
   style="fill:#8aacad"
   cx="457.01099"
   cy="58.175999"
   r="25.775"
   id="circle10761" />
	<circle
   style="fill:#8aacad"
   cx="457.01099"
   cy="453.505"
   r="25.775"
   id="circle10763" />
	<circle
   style="fill:#8aacad"
   cx="65.231003"
   cy="58.175999"
   r="25.775"
   id="circle10765" />
	<circle
   style="fill:#8aacad"
   cx="65.231003"
   cy="453.505"
   r="25.775"
   id="circle10767" />
</g>
<path
   style="opacity:0.15;fill:#231f20;stroke-width:0.390622;enable-background:new"
   d="m 59.323999,110.91435 c 0,-33.235156 26.01832,-60.390628 58.797741,-62.216018 -1.16564,-0.0648 -2.33828,-0.10078 -3.51957,-0.10078 -34.416821,0 -62.317241,27.900392 -62.317241,62.317188 0,34.4168 27.90042,62.31719 62.317241,62.31719 1.18129,0 2.35431,-0.0359 3.51957,-0.10078 -32.779421,-1.82656 -58.797741,-28.98203 -58.797741,-62.2168 z"
   id="path10771" />
<path
   style="fill:#1a1a1a;stroke-width:0.240116"
   d="m 33.502139,211.21931 c -4.81289,-1.05054 -8.85728,-4.21706 -11.04647,-8.64874 -1.94627,-3.93993 -1.78807,4.49665 -1.71877,-91.65795 l 0.062,-86.027107 0.678,-1.91862 c 1.72922,-4.8934 5.15,-8.4023 10.00713,-10.26491 l 2.04098,-0.78268 82.599711,-0.0658 c 92.21188,-0.0734 84.57422,-0.21434 88.36243,1.63036 3.53198,1.71993 6.06007,4.28126 7.69869,7.79989 1.67167,3.58971 1.54579,-3.77374 1.54579,90.403287 0,94.76537 0.14659,86.86676 -1.68239,90.64338 -1.96914,4.06596 -5.30617,6.97381 -9.72311,8.47256 l -1.92092,0.65181 -82.71977,0.042 c -68.069431,0.0345 -82.978951,-0.0146 -84.183301,-0.27749 z m 6.21314,-12.48374 c 2.11774,-0.44875 3.73978,-1.35062 5.1934,-2.88762 5.2371,-5.53745 2.96199,-14.46513 -4.25426,-16.694 -4.81635,-1.48762 -10.01123,0.74455 -12.10028,5.19933 -1.939,4.13478 -1.22685,8.46382 1.9054,11.58254 1.52708,1.5205 3.09737,2.3895 5.10645,2.82595 1.76036,0.3824 2.23515,0.37941 4.14929,-0.0262 z m 152.498851,0.11906 c 3.31289,-0.54253 6.1185,-2.62147 7.60053,-5.63199 1.51409,-3.0755 1.21189,-7.27886 -0.72583,-10.09521 -1.02408,-1.48847 -2.5197,-2.73275 -4.29669,-3.57471 -1.47014,-0.69654 -1.78201,-0.75353 -4.12404,-0.75353 -2.44496,0 -2.59763,0.0316 -4.36003,0.90263 -2.13463,1.05495 -3.87018,2.79263 -4.91478,4.92072 -0.62401,1.27105 -0.67756,1.59827 -0.67756,4.14142 0,2.60725 0.0428,2.85163 0.76668,4.37987 1.59546,3.36795 5.00719,5.6209 8.95798,5.91544 0.19809,0.0148 0.9963,-0.0773 1.77374,-0.20464 z m -68.52576,-8.78636 c 26.46891,-2.98814 49.83828,-19.24361 61.93927,-43.08431 5.46357,-10.76406 8.22213,-21.64431 8.58385,-33.85621 0.35405,-11.95416 -1.8993,-23.500916 -6.70581,-34.362236 -1.88095,-4.25044 -6.43856,-11.97983 -9.32391,-15.81274 -21.56808,-28.651142 -59.88491,-39.366671 -93.103801,-26.037002 -3.70337,1.48605 -9.40481,4.37103 -12.77431,6.46387 -5.64346,3.50525 -12.53017,9.31187 -16.92815,14.273222 -11.53681,13.01449 -18.0406,27.63842 -20.07978,45.149946 -0.44515,3.82269 -0.37731,13.13277 0.12512,17.16822 2.03214,16.32244 8.37565,30.80172 18.80335,42.9192 2.14767,2.49574 7.51238,7.74057 9.91551,9.69394 13.23908,10.76135 29.168078,16.93132 46.342271,17.9503 2.74396,0.1628 9.85973,-0.0884 13.20639,-0.4662 z M 39.641729,44.338502 c 1.65399,-0.22574 3.92769,-1.46839 5.2554,-2.87224 2.55405,-2.70053 3.46107,-6.09842 2.55572,-9.57429 -0.52145,-2.001949 -1.20743,-3.201649 -2.66297,-4.657179 -3.38099,-3.38099 -8.70511,-3.91315 -12.78272,-1.27767 -1.53969,0.99515 -2.55419,2.16067 -3.48153,3.99981 -2.63257,5.221029 -0.13575,11.690529 5.35955,13.887119 1.11968,0.44756 3.36422,0.82597 4.20202,0.70844 0.26412,-0.0371 0.96366,-0.13335 1.55453,-0.21399 z M 193.2912,44.189522 c 2.68565,-0.60524 5.20661,-2.68584 6.54265,-5.39981 1.35998,-2.76251 1.21895,-6.84203 -0.32721,-9.462079 -0.66924,-1.13402 -2.2675,-2.80539 -3.34461,-3.49759 -3.04693,-1.95813 -7.5177,-2.03879 -10.67428,-0.19259 -1.44337,0.84423 -3.38085,3.00195 -4.12123,4.58986 -0.58066,1.245269 -0.64451,1.654059 -0.64747,4.147789 -0.003,2.64933 0.0305,2.83468 0.79157,4.38097 2.20414,4.47729 6.74017,6.56938 11.78058,5.43345 z"
   id="path11327" /><path
   style="fill:#333333;stroke-width:0.240116"
   d="m 27.041899,211.219 c -5.92815,-1.30722 -10.34387,-5.27016 -12.31206,-11.04958 l -0.65418,-1.92092 -0.0657,-85.72103 c -0.0729,-95.069857 -0.19436,-87.632367 1.48996,-91.239857 2.00008,-4.2838 5.33653,-7.21376 9.98125,-8.7652 1.14285,-0.38174 2.39656,-0.55672 4.68225,-0.65353 1.71683,-0.0727 3.05969,-0.0653 2.98415,0.0164 -0.0755,0.0817 -0.86178,0.41139 -1.74719,0.73254 -2.4847,0.90124 -3.83954,1.77007 -5.87459,3.7673 -2.1196,2.0802 -2.92173,3.30923 -4.08227,6.25485 l -0.88471,2.24552 -0.0694,85.240807 c -0.0466,57.26781 0.0115,85.85634 0.17695,87.11652 0.27213,2.07255 1.25868,5.17635 1.74295,5.48358 0.17077,0.10833 0.22809,0.19862 0.12738,0.20064 -0.17923,0.004 0.79647,1.69241 1.38938,2.40483 0.56552,0.67952 2.40921,2.52129 2.9396,2.93654 1.66231,1.30145 4.51442,2.67185 6.1718,2.96545 1.40379,0.24868 0.88534,0.3407 -1.81358,0.32191 -1.50773,-0.0105 -3.38963,-0.16205 -4.18201,-0.33679 z"
   id="path11329" /><path
   style="fill:#333333;stroke-width:0.240116"
   d="m 109.0413,190.19258 c -10.285413,-0.74525 -19.857981,-3.33967 -29.174021,-7.90693 -5.06775,-2.4845 -8.61328,-4.65034 -12.94792,-7.90949 -16.70571,-12.56071 -27.73852,-30.99109 -30.86553,-51.56108 -3.32853,-21.89561 2.61371,-44.019416 16.51154,-61.474776 2.67835,-3.36394 9.04976,-9.740222 12.41472,-12.424192 24.28294,-19.368479 57.399761,-22.907249 85.000871,-9.08295 11.56339,5.79161 21.64782,14.35646 29.04863,24.671312 1.66508,2.32074 5.65824,9.02549 7.15022,12.00575 1.55848,3.11306 3.61646,8.4303 4.70916,12.16696 3.14931,10.76995 3.95471,22.711326 2.29626,34.046226 -1.18662,8.10999 -4.30145,17.63961 -8.13492,24.88799 -4.05283,7.66312 -8.16915,13.20049 -14.52819,19.54357 -5.4215,5.40793 -10.58746,9.34769 -17.11928,13.05581 -13.21852,7.50425 -29.13319,11.0852 -44.36154,9.9818 z m 14.54332,-17.4962 c 13.26351,-1.96735 25.34815,-8.01382 34.82599,-17.425 10.81045,-10.7344 16.88719,-23.60408 18.36852,-38.90207 0.34355,-3.54808 0.14378,-11.06942 -0.38268,-14.4069 -2.23134,-14.145286 -8.26964,-25.923246 -18.28269,-35.661136 -5.03167,-4.89345 -9.54643,-8.13273 -15.57636,-11.175812 -10.38725,-5.24207 -22.39698,-7.47185 -34.11476,-6.33391 -8.647163,0.83974 -17.975371,3.89502 -25.516361,8.357402 -8.32495,4.92628 -16.07123,12.48003 -21.33218,20.80196 -4.28561,6.77917 -7.44676,15.42366 -8.74934,23.926116 -0.63599,4.15097 -0.76267,12.77951 -0.24275,16.53326 2.5036,18.07514 11.55763,33.22246 25.98429,43.47148 8.85132,6.28819 19.517848,10.21322 30.595071,11.2583 3.47442,0.3278 10.72587,0.10472 14.42325,-0.44369 z"
   id="path11331" /><path
   style="fill:#333333;stroke-width:0.240116"
   d="m 35.445929,198.50997 c -1.83345,-0.45504 -3.5579,-1.44263 -4.90037,-2.80644 -4.74215,-4.81753 -3.35452,-12.71542 2.76547,-15.74008 5.07597,-2.50868 10.87738,-0.37721 13.37906,4.91554 0.68713,1.45375 0.75754,1.81739 0.75222,3.88497 -0.005,1.80593 -0.12045,2.56879 -0.55593,3.66225 -1.19929,3.01125 -3.89463,5.34011 -6.99718,6.04577 -1.93136,0.43928 -2.79661,0.44668 -4.44327,0.038 z"
   id="path11333" /><path
   style="fill:#333333;stroke-width:0.240116"
   d="m 36.116629,44.212192 c -5.23284,-0.7641 -9.2291,-6.23998 -8.27968,-11.34523 0.61088,-3.284839 2.72564,-6.060099 5.74865,-7.544079 1.26002,-0.61854 1.60993,-0.67749 4.02137,-0.67749 2.48144,0 2.73572,0.0463 4.20202,0.76422 3.75115,1.83672 6.00688,5.666779 5.69923,9.676839 -0.44436,5.79197 -5.65205,9.96382 -11.39159,9.12574 z"
   id="path11335" /><path
   style="fill:#333333;stroke-width:0.240116"
   d="m 189.00996,44.186562 c -3.0337,-0.51464 -5.97176,-2.76383 -7.33413,-5.6145 -0.98206,-2.05483 -1.13662,-5.24015 -0.35875,-7.39218 0.98628,-2.728789 2.72252,-4.604479 5.44095,-5.878009 1.24782,-0.58457 1.67743,-0.65648 3.92249,-0.65648 2.33725,0 2.63933,0.0559 4.13976,0.76672 2.09487,0.99235 3.82586,2.72331 4.81817,4.81818 0.71767,1.514969 0.76676,1.787579 0.76676,4.259819 0,2.38907 -0.0624,2.76821 -0.65358,3.97084 -2.04749,4.16519 -6.36714,6.4677 -10.74167,5.72561 z"
   id="path11337" /><path
   style="fill:#4d4d4d;stroke-width:0.240116"
   d="m 188.80193,198.59186 c -2.89083,-0.56889 -5.63851,-2.6927 -7.03061,-5.4343 -0.78117,-1.53846 -0.81547,-1.71757 -0.81547,-4.26039 0,-2.48703 0.0484,-2.75649 0.76668,-4.27297 0.98294,-2.07492 2.63719,-3.72848 4.77073,-4.76866 1.57035,-0.76564 1.81094,-0.81231 4.18726,-0.81231 2.36093,0 2.62389,0.0501 4.1353,0.78748 2.14241,1.04524 3.85091,2.74179 4.81878,4.7852 0.72209,1.52443 0.77061,1.79311 0.77061,4.26811 0,2.52064 -0.0372,2.71497 -0.80999,4.2552 -1.42417,2.83783 -4.12139,4.87917 -7.22418,5.46761 -1.45541,0.27601 -2.1043,0.27329 -3.56911,-0.015 z"
   id="path11339" /><path
   style="fill:#b3b3b3;stroke-width:0.240116"
   d="m 102.31753,170.04883 c -6.601263,-2.15968 -13.411171,-5.80592 -19.088621,-10.22062 -4.27078,-3.32088 -9.56177,-8.89454 -12.44739,-13.11234 l -1.31643,-1.92419 0.4539,-1.58718 c 0.73134,-2.55731 1.63637,-4.79845 3.12814,-7.74605 3.28241,-6.48588 7.7826,-11.81795 13.68177,-16.21089 l 2.50288,-1.86384 3.721728,0.13695 c 2.04703,0.0753 4.53801,0.26224 5.53551,0.41539 1.767663,0.27137 1.830143,0.3045 2.463563,1.30566 1.07867,1.70505 2.46651,3.13141 4.19781,4.31434 1.69761,1.15993 5.14914,2.52629 6.41207,2.53837 1.33331,0.0127 1.49429,0.33869 0.64503,1.30596 -2.17,2.47146 -5.0128,7.35437 -6.65502,11.43097 -2.23749,5.5541 -3.25404,10.94454 -3.25364,17.25328 2.5e-4,4.49956 0.39213,7.64098 1.46795,11.76833 0.39288,1.50718 0.68663,2.76802 0.65276,2.80187 -0.034,0.0339 -0.97976,-0.23886 -2.10201,-0.60601 z"
   id="path11341" /><path
   style="fill:#b3b3b3;stroke-width:0.240116"
   d="m 100.73048,102.17285 c -0.0854,-0.24781 -0.58073,-1.43981 -1.100833,-2.648906 -3.69278,-8.58439 -10.479918,-16.20121 -18.799308,-21.09744 -2.28668,-1.34578 -6.12994,-3.14577 -7.92637,-3.71236 -0.5283,-0.1666 -1.0577,-0.39247 -1.17651,-0.50193 -0.59283,-0.54617 6.44264,-8.13326 10.767,-11.61122 5.0311,-4.04636 11.938948,-8.008702 17.374858,-9.966132 2.028403,-0.73042 2.291833,-0.7736 2.868993,-0.4702 1.17947,0.62003 6.57454,6.059982 8.35798,8.427612 5.23168,6.94504 8.33972,14.82786 9.21112,23.36151 l 0.22067,2.16104 -1.09779,1.92091 c -1.38605,2.42536 -2.71704,4.42044 -4.12433,6.18207 -1.05335,1.31865 -1.151,1.3798 -2.20432,1.38066 -1.64698,0.002 -4.58742,0.8336 -6.50464,1.84109 -1.82532,0.95918 -3.94489,2.749206 -5.03607,4.253066 -0.58466,0.80578 -0.69614,0.87027 -0.83045,0.48023 z"
   id="path11343" /><path
   style="fill:#b3b3b3;stroke-width:0.240116"
   d="m 146.37289,133.64956 c -4.18064,-0.61064 -8.75428,-1.97875 -12.68242,-3.79368 -1.62853,-0.75241 -1.7986,-0.90643 -2.71911,-2.46235 -1.19417,-2.0185 -2.68763,-5.01665 -3.43078,-6.88723 l -0.55045,-1.38566 0.73767,-1.64978 c 1.90517,-4.26073 1.8891,-8.91881 -0.0456,-13.23963 -0.14903,-0.33303 0.0437,-0.34077 1.82161,-0.0731 2.85685,0.43008 9.79924,0.40355 12.88276,-0.0493 11.03492,-1.62042 21.30549,-7.290206 28.44046,-15.700356 0.61033,-0.71942 1.17732,-1.24046 1.25986,-1.15787 0.33899,0.33897 2.34818,6.50671 2.99343,9.18912 1.08417,4.506576 1.46142,7.531346 1.60236,12.846156 0.17073,6.43212 -0.33399,11.17324 -1.81461,17.04816 l -0.6354,2.5212 -1.32065,0.6548 c -3.85323,1.91052 -8.9534,3.47546 -13.47731,4.13539 -3.11068,0.45379 -9.96845,0.45594 -13.0618,0.004 z"
   id="path11345" /><path
   style="fill:#999999;stroke-width:0.240116"
   d="m 61.312199,126.15342 c -2.79495,-11.25414 -2.4304,-23.1718 1.0445,-34.145596 0.56147,-1.7731 0.98834,-2.72327 1.29783,-2.88891 0.8295,-0.44392 6.03603,-1.20834 9.23735,-1.35623 6.80289,-0.31427 13.8964,1.04289 20.421808,3.90721 l 2.4012,1.05397 1.31453,2.21812 c 1.24257,2.09665 3.601503,7.182296 3.605823,7.773846 0.001,0.15025 -0.32409,0.97009 -0.722693,1.82188 -0.85594,1.82905 -1.42634,4.32202 -1.43218,6.25905 -0.005,1.69305 0.57116,4.59406 1.20726,6.07801 0.25817,0.6023 0.469413,1.11986 0.469413,1.15011 0,0.0303 -0.783443,-0.0807 -1.740853,-0.24647 -0.95747,-0.16582 -3.11014,-0.3696 -4.78374,-0.45285 -10.465698,-0.52057 -21.636168,3.09519 -30.147848,9.75863 -0.82261,0.64394 -1.53048,1.17081 -1.57303,1.17081 -0.0426,0 -0.31232,-0.94571 -0.59937,-2.10158 z"
   id="path11347" /><path
   style="fill:#808080;stroke-width:0.240116"
   d="m 133.77324,104.3101 c -0.72641,-0.0294 -2.43034,-0.18069 -3.7865,-0.33618 l -2.46583,-0.28273 -1.06133,-1.48731 c -2.3478,-3.290126 -5.78633,-5.516216 -9.76253,-6.320086 l -2.06893,-0.41829 0.70721,-0.8335 c 1.4915,-1.75782 4.29847,-6.23154 5.57005,-8.87736 1.59042,-3.30942 2.99955,-7.52217 3.7748,-11.2854 0.51097,-2.48003 0.56831,-3.37283 0.56315,-8.76419 -0.006,-5.59867 -0.0492,-6.20498 -0.65124,-9.004322 -0.35503,-1.65078 -0.96949,-3.96921 -1.36535,-5.15205 -0.39586,-1.18283 -0.67643,-2.19397 -0.62346,-2.24696 0.1399,-0.1399 4.48622,0.62179 6.72777,1.17905 10.56439,2.62636 20.12388,7.875762 28.18611,15.477812 l 2.01351,1.8986 -0.14396,2.16548 c -0.41457,6.23464 -2.9908,13.9583 -6.58649,19.74678 -2.96132,4.76729 -7.08631,9.28033 -11.53369,12.618836 -2.29777,1.72482 -2.55938,1.85786 -3.72179,1.8928 -0.68769,0.0207 -1.52043,0.0477 -1.85066,0.06 -0.3301,0.0123 -1.19454,-0.002 -1.92084,-0.031 z"
   id="path11349" /><path
   style="fill:#808080;stroke-width:0.240116"
   d="m 125.60926,170.19887 c -10.26072,-7.60375 -16.93469,-19.45264 -18.21539,-32.33928 -0.19368,-1.94898 -0.17302,-2.1005 0.45755,-3.3616 0.78654,-1.57306 3.13137,-5.15984 4.48199,-6.85582 l 0.96605,-1.21311 2.20246,-0.29324 c 4.32758,-0.57617 8.25394,-2.73351 10.39105,-5.70931 0.86092,-1.19891 1.05956,-1.27874 1.28228,-0.51551 0.55917,1.91594 3.20718,7.1406 4.89943,9.6667 6.70006,10.00166 18.1532,17.4518 29.8358,19.40785 l 1.67914,0.28114 -2.40221,2.76051 c -7.52751,8.65025 -17.76225,15.18026 -29.09502,18.56334 -4.47003,1.33439 -4.12587,1.35517 -6.48313,-0.39167 z"
   id="path11351" /><path
   style="fill:#808080;stroke-width:0.240116"
   d="m 56.337619,132.66405 c -0.54339,-1.30047 -1.49066,-4.39576 -2.138,-6.98595 -2.49672,-9.98994 -2.36726,-21.06627 0.36182,-30.964956 l 0.74079,-2.68708 1.97824,-0.82809 c 2.48064,-1.03842 5.36525,-1.97496 5.54115,-1.79905 0.0735,0.0734 -0.0238,0.60718 -0.21612,1.18604 -2.34935,7.07143 -3.29437,12.927386 -3.29154,20.395776 0.002,6.00343 0.68697,11.37364 2.06721,16.21518 l 0.34838,1.22202 -2.51989,2.54444 -2.51992,2.54443 z"
   id="path11353" /><path
   style="fill:#80b3ff;stroke-width:0.240116"
   d="m 67.695139,141.90923 c -1.53462,-2.68651 -3.0267,-5.77733 -4.04144,-8.37171 -1.03637,-2.6499 -1.70336,-4.8692 -1.51149,-5.02916 6.1115,-5.09328 12.93489,-8.44538 20.48639,-10.06432 2.7442,-0.58831 5.7481,-0.91441 5.4026,-0.5865 -0.13206,0.12534 -1.15853,0.93757 -2.28108,1.80494 -3.01612,2.33049 -4.8216,4.04477 -6.98778,6.6347 -4.17996,4.99773 -7.31099,10.73012 -8.9368,16.36155 l -0.57151,1.9795 z"
   id="path11355" /><path
   style="fill:#80b3ff;stroke-width:0.240116"
   d="m 93.193627,91.372304 c -6.507518,-2.94325 -14.733108,-4.34528 -21.905878,-3.73384 -1.88444,0.16065 -4.39871,0.49536 -5.58729,0.74381 -1.18855,0.24846 -2.18209,0.43113 -2.20785,0.40595 -0.12364,-0.12084 2.1568,-5.16027 3.28687,-7.26351 1.45934,-2.71612 4.26561,-7.05547 4.56272,-7.05547 0.47821,0 4.66896,1.72973 6.85712,2.83028 6.12825,3.08219 11.59192,7.61658 15.757468,13.07734 0.78073,1.02348 1.33364,1.84942 1.22863,1.83541 -0.10499,-0.014 -1.00122,-0.39199 -1.99179,-0.83997 z"
   id="path11564" /><path
   style="fill:#80b3ff;stroke-width:0.240116"
   d="m 120.50006,83.797574 c -0.54562,-7.73118 -4.22227,-16.97681 -9.46017,-23.78922 -1.56262,-2.03235 -4.65035,-5.226302 -6.57376,-6.799902 -0.92989,-0.76076 -1.60112,-1.47275 -1.49169,-1.58221 0.33267,-0.33265 5.51492,-1.60254 8.82814,-2.16332 3.13232,-0.53013 8.39226,-0.72978 9.77326,-0.37095 0.5786,0.15034 0.73897,0.44781 1.48157,2.74813 1.44934,4.48947 1.88502,7.261042 2.01153,12.793862 0.0863,3.77687 0.0216,5.55287 -0.27623,7.58399 -0.62804,4.28245 -1.83803,8.50349 -3.46483,12.08732 l -0.68549,1.50997 z"
   id="path11566" /><path
   style="fill:#80b3ff;stroke-width:0.240116"
   d="m 139.76764,103.82512 c 3.49034,-2.48886 7.37761,-6.062616 9.7225,-8.938386 4.08421,-5.00892 7.41208,-11.66064 8.99968,-17.9884 0.56883,-2.26731 1.21277,-6.33678 1.22484,-7.74027 l 0.01,-1.05186 0.85008,0.96046 c 3.9256,4.43499 7.29107,9.37058 9.73363,14.27481 l 1.60844,3.22952 -0.44301,0.62224 c -0.85787,1.20468 -3.74588,4.18836 -5.76432,5.95518 -6.76577,5.92238 -16.29954,10.085146 -25.09206,10.956036 -1.42393,0.14104 -1.43384,0.1378 -0.84883,-0.27933 z"
   id="path11568" /><path
   style="fill:#80b3ff;stroke-width:0.240116"
   d="m 161.35438,148.66686 c -9.15997,-1.9088 -17.41697,-6.3401 -23.71275,-12.72596 -2.14923,-2.17999 -5.20919,-5.94496 -5.00098,-6.15319 0.069,-0.069 0.54119,0.0849 1.04923,0.34215 1.60497,0.81261 5.49294,2.18339 7.96603,2.80856 3.66988,0.92772 6.97915,1.31065 11.32645,1.31065 7.02083,0 12.91079,-1.2393 18.93289,-3.98368 0.9774,-0.4454 1.82933,-0.80982 1.89316,-0.80982 0.69411,0 -3.33014,9.1922 -5.87995,13.43079 -1.21891,2.02625 -4.19482,6.25842 -4.38096,6.2305 -0.066,-0.01 -1.05294,-0.2124 -2.19312,-0.45 z"
   id="path11570" /><path
   style="fill:#80b3ff;stroke-width:0.240116"
   d="m 112.16276,172.41386 c -1.65074,-0.25284 -3.97314,-0.70529 -5.16083,-1.00545 l -2.15947,-0.54574 -0.66776,-2.39478 c -2.82054,-10.11475 -2.12363,-20.69668 2.00779,-30.48824 l 0.81062,-1.92092 0.17747,1.92092 c 0.47559,5.14648 2.09958,10.89098 4.43091,15.67348 3.16177,6.48602 7.7419,12.07958 13.45131,16.42766 1.23397,0.93978 2.21231,1.74 2.17404,1.77827 -0.0385,0.0383 -1.57942,0.29123 -3.42484,0.56214 -4.12206,0.60515 -7.65483,0.60292 -11.63924,-0.007 z"
   id="path11572" /><path
   style="fill:#666666;stroke-width:0.240116"
   d="m 110.84214,125.71776 c -5.23458,-1.03108 -9.66738,-5.12364 -11.555973,-10.66908 -0.3449,-1.01271 -0.44707,-1.99246 -0.43821,-4.20202 0.0105,-2.48737 0.0979,-3.1222 0.64331,-4.64253 1.696163,-4.72828 5.286813,-8.247146 9.910193,-9.712046 2.38411,-0.75539 6.50018,-0.75539 8.88429,0 5.98172,1.89529 10.22861,7.292886 10.60617,13.479916 0.45733,7.49441 -4.88758,14.37461 -12.24806,15.76616 -2.25236,0.42581 -3.55964,0.42122 -5.80172,-0.0204 z m 4.99013,-10.28028 c 2.61098,-1.12034 3.66873,-4.5921 2.1772,-7.14597 -1.78722,-3.06008 -6.80408,-2.9688 -8.43301,0.15344 -1.33034,2.55001 -0.27402,5.86358 2.22612,6.9828 0.94397,0.42255 3.05572,0.42765 4.02969,0.01 z"
   id="path11574" /><path
   style="fill:#4d4d4d;stroke-width:0.240116"
   d="m 111.56961,114.98104 c -2.7657,-1.56646 -3.20435,-5.33815 -0.86643,-7.45033 0.85933,-0.77638 2.21176,-1.36361 3.14044,-1.36361 0.92865,0 2.28106,0.58723 3.14043,1.36361 3.14365,2.84012 1.1195,7.99029 -3.14043,7.99029 -0.92663,0 -1.60511,-0.16109 -2.27401,-0.53996 z"
   id="path11576" /><path
   style="fill:#4d4d4d;stroke-width:0.240116"
   d="m 55.495569,91.657274 c 0,-0.31132 1.37934,-3.92232 2.28058,-5.97039 1.80925,-4.11147 6.1442,-11.33942 7.45154,-12.4244 0.30526,-0.25331 0.85478,-0.18949 3.11713,0.36196 1.51059,0.36821 2.70233,0.73594 2.64831,0.81717 -2.61561,3.93018 -3.62705,5.65619 -5.29281,9.03194 -1.10777,2.24507 -2.08512,4.37588 -2.17181,4.73513 -0.13895,0.57585 -0.39607,0.72592 -2.17179,1.26754 -1.10778,0.3379 -2.87973,0.97941 -3.93766,1.42558 -1.05793,0.44618 -1.92349,0.78614 -1.92349,0.75547 z"
   id="path11578" /><path
   style="fill:#4d4d4d;stroke-width:0.240116"
   d="m 66.740079,150.55745 c -3.6796,-4.35144 -7.38294,-10.44666 -9.63672,-15.86061 l -0.36705,-0.88166 2.54041,-2.56824 2.54042,-2.56824 0.88099,2.6095 c 1.18691,3.51549 2.95548,7.39364 4.89529,10.73405 l 1.6052,2.76433 -0.48844,2.39701 c -0.26869,1.31836 -0.49612,2.7042 -0.50536,3.07964 -0.01,0.37545 -0.0968,0.88603 -0.19437,1.13463 -0.1538,0.39154 -0.3237,0.27913 -1.27037,-0.84041 z"
   id="path11580" /><path
   style="fill:#4d4d4d;stroke-width:0.240116"
   d="m 101.52868,50.915792 -0.89111,-0.64616 2.70113,-0.49839 c 3.62307,-0.6685 6.91927,-1.00189 9.4749,-0.95832 1.1608,0.0198 1.78637,0.0774 1.3902,0.12809 -2.39588,0.30639 -7.53705,1.35644 -9.49374,1.93903 l -2.29028,0.68191 z"
   id="path11582" /><path
   style="fill:#4d4d4d;stroke-width:0.240116"
   d="m 68.815459,73.539624 c -1.31705,-0.31889 -2.59089,-0.64747 -2.83081,-0.73017 -0.37107,-0.12788 -0.19253,-0.43683 1.19374,-2.06663 3.7284,-4.38337 8.70184,-8.77514 13.5293,-11.94691 3.62936,-2.384612 10.0212,-5.457762 14.286858,-6.869032 4.80739,-1.5905 5.191493,-1.65215 6.129973,-0.98394 0.41265,0.29387 0.66095,0.61294 0.55172,0.70903 -0.1092,0.0961 -1.38715,0.63483 -2.839873,1.19719 -5.42502,2.10011 -11.702388,5.741542 -16.447528,9.541102 -2.81292,2.25233 -6.97814,6.44287 -9.26666,9.32285 l -1.91206,2.40634 z"
   id="path11584" /><path
   style="fill:#4d4d4d;stroke-width:0.240116"
   d="m 102.55819,171.96359 c -6.842353,-1.42955 -12.978621,-3.72248 -18.608941,-6.95358 -5.01314,-2.8769 -8.46464,-5.50813 -12.92649,-9.85422 l -2.84158,-2.76793 0.15225,-1.32129 c 0.25141,-2.18028 0.88706,-5.51866 1.07275,-5.63341 0.0955,-0.059 0.72337,0.68347 1.39529,1.64999 2.86972,4.12787 8.23194,9.74976 12.30738,12.9034 5.38151,4.16428 12.155828,7.84514 18.294661,9.94049 2.98297,1.01816 3.3099,1.18633 3.52923,1.8156 0.28396,0.81465 0.41071,0.80286 -2.37455,0.22095 z"
   id="path11586" /><path
   style="fill:#4d4d4d;stroke-width:0.240116"
   d="m 56.337469,132.43601 c -0.66366,-1.56755 -2.02471,-6.50621 -2.63811,-9.57206 -0.83075,-4.15241 -1.08548,-6.96173 -1.08321,-11.9478 0.003,-6.18979 0.5279,-10.43364 1.96602,-15.890036 l 0.75238,-2.85435 1.46116,-0.65306 c 1.7413,-0.77826 5.04143,-1.92222 5.54526,-1.92222 0.46863,0 0.48816,-0.12446 -0.49783,3.17323 -2.02889,6.78587 -2.61291,11.525356 -2.44028,19.802396 0.13069,6.26589 0.37342,8.34073 1.54756,13.22902 l 0.65052,2.70861 -2.43284,2.43287 -2.43291,2.43287 z"
   id="path11588" /><path
   style="fill:#4d4d4d;stroke-width:0.240116"
   d="m 107.36048,189.94426 c -14.668453,-1.40109 -28.939601,-7.019 -40.793471,-16.05857 -17.90716,-13.65571 -28.95909,-33.76166 -31.01483,-56.42296 -0.36235,-3.99431 -0.16558,-12.9417 0.3693,-16.79192 1.78916,-12.879276 6.47238,-24.794496 13.93184,-35.445986 3.06862,-4.38174 6.71818,-8.468272 11.52509,-12.905052 12.20694,-11.26703 27.60585,-18.24354 44.661451,-20.23401 3.95316,-0.46135 12.17734,-0.52941 16.08774,-0.13315 18.53917,1.8787 35.55236,9.9648 48.68985,23.14157 5.45859,5.474912 8.7199,9.903442 13.58545,18.447832 4.28402,7.52308 7.26752,16.47333 8.71328,26.13931 0.63075,4.216826 0.87064,13.974206 0.45563,18.531106 -1.34008,14.71419 -7.40754,30.04236 -16.31169,41.20779 -14.06962,17.64295 -32.92568,28.09344 -54.89243,30.42282 -3.58312,0.37996 -11.52798,0.43355 -15.00721,0.10122 z m 16.32789,-17.1535 c 13.74665,-2.11327 25.84016,-8.31173 35.42493,-18.1568 3.57668,-3.6739 5.41389,-5.92774 7.96246,-9.7682 4.03013,-6.073 7.23387,-13.91642 8.69748,-21.29301 1.1115,-5.60234 1.30039,-7.95717 1.15588,-14.40574 -0.10785,-4.81152 -0.23095,-6.29953 -0.74496,-9.00546 C 173.61688,86.647764 168.05369,76.041824 158.61441,66.665504 148.3625,56.482052 135.92916,50.498332 121.40723,48.759102 c -3.04464,-0.36464 -11.09736,-0.36469 -13.92669,-10e-5 -11.967123,1.54212 -22.991121,6.16567 -31.935341,13.393872 -2.91516,2.35587 -8.33138,7.84921 -10.48618,10.63557 -4.79148,6.19574 -8.31721,13.19167 -10.54827,20.93061 -1.65702,5.74748 -2.37501,11.187386 -2.37623,18.002606 -0.002,13.59693 5.11499,27.74447 14.03131,38.79079 4.77365,5.91404 11.96883,11.81595 18.94053,15.53612 6.647998,3.54747 14.974031,6.1565 22.614301,7.08637 2.80601,0.34151 12.92633,0.12337 15.96771,-0.34418 z"
   id="path13931" /><path
   style="fill:#999999;stroke-width:0.240116"
   d="m 130.19657,103.90558 c -2.44669,-0.27152 -2.50813,-0.29348 -3.10497,-1.11009 -0.33493,-0.45819 -1.48075,-1.69846 -2.54635,-2.75614 -2.22682,-2.210276 -4.42767,-3.443736 -7.34003,-4.113636 -0.9905,-0.22783 -1.88811,-0.48712 -1.99475,-0.57621 -0.10665,-0.0891 0.39185,-0.94071 1.10794,-1.8925 3.92677,-5.2198 6.83071,-11.65995 8.38567,-18.59709 0.49442,-2.20608 0.545,-3.04417 0.545,-9.03481 0,-7.23728 -0.0807,-7.88542 -1.66923,-13.403212 -0.44407,-1.5425 -0.75845,-2.8545 -0.69865,-2.91556 0.20345,-0.20771 5.1631,0.74301 8.15793,1.56381 9.62357,2.63754 18.54293,7.714812 26.58243,15.131862 l 1.83999,1.69754 -0.24701,2.60691 c -0.77363,8.16496 -4.10513,16.46067 -9.30192,23.16259 -3.04948,3.93265 -8.88483,9.255286 -11.21362,10.228316 -0.99543,0.41592 -4.79539,0.41959 -8.50243,0.008 z"
   id="path13933" /><path
   style="fill:#808080;stroke-width:0.240116"
   d="m 126.68977,170.85083 c -1.8039,-1.2321 -4.56021,-3.63879 -6.64076,-5.79845 -5.40862,-5.61428 -9.26271,-12.51378 -11.24749,-20.13487 -0.81607,-3.13353 -1.53817,-8.02634 -1.34006,-9.07982 0.21929,-1.16597 2.67096,-5.09572 5.52638,-8.8582 0.22272,-0.29343 0.86534,-0.50888 1.97364,-0.66172 4.58944,-0.63284 8.59455,-2.6874 10.75096,-5.51502 0.92016,-1.20659 1.33751,-1.47195 1.33751,-0.85041 0,0.83604 4.40985,9.03452 6.01575,11.18404 6.44011,8.62021 16.66272,15.31811 26.63995,17.45456 1.51878,0.32521 2.94901,0.66395 3.17846,0.75276 0.34104,0.13204 -0.0559,0.68666 -2.17783,3.04285 -7.24557,8.04544 -16.54123,14.0758 -27.0407,17.54202 -5.14568,1.69876 -5.72651,1.77555 -6.97581,0.92226 z"
   id="path13935" /><path
   style="fill:#808080;stroke-width:0.240116"
   d="m 101.59772,169.68109 c -6.992243,-2.44521 -14.296491,-6.55274 -19.670651,-11.06176 -4.06597,-3.4114 -10.09578,-10.11766 -11.90917,-13.24517 l -0.44609,-0.76939 0.91534,-2.78266 c 1.20171,-3.6533 3.26564,-7.79616 5.70463,-11.45084 2.35181,-3.52401 7.14792,-8.50822 10.80296,-11.22664 l 2.32519,-1.72933 4.586128,0.26797 c 2.52235,0.14739 4.71761,0.30822 4.87834,0.35739 0.16065,0.0492 0.57739,0.15154 0.92612,0.22748 0.419283,0.0913 0.893023,0.54178 1.399063,1.33039 1.23446,1.92369 3.60208,3.96282 5.83374,5.02432 2.10412,1.00083 3.52233,1.46529 4.49908,1.47345 1.36407,0.0114 1.35147,0.33393 -0.0873,2.24563 -3.84883,5.11394 -6.84357,11.76282 -8.22681,18.26517 -0.51167,2.4051 -0.638,3.76625 -0.74284,8.00197 -0.14273,5.76629 0.0796,8.19055 1.15499,12.59434 0.75463,3.09025 0.79098,3.32116 0.51847,3.2936 -0.099,-0.01 -1.20657,-0.37719 -2.46118,-0.81592 z"
   id="path13989" /><path
   style="fill:#808080;stroke-width:0.240116"
   d="m 100.73105,101.95508 c -0.57178,-1.57464 -2.358793,-5.369566 -3.236843,-6.873676 -3.37745,-5.7858 -7.806518,-10.60501 -13.544958,-14.73811 -2.27087,-1.63559 -8.29833,-4.80768 -10.48218,-5.5165 -0.70592,-0.22912 -1.37938,-0.50461 -1.4966,-0.61221 -0.32427,-0.29762 0.47973,-1.40866 3.23452,-4.46984 4.57071,-5.0791 10.19069,-9.58401 16.232108,-13.011492 4.09436,-2.32286 9.444913,-4.5947 10.821313,-4.5947 1.0186,0 7.86788,7.060922 10.11274,10.425192 4.38582,6.57283 7.26132,14.51846 7.86228,21.72537 l 0.16315,1.95569 -1.63454,2.69633 c -0.89898,1.48298 -2.26666,3.52908 -3.03932,4.54689 -1.49529,1.96984 -1.33049,1.88088 -4.15686,2.24404 -3.56538,0.45812 -7.75511,2.90878 -10.02348,5.862846 -0.58362,0.76012 -0.65467,0.79167 -0.81133,0.36017 z"
   id="path13991" /><path
   style="fill:#999999;stroke-width:0.240116"
   d="m 146.61935,133.60734 c -3.48026,-0.47514 -9.174,-2.16526 -12.68576,-3.76559 -1.47454,-0.67199 -1.93052,-1.01655 -2.46889,-1.86579 -1.04981,-1.6558 -2.63341,-4.71602 -3.54355,-6.84764 l -0.8387,-1.9642 0.70052,-1.66722 c 1.63451,-3.89021 1.85759,-7.94609 0.63653,-11.57259 -0.33351,-0.99048 -0.58561,-1.82229 -0.56017,-1.84848 0.0255,-0.0262 0.85321,0.0651 1.83948,0.20288 1.02213,0.14279 4.11646,0.20582 7.19585,0.14659 6.1099,-0.11754 8.26397,-0.46125 13.32642,-2.12639 7.31193,-2.405016 13.69579,-6.483646 19.19578,-12.264016 1.39823,-1.46953 2.60023,-2.61394 2.67104,-2.54312 0.25777,0.25777 2.25586,6.49345 2.8483,8.88911 1.1882,4.804366 1.38603,6.508606 1.51389,13.035356 0.13387,6.83467 -0.14005,10.15117 -1.24016,15.01671 -1.10867,4.90348 -0.68454,4.29759 -3.99886,5.7124 -3.61595,1.54355 -6.98304,2.5572 -10.50883,3.16359 -2.20633,0.37947 -3.73767,0.46185 -8.04383,0.43272 -2.92524,-0.0198 -5.64286,-0.0802 -6.03906,-0.13432 z"
   id="path13993" /><path
   style="fill:#999999;stroke-width:0.240116"
   d="m 126.68977,170.84892 c -2.98369,-2.04387 -7.43959,-6.30834 -9.75716,-9.33801 -5.24101,-6.85132 -8.68358,-15.50484 -9.46606,-23.79482 -0.2034,-2.15432 0.11993,-2.93949 2.90686,-7.05994 2.91144,-4.30452 2.60935,-4.04374 5.16194,-4.45658 4.1911,-0.67785 7.13671,-2.17798 9.6884,-4.93403 1.57425,-1.70036 1.8262,-1.88493 1.8262,-1.33786 0,0.53186 3.23651,6.87397 4.65884,9.12929 3.23293,5.12625 8.53207,10.28094 14.15155,13.76583 4.51726,2.80133 9.28698,4.74554 14.53285,5.92379 1.50056,0.33706 2.76461,0.64902 2.80881,0.69323 0.0442,0.0442 -1.09515,1.38831 -2.53195,2.98685 -7.46251,8.30255 -16.85088,14.28772 -27.97736,17.83585 -4.25003,1.35527 -4.80178,1.40917 -6.00292,0.5864 z"
   id="path13995" /><path
   style="fill:#808080;stroke-width:0.240116"
   d="m 143.73796,132.95234 c -4.4474,-1.06069 -9.62055,-2.91739 -11.21815,-4.02631 -0.77508,-0.53801 -2.87903,-4.18562 -4.28867,-7.43533 l -1.00729,-2.32218 0.64149,-1.60243 c 0.95569,-2.38731 1.33815,-4.30824 1.3421,-6.74105 0.003,-1.91067 -0.46489,-4.60657 -1.05903,-6.10131 -0.12541,-0.31534 0.76126,-0.36051 7.12288,-0.36285 8.29113,-0.003 9.34786,-0.14092 14.77888,-1.92807 7.35972,-2.42184 13.25943,-6.125106 18.89992,-11.863586 1.32065,-1.34358 2.58063,-2.54294 2.79996,-2.66526 0.34541,-0.19262 0.54539,0.2353 1.49374,3.19624 1.23385,3.85249 2.1442,7.3603 2.60084,10.021806 0.44004,2.56499 0.42693,17.23776 -0.0177,19.68942 -0.70594,3.89334 -1.51316,7.11158 -1.92714,7.68368 -0.5942,0.82102 -5.83628,2.91879 -10.05384,4.02334 l -3.29998,0.86425 -7.20352,0.0712 c -6.89196,0.0681 -7.30721,0.0464 -9.60456,-0.50152 z"
   id="path13997" /><path
   style="fill:#2a7fff;stroke-width:0.240116"
   d="m 112.28282,172.29481 c -2.54298,-0.39413 -6.69229,-1.29779 -7.0913,-1.54438 -0.29698,-0.18354 -0.97202,-2.38927 -1.57837,-5.15756 -0.53752,-2.45363 -1.03889,-6.89498 -1.04747,-9.27901 -0.0206,-5.72651 1.38261,-12.74992 3.57346,-17.88559 0.79637,-1.86677 0.75937,-1.91815 1.21861,1.69336 0.63746,5.01352 2.87367,11.55948 5.5433,16.22681 2.84095,4.96683 6.8336,9.62165 11.38028,13.26769 1.32464,1.06225 2.43937,2.008 2.47715,2.10165 0.0378,0.0936 -1.2588,0.3479 -2.88134,0.56499 -3.51993,0.47096 -8.59929,0.47623 -11.59432,0.012 z"
   id="path13999" /><path
   style="fill:#2a7fff;stroke-width:0.240116"
   d="m 159.58559,148.07991 c -8.7505,-2.25475 -15.79622,-6.19695 -21.69964,-12.14124 -1.75252,-1.7646 -5.13019,-5.78585 -4.98334,-5.93272 0.0409,-0.0409 0.7668,0.23799 1.61304,0.6198 2.13001,0.96101 6.37012,2.30006 9.22888,2.91453 3.02444,0.65008 11.27381,0.92725 14.89322,0.50039 4.54688,-0.53624 9.25945,-1.81351 13.02864,-3.53117 0.98217,-0.4476 1.82635,-0.81382 1.87583,-0.81382 0.49018,0 -1.28814,4.44665 -3.71819,9.29761 -1.3831,2.76087 -4.359,7.56628 -5.87789,9.49139 -0.44109,0.55906 -0.7208,0.5331 -4.36055,-0.40477 z"
   id="path14070" /><path
   style="fill:#2a7fff;stroke-width:0.240116"
   d="m 140.01617,103.94976 c 0,-0.0599 0.94547,-0.85522 2.10102,-1.76731 2.8943,-2.284476 6.65264,-6.063236 8.44763,-8.493426 4.95619,-6.71029 8.40829,-15.35527 9.05426,-22.67476 0.0829,-0.93912 0.22391,-1.84671 0.31345,-2.01687 0.10839,-0.20608 0.68741,0.31504 1.73421,1.56075 3.43676,4.08996 6.31877,8.47963 8.75003,13.32741 1.29607,2.58421 1.3132,2.64541 0.91325,3.25581 -0.66776,1.01907 -4.40812,4.80189 -6.34182,6.41378 -5.42166,4.51933 -13.03128,8.217536 -19.92962,9.685606 -2.45257,0.52195 -5.04241,0.8861 -5.04241,0.70901 z"
   id="path14072" /><path
   style="fill:#2a7fff;stroke-width:0.240116"
   d="m 120.49348,82.920624 c -0.46843,-6.07541 -3.53806,-14.37676 -7.54104,-20.39396 -1.99794,-3.00321 -5.23986,-6.703702 -7.7795,-8.879842 -1.04266,-0.89339 -1.8603,-1.7333 -1.81705,-1.86645 0.0981,-0.30185 4.22107,-1.39429 7.72635,-2.04723 3.40545,-0.63433 9.58792,-0.88582 10.44505,-0.42489 1.0273,0.55243 2.60963,5.8342 3.13427,10.462142 0.43452,3.833 0.17193,12.29976 -0.47282,15.24822 -0.83597,3.82264 -2.89399,9.77557 -3.37949,9.77557 -0.0942,0 -0.23621,-0.8431 -0.31577,-1.87356 z"
   id="path14074" /><path
   style="fill:#2a7fff;stroke-width:0.240116"
   d="m 93.022907,91.161114 c -3.319238,-1.50873 -8.107508,-2.79893 -12.555328,-3.38305 -4.50355,-0.59145 -12.27417,-0.2279 -16.20245,0.75802 l -0.6206,0.15577 0.50069,-1.27034 c 1.5858,-4.02319 6.61728,-12.71215 7.36128,-12.71215 0.68934,0 6.16289,2.39759 8.51887,3.73155 4.77494,2.70361 10.43063,7.55264 13.480168,11.55754 1.54317,2.0266 1.52333,2.07442 -0.48263,1.16266 z"
   id="path14076" /><path
   style="fill:#afdde9;stroke-width:0.240116"
   d="m 67.331109,140.92055 c -1.94249,-3.56967 -3.85406,-7.88887 -4.64737,-10.50066 l -0.52921,-1.74224 0.78901,-0.63153 c 4.0686,-3.25655 9.84783,-6.44741 14.62863,-8.07683 2.68592,-0.91543 7.78529,-2.03923 9.25322,-2.03923 h 0.89488 l -2.48265,1.98094 c -4.76613,3.80294 -8.47224,8.13432 -11.53613,13.48243 -1.56022,2.72345 -3.18607,6.49379 -3.94901,9.15787 -0.24434,0.8532 -0.49962,1.55105 -0.56734,1.55077 -0.0677,-2.4e-4 -0.90201,-1.43197 -1.85403,-3.18152 z"
   id="path14078" /><path
   style="fill:#afdde9;stroke-width:0.240116"
   d="m 111.6623,172.08014 c -1.00153,-0.16873 -2.85056,-0.54132 -4.10888,-0.82799 -2.64641,-0.60286 -2.50653,-0.43749 -3.42029,-4.04326 -1.2391,-4.88898 -1.70347,-11.94574 -1.08629,-16.50635 0.37306,-2.7567 1.33488,-6.94519 2.12943,-9.27331 0.84757,-2.4832 1.49748,-4.09626 1.60661,-3.98714 0.0455,0.0455 0.25072,1.21149 0.45624,2.5912 1.74456,11.71511 7.2858,21.46802 16.76998,29.51613 1.63514,1.38751 2.26306,2.05765 2.04099,2.17805 -1.27786,0.69278 -10.95991,0.9301 -14.38779,0.35267 z"
   id="path14212" /><path
   style="fill:#afdde9;stroke-width:0.240116"
   d="m 159.07883,147.82678 c -8.42471,-2.34654 -15.44217,-6.29579 -20.78887,-11.69941 -1.65457,-1.67217 -4.99697,-5.54336 -4.99697,-5.78748 0,-0.0756 0.5672,0.11289 1.26051,0.41899 1.85474,0.81879 6.457,2.26714 8.93868,2.81302 2.84517,0.62582 12.68567,0.90531 16.03812,0.45551 4.18098,-0.56096 8.41269,-1.81368 13.56179,-4.01469 0.47254,-0.20198 0.35744,0.4873 -0.39699,2.37801 -1.85792,4.65633 -4.10201,8.91339 -7.155,13.57274 -1.73719,2.65131 -1.78647,2.70103 -2.66167,2.68728 -0.4904,-0.008 -2.20024,-0.3785 -3.7996,-0.82397 z"
   id="path14214" /><path
   style="fill:#afdde9;stroke-width:0.240116"
   d="m 140.62847,103.56485 c 0.12543,-0.10913 1.20058,-1.01278 2.38915,-2.00811 8.02312,-6.718736 13.26057,-15.106116 15.85357,-25.388336 0.30749,-1.21939 1.04694,-5.92018 1.06988,-6.8016 0.0142,-0.53761 0.65975,0.074 2.48966,2.35815 2.6411,3.29669 4.85692,6.63081 6.90949,10.39672 2.30746,4.2334 2.34433,4.37518 1.43531,5.52286 -1.38478,1.74845 -6.17577,6.15458 -8.3879,7.71416 -3.95383,2.78743 -8.41111,5.025706 -13.09985,6.578186 -3.58359,1.18657 -9.41147,2.28221 -8.65931,1.62797 z"
   id="path14216" /><path
   style="fill:#afdde9;stroke-width:0.240116"
   d="m 120.70674,83.470814 c -0.65575,-5.35058 -2.20225,-10.55886 -4.59504,-15.47476 -2.63893,-5.42167 -5.22649,-8.94534 -9.96697,-13.572932 l -2.70223,-2.6378 1.66338,-0.52092 c 3.70208,-1.15944 7.72277,-1.81142 11.9987,-1.94565 4.89852,-0.15378 4.70214,-0.25977 5.81828,3.13971 1.4716,4.48186 1.60602,5.601512 1.60453,13.366642 -10e-4,5.94181 -0.0718,7.4114 -0.4385,9.11861 -0.47433,2.20824 -2.29441,7.92911 -2.87548,9.03802 l -0.35991,0.68691 z"
   id="path14218" /><path
   style="fill:#afdde9;stroke-width:0.240116"
   d="m 92.353337,90.765374 c -2.255018,-0.95802 -5.819388,-2.00415 -9.083578,-2.66602 -2.37002,-0.48056 -3.36673,-0.5422 -8.56494,-0.52968 -4.4217,0.0107 -6.47279,0.11648 -8.25807,0.42611 -1.30642,0.22656 -2.41036,0.37685 -2.45328,0.33397 -0.28008,-0.2802 3.57879,-7.77299 5.72944,-11.12463 1.52711,-2.37982 1.6363,-2.44649 3.14378,-1.91927 2.36755,0.82808 7.22327,3.28417 9.50599,4.80829 2.98886,1.99564 6.42154,4.8807 8.742078,7.34743 1.84015,1.95608 3.47901,4.09331 3.11096,4.05686 -0.10543,-0.0104 -0.94799,-0.34032 -1.87238,-0.73306 z"
   id="path14220" /><path
   style="fill:#999999;stroke-width:0.614694"
   d="m 38.979888,210.8774 c -6.900196,-0.32008 -7.644713,-0.47759 -10.449802,-2.21078 -4.530776,-2.79946 -6.721591,-6.83716 -7.226042,-13.31769 -0.218389,-2.80559 -0.396027,-42.30543 -0.394751,-87.77744 l 0.0023,-82.676374 1.434273,-3.073471 c 0.78885,-1.690409 2.577967,-4.104481 3.975815,-5.364604 5.014699,-4.52062 -2.340953,-4.198164 91.655509,-4.017973 l 84.59293,0.162164 3.17391,2.036788 c 1.94426,1.247678 3.96304,3.266449 5.21071,5.210685 l 2.03679,3.173897 0.164,87.196768 c 0.11125,59.15416 -0.0424,87.96323 -0.47775,89.58005 -1.0568,3.92462 -4.16062,7.43375 -8.54219,9.65764 l -3.93604,1.99775 -76.89508,-0.11639 c -42.292292,-0.064 -80.238364,-0.27148 -84.324603,-0.46102 z m 4.579972,-13.50114 c 4.212402,-2.9995 5.57329,-9.15189 3.026642,-13.68303 -4.242817,-7.54908 -15.34304,-6.67574 -18.599666,1.46337 -1.991219,4.97655 0.482359,10.90217 5.50257,13.18178 2.674052,1.21425 7.686565,0.73536 10.070454,-0.96212 z m 151.88562,0.5692 c 8.85027,-4.51507 6.50056,-17.83489 -3.42452,-19.41266 -3.29965,-0.52454 -7.46566,1.27066 -9.67712,4.17003 -1.3663,1.79132 -1.62374,2.75577 -1.62374,6.08322 0,2.72114 0.32669,4.42838 1.04751,5.47422 3.1815,4.61608 8.85624,6.145 13.67787,3.68519 z m -64.06977,-8.87413 c 18.84398,-4.03752 36.84328,-15.84701 48.13844,-31.58404 9.91251,-13.81062 14.72923,-29.1481 14.72923,-46.90105 0,-30.086142 -16.30546,-56.874362 -42.94842,-70.559916 -19.12114,-9.821859 -40.68602,-11.651091 -61.164804,-5.188278 -23.692813,7.477117 -43.864016,27.46751 -51.372289,50.911799 -2.878172,8.986983 -3.785448,15.014985 -3.794515,25.211015 -0.01917,21.55861 7.191188,39.67243 21.872329,54.94755 17.104326,17.79634 38.482617,26.07747 63.337039,24.53434 3.7189,-0.2309 8.76024,-0.84803 11.20299,-1.37142 z M 42.434798,43.489617 c 3.84285,-1.939627 5.630605,-5.186937 5.352089,-9.721634 -0.259084,-4.218305 -2.083268,-7.017677 -5.61952,-8.623649 -4.597335,-2.087858 -9.159196,-1.168629 -12.213349,2.461026 -3.675596,4.368198 -3.580512,9.525546 0.256183,13.895301 3.069568,3.496045 7.734854,4.255092 12.224597,1.988956 z m 153.058862,0 c 3.84285,-1.939627 5.6306,-5.186937 5.35209,-9.721634 -0.25909,-4.218305 -2.08327,-7.017677 -5.61952,-8.623649 -4.72497,-2.145823 -9.05158,-1.193925 -12.51797,2.754081 -1.82325,2.076566 -1.98816,2.610319 -1.98816,6.435207 0,3.893398 0.14592,4.341293 2.19365,6.733612 3.35273,3.916912 7.88849,4.790315 12.57991,2.422383 z"
   id="path1" /><path
   style="fill:#666666;stroke-width:0.614694"
   d="m 26.246661,210.57831 c -4.526084,-1.21695 -7.812097,-3.93024 -10.13461,-8.36826 l -2.021429,-3.86269 0.177346,-87.34082 c 0.166867,-82.17964 0.241592,-87.458374 1.264556,-89.330271 2.902024,-5.310345 8.737672,-9.394661 13.358105,-9.349213 l 2.15143,0.02116 -2.212694,1.169497 c -2.856224,1.509629 -5.896738,4.995101 -7.383878,8.464459 -1.143801,2.668378 -1.172439,5.21943 -1.015119,90.423318 l 0.161889,87.67748 1.330976,2.45878 c 1.691829,3.12539 5.42267,6.73738 8.196784,7.93565 1.900718,0.821 1.97235,0.92726 0.614694,0.91186 -0.845204,-0.01 -2.864827,-0.37451 -4.48805,-0.81095 z"
   id="path2" /></svg>
