<?xml version="1.0" encoding="UTF-8" standalone="no"?>
<!-- Uploaded to: SVG Repo, www.svgrepo.com, Generator: SVG Repo Mixer Tools -->

<svg
   version="1.1"
   id="Layer_1"
   viewBox="0 0 207 207"
   xml:space="preserve"
   sodipodi:docname="greenhouse-fan-frame.svg"
   inkscape:version="1.3.2 (091e20e, 2023-11-25, custom)"
   width="207"
   height="207"
   xmlns:inkscape="http://www.inkscape.org/namespaces/inkscape"
   xmlns:sodipodi="http://sodipodi.sourceforge.net/DTD/sodipodi-0.dtd"
   xmlns="http://www.w3.org/2000/svg"
   xmlns:svg="http://www.w3.org/2000/svg"><defs
   id="defs10776" /><sodipodi:namedview
   id="namedview10774"
   pagecolor="#ffffff"
   bordercolor="#000000"
   borderopacity="0.25"
   inkscape:showpageshadow="2"
   inkscape:pageopacity="0.0"
   inkscape:pagecheckerboard="0"
   inkscape:deskcolor="#d1d1d1"
   showgrid="false"
   inkscape:zoom="1.6268251"
   inkscape:cx="109.10823"
   inkscape:cy="95.584953"
   inkscape:window-width="1920"
   inkscape:window-height="1009"
   inkscape:window-x="-8"
   inkscape:window-y="-8"
   inkscape:window-maximized="1"
   inkscape:current-layer="Layer_1" />

<g
   style="opacity:0.15"
   id="g10743"
   transform="matrix(0.39062577,0,0,0.390625,1.7049371,3.0734738)">
	<path
   style="fill:#231f20"
   d="m 37.919,503.281 c -0.36,-0.277 -0.721,-0.553 -1.071,-0.842 -9.304,-7.678 -15.234,-19.297 -15.234,-32.3 V 366.808 h 10e-4 V 121.196 H 21.614 V 41.859 C 21.614,18.74 40.354,0 63.473,0 H 46.183 46.182 C 23.064,0 4.323,18.74 4.323,41.859 v 79.337 H 4.324 V 366.808 H 4.323 V 470.14 c 0,13.003 5.929,24.622 15.234,32.3 0.349,0.289 0.71,0.564 1.071,0.842 0.17,0.133 0.337,0.271 0.509,0.401 6.985,5.223 15.655,8.317 25.046,8.317 h 17.29 c -9.391,0 -18.061,-3.094 -25.046,-8.318 -0.171,-0.13 -0.338,-0.269 -0.508,-0.401 z"
   id="path10739" />
	<rect
   x="403.76901"
   y="503.35501"
   style="fill:#231f20"
   width="0"
   height="17.290001"
   id="rect10741" />
</g>







<path
   style="fill:#53caf9;stroke-width:0.390622"
   d="m 175.07363,66.226985 -4.87888,-8.26836 -0.0708,-0.11132 C 155.25683,35.859413 130.59429,22.732063 104.15199,22.732063 c -43.882883,0 -79.584123,35.701172 -79.584123,79.583207 0,43.88243 35.70124,79.58321 79.583763,79.58321 43.88253,0 79.58413,-35.70078 79.58413,-79.58321 0,-12.694915 -2.91484,-24.837105 -8.66213,-36.088285 z M 104.15199,164.6391 c -34.366073,0 -62.324333,-27.95859 -62.324333,-62.32383 0,-34.365625 27.95865,-62.323437 62.324333,-62.323437 34.36572,0 62.32437,27.958202 62.32437,62.323047 0,34.36563 -27.95865,62.32422 -62.32437,62.32422 z"
   id="path10759" />
<g
   id="g10769"
   transform="matrix(0.39062577,0,0,0.390625,1.7049371,3.0734738)">
	<circle
   style="fill:#8aacad"
   cx="457.01099"
   cy="58.175999"
   r="25.775"
   id="circle10761" />
	<circle
   style="fill:#8aacad"
   cx="457.01099"
   cy="453.505"
   r="25.775"
   id="circle10763" />
	<circle
   style="fill:#8aacad"
   cx="65.231003"
   cy="58.175999"
   r="25.775"
   id="circle10765" />
	<circle
   style="fill:#8aacad"
   cx="65.231003"
   cy="453.505"
   r="25.775"
   id="circle10767" />
</g>
<path
   style="opacity:0.15;fill:#231f20;stroke-width:0.390622;enable-background:new"
   d="m 48.874197,102.30863 c 0,-33.235155 26.01832,-60.390627 58.797743,-62.216017 -1.16564,-0.0648 -2.33828,-0.10078 -3.51957,-0.10078 -34.416823,0 -62.317243,27.900392 -62.317243,62.317187 0,34.4168 27.90042,62.31719 62.317243,62.31719 1.18129,0 2.35431,-0.0359 3.51957,-0.10078 -32.779423,-1.82656 -58.797743,-28.98203 -58.797743,-62.2168 z"
   id="path10771" />
<path
   style="fill:#1a1a1a;stroke-width:0.240116"
   d="m 23.052337,202.61359 c -4.81289,-1.05054 -8.85728,-4.21706 -11.04647,-8.64874 -1.94627,-3.93993 -1.78807,4.49665 -1.71877,-91.65795 l 0.062,-86.027106 0.678,-1.91862 c 1.72922,-4.8934002 5.15,-8.4023002 10.00713,-10.2649102 l 2.04098,-0.78268 82.599713,-0.0658 c 92.21188,-0.0734 84.57422,-0.21434 88.36243,1.63036 3.53198,1.71993 6.06007,4.28126 7.69869,7.7998902 1.67167,3.58971 1.54579,-3.7737402 1.54579,90.403286 0,94.76537 0.14659,86.86676 -1.68239,90.64338 -1.96914,4.06596 -5.30617,6.97381 -9.72311,8.47256 l -1.92092,0.65181 -82.71977,0.042 c -68.069433,0.0345 -82.978953,-0.0146 -84.183303,-0.27749 z m 6.21314,-12.48374 c 2.11774,-0.44875 3.73978,-1.35062 5.1934,-2.88762 5.2371,-5.53745 2.96199,-14.46513 -4.25426,-16.694 -4.81635,-1.48762 -10.01123,0.74455 -12.10028,5.19933 -1.939,4.13478 -1.22685,8.46382 1.9054,11.58254 1.52708,1.5205 3.09737,2.3895 5.10645,2.82595 1.76036,0.3824 2.23515,0.37941 4.14929,-0.0262 z m 152.498853,0.11906 c 3.31289,-0.54253 6.1185,-2.62147 7.60053,-5.63199 1.51409,-3.0755 1.21189,-7.27886 -0.72583,-10.09521 -1.02408,-1.48847 -2.5197,-2.73275 -4.29669,-3.57471 -1.47014,-0.69654 -1.78201,-0.75353 -4.12404,-0.75353 -2.44496,0 -2.59763,0.0316 -4.36003,0.90263 -2.13463,1.05495 -3.87018,2.79263 -4.91478,4.92072 -0.62401,1.27105 -0.67756,1.59827 -0.67756,4.14142 0,2.60725 0.0428,2.85163 0.76668,4.37987 1.59546,3.36795 5.00719,5.6209 8.95798,5.91544 0.19809,0.0148 0.9963,-0.0773 1.77374,-0.20464 z m -68.52576,-8.78636 c 26.46891,-2.98814 49.83828,-19.24361 61.93927,-43.08431 5.46357,-10.76406 8.22213,-21.64431 8.58385,-33.85621 0.35405,-11.954159 -1.8993,-23.500915 -6.70581,-34.362235 -1.88095,-4.25044 -6.43856,-11.97983 -9.32391,-15.81274 -21.56808,-28.651142 -59.88491,-39.366671 -93.103803,-26.037002 -3.70337,1.48605 -9.40481,4.37103 -12.77431,6.46387 -5.64346,3.50525 -12.53017,9.31187 -16.92815,14.273222 -11.53681,13.01449 -18.0406,27.63842 -20.07978,45.149946 -0.44515,3.82269 -0.37731,13.132769 0.12512,17.168219 2.03214,16.32244 8.37565,30.80172 18.80335,42.9192 2.14767,2.49574 7.51238,7.74057 9.91551,9.69394 13.23908,10.76135 29.168078,16.93132 46.342273,17.9503 2.74396,0.1628 9.85973,-0.0884 13.20639,-0.4662 z M 29.191927,35.732783 c 1.65399,-0.22574 3.92769,-1.46839 5.2554,-2.87224 2.55405,-2.70053 3.46107,-6.09842 2.55572,-9.57429 -0.52145,-2.001949 -1.20743,-3.201649 -2.66297,-4.657179 -3.38099,-3.38099 -8.70511,-3.91315 -12.78272,-1.27767 -1.53969,0.99515 -2.55419,2.16067 -3.48153,3.99981 -2.63257,5.221029 -0.13575,11.690529 5.35955,13.887119 1.11968,0.44756 3.36422,0.82597 4.20202,0.70844 0.26412,-0.0371 0.96366,-0.13335 1.55453,-0.21399 z M 182.8414,35.583803 c 2.68565,-0.60524 5.20661,-2.68584 6.54265,-5.39981 1.35998,-2.76251 1.21895,-6.84203 -0.32721,-9.462079 -0.66924,-1.13402 -2.2675,-2.80539 -3.34461,-3.49759 -3.04693,-1.95813 -7.5177,-2.03879 -10.67428,-0.19259 -1.44337,0.84423 -3.38085,3.00195 -4.12123,4.58986 -0.58066,1.245269 -0.64451,1.654059 -0.64747,4.147789 -0.003,2.64933 0.0305,2.83468 0.79157,4.38097 2.20414,4.47729 6.74017,6.56938 11.78058,5.43345 z"
   id="path11327" /><path
   style="fill:#333333;stroke-width:0.240116"
   d="M 16.592097,202.61328 C 10.663947,201.30606 6.2482271,197.34312 4.2800371,191.5637 l -0.65418,-1.92092 -0.0657,-85.72103 c -0.0729,-95.0698562 -0.19436,-87.632366 1.48996,-91.239856 2.00008,-4.2838002 5.3365299,-7.2137602 9.9812499,-8.7652002 1.14285,-0.38174 2.39656,-0.55672 4.68225,-0.65353 1.71683,-0.0727 3.05969,-0.0653 2.98415,0.0164 -0.0755,0.0817 -0.86178,0.41139 -1.74719,0.73254 -2.4847,0.90124 -3.83954,1.77007 -5.87459,3.7673 -2.1196,2.0802 -2.92173,3.3092302 -4.08227,6.2548502 l -0.88471,2.24552 -0.0694,85.240806 c -0.0466,57.26781 0.0115,85.85634 0.17695,87.11652 0.27213,2.07255 1.25868,5.17635 1.74295,5.48358 0.17077,0.10833 0.22809,0.19862 0.12738,0.20064 -0.17923,0.004 0.79647,1.69241 1.38938,2.40483 0.56552,0.67952 2.40921,2.52129 2.9396,2.93654 1.66231,1.30145 4.51442,2.67185 6.1718,2.96545 1.40379,0.24868 0.88534,0.3407 -1.81358,0.32191 -1.50773,-0.0105 -3.38963,-0.16205 -4.18201,-0.33679 z"
   id="path11329" /><path
   style="fill:#333333;stroke-width:0.240116"
   d="m 98.591498,181.58686 c -10.285413,-0.74525 -19.857981,-3.33967 -29.174021,-7.90693 -5.06775,-2.4845 -8.61328,-4.65034 -12.94792,-7.90949 -16.70571,-12.56071 -27.73852,-30.99109 -30.86553,-51.56108 -3.32853,-21.895609 2.61371,-44.019415 16.51154,-61.474775 2.67835,-3.36394 9.04976,-9.740222 12.41472,-12.424192 24.28294,-19.368479 57.399763,-22.907249 85.000873,-9.08295 11.56339,5.79161 21.64782,14.35646 29.04863,24.671312 1.66508,2.32074 5.65824,9.02549 7.15022,12.00575 1.55848,3.11306 3.61646,8.4303 4.70916,12.16696 3.14931,10.76995 3.95471,22.711325 2.29626,34.046225 -1.18662,8.10999 -4.30145,17.63961 -8.13492,24.88799 -4.05283,7.66312 -8.16915,13.20049 -14.52819,19.54357 -5.4215,5.40793 -10.58746,9.34769 -17.11928,13.05581 -13.21852,7.50425 -29.13319,11.0852 -44.361542,9.9818 z m 14.543322,-17.4962 c 13.26351,-1.96735 25.34815,-8.01382 34.82599,-17.425 10.81045,-10.7344 16.88719,-23.60408 18.36852,-38.90207 0.34355,-3.54808 0.14378,-11.069419 -0.38268,-14.406899 -2.23134,-14.145286 -8.26964,-25.923246 -18.28269,-35.661136 -5.03167,-4.89345 -9.54643,-8.13273 -15.57636,-11.175812 -10.38725,-5.24207 -22.39698,-7.47185 -34.114762,-6.33391 -8.647163,0.83974 -17.975371,3.89502 -25.516361,8.357402 -8.32495,4.92628 -16.07123,12.48003 -21.33218,20.80196 -4.28561,6.77917 -7.44676,15.42366 -8.74934,23.926116 -0.63599,4.15097 -0.76267,12.779509 -0.24275,16.533259 2.5036,18.07514 11.55763,33.22246 25.98429,43.47148 8.85132,6.28819 19.517848,10.21322 30.595071,11.2583 3.474422,0.3278 10.725872,0.10472 14.423252,-0.44369 z"
   id="path11331" /><path
   style="fill:#333333;stroke-width:0.240116"
   d="m 24.996127,189.90425 c -1.83345,-0.45504 -3.5579,-1.44263 -4.90037,-2.80644 -4.74215,-4.81753 -3.35452,-12.71542 2.76547,-15.74008 5.07597,-2.50868 10.87738,-0.37721 13.37906,4.91554 0.68713,1.45375 0.75754,1.81739 0.75222,3.88497 -0.005,1.80593 -0.12045,2.56879 -0.55593,3.66225 -1.19929,3.01125 -3.89463,5.34011 -6.99718,6.04577 -1.93136,0.43928 -2.79661,0.44668 -4.44327,0.038 z"
   id="path11333" /><path
   style="fill:#333333;stroke-width:0.240116"
   d="m 25.666827,35.606473 c -5.23284,-0.7641 -9.2291,-6.23998 -8.27968,-11.34523 0.61088,-3.284839 2.72564,-6.060099 5.74865,-7.544079 1.26002,-0.61854 1.60993,-0.67749 4.02137,-0.67749 2.48144,0 2.73572,0.0463 4.20202,0.76422 3.75115,1.83672 6.00688,5.666779 5.69923,9.676839 -0.44436,5.79197 -5.65205,9.96382 -11.39159,9.12574 z"
   id="path11335" /><path
   style="fill:#333333;stroke-width:0.240116"
   d="m 178.56016,35.580843 c -3.0337,-0.51464 -5.97176,-2.76383 -7.33413,-5.6145 -0.98206,-2.05483 -1.13662,-5.24015 -0.35875,-7.39218 0.98628,-2.728789 2.72252,-4.604479 5.44095,-5.878009 1.24782,-0.58457 1.67743,-0.65648 3.92249,-0.65648 2.33725,0 2.63933,0.0559 4.13976,0.76672 2.09487,0.99235 3.82586,2.72331 4.81817,4.81818 0.71767,1.514969 0.76676,1.787579 0.76676,4.259819 0,2.38907 -0.0624,2.76821 -0.65358,3.97084 -2.04749,4.16519 -6.36714,6.4677 -10.74167,5.72561 z"
   id="path11337" /><path
   style="fill:#afdde9;stroke-width:1.47635"
   d="M 96.966618,163.82866 C 78.791891,160.58119 61.190132,146.38855 53.028205,128.4005 47.144754,115.43427 46.218793,95.334531 50.878952,81.754969 56.787716,64.536008 67.189455,52.700188 83.475438,44.664066 c 7.47563,-3.688703 10.0494,-4.142464 23.499442,-4.142464 14.00233,0 15.81207,0.352734 24.80109,4.838091 12.55026,6.261843 22.92052,17.184401 28.86541,30.403269 4.29953,9.559627 4.59361,11.279831 4.59361,26.879958 0,15.07532 -0.37382,17.46772 -3.91556,25.05646 -12.2664,26.28284 -38.14521,40.81192 -64.352812,36.12928 z"
   id="path11337-0"
   inkscape:transform-center-x="-1.6794012"
   inkscape:transform-center-y="1.5366819e-06" /><path
   style="fill:#4d4d4d;stroke-width:0.240116"
   d="m 178.35213,189.98614 c -2.89083,-0.56889 -5.63851,-2.6927 -7.03061,-5.4343 -0.78117,-1.53846 -0.81547,-1.71757 -0.81547,-4.26039 0,-2.48703 0.0484,-2.75649 0.76668,-4.27297 0.98294,-2.07492 2.63719,-3.72848 4.77073,-4.76866 1.57035,-0.76564 1.81094,-0.81231 4.18726,-0.81231 2.36093,0 2.62389,0.0501 4.1353,0.78748 2.14241,1.04524 3.85091,2.74179 4.81878,4.7852 0.72209,1.52443 0.77061,1.79311 0.77061,4.26811 0,2.52064 -0.0372,2.71497 -0.80999,4.2552 -1.42417,2.83783 -4.12139,4.87917 -7.22418,5.46761 -1.45541,0.27601 -2.1043,0.27329 -3.56911,-0.015 z"
   id="path11339" /><path
   style="fill:#808080;stroke-width:0.240116"
   d="m 45.887817,124.05833 c -0.54339,-1.30047 -1.49066,-4.39576 -2.138,-6.98595 -2.49672,-9.98994 -2.36726,-21.066269 0.36182,-30.964955 l 0.74079,-2.68708 1.97824,-0.82809 c 2.48064,-1.03842 5.36525,-1.97496 5.54115,-1.79905 0.0735,0.0734 -0.0238,0.60718 -0.21612,1.18604 -2.34935,7.07143 -3.29437,12.927386 -3.29154,20.395775 0.002,6.00343 0.68697,11.37364 2.06721,16.21518 l 0.34838,1.22202 -2.51989,2.54444 -2.51992,2.54443 z"
   id="path11353" /><path
   style="fill:#4d4d4d;stroke-width:0.240116"
   d="m 45.045767,83.051555 c 0,-0.31132 1.37934,-3.92232 2.28058,-5.97039 1.80925,-4.11147 6.1442,-11.33942 7.45154,-12.4244 0.30526,-0.25331 0.85478,-0.18949 3.11713,0.36196 1.51059,0.36821 2.70233,0.73594 2.64831,0.81717 -2.61561,3.93018 -3.62705,5.65619 -5.29281,9.03194 -1.10777,2.24507 -2.08512,4.37588 -2.17181,4.73513 -0.13895,0.57585 -0.39607,0.72592 -2.17179,1.26754 -1.10778,0.3379 -2.87973,0.97941 -3.93766,1.42558 -1.05793,0.44618 -1.92349,0.78614 -1.92349,0.75547 z"
   id="path11578" /><path
   style="fill:#4d4d4d;stroke-width:0.240116"
   d="m 56.290277,141.95173 c -3.6796,-4.35144 -7.38294,-10.44666 -9.63672,-15.86061 l -0.36705,-0.88166 2.54041,-2.56824 2.54042,-2.56824 0.88099,2.6095 c 1.18691,3.51549 2.95548,7.39364 4.89529,10.73405 l 1.6052,2.76433 -0.48844,2.39701 c -0.26869,1.31836 -0.49612,2.7042 -0.50536,3.07964 -0.01,0.37545 -0.0968,0.88603 -0.19437,1.13463 -0.1538,0.39154 -0.3237,0.27913 -1.27037,-0.84041 z"
   id="path11580" /><path
   style="fill:#4d4d4d;stroke-width:0.240116"
   d="m 91.078878,42.310073 -0.89111,-0.64616 2.70113,-0.49839 c 3.62307,-0.6685 6.91927,-1.00189 9.474902,-0.95832 1.1608,0.0198 1.78637,0.0774 1.3902,0.12809 -2.39588,0.30639 -7.537052,1.35644 -9.493742,1.93903 l -2.29028,0.68191 z"
   id="path11582" /><path
   style="fill:#4d4d4d;stroke-width:0.240116"
   d="m 58.365657,64.933905 c -1.31705,-0.31889 -2.59089,-0.64747 -2.83081,-0.73017 -0.37107,-0.12788 -0.19253,-0.43683 1.19374,-2.06663 3.7284,-4.38337 8.70184,-8.77514 13.5293,-11.94691 3.62936,-2.384612 10.0212,-5.457762 14.286858,-6.869032 4.80739,-1.5905 5.191493,-1.65215 6.129973,-0.98394 0.41265,0.29387 0.66095,0.61294 0.55172,0.70903 -0.1092,0.0961 -1.38715,0.63483 -2.839873,1.19719 -5.42502,2.10011 -11.702388,5.741542 -16.447528,9.541102 -2.81292,2.25233 -6.97814,6.44287 -9.26666,9.32285 l -1.91206,2.40634 z"
   id="path11584" /><path
   style="fill:#4d4d4d;stroke-width:0.240116"
   d="m 92.108388,163.35787 c -6.842353,-1.42955 -12.978621,-3.72248 -18.608941,-6.95358 -5.01314,-2.8769 -8.46464,-5.50813 -12.92649,-9.85422 l -2.84158,-2.76793 0.15225,-1.32129 c 0.25141,-2.18028 0.88706,-5.51866 1.07275,-5.63341 0.0955,-0.059 0.72337,0.68347 1.39529,1.64999 2.86972,4.12787 8.23194,9.74976 12.30738,12.9034 5.38151,4.16428 12.155828,7.84514 18.294661,9.94049 2.98297,1.01816 3.3099,1.18633 3.52923,1.8156 0.28396,0.81465 0.41071,0.80286 -2.37455,0.22095 z"
   id="path11586" /><path
   style="fill:#4d4d4d;stroke-width:0.240116"
   d="m 45.887667,123.83029 c -0.66366,-1.56755 -2.02471,-6.50621 -2.63811,-9.57206 -0.83075,-4.15241 -1.08548,-6.96173 -1.08321,-11.9478 0.003,-6.189789 0.5279,-10.433639 1.96602,-15.890035 l 0.75238,-2.85435 1.46116,-0.65306 c 1.7413,-0.77826 5.04143,-1.92222 5.54526,-1.92222 0.46863,0 0.48816,-0.12446 -0.49783,3.17323 -2.02889,6.78587 -2.61291,11.525356 -2.44028,19.802395 0.13069,6.26589 0.37342,8.34073 1.54756,13.22902 l 0.65052,2.70861 -2.43284,2.43287 -2.43291,2.43287 z"
   id="path11588" /><path
   style="fill:#4d4d4d;stroke-width:0.240116"
   d="m 96.910678,181.33854 c -14.668453,-1.40109 -28.939601,-7.019 -40.793471,-16.05857 -17.90716,-13.65571 -28.95909,-33.76166 -31.01483,-56.42296 -0.36235,-3.99431 -0.16558,-12.941699 0.3693,-16.791919 1.78916,-12.879276 6.47238,-24.794496 13.93184,-35.445986 3.06862,-4.38174 6.71818,-8.468272 11.52509,-12.905052 12.20694,-11.26703 27.60585,-18.24354 44.661451,-20.23401 3.95316,-0.46135 12.177342,-0.52941 16.087742,-0.13315 18.53917,1.8787 35.55236,9.9648 48.68985,23.14157 5.45859,5.474912 8.7199,9.903442 13.58545,18.447832 4.28402,7.52308 7.26752,16.47333 8.71328,26.13931 0.63075,4.216826 0.87064,13.974205 0.45563,18.531105 -1.34008,14.71419 -7.40754,30.04236 -16.31169,41.20779 -14.06962,17.64295 -32.92568,28.09344 -54.89243,30.42282 -3.58312,0.37996 -11.52798,0.43355 -15.007212,0.10122 z m 16.327892,-17.1535 c 13.74665,-2.11327 25.84016,-8.31173 35.42493,-18.1568 3.57668,-3.6739 5.41389,-5.92774 7.96246,-9.7682 4.03013,-6.073 7.23387,-13.91642 8.69748,-21.29301 1.1115,-5.60234 1.30039,-7.95717 1.15588,-14.40574 -0.10785,-4.811519 -0.23095,-6.299529 -0.74496,-9.005459 C 163.16708,78.042045 157.60389,67.436105 148.16461,58.059785 137.9127,47.876333 125.47936,41.892613 110.95743,40.153383 c -3.04464,-0.36464 -11.097362,-0.36469 -13.926692,-10e-5 -11.967123,1.54212 -22.991121,6.16567 -31.935341,13.393872 -2.91516,2.35587 -8.33138,7.84921 -10.48618,10.63557 -4.79148,6.19574 -8.31721,13.19167 -10.54827,20.93061 -1.65702,5.74748 -2.37501,11.187386 -2.37623,18.002605 -0.002,13.59693 5.11499,27.74447 14.03131,38.79079 4.77365,5.91404 11.96883,11.81595 18.94053,15.53612 6.647998,3.54747 14.974031,6.1565 22.614301,7.08637 2.806012,0.34151 12.926332,0.12337 15.967712,-0.34418 z"
   id="path13931" /><path
   style="fill:#999999;stroke-width:0.614694"
   d="m 28.530086,202.27168 c -6.900196,-0.32008 -7.644713,-0.47759 -10.449802,-2.21078 -4.530776,-2.79946 -6.721591,-6.83716 -7.226042,-13.31769 -0.218389,-2.80559 -0.396027,-42.30543 -0.394751,-87.777439 l 0.0023,-82.676374 1.434273,-3.073471 c 0.78885,-1.690409 2.577967,-4.1044812 3.975815,-5.3646042 5.014699,-4.52062 -2.340953,-4.198164 91.655511,-4.017973 l 84.59293,0.162164 3.17391,2.036788 c 1.94426,1.247678 3.96304,3.266449 5.21071,5.2106852 l 2.03679,3.173897 0.164,87.196767 c 0.11125,59.15416 -0.0424,87.96323 -0.47775,89.58005 -1.0568,3.92462 -4.16062,7.43375 -8.54219,9.65764 l -3.93604,1.99775 -76.89508,-0.11639 c -42.292294,-0.064 -80.238366,-0.27148 -84.324605,-0.46102 z m 4.579972,-13.50114 c 4.212402,-2.9995 5.57329,-9.15189 3.026642,-13.68303 -4.242817,-7.54908 -15.34304,-6.67574 -18.599666,1.46337 -1.991219,4.97655 0.482359,10.90217 5.50257,13.18178 2.674052,1.21425 7.686565,0.73536 10.070454,-0.96212 z m 151.885622,0.5692 c 8.85027,-4.51507 6.50056,-17.83489 -3.42452,-19.41266 -3.29965,-0.52454 -7.46566,1.27066 -9.67712,4.17003 -1.3663,1.79132 -1.62374,2.75577 -1.62374,6.08322 0,2.72114 0.32669,4.42838 1.04751,5.47422 3.1815,4.61608 8.85624,6.145 13.67787,3.68519 z m -64.06977,-8.87413 c 18.84398,-4.03752 36.84328,-15.84701 48.13844,-31.58404 9.91251,-13.81062 14.72923,-29.1481 14.72923,-46.90105 0,-30.086141 -16.30546,-56.874361 -42.94842,-70.559915 -19.12114,-9.821859 -40.68602,-11.651091 -61.164806,-5.188278 -23.692813,7.477117 -43.864016,27.46751 -51.372289,50.911799 -2.878172,8.986983 -3.785448,15.014985 -3.794515,25.211014 -0.01917,21.55861 7.191188,39.67243 21.872329,54.94755 17.104326,17.79634 38.482617,26.07747 63.337041,24.53434 3.7189,-0.2309 8.76024,-0.84803 11.20299,-1.37142 z M 31.984996,34.883898 c 3.84285,-1.939627 5.630605,-5.186937 5.352089,-9.721634 -0.259084,-4.218305 -2.083268,-7.017677 -5.61952,-8.623649 -4.597335,-2.087858 -9.159196,-1.168629 -12.213349,2.461026 -3.675596,4.368198 -3.580512,9.525546 0.256183,13.895301 3.069568,3.496045 7.734854,4.255092 12.224597,1.988956 z m 153.058864,0 c 3.84285,-1.939627 5.6306,-5.186937 5.35209,-9.721634 -0.25909,-4.218305 -2.08327,-7.017677 -5.61952,-8.623649 -4.72497,-2.145823 -9.05158,-1.193925 -12.51797,2.754081 -1.82325,2.076566 -1.98816,2.610319 -1.98816,6.435207 0,3.893398 0.14592,4.341293 2.19365,6.733612 3.35273,3.916912 7.88849,4.790315 12.57991,2.422383 z"
   id="path1" /><path
   style="fill:#666666;stroke-width:0.614694"
   d="m 15.796859,201.97259 c -4.526084,-1.21695 -7.8120969,-3.93024 -10.1346099,-8.36826 l -2.021429,-3.86269 0.177346,-87.34082 C 3.9850331,20.221181 4.0597581,14.942447 5.0827221,13.07055 7.9847461,7.7602048 13.820394,3.6758888 18.440827,3.7213368 l 2.15143,0.02116 -2.212694,1.169497 c -2.856224,1.509629 -5.896738,4.995101 -7.383878,8.4644592 -1.1438009,2.668378 -1.1724389,5.21943 -1.0151189,90.423317 l 0.1618889,87.67748 1.330976,2.45878 c 1.691829,3.12539 5.42267,6.73738 8.196784,7.93565 1.900718,0.821 1.97235,0.92726 0.614694,0.91186 -0.845204,-0.01 -2.864827,-0.37451 -4.48805,-0.81095 z"
   id="path2" /><path
   style="fill:#afdde9;fill-opacity:0;stroke-width:0.614694"
   d="M 98.351078,162.96143 C 72.742601,157.27459 53.552121,136.62628 49.757787,110.67668 48.788676,104.04889 49.33128,94.103451 51.033905,87.286581 53.900308,75.810241 62.176156,62.494435 70.988362,55.179944 c 11.578887,-9.61095 26.848416,-15.25148 39.020298,-14.414007 24.5788,1.691117 46.55998,20.056901 53.83923,44.983908 1.95842,6.706416 2.6832,18.862235 1.55764,26.124505 -0.97103,6.26526 -4.21765,15.52366 -7.38466,21.05889 -12.34059,21.56857 -38.49492,34.73046 -59.669792,30.02819 z"
   id="path3" /><path
   style="fill:#87cdde;fill-opacity:0;stroke-width:0.614694"
   d="M 98.351078,162.96143 C 72.742601,157.27459 53.552121,136.62628 49.757787,110.67668 48.788676,104.04889 49.33128,94.103451 51.033905,87.286581 53.900308,75.810241 62.176156,62.494435 70.988362,55.179944 c 11.578887,-9.61095 26.848416,-15.25148 39.020298,-14.414007 24.5788,1.691117 46.55998,20.056901 53.83923,44.983908 1.95842,6.706416 2.6832,18.862235 1.55764,26.124505 -0.97103,6.26526 -4.21765,15.52366 -7.38466,21.05889 -12.34059,21.56857 -38.49492,34.73046 -59.669792,30.02819 z"
   id="path4" /><path
   style="fill:#55ddff;fill-opacity:0"
   id="path6"
   sodipodi:type="arc"
   sodipodi:cx="74.685349"
   sodipodi:cy="77.451469"
   sodipodi:rx="7.0689836"
   sodipodi:ry="4.3028598"
   sodipodi:start="0"
   sodipodi:end="1.0280749"
   sodipodi:arc-type="slice"
   d="m 81.754332,77.451469 a 7.0689836,4.3028598 0 0 1 -3.418078,3.684566 l -3.650905,-3.684566 z" /><path
   style="fill:#55ddff;fill-opacity:0"
   id="path8"
   sodipodi:type="arc"
   sodipodi:cx="-191.78459"
   sodipodi:cy="-6.7616363"
   sodipodi:rx="51.634315"
   sodipodi:ry="46.716759"
   sodipodi:start="0"
   sodipodi:end="4.5671793"
   sodipodi:arc-type="arc"
   d="M -140.15028,-6.7616363 A 51.634315,46.716759 0 0 1 -189.2863,39.900407 51.634315,46.716759 0 0 1 -243.17715,-2.2462129 51.634315,46.716759 0 0 1 -199.25607,-52.986729"
   sodipodi:open="true" /><path
   style="fill:#55ddff;fill-opacity:0"
   id="path9"
   sodipodi:type="arc"
   sodipodi:cx="97.736389"
   sodipodi:cy="98.043732"
   sodipodi:rx="33.808182"
   sodipodi:ry="35.959614"
   sodipodi:start="0"
   sodipodi:end="4.5671793"
   sodipodi:open="true"
   sodipodi:arc-type="arc"
   d="M 131.54457,98.043732 A 33.808182,35.959614 0 0 1 99.372175,133.96123 33.808182,35.959614 0 0 1 64.0865,101.51942 33.808182,35.959614 0 0 1 92.844348,62.462572" /><path
   style="fill:#55ddff;fill-opacity:0"
   id="path10"
   sodipodi:type="arc"
   sodipodi:cx="96.199654"
   sodipodi:cy="103.26863"
   sodipodi:rx="27.968588"
   sodipodi:ry="39.340431"
   sodipodi:start="0"
   sodipodi:end="4.0833669"
   sodipodi:open="true"
   sodipodi:arc-type="arc"
   d="M 124.16824,103.26863 A 27.968588,39.340431 0 0 1 102.02107,141.74746 27.968588,39.340431 0 0 1 70.654416,119.28668 27.968588,39.340431 0 0 1 79.744215,71.45783" /><path
   style="fill:#55ddff;fill-opacity:0;stroke-width:1.45669"
   id="path11"
   sodipodi:type="arc"
   sodipodi:cx="98.351082"
   sodipodi:cy="104.54188"
   sodipodi:rx="34.422878"
   sodipodi:ry="34.379017"
   sodipodi:start="0"
   sodipodi:end="4.0833669"
   sodipodi:open="true"
   sodipodi:arc-type="arc"
   d="M 132.77396,104.54188 A 34.422878,34.379017 0 0 1 105.5159,138.16795 34.422878,34.379017 0 0 1 66.910788,118.53981 34.422878,34.379017 0 0 1 78.098234,76.742893" /><path
   style="fill:#55ddff;fill-opacity:0"
   id="path12"
   sodipodi:type="arc"
   sodipodi:cx="105.72741"
   sodipodi:cy="105.42006"
   sodipodi:rx="32.578793"
   sodipodi:ry="30.427364"
   sodipodi:start="0"
   sodipodi:end="4.0833669"
   sodipodi:open="true"
   sodipodi:arc-type="arc"
   d="M 138.3062,105.42006 A 32.578793,30.427364 0 0 1 112.50839,135.18103 32.578793,30.427364 0 0 1 75.97142,117.80902 32.578793,30.427364 0 0 1 86.559537,80.816393" /><path
   style="fill:#55ddff;fill-opacity:0"
   id="path13"
   sodipodi:type="arc"
   sodipodi:cx="100.19516"
   sodipodi:cy="92.818832"
   sodipodi:rx="28.275934"
   sodipodi:ry="20.28491"
   sodipodi:start="0"
   sodipodi:end="4.0833669"
   sodipodi:open="true"
   sodipodi:arc-type="arc"
   d="M 128.47109,92.818832 A 28.275934,20.28491 0 0 1 106.08054,112.65948 28.275934,20.28491 0 0 1 74.369206,101.07814 28.275934,20.28491 0 0 1 83.558893,76.416388" /></svg>
