<?xml version="1.0" encoding="UTF-8" standalone="no"?>
<!-- Uploaded to: SVG Repo, www.svgrepo.com, Generator: SVG Repo Mixer Tools -->

<svg
   version="1.1"
   id="Layer_1"
   viewBox="0 0 121.09473 112.48902"
   xml:space="preserve"
   sodipodi:docname="greenhouse-fan-icon.svg"
   inkscape:version="1.3.2 (091e20e, 2023-11-25, custom)"
   width="121.09474"
   height="112.48903"
   xmlns:inkscape="http://www.inkscape.org/namespaces/inkscape"
   xmlns:sodipodi="http://sodipodi.sourceforge.net/DTD/sodipodi-0.dtd"
   xmlns="http://www.w3.org/2000/svg"
   xmlns:svg="http://www.w3.org/2000/svg"><defs
   id="defs10776" /><sodipodi:namedview
   id="namedview10774"
   pagecolor="#ffffff"
   bordercolor="#000000"
   borderopacity="0.25"
   inkscape:showpageshadow="2"
   inkscape:pageopacity="0.0"
   inkscape:pagecheckerboard="0"
   inkscape:deskcolor="#d1d1d1"
   showgrid="false"
   inkscape:zoom="1.6268251"
   inkscape:cx="120.78742"
   inkscape:cy="103.57598"
   inkscape:window-width="1920"
   inkscape:window-height="1009"
   inkscape:window-x="-8"
   inkscape:window-y="-8"
   inkscape:window-maximized="1"
   inkscape:current-layer="Layer_1" />
<path
   style="fill:#547475;stroke-width:0.176296"
   d="m 43.217431,100.41922 h 40.706592 v 1.7e-4 h 14.227061 c 3.109296,0 5.776916,-1.827153 6.916336,-4.431128 0.38001,-0.867991 0.58981,-1.822296 0.58981,-2.824091 V 75.25456 h -1.9e-4 V 32.68501 h 1.9e-4 V 18.934237 c 0,-2.176912 -0.99364,-4.128681 -2.56435,-5.458225 -1.04957,-0.888273 -2.35596,-1.499747 -3.798818,-1.713106 -0.0186,-0.0027 -0.0375,-0.004 -0.0556,-0.0069 -0.35524,-0.04974 -0.718018,-0.07678 -1.087417,-0.07678 H 83.924023 39.879668 21.349923 21.349744 c -4.145619,0 -7.506335,3.248035 -7.506335,7.255044 v 13.750773 h 1.79e-4 v 42.569723 h -1.79e-4 v 17.909612 c 0,2.25369 1.063218,4.26751 2.731828,5.598265 0.06258,0.05009 0.127319,0.09776 0.192056,0.145938 0.03048,0.02307 0.06043,0.04697 0.09128,0.0695 1.252579,0.905258 2.807318,1.441509 4.491353,1.441509 h 17.311422"
   id="path10737" />
<g
   style="opacity:0.15"
   id="g10743"
   transform="matrix(0.17932421,0,0,0.17332103,13.068193,11.679193)">
	<path
   style="fill:#231f20"
   d="m 37.919,503.281 c -0.36,-0.277 -0.721,-0.553 -1.071,-0.842 -9.304,-7.678 -15.234,-19.297 -15.234,-32.3 V 366.808 h 10e-4 V 121.196 H 21.614 V 41.859 C 21.614,18.74 40.354,0 63.473,0 H 46.183 46.182 C 23.064,0 4.323,18.74 4.323,41.859 v 79.337 H 4.324 V 366.808 H 4.323 V 470.14 c 0,13.003 5.929,24.622 15.234,32.3 0.349,0.289 0.71,0.564 1.071,0.842 0.17,0.133 0.337,0.271 0.509,0.401 6.985,5.223 15.655,8.317 25.046,8.317 h 17.29 c -9.391,0 -18.061,-3.094 -25.046,-8.318 -0.171,-0.13 -0.338,-0.269 -0.508,-0.401 z"
   id="path10739" />
	<rect
   x="403.76901"
   y="503.35501"
   style="fill:#231f20"
   width="0"
   height="17.290001"
   id="rect10741" />
</g>
<ellipse
   style="fill:#53caf9;stroke-width:0.176296"
   cx="59.750965"
   cy="55.712784"
   id="circle10745"
   rx="2.2119648"
   ry="2.1379149" />
<path
   style="fill:#b4cccb;stroke-width:0.176296"
   d="m 53.797376,52.159707 c 1.353386,-2.120587 3.737121,-3.273861 6.160321,-3.206441 1.136926,-1.277897 2.1094,-2.695489 2.893398,-4.219329 -0.333169,-6.669912 -4.04842,-13.043446 -10.462489,-16.644885 -6.507312,1.698375 -12.133966,5.490984 -16.052556,10.582116 2.778093,0.308861 5.538631,1.156917 8.11495,2.594618 4.542649,2.534647 7.738407,6.457419 9.346376,10.893921 z"
   id="path10747" />
<path
   style="fill:#8aacad;stroke-width:0.176296"
   d="m 39.155565,61.295288 c 4.542823,-2.534993 9.655329,-3.248559 14.434546,-2.376232 -1.223563,-2.193032 -1.064849,-4.764945 0.207095,-6.759696 -0.576532,-1.590567 -1.36053,-3.113196 -2.334257,-4.53148 -6.047904,-3.00868 -13.476583,-3.128098 -19.844757,0.273502 -0.730553,2.483865 -1.121478,5.104304 -1.121478,7.811404 0,3.914977 0.818607,7.648315 2.297691,11.049738 1.662863,-2.159058 3.795767,-4.035606 6.36116,-5.467236 z"
   id="path10749" />
<path
   style="fill:#b4cccb;stroke-width:0.176296"
   d="m 59.543296,62.472309 c -2.576714,-0.07262 -4.80195,-1.491255 -5.953373,-3.553253 -1.713454,-0.312846 -3.469949,-0.417879 -5.227687,-0.312153 -5.744276,3.573188 -9.574115,9.769586 -9.678627,16.83883 4.570584,4.631311 10.728393,7.78714 17.62073,8.643001 -1.186024,-2.547474 -1.849549,-5.371565 -1.849549,-8.346448 1.7e-4,-5.069294 1.917174,-9.705632 5.088506,-13.269977 z"
   id="path10751" />
<path
   style="fill:#8aacad;stroke-width:0.176296"
   d="m 75.049639,70.160308 c -4.542653,-2.53482 -7.738036,-6.457592 -9.34621,-10.894091 -1.353363,2.120584 -3.737286,3.273863 -6.160312,3.206438 -1.136926,1.277897 -2.109391,2.695488 -2.893398,4.219329 0.334083,6.687243 4.067068,13.077242 10.511801,16.673481 0.0565,0.03155 0.113509,0.0617 0.170342,0.0922 2.566159,-0.62534 4.999574,-1.575487 7.251703,-2.802079 3.441595,-1.949342 6.512524,-4.59006 8.961189,-7.86063 -2.906123,-0.271244 -5.800957,-1.13144 -8.495115,-2.634653 z"
   id="path10753" />
<path
   style="fill:#b4cccb;stroke-width:0.176296"
   d="m 88.573916,63.139942 c 1.629144,-6.107835 1.189617,-12.734586 -1.620386,-18.80291 -1.696411,2.2972 -3.914638,4.290215 -6.608625,5.793433 -4.542659,2.534818 -9.655164,3.248383 -14.434381,2.376057 1.223566,2.193031 1.064852,4.764945 -0.207095,6.759695 0.576715,1.590569 1.360534,3.113194 2.334256,4.531478 6.158908,3.06397 13.750772,3.134163 20.195684,-0.461903 0.114758,-0.06413 0.227753,-0.129986 0.340547,-0.19585 z"
   id="path10755" />
<path
   style="fill:#8aacad;stroke-width:0.176296"
   d="m 71.138398,52.818675 c 5.824793,-3.623281 9.683861,-9.94274 9.683861,-17.135386 0,-0.128083 -0.0028,-0.255647 -0.0053,-0.383039 -4.65827,-4.417607 -10.815575,-7.363028 -17.658028,-8.045393 1.210093,2.568621 1.886655,5.421656 1.886655,8.428432 0,5.06964 -1.916981,9.705978 -5.088313,13.27015 2.576714,0.07262 4.801946,1.49126 5.953374,3.553256 1.713452,0.312499 3.469933,0.417705 5.227493,0.31198 z"
   id="path10757" />
<path
   style="fill:#53caf9;stroke-width:0.176296"
   d="m 92.656399,39.700521 -2.239743,-3.668686 -0.0325,-0.04939 c -6.825038,-9.756071 -18.146847,-15.5807 -30.28569,-15.5807 -20.145273,0 -36.534609,15.840675 -36.534609,35.311215 0,19.470714 16.389336,35.311215 36.534444,35.311215 20.145113,0 36.534614,-15.840501 36.534614,-35.311215 0,-5.632758 -1.338113,-11.02027 -3.976516,-16.012439 z M 60.098466,83.366157 c -15.7764,0 -28.611173,-12.405278 -28.611173,-27.653197 0,-15.248091 12.834952,-27.653024 28.611173,-27.653024 15.77624,0 28.611192,12.405106 28.611192,27.65285 0,15.248093 -12.834952,27.653371 -28.611192,27.653371 z"
   id="path10759" />
<g
   id="g10769"
   transform="matrix(0.17932421,0,0,0.17332103,13.068193,11.679193)">
	<circle
   style="fill:#8aacad"
   cx="457.01099"
   cy="58.175999"
   r="25.775"
   id="circle10761" />
	<circle
   style="fill:#8aacad"
   cx="457.01099"
   cy="453.505"
   r="25.775"
   id="circle10763" />
	<circle
   style="fill:#8aacad"
   cx="65.231003"
   cy="58.175999"
   r="25.775"
   id="circle10765" />
	<circle
   style="fill:#8aacad"
   cx="65.231003"
   cy="453.505"
   r="25.775"
   id="circle10767" />
</g>
<path
   style="opacity:0.15;fill:#231f20;stroke-width:0.176296;enable-background:new"
   d="m 34.722142,55.710013 c 0,-14.746499 11.944206,-26.795432 26.992225,-27.60536 -0.53511,-0.02875 -1.073432,-0.04472 -1.615726,-0.04472 -15.799699,0 -28.607919,12.379455 -28.607919,27.65025 0,15.270797 12.80822,27.650251 28.607919,27.650251 0.542294,0 1.080791,-0.01593 1.615726,-0.04472 C 46.666348,82.505273 34.722142,70.456341 34.722142,55.710013 Z"
   id="path10771" />
<path
   style="fill:#1a1a1a;stroke-width:0.108369"
   d="m 22.868124,100.21551 c -2.209449,-0.466129 -4.066103,-1.87112 -5.071093,-3.837464 -0.893472,-1.748155 -0.820847,1.995171 -0.789034,-40.6688 l 0.02846,-38.170385 0.311249,-0.851295 c 0.793832,-2.17121 2.364206,-3.728116 4.593964,-4.554559 l 0.936951,-0.347277 37.918973,-0.02919 c 42.331626,-0.03257 38.825408,-0.0951 40.564466,0.723393 1.62142,0.763136 2.78199,1.899603 3.53423,3.460826 0.76741,1.592761 0.70962,-1.674416 0.70962,40.112103 0,42.047568 0.0673,38.54294 -0.77233,40.218634 -0.90397,1.804073 -2.4359,3.094292 -4.46358,3.759284 l -0.881838,0.28921 -37.974089,0.0186 c -31.248571,0.0153 -38.093071,-0.006 -38.645951,-0.12313 z m 2.852261,-5.539061 c 0.972189,-0.199111 1.716817,-0.599273 2.384129,-1.281242 2.404191,-2.456977 1.359758,-6.418205 -1.952999,-7.407159 -2.211038,-0.660059 -4.595846,0.330359 -5.554865,2.306953 -0.890135,1.834609 -0.563209,3.755412 0.874711,5.139194 0.701035,0.674648 1.421906,1.060225 2.344213,1.253879 0.808127,0.169672 1.026088,0.168345 1.904811,-0.01162 z m 70.007507,0.05283 c 1.520845,-0.240721 2.808814,-1.163151 3.48917,-2.498924 0.69507,-1.364605 0.55634,-3.229644 -0.33321,-4.479263 -0.470121,-0.660437 -1.156714,-1.212526 -1.972475,-1.586106 -0.674896,-0.309056 -0.818066,-0.334342 -1.89322,-0.334342 -1.122405,0 -1.192491,0.01402 -2.001554,0.400498 -0.979943,0.468084 -1.77668,1.239095 -2.256224,2.183333 -0.286464,0.563967 -0.311047,0.709155 -0.311047,1.837555 0,1.156842 0.01965,1.265274 0.351959,1.943357 0.732427,1.494365 2.298646,2.494003 4.112332,2.624691 0.09094,0.0066 0.45737,-0.0343 0.814269,-0.0908 z M 64.269834,90.830752 c 12.151059,-1.325843 22.879214,-8.538425 28.434404,-19.116587 2.508156,-4.776033 3.774526,-9.60362 3.94058,-15.022062 C 96.807352,51.38802 95.772908,46.264704 93.566388,41.445516 92.702902,39.559588 90.610644,36.130044 89.286069,34.429375 79.384831,21.71681 61.794759,16.962311 46.544993,22.876709 c -1.700103,0.659363 -4.317457,1.939434 -5.864291,2.868031 -2.590738,1.555286 -5.752213,4.131694 -7.77119,6.333055 -5.296193,5.774553 -8.281882,12.263217 -9.218006,20.033113 -0.204355,1.696135 -0.173212,5.827034 0.05744,7.617571 0.932892,7.242296 3.845002,13.666779 8.632036,19.043327 0.985929,1.107365 3.448702,3.434505 4.551904,4.301219 6.077653,4.774831 13.390163,7.512458 21.274304,7.964581 1.259667,0.07224 4.526297,-0.03922 6.062644,-0.206854 z M 25.68662,26.170188 c 0.759296,-0.100161 1.803081,-0.651527 2.412592,-1.274418 1.172485,-1.19823 1.58887,-2.70588 1.173252,-4.24813 -0.239382,-0.888268 -0.554294,-1.420578 -1.222487,-2.066399 -1.552108,-1.500151 -3.996247,-1.736272 -5.868152,-0.566904 -0.706824,0.441549 -1.17255,0.958693 -1.598263,1.774723 -1.208531,2.31658 -0.06232,5.187109 2.460404,6.16174 0.51401,0.198583 1.544409,0.366484 1.929017,0.314336 0.12125,-0.01646 0.442387,-0.05917 0.713637,-0.09495 z m 70.535722,-0.0661 c 1.232898,-0.268546 2.390193,-1.191712 3.00353,-2.395905 0.62432,-1.225731 0.55958,-3.035821 -0.15021,-4.198342 -0.307231,-0.503167 -1.040943,-1.244757 -1.535411,-1.551887 -1.398751,-0.868826 -3.451144,-0.904615 -4.900232,-0.08545 -0.662607,0.374587 -1.552044,1.331971 -1.891929,2.03653 -0.266563,0.552528 -0.295875,0.733909 -0.297234,1.840381 -0.0014,1.175513 0.014,1.257753 0.363386,1.943845 1.011852,1.986581 3.094203,2.914846 5.4081,2.410831 z"
   id="path11327" /><path
   style="fill:#333333;stroke-width:0.108369"
   d="m 19.902428,100.21537 c -2.721431,-0.580016 -4.748551,-2.33838 -5.652086,-4.902719 l -0.300314,-0.852316 -0.03016,-38.034577 c -0.03347,-42.182669 -0.08923,-38.882642 0.683995,-40.483292 0.918174,-1.900729 2.449835,-3.200758 4.582083,-3.889135 0.524647,-0.169378 1.100186,-0.247017 2.149476,-0.289972 0.788144,-0.03226 1.404609,-0.02897 1.369931,0.0073 -0.03466,0.03625 -0.395617,0.182534 -0.802081,0.325029 -1.140649,0.399882 -1.762614,0.785383 -2.696843,1.671558 -0.973042,0.922988 -1.341275,1.468311 -1.874043,2.775288 l -0.406143,0.996341 -0.03186,37.821502 c -0.02139,25.409832 0.0053,38.094615 0.08123,38.653759 0.124927,0.919594 0.577821,2.296756 0.800135,2.433075 0.0784,0.04807 0.104709,0.08813 0.05848,0.08902 -0.08228,0.0018 0.365635,0.750925 0.637821,1.067027 0.259613,0.301505 1.105994,1.118701 1.34948,1.302949 0.763115,0.577455 2.072431,1.185503 2.833282,1.315773 0.644437,0.11034 0.406433,0.15117 -0.832558,0.14284 -0.692152,-0.005 -1.556074,-0.0719 -1.919832,-0.14944 z"
   id="path11329" /><path
   style="fill:#333333;stroke-width:0.108369"
   d="M 57.545817,90.885909 C 52.824102,90.55524 48.429632,89.404091 44.152926,87.377589 41.826479,86.275212 40.198836,85.314225 38.208937,83.868134 30.539862,78.294924 25.47504,70.117331 24.039526,60.990389 22.511501,51.275267 25.2394,41.458894 31.619464,33.713919 c 1.229547,-1.492587 4.154465,-4.321755 5.699214,-5.512637 11.147547,-8.59383 26.350455,-10.163988 39.021271,-4.030122 5.308395,2.569748 9.937845,6.369988 13.335328,10.946707 0.764387,1.029716 2.597523,4.004626 3.282445,5.326973 0.71545,1.38127 1.660205,3.740539 2.16183,5.398502 1.445751,4.778647 1.815485,10.077057 1.054142,15.106373 -0.544741,3.598417 -1.974663,7.826727 -3.73449,11.042846 -1.860529,3.400141 -3.750204,5.857082 -6.669443,8.671518 -2.488843,2.399509 -4.860376,4.147587 -7.858932,5.792887 -6.068214,3.329649 -13.374147,4.918523 -20.365012,4.428943 z m 6.676389,-7.763096 c 6.088867,-0.872917 11.636552,-3.555747 15.987535,-7.731504 4.962744,-4.762873 7.752387,-10.473174 8.43242,-17.26092 0.157713,-1.574289 0.06601,-4.911522 -0.175677,-6.392368 C 87.442145,45.461732 84.670148,40.23583 80.073467,35.91511 77.763582,33.743877 75.690996,32.306603 72.922841,30.956382 68.154376,28.630466 62.64108,27.641108 57.26181,28.146014 c -3.969645,0.372595 -8.251937,1.728228 -11.713773,3.708195 -3.821727,2.185799 -7.377804,5.537412 -9.792944,9.229868 -1.967391,3.00793 -3.418577,6.843506 -4.016551,10.616061 -0.291964,1.841793 -0.350119,5.670292 -0.111439,7.335838 1.149325,8.019972 5.30575,14.740866 11.928584,19.288375 4.063367,2.790081 8.96004,4.531624 14.045251,4.995328 1.594999,0.145445 4.923915,0.04646 6.621268,-0.196866 z"
   id="path11331" /><path
   style="fill:#333333;stroke-width:0.108369"
   d="m 23.760458,94.57635 c -0.84168,-0.201902 -1.633322,-0.640098 -2.249608,-1.245223 -2.176975,-2.137547 -1.539957,-5.641855 1.269541,-6.983902 2.330221,-1.113106 4.993469,-0.167369 6.141913,2.181034 0.31544,0.645032 0.347763,0.806379 0.345321,1.723768 -0.0023,0.801295 -0.05529,1.139777 -0.25521,1.624947 -0.550557,1.336098 -1.787904,2.369417 -3.212189,2.68252 -0.886628,0.194909 -1.283837,0.198192 -2.039768,0.01686 z"
   id="path11333" /><path
   style="fill:#333333;stroke-width:0.108369"
   d="m 24.068356,26.114144 c -2.402235,-0.339033 -4.236795,-2.76869 -3.800945,-5.033899 0.280436,-1.457489 1.251257,-2.688877 2.639027,-3.347322 0.578436,-0.274447 0.739069,-0.300603 1.846087,-0.300603 1.139152,0 1.255884,0.02054 1.929017,0.339085 1.722037,0.814956 2.757573,2.514361 2.61634,4.293632 -0.203992,2.569907 -2.594681,4.420965 -5.229526,4.049107 z"
   id="path11335" /><path
   style="fill:#333333;stroke-width:0.108369"
   d="m 94.256957,26.102772 c -1.392678,-0.228347 -2.741451,-1.226316 -3.366873,-2.491164 -0.450833,-0.911732 -0.521787,-2.325064 -0.164691,-3.279924 0.452771,-1.210768 1.249825,-2.043015 2.497772,-2.608083 0.572836,-0.259375 0.770056,-0.291281 1.800694,-0.291281 1.072959,0 1.211635,0.0248 1.900436,0.340195 0.96169,0.440307 1.756334,1.208337 2.211877,2.137835 0.32946,0.672194 0.35199,0.793152 0.35199,1.890089 0,1.060035 -0.0286,1.22826 -0.30004,1.761869 -0.939936,1.848103 -2.922954,2.869731 -4.931165,2.540464 z"
   id="path11337" /><path
   style="fill:#4d4d4d;stroke-width:0.108369"
   d="m 94.161457,94.612685 c -1.327091,-0.252418 -2.588466,-1.194756 -3.227536,-2.411209 -0.358611,-0.682618 -0.374357,-0.762089 -0.374357,-1.890343 0,-1.1035 0.02222,-1.22306 0.351959,-1.895925 0.451237,-0.920645 1.210652,-1.654333 2.190095,-2.115863 0.720899,-0.339716 0.831346,-0.360423 1.922241,-0.360423 1.08383,0 1.204547,0.02223 1.898388,0.349406 0.983515,0.463775 1.767834,1.216537 2.212155,2.123202 0.33149,0.676392 0.35376,0.795606 0.35376,1.893768 0,1.118413 -0.0171,1.204637 -0.37184,1.88804 -0.653792,1.259151 -1.892002,2.164897 -3.316397,2.425989 -0.668134,0.122466 -0.966019,0.121259 -1.638468,-0.0067 z"
   id="path11339" /><path
   style="fill:#b3b3b3;stroke-width:0.108369"
   d="m 54.459142,81.94809 c -3.030435,-0.958254 -6.156653,-2.576097 -8.762995,-4.534908 -1.960583,-1.47348 -4.389513,-3.946523 -5.714212,-5.817969 l -0.604332,-0.853766 0.208371,-0.704235 c 0.335736,-1.134683 0.751207,-2.129081 1.436032,-3.436937 1.506853,-2.877796 3.572751,-5.243646 6.280878,-7.192801 l 1.148995,-0.826989 1.70853,0.06076 c 0.939728,0.03341 2.08326,0.116356 2.541182,0.184309 0.811479,0.120407 0.840162,0.135107 1.130945,0.579324 0.495184,0.756533 1.132299,1.389412 1.927085,1.91428 0.77932,0.514663 2.363811,1.12092 2.943583,1.12628 0.612081,0.0056 0.685982,0.150277 0.296113,0.579456 -0.99618,1.096592 -2.301221,3.263148 -3.055114,5.071943 -1.027162,2.464364 -1.493829,4.856112 -1.493645,7.655312 1.15e-4,1.996463 0.180015,3.390316 0.67389,5.221629 0.180359,0.668739 0.315211,1.228176 0.299662,1.243195 -0.01561,0.01504 -0.449777,-0.105983 -0.964968,-0.268888 z"
   id="path11341" /><path
   style="fill:#b3b3b3;stroke-width:0.108369"
   d="m 53.730577,51.831394 c -0.0392,-0.109954 -0.266595,-0.638846 -0.505359,-1.175325 -1.695241,-3.808909 -4.811006,-7.188506 -8.630181,-9.360972 -1.049744,-0.597125 -2.814065,-1.395784 -3.638751,-1.647181 -0.242526,-0.07392 -0.485557,-0.17414 -0.540099,-0.222707 -0.27215,-0.242337 2.957616,-3.608743 4.942796,-5.15192 2.309623,-1.795377 5.480802,-3.553476 7.976261,-4.421991 0.931177,-0.324089 1.052109,-0.343248 1.317066,-0.208628 0.541458,0.275108 3.018168,2.688825 3.83689,3.739346 2.401702,3.081527 3.828507,6.579149 4.22854,10.365545 l 0.101303,0.958857 -0.503962,0.852312 c -0.636292,1.076136 -1.247309,1.961357 -1.893352,2.742995 -0.48356,0.585088 -0.528388,0.61222 -1.011935,0.612602 -0.756078,8.87e-4 -2.105943,0.36987 -2.986079,0.816895 -0.837948,0.42559 -1.810977,1.219827 -2.311904,1.887093 -0.2684,0.357526 -0.319577,0.38614 -0.381234,0.213079 z"
   id="path11343" /><path
   style="fill:#b3b3b3;stroke-width:0.108369"
   d="M 74.683596,65.797668 C 72.764394,65.526725 70.664777,64.919693 68.861489,64.114405 68.113881,63.780559 68.035808,63.71222 67.61323,63.021856 67.065023,62.126243 66.379422,60.795959 66.038265,59.965979 l -0.252695,-0.61482 0.338642,-0.73201 c 0.874604,-1.890494 0.867227,-3.957292 -0.02093,-5.874448 -0.06842,-0.147766 0.02006,-0.1512 0.836245,-0.03243 1.311492,0.190827 4.498528,0.179056 5.914077,-0.02187 5.06579,-0.718984 9.780692,-3.234678 13.056136,-6.966277 0.280183,-0.319208 0.540471,-0.550394 0.578362,-0.513749 0.15562,0.150402 1.077977,2.887039 1.374192,4.077229 0.497709,1.999576 0.670892,3.341672 0.735594,5.699863 0.07838,2.853944 -0.153325,4.957587 -0.833032,7.5643 l -0.291692,1.118661 -0.60627,0.290536 c -1.768899,0.847701 -4.110229,1.542068 -6.187016,1.83488 -1.428017,0.201348 -4.576207,0.202301 -5.996269,0.0018 z"
   id="path11345" /><path
   style="fill:#999999;stroke-width:0.108369"
   d="m 35.634863,62.471617 c -1.283075,-4.993483 -1.115722,-10.28137 0.479497,-15.150464 0.257754,-0.786727 0.453717,-1.20832 0.595794,-1.281814 0.380798,-0.196969 2.770955,-0.536143 4.240582,-0.601762 3.122996,-0.139442 6.379407,0.462732 9.375021,1.733636 l 1.102316,0.467649 0.60346,0.984183 c 0.570426,0.930288 1.653339,3.186798 1.655322,3.44927 4.59e-4,0.06667 -0.14878,0.430431 -0.331766,0.808372 -0.392935,0.811552 -0.654788,1.917688 -0.657469,2.777151 -0.0023,0.75121 0.262201,2.038393 0.554215,2.696825 0.118518,0.267241 0.215493,0.496884 0.215493,0.510306 0,0.01344 -0.359654,-0.03581 -0.799171,-0.10936 -0.439545,-0.07357 -1.42777,-0.163992 -2.196068,-0.20093 -4.804478,-0.230978 -9.932495,1.373341 -13.839945,4.329922 -0.377634,0.285717 -0.702596,0.51949 -0.722129,0.51949 -0.01956,0 -0.143376,-0.419613 -0.275152,-0.932474 z"
   id="path11347" /><path
   style="fill:#808080;stroke-width:0.108369"
   d="m 68.899486,52.779696 c -0.333472,-0.01304 -1.115694,-0.08017 -1.738265,-0.149164 l -1.131986,-0.125448 -0.487224,-0.659922 c -1.077802,-1.459835 -2.656325,-2.447555 -4.481675,-2.804234 l -0.949782,-0.185596 0.324658,-0.369825 c 0.684701,-0.779948 1.973295,-2.764946 2.557038,-3.938901 0.730112,-1.468396 1.377,-3.337601 1.732894,-5.007353 0.23457,-1.100394 0.260893,-1.496531 0.258524,-3.888687 -0.0028,-2.48414 -0.02259,-2.753161 -0.298964,-3.995234 -0.162983,-0.732454 -0.445063,-1.761146 -0.62679,-2.285974 -0.181727,-0.524824 -0.310528,-0.973468 -0.286211,-0.99698 0.06422,-0.06207 2.059485,0.275889 3.088511,0.523146 4.849785,1.165321 9.238251,3.49449 12.939372,6.867534 l 0.92434,0.842412 -0.06609,0.960828 c -0.190317,2.766321 -1.372984,6.193323 -3.023654,8.761682 -1.359451,2.115255 -3.253106,4.117699 -5.294761,5.599001 -1.054835,0.765305 -1.174932,0.824335 -1.708559,0.839838 -0.315697,0.0092 -0.697982,0.02117 -0.84958,0.02662 -0.151539,0.0055 -0.548377,-8.87e-4 -0.881799,-0.01375 z"
   id="path11349" /><path
   style="fill:#808080;stroke-width:0.108369"
   d="m 65.151656,82.014663 c -4.71038,-3.373798 -7.774193,-8.631172 -8.362123,-14.348997 -0.08891,-0.864766 -0.07943,-0.931996 0.210047,-1.491549 0.361076,-0.697969 1.437515,-2.28943 2.057543,-3.041939 l 0.443484,-0.538259 1.011081,-0.130112 c 1.986658,-0.255647 3.789129,-1.212863 4.77021,-2.533231 0.395222,-0.531958 0.486411,-0.567379 0.588655,-0.228733 0.256698,0.850106 1.472317,3.168298 2.249177,4.289133 3.07579,4.437755 8.333573,7.743395 13.696693,8.611298 l 0.770842,0.124743 -1.102781,1.224843 c -3.455647,3.838132 -8.1541,6.735509 -13.356624,8.236588 -2.052052,0.592071 -1.894059,0.601291 -2.976204,-0.173785 z"
   id="path11351" /><path
   style="fill:#808080;stroke-width:0.108369"
   d="m 33.351187,65.360395 c -0.249454,-0.577021 -0.684316,-1.950407 -0.98149,-3.099679 -1.146167,-4.432554 -1.086736,-9.347142 0.166101,-13.739207 l 0.340073,-1.192263 0.908149,-0.367425 c 1.138785,-0.460749 2.463021,-0.876293 2.543771,-0.798241 0.03374,0.03257 -0.01093,0.269406 -0.09921,0.526248 -1.078514,3.137606 -1.512344,5.735904 -1.511044,9.049643 9.18e-4,2.663733 0.315366,5.046505 0.948992,7.194705 l 0.15993,0.542212 -1.156803,1.128973 -1.156818,1.128968 z"
   id="path11353" /><path
   style="fill:#80b3ff;stroke-width:0.108369"
   d="m 38.565073,69.462498 c -0.704496,-1.192009 -1.389464,-2.563412 -1.8553,-3.714543 -0.475765,-1.175765 -0.78196,-2.160473 -0.693878,-2.231447 2.8056,-2.259898 5.938008,-3.747231 9.404668,-4.465557 1.259777,-0.261035 2.638775,-0.405726 2.480167,-0.260232 -0.06063,0.05561 -0.531846,0.416002 -1.047174,0.800856 -1.384607,1.034042 -2.213447,1.794671 -3.207873,2.943828 -1.918891,2.217502 -3.35625,4.760974 -4.102609,7.25965 l -0.262363,0.878307 z"
   id="path11355" /><path
   style="fill:#80b3ff;stroke-width:0.108369"
   d="M 50.270641,47.039172 C 47.28324,45.733246 43.507126,45.111163 40.214329,45.38246 c -0.865088,0.07128 -2.019311,0.219792 -2.564952,0.33003 -0.545626,0.110242 -1.00173,0.191293 -1.013555,0.180121 -0.05676,-0.05362 0.99012,-2.289621 1.5089,-3.222833 0.669938,-1.205147 1.95821,-3.130525 2.094604,-3.130525 0.219531,0 2.143375,0.767485 3.147891,1.255801 2.813291,1.367573 5.321493,3.37949 7.233767,5.802439 0.358409,0.45412 0.612233,0.820591 0.564026,0.814375 -0.0482,-0.0062 -0.459629,-0.173927 -0.914369,-0.372696 z"
   id="path11564" /><path
   style="fill:#80b3ff;stroke-width:0.108369"
   d="m 62.80618,43.67825 c -0.250477,-3.430338 -1.938314,-7.532641 -4.342872,-10.55532 -0.71735,-0.901757 -2.134832,-2.31892 -3.01781,-3.017129 -0.426883,-0.337551 -0.735024,-0.653462 -0.684788,-0.702029 0.152718,-0.147598 2.531729,-0.71105 4.052726,-0.959869 1.437951,-0.23522 3.852627,-0.323805 4.486601,-0.164592 0.265618,0.06671 0.339238,0.198694 0.680143,1.219351 0.665347,1.991986 0.865355,3.221737 0.923431,5.67666 0.03962,1.675804 0.0099,2.463818 -0.126808,3.36503 -0.288314,1.900131 -0.843783,3.773014 -1.590597,5.363166 l -0.314687,0.669976 z"
   id="path11566" /><path
   style="fill:#80b3ff;stroke-width:0.108369"
   d="m 71.65133,52.564509 c 1.602307,-1.104312 3.386833,-2.689994 4.463299,-3.965978 1.874935,-2.222467 3.402657,-5.173847 4.131475,-7.981486 0.261132,-1.00601 0.556745,-2.811641 0.562286,-3.434372 l 0.0046,-0.466712 0.390245,0.426158 c 1.802122,1.967813 3.347105,4.157743 4.468409,6.333759 l 0.738385,1.432944 -0.203372,0.276089 c -0.393822,0.534519 -1.719618,1.858383 -2.646221,2.642324 -3.105956,2.627771 -7.482615,4.474798 -11.518989,4.861213 -0.653682,0.06258 -0.658232,0.06114 -0.389672,-0.123939 z"
   id="path11568" /><path
   style="fill:#80b3ff;stroke-width:0.108369"
   d="M 81.561135,72.460871 C 77.356076,71.613933 73.565543,69.647757 70.675345,66.814339 69.6887,65.847074 68.283967,64.17655 68.379549,64.084158 c 0.03168,-0.03062 0.248444,0.03767 0.481669,0.151812 0.736792,0.360557 2.521639,0.968774 3.656958,1.246163 1.684729,0.411631 3.203912,0.581538 5.199623,0.581538 3.223046,0 5.926945,-0.549879 8.691505,-1.767566 0.448694,-0.197625 0.839789,-0.359318 0.869091,-0.359318 0.318645,0 -1.528764,4.078595 -2.699303,5.959266 -0.559564,0.89905 -1.925712,2.776872 -2.011163,2.764484 -0.0303,-0.0044 -0.483373,-0.09424 -1.006794,-0.199666 z"
   id="path11570" /><path
   style="fill:#80b3ff;stroke-width:0.108369"
   d="M 58.978783,82.997458 C 58.220979,82.885273 57.154837,82.68452 56.609606,82.551338 L 55.61826,82.309192 55.311712,81.246624 c -1.294823,-4.487933 -0.974893,-9.183155 0.921714,-13.527688 l 0.372131,-0.852315 0.08147,0.852315 c 0.218328,2.283503 0.963852,4.832348 2.034093,6.954352 1.451471,2.877859 3.554067,5.359732 6.175081,7.288983 0.566477,0.416982 1.015603,0.772041 0.998035,0.789021 -0.01767,0.01699 -0.725063,0.12922 -1.572239,0.249423 -1.89231,0.268506 -3.514095,0.267517 -5.343215,-0.0031 z"
   id="path11572" /><path
   style="fill:#666666;stroke-width:0.108369"
   d="m 58.372527,62.278313 c -2.403033,-0.457492 -4.437995,-2.273368 -5.30499,-4.73389 -0.158332,-0.449341 -0.205236,-0.884058 -0.201168,-1.864444 0.0048,-1.10365 0.04494,-1.385326 0.295324,-2.059899 0.778655,-2.097946 2.427012,-3.659274 4.549463,-4.309252 1.094471,-0.335168 2.984031,-0.335168 4.078503,0 2.746022,0.840943 4.695638,3.235866 4.868964,5.981063 0.209946,3.325283 -2.243737,6.378041 -5.622705,6.995474 -1.033989,0.188933 -1.634121,0.186896 -2.663391,-0.0091 z m 2.290815,-4.561379 c 1.19862,-0.497097 1.6842,-2.037523 0.999485,-3.17068 -0.820457,-1.357763 -3.123543,-1.317262 -3.871334,0.06808 -0.610718,1.131444 -0.125794,2.601681 1.021943,3.098281 0.433347,0.187486 1.402786,0.189749 1.849906,0.0044 z"
   id="path11574" /><path
   style="fill:#4d4d4d;stroke-width:0.108369"
   d="m 58.706486,57.514411 c -1.269647,-0.695041 -1.471018,-2.368547 -0.397751,-3.305725 0.394492,-0.344481 1.015351,-0.605036 1.441679,-0.605036 0.426315,0 1.047164,0.260555 1.441674,0.605036 1.443153,1.260167 0.513928,3.545306 -1.441674,3.545306 -0.425387,0 -0.736856,-0.07148 -1.043928,-0.239581 z"
   id="path11576" /><path
   style="fill:#4d4d4d;stroke-width:0.108369"
   d="m 32.964628,47.165614 c 0,-0.138134 0.633212,-1.740341 1.046944,-2.649073 0.83057,-1.824267 2.820612,-5.031322 3.420771,-5.512729 0.140136,-0.112394 0.392403,-0.08408 1.430978,0.160602 0.693465,0.163375 1.240556,0.326538 1.215757,0.36258 -1.200745,1.743828 -1.665066,2.509662 -2.429765,4.007488 -0.508543,0.996142 -0.957214,1.941586 -0.997011,2.100986 -0.06379,0.255506 -0.181823,0.322092 -0.997001,0.56241 -0.508548,0.149927 -1.321995,0.434566 -1.807658,0.632532 -0.485663,0.197971 -0.883015,0.348812 -0.883015,0.335204 z"
   id="path11578" /><path
   style="fill:#4d4d4d;stroke-width:0.108369"
   d="m 38.126635,73.299729 c -1.689191,-1.930742 -3.38928,-4.635202 -4.42392,-7.037381 l -0.168502,-0.391195 1.166224,-1.139532 1.166228,-1.139533 0.404435,1.15784 c 0.544874,1.559829 1.35677,3.280571 2.247277,4.762717 l 0.736897,1.226539 -0.224227,1.063557 c -0.123348,0.584959 -0.227754,1.199859 -0.231995,1.366442 -0.0046,0.166588 -0.04444,0.393133 -0.08923,0.503438 -0.07061,0.173727 -0.1486,0.12385 -0.583187,-0.372892 z"
   id="path11580" /><path
   style="fill:#4d4d4d;stroke-width:0.108369"
   d="m 54.097006,29.088544 -0.409081,-0.286703 1.240005,-0.221136 c 1.663239,-0.296615 3.176423,-0.444541 4.349634,-0.425209 0.532887,0.0088 0.820067,0.03434 0.638198,0.05683 -1.099875,0.135946 -3.460027,0.601855 -4.358283,0.860351 l -1.051397,0.302565 z"
   id="path11582" /><path
   style="fill:#4d4d4d;stroke-width:0.108369"
   d="m 39.079378,39.126779 c -0.604617,-0.141492 -1.189398,-0.287283 -1.299538,-0.323978 -0.170347,-0.05674 -0.08838,-0.193822 0.548009,-0.916967 1.711593,-1.944909 3.994746,-3.893546 6.210884,-5.300866 1.666127,-1.058057 4.600423,-2.421619 6.558654,-3.047802 2.206924,-0.705708 2.383254,-0.733062 2.814081,-0.436576 0.189435,0.130391 0.303422,0.271963 0.253278,0.314598 -0.05013,0.04264 -0.636798,0.281675 -1.303698,0.531195 -2.490459,0.931823 -5.372204,2.547533 -7.550551,4.233405 -1.291325,0.999363 -3.203449,2.858713 -4.254038,4.136565 l -0.877767,1.067698 z"
   id="path11584" /><path
   style="fill:#4d4d4d;stroke-width:0.108369"
   d="m 54.569622,82.797673 c -3.141113,-0.634294 -5.958084,-1.651672 -8.542789,-3.085317 -2.301378,-1.276485 -3.885855,-2.443967 -5.934152,-4.372335 l -1.304482,-1.228136 0.06989,-0.586258 c 0.115415,-0.967395 0.407222,-2.44864 0.492467,-2.499555 0.04384,-0.02618 0.332077,0.303257 0.640534,0.732104 1.3174,1.831543 3.779029,4.325986 5.649938,5.725262 2.470485,1.847699 5.580365,3.480903 8.398513,4.410614 1.369389,0.451759 1.519473,0.526376 1.620161,0.805585 0.130357,0.361461 0.188544,0.35623 -1.090083,0.09804 z"
   id="path11586" /><path
   style="fill:#4d4d4d;stroke-width:0.108369"
   d="m 33.351118,65.259213 c -0.304666,-0.695525 -0.929482,-2.886817 -1.211075,-4.24714 -0.381371,-1.842432 -0.49831,-3.088933 -0.497268,-5.301261 0.0014,-2.746421 0.242343,-4.629425 0.902539,-7.050438 l 0.345395,-1.26648 0.670773,-0.289764 c 0.799377,-0.345316 2.314365,-0.852893 2.545657,-0.852893 0.215134,0 0.224099,-0.05522 -0.228538,1.407968 -0.931401,3.010903 -1.199506,5.113822 -1.120257,8.78636 0.06,2.780186 0.171425,3.700797 0.710437,5.86974 l 0.298633,1.201815 -1.116841,1.079469 -1.116874,1.079469 z"
   id="path11588" /><path
   style="fill:#4d4d4d;stroke-width:0.108369"
   d="M 56.774205,90.775729 C 50.040372,90.154063 43.488929,87.661386 38.047184,83.650512 29.82656,77.591448 24.752961,68.670402 23.809234,58.615542 c -0.166344,-1.772283 -0.07601,-5.742256 0.169534,-7.450606 0.821348,-5.714558 2.97127,-11.001363 6.395677,-15.727449 1.408709,-1.944186 3.084109,-3.757388 5.290813,-5.725995 5.603829,-4.999202 12.672992,-8.094692 20.502691,-8.977867 1.814774,-0.204702 5.59024,-0.2349 7.385384,-0.05908 8.51076,0.833583 16.320989,4.4214 22.352005,10.267957 2.50587,2.429228 4.003036,4.394175 6.23666,8.185337 1.966661,3.338004 3.336294,7.309246 3.999997,11.598059 0.289558,1.871014 0.399684,6.200381 0.209166,8.222286 -0.615189,6.528713 -3.400573,13.32985 -7.488193,18.283971 -6.458927,7.82821 -15.115161,12.465111 -25.199417,13.498661 -1.6449,0.168589 -5.292139,0.192367 -6.889346,0.04491 z m 7.495629,-7.61104 c 6.310662,-0.937661 11.862419,-3.687929 16.26249,-8.056205 1.641944,-1.630116 2.48535,-2.630149 3.65532,-4.334168 1.850108,-2.694601 3.320846,-6.174741 3.992744,-9.447747 0.510255,-2.485769 0.596969,-3.530611 0.530629,-6.391854 -0.04951,-2.13488 -0.106022,-2.795113 -0.341989,-3.995739 C 87.19047,44.942885 84.636581,40.23701 80.303299,36.07672 75.596965,31.558303 69.889203,28.903316 63.222634,28.131616 c -1.397701,-0.161791 -5.094455,-0.161813 -6.393313,-4.4e-5 -5.493736,0.684241 -10.554513,2.735719 -14.660528,5.942885 -1.33826,1.045304 -3.824679,3.482709 -4.813881,4.719022 -2.19962,2.749061 -3.818174,5.853168 -4.842385,9.28695 -0.760686,2.550167 -1.090293,4.963864 -1.090853,7.987789 -9.18e-4,6.032983 2.348133,12.310272 6.44134,17.211545 2.191435,2.62407 5.49452,5.242758 8.695012,6.893404 3.05189,1.574019 6.874115,2.731651 10.381526,3.144236 1.288153,0.151528 5.934079,0.05474 7.330282,-0.152714 z"
   id="path13931" /><path
   style="fill:#999999;stroke-width:0.108369"
   d="m 67.257548,52.600209 c -1.1232,-0.120474 -1.151405,-0.130217 -1.425396,-0.492549 -0.153756,-0.203299 -0.679767,-0.753609 -1.168951,-1.222904 -1.022264,-0.980703 -2.032606,-1.527992 -3.36958,-1.825228 -0.454708,-0.101088 -0.866773,-0.216136 -0.915728,-0.255665 -0.04896,-0.03953 0.179886,-0.417395 0.508621,-0.839706 1.802658,-2.316035 3.135767,-5.173541 3.849601,-8.251563 0.226973,-0.978841 0.250193,-1.350704 0.250193,-4.008761 0,-3.211195 -0.03705,-3.498776 -0.766292,-5.94703 -0.203859,-0.68441 -0.348181,-1.266547 -0.320728,-1.293639 0.0934,-0.09216 2.370219,0.329675 3.745053,0.693865 4.417883,1.170281 8.512486,3.423076 12.203172,6.714035 l 0.844682,0.753201 -0.113394,1.156691 c -0.35515,3.622808 -1.884539,7.303629 -4.270224,10.277284 -1.399922,1.744924 -4.078751,4.106587 -5.147827,4.538322 -0.456971,0.184545 -2.201415,0.186173 -3.903202,0.0036 z"
   id="path13933" /><path
   style="fill:#808080;stroke-width:0.108369"
   d="m 65.647684,82.303939 c -0.828114,-0.546685 -2.093451,-1.614538 -3.048567,-2.572783 -2.482931,-2.491066 -4.252224,-5.552387 -5.163375,-8.933878 -0.374633,-1.390353 -0.706126,-3.561302 -0.61518,-4.028733 0.100669,-0.517343 1.226155,-2.26098 2.53699,-3.9304 0.102244,-0.130195 0.397251,-0.225791 0.906037,-0.293606 2.10687,-0.280792 3.945492,-1.192404 4.935433,-2.447025 0.422417,-0.535366 0.61401,-0.653106 0.61401,-0.377328 0,0.370953 2.024426,4.008633 2.761645,4.962379 2.956455,3.824803 7.649339,6.796673 12.229577,7.74462 0.697225,0.144296 1.353799,0.294596 1.459133,0.334001 0.156561,0.05859 -0.02566,0.304672 -0.999775,1.350118 -3.326217,3.569777 -7.593567,6.245458 -12.413549,7.783427 -2.362223,0.753742 -2.628864,0.787814 -3.202379,0.409208 z"
   id="path13935" /><path
   style="fill:#808080;stroke-width:0.108369"
   d="M 54.1287,81.784923 C 50.918777,80.699979 47.565623,78.877461 45.098512,76.8768 43.231951,75.363156 40.463852,72.387576 39.631381,70.999894 l -0.204787,-0.34138 0.420205,-1.234671 c 0.551668,-1.620976 1.499154,-3.459171 2.618819,-5.080759 1.079643,-1.563609 3.281389,-3.775112 4.959305,-4.98128 l 1.067423,-0.767307 2.105349,0.118899 c 1.157933,0.0654 2.165709,0.136757 2.239495,0.158574 0.07375,0.02183 0.265062,0.06724 0.425153,0.100933 0.19248,0.04051 0.40996,0.240389 0.642267,0.590297 0.566702,0.853545 1.653604,1.75831 2.67809,2.2293 0.965936,0.44407 1.616992,0.650152 2.065388,0.653772 0.626203,0.0051 0.620418,0.148166 -0.04008,0.99639 -1.766878,2.269065 -3.141671,5.219185 -3.776674,8.10429 -0.234892,1.067147 -0.292886,1.671092 -0.341015,3.550488 -0.06552,2.558514 0.03654,3.634162 0.530221,5.588132 0.346427,1.37115 0.363114,1.473605 0.238013,1.461376 -0.04545,-0.0044 -0.553899,-0.167359 -1.129851,-0.362025 z"
   id="path13989" /><path
   style="fill:#808080;stroke-width:0.108369"
   d="m 53.730839,51.734769 c -0.262487,-0.698671 -1.082849,-2.382486 -1.485935,-3.049863 -1.550483,-2.56717 -3.583731,-4.705462 -6.218071,-6.539326 -1.042487,-0.725714 -3.809507,-2.133176 -4.812045,-2.447681 -0.324066,-0.101661 -0.633231,-0.223897 -0.687043,-0.271639 -0.148862,-0.132054 0.220229,-0.625025 1.484868,-1.983276 2.098272,-2.253606 4.678231,-4.252443 7.451659,-5.773223 1.879594,-1.030657 4.335868,-2.038677 4.96773,-2.038677 0.467608,0 3.611901,3.132944 4.642447,4.625677 2.013394,2.916377 3.333447,6.441867 3.609329,9.639587 l 0.0749,0.867743 -0.750366,1.196366 c -0.412694,0.658001 -1.040554,1.56586 -1.395258,2.017464 -0.686442,0.874021 -0.610787,0.83455 -1.908286,0.995684 -1.636756,0.203269 -3.560131,1.290631 -4.60147,2.601356 -0.267922,0.337266 -0.300539,0.351265 -0.372456,0.159808 z"
   id="path13991" /><path
   style="fill:#999999;stroke-width:0.108369"
   d="m 74.796738,65.778934 c -1.597679,-0.21082 -4.211499,-0.960729 -5.82364,-1.670799 -0.676916,-0.298163 -0.886242,-0.451045 -1.133391,-0.827854 -0.481935,-0.734682 -1.208917,-2.092507 -1.626734,-3.03831 l -0.385021,-0.87152 0.321587,-0.739748 c 0.750353,-1.726093 0.852762,-3.525695 0.292211,-5.134779 -0.153104,-0.439478 -0.268836,-0.808554 -0.257157,-0.820174 0.01171,-0.01163 0.391682,0.02889 0.844449,0.09002 0.469228,0.06336 1.889739,0.09132 3.303392,0.06504 2.804866,-0.05215 3.793733,-0.204657 6.117747,-0.943483 3.356681,-1.06711 6.287314,-2.876806 8.812189,-5.441566 0.641884,-0.652034 1.193685,-1.15981 1.226192,-1.128387 0.118334,0.114373 1.035596,2.881155 1.307567,3.944114 0.545465,2.131706 0.636283,2.88788 0.69498,5.783811 0.06146,3.032556 -0.06429,4.504093 -0.569319,6.662942 -0.508957,2.175683 -0.314252,1.906848 -1.835753,2.534602 -1.659971,0.684876 -3.205698,1.134634 -4.824279,1.403691 -1.012858,0.168371 -1.715849,0.204924 -3.692674,0.191998 -1.342887,-0.0088 -2.590463,-0.03558 -2.772346,-0.0596 z"
   id="path13993" /><path
   style="fill:#999999;stroke-width:0.108369"
   d="m 65.647684,82.303092 c -1.36972,-0.906869 -3.415285,-2.799022 -4.47921,-4.143293 -2.405986,-3.039943 -3.986363,-6.879525 -4.345576,-10.557805 -0.09337,-0.955875 0.05506,-1.304257 1.33445,-3.132508 1.336552,-1.909923 1.197872,-1.794215 2.369687,-1.977393 1.924004,-0.300763 3.276243,-0.966373 4.447645,-2.189238 0.722689,-0.754453 0.838352,-0.836347 0.838352,-0.593611 0,0.235988 1.485781,3.049993 2.138729,4.050683 1.484138,2.274526 3.91681,4.561672 6.496539,6.107924 2.073735,1.242955 4.263366,2.105605 6.671582,2.628396 0.688861,0.149554 1.269147,0.287972 1.289438,0.307588 0.02029,0.01961 -0.502749,0.615995 -1.16234,1.325271 -3.425807,3.683856 -7.735718,6.339487 -12.843541,7.913799 -1.951057,0.601336 -2.204348,0.625251 -2.755755,0.260187 z"
   id="path13995" /><path
   style="fill:#808080;stroke-width:0.108369"
   d="M 73.473981,65.48831 C 71.432317,65.01768 69.057484,64.193858 68.324075,63.701829 67.96826,63.463113 67.002402,61.844661 66.35528,60.402759 l -0.462416,-1.030355 0.294488,-0.711001 c 0.438728,-1.059254 0.614303,-1.911574 0.616117,-2.991017 0.0014,-0.847767 -0.213417,-2.043943 -0.486168,-2.707162 -0.05757,-0.139917 0.349471,-0.159959 3.269894,-0.160997 3.806201,-0.0013 4.291313,-0.06253 6.784527,-0.855488 3.37862,-1.074575 6.086994,-2.717721 8.676369,-5.263895 0.606269,-0.596149 1.184687,-1.128307 1.285375,-1.182581 0.158567,-0.08547 0.250371,0.104403 0.685729,1.418178 0.566423,1.709356 0.984336,3.265778 1.193966,4.446693 0.202008,1.138091 0.19599,7.648426 -0.0081,8.736232 -0.324075,1.727482 -0.694645,3.155421 -0.88469,3.409263 -0.272779,0.364288 -2.679256,1.295072 -4.615407,1.785163 l -1.514919,0.383469 -3.306913,0.03159 c -3.163886,0.03022 -3.354515,0.02059 -4.409157,-0.222525 z"
   id="path13997" /><path
   style="fill:#2a7fff;stroke-width:0.108369"
   d="m 59.033899,82.944636 c -1.167404,-0.174877 -3.072223,-0.575832 -3.255397,-0.685245 -0.136334,-0.08144 -0.446224,-1.060123 -0.72458,-2.288418 -0.246759,-1.088681 -0.476923,-3.059316 -0.480862,-4.117114 -0.0095,-2.540863 0.634714,-5.657163 1.640465,-7.935869 0.365589,-0.828289 0.348604,-0.851087 0.559427,0.751347 0.292638,2.224508 1.319213,5.128962 2.544757,7.199865 1.304193,2.203792 3.137095,4.269144 5.224335,5.886898 0.608101,0.471323 1.119839,0.890954 1.137183,0.932506 0.01735,0.04153 -0.577876,0.154364 -1.322734,0.250687 -1.615891,0.208966 -3.947668,0.211304 -5.322594,0.0053 z"
   id="path13999" /><path
   style="fill:#2a7fff;stroke-width:0.108369"
   d="m 80.749138,72.20044 c -4.017084,-1.000436 -7.251556,-2.749598 -9.961634,-5.38709 -0.804527,-0.782956 -2.355111,-2.567192 -2.287697,-2.632359 0.01878,-0.01815 0.352014,0.105597 0.740497,0.275007 0.977822,0.426401 2.924325,1.02054 4.236693,1.293182 1.388427,0.288442 5.175458,0.411422 6.837017,0.222024 2.087332,-0.237931 4.250727,-0.804658 5.981046,-1.566787 0.450884,-0.198601 0.838421,-0.361093 0.861135,-0.361093 0.225027,0 -0.591345,1.972987 -1.706906,4.125366 -0.634938,1.225003 -2.001082,3.357173 -2.698357,4.211347 -0.202491,0.248056 -0.330897,0.236538 -2.001794,-0.179597 z"
   id="path14070" /><path
   style="fill:#2a7fff;stroke-width:0.108369"
   d="m 71.765423,52.619812 c 0,-0.02658 0.434036,-0.379463 0.964513,-0.784159 1.328683,-1.013626 3.054021,-2.690268 3.878046,-3.768548 2.275233,-2.977368 3.859986,-6.813162 4.15653,-10.060833 0.03806,-0.416689 0.102791,-0.819388 0.143896,-0.894889 0.04976,-0.09144 0.315568,0.139784 0.796122,0.692508 1.57771,1.814723 2.900752,3.762427 4.016868,5.913396 0.594986,1.146619 0.60285,1.173773 0.419245,1.444609 -0.306548,0.452163 -2.023632,2.130607 -2.911334,2.845806 -2.488916,2.005235 -5.982257,3.646136 -9.149072,4.297521 -1.125899,0.23159 -2.314814,0.393164 -2.314814,0.314589 z"
   id="path14072" /><path
   style="fill:#2a7fff;stroke-width:0.108369"
   d="m 62.803159,43.289146 c -0.215042,-2.69567 -1.624214,-6.378995 -3.461858,-9.048837 -0.917193,-1.33253 -2.405458,-2.974445 -3.571328,-3.940002 -0.478653,-0.396399 -0.854006,-0.769069 -0.834152,-0.828148 0.04504,-0.133931 1.937763,-0.618649 3.546929,-0.908359 1.563337,-0.281454 4.401517,-0.39304 4.794999,-0.188525 0.471602,0.245114 1.198001,2.588645 1.438847,4.642072 0.199474,1.700709 0.07893,5.457426 -0.217057,6.765663 -0.383768,1.696112 -1.328542,4.337438 -1.55142,4.337438 -0.04324,0 -0.108436,-0.374085 -0.14496,-0.831302 z"
   id="path14074" /><path
   style="fill:#2a7fff;stroke-width:0.108369"
   d="m 50.192268,46.945466 c -1.523759,-0.669426 -3.721906,-1.24189 -5.763762,-1.501065 -2.067441,-0.262427 -5.634692,-0.10112 -7.438044,0.336335 l -0.284899,0.06912 0.229852,-0.563652 c 0.727991,-1.785097 3.037788,-5.640404 3.379336,-5.640404 0.316454,0 2.829192,1.063815 3.91075,1.655696 2.192027,1.199596 4.788379,3.35112 6.188328,5.128101 0.708422,0.899206 0.699314,0.920424 -0.221561,0.515874 z"
   id="path14076" /><path
   style="fill:#afdde9;stroke-width:0.108369"
   d="M 38.397958,69.023819 C 37.506221,67.43995 36.628679,65.523513 36.264494,64.364657 l -0.242944,-0.773035 0.362211,-0.280211 c 1.867768,-1.444937 4.520834,-2.860728 6.715551,-3.583704 1.233023,-0.406178 3.573986,-0.90481 4.247868,-0.90481 h 0.410811 l -1.139708,0.878946 c -2.187983,1.687372 -3.889343,3.609213 -5.29588,5.982179 -0.716249,1.2084 -1.462626,2.881307 -1.812869,4.063364 -0.112169,0.378566 -0.22936,0.688204 -0.260448,0.688079 -0.03108,-1.06e-4 -0.414085,-0.635367 -0.851128,-1.411646 z"
   id="path14078" /><path
   style="fill:#afdde9;stroke-width:0.108369"
   d="m 58.749037,82.849386 c -0.459771,-0.07487 -1.308604,-0.240185 -1.886259,-0.367381 -1.214885,-0.26749 -1.150671,-0.194115 -1.57015,-1.794001 -0.568832,-2.16925 -0.78201,-5.300347 -0.498682,-7.323898 0.17126,-1.223153 0.612802,-3.081594 0.977556,-4.114585 0.389093,-1.1018 0.687446,-1.817518 0.737545,-1.769101 0.02089,0.02019 0.115097,0.53754 0.209445,1.14972 0.800874,5.198016 3.344686,9.5254 7.69858,13.096361 0.750642,0.615641 1.0389,0.912983 0.936955,0.966405 -0.586626,0.307388 -5.031356,0.412687 -6.60499,0.15648 z"
   id="path14212" /><path
   style="fill:#afdde9;stroke-width:0.108369"
   d="m 80.5165,72.088126 c -3.867524,-1.041164 -7.089022,-2.793454 -9.543527,-5.19105 -0.759562,-0.741945 -2.293955,-2.459599 -2.293955,-2.567915 0,-0.03354 0.260384,0.05009 0.578662,0.185907 0.851453,0.363298 2.964209,1.005934 4.103471,1.248142 1.30613,0.277677 5.823599,0.401687 7.362605,0.20211 1.919359,-0.248899 3.862006,-0.804733 6.225799,-1.781325 0.216928,-0.08962 0.164089,0.216216 -0.182246,1.055127 -0.852914,2.066023 -1.883106,3.954888 -3.284639,6.02225 -0.797491,1.176391 -0.820114,1.198452 -1.221891,1.192351 -0.225127,-0.0035 -1.010062,-0.167941 -1.744279,-0.365597 z"
   id="path14214" /><path
   style="fill:#afdde9;stroke-width:0.108369"
   d="m 72.04651,52.449027 c 0.05758,-0.04842 0.55115,-0.449373 1.096785,-0.891002 3.683167,-2.981116 6.087518,-6.702612 7.277884,-11.264851 0.141159,-0.541046 0.480618,-2.626795 0.491149,-3.017883 0.0065,-0.238538 0.302871,0.03283 1.142926,1.046316 1.212447,1.462747 2.229662,2.942102 3.171933,4.613043 1.059284,1.878368 1.07621,1.941276 0.658907,2.450504 -0.63571,0.77579 -2.835105,2.730798 -3.850626,3.422786 -1.815081,1.236788 -3.86128,2.229915 -6.013736,2.918754 -1.645115,0.526483 -4.320515,1.01262 -3.975222,0.722333 z"
   id="path14216" /><path
   style="fill:#afdde9;stroke-width:0.108369"
   d="m 62.90106,43.533266 c -0.301034,-2.374062 -1.010985,-4.684985 -2.109441,-6.866179 -1.211451,-2.405605 -2.39932,-3.969064 -4.575527,-6.022335 l -1.240511,-1.170396 0.763607,-0.231133 c 1.69951,-0.514446 3.545285,-0.803731 5.508232,-0.863289 2.248759,-0.06823 2.158607,-0.11526 2.670992,1.393095 0.675566,1.98861 0.737275,2.485401 0.73659,5.930804 -4.59e-4,2.636392 -0.03296,3.288451 -0.201301,4.045943 -0.217751,0.979801 -1.053293,3.518161 -1.320044,4.010186 l -0.165224,0.304784 z"
   id="path14218" /><path
   style="fill:#afdde9;stroke-width:0.108369"
   d="m 49.88489,46.769876 c -1.03521,-0.425075 -2.671502,-0.889245 -4.16999,-1.182918 -1.088003,-0.213225 -1.545562,-0.240575 -3.931899,-0.23502 -2.029866,0.0047 -2.971458,0.05168 -3.791025,0.189066 -0.599737,0.100525 -1.106522,0.167209 -1.126225,0.148183 -0.128576,-0.124325 1.642912,-3.44889 2.630209,-4.936019 0.701049,-1.05593 0.751174,-1.085512 1.443212,-0.851583 1.086869,0.36742 3.31598,1.457192 4.363906,2.133447 1.372093,0.885469 2.947931,2.165575 4.013218,3.260068 0.844756,0.867916 1.597106,1.816209 1.428145,1.800036 -0.0484,-0.0046 -0.435193,-0.151001 -0.859551,-0.32526 z"
   id="path14220" /><path
   style="fill:#999999;stroke-width:0.277424"
   d="M 25.382789,100.0638 C 22.215123,99.921781 21.873338,99.851894 20.585608,99.082874 18.505669,97.840749 17.499934,96.049214 17.268356,93.173791 17.1681,91.928945 17.086552,74.402794 17.087138,54.22678 l 0.0011,-36.683658 0.65843,-1.363705 c 0.362137,-0.750037 1.183465,-1.821165 1.825174,-2.380284 2.302093,-2.005807 -1.074659,-1.862733 42.07621,-1.782782 l 38.833998,0.07195 1.45704,0.903727 c 0.89255,0.553597 1.81931,1.449329 2.39208,2.31199 l 0.93502,1.408264 0.0753,38.689365 c 0.0511,26.246809 -0.0195,39.029446 -0.21932,39.746832 -0.48514,1.741361 -1.91001,3.298369 -3.92145,4.285113 L 99.393752,100.32 64.093598,100.26836 C 44.678514,100.23996 27.258646,100.1479 25.38278,100.0638 Z m 2.102524,-5.990479 c 1.933783,-1.330884 2.558525,-4.060711 1.389438,-6.071186 -1.947746,-3.34954 -7.043516,-2.962038 -8.538532,0.6493 -0.914107,2.208105 0.221436,4.837313 2.52606,5.84878 1.227574,0.538765 3.528664,0.326281 4.623034,-0.426894 z m 69.725992,0.252555 c 4.062885,-2.003345 2.984205,-7.913373 -1.572091,-8.613433 -1.514768,-0.232739 -3.427254,0.563794 -4.442467,1.85025 -0.627226,0.794812 -0.745409,1.22274 -0.745409,2.699136 0,1.207375 0.149974,1.96488 0.48088,2.428921 1.460528,2.048163 4.065626,2.726548 6.279087,1.635126 z M 67.798854,90.388408 c 8.650689,-1.791455 16.913611,-7.031347 22.09887,-14.013896 4.550527,-6.127797 6.761734,-12.933065 6.761734,-20.810082 0,-13.349276 -7.485333,-25.235258 -19.716292,-31.307563 -8.777924,-4.357977 -18.677694,-5.169611 -28.07887,-2.302049 -10.876638,3.317611 -20.136614,12.187385 -23.58343,22.589659 -1.321279,3.98754 -1.737782,6.662176 -1.741944,11.186173 -0.0088,9.565595 3.301252,17.60273 10.04091,24.380328 7.852067,7.896269 17.666179,11.570621 29.076076,10.885932 1.707232,-0.102451 4.021555,-0.376273 5.142946,-0.608502 z M 26.968832,25.793536 c 1.764133,-0.860616 2.584836,-2.301453 2.456978,-4.313507 -0.118937,-1.871669 -0.956364,-3.113756 -2.579748,-3.826328 -2.110494,-0.926387 -4.204703,-0.518523 -5.606771,1.091961 -1.687352,1.938178 -1.643702,4.226503 0.117606,6.165371 1.409144,1.551201 3.550832,1.887992 5.611935,0.882503 z m 70.264591,0 c 1.764129,-0.860616 2.584839,-2.301453 2.456979,-4.313507 -0.11894,-1.871669 -0.956365,-3.113756 -2.579748,-3.826328 -2.169088,-0.952106 -4.1553,-0.529747 -5.746613,1.22199 -0.836998,0.921377 -0.912703,1.158204 -0.912703,2.855314 0,1.727507 0.06699,1.926239 1.007037,2.987715 1.539135,1.737941 3.621362,2.125472 5.775048,1.074816 z"
   id="path1" /><path
   style="fill:#666666;stroke-width:0.277424"
   d="M 19.537359,99.931094 C 17.459573,99.391131 15.951066,98.18724 14.884872,96.218082 L 13.956897,94.5042 14.038311,55.750918 c 0.0766,-36.463256 0.110907,-38.80544 0.580518,-39.636004 1.33223,-2.35621 4.011196,-4.168428 6.132293,-4.148263 l 0.987655,0.0094 -1.015779,0.518908 c -1.311204,0.669825 -2.70701,2.216335 -3.38971,3.755696 -0.525084,1.183964 -0.538231,2.31587 -0.46601,40.120991 l 0.07432,38.902658 0.61101,1.090965 c 0.776667,1.386741 2.489381,2.989388 3.76289,3.521062 0.872561,0.364279 0.905445,0.411429 0.282187,0.404589 -0.388007,-0.004 -1.315153,-0.16617 -2.060324,-0.359815 z"
   id="path2" /><path
   style="fill:#666666;stroke-width:0.277424"
   d="m 58.212354,62.113314 c -2.105378,-0.479704 -4.173668,-2.31312 -4.993943,-4.426844 -0.451659,-1.163857 -0.346325,-3.194489 0.22898,-4.414283 1.264079,-2.680161 3.398355,-4.022447 6.369473,-4.00588 3.868906,0.02157 6.648569,2.739981 6.648569,6.502049 0,2.881107 -1.949143,5.388812 -4.831582,6.216147 -1.633511,0.468864 -1.88711,0.478413 -3.421497,0.128811 z m 3.244259,-4.917419 c 0.280161,-0.326143 0.49383,-1.025275 0.49383,-1.615829 0,-1.401179 -1.093498,-2.291644 -2.539598,-2.068067 -1.684448,0.260422 -2.407477,1.681736 -1.661017,3.265193 0.630279,1.337002 2.715609,1.572554 3.706785,0.418703 z"
   id="path3" /></svg>
