<?xml version="1.0" encoding="UTF-8" standalone="no"?>
<!-- Uploaded to: SVG Repo, www.svgrepo.com, Generator: SVG Repo Mixer Tools -->

<svg
   version="1.1"
   id="Layer_1"
   viewBox="0 0 512.001 512.001"
   xml:space="preserve"
   sodipodi:docname="heater-on.svg"
   inkscape:version="1.3.2 (091e20e, 2023-11-25, custom)"
   xmlns:inkscape="http://www.inkscape.org/namespaces/inkscape"
   xmlns:sodipodi="http://sodipodi.sourceforge.net/DTD/sodipodi-0.dtd"
   xmlns="http://www.w3.org/2000/svg"
   xmlns:svg="http://www.w3.org/2000/svg"><defs
   id="defs8" /><sodipodi:namedview
   id="namedview8"
   pagecolor="#ffffff"
   bordercolor="#000000"
   borderopacity="0.25"
   inkscape:showpageshadow="2"
   inkscape:pageopacity="0.0"
   inkscape:pagecheckerboard="0"
   inkscape:deskcolor="#d1d1d1"
   showguides="false"
   inkscape:zoom="1.5878876"
   inkscape:cx="256.00049"
   inkscape:cy="256.00049"
   inkscape:window-width="1920"
   inkscape:window-height="1009"
   inkscape:window-x="-8"
   inkscape:window-y="-8"
   inkscape:window-maximized="1"
   inkscape:current-layer="Layer_1" />
<path
   style="fill:#E6E6E6;"
   d="M387.19,447.522H124.81c-17.367,0-31.445-14.078-31.445-31.446V40.401  c0-17.367,14.078-31.445,31.445-31.445h262.379c17.367,0,31.446,14.078,31.446,31.445v375.675  C418.636,433.444,404.557,447.522,387.19,447.522z"
   id="path1" />
<path
   style="fill:#F2F2F2;"
   d="M124.81,422.446c-3.512,0-6.368-2.857-6.368-6.369V40.401c0-3.512,2.857-6.369,6.368-6.369h262.379  c3.512,0,6.369,2.857,6.369,6.369v375.675c0,3.512-2.857,6.369-6.369,6.369H124.81z"
   id="path2" />
<circle
   style="fill:#F4550F;"
   cx="256.004"
   cy="358.458"
   r="50.15"
   id="circle2" />
<path
   style="fill:#F77346;"
   d="M220.539,393.918c19.584,19.584,51.338,19.584,70.923,0c19.584-19.584,19.584-51.338,0-70.923"
   id="path3" />
<path
   style="fill:#4D4D4D;"
   d="M256,367.412c-4.946,0-8.956-4.01-8.956-8.956v-16.608c0-4.946,4.01-8.956,8.956-8.956  c4.946,0,8.956,4.01,8.956,8.956v16.608C264.956,363.402,260.946,367.412,256,367.412z"
   id="path4" />
<rect
   x="158.684"
   y="75.396"
   style="fill:#35D8B9;"
   width="194.639"
   height="194.639"
   id="rect4" />
<polygon
   style="fill:#B9FCEF;"
   points="353.319,75.398 158.681,270.037 353.319,270.037 "
   id="polygon4" /><g
   id="g2"
   transform="matrix(3.694867,0,0,3.3090056,137.55174,72.017246)"><path
     class="st7"
     d="m 21.04,20.63 c 0,0 -1.79,8.99 -0.96,11.47 0,0 1.1,-13.6 11.67,-24.1 0,0 -0.34,8.79 5.15,13.25 5.49,4.46 6.73,11.4 6.73,11.4 0,0 0.62,-4.74 -1.24,-12.33 0,0 11.67,12.12 6.32,25.65 0,0 -6.45,14.9 -24.92,8.38 C 5.32,47.83 17.74,22.97 21.04,20.63 Z"
     id="path1-9"
     style="fill:#f6af62" /><path
     class="st4"
     d="m 40.75,32.12 c 0.17,3.81 -1.55,4.81 -2.94,5.01 -0.89,0.13 -1.79,-0.1 -2.57,-0.53 -7.65,-4.15 -3.72,-14.29 -3.72,-14.29 -5.01,4.79 -2.4,14.74 -2.4,14.74 0,0 1.55,5.64 -1.62,6.13 -1.59,0.25 -2.33,-0.39 -2.67,-1.08 -0.31,-0.64 -0.31,-1.39 -0.04,-2.05 2.15,-5.34 0.31,-8.36 0.31,-8.36 -1.03,3.06 -2.12,5.08 -2.91,6.29 -1.12,1.72 -1.83,3.68 -1.93,5.73 C 19.9,51.35 26.3,54.4 26.3,54.4 36.81,59.76 41.53,49.96 41.53,49.96 46.96,39.52 40.75,32.12 40.75,32.12 Z"
     id="path2-0"
     style="fill:#fbd872" /></g>

<g
   id="g8"
   transform="scale(1,0.98154982)">
	<path
   id="path6"
   style="fill:#333333"
   d="M 124.81055,0 C 102.53371,0 84.410156,18.124844 84.410156,40.401668 V 416.0751 c 0,22.27684 18.124554,40.40167 40.400394,40.40167 h 96.26367 v 0.20296 c 0.74511,-0.0371 1.48999,-0.0623 2.23437,-0.0597 1.22743,0.004 2.45454,0.0685 3.6836,0.2169 2.72681,0.25027 5.45593,0.57576 8.19922,0.35419 1.26592,-0.0554 2.53038,-0.13532 3.79492,-0.21093 v -0.50342 h 34.02929 v 0.45567 c 3.34745,-0.10038 6.69512,-0.0794 10.04493,-0.11939 1.5044,-0.0385 3.01584,-0.14248 4.52148,-0.14725 1.12003,-0.004 2.23674,0.0486 3.3457,0.22485 v -0.41388 h 96.26368 c 22.27676,0 40.40234,-18.12483 40.40234,-40.40167 V 40.401668 C 427.59183,18.124844 409.46629,0 387.18945,0 Z m 0,17.910531 h 262.3789 c 12.40092,0 22.49024,10.090233 22.49024,22.491137 v 375.673432 0.002 c 0,12.40092 -10.08932,22.48915 -22.49024,22.48915 h -262.3789 c -12.40092,0 -22.49024,-10.08823 -22.49024,-22.48915 V 40.401668 c 0,-12.400904 10.08932,-22.491137 22.49024,-22.491137 z M 238.21484,483.08886 c -0.002,0.003 -0.004,0.005 -0.006,0.008 0.002,7.5e-4 0.004,9.8e-4 0.006,0.002 -2.5e-4,-0.003 2.6e-4,-0.007 0,-0.01 z m 34.80078,11.33013 v 0.5492 c 0.003,-0.005 0.007,-0.0105 0.01,-0.0159 0.0768,-0.0766 0.14825,-0.15933 0.22266,-0.23878 -0.0659,-0.10687 -0.17141,-0.18421 -0.23243,-0.2945 z m 17.91211,3.22553 c -0.0281,0.009 -0.0578,0.0113 -0.0859,0.0199 0.0122,0.0118 0.0671,0.0673 0.0859,0.0856 z m -56.0664,0.81186 c -0.0143,0.0411 -0.007,0.084 0.0781,0.12138 0.0125,-0.007 0.019,-0.01 0.0312,-0.0159 -0.0374,-0.0343 -0.0727,-0.0703 -0.10937,-0.10546 z m -11.5625,7.92353 c -0.0653,-0.0172 0.0185,0.16521 -0.0391,0.20097 -0.20505,0.12722 -0.42338,-0.14037 -0.5879,0.15123 -0.0351,0.0623 0.0216,0.20015 0.0918,0.19302 0.25676,-0.0244 0.50383,-0.10517 0.75,-0.18904 0.005,-0.0279 0.0126,-0.0557 0.0176,-0.0836 -0.0775,-0.0913 -0.11775,-0.24235 -0.23242,-0.27261 z m 54.77734,4.61045 c 0.55829,0.27796 1.10657,0.5543 1.72461,0.71038 -0.0777,-0.042 -0.15737,-0.0798 -0.23437,-0.12337 -0.32446,-0.1836 -0.57499,-0.33834 -0.8125,-0.4895 -0.017,-0.001 -0.0338,-8e-4 -0.0508,-0.002 -0.20758,-0.0375 -0.4177,-0.0652 -0.62695,-0.0955 z m -49.51562,0.6467 c -0.0572,0.0241 -0.11465,0.0477 -0.17188,0.0716 0.13201,0.0252 0.26247,0.0503 0.39649,0.0696 -0.075,-0.0471 -0.15225,-0.0913 -0.22461,-0.14128 z" />
	<path
   style="fill:#333333"
   d="m 256,299.351 c -32.591,0 -59.106,26.515 -59.106,59.106 0,32.591 26.515,59.106 59.106,59.106 32.591,0 59.106,-26.515 59.106,-59.106 0,-32.591 -26.515,-59.106 -59.106,-59.106 z m 0,100.3 c -22.714,0 -41.194,-18.48 -41.194,-41.194 0,-22.714 18.48,-41.194 41.194,-41.194 22.714,0 41.194,18.48 41.194,41.194 0,22.714 -18.48,41.194 -41.194,41.194 z"
   id="path7" />
	<path
   style="fill:#333333"
   d="M 353.319,66.442 H 158.681 c -4.946,0 -8.956,4.01 -8.956,8.956 v 194.639 c 0,4.946 4.01,8.956 8.956,8.956 H 353.32 c 4.946,0 8.956,-4.01 8.956,-8.956 V 75.398 c -0.001,-4.946 -4.011,-8.956 -8.957,-8.956 z m -8.955,194.639 H 167.636 V 84.354 h 176.727 v 176.727 z"
   id="path8" />
</g>
<rect
   style="fill:#4d4d4d;stroke-width:0.88777"
   id="rect18"
   width="58.568382"
   height="18.263258"
   x="145.47629"
   y="447.13492" /><rect
   style="fill:#4d4d4d"
   id="rect19"
   width="60.45768"
   height="18.893024"
   x="307.95633"
   y="445.8754" /><path
   style="fill:#ff7f2a;stroke-width:0.629767"
   d="m 281.82096,253.86072 c 17.50183,-6.09882 32.59644,-19.63616 37.64023,-33.75698 1.89826,-5.31447 3.61091,-14.8642 3.60582,-20.10609 -0.006,-5.90616 -1.66969,-15.59022 -3.74115,-21.77313 -3.87526,-11.56689 -12.51006,-25.94649 -20.79946,-34.63753 -5.13161,-5.38025 -4.90999,-6.04769 -2.19569,6.61256 1.18874,5.54458 1.70266,10.15685 1.92975,17.3186 l 0.30951,9.7614 -2.14732,-5.5096 c -2.57643,-6.61062 -7.06686,-14.20264 -11.70649,-19.79227 l -3.40432,-4.10139 31.27061,-31.27061 31.2706,-31.270602 v 85.175262 85.17526 l -33.53511,-0.0346 -33.53512,-0.0346 z"
   id="path19" /><path
   style="fill:#ff9955;stroke-width:0.629767"
   d="m 184.86666,244.3242 11.3614,-11.3614 5.64017,5.56775 c 4.9273,4.86404 6.55552,6.02047 12.88249,9.14965 4.55704,2.25381 10.16111,4.38833 15.11442,5.75688 l 7.87209,2.17498 -32.11598,0.0368 -32.11599,0.0368 z"
   id="path20" /><path
   style="fill:#ff9955;stroke-width:0.629767"
   d="M 168.14792,169.40746 V 83.12931 h 87.85257 c 48.31891,0 87.85256,0.213599 87.85256,0.474664 0,0.261065 -14.24061,14.70152 -31.64581,32.089896 l -31.64582,31.61523 -5.8723,-4.75702 c -11.61974,-9.4129 -17.28023,-20.5306 -19.21181,-37.73364 l -0.73636,-6.558174 -2.99508,2.562954 c -7.75716,6.63796 -19.69084,22.39781 -26.18225,34.57679 -5.63902,10.57976 -11.74795,27.52892 -13.04885,36.20388 -0.3343,2.2293 -0.59757,2.75301 -1.01184,2.01276 -0.7038,-1.25762 0.31908,-12.44246 2.04202,-22.3288 0.70796,-4.06228 1.42903,-8.37786 1.60238,-9.59016 l 0.31519,-2.20419 -3.66218,3.85161 c -7.57474,7.96654 -16.46789,25.80162 -20.32525,40.76195 -4.41966,17.14115 -3.30209,34.37114 2.92199,45.04953 l 1.6059,2.75517 -11.87457,11.88693 c -10.559,10.56998 -12.10201,11.88691 -13.92753,11.88691 h -2.05296 z"
   id="path21" /></svg>
