<?xml version="1.0" encoding="UTF-8" standalone="no"?>
<!-- Uploaded to: SVG Repo, www.svgrepo.com, Generator: SVG Repo Mixer Tools -->

<svg
   version="1.1"
   id="Layer_1"
   viewBox="0 0 512.001 512.001"
   xml:space="preserve"
   sodipodi:docname="heater-on.svg"
   inkscape:version="1.3.2 (091e20e, 2023-11-25, custom)"
   xmlns:inkscape="http://www.inkscape.org/namespaces/inkscape"
   xmlns:sodipodi="http://sodipodi.sourceforge.net/DTD/sodipodi-0.dtd"
   xmlns="http://www.w3.org/2000/svg"
   xmlns:svg="http://www.w3.org/2000/svg"><defs
   id="defs8" /><sodipodi:namedview
   id="namedview8"
   pagecolor="#ffffff"
   bordercolor="#000000"
   borderopacity="0.25"
   inkscape:showpageshadow="2"
   inkscape:pageopacity="0.0"
   inkscape:pagecheckerboard="0"
   inkscape:deskcolor="#d1d1d1"
   showguides="false"
   inkscape:zoom="1.5878876"
   inkscape:cx="256.00049"
   inkscape:cy="256.00049"
   inkscape:window-width="1920"
   inkscape:window-height="1009"
   inkscape:window-x="-8"
   inkscape:window-y="-8"
   inkscape:window-maximized="1"
   inkscape:current-layer="Layer_1" />
<path
   style="fill:#E6E6E6;"
   d="M387.19,447.522H124.81c-17.367,0-31.445-14.078-31.445-31.446V40.401  c0-17.367,14.078-31.445,31.445-31.445h262.379c17.367,0,31.446,14.078,31.446,31.445v375.675  C418.636,433.444,404.557,447.522,387.19,447.522z"
   id="path1" />
<path
   style="fill:#F2F2F2;"
   d="M124.81,422.446c-3.512,0-6.368-2.857-6.368-6.369V40.401c0-3.512,2.857-6.369,6.368-6.369h262.379  c3.512,0,6.369,2.857,6.369,6.369v375.675c0,3.512-2.857,6.369-6.369,6.369H124.81z"
   id="path2" />
<circle
   style="fill:#F4550F;"
   cx="256.004"
   cy="358.458"
   r="50.15"
   id="circle2" />
<path
   style="fill:#F77346;"
   d="M220.539,393.918c19.584,19.584,51.338,19.584,70.923,0c19.584-19.584,19.584-51.338,0-70.923"
   id="path3" />
<path
   style="fill:#4D4D4D;"
   d="M256,367.412c-4.946,0-8.956-4.01-8.956-8.956v-16.608c0-4.946,4.01-8.956,8.956-8.956  c4.946,0,8.956,4.01,8.956,8.956v16.608C264.956,363.402,260.946,367.412,256,367.412z"
   id="path4" />
<rect
   x="158.684"
   y="75.396"
   style="fill:#35D8B9;"
   width="194.639"
   height="194.639"
   id="rect4" />
<polygon
   style="fill:#B9FCEF;"
   points="353.319,75.398 158.681,270.037 353.319,270.037 "
   id="polygon4" />

<g
   id="g8"
   transform="scale(1,0.98154982)">
	<path
   id="path6"
   style="fill:#333333"
   d="M 124.81055,0 C 102.53371,0 84.410156,18.124844 84.410156,40.401668 V 416.0751 c 0,22.27684 18.124554,40.40167 40.400394,40.40167 h 96.26367 v 0.20296 c 0.74511,-0.0371 1.48999,-0.0623 2.23437,-0.0597 1.22743,0.004 2.45454,0.0685 3.6836,0.2169 2.72681,0.25027 5.45593,0.57576 8.19922,0.35419 1.26592,-0.0554 2.53038,-0.13532 3.79492,-0.21093 v -0.50342 h 34.02929 v 0.45567 c 3.34745,-0.10038 6.69512,-0.0794 10.04493,-0.11939 1.5044,-0.0385 3.01584,-0.14248 4.52148,-0.14725 1.12003,-0.004 2.23674,0.0486 3.3457,0.22485 v -0.41388 h 96.26368 c 22.27676,0 40.40234,-18.12483 40.40234,-40.40167 V 40.401668 C 427.59183,18.124844 409.46629,0 387.18945,0 Z m 0,17.910531 h 262.3789 c 12.40092,0 22.49024,10.090233 22.49024,22.491137 v 375.673432 0.002 c 0,12.40092 -10.08932,22.48915 -22.49024,22.48915 h -262.3789 c -12.40092,0 -22.49024,-10.08823 -22.49024,-22.48915 V 40.401668 c 0,-12.400904 10.08932,-22.491137 22.49024,-22.491137 z M 238.21484,483.08886 c -0.002,0.003 -0.004,0.005 -0.006,0.008 0.002,7.5e-4 0.004,9.8e-4 0.006,0.002 -2.5e-4,-0.003 2.6e-4,-0.007 0,-0.01 z m 34.80078,11.33013 v 0.5492 c 0.003,-0.005 0.007,-0.0105 0.01,-0.0159 0.0768,-0.0766 0.14825,-0.15933 0.22266,-0.23878 -0.0659,-0.10687 -0.17141,-0.18421 -0.23243,-0.2945 z m 17.91211,3.22553 c -0.0281,0.009 -0.0578,0.0113 -0.0859,0.0199 0.0122,0.0118 0.0671,0.0673 0.0859,0.0856 z m -56.0664,0.81186 c -0.0143,0.0411 -0.007,0.084 0.0781,0.12138 0.0125,-0.007 0.019,-0.01 0.0312,-0.0159 -0.0374,-0.0343 -0.0727,-0.0703 -0.10937,-0.10546 z m -11.5625,7.92353 c -0.0653,-0.0172 0.0185,0.16521 -0.0391,0.20097 -0.20505,0.12722 -0.42338,-0.14037 -0.5879,0.15123 -0.0351,0.0623 0.0216,0.20015 0.0918,0.19302 0.25676,-0.0244 0.50383,-0.10517 0.75,-0.18904 0.005,-0.0279 0.0126,-0.0557 0.0176,-0.0836 -0.0775,-0.0913 -0.11775,-0.24235 -0.23242,-0.27261 z m 54.77734,4.61045 c 0.55829,0.27796 1.10657,0.5543 1.72461,0.71038 -0.0777,-0.042 -0.15737,-0.0798 -0.23437,-0.12337 -0.32446,-0.1836 -0.57499,-0.33834 -0.8125,-0.4895 -0.017,-0.001 -0.0338,-8e-4 -0.0508,-0.002 -0.20758,-0.0375 -0.4177,-0.0652 -0.62695,-0.0955 z m -49.51562,0.6467 c -0.0572,0.0241 -0.11465,0.0477 -0.17188,0.0716 0.13201,0.0252 0.26247,0.0503 0.39649,0.0696 -0.075,-0.0471 -0.15225,-0.0913 -0.22461,-0.14128 z" />
	<path
   style="fill:#333333"
   d="m 256,299.351 c -32.591,0 -59.106,26.515 -59.106,59.106 0,32.591 26.515,59.106 59.106,59.106 32.591,0 59.106,-26.515 59.106,-59.106 0,-32.591 -26.515,-59.106 -59.106,-59.106 z m 0,100.3 c -22.714,0 -41.194,-18.48 -41.194,-41.194 0,-22.714 18.48,-41.194 41.194,-41.194 22.714,0 41.194,18.48 41.194,41.194 0,22.714 -18.48,41.194 -41.194,41.194 z"
   id="path7" />
	<path
   style="fill:#333333"
   d="M 353.319,66.442 H 158.681 c -4.946,0 -8.956,4.01 -8.956,8.956 v 194.639 c 0,4.946 4.01,8.956 8.956,8.956 H 353.32 c 4.946,0 8.956,-4.01 8.956,-8.956 V 75.398 c -0.001,-4.946 -4.011,-8.956 -8.957,-8.956 z m -8.955,194.639 H 167.636 V 84.354 h 176.727 v 176.727 z"
   id="path8" />
</g>
<rect
   style="fill:#4d4d4d;stroke-width:0.88777"
   id="rect18"
   width="58.568382"
   height="18.263258"
   x="145.47629"
   y="447.13492" /><rect
   style="fill:#4d4d4d"
   id="rect19"
   width="60.45768"
   height="18.893024"
   x="307.95633"
   y="445.8754" /><path
   style="fill:#999999;stroke-width:0.629767"
   d="m 121.07996,420.98101 c -0.75635,-0.52978 -1.66801,-2.0176 -2.02592,-3.30628 -0.44107,-1.58816 -0.65154,-62.80872 -0.65326,-190.01378 -0.002,-177.413123 0.0577,-187.791189 1.09858,-189.8749 0.79471,-1.590828 1.77704,-2.424865 3.53015,-2.997224 1.92787,-0.629414 29.61003,-0.759351 134.16824,-0.629767 123.97239,0.153644 131.83783,0.227894 133.41206,1.259408 0.97444,0.638506 1.94735,2.084592 2.33035,3.463721 0.91421,3.291958 0.92086,375.501202 0.007,378.792542 -1.29566,4.66524 11.39815,4.26949 -136.94644,4.26949 -118.83184,0 -133.69685,-0.10612 -134.92053,-0.96321 z m 150.6459,-12.86515 c 28.3358,-7.76806 46.93136,-35.0386 43.19603,-63.34735 -2.60692,-19.75694 -14.46905,-36.20617 -32.47117,-45.02777 -9.12142,-4.46979 -15.53608,-5.90085 -26.45023,-5.90085 -10.91416,0 -17.32882,1.43106 -26.45024,5.90085 -25.01135,12.25635 -37.66302,39.05896 -31.1727,66.03949 4.86644,20.22998 21.65335,37.12751 41.98164,42.25827 7.35489,1.85634 7.37025,1.85782 17.21572,1.64799 6.97421,-0.14864 10.31748,-0.51971 14.15095,-1.57063 z m 86.42019,-135.39882 c 1.10689,-0.67491 2.52386,-2.00752 3.14884,-2.96135 1.08301,-1.65288 1.13631,-6.35848 1.13631,-100.32054 V 70.848844 l -1.40458,-1.969103 c -3.08142,-4.319902 4.93127,-4.013689 -105.02613,-4.013689 -109.95741,0 -101.94472,-0.306213 -105.02613,4.013689 l -1.40458,1.969103 -0.16074,97.928846 c -0.15152,92.31024 -0.0973,98.05459 0.94465,100.12048 0.60797,1.20539 2.06834,2.83492 3.24527,3.62116 l 2.13988,1.42953 100.19734,-0.002 c 98.20437,-0.002 100.23737,-0.0268 102.20987,-1.22947 z"
   id="path21" /><path
   style="fill:#b3b3b3;stroke-width:0.629767"
   d="m 118.57643,429.22051 c -6.42053,-2.01368 -11.07179,-6.10377 -13.97135,-12.28569 l -1.63809,-3.49246 V 223.88235 34.322329 l 1.37243,-2.970757 c 1.79699,-3.889745 6.6864,-9.063992 10.29111,-10.89064 1.57947,-0.800373 4.54193,-1.763973 6.58326,-2.141333 5.23009,-0.966836 264.34331,-0.966836 269.5734,0 2.04133,0.37736 5.00379,1.34096 6.58325,2.141333 3.60472,1.826648 8.49413,7.000895 10.29112,10.89064 l 1.37243,2.970757 V 223.89559 413.46884 l -2.07319,4.21126 c -2.36572,4.80545 -5.6999,8.03066 -10.83704,10.48283 l -3.46372,1.65339 -135.7149,0.11825 c -110.99051,0.0967 -136.19837,-0.0334 -138.36871,-0.71406 z m 271.89203,-7.59769 c 1.01164,-0.52314 2.1024,-1.44417 2.4239,-2.04674 0.5988,-1.12229 0.94876,-133.27879 0.78311,-295.72632 l -0.0879,-86.177693 -1.81896,-1.818957 -1.81896,-1.818959 -133.9342,-0.01498 -133.9342,-0.01498 -1.84045,1.840444 -1.84044,1.840444 0.0132,190.397721 c 0.0125,179.3646 0.0762,190.47507 1.10005,191.73265 0.59775,0.73421 1.65361,1.64663 2.34635,2.02759 0.90439,0.49736 38.69153,0.69806 134.01431,0.71181 117.20199,0.0169 132.97026,-0.0923 134.59414,-0.93202 z"
   id="path22" /><g
   id="g2"
   transform="matrix(3.694867,0,0,3.3090056,138.30337,71.177255)"><path
     class="st7"
     d="m 21.04,20.63 c 0,0 -1.79,8.99 -0.96,11.47 0,0 1.1,-13.6 11.67,-24.1 0,0 -0.34,8.79 5.15,13.25 5.49,4.46 6.73,11.4 6.73,11.4 0,0 0.62,-4.74 -1.24,-12.33 0,0 11.67,12.12 6.32,25.65 0,0 -6.45,14.9 -24.92,8.38 C 5.32,47.83 17.74,22.97 21.04,20.63 Z"
     id="path1-9"
     style="fill:#f6af62" /><path
     class="st4"
     d="m 40.75,32.12 c 0.17,3.81 -1.55,4.81 -2.94,5.01 -0.89,0.13 -1.79,-0.1 -2.57,-0.53 -7.65,-4.15 -3.72,-14.29 -3.72,-14.29 -5.01,4.79 -2.4,14.74 -2.4,14.74 0,0 1.55,5.64 -1.62,6.13 -1.59,0.25 -2.33,-0.39 -2.67,-1.08 -0.31,-0.64 -0.31,-1.39 -0.04,-2.05 2.15,-5.34 0.31,-8.36 0.31,-8.36 -1.03,3.06 -2.12,5.08 -2.91,6.29 -1.12,1.72 -1.83,3.68 -1.93,5.73 C 19.9,51.35 26.3,54.4 26.3,54.4 36.81,59.76 41.53,49.96 41.53,49.96 46.96,39.52 40.75,32.12 40.75,32.12 Z"
     id="path2-0"
     style="fill:#fbd872" /></g><path
   style="fill:#ff6600;stroke-width:0.629767"
   d="M 168.14792,169.40746 V 83.12931 h 87.85257 c 48.31891,0 87.85256,0.211494 87.85256,0.469987 0,0.258493 -14.06893,14.541025 -31.26428,31.738963 l -31.26428,31.26897 -5.54379,-4.67729 c -3.04908,-2.57251 -6.69329,-6.01517 -8.09825,-7.65035 -5.78248,-6.73006 -10.07322,-17.97984 -11.37711,-29.82938 -0.3942,-3.58236 -0.85291,-6.649578 -1.01937,-6.816035 -0.16645,-0.166456 -3.06567,2.548655 -6.44271,6.033595 -17.29077,17.8432 -29.0943,39.56437 -35.04733,64.49505 l -1.57541,6.59766 0.29986,-8.18698 c 0.16493,-4.50283 0.87453,-11.30432 1.5769,-15.11442 0.70237,-3.81009 1.45687,-8.20272 1.67667,-9.76139 l 0.39963,-2.83396 -2.65764,2.51907 c -6.32042,5.99089 -14.65514,21.23992 -19.23641,35.19453 -3.7988,11.57119 -4.95598,19.15623 -4.55931,29.88529 0.35014,9.47055 1.54449,14.4573 5.04935,21.08243 l 1.93766,3.66271 -12.22685,12.23892 c -10.88416,10.89491 -12.45228,12.23892 -14.27966,12.23892 h -2.0528 z"
   id="path23" /><path
   style="fill:#ff7f2a;stroke-width:0.629767"
   d="m 278.67212,254.17252 c 16.05503,-4.52295 28.81595,-13.70001 37.74069,-27.14134 4.25143,-6.40296 7.28768,-18.21003 7.28768,-28.33953 0,-17.63858 -8.27647,-37.21026 -23.15246,-54.74953 -4.59443,-5.41696 -6.33244,-6.66174 -5.55188,-3.97629 2.26036,7.77655 4.76541,25.36782 4.77103,33.50363 0.003,3.64419 -0.6685,3.25655 -2.12579,-1.22805 -2.21135,-6.80513 -7.61085,-15.96518 -12.83772,-21.77873 l -2.87761,-3.20059 30.9635,-30.9635 30.96349,-30.963496 v 85.175256 85.17525 l -35.10953,-0.0469 -35.10954,-0.0469 z"
   id="path24" /><path
   style="fill:#ff7f2a;stroke-width:0.629767"
   d="M 168.14792,169.31452 V 82.943432 l 87.06536,0.463543 c 47.88595,0.254949 87.1947,0.591434 87.35279,0.747744 0.1581,0.15631 -13.56807,14.141877 -30.50258,31.079041 l -30.79003,30.79483 -3.18997,-2.62294 c -1.75449,-1.44262 -5.18765,-4.61339 -7.62925,-7.04615 -7.2357,-7.20952 -11.8342,-17.74073 -13.75045,-31.4904 -0.51809,-3.7175 -1.07624,-6.893346 -1.24033,-7.057435 -0.62144,-0.621447 -3.61916,1.953373 -8.53064,7.327205 -15.758,17.24141 -25.83472,35.54181 -32.51508,59.05081 l -1.57216,5.53266 0.32228,-6.29767 c 0.17726,-3.46373 1.00855,-10.40575 1.84731,-15.42674 0.83877,-5.02098 1.40467,-9.24941 1.25757,-9.39651 -0.50191,-0.50192 -3.58738,2.77483 -7.33315,7.78775 -7.50024,10.03749 -15.89717,29.81711 -18.46076,43.48573 -0.83651,4.46018 -0.99318,7.88207 -0.73521,16.05907 0.35838,11.3602 0.69795,13.05737 4.07066,20.34513 l 2.275,4.91582 -11.2873,11.30039 c -10.1413,10.15305 -13.81677,13.19029 -15.96202,13.19029 -0.49951,0 -0.69204,-24.02938 -0.69204,-86.37108 z"
   id="path25" /><path
   style="fill:#ff6600;stroke-width:0.629767"
   d="m 185.42001,243.76659 11.90663,-11.91901 2.11784,2.77364 c 6.64885,8.70774 21.14512,16.16031 38.59997,19.84433 l 5.36069,1.13143 -34.94588,0.0443 -34.94588,0.0443 z"
   id="path26" /><path
   style="fill:#ff6600;stroke-width:0.629767"
   d="m 302.91817,255.05584 c -14.02807,-0.18501 -24.99896,-0.40239 -24.37975,-0.48307 2.53461,-0.33027 12.92274,-4.76875 17.68502,-7.55619 6.14071,-3.59426 17.27421,-14.38026 20.47227,-19.83328 4.64298,-7.91678 7.00478,-17.49566 7.00478,-28.4097 0,-3.96742 -0.40263,-9.31785 -0.89473,-11.88985 -2.65752,-13.88958 -10.38471,-29.22236 -21.32359,-42.3116 -4.12048,-4.93048 -5.87708,-6.47735 -6.56941,-5.78503 -0.19454,0.19455 0.25855,3.26703 1.00689,6.82773 1.82139,8.66648 3.19691,19.33896 3.18826,24.73726 l -0.007,4.40837 -2.36373,-5.66791 c -2.61179,-6.26272 -6.93593,-13.32707 -11.31109,-18.47891 l -2.85726,-3.36448 30.64215,-30.64215 30.64214,-30.642152 v 84.860362 84.86036 l -7.71465,-0.14669 c -4.24306,-0.0807 -19.19216,-0.29807 -33.22023,-0.48307 z"
   id="path27" /></svg>
