<?xml version="1.0" encoding="UTF-8" standalone="no"?>
<!-- Uploaded to: SVG Repo, www.svgrepo.com, Generator: SVG Repo Mixer Tools -->

<svg
   version="1.1"
   id="temperaturecomparison"
   viewBox="0 0 19.256679 17.319736"
   enable-background="new 0 0 204 220"
   xml:space="preserve"
   width="48.330486"
   height="40.307747"
   sodipodi:docname="heater-solar.svg"
   inkscape:version="1.2 (dc2aedaf03, 2022-05-15)"
   xmlns:inkscape="http://www.inkscape.org/namespaces/inkscape"
   xmlns:sodipodi="http://sodipodi.sourceforge.net/DTD/sodipodi-0.dtd"
   xmlns="http://www.w3.org/2000/svg"
   xmlns:svg="http://www.w3.org/2000/svg"><defs
   id="defs12054" /><sodipodi:namedview
   id="namedview12052"
   pagecolor="#ffffff"
   bordercolor="#000000"
   borderopacity="0.25"
   inkscape:showpageshadow="2"
   inkscape:pageopacity="0.0"
   inkscape:pagecheckerboard="0"
   inkscape:deskcolor="#d1d1d1"
   showgrid="false"
   inkscape:zoom="4.6790582"
   inkscape:cx="53.108978"
   inkscape:cy="43.384799"
   inkscape:window-width="1920"
   inkscape:window-height="1027"
   inkscape:window-x="-8"
   inkscape:window-y="-8"
   inkscape:window-maximized="1"
   inkscape:current-layer="temperaturecomparison"
   showguides="false" />





<path
   style="fill:#000000;stroke-width:0.0154635"
   d="m 2.2336577,14.967469 c -0.569017,-0.05744 -1.165704,-0.303345 -1.61027399,-0.663626 -0.454285,-0.368154 -0.802855,-0.88372 -0.961907,-1.422745 -0.07672,-0.26 -0.104164,-0.435647 -0.11323,-0.724675 -0.01868,-0.595573 0.128746,-1.122291 0.458226,-1.637104 0.120559,-0.188373 0.261514,-0.352773 0.466086,-0.5436122 0.239645,-0.223555 0.423316,-0.347796 0.73675499,-0.498363 l 0.261931,-0.125824 8.4e-4,-3.152347 c 9e-4,-3.544246 -0.0084,-3.273642 0.121361,-3.531831 0.0595,-0.118394 0.0956,-0.166826 0.1999,-0.268191 0.104212,-0.101273 0.154251,-0.136513 0.275971,-0.194355 0.555545,-0.263991 1.189875,-0.05213 1.452404,0.485081 0.117448,0.240334 0.106905,-0.07653 0.115772,3.479615 l 0.008,3.189978 0.156863,0.06861 c 1.280358,0.559987 1.993563,1.9311552 1.691926,3.2527832 -0.198852,0.871261 -0.77941,1.595669 -1.598785,1.994931 -0.494,0.240713 -1.104725,0.347909 -1.661769,0.291679 z m 0.814832,-0.48539 c 0.343787,-0.06809 0.704337,-0.218384 0.981247,-0.409024 0.190235,-0.130967 0.464014,-0.396834 0.600121,-0.582779 0.200128,-0.273411 0.351435,-0.618564 0.422155,-0.963004 0.05071,-0.246986 0.05081,-0.661934 2.04e-4,-0.908284 -0.177577,-0.864677 -0.786535,-1.558802 -1.623614,-1.8506902 -0.07611,-0.02654 -0.156376,-0.06201 -0.178371,-0.07882 -0.08708,-0.06656 -0.08325,0.03066 -0.08325,-2.113394 v -1.982214 h -0.611763 -0.611765 v 0.594517 0.594518 h 0.268452 c 0.24437,0 0.273756,0.0029 0.327563,0.03229 0.115815,0.06326 0.15832,0.206056 0.09026,0.303238 -0.07607,0.108623 -0.09321,0.113656 -0.405016,0.118948 l -0.281258,0.0048 v 0.593556 0.593554 h 0.267171 c 0.298305,0 0.348504,0.01117 0.406598,0.09045 0.07575,0.103379 0.05267,0.235335 -0.05515,0.315315 l -0.05922,0.04393 -0.279697,0.005 -0.279697,0.005 -3.37e-4,0.330323 c -4.59e-4,0.438626 -0.01563,0.471535 -0.250636,0.543564 -0.04745,0.01454 -0.164146,0.06271 -0.259323,0.107028 -0.61651299,0.2870982 -1.09586199,0.8192442 -1.29829899,1.4412982 -0.100427,0.308596 -0.113025,0.394736 -0.112454,0.768943 4.59e-4,0.31342 0.0034,0.347302 0.04466,0.517691 0.07946,0.328098 0.186456,0.569426 0.372098,0.839222 0.396746,0.576594 1.06468299,0.979705 1.77880499,1.073537 0.178607,0.02347 0.649575,0.0073 0.830517,-0.02857 z M 3.1635777,4.0732728 c -0.0044,-1.062023 -0.0045,-1.063371 -0.03967,-1.147842 -0.07278,-0.174696 -0.198091,-0.289989 -0.38059,-0.350174 -0.136144,-0.0449 -0.316915,-0.03665 -0.444937,0.02031 -0.122109,0.05433 -0.235076,0.162209 -0.296237,0.282903 -0.05021,0.09909 -0.05091,0.103485 -0.05632,0.354768 l -0.0055,0.254435 0.281253,0.0051 0.281253,0.005 0.05922,0.04393 c 0.106236,0.0788 0.130916,0.211915 0.05779,0.311709 -0.06031,0.08231 -0.111285,0.09406 -0.408192,0.09406 h -0.268218 v 0.594517 0.594518 h 0.612272 0.612273 z"
   id="path12611" /><path
   style="fill:#000000;stroke-width:0.01945"
   d="m 4.6719837,4.1036388 c -0.262908,-0.05196 -0.529202,-0.22433 -0.685717,-0.443856 -0.218718,-0.306773 -0.218718,-0.733989 0,-1.040762 0.385448,-0.540626 1.185608,-0.624628 1.679646,-0.176332 0.434765,0.394503 0.434765,0.998922 0,1.393426 -0.268206,0.243375 -0.627209,0.340004 -0.993929,0.267524 z m 0.385901,-0.548486 c 0.09961,-0.02513 0.234092,-0.135027 0.281899,-0.230379 0.04901,-0.09775 0.04901,-0.272997 0,-0.370746 -0.04781,-0.09535 -0.182286,-0.205252 -0.281899,-0.230378 -0.368348,-0.09291 -0.7015,0.179872 -0.62062,0.508162 0.06256,0.25393 0.334372,0.395544 0.62062,0.323341 z"
   id="path12613" /><path
   style="fill:#ff2a2a;stroke-width:0.0154635"
   d="m 2.2271367,14.49613 c -0.955341,-0.130026 -1.75047499,-0.757442 -2.06193199,-1.627008 -0.106577,-0.297557 -0.127624,-0.42892 -0.127624,-0.796541 0,-0.286666 0.0046,-0.347409 0.03616,-0.484619 0.05424,-0.235327 0.103442,-0.371253 0.213601,-0.590086 0.287482,-0.57108 0.76917499,-0.988941 1.40470699,-1.2185602 0.161353,-0.0583 0.228053,-0.108872 0.251429,-0.190647 0.0085,-0.02982 0.01554,-0.195994 0.01559,-0.369275 l 7.8e-5,-0.315054 0.270589,-0.005 c 0.30848,-0.0058 0.351154,-0.01889 0.416334,-0.127871 0.06676,-0.111623 0.02976,-0.243423 -0.09068,-0.323088 -0.04886,-0.03232 -0.0676,-0.0343 -0.324048,-0.0343 h -0.272192 v -0.579273 -0.579273 l 0.254902,-3.31e-4 c 0.289447,-3.91e-4 0.354088,-0.01702 0.42116,-0.108408 0.05042,-0.06871 0.05313,-0.204258 0.0053,-0.266488 -0.07697,-0.100214 -0.09276,-0.104545 -0.400128,-0.109762 l -0.281258,-0.0048 v -0.578311 -0.578311 h 0.596079 0.596078 v 1.983232 c 0,1.798237 0.0024,1.988095 0.02546,2.035378 0.03297,0.06752 0.07707,0.09537 0.249046,0.157271 0.839025,0.3020142 1.434755,0.9803742 1.610972,1.8344192 0.0473,0.229239 0.05051,0.643856 0.0068,0.872382 -0.09027,0.471441 -0.323862,0.915659 -0.659738,1.254594 -0.368354,0.371712 -0.829815,0.620128 -1.339928,0.721319 -0.17356,0.03443 -0.650636,0.05104 -0.816736,0.02843 z"
   id="path12617" /><path
   style="fill:#4d4d4d;stroke-width:0.0154635"
   d="m 2.0685837,14.460331 c -0.247069,-0.05188 -0.393613,-0.102647 -0.643138,-0.222807 -0.65479399,-0.315327 -1.12134299,-0.875267 -1.32120299,-1.58567 -0.03772,-0.134054 -0.04125,-0.173821 -0.04756,-0.535002 l -0.0068,-0.390183 0.04756,-0.190033 c 0.116523,-0.465551 0.330486,-0.836633 0.675993,-1.1724 0.27270899,-0.26502 0.52978399,-0.4256672 0.92645699,-0.5789422 0.172935,-0.06682 0.235319,-0.121576 0.252163,-0.221324 0.007,-0.04139 0.01313,-0.203875 0.01364,-0.361079 5.21e-4,-0.157205 0.0062,-0.286238 0.0127,-0.286743 0.0065,-5.11e-4 0.133892,-0.0063 0.28316,-0.01285 0.310235,-0.01364 0.329806,-0.02078 0.393103,-0.143453 0.05448,-0.105586 0.03838,-0.189496 -0.05353,-0.278804 l -0.06897,-0.06703 h -0.282766 -0.282766 v -0.579273 -0.579273 h 0.247163 c 0.135939,0 0.27129,-0.0067 0.30078,-0.01495 0.167361,-0.04664 0.225997,-0.282809 0.09937,-0.40021 -0.06673,-0.06187 -0.11565,-0.07264 -0.330683,-0.07282 -0.109438,-10e-5 -0.225449,-0.0044 -0.257802,-0.0096 l -0.05882,-0.0094 v -0.569657 -0.569656 h 0.588235 0.588235 l 0.001,1.894071 c 5.21e-4,1.041739 0.0067,1.952105 0.01365,2.023034 0.01169,0.119133 0.01642,0.132012 0.06196,0.168963 0.02711,0.022 0.118033,0.06603 0.202037,0.09784 0.700057,0.2650982 1.211887,0.7514682 1.479336,1.4057502 0.130834,0.320072 0.187953,0.715423 0.156732,1.084834 -0.08075,0.955423 -0.785773,1.806446 -1.742157,2.102925 -0.263132,0.08157 -0.372679,0.09699 -0.737255,0.103767 -0.310358,0.0058 -0.351015,0.0034 -0.509804,-0.02996 z"
   id="path14306" /><path
   style="fill:#d40000;stroke-width:0.0787943"
   d="M 1.6356347,14.284602 C 1.1418967,14.093209 0.55361371,13.558544 0.31582971,13.08509 c -0.215321,-0.428728 -0.222555,-1.587451 -0.0125,-2.001562 0.241855,-0.476796 0.672469,-0.904943 1.13204299,-1.1255582 0.503338,-0.241623 0.532858,-0.276499 0.590226,-0.697304 0.04019,-0.294797 0.05897,-0.313535 0.336954,-0.336193 0.537658,-0.04382 0.47728,-0.561376 -0.06549,-0.561376 h -0.268671 v -0.541635 -0.541634 l 0.290246,-0.02423 c 0.559618,-0.0467 0.539943,-0.531545 -0.02157,-0.531545 h -0.268675 v -0.546347 -0.546346 h 0.55683 0.55683 v 2.027971 2.027972 l 0.400592,0.199173 c 0.572875,0.2848322 0.993466,0.6877282 1.245433,1.1930332 0.573597,1.150316 0.05795,2.519596 -1.185044,3.146842 -0.50268,0.253664 -1.395119,0.280085 -1.967399,0.05825 z"
   id="path851" /><g
   id="sun2"
   transform="matrix(0.08562924,0,0,0.08633632,6.1809507,2.2682128)">
	<g
   id="g4065">
		<g
   id="g4063">
			<g
   id="g4061">
				<g
   id="g4053">
					<g
   id="g4051">
						<polygon
   style="fill:#fcdd66"
   points="55.419,49.894 28.332,38.21 45.738,62.023 16.268,63.265 42.307,77.142 16.268,91.02 45.739,92.262 28.332,116.075 55.419,104.391 50.045,133.397 69.368,111.112 77.141,139.564 84.915,111.112 104.238,133.397 98.863,104.391 125.951,116.074 108.543,92.261 138.015,91.02 111.975,77.142 138.015,63.265 108.543,62.023 125.951,38.209 98.863,49.894 104.238,20.888 84.915,43.173 77.141,14.721 69.368,43.173 50.045,20.888 "
   id="polygon4049" />
					</g>
				</g>
				<g
   id="g4059">
					<g
   id="g4057">
						<path
   style="fill:#fcdd66"
   d="M 77.141,154.284 67.54,119.141 43.632,146.715 50.281,110.832 16.803,125.273 38.324,95.832 1.872,94.296 34.059,77.142 1.872,59.988 38.323,58.453 16.803,29.013 50.281,43.453 43.631,7.569 67.54,35.143 77.141,0 l 9.601,35.143 23.909,-27.574 -6.649,35.884 33.478,-14.441 -21.521,29.441 36.453,1.536 -32.189,17.154 32.189,17.155 -36.453,1.535 21.521,29.44 -33.478,-14.44 6.647,35.883 -23.907,-27.574 z m -5.945,-51.203 5.945,21.762 5.946,-21.762 14.737,16.998 -4.1,-22.13 20.697,8.927 L 101.128,88.69 123.619,87.742 103.726,77.141 123.619,66.54 101.128,65.592 114.421,47.406 93.724,56.334 97.824,34.205 83.087,51.203 77.141,29.441 71.196,51.203 56.458,34.206 l 4.1,22.13 -20.697,-8.927 13.293,18.185 -22.489,0.948 19.891,10.601 -19.891,10.601 22.49,0.948 -13.293,18.186 20.697,-8.928 -4.1,22.13 z"
   id="path4055" />
					</g>
				</g>
			</g>
		</g>
	</g>
	<g
   id="g4089">
		<g
   id="g4083">
			<g
   id="g4081">
				<g
   id="g4079">
					<g
   id="g4071">
						<g
   id="g4069">
							<polygon
   style="fill:#fbd009"
   points="59.138,54.559 35.691,44.081 51.114,64.612 25.447,65.358 48.271,77.142 25.447,88.927 51.114,89.673 35.691,110.205 59.138,99.727 54.131,124.915 70.698,105.296 77.141,130.152 83.584,105.296 100.153,124.915 95.145,99.726 118.59,110.204 103.168,89.673 128.836,88.927 106.012,77.142 128.836,65.357 103.168,64.611 118.59,44.08 95.144,54.558 100.151,29.37 83.584,48.988 77.141,24.132 70.698,48.988 54.13,29.37 "
   id="polygon4067" />
						</g>
					</g>
					<g
   id="g4077">
						<g
   id="g4075">
							<path
   style="fill:#fbd009"
   d="M 77.141,131.87 70.489,106.211 53.383,126.47 58.553,100.461 34.346,111.279 50.27,90.08 23.767,89.31 47.331,77.142 23.767,64.976 50.27,64.205 34.346,43.007 58.553,53.825 53.383,27.816 70.49,48.074 77.142,22.415 83.793,48.074 100.9,27.815 l -5.17,26.009 24.206,-10.818 -15.924,21.198 26.505,0.771 -23.565,12.167 23.565,12.168 -26.505,0.77 15.924,21.198 -24.206,-10.818 5.171,26.009 -17.108,-20.258 z m -6.235,-27.489 6.235,24.053 6.235,-24.053 16.027,18.979 -4.844,-24.368 22.686,10.139 L 102.323,89.266 127.156,88.545 105.072,77.142 127.156,65.739 102.323,65.018 117.245,45.153 94.559,55.292 99.403,30.924 83.376,49.904 77.141,25.85 70.906,49.903 54.878,30.924 59.723,55.292 37.037,45.154 51.959,65.019 27.127,65.74 49.21,77.142 27.127,88.545 51.959,89.267 37.037,109.132 59.724,98.993 54.88,123.361 Z"
   id="path4073" />
						</g>
					</g>
				</g>
			</g>
		</g>
		<g
   id="g4087">
			<circle
   style="fill:#fcdd66"
   cx="77.140999"
   cy="77.141998"
   r="27.693001"
   id="circle4085" />
		</g>
	</g>
</g><path
   style="fill:#666666;stroke-width:0.213718"
   d="M 5.3429555,32.93669 C 4.0853215,32.341132 3.0378947,31.30331 2.5754502,30.194563 2.2337151,29.375226 2.1416835,27.600574 2.3793126,26.412428 2.5582095,25.517944 4.1094736,23.818495 5.3374717,23.171691 6.00431,22.820458 6.3560476,22.482427 6.4319777,22.119836 6.6077056,21.280678 6.8407215,20.963246 7.3732786,20.837527 7.6448923,20.773407 7.9723966,20.549198 8.1010661,20.339283 8.287039,20.035881 8.2499424,19.89445 7.9201558,19.649559 7.6919857,19.480126 7.2832496,19.341499 7.0118533,19.341499 c -0.4556395,0 -0.4934476,-0.09006 -0.4934476,-1.17545 0,-1.045441 0.04883,-1.17545 0.4414865,-1.17545 0.6168517,0 1.2682593,-0.384198 1.2682593,-0.748014 0,-0.363817 -0.6514076,-0.748014 -1.2682593,-0.748014 -0.3926563,0 -0.4414865,-0.130009 -0.4414865,-1.17545 v -1.17545 H 7.693856 8.8693062 v 4.697457 4.697457 l 0.864503,0.441037 c 1.2041168,0.614295 2.5016518,1.83606 3.0434268,2.865704 0.630956,1.199137 0.632486,3.318431 0.0033,4.502661 -1.442047,2.713951 -4.7452284,3.863655 -7.4375315,2.588703 z"
   id="path4725"
   transform="matrix(0.42968753,0,0,0.42968753,-0.75516402,0)" /></svg>
