<?xml version="1.0" encoding="UTF-8" standalone="no"?>
<!-- Uploaded to: SVG Repo, www.svgrepo.com, Generator: SVG Repo Mixer Tools -->

<svg
   version="1.1"
   id="Layer_1"
   viewBox="0 0 145.47629 137.28933"
   xml:space="preserve"
   sodipodi:docname="heater-off-icon.svg"
   inkscape:version="1.3.2 (091e20e, 2023-11-25, custom)"
   width="145.47629"
   height="137.28932"
   xmlns:inkscape="http://www.inkscape.org/namespaces/inkscape"
   xmlns:sodipodi="http://sodipodi.sourceforge.net/DTD/sodipodi-0.dtd"
   xmlns="http://www.w3.org/2000/svg"
   xmlns:svg="http://www.w3.org/2000/svg"><defs
   id="defs8" /><sodipodi:namedview
   id="namedview8"
   pagecolor="#ffffff"
   bordercolor="#000000"
   borderopacity="0.25"
   inkscape:showpageshadow="2"
   inkscape:pageopacity="0.0"
   inkscape:pagecheckerboard="0"
   inkscape:deskcolor="#d1d1d1"
   showguides="false"
   inkscape:zoom="1.5878876"
   inkscape:cx="256.00049"
   inkscape:cy="256.00049"
   inkscape:window-width="1920"
   inkscape:window-height="1009"
   inkscape:window-x="-8"
   inkscape:window-y="-8"
   inkscape:window-maximized="1"
   inkscape:current-layer="Layer_1" />
<path
   style="fill:#e6e6e6;stroke-width:0.235708"
   d="M 105.77995,113.52678 H 40.328073 c -4.332276,0 -7.844096,-3.13545 -7.844096,-7.00364 V 22.852977 c 0,-3.86797 3.51182,-7.003416 7.844096,-7.003416 H 105.7797 c 4.33227,0 7.84434,3.135446 7.84434,7.003416 v 83.670163 c 2.5e-4,3.86819 -3.51182,7.00364 -7.84409,7.00364 z"
   id="path1" />
<path
   style="fill:#f2f2f2;stroke-width:0.235708"
   d="m 40.328073,107.94186 c -0.876084,0 -1.588526,-0.63631 -1.588526,-1.4185 V 22.852977 c 0,-0.782191 0.712692,-1.418501 1.588526,-1.418501 H 105.7797 c 0.87608,0 1.58877,0.63631 1.58877,1.418501 v 83.670163 c 0,0.78219 -0.71269,1.4185 -1.58877,1.4185 H 40.328073 Z"
   id="path2" />


<path
   style="fill:#4d4d4d;stroke-width:0.235708"
   d="m 73.054005,95.684715 c -1.2338,0 -2.23411,-0.893105 -2.23411,-1.994676 v -3.698926 c 0,-1.101571 1.00031,-1.994676 2.23411,-1.994676 1.2338,0 2.23412,0.893105 2.23412,1.994676 v 3.698926 c 0,1.101571 -1.00032,1.994676 -2.23412,1.994676 z"
   id="path4" />



<g
   id="g8"
   transform="matrix(0.24945449,0,0,0.21861032,9.1936591,13.854885)">
	<path
   id="path6"
   style="fill:#333333"
   d="M 124.81055,0 C 102.53371,0 84.410156,18.124844 84.410156,40.401668 V 416.0751 c 0,22.27684 18.124554,40.40167 40.400394,40.40167 h 96.26367 v 0.20296 c 0.74511,-0.0371 1.48999,-0.0623 2.23437,-0.0597 1.22743,0.004 2.45454,0.0685 3.6836,0.2169 2.72681,0.25027 5.45593,0.57576 8.19922,0.35419 1.26592,-0.0554 2.53038,-0.13532 3.79492,-0.21093 v -0.50342 h 34.02929 v 0.45567 c 3.34745,-0.10038 6.69512,-0.0794 10.04493,-0.11939 1.5044,-0.0385 3.01584,-0.14248 4.52148,-0.14725 1.12003,-0.004 2.23674,0.0486 3.3457,0.22485 v -0.41388 h 96.26368 c 22.27676,0 40.40234,-18.12483 40.40234,-40.40167 V 40.401668 C 427.59183,18.124844 409.46629,0 387.18945,0 Z m 0,17.910531 h 262.3789 c 12.40092,0 22.49024,10.090233 22.49024,22.491137 v 375.673432 0.002 c 0,12.40092 -10.08932,22.48915 -22.49024,22.48915 h -262.3789 c -12.40092,0 -22.49024,-10.08823 -22.49024,-22.48915 V 40.401668 c 0,-12.400904 10.08932,-22.491137 22.49024,-22.491137 z M 238.21484,483.08886 c -0.002,0.003 -0.004,0.005 -0.006,0.008 0.002,7.5e-4 0.004,9.8e-4 0.006,0.002 -2.5e-4,-0.003 2.6e-4,-0.007 0,-0.01 z m 34.80078,11.33013 v 0.5492 c 0.003,-0.005 0.007,-0.0105 0.01,-0.0159 0.0768,-0.0766 0.14825,-0.15933 0.22266,-0.23878 -0.0659,-0.10687 -0.17141,-0.18421 -0.23243,-0.2945 z m 17.91211,3.22553 c -0.0281,0.009 -0.0578,0.0113 -0.0859,0.0199 0.0122,0.0118 0.0671,0.0673 0.0859,0.0856 z m -56.0664,0.81186 c -0.0143,0.0411 -0.007,0.084 0.0781,0.12138 0.0125,-0.007 0.019,-0.01 0.0312,-0.0159 -0.0374,-0.0343 -0.0727,-0.0703 -0.10937,-0.10546 z m -11.5625,7.92353 c -0.0653,-0.0172 0.0185,0.16521 -0.0391,0.20097 -0.20505,0.12722 -0.42338,-0.14037 -0.5879,0.15123 -0.0351,0.0623 0.0216,0.20015 0.0918,0.19302 0.25676,-0.0244 0.50383,-0.10517 0.75,-0.18904 0.005,-0.0279 0.0126,-0.0557 0.0176,-0.0836 -0.0775,-0.0913 -0.11775,-0.24235 -0.23242,-0.27261 z m 54.77734,4.61045 c 0.55829,0.27796 1.10657,0.5543 1.72461,0.71038 -0.0777,-0.042 -0.15737,-0.0798 -0.23437,-0.12337 -0.32446,-0.1836 -0.57499,-0.33834 -0.8125,-0.4895 -0.017,-0.001 -0.0338,-8e-4 -0.0508,-0.002 -0.20758,-0.0375 -0.4177,-0.0652 -0.62695,-0.0955 z m -49.51562,0.6467 c -0.0572,0.0241 -0.11465,0.0477 -0.17188,0.0716 0.13201,0.0252 0.26247,0.0503 0.39649,0.0696 -0.075,-0.0471 -0.15225,-0.0913 -0.22461,-0.14128 z" />
	<path
   style="fill:#333333"
   d="m 256,299.351 c -32.591,0 -59.106,26.515 -59.106,59.106 0,32.591 26.515,59.106 59.106,59.106 32.591,0 59.106,-26.515 59.106,-59.106 0,-32.591 -26.515,-59.106 -59.106,-59.106 z m 0,100.3 c -22.714,0 -41.194,-18.48 -41.194,-41.194 0,-22.714 18.48,-41.194 41.194,-41.194 22.714,0 41.194,18.48 41.194,41.194 0,22.714 -18.48,41.194 -41.194,41.194 z"
   id="path7" />
	<path
   style="fill:#333333"
   d="M 353.319,66.442 H 158.681 c -4.946,0 -8.956,4.01 -8.956,8.956 v 194.639 c 0,4.946 4.01,8.956 8.956,8.956 H 353.32 c 4.946,0 8.956,-4.01 8.956,-8.956 V 75.398 c -0.001,-4.946 -4.011,-8.956 -8.957,-8.956 z m -8.955,194.639 H 167.636 V 84.354 h 176.727 v 176.727 z"
   id="path8" />
</g>
<rect
   style="fill:#4d4d4d;stroke-width:0.209255"
   id="rect18"
   width="14.610146"
   height="4.0675845"
   x="45.483376"
   y="113.44056" /><rect
   style="fill:#4d4d4d;stroke-width:0.235708"
   id="rect19"
   width="15.081439"
   height="4.2078457"
   x="86.014755"
   y="113.16004" /><path
   style="fill:#999999;stroke-width:0.148441"
   d="m 39.397598,107.61558 c -0.188675,-0.11799 -0.416092,-0.44936 -0.505375,-0.73637 -0.110027,-0.35372 -0.162529,-13.988732 -0.162958,-42.319784 -4.99e-4,-39.513368 0.01439,-41.824766 0.274045,-42.28885 0.198244,-0.354308 0.443291,-0.540064 0.880612,-0.66754 0.480916,-0.140183 7.386353,-0.169122 33.468873,-0.140261 30.925475,0.03422 32.887535,0.05076 33.280235,0.280495 0.24308,0.142207 0.48578,0.464279 0.58132,0.771438 0.22805,0.733183 0.22971,83.631452 0.002,84.364502 -0.32321,1.03904 2.84332,0.9509 -34.161915,0.9509 -29.643134,0 -33.351277,-0.0236 -33.65653,-0.21453 z m 37.579297,-2.86532 c 7.06849,-1.7301 11.70724,-7.803781 10.77544,-14.108692 -0.65031,-4.400257 -3.60937,-8.063822 -8.10008,-10.028564 -2.27538,-0.99551 -3.87554,-1.314235 -6.59813,-1.314235 -2.72258,0 -4.32275,0.318725 -6.59813,1.314235 -6.23919,2.729728 -9.39521,8.699193 -7.77617,14.708284 1.21396,4.505612 5.40153,8.269022 10.47251,9.411742 1.83471,0.41344 1.83854,0.41377 4.29454,0.36704 1.73975,-0.0331 2.57374,-0.11575 3.53002,-0.34981 z m 21.5579,-30.155962 c 0.27612,-0.150316 0.62959,-0.447114 0.78549,-0.659551 0.27017,-0.368128 0.28346,-1.416157 0.28346,-22.343344 V 29.634307 l -0.35038,-0.438558 c -0.76867,-0.962127 1.230135,-0.893927 -26.19924,-0.893927 -27.429365,0 -25.43056,-0.0682 -26.19923,0.893927 l -0.35038,0.438558 -0.0401,21.810667 c -0.0378,20.559294 -0.0243,21.838673 0.23565,22.298787 0.15166,0.268464 0.51595,0.631392 0.80954,0.806503 l 0.53381,0.318384 24.99467,-4.45e-4 c 24.49752,-4.46e-4 25.00466,-0.006 25.49671,-0.273827 z"
   id="path21" /><path
   style="fill:#b3b3b3;stroke-width:0.148441"
   d="m 38.773081,109.45068 c -1.60163,-0.44849 -2.761907,-1.35943 -3.485216,-2.73627 l -0.408629,-0.77783 V 63.717858 21.499138 l 0.342359,-0.661645 c 0.448268,-0.866323 1.667953,-2.018729 2.567164,-2.425559 0.394006,-0.178258 1.133005,-0.392871 1.642224,-0.476916 1.304669,-0.215334 65.941627,-0.215334 67.246297,0 0.50922,0.08404 1.24822,0.298658 1.64222,0.476916 0.89922,0.40683 2.1189,1.559236 2.56717,2.425559 l 0.34236,0.661645 v 42.221669 42.221663 l -0.51717,0.93793 c -0.59014,1.07027 -1.42186,1.78859 -2.70335,2.33473 l -0.86404,0.36825 -33.854695,0.0263 c -27.687079,0.0215 -33.975293,-0.007 -34.516694,-0.15904 z m 67.824689,-1.69216 c 0.25236,-0.11651 0.52446,-0.32164 0.60466,-0.45585 0.14937,-0.24995 0.23667,-29.683785 0.19535,-65.864024 l -0.0219,-19.193456 -0.45375,-0.405117 -0.45375,-0.405118 -33.410485,-0.0033 -33.410491,-0.0033 -0.459108,0.409903 -0.459106,0.409903 0.0033,42.405293 c 0.0031,39.947996 0.01901,42.422516 0.274412,42.702606 0.149111,0.16352 0.4125,0.36674 0.585308,0.45158 0.225604,0.11078 9.651775,0.15548 33.430475,0.15854 29.236565,0.004 33.170035,-0.0206 33.575115,-0.20758 z"
   id="path22" /><path
   style="fill:#666666;stroke-width:0.629767"
   d="m 39.828293,107.16832 c -0.62554,-0.39713 -0.757721,-9.350357 -0.629768,-42.657101 l 0.161944,-42.154473 h 33.692561 33.69256 l 0.16185,42.277261 0.16185,42.277263 -1.42138,0.38088 c -2.14136,0.57382 -64.906724,0.45574 -65.819617,-0.12383 z m 40.477856,-3.32788 c 4.588769,-2.15698 7.861301,-6.929796 7.861301,-11.4653 0,-2.569904 -1.150095,-6.096993 -1.988077,-6.096993 -0.33293,0 -0.447824,-0.254848 -0.25532,-0.566325 0.480698,-0.777788 -3.779255,-4.418974 -6.527547,-5.579409 -2.893771,-1.221862 -9.793182,-1.221862 -12.686952,0 -2.748293,1.160435 -7.008246,4.801621 -6.527547,5.579409 0.192504,0.311477 0.07761,0.566325 -0.255321,0.566325 -0.862316,0 -1.99054,3.56267 -1.974245,6.234207 0.02964,4.8595 3.917965,9.991976 8.953352,11.818156 3.491223,1.26617 10.184905,1.02137 13.400356,-0.49007 z M 99.308656,74.155123 c 0.831564,-1.284834 1.013964,-44.556051 0.18782,-44.556051 -0.383522,0 -0.548583,-0.24065 -0.366801,-0.534778 0.455521,-0.73705 -11.371537,-1.348796 -26.076645,-1.348796 -14.705109,0 -26.532167,0.611746 -26.076645,1.348796 0.181781,0.294128 0.03039,0.534778 -0.336423,0.534778 -0.911334,0 -0.925764,42.423367 -0.01501,44.125127 0.628227,1.173855 1.58832,1.218133 26.413067,1.218133 19.91734,0 25.876719,-0.178575 26.270637,-0.787209 z"
   id="path5" /><path
   style="fill:#999999;stroke-width:0.629767"
   d="m 39.742275,108.97403 c -1.560934,-0.25265 -3.14122,-0.9596 -3.625495,-1.62188 -0.708671,-0.96917 -0.830236,-8.639955 -0.69669,-43.961472 l 0.161774,-42.787447 1.582094,-1.181133 c 1.501794,-1.121183 3.323395,-1.181133 35.889072,-1.181133 32.56564,0 34.38728,0.05995 35.88907,1.18113 l 1.5821,1.181129 0.1737,42.126532 c 0.0955,23.169592 0.0206,42.759024 -0.16656,43.532054 -0.79012,3.26364 -1.46243,3.32408 -36.030059,3.23891 -17.595586,-0.0434 -33.237139,-0.28036 -34.759006,-0.52669 z M 107.37536,64.866052 V 21.726979 H 73.05303 38.730701 l -0.163079,42.509306 c -0.08969,23.380118 -0.0268,42.865995 0.139762,43.301955 0.239302,0.62633 7.474591,0.75846 34.485407,0.62976 l 34.182569,-0.16287 z"
   id="path9" /><path
   style="fill:#333333;stroke-width:0.629767"
   d="m 67.765565,99.335463 c -3.057606,-1.75295 -4.970406,-5.06303 -4.546527,-7.867717 1.542055,-10.203345 18.125929,-10.203345 19.667983,0 0.693963,4.591758 -4.271181,9.274334 -9.833991,9.274334 -1.780565,0 -3.745931,-0.52284 -5.287465,-1.406617 z m 7.491651,-7.320773 c 0,-2.548737 -0.274736,-3.568384 -1.102093,-4.090267 -1.808381,-1.140697 -3.275789,0.271069 -3.503452,3.370609 -0.281519,3.83276 0.140412,4.545057 2.554471,4.31241 2.036836,-0.196294 2.051074,-0.221235 2.051074,-3.592752 z"
   id="path11" /><path
   style="fill:#0000ff;stroke-width:0.629767"
   d=""
   id="path12" /><path
   style="fill:#aaccff;stroke-width:0.629767"
   d="M 51.011167,51.640935 V 32.74791 H 73.05303 95.094892 V 51.640935 70.53396 H 73.05303 51.011167 Z"
   id="path15" /></svg>
