<?xml version="1.0" encoding="UTF-8" standalone="no"?>
<!-- Uploaded to: SVG Repo, www.svgrepo.com, Generator: SVG Repo Mixer Tools -->

<svg
   version="1.1"
   id="Layer_1"
   viewBox="0 0 145.47629 137.28933"
   xml:space="preserve"
   sodipodi:docname="heater-on-icon.svg"
   inkscape:version="1.3.2 (091e20e, 2023-11-25, custom)"
   width="145.47629"
   height="137.28932"
   xmlns:inkscape="http://www.inkscape.org/namespaces/inkscape"
   xmlns:sodipodi="http://sodipodi.sourceforge.net/DTD/sodipodi-0.dtd"
   xmlns="http://www.w3.org/2000/svg"
   xmlns:svg="http://www.w3.org/2000/svg"><defs
   id="defs8" /><sodipodi:namedview
   id="namedview8"
   pagecolor="#ffffff"
   bordercolor="#000000"
   borderopacity="0.25"
   inkscape:showpageshadow="2"
   inkscape:pageopacity="0.0"
   inkscape:pagecheckerboard="0"
   inkscape:deskcolor="#d1d1d1"
   showguides="false"
   inkscape:zoom="1.5878876"
   inkscape:cx="256.00049"
   inkscape:cy="256.00049"
   inkscape:window-width="1920"
   inkscape:window-height="1009"
   inkscape:window-x="-8"
   inkscape:window-y="-8"
   inkscape:window-maximized="1"
   inkscape:current-layer="Layer_1" />
<path
   style="fill:#e6e6e6;stroke-width:0.235708"
   d="M 105.77995,113.52678 H 40.328073 c -4.332276,0 -7.844096,-3.13545 -7.844096,-7.00364 V 22.852977 c 0,-3.86797 3.51182,-7.003416 7.844096,-7.003416 H 105.7797 c 4.33227,0 7.84434,3.135446 7.84434,7.003416 v 83.670163 c 2.5e-4,3.86819 -3.51182,7.00364 -7.84409,7.00364 z"
   id="path1" />
<path
   style="fill:#f2f2f2;stroke-width:0.235708"
   d="m 40.328073,107.94186 c -0.876084,0 -1.588526,-0.63631 -1.588526,-1.4185 V 22.852977 c 0,-0.782191 0.712692,-1.418501 1.588526,-1.418501 H 105.7797 c 0.87608,0 1.58877,0.63631 1.58877,1.418501 v 83.670163 c 0,0.78219 -0.71269,1.4185 -1.58877,1.4185 H 40.328073 Z"
   id="path2" />
<ellipse
   style="fill:#f4550f;stroke-width:0.235708"
   cx="73.055008"
   cy="93.690483"
   id="circle2"
   rx="12.510143"
   ry="11.169385" />
<path
   style="fill:#f77346;stroke-width:0.235708"
   d="m 64.208105,101.58812 c 4.88531,4.36174 12.80649,4.36174 17.69206,0 4.88531,-4.36174 4.88531,-11.433976 0,-15.795938"
   id="path3" />
<path
   style="fill:#4d4d4d;stroke-width:0.235708"
   d="m 73.054005,95.684715 c -1.2338,0 -2.23411,-0.893105 -2.23411,-1.994676 v -3.698926 c 0,-1.101571 1.00031,-1.994676 2.23411,-1.994676 1.2338,0 2.23412,0.893105 2.23412,1.994676 v 3.698926 c 0,1.101571 -1.00032,1.994676 -2.23412,1.994676 z"
   id="path4" />
<rect
   x="48.778099"
   y="30.647049"
   style="fill:#35d8b9;stroke-width:0.235708"
   width="48.553574"
   height="43.349911"
   id="rect4" />
<polygon
   style="fill:#b9fcef"
   points="158.681,270.037 353.319,270.037 353.319,75.398 "
   id="polygon4"
   transform="matrix(0.24945449,0,0,0.22271954,9.1936591,13.854885)" />

<g
   id="g8"
   transform="matrix(0.24945449,0,0,0.21861032,9.1936591,13.854885)">
	<path
   id="path6"
   style="fill:#333333"
   d="M 124.81055,0 C 102.53371,0 84.410156,18.124844 84.410156,40.401668 V 416.0751 c 0,22.27684 18.124554,40.40167 40.400394,40.40167 h 96.26367 v 0.20296 c 0.74511,-0.0371 1.48999,-0.0623 2.23437,-0.0597 1.22743,0.004 2.45454,0.0685 3.6836,0.2169 2.72681,0.25027 5.45593,0.57576 8.19922,0.35419 1.26592,-0.0554 2.53038,-0.13532 3.79492,-0.21093 v -0.50342 h 34.02929 v 0.45567 c 3.34745,-0.10038 6.69512,-0.0794 10.04493,-0.11939 1.5044,-0.0385 3.01584,-0.14248 4.52148,-0.14725 1.12003,-0.004 2.23674,0.0486 3.3457,0.22485 v -0.41388 h 96.26368 c 22.27676,0 40.40234,-18.12483 40.40234,-40.40167 V 40.401668 C 427.59183,18.124844 409.46629,0 387.18945,0 Z m 0,17.910531 h 262.3789 c 12.40092,0 22.49024,10.090233 22.49024,22.491137 v 375.673432 0.002 c 0,12.40092 -10.08932,22.48915 -22.49024,22.48915 h -262.3789 c -12.40092,0 -22.49024,-10.08823 -22.49024,-22.48915 V 40.401668 c 0,-12.400904 10.08932,-22.491137 22.49024,-22.491137 z M 238.21484,483.08886 c -0.002,0.003 -0.004,0.005 -0.006,0.008 0.002,7.5e-4 0.004,9.8e-4 0.006,0.002 -2.5e-4,-0.003 2.6e-4,-0.007 0,-0.01 z m 34.80078,11.33013 v 0.5492 c 0.003,-0.005 0.007,-0.0105 0.01,-0.0159 0.0768,-0.0766 0.14825,-0.15933 0.22266,-0.23878 -0.0659,-0.10687 -0.17141,-0.18421 -0.23243,-0.2945 z m 17.91211,3.22553 c -0.0281,0.009 -0.0578,0.0113 -0.0859,0.0199 0.0122,0.0118 0.0671,0.0673 0.0859,0.0856 z m -56.0664,0.81186 c -0.0143,0.0411 -0.007,0.084 0.0781,0.12138 0.0125,-0.007 0.019,-0.01 0.0312,-0.0159 -0.0374,-0.0343 -0.0727,-0.0703 -0.10937,-0.10546 z m -11.5625,7.92353 c -0.0653,-0.0172 0.0185,0.16521 -0.0391,0.20097 -0.20505,0.12722 -0.42338,-0.14037 -0.5879,0.15123 -0.0351,0.0623 0.0216,0.20015 0.0918,0.19302 0.25676,-0.0244 0.50383,-0.10517 0.75,-0.18904 0.005,-0.0279 0.0126,-0.0557 0.0176,-0.0836 -0.0775,-0.0913 -0.11775,-0.24235 -0.23242,-0.27261 z m 54.77734,4.61045 c 0.55829,0.27796 1.10657,0.5543 1.72461,0.71038 -0.0777,-0.042 -0.15737,-0.0798 -0.23437,-0.12337 -0.32446,-0.1836 -0.57499,-0.33834 -0.8125,-0.4895 -0.017,-0.001 -0.0338,-8e-4 -0.0508,-0.002 -0.20758,-0.0375 -0.4177,-0.0652 -0.62695,-0.0955 z m -49.51562,0.6467 c -0.0572,0.0241 -0.11465,0.0477 -0.17188,0.0716 0.13201,0.0252 0.26247,0.0503 0.39649,0.0696 -0.075,-0.0471 -0.15225,-0.0913 -0.22461,-0.14128 z" />
	<path
   style="fill:#333333"
   d="m 256,299.351 c -32.591,0 -59.106,26.515 -59.106,59.106 0,32.591 26.515,59.106 59.106,59.106 32.591,0 59.106,-26.515 59.106,-59.106 0,-32.591 -26.515,-59.106 -59.106,-59.106 z m 0,100.3 c -22.714,0 -41.194,-18.48 -41.194,-41.194 0,-22.714 18.48,-41.194 41.194,-41.194 22.714,0 41.194,18.48 41.194,41.194 0,22.714 -18.48,41.194 -41.194,41.194 z"
   id="path7" />
	<path
   style="fill:#333333"
   d="M 353.319,66.442 H 158.681 c -4.946,0 -8.956,4.01 -8.956,8.956 v 194.639 c 0,4.946 4.01,8.956 8.956,8.956 H 353.32 c 4.946,0 8.956,-4.01 8.956,-8.956 V 75.398 c -0.001,-4.946 -4.011,-8.956 -8.957,-8.956 z m -8.955,194.639 H 167.636 V 84.354 h 176.727 v 176.727 z"
   id="path8" />
</g>
<rect
   style="fill:#4d4d4d;stroke-width:0.209255"
   id="rect18"
   width="14.610146"
   height="4.0675845"
   x="45.483376"
   y="113.44056" /><rect
   style="fill:#4d4d4d;stroke-width:0.235708"
   id="rect19"
   width="15.081439"
   height="4.2078457"
   x="86.014755"
   y="113.16004" /><path
   style="fill:#999999;stroke-width:0.148441"
   d="m 39.397598,107.61558 c -0.188675,-0.11799 -0.416092,-0.44936 -0.505375,-0.73637 -0.110027,-0.35372 -0.162529,-13.988732 -0.162958,-42.319784 -4.99e-4,-39.513368 0.01439,-41.824766 0.274045,-42.28885 0.198244,-0.354308 0.443291,-0.540064 0.880612,-0.66754 0.480916,-0.140183 7.386353,-0.169122 33.468873,-0.140261 30.925475,0.03422 32.887535,0.05076 33.280235,0.280495 0.24308,0.142207 0.48578,0.464279 0.58132,0.771438 0.22805,0.733183 0.22971,83.631452 0.002,84.364502 -0.32321,1.03904 2.84332,0.9509 -34.161915,0.9509 -29.643134,0 -33.351277,-0.0236 -33.65653,-0.21453 z m 37.579297,-2.86532 c 7.06849,-1.7301 11.70724,-7.803781 10.77544,-14.108692 -0.65031,-4.400257 -3.60937,-8.063822 -8.10008,-10.028564 -2.27538,-0.99551 -3.87554,-1.314235 -6.59813,-1.314235 -2.72258,0 -4.32275,0.318725 -6.59813,1.314235 -6.23919,2.729728 -9.39521,8.699193 -7.77617,14.708284 1.21396,4.505612 5.40153,8.269022 10.47251,9.411742 1.83471,0.41344 1.83854,0.41377 4.29454,0.36704 1.73975,-0.0331 2.57374,-0.11575 3.53002,-0.34981 z m 21.5579,-30.155962 c 0.27612,-0.150316 0.62959,-0.447114 0.78549,-0.659551 0.27017,-0.368128 0.28346,-1.416157 0.28346,-22.343344 V 29.634307 l -0.35038,-0.438558 c -0.76867,-0.962127 1.230135,-0.893927 -26.19924,-0.893927 -27.429365,0 -25.43056,-0.0682 -26.19923,0.893927 l -0.35038,0.438558 -0.0401,21.810667 c -0.0378,20.559294 -0.0243,21.838673 0.23565,22.298787 0.15166,0.268464 0.51595,0.631392 0.80954,0.806503 l 0.53381,0.318384 24.99467,-4.45e-4 c 24.49752,-4.46e-4 25.00466,-0.006 25.49671,-0.273827 z"
   id="path21" /><path
   style="fill:#b3b3b3;stroke-width:0.148441"
   d="m 38.773081,109.45068 c -1.60163,-0.44849 -2.761907,-1.35943 -3.485216,-2.73627 l -0.408629,-0.77783 V 63.717858 21.499138 l 0.342359,-0.661645 c 0.448268,-0.866323 1.667953,-2.018729 2.567164,-2.425559 0.394006,-0.178258 1.133005,-0.392871 1.642224,-0.476916 1.304669,-0.215334 65.941627,-0.215334 67.246297,0 0.50922,0.08404 1.24822,0.298658 1.64222,0.476916 0.89922,0.40683 2.1189,1.559236 2.56717,2.425559 l 0.34236,0.661645 v 42.221669 42.221663 l -0.51717,0.93793 c -0.59014,1.07027 -1.42186,1.78859 -2.70335,2.33473 l -0.86404,0.36825 -33.854695,0.0263 c -27.687079,0.0215 -33.975293,-0.007 -34.516694,-0.15904 z m 67.824689,-1.69216 c 0.25236,-0.11651 0.52446,-0.32164 0.60466,-0.45585 0.14937,-0.24995 0.23667,-29.683785 0.19535,-65.864024 l -0.0219,-19.193456 -0.45375,-0.405117 -0.45375,-0.405118 -33.410485,-0.0033 -33.410491,-0.0033 -0.459108,0.409903 -0.459106,0.409903 0.0033,42.405293 c 0.0031,39.947996 0.01901,42.422516 0.274412,42.702606 0.149111,0.16352 0.4125,0.36674 0.585308,0.45158 0.225604,0.11078 9.651775,0.15548 33.430475,0.15854 29.236565,0.004 33.170035,-0.0206 33.575115,-0.20758 z"
   id="path22" /><g
   id="g2"
   transform="matrix(0.92170115,0,0,0.73698019,43.694055,29.70745)"><path
     class="st7"
     d="m 21.04,20.63 c 0,0 -1.79,8.99 -0.96,11.47 0,0 1.1,-13.6 11.67,-24.1 0,0 -0.34,8.79 5.15,13.25 5.49,4.46 6.73,11.4 6.73,11.4 0,0 0.62,-4.74 -1.24,-12.33 0,0 11.67,12.12 6.32,25.65 0,0 -6.45,14.9 -24.92,8.38 C 5.32,47.83 17.74,22.97 21.04,20.63 Z"
     id="path1-9"
     style="fill:#f6af62" /><path
     class="st4"
     d="m 40.75,32.12 c 0.17,3.81 -1.55,4.81 -2.94,5.01 -0.89,0.13 -1.79,-0.1 -2.57,-0.53 -7.65,-4.15 -3.72,-14.29 -3.72,-14.29 -5.01,4.79 -2.4,14.74 -2.4,14.74 0,0 1.55,5.64 -1.62,6.13 -1.59,0.25 -2.33,-0.39 -2.67,-1.08 -0.31,-0.64 -0.31,-1.39 -0.04,-2.05 2.15,-5.34 0.31,-8.36 0.31,-8.36 -1.03,3.06 -2.12,5.08 -2.91,6.29 -1.12,1.72 -1.83,3.68 -1.93,5.73 C 19.9,51.35 26.3,54.4 26.3,54.4 36.81,59.76 41.53,49.96 41.53,49.96 46.96,39.52 40.75,32.12 40.75,32.12 Z"
     id="path2-0"
     style="fill:#fbd872" /></g><path
   style="fill:#ff6600;stroke-width:0.148441"
   d="m 51.138915,51.585236 v -19.21583 h 21.91521 c 12.05337,0 21.91522,0.0471 21.91522,0.104676 0,0.05757 -3.50956,3.23857 -7.79902,7.068887 l -7.79901,6.96421 -1.38292,-1.041724 c -0.76061,-0.572948 -1.66967,-1.339695 -2.02015,-1.703882 -1.44246,-1.498916 -2.51281,-4.004462 -2.83807,-6.643586 -0.0983,-0.797861 -0.21276,-1.480991 -0.25429,-1.518064 -0.0415,-0.03707 -0.76474,0.567635 -1.60716,1.3438 -4.31326,3.974029 -7.2577,8.811758 -8.74271,14.364307 l -0.393,1.469428 0.0748,-1.8234 c 0.0411,-1.002868 0.21815,-2.517693 0.39336,-3.366277 0.17521,-0.848581 0.36342,-1.826906 0.41825,-2.174052 l 0.0997,-0.631178 -0.66296,0.561046 c -1.57665,1.334288 -3.65579,4.730545 -4.79861,7.838509 -0.94762,2.57713 -1.23629,4.266467 -1.13734,6.656038 0.0874,2.109277 0.38528,3.219923 1.25959,4.695469 l 0.48335,0.815757 -3.05004,2.725847 c -2.7151,2.426509 -3.10627,2.725846 -3.56212,2.725846 h -0.51208 z"
   id="path23" /><path
   style="fill:#ff7f2a;stroke-width:0.148441"
   d="m 78.709665,70.464071 c 4.005,-1.007349 7.18827,-3.05126 9.41459,-6.044907 1.06054,-1.426064 1.81794,-4.055729 1.81794,-6.311767 0,-3.928456 -2.0646,-8.287452 -5.77548,-12.19379 -1.1461,-1.206463 -1.57966,-1.483699 -1.38494,-0.885597 0.56385,1.731989 1.18875,5.649909 1.19015,7.461913 7.5e-4,0.811632 -0.16676,0.725297 -0.53029,-0.273511 -0.55163,-1.515635 -1.89856,-3.555757 -3.20242,-4.850549 l -0.71784,-0.712834 7.72399,-6.896176 7.72398,-6.896175 v 18.970193 18.970192 l -8.75823,-0.01045 -8.75823,-0.01045 z"
   id="path24" /><path
   style="fill:#ff7f2a;stroke-width:0.148441"
   d="M 51.138915,51.564536 V 32.328008 l 21.71884,0.10324 c 11.94537,0.05678 21.75111,0.131724 21.79055,0.166537 0.0394,0.03481 -3.38462,3.149672 -7.60901,6.92191 l -7.68071,6.85861 -0.79575,-0.58418 c -0.43767,-0.3213 -1.29408,-1.027492 -1.90315,-1.569315 -1.80498,-1.605701 -2.9521,-3.951208 -3.43011,-7.013528 -0.12924,-0.82796 -0.26848,-1.535282 -0.30941,-1.571828 -0.15502,-0.138409 -0.90282,0.435054 -2.12801,1.631911 -3.9309,3.839999 -6.44458,7.915856 -8.11103,13.151769 l -0.39218,1.232232 0.0804,-1.402614 c 0.0442,-0.771441 0.25159,-2.317564 0.46082,-3.435837 0.20924,-1.11827 0.3504,-2.060024 0.31371,-2.092786 -0.1252,-0.111787 -0.89489,0.618009 -1.82929,1.734484 -1.87097,2.235545 -3.96562,6.640853 -4.60512,9.685122 -0.20867,0.993369 -0.24775,1.755491 -0.1834,3.576668 0.0894,2.530139 0.17411,2.908132 1.01545,4.531258 l 0.5675,1.094849 -2.81566,2.516818 c -2.5298,2.261283 -3.44666,2.937735 -3.9818,2.937735 -0.12461,0 -0.17263,-5.351812 -0.17263,-19.236527 z"
   id="path25" /><path
   style="fill:#ff6600;stroke-width:0.148441"
   d="m 55.447515,68.146467 2.97016,-2.654596 0.5283,0.617743 c 1.65859,1.939384 5.27475,3.599217 9.62894,4.41972 l 1.33725,0.251992 -8.71741,0.0099 -8.71741,0.0099 z"
   id="path26" /><path
   style="fill:#ff6600;stroke-width:0.148441"
   d="m 84.757955,70.660803 c -3.49936,-0.0412 -6.2361,-0.08962 -6.08164,-0.107589 0.63227,-0.07356 3.22364,-1.062093 4.41161,-1.682911 1.53183,-0.800512 4.30913,-3.202765 5.1069,-4.417259 1.15821,-1.763221 1.74737,-3.896625 1.74737,-6.327395 0,-0.883622 -0.10043,-2.075267 -0.22319,-2.648102 -0.66293,-3.093481 -2.59051,-6.50839 -5.31927,-9.42362 -1.02787,-1.098114 -1.46606,-1.442632 -1.63877,-1.288439 -0.0485,0.04333 0.0645,0.727631 0.25118,1.520669 0.45435,1.930194 0.79748,4.307164 0.79532,5.509471 l -0.002,0.98183 -0.58965,-1.262354 c -0.65152,-1.39483 -1.73019,-2.968199 -2.8216,-4.115614 l -0.71275,-0.749336 7.64382,-6.824605 7.64382,-6.824606 v 18.90006 18.90006 l -1.92446,-0.03267 c -1.05845,-0.01797 -4.78757,-0.06639 -8.28693,-0.10759 z"
   id="path27" /></svg>
