<?xml version="1.0" encoding="UTF-8" standalone="no"?>
<!-- Uploaded to: SVG Repo, www.svgrepo.com, Generator: SVG Repo Mixer Tools -->

<svg
   version="1.1"
   id="temperaturecomparison"
   viewBox="0 0 19.256679 17.319736"
   enable-background="new 0 0 204 220"
   xml:space="preserve"
   width="48.330486"
   height="40.307747"
   sodipodi:docname="heater-none.svg"
   inkscape:version="1.2 (dc2aedaf03, 2022-05-15)"
   xmlns:inkscape="http://www.inkscape.org/namespaces/inkscape"
   xmlns:sodipodi="http://sodipodi.sourceforge.net/DTD/sodipodi-0.dtd"
   xmlns="http://www.w3.org/2000/svg"
   xmlns:svg="http://www.w3.org/2000/svg"><defs
   id="defs12054" /><sodipodi:namedview
   id="namedview12052"
   pagecolor="#ffffff"
   bordercolor="#000000"
   borderopacity="0.25"
   inkscape:showpageshadow="2"
   inkscape:pageopacity="0.0"
   inkscape:pagecheckerboard="0"
   inkscape:deskcolor="#d1d1d1"
   showgrid="false"
   inkscape:zoom="4.6790582"
   inkscape:cx="53.108978"
   inkscape:cy="43.384799"
   inkscape:window-width="1920"
   inkscape:window-height="1027"
   inkscape:window-x="-8"
   inkscape:window-y="-8"
   inkscape:window-maximized="1"
   inkscape:current-layer="temperaturecomparison"
   showguides="false" />





<path
   style="fill:#000000;stroke-width:0.0154635"
   d="m 2.2336577,14.967469 c -0.569017,-0.05744 -1.165704,-0.303345 -1.61027399,-0.663626 -0.454285,-0.368154 -0.802855,-0.88372 -0.961907,-1.422745 -0.07672,-0.26 -0.104164,-0.435647 -0.11323,-0.724675 -0.01868,-0.595573 0.128746,-1.122291 0.458226,-1.637104 0.120559,-0.188373 0.261514,-0.352773 0.466086,-0.5436122 0.239645,-0.223555 0.423316,-0.347796 0.73675499,-0.498363 l 0.261931,-0.125824 8.4e-4,-3.152347 c 9e-4,-3.544246 -0.0084,-3.273642 0.121361,-3.531831 0.0595,-0.118394 0.0956,-0.166826 0.1999,-0.268191 0.104212,-0.101273 0.154251,-0.136513 0.275971,-0.194355 0.555545,-0.263991 1.189875,-0.05213 1.452404,0.485081 0.117448,0.240334 0.106905,-0.07653 0.115772,3.479615 l 0.008,3.189978 0.156863,0.06861 c 1.280358,0.559987 1.993563,1.9311552 1.691926,3.2527832 -0.198852,0.871261 -0.77941,1.595669 -1.598785,1.994931 -0.494,0.240713 -1.104725,0.347909 -1.661769,0.291679 z m 0.814832,-0.48539 c 0.343787,-0.06809 0.704337,-0.218384 0.981247,-0.409024 0.190235,-0.130967 0.464014,-0.396834 0.600121,-0.582779 0.200128,-0.273411 0.351435,-0.618564 0.422155,-0.963004 0.05071,-0.246986 0.05081,-0.661934 2.04e-4,-0.908284 -0.177577,-0.864677 -0.786535,-1.558802 -1.623614,-1.8506902 -0.07611,-0.02654 -0.156376,-0.06201 -0.178371,-0.07882 -0.08708,-0.06656 -0.08325,0.03066 -0.08325,-2.113394 v -1.982214 h -0.611763 -0.611765 v 0.594517 0.594518 h 0.268452 c 0.24437,0 0.273756,0.0029 0.327563,0.03229 0.115815,0.06326 0.15832,0.206056 0.09026,0.303238 -0.07607,0.108623 -0.09321,0.113656 -0.405016,0.118948 l -0.281258,0.0048 v 0.593556 0.593554 h 0.267171 c 0.298305,0 0.348504,0.01117 0.406598,0.09045 0.07575,0.103379 0.05267,0.235335 -0.05515,0.315315 l -0.05922,0.04393 -0.279697,0.005 -0.279697,0.005 -3.37e-4,0.330323 c -4.59e-4,0.438626 -0.01563,0.471535 -0.250636,0.543564 -0.04745,0.01454 -0.164146,0.06271 -0.259323,0.107028 -0.61651299,0.2870982 -1.09586199,0.8192442 -1.29829899,1.4412982 -0.100427,0.308596 -0.113025,0.394736 -0.112454,0.768943 4.59e-4,0.31342 0.0034,0.347302 0.04466,0.517691 0.07946,0.328098 0.186456,0.569426 0.372098,0.839222 0.396746,0.576594 1.06468299,0.979705 1.77880499,1.073537 0.178607,0.02347 0.649575,0.0073 0.830517,-0.02857 z M 3.1635777,4.0732728 c -0.0044,-1.062023 -0.0045,-1.063371 -0.03967,-1.147842 -0.07278,-0.174696 -0.198091,-0.289989 -0.38059,-0.350174 -0.136144,-0.0449 -0.316915,-0.03665 -0.444937,0.02031 -0.122109,0.05433 -0.235076,0.162209 -0.296237,0.282903 -0.05021,0.09909 -0.05091,0.103485 -0.05632,0.354768 l -0.0055,0.254435 0.281253,0.0051 0.281253,0.005 0.05922,0.04393 c 0.106236,0.0788 0.130916,0.211915 0.05779,0.311709 -0.06031,0.08231 -0.111285,0.09406 -0.408192,0.09406 h -0.268218 v 0.594517 0.594518 h 0.612272 0.612273 z"
   id="path12611" /><path
   style="fill:#000000;stroke-width:0.01945"
   d="m 4.6719837,4.1036388 c -0.262908,-0.05196 -0.529202,-0.22433 -0.685717,-0.443856 -0.218718,-0.306773 -0.218718,-0.733989 0,-1.040762 0.385448,-0.540626 1.185608,-0.624628 1.679646,-0.176332 0.434765,0.394503 0.434765,0.998922 0,1.393426 -0.268206,0.243375 -0.627209,0.340004 -0.993929,0.267524 z m 0.385901,-0.548486 c 0.09961,-0.02513 0.234092,-0.135027 0.281899,-0.230379 0.04901,-0.09775 0.04901,-0.272997 0,-0.370746 -0.04781,-0.09535 -0.182286,-0.205252 -0.281899,-0.230378 -0.368348,-0.09291 -0.7015,0.179872 -0.62062,0.508162 0.06256,0.25393 0.334372,0.395544 0.62062,0.323341 z"
   id="path12613" /><path
   style="fill:#ff2a2a;stroke-width:0.0154635"
   d="m 2.2271367,14.49613 c -0.955341,-0.130026 -1.75047499,-0.757442 -2.06193199,-1.627008 -0.106577,-0.297557 -0.127624,-0.42892 -0.127624,-0.796541 0,-0.286666 0.0046,-0.347409 0.03616,-0.484619 0.05424,-0.235327 0.103442,-0.371253 0.213601,-0.590086 0.287482,-0.57108 0.76917499,-0.988941 1.40470699,-1.2185602 0.161353,-0.0583 0.228053,-0.108872 0.251429,-0.190647 0.0085,-0.02982 0.01554,-0.195994 0.01559,-0.369275 l 7.8e-5,-0.315054 0.270589,-0.005 c 0.30848,-0.0058 0.351154,-0.01889 0.416334,-0.127871 0.06676,-0.111623 0.02976,-0.243423 -0.09068,-0.323088 -0.04886,-0.03232 -0.0676,-0.0343 -0.324048,-0.0343 h -0.272192 v -0.579273 -0.579273 l 0.254902,-3.31e-4 c 0.289447,-3.91e-4 0.354088,-0.01702 0.42116,-0.108408 0.05042,-0.06871 0.05313,-0.204258 0.0053,-0.266488 -0.07697,-0.100214 -0.09276,-0.104545 -0.400128,-0.109762 l -0.281258,-0.0048 v -0.578311 -0.578311 h 0.596079 0.596078 v 1.983232 c 0,1.798237 0.0024,1.988095 0.02546,2.035378 0.03297,0.06752 0.07707,0.09537 0.249046,0.157271 0.839025,0.3020142 1.434755,0.9803742 1.610972,1.8344192 0.0473,0.229239 0.05051,0.643856 0.0068,0.872382 -0.09027,0.471441 -0.323862,0.915659 -0.659738,1.254594 -0.368354,0.371712 -0.829815,0.620128 -1.339928,0.721319 -0.17356,0.03443 -0.650636,0.05104 -0.816736,0.02843 z"
   id="path12617" /><path
   style="fill:#4d4d4d;stroke-width:0.0154635"
   d="m 2.0685837,14.460331 c -0.247069,-0.05188 -0.393613,-0.102647 -0.643138,-0.222807 -0.65479399,-0.315327 -1.12134299,-0.875267 -1.32120299,-1.58567 -0.03772,-0.134054 -0.04125,-0.173821 -0.04756,-0.535002 l -0.0068,-0.390183 0.04756,-0.190033 c 0.116523,-0.465551 0.330486,-0.836633 0.675993,-1.1724 0.27270899,-0.26502 0.52978399,-0.4256672 0.92645699,-0.5789422 0.172935,-0.06682 0.235319,-0.121576 0.252163,-0.221324 0.007,-0.04139 0.01313,-0.203875 0.01364,-0.361079 5.21e-4,-0.157205 0.0062,-0.286238 0.0127,-0.286743 0.0065,-5.11e-4 0.133892,-0.0063 0.28316,-0.01285 0.310235,-0.01364 0.329806,-0.02078 0.393103,-0.143453 0.05448,-0.105586 0.03838,-0.189496 -0.05353,-0.278804 l -0.06897,-0.06703 h -0.282766 -0.282766 v -0.579273 -0.579273 h 0.247163 c 0.135939,0 0.27129,-0.0067 0.30078,-0.01495 0.167361,-0.04664 0.225997,-0.282809 0.09937,-0.40021 -0.06673,-0.06187 -0.11565,-0.07264 -0.330683,-0.07282 -0.109438,-10e-5 -0.225449,-0.0044 -0.257802,-0.0096 l -0.05882,-0.0094 v -0.569657 -0.569656 h 0.588235 0.588235 l 0.001,1.894071 c 5.21e-4,1.041739 0.0067,1.952105 0.01365,2.023034 0.01169,0.119133 0.01642,0.132012 0.06196,0.168963 0.02711,0.022 0.118033,0.06603 0.202037,0.09784 0.700057,0.2650982 1.211887,0.7514682 1.479336,1.4057502 0.130834,0.320072 0.187953,0.715423 0.156732,1.084834 -0.08075,0.955423 -0.785773,1.806446 -1.742157,2.102925 -0.263132,0.08157 -0.372679,0.09699 -0.737255,0.103767 -0.310358,0.0058 -0.351015,0.0034 -0.509804,-0.02996 z"
   id="path14306" /><path
   style="fill:#d40000;stroke-width:0.0787943"
   d="M 1.6356347,14.284602 C 1.1418967,14.093209 0.55361371,13.558544 0.31582971,13.08509 c -0.215321,-0.428728 -0.222555,-1.587451 -0.0125,-2.001562 0.241855,-0.476796 0.672469,-0.904943 1.13204299,-1.1255582 0.503338,-0.241623 0.532858,-0.276499 0.590226,-0.697304 0.04019,-0.294797 0.05897,-0.313535 0.336954,-0.336193 0.537658,-0.04382 0.47728,-0.561376 -0.06549,-0.561376 h -0.268671 v -0.541635 -0.541634 l 0.290246,-0.02423 c 0.559618,-0.0467 0.539943,-0.531545 -0.02157,-0.531545 h -0.268675 v -0.546347 -0.546346 h 0.55683 0.55683 v 2.027971 2.027972 l 0.400592,0.199173 c 0.572875,0.2848322 0.993466,0.6877282 1.245433,1.1930332 0.573597,1.150316 0.05795,2.519596 -1.185044,3.146842 -0.50268,0.253664 -1.395119,0.280085 -1.967399,0.05825 z"
   id="path851" /><g
   id="sun2"
   transform="matrix(0.08562924,0,0,0.08633632,6.1809507,2.2682128)">
	<g
   id="g4065">
		<g
   id="g4063">
			<g
   id="g4061">
				<g
   id="g4053">
					<g
   id="g4051">
						<polygon
   style="fill:#fcdd66"
   points="55.419,49.894 28.332,38.21 45.738,62.023 16.268,63.265 42.307,77.142 16.268,91.02 45.739,92.262 28.332,116.075 55.419,104.391 50.045,133.397 69.368,111.112 77.141,139.564 84.915,111.112 104.238,133.397 98.863,104.391 125.951,116.074 108.543,92.261 138.015,91.02 111.975,77.142 138.015,63.265 108.543,62.023 125.951,38.209 98.863,49.894 104.238,20.888 84.915,43.173 77.141,14.721 69.368,43.173 50.045,20.888 "
   id="polygon4049" />
					</g>
				</g>
				<g
   id="g4059">
					<g
   id="g4057">
						<path
   style="fill:#fcdd66"
   d="M 77.141,154.284 67.54,119.141 43.632,146.715 50.281,110.832 16.803,125.273 38.324,95.832 1.872,94.296 34.059,77.142 1.872,59.988 38.323,58.453 16.803,29.013 50.281,43.453 43.631,7.569 67.54,35.143 77.141,0 l 9.601,35.143 23.909,-27.574 -6.649,35.884 33.478,-14.441 -21.521,29.441 36.453,1.536 -32.189,17.154 32.189,17.155 -36.453,1.535 21.521,29.44 -33.478,-14.44 6.647,35.883 -23.907,-27.574 z m -5.945,-51.203 5.945,21.762 5.946,-21.762 14.737,16.998 -4.1,-22.13 20.697,8.927 L 101.128,88.69 123.619,87.742 103.726,77.141 123.619,66.54 101.128,65.592 114.421,47.406 93.724,56.334 97.824,34.205 83.087,51.203 77.141,29.441 71.196,51.203 56.458,34.206 l 4.1,22.13 -20.697,-8.927 13.293,18.185 -22.489,0.948 19.891,10.601 -19.891,10.601 22.49,0.948 -13.293,18.186 20.697,-8.928 -4.1,22.13 z"
   id="path4055" />
					</g>
				</g>
			</g>
		</g>
	</g>
	<g
   id="g4089">
		<g
   id="g4083">
			<g
   id="g4081">
				<g
   id="g4079">
					<g
   id="g4071">
						<g
   id="g4069">
							<polygon
   style="fill:#fbd009"
   points="59.138,54.559 35.691,44.081 51.114,64.612 25.447,65.358 48.271,77.142 25.447,88.927 51.114,89.673 35.691,110.205 59.138,99.727 54.131,124.915 70.698,105.296 77.141,130.152 83.584,105.296 100.153,124.915 95.145,99.726 118.59,110.204 103.168,89.673 128.836,88.927 106.012,77.142 128.836,65.357 103.168,64.611 118.59,44.08 95.144,54.558 100.151,29.37 83.584,48.988 77.141,24.132 70.698,48.988 54.13,29.37 "
   id="polygon4067" />
						</g>
					</g>
					<g
   id="g4077">
						<g
   id="g4075">
							<path
   style="fill:#fbd009"
   d="M 77.141,131.87 70.489,106.211 53.383,126.47 58.553,100.461 34.346,111.279 50.27,90.08 23.767,89.31 47.331,77.142 23.767,64.976 50.27,64.205 34.346,43.007 58.553,53.825 53.383,27.816 70.49,48.074 77.142,22.415 83.793,48.074 100.9,27.815 l -5.17,26.009 24.206,-10.818 -15.924,21.198 26.505,0.771 -23.565,12.167 23.565,12.168 -26.505,0.77 15.924,21.198 -24.206,-10.818 5.171,26.009 -17.108,-20.258 z m -6.235,-27.489 6.235,24.053 6.235,-24.053 16.027,18.979 -4.844,-24.368 22.686,10.139 L 102.323,89.266 127.156,88.545 105.072,77.142 127.156,65.739 102.323,65.018 117.245,45.153 94.559,55.292 99.403,30.924 83.376,49.904 77.141,25.85 70.906,49.903 54.878,30.924 59.723,55.292 37.037,45.154 51.959,65.019 27.127,65.74 49.21,77.142 27.127,88.545 51.959,89.267 37.037,109.132 59.724,98.993 54.88,123.361 Z"
   id="path4073" />
						</g>
					</g>
				</g>
			</g>
		</g>
		<g
   id="g4087">
			<circle
   style="fill:#fcdd66"
   cx="77.140999"
   cy="77.141998"
   r="27.693001"
   id="circle4085" />
		</g>
	</g>
</g><path
   style="fill:#666666;stroke-width:0.213718"
   d="m 29.599974,25.901075 c -1.048977,-0.330632 -2.837935,-2.183092 -3.159586,-3.271739 -0.963165,-3.259892 0.779358,-6.453377 3.902673,-7.152344 3.362557,-0.752508 6.526813,1.791132 6.521244,5.242208 -0.005,3.096897 -2.345362,5.47841 -5.340867,5.43477 -0.646498,-0.0094 -1.512057,-0.123221 -1.923464,-0.252895 z"
   id="path4758"
   transform="matrix(0.42968753,0,0,0.42968753,-0.75516402,0)" /><path
   style="fill:#999999;stroke-width:0.213718"
   d="m 27.592539,14.16447 c -0.211619,-1.165633 -0.341721,-2.162375 -0.289115,-2.214981 0.05261,-0.05261 0.693685,0.627343 1.42462,1.510999 0.730935,0.883656 1.40114,1.606647 1.489346,1.606647 0.0882,0 0.387407,-0.961732 0.664893,-2.137183 0.277486,-1.17545 0.566006,-2.137182 0.641155,-2.137182 0.07515,0 0.363668,0.961732 0.641154,2.137182 0.277486,1.175451 0.570413,2.137183 0.650947,2.137183 0.08053,0 0.747306,-0.726426 1.481713,-1.61428 0.734407,-0.887854 1.376047,-1.573518 1.425867,-1.523698 0.04982,0.04982 -0.07509,1.050908 -0.277573,2.224642 l -0.368155,2.13406 -1.050838,-0.545194 c -1.497496,-0.776929 -3.497413,-0.782458 -4.979419,-0.01377 l -1.069833,0.554904 z"
   id="path4760"
   transform="matrix(0.42968753,0,0,0.42968753,-0.75516402,0)" /><path
   style="fill:#999999;stroke-width:0.213718"
   d="m 36.923093,26.088766 -1.973623,-0.908512 0.55931,-0.515047 c 0.850892,-0.783556 1.567014,-2.482836 1.568052,-3.720821 0.0013,-1.506766 -0.326125,-2.510308 -1.186772,-3.637818 l -0.7453,-0.976396 2.065376,-0.958607 c 1.135957,-0.527233 2.09326,-0.930722 2.12734,-0.896642 0.03408,0.03408 -0.507972,0.822971 -1.204559,1.753091 -0.696588,0.93012 -1.266524,1.758141 -1.266524,1.840047 0,0.220688 1.401887,0.412498 3.098914,0.424002 l 1.496028,0.01014 -1.912815,1.007372 c -1.052048,0.554055 -1.946059,1.116773 -1.986691,1.250484 -0.04063,0.133711 0.74757,0.662663 1.75156,1.17545 1.003989,0.512787 1.82587,1.00447 1.826402,1.092628 5.32e-4,0.08816 -0.960765,0.160289 -2.136216,0.160289 -1.295951,0 -2.137182,0.08494 -2.137182,0.215784 0,0.118682 0.528953,0.931035 1.17545,1.80523 0.646498,0.874194 1.175451,1.64265 1.175451,1.70768 0,0.201903 -0.260148,0.107973 -2.294201,-0.828354 z"
   id="path4831"
   transform="matrix(0.42968753,0,0,0.42968753,-0.75516402,0)" /><path
   style="fill:#999999;stroke-width:0.213718"
   d="m 34.257224,28.053411 -1.426386,-1.731993 1.002616,-0.47066 c 0.551439,-0.258863 1.062173,-0.41079 1.134966,-0.337616 0.168246,0.16913 0.914392,4.073061 0.800281,4.187172 -0.0468,0.0468 -0.726964,-0.694307 -1.511477,-1.646903 z"
   id="path4833"
   transform="matrix(0.42968753,0,0,0.42968753,-0.75516402,0)" /><path
   style="fill:#999999;stroke-width:0.213718"
   d="m 25.056999,16.421071 c -0.774516,-1.037046 -1.382289,-1.911459 -1.350607,-1.94314 0.03168,-0.03168 1.000548,0.380049 2.153039,0.914956 l 2.095436,0.972558 -0.53801,0.579725 c -0.295905,0.318848 -0.631078,0.75561 -0.744829,0.970582 -0.178315,0.336987 -0.400909,0.13098 -1.615029,-1.494681 z"
   id="path4835"
   transform="matrix(0.42968753,0,0,0.42968753,-0.75516402,0)" /><path
   style="fill:#999999;stroke-width:0.213718"
   d="m 27.248638,29.569744 c -2.35e-4,-0.159691 0.15495,-1.136963 0.344864,-2.171716 0.189914,-1.034752 0.297797,-1.928868 0.239741,-1.986924 -0.05806,-0.05806 -0.949757,0.284465 -1.981558,0.761158 -1.031801,0.476694 -1.917865,0.824852 -1.969032,0.773686 -0.05117,-0.05117 0.444913,-0.820438 1.1024,-1.709491 0.657486,-0.889054 1.195429,-1.713564 1.195429,-1.832246 0,-0.130848 -0.841231,-0.215784 -2.137182,-0.215784 -1.17545,0 -2.136747,-0.07213 -2.136216,-0.160289 5.32e-4,-0.08816 0.818004,-0.577583 1.816605,-1.087611 0.998601,-0.510027 1.815638,-1.043239 1.815638,-1.184915 0,-0.141677 -0.875643,-0.686113 -1.945873,-1.20986 l -1.945874,-0.952267 2.317084,-0.145276 c 1.274396,-0.0799 2.345076,-0.117283 2.379289,-0.08307 0.03421,0.03421 -0.03666,0.322238 -0.157491,0.640054 -0.294581,0.774807 -0.278446,2.666487 0.0304,3.563616 0.577531,1.677628 1.793354,2.919352 3.435814,3.509012 l 0.606996,0.217917 -1.505297,1.782177 c -0.827913,0.980196 -1.505493,1.651519 -1.505732,1.491828 z"
   id="path4837"
   transform="matrix(0.42968753,0,0,0.42968753,-0.75516402,0)" /><path
   style="fill:#b3b3b3;stroke-width:0.213718"
   d="m 30.55731,32.361754 c -0.465742,-1.754069 -0.903173,-3.189217 -0.972068,-3.189217 -0.0689,0 -1.068473,1.109046 -2.221284,2.464543 -1.152811,1.355499 -2.134617,2.425948 -2.181792,2.378772 -0.04717,-0.04717 0.171252,-1.49575 0.485392,-3.219056 0.314141,-1.723307 0.528928,-3.175522 0.477305,-3.227145 -0.05162,-0.05162 -1.422894,0.484541 -3.047266,1.191479 -1.624373,0.706937 -2.98123,1.257007 -3.015238,1.22238 -0.03401,-0.03463 0.800092,-1.252222 1.853555,-2.705766 1.053463,-1.453546 1.867705,-2.690491 1.809427,-2.74877 -0.05828,-0.05828 -1.55385,-0.157279 -3.323492,-0.220003 -1.769643,-0.06272 -3.216257,-0.172203 -3.214699,-0.243287 0.0016,-0.07108 1.24869,-0.782548 2.771404,-1.581032 1.522714,-0.798485 2.821082,-1.536754 2.885262,-1.640598 0.06418,-0.103845 -1.206996,-0.893138 -2.824834,-1.753984 l -2.941524,-1.565176 1.282309,-0.137093 c 0.70527,-0.0754 2.230288,-0.147531 3.388928,-0.160288 1.710368,-0.01883 2.085044,-0.07941 1.991926,-0.322079 -0.06308,-0.164385 -0.902328,-1.371094 -1.864994,-2.681574 -0.962666,-1.31048 -1.698225,-2.434768 -1.634576,-2.498418 0.06365,-0.06365 1.378438,0.432825 2.921752,1.103275 1.543314,0.670451 2.859743,1.165284 2.925397,1.099629 0.06565,-0.06565 -0.138129,-1.528872 -0.452854,-3.251594 -0.314725,-1.7227224 -0.54171,-3.1606839 -0.504412,-3.1954704 0.0373,-0.034786 1.013225,1.0326738 2.168724,2.3721339 1.1555,1.3394605 2.176123,2.4353825 2.268052,2.4353825 0.09193,0 0.531867,-1.394512 0.977639,-3.0989145 0.445772,-1.7044028 0.871263,-3.0989142 0.945535,-3.0989142 0.07427,0 0.504481,1.3945114 0.95602,3.0989142 0.451538,1.7044025 0.898969,3.0989145 0.994291,3.0989145 0.09532,0 1.113449,-1.101405 2.262505,-2.4475672 1.149055,-1.3461617 2.120149,-2.4166087 2.157986,-2.3787712 0.03784,0.037838 -0.188228,1.4787734 -0.502369,3.2020794 -0.314141,1.723306 -0.512379,3.192071 -0.440528,3.263921 0.07185,0.07185 1.390758,-0.420503 2.930907,-1.094118 1.54015,-0.673616 2.848689,-1.176339 2.907865,-1.117162 0.05918,0.05918 -0.678717,1.189657 -1.639766,2.512178 -0.961048,1.322521 -1.796605,2.532918 -1.856796,2.689771 -0.08633,0.224972 0.335364,0.290085 1.997182,0.308384 1.158641,0.01276 2.683657,0.08489 3.388927,0.160288 l 1.28231,0.137093 -2.941524,1.565176 c -1.617838,0.860846 -2.889013,1.650139 -2.824833,1.753984 0.06418,0.103844 1.362545,0.842113 2.88526,1.640598 1.522714,0.798484 2.769846,1.509948 2.771404,1.581032 0.0015,0.07108 -1.445056,0.180563 -3.214699,0.243287 -1.769642,0.06272 -3.267576,0.164087 -3.32874,0.225252 -0.06116,0.06116 0.753199,1.298111 1.809697,2.748767 1.056502,1.45066 1.892963,2.665894 1.858804,2.70052 -0.03416,0.03463 -1.391137,-0.515443 -3.015508,-1.22238 -1.624372,-0.706938 -3.000951,-1.237794 -3.059062,-1.179682 -0.05811,0.05811 0.156487,1.510513 0.476887,3.22756 0.3204,1.717048 0.54171,3.162739 0.4918,3.21265 -0.04991,0.04991 -1.038985,-1.020555 -2.197944,-2.378812 -1.15896,-1.358256 -2.159117,-2.469725 -2.222572,-2.469933 -0.06346,-2.07e-4 -0.488666,1.398643 -0.944914,3.108553 -0.456248,1.709911 -0.888001,3.145058 -0.959451,3.189217 -0.07145,0.04416 -0.510971,-1.35486 -0.976713,-3.108929 z m 1.700024,-3.11844 c 0.476962,-1.955598 0.65944,-2.425501 0.845473,-2.177197 1.087812,1.45194 3.015391,3.602993 3.073218,3.429511 0.0395,-0.118507 -0.119506,-1.208115 -0.353352,-2.421352 -0.233846,-1.213236 -0.390278,-2.240781 -0.347626,-2.283433 0.04265,-0.04265 1.059862,0.366707 2.260467,0.909687 1.200605,0.542979 2.220424,0.949729 2.266267,0.903886 0.04584,-0.04584 -0.583864,-0.986063 -1.399348,-2.08938 l -1.482696,-2.006032 2.578897,-0.106859 c 2.965952,-0.122897 2.966631,-0.09734 -0.04255,-1.601786 l -2.018971,-1.009387 2.339548,-1.205603 2.339548,-1.205602 -1.389169,-0.135308 c -0.764042,-0.07442 -1.943972,-0.14655 -2.622068,-0.160289 l -1.232898,-0.02498 1.500046,-1.995679 c 0.825027,-1.097623 1.500047,-2.054608 1.500047,-2.126633 0,-0.07202 -1.057905,0.340418 -2.3509,0.916538 -1.292995,0.576121 -2.3509,1.01474 -2.3509,0.974709 0,-0.04003 0.192346,-1.007603 0.427436,-2.150159 0.647092,-3.144919 0.626008,-3.16225 -1.193744,-0.981264 -0.89165,1.068648 -1.650026,1.942996 -1.68528,1.942996 -0.03525,0 -0.326882,-1.059238 -0.648061,-2.353862 -0.32118,-1.294625 -0.650375,-2.3949076 -0.731545,-2.4450734 -0.08117,-0.050166 -0.416726,1.0123084 -0.745679,2.3610544 -0.432477,1.773203 -0.665741,2.395594 -0.842379,2.247613 -0.134354,-0.112559 -0.869407,-0.976756 -1.63345,-1.920437 -0.764042,-0.943682 -1.448445,-1.720384 -1.520894,-1.726004 -0.07245,-0.0056 0.09617,1.111487 0.374706,2.482462 0.278537,1.370974 0.482073,2.515347 0.452303,2.543051 -0.02977,0.0277 -1.063947,-0.408275 -2.29817,-0.968841 -1.234223,-0.560567 -2.281652,-0.986102 -2.327622,-0.945634 -0.04597,0.04047 0.605009,0.989685 1.446618,2.109371 l 1.530197,2.035792 -1.232898,0.02498 c -0.678095,0.01374 -1.858025,0.08587 -2.622068,0.160289 l -1.389169,0.135308 2.343143,1.207444 2.343142,1.207443 -2.289713,1.138751 c -1.259342,0.626313 -2.289712,1.210038 -2.289712,1.297167 0,0.08713 1.149401,0.185421 2.554226,0.218425 l 2.554226,0.06001 -1.504152,1.993997 c -0.827283,1.096698 -1.461229,2.036919 -1.408768,2.089381 0.05246,0.05246 1.077697,-0.348873 2.278302,-0.891852 1.200605,-0.54298 2.215796,-0.954249 2.255979,-0.913931 0.04018,0.04032 -0.146195,1.155254 -0.414174,2.477636 -0.267979,1.322381 -0.425242,2.40433 -0.349473,2.40433 0.07577,0 0.856146,-0.863388 1.734169,-1.918641 l 1.596407,-1.918638 0.640492,2.452934 c 0.352271,1.349115 0.693107,2.452936 0.757414,2.452936 0.06431,0 0.390629,-1.122228 0.725159,-2.493842 z"
   id="path4839"
   transform="matrix(0.42968753,0,0,0.42968753,-0.75516402,0)" /><path
   style="fill:#999999;stroke-width:0.213718"
   d="M 30.848132,28.531383 30.284734,26.3942 h 1.219267 1.219267 l -0.544649,2.137183 c -0.299557,1.17545 -0.594698,2.137182 -0.655869,2.137182 -0.06117,0 -0.364749,-0.961732 -0.674618,-2.137182 z"
   id="path4910"
   transform="matrix(0.42968753,0,0,0.42968753,-0.75516402,0)" /><path
   style="fill:#666666;stroke-width:0.213718"
   d="M 5.3429555,32.93669 C 4.0853215,32.341132 3.0378947,31.30331 2.5754502,30.194563 2.2337151,29.375226 2.1416835,27.600574 2.3793126,26.412428 2.5582095,25.517944 4.1094736,23.818495 5.3374717,23.171691 6.00431,22.820458 6.3560476,22.482427 6.4319777,22.119836 6.6077056,21.280678 6.8407215,20.963246 7.3732786,20.837527 7.6448923,20.773407 7.9723966,20.549198 8.1010661,20.339283 8.287039,20.035881 8.2499424,19.89445 7.9201558,19.649559 7.6919857,19.480126 7.2832496,19.341499 7.0118533,19.341499 c -0.4556395,0 -0.4934476,-0.09006 -0.4934476,-1.17545 0,-1.045441 0.04883,-1.17545 0.4414865,-1.17545 0.6168517,0 1.2682593,-0.384198 1.2682593,-0.748014 0,-0.363817 -0.6514076,-0.748014 -1.2682593,-0.748014 -0.3926563,0 -0.4414865,-0.130009 -0.4414865,-1.17545 v -1.17545 H 7.693856 8.8693062 v 4.697457 4.697457 l 0.864503,0.441037 c 1.2041168,0.614295 2.5016518,1.83606 3.0434268,2.865704 0.630956,1.199137 0.632486,3.318431 0.0033,4.502661 -1.442047,2.713951 -4.7452284,3.863655 -7.4375315,2.588703 z"
   id="path4950"
   transform="matrix(0.42968753,0,0,0.42968753,-0.75516402,0)" /></svg>
