<?xml version="1.0" encoding="UTF-8" standalone="no"?>
<!-- Generator: Adobe Illustrator 17.1.0, SVG Export Plug-In . SVG Version: 6.00 Build 0)  -->

<svg
   version="1.1"
   id="Capa_1"
   x="0px"
   y="0px"
   viewBox="0 0 470 470"
   style="enable-background:new 0 0 470 470;"
   xml:space="preserve"
   sodipodi:docname="hose-spiral.svg"
   inkscape:version="1.2 (dc2aedaf03, 2022-05-15)"
   xmlns:inkscape="http://www.inkscape.org/namespaces/inkscape"
   xmlns:sodipodi="http://sodipodi.sourceforge.net/DTD/sodipodi-0.dtd"
   xmlns="http://www.w3.org/2000/svg"
   xmlns:svg="http://www.w3.org/2000/svg"><defs
   id="defs8439" /><sodipodi:namedview
   id="namedview8437"
   pagecolor="#ffffff"
   bordercolor="#000000"
   borderopacity="0.25"
   inkscape:showpageshadow="2"
   inkscape:pageopacity="0.0"
   inkscape:pagecheckerboard="0"
   inkscape:deskcolor="#d1d1d1"
   showgrid="false"
   inkscape:zoom="1.8021277"
   inkscape:cx="173.40614"
   inkscape:cy="191.44038"
   inkscape:window-width="1920"
   inkscape:window-height="1027"
   inkscape:window-x="-8"
   inkscape:window-y="-8"
   inkscape:window-maximized="1"
   inkscape:current-layer="Capa_1" />
<g
   id="g8404">
	<path
   id="path8396"
   style="stroke-width:1.15331"
   d="m 404.7793,243.63086 c -4.146,0 -7.50391,4.4672 -7.50391,9.97656 v 97.50977 h -27.44336 v -32.96875 c 0,-5.50933 -3.358,-9.97461 -7.5,-9.97461 -4.14292,10e-4 -7.5,4.46528 -7.5,9.97461 v 32.96875 h -4.42383 c -4.14192,0 -7.5,4.46521 -7.5,9.97461 0,1.76181 0.35966,3.40157 0.96289,4.83593 3.03581,0.0775 6.07109,0.16242 9.10743,0.21094 8.87764,0.1547 17.75396,0.16084 26.63281,0.18164 9.27994,0.0338 18.56262,0.10461 27.84179,-0.0527 5.29891,-0.16175 10.59976,-0.31818 15.89063,-0.6543 0.53515,-1.35496 0.85547,-2.88041 0.85547,-4.52148 0,-5.5094 -3.35808,-9.97461 -7.5,-9.97461 h -4.42383 v -97.50977 c 0,-5.50803 -3.35617,-9.97257 -7.49609,-9.97656 z" />
	<path
   id="path8398"
   d="M 235,0 C 187.6118,0 143.08266,18.430075 109.61914,51.894531 76.154684,85.358003 57.724609,129.88719 57.724609,177.27539 v 178.79297 h -4.423828 c -4.141936,0 -7.5,3.358 -7.5,7.5 0,2.23318 1.024706,4.17541 2.574219,5.54687 1.01884,0.0327 2.037631,0.066 3.056641,0.0977 6.707736,0.12632 13.407413,-0.16419 20.111328,-0.37695 7.850125,-0.2174 15.699204,-0.2956 23.550781,-0.0703 2.895084,0.0557 5.79266,0.0999 8.68945,0.11524 0.91955,-0.009 1.83892,-0.0118 2.75782,0.004 3.40403,-0.0161 6.80657,-0.0956 10.20507,-0.31836 2.90315,-0.17208 5.80819,-0.39888 8.71485,-0.55469 0.96162,-1.25242 1.63281,-2.74244 1.63281,-4.44336 0,-4.142 -3.358,-7.5 -7.5,-7.5 h -4.42383 v -58.48828 -77.12696 -43.17773 c 0,-66.07488 53.75715,-119.832031 119.83203,-119.832031 66.07504,0 119.83008,53.757151 119.83008,119.832031 0,66.07388 -53.75715,119.83203 -119.83203,119.83203 -35.39036,0 -68.77884,-15.49987 -91.60352,-42.52539 -2.62484,-3.107 -7.23353,-3.53928 -10.39453,-1.02344 -0.058,0.046 -0.11878,0.0858 -0.17578,0.13282 -3.16484,2.67284 -3.56262,7.40436 -0.89062,10.56836 25.68152,30.40752 63.24809,47.84765 103.06445,47.84765 74.34488,0 134.83203,-60.48615 134.83203,-134.83203 0,-74.34588 -60.48615,-134.832031 -134.83203,-134.832031 -74.34588,0 -134.83203,60.486151 -134.83203,134.832031 V 356.06836 H 72.724609 V 177.27539 C 72.724609,87.79783 145.52244,15 235,15 c 89.47756,0 162.27539,72.79783 162.27539,162.27539 0,89.47756 -72.79783,162.27539 -162.27539,162.27539 -33.53452,0 -65.70568,-10.11622 -93.0332,-29.2539 -3.343,-2.34 -7.92699,-1.57074 -10.33399,1.69726 -0.036,0.049 -0.0763,0.0945 -0.11133,0.14453 -2.37584,3.393 -1.5512,8.06847 1.8418,10.44531 29.86252,20.91268 65.00836,31.9668 101.63672,31.9668 47.3882,0 91.91734,-18.43101 125.38086,-51.89453 0.659,-0.659 1.30222,-1.32809 1.94922,-1.99609 19.98268,-20.60668 34.39122,-45.23692 42.44922,-72.0586 4.93584,-16.42868 7.49609,-33.67949 7.49609,-51.32617 0,-47.3882 -18.43001,-91.917387 -51.89453,-125.380859 C 326.91734,18.430075 282.3882,0 235,0 Z m -137.638672,404.33398 -0.03711,0.53321 c 0.0065,-0.003 0.013,-0.005 0.01953,-0.008 0.0069,-0.17508 0.01028,-0.35035 0.01758,-0.5254 z m -29.074219,65.11914 c -0.04106,0.009 -0.08202,0.0202 -0.123047,0.0293 -0.542805,0.11978 -1.07269,0.1999 -1.597656,0.25977 0.556305,0.14211 1.1303,0.23623 1.728516,0.24609 -8.66e-4,-0.17842 -0.01129,-0.35644 -0.0078,-0.53516 z" />
	<path
   d="M235,269.664c50.943,0,92.388-41.445,92.388-92.388S285.943,84.888,235,84.888s-92.388,41.445-92.388,92.388   S184.057,269.664,235,269.664z M235,99.888c42.672,0,77.388,34.716,77.388,77.388S277.672,254.664,235,254.664   s-77.388-34.716-77.388-77.388S192.328,99.888,235,99.888z"
   id="path8400" />
	<path
   d="M235,227.22c27.539,0,49.944-22.405,49.944-49.944c0-27.54-22.405-49.944-49.944-49.944s-49.944,22.405-49.944,49.944   C185.056,204.815,207.461,227.22,235,227.22z M235,142.332c19.268,0,34.944,15.676,34.944,34.944   c0,19.268-15.676,34.944-34.944,34.944s-34.944-15.676-34.944-34.944C200.056,158.007,215.732,142.332,235,142.332z"
   id="path8402" />
</g>
<g
   id="g8406">
</g>
<g
   id="g8408">
</g>
<g
   id="g8410">
</g>
<g
   id="g8412">
</g>
<g
   id="g8414">
</g>
<g
   id="g8416">
</g>
<g
   id="g8418">
</g>
<g
   id="g8420">
</g>
<g
   id="g8422">
</g>
<g
   id="g8424">
</g>
<g
   id="g8426">
</g>
<g
   id="g8428">
</g>
<g
   id="g8430">
</g>
<g
   id="g8432">
</g>
<g
   id="g8434">
</g>
</svg>
