<?xml version="1.0" encoding="iso-8859-1"?>
<!-- Generator: Adobe Illustrator 19.0.0, SVG Export Plug-In . SVG Version: 6.00 Build 0)  -->
<svg version="1.1" id="Layer_1" xmlns="http://www.w3.org/2000/svg" xmlns:xlink="http://www.w3.org/1999/xlink" x="0px" y="0px"
	 viewBox="0 0 512.001 512.001" style="enable-background:new 0 0 512.001 512.001;" xml:space="preserve">
<polygon style="fill:#1D1D20;" points="48.506,493.137 48.506,245.498 97.011,322.438 97.011,493.137 "/>
<path style="fill:#2E2D30;" d="M463.182,233.784l-39.178-53.791l-17.769,11.259c14.43,40.262,11.702,84.165-5.913,121.729
	l-0.467-0.105c-22.619,47.889-67.783,81.128-119.061,89.339c-48.322,7.356-99.405-7.524-136.539-44.658
	c-27.411-27.411-43.838-63.789-46.256-102.434c-2.243-35.869,7.819-71.761,28.332-101.061l5.187-7.408l-0.144-0.144
	c1.729-2.182,3.512-4.327,5.363-6.424c23.777-26.95,56.271-45.213,91.495-51.426l20.763-1.573v-48.88l-24.236,1.859
	c-49.005,7.362-93.771,32.05-126.05,69.517c-32.373,37.575-50.202,85.747-50.202,135.641c0,114.413,93.082,207.495,207.495,207.495
	c18.707,0,37.056-2.495,54.651-7.278c33.999-9.101,66.12-26.959,92.745-53.585c2.328-2.328,4.584-4.71,6.786-7.129l10.196-12.089
	C450.938,333.497,465.692,283.82,463.182,233.784z"/>
<path style="fill:#1D1D20;" d="M414.99,450.021v-204.8c0-38.764-14.109-76.104-39.725-105.14
	c-23.777-26.95-56.269-45.213-91.495-51.426l-21.841-1.571V38.203l25.313,1.857c49.03,7.358,93.801,32.031,126.066,69.475
	c32.364,37.558,50.187,85.745,50.187,135.686v204.8H414.99z"/>
<path style="fill:#3E3D43;" d="M287.712,83.91l-5.99-1.172c-4.562-0.893-9.199-1.342-13.848-1.342h-23.749
	c-4.648,0-9.286,0.449-13.848,1.342l-5.99,1.172C147.417,98.947,91.622,166.788,91.622,245.221
	c0,90.639,73.74,164.379,164.379,164.379s164.379-73.74,164.379-164.379C420.379,166.788,364.584,98.947,287.712,83.91z
	 M254.365,361.083c-61.826-0.857-112.552-50.876-114.196-112.685c-1.468-55.191,35.423-103.111,88.697-115.852l0,0
	c5.495-1.314,11.126-1.978,16.776-1.978h20.717c5.65,0,11.281,0.664,16.776,1.978l0,0c52.248,12.497,88.739,58.83,88.739,112.676
	C371.874,309.659,319.003,361.98,254.365,361.083z"/>
<path style="fill:#E0E0E3;" d="M256.001,366.484c-66.865,0-121.263-54.398-121.263-121.263c0-0.97,0.012-1.939,0.034-2.905
	c1.524-63.608,54.493-113.952,118.12-113.952h6.219c63.625,0,116.594,50.344,118.118,113.952c0.023,0.966,0.035,1.935,0.035,2.905
	C377.264,312.086,322.865,366.484,256.001,366.484z"/>
<path style="fill:#D8D7DA;" d="M170.903,245.221c0-0.97,0.012-1.939,0.034-2.905c1.403-58.544,46.385-105.847,103.146-113.01
	c-4.91-0.62-9.906-0.941-14.972-0.942h-6.219c-63.626,0-116.595,50.343-118.12,113.952c-0.023,0.966-0.034,1.935-0.034,2.905
	c0,66.865,54.398,121.263,121.263,121.263c6.144,0,12.181-0.463,18.083-1.35C215.765,356.378,170.903,305.942,170.903,245.221z"/>
<path style="fill:#891D00;" d="M256.001,280.253c-19.316,0-35.032-15.716-35.032-35.032s15.716-35.032,35.032-35.032
	c19.317,0,35.032,15.716,35.032,35.032S275.317,280.253,256.001,280.253z"/>
<path style="fill:#781900;" d="M247.647,247.424c0-15.59,10.238-28.827,24.342-33.358c-4.798-2.472-10.23-3.877-15.988-3.877
	c-19.316,0-35.032,15.716-35.032,35.032s15.716,35.032,35.032,35.032c3.727,0,7.318-0.591,10.689-1.674
	C255.395,272.758,247.647,260.983,247.647,247.424z"/>
<path style="fill:#ACABB1;" d="M245.469,161.684c-7.567,0-13.722-6.155-13.722-13.722V19.111c0-7.567,6.155-13.722,13.722-13.722
	h21.062c7.567,0,13.722,6.155,13.722,13.722v128.852c0,7.567-6.156,13.722-13.722,13.722H245.469z"/>
<path style="fill:#898790;" d="M261.929,147.963V19.111c0-5.966,3.834-11.041,9.162-12.926c-1.429-0.506-2.96-0.795-4.559-0.795
	h-21.062c-7.567,0-13.722,6.155-13.722,13.722v128.852c0,7.567,6.155,13.722,13.722,13.722h21.062c1.601,0,3.13-0.29,4.56-0.796
	C265.763,159.003,261.929,153.929,261.929,147.963z"/>
<polygon style="fill:#1D1D20;" points="415.581,506.611 403.454,458.105 475.031,458.105 462.905,506.611 "/>
<path style="fill:#ACABB1;" d="M412.295,463.495c-10.401,0-18.863-8.463-18.863-18.863s8.463-18.863,18.863-18.863h53.895
	c10.401,0,18.863,8.463,18.863,18.863s-8.463,18.863-18.863,18.863H412.295z"/>
<path style="fill:#898790;" d="M425.23,444.632c0-10.401,8.463-18.863,18.863-18.863h-31.798c-10.401,0-18.863,8.463-18.863,18.863
	s8.463,18.863,18.863,18.863h31.798C433.693,463.495,425.23,455.032,425.23,444.632z"/>
<path style="fill:#ACABB1;" d="M45.811,506.611c-10.401,0-18.863-8.463-18.863-18.863s8.463-18.863,18.863-18.863h53.895
	c10.401,0,18.863,8.463,18.863,18.863s-8.463,18.863-18.863,18.863H45.811z"/>
<path style="fill:#898790;" d="M58.746,487.747c0-10.401,8.463-18.863,18.863-18.863H45.811c-10.401,0-18.863,8.463-18.863,18.863
	s8.463,18.863,18.863,18.863h31.798C67.208,506.611,58.746,498.148,58.746,487.747z"/>
<path d="M256.001,285.642c22.289,0,40.421-18.132,40.421-40.421S278.289,204.8,256.001,204.8s-40.421,18.132-40.421,40.421
	S233.712,285.642,256.001,285.642z M256.001,220.968c13.372,0,24.253,10.879,24.253,24.253c0,13.373-10.88,24.253-24.253,24.253
	c-13.373,0-24.253-10.879-24.253-24.253C231.748,231.848,242.627,220.968,256.001,220.968z"/>
<path d="M468.885,420.532V245.221c0-53.066-19.641-103.902-55.306-143.14c-33.625-36.997-78.807-60.83-127.936-67.682V19.111
	C285.643,8.574,277.069,0,266.532,0h-21.062c-10.538,0-19.111,8.574-19.111,19.111v15.288
	c-49.233,6.867-94.508,30.794-128.142,67.908c-35.532,39.206-55.1,89.96-55.1,142.914v218.427
	c-12.109,1.345-21.558,11.637-21.558,24.1c0,13.373,10.879,24.253,24.253,24.253h53.895c13.373,0,24.253-10.879,24.253-24.253
	c0-12.462-9.449-22.754-21.558-24.1v-71.18c38.772,40.429,93.295,65.637,153.6,65.637c58.459,0,113.528-23.673,153.6-65.484v27.912
	c-12.109,1.345-21.558,11.637-21.558,24.1c0,8.769,4.678,16.465,11.669,20.726l10.13,40.519c0.9,3.599,4.134,6.124,7.843,6.124
	h43.116c3.709,0,6.943-2.524,7.843-6.124l10.13-40.519c6.991-4.262,11.669-11.958,11.669-20.727
	C490.443,432.17,480.994,421.877,468.885,420.532z M285.643,50.719c95.902,14.391,167.074,96.379,167.074,194.502v175.158h-26.947
	V245.221c0-41.392-15.066-81.265-42.421-112.27c-25.534-28.941-60.011-48.262-97.706-54.911V50.719z M242.527,19.111
	c0-1.622,1.32-2.943,2.943-2.943h21.062c1.623,0,2.943,1.32,2.943,2.943v128.852c0,1.622-1.32,2.943-2.943,2.943h-21.062
	c-1.622,0-2.943-1.32-2.943-2.943L242.527,19.111L242.527,19.111z M245.469,167.074h21.062c10.538,0,19.111-8.574,19.111-19.111
	v-9.21c47.383,13.11,80.842,56.425,80.842,106.468c0,60.922-49.563,110.484-110.484,110.484s-110.484-49.563-110.484-110.484
	c0-50.044,33.459-93.359,80.842-106.468v9.21C226.358,158.5,234.932,167.074,245.469,167.074z M59.285,326.571
	c7.004,16.876,16.117,32.66,27.011,47.026c-0.038,0.319-0.064,0.641-0.064,0.971v88.926H59.285V326.571z M107.79,487.747
	c0,4.458-3.626,8.084-8.084,8.084H45.811c-4.458,0-8.084-3.626-8.084-8.084s3.626-8.084,8.084-8.084h53.895
	C104.164,479.663,107.79,483.289,107.79,487.747z M408.525,369.461c-37.565,46.06-93.157,72.475-152.524,72.475
	c-108.47,0-196.716-88.246-196.716-196.716c0-98.017,71.211-180.097,167.074-194.497V78.04
	c-32.596,5.749-62.785,20.975-86.866,43.702c-3.336,3.149-3.409,8.438-0.165,11.681l0,0c3.111,3.111,8.133,3.188,11.328,0.164
	c20.583-19.484,46.589-33.404,75.704-39.1v27.576c-58.185,13.916-99.257,67.15-96.916,128.112
	c2.587,67.374,58.297,121.257,125.718,121.695c70.221,0.458,127.492-56.533,127.492-126.649c0-58.875-40.408-109.621-97.011-123.158
	V94.488C356.928,108.433,409.6,171.654,409.6,245.221c0,84.696-68.904,153.6-153.6,153.6s-153.6-68.904-153.6-153.6
	c0-32.708,10.417-63.365,28.247-88.56c2.279-3.221,1.876-7.622-0.914-10.411l-0.006-0.006c-3.558-3.558-9.484-3.082-12.389,1.027
	c-20.162,28.518-31.106,62.681-31.106,97.95c0,93.611,76.158,169.768,169.768,169.768c67.783,0,126.406-39.937,153.6-97.512v52.861
	L408.525,369.461z M454.489,495.832h-30.493l-6.737-26.947h43.966L454.489,495.832z M466.19,452.716h-53.895
	c-4.458,0-8.084-3.626-8.084-8.084s3.626-8.084,8.084-8.084h53.895c4.458,0,8.084,3.626,8.084,8.084S470.648,452.716,466.19,452.716
	z"/>
<g>
</g>
<g>
</g>
<g>
</g>
<g>
</g>
<g>
</g>
<g>
</g>
<g>
</g>
<g>
</g>
<g>
</g>
<g>
</g>
<g>
</g>
<g>
</g>
<g>
</g>
<g>
</g>
<g>
</g>
</svg>
