<?xml version="1.0" encoding="UTF-8" standalone="no"?>
<!-- Uploaded to: SVG Repo, www.svgrepo.com, Generator: SVG Repo Mixer Tools -->

<svg
   height="800px"
   width="800px"
   version="1.1"
   id="Layer_1"
   viewBox="0 0 512 512"
   xml:space="preserve"
   sodipodi:docname="humidifier-sterilize-off.svg"
   inkscape:version="1.2 (dc2aedaf03, 2022-05-15)"
   xmlns:inkscape="http://www.inkscape.org/namespaces/inkscape"
   xmlns:sodipodi="http://sodipodi.sourceforge.net/DTD/sodipodi-0.dtd"
   xmlns="http://www.w3.org/2000/svg"
   xmlns:svg="http://www.w3.org/2000/svg"><defs
   id="defs10204" /><sodipodi:namedview
   id="namedview10202"
   pagecolor="#ffffff"
   bordercolor="#000000"
   borderopacity="0.25"
   inkscape:showpageshadow="2"
   inkscape:pageopacity="0.0"
   inkscape:pagecheckerboard="0"
   inkscape:deskcolor="#d1d1d1"
   showgrid="false"
   inkscape:zoom="1.05875"
   inkscape:cx="400.94451"
   inkscape:cy="400.47226"
   inkscape:window-width="1920"
   inkscape:window-height="1027"
   inkscape:window-x="-8"
   inkscape:window-y="-8"
   inkscape:window-maximized="1"
   inkscape:current-layer="Layer_1" />
<path
   style="fill:#009245;"
   d="M320.047,264.005c0,35.372-28.675,64.047-64.047,64.047s-64.047-28.675-64.047-64.047  S256,151.924,256,151.924S320.047,228.633,320.047,264.005z"
   id="path10171" />
<polygon
   style="fill:#D9E021;"
   points="256,151.924 288.023,199.959 256,239.988 223.977,199.959 "
   id="polygon10173" />
<g
   id="g10179">
	<polygon
   style="fill:#8CC63F;"
   points="312.04,239.988 256,296.029 256,239.988 296.029,199.959  "
   id="polygon10175" />
	<polygon
   style="fill:#8CC63F;"
   points="199.959,239.988 256,296.029 256,239.988 215.97,199.959  "
   id="polygon10177" />
</g>
<path
   style="fill:#009245;"
   d="M408.111,256c0,84.008-68.102,152.111-152.111,152.111l40.03,48.035L256,504.181  c137.067,0,248.181-111.115,248.181-248.181l-48.035-40.03L408.111,256z"
   id="path10181" />
<path
   style="fill:#39B54A;"
   d="M256,103.889c84.008,0,152.111,68.103,152.111,152.111l48.035-40.03L504.181,256  C504.181,118.933,393.066,7.819,256,7.819l-40.03,48.035L256,103.889z"
   id="path10183" />
<path
   style="fill:#8CC63F;"
   d="M103.889,256c0-84.008,68.103-152.111,152.111-152.111l-40.03-48.035L256,7.819  C118.933,7.819,7.819,118.934,7.819,256l48.035,40.03L103.889,256z"
   id="path10185" />
<path
   style="fill:#D9E021;"
   d="M256,408.111c-84.008,0-152.111-68.102-152.111-152.111l-48.035,40.03L7.819,256  c0,137.067,111.115,248.181,248.181,248.181l40.03-48.035L256,408.111z"
   id="path10187" />
<polygon
   style="fill:#8CC63F;"
   points="223.977,408.301 264.005,456.256 223.977,504.21 256,504.21 296.029,456.256 256,408.301 "
   id="polygon10189" />
<polygon
   style="fill:#D9E021;"
   points="408.301,288.023 456.256,247.994 504.21,288.023 504.21,256 456.256,215.97 408.301,256 "
   id="polygon10191" />
<polygon
   style="fill:#009245;"
   points="288.023,103.893 247.994,55.938 288.023,7.983 256,7.983 215.97,55.938 256,103.893 "
   id="polygon10193" />
<polygon
   style="fill:#39B54A;"
   points="103.893,223.977 55.938,264.005 7.983,223.977 7.983,256 55.938,296.029 103.893,256 "
   id="polygon10195" />
<path
   d="M437.02,74.98C388.667,26.628,324.38,0,256,0S123.333,26.628,74.98,74.98C26.628,123.333,0,187.62,0,256  s26.628,132.667,74.98,181.02C123.332,485.372,187.62,512,256,512s132.667-26.628,181.02-74.98C485.372,388.668,512,324.38,512,256  S485.371,123.333,437.02,74.98z M495.753,238.799l-39.606-33.005l-41.017,34.18c-7.945-79.482-74.326-142.004-155.429-143.856  l-33.553-40.264l33.477-40.173c62.847,0.924,121.795,25.814,166.337,70.356C467.282,127.358,491.697,181.074,495.753,238.799z   M256,400.293c-79.563,0-144.293-64.729-144.293-144.293S176.437,111.707,256,111.707S400.293,176.437,400.293,256  S335.563,400.293,256,400.293z M86.038,86.038c41.32-41.319,95.036-65.735,152.761-69.791l-33.005,39.606l34.18,41.017  c-79.482,7.945-142.004,74.326-143.856,155.429l-40.264,33.553l-40.173-33.477C16.605,189.529,41.495,130.581,86.038,86.038z   M16.247,273.201l39.606,33.005l41.017-34.18c7.945,79.483,74.326,142.004,155.429,143.857l33.553,40.263l-33.477,40.173  c-62.847-0.924-121.795-25.814-166.337-70.356C44.718,384.642,20.303,330.926,16.247,273.201z M425.962,425.962  c-41.32,41.319-95.036,65.735-152.761,69.791l33.005-39.606l-34.18-41.017c79.483-7.945,142.004-74.326,143.857-155.429  l40.263-33.553l40.173,33.477C495.395,322.471,470.505,381.419,425.962,425.962z"
   id="path10197" />
<path
   d="M327.865,264.005c0-37.135-59.122-109.018-65.864-117.092L256,139.724l-6.002,7.189  c-6.741,8.074-65.864,79.957-65.864,117.092c0,36.839,27.866,67.274,63.622,71.379v24.961h15.637v-24.854  C299.56,331.779,327.865,301.136,327.865,264.005z M263.394,173.838c6.22,8.179,13.191,17.79,19.887,27.812l-19.887,19.888V173.838z   M247.757,220.688l-19.034-19.035c6.389-9.565,13.035-18.764,19.034-26.694V220.688z M247.757,242.802v33.927l-39.755-39.755  c3.354-6.983,7.509-14.396,12.078-21.849L247.757,242.802z M263.394,243.652l28.531-28.531c4.568,7.453,8.724,14.866,12.077,21.85  l-40.608,40.608L263.394,243.652L263.394,243.652z M199.772,264.005c0-3.282,0.7-7.075,1.924-11.221l46.059,46.059v20.781  C220.647,315.623,199.772,292.21,199.772,264.005z M263.394,319.732v-20.04l46.91-46.91c1.224,4.146,1.923,7.941,1.923,11.223  C312.228,292.502,290.914,316.099,263.394,319.732z"
   id="path10199" />
<path
   style="fill:#b3b3b3;stroke-width:0.94451"
   d="M 345.21842,771.13711 C 264.80331,759.03484 192.87891,722.77085 135.53284,665.41448 126.95901,656.83911 116.43315,645.57261 112.14204,640.3778 62.877667,580.73854 33.928562,511.21274 26.424512,434.51376 l -0.64303,-6.57242 5.054949,4.27637 c 25.329982,21.42856 55.583847,46.17662 56.449726,46.17662 0.58834,0 15.042603,-11.66061 32.120593,-25.91246 17.07799,-14.25186 31.30653,-25.65682 31.619,-25.34435 0.31246,0.31246 0.56811,1.74406 0.56811,3.18134 0,4.83675 4.64742,27.82867 7.93108,39.237 11.63777,40.43274 32.79726,76.06856 63.33567,106.66691 19.39101,19.42906 35.15511,31.32964 58.50979,44.16997 19.16895,10.53902 47.86526,20.90038 69.8061,25.20486 l 5.48584,1.07624 26.95244,32.2711 c 14.82385,17.74911 27.15719,32.76777 27.40742,33.3748 0.25023,0.60701 -10.73207,14.52673 -24.40512,30.9327 -20.87309,25.04512 -25.23956,29.81559 -27.22619,29.74526 -1.30135,-0.0461 -7.67897,-0.88334 -14.17247,-1.86059 z"
   id="path10208"
   transform="scale(0.64)" /><path
   style="fill:#999999;stroke-width:0.94451"
   d="m 429.37101,772.47314 c 19.30736,-22.44408 49.05905,-59.32937 48.67093,-60.3408 -0.27698,-0.7218 -11.99931,-15.09726 -26.04963,-31.9455 -14.05031,-16.84822 -25.54603,-30.83264 -25.54603,-31.07648 0,-0.24385 2.86895,-0.7328 6.37544,-1.08656 9.38681,-0.94702 23.73368,-3.95612 36.72393,-7.70244 38.62963,-11.14059 73.10139,-30.91297 102.46608,-58.77272 37.02114,-35.12381 62.22082,-80.19179 73.11284,-130.75757 l 1.57165,-7.2963 32.51683,-27.17832 c 17.88425,-14.94807 32.89402,-27.30716 33.35502,-27.46464 0.86141,-0.29426 59.78959,48.52284 60.35692,50.00068 0.62852,1.63725 -3.76598,29.01718 -6.95287,43.31988 -15.74436,70.66033 -52.53447,136.32706 -104.5529,186.61665 -62.64727,60.56519 -140.00567,96.28494 -226.9446,104.79025 -6.37987,0.62415 -6.55873,0.58539 -5.10361,-1.10613 z"
   id="path10210"
   transform="scale(0.64)" /><path
   style="fill:#808080;stroke-width:0.94451"
   d="m 648.40614,370.31081 c 0,-1.78359 -1.04739,-8.90284 -2.32754,-15.82054 -15.72509,-84.97605 -74.27652,-155.79721 -155.13231,-187.64102 -12.39979,-4.88347 -30.4175,-10.21593 -41.83177,-12.3804 l -6.13931,-1.16418 -26.71166,-32.02322 C 401.57213,103.66868 389.33601,88.695675 389.07216,88.008101 388.66851,86.956209 396.9033,76.78654 436.53718,29.39046 l 2.27694,-2.72288 14.35917,2.054059 c 82.0726,11.740366 158.31187,50.585309 215.61573,109.859141 58.66948,60.6864 94.33099,135.816 103.83844,218.76081 0.8536,7.44697 1.40072,13.69122 1.21583,13.87612 -0.18489,0.18489 -13.85351,-10.93493 -30.3747,-24.71073 -17.90339,-14.92831 -30.56575,-24.8446 -31.34357,-24.54611 -0.71777,0.27543 -15.08994,11.99649 -31.93818,26.04682 -16.84822,14.05031 -30.89134,25.54603 -31.20692,25.54603 -0.31558,0 -0.57378,-1.45931 -0.57378,-3.24291 z"
   id="path10212"
   transform="scale(0.64)" /><path
   style="fill:#666666;stroke-width:0.94451"
   d="M 59.482474,388.56802 C 44.429451,376.02604 30.888045,364.73425 29.39046,363.47515 l -2.72288,-2.28927 2.054059,-14.35918 C 38.73059,276.85779 67.479864,212.88489 113.69983,157.73318 c 9.16221,-10.93275 33.1006,-34.87114 44.03335,-44.03335 58.0447,-48.644433 125.54714,-77.838108 199.60841,-86.327291 7.44697,-0.853599 13.69122,-1.400723 13.87612,-1.21583 0.18489,0.184893 -10.93493,13.85351 -24.71073,30.374703 -14.81042,17.762012 -24.84355,30.568457 -24.54933,31.335167 0.27365,0.713151 11.76361,14.812241 25.53323,31.331321 13.76962,16.51908 25.06826,30.45097 25.10809,30.95976 0.0399,0.50879 -3.87309,1.48404 -8.69539,2.16723 -101.66127,14.40274 -186.2316,92.81106 -208.14526,192.97926 l -2.56411,11.72064 -31.96799,26.71166 c -17.58239,14.69142 -32.509477,26.91946 -33.1713,27.17342 -0.661822,0.25396 -13.519423,-9.79986 -28.572446,-22.34185 z"
   id="path10214"
   transform="scale(0.64)" /><path
   style="fill:#b3b3b3;stroke-width:0.94451"
   d="m 55.750927,419.63175 -30.94499,-25.77107 0.670628,-13.61105 c 0.368846,-7.48607 0.9698,-14.41978 1.335454,-15.40824 0.566599,-1.53166 5.013374,1.83997 30.096861,22.82002 16.18762,13.53947 29.882484,24.61722 30.433034,24.61722 0.550548,0 15.323916,-11.94524 32.829706,-26.54498 17.50578,-14.59973 31.98839,-26.0659 32.18356,-25.48038 0.19518,0.58553 -0.0894,4.56147 -0.6324,8.83542 -0.543,4.27395 -1.27229,11.68054 -1.62064,16.45908 l -0.63337,8.68827 -30.48145,25.28173 c -16.7648,13.90495 -30.88869,25.41748 -31.386427,25.58339 -0.497736,0.16591 -14.830221,-11.29532 -31.849966,-25.46941 z"
   id="path10216"
   transform="scale(0.64)" /><path
   style="fill:#999999;stroke-width:0.94451"
   d="m 371.94754,774.08387 c -4.26002,-0.32677 -7.93428,-0.79225 -8.16502,-1.0344 -0.23075,-0.24214 8.27251,-10.85348 18.89612,-23.58076 10.62361,-12.72727 21.82229,-26.16237 24.88596,-29.85577 l 5.57032,-6.71528 -26.95169,-32.32591 c -14.82343,-17.77926 -26.73016,-32.54745 -26.4594,-32.81821 0.27075,-0.27075 4.87459,-0.007 10.23074,0.58713 5.35616,0.59368 13.01968,1.38256 17.03005,1.75308 l 7.29158,0.67366 25.54819,30.67676 c 14.0515,16.87221 25.34892,31.19604 25.10537,31.83072 -0.24355,0.63468 -11.79744,14.77583 -25.67531,31.42478 l -25.2325,30.27081 -7.16446,-0.14623 c -3.94045,-0.0805 -10.64993,-0.41361 -14.90995,-0.74038 z"
   id="path10218"
   transform="scale(0.64)" /><path
   style="fill:#666666;stroke-width:0.94451"
   d="m 647.96514,434.23849 c 0.39797,-3.50649 1.19128,-11.35647 1.76293,-17.4444 l 1.03934,-11.06895 30.67676,-25.54886 c 16.87221,-14.05187 31.19604,-25.34959 31.83072,-25.10604 0.63468,0.24355 14.8253,11.83373 31.5347,25.75595 l 30.38073,25.31313 -0.66876,13.61105 c -0.36781,7.48607 -0.94856,14.34478 -1.29055,15.24156 -0.50285,1.31859 -5.04865,-2.06324 -23.7623,-17.67786 -12.72727,-10.6196 -26.16237,-21.815 -29.85577,-24.87867 l -6.71528,-5.57032 -32.23324,26.87443 c -17.72829,14.78093 -32.50091,26.87442 -32.82805,26.87442 -0.32714,0 -0.2692,-2.86895 0.12877,-6.37544 z"
   id="path10220"
   transform="scale(0.64)" /><path
   style="fill:#666666;stroke-width:0.94451"
   d="m 433.91216,152.13333 c -0.22277,-0.22278 -6.63968,-0.92288 -14.25979,-1.5558 l -13.85476,-1.15076 -24.38641,-29.27971 c -13.41252,-16.10384 -24.96749,-30.199596 -25.67771,-31.3239 -1.21737,-1.927135 0.18698,-3.818819 24.52508,-33.035847 l 25.81638,-30.991657 13.64323,0.675769 c 7.50378,0.371673 14.46828,0.980974 15.47667,1.354002 1.57998,0.584471 -1.5748,4.744923 -22.82002,30.094565 -13.5594,16.178983 -24.65346,29.870729 -24.65346,30.426103 0,0.555375 11.60221,14.919545 25.7827,31.920385 14.18049,17.00084 26.1064,31.4419 26.50202,32.09125 0.52023,0.85386 -0.16753,1.18064 -2.48478,1.18064 -1.76226,0 -3.38638,-0.18227 -3.60915,-0.40504 z"
   id="path10222"
   transform="scale(0.64)" /><path
   style="fill:#808080;stroke-width:0.94451"
   d="m 648.40801,436.20622 c 10e-4,-1.47186 0.65117,-8.83904 1.44474,-16.37151 1.09658,-10.40848 1.83285,-14.0584 3.06779,-15.2079 3.25692,-3.03162 30.34163,-25.38809 44.93114,-37.08741 9.6841,-7.76568 15.35434,-11.72277 16.05667,-11.2055 2.58186,1.9016 28.88919,23.48844 44.2231,36.28788 l 16.69107,13.93229 -0.5067,9.23772 c -0.27868,5.08075 -0.77668,11.50496 -1.10666,14.27602 l -0.59995,5.0383 -4.72255,-3.57988 c -2.5974,-1.96894 -15.91091,-12.868 -29.58557,-24.22013 -13.67466,-11.35213 -25.23422,-20.50901 -25.68791,-20.34861 -0.45369,0.16039 -14.6865,11.76742 -31.62848,25.7934 -16.94197,14.02597 -31.20296,25.64344 -31.69108,25.8166 -0.48811,0.17316 -0.88664,-0.88941 -0.88561,-2.36127 z"
   id="path10224"
   transform="scale(0.64)" /><path
   style="fill:#808080;stroke-width:0.94451"
   d="m 412.27863,406.5985 v -25.97636 l 21.70396,-21.68857 c 13.5843,-13.57466 22.02598,-21.3455 22.56472,-20.77152 1.24144,1.32264 10.97809,18.43036 14.7326,25.88582 l 3.19759,6.34955 -31.09944,31.08872 -31.09943,31.08873 z"
   id="path10226"
   transform="scale(0.64)" /><path
   style="fill:#666666;stroke-width:0.94451"
   d="m 355.87144,400.71458 -30.43316,-30.46665 4.74883,-8.97284 c 6.50669,-12.29429 13.19263,-23.61275 13.94831,-23.61275 0.34457,0 10.08686,9.46738 21.64953,21.03863 l 21.02304,21.03863 -0.25169,25.72081 -0.2517,25.72081 z"
   id="path10228"
   transform="scale(0.64)" /><path
   style="fill:#666666;stroke-width:0.94451"
   d="m 378.88045,497.14146 c -26.37901,-6.22772 -50.11978,-27.19107 -60.20376,-53.16056 -5.38205,-13.8605 -7.20209,-30.42906 -4.66495,-42.46681 l 1.17392,-5.56974 35.81939,35.81939 35.81939,35.8194 -0.25991,15.65553 -0.25993,15.65554 z"
   id="path10230"
   transform="scale(0.64)" /><path
   style="fill:#666666;stroke-width:0.94451"
   d="m 412.27863,483.83866 v -15.37088 l 36.26838,-36.2592 36.26838,-36.25921 1.17339,5.56723 c 0.64536,3.06197 1.12451,9.20492 1.06478,13.651 -0.28083,20.90383 -8.75153,41.26455 -23.66306,56.87805 -13.92041,14.57572 -26.86612,21.66706 -48.51447,26.57503 l -2.5974,0.58886 z"
   id="path10232"
   transform="scale(0.64)" /><path
   style="fill:#999999;stroke-width:0.94451"
   d="m 372.21861,329.24503 -14.08599,-14.111 1.69135,-2.66737 c 0.93025,-1.46705 7.26895,-10.47288 14.086,-20.01296 l 12.39463,-17.34559 0.25744,17.10946 c 0.14159,9.41021 0.14159,24.76599 0,34.12396 l -0.25744,17.0145 z"
   id="path10234"
   transform="scale(0.64)" /><path
   style="fill:#999999;stroke-width:0.94451"
   d="m 412.31005,309.32329 0.0314,-35.41538 1.96981,2.36128 c 2.41652,2.89674 21.22564,29.15511 24.90971,34.77505 l 2.67358,4.07848 -14.80797,14.80797 -14.80798,14.80798 z"
   id="path10236"
   transform="scale(0.64)" /><path
   style="fill:#999999;stroke-width:0.94451"
   d="m 355.70763,399.63061 -29.65247,-29.66691 4.49184,-8.35847 c 6.10989,-11.36936 13.0265,-22.99838 13.67878,-22.99838 0.29487,0 9.90723,9.4569 21.36081,21.01535 l 20.82469,21.01534 -0.52559,24.32999 -0.5256,24.32999 z"
   id="path10238"
   transform="scale(0.64)" /><path
   style="fill:#808080;stroke-width:0.94451"
   d="m 412.27863,406.60153 v -25.03595 l 20.07084,-19.87027 c 11.03896,-10.92864 20.97891,-20.61658 22.08878,-21.52874 2.0028,-1.64602 2.06389,-1.57833 8.13792,9.01664 3.36598,5.87131 7.2797,12.97175 8.69716,15.77875 l 2.57719,5.10364 -30.78595,30.78594 -30.78594,30.78594 z"
   id="path10240"
   transform="scale(0.64)" /><path
   style="fill:#808080;stroke-width:0.94451"
   d="m 355.70724,398.68916 c -22.69653,-22.71096 -28.5711,-29.08422 -28.05298,-30.43442 0.63932,-1.66604 13.74078,-24.94207 15.62474,-27.75887 0.76448,-1.14302 4.96707,2.59661 21.75046,19.3544 l 20.80289,20.77117 -0.12426,12.75894 c -0.0684,7.01741 -0.38712,17.54613 -0.70838,23.39715 l -0.58413,10.63822 z"
   id="path10242"
   transform="scale(0.64)" /></svg>
