<?xml version="1.0" encoding="UTF-8" standalone="no"?>
<svg
   version="1.1"
   viewBox="0 0 423.235 423.235"
   enable-background="new 0 0 423.235 423.235"
   id="svg1176"
   sodipodi:docname="humidifier-white.svg"
   inkscape:version="1.2 (dc2aedaf03, 2022-05-15)"
   xmlns:inkscape="http://www.inkscape.org/namespaces/inkscape"
   xmlns:sodipodi="http://sodipodi.sourceforge.net/DTD/sodipodi-0.dtd"
   xmlns="http://www.w3.org/2000/svg"
   xmlns:svg="http://www.w3.org/2000/svg">
  <defs
     id="defs1180" />
  <sodipodi:namedview
     id="namedview1178"
     pagecolor="#ffffff"
     bordercolor="#000000"
     borderopacity="0.25"
     inkscape:showpageshadow="2"
     inkscape:pageopacity="0.0"
     inkscape:pagecheckerboard="0"
     inkscape:deskcolor="#d1d1d1"
     showgrid="false"
     inkscape:zoom="2.0012523"
     inkscape:cx="211.86734"
     inkscape:cy="211.86734"
     inkscape:window-width="1920"
     inkscape:window-height="1027"
     inkscape:window-x="-8"
     inkscape:window-y="-8"
     inkscape:window-maximized="1"
     inkscape:current-layer="svg1176" />
  <g
     id="g1174"
     style="fill:#ffffff">
    <path
       d="m370.608,252.392c13.47,0 24.428-10.958 24.428-24.428s-10.958-24.428-24.428-24.428-24.428,10.958-24.428,24.428 10.959,24.428 24.428,24.428zm0-33.855c5.198,0 9.428,4.229 9.428,9.428s-4.229,9.428-9.428,9.428-9.428-4.229-9.428-9.428 4.23-9.428 9.428-9.428z"
       id="path1162"
       style="fill:#ffffff" />
    <path
       d="m415.735,178.024h-89c-4.143,0-7.5,3.358-7.5,7.5v11.254h-13v-11.254c0-4.142-3.357-7.5-7.5-7.5h-119.5v-22.746c0-4.142-3.357-7.5-7.5-7.5h-30.717c-1.989,0-3.896,0.79-5.304,2.197l-21.283,21.283c-1.406,1.406-2.196,3.314-2.196,5.303v1.463h-7.965c-4.143,0-7.5,3.358-7.5,7.5v153.254h-15.035c-4.143,0-7.5,3.358-7.5,7.5v23.246c0,4.142 3.357,7.5 7.5,7.5h334c4.143,0 7.5-3.358 7.5-7.5v-184c0-4.142-3.357-7.5-7.5-7.5zm-96.5,33.754v127h-13v-127h13zm-175.11-49h20.11v15.246h-35.356l15.246-15.246zm-32.354,30.246h179.465v145.754h-179.465v-145.754zm296.464,169h-319v-8.246h15.035 194.465 28c4.143,0 7.5-3.358 7.5-7.5v-153.254h74v169z"
       id="path1164"
       style="fill:#ffffff" />
    <path
       d="m61.454,72.478c3.516-6.95 10.528-11.267 18.301-11.267 11.304,0 20.5,9.196 20.5,20.5 0,4.142 3.357,7.5 7.5,7.5s7.5-3.358 7.5-7.5c0-19.575-15.925-35.5-35.5-35.5-11.436,0-21.92,5.392-28.545,14.388-2.119-0.331-4.267-0.497-6.425-0.497-22.883,0-41.5,18.617-41.5,41.5 0,5.424 1.069,10.795 3.122,15.785-4.161,5.93-6.407,12.986-6.407,20.338 0,19.575 15.925,35.5 35.5,35.5 4.143,0 7.5-3.358 7.5-7.5s-3.357-7.5-7.5-7.5c-11.304,0-20.5-9.196-20.5-20.5 0-5.284 2.012-10.304 5.666-14.136 2.286-2.398 2.728-6.012 1.087-8.891-2.269-3.978-3.468-8.506-3.468-13.096 0-14.612 11.888-26.5 26.5-26.5 2.647,0 5.265,0.391 7.779,1.161 3.487,1.072 7.243-0.528 8.89-3.785z"
       id="path1166"
       style="fill:#ffffff" />
    <path
       d="m100.748,166.212c2.393,0 4.744-1.142 6.196-3.265 2.339-3.419 1.464-8.086-1.954-10.425l-38-26c-3.417-2.338-8.087-1.463-10.425,1.955-2.339,3.419-1.464,8.086 1.954,10.425l38,26c1.295,0.885 2.77,1.31 4.229,1.31z"
       id="path1168"
       style="fill:#ffffff" />
    <path
       d="m76.913,95.267c-3.006-2.849-7.755-2.721-10.603,0.287-2.849,3.007-2.721,7.754 0.286,10.603l38,36c1.45,1.374 3.306,2.055 5.157,2.055 1.987,0 3.971-0.785 5.445-2.342 2.849-3.007 2.721-7.754-0.286-10.603l-37.999-36z"
       id="path1170"
       style="fill:#ffffff" />
    <path
       d="m274.735,232.778c-0.001,0-0.003,0-0.004,0h-0.001c-0.001,0-0.001,0-0.002,0-14.881,0.001-22.795,6.487-29.155,11.699-5.66,4.638-10.131,8.301-19.654,8.301-9.526,0-13.998-3.664-19.659-8.302-6.361-5.212-14.279-11.698-29.165-11.698s-22.804,6.486-29.165,11.698c-5.661,4.638-10.133,8.302-19.659,8.302-4.143,0-7.5,3.358-7.5,7.5v62c0,4.142 3.357,7.5 7.5,7.5h146.46c4.143,0 7.5-3.358 7.5-7.5v-81.727c0.003-0.09 0.005-0.182 0.005-0.273-0.001-4.142-3.358-7.5-7.501-7.5zm-7.505,82h-131.46v-47.603c10.229-1.727 16.467-6.836 21.665-11.095 5.661-4.638 10.133-8.302 19.659-8.302s13.998,3.664 19.659,8.302c6.361,5.212 14.279,11.698 29.165,11.698 14.885,0 22.801-6.487 29.162-11.699 3.927-3.218 7.282-5.967 12.149-7.349v66.048z"
       id="path1172"
       style="fill:#ffffff" />
  </g>
</svg>
