<?xml version="1.0" encoding="UTF-8" standalone="no"?>
<!-- Uploaded to: SVG Repo, www.svgrepo.com, Generator: SVG Repo Mixer Tools -->

<svg
   fill="#000000"
   width="548.09351"
   height="432.96432"
   viewBox="0 0 9.5916365 7.5768757"
   role="img"
   focusable="false"
   aria-hidden="true"
   version="1.1"
   id="svg1"
   sodipodi:docname="idle.svg"
   inkscape:version="1.3.2 (091e20e, 2023-11-25, custom)"
   xmlns:inkscape="http://www.inkscape.org/namespaces/inkscape"
   xmlns:sodipodi="http://sodipodi.sourceforge.net/DTD/sodipodi-0.dtd"
   xmlns="http://www.w3.org/2000/svg"
   xmlns:svg="http://www.w3.org/2000/svg">
  <defs
     id="defs1" />
  <sodipodi:namedview
     id="namedview1"
     pagecolor="#ffffff"
     bordercolor="#000000"
     borderopacity="0.25"
     inkscape:showpageshadow="2"
     inkscape:pageopacity="0.0"
     inkscape:pagecheckerboard="0"
     inkscape:deskcolor="#d1d1d1"
     inkscape:zoom="1.01625"
     inkscape:cx="276.01476"
     inkscape:cy="248.46248"
     inkscape:window-width="1920"
     inkscape:window-height="1009"
     inkscape:window-x="-8"
     inkscape:window-y="-8"
     inkscape:window-maximized="1"
     inkscape:current-layer="svg1" />
  <path
     fill="#008000"
     d="m 8.6949563,1.9179677 q 0,0.2076469 -0.144291,0.3530064 L 4.819631,6.0290676 4.1187769,6.7350139 q -0.1442912,0.1453592 -0.350427,0.1453592 -0.206136,0 -0.3504271,-0.1453592 L 2.7170621,6.0290676 0.8515481,4.1499873 Q 0.707257,4.0046948 0.707257,3.797048 q 0,-0.2076469 0.1442911,-0.3530064 L 1.5524089,2.7380958 Q 1.6967,2.5928034 1.9028359,2.5928034 q 0.2061359,0 0.350427,0.1452924 l 1.515087,1.5313035 3.3806004,-3.41031673 q 0.1442909,-0.1453595 0.350427,-0.1453595 0.2061354,0 0.350427,0.1453595 l 0.700861,0.70594573 q 0.144291,0.1452925 0.144291,0.3529394 z"
     id="path1"
     style="stroke-width:0.668055" />
</svg>
