<?xml version="1.0" encoding="UTF-8" standalone="no"?>
<!-- Uploaded to: SVG Repo, www.svgrepo.com, Generator: SVG Repo Mixer Tools -->

<svg
   fill="#000000"
   width="223.37025"
   height="187.94588"
   viewBox="0 0 3.9089795 3.2890529"
   role="img"
   focusable="false"
   aria-hidden="true"
   version="1.1"
   id="svg1"
   sodipodi:docname="idle-icon.svg"
   inkscape:version="1.3.2 (091e20e, 2023-11-25, custom)"
   xmlns:inkscape="http://www.inkscape.org/namespaces/inkscape"
   xmlns:sodipodi="http://sodipodi.sourceforge.net/DTD/sodipodi-0.dtd"
   xmlns="http://www.w3.org/2000/svg"
   xmlns:svg="http://www.w3.org/2000/svg">
  <defs
     id="defs1" />
  <sodipodi:namedview
     id="namedview1"
     pagecolor="#ffffff"
     bordercolor="#000000"
     borderopacity="0.25"
     inkscape:showpageshadow="2"
     inkscape:pageopacity="0.0"
     inkscape:pagecheckerboard="0"
     inkscape:deskcolor="#d1d1d1"
     inkscape:zoom="1.01625"
     inkscape:cx="276.01476"
     inkscape:cy="248.46248"
     inkscape:window-width="1920"
     inkscape:window-height="1009"
     inkscape:window-x="-8"
     inkscape:window-y="-8"
     inkscape:window-maximized="1"
     inkscape:current-layer="svg1" />
  <path
     fill="#008000"
     d="m 3.270602,0.93155859 q 0,0.070223 -0.048793,0.11938151 L 1.9601288,2.3218714 1.7231292,2.560612 Q 1.6743362,2.60977 1.6046294,2.60977 q -0.069707,0 -0.1184998,-0.049158 L 1.2491278,2.3218714 0.61828889,1.6863944 q -0.0487933,-0.049136 -0.0487933,-0.1193588 0,-0.070223 0.048793,-0.1193815 l 0.237002,-0.2387404 q 0.048793,-0.049135 0.1184998,-0.049135 0.069707,0 0.11849971,0.049135 L 1.6046294,1.7267778 2.7478073,0.57345949 q 0.048793,-0.049159 0.1184998,-0.049159 0.069706,0 0.1184997,0.049159 l 0.237002,0.2387403 q 0.048793,0.049136 0.048793,0.1193588 z"
     id="path1"
     style="stroke-width:0.225917" />
</svg>
