<?xml version="1.0" encoding="UTF-8" standalone="no"?>
<!-- Uploaded to: SVG Repo, www.svgrepo.com, Generator: SVG Repo Mixer Tools -->

<svg
   fill="#000000"
   width="548.09351"
   height="432.96432"
   viewBox="0 0 9.5916365 7.5768757"
   role="img"
   focusable="false"
   aria-hidden="true"
   version="1.1"
   id="svg1"
   sodipodi:docname="idle.svg"
   inkscape:version="1.3.2 (091e20e, 2023-11-25, custom)"
   xmlns:inkscape="http://www.inkscape.org/namespaces/inkscape"
   xmlns:sodipodi="http://sodipodi.sourceforge.net/DTD/sodipodi-0.dtd"
   xmlns="http://www.w3.org/2000/svg"
   xmlns:svg="http://www.w3.org/2000/svg">
  <defs
     id="defs1" />
  <sodipodi:namedview
     id="namedview1"
     pagecolor="#ffffff"
     bordercolor="#000000"
     borderopacity="0.25"
     inkscape:showpageshadow="2"
     inkscape:pageopacity="0.0"
     inkscape:pagecheckerboard="0"
     inkscape:deskcolor="#d1d1d1"
     inkscape:zoom="1.01625"
     inkscape:cx="276.01476"
     inkscape:cy="248.46248"
     inkscape:window-width="1920"
     inkscape:window-height="1009"
     inkscape:window-x="-8"
     inkscape:window-y="-8"
     inkscape:window-maximized="1"
     inkscape:current-layer="svg1" />
  <path
     fill="#008000"
     d="m 7.0073794,2.6696919 q 0,0.1026945 -0.075856,0.174584 L 4.9700588,4.702891 4.6016086,5.0520262 q -0.075856,0.071889 -0.1842251,0.071889 -0.108369,0 -0.1842251,-0.071889 L 3.8647047,4.702891 2.8839742,3.7735669 Q 2.808118,3.7017105 2.808118,3.599016 q 0,-0.1026945 0.075856,-0.174584 L 3.2524279,3.0752971 q 0.075856,-0.071856 0.1842251,-0.071856 0.1083689,0 0.184225,0.071856 L 4.4173835,3.8326237 6.1946193,2.1460062 q 0.075856,-0.07189 0.1842251,-0.07189 0.1083686,0 0.184225,0.07189 L 6.9315233,2.495141 q 0.075856,0.071856 0.075856,0.1745509 z"
     id="path1"
     style="stroke-width:0.340642" />
</svg>
