<?xml version="1.0" encoding="UTF-8" standalone="no"?>
<!-- Uploaded to: SVG Repo, www.svgrepo.com, Generator: SVG Repo Mixer Tools -->

<svg
   fill="#000000"
   width="800px"
   height="800px"
   viewBox="0 0 14 14"
   role="img"
   focusable="false"
   aria-hidden="true"
   version="1.1"
   id="svg1"
   sodipodi:docname="idle.svg"
   inkscape:version="1.3.2 (091e20e, 2023-11-25, custom)"
   xmlns:inkscape="http://www.inkscape.org/namespaces/inkscape"
   xmlns:sodipodi="http://sodipodi.sourceforge.net/DTD/sodipodi-0.dtd"
   xmlns="http://www.w3.org/2000/svg"
   xmlns:svg="http://www.w3.org/2000/svg">
  <defs
     id="defs1" />
  <sodipodi:namedview
     id="namedview1"
     pagecolor="#ffffff"
     bordercolor="#000000"
     borderopacity="0.25"
     inkscape:showpageshadow="2"
     inkscape:pageopacity="0.0"
     inkscape:pagecheckerboard="0"
     inkscape:deskcolor="#d1d1d1"
     inkscape:zoom="1.01625"
     inkscape:cx="400"
     inkscape:cy="400"
     inkscape:window-width="1920"
     inkscape:window-height="1009"
     inkscape:window-x="-8"
     inkscape:window-y="-8"
     inkscape:window-maximized="1"
     inkscape:current-layer="svg1" />
  <path
     fill="#008000"
     d="m 12.397293,4.2299879 q 0,0.2737495 -0.195306,0.4653829 L 7.1518191,9.6498208 6.203173,10.580499 q -0.1953063,0.191633 -0.474323,0.191633 -0.2790168,0 -0.4743231,-0.191633 L 4.3058719,9.6498208 1.7807921,7.1725516 Q 1.5854858,6.9810065 1.5854858,6.7072571 q 0,-0.2737495 0.1953063,-0.465383 L 2.7294472,5.3111966 q 0.1953063,-0.191545 0.474323,-0.191545 0.2790167,0 0.474323,0.191545 L 5.72885,7.3299774 10.304686,2.8340159 q 0.195306,-0.1916335 0.474323,-0.1916335 0.279016,0 0.474323,0.1916335 l 0.948655,0.9306774 q 0.195306,0.1915451 0.195306,0.4652946 z"
     id="path1"
     style="stroke-width:0.89241" />
</svg>
