<?xml version="1.0" encoding="iso-8859-1"?>
<!-- Uploaded to: SVG Repo, www.svgrepo.com, Generator: SVG Repo Mixer Tools -->
<svg version="1.1" id="Layer_1" xmlns="http://www.w3.org/2000/svg" xmlns:xlink="http://www.w3.org/1999/xlink" 
	 viewBox="0 0 512 512" xml:space="preserve">
<path style="fill:#BDBDBD;" d="M348,508c0-12-10-20-22.8-24H186.8c-12.4,4-22.8,12-22.8,24H348z"/>
<path style="fill:#140500;" d="M348,512H164c-2.4,0-4-1.6-4-4c0-12.4,9.2-22.8,25.6-28c0.4,0,0.8,0,1.2,0h138.4c0.4,0,0.8,0,1.2,0
	c16,5.2,25.6,15.2,25.6,28C352,510.4,350,512,348,512z M168.4,504h174.8c-2.4-9.6-13.2-14-18.8-16H187.2
	C182,490,171.2,494.4,168.4,504z"/>
<polyline style="fill:#E0E0E0;" points="264,348 264,484 244,484 244,348 "/>
<path style="fill:#140500;" d="M264,488h-20c-2.4,0-4-1.6-4-4V348c0-2.4,1.6-4,4-4s4,1.6,4,4v132h12V348c0-2.4,1.6-4,4-4s4,1.6,4,4
	v136C268,486.4,266.4,488,264,488z"/>
<rect x="200" y="4" style="fill:#FFB540;" width="108" height="344"/>
<g>
	<path style="fill:#140500;" d="M308,352H200c-2.4,0-4-1.6-4-4V4c0-2.4,1.6-4,4-4h108c2.4,0,4,1.6,4,4v344
		C312,350.4,310.4,352,308,352z M204,344h100V8H204V344z"/>
	<path style="fill:#140500;" d="M256,296h-56c-2.4,0-4-1.6-4-4s1.6-4,4-4h56c2.4,0,4,1.6,4,4S258.4,296,256,296z"/>
	<path style="fill:#140500;" d="M292,296h-16c-2.4,0-4-1.6-4-4s1.6-4,4-4h16c2.4,0,4,1.6,4,4S294.4,296,292,296z"/>
	<path style="fill:#140500;" d="M256,240h-56c-2.4,0-4-1.6-4-4s1.6-4,4-4h56c2.4,0,4,1.6,4,4S258.4,240,256,240z"/>
	<path style="fill:#140500;" d="M292,240h-16c-2.4,0-4-1.6-4-4s1.6-4,4-4h16c2.4,0,4,1.6,4,4S294.4,240,292,240z"/>
	<path style="fill:#140500;" d="M256,184h-56c-2.4,0-4-1.6-4-4s1.6-4,4-4h56c2.4,0,4,1.6,4,4S258.4,184,256,184z"/>
	<path style="fill:#140500;" d="M292,184h-16c-2.4,0-4-1.6-4-4s1.6-4,4-4h16c2.4,0,4,1.6,4,4S294.4,184,292,184z"/>
	<path style="fill:#140500;" d="M256,128h-56c-2.4,0-4-1.6-4-4s1.6-4,4-4h56c2.4,0,4,1.6,4,4S258.4,128,256,128z"/>
	<path style="fill:#140500;" d="M292,128h-16c-2.4,0-4-1.6-4-4s1.6-4,4-4h16c2.4,0,4,1.6,4,4S294.4,128,292,128z"/>
	<path style="fill:#140500;" d="M256,68h-56c-2.4,0-4-1.6-4-4s1.6-4,4-4h56c2.4,0,4,1.6,4,4S258.4,68,256,68z"/>
	<path style="fill:#140500;" d="M292,68h-16c-2.4,0-4-1.6-4-4s1.6-4,4-4h16c2.4,0,4,1.6,4,4S294.4,68,292,68z"/>
</g>
</svg>