<?xml version="1.0" encoding="iso-8859-1"?>
<!-- Generator: Adobe Illustrator 19.0.0, SVG Export Plug-In . SVG Version: 6.00 Build 0)  -->
<svg version="1.1" id="Layer_1" xmlns="http://www.w3.org/2000/svg" xmlns:xlink="http://www.w3.org/1999/xlink" x="0px" y="0px"
	 viewBox="0 0 442.17 442.17" style="enable-background:new 0 0 442.17 442.17;" xml:space="preserve">
<g>
	<path style="fill:#F24125;" d="M330.283,133.36c0-60.308-48.889-109.198-109.197-109.198S111.888,73.051,111.888,133.36H330.283"/>
	<path style="fill:#A5A5A5;" d="M222.452,24.17c0.004,0,0.013,0,0.016,0C222.465,24.171,222.458,24.17,222.452,24.17
		 M222.238,24.168c0.015,0,0.03,0,0.045,0C222.268,24.168,222.253,24.168,222.238,24.168 M222.036,24.166
		c0.022,0,0.04,0,0.062,0.001C222.077,24.166,222.057,24.166,222.036,24.166 M221.842,24.165c0.022,0,0.045,0,0.067,0
		C221.887,24.165,221.866,24.165,221.842,24.165 M221.652,24.163c0.026,0,0.046,0,0.071,0
		C221.699,24.164,221.674,24.164,221.652,24.163 M221.463,24.163c0.022,0,0.047,0,0.069,0
		C221.508,24.163,221.486,24.163,221.463,24.163 M221.273,24.162c0.018,0,0.04,0,0.059,0
		C221.314,24.162,221.294,24.162,221.273,24.162"/>
	<path style="fill:#9E3B2B;" d="M221.086,24.162c-60.308,0-109.198,48.889-109.198,109.198h49
		c0-51.885,36.186-95.316,84.697-106.436c-7.444-1.707-15.178-2.654-23.116-2.753c-0.004,0-0.013,0-0.016,0
		c-0.057-0.001-0.114-0.001-0.171-0.002c-0.015,0-0.03,0-0.045,0c-0.047,0-0.093-0.001-0.139-0.001c-0.022,0-0.04,0-0.062-0.001
		c-0.042,0-0.084-0.001-0.126-0.001c-0.022,0-0.045,0-0.067,0c-0.04,0-0.08,0-0.12-0.001c-0.026,0-0.046,0-0.071,0
		c-0.04,0-0.079,0-0.12-0.001c-0.022,0-0.047,0-0.069,0c-0.043,0-0.087,0-0.13,0c-0.018,0-0.04,0-0.059,0
		C221.212,24.162,221.148,24.162,221.086,24.162L221.086,24.162"/>
	<path style="fill:#FFFFFF;" d="M306.796,111.238c-2.521,0-4.868-1.602-5.698-4.127c-7.474-22.723-24.352-41.279-46.309-50.909
		c-3.034-1.331-4.416-4.87-3.085-7.905s4.871-4.416,7.905-3.085c25.074,10.997,44.351,32.192,52.887,58.149
		c1.036,3.148-0.677,6.539-3.825,7.574C308.047,111.141,307.416,111.238,306.796,111.238z"/>
	<path style="fill:#FFFFFF;" d="M236.928,50.554c-1.58,0-3.13-0.64-4.25-1.76c-1.11-1.11-1.75-2.66-1.75-4.24
		c0-0.39,0.04-0.79,0.11-1.17c0.08-0.39,0.199-0.76,0.35-1.13c0.14-0.36,0.33-0.71,0.55-1.03c0.21-0.33,0.47-0.64,0.74-0.91
		c1.12-1.12,2.67-1.76,4.25-1.76s3.12,0.64,4.24,1.76c0.27,0.27,0.529,0.58,0.739,0.91c0.221,0.32,0.41,0.67,0.561,1.03
		c0.15,0.37,0.26,0.74,0.34,1.13c0.08,0.38,0.12,0.78,0.12,1.17c0,1.58-0.65,3.13-1.76,4.24
		C240.049,49.914,238.508,50.554,236.928,50.554z"/>
	<polyline style="fill:#F7B239;" points="283.516,436.17 158.656,436.17 168.405,413.688 273.767,413.688 283.516,436.17 	"/>
	<polyline style="fill:#A17A36;" points="195.072,413.688 168.405,413.688 158.656,436.17 185.323,436.17 195.072,413.688 	"/>
	<path style="fill:#333333;" d="M227.086,18.317V6c0-3.314-2.686-6-6-6c-3.313,0-6,2.686-6,6v12.317
		c-60.742,3.132-109.197,53.535-109.197,115.042c0,3.314,2.687,6,6,6h103.197v268.328h-46.681c-2.391,0-4.554,1.419-5.505,3.613
		l-9.75,22.483c-0.804,1.854-0.62,3.989,0.489,5.679c1.109,1.69,2.995,2.708,5.016,2.708h124.86c2.021,0,3.907-1.018,5.016-2.708
		c1.109-1.69,1.293-3.825,0.489-5.679l-9.749-22.483c-0.951-2.194-3.114-3.613-5.505-3.613h-46.682V139.36h30.376v64.082
		c0,3.314,2.687,6,6,6s6-2.686,6-6V139.36h60.822c3.313,0,6-2.686,6-6C336.283,71.852,287.827,21.449,227.086,18.317z
		 M274.374,430.171H167.798l4.546-10.483h97.485L274.374,430.171z M118.06,127.36c3.119-54.121,48.136-97.198,103.025-97.198
		s99.907,43.076,103.025,97.198H118.06z"/>
</g>
<g>
</g>
<g>
</g>
<g>
</g>
<g>
</g>
<g>
</g>
<g>
</g>
<g>
</g>
<g>
</g>
<g>
</g>
<g>
</g>
<g>
</g>
<g>
</g>
<g>
</g>
<g>
</g>
<g>
</g>
</svg>
