<?xml version="1.0" encoding="UTF-8" standalone="no"?>
<!-- Uploaded to: SVG Repo, www.svgrepo.com, Generator: SVG Repo Mixer Tools -->

<svg
   height="800px"
   width="800px"
   version="1.1"
   id="Layer_1"
   viewBox="0 0 503.95 503.95"
   xml:space="preserve"
   sodipodi:docname="lamp-lantern-svgrepo-com.svg"
   inkscape:version="1.2 (dc2aedaf03, 2022-05-15)"
   xmlns:inkscape="http://www.inkscape.org/namespaces/inkscape"
   xmlns:sodipodi="http://sodipodi.sourceforge.net/DTD/sodipodi-0.dtd"
   xmlns="http://www.w3.org/2000/svg"
   xmlns:svg="http://www.w3.org/2000/svg"><defs
   id="defs20644" /><sodipodi:namedview
   id="namedview20642"
   pagecolor="#ffffff"
   bordercolor="#000000"
   borderopacity="0.25"
   inkscape:showpageshadow="2"
   inkscape:pageopacity="0.0"
   inkscape:pagecheckerboard="0"
   inkscape:deskcolor="#d1d1d1"
   showgrid="false"
   inkscape:zoom="1.05875"
   inkscape:cx="400.94451"
   inkscape:cy="436.36364"
   inkscape:window-width="1920"
   inkscape:window-height="1027"
   inkscape:window-x="-8"
   inkscape:window-y="-8"
   inkscape:window-maximized="1"
   inkscape:current-layer="Layer_1" />
<g
   transform="matrix(1,0,0,0.98937428,0,-1009.5179)"
   id="g20639">
	<g
   shape-rendering="auto"
   image-rendering="auto"
   color-rendering="auto"
   color-interpolation="sRGB"
   id="g20631">
		<g
   id="g20621">
			<path
   style="fill:#464c63"
   d="m 251.867,1020.398 c -17.427,0 -31.714,14.272 -32,31.75 -0.002,0.16 -0.002,0.192 0,0.288 h -15.968 c -2.675,0 -5.172,1.344 -6.656,3.563 l -13.626,20.404 H 163.93 c -2.669,-0.01 -5.165,1.313 -6.656,3.531 -6.932,8.525 -20.678,28.5 -20.678,28.5 h -68.51 c -10.819,-0.16 -10.819,16.154 0,16 h 16.718 l 31.219,288.875 c 0.447,4.061 3.883,7.133 7.97,7.125 h 19.718 l 13.624,20.438 c 1.484,2.227 3.982,3.563 6.658,3.563 h 19.718 l 13.624,20.438 c 1.484,2.227 3.982,3.563 6.658,3.563 h 15.968 l -0.16,55.875 h 8.032 55.967 l 0.16,-55.875 h 16.032 c 2.675,0 5.172,-1.344 6.656,-3.563 l 13.624,-20.438 h 19.72 c 2.675,0 5.172,-1.344 6.656,-3.563 l 13.624,-20.438 h 19.72 c 4.073,-0.01 7.49,-3.076 7.936,-7.125 l 31.219,-288.875 h 16.718 c 10.819,0.16 10.819,-16.154 0,-16 l -70,-0.16 c 0,0 -13.301,-19.227 -19.408,-28.377 -1.491,-2.213 -3.987,-3.537 -6.656,-3.531 h -19.686 l -13.626,-20.405 c -1.484,-2.226 -3.981,-3.563 -6.656,-3.563 h -15.97 c 0.002,-0.16 0.002,-0.192 0,-0.288 -0.288,-17.479 -14.573,-31.752 -32,-31.75 z m -43.686,48 h 87.374 l 5.312,7.969 h -98 z m -39.97,23.969 h 167.314 l 10.718,16.031 h -188.75 z m -67.312,32.031 h 302.157 l -30.251,280 H 131.152 Z m 62.031,296 h 178.126 l -5.344,8 H 168.274 Z m 40,24 h 98.126 l -5.344,8 h -87.438 z"
   id="path20613" />
			<g
   id="g20619">
				<path
   style="fill:#ffb900"
   d="m 251.862,1036.404 c 8.76,0 15.834,6.985 16,16 h -32 c 0.16,-9.015 7.239,-15.998 16,-16 z"
   id="path20615" />
				
			</g>
		</g>
		<g
   id="g20627">
			
			<path
   style="fill:#464c63"
   d="m 252.518,1246.7112 c -2.513,0.037 -4.862,1.252 -6.344,3.281 0,0 -0.448,0.721 -0.464,0.752 -0.448,0.607 -4.648,6.361 -9,14.563 -4.578,8.623 -9.806,18.875 -7.781,30.031 0.944,5.209 3.138,10.479 6.906,15 3.768,4.523 9.688,8.375 16.813,8.375 13.03,0 23.75,-9.92 23.843,-22.344 0,-5.326 -1.893,-9.527 -4,-13.719 -2.107,-4.189 -4.659,-8.293 -6.906,-12.125 -2.246,-3.83 -4.19,-7.432 -5.094,-9.906 -0.912,-2.473 -0.304,-2.971 -0.88,-1.969 2.175,-3.846 0.82,-8.729 -3.027,-10.902 -1.239,-0.701 -2.643,-1.059 -4.066,-1.035 z"
   id="path20625" />
		</g>
		<path
   style="fill:#ffb900"
   d="m 248.29505,1278.1861 c 0.624,1.119 1.072,2.311 1.718,3.406 2.36,4.023 4.725,7.934 6.376,11.217 1.651,3.283 2.315,6.016 2.312,6.406 0,2.326 -3.379,6.469 -7.843,6.469 -1.624,0 -2.92,-0.688 -4.531,-2.623 -1.613,-1.934 -2.971,-5.055 -3.438,-7.625 -0.448,-2.461 2.217,-10.385 5.406,-17.25 z"
   id="path20629" />
	</g>
	<g
   id="g20637">
		
		
			<path
   shape-rendering="auto"
   image-rendering="auto"
   color-rendering="auto"
   color-interpolation="sRGB"
   style="fill:#464c63;stroke-width:0.993288"
   d="m 227.987,1317.6162 c -4.418,0 -8,3.5341 -8,7.893 v 72.024 c 0,4.359 3.582,7.8931 8,7.8931 h 48 c 4.418,0 8,-3.5341 8,-7.8931 v -72.024 c 0,-4.3589 -3.582,-7.893 -8,-7.893 z m 8,15.7861 h 32 v 56.2379 h -32 z"
   id="path20635" />
	</g>
</g>
</svg>
