<?xml version="1.0" encoding="iso-8859-1"?>
<!-- Generator: Adobe Illustrator 19.0.0, SVG Export Plug-In . SVG Version: 6.00 Build 0)  -->
<svg version="1.1" id="Capa_1" xmlns="http://www.w3.org/2000/svg" xmlns:xlink="http://www.w3.org/1999/xlink" x="0px" y="0px"
	 viewBox="0 0 57 57" style="enable-background:new 0 0 57 57;" xml:space="preserve">
<g>
	<path d="M37.879,0.793C37.781,0.331,37.373,0,36.9,0H20.1c-0.473,0-0.881,0.331-0.979,0.793l-3.6,17
		c-0.063,0.295,0.012,0.603,0.201,0.837C15.913,18.864,16.198,19,16.5,19h11v36h-4v2h4h2h4.063v-2H29.5V19h3v9.278
		c-0.595,0.347-1,0.985-1,1.722c0,1.102,0.897,2,2,2s2-0.897,2-2c0-0.737-0.405-1.375-1-1.722V19h6c0.302,0,0.587-0.136,0.777-0.37
		c0.19-0.234,0.264-0.542,0.201-0.837L37.879,0.793z M17.734,17L20.91,2h15.18l3.176,15H17.734z"/>
</g>
<g>
</g>
<g>
</g>
<g>
</g>
<g>
</g>
<g>
</g>
<g>
</g>
<g>
</g>
<g>
</g>
<g>
</g>
<g>
</g>
<g>
</g>
<g>
</g>
<g>
</g>
<g>
</g>
<g>
</g>
</svg>
