<?xml version="1.0" encoding="UTF-8" standalone="no"?>
<!-- Generator: Adobe Illustrator 18.0.0, SVG Export Plug-In . SVG Version: 6.00 Build 0)  -->

<svg
   version="1.1"
   id="Capa_1"
   x="0px"
   y="0px"
   viewBox="0 0 512 512"
   style="enable-background:new 0 0 512 512;"
   xml:space="preserve"
   sodipodi:docname="lamp-standing-color.svg"
   inkscape:version="1.2 (dc2aedaf03, 2022-05-15)"
   xmlns:inkscape="http://www.inkscape.org/namespaces/inkscape"
   xmlns:sodipodi="http://sodipodi.sourceforge.net/DTD/sodipodi-0.dtd"
   xmlns="http://www.w3.org/2000/svg"
   xmlns:svg="http://www.w3.org/2000/svg"><defs
   id="defs1920" /><sodipodi:namedview
   id="namedview1918"
   pagecolor="#ffffff"
   bordercolor="#000000"
   borderopacity="0.25"
   inkscape:showpageshadow="2"
   inkscape:pageopacity="0.0"
   inkscape:pagecheckerboard="0"
   inkscape:deskcolor="#d1d1d1"
   showgrid="false"
   inkscape:zoom="1.6542969"
   inkscape:cx="188.29752"
   inkscape:cy="208.54782"
   inkscape:window-width="1920"
   inkscape:window-height="1027"
   inkscape:window-x="-8"
   inkscape:window-y="-8"
   inkscape:window-maximized="1"
   inkscape:current-layer="Capa_1" />
<g
   id="g1885">
	<path
   style="fill:#24221c"
   d="M304.339,479.978c-7.863,0.296-15.127-2.366-21.495-6.961C270.439,464.065,264,448.947,264,433.649   V144l-15.903-0.004l-0.092,290.384c-0.004,13.349-4.859,26.604-14.697,35.625c-7.088,6.499-15.599,10.434-25.226,9.956   c-8.624-0.428-16.081,5.783-16.081,14.417L192,512h128l0-17.812C320,485.756,312.765,479.661,304.339,479.978z"
   id="path1869" />
	<g
   id="g1873">
		<path
   style="fill:#F5B445;"
   d="M344,0H168c-8.836,0-16,7.164-16,16v112.004c0,8.836,7.164,16,16,16h176c8.836,0,16-7.164,16-16V16    C360,7.164,352.836,0,344,0z"
   id="path1871" />
	</g>
	<g
   id="g1877">
		<polygon
   style="fill:#8EADBE;"
   points="263.904,160.004 248,160 248,144.004 264,144.004   "
   id="polygon1875" />
	</g>
	<g
   id="g1881">
		<path
   style="fill:#F09820;"
   d="M312,104c0,13.255-10.745,24-24,24H184c-8.837,0-16,7.163-16,16h120h16h40c8.837,0,16-7.163,16-16    V16l0,0h0c-26.51,0-48,21.49-48,48V104z"
   id="path1879" />
	</g>
	
</g>
<g
   id="g1887">
</g>
<g
   id="g1889">
</g>
<g
   id="g1891">
</g>
<g
   id="g1893">
</g>
<g
   id="g1895">
</g>
<g
   id="g1897">
</g>
<g
   id="g1899">
</g>
<g
   id="g1901">
</g>
<g
   id="g1903">
</g>
<g
   id="g1905">
</g>
<g
   id="g1907">
</g>
<g
   id="g1909">
</g>
<g
   id="g1911">
</g>
<g
   id="g1913">
</g>
<g
   id="g1915">
</g>
<path
   style="fill:#24221c;stroke-width:0.604486"
   d="m 248.14168,152.02834 v -7.85833 H 256 h 7.85832 v 7.85833 7.85832 H 256 248.14168 Z"
   id="path1922" /></svg>
