<?xml version="1.0" encoding="UTF-8" standalone="no"?>
<!-- Generator: Adobe Illustrator 19.0.0, SVG Export Plug-In . SVG Version: 6.00 Build 0)  -->

<svg
   version="1.1"
   id="Layer_1"
   x="0px"
   y="0px"
   viewBox="0 0 872.87835 512.60448"
   xml:space="preserve"
   sodipodi:docname="lamp-fan-light.svg"
   width="872.87836"
   height="512.60449"
   inkscape:version="1.3.2 (091e20e, 2023-11-25, custom)"
   xmlns:inkscape="http://www.inkscape.org/namespaces/inkscape"
   xmlns:sodipodi="http://sodipodi.sourceforge.net/DTD/sodipodi-0.dtd"
   xmlns="http://www.w3.org/2000/svg"
   xmlns:svg="http://www.w3.org/2000/svg"><defs
   id="defs11621" /><sodipodi:namedview
   id="namedview11619"
   pagecolor="#ffffff"
   bordercolor="#000000"
   borderopacity="0.25"
   inkscape:showpageshadow="2"
   inkscape:pageopacity="0.0"
   inkscape:pagecheckerboard="0"
   inkscape:deskcolor="#d1d1d1"
   showgrid="false"
   inkscape:zoom="1.6542969"
   inkscape:cx="383.84887"
   inkscape:cy="213.68595"
   inkscape:window-width="1920"
   inkscape:window-height="1027"
   inkscape:window-x="-8"
   inkscape:window-y="-8"
   inkscape:window-maximized="1"
   inkscape:current-layer="Layer_1" />
<g
   id="g11568"
   transform="translate(175.30106)">
	<path
   style="fill:#ffa630"
   d="m 256,512 c -9.223,0 -16.696,-7.473 -16.696,-16.696 v -33.391 c 0,-9.223 7.473,-16.696 16.696,-16.696 9.223,0 16.696,7.473 16.696,16.696 v 33.391 C 272.696,504.527 265.223,512 256,512 Z"
   id="path11562" />
	<path
   style="fill:#ffa630"
   d="m 338.641,477.772 c -4.272,0 -8.544,-1.631 -11.804,-4.892 l -23.614,-23.614 c -6.521,-6.516 -6.521,-17.092 0,-23.609 6.521,-6.521 17.087,-6.521 23.609,0 l 23.614,23.614 c 6.521,6.516 6.521,17.092 0,23.609 -3.261,3.261 -7.533,4.892 -11.805,4.892 z"
   id="path11564" />
	<path
   style="fill:#ffa630"
   d="m 173.359,477.772 c -4.272,0 -8.544,-1.631 -11.804,-4.892 -6.521,-6.516 -6.521,-17.092 0,-23.609 l 23.614,-23.614 c 6.521,-6.521 17.087,-6.521 23.609,0 6.521,6.516 6.521,17.092 0,23.609 l -23.614,23.614 c -3.262,3.261 -7.533,4.892 -11.805,4.892 z"
   id="path11566" />
</g>
<path
   style="fill:#ffda44"
   d="m 431.30106,411.826 c 46.032,0 83.478,-37.446 83.478,-83.478 h -166.956 c 0,46.032 37.446,83.478 83.478,83.478 z"
   id="path11570" />
<path
   style="fill:#eebf00"
   d="m 431.30106,411.826 c 46.032,0 83.478,-37.446 83.478,-83.478 h -83.478 z"
   id="path11572" />
<path
   style="fill:#57565c;stroke-width:1.21157"
   d="m 431.30106,211.478 c -9.223,0 -16.696,-10.96958 -16.696,-24.50797 V 23.587489 c 0,-13.538392 7.473,-24.50796834 16.696,-24.50796834 9.223,0 16.696,10.96957634 16.696,24.50796834 V 186.97003 c 0,13.53839 -7.473,24.50797 -16.696,24.50797 z"
   id="path11574" />
<g
   id="g11580"
   transform="translate(175.30106)">
	<path
   style="fill:#4d4d4d"
   d="m 389.565,345.043 h -267.13 c -9.223,0 -16.696,-7.473 -16.696,-16.696 0,-82.853 67.408,-150.261 150.261,-150.261 82.853,0 150.261,67.408 150.261,150.261 0,9.223 -7.473,16.696 -16.696,16.696 z"
   id="path11576" />
	<path
   style="fill:#4d4d4d;stroke-width:0.97194"
   d="M 289.81174,176.94378 H -5.0986259 c -52.2706691,0 -94.7927521,-11.21486 -94.7927521,-25.00082 v -16.66704 c 0,-4.60364 14.143116,-8.33377 31.598216,-8.33377 H 353.00817 c 17.4532,0 31.59632,3.73013 31.59632,8.33377 v 16.66704 c 0,13.78596 -42.52209,25.00082 -94.79275,25.00082 z"
   id="path11578" />
</g>
<g
   id="g11586"
   transform="translate(175.30106)">
	<path
   style="fill:#2d2d30;stroke-width:1.14781"
   d="M 559.47753,127.54663 H 258.41795 v 48.79266 h 210.74224 c 74.70499,0 135.47736,-10.94369 135.47736,-24.39633 v -16.26405 c 0,-4.49233 -20.21328,-8.13228 -45.16002,-8.13228 z"
   id="path11582" />
	<path
   style="fill:#2d2d30;stroke-width:0.997126"
   d="m 392.2516,345.043 c 9.40852,0 17.03183,-7.2836 17.03183,-16.27285 C 409.28343,248.017 340.51955,182.3174 256,182.3174 V 345.043 Z"
   id="path11584" />
</g>
<g
   id="g11588"
   transform="translate(175.30106)">
</g>
<g
   id="g11590"
   transform="translate(175.30106)">
</g>
<g
   id="g11592"
   transform="translate(175.30106)">
</g>
<g
   id="g11594"
   transform="translate(175.30106)">
</g>
<g
   id="g11596"
   transform="translate(175.30106)">
</g>
<g
   id="g11598"
   transform="translate(175.30106)">
</g>
<g
   id="g11600"
   transform="translate(175.30106)">
</g>
<g
   id="g11602"
   transform="translate(175.30106)">
</g>
<g
   id="g11604"
   transform="translate(175.30106)">
</g>
<g
   id="g11606"
   transform="translate(175.30106)">
</g>
<g
   id="g11608"
   transform="translate(175.30106)">
</g>
<g
   id="g11610"
   transform="translate(175.30106)">
</g>
<g
   id="g11612"
   transform="translate(175.30106)">
</g>
<g
   id="g11614"
   transform="translate(175.30106)">
</g>
<g
   id="g11616"
   transform="translate(175.30106)">
</g>
<path
   style="fill:#4d4d4d;fill-opacity:0.92228;stroke-width:0.664786"
   d="M 100.74845,174.88606 C 51.595233,173.2238 13.923168,165.41877 4.5376595,154.95275 2.7805877,152.99339 2.7254929,152.6283 2.7011585,142.78258 l -0.025087,-10.15022 2.7550497,-1.51632 c 3.420589,-1.88262 11.7208369,-3.69612 20.8909989,-4.56442 4.775866,-0.45222 70.601831,-0.81873 208.06724,-1.15849 l 201.08118,-0.49699 0.0613,24.78388 0.0613,24.78386 -165.04601,0.29146 c -90.77531,0.16025 -167.18469,0.21911 -169.79859,0.13072 z"
   id="path11723" /><path
   style="fill:#333333;fill-opacity:0.92228;stroke-width:0.604486"
   d="m 292.81873,343.92043 c -3.37537,-1.03978 -7.98403,-4.97065 -9.79324,-8.35296 -1.2195,-2.27985 -1.33065,-3.30493 -1.28656,-11.86499 0.0524,-10.17709 1.16756,-19.2251 3.6878,-29.92208 12.62272,-53.57636 55.21267,-96.92366 108.6991,-110.63204 29.12361,-7.46427 60.62222,-5.94852 88.34095,4.25108 8.83897,3.25245 23.19617,10.50188 30.74503,15.52419 6.94746,4.62218 15.62799,11.35188 15.19767,11.78219 -0.13751,0.13751 -2.66181,-1.48544 -5.60956,-3.60657 -23.77061,-17.1047 -53.46148,-27.36944 -82.88493,-28.65501 l -8.61393,-0.37636 v 81.39581 81.39581 l -67.8536,-0.0421 c -56.68579,-0.0352 -68.31035,-0.1828 -70.62873,-0.89697 z"
   id="path11725" /><path
   style="fill:#333333;fill-opacity:0.92228;stroke-width:0.604486"
   d="m 433.719,152.05062 v -24.23206 l 160.03779,0.19239 c 144.13196,0.17328 160.6686,0.29007 166.38488,1.1751 11.35573,1.75816 17.58469,3.58837 18.88095,5.54765 0.24426,0.36919 0.44827,4.72587 0.45336,9.6815 0.009,8.61469 -0.0551,9.09468 -1.45799,10.93389 -2.88533,3.78286 -14.08428,8.40118 -27.73989,11.43962 -17.15394,3.81682 -33.62688,5.87396 -66.60396,8.3175 -6.02858,0.4467 -49.43149,0.75642 -129.51122,0.92416 L 433.719,176.28268 Z"
   id="path11798" /><path
   style="fill:#333333;fill-opacity:0.92228;stroke-width:0.678198"
   d="m 433.719,152.00193 v -24.33546 l 150.08743,0.39606 c 82.54808,0.21784 172.68614,0.43187 200.30679,0.47564 51.55146,0.0817 59.05588,0.29788 70.3568,2.02686 3.15009,0.48195 8.26815,1.757 11.23925,2.80002 l 3.2234,1.13159 -0.1798,9.97002 c -0.21147,11.72551 0.195,11.11794 -10.31754,15.42205 -2.75229,1.12686 -5.86762,2.14362 -7.36295,2.40309 -0.4185,0.0726 -1.3876,0.39847 -2.15355,0.72414 -1.42996,0.60797 -16.16662,3.68498 -22.95613,4.79323 -7.25579,1.18436 -19.6142,2.70264 -31.19689,3.83266 -1.25548,0.12249 -3.82352,0.37368 -5.70675,0.5582 -4.49167,0.44009 -9.79447,0.84124 -20.92473,1.58289 -5.02193,0.33464 -11.01402,0.7392 -13.31573,0.89903 -8.96276,0.62236 -49.67819,0.90603 -182.80611,1.2736 L 433.719,176.33738 Z"
   id="path11800" /><path
   style="fill:#4d4d4d;fill-opacity:0.92228;stroke-width:0.604486"
   d="m 346.06847,344.2647 c -52.79466,-0.31135 -52.89708,-0.31435 -55.33767,-1.62107 -3.23952,-1.73448 -7.18237,-6.08547 -8.13766,-8.98003 -1.11861,-3.38943 -0.43238,-20.991 1.17785,-30.21142 5.5741,-31.91803 20.18114,-59.44098 43.63572,-82.21951 23.38237,-22.7084 50.85989,-36.18322 83.9463,-41.16679 9.61384,-1.44806 30.24802,-1.46101 40.19834,-0.0252 16.86798,2.43397 28.81774,6.17046 44.732,13.98693 10.53318,5.1735 23.16484,12.7139 22.46712,13.41163 -0.15946,0.15946 -2.83162,-1.25042 -5.93815,-3.13306 -9.67689,-5.86449 -28.12994,-14.15091 -29.55348,-13.27111 -0.31704,0.19594 -0.57644,0.0391 -0.57644,-0.34858 0,-0.38766 -0.40802,-0.54826 -0.90672,-0.35689 -0.49871,0.19137 -0.90673,0.0554 -0.90673,-0.30225 0,-0.3576 -0.39046,-0.50035 -0.86768,-0.31722 -0.47722,0.18312 -0.9546,0.0722 -1.06085,-0.24659 -0.49375,-1.48125 -27.46701,-7.04267 -31.37533,-6.46905 -0.966,0.14177 -1.75636,-0.005 -1.75636,-0.32587 0,-0.35494 -2.13181,-0.46208 -5.44037,-0.27344 -2.99221,0.17061 -5.44038,0.0723 -5.44038,-0.2184 0,-0.29072 -0.81606,-0.52859 -1.81346,-0.52859 h -1.81346 v 81.60567 81.60566 l -16.17001,-0.14143 c -8.89351,-0.0778 -39.97167,-0.28181 -69.06258,-0.45337 z"
   id="path11950" /><path
   style="fill:#ffd42a;stroke-width:0.604486"
   d="m 341.83707,475.85749 c -3.69215,-1.76908 -7.02735,-5.35115 -8.44945,-9.07487 -1.31839,-3.45215 -1.05179,-9.32607 0.58156,-12.81332 1.60445,-3.42555 26.71481,-28.69065 30.63609,-30.82487 14.01961,-7.63043 29.57882,7.96131 21.94368,21.98956 -1.91853,3.52498 -27.24043,28.94122 -30.50645,30.62011 -1.29061,0.66343 -3.88376,1.17805 -6.64935,1.31957 -3.83934,0.19648 -4.99653,0.0102 -7.55608,-1.21618 z"
   id="path1" /><path
   style="fill:#ffd42a;stroke-width:0.604486"
   d="m 425.79138,510.7202 c -3.47323,-1.23179 -7.24014,-4.64365 -9.17329,-8.30866 l -1.63817,-3.10576 -0.1906,-18.60423 c -0.12392,-12.0961 0.0456,-19.74174 0.48445,-21.85593 0.90499,-4.35931 3.62203,-8.28303 7.42602,-10.72404 2.95888,-1.89872 3.43755,-2.01061 8.60127,-2.01061 5.16372,0 5.64238,0.11189 8.60127,2.01061 3.81253,2.44649 6.52136,6.36638 7.43252,10.75541 0.44759,2.15601 0.6139,9.65899 0.48445,21.85592 l -0.19711,18.57287 -1.63817,3.10576 c -3.97476,7.53564 -12.49132,11.03995 -20.19264,8.30866 z"
   id="path2" /><path
   style="fill:#ffd42a;stroke-width:0.604486"
   d="m 508.3036,476.40806 c -3.42313,-1.22329 -4.85544,-2.4806 -18.45133,-16.19683 -7.89538,-7.96525 -13.28555,-13.90245 -14.10595,-15.53749 -3.07464,-6.1277 -1.98049,-13.13722 2.8581,-18.31006 5.16399,-5.52072 12.82669,-6.79277 19.39242,-3.21925 3.92128,2.13422 29.03165,27.39932 30.63609,30.82487 1.63335,3.48725 1.89995,9.36117 0.58156,12.81332 -3.10232,8.12331 -12.72262,12.55161 -20.91089,9.62544 z"
   id="path3" /></svg>
