<?xml version="1.0" encoding="iso-8859-1"?>
<!-- Uploaded to: SVG Repo, www.svgrepo.com, Generator: SVG Repo Mixer Tools -->
<svg height="800px" width="800px" version="1.1" id="Layer_1" xmlns="http://www.w3.org/2000/svg" xmlns:xlink="http://www.w3.org/1999/xlink" 
	 viewBox="0 0 512 512" xml:space="preserve">
<path style="fill:#6A563D;" d="M256,0c-27.619,0-50.087,22.468-50.087,50.087s22.468,50.087,50.087,50.087
	s50.087-22.468,50.087-50.087S283.619,0,256,0z M256,66.783c-9.206,0-16.696-7.49-16.696-16.696s7.49-16.696,16.696-16.696
	s16.696,7.49,16.696,16.696S265.206,66.783,256,66.783z"/>
<path style="fill:#554431;" d="M256,0v33.391c9.206,0,16.696,7.49,16.696,16.696S265.206,66.783,256,66.783v33.391
	c27.619,0,50.087-22.468,50.087-50.087S283.619,0,256,0z"/>
<path style="fill:#6A563D;" d="M409.066,200.348H102.934c-5.631,0-10.886-2.837-13.973-7.554
	c-3.082-4.717-3.582-10.663-1.326-15.826C116.886,110.032,182.968,66.783,256,66.783s139.119,43.25,168.37,110.185
	c2.249,5.163,1.75,11.108-1.337,15.826C419.947,197.512,414.695,200.348,409.066,200.348z"/>
<path style="fill:#554431;" d="M256,66.783v133.565h153.066c5.631,0,10.88-2.837,13.968-7.554
	c3.088-4.717,3.587-10.663,1.337-15.826C395.119,110.032,329.032,66.783,256,66.783z"/>
<path style="fill:#FFDA44;" d="M356.174,500.87H155.826c-8.348,0-15.413-6.163-16.543-14.435l-33.391-233.739
	c-0.652-4.783,0.794-9.609,3.967-13.24c3.169-3.63,7.756-5.717,12.576-5.717h267.13c4.826,0,9.402,2.087,12.576,5.718
	c3.174,3.631,4.619,8.457,3.967,13.24l-33.391,233.739C371.587,494.707,364.522,500.87,356.174,500.87z"/>
<path style="fill:#FFB655;" d="M389.565,233.739H256v267.13h100.174c8.348,0,15.413-6.163,16.543-14.435l33.391-233.739
	c0.652-4.783-0.794-9.609-3.967-13.24C398.968,235.825,394.391,233.739,389.565,233.739z"/>
<path style="fill:#6A563D;" d="M422.957,267.13H89.043c-27.619,0-50.087-22.468-50.087-50.087s22.468-50.087,50.087-50.087h333.913
	c27.619,0,50.087,22.468,50.087,50.087S450.576,267.13,422.957,267.13z"/>
<path style="fill:#554431;" d="M422.957,166.957H256V267.13h166.957c27.619,0,50.087-22.468,50.087-50.087
	S450.576,166.957,422.957,166.957z"/>
<path style="fill:#6A563D;" d="M256,512c-9.217,0-16.696-7.479-16.696-16.696v-244.87c0-9.217,7.479-16.696,16.696-16.696
	s16.696,7.479,16.696,16.696v244.87C272.696,504.521,265.217,512,256,512z"/>
<path style="fill:#554431;" d="M256,233.739V512c9.217,0,16.696-7.479,16.696-16.696v-244.87
	C272.696,241.218,265.217,233.739,256,233.739z"/>
<path style="fill:#6A563D;" d="M389.565,512h-267.13c-9.223,0-16.696-7.479-16.696-16.696c0-9.217,7.473-16.696,16.696-16.696
	h267.13c9.217,0,16.696,7.479,16.696,16.696C406.261,504.521,398.782,512,389.565,512z"/>
<path style="fill:#554431;" d="M389.565,478.609H256V512h133.565c9.217,0,16.696-7.479,16.696-16.696
	C406.261,486.087,398.782,478.609,389.565,478.609z"/>
</svg>