<?xml version="1.0" encoding="UTF-8" standalone="no"?>
<!-- Generator: Adobe Illustrator 19.0.0, SVG Export Plug-In . SVG Version: 6.00 Build 0)  -->

<svg
   version="1.1"
   id="Layer_1"
   x="0px"
   y="0px"
   viewBox="0 0 291.96695 331.86304"
   xml:space="preserve"
   sodipodi:docname="lamps-table-color-off.svg"
   inkscape:version="1.2 (dc2aedaf03, 2022-05-15)"
   width="291.96695"
   height="331.86304"
   xmlns:inkscape="http://www.inkscape.org/namespaces/inkscape"
   xmlns:sodipodi="http://sodipodi.sourceforge.net/DTD/sodipodi-0.dtd"
   xmlns="http://www.w3.org/2000/svg"
   xmlns:svg="http://www.w3.org/2000/svg"><defs
   id="defs1104" /><sodipodi:namedview
   id="namedview1102"
   pagecolor="#ffffff"
   bordercolor="#000000"
   borderopacity="0.25"
   inkscape:showpageshadow="2"
   inkscape:pageopacity="0.0"
   inkscape:pagecheckerboard="0"
   inkscape:deskcolor="#d1d1d1"
   showgrid="false"
   inkscape:zoom="1.897039"
   inkscape:cx="-15.55055"
   inkscape:cy="167.62966"
   inkscape:window-width="1920"
   inkscape:window-height="1027"
   inkscape:window-x="-8"
   inkscape:window-y="-8"
   inkscape:window-maximized="1"
   inkscape:current-layer="Layer_1" />


<path
   style="fill:#484537"
   d="m 192.37779,309.40009 h -30.779 v -146.393 c 0,-4.284 -3.474,-7.758 -7.758,-7.758 -4.284,0 -7.758,3.474 -7.758,7.758 v 146.392 h -30.779 c -4.284,0 -7.758,3.474 -7.758,7.758 0,4.284 3.474,7.758 7.758,7.758 h 77.074 c 4.284,0 7.758,-3.474 7.758,-7.758 0,-4.284 -3.472,-7.757 -7.758,-7.757 z"
   id="path1061" />
<path
   style="fill:#fee187"
   d="m 192.37779,309.40009 h -30.779 v -146.393 c 0,-4.284 -3.474,-7.758 -7.758,-7.758 v 169.665 h 38.536 c 4.284,0 7.758,-3.474 7.758,-7.758 0,-4.284 -3.471,-7.756 -7.757,-7.756 z"
   id="path1063" />



<g
   id="g1071"
   transform="translate(-90.068474,-91.27745)">
</g>
<g
   id="g1073"
   transform="translate(-90.068474,-91.27745)">
</g>
<g
   id="g1075"
   transform="translate(-90.068474,-91.27745)">
</g>
<g
   id="g1077"
   transform="translate(-90.068474,-91.27745)">
</g>
<g
   id="g1079"
   transform="translate(-90.068474,-91.27745)">
</g>
<g
   id="g1081"
   transform="translate(-90.068474,-91.27745)">
</g>
<g
   id="g1083"
   transform="translate(-90.068474,-91.27745)">
</g>
<g
   id="g1085"
   transform="translate(-90.068474,-91.27745)">
</g>
<g
   id="g1087"
   transform="translate(-90.068474,-91.27745)">
</g>
<g
   id="g1089"
   transform="translate(-90.068474,-91.27745)">
</g>
<g
   id="g1091"
   transform="translate(-90.068474,-91.27745)">
</g>
<g
   id="g1093"
   transform="translate(-90.068474,-91.27745)">
</g>
<g
   id="g1095"
   transform="translate(-90.068474,-91.27745)">
</g>
<g
   id="g1097"
   transform="translate(-90.068474,-91.27745)">
</g>
<g
   id="g1099"
   transform="translate(-90.068474,-91.27745)">
</g>
<path
   style="fill:#24221c;stroke-width:0.604486"
   d="m 153.84179,256.03024 v -68.94169 h 3.62692 3.62692 v 61.32883 61.32882 l 17.21715,0.17767 17.21715,0.17766 1.86899,1.86991 c 2.5218,2.52302 3.02084,6.024 1.2639,8.86678 -2.29055,3.7062 -2.58055,3.75256 -24.72186,3.95235 l -20.09917,0.18137 z"
   id="path1317" /><path
   style="fill:#1a1a1a;stroke-width:0.604486"
   d="m 153.83169,256 c 0,-38.06754 0.0725,-53.64062 0.16113,-34.60685 0.0886,19.03376 0.0886,50.17993 0,69.21369 -0.0886,19.03377 -0.16113,3.46069 -0.16113,-34.60684 z"
   id="path19205" /><path
   style="fill:#1a1a1a;stroke-width:0.604486"
   d="m 113.75508,324.31336 c -6.22929,-1.47441 -7.83353,-9.6042 -2.59131,-13.13188 2.01532,-1.35618 2.36513,-1.38219 18.58796,-1.38219 h 16.53398 v -61.35537 -61.35538 h 3.62692 3.62692 V 256 324.91145 l -18.8902,-0.0619 c -10.38961,-0.034 -19.79204,-0.27533 -20.89427,-0.53621 z"
   id="path19207" /><path
   style="fill:#e1961a;stroke-width:0.946184;fill-opacity:0.97927457"
   d="M 224.42795,4.1632888 H 79.628734 c -7.269577,0 -13.163564,7.7955212 -13.163564,17.4104312 v 121.87736 c 0,9.6149 5.893987,17.41041 13.163564,17.41041 H 224.42795 c 7.26958,0 13.16357,-7.79551 13.16357,-17.41041 V 21.57372 c 0,-9.61491 -5.89399,-17.4104312 -13.16357,-17.4104312 z"
   id="path1871" /><path
   style="fill:#e68b0f;stroke-width:0.962085;fill-opacity:1"
   d="m 196.85479,116.3353 c 0,14.50697 -9.0874,26.26683 -20.29754,26.26683 H 88.601341 c -7.473715,0 -13.531681,7.83954 -13.531681,17.51122 h 101.48759 13.53168 33.82922 c 7.47369,0 13.53167,-7.83957 13.53167,-17.51122 v -122.57851 0 0 c -22.4203,0 -40.59503,23.519751 -40.59503,52.533647 z"
   id="path1879" /><path
   style="fill:#000000;stroke-width:0.604486"
   d="m 154.14404,178.02125 v -9.0673 h 3.62691 3.62692 v 9.0673 9.06729 h -3.62692 -3.62691 z"
   id="path19388" /><path
   style="fill:#000000;stroke-width:0.604486"
   d="m 146.28571,178.02125 v -9.0673 h 3.62692 3.62692 v 9.0673 9.06729 h -3.62692 -3.62692 z"
   id="path19390" /><path
   style="fill:#000000;stroke-width:0.604486"
   d="m 154.14404,255.96032 v -68.87178 h 3.32467 3.32468 v 61.26486 61.26485 l 5.53324,0.39276 c 3.04328,0.21602 10.91798,0.39276 17.49934,0.39276 h 11.9661 l 1.53697,2.01506 c 2.07876,2.72541 2.50446,5.22071 1.29098,7.56731 -2.11371,4.08748 -2.20944,4.10262 -28.91046,4.5722 l -15.56552,0.27375 z"
   id="path19392" /><path
   style="fill:#000000;stroke-width:0.604486"
   d="m 154.14404,164.99462 v -3.95932 l 3.47579,0.18128 3.4758,0.18129 0.17997,3.77804 0.17996,3.77804 h -3.65576 -3.65576 z"
   id="path19422" /><path
   style="fill:#000000;stroke-width:0.604486"
   d="m 146.40799,165.17591 0.17997,-3.77804 3.47579,-0.18129 3.4758,-0.18128 v 3.95932 3.95933 h -3.65576 -3.65577 z"
   id="path19424" /></svg>
