<?xml version="1.0" encoding="UTF-8" standalone="no"?>
<!-- Generator: Adobe Illustrator 19.0.0, SVG Export Plug-In . SVG Version: 6.00 Build 0)  -->

<svg
   version="1.1"
   id="Layer_1"
   x="0px"
   y="0px"
   viewBox="0 0 512 512"
   style="enable-background:new 0 0 512 512;"
   xml:space="preserve"
   sodipodi:docname="lamp-lantern.svg"
   inkscape:version="1.2 (dc2aedaf03, 2022-05-15)"
   xmlns:inkscape="http://www.inkscape.org/namespaces/inkscape"
   xmlns:sodipodi="http://sodipodi.sourceforge.net/DTD/sodipodi-0.dtd"
   xmlns="http://www.w3.org/2000/svg"
   xmlns:svg="http://www.w3.org/2000/svg"><defs
   id="defs1147" /><sodipodi:namedview
   id="namedview1145"
   pagecolor="#ffffff"
   bordercolor="#000000"
   borderopacity="0.25"
   inkscape:showpageshadow="2"
   inkscape:pageopacity="0.0"
   inkscape:pagecheckerboard="0"
   inkscape:deskcolor="#d1d1d1"
   showgrid="false"
   inkscape:zoom="1.6542969"
   inkscape:cx="255.69776"
   inkscape:cy="256.90673"
   inkscape:window-width="1920"
   inkscape:window-height="1027"
   inkscape:window-x="-8"
   inkscape:window-y="-8"
   inkscape:window-maximized="1"
   inkscape:current-layer="Layer_1" />
<path
   style="fill:#6A563D;"
   d="M256,0c-27.619,0-50.087,22.468-50.087,50.087s22.468,50.087,50.087,50.087  s50.087-22.468,50.087-50.087S283.619,0,256,0z M256,66.783c-9.206,0-16.696-7.49-16.696-16.696s7.49-16.696,16.696-16.696  s16.696,7.49,16.696,16.696S265.206,66.783,256,66.783z"
   id="path1090" />
<path
   style="fill:#554431;"
   d="M256,0v33.391c9.206,0,16.696,7.49,16.696,16.696S265.206,66.783,256,66.783v33.391  c27.619,0,50.087-22.468,50.087-50.087S283.619,0,256,0z"
   id="path1092" />
<path
   style="fill:#6A563D;"
   d="M409.066,200.348H102.934c-5.631,0-10.886-2.837-13.973-7.554  c-3.082-4.717-3.582-10.663-1.326-15.826C116.886,110.032,182.968,66.783,256,66.783s139.119,43.25,168.37,110.185  c2.249,5.163,1.75,11.108-1.337,15.826C419.947,197.512,414.695,200.348,409.066,200.348z"
   id="path1094" />
<path
   style="fill:#554431;"
   d="M256,66.783v133.565h153.066c5.631,0,10.88-2.837,13.968-7.554  c3.088-4.717,3.587-10.663,1.337-15.826C395.119,110.032,329.032,66.783,256,66.783z"
   id="path1096" />
<path
   style="fill:#FFDA44;"
   d="M356.174,500.87H155.826c-8.348,0-15.413-6.163-16.543-14.435l-33.391-233.739  c-0.652-4.783,0.794-9.609,3.967-13.24c3.169-3.63,7.756-5.717,12.576-5.717h267.13c4.826,0,9.402,2.087,12.576,5.718  c3.174,3.631,4.619,8.457,3.967,13.24l-33.391,233.739C371.587,494.707,364.522,500.87,356.174,500.87z"
   id="path1098" />
<path
   style="fill:#FFB655;"
   d="M389.565,233.739H256v267.13h100.174c8.348,0,15.413-6.163,16.543-14.435l33.391-233.739  c0.652-4.783-0.794-9.609-3.967-13.24C398.968,235.825,394.391,233.739,389.565,233.739z"
   id="path1100" />
<path
   style="fill:#6A563D;"
   d="M422.957,267.13H89.043c-27.619,0-50.087-22.468-50.087-50.087s22.468-50.087,50.087-50.087h333.913  c27.619,0,50.087,22.468,50.087,50.087S450.576,267.13,422.957,267.13z"
   id="path1102" />
<path
   style="fill:#554431;"
   d="M422.957,166.957H256V267.13h166.957c27.619,0,50.087-22.468,50.087-50.087  S450.576,166.957,422.957,166.957z"
   id="path1104" />
<path
   style="fill:#6A563D;"
   d="M256,512c-9.217,0-16.696-7.479-16.696-16.696v-244.87c0-9.217,7.479-16.696,16.696-16.696  s16.696,7.479,16.696,16.696v244.87C272.696,504.521,265.217,512,256,512z"
   id="path1106" />
<path
   style="fill:#554431;"
   d="M256,233.739V512c9.217,0,16.696-7.479,16.696-16.696v-244.87  C272.696,241.218,265.217,233.739,256,233.739z"
   id="path1108" />
<path
   style="fill:#6A563D;"
   d="M389.565,512h-267.13c-9.223,0-16.696-7.479-16.696-16.696c0-9.217,7.473-16.696,16.696-16.696  h267.13c9.217,0,16.696,7.479,16.696,16.696C406.261,504.521,398.782,512,389.565,512z"
   id="path1110" />
<path
   style="fill:#554431;"
   d="M389.565,478.609H256V512h133.565c9.217,0,16.696-7.479,16.696-16.696  C406.261,486.087,398.782,478.609,389.565,478.609z"
   id="path1112" />
<g
   id="g1114">
</g>
<g
   id="g1116">
</g>
<g
   id="g1118">
</g>
<g
   id="g1120">
</g>
<g
   id="g1122">
</g>
<g
   id="g1124">
</g>
<g
   id="g1126">
</g>
<g
   id="g1128">
</g>
<g
   id="g1130">
</g>
<g
   id="g1132">
</g>
<g
   id="g1134">
</g>
<g
   id="g1136">
</g>
<g
   id="g1138">
</g>
<g
   id="g1140">
</g>
<g
   id="g1142">
</g>
<path
   style="fill:#4d4d4d;stroke-width:0.604486"
   d="M 256.30224,356.38305 V 234.31509 l 1.96458,-0.2438 1.96458,-0.24381 -1.96458,-0.0967 -1.96458,-0.0967 V 200.38725 167.1405 h 85.16581 c 92.35592,0 89.67551,-0.0888 98.95057,3.27787 13.10972,4.75857 24.87844,16.84976 29.59159,30.40241 2.96826,8.53521 3.43697,20.35886 1.14504,28.88406 -3.94612,14.67815 -15.36735,27.72323 -29.14433,33.28799 -9.47438,3.82688 -2.87918,3.55267 -90.0487,3.74399 l -79.33884,0.17412 V 372.68097 478.451 h -8.16057 -8.16057 z m 16.12958,-109.56369 c -0.19296,-0.48221 -0.3362,-0.33898 -0.36521,0.36522 -0.0262,0.63722 0.11662,0.99425 0.31749,0.79338 0.20087,-0.20087 0.22234,-0.72224 0.0477,-1.1586 z m -1.54689,-4.27926 c -0.597,-0.59255 -0.66644,-0.52312 -0.33839,0.33839 0.227,0.59616 0.56501,0.93165 0.75112,0.74553 0.18611,-0.18611 3.8e-4,-0.67387 -0.41273,-1.08392 z m -2.17332,-3.43757 c -0.19591,-0.31699 -1.23203,-1.15893 -2.3025,-1.87099 -1.93799,-1.28911 -1.93727,-1.28672 0.1694,0.56008 2.23262,1.95722 2.71622,2.25442 2.1331,1.31091 z"
   id="path1149" /><path
   style="fill:#808080;stroke-width:0.604486"
   d="M 256.30224,116.74376 V 66.951502 l 2.9143,-0.386594 c 5.19003,-0.688485 10.23878,-4.842311 12.51918,-10.300093 1.39512,-3.338991 1.24868,-9.332388 -0.3145,-12.871452 -2.26379,-5.125252 -7.30432,-9.083108 -12.85215,-10.091578 l -2.26683,-0.412057 V 16.595986 0.30224321 l 2.26683,0.007941 c 4.16706,0.0145982 13.17522,2.24652009 17.92576,4.44140609 17.9952,8.3142957 29.3797,26.0419547 29.36279,45.7230257 -0.004,5.141019 -1.90163,14.205286 -3.87585,18.517559 -0.86318,1.88543 -1.4975,3.474836 -1.4096,3.532021 0.0879,0.05718 2.47199,0.721557 5.29796,1.476397 9.24859,2.470367 20.0603,6.678221 31.13105,12.116012 33.35924,16.385585 60.52314,42.085295 79.11462,74.850195 1.53631,2.70753 2.79329,5.06823 2.79329,5.246 0,0.17776 -36.58654,0.32321 -81.30342,0.32321 h -81.30343 z m 43.35931,-44.872845 c -0.20087,-0.200865 -0.72223,-0.222336 -1.1586,-0.04769 -0.48222,0.192964 -0.33898,0.336203 0.36521,0.365206 0.63723,0.02623 0.99426,-0.116617 0.79339,-0.317488 z m -2.41794,-0.604486 c -0.20087,-0.200865 -0.72224,-0.222337 -1.1586,-0.04769 -0.48222,0.192964 -0.33899,0.336203 0.36521,0.365206 0.63723,0.02623 0.99425,-0.116617 0.79339,-0.317488 z m -2.7076,-0.639614 c -0.41558,-0.16769 -1.09563,-0.16769 -1.51122,0 -0.41558,0.167691 -0.0756,0.304897 0.75561,0.304897 0.83117,0 1.17119,-0.137206 0.75561,-0.304897 z m -3.02243,-0.604486 c -0.41559,-0.167691 -1.09563,-0.167691 -1.51122,0 -0.41558,0.167691 -0.0756,0.304897 0.75561,0.304897 0.83117,0 1.17119,-0.137206 0.75561,-0.304897 z m -3.01093,-0.600654 c -0.40926,-0.165581 -1.22531,-0.175658 -1.81346,-0.02237 -0.58815,0.153261 -0.2533,0.288739 0.7441,0.301058 0.99741,0.01233 1.47862,-0.113075 1.06936,-0.278662 z m -3.62692,-0.604486 c -0.40926,-0.165581 -1.22531,-0.175658 -1.81346,-0.02237 -0.58814,0.153261 -0.2533,0.288739 0.74411,0.301058 0.9974,0.01233 1.47861,-0.113075 1.06935,-0.278662 z m -4.54515,-0.624671 c -0.58182,-0.15204 -1.53389,-0.15204 -2.1157,0 -0.58182,0.152047 -0.10579,0.27645 1.05785,0.27645 1.16363,0 1.63967,-0.124403 1.05785,-0.27645 z m -5.13814,-0.6144 c -0.74805,-0.144085 -1.97213,-0.144085 -2.72018,0 -0.74806,0.14408 -0.13601,0.261967 1.36009,0.261967 1.4961,0 2.10815,-0.117887 1.36009,-0.261967 z m -7.25383,-0.620493 c -1.41299,-0.127262 -3.72515,-0.127262 -5.13814,0 -1.41298,0.127269 -0.2569,0.231398 2.56907,0.231398 2.82597,0 3.98205,-0.104129 2.56907,-0.231398 z"
   id="path1151" /><path
   style="fill:#808080;stroke-width:0.604486"
   d="m 117.25186,510.7693 c -3.7664,-1.16105 -7.44751,-4.49631 -9.42616,-8.54051 -4.02606,-8.22898 -0.33948,-18.0397 8.23569,-21.91685 2.67657,-1.21018 3.68714,-1.23011 63.01771,-1.24318 l 60.29752,-0.0133 V 372.96812 266.88076 l -76.92089,-0.005 c -50.44036,-0.003 -78.273542,-0.22154 -80.850063,-0.63483 -35.578134,-5.70696 -53.808274,-46.12414 -34.290108,-76.02297 9.23814,-14.15141 25.462413,-23.05253 42.076492,-23.08441 l 3.396615,-0.007 2.417946,-4.63658 c 3.507659,-6.72616 11.991798,-19.46222 17.841978,-26.78367 7.04854,-8.82119 21.23546,-22.78553 30.09533,-29.62315 18.69365,-14.426856 39.08865,-24.906341 61.17249,-31.432014 3.82338,-1.129791 7.02312,-2.093741 7.11054,-2.142118 0.0874,-0.04836 -0.4878,-1.557865 -1.27828,-3.354423 -9.5126,-21.61978 -0.95257,-48.345882 19.58427,-61.145932 7.10676,-4.4294505 17.04285,-7.6115446 24.00024,-7.68623047 l 1.96458,-0.0210893 V 16.573286 32.84433 l -3.05264,0.654674 c -3.96185,0.849665 -5.81257,1.84618 -8.57374,4.616528 -6.50157,6.523175 -6.62647,17.077497 -0.28127,23.76723 2.34429,2.471576 7.26295,4.899024 9.94307,4.907082 l 1.96458,0.006 V 289.24689 511.6979 l -67.8536,-0.0421 c -56.28333,-0.0349 -68.3206,-0.18606 -70.5923,-0.88635 z"
   id="path1153" /><path
   style="fill:#4d4d4d;stroke-width:0.604486"
   d="M 256.30224,116.97964 V 67.423267 l 1.66234,-0.341239 c 4.84354,-0.994283 6.57542,-1.80172 9.26932,-4.321546 4.13142,-3.864461 5.59207,-7.172287 5.55719,-12.584939 -0.034,-5.274128 -1.42699,-8.791635 -4.77033,-12.045634 -2.83831,-2.762471 -5.92559,-4.413589 -9.2451,-4.944401 l -2.47342,-0.395514 V 16.50908 0.22816594 l 2.87131,0.37970144 c 11.5058,1.52152452 18.96509,4.39706322 26.74853,10.31150362 17.50283,13.299961 24.07715,37.091485 15.89637,57.526711 -0.84596,2.11317 -1.42667,3.953571 -1.29046,4.08978 0.13621,0.136209 3.50206,1.228794 7.47967,2.427968 13.82169,4.166979 30.45085,11.612396 43.26611,19.371644 25.77655,15.606936 48.71625,39.229986 63.94845,65.853426 l 3.11263,5.44038 -38.85337,0.36685 c -21.36936,0.20177 -57.8267,0.40579 -81.01631,0.45337 l -42.16293,0.0865 z m 43.35931,-45.108725 c -0.20087,-0.200865 -0.72223,-0.222336 -1.1586,-0.04769 -0.48222,0.192964 -0.33898,0.336203 0.36521,0.365206 0.63723,0.02623 0.99426,-0.116617 0.79339,-0.317488 z m -2.41794,-0.604486 c -0.20087,-0.200865 -0.72224,-0.222337 -1.1586,-0.04769 -0.48222,0.192964 -0.33899,0.336203 0.36521,0.365206 0.63723,0.02623 0.99425,-0.116617 0.79339,-0.317488 z m -2.7076,-0.639614 c -0.41558,-0.16769 -1.09563,-0.16769 -1.51122,0 -0.41558,0.167691 -0.0756,0.304897 0.75561,0.304897 0.83117,0 1.17119,-0.137206 0.75561,-0.304897 z m -3.02243,-0.604486 c -0.41559,-0.167691 -1.09563,-0.167691 -1.51122,0 -0.41558,0.167691 -0.0756,0.304897 0.75561,0.304897 0.83117,0 1.17119,-0.137206 0.75561,-0.304897 z m -3.02243,-0.604486 c -0.41559,-0.167691 -1.09564,-0.167691 -1.51122,0 -0.41559,0.16769 -0.0756,0.304896 0.75561,0.304896 0.83117,0 1.17119,-0.137206 0.75561,-0.304896 z m -3.62692,-0.604487 c -0.41559,-0.16769 -1.09563,-0.16769 -1.51122,0 -0.41558,0.167691 -0.0756,0.304897 0.75561,0.304897 0.83117,0 1.17119,-0.137206 0.75561,-0.304897 z m -4.83589,-0.604486 c -0.41559,-0.167691 -1.09564,-0.167691 -1.51122,0 -0.41559,0.16769 -0.0756,0.304897 0.75561,0.304897 0.83117,0 1.17119,-0.137207 0.75561,-0.304897 z m -5.13814,-0.620838 c -0.58182,-0.152041 -1.53388,-0.152041 -2.1157,0 -0.58182,0.152046 -0.10579,0.27645 1.05785,0.27645 1.16364,0 1.63967,-0.124404 1.05785,-0.27645 z m -7.85832,-0.620759 c -0.91429,-0.138506 -2.41039,-0.138506 -3.32468,0 -0.91428,0.1385 -0.16623,0.251823 1.66234,0.251823 1.82857,0 2.57662,-0.113323 1.66234,-0.251823 z"
   id="path1224" /></svg>
