<?xml version="1.0" encoding="UTF-8" standalone="no"?>
<!-- Generator: Adobe Illustrator 19.0.0, SVG Export Plug-In . SVG Version: 6.00 Build 0)  -->

<svg
   version="1.1"
   id="Layer_1"
   x="0px"
   y="0px"
   viewBox="0 0 442.17 442.17"
   style="enable-background:new 0 0 442.17 442.17;"
   xml:space="preserve"
   sodipodi:docname="lamp-tree-red-edited.svg"
   inkscape:version="1.2 (dc2aedaf03, 2022-05-15)"
   xmlns:inkscape="http://www.inkscape.org/namespaces/inkscape"
   xmlns:sodipodi="http://sodipodi.sourceforge.net/DTD/sodipodi-0.dtd"
   xmlns="http://www.w3.org/2000/svg"
   xmlns:svg="http://www.w3.org/2000/svg"><defs
   id="defs7500" /><sodipodi:namedview
   id="namedview7498"
   pagecolor="#ffffff"
   bordercolor="#000000"
   borderopacity="0.25"
   inkscape:showpageshadow="2"
   inkscape:pageopacity="0.0"
   inkscape:pagecheckerboard="0"
   inkscape:deskcolor="#d1d1d1"
   showgrid="false"
   inkscape:zoom="1.9155528"
   inkscape:cx="162.87726"
   inkscape:cy="138.34127"
   inkscape:window-width="1920"
   inkscape:window-height="1027"
   inkscape:window-x="-8"
   inkscape:window-y="-8"
   inkscape:window-maximized="1"
   inkscape:current-layer="Layer_1" />
<g
   id="g7465">
	<path
   style="fill:#d45500"
   d="M330.283,133.36c0-60.308-48.889-109.198-109.197-109.198S111.888,73.051,111.888,133.36H330.283"
   id="path7449" />
	
	<path
   style="fill:#803300"
   d="M221.086,24.162c-60.308,0-109.198,48.889-109.198,109.198h49   c0-51.885,36.186-95.316,84.697-106.436c-7.444-1.707-15.178-2.654-23.116-2.753c-0.004,0-0.013,0-0.016,0   c-0.057-0.001-0.114-0.001-0.171-0.002c-0.015,0-0.03,0-0.045,0c-0.047,0-0.093-0.001-0.139-0.001c-0.022,0-0.04,0-0.062-0.001   c-0.042,0-0.084-0.001-0.126-0.001c-0.022,0-0.045,0-0.067,0c-0.04,0-0.08,0-0.12-0.001c-0.026,0-0.046,0-0.071,0   c-0.04,0-0.079,0-0.12-0.001c-0.022,0-0.047,0-0.069,0c-0.043,0-0.087,0-0.13,0c-0.018,0-0.04,0-0.059,0   C221.212,24.162,221.148,24.162,221.086,24.162L221.086,24.162"
   id="path7453" />
	<path
   style="fill:#FFFFFF;"
   d="M306.796,111.238c-2.521,0-4.868-1.602-5.698-4.127c-7.474-22.723-24.352-41.279-46.309-50.909   c-3.034-1.331-4.416-4.87-3.085-7.905s4.871-4.416,7.905-3.085c25.074,10.997,44.351,32.192,52.887,58.149   c1.036,3.148-0.677,6.539-3.825,7.574C308.047,111.141,307.416,111.238,306.796,111.238z"
   id="path7455" />
	<path
   style="fill:#FFFFFF;"
   d="M236.928,50.554c-1.58,0-3.13-0.64-4.25-1.76c-1.11-1.11-1.75-2.66-1.75-4.24   c0-0.39,0.04-0.79,0.11-1.17c0.08-0.39,0.199-0.76,0.35-1.13c0.14-0.36,0.33-0.71,0.55-1.03c0.21-0.33,0.47-0.64,0.74-0.91   c1.12-1.12,2.67-1.76,4.25-1.76s3.12,0.64,4.24,1.76c0.27,0.27,0.529,0.58,0.739,0.91c0.221,0.32,0.41,0.67,0.561,1.03   c0.15,0.37,0.26,0.74,0.34,1.13c0.08,0.38,0.12,0.78,0.12,1.17c0,1.58-0.65,3.13-1.76,4.24   C240.049,49.914,238.508,50.554,236.928,50.554z"
   id="path7457" />
	
	
	<path
   id="path7463"
   style="fill:#333333;"
   d="m 233.0293,18.783203 c -2.26308,0.17082 -4.52922,0.306236 -6.79688,0.394531 -1.78414,0.06728 -3.56833,0.09472 -5.35351,0.113282 -1.65058,0.01575 -3.30249,0.01908 -4.95313,0.02148 -2.37413,0.01355 -4.74339,-0.182315 -7.11328,-0.302734 -0.30369,-0.01543 -0.59423,-0.04364 -0.88086,-0.07422 -57.34402,6.551727 -102.04297,55.355407 -102.04297,114.423833 0,3.31382 2.68718,6 6,6 h 96.32617 c 1.88096,-1.26071 4.00476,-1.74174 6.17969,-1.8418 0.73216,-0.0337 1.46847,-0.023 2.20508,0.0137 2.8107,0.14982 5.62911,0.36839 8.38281,0.98242 1.17471,0.26056 2.34376,0.54304 3.50781,0.84571 h 25.79883 c 1.52669,-0.2787 3.05851,-0.52516 4.60938,-0.63868 2.12494,-0.20295 4.26298,-0.35786 6.39844,-0.32226 2.19599,0.0444 4.39698,0.0768 6.58398,0.29687 0.92618,0.14302 1.92161,0.3414 2.86914,0.66407 h 55.53125 c 3.313,0 6,-2.68618 6,-6 C 336.28222,73.872437 290.95589,24.777998 233.0293,18.783203 Z m -11.94336,11.378906 c 54.88792,0 99.90544,43.076153 103.02344,97.197271 H 118.06055 c 3.11882,-54.120118 48.13729,-97.197271 103.02539,-97.197271 z m 3.80859,127.039061 c -0.057,0.006 -0.12502,0.14364 -0.21875,0.3125 l 0.36524,-0.29297 c -0.0754,-0.0136 -0.1184,-0.0226 -0.14649,-0.0195 z m 43.07422,1.29297 c -0.15654,0.0134 -0.38482,0.26881 -0.62305,0.58008 0.14534,-0.0784 0.29015,-0.17883 0.44141,-0.3125 0.0611,-0.0893 0.28945,-0.27658 0.18164,-0.26758 z m -52.78516,194.86719 c -0.0333,0.0352 -0.064,0.0791 -0.0977,0.11328 v 2.59961 c 0.0337,-0.6068 0.0919,-1.21132 0.10742,-1.82031 0.009,-0.33833 -0.0113,-0.58348 -0.01,-0.89258 z" />
</g>
<g
   id="g7467">
</g>
<g
   id="g7469">
</g>
<g
   id="g7471">
</g>
<g
   id="g7473">
</g>
<g
   id="g7475">
</g>
<g
   id="g7477">
</g>
<g
   id="g7479">
</g>
<g
   id="g7481">
</g>
<g
   id="g7483">
</g>
<g
   id="g7485">
</g>
<g
   id="g7487">
</g>
<g
   id="g7489">
</g>
<g
   id="g7491">
</g>
<g
   id="g7493">
</g>
<g
   id="g7495">
</g>
<path
   id="path6662"
   style="fill:#2b1100"
   d="m 223.82422,17.515625 -0.0703,0.642578 c 0.0478,0.005 0.0948,0.009 0.14257,0.01563 z m -2.80078,31.072266 c -0.17957,0.0572 -0.38837,0.306457 -0.57422,0.544921 0.29371,-0.147974 0.56137,-0.315496 0.72461,-0.535156 -0.0461,-0.0246 -0.0961,-0.02609 -0.15039,-0.0098 z m 18.08594,86.880859 c -10.09397,0.15599 -20.16898,0.83199 -30.24024,1.51367 0.40352,6.43723 0.30618,12.93139 -0.30859,19.48242 l -12.74414,116.01954 c -11.33689,-1.34 -22.08223,-1.8355 -29.82618,-0.5625 -3.50426,0.57642 -7.2199,1.56207 -10.9375,2.80078 0.27751,2.31782 0.52664,4.63917 0.70508,6.96679 0.16894,2.33322 0.22814,4.6715 0.27344,7.00977 0.0367,0.84815 0.003,1.69337 -0.0566,2.53711 23.16064,-1.38386 48.897,7.30238 69.18164,12.71289 18.40578,4.90994 37.91775,7.20267 56.76953,3.51367 2.90981,-0.56659 5.97001,-1.36054 9.05664,-2.33984 -0.0453,-0.60125 -0.0978,-1.20183 -0.16992,-1.80078 -0.24456,-1.82128 -0.38527,-3.65302 -0.62891,-5.47461 -0.40925,-2.98917 -0.85966,-5.97179 -1.29492,-8.95704 -10.2747,0.17098 -21.58909,-1.70824 -34.34961,-4.86718 0,0 -0.42973,-0.11341 -1.2207,-0.31641 L 239.625,160.12305 c -0.97746,-8.32774 -1.17257,-16.54201 -0.51562,-24.6543 z m -94.69922,156.17383 c -0.24567,0.45079 -0.48361,0.90534 -0.72266,1.35937 0.17768,-0.0445 0.35891,-0.0783 0.53711,-0.12109 0.0676,-0.41178 0.13305,-0.82424 0.18555,-1.23828 z" /><path
   style="fill:#ff7f2a;stroke-width:0.522043"
   d="m 161.54262,123.59357 c 2.51741,-25.121463 12.76978,-47.618393 29.77405,-65.333678 8.99065,-9.366588 18.70642,-16.571399 29.92213,-22.189011 9.54428,-4.780441 10.78004,-5.140671 15.31505,-4.464408 9.73691,1.451974 19.13744,4.406889 28.99812,9.115128 28.94341,13.819783 49.95741,40.727647 56.3104,72.103949 0.70728,3.49314 1.43699,8.13781 1.62158,10.32149 l 0.33561,3.97031 H 242.50453 161.1895 Z m 149.35105,-13.71992 c 2.25058,-2.11431 2.57293,-4.20386 1.26638,-8.209 -1.5834,-4.853802 -6.59317,-15.248833 -9.62193,-19.964997 -9.35336,-14.564395 -22.54754,-26.536642 -37.80503,-34.303844 -6.84822,-3.486257 -9.1631,-3.678823 -11.8557,-0.986229 -1.49536,1.495361 -1.77494,2.146895 -1.77494,4.136286 0,3.241981 1.48677,4.846333 7.04225,7.599183 8.0907,4.009097 15.14419,9.141457 21.93111,15.957814 9.30686,9.34723 14.99963,18.066061 19.61239,30.037567 1.53031,3.97161 2.26739,5.21097 3.67964,6.18715 2.22121,1.53533 5.62702,1.32991 7.52583,-0.45393 z M 239.66652,50.090737 c 1.81197,-0.937001 3.60052,-3.606038 3.60334,-5.377206 0.005,-3.290785 -2.99691,-6.343406 -6.23852,-6.343406 -6.50064,0 -8.71042,8.862387 -2.92207,11.719093 2.04606,1.009788 3.60665,1.010215 5.55725,0.0015 z m -18.32049,-1.279762 c 0,-0.287123 -0.1036,-0.522042 -0.23021,-0.522042 -0.12662,0 -0.37541,0.234919 -0.55286,0.522042 -0.17745,0.287123 -0.0739,0.522043 0.23021,0.522043 0.30407,0 0.55286,-0.23492 0.55286,-0.522043 z"
   id="path18217" /><path
   style="fill:#d45500;stroke-width:0.522043"
   d="m 118.69183,123.06088 c 0.98818,-11.84906 5.46385,-26.688089 11.36386,-37.676671 16.23834,-30.24341 45.83184,-50.444677 79.54438,-54.298994 5.67145,-0.648411 19.55996,-0.705706 20.53977,-0.08474 0.5121,0.324546 0.30012,0.545266 -0.78306,0.815393 -2.39504,0.597281 -13.62461,6.405215 -18.44487,9.539693 -28.56648,18.575955 -46.39186,47.982546 -49.85017,82.237999 l -0.35575,3.52379 h -21.17623 -21.17622 z"
   id="path18288" /><path
   style="fill:#ff6600;stroke-width:0.522043"
   d="m 161.62334,124.63765 c 0.16072,-1.36384 0.76617,-5.41619 1.34542,-9.00523 5.58999,-34.635136 27.90282,-64.301381 60.38733,-80.288543 7.07736,-3.483106 7.12957,-3.498947 11.2943,-3.426404 10.07332,0.175462 29.27226,7.129488 41.55214,15.050552 12.70129,8.192893 24.12652,19.694586 31.7109,31.923134 8.61046,13.882916 13.38206,27.917941 15.46407,45.485471 l 0.32482,2.74072 h -81.18561 -81.1856 z m 148.487,-13.97348 c 1.72851,-0.89384 3.11517,-3.20121 3.11517,-5.18358 0,-3.71153 -6.53924,-17.890647 -12.01413,-26.050401 -8.51511,-12.690893 -20.48861,-23.556299 -34.44766,-31.259702 -4.35029,-2.400738 -9.38151,-4.093578 -11.00245,-3.701961 -0.69605,0.168164 -2.02903,1.025174 -2.96218,1.904466 -1.44941,1.365755 -1.69664,1.958304 -1.69664,4.066464 0,3.421496 1.48203,4.993833 8.00489,8.492654 7.88796,4.231054 13.96549,8.748162 20.44801,15.197927 9.04885,9.003129 14.00027,16.289731 18.88471,27.791103 3.29575,7.76049 4.79069,9.53494 8.03306,9.53494 1.15822,0 2.79497,-0.35636 3.63722,-0.79191 z M 241.24506,48.872392 c 1.61743,-1.617437 2.02675,-2.413397 2.02675,-3.941244 0,-4.023148 -2.63527,-6.561023 -6.81283,-6.561023 -1.76758,0 -2.49299,0.32669 -3.94124,1.774944 -1.51134,1.511337 -1.77495,2.136687 -1.77495,4.21066 0,1.339644 0.24991,2.902681 0.55536,3.473416 0.85874,1.604565 3.66945,3.065892 5.90108,3.068049 1.65068,0.0016 2.38888,-0.367849 4.04583,-2.024802 z m -19.89903,-0.06142 c 0,-0.287123 -0.23492,-0.522042 -0.52205,-0.522042 -0.28712,0 -0.52204,0.234919 -0.52204,0.522042 0,0.287123 0.23492,0.522043 0.52204,0.522043 0.28713,0 0.52205,-0.23492 0.52205,-0.522043 z"
   id="path18497" /></svg>
