<?xml version="1.0" encoding="UTF-8" standalone="no"?>
<!-- Uploaded to: SVG Repo, www.svgrepo.com, Generator: SVG Repo Mixer Tools -->

<svg
   fill="#000000"
   height="916.48615"
   width="794.22382"
   version="1.1"
   id="Layer_1"
   viewBox="0 0 508.30324 586.55113"
   xml:space="preserve"
   sodipodi:docname="lantern-on.svg"
   inkscape:version="1.2 (dc2aedaf03, 2022-05-15)"
   xmlns:inkscape="http://www.inkscape.org/namespaces/inkscape"
   xmlns:sodipodi="http://sodipodi.sourceforge.net/DTD/sodipodi-0.dtd"
   xmlns="http://www.w3.org/2000/svg"
   xmlns:svg="http://www.w3.org/2000/svg"><defs
   id="defs17" /><sodipodi:namedview
   id="namedview15"
   pagecolor="#ffffff"
   bordercolor="#000000"
   borderopacity="0.25"
   inkscape:showpageshadow="2"
   inkscape:pageopacity="0.0"
   inkscape:pagecheckerboard="0"
   inkscape:deskcolor="#d1d1d1"
   showgrid="false"
   inkscape:zoom="1.03875"
   inkscape:cx="376.89531"
   inkscape:cy="554.51264"
   inkscape:window-width="1920"
   inkscape:window-height="1027"
   inkscape:window-x="-8"
   inkscape:window-y="-8"
   inkscape:window-maximized="1"
   inkscape:current-layer="Layer_1" />
<g
   id="g6"
   transform="matrix(1,0,0,0.95897968,0,95.526467)">
	<g
   id="g4">
		<path
   d="M 439.65,0.66 H 72.35 L 0,73.01 43.833,511.34 H 468.167 L 512,73.01 Z M 158.546,31.926 h 194.907 l 18.76,31.266 H 139.787 Z M 72.129,480.074 33.567,94.458 h 63.885 l 23.137,385.616 H 72.129 Z M 103.324,63.192 H 54.034 L 85.3,31.926 h 36.784 z M 360.088,480.074 H 151.911 L 128.774,94.458 H 383.225 Z M 426.7,31.926 457.966,63.192 h -49.29 l -18.76,-31.266 z m 13.171,448.148 H 391.41 L 414.547,94.458 h 63.886 z"
   id="path2" />
	</g>
</g>

<path
   style="fill:#ffd782;stroke-width:0.589022"
   d="m 257.64429,274.52718 c -50.87637,-0.76362 -93.46813,45.80833 -93.46813,102.23718 0,22.49076 6.55295,43.28113 17.6497,60.16316 17.80803,32.88396 26.26708,48.20389 28.82093,68.2779 1.09452,8.60587 7.72577,15.01234 15.56233,15.01234 h 60.3232 c 7.83708,0 14.46781,-6.40647 15.56232,-15.01234 2.55321,-20.07287 11.01236,-35.39394 28.82094,-68.2779 11.09675,-16.88203 17.6497,-37.67185 17.6497,-60.16316 -5.5e-4,-55.9978 -40.58999,-101.48103 -90.92099,-102.23718 z"
   id="path304" /><rect
   style="fill:#5fbcd3;stroke-width:0.64"
   id="rect512"
   width="96.731651"
   height="38.199757"
   x="208.86642"
   y="516.92896" /><path
   style="fill:#4d4d4d;stroke-width:0.640879"
   d="m 209.17449,537.56919 v -20.33213 h 48.05776 48.05776 v 20.33213 20.33214 h -48.05776 -48.05776 z"
   id="path704" /><path
   style="fill:#333333;stroke-width:0.962696"
   d="M 83.446103,582.67133 C 67.12726,425.81221 53.541141,296.06498 53.254728,294.34416 l -0.520751,-3.12876 h 49.685963 49.68596 v 2.6072 c 0,1.43396 8.01444,130.4821 17.80986,286.77365 9.79543,156.29154 17.80987,284.86559 17.80987,285.72011 0,1.40304 -3.61677,1.55366 -37.30445,1.55352 l -37.30445,-1.6e-4 z"
   id="path1022"
   transform="scale(0.64)" /><path
   style="fill:#333333;stroke-width:0.962696"
   d="M 237.37438,860.40915 C 236.39786,848.50088 202.16606,298.41835 202.16606,294.6346 v -3.4192 H 400 597.83394 v 3.4192 c 0,3.78375 -34.2318,553.86628 -35.20831,565.77455 l -0.61182,7.46089 H 519.7554 477.49699 v -30.32491 -30.32491 h -6.67377 -6.67376 l 3.19118,-4.74209 c 3.19554,-4.74855 3.90634,-7.06093 6.79103,-22.09281 2.84191,-14.80897 9.33484,-32.34173 19.45189,-52.5257 6.20395,-12.37717 24.27028,-45.77772 26.42111,-48.84666 0.99275,-1.41653 4.18595,-7.35141 7.09599,-13.18861 25.00371,-50.15455 23.62971,-112.50867 -3.55082,-161.14151 -10.89722,-19.4979 -27.91624,-38.80263 -44.59579,-50.58516 -16.7214,-11.8121 -37.24224,-20.40756 -56.69748,-23.74859 -11.10789,-1.90754 -31.48904,-1.88148 -43.02555,0.0551 -18.8192,3.15896 -40.23923,12.24439 -56.98242,24.16944 -10.54406,7.50982 -26.675,23.79416 -34.6499,34.9794 -7.79003,10.92595 -18.87993,32.74843 -22.74908,44.76516 -15.6501,48.60581 -9.82561,100.87081 16.06244,144.13356 11.43867,19.11569 32.46763,60.32879 38.15335,74.7739 4.08989,10.39079 7.72118,23.5327 9.20033,33.29669 1.22149,8.06313 2.35147,11.18579 6.00932,16.6065 l 2.76088,4.09145 h -5.34108 -5.34107 v 30.32491 30.32491 h -44.1838 -44.18379 l -0.61182,-7.46089 z"
   id="path1024"
   transform="scale(0.64)" /><path
   style="fill:#4d4d4d;stroke-width:0.962696"
   d="m 612.27437,866.29709 c 0,-0.86512 8.01444,-129.44218 17.80987,-285.7268 9.79542,-156.28462 17.80986,-285.32409 17.80986,-286.75437 v -2.60052 h 49.68596 49.68596 l -0.52075,3.12876 c -0.28641,1.72082 -13.87253,131.46805 -30.19137,288.32717 l -29.67063,285.19839 -37.30445,1.6e-4 c -33.8765,1.5e-4 -37.30445,-0.14438 -37.30445,-1.57279 z"
   id="path1026"
   transform="scale(0.64)" /><path
   style="fill:#4d4d4d;stroke-width:0.962696"
   d="M 113.20968,863.45091 C 112.87344,860.85134 105.44782,789.84356 96.708308,705.65584 76.637759,512.31625 56.142427,316.15039 54.539283,302.04573 L 53.308301,291.2154 h 49.398799 49.3988 l 0.007,5.5355 c 0.004,3.04453 6.27723,106.25752 13.94068,229.36222 7.66345,123.10469 15.55606,249.90201 17.53912,281.77182 1.98308,31.86981 3.35126,58.19945 3.04041,58.51029 -0.31085,0.31085 -16.82077,0.839 -36.68871,1.17367 l -36.12352,0.60848 -0.61134,-4.72647 z"
   id="path1028"
   transform="scale(0.64)" /><path
   style="fill:#808080;stroke-width:0.962696"
   d="m 238.32249,864.74128 c -0.28229,-1.72082 -2.68421,-37.7858 -5.33761,-80.14441 -9.25208,-147.69949 -22.1282,-355.69954 -25.95367,-419.25391 -2.1194,-35.21059 -4.08487,-66.29362 -4.36771,-69.07341 l -0.51425,-5.05415 H 400 597.85075 l -0.51139,5.05415 c -0.28126,2.77979 -1.37083,19.56679 -2.42126,37.30446 -2.15077,36.31825 -20.52983,333.42471 -27.90035,451.02286 -2.65484,42.35861 -5.05795,78.42359 -5.34024,80.14441 l -0.51325,3.12876 h -41.83363 -41.83364 v -30.32491 -30.32491 h -6.23632 -6.23631 l 2.82638,-4.45675 c 1.78331,-2.81199 3.58637,-7.87479 4.88568,-13.71842 7.63095,-34.32025 14.68339,-50.6604 46.28655,-107.24368 4.66625,-8.35462 9.96144,-18.55031 11.76709,-22.65708 21.68572,-49.32223 18.68398,-110.52661 -7.66079,-156.20067 -10.00581,-17.34712 -26.55036,-36.25695 -41.64017,-47.59323 -14.90009,-11.19375 -36.14371,-20.69841 -54.72656,-24.48536 -13.72187,-2.79633 -37.87782,-2.79633 -51.59969,0 -17.26426,3.51824 -37.8916,12.46171 -52.65984,22.83192 -9.53527,6.69565 -30.47644,28.21958 -36.9226,37.95012 -12.80502,19.32931 -22.37045,42.29483 -26.78577,64.30961 -1.9311,9.62848 -2.2174,13.89331 -2.19729,32.73165 0.0251,23.54054 0.96011,31.02148 6.09946,48.8029 4.639,16.05028 9.15138,26.31687 19.38163,44.09722 8.30017,14.42583 23.14961,42.97398 30.15025,57.96404 7.74417,16.58217 11.19234,26.82614 14.96703,44.46472 2.24553,10.49311 3.66792,14.93723 5.85433,18.29122 l 2.88812,4.43044 -4.79219,0.29098 -4.79219,0.29099 v 30.2746 30.2746 h -43.75902 -43.75903 z"
   id="path1030"
   transform="scale(0.64)" /><path
   style="fill:#808080;stroke-width:0.962696"
   d="m 113.72801,866.12175 c -0.45785,-0.89164 -0.66975,-2.06827 -0.47089,-2.61477 0.19886,-0.54648 -0.29106,-6.61146 -1.08872,-13.47773 -0.79766,-6.86627 -1.68282,-15.30001 -1.96702,-18.74164 -0.28421,-3.44164 -1.36405,-13.83875 -2.39966,-23.1047 -1.0356,-9.26594 -2.11863,-19.66305 -2.40674,-23.10469 -0.2881,-3.44164 -1.39174,-13.83875 -2.45253,-23.10469 -1.06079,-9.26595 -1.96176,-17.497 -2.00215,-18.29122 -0.0404,-0.79422 -1.131537,-11.19134 -2.424762,-23.10469 -1.293226,-11.91336 -2.368469,-22.31047 -2.389431,-23.1047 -0.02096,-0.79422 -0.674847,-7.07581 -1.453079,-13.95908 -0.778232,-6.88327 -1.43584,-13.16486 -1.461351,-13.95909 -0.02551,-0.79422 -1.104478,-11.19133 -2.397703,-23.10469 -1.293226,-11.91336 -2.371278,-22.31047 -2.395674,-23.10469 -0.02439,-0.79423 -1.107849,-11.19134 -2.407674,-23.1047 -1.299826,-11.91335 -2.382858,-22.31047 -2.406739,-23.10469 -0.02388,-0.79422 -1.106914,-11.19133 -2.406739,-23.10469 -1.299825,-11.91336 -2.387271,-22.31047 -2.416544,-23.1047 -0.02928,-0.79422 -1.117258,-11.19133 -2.417739,-23.10469 -1.300481,-11.91336 -2.371861,-22.31047 -2.380843,-23.10469 -0.009,-0.79423 -0.450215,-4.90975 -0.980515,-9.14561 -0.530301,-4.23586 -0.975734,-8.35138 -0.989851,-9.14561 -0.01411,-0.79422 -1.083759,-11.19133 -2.376985,-23.10469 -1.293225,-11.91336 -2.364038,-22.31047 -2.379584,-23.10469 -0.01555,-0.79423 -0.462148,-4.90975 -0.992449,-9.14561 -0.530301,-4.23586 -0.976983,-8.35139 -0.992628,-9.14561 -0.01564,-0.79422 -2.577832,-25.85514 -5.693751,-55.69094 -3.11592,-29.83579 -5.665308,-54.42062 -5.665308,-54.63297 0,-0.21234 22.093862,-0.38608 49.097469,-0.38608 h 49.09748 l 0.051,7.46089 c 0.0557,8.1523 -0.0104,6.92615 3.35636,62.26838 1.53012,25.15206 2.71428,38.67386 3.42533,39.11331 0.78492,0.48511 0.75637,0.78177 -0.10281,1.06816 -1.57347,0.52449 -0.31345,14.27009 1.31007,14.29173 0.678,0.009 0.5979,0.33644 -0.20709,0.84644 -1.65874,1.05091 -0.57529,14.53342 1.16978,14.55669 0.678,0.009 0.5979,0.33644 -0.20708,0.84644 -1.65875,1.0509 -0.57529,14.53342 1.16978,14.55669 0.76408,0.0102 0.73838,0.24803 -0.0832,0.76987 -1.11455,0.70793 -0.0288,21.58237 5.99314,115.2202 0.27241,4.23586 0.69448,11.05976 0.93793,15.16423 0.24345,4.10446 0.65214,10.81926 0.9082,14.92178 0.25605,4.10251 0.69588,11.48722 0.9774,16.41046 0.63825,11.16201 10.64036,171.83221 12.56746,201.87898 0.78105,12.1781 1.69321,29.56762 2.02701,38.64337 l 0.6069,16.50138 -4.67571,0.45871 c -2.57165,0.25229 -18.64691,0.7042 -35.7228,1.00425 -28.46613,0.50018 -31.11629,0.41077 -31.87954,-1.07561 z"
   id="path1101"
   transform="scale(0.64)" /><path
   style="fill:#808080;stroke-width:0.962696"
   d="m 625.03008,867.1509 -11.79302,-0.30282 v -4.46307 c 0,-2.45469 2.37799,-42.40526 5.28441,-88.77904 19.70866,-314.46373 29.41099,-472.93224 29.21046,-477.09574 l -0.23182,-4.81348 49.56788,-0.24923 49.56789,-0.24922 -2.65122,24.79796 c -4.33081,40.50803 -19.79749,188.6312 -38.77743,371.36836 -9.78903,94.2479 -18.06548,173.41757 -18.39211,175.93261 l -0.59387,4.57281 -24.69907,-0.20816 c -13.58449,-0.11448 -30.00593,-0.34442 -36.4921,-0.51098 z"
   id="path1103"
   transform="scale(0.64)" /><path
   style="fill:#808080;stroke-width:0.962696"
   d="M 233.7396,220.48201 247.8941,197.8834 400,197.8794 l 152.1059,-0.004 14.16313,22.60274 14.16311,22.60275 H 400.00863 219.5851 Z"
   id="path1105"
   transform="scale(0.64)" /><path
   style="fill:#808080;stroke-width:0.962696"
   d="m 624.5986,220.45582 -14.1499,-22.62188 h 27.99465 27.99465 l 12.89775,12.27436 c 7.09376,6.75091 17.75892,16.91547 23.70037,22.58792 l 10.80263,10.31355 -37.54513,0.034 -37.54512,0.034 -14.1499,-22.62188 z"
   id="path1107"
   transform="scale(0.64)" /><path
   style="fill:#999999;stroke-width:0.962696"
   d="m 103.04437,226.97263 c 9.24617,-8.8594 19.88338,-19.04656 23.63823,-22.63813 l 6.827,-6.53013 27.90218,0.25546 27.90217,0.25545 -14.03122,22.37686 -14.03123,22.37687 -37.50917,0.006 -37.509182,0.006 z"
   id="path1109"
   transform="scale(0.64)" /><path
   style="fill:#999999;stroke-width:0.962696"
   d="m 222.56878,239.3946 c 1.22135,-2.02732 7.41919,-11.98308 13.77298,-22.12393 l 11.55234,-18.4379 152.1059,-0.008 152.1059,-0.008 11.55234,18.44277 c 6.35379,10.14352 12.55164,20.10273 13.77298,22.13159 l 2.22063,3.68882 H 400 220.34815 Z"
   id="path1180"
   transform="scale(0.64)" /><path
   style="fill:#999999;stroke-width:0.962696"
   d="m 626.04309,221.73525 c -7.37977,-11.82202 -13.7389,-22.03609 -14.13141,-22.69795 -0.56418,-0.95134 4.99403,-1.1993 26.53933,-1.18393 l 27.25296,0.0194 22.89061,21.77507 c 12.58984,11.9763 22.77034,21.87556 22.62335,21.99838 -0.147,0.12282 -16.35247,0.52937 -36.01217,0.90344 l -35.7449,0.68014 z"
   id="path1182"
   transform="scale(0.64)" /><path
   style="fill:#999999;stroke-width:0.962696"
   d="m 648.37545,866.93349 -34.65704,-0.5075 0.11633,-2.88808 c 0.42041,-10.43755 2.25343,-45.28822 2.98743,-56.79904 0.2701,-4.23586 0.71174,-11.38388 0.98142,-15.88448 0.94626,-15.79212 1.36559,-22.69284 1.85718,-30.56286 0.27276,-4.36673 0.71254,-11.40521 0.97728,-15.64108 0.26474,-4.23586 0.68,-11.06018 0.9228,-15.16517 0.24279,-4.105 3.22468,-51.21813 6.62642,-104.69587 3.40173,-53.47774 6.20262,-98.7485 6.2242,-100.60168 0.0216,-1.85319 0.28878,-6.94222 0.59379,-11.30895 0.30502,-4.36673 0.75258,-11.29814 0.99458,-15.40313 0.24201,-4.10499 1.92562,-30.42391 3.74137,-58.48648 1.81574,-28.06258 3.30226,-52.53911 3.30336,-54.3923 10e-4,-1.85319 0.23663,-6.83514 0.52338,-11.071 0.57862,-8.54743 1.28231,-19.73121 1.95339,-31.04516 0.24345,-4.10446 0.68585,-11.14497 0.9831,-15.64557 0.51939,-7.86385 1.38966,-28.18442 1.38966,-32.44801 v -2.05457 l 48.8568,-0.32424 c 26.87124,-0.17833 48.96425,-0.28615 49.09556,-0.23959 0.13132,0.0465 -2.99614,30.80753 -6.94992,68.35772 -3.95377,37.55019 -7.19975,69.13949 -7.21328,70.19846 -0.0135,1.05896 -1.09419,11.23947 -2.40148,22.62335 -1.30728,11.38387 -2.39039,21.78098 -2.4069,23.10469 -0.0166,1.3237 -1.10853,11.72082 -2.4267,23.10469 -1.31818,11.38388 -2.3226,21.56438 -2.23204,22.62335 0.0906,1.05896 -0.11637,2.79181 -0.45982,3.85078 -0.34346,1.05896 -0.87935,5.39109 -1.19089,9.62695 -0.31153,4.23586 -1.39905,15.06619 -2.4167,24.06739 -1.01765,9.00121 -2.09974,19.39832 -2.40463,23.1047 -0.3049,3.70637 -1.18051,11.93742 -1.9458,18.29121 -0.7653,6.35379 -1.31338,12.41877 -1.21797,13.47774 0.0954,1.05896 -0.10751,2.79182 -0.45096,3.85078 -0.34346,1.05897 -0.87749,5.3911 -1.18674,9.62696 -0.30925,4.23586 -1.18034,12.90012 -1.93575,19.25391 -0.75541,6.35379 -1.377,12.63538 -1.3813,13.95908 -0.004,1.32371 -1.08446,11.72082 -2.40034,23.1047 -1.31588,11.38387 -2.39892,21.78098 -2.40674,23.10469 -0.008,1.32371 -1.09086,11.72082 -2.40674,23.10469 -1.31588,11.38388 -2.39707,21.78099 -2.40263,23.1047 -0.006,1.3237 -0.45364,5.43923 -0.9957,9.1456 -0.54207,3.70638 -1.17093,9.77136 -1.39747,13.47774 -0.22654,3.70638 -0.61882,7.38869 -0.87173,8.18291 -0.54134,1.70003 -4.66869,42.61309 -4.42788,43.89224 0.0904,0.48021 0.06,1.08971 -0.0676,1.35445 -0.12757,0.26475 -1.15361,8.92409 -2.28007,19.24299 -1.64628,15.08061 -2.33144,18.76891 -3.49217,18.79872 -0.79422,0.0204 -17.03971,-0.19131 -36.10108,-0.47043 z"
   id="path1184"
   transform="scale(0.64)" /><path
   style="fill:#999999;stroke-width:0.962696"
   d="m 239.36578,867.12729 c -0.25247,-0.40851 -0.74441,-5.49877 -1.09319,-11.31168 -0.34877,-5.8129 -0.87177,-11.21874 -1.16222,-12.01296 -0.29044,-0.79423 -0.48311,-3.3935 -0.42815,-5.77618 0.055,-2.38267 -0.53148,-12.34657 -1.30318,-22.14199 -0.77171,-9.79543 -1.42713,-18.45969 -1.4565,-19.25391 -0.41315,-11.1738 -15.74325,-258.88766 -16.08598,-259.9278 -0.2617,-0.79423 -0.40186,-4.54256 -0.31147,-8.32962 0.097,-4.0641 -0.26121,-7.14857 -0.87418,-7.52741 -0.57118,-0.35301 -0.76104,-1.09079 -0.42191,-1.63952 0.71117,-1.1507 -4.55136,-91.64831 -5.35034,-92.00756 -0.29133,-0.13099 -0.38839,-3.705 -0.2157,-7.94224 0.17269,-4.23724 -0.0554,-7.70407 -0.50679,-7.70407 -0.45142,0 -0.6744,-1.62455 -0.49551,-3.61011 0.17889,-1.98556 -1.2176,-28.04281 -3.10332,-57.90499 -1.88572,-29.86219 -3.42858,-55.31345 -3.42858,-56.55837 v -2.26348 h 197.00886 197.00886 l -0.68442,9.86763 c -0.37645,5.4272 -0.87465,14.7876 -1.10713,20.8009 -0.23248,6.01329 -0.61114,11.23817 -0.84146,11.61084 -0.23032,0.37268 -0.55217,7.47037 -0.71522,15.77266 -0.16304,8.30229 -0.54089,15.09907 -0.83967,15.10395 -0.76232,0.0125 -4.14003,59.31781 -3.47684,61.04605 0.29836,0.77751 0.21534,1.54994 -0.1845,1.71652 -0.88945,0.37057 -8.24738,119.4178 -7.54649,122.09802 0.2749,1.05118 0.0741,1.91123 -0.44608,1.91123 -0.56672,0 -0.82001,3.08803 -0.63189,7.70383 0.17269,4.2371 0.0725,7.7028 -0.22259,7.70156 -0.54694,-0.002 -4.1686,58.41134 -3.73032,60.16621 0.13224,0.52948 -0.003,1.61252 -0.29925,2.40674 -0.29683,0.79422 -2.51609,35.01805 -4.9317,76.05295 -2.4156,41.0349 -4.43483,75.25872 -4.48716,76.05295 -0.0524,0.79422 -0.31724,4.90974 -0.58869,9.1456 -0.27145,4.23586 -1.10142,15.71601 -1.84438,25.51144 -0.74296,9.79542 -1.30586,19.75932 -1.2509,22.14199 0.055,2.38268 -0.13772,4.98195 -0.42816,5.77618 -0.29045,0.79422 -0.81344,6.20006 -1.16223,12.01296 -0.34877,5.81291 -0.84071,10.90317 -1.09318,11.31168 -0.25247,0.40851 -19.06164,0.74275 -41.79814,0.74275 h -41.33909 v -30.32491 -30.32491 h -5.73008 -5.73008 l 2.37551,-4.5787 c 1.30653,-2.51828 4.3042,-12.03029 6.66148,-21.13778 2.35728,-9.1075 5.85411,-20.80161 7.77073,-25.98689 4.43674,-12.00331 15.96509,-35.86841 26.87627,-55.63719 19.34781,-35.05417 29.33858,-56.40174 28.01298,-59.85619 -0.26909,-0.70124 -0.10436,-1.27497 0.36606,-1.27497 0.9744,0 4.24753,-13.44884 3.46385,-14.23252 -0.28166,-0.28166 -0.0955,-1.01406 0.41363,-1.62756 0.50915,-0.61348 1.20866,-3.68584 1.55445,-6.82744 0.3458,-3.14161 0.87527,-7.87807 1.17658,-10.52548 1.2793,-11.24005 0.43203,-34.59211 -1.71152,-47.17208 -1.17287,-6.88328 -2.50299,-12.65133 -2.95583,-12.81792 -0.45284,-0.16657 -0.61065,-0.85715 -0.35068,-1.53462 0.70202,-1.82944 -5.9175,-20.94875 -10.74647,-31.0393 -8.36354,-17.4763 -25.13912,-39.45179 -39.52971,-51.78268 -21.89222,-18.75882 -49.03525,-30.18949 -76.67641,-32.29055 -23.88936,-1.81588 -43.77814,1.37663 -64.72331,10.38927 -19.42389,8.35805 -25.23321,12.42508 -42.88955,30.02646 -20.18624,20.12342 -27.93596,31.75566 -37.84109,56.79904 -4.77452,12.07155 -9.69683,30.07634 -8.97606,32.83256 0.24913,0.95269 -0.0426,1.89733 -0.6482,2.09922 -1.66383,0.55461 -1.48339,49.06167 0.21743,58.44968 1.87516,10.35036 7.11134,28.02715 11.12153,37.54513 1.89623,4.5006 8.23483,16.84717 14.08578,27.43682 15.05479,27.24771 32.9708,63.76811 36.83742,75.09026 1.80824,5.29482 4.69129,15.69193 6.40678,23.10469 1.7847,7.71178 4.27104,15.63997 5.81174,18.53189 l 2.69265,5.05415 h -2.71676 c -6.07938,0 -5.76232,-1.72722 -5.76232,31.39061 v 30.22191 h -43.26448 c -23.79547,0 -43.47106,-0.33424 -43.72353,-0.74275 z"
   id="path1186"
   transform="scale(0.64)" /><path
   style="fill:#999999;stroke-width:0.962696"
   d="m 114.23987,866.26554 c -0.35299,-0.35298 -0.6453,-2.19414 -0.64958,-4.09146 -0.004,-1.89731 -2.38925,-25.97673 -5.29993,-53.50982 C 105.37968,781.13117 98.007246,710.73406 91.907173,652.22623 85.8071,593.71841 76.524119,504.69314 71.278328,454.3923 56.396258,311.69112 54.529531,293.16401 54.987388,292.70615 c 0.235408,-0.2354 22.183376,-0.73568 48.773262,-1.11171 l 48.34525,-0.6837 0.0705,3.76244 c 0.0387,2.06934 0.017,6.79493 -0.0483,10.50131 -0.13986,7.93801 4.53316,84.57648 5.37107,88.08664 0.31598,1.32371 0.68418,6.52226 0.81823,11.55235 0.13405,5.03008 0.4694,12.61131 0.74524,16.84717 0.6119,9.39701 1.5751,23.37368 1.79126,25.99278 0.0874,1.05896 0.54134,9.93983 1.00875,19.73526 0.46741,9.79543 2.14329,38.60409 3.72417,64.01925 19.5813,314.80021 20.60838,332.73496 19.10799,333.66226 -2.23892,1.38373 -69.1316,2.51863 -70.45489,1.19534 z"
   id="path1188"
   transform="scale(0.64)" /><path
   style="fill:#aa8800;stroke-width:0.962696"
   d="m 627.43682,866.18766 c -12.94719,-0.29084 -13.23702,-0.34418 -13.23506,-2.43625 0.004,-3.92206 2.88806,-54.54501 5.77166,-101.29654 4.20781,-68.22067 14.8918,-239.56244 18.75899,-300.84235 1.85448,-29.38629 4.25655,-68.77784 5.33795,-87.53681 1.0814,-18.75896 2.37521,-40.41961 2.87513,-48.13477 0.49993,-7.71517 0.91788,-18.18784 0.92879,-23.2726 l 0.0198,-9.24502 7.36547,-0.62261 c 4.05101,-0.34244 25.92826,-0.62261 48.61612,-0.62261 39.39378,0 41.25066,0.0796 41.25066,1.76906 0,2.55755 -21.92026,215.15797 -24.08646,233.61 -0.85597,7.29129 -5.3806,50.68371 -8.6329,82.79182 -3.26874,32.27031 -7.05119,69.13863 -8.69145,84.71721 -1.05924,10.06016 -2.79017,26.52226 -3.84652,36.58243 -2.57148,24.48945 -4.43634,41.83886 -6.6744,62.09386 -1.02383,9.26594 -2.14315,20.31287 -2.48738,24.54874 -1.06341,13.08559 -5.10256,46.60688 -5.74021,47.63863 -0.57437,0.92935 -23.1351,1.03045 -57.53021,0.25781 z"
   id="path1379"
   transform="scale(0.64)" /><path
   style="fill:#aa8800;stroke-width:0.962696"
   d="m 255.41045,867.15001 -15.58836,-0.28983 -0.50073,-4.06788 c -1.32265,-10.74497 -4.07084,-50.72175 -7.82419,-113.81516 -3.36493,-56.5642 -10.66317,-173.53778 -12.94395,-207.46089 -1.05017,-15.61974 -2.58312,-40.9627 -3.40655,-56.31769 -0.82342,-15.355 -1.90665,-33.33334 -2.40718,-39.95187 -1.31348,-17.36847 -2.52966,-37.32409 -5.74975,-94.34416 -1.56982,-27.79784 -3.06033,-52.59928 -3.31224,-55.11432 l -0.45802,-4.57281 h 196.89515 196.89515 l -0.53856,5.05415 c -0.29621,2.77979 -1.20443,17.83394 -2.01826,33.45368 -0.81385,15.61973 -1.88957,32.94825 -2.39052,38.50782 -0.50095,5.55956 -1.3681,19.42238 -1.927,30.80625 -0.5589,11.38388 -1.6527,29.57883 -2.43066,40.43322 -2.09262,29.19713 -4.07434,61.41357 -5.74413,93.38147 -0.81587,15.61973 -1.88912,33.16486 -2.38501,38.98917 -1.24395,14.6105 -1.87048,24.1137 -2.91954,44.28399 -0.4957,9.53069 -1.34499,23.1769 -1.88732,30.32491 -0.54233,7.14801 -2.50928,38.98917 -4.37099,70.75812 -4.79945,81.89931 -8.26972,133.97563 -9.69289,145.45519 l -0.48832,3.93894 -21.78011,0.63387 c -11.97906,0.34862 -30.59097,0.63386 -41.3598,0.63386 h -19.57968 v -30.32491 -30.32491 h -5.29482 c -2.91216,0 -5.29483,-0.23387 -5.29483,-0.5197 0,-0.28584 0.87255,-2.23003 1.93898,-4.32044 1.06645,-2.0904 4.08038,-11.49552 6.69762,-20.90027 2.61724,-9.40475 5.80061,-20.13204 7.07415,-23.83841 4.40296,-12.81394 16.75511,-38.28358 31.6866,-65.33651 8.05218,-14.58898 20.62472,-40.32798 22.16324,-45.37348 3.2613,-10.69527 4.5865,-15.73493 5.94891,-22.62335 6.50773,-32.90357 3.26914,-70.28922 -8.73354,-100.81811 -13.38474,-34.04419 -41.56479,-65.97213 -71.58944,-81.11065 -28.49808,-14.36883 -63.96182,-18.12381 -95.00162,-10.05898 -11.83196,3.07419 -30.81126,11.30254 -39.77985,17.24628 -8.60661,5.70384 -30.29228,26.57569 -38.69292,37.24085 -11.86795,15.06714 -21.02861,33.94713 -27.19843,56.05555 -5.00875,17.94792 -5.70539,25.0627 -5.06765,51.75597 0.49478,20.70996 0.84164,24.54975 2.98627,33.05853 5.42645,21.52939 9.84503,32.1143 25.07653,60.07195 9.69213,17.79003 28.84057,56.57512 32.64752,66.12742 1.91809,4.8128 5.48323,16.24293 7.92253,25.40031 3.70014,13.89064 5.8446,20.24119 8.8669,26.25832 0.19947,0.39711 -1.14333,0.72202 -2.984,0.72202 -2.16364,0 -3.55322,0.53829 -3.931,1.52278 -0.3214,0.83753 -0.58435,14.70035 -0.58435,30.80626 v 29.28348 l -27.6775,-0.2151 c -15.22262,-0.1183 -34.69225,-0.34553 -43.26584,-0.50493 z"
   id="path1381"
   transform="scale(0.64)" /><path
   style="fill:#aa8800;stroke-width:0.962696"
   d="m 120.13107,866.18299 c -6.47009,-0.39092 -5.65226,1.94799 -7.9938,-22.86169 C 111.28774,834.3201 104.5682,769.33815 97.204976,698.91697 71.66423,454.64781 56.803202,310.90548 56.184652,302.15055 l -0.621743,-8.80011 11.929737,-0.55881 c 6.561355,-0.30734 28.217425,-0.80605 48.124594,-1.10824 l 36.19487,-0.54944 0.59471,22.90474 c 0.5589,21.52605 2.23644,50.74052 4.4938,78.25975 0.98663,12.02791 1.27544,16.81378 4.88,80.86642 1.05778,18.79663 4.93932,82.91216 8.62565,142.47894 7.44109,120.23942 13.00755,213.57778 14.01701,235.03727 l 0.6632,14.09863 -9.9921,0.55136 c -13.24866,0.73104 -48.03899,1.2703 -54.96331,0.85193 z"
   id="path1383"
   transform="scale(0.64)" /><path
   style="fill:#aa8800;stroke-width:0.962696"
   d="m 87.605295,242.77333 c 0,-0.16901 10.405747,-10.21946 23.123885,-22.33433 l 23.12388,-22.02704 26.69561,0.27734 c 14.68259,0.15253 26.83319,0.41277 27.00136,0.5783 0.16815,0.16552 -5.81951,10.09117 -13.3059,22.05699 l -13.61164,21.75604 h -36.5136 c -20.08248,0 -36.513595,-0.13829 -36.513595,-0.3073 z"
   id="path1385"
   transform="scale(0.64)" /><path
   style="fill:#aa8800;stroke-width:0.962696"
   d="m 221.45059,242.3586 c 0.0168,-0.39711 0.65278,-1.54396 1.41321,-2.54856 0.76042,-1.0046 1.15429,-2.19594 0.87526,-2.64741 -0.27903,-0.45148 -0.0597,-0.82087 0.48747,-0.82087 1.0566,0 4.46476,-5.75932 4.13025,-6.97955 -0.10887,-0.39711 0.22415,-0.72202 0.74004,-0.72202 0.89882,0 4.00414,-5.13521 3.8309,-6.3351 -0.046,-0.31851 0.51978,-1.08117 1.25726,-1.6948 0.73747,-0.61364 4.26891,-5.77274 7.84762,-11.46468 l 6.50676,-10.34898 h 151.57507 151.57505 l 1.98802,3.36943 c 1.09341,1.85319 2.37843,3.36944 2.85562,3.36944 0.47718,0 0.77853,0.32491 0.66967,0.72202 -0.32447,1.18361 3.05818,6.97954 4.07344,6.97954 0.51589,0 0.82967,0.35005 0.6973,0.77789 -0.13237,0.42784 3.54994,6.92342 8.18291,14.43463 4.63297,7.51121 8.42358,13.87596 8.42358,14.1439 0,0.26793 -80.36101,0.48715 -178.58002,0.48715 -98.21901,0 -178.56625,-0.32491 -178.54941,-0.72203 z"
   id="path1387"
   transform="scale(0.64)" /><path
   style="fill:#aa8800;stroke-width:0.962696"
   d="m 638.58805,241.7394 c 0,-1.42329 -3.19956,-6.36034 -4.12195,-6.36034 -0.38034,0 -0.69153,-0.55487 -0.69153,-1.23304 0,-1.63456 -3.20026,-6.46852 -4.2824,-6.46852 -0.46859,0 -0.76291,-0.32491 -0.65404,-0.72202 0.29523,-1.07695 -3.01399,-6.97955 -3.91299,-6.97955 -0.42764,0 -0.77753,-0.55486 -0.77753,-1.23304 0,-2.12057 -3.35563,-6.46782 -5.00442,-6.48326 -1.08607,-0.0102 -1.21765,-0.24129 -0.42447,-0.74556 1.53779,-0.97766 -2.1599,-6.9115 -4.37282,-7.01727 -1.07219,-0.0512 -1.18264,-0.23936 -0.33908,-0.57748 1.00226,-0.40174 0.96812,-0.93335 -0.17163,-2.67283 l -1.42272,-2.17135 8.7431,-0.6206 c 4.80871,-0.34133 16.66443,-0.6206 26.34606,-0.6206 h 17.60295 l 22.38565,21.41997 22.38565,21.41998 -7.16418,0.61432 c -3.94029,0.33788 -19.98005,0.83071 -35.64391,1.09518 -21.35609,0.36058 -28.47974,0.1995 -28.47974,-0.64399 z"
   id="path1389"
   transform="scale(0.64)" /><path
   style="fill:#c8ab37;stroke-width:0.962696"
   d="m 617.16024,865.10035 c -2.21183,-0.61814 -2.3238,-1.00467 -2.13351,-7.36493 0.33876,-11.32228 4.55884,-81.43047 15.06499,-250.27453 15.29662,-245.83185 17.80238,-288.23197 17.80238,-301.23526 v -11.96916 l 2.64742,-0.57791 c 3.97293,-0.86725 92.38277,-1.13433 93.23599,-0.28165 0.40586,0.40561 0.20494,6.47059 -0.4465,13.47774 -1.69207,18.2006 -14.81202,145.90076 -19.90357,193.72703 -2.36747,22.23827 -8.43139,80.50542 -13.47538,129.48256 -5.04399,48.97713 -10.87395,104.86161 -12.95548,124.18772 -2.08152,19.32611 -4.88755,45.96871 -6.23561,59.20578 -2.59464,25.47759 -5.06253,46.70487 -5.84799,50.30084 l -0.47313,2.16607 -32.47263,-0.096 c -17.85995,-0.0528 -33.52309,-0.38952 -34.80698,-0.74833 z"
   id="path1391"
   transform="scale(0.64)" /><path
   style="fill:#c8ab37;stroke-width:0.962696"
   d="m 281.58845,866.92288 -41.39591,-0.49689 -0.62945,-5.77617 c -1.27097,-11.66315 -3.84962,-50.29192 -9.47902,-141.99759 -3.169,-51.62455 -7.26648,-117.47293 -9.10551,-146.32973 -1.83903,-28.8568 -4.22719,-67.62936 -5.30702,-86.16125 -1.07983,-18.53189 -2.39629,-39.75932 -2.92546,-47.17208 -0.99428,-13.92807 -8.64281,-143.09793 -8.65037,-146.08905 -0.004,-1.599 9.9887,-1.68472 196.40398,-1.68472 h 196.40823 l -0.49716,2.16607 c -0.27344,1.19133 -1.36647,17.54512 -2.42895,36.34176 -1.06247,18.79663 -2.14934,36.34175 -2.41524,38.98916 -0.26592,2.64742 -0.92465,12.82792 -1.46386,22.62335 -0.53921,9.79543 -2.26044,37.95427 -3.82497,62.57521 -1.56454,24.62094 -3.5073,56.6787 -4.31727,71.23947 -0.80996,14.56077 -2.33484,39.03731 -3.38864,54.3923 -2.12931,31.0267 -4.16052,63.58741 -9.12837,146.32972 -3.98127,66.31018 -6.95544,111.72125 -8.22818,125.63177 -0.50867,5.55957 -0.92522,11.04135 -0.92566,12.18173 -7.6e-4,1.95247 -0.57642,2.10515 -9.86844,2.61717 -5.4272,0.29907 -24.05536,0.78688 -41.39591,1.08404 l -31.52828,0.54028 v -30.22958 -30.22959 l -4.81348,-0.63852 c -2.64741,-0.35119 -4.81347,-0.86173 -4.81347,-1.13453 0,-0.2728 0.61029,-1.67617 1.35619,-3.11859 0.74591,-1.44244 4.02203,-11.70973 7.28025,-22.81622 7.78524,-26.53788 10.39974,-32.94517 25.3282,-62.07087 30.74119,-59.97665 33.94131,-66.66701 37.06836,-77.49699 4.63374,-16.04815 6.15501,-26.26004 6.69133,-44.91735 1.14461,-39.81793 -7.66978,-72.46079 -27.54174,-101.99695 -18.82995,-27.98742 -43.18183,-47.83696 -70.51424,-57.47708 -16.59852,-5.85428 -26.33545,-7.40164 -46.57569,-7.40164 -26.0014,0 -37.94278,2.7863 -61.61252,14.37613 -13.61975,6.66888 -20.78756,12.14468 -36.60177,27.96163 -20.61566,20.61924 -32.22598,40.23588 -40.87055,69.05438 -4.87918,16.2658 -5.80168,23.8041 -5.79295,47.33805 0.01,25.80941 0.93211,34.56753 5.20194,49.38497 4.38825,15.22838 8.61938,24.68886 25.08296,56.08358 20.04348,38.22127 30.48605,60.87196 34.6468,75.15144 1.92851,6.61853 5.35887,17.781 7.62302,24.80547 l 4.11664,12.77177 -2.96056,0.76686 -2.96057,0.76684 -0.2542,30.5047 c -0.23598,28.31896 -0.37394,30.48856 -1.92539,30.27956 -0.91916,-0.12382 -20.29935,-0.44873 -43.0671,-0.72202 z"
   id="path1600"
   transform="scale(0.64)" /><path
   style="fill:#c8ab37;stroke-width:0.962696"
   d="m 115.82251,864.86218 c -0.6853,-0.82648 -3.49815,-24.17366 -7.00606,-58.15162 C 105.59288,775.48666 94.724015,670.87846 84.663431,574.24789 61.622802,352.94574 55.751782,294.82985 56.373121,294.20851 c 0.673942,-0.67394 37.674452,-1.86571 68.938079,-2.22046 l 25.67221,-0.2913 0.51718,10.58965 c 0.28446,5.82431 0.97639,21.41998 1.53764,34.65704 0.56124,13.23707 1.85888,35.33093 2.88363,49.09747 1.02475,13.76655 2.55549,37.16005 3.40165,51.98556 0.84616,14.82552 5.83776,98.00241 11.09245,184.83755 5.25469,86.83514 10.41778,173.26113 11.47354,192.05776 1.05577,18.79663 2.13386,37.48704 2.39579,41.53425 0.45124,6.97274 0.36464,7.38807 -1.65184,7.9216 -1.17041,0.30968 -16.42406,0.85609 -33.89699,1.21425 -26.98351,0.55312 -31.94143,0.4432 -32.91395,-0.7297 z"
   id="path1602"
   transform="scale(0.64)" /><path
   style="fill:#c8ab37;stroke-width:0.962696"
   d="m 102.61779,242.15949 -13.387027,-0.52291 22.510347,-21.41997 22.51034,-21.41998 16.86946,0.11308 c 9.27821,0.0622 21.07564,0.3871 26.21653,0.72202 l 9.34708,0.60894 -13.19786,21.39005 -13.19785,21.39005 -22.142,-0.16919 c -12.1781,-0.0931 -28.16616,-0.40449 -35.52902,-0.69209 z"
   id="path1604"
   transform="scale(0.64)" /><path
   style="fill:#c8ab37;stroke-width:0.962696"
   d="m 302.1484,242.11793 -79.56038,-0.48135 1.58204,-3.00243 c 3.30482,-6.27193 8.48093,-14.6484 16.7921,-27.17458 3.60019,-5.42602 6.78734,-10.49491 7.08254,-11.26421 0.46629,-1.21511 20.3963,-1.39547 151.81762,-1.37391 l 151.28088,0.0248 2.99149,4.54798 c 9.05697,13.76936 23.51427,38.21281 22.7152,38.40534 -2.04047,0.49163 -206.83275,0.72894 -274.70149,0.31833 z"
   id="path1606"
   transform="scale(0.64)" /><path
   style="fill:#c8ab37;stroke-width:0.962696"
   d="m 637.87488,238.87685 c -1.00997,-1.92378 -2.20131,-3.49779 -2.64742,-3.49779 -0.4461,0 -0.81109,-0.59025 -0.81109,-1.31167 0,-0.72141 -1.2414,-2.87376 -2.75867,-4.783 -1.51727,-1.90923 -3.30268,-4.78468 -3.96758,-6.38989 -0.6649,-1.60521 -1.58956,-2.91857 -2.05481,-2.91857 -0.46524,0 -0.8459,-0.68314 -0.8459,-1.51809 0,-0.83496 -1.29964,-2.81774 -2.88809,-4.40619 -1.58844,-1.58845 -2.88808,-3.58496 -2.88808,-4.4367 0,-0.85174 -0.81664,-2.44297 -1.81475,-3.53606 -0.99811,-1.09309 -2.10575,-2.94773 -2.46143,-4.12143 -0.8742,-2.88476 -0.49083,-2.9373 26.68958,-3.65802 l 22.89476,-0.60707 21.87315,21.00941 c 20.28032,19.47947 21.70013,21.05997 19.49711,21.70365 -1.30683,0.38183 -16.68704,0.9811 -34.17826,1.33172 l -31.80221,0.63749 z"
   id="path1608"
   transform="scale(0.64)" /></svg>
