<?xml version="1.0" encoding="UTF-8" standalone="no"?>
<!-- Uploaded to: SVG Repo, www.svgrepo.com, Generator: SVG Repo Mixer Tools -->

<svg
   fill="#000000"
   height="916.48615"
   width="794.22382"
   version="1.1"
   id="Layer_1"
   viewBox="0 0 508.30324 586.55113"
   xml:space="preserve"
   sodipodi:docname="lantern-off.svg"
   inkscape:version="1.2 (dc2aedaf03, 2022-05-15)"
   xmlns:inkscape="http://www.inkscape.org/namespaces/inkscape"
   xmlns:sodipodi="http://sodipodi.sourceforge.net/DTD/sodipodi-0.dtd"
   xmlns="http://www.w3.org/2000/svg"
   xmlns:svg="http://www.w3.org/2000/svg"><defs
   id="defs17" /><sodipodi:namedview
   id="namedview15"
   pagecolor="#ffffff"
   bordercolor="#000000"
   borderopacity="0.25"
   inkscape:showpageshadow="2"
   inkscape:pageopacity="0.0"
   inkscape:pagecheckerboard="0"
   inkscape:deskcolor="#d1d1d1"
   showgrid="false"
   inkscape:zoom="1.03875"
   inkscape:cx="376.89531"
   inkscape:cy="554.51264"
   inkscape:window-width="1920"
   inkscape:window-height="1027"
   inkscape:window-x="-8"
   inkscape:window-y="-8"
   inkscape:window-maximized="1"
   inkscape:current-layer="Layer_1" />
<g
   id="g6"
   transform="matrix(1,0,0,0.95897968,0,95.526467)">
	<g
   id="g4">
		<path
   d="M 439.65,0.66 H 72.35 L 0,73.01 43.833,511.34 H 468.167 L 512,73.01 Z M 158.546,31.926 h 194.907 l 18.76,31.266 H 139.787 Z M 72.129,480.074 33.567,94.458 h 63.885 l 23.137,385.616 H 72.129 Z M 103.324,63.192 H 54.034 L 85.3,31.926 h 36.784 z M 360.088,480.074 H 151.911 L 128.774,94.458 H 383.225 Z M 426.7,31.926 457.966,63.192 h -49.29 l -18.76,-31.266 z m 13.171,448.148 H 391.41 L 414.547,94.458 h 63.886 z"
   id="path2" />
	</g>
</g>

<path
   style="fill:#ffd782;stroke-width:0.589022"
   d="m 257.64429,274.52718 c -50.87637,-0.76362 -93.46813,45.80833 -93.46813,102.23718 0,22.49076 6.55295,43.28113 17.6497,60.16316 17.80803,32.88396 26.26708,48.20389 28.82093,68.2779 1.09452,8.60587 7.72577,15.01234 15.56233,15.01234 h 60.3232 c 7.83708,0 14.46781,-6.40647 15.56232,-15.01234 2.55321,-20.07287 11.01236,-35.39394 28.82094,-68.2779 11.09675,-16.88203 17.6497,-37.67185 17.6497,-60.16316 -5.5e-4,-55.9978 -40.58999,-101.48103 -90.92099,-102.23718 z"
   id="path304" /><rect
   style="fill:#5fbcd3;stroke-width:0.64"
   id="rect512"
   width="96.731651"
   height="38.199757"
   x="208.86642"
   y="516.92896" /><path
   style="fill:#4d4d4d;stroke-width:0.640879"
   d="m 209.17449,537.56919 v -20.33213 h 48.05776 48.05776 v 20.33213 20.33214 h -48.05776 -48.05776 z"
   id="path704" /><path
   style="fill:#333333;stroke-width:0.962696"
   d="M 83.446103,582.67133 C 67.12726,425.81221 53.541141,296.06498 53.254728,294.34416 l -0.520751,-3.12876 h 49.685963 49.68596 v 2.6072 c 0,1.43396 8.01444,130.4821 17.80986,286.77365 9.79543,156.29154 17.80987,284.86559 17.80987,285.72011 0,1.40304 -3.61677,1.55366 -37.30445,1.55352 l -37.30445,-1.6e-4 z"
   id="path1022"
   transform="scale(0.64)" /><path
   style="fill:#333333;stroke-width:0.962696"
   d="M 237.37438,860.40915 C 236.39786,848.50088 202.16606,298.41835 202.16606,294.6346 v -3.4192 H 400 597.83394 v 3.4192 c 0,3.78375 -34.2318,553.86628 -35.20831,565.77455 l -0.61182,7.46089 H 519.7554 477.49699 v -30.32491 -30.32491 h -6.67377 -6.67376 l 3.19118,-4.74209 c 3.19554,-4.74855 3.90634,-7.06093 6.79103,-22.09281 2.84191,-14.80897 9.33484,-32.34173 19.45189,-52.5257 6.20395,-12.37717 24.27028,-45.77772 26.42111,-48.84666 0.99275,-1.41653 4.18595,-7.35141 7.09599,-13.18861 25.00371,-50.15455 23.62971,-112.50867 -3.55082,-161.14151 -10.89722,-19.4979 -27.91624,-38.80263 -44.59579,-50.58516 -16.7214,-11.8121 -37.24224,-20.40756 -56.69748,-23.74859 -11.10789,-1.90754 -31.48904,-1.88148 -43.02555,0.0551 -18.8192,3.15896 -40.23923,12.24439 -56.98242,24.16944 -10.54406,7.50982 -26.675,23.79416 -34.6499,34.9794 -7.79003,10.92595 -18.87993,32.74843 -22.74908,44.76516 -15.6501,48.60581 -9.82561,100.87081 16.06244,144.13356 11.43867,19.11569 32.46763,60.32879 38.15335,74.7739 4.08989,10.39079 7.72118,23.5327 9.20033,33.29669 1.22149,8.06313 2.35147,11.18579 6.00932,16.6065 l 2.76088,4.09145 h -5.34108 -5.34107 v 30.32491 30.32491 h -44.1838 -44.18379 l -0.61182,-7.46089 z"
   id="path1024"
   transform="scale(0.64)" /><path
   style="fill:#4d4d4d;stroke-width:0.962696"
   d="m 612.27437,866.29709 c 0,-0.86512 8.01444,-129.44218 17.80987,-285.7268 9.79542,-156.28462 17.80986,-285.32409 17.80986,-286.75437 v -2.60052 h 49.68596 49.68596 l -0.52075,3.12876 c -0.28641,1.72082 -13.87253,131.46805 -30.19137,288.32717 l -29.67063,285.19839 -37.30445,1.6e-4 c -33.8765,1.5e-4 -37.30445,-0.14438 -37.30445,-1.57279 z"
   id="path1026"
   transform="scale(0.64)" /><path
   style="fill:#4d4d4d;stroke-width:0.962696"
   d="M 113.20968,863.45091 C 112.87344,860.85134 105.44782,789.84356 96.708308,705.65584 76.637759,512.31625 56.142427,316.15039 54.539283,302.04573 L 53.308301,291.2154 h 49.398799 49.3988 l 0.007,5.5355 c 0.004,3.04453 6.27723,106.25752 13.94068,229.36222 7.66345,123.10469 15.55606,249.90201 17.53912,281.77182 1.98308,31.86981 3.35126,58.19945 3.04041,58.51029 -0.31085,0.31085 -16.82077,0.839 -36.68871,1.17367 l -36.12352,0.60848 -0.61134,-4.72647 z"
   id="path1028"
   transform="scale(0.64)" /><path
   style="fill:#808080;stroke-width:0.962696"
   d="m 238.32249,864.74128 c -0.28229,-1.72082 -2.68421,-37.7858 -5.33761,-80.14441 -9.25208,-147.69949 -22.1282,-355.69954 -25.95367,-419.25391 -2.1194,-35.21059 -4.08487,-66.29362 -4.36771,-69.07341 l -0.51425,-5.05415 H 400 597.85075 l -0.51139,5.05415 c -0.28126,2.77979 -1.37083,19.56679 -2.42126,37.30446 -2.15077,36.31825 -20.52983,333.42471 -27.90035,451.02286 -2.65484,42.35861 -5.05795,78.42359 -5.34024,80.14441 l -0.51325,3.12876 h -41.83363 -41.83364 v -30.32491 -30.32491 h -6.23632 -6.23631 l 2.82638,-4.45675 c 1.78331,-2.81199 3.58637,-7.87479 4.88568,-13.71842 7.63095,-34.32025 14.68339,-50.6604 46.28655,-107.24368 4.66625,-8.35462 9.96144,-18.55031 11.76709,-22.65708 21.68572,-49.32223 18.68398,-110.52661 -7.66079,-156.20067 -10.00581,-17.34712 -26.55036,-36.25695 -41.64017,-47.59323 -14.90009,-11.19375 -36.14371,-20.69841 -54.72656,-24.48536 -13.72187,-2.79633 -37.87782,-2.79633 -51.59969,0 -17.26426,3.51824 -37.8916,12.46171 -52.65984,22.83192 -9.53527,6.69565 -30.47644,28.21958 -36.9226,37.95012 -12.80502,19.32931 -22.37045,42.29483 -26.78577,64.30961 -1.9311,9.62848 -2.2174,13.89331 -2.19729,32.73165 0.0251,23.54054 0.96011,31.02148 6.09946,48.8029 4.639,16.05028 9.15138,26.31687 19.38163,44.09722 8.30017,14.42583 23.14961,42.97398 30.15025,57.96404 7.74417,16.58217 11.19234,26.82614 14.96703,44.46472 2.24553,10.49311 3.66792,14.93723 5.85433,18.29122 l 2.88812,4.43044 -4.79219,0.29098 -4.79219,0.29099 v 30.2746 30.2746 h -43.75902 -43.75903 z"
   id="path1030"
   transform="scale(0.64)" /><path
   style="fill:#808080;stroke-width:0.962696"
   d="m 113.72801,866.12175 c -0.45785,-0.89164 -0.66975,-2.06827 -0.47089,-2.61477 0.19886,-0.54648 -0.29106,-6.61146 -1.08872,-13.47773 -0.79766,-6.86627 -1.68282,-15.30001 -1.96702,-18.74164 -0.28421,-3.44164 -1.36405,-13.83875 -2.39966,-23.1047 -1.0356,-9.26594 -2.11863,-19.66305 -2.40674,-23.10469 -0.2881,-3.44164 -1.39174,-13.83875 -2.45253,-23.10469 -1.06079,-9.26595 -1.96176,-17.497 -2.00215,-18.29122 -0.0404,-0.79422 -1.131537,-11.19134 -2.424762,-23.10469 -1.293226,-11.91336 -2.368469,-22.31047 -2.389431,-23.1047 -0.02096,-0.79422 -0.674847,-7.07581 -1.453079,-13.95908 -0.778232,-6.88327 -1.43584,-13.16486 -1.461351,-13.95909 -0.02551,-0.79422 -1.104478,-11.19133 -2.397703,-23.10469 -1.293226,-11.91336 -2.371278,-22.31047 -2.395674,-23.10469 -0.02439,-0.79423 -1.107849,-11.19134 -2.407674,-23.1047 -1.299826,-11.91335 -2.382858,-22.31047 -2.406739,-23.10469 -0.02388,-0.79422 -1.106914,-11.19133 -2.406739,-23.10469 -1.299825,-11.91336 -2.387271,-22.31047 -2.416544,-23.1047 -0.02928,-0.79422 -1.117258,-11.19133 -2.417739,-23.10469 -1.300481,-11.91336 -2.371861,-22.31047 -2.380843,-23.10469 -0.009,-0.79423 -0.450215,-4.90975 -0.980515,-9.14561 -0.530301,-4.23586 -0.975734,-8.35138 -0.989851,-9.14561 -0.01411,-0.79422 -1.083759,-11.19133 -2.376985,-23.10469 -1.293225,-11.91336 -2.364038,-22.31047 -2.379584,-23.10469 -0.01555,-0.79423 -0.462148,-4.90975 -0.992449,-9.14561 -0.530301,-4.23586 -0.976983,-8.35139 -0.992628,-9.14561 -0.01564,-0.79422 -2.577832,-25.85514 -5.693751,-55.69094 -3.11592,-29.83579 -5.665308,-54.42062 -5.665308,-54.63297 0,-0.21234 22.093862,-0.38608 49.097469,-0.38608 h 49.09748 l 0.051,7.46089 c 0.0557,8.1523 -0.0104,6.92615 3.35636,62.26838 1.53012,25.15206 2.71428,38.67386 3.42533,39.11331 0.78492,0.48511 0.75637,0.78177 -0.10281,1.06816 -1.57347,0.52449 -0.31345,14.27009 1.31007,14.29173 0.678,0.009 0.5979,0.33644 -0.20709,0.84644 -1.65874,1.05091 -0.57529,14.53342 1.16978,14.55669 0.678,0.009 0.5979,0.33644 -0.20708,0.84644 -1.65875,1.0509 -0.57529,14.53342 1.16978,14.55669 0.76408,0.0102 0.73838,0.24803 -0.0832,0.76987 -1.11455,0.70793 -0.0288,21.58237 5.99314,115.2202 0.27241,4.23586 0.69448,11.05976 0.93793,15.16423 0.24345,4.10446 0.65214,10.81926 0.9082,14.92178 0.25605,4.10251 0.69588,11.48722 0.9774,16.41046 0.63825,11.16201 10.64036,171.83221 12.56746,201.87898 0.78105,12.1781 1.69321,29.56762 2.02701,38.64337 l 0.6069,16.50138 -4.67571,0.45871 c -2.57165,0.25229 -18.64691,0.7042 -35.7228,1.00425 -28.46613,0.50018 -31.11629,0.41077 -31.87954,-1.07561 z"
   id="path1101"
   transform="scale(0.64)" /><path
   style="fill:#808080;stroke-width:0.962696"
   d="m 625.03008,867.1509 -11.79302,-0.30282 v -4.46307 c 0,-2.45469 2.37799,-42.40526 5.28441,-88.77904 19.70866,-314.46373 29.41099,-472.93224 29.21046,-477.09574 l -0.23182,-4.81348 49.56788,-0.24923 49.56789,-0.24922 -2.65122,24.79796 c -4.33081,40.50803 -19.79749,188.6312 -38.77743,371.36836 -9.78903,94.2479 -18.06548,173.41757 -18.39211,175.93261 l -0.59387,4.57281 -24.69907,-0.20816 c -13.58449,-0.11448 -30.00593,-0.34442 -36.4921,-0.51098 z"
   id="path1103"
   transform="scale(0.64)" /><path
   style="fill:#808080;stroke-width:0.962696"
   d="M 233.7396,220.48201 247.8941,197.8834 400,197.8794 l 152.1059,-0.004 14.16313,22.60274 14.16311,22.60275 H 400.00863 219.5851 Z"
   id="path1105"
   transform="scale(0.64)" /><path
   style="fill:#808080;stroke-width:0.962696"
   d="m 624.5986,220.45582 -14.1499,-22.62188 h 27.99465 27.99465 l 12.89775,12.27436 c 7.09376,6.75091 17.75892,16.91547 23.70037,22.58792 l 10.80263,10.31355 -37.54513,0.034 -37.54512,0.034 -14.1499,-22.62188 z"
   id="path1107"
   transform="scale(0.64)" /><path
   style="fill:#999999;stroke-width:0.962696"
   d="m 103.04437,226.97263 c 9.24617,-8.8594 19.88338,-19.04656 23.63823,-22.63813 l 6.827,-6.53013 27.90218,0.25546 27.90217,0.25545 -14.03122,22.37686 -14.03123,22.37687 -37.50917,0.006 -37.509182,0.006 z"
   id="path1109"
   transform="scale(0.64)" /><path
   style="fill:#999999;stroke-width:0.962696"
   d="m 222.56878,239.3946 c 1.22135,-2.02732 7.41919,-11.98308 13.77298,-22.12393 l 11.55234,-18.4379 152.1059,-0.008 152.1059,-0.008 11.55234,18.44277 c 6.35379,10.14352 12.55164,20.10273 13.77298,22.13159 l 2.22063,3.68882 H 400 220.34815 Z"
   id="path1180"
   transform="scale(0.64)" /><path
   style="fill:#999999;stroke-width:0.962696"
   d="m 626.04309,221.73525 c -7.37977,-11.82202 -13.7389,-22.03609 -14.13141,-22.69795 -0.56418,-0.95134 4.99403,-1.1993 26.53933,-1.18393 l 27.25296,0.0194 22.89061,21.77507 c 12.58984,11.9763 22.77034,21.87556 22.62335,21.99838 -0.147,0.12282 -16.35247,0.52937 -36.01217,0.90344 l -35.7449,0.68014 z"
   id="path1182"
   transform="scale(0.64)" /><path
   style="fill:#999999;stroke-width:0.962696"
   d="m 648.37545,866.93349 -34.65704,-0.5075 0.11633,-2.88808 c 0.42041,-10.43755 2.25343,-45.28822 2.98743,-56.79904 0.2701,-4.23586 0.71174,-11.38388 0.98142,-15.88448 0.94626,-15.79212 1.36559,-22.69284 1.85718,-30.56286 0.27276,-4.36673 0.71254,-11.40521 0.97728,-15.64108 0.26474,-4.23586 0.68,-11.06018 0.9228,-15.16517 0.24279,-4.105 3.22468,-51.21813 6.62642,-104.69587 3.40173,-53.47774 6.20262,-98.7485 6.2242,-100.60168 0.0216,-1.85319 0.28878,-6.94222 0.59379,-11.30895 0.30502,-4.36673 0.75258,-11.29814 0.99458,-15.40313 0.24201,-4.10499 1.92562,-30.42391 3.74137,-58.48648 1.81574,-28.06258 3.30226,-52.53911 3.30336,-54.3923 10e-4,-1.85319 0.23663,-6.83514 0.52338,-11.071 0.57862,-8.54743 1.28231,-19.73121 1.95339,-31.04516 0.24345,-4.10446 0.68585,-11.14497 0.9831,-15.64557 0.51939,-7.86385 1.38966,-28.18442 1.38966,-32.44801 v -2.05457 l 48.8568,-0.32424 c 26.87124,-0.17833 48.96425,-0.28615 49.09556,-0.23959 0.13132,0.0465 -2.99614,30.80753 -6.94992,68.35772 -3.95377,37.55019 -7.19975,69.13949 -7.21328,70.19846 -0.0135,1.05896 -1.09419,11.23947 -2.40148,22.62335 -1.30728,11.38387 -2.39039,21.78098 -2.4069,23.10469 -0.0166,1.3237 -1.10853,11.72082 -2.4267,23.10469 -1.31818,11.38388 -2.3226,21.56438 -2.23204,22.62335 0.0906,1.05896 -0.11637,2.79181 -0.45982,3.85078 -0.34346,1.05896 -0.87935,5.39109 -1.19089,9.62695 -0.31153,4.23586 -1.39905,15.06619 -2.4167,24.06739 -1.01765,9.00121 -2.09974,19.39832 -2.40463,23.1047 -0.3049,3.70637 -1.18051,11.93742 -1.9458,18.29121 -0.7653,6.35379 -1.31338,12.41877 -1.21797,13.47774 0.0954,1.05896 -0.10751,2.79182 -0.45096,3.85078 -0.34346,1.05897 -0.87749,5.3911 -1.18674,9.62696 -0.30925,4.23586 -1.18034,12.90012 -1.93575,19.25391 -0.75541,6.35379 -1.377,12.63538 -1.3813,13.95908 -0.004,1.32371 -1.08446,11.72082 -2.40034,23.1047 -1.31588,11.38387 -2.39892,21.78098 -2.40674,23.10469 -0.008,1.32371 -1.09086,11.72082 -2.40674,23.10469 -1.31588,11.38388 -2.39707,21.78099 -2.40263,23.1047 -0.006,1.3237 -0.45364,5.43923 -0.9957,9.1456 -0.54207,3.70638 -1.17093,9.77136 -1.39747,13.47774 -0.22654,3.70638 -0.61882,7.38869 -0.87173,8.18291 -0.54134,1.70003 -4.66869,42.61309 -4.42788,43.89224 0.0904,0.48021 0.06,1.08971 -0.0676,1.35445 -0.12757,0.26475 -1.15361,8.92409 -2.28007,19.24299 -1.64628,15.08061 -2.33144,18.76891 -3.49217,18.79872 -0.79422,0.0204 -17.03971,-0.19131 -36.10108,-0.47043 z"
   id="path1184"
   transform="scale(0.64)" /><path
   style="fill:#999999;stroke-width:0.962696"
   d="m 239.36578,867.12729 c -0.25247,-0.40851 -0.74441,-5.49877 -1.09319,-11.31168 -0.34877,-5.8129 -0.87177,-11.21874 -1.16222,-12.01296 -0.29044,-0.79423 -0.48311,-3.3935 -0.42815,-5.77618 0.055,-2.38267 -0.53148,-12.34657 -1.30318,-22.14199 -0.77171,-9.79543 -1.42713,-18.45969 -1.4565,-19.25391 -0.41315,-11.1738 -15.74325,-258.88766 -16.08598,-259.9278 -0.2617,-0.79423 -0.40186,-4.54256 -0.31147,-8.32962 0.097,-4.0641 -0.26121,-7.14857 -0.87418,-7.52741 -0.57118,-0.35301 -0.76104,-1.09079 -0.42191,-1.63952 0.71117,-1.1507 -4.55136,-91.64831 -5.35034,-92.00756 -0.29133,-0.13099 -0.38839,-3.705 -0.2157,-7.94224 0.17269,-4.23724 -0.0554,-7.70407 -0.50679,-7.70407 -0.45142,0 -0.6744,-1.62455 -0.49551,-3.61011 0.17889,-1.98556 -1.2176,-28.04281 -3.10332,-57.90499 -1.88572,-29.86219 -3.42858,-55.31345 -3.42858,-56.55837 v -2.26348 h 197.00886 197.00886 l -0.68442,9.86763 c -0.37645,5.4272 -0.87465,14.7876 -1.10713,20.8009 -0.23248,6.01329 -0.61114,11.23817 -0.84146,11.61084 -0.23032,0.37268 -0.55217,7.47037 -0.71522,15.77266 -0.16304,8.30229 -0.54089,15.09907 -0.83967,15.10395 -0.76232,0.0125 -4.14003,59.31781 -3.47684,61.04605 0.29836,0.77751 0.21534,1.54994 -0.1845,1.71652 -0.88945,0.37057 -8.24738,119.4178 -7.54649,122.09802 0.2749,1.05118 0.0741,1.91123 -0.44608,1.91123 -0.56672,0 -0.82001,3.08803 -0.63189,7.70383 0.17269,4.2371 0.0725,7.7028 -0.22259,7.70156 -0.54694,-0.002 -4.1686,58.41134 -3.73032,60.16621 0.13224,0.52948 -0.003,1.61252 -0.29925,2.40674 -0.29683,0.79422 -2.51609,35.01805 -4.9317,76.05295 -2.4156,41.0349 -4.43483,75.25872 -4.48716,76.05295 -0.0524,0.79422 -0.31724,4.90974 -0.58869,9.1456 -0.27145,4.23586 -1.10142,15.71601 -1.84438,25.51144 -0.74296,9.79542 -1.30586,19.75932 -1.2509,22.14199 0.055,2.38268 -0.13772,4.98195 -0.42816,5.77618 -0.29045,0.79422 -0.81344,6.20006 -1.16223,12.01296 -0.34877,5.81291 -0.84071,10.90317 -1.09318,11.31168 -0.25247,0.40851 -19.06164,0.74275 -41.79814,0.74275 h -41.33909 v -30.32491 -30.32491 h -5.73008 -5.73008 l 2.37551,-4.5787 c 1.30653,-2.51828 4.3042,-12.03029 6.66148,-21.13778 2.35728,-9.1075 5.85411,-20.80161 7.77073,-25.98689 4.43674,-12.00331 15.96509,-35.86841 26.87627,-55.63719 19.34781,-35.05417 29.33858,-56.40174 28.01298,-59.85619 -0.26909,-0.70124 -0.10436,-1.27497 0.36606,-1.27497 0.9744,0 4.24753,-13.44884 3.46385,-14.23252 -0.28166,-0.28166 -0.0955,-1.01406 0.41363,-1.62756 0.50915,-0.61348 1.20866,-3.68584 1.55445,-6.82744 0.3458,-3.14161 0.87527,-7.87807 1.17658,-10.52548 1.2793,-11.24005 0.43203,-34.59211 -1.71152,-47.17208 -1.17287,-6.88328 -2.50299,-12.65133 -2.95583,-12.81792 -0.45284,-0.16657 -0.61065,-0.85715 -0.35068,-1.53462 0.70202,-1.82944 -5.9175,-20.94875 -10.74647,-31.0393 -8.36354,-17.4763 -25.13912,-39.45179 -39.52971,-51.78268 -21.89222,-18.75882 -49.03525,-30.18949 -76.67641,-32.29055 -23.88936,-1.81588 -43.77814,1.37663 -64.72331,10.38927 -19.42389,8.35805 -25.23321,12.42508 -42.88955,30.02646 -20.18624,20.12342 -27.93596,31.75566 -37.84109,56.79904 -4.77452,12.07155 -9.69683,30.07634 -8.97606,32.83256 0.24913,0.95269 -0.0426,1.89733 -0.6482,2.09922 -1.66383,0.55461 -1.48339,49.06167 0.21743,58.44968 1.87516,10.35036 7.11134,28.02715 11.12153,37.54513 1.89623,4.5006 8.23483,16.84717 14.08578,27.43682 15.05479,27.24771 32.9708,63.76811 36.83742,75.09026 1.80824,5.29482 4.69129,15.69193 6.40678,23.10469 1.7847,7.71178 4.27104,15.63997 5.81174,18.53189 l 2.69265,5.05415 h -2.71676 c -6.07938,0 -5.76232,-1.72722 -5.76232,31.39061 v 30.22191 h -43.26448 c -23.79547,0 -43.47106,-0.33424 -43.72353,-0.74275 z"
   id="path1186"
   transform="scale(0.64)" /><path
   style="fill:#999999;stroke-width:0.962696"
   d="m 114.23987,866.26554 c -0.35299,-0.35298 -0.6453,-2.19414 -0.64958,-4.09146 -0.004,-1.89731 -2.38925,-25.97673 -5.29993,-53.50982 C 105.37968,781.13117 98.007246,710.73406 91.907173,652.22623 85.8071,593.71841 76.524119,504.69314 71.278328,454.3923 56.396258,311.69112 54.529531,293.16401 54.987388,292.70615 c 0.235408,-0.2354 22.183376,-0.73568 48.773262,-1.11171 l 48.34525,-0.6837 0.0705,3.76244 c 0.0387,2.06934 0.017,6.79493 -0.0483,10.50131 -0.13986,7.93801 4.53316,84.57648 5.37107,88.08664 0.31598,1.32371 0.68418,6.52226 0.81823,11.55235 0.13405,5.03008 0.4694,12.61131 0.74524,16.84717 0.6119,9.39701 1.5751,23.37368 1.79126,25.99278 0.0874,1.05896 0.54134,9.93983 1.00875,19.73526 0.46741,9.79543 2.14329,38.60409 3.72417,64.01925 19.5813,314.80021 20.60838,332.73496 19.10799,333.66226 -2.23892,1.38373 -69.1316,2.51863 -70.45489,1.19534 z"
   id="path1188"
   transform="scale(0.64)" /><path
   style="fill:#786721;stroke-width:0.962696"
   d="m 336.74812,804.5728 c -4.0099,-4.27897 -6.19972,-9.74407 -7.87245,-19.64718 -1.94491,-11.51448 -5.40086,-23.58457 -9.85284,-34.41149 -6.06624,-14.75271 -24.1455,-49.66649 -40.6766,-78.55264 -8.46626,-14.79381 -15.51302,-34.78871 -18.99972,-53.91095 -1.34478,-7.37523 -1.74959,-14.35559 -1.73069,-29.84356 0.0222,-18.17882 0.2841,-21.44411 2.59841,-32.39454 7.58274,-35.87859 22.68335,-63.6623 47.58553,-87.55293 20.22129,-19.39988 45.3754,-32.47281 71.02094,-36.91053 11.14314,-1.92821 32.31859,-1.94635 43.43587,-0.0372 43.5041,7.47091 82.16977,37.22269 103.49422,79.63492 24.70482,49.13546 24.35291,109.18284 -0.92018,157.00877 -2.56331,4.85072 -7.39845,13.58483 -10.74475,19.40914 -3.34631,5.82431 -11.78273,21.85319 -18.7476,35.61974 -13.45617,26.59702 -19.25706,41.67432 -22.22345,57.76173 -2.58377,14.01238 -3.97577,18.06814 -7.69097,22.40852 l -3.48001,4.06561 h -61.35738 -61.35739 z"
   id="path1283"
   transform="scale(0.64)" /></svg>
