<?xml version="1.0" encoding="iso-8859-1"?>
<!-- Generator: Adobe Illustrator 19.0.0, SVG Export Plug-In . SVG Version: 6.00 Build 0)  -->
<svg version="1.1" id="Layer_1" xmlns="http://www.w3.org/2000/svg" xmlns:xlink="http://www.w3.org/1999/xlink" x="0px" y="0px"
	 viewBox="0 0 512 512" style="enable-background:new 0 0 512 512;" xml:space="preserve">
<g transform="translate(0 -1)">
	<g>
		<path style="fill:#243442;" d="M35.93,288.439L35.93,288.439c-9.926,0-17.965-8.039-17.965-17.965V18.965
			C17.965,9.039,26.004,1,35.93,1s17.965,8.039,17.965,17.965v251.509C53.895,280.399,45.855,288.439,35.93,288.439"/>
		<path style="fill:#243442;" d="M440.14,90.825c0,24.801-20.112,44.912-44.912,44.912c-24.801,0-44.912-20.112-44.912-44.912
			s20.112-44.912,44.912-44.912C420.029,45.912,440.14,66.024,440.14,90.825"/>
	</g>
	<g>
		<path style="fill:#35495E;" d="M395.228,45.912H53.895v35.93h297.328C355.382,61.344,373.5,45.912,395.228,45.912"/>
		<path style="fill:#35495E;" d="M323.368,441.14c0,39.685,32.175,71.86,71.86,71.86s71.86-32.175,71.86-71.86H323.368z"/>
	</g>
	<polygon style="fill:#F3D55B;" points="467.088,441.14 323.368,441.14 296.421,261.491 494.035,261.491 	"/>
	<polygon style="fill:#35495E;" points="494.035,261.491 296.421,261.491 395.228,135.737 	"/>
</g>
<g>
</g>
<g>
</g>
<g>
</g>
<g>
</g>
<g>
</g>
<g>
</g>
<g>
</g>
<g>
</g>
<g>
</g>
<g>
</g>
<g>
</g>
<g>
</g>
<g>
</g>
<g>
</g>
<g>
</g>
</svg>
