<?xml version="1.0" encoding="UTF-8" standalone="no"?>
<!-- Generator: Adobe Illustrator 19.0.0, SVG Export Plug-In . SVG Version: 6.00 Build 0)  -->

<svg
   version="1.1"
   id="Layer_1"
   x="0px"
   y="0px"
   viewBox="0 0 512 512"
   style="enable-background:new 0 0 512 512;"
   xml:space="preserve"
   sodipodi:docname="lava-lamp-corner-lamp.svg"
   inkscape:version="1.2 (dc2aedaf03, 2022-05-15)"
   xmlns:inkscape="http://www.inkscape.org/namespaces/inkscape"
   xmlns:sodipodi="http://sodipodi.sourceforge.net/DTD/sodipodi-0.dtd"
   xmlns="http://www.w3.org/2000/svg"
   xmlns:svg="http://www.w3.org/2000/svg"><defs
   id="defs8305" /><sodipodi:namedview
   id="namedview8303"
   pagecolor="#ffffff"
   bordercolor="#000000"
   borderopacity="0.25"
   inkscape:showpageshadow="2"
   inkscape:pageopacity="0.0"
   inkscape:pagecheckerboard="0"
   inkscape:deskcolor="#d1d1d1"
   showgrid="false"
   inkscape:zoom="1.6542969"
   inkscape:cx="188.29752"
   inkscape:cy="256.30224"
   inkscape:window-width="1920"
   inkscape:window-height="1027"
   inkscape:window-x="-8"
   inkscape:window-y="-8"
   inkscape:window-maximized="1"
   inkscape:current-layer="Layer_1" />
<path
   style="fill:#C9D2D9;"
   d="M349.172,81.036c0.71,4.802-0.706,9.675-3.877,13.35s-7.786,5.788-12.64,5.788H179.345  c-4.854,0-9.468-2.113-12.639-5.788c-3.171-3.675-4.587-8.548-3.877-13.35l9.873-66.783C173.912,6.065,180.94,0,189.217,0h133.565  c8.278,0,15.305,6.065,16.516,14.254L349.172,81.036z"
   id="path8244" />
<path
   style="fill:#B7C4CC;"
   d="M332.655,100.174c4.854,0,9.468-2.113,12.639-5.788c3.171-3.675,4.587-8.548,3.877-13.35  l-9.873-66.783C338.088,6.065,331.06,0,322.783,0H256v100.174H332.655z"
   id="path8246" />
<path
   style="fill:#C9D2D9;"
   d="M386.482,364.856c-1.425,7.457-3.873,14.726-7.302,21.615l-21.037,42.051H153.856l-21.025-42.029  c-3.439-6.912-5.888-14.18-7.313-21.638c-0.924-4.886,0.378-9.928,3.551-13.768c3.161-3.829,7.88-6.044,12.856-6.044h228.152  c4.975,0,9.695,2.215,12.856,6.044C386.104,354.927,387.406,359.969,386.482,364.856z"
   id="path8248" />
<path
   style="fill:#B7C4CC;"
   d="M256,428.522h102.144l21.037-42.051c3.428-6.89,5.877-14.158,7.302-21.615  c0.924-4.886-0.378-9.928-3.551-13.768c-3.161-3.829-7.88-6.044-12.856-6.044H256V428.522z"
   id="path8250" />
<path
   style="fill:#FFC033;"
   d="M387.551,340.847c-0.022-0.256-0.056-0.512-0.089-0.768l-27.214-184.153l-13.178-89.144H164.931  l-9.16,61.985l-12.01,81.286l-19.222,130.026c-0.033,0.256-0.067,0.512-0.089,0.768c-1.28,12.689,0.367,25.511,4.886,37.587h253.329  C387.183,366.358,388.831,353.536,387.551,340.847z"
   id="path8252" />
<path
   style="fill:#F9A926;"
   d="M256,378.435h126.664c4.519-12.077,6.166-24.899,4.886-37.587c-0.022-0.256-0.056-0.512-0.089-0.768  l-27.214-184.153l-13.178-89.144H256V378.435z"
   id="path8254" />
<path
   style="fill:#736056;"
   d="M387.072,504.086c-3.039,4.92-8.415,7.914-14.202,7.914H139.13c-5.788,0-11.164-2.994-14.202-7.914  c-3.039-4.931-3.317-11.075-0.735-16.25l29.663-59.314h204.288l29.663,59.314C390.389,493.011,390.111,499.155,387.072,504.086z"
   id="path8256" />
<path
   style="fill:#665247;"
   d="M256,512h116.87c5.788,0,11.164-2.994,14.202-7.914c3.039-4.931,3.317-11.075,0.735-16.25  l-29.663-59.314H256V512z"
   id="path8258" />




<g
   id="g8272">
</g>
<g
   id="g8274">
</g>
<g
   id="g8276">
</g>
<g
   id="g8278">
</g>
<g
   id="g8280">
</g>
<g
   id="g8282">
</g>
<g
   id="g8284">
</g>
<g
   id="g8286">
</g>
<g
   id="g8288">
</g>
<g
   id="g8290">
</g>
<g
   id="g8292">
</g>
<g
   id="g8294">
</g>
<g
   id="g8296">
</g>
<g
   id="g8298">
</g>
<g
   id="g8300">
</g>
</svg>
