<?xml version="1.0" encoding="UTF-8" standalone="no"?>
<!-- Generator: Adobe Illustrator 18.0.0, SVG Export Plug-In . SVG Version: 6.00 Build 0)  -->

<svg
   version="1.1"
   id="Capa_1"
   x="0px"
   y="0px"
   viewBox="0 0 59 59"
   style="enable-background:new 0 0 59 59;"
   xml:space="preserve"
   sodipodi:docname="lights-pendant-lights-white.svg"
   inkscape:version="1.2 (dc2aedaf03, 2022-05-15)"
   xmlns:inkscape="http://www.inkscape.org/namespaces/inkscape"
   xmlns:sodipodi="http://sodipodi.sourceforge.net/DTD/sodipodi-0.dtd"
   xmlns="http://www.w3.org/2000/svg"
   xmlns:svg="http://www.w3.org/2000/svg"><defs
   id="defs770" /><sodipodi:namedview
   id="namedview768"
   pagecolor="#ffffff"
   bordercolor="#000000"
   borderopacity="0.25"
   inkscape:showpageshadow="2"
   inkscape:pageopacity="0.0"
   inkscape:pagecheckerboard="0"
   inkscape:deskcolor="#d1d1d1"
   showgrid="false"
   inkscape:zoom="14.355932"
   inkscape:cx="29.465171"
   inkscape:cy="29.534829"
   inkscape:window-width="1920"
   inkscape:window-height="1027"
   inkscape:window-x="-8"
   inkscape:window-y="-8"
   inkscape:window-maximized="1"
   inkscape:current-layer="Capa_1" />
<g
   id="g735"
   style="fill:#ffffff">
	<path
   d="m 46.5,-0.00487603 h -4 -26 -4 c -0.553,0 -1,0.447 -1,1 0,0.55300003 0.447,1.00000003 1,1.00000003 h 3 v 3 c 0,0.553 0.447,1 1,1 h 2 v 15 h -1 c -0.553,0 -1,0.447 -1,1 v 4 1.809 c -1.842,1.064 -3,3.036 -3,5.191 0,3.309 2.691,6 6,6 3.309,0 6,-2.691 6,-6 0,-2.155 -1.158,-4.127 -3,-5.191 v -1.809 -4 c 0,-0.553 -0.447,-1 -1,-1 h -1 v -15 h 8 v 35 h -1 c -0.553,0 -1,0.447 -1,1 v 4 1.809 c -1.842,1.064 -3,3.036 -3,5.191 0,3.309 2.691,6 6,6 3.309,0 6,-2.691 6,-6 0,-2.155 -1.158,-4.127 -3,-5.191 v -1.809 -4 c 0,-0.553 -0.447,-1 -1,-1 h -1 v -35 h 8 v 25 h -1 c -0.553,0 -1,0.447 -1,1 v 4 1.809 c -1.842,1.064 -3,3.036 -3,5.191 0,3.309 2.691,6 6,6 3.309,0 6,-2.691 6,-6 0,-2.155 -1.158,-4.127 -3,-5.191 v -1.809 -4 c 0,-0.553 -0.447,-1 -1,-1 h -1 v -25 h 2 c 0.553,0 1,-0.447 1,-1 v -3 h 3 c 0.553,0 1,-0.447 1,-1.00000003 0,-0.553 -0.447,-1 -1,-1 z M 18.5,22.995124 h 2 v 2 h -2 z m 5,10 c 0,2.206 -1.794,4 -4,4 -2.206,0 -4,-1.794 -4,-4 0,-1.586 0.942,-3.023 2.401,-3.662 0.363,-0.159 0.599,-0.519 0.599,-0.916 v -1.422 h 2 v 1.422 c 0,0.397 0.235,0.757 0.599,0.916 1.459,0.639 2.401,2.076 2.401,3.662 z m 5,10 h 2 v 2 h -2 z m 5,10 c 0,2.206 -1.794,4 -4,4 -2.206,0 -4,-1.794 -4,-4 0,-1.586 0.942,-3.023 2.401,-3.662 0.363,-0.159 0.599,-0.519 0.599,-0.916 v -1.422 h 2 v 1.422 c 0,0.397 0.235,0.757 0.599,0.916 1.459,0.639 2.401,2.076 2.401,3.662 z m 5,-20 h 2 v 2 h -2 z m 5,10 c 0,2.206 -1.794,4 -4,4 -2.206,0 -4,-1.794 -4,-4 0,-1.586 0.942,-3.023 2.401,-3.662 0.363,-0.159 0.599,-0.519 0.599,-0.916 v -1.422 h 2 v 1.422 c 0,0.397 0.235,0.757 0.599,0.916 1.459,0.639 2.401,2.076 2.401,3.662 z m -2,-39 h -24 v -2 h 24 z"
   id="path727"
   style="fill:#ffffff" />
	<path
   d="M20.5,32v-2c0-0.553-0.447-1-1-1s-1,0.447-1,1v2c-0.553,0-1,0.447-1,1s0.447,1,1,1h2c0.553,0,1-0.447,1-1   S21.053,32,20.5,32z"
   id="path729"
   style="fill:#ffffff" />
	<path
   d="M40.5,42v-2c0-0.553-0.447-1-1-1s-1,0.447-1,1v2c-0.553,0-1,0.447-1,1s0.447,1,1,1h2c0.553,0,1-0.447,1-1   S41.053,42,40.5,42z"
   id="path731"
   style="fill:#ffffff" />
	<path
   d="m 30.5,51.998309 v -2 c 0,-0.553 -0.447,-1 -1,-1 -0.553,0 -1,0.447 -1,1 v 2 c -0.553,0 -1,0.447 -1,1 0,0.553 0.447,1 1,1 h 2 c 0.553,0 1,-0.447 1,-1 0,-0.553 -0.447,-1 -1,-1 z"
   id="path733"
   style="fill:#ffffff" />
</g>
<g
   id="g737">
</g>
<g
   id="g739">
</g>
<g
   id="g741">
</g>
<g
   id="g743">
</g>
<g
   id="g745">
</g>
<g
   id="g747">
</g>
<g
   id="g749">
</g>
<g
   id="g751">
</g>
<g
   id="g753">
</g>
<g
   id="g755">
</g>
<g
   id="g757">
</g>
<g
   id="g759">
</g>
<g
   id="g761">
</g>
<g
   id="g763">
</g>
<g
   id="g765">
</g>
</svg>
