<?xml version="1.0" encoding="UTF-8" standalone="no"?>
<!-- Generator: Adobe Illustrator 19.0.0, SVG Export Plug-In . SVG Version: 6.00 Build 0)  -->

<svg
   version="1.1"
   id="Layer_1"
   x="0px"
   y="0px"
   viewBox="0 0 512.327 512.327"
   style="enable-background:new 0 0 512.327 512.327;"
   xml:space="preserve"
   sodipodi:docname="lights-christmas-string-color-off.svg"
   inkscape:version="1.2 (dc2aedaf03, 2022-05-15)"
   xmlns:inkscape="http://www.inkscape.org/namespaces/inkscape"
   xmlns:sodipodi="http://sodipodi.sourceforge.net/DTD/sodipodi-0.dtd"
   xmlns="http://www.w3.org/2000/svg"
   xmlns:svg="http://www.w3.org/2000/svg"><defs
   id="defs11458" /><sodipodi:namedview
   id="namedview11456"
   pagecolor="#ffffff"
   bordercolor="#000000"
   borderopacity="0.25"
   inkscape:showpageshadow="2"
   inkscape:pageopacity="0.0"
   inkscape:pagecheckerboard="0"
   inkscape:deskcolor="#d1d1d1"
   showgrid="false"
   inkscape:zoom="1.6532409"
   inkscape:cx="189.02266"
   inkscape:cy="257.07082"
   inkscape:window-width="1920"
   inkscape:window-height="1027"
   inkscape:window-x="-8"
   inkscape:window-y="-8"
   inkscape:window-maximized="1"
   inkscape:current-layer="g11423" />
<g
   transform="translate(1 1)"
   id="g11423">
	<g
   id="g11355">
		
		
		
		
	</g>
	<g
   id="g11363">
		<path
   style="fill:#54C9FD;"
   d="M118.63,246.712H84.497v-25.6c0-5.12,3.413-8.533,8.533-8.533h17.067    c5.12,0,8.533,3.413,8.533,8.533V246.712z"
   id="path11357" />
		<path
   style="fill:#54C9FD;"
   d="M425.83,246.712h-34.133v-25.6c0-5.12,3.413-8.533,8.533-8.533h17.067    c5.12,0,8.533,3.413,8.533,8.533V246.712z"
   id="path11359" />
		<path
   style="fill:#54C9FD;"
   d="M272.23,263.779h-34.133v-25.6c0-5.12,3.413-8.533,8.533-8.533h17.067    c5.12,0,8.533,3.413,8.533,8.533V263.779z"
   id="path11361" />
	</g>
	<g
   id="g11369">
		
		
	</g>
	
	
	<g
   id="g11379">
		
		
	</g>
	<g
   id="g11387">
		
		
		
	</g>
	<g
   id="g11395">
		
		
		
	</g>
	<path
   d="M255.164,186.979c-83.627,0-167.253-11.947-250.027-34.133c-4.267-1.707-6.827-5.973-5.973-11.093   c1.707-4.267,5.973-6.827,11.093-5.973c162.987,45.227,327.68,45.227,490.667,0c4.267-0.853,9.387,1.707,10.24,5.973   s-1.707,9.387-5.973,10.24C422.417,175.032,338.79,186.979,255.164,186.979z"
   id="path11397" />
	<path
   d="M255.164,238.179c-5.12,0-8.533-3.413-8.533-8.533v-51.2c0-5.12,3.413-8.533,8.533-8.533c5.12,0,8.533,3.413,8.533,8.533   v51.2C263.697,234.765,260.284,238.179,255.164,238.179z"
   id="path11399" />
	<path
   d="M101.564,221.112c-5.12,0-8.533-3.413-8.533-8.533v-46.933c0-5.12,3.413-8.533,8.533-8.533s8.533,3.413,8.533,8.533v46.933   C110.097,217.699,106.684,221.112,101.564,221.112z"
   id="path11401" />
	<path
   d="M101.564,357.645c-13.653,0-26.453-7.68-32.427-19.627l-1.707-4.267c-11.093-23.04-11.093-49.493,0-72.533l9.387-18.773   c1.707-2.56,4.267-4.267,7.68-4.267h34.133c3.413,0,5.973,1.707,7.68,5.12l9.387,18.773c11.093,23.04,11.093,49.493,0,72.533   l-1.707,3.413C128.017,349.965,115.217,357.645,101.564,357.645z M89.617,255.245l-6.827,14.507   c-8.533,17.92-8.533,39.253,0,57.173l1.707,3.413c3.413,6.827,9.387,10.24,17.067,10.24s13.653-4.267,17.067-10.24l1.707-3.413   c8.533-17.92,8.533-39.253,0-57.173l-6.827-14.507H89.617z"
   id="path11403" />
	<path
   d="M118.63,255.245H84.497c-5.12,0-8.533-3.413-8.533-8.533v-25.6c0-9.387,7.68-17.067,17.067-17.067h17.067   c9.387,0,17.067,7.68,17.067,17.067v25.6c0,2.56-0.853,4.267-2.56,5.973S121.19,255.245,118.63,255.245z M93.03,238.179h17.067   v-17.067H93.03V238.179z"
   id="path11405" />
	<path
   d="M408.764,357.645c-13.653,0-26.453-7.68-32.427-19.627l-1.707-4.267c-11.093-23.04-11.093-49.493,0-72.533l9.387-18.773   c1.707-2.56,4.267-5.12,7.68-5.12h34.133c3.413,0,5.973,1.707,7.68,5.12l9.387,18.773c11.093,23.04,11.093,49.493,0,72.533   l-1.707,3.413C435.217,349.965,422.417,357.645,408.764,357.645z M396.817,255.245l-6.827,14.507   c-8.533,17.92-8.533,39.253,0,57.173l1.707,3.413c3.413,6.827,9.387,10.24,17.067,10.24s13.653-4.267,17.067-10.24l1.707-3.413   c8.533-17.92,8.533-39.253,0-57.173l-6.827-14.507H396.817z"
   id="path11407" />
	<path
   d="M425.83,255.245h-34.133c-5.12,0-8.533-3.413-8.533-8.533v-25.6c0-9.387,7.68-17.067,17.067-17.067h17.067   c9.387,0,17.067,7.68,17.067,17.067v25.6c0,2.56-0.853,4.267-2.56,5.973S428.39,255.245,425.83,255.245z M400.23,238.179h17.067   v-17.067H400.23V238.179z"
   id="path11409" />
	<path
   d="M255.164,374.712c-13.653,0-26.453-7.68-32.427-19.627l-1.707-4.267c-11.093-23.04-11.093-49.493,0-72.533l9.387-18.773   c1.707-2.56,4.267-5.12,7.68-5.12h34.133c3.413,0,5.973,1.707,7.68,5.12l9.387,18.773c11.093,23.04,11.093,49.493,0,72.533   l-1.707,3.413C281.617,367.032,268.817,374.712,255.164,374.712z M243.217,272.312l-6.827,14.507   c-8.533,17.92-8.533,39.253,0,57.173l1.707,3.413c3.413,6.827,9.387,10.24,17.067,10.24c7.68,0,13.653-4.267,17.067-10.24   l1.707-3.413c8.533-17.92,8.533-39.253,0-57.173l-6.827-14.507H243.217z"
   id="path11411" />
	<path
   d="M272.23,272.312h-34.133c-5.12,0-8.533-3.413-8.533-8.533v-25.6c0-9.387,7.68-17.067,17.067-17.067h17.067   c9.387,0,17.067,7.68,17.067,17.067v25.6c0,2.56-0.853,4.267-2.56,5.973S274.79,272.312,272.23,272.312z M246.63,255.245h17.067   v-17.067H246.63V255.245z"
   id="path11413" />
	<path
   d="M408.764,221.112c-5.12,0-8.533-3.413-8.533-8.533v-46.933c0-5.12,3.413-8.533,8.533-8.533s8.533,3.413,8.533,8.533v46.933   C417.297,217.699,413.884,221.112,408.764,221.112z"
   id="path11415" />
	<path
   d="M101.564,280.845c-5.12,0-8.533-3.413-8.533-8.533v-25.6c0-5.12,3.413-8.533,8.533-8.533s8.533,3.413,8.533,8.533v25.6   C110.097,277.432,106.684,280.845,101.564,280.845z"
   id="path11417" />
	<path
   d="M255.164,297.912c-5.12,0-8.533-3.413-8.533-8.533v-25.6c0-5.12,3.413-8.533,8.533-8.533c5.12,0,8.533,3.413,8.533,8.533   v25.6C263.697,294.499,260.284,297.912,255.164,297.912z"
   id="path11419" />
	<path
   d="M408.764,280.845c-5.12,0-8.533-3.413-8.533-8.533v-25.6c0-5.12,3.413-8.533,8.533-8.533s8.533,3.413,8.533,8.533v25.6   C417.297,277.432,413.884,280.845,408.764,280.845z"
   id="path11421" />
</g>
<g
   id="g11425">
</g>
<g
   id="g11427">
</g>
<g
   id="g11429">
</g>
<g
   id="g11431">
</g>
<g
   id="g11433">
</g>
<g
   id="g11435">
</g>
<g
   id="g11437">
</g>
<g
   id="g11439">
</g>
<g
   id="g11441">
</g>
<g
   id="g11443">
</g>
<g
   id="g11445">
</g>
<g
   id="g11447">
</g>
<g
   id="g11449">
</g>
<g
   id="g11451">
</g>
<g
   id="g11453">
</g>
</svg>
