<?xml version="1.0" encoding="UTF-8" standalone="no"?>
<!-- Generator: Adobe Illustrator 18.0.0, SVG Export Plug-In . SVG Version: 6.00 Build 0)  -->

<svg
   version="1.1"
   id="Capa_1"
   x="0px"
   y="0px"
   viewBox="0 0 37.388427 41.770958"
   xml:space="preserve"
   sodipodi:docname="lights-island-colored-off.svg"
   inkscape:version="1.2 (dc2aedaf03, 2022-05-15)"
   width="37.388428"
   height="41.770958"
   xmlns:inkscape="http://www.inkscape.org/namespaces/inkscape"
   xmlns:sodipodi="http://sodipodi.sourceforge.net/DTD/sodipodi-0.dtd"
   xmlns="http://www.w3.org/2000/svg"
   xmlns:svg="http://www.w3.org/2000/svg"><defs
   id="defs8396" /><sodipodi:namedview
   id="namedview8394"
   pagecolor="#ffffff"
   bordercolor="#000000"
   borderopacity="0.25"
   inkscape:showpageshadow="2"
   inkscape:pageopacity="0.0"
   inkscape:pagecheckerboard="0"
   inkscape:deskcolor="#d1d1d1"
   showgrid="false"
   inkscape:zoom="14.603448"
   inkscape:cx="0.75324677"
   inkscape:cy="18.420307"
   inkscape:window-width="1920"
   inkscape:window-height="1027"
   inkscape:window-x="-8"
   inkscape:window-y="-8"
   inkscape:window-maximized="1"
   inkscape:current-layer="Capa_1" />

<ellipse
   style="fill:#cccccc"
   id="path2747"
   cx="8.8677683"
   cy="33.861866"
   rx="7.7721372"
   ry="7.292798" /><ellipse
   style="fill:#cccccc"
   id="path2747-5"
   cx="28.554901"
   cy="33.896103"
   rx="7.7721372"
   ry="7.292798" /><line
   style="fill:#666666;stroke:#556080;stroke-width:2;stroke-linecap:round;stroke-linejoin:round;stroke-miterlimit:10"
   x1="28.728453"
   y1="5.8642268"
   x2="28.728453"
   y2="32.864227"
   id="line8335" />
<line
   style="fill:#666666;stroke:#556080;stroke-width:2;stroke-linecap:round;stroke-linejoin:round;stroke-miterlimit:10"
   x1="8.7284536"
   y1="5.8642268"
   x2="8.7284536"
   y2="22.864227"
   id="line8337" />
<rect
   x="5.7284532"
   y="1.8642266"
   style="fill:#808080"
   width="26"
   height="4"
   id="rect8339" />
<line
   style="fill:none;stroke:#38454f;stroke-width:2;stroke-linecap:round;stroke-linejoin:round;stroke-miterlimit:10"
   x1="1.7284532"
   y1="1.8642266"
   x2="35.728455"
   y2="1.8642266"
   id="line8341" />
<rect
   x="6.7284532"
   y="22.864227"
   style="fill:#808080"
   width="4"
   height="4"
   id="rect8343" />

<rect
   x="26.728453"
   y="23.072021"
   style="fill:#808080"
   width="4"
   height="4"
   id="rect8347" />
<path
   style="fill:#d4aa00"
   d="m 10.728453,29.286227 v -2.422 H 6.7284532 v 2.422 c -1.764,0.772 -3,2.529 -3,4.578 0,2.761 2.239,5 5,5 2.7609998,0 4.9999998,-2.239 4.9999998,-5 0,-2.049 -1.236,-3.806 -3,-4.578 z"
   id="path8349" />

<path
   style="fill:#d4aa00"
   d="m 30.659976,29.288588 v -2.422 h -4 v 2.422 c -1.764,0.772 -3,2.529 -3,4.578 0,2.761 2.239,5 5,5 2.761,0 5,-2.239 5,-5 0,-2.049 -1.236,-3.806 -3,-4.578 z"
   id="path8353" />
<g
   id="g8361"
   transform="translate(-20.269186,1.2066103)">
	<path
   style="fill:#efce4a"
   d="m 30.066116,30.972845 v -2 c 0,-0.553 -0.447,-1 -1,-1 -0.553,0 -1,0.447 -1,1 v 2 c -0.553,0 -1,0.447 -1,1 0,0.553 0.447,1 1,1 h 2 c 0.553,0 1,-0.447 1,-1 0,-0.553 -0.447,-1 -1,-1 z"
   id="path8355" />
	
	<path
   style="fill:#efce4a"
   d="m 49.995277,30.977568 v -2 c 0,-0.553 -0.447,-1 -1,-1 -0.553,0 -1,0.447 -1,1 v 2 c -0.553,0 -1,0.447 -1,1 0,0.553 0.447,1 1,1 h 2 c 0.553,0 1,-0.447 1,-1 0,-0.553 -0.447,-1 -1,-1 z"
   id="path8359" />
</g>
<g
   id="g8363"
   transform="translate(-9.1759152,11.230224)">
</g>
<g
   id="g8365"
   transform="translate(-9.1759152,11.230224)">
</g>
<g
   id="g8367"
   transform="translate(-9.1759152,11.230224)">
</g>
<g
   id="g8369"
   transform="translate(-9.1759152,11.230224)">
</g>
<g
   id="g8371"
   transform="translate(-9.1759152,11.230224)">
</g>
<g
   id="g8373"
   transform="translate(-9.1759152,11.230224)">
</g>
<g
   id="g8375"
   transform="translate(-9.1759152,11.230224)">
</g>
<g
   id="g8377"
   transform="translate(-9.1759152,11.230224)">
</g>
<g
   id="g8379"
   transform="translate(-9.1759152,11.230224)">
</g>
<g
   id="g8381"
   transform="translate(-9.1759152,11.230224)">
</g>
<g
   id="g8383"
   transform="translate(-9.1759152,11.230224)">
</g>
<g
   id="g8385"
   transform="translate(-9.1759152,11.230224)">
</g>
<g
   id="g8387"
   transform="translate(-9.1759152,11.230224)">
</g>
<g
   id="g8389"
   transform="translate(-9.1759152,11.230224)">
</g>
<g
   id="g8391"
   transform="translate(-9.1759152,11.230224)">
</g>
<path
   style="fill:#aa8800;stroke-width:0.068477"
   d="M 8.0671965,38.784299 C 7.4455468,38.704164 6.6129652,38.389621 6.0482921,38.021571 3.8307974,36.576222 3.1313864,33.744054 4.4178994,31.419522 4.7709846,30.781551 5.7034353,29.861473 6.316748,29.545869 l 0.4619664,-0.237722 2.532e-4,-1.215466 2.533e-4,-1.215467 h 1.9515939 1.9515942 l 2.74e-4,1.215467 2.74e-4,1.215466 0.447239,0.231263 c 0.561533,0.290363 1.362236,1.032402 1.740497,1.61298 0.5912,0.907409 0.876322,1.997843 0.800755,3.062443 -0.166393,2.344158 -2.015533,4.279531 -4.3710452,4.574888 -0.6224078,0.07804 -0.5843708,0.07821 -1.2331652,-0.0054 z M 10.22801,34.109834 C 10.867924,33.84246 11.020338,32.933816 10.506552,32.449253 10.37858,32.328561 10.184038,32.21008 10.074237,32.185964 L 9.8745982,32.142116 9.8505224,31.033278 C 9.8297109,30.074787 9.8078769,29.892914 9.6894925,29.691928 9.4686537,29.317003 9.2193913,29.171193 8.7992918,29.171193 c -0.4200995,0 -0.6693619,0.14581 -0.8902007,0.520735 -0.1184708,0.201132 -0.1400387,0.381457 -0.1598102,1.336142 l -0.022856,1.103631 -0.2631244,0.07883 c -0.8415257,0.252127 -0.9150371,1.544925 -0.1078328,1.896382 0.3021811,0.13157 2.5591482,0.133861 2.8725423,0.0029 z"
   id="path2915" /><path
   style="fill:#aa8800;stroke-width:0.068477"
   d="m 27.997064,38.787209 c -1.869215,-0.251764 -3.528307,-1.678294 -4.095675,-3.521565 -0.409373,-1.329979 -0.174105,-2.899956 0.61639,-4.113254 0.378261,-0.580578 1.178964,-1.322617 1.740497,-1.61298 l 0.447239,-0.231263 2.53e-4,-1.215466 2.54e-4,-1.215467 h 1.951594 1.951594 l 2.73e-4,1.215467 2.74e-4,1.215466 0.461967,0.237722 c 0.613312,0.315604 1.545763,1.235682 1.898848,1.873653 1.274697,2.303182 0.585385,5.148993 -1.598267,6.598419 -0.940637,0.62436 -2.244581,0.921551 -3.3752,0.769268 z m 2.157747,-4.677375 c 0.639914,-0.267374 0.792328,-1.176018 0.278541,-1.660581 -0.127971,-0.120692 -0.323024,-0.239285 -0.43345,-0.263539 l -0.200774,-0.0441 -0.0235,-1.108589 c -0.01883,-0.888613 -0.04696,-1.151677 -0.141742,-1.32574 -0.390762,-0.717619 -1.428671,-0.717619 -1.813926,0 -0.09217,0.171683 -0.122085,0.449326 -0.142877,1.32599 l -0.0263,1.108838 -0.199639,0.04385 c -0.109801,0.02412 -0.304343,0.142597 -0.432314,0.263289 -0.507385,0.478525 -0.363367,1.384754 0.263435,1.657664 0.302181,0.13157 2.559148,0.133861 2.872543,0.0029 z"
   id="path2917" /><path
   style="fill:#d4aa00;stroke-width:0.068477"
   d="M 7.3323276,34.013096 C 6.795783,33.721052 6.6911792,32.970652 7.1246684,32.523405 7.2539208,32.39005 7.4507215,32.269898 7.5794486,32.245749 l 0.226927,-0.04257 V 31.15079 c 0,-0.808676 0.02559,-1.116343 0.110504,-1.328563 0.2919831,-0.729737 1.270572,-0.815228 1.6859373,-0.147286 0.1420119,0.228367 0.1570812,0.346014 0.1779242,1.389059 l 0.022771,1.13956 0.1986759,0.03974 c 0.109271,0.02185 0.314727,0.146089 0.456567,0.276076 0.243835,0.223458 0.257892,0.258959 0.257892,0.651322 0,0.388485 -0.01646,0.431452 -0.257769,0.672912 l -0.25777,0.25793 -1.3172012,0.01957 c -1.1781744,0.0175 -1.3419391,0.0061 -1.5515797,-0.108007 z"
   id="path2919" /><path
   style="fill:#d4aa00;stroke-width:0.068477"
   d="m 27.25806,34.010648 c -0.333627,-0.178926 -0.499119,-0.512529 -0.462352,-0.93202 0.02477,-0.282578 0.07065,-0.37572 0.279225,-0.566868 0.137273,-0.125801 0.338992,-0.24661 0.448263,-0.268465 l 0.198676,-0.03974 0.02277,-1.13956 c 0.02575,-1.288609 0.07841,-1.456008 0.539505,-1.71516 0.325406,-0.182889 0.56137,-0.181266 0.894835,0.0062 0.456796,0.256734 0.540026,0.531204 0.540026,1.780856 v 1.065452 l 0.204328,0.04087 c 0.11238,0.02248 0.316642,0.143794 0.453915,0.269595 0.208578,0.191148 0.254457,0.28429 0.279225,0.566868 0.03677,0.419491 -0.128724,0.753094 -0.462352,0.93202 -0.201248,0.107931 -0.40299,0.125126 -1.468032,0.125126 -1.065043,0 -1.266785,-0.0172 -1.468033,-0.125126 z"
   id="path2921" /></svg>
