<?xml version="1.0" encoding="UTF-8" standalone="no"?>
<!-- Generator: Adobe Illustrator 19.0.0, SVG Export Plug-In . SVG Version: 6.00 Build 0)  -->

<svg
   version="1.1"
   id="Layer_1"
   x="0px"
   y="0px"
   viewBox="0 0 512.008 512.008"
   style="enable-background:new 0 0 512.008 512.008;"
   xml:space="preserve"
   sodipodi:docname="light-bulb-off.svg"
   inkscape:version="1.2 (dc2aedaf03, 2022-05-15)"
   xmlns:inkscape="http://www.inkscape.org/namespaces/inkscape"
   xmlns:sodipodi="http://sodipodi.sourceforge.net/DTD/sodipodi-0.dtd"
   xmlns="http://www.w3.org/2000/svg"
   xmlns:svg="http://www.w3.org/2000/svg"><defs
   id="defs13455" /><sodipodi:namedview
   id="namedview13453"
   pagecolor="#ffffff"
   bordercolor="#000000"
   borderopacity="0.25"
   inkscape:showpageshadow="2"
   inkscape:pageopacity="0.0"
   inkscape:pagecheckerboard="0"
   inkscape:deskcolor="#d1d1d1"
   showgrid="false"
   inkscape:zoom="1.4368708"
   inkscape:cx="178.51292"
   inkscape:cy="256.80806"
   inkscape:window-width="1920"
   inkscape:window-height="1027"
   inkscape:window-x="-8"
   inkscape:window-y="-8"
   inkscape:window-maximized="1"
   inkscape:current-layer="Layer_1" />
<g
   id="g13420">
	<g
   id="g13356">
		<path
   style="fill:#868491;"
   d="M280.01,464.008h-48c-4.422,0-8,3.578-8,8v8c0,17.648,14.352,32,32,32s32-14.352,32-32v-8    C288.01,467.586,284.432,464.008,280.01,464.008z"
   id="path13354" />
	</g>
	<g
   id="g13360">
		<path
   style="fill:#5C546A;"
   d="M256.002,464.008H232.01c-4.422,0-8,3.578-8,8v8c0,17.646,14.347,31.995,31.992,31.999    L256.002,464.008L256.002,464.008z"
   id="path13358" />
	</g>
	<g
   id="g13364">
		
	</g>
	<g
   id="g13368">
		
	</g>
	<g
   id="g13374">
		<g
   id="g13372">
			<path
   style="fill:#FFFFFF;"
   d="M283.986,232.008c-10.633,0-16.07-6.203-20.031-10.727c-3.492-3.984-4.883-5.273-8-5.273     c-3.102,0-4.484,1.289-7.961,5.266c-3.734,4.273-9.383,10.734-20.016,10.734c-10.625,0-16.273-6.461-20.008-10.734     c-3.477-3.977-4.859-5.266-7.961-5.266c-4.422,0-8-3.578-8-8s3.578-8,8-8c10.625,0,16.273,6.461,20.008,10.734     c3.477,3.977,4.859,5.266,7.961,5.266s4.492-1.289,7.969-5.266c3.734-4.273,9.383-10.734,20.008-10.734     c10.633,0,16.07,6.203,20.031,10.727c3.492,3.984,4.883,5.273,8,5.273c3.109,0,4.5-1.289,7.992-5.266     c3.742-4.273,9.391-10.734,20.031-10.734c4.422,0,8,3.578,8,8s-3.578,8-8,8c-3.117,0-4.508,1.289-8,5.273     C300.267,225.555,294.619,232.008,283.986,232.008z"
   id="path13370" />
		</g>
	</g>
	<g
   id="g13380">
		<g
   id="g13378">
			<path
   style="fill:#5C546A;"
   d="M232.002,384.008c-3.68,0-6.992-2.555-7.813-6.297l-40-184c-0.938-4.32,1.805-8.578,6.117-9.523     c4.344-0.953,8.578,1.805,9.523,6.117l40,184c0.938,4.32-1.805,8.578-6.117,9.523     C233.135,383.954,232.564,384.008,232.002,384.008z"
   id="path13376" />
		</g>
	</g>
	<g
   id="g13386">
		<g
   id="g13384">
			<path
   style="fill:#5C546A;"
   d="M280.017,384.008c-0.563,0-1.133-0.055-1.711-0.18c-4.313-0.945-7.055-5.203-6.117-9.523l40-184     c0.945-4.313,5.164-7.063,9.523-6.117c4.313,0.945,7.055,5.203,6.117,9.523l-40,184     C287.01,381.454,283.697,384.008,280.017,384.008z"
   id="path13382" />
		</g>
	</g>
	<g
   id="g13390">
		<path
   style="fill:#B4B6BC;"
   d="M190.633,376.008c0.851,3.593,1.374,7.293,1.374,11.086v60.914c0,17.648,14.352,32,32,32h64    c17.648,0,32-14.352,32-32v-60.914c0-3.79,0.527-7.491,1.384-11.086H190.633z"
   id="path13388" />
	</g>
	<g
   id="g13394">
		<path
   style="fill:#868491;"
   d="M256.002,376.008h-65.369c0.851,3.593,1.374,7.293,1.374,11.086v60.914c0,17.648,14.352,32,32,32    h31.995V376.008z"
   id="path13392" />
	</g>
	<g
   id="g13400">
		<g
   id="g13398">
			<rect
   x="256.002"
   y="400.008"
   style="fill:#868491;"
   width="64"
   height="16"
   id="rect13396" />
		</g>
	</g>
	<g
   id="g13406">
		<g
   id="g13404">
			<rect
   x="256.006"
   y="432.008"
   style="fill:#868491;"
   width="64"
   height="16"
   id="rect13402" />
		</g>
	</g>
	<g
   id="g13412">
		<g
   id="g13410">
			<rect
   x="192.002"
   y="400.008"
   style="fill:#5C546A;"
   width="64"
   height="16"
   id="rect13408" />
		</g>
	</g>
	<g
   id="g13418">
		<g
   id="g13416">
			<rect
   x="192.002"
   y="432.008"
   style="fill:#5C546A;"
   width="64"
   height="16"
   id="rect13414" />
		</g>
	</g>
</g>
<g
   id="g13422">
</g>
<g
   id="g13424">
</g>
<g
   id="g13426">
</g>
<g
   id="g13428">
</g>
<g
   id="g13430">
</g>
<g
   id="g13432">
</g>
<g
   id="g13434">
</g>
<g
   id="g13436">
</g>
<g
   id="g13438">
</g>
<g
   id="g13440">
</g>
<g
   id="g13442">
</g>
<g
   id="g13444">
</g>
<g
   id="g13446">
</g>
<g
   id="g13448">
</g>
<g
   id="g13450">
</g>
<path
   style="fill:#b3b3b3;fill-opacity:0.92228;stroke-width:0.604496"
   d="m 190.74539,374.93856 c -0.13055,-0.41559 -0.56337,-1.84371 -0.96182,-3.1736 -1.13486,-3.78779 -5.13519,-11.14812 -8.12217,-14.94425 -3.48759,-4.43235 -9.19979,-9.12845 -15.2126,-12.50656 -52.76658,-29.64527 -87.217738,-82.32205 -93.279994,-142.6277 -0.922388,-9.17567 -0.774757,-28.77358 0.284997,-37.83314 2.792294,-23.8706 10.304152,-47.4652 21.490352,-67.500768 C 119.04959,53.177365 158.85633,21.137271 205.24487,7.572484 223.06554,2.3614194 236.12366,0.59713189 256.60849,0.63272727 276.39092,0.66710211 288.94387,2.3483239 306.38259,7.2989889 367.03127,24.516505 414.85967,72.41459 432.49343,133.59359 c 4.9071,17.0248 6.97859,32.09176 6.96924,50.69057 -0.0118,23.61691 -4.05834,45.17969 -12.49467,66.58162 -8.94254,22.68609 -22.15503,43.21052 -38.86324,60.37061 -12.94629,13.29643 -24.12372,22.15838 -39.31065,31.16717 -4.15591,2.46526 -9.13985,5.69064 -11.07543,7.1675 -6.58186,5.02202 -13.05434,14.37581 -15.56587,22.49522 l -1.02871,3.32565 -16.08754,0.161 c -15.04351,0.15055 -16.08598,0.0917 -16.06359,-0.90675 0.0132,-0.58725 3.48406,-16.9202 7.71306,-36.29543 l 7.68911,-35.22769 8.17525,-4.06454 c 38.43551,-19.10923 64.13872,-54.56353 70.43556,-97.1569 1.42168,-9.61659 1.43048,-26.48726 0.0187,-35.79275 C 378.80918,138.45608 367.34629,114.94428 348.47372,95.281756 337.87643,84.240881 326.81599,76.115641 313.07143,69.274446 267.99466,46.838027 214.30431,52.829165 174.93197,84.689 c -46.24624,37.42215 -60.39151,103.08599 -33.69236,156.40343 12.80186,25.56495 32.4348,45.10364 58.24404,57.96446 l 8.1607,4.0665 7.89937,36.2854 7.89937,36.28539 h -16.23016 c -12.45454,0 -16.28538,-0.17578 -16.46752,-0.75562 z"
   id="path13457" /><path
   style="fill:#b3b3b3;fill-opacity:0.92228;stroke-width:0.604496"
   d="m 199.48363,298.45483 c -49.75847,-24.83048 -77.76419,-78.27239 -69.76296,-133.12521 5.37467,-36.8464 27.27823,-70.15823 59.09324,-89.871446 33.36082,-20.671037 74.93789,-24.755649 111.92278,-10.995516 38.82396,14.444353 68.45189,47.423772 78.91082,87.837142 11.28739,43.61458 -1.59482,90.29169 -33.72774,122.20834 -6.51144,6.46761 -12.70832,11.46428 -20.701,16.69166 -5.98655,3.91533 -19.76893,11.12681 -20.28293,10.61281 -0.13004,-0.13005 5.0584,-24.56738 11.52988,-54.30519 6.47148,-29.73781 11.76738,-54.88481 11.76867,-55.88223 0.003,-2.22644 -1.81443,-5.32388 -3.94116,-6.71736 -3.35942,-2.20117 -9.27103,-0.78152 -11.32201,2.71894 -0.50929,0.86924 -1.41135,3.92834 -2.00456,6.79801 l -1.07857,5.21757 -3.06446,0.68665 c -4.63562,1.03872 -8.24014,3.4264 -14.46558,9.58219 -5.47922,5.41792 -5.74097,5.59159 -8.42769,5.59159 -2.70934,0 -2.90986,-0.1382 -8.7582,-6.0358 -7.946,-8.01295 -10.70059,-9.3596 -19.16816,-9.37083 -8.12096,-0.0108 -11.18078,1.39227 -18.01331,8.25982 -6.31925,6.35161 -7.45894,7.13796 -10.35252,7.14282 -2.18743,0.004 -2.80042,-0.42577 -7.85844,-5.50542 -6.00585,-6.03153 -9.90114,-8.61061 -14.59537,-9.66361 l -3.06446,-0.68741 -1.07856,-5.21757 c -0.59321,-2.86967 -1.49527,-5.92877 -2.00457,-6.79801 -2.05097,-3.50046 -7.96259,-4.92011 -11.322,-2.71894 -2.08062,1.36327 -3.94293,4.47505 -3.94577,6.59306 -0.002,1.25361 21.30158,100.69571 23.36895,109.08468 0.18436,0.74806 0.10169,1.3552 -0.18371,1.3492 -0.2854,-0.006 -3.64717,-1.57197 -7.47061,-3.47994 z"
   id="path13459" /><path
   style="fill:#666666;fill-opacity:0.92228;stroke-width:0.604496"
   d="m 197.27967,375.24399 -6.13319,-0.19521 -1.0122,-3.15315 c -0.5567,-1.73424 -2.41874,-5.71051 -4.13785,-8.83616 -4.11225,-7.47681 -9.58645,-12.93453 -18.24952,-18.19458 -18.00203,-10.93049 -29.489,-19.63296 -41.00926,-31.0684 C 98.147429,285.41677 80.152503,249.17902 74.324834,208.24882 72.812898,197.62985 72.676562,172.61113 74.072181,161.88473 80.442924,112.92067 105.61187,69.226395 145.00227,38.747282 172.52316,17.452449 206.48418,4.1400231 240.17301,1.4411765 c 10.2795,-0.82350184 32.40451,-0.3353911 41.53993,0.9164333 46.1035,6.3175466 89.62499,31.6165322 118.65311,68.9729022 20.53864,26.431219 33.81826,58.640788 37.56551,91.114728 1.24976,10.83048 1.26221,32.53582 0.0247,43.04472 -4.96927,42.19883 -23.92673,80.17878 -55.08507,110.35913 -11.14011,10.79044 -20.90531,18.15969 -37.65943,28.41944 -11.97336,7.33214 -19.59496,16.38259 -23.28267,27.64755 l -1.03891,3.1736 h -15.66831 c -13.3158,0 -15.66831,-0.13218 -15.66831,-0.88037 0,-1.67024 14.77803,-70.36879 15.20874,-70.7008 0.11325,-0.0873 3.68881,-1.96316 7.94571,-4.16858 13.72849,-7.11251 24.23233,-14.61707 33.92773,-24.23996 19.17532,-19.03191 31.6894,-43.58021 36.39012,-71.38486 1.44169,-8.52754 1.44578,-30.89201 0.007,-39.26627 C 378.14184,135.9767 366.2924,112.71925 346.69016,93.117002 326.48321,72.910059 300.53971,60.275871 271.41864,56.46064 c -7.30879,-0.957545 -23.38126,-0.95219 -30.82929,0.01028 -29.29138,3.785144 -55.23696,16.51436 -75.86423,37.219927 -19.27113,19.344273 -31.09679,42.934173 -35.76112,71.336523 -1.48875,9.06538 -1.48723,30.00482 0.003,38.68774 4.24416,24.73209 14.32475,46.30394 30.26701,64.76952 10.97476,12.71185 22.7118,21.74994 39.94757,30.76157 4.32215,2.25981 7.9503,4.17821 8.06256,4.2631 0.16366,0.12374 15.81505,71.38924 15.81505,72.01054 0,0.19683 -16.46353,0.0207 -25.7793,-0.27585 z"
   id="path13461" /><path
   style="fill:#666666;fill-opacity:0.92228;stroke-width:0.604496"
   d="m 242.10059,311.01268 c -5.98066,-0.74154 -15.02058,-2.40204 -15.80045,-2.9023 -0.36181,-0.23209 -4.78573,-19.46361 -9.83092,-42.7367 -5.0452,-23.27309 -9.33773,-42.85875 -9.53897,-43.5237 -0.22003,-0.72703 1.31796,0.37795 3.85805,2.77186 4.79061,4.5149 8.04987,6.30561 13.21458,7.26035 4.24473,0.78468 8.17062,0.35973 12.84957,-1.39089 2.73749,-1.02423 4.68525,-2.51651 9.8191,-7.52292 9.07686,-8.85153 9.99672,-8.86679 18.19176,-0.30193 5.48574,5.73329 9.55502,8.22329 15.04115,9.20371 7.87364,1.4071 14.51683,-0.85411 21.36116,-7.27089 2.3221,-2.17706 4.0773,-3.55025 3.90044,-3.05154 -0.17685,0.49871 -4.49658,20.15657 -9.59937,43.68414 l -9.27782,42.77738 -2.14578,0.57289 c -8.79856,2.34909 -31.91923,3.68573 -42.0425,2.43054 z"
   id="path13463" /><path
   style="fill:#666666;fill-opacity:0.92228;stroke-width:0.604496"
   d="m 239.98486,374.61851 c 0,-0.59161 -3.12827,-15.44738 -6.9517,-33.01281 -3.82344,-17.56544 -6.95171,-32.13258 -6.95171,-32.37142 0,-0.23884 1.70015,-0.0727 3.7781,0.36916 6.65633,1.41548 18.66879,2.61867 26.14445,2.61867 7.47566,0 19.48812,-1.20319 26.14444,-2.61867 2.07796,-0.44188 3.7781,-0.608 3.7781,-0.36916 0,0.23884 -3.12826,14.80598 -6.9517,32.37142 -3.82344,17.56543 -6.9517,32.4212 -6.9517,33.01281 0,1.00416 -1.06486,1.07567 -16.01914,1.07567 -14.95428,0 -16.01914,-0.0715 -16.01914,-1.07567 z"
   id="path13465" /><path
   style="fill:#e6e6e6;fill-opacity:0.92228;stroke-width:0.604496"
   d="m 235.01572,309.59166 c -4.22915,-0.72782 -7.94239,-1.58981 -8.25164,-1.91554 -0.71038,-0.74821 -3.73225,-13.75823 -12.14243,-52.27662 -3.66594,-16.78987 -6.81725,-31.17307 -7.00292,-31.96266 -0.28182,-1.19848 0.24161,-0.91199 3.16873,1.73437 7.31068,6.60943 15.65882,8.73327 24.16825,6.14862 4.30604,-1.30793 6.47986,-2.82127 13.18984,-9.18237 7.66017,-7.26189 7.98154,-7.25039 16.31355,0.58397 8.56883,8.05703 11.25731,9.36103 19.35171,9.38619 5.28058,0.0164 6.47141,-0.1812 9.41749,-1.56283 1.85489,-0.86989 5.22685,-3.15469 7.49326,-5.07734 3.9011,-3.30941 4.09661,-3.40231 3.66831,-1.74311 -0.24883,0.96394 -4.47083,20.19347 -9.38222,42.7323 -4.91138,22.53883 -9.05999,41.10989 -9.21913,41.26902 -0.15913,0.15914 -2.30136,0.67211 -4.7605,1.13993 -13.14694,2.50106 -33.80418,2.82703 -46.0123,0.72607 z"
   id="path13467" /><path
   style="fill:#e6e6e6;fill-opacity:0.92228;stroke-width:0.604496"
   d="m 198.57689,297.53201 c -20.52446,-10.691 -36.11422,-24.56449 -48.36356,-43.03925 -10.46202,-15.7791 -16.86402,-31.96952 -19.95893,-50.47541 -1.35549,-8.10511 -1.82192,-24.27339 -0.94267,-32.67666 5.25391,-50.2133 39.29955,-92.610076 86.85004,-108.153698 26.42546,-8.638133 54.01247,-8.536472 80.51947,0.296723 42.31132,14.09983 74.58967,50.361805 83.87122,94.222185 3.12201,14.75318 3.50045,33.24619 0.97245,47.52045 -6.10569,34.47559 -25.89788,65.12926 -54.40685,84.264 -5.12111,3.43721 -20.35945,11.85084 -21.46363,11.85084 -0.22388,0 -0.27004,-0.61205 -0.10257,-1.36012 5.24747,-23.44036 22.68939,-106.74417 22.68939,-108.36609 0,-4.18445 -3.89872,-8.17509 -7.9498,-8.13721 -1.7412,0.0163 -5.9946,1.89727 -6.97768,3.08576 -0.62902,0.76045 -2.33422,6.44647 -3.46675,11.55999 -0.24947,1.12641 -0.75215,1.66236 -1.55917,1.66236 -3.91634,0 -11.20344,4.68002 -17.79829,11.43066 -3.40433,3.48476 -5.99204,4.63231 -8.38993,3.72064 -0.87069,-0.33104 -4.30863,-3.21006 -7.63986,-6.39783 -7.95036,-7.60798 -9.76619,-8.4382 -18.45577,-8.4382 -8.60748,0 -10.37715,0.80443 -18.47613,8.39865 -6.34274,5.94742 -8.72206,7.26029 -11.38934,6.28442 -0.79979,-0.29262 -3.86513,-2.82638 -6.81187,-5.63058 -6.01312,-5.72226 -9.08453,-7.73723 -13.49582,-8.85378 -1.66236,-0.42077 -3.08693,-0.79567 -3.1657,-0.83311 -0.0788,-0.0374 -0.81894,-2.73179 -1.6448,-5.98745 -0.82587,-3.25566 -1.84951,-6.33991 -2.27476,-6.8539 -1.02621,-1.24035 -5.24821,-3.13098 -7.02903,-3.14763 -2.35254,-0.022 -5.4335,1.80067 -6.81081,4.0292 -1.04885,1.69707 -1.23456,2.70016 -0.96737,5.22498 0.32883,3.10723 8.84162,43.56672 18.00265,85.56272 2.63811,12.09364 4.79657,22.2265 4.79657,22.51747 0,0.89187 -0.66268,0.62551 -8.1607,-3.28013 z"
   id="path13538" /><path
   style="fill:#808080;fill-opacity:0.92228;stroke-width:0.604496"
   d="m 222.90538,231.16788 c -4.1718,-0.98322 -8.42889,-3.63786 -12.46713,-7.77425 l -4.00291,-4.10021 -1.97971,-9.23493 c -1.08884,-5.07921 -1.85707,-9.35756 -1.70719,-9.50744 0.59253,-0.59253 6.89554,1.71322 9.62452,3.52082 1.59028,1.05336 4.6837,3.8941 6.87427,6.31275 4.4457,4.9086 5.77895,5.72265 9.37257,5.72265 2.34229,0 2.80703,-0.33246 8.2865,-5.92809 7.8806,-8.04765 10.77731,-9.48655 19.0977,-9.48655 8.26776,0 11.00219,1.35843 18.98604,9.43209 5.57889,5.64164 6.05742,5.98255 8.39781,5.98255 3.59399,0 4.92713,-0.81395 9.37292,-5.72265 2.19056,-2.41865 5.28399,-5.25939 6.87427,-6.31275 2.77141,-1.83571 9.03514,-4.1102 9.64355,-3.50178 0.16036,0.16036 -0.5955,4.4114 -1.67969,9.44676 l -1.97124,9.15521 -3.99733,4.11803 c -2.75652,2.83975 -5.29427,4.75651 -8.17548,6.17493 -3.79939,1.87043 -4.64512,2.05288 -9.32908,2.01257 -8.09776,-0.0697 -10.99935,-1.4833 -18.57436,-9.04914 -8.82286,-8.81217 -11.11582,-8.9308 -18.21547,-0.94242 -7.54998,8.49507 -15.72303,11.73406 -24.43056,9.68185 z"
   id="path13540" /><path
   style="fill:#1a1a1a;fill-opacity:0.92228;stroke-width:0.173104"
   d=""
   id="path13611" /><path
   style="fill:#1a1a1a;fill-opacity:0.92228;stroke-width:0.173104"
   d=""
   id="path13682" /><path
   style="fill:#1a1a1a;fill-opacity:0.92228;stroke-width:0.173104"
   d=""
   id="path13684" /><path
   style="fill:#1a1a1a;fill-opacity:0.92228;stroke-width:0.173104"
   d=""
   id="path13692" /><path
   style="fill:#1a1a1a;fill-opacity:0.92228;stroke-width:0.173104"
   d=""
   id="path13694" /></svg>
