<?xml version="1.0" encoding="UTF-8" standalone="no"?>
<!-- Generator: Adobe Illustrator 18.0.0, SVG Export Plug-In . SVG Version: 6.00 Build 0)  -->

<svg
   version="1.1"
   id="Capa_1"
   x="0px"
   y="0px"
   viewBox="0 0 37.662334 39.785126"
   xml:space="preserve"
   sodipodi:docname="lights-island-colored.svg"
   inkscape:version="1.2 (dc2aedaf03, 2022-05-15)"
   width="37.662334"
   height="39.785126"
   xmlns:inkscape="http://www.inkscape.org/namespaces/inkscape"
   xmlns:sodipodi="http://sodipodi.sourceforge.net/DTD/sodipodi-0.dtd"
   xmlns="http://www.w3.org/2000/svg"
   xmlns:svg="http://www.w3.org/2000/svg"><defs
   id="defs8396" /><sodipodi:namedview
   id="namedview8394"
   pagecolor="#ffffff"
   bordercolor="#000000"
   borderopacity="0.25"
   inkscape:showpageshadow="2"
   inkscape:pageopacity="0.0"
   inkscape:pagecheckerboard="0"
   inkscape:deskcolor="#d1d1d1"
   showgrid="false"
   inkscape:zoom="14.603448"
   inkscape:cx="12.46281"
   inkscape:cy="18.35183"
   inkscape:window-width="1920"
   inkscape:window-height="1027"
   inkscape:window-x="-8"
   inkscape:window-y="-8"
   inkscape:window-maximized="1"
   inkscape:current-layer="Capa_1" />

<line
   style="fill:#666666;stroke:#556080;stroke-width:2;stroke-linecap:round;stroke-linejoin:round;stroke-miterlimit:10"
   x1="29.002361"
   y1="5.8642268"
   x2="29.002361"
   y2="32.864227"
   id="line8335" />
<line
   style="fill:#666666;stroke:#556080;stroke-width:2;stroke-linecap:round;stroke-linejoin:round;stroke-miterlimit:10"
   x1="9.0023613"
   y1="5.8642268"
   x2="9.0023613"
   y2="22.864227"
   id="line8337" />
<rect
   x="6.0023613"
   y="1.8642266"
   style="fill:#808080"
   width="26"
   height="4"
   id="rect8339" />
<line
   style="fill:none;stroke:#38454f;stroke-width:2;stroke-linecap:round;stroke-linejoin:round;stroke-miterlimit:10"
   x1="2.0023611"
   y1="1.8642266"
   x2="36.002361"
   y2="1.8642266"
   id="line8341" />
<rect
   x="7.0023613"
   y="22.864227"
   style="fill:#808080"
   width="4"
   height="4"
   id="rect8343" />

<rect
   x="27.002361"
   y="23.072021"
   style="fill:#808080"
   width="4"
   height="4"
   id="rect8347" />
<path
   style="fill:#d4aa00"
   d="m 11.002361,29.286227 v -2.422 H 7.0023611 v 2.422 c -1.764,0.772 -3,2.529 -3,4.578 0,2.761 2.239,5 5,5 2.7609999,0 4.9999999,-2.239 4.9999999,-5 0,-2.049 -1.236,-3.806 -3,-4.578 z"
   id="path8349" />

<path
   style="fill:#d4aa00"
   d="m 30.933884,29.288588 v -2.422 h -4 v 2.422 c -1.764,0.772 -3,2.529 -3,4.578 0,2.761 2.239,5 5,5 2.761,0 5,-2.239 5,-5 0,-2.049 -1.236,-3.806 -3,-4.578 z"
   id="path8353" />
<g
   id="g8361"
   transform="translate(-19.995278,1.2066103)">
	<path
   style="fill:#efce4a"
   d="m 30.066116,30.972845 v -2 c 0,-0.553 -0.447,-1 -1,-1 -0.553,0 -1,0.447 -1,1 v 2 c -0.553,0 -1,0.447 -1,1 0,0.553 0.447,1 1,1 h 2 c 0.553,0 1,-0.447 1,-1 0,-0.553 -0.447,-1 -1,-1 z"
   id="path8355" />
	
	<path
   style="fill:#efce4a"
   d="m 49.995277,30.977568 v -2 c 0,-0.553 -0.447,-1 -1,-1 -0.553,0 -1,0.447 -1,1 v 2 c -0.553,0 -1,0.447 -1,1 0,0.553 0.447,1 1,1 h 2 c 0.553,0 1,-0.447 1,-1 0,-0.553 -0.447,-1 -1,-1 z"
   id="path8359" />
</g>
<g
   id="g8363"
   transform="translate(-8.9020073,11.230224)">
</g>
<g
   id="g8365"
   transform="translate(-8.9020073,11.230224)">
</g>
<g
   id="g8367"
   transform="translate(-8.9020073,11.230224)">
</g>
<g
   id="g8369"
   transform="translate(-8.9020073,11.230224)">
</g>
<g
   id="g8371"
   transform="translate(-8.9020073,11.230224)">
</g>
<g
   id="g8373"
   transform="translate(-8.9020073,11.230224)">
</g>
<g
   id="g8375"
   transform="translate(-8.9020073,11.230224)">
</g>
<g
   id="g8377"
   transform="translate(-8.9020073,11.230224)">
</g>
<g
   id="g8379"
   transform="translate(-8.9020073,11.230224)">
</g>
<g
   id="g8381"
   transform="translate(-8.9020073,11.230224)">
</g>
<g
   id="g8383"
   transform="translate(-8.9020073,11.230224)">
</g>
<g
   id="g8385"
   transform="translate(-8.9020073,11.230224)">
</g>
<g
   id="g8387"
   transform="translate(-8.9020073,11.230224)">
</g>
<g
   id="g8389"
   transform="translate(-8.9020073,11.230224)">
</g>
<g
   id="g8391"
   transform="translate(-8.9020073,11.230224)">
</g>
</svg>
