<?xml version="1.0" encoding="iso-8859-1"?>
<!-- Generator: Adobe Illustrator 19.0.0, SVG Export Plug-In . SVG Version: 6.00 Build 0)  -->
<svg version="1.1" id="Layer_1" xmlns="http://www.w3.org/2000/svg" xmlns:xlink="http://www.w3.org/1999/xlink" x="0px" y="0px"
	 viewBox="0 0 512.327 512.327" style="enable-background:new 0 0 512.327 512.327;" xml:space="preserve">
<g transform="translate(1 1)">
	<g>
		<path style="fill:#FFDD09;" d="M255.164,195.512c-83.627,0-167.253-11.947-250.027-34.133c-4.267-1.707-6.827-5.973-5.973-11.093
			c1.707-4.267,5.973-6.827,11.093-5.973c162.987,45.227,327.68,45.227,490.667,0c4.267-0.853,9.387,1.707,10.24,5.973
			c0.853,4.267-1.707,9.387-5.973,10.24C422.417,183.565,338.79,195.512,255.164,195.512z"/>
		<path style="fill:#FFDD09;" d="M263.697,250.979c-5.12,0-8.533-3.413-8.533-8.533v-51.2c0-5.12,3.413-8.533,8.533-8.533
			c5.12,0,8.533,3.413,8.533,8.533v51.2C272.23,247.565,268.817,250.979,263.697,250.979z"/>
		<path style="fill:#FFDD09;" d="M110.097,233.912c-5.12,0-8.533-3.413-8.533-8.533v-46.933c0-5.12,3.413-8.533,8.533-8.533
			s8.533,3.413,8.533,8.533v46.933C118.63,230.499,115.217,233.912,110.097,233.912z"/>
		<path style="fill:#FFDD09;" d="M417.297,233.912c-5.12,0-8.533-3.413-8.533-8.533v-46.933c0-5.12,3.413-8.533,8.533-8.533
			c5.12,0,8.533,3.413,8.533,8.533v46.933C425.83,230.499,422.417,233.912,417.297,233.912z"/>
	</g>
	<g>
		<path style="fill:#54C9FD;" d="M118.63,246.712H84.497v-25.6c0-5.12,3.413-8.533,8.533-8.533h17.067
			c5.12,0,8.533,3.413,8.533,8.533V246.712z"/>
		<path style="fill:#54C9FD;" d="M425.83,246.712h-34.133v-25.6c0-5.12,3.413-8.533,8.533-8.533h17.067
			c5.12,0,8.533,3.413,8.533,8.533V246.712z"/>
		<path style="fill:#54C9FD;" d="M272.23,263.779h-34.133v-25.6c0-5.12,3.413-8.533,8.533-8.533h17.067
			c5.12,0,8.533,3.413,8.533,8.533V263.779z"/>
	</g>
	<g>
		<path style="fill:#FFDD09;" d="M84.497,246.712h34.133l9.387,18.773c10.24,20.48,10.24,44.373,0,64.853l-1.707,3.413
			c-5.12,9.387-14.507,15.36-24.747,15.36s-19.627-5.973-24.747-15.36l-1.707-3.413c-10.24-20.48-10.24-44.373,0-64.853
			L84.497,246.712z"/>
		<path style="fill:#FFDD09;" d="M391.697,246.712h34.133l9.387,18.773c10.24,20.48,10.24,44.373,0,64.853l-1.707,3.413
			c-5.12,9.387-14.507,15.36-24.747,15.36c-10.24,0-19.627-5.973-24.747-15.36l-1.707-3.413c-10.24-20.48-10.24-44.373,0-64.853
			L391.697,246.712z"/>
	</g>
	<path style="fill:#FD9808;" d="M439.484,265.485l-9.387-18.773h-25.6l9.387,18.773c10.24,20.48,10.24,44.373,0,64.853l-1.707,3.413
		c-2.56,5.12-6.827,9.387-11.947,11.947c4.267,1.707,8.533,3.413,12.8,3.413c10.24,0,19.627-5.973,24.747-15.36l1.707-3.413
		C449.724,309.859,449.724,285.965,439.484,265.485"/>
	<path style="fill:#FFDD09;" d="M238.097,263.779h34.133l9.387,18.773c10.24,20.48,10.24,44.373,0,64.853l-1.707,3.413
		c-5.12,9.387-14.507,15.36-24.747,15.36l0,0c-10.24,0-19.627-5.973-24.747-15.36l-1.707-3.413c-10.24-20.48-10.24-44.373,0-64.853
		L238.097,263.779z"/>
	<g>
		<path style="fill:#FD9808;" d="M285.884,282.552l-9.387-18.773h-25.6l9.387,18.773c10.24,20.48,10.24,44.373,0,64.853
			l-1.707,3.413c-2.56,5.12-6.827,9.387-11.947,11.947c4.267,1.707,8.533,3.413,12.8,3.413c10.24,0,19.627-5.973,24.747-15.36
			l1.707-3.413C296.124,326.925,296.124,303.032,285.884,282.552"/>
		<path style="fill:#FD9808;" d="M132.284,265.485l-9.387-18.773h-25.6l9.387,18.773c10.24,20.48,10.24,44.373,0,64.853
			l-1.707,3.413c-2.56,5.12-6.827,9.387-11.947,11.947c4.267,1.707,8.533,3.413,12.8,3.413c10.24,0,19.627-5.973,24.747-15.36
			l1.707-3.413C142.524,309.859,142.524,285.965,132.284,265.485"/>
	</g>
	<g>
		<path style="fill:#FFFFFF;" d="M66.577,265.485l9.387-18.773h25.6l-9.387,18.773c-10.24,20.48-10.24,44.373,0,64.853l1.707,3.413
			c2.56,5.12,6.827,9.387,11.947,11.947c-4.267,2.56-8.533,3.413-12.8,3.413c-10.24,0-19.627-5.973-24.747-15.36l-1.707-3.413
			C56.337,309.859,56.337,285.965,66.577,265.485"/>
		<path style="fill:#FFFFFF;" d="M220.177,282.552l9.387-18.773h25.6l-9.387,18.773c-10.24,20.48-10.24,44.373,0,64.853l1.707,3.413
			c2.56,5.12,6.827,9.387,11.947,11.947c-4.267,2.56-8.533,3.413-12.8,3.413c-10.24,0-19.627-5.973-24.747-15.36l-1.707-3.413
			C209.937,326.925,209.937,303.032,220.177,282.552"/>
		<path style="fill:#FFFFFF;" d="M373.777,265.485l9.387-18.773h25.6l-9.387,18.773c-10.24,20.48-10.24,44.373,0,64.853l1.707,3.413
			c2.56,5.12,6.827,9.387,11.947,11.947c-4.267,2.56-8.533,3.413-12.8,3.413c-10.24,0-19.627-5.973-24.747-15.36l-1.707-3.413
			C363.537,309.859,363.537,285.965,373.777,265.485"/>
	</g>
	<g>
		<path style="fill:#FFDD09;" d="M456.55,265.485l-0.853-0.853c-5.12-11.093-17.067-17.92-29.013-17.92h-5.973l9.387,18.773
			c10.24,20.48,10.24,44.373,0,64.853l-1.707,3.413c-2.56,5.12-6.827,9.387-11.947,11.947c6.827,3.413,16.213,4.267,24.747,0
			c5.973-2.56,10.24-7.68,12.8-13.653l0.853-2.56C466.79,309.859,466.79,285.965,456.55,265.485"/>
		<path style="fill:#FFDD09;" d="M302.95,282.552l-0.853-0.853c-5.12-11.093-17.067-17.92-29.013-17.92h-5.973l9.387,18.773
			c10.24,20.48,10.24,44.373,0,64.853l-1.707,3.413c-2.56,5.12-6.827,9.387-11.947,11.947c7.68,3.413,16.213,4.267,24.747,0
			c5.973-2.56,10.24-7.68,12.8-13.653l0.853-2.56C313.19,326.925,313.19,303.032,302.95,282.552"/>
		<path style="fill:#FFDD09;" d="M149.35,265.485l-0.853-0.853c-5.12-11.093-17.067-17.92-29.013-17.92h-5.973l9.387,18.773
			c10.24,20.48,10.24,44.373,0,64.853l-1.707,3.413c-2.56,5.12-6.827,9.387-11.947,11.947c7.68,3.413,16.213,4.267,24.747,0
			c5.973-2.56,10.24-7.68,12.8-13.653l0.853-2.56C159.59,309.859,159.59,285.965,149.35,265.485"/>
	</g>
	<path d="M255.164,186.979c-83.627,0-167.253-11.947-250.027-34.133c-4.267-1.707-6.827-5.973-5.973-11.093
		c1.707-4.267,5.973-6.827,11.093-5.973c162.987,45.227,327.68,45.227,490.667,0c4.267-0.853,9.387,1.707,10.24,5.973
		s-1.707,9.387-5.973,10.24C422.417,175.032,338.79,186.979,255.164,186.979z"/>
	<path d="M255.164,238.179c-5.12,0-8.533-3.413-8.533-8.533v-51.2c0-5.12,3.413-8.533,8.533-8.533c5.12,0,8.533,3.413,8.533,8.533
		v51.2C263.697,234.765,260.284,238.179,255.164,238.179z"/>
	<path d="M101.564,221.112c-5.12,0-8.533-3.413-8.533-8.533v-46.933c0-5.12,3.413-8.533,8.533-8.533s8.533,3.413,8.533,8.533v46.933
		C110.097,217.699,106.684,221.112,101.564,221.112z"/>
	<path d="M101.564,357.645c-13.653,0-26.453-7.68-32.427-19.627l-1.707-4.267c-11.093-23.04-11.093-49.493,0-72.533l9.387-18.773
		c1.707-2.56,4.267-4.267,7.68-4.267h34.133c3.413,0,5.973,1.707,7.68,5.12l9.387,18.773c11.093,23.04,11.093,49.493,0,72.533
		l-1.707,3.413C128.017,349.965,115.217,357.645,101.564,357.645z M89.617,255.245l-6.827,14.507
		c-8.533,17.92-8.533,39.253,0,57.173l1.707,3.413c3.413,6.827,9.387,10.24,17.067,10.24s13.653-4.267,17.067-10.24l1.707-3.413
		c8.533-17.92,8.533-39.253,0-57.173l-6.827-14.507H89.617z"/>
	<path d="M118.63,255.245H84.497c-5.12,0-8.533-3.413-8.533-8.533v-25.6c0-9.387,7.68-17.067,17.067-17.067h17.067
		c9.387,0,17.067,7.68,17.067,17.067v25.6c0,2.56-0.853,4.267-2.56,5.973S121.19,255.245,118.63,255.245z M93.03,238.179h17.067
		v-17.067H93.03V238.179z"/>
	<path d="M408.764,357.645c-13.653,0-26.453-7.68-32.427-19.627l-1.707-4.267c-11.093-23.04-11.093-49.493,0-72.533l9.387-18.773
		c1.707-2.56,4.267-5.12,7.68-5.12h34.133c3.413,0,5.973,1.707,7.68,5.12l9.387,18.773c11.093,23.04,11.093,49.493,0,72.533
		l-1.707,3.413C435.217,349.965,422.417,357.645,408.764,357.645z M396.817,255.245l-6.827,14.507
		c-8.533,17.92-8.533,39.253,0,57.173l1.707,3.413c3.413,6.827,9.387,10.24,17.067,10.24s13.653-4.267,17.067-10.24l1.707-3.413
		c8.533-17.92,8.533-39.253,0-57.173l-6.827-14.507H396.817z"/>
	<path d="M425.83,255.245h-34.133c-5.12,0-8.533-3.413-8.533-8.533v-25.6c0-9.387,7.68-17.067,17.067-17.067h17.067
		c9.387,0,17.067,7.68,17.067,17.067v25.6c0,2.56-0.853,4.267-2.56,5.973S428.39,255.245,425.83,255.245z M400.23,238.179h17.067
		v-17.067H400.23V238.179z"/>
	<path d="M255.164,374.712c-13.653,0-26.453-7.68-32.427-19.627l-1.707-4.267c-11.093-23.04-11.093-49.493,0-72.533l9.387-18.773
		c1.707-2.56,4.267-5.12,7.68-5.12h34.133c3.413,0,5.973,1.707,7.68,5.12l9.387,18.773c11.093,23.04,11.093,49.493,0,72.533
		l-1.707,3.413C281.617,367.032,268.817,374.712,255.164,374.712z M243.217,272.312l-6.827,14.507
		c-8.533,17.92-8.533,39.253,0,57.173l1.707,3.413c3.413,6.827,9.387,10.24,17.067,10.24c7.68,0,13.653-4.267,17.067-10.24
		l1.707-3.413c8.533-17.92,8.533-39.253,0-57.173l-6.827-14.507H243.217z"/>
	<path d="M272.23,272.312h-34.133c-5.12,0-8.533-3.413-8.533-8.533v-25.6c0-9.387,7.68-17.067,17.067-17.067h17.067
		c9.387,0,17.067,7.68,17.067,17.067v25.6c0,2.56-0.853,4.267-2.56,5.973S274.79,272.312,272.23,272.312z M246.63,255.245h17.067
		v-17.067H246.63V255.245z"/>
	<path d="M408.764,221.112c-5.12,0-8.533-3.413-8.533-8.533v-46.933c0-5.12,3.413-8.533,8.533-8.533s8.533,3.413,8.533,8.533v46.933
		C417.297,217.699,413.884,221.112,408.764,221.112z"/>
	<path d="M101.564,280.845c-5.12,0-8.533-3.413-8.533-8.533v-25.6c0-5.12,3.413-8.533,8.533-8.533s8.533,3.413,8.533,8.533v25.6
		C110.097,277.432,106.684,280.845,101.564,280.845z"/>
	<path d="M255.164,297.912c-5.12,0-8.533-3.413-8.533-8.533v-25.6c0-5.12,3.413-8.533,8.533-8.533c5.12,0,8.533,3.413,8.533,8.533
		v25.6C263.697,294.499,260.284,297.912,255.164,297.912z"/>
	<path d="M408.764,280.845c-5.12,0-8.533-3.413-8.533-8.533v-25.6c0-5.12,3.413-8.533,8.533-8.533s8.533,3.413,8.533,8.533v25.6
		C417.297,277.432,413.884,280.845,408.764,280.845z"/>
</g>
<g>
</g>
<g>
</g>
<g>
</g>
<g>
</g>
<g>
</g>
<g>
</g>
<g>
</g>
<g>
</g>
<g>
</g>
<g>
</g>
<g>
</g>
<g>
</g>
<g>
</g>
<g>
</g>
<g>
</g>
</svg>
