<?xml version="1.0" encoding="UTF-8" standalone="no"?>
<!-- Generator: Adobe Illustrator 18.0.0, SVG Export Plug-In . SVG Version: 6.00 Build 0)  -->

<svg
   version="1.1"
   id="Capa_1"
   x="0px"
   y="0px"
   viewBox="0 0 37.388427 41.770958"
   xml:space="preserve"
   sodipodi:docname="lights-island-colored-on.svg"
   inkscape:version="1.2 (dc2aedaf03, 2022-05-15)"
   width="37.388428"
   height="41.770958"
   xmlns:inkscape="http://www.inkscape.org/namespaces/inkscape"
   xmlns:sodipodi="http://sodipodi.sourceforge.net/DTD/sodipodi-0.dtd"
   xmlns="http://www.w3.org/2000/svg"
   xmlns:svg="http://www.w3.org/2000/svg"><defs
   id="defs8396" /><sodipodi:namedview
   id="namedview8394"
   pagecolor="#ffffff"
   bordercolor="#000000"
   borderopacity="0.25"
   inkscape:showpageshadow="2"
   inkscape:pageopacity="0.0"
   inkscape:pagecheckerboard="0"
   inkscape:deskcolor="#d1d1d1"
   showgrid="false"
   inkscape:zoom="14.603448"
   inkscape:cx="0.75324677"
   inkscape:cy="18.420307"
   inkscape:window-width="1920"
   inkscape:window-height="1027"
   inkscape:window-x="-8"
   inkscape:window-y="-8"
   inkscape:window-maximized="1"
   inkscape:current-layer="Capa_1" />

<ellipse
   style="fill:#cccccc"
   id="path2747"
   cx="8.8677683"
   cy="33.861866"
   rx="7.7721372"
   ry="7.292798" /><ellipse
   style="fill:#cccccc"
   id="path2747-5"
   cx="28.554901"
   cy="33.896103"
   rx="7.7721372"
   ry="7.292798" /><line
   style="fill:#666666;stroke:#556080;stroke-width:2;stroke-linecap:round;stroke-linejoin:round;stroke-miterlimit:10"
   x1="28.728453"
   y1="5.8642268"
   x2="28.728453"
   y2="32.864227"
   id="line8335" />
<line
   style="fill:#666666;stroke:#556080;stroke-width:2;stroke-linecap:round;stroke-linejoin:round;stroke-miterlimit:10"
   x1="8.7284536"
   y1="5.8642268"
   x2="8.7284536"
   y2="22.864227"
   id="line8337" />
<rect
   x="5.7284532"
   y="1.8642266"
   style="fill:#808080"
   width="26"
   height="4"
   id="rect8339" />
<line
   style="fill:none;stroke:#38454f;stroke-width:2;stroke-linecap:round;stroke-linejoin:round;stroke-miterlimit:10"
   x1="1.7284532"
   y1="1.8642266"
   x2="35.728455"
   y2="1.8642266"
   id="line8341" />
<rect
   x="6.7284532"
   y="22.864227"
   style="fill:#808080"
   width="4"
   height="4"
   id="rect8343" />

<rect
   x="26.728453"
   y="23.072021"
   style="fill:#808080"
   width="4"
   height="4"
   id="rect8347" />
<path
   style="fill:#d4aa00"
   d="m 10.728453,29.286227 v -2.422 H 6.7284532 v 2.422 c -1.764,0.772 -3,2.529 -3,4.578 0,2.761 2.239,5 5,5 2.7609998,0 4.9999998,-2.239 4.9999998,-5 0,-2.049 -1.236,-3.806 -3,-4.578 z"
   id="path8349" />

<path
   style="fill:#d4aa00"
   d="m 30.659976,29.288588 v -2.422 h -4 v 2.422 c -1.764,0.772 -3,2.529 -3,4.578 0,2.761 2.239,5 5,5 2.761,0 5,-2.239 5,-5 0,-2.049 -1.236,-3.806 -3,-4.578 z"
   id="path8353" />
<g
   id="g8361"
   transform="translate(-20.269186,1.2066103)">
	<path
   style="fill:#efce4a"
   d="m 30.066116,30.972845 v -2 c 0,-0.553 -0.447,-1 -1,-1 -0.553,0 -1,0.447 -1,1 v 2 c -0.553,0 -1,0.447 -1,1 0,0.553 0.447,1 1,1 h 2 c 0.553,0 1,-0.447 1,-1 0,-0.553 -0.447,-1 -1,-1 z"
   id="path8355" />
	
	<path
   style="fill:#efce4a"
   d="m 49.995277,30.977568 v -2 c 0,-0.553 -0.447,-1 -1,-1 -0.553,0 -1,0.447 -1,1 v 2 c -0.553,0 -1,0.447 -1,1 0,0.553 0.447,1 1,1 h 2 c 0.553,0 1,-0.447 1,-1 0,-0.553 -0.447,-1 -1,-1 z"
   id="path8359" />
</g>
<g
   id="g8363"
   transform="translate(-9.1759152,11.230224)">
</g>
<g
   id="g8365"
   transform="translate(-9.1759152,11.230224)">
</g>
<g
   id="g8367"
   transform="translate(-9.1759152,11.230224)">
</g>
<g
   id="g8369"
   transform="translate(-9.1759152,11.230224)">
</g>
<g
   id="g8371"
   transform="translate(-9.1759152,11.230224)">
</g>
<g
   id="g8373"
   transform="translate(-9.1759152,11.230224)">
</g>
<g
   id="g8375"
   transform="translate(-9.1759152,11.230224)">
</g>
<g
   id="g8377"
   transform="translate(-9.1759152,11.230224)">
</g>
<g
   id="g8379"
   transform="translate(-9.1759152,11.230224)">
</g>
<g
   id="g8381"
   transform="translate(-9.1759152,11.230224)">
</g>
<g
   id="g8383"
   transform="translate(-9.1759152,11.230224)">
</g>
<g
   id="g8385"
   transform="translate(-9.1759152,11.230224)">
</g>
<g
   id="g8387"
   transform="translate(-9.1759152,11.230224)">
</g>
<g
   id="g8389"
   transform="translate(-9.1759152,11.230224)">
</g>
<g
   id="g8391"
   transform="translate(-9.1759152,11.230224)">
</g>
<path
   style="fill:#aa8800;stroke-width:0.068477"
   d="M 8.0671965,38.784299 C 7.4455468,38.704164 6.6129652,38.389621 6.0482921,38.021571 3.8307974,36.576222 3.1313864,33.744054 4.4178994,31.419522 4.7709846,30.781551 5.7034353,29.861473 6.316748,29.545869 l 0.4619664,-0.237722 2.532e-4,-1.215466 2.533e-4,-1.215467 h 1.9515939 1.9515942 l 2.74e-4,1.215467 2.74e-4,1.215466 0.447239,0.231263 c 0.561533,0.290363 1.362236,1.032402 1.740497,1.61298 0.5912,0.907409 0.876322,1.997843 0.800755,3.062443 -0.166393,2.344158 -2.015533,4.279531 -4.3710452,4.574888 -0.6224078,0.07804 -0.5843708,0.07821 -1.2331652,-0.0054 z M 10.22801,34.109834 C 10.867924,33.84246 11.020338,32.933816 10.506552,32.449253 10.37858,32.328561 10.184038,32.21008 10.074237,32.185964 L 9.8745982,32.142116 9.8505224,31.033278 C 9.8297109,30.074787 9.8078769,29.892914 9.6894925,29.691928 9.4686537,29.317003 9.2193913,29.171193 8.7992918,29.171193 c -0.4200995,0 -0.6693619,0.14581 -0.8902007,0.520735 -0.1184708,0.201132 -0.1400387,0.381457 -0.1598102,1.336142 l -0.022856,1.103631 -0.2631244,0.07883 c -0.8415257,0.252127 -0.9150371,1.544925 -0.1078328,1.896382 0.3021811,0.13157 2.5591482,0.133861 2.8725423,0.0029 z"
   id="path2915" /><path
   style="fill:#aa8800;stroke-width:0.068477"
   d="m 27.997064,38.787209 c -1.869215,-0.251764 -3.528307,-1.678294 -4.095675,-3.521565 -0.409373,-1.329979 -0.174105,-2.899956 0.61639,-4.113254 0.378261,-0.580578 1.178964,-1.322617 1.740497,-1.61298 l 0.447239,-0.231263 2.53e-4,-1.215466 2.54e-4,-1.215467 h 1.951594 1.951594 l 2.73e-4,1.215467 2.74e-4,1.215466 0.461967,0.237722 c 0.613312,0.315604 1.545763,1.235682 1.898848,1.873653 1.274697,2.303182 0.585385,5.148993 -1.598267,6.598419 -0.940637,0.62436 -2.244581,0.921551 -3.3752,0.769268 z m 2.157747,-4.677375 c 0.639914,-0.267374 0.792328,-1.176018 0.278541,-1.660581 -0.127971,-0.120692 -0.323024,-0.239285 -0.43345,-0.263539 l -0.200774,-0.0441 -0.0235,-1.108589 c -0.01883,-0.888613 -0.04696,-1.151677 -0.141742,-1.32574 -0.390762,-0.717619 -1.428671,-0.717619 -1.813926,0 -0.09217,0.171683 -0.122085,0.449326 -0.142877,1.32599 l -0.0263,1.108838 -0.199639,0.04385 c -0.109801,0.02412 -0.304343,0.142597 -0.432314,0.263289 -0.507385,0.478525 -0.363367,1.384754 0.263435,1.657664 0.302181,0.13157 2.559148,0.133861 2.872543,0.0029 z"
   id="path2917" /><path
   style="fill:#d4aa00;stroke-width:0.068477"
   d="M 7.3323276,34.013096 C 6.795783,33.721052 6.6911792,32.970652 7.1246684,32.523405 7.2539208,32.39005 7.4507215,32.269898 7.5794486,32.245749 l 0.226927,-0.04257 V 31.15079 c 0,-0.808676 0.02559,-1.116343 0.110504,-1.328563 0.2919831,-0.729737 1.270572,-0.815228 1.6859373,-0.147286 0.1420119,0.228367 0.1570812,0.346014 0.1779242,1.389059 l 0.022771,1.13956 0.1986759,0.03974 c 0.109271,0.02185 0.314727,0.146089 0.456567,0.276076 0.243835,0.223458 0.257892,0.258959 0.257892,0.651322 0,0.388485 -0.01646,0.431452 -0.257769,0.672912 l -0.25777,0.25793 -1.3172012,0.01957 c -1.1781744,0.0175 -1.3419391,0.0061 -1.5515797,-0.108007 z"
   id="path2919" /><path
   style="fill:#ffe680;stroke-width:0.068477"
   d="m 27.25806,34.010648 c -0.333627,-0.178926 -0.499119,-0.512529 -0.462352,-0.93202 0.02477,-0.282578 0.07065,-0.37572 0.279225,-0.566868 0.137273,-0.125801 0.338992,-0.24661 0.448263,-0.268465 l 0.198676,-0.03974 0.02277,-1.13956 c 0.02575,-1.288609 0.07841,-1.456008 0.539505,-1.71516 0.325406,-0.182889 0.56137,-0.181266 0.894835,0.0062 0.456796,0.256734 0.540026,0.531204 0.540026,1.780856 v 1.065452 l 0.204328,0.04087 c 0.11238,0.02248 0.316642,0.143794 0.453915,0.269595 0.208578,0.191148 0.254457,0.28429 0.279225,0.566868 0.03677,0.419491 -0.128724,0.753094 -0.462352,0.93202 -0.201248,0.107931 -0.40299,0.125126 -1.468032,0.125126 -1.065043,0 -1.266785,-0.0172 -1.468033,-0.125126 z"
   id="path2921" /><path
   style="fill:#ffdd55;stroke-width:0.068477"
   d="M 7.3107783,33.960104 C 7.0612516,33.824712 6.9161749,33.526376 6.9161749,33.148641 c 0,-0.248121 0.041935,-0.356926 0.2123885,-0.551061 0.1168137,-0.133044 0.3094052,-0.266959 0.4279811,-0.297589 l 0.2155926,-0.05569 0.055348,-1.123752 c 0.061332,-1.245239 0.1342523,-1.502417 0.4869871,-1.717514 0.2698291,-0.164541 0.6998097,-0.164541 0.9696388,0 0.3355405,0.204612 0.4385502,0.508591 0.4470519,1.31924 0.00409,0.389763 0.027199,0.893547 0.051358,1.119521 0.037475,0.350529 0.065378,0.413922 0.1900149,0.431698 0.080349,0.01146 0.2729402,0.129415 0.4279812,0.262124 0.265843,0.227552 0.281892,0.262416 0.281892,0.612379 0,0.330196 -0.02729,0.401297 -0.247638,0.645196 l -0.247637,0.274105 -1.3444525,-0.0027 c -1.0553723,-0.0022 -1.3847573,-0.02461 -1.5319031,-0.104451 z"
   id="path2958" /><path
   style="fill:#ffdd55;stroke-width:0.068477"
   d="M 7.6009447,38.656584 C 6.1328388,38.264565 4.9049798,37.266778 4.2877622,35.964217 3.64613,34.610131 3.6749732,32.97936 4.3649139,31.602126 4.6972496,30.938729 5.6429074,29.962927 6.3170013,29.587811 l 0.4622196,-0.257213 v -1.226692 -1.226692 h 1.9515939 1.9515942 v 1.22356 1.22356 l 0.462219,0.265815 c 0.697116,0.400898 1.563887,1.29938 1.922027,1.992343 0.758021,1.466689 0.757777,3.094638 -6.85e-4,4.558748 -0.354478,0.684278 -1.22713,1.594467 -1.904227,1.986139 -1.04534,0.604685 -2.4797658,0.817869 -3.5608031,0.529205 z m 2.9217683,-4.73988 c 0.222443,-0.222567 0.256543,-0.301517 0.280969,-0.650532 0.02318,-0.331214 0.0012,-0.437049 -0.132431,-0.636892 -0.08813,-0.131818 -0.287385,-0.301298 -0.442796,-0.376623 -0.2523728,-0.12232 -0.287117,-0.169071 -0.3251675,-0.437538 -0.023431,-0.165322 -0.042774,-0.612134 -0.042984,-0.992917 -4.734e-4,-0.858126 -0.06898,-1.11353 -0.3793754,-1.414377 -0.226663,-0.21969 -0.2754643,-0.236632 -0.6816359,-0.236632 -0.4061716,0 -0.4549729,0.01694 -0.681636,0.236632 -0.314373,0.304702 -0.3787409,0.554516 -0.380129,1.475292 -0.00161,1.064925 -0.040312,1.249839 -0.2722875,1.300789 -0.1946452,0.04275 -0.4762226,0.301926 -0.6091745,0.560707 -0.1863674,0.362752 -0.025093,1.069284 0.2914139,1.276667 0.2477459,0.162329 0.361199,0.172608 1.770646,0.160419 l 1.3514179,-0.01169 z"
   id="path2960" /><path
   style="fill:#ffe680;stroke-width:0.068477"
   d="m 27.62785,38.696059 c -1.557808,-0.357022 -2.971953,-1.59137 -3.577064,-3.122268 -0.224899,-0.568983 -0.285862,-0.925859 -0.286588,-1.677686 -0.001,-1.041543 0.216021,-1.800218 0.768135,-2.685207 0.332223,-0.532524 1.163108,-1.315151 1.736935,-1.636053 l 0.436754,-0.244247 v -1.226692 -1.226692 h 1.951594 1.951594 v 1.226692 1.226692 l 0.462219,0.257213 c 0.682365,0.379718 1.623543,1.352922 1.951873,2.018288 0.886495,1.796503 0.655268,3.90506 -0.594118,5.417761 -0.616398,0.746306 -1.380053,1.24239 -2.402029,1.5604 -0.616652,0.191885 -1.807703,0.247383 -2.399305,0.111799 z m 2.821663,-4.779355 c 0.222444,-0.222567 0.256544,-0.301517 0.28097,-0.650532 0.0233,-0.33294 0.0015,-0.436008 -0.134453,-0.636892 -0.08924,-0.131818 -0.284558,-0.301298 -0.434041,-0.376623 -0.149483,-0.07532 -0.285133,-0.145163 -0.301443,-0.155197 -0.01631,-0.01003 -0.04829,-0.525483 -0.07107,-1.145444 -0.04497,-1.223826 -0.07329,-1.315308 -0.507698,-1.639638 -0.262016,-0.195624 -0.849348,-0.195624 -1.111365,0 -0.425864,0.317954 -0.453472,0.407041 -0.507648,1.638115 -0.02753,0.625519 -0.06146,1.143585 -0.07541,1.151259 -0.01395,0.0077 -0.147668,0.07558 -0.297152,0.150905 -0.367878,0.185374 -0.584174,0.521236 -0.584174,0.907098 0,0.506109 0.249546,0.886913 0.653385,0.997057 0.07375,0.02012 0.742238,0.03131 1.485519,0.02489 l 1.351418,-0.01169 z"
   id="path2962" /><path
   style="fill:#ffdd55;stroke-width:0.068477"
   d="M 8.2172375,34.002848 C 7.7464582,33.981802 7.3225378,33.939517 7.275192,33.908882 7.1233569,33.810637 6.9760413,33.449099 6.9721218,33.165095 c -0.00479,-0.347188 0.1693519,-0.595293 0.5443065,-0.775484 0.2378468,-0.114301 0.2857946,-0.170933 0.2898825,-0.342385 0.019107,-0.801347 0.1458684,-2.04565 0.2285597,-2.243558 0.1388581,-0.332334 0.3525469,-0.461283 0.7644213,-0.461283 0.655537,0 0.8467137,0.30445 0.8973176,1.428982 0.06254,1.389782 0.072149,1.432215 0.3574646,1.57854 0.327749,0.168088 0.544266,0.407906 0.561345,0.621758 0.03298,0.412987 -0.01096,0.557913 -0.249125,0.821527 l -0.247637,0.274105 -0.5227288,-0.01309 c -0.2875007,-0.0072 -0.9079115,-0.03031 -1.3786907,-0.05136 z"
   id="path2964" /><path
   style="fill:#ffe680;stroke-width:0.068477"
   d="M 8.2017296,34.002848 C 7.2133495,33.959448 7.1077068,33.907939 6.9997086,33.416766 6.8924275,32.928854 7.06431,32.594368 7.5495869,32.346694 7.765265,32.236617 7.8066954,32.180229 7.808373,31.994477 c 0.00609,-0.674295 0.1425559,-1.989908 0.2274963,-2.193199 0.1378704,-0.329971 0.3523476,-0.458893 0.7634225,-0.458893 0.6922249,0 0.8430227,0.279136 0.9211232,1.705052 0.030118,0.549884 0.076214,1.050893 0.1024357,1.113354 0.026221,0.06246 0.1342847,0.14944 0.2401413,0.193287 0.598302,0.247825 0.749014,0.903365 0.32839,1.428372 l -0.222551,0.277778 -0.5478155,-0.0096 c -0.3012987,-0.0053 -0.9399774,-0.02678 -1.4192859,-0.04782 z"
   id="path2966" /><path
   style="fill:#ffe680;stroke-width:0.068477"
   d="m 7.6865422,33.936731 c -0.50475,-0.06238 -0.6592607,-0.231963 -0.6639963,-0.728778 -0.00341,-0.35799 0.012995,-0.39798 0.2465432,-0.600927 0.1376094,-0.119578 0.3164763,-0.263637 0.397482,-0.32013 0.1312392,-0.09153 0.1543813,-0.199688 0.212443,-0.992917 0.1222014,-1.669494 0.2425123,-1.917299 0.9260656,-1.907418 0.6476145,0.0094 0.7908193,0.268737 0.8829769,1.599272 0.084813,1.224498 0.084734,1.224229 0.4196774,1.426542 0.525831,0.317614 0.628514,0.803559 0.279347,1.322004 l -0.15504,0.230203 -1.0929979,0.0083 c -0.601149,0.0046 -1.2547743,-0.0117 -1.4525009,-0.03614 z"
   id="path2968" /><path
   style="fill:#ffe680;stroke-width:0.068477"
   d="m 27.87013,34.074965 c -0.282467,-0.02369 -0.582591,-0.08224 -0.666941,-0.130114 -0.218434,-0.123976 -0.360213,-0.437364 -0.360213,-0.79621 0,-0.248121 0.04193,-0.356926 0.212388,-0.551061 0.116814,-0.133044 0.309405,-0.266898 0.427981,-0.297455 0.207221,-0.0534 0.217277,-0.07268 0.258947,-0.496613 0.02384,-0.242581 0.04713,-0.718387 0.05174,-1.057348 0.01132,-0.832182 0.09074,-1.088354 0.403265,-1.300717 0.311869,-0.21192 0.700346,-0.224809 1.009882,-0.03351 0.363925,0.224918 0.435086,0.468655 0.481506,1.649227 0.02281,0.579994 0.0534,1.093052 0.06798,1.14013 0.01459,0.04708 0.08782,0.0856 0.162739,0.0856 0.07492,0 0.260776,0.118487 0.413011,0.263305 0.246868,0.234839 0.276792,0.298132 0.276792,0.585455 0,0.391869 -0.144559,0.691728 -0.394902,0.819151 -0.222331,0.113164 -1.591002,0.18332 -2.344178,0.120158 z"
   id="path2970" /><path
   style="fill:#ffdd55;stroke-width:0.068477"
   d="m 27.466925,38.615491 c -1.560848,-0.419762 -2.972866,-1.785782 -3.478358,-3.365045 -0.155881,-0.487007 -0.168127,-0.614715 -0.142997,-1.491295 0.03055,-1.065829 0.167536,-1.591217 0.612983,-2.35109 0.3041,-0.518753 1.296541,-1.494717 1.822016,-1.791768 l 0.423969,-0.239669 7.42e-4,-1.249705 7.42e-4,-1.249705 h 1.951594 1.951594 l 6.8e-5,1.249705 6.9e-5,1.249705 0.345986,0.194326 c 0.508747,0.28574 1.103666,0.804194 1.534061,1.336886 0.683496,0.845949 1.01393,1.824505 1.009066,2.988269 -0.0097,2.323515 -1.5723,4.248569 -3.838512,4.72891 -0.581775,0.123311 -1.717428,0.11838 -2.193025,-0.0095 z m 2.949914,-4.599552 c 0.266241,-0.285454 0.329325,-0.451797 0.329325,-0.868382 0,-0.339388 -0.02622,-0.409947 -0.240409,-0.647032 -0.132225,-0.146357 -0.328154,-0.302449 -0.435397,-0.34687 l -0.194988,-0.08077 -0.04745,-1.005747 c -0.05935,-1.257892 -0.110816,-1.461581 -0.430983,-1.705784 -0.21017,-0.160304 -0.315505,-0.190164 -0.67084,-0.190164 -0.355335,0 -0.460671,0.02986 -0.670841,0.190164 -0.318356,0.242822 -0.370326,0.445643 -0.430786,1.681214 l -0.04801,0.981178 -0.252581,0.159447 c -0.13892,0.0877 -0.334767,0.25712 -0.435217,0.376497 -0.361406,0.429507 -0.192791,1.308227 0.29876,1.556955 0.119154,0.06029 0.595372,0.08588 1.611461,0.08659 l 1.442325,10e-4 z"
   id="path2972" /><path
   style="fill:#ececec;stroke-width:0.068477"
   d="M 7.7094634,41.049105 C 4.667068,40.571894 2.2036108,38.498413 1.4050343,35.742692 0.97606198,34.262399 1.0894611,32.574631 1.716971,31.100004 2.5031743,29.252454 4.4043861,27.584729 6.4138125,26.979981 l 0.2969314,-0.08936 -8.125e-4,1.174526 -8.124e-4,1.174526 -0.4090644,0.224689 c -0.9035363,0.49629 -1.6478049,1.288923 -2.0955277,2.2317 -0.3215232,0.677037 -0.4321969,1.110756 -0.4831198,1.893301 -0.1568625,2.410546 1.4927721,4.625504 3.8525238,5.172767 0.5976475,0.138603 1.7532629,0.13475 2.3394793,-0.0078 C 12.858916,38.038065 14.52815,34.811131 13.399094,32.015869 12.981051,30.9809 12.153857,30.01974 11.245574,29.513582 l -0.491519,-0.273908 -0.0016,-1.210633 -0.0016,-1.210633 0.427981,0.12346 c 2.957541,0.853167 5.149239,3.413898 5.380474,6.286426 0.298065,3.702731 -2.17637,6.863353 -6.048125,7.725335 -0.573843,0.127757 -2.2350527,0.184369 -2.8017526,0.09548 z"
   id="path3112" /><path
   style="fill:#ececec;stroke-width:0.068477"
   d="m 27.904369,41.113697 c -2.55824,-0.170057 -4.928465,-1.631315 -6.164655,-3.800547 -2.023026,-3.54995 -0.590192,-7.926491 3.220145,-9.835817 0.432959,-0.216952 1.465388,-0.600119 1.616999,-0.600119 0.03338,0 0.06069,0.531606 0.06069,1.181346 v 1.181345 l -0.316026,0.167652 c -0.913147,0.484423 -1.686762,1.285616 -2.152088,2.228807 -0.398901,0.808552 -0.508093,1.294593 -0.507667,2.259741 4.18e-4,0.951129 0.136478,1.498926 0.589126,2.371959 0.627769,1.210793 1.885852,2.174583 3.261107,2.498263 0.594272,0.139868 1.696965,0.139868 2.291237,0 2.378004,-0.559687 4.020999,-2.761084 3.863789,-5.176967 -0.05075,-0.779821 -0.162341,-1.21923 -0.475949,-1.874053 -0.464504,-0.969899 -1.195907,-1.75287 -2.102698,-2.250948 l -0.409065,-0.224689 2.37e-4,-1.061393 c 1.37e-4,-0.583766 0.02571,-1.101554 0.05684,-1.15064 0.04531,-0.07144 0.144165,-0.05927 0.49541,0.06096 1.73251,0.593067 3.254931,1.840371 4.138287,3.39046 2.252159,3.952027 0.183791,8.841891 -4.350016,10.283944 -1.013809,0.322459 -1.951949,0.428053 -3.115702,0.350694 z"
   id="path3114" /><path
   style="fill:#ffe680;stroke-width:0.068477"
   d="m 27.458011,38.587797 c -1.147245,-0.289348 -2.477947,-1.3815 -3.064042,-2.514763 -0.448953,-0.868087 -0.507519,-1.109599 -0.501913,-2.06975 0.0064,-1.103514 0.09188,-1.556546 0.423851,-2.247475 0.220504,-0.458938 0.390418,-0.684977 0.902886,-1.201127 0.347197,-0.34969 0.823858,-0.754485 1.059248,-0.899543 l 0.427981,-0.263743 v -1.257091 -1.257091 h 1.951594 1.951594 v 1.257091 1.257091 l 0.416682,0.257192 c 0.545635,0.336784 1.231074,0.983111 1.618728,1.526359 0.847416,1.187547 1.054459,2.855944 0.538521,4.339522 -0.461921,1.328256 -1.494717,2.368117 -2.863373,2.882964 -0.528481,0.198798 -0.635491,0.214384 -1.593675,0.232117 -0.564935,0.01046 -1.135572,-0.0083 -1.268082,-0.04175 z m 3.047156,-4.639351 c 0.171656,-0.215133 0.208283,-0.329751 0.230388,-0.720951 l 0.02628,-0.465151 -0.333103,-0.330482 c -0.183206,-0.181766 -0.375819,-0.344067 -0.428029,-0.360669 -0.07188,-0.02286 -0.109705,-0.286712 -0.155797,-1.086764 -0.06824,-1.18453 -0.147557,-1.437921 -0.529769,-1.692498 -0.320436,-0.213429 -0.857659,-0.213429 -1.178094,0 -0.376714,0.250915 -0.459546,0.508822 -0.52874,1.646309 l -0.06167,1.013801 -0.384536,0.342731 c -0.42769,0.381195 -0.556694,0.683988 -0.464119,1.089366 0.07527,0.329608 0.179899,0.509856 0.393467,0.677849 0.170727,0.134294 0.265703,0.142264 1.695238,0.142262 l 1.514378,-2e-6 z"
   id="path3161" /><path
   style="fill:#ffe680;stroke-width:0.068477"
   d="M 7.6009447,38.620796 C 7.3938018,38.564338 6.9327425,38.374926 6.5763685,38.199879 6.033106,37.933033 5.8271859,37.780917 5.3018806,37.258397 4.7877349,36.746977 4.6245778,36.530773 4.3923319,36.053129 4.0004952,35.247266 3.8790735,34.727198 3.8807317,33.861866 c 0.00153,-0.796312 0.1617291,-1.516848 0.4766872,-2.143967 0.3851383,-0.766857 1.2960934,-1.709092 2.075676,-2.146949 l 0.3459868,-0.194326 6.96e-5,-1.249705 6.96e-5,-1.249705 h 1.9515939 1.9515942 l 7.39e-4,1.249705 7.4e-4,1.249705 0.419821,0.239669 c 0.519608,0.296637 1.395318,1.140933 1.736368,1.67408 0.572688,0.895255 0.854419,2.125598 0.716832,3.13047 -0.157742,1.152085 -0.612789,2.046219 -1.479383,2.906882 -0.588892,0.58486 -1.106894,0.911561 -1.840879,1.161031 -0.6881118,0.233879 -2.0176759,0.300485 -2.6357023,0.13204 z m 2.8890933,-4.604857 c 0.267153,-0.286432 0.329325,-0.451928 0.329325,-0.876636 0,-0.362294 -0.01813,-0.406365 -0.262445,-0.637913 -0.144345,-0.136803 -0.340374,-0.311935 -0.435621,-0.389181 -0.16584,-0.134498 -0.1752795,-0.182361 -0.2228347,-1.12987 -0.05714,-1.138484 -0.1642552,-1.483619 -0.529577,-1.706348 -0.3045631,-0.185686 -0.8346239,-0.185686 -1.139187,0 -0.3585612,0.218607 -0.4712672,0.57147 -0.5242589,1.641365 -0.025183,0.508442 -0.060901,0.977823 -0.079373,1.043069 -0.018472,0.06525 -0.1414143,0.169799 -0.2732046,0.232337 -0.5513739,0.261644 -0.766367,1.088956 -0.4175121,1.606622 0.2584376,0.383495 0.3507614,0.402748 1.9367272,0.403858 l 1.4423241,10e-4 z"
   id="path3163" /><path
   style="fill:#ffeeaa;stroke-width:0.068477"
   d="m 7.6149485,33.933874 c -0.4346842,-0.07065 -0.5879467,-0.258451 -0.5924026,-0.725921 -0.00337,-0.353314 0.015218,-0.400631 0.2360485,-0.600927 0.1318372,-0.119578 0.3084376,-0.263637 0.3924452,-0.32013 0.1382821,-0.09299 0.1596152,-0.189929 0.2253564,-1.024007 0.1175932,-1.491937 0.2322144,-1.790714 0.7222494,-1.882645 0.3855285,-0.07233 0.7507326,0.06461 0.8759266,0.328439 0.1102534,0.232342 0.2472716,1.198973 0.248979,1.756489 0.00162,0.527585 0.1050547,0.769567 0.409355,0.957635 0.443442,0.274062 0.583255,0.696161 0.370053,1.117194 -0.237571,0.469156 -0.2069,0.45968 -1.4574917,0.450248 -0.6250069,-0.0047 -1.2687404,-0.03008 -1.4305188,-0.05637 z"
   id="path3234" /><path
   style="fill:#ffeeaa;stroke-width:0.068477"
   d="m 27.698938,34.077111 c -0.188312,-0.02709 -0.411399,-0.08751 -0.495749,-0.134278 -0.217875,-0.120792 -0.360213,-0.434617 -0.360213,-0.794192 0,-0.246996 0.042,-0.356996 0.208853,-0.547035 0.11487,-0.13083 0.310575,-0.271443 0.434901,-0.312474 l 0.226046,-0.0746 0.04408,-0.665706 c 0.02425,-0.366139 0.04442,-0.835187 0.04482,-1.04233 0.0011,-0.583333 0.10584,-0.86414 0.395615,-1.061047 0.317952,-0.216054 0.699953,-0.225052 1.025029,-0.02414 0.360664,0.222903 0.431504,0.476379 0.477306,1.70788 l 0.04037,1.085544 0.225749,0.0745 c 0.124162,0.04098 0.319733,0.181546 0.434603,0.312376 0.166857,0.190039 0.208854,0.300039 0.208854,0.547035 0,0.385248 -0.14746,0.67973 -0.407778,0.814346 -0.229474,0.118665 -1.931368,0.196278 -2.502494,0.114124 z"
   id="path3236" /><path
   style="fill:#ffeeaa;stroke-width:0.068477"
   d="M 27.134571,38.452657 C 26.517547,38.23059 25.941183,37.833435 25.30025,37.18868 c -0.510745,-0.513791 -0.674977,-0.735123 -0.944218,-1.272505 -0.397989,-0.794348 -0.486357,-1.267849 -0.428199,-2.294404 0.07916,-1.397172 0.373945,-2.078342 1.305838,-3.017388 0.339014,-0.341616 0.80898,-0.751058 1.04437,-0.909871 l 0.427981,-0.288753 v -1.264272 -1.264273 h 1.951594 1.951594 v 1.261124 1.261124 l 0.530696,0.37253 c 1.154572,0.81047 1.920377,1.877946 2.17802,3.035999 0.171053,0.768851 0.110979,1.85431 -0.145118,2.62208 -0.479902,1.438731 -1.788582,2.679806 -3.218523,3.052258 -0.611252,0.159211 -2.345601,0.14096 -2.819714,-0.02967 z m 3.363111,-4.455853 c 0.169401,-0.201321 0.20768,-0.332932 0.272186,-0.935811 0.02948,-0.27552 0.01437,-0.302914 -0.368695,-0.668293 -0.219689,-0.209547 -0.415176,-0.434633 -0.434415,-0.500189 -0.01924,-0.06556 -0.06888,-0.53519 -0.110312,-1.043632 -0.0846,-1.038225 -0.181667,-1.317406 -0.541306,-1.556948 -0.320436,-0.213429 -0.857659,-0.213429 -1.178094,0 -0.371476,0.247426 -0.465793,0.527623 -0.549854,1.633511 l -0.07486,0.98483 -0.399375,0.418118 c -0.219656,0.229964 -0.421301,0.505476 -0.448099,0.612249 -0.07815,0.311395 0.08284,0.790495 0.34983,1.041062 l 0.237138,0.22255 h 1.535651 1.53565 z"
   id="path3287" /><path
   style="fill:#ffeeaa;stroke-width:0.068477"
   d="M 7.4883087,38.557309 C 7.332203,38.508477 6.931783,38.336531 6.5984865,38.175206 6.085663,37.926985 5.8921601,37.780785 5.3399122,37.224297 4.6458284,36.524885 4.3864222,36.114587 4.1015746,35.265644 3.9674759,34.865984 3.9404657,34.644022 3.9390837,33.930343 3.9372707,32.994037 4.0170075,32.566069 4.3184706,31.894078 4.6747527,31.099889 5.527287,30.164134 6.3664722,29.646159 l 0.4127487,-0.254763 v -1.257091 -1.257091 h 1.9515939 1.9515942 v 1.257091 1.257091 l 0.427981,0.262368 c 0.62678,0.384238 1.538138,1.331199 1.842159,1.914123 0.94112,1.804494 0.748847,3.792681 -0.514134,5.316358 -0.71701,0.865009 -1.51258,1.387906 -2.4932593,1.638722 -0.614428,0.157144 -2.0022546,0.176543 -2.456847,0.03434 z M 10.579199,33.94746 c 0.175174,-0.219494 0.208462,-0.326512 0.229209,-0.736899 L 10.832681,32.730448 10.42088,32.34382 C 9.964604,31.915437 9.9867746,31.987124 9.8950028,30.643448 9.8442207,29.899922 9.7531278,29.601603 9.5039845,29.362909 9.3218247,29.188389 9.2586186,29.171193 8.7992918,29.171193 c -0.4593269,0 -0.5225329,0.0172 -0.7046928,0.191716 -0.2445863,0.234328 -0.3376204,0.531673 -0.389946,1.246301 -0.1081063,1.476444 -0.08766,1.391929 -0.3816309,1.577504 -0.3143229,0.198424 -0.4672008,0.412199 -0.5479966,0.766286 -0.1060907,0.464943 0.1405693,1.0299 0.5177727,1.185922 0.075325,0.03116 0.7994688,0.0586 1.6092091,0.06099 l 1.4722547,0.0043 0.204937,-0.256787 z"
   id="path3289" /><path
   style="fill:#fff6d5;stroke-width:0.068477"
   d="m 27.397205,33.982437 c -0.341969,-0.12657 -0.51209,-0.393897 -0.51209,-0.804698 0,-0.284629 0.03394,-0.378368 0.201481,-0.556519 0.110814,-0.117831 0.297245,-0.255247 0.414291,-0.305369 0.182661,-0.07822 0.219041,-0.136589 0.256788,-0.411986 0.02419,-0.17647 0.04398,-0.592368 0.04398,-0.924219 0,-0.866964 0.09831,-1.259318 0.365395,-1.458325 0.392327,-0.292322 0.898909,-0.269956 1.202393,0.05309 0.181693,0.193403 0.263859,0.661919 0.322928,1.84136 l 0.04039,0.806559 0.215673,0.09233 c 0.678052,0.290267 0.847953,1.165994 0.304395,1.568953 -0.165678,0.122823 -0.313563,0.139808 -1.403779,0.161224 -0.864439,0.01698 -1.286381,-0.0012 -1.451847,-0.0624 z"
   id="path3291" /><path
   style="fill:#ffe680;stroke-width:0.068477"
   d="M 7.4199599,33.863182 C 7.1849502,33.76716 7.0531288,33.517106 7.0531288,33.167337 c 0,-0.303506 0.021237,-0.340599 0.3760562,-0.656845 l 0.3760562,-0.335173 0.1037144,-0.982772 c 0.1001211,-0.948721 0.1831683,-1.390531 0.2911446,-1.548883 0.2362924,-0.346534 1.0687101,-0.294589 1.2381371,0.07726 0.1013962,0.22254 0.2002789,0.846324 0.254789,1.607291 0.052356,0.7309 0.1310182,0.932178 0.4415667,1.12987 0.423935,0.269872 0.53367,0.790348 0.254129,1.20534 l -0.156732,0.232677 -1.3326422,0.01352 c -0.7329528,0.0074 -1.3986775,-0.01346 -1.4793879,-0.04644 z"
   id="path3362" /><path
   style="fill:#ffdd55;stroke-width:0.068477"
   d="m 27.356553,33.936162 c -0.23245,-0.09867 -0.386505,-0.324719 -0.426988,-0.626543 -0.051,-0.380199 0.106843,-0.670637 0.499257,-0.91868 0.34837,-0.220202 0.347772,-0.218041 0.402899,-1.4574 0.02165,-0.486831 0.07834,-0.937877 0.134878,-1.073186 0.133084,-0.318517 0.407109,-0.483729 0.802323,-0.483729 0.385881,0 0.641944,0.199131 0.74273,0.577594 0.04813,0.180722 0.200206,1.853901 0.20668,2.273896 3.69e-4,0.02416 0.07048,0.06145 0.155789,0.08287 0.08531,0.02141 0.259148,0.146269 0.386303,0.277459 0.181969,0.187744 0.238075,0.310168 0.263523,0.575007 0.02891,0.300831 0.01035,0.36109 -0.175112,0.568807 l -0.207444,0.23233 -1.323942,0.01485 c -0.728168,0.0082 -1.385571,-0.0113 -1.460896,-0.04327 z"
   id="path3417" /><path
   style="fill:#ffe680;stroke-width:0.068477"
   d="m 27.649349,38.519784 c -0.815725,-0.103285 -1.598585,-0.579404 -2.4679,-1.500924 -0.498641,-0.528585 -0.854603,-1.117734 -1.079977,-1.787454 -0.135689,-0.403213 -0.14648,-0.541764 -0.114663,-1.472255 0.03844,-1.124169 0.129883,-1.539122 0.471996,-2.141825 0.270462,-0.476476 1.159925,-1.401487 1.759519,-1.82984 l 0.479258,-0.342385 0.0042,-1.283943 0.0042,-1.283944 h 1.951594 1.951594 l 0.0018,1.283944 0.0018,1.283943 0.356283,0.239669 c 0.971583,0.653579 1.882585,1.761161 2.177494,2.647363 0.287103,0.862744 0.296288,2.149748 0.02143,3.001988 -0.456064,1.41407 -1.720462,2.668909 -3.096768,3.073354 -0.443425,0.130307 -1.787439,0.192634 -2.421826,0.112309 z m 2.890371,-4.553565 c 0.08091,-0.130917 0.180075,-0.436954 0.220362,-0.680082 l 0.07325,-0.44205 -0.419741,-0.472283 -0.41974,-0.472283 -0.103792,-0.983499 c -0.116171,-1.100813 -0.217814,-1.385539 -0.581913,-1.63009 -0.204031,-0.137038 -0.304611,-0.156972 -0.676397,-0.134055 -0.397483,0.0245 -0.456787,0.04881 -0.659961,0.270511 -0.265454,0.28966 -0.350672,0.628953 -0.417469,1.662133 l -0.04747,0.734182 -0.434655,0.522797 c -0.362249,0.43571 -0.434654,0.565218 -0.434654,0.777454 0,0.346714 0.105018,0.598379 0.360018,0.862747 l 0.214663,0.22255 h 1.590192 1.590191 z"
   id="path3419" /><path
   style="fill:#ffe680;stroke-width:0.068477"
   d="M 7.9090911,38.588524 C 7.4578519,38.534591 6.6533707,38.216185 6.1450879,37.890349 5.6092167,37.546828 4.6836355,36.509844 4.415731,35.952848 4.036559,35.164517 3.9521944,34.720847 3.9861823,33.693875 4.010693,32.953266 4.0464728,32.714034 4.1953921,32.295055 4.5218518,31.376572 5.262143,30.467192 6.2485243,29.77297 l 0.5306966,-0.373508 v -1.261124 -1.261124 h 1.9515939 1.9515942 v 1.261124 1.261124 l 0.535688,0.375367 c 0.712113,0.49899 1.464513,1.322646 1.763044,1.930012 0.382439,0.778079 0.530788,1.496967 0.493697,2.39243 -0.05393,1.302066 -0.437054,2.131747 -1.457128,3.155536 -0.929853,0.933239 -1.730072,1.284719 -3.0814643,1.353471 -0.338961,0.01724 -0.8011806,0.0093 -1.0271546,-0.01775 z m 2.6774549,-4.62684 c 0.144758,-0.189788 0.195034,-0.349957 0.231064,-0.736127 l 0.04605,-0.493561 -0.361762,-0.332959 C 10.302929,32.21591 10.109357,31.969392 10.071738,31.851221 10.03412,31.73305 9.9690721,31.252699 9.9271882,30.783775 9.8408175,29.816786 9.7655423,29.584315 9.4538803,29.322069 9.2681311,29.165771 9.1697229,29.136955 8.8217226,29.136955 c -0.8141475,0 -1.035422,0.31614 -1.1502882,1.643447 -0.101008,1.16717 -0.1002605,1.164813 -0.4703232,1.483577 -0.5052883,0.435245 -0.6184231,1.055277 -0.2852308,1.5632 0.2328056,0.354892 0.3226851,0.372023 1.9655227,0.374645 l 1.5201279,0.0024 z"
   id="path3421" /><path
   style="fill:#ffe680;stroke-width:0.068477"
   d="M 7.259979,33.692184 C 7.1460181,33.570878 7.0986891,33.436229 7.0939693,33.219893 c -0.00609,-0.279068 0.024554,-0.335275 0.3938783,-0.722499 0.3822803,-0.400808 0.3993738,-0.433804 0.37613,-0.726056 -0.013393,-0.168391 -0.00726,-0.306166 0.013635,-0.306166 0.020892,0 0.073966,-0.321972 0.1179403,-0.715493 0.1026143,-0.918272 0.2025649,-1.162332 0.5187465,-1.266682 0.3833445,-0.126515 0.7822014,0.0089 0.9071821,0.308041 0.086719,0.207548 0.3131198,1.698758 0.3102952,2.04379 -0.00172,0.209858 0.1716508,0.484661 0.4301593,0.681835 0.379314,0.289317 0.445457,0.754677 0.169962,1.195813 -0.09098,0.145676 -0.128342,0.14939 -1.5029037,0.14939 H 7.4193867 Z"
   id="path3423" /><path
   style="fill:#ffeeaa;stroke-width:0.068477"
   d="M 27.157209,33.719658 C 27.022946,33.560095 26.97993,33.432854 26.97993,33.19527 c 0,-0.293917 0.02591,-0.33859 0.410862,-0.708313 0.267705,-0.257117 0.411557,-0.450191 0.412859,-0.554125 0.0089,-0.708415 0.146146,-1.934117 0.236098,-2.108065 0.225671,-0.436399 0.840454,-0.549605 1.206851,-0.222229 0.202566,0.180992 0.21967,0.235378 0.306898,0.975797 0.05081,0.431266 0.09342,0.976326 0.0947,1.211243 0.0023,0.420639 0.0064,0.429666 0.267707,0.594648 0.407984,0.25755 0.556346,0.486292 0.556346,0.85777 0,0.261588 -0.03523,0.354086 -0.192059,0.504343 l -0.192059,0.184004 h -1.376824 -1.376825 z"
   id="path3425" /><path
   style="fill:#ffeeaa;stroke-width:0.068477"
   d="M 7.259979,33.692184 C 7.1451988,33.570006 7.098723,33.436483 7.0939693,33.215246 7.087869,32.931338 7.1158464,32.87915 7.4621335,32.528478 7.808811,32.17741 7.8384353,32.122057 7.857388,31.789949 c 0.033534,-0.587614 0.2235512,-1.768762 0.3227405,-2.006155 0.1227852,-0.293867 0.4577817,-0.412446 0.8595553,-0.30426 0.417951,0.112542 0.4265761,0.141131 0.7169724,2.376431 0.03543,0.272722 0.1780421,0.495595 0.4419898,0.69074 0.341023,0.252129 0.397154,0.743198 0.133253,1.165771 -0.09098,0.145676 -0.128343,0.14939 -1.5029042,0.14939 H 7.4193867 Z"
   id="path3427" /></svg>
