<?xml version="1.0" encoding="iso-8859-1"?>
<!-- Uploaded to: SVG Repo, www.svgrepo.com, Generator: SVG Repo Mixer Tools -->
<svg height="800px" width="800px" version="1.1" id="Layer_1" xmlns="http://www.w3.org/2000/svg" xmlns:xlink="http://www.w3.org/1999/xlink" 
	 viewBox="0 0 512 512" xml:space="preserve">
<path style="fill:#808080;" d="M502.998,512H9.002c-4.661,0-8.44-3.779-8.44-8.44V8.44C0.563,3.779,4.341,0,9.002,0
	s8.44,3.779,8.44,8.44v486.681h485.556c4.661,0,8.44,3.779,8.44,8.44S507.659,512,502.998,512z"/>
<path style="fill:#3FC8F2;" d="M432.106,339.774c-2.11,0-4.219-0.787-5.853-2.359L206.958,126.402L55.267,267.8
	c-3.41,3.178-8.749,2.991-11.928-0.42c-3.178-3.41-2.991-8.749,0.42-11.928l157.538-146.848c3.279-3.057,8.377-3.016,11.606,0.092
	l219.261,210.983l39.162-36.927c3.393-3.198,8.733-3.04,11.93,0.35c3.198,3.392,3.042,8.733-0.35,11.93l-45.011,42.442
	C436.269,339.009,434.187,339.774,432.106,339.774z"/>
<path style="fill:#F77935;" d="M49.512,450.11c-2.203,0-4.404-0.857-6.058-2.565c-3.245-3.347-3.163-8.689,0.183-11.934
	l157.538-152.777c3.259-3.16,8.435-3.177,11.713-0.037l106.054,101.566l151.74-178.835c3.016-3.552,8.342-3.99,11.895-0.974
	s3.99,8.342,0.974,11.895l-157.538,185.67c-1.505,1.773-3.676,2.848-5.999,2.968c-2.311,0.11-4.592-0.724-6.273-2.334
	L207.088,300.613L55.387,447.729C53.749,449.319,51.629,450.11,49.512,450.11z"/>
</svg>