<?xml version="1.0" encoding="UTF-8" standalone="no"?>
<!-- Uploaded to: SVG Repo, www.svgrepo.com, Generator: SVG Repo Mixer Tools -->

<svg
   height="183.02583"
   width="283.39484"
   version="1.1"
   id="Layer_1"
   viewBox="0 0 181.3727 117.13653"
   xml:space="preserve"
   sodipodi:docname="line-chart-blue.svg"
   inkscape:version="1.3.2 (091e20e, 2023-11-25, custom)"
   xmlns:inkscape="http://www.inkscape.org/namespaces/inkscape"
   xmlns:sodipodi="http://sodipodi.sourceforge.net/DTD/sodipodi-0.dtd"
   xmlns="http://www.w3.org/2000/svg"
   xmlns:svg="http://www.w3.org/2000/svg"><defs
   id="defs3" /><sodipodi:namedview
   id="namedview3"
   pagecolor="#ffffff"
   bordercolor="#000000"
   borderopacity="0.25"
   inkscape:showpageshadow="2"
   inkscape:pageopacity="0.0"
   inkscape:pagecheckerboard="0"
   inkscape:deskcolor="#d1d1d1"
   inkscape:zoom="1.01625"
   inkscape:cx="461.00861"
   inkscape:cy="240.59041"
   inkscape:window-width="1920"
   inkscape:window-height="1009"
   inkscape:window-x="-8"
   inkscape:window-y="-8"
   inkscape:window-maximized="1"
   inkscape:current-layer="Layer_1" />
<path
   style="fill:#808080;stroke-width:0.284683"
   d="m 180.50877,68.368694 -7.88936,-5.15995 c -1.16333,-0.76093 -3.06031,-0.76848 -4.23675,-0.0174 -1.17715,0.75086 -1.18955,1.97599 -0.0269,2.73669 l 2.85237,1.86526 H 2.99619 C 1.34152,67.793294 2.4600297e-8,68.659464 2.4600297e-8,69.728334 2.4600297e-8,70.797204 1.34152,71.663374 2.99619,71.663374 h 168.21156 l -2.85237,1.86526 c -1.16263,0.76024 -1.15058,1.98559 0.0269,2.73623 0.58415,0.37223 1.34436,0.558 2.10527,0.558 0.77296,0 1.54557,-0.19195 2.1322,-0.57539 l 7.88936,-5.15995 c 1.15164,-0.7536 1.15164,-1.96523 -3.6e-4,-2.71884 z"
   id="path1" />
<path
   style="fill:#3fc8f2;stroke-width:0.284683"
   d="m 111.86095,107.34581 c -15.5892,0 -19.80966,-20.450126 -24.69716,-44.129056 -4.03307,-19.54118 -9.0527,-43.86115 -21.35169,-43.86115 -10.69887,0 -15.6473,16.12477 -18.92192,26.79471 -1.56045,5.08582 -2.79322,9.10254 -4.41317,11.4384 -4.90344,7.06982 -15.05713,7.71293 -19.74023,7.06548 -1.61819,-0.22375 -2.64904,-1.25236 -2.30259,-2.2972 0.34504,-1.04096 1.92886,-1.70489 3.53819,-1.48937 0.0733,0.009 2.38477,0.28803 5.1174,-0.18509 3.52544,-0.6097 6.1897,-2.18281 7.91841,-4.67584 1.34223,-1.9355 2.63522,-6.14806 4.00367,-10.60839 1.90901,-6.22081 4.07274,-13.27164 7.52661,-19.01384 4.41069,-7.33383 10.06088,-10.89848 17.27328,-10.89848 17.54604,0 22.27945,22.93653 27.29129,47.21967 2.15415,10.4352 4.38093,21.2257 7.58931,29.03586 2.19915,5.35326 5.9219,11.734446 11.16825,11.734446 6.05437,0 9.19156,-4.596226 11.02441,-8.053806 2.8878,-5.4473 4.63599,-12.95226 6.32715,-20.20991 1.7071,-7.33063 3.47265,-14.91109 6.46034,-20.59014 1.36526,-2.59645 5.52195,-10.49834 16.29096,-10.49834 1.65503,0 2.9962,0.86616 2.9962,1.93503 0,1.06887 -1.34117,1.93504 -2.9962,1.93504 -10.35171,0 -13.79141,14.76627 -16.82551,27.79426 -1.73013,7.42809 -3.51977,15.10898 -6.58291,20.88801 -1.39962,2.63855 -5.65727,10.669706 -16.69409,10.669706 z"
   id="path2" />
<path
   style="fill:#808080;stroke-width:0.284683"
   d="M 33.44025,5.653624 25.45064,0.55842396 c -1.16653,-0.74423 -3.04366,-0.74423 -4.21019,0 L 13.25084,5.653624 c -1.17715,0.75086 -1.18955,1.97599 -0.0269,2.73646 1.16298,0.76047 3.05996,0.76825 4.23675,0.0174 L 20.3492,6.565324 V 115.2015 c 0,1.06887 1.34116,1.93504 2.99619,1.93504 1.65503,0 2.99619,-0.86617 2.99619,-1.93504 V 6.565314 l 2.88815,1.84216 c 0.58415,0.37222 1.34436,0.558 2.10527,0.558 0.77296,0 1.54557,-0.19195 2.1322,-0.57539 1.16262,-0.76047 1.15058,-1.9856 -0.0269,-2.73646 z"
   id="path3" />
</svg>
