<?xml version="1.0" encoding="iso-8859-1"?>
<!-- Uploaded to: SVG Repo, www.svgrepo.com, Generator: SVG Repo Mixer Tools -->
<svg height="800px" width="800px" version="1.1" id="Layer_1" xmlns="http://www.w3.org/2000/svg" xmlns:xlink="http://www.w3.org/1999/xlink" 
	 viewBox="0 0 512 512" xml:space="preserve">
<path style="fill:#808080;" d="M509.561,314.624L487.29,292.07c-3.284-3.324-8.639-3.359-11.96-0.076
	c-3.323,3.282-3.358,8.637-0.076,11.961l8.052,8.153H8.458c-4.671,0-8.458,3.786-8.458,8.458s3.787,8.458,8.458,8.458h474.847
	l-8.052,8.153c-3.282,3.323-3.248,8.679,0.076,11.96c1.649,1.627,3.795,2.439,5.943,2.439c2.182,0,4.363-0.839,6.019-2.515
	l22.271-22.554C512.813,323.215,512.813,317.918,509.561,314.624z"/>
<path style="fill:#F77935;" d="M365.915,456.183c-3.287,0-6.278-1.905-7.667-4.887L242.684,203.134l-25.161,35.541
	c-1.748,2.469-4.682,3.82-7.695,3.533c-3.013-0.283-5.644-2.155-6.902-4.909l-41.388-90.661L74.879,320.662
	c-2.083,4.183-7.16,5.884-11.341,3.801c-4.18-2.083-5.883-7.161-3.801-11.341l94.561-189.894c1.454-2.918,4.478-4.768,7.713-4.687
	c3.26,0.055,6.198,1.979,7.551,4.945l42.646,93.417l25.088-35.436c1.741-2.461,4.664-3.814,7.664-3.536
	c3.003,0.272,5.634,2.12,6.906,4.854l113.903,244.592l48.604-108.4c1.911-4.263,6.921-6.165,11.178-4.257
	c4.262,1.91,6.169,6.916,4.257,11.178l-56.175,125.288c-1.354,3.021-4.347,4.973-7.657,4.998
	C365.955,456.183,365.934,456.183,365.915,456.183z"/>
<path style="fill:#808080;" d="M94.4,24.711L71.846,2.44c-3.294-3.253-8.591-3.253-11.885,0L37.407,24.711
	c-3.324,3.282-3.358,8.637-0.076,11.961c3.282,3.323,8.637,3.359,11.96,0.076l8.153-8.052v474.846c0,4.672,3.787,8.458,8.458,8.458
	s8.458-3.786,8.458-8.458V28.696l8.153,8.052c1.648,1.627,3.796,2.439,5.942,2.439c2.183,0,4.364-0.839,6.019-2.515
	C97.757,33.348,97.724,27.993,94.4,24.711z"/>
</svg>