<?xml version="1.0" encoding="UTF-8" standalone="no"?>
<!-- Uploaded to: SVG Repo, www.svgrepo.com, Generator: SVG Repo Mixer Tools -->

<svg
   height="800px"
   width="800px"
   version="1.1"
   id="Capa_1"
   viewBox="0 0 58 58"
   xml:space="preserve"
   sodipodi:docname="max-minutes.svg"
   inkscape:version="1.3.1 (91b66b0783, 2023-11-16)"
   xmlns:inkscape="http://www.inkscape.org/namespaces/inkscape"
   xmlns:sodipodi="http://sodipodi.sourceforge.net/DTD/sodipodi-0.dtd"
   xmlns="http://www.w3.org/2000/svg"
   xmlns:svg="http://www.w3.org/2000/svg"><defs
   id="defs14" /><sodipodi:namedview
   id="namedview14"
   pagecolor="#ffffff"
   bordercolor="#000000"
   borderopacity="0.25"
   inkscape:showpageshadow="2"
   inkscape:pageopacity="0.0"
   inkscape:pagecheckerboard="0"
   inkscape:deskcolor="#d1d1d1"
   inkscape:zoom="0.5875"
   inkscape:cx="400"
   inkscape:cy="399.14894"
   inkscape:window-width="1920"
   inkscape:window-height="1027"
   inkscape:window-x="-8"
   inkscape:window-y="-8"
   inkscape:window-maximized="1"
   inkscape:current-layer="Capa_1" />
<g
   id="g14">
	<g
   id="g12">
		<circle
   style="fill:#ECF0F1;"
   cx="29"
   cy="29"
   r="29"
   id="circle1" />
		<path
   style="fill:#545E73;"
   d="M29,4c13.785,0,25,11.215,25,25S42.785,54,29,54S4,42.785,4,29S15.215,4,29,4 M29,0    C12.984,0,0,12.984,0,29s12.984,29,29,29s29-12.984,29-29S45.016,0,29,0L29,0z"
   id="path1" />
		<g
   id="g9">
			<path
   style="fill:#8697CB;"
   d="M29,5.879c-0.552,0-1,0.447-1,1v1c0,0.553,0.448,1,1,1s1-0.447,1-1v-1     C30,6.326,29.552,5.879,29,5.879z"
   id="path2" />
			<path
   style="fill:#8697CB;"
   d="M29,48.879c-0.552,0-1,0.447-1,1v1c0,0.553,0.448,1,1,1s1-0.447,1-1v-1     C30,49.326,29.552,48.879,29,48.879z"
   id="path3" />
			<path
   style="fill:#8697CB;"
   d="M51,27.879h-1c-0.552,0-1,0.447-1,1s0.448,1,1,1h1c0.552,0,1-0.447,1-1S51.552,27.879,51,27.879z"
   id="path4" />
			<path
   style="fill:#8697CB;"
   d="M8,27.879H7c-0.552,0-1,0.447-1,1s0.448,1,1,1h1c0.552,0,1-0.447,1-1S8.552,27.879,8,27.879z"
   id="path5" />
			<path
   style="fill:#8697CB;"
   d="M43.849,12.615l-0.707,0.707c-0.391,0.391-0.391,1.023,0,1.414     c0.195,0.195,0.451,0.293,0.707,0.293s0.512-0.098,0.707-0.293l0.707-0.707c0.391-0.391,0.391-1.023,0-1.414     S44.24,12.224,43.849,12.615z"
   id="path6" />
			<path
   style="fill:#8697CB;"
   d="M13.444,43.021l-0.707,0.707c-0.391,0.391-0.391,1.023,0,1.414     c0.195,0.195,0.451,0.293,0.707,0.293s0.512-0.098,0.707-0.293l0.707-0.707c0.391-0.391,0.391-1.023,0-1.414     S13.834,42.631,13.444,43.021z"
   id="path7" />
			<path
   style="fill:#8697CB;"
   d="M44.556,43.021c-0.391-0.391-1.023-0.391-1.414,0s-0.391,1.023,0,1.414l0.707,0.707     c0.195,0.195,0.451,0.293,0.707,0.293s0.512-0.098,0.707-0.293c0.391-0.391,0.391-1.023,0-1.414L44.556,43.021z"
   id="path8" />
			<path
   style="fill:#8697CB;"
   d="M14.151,12.615c-0.391-0.391-1.023-0.391-1.414,0s-0.391,1.023,0,1.414l0.707,0.707     c0.195,0.195,0.451,0.293,0.707,0.293s0.512-0.098,0.707-0.293c0.391-0.391,0.391-1.023,0-1.414L14.151,12.615z"
   id="path9" />
		</g>
		<path
   style="fill:#545E73;"
   d="M26,29.879h-8c-0.553,0-1-0.447-1-1s0.447-1,1-1h8c0.553,0,1,0.447,1,1S26.553,29.879,26,29.879z"
   id="path10" />
		<path
   style="fill:#545E73;"
   d="M29,26.879c-0.553,0-1-0.447-1-1v-11c0-0.553,0.447-1,1-1s1,0.447,1,1v11    C30,26.432,29.553,26.879,29,26.879z"
   id="path11" />
		<path
   style="fill:#545E73;"
   d="M29,32.879c-2.206,0-4-1.794-4-4s1.794-4,4-4s4,1.794,4,4S31.206,32.879,29,32.879z M29,26.879    c-1.103,0-2,0.897-2,2s0.897,2,2,2s2-0.897,2-2S30.103,26.879,29,26.879z"
   id="path12" />
	</g>
	
</g>
<g
   id="g2"
   transform="matrix(0.0743142,0,0,0.07259192,19.254528,22.102916)">
	<path
   d="m 303.993,286.912 c -2.447,-8.132 -4.884,-18.312 -6.919,-26.449 h -0.411 c -2.036,8.142 -4.071,18.523 -6.308,26.449 l -8.142,29.094 h 30.322 z"
   id="path1-3" />
	<path
   id="path2-9"
   d="m 75.782203,19.809203 c -0.0042,0.05052 -0.01225,0.09999 -0.01614,0.15061 0.08716,0.08086 0.205009,0.214418 0.290462,0.291806 0.0074,-0.01476 0.01539,-0.02962 0.02286,-0.04438 -0.08564,-0.145446 -0.205592,-0.258052 -0.297185,-0.39804 z m -0.05513,0.537892 c -0.01753,0.299054 -0.08357,0.584012 -0.08875,0.886176 0.120242,-0.257083 0.181297,-0.512777 0.309288,-0.77053 -0.08519,-0.04354 -0.137369,-0.07312 -0.220536,-0.115646 z M 62.3766,197.01356 c -17.048762,0 -30.872289,13.81922 -30.872289,30.87094 v 160.54182 c 0,17.04372 13.823527,30.87632 30.872289,30.87632 h 10.148669 c 0.274479,-0.37498 0.478937,-0.63806 0.766496,-1.03544 0.343027,-0.47403 4.532036,-0.72958 5.53356,-0.80818 1.761038,-0.10403 3.522433,-0.16138 5.284785,-0.17751 1.762338,-0.0161 3.52517,0.009 5.287474,0.0686 3.858666,0.13066 7.103151,0.84534 9.75332,1.95255 H 452.6815 c 2.36552,-1.23009 7.3461,-1.36185 8.85639,-1.4792 0.72647,-0.0272 1.45108,-0.032 2.17308,-0.0188 2.16599,0.0395 4.31594,0.23966 6.47891,0.47066 1.91647,0.20468 3.65693,0.56078 5.24578,1.02737 h 12.99143 c 17.04372,0 30.87094,-13.82822 30.87094,-30.87094 V 227.89257 c -8.2e-4,-14.07355 -9.47,-25.80796 -22.33326,-29.53159 -2.51716,0.69745 -5.13876,1.10556 -7.73488,1.48323 -11.39976,1.12146 -22.90152,0.97047 -34.32286,0.29046 -8.08946,-0.74243 -16.13261,-1.84504 -24.15133,-3.11573 H 119.55986 c -2.02502,0.69375 -3.31092,1.12152 -6.30409,1.56929 -5.22245,0.78138 -10.51896,0.2764 -15.766951,0.2555 -8.176124,-0.23024 -16.350228,-0.5774 -24.499618,-1.30304 -2.186062,-0.19214 -4.374746,-0.35473 -6.562278,-0.52713 z m 17.642844,40.26387 h 41.297976 l 13.42443,45.76516 c 4.27086,15.86786 8.54253,32.965 11.58753,49.03286 h 0.61319 c 3.87,-15.87286 8.53915,-33.97295 13.02101,-49.22381 l 14.64007,-45.57017 h 40.48844 l 7.52242,137.1126 h -30.30885 l -2.03592,-52.48074 c -0.612,-16.47472 -1.22639,-36.41887 -1.22639,-56.35759 h -0.61185 c -4.271,17.48572 -9.96689,37.01487 -15.24789,53.09259 l -16.68808,53.49466 h -24.20244 l -14.63872,-53.08317 c -4.48186,-16.08886 -9.15267,-35.61136 -12.41453,-53.50408 h -0.39939 c -0.82,18.51572 -1.43572,39.6726 -2.44472,56.75832 l -2.436644,52.08136 h -28.68307 v -0.008 z m 197.730296,0 h 40.68209 l 42.51361,137.10992 H 327.5854 L 316.997,339.18772 h -39.24726 l -9.76945,35.19963 h -32.14441 z m 87.85787,0 h 35.60574 l 12.01918,25.02675 c 4.061,8.335 7.10352,15.03713 10.36652,22.77299 h 0.39535 c 3.265,-8.74286 5.90104,-14.84999 9.36604,-22.77299 L 444.952,237.27743 h 35.39596 l -38.65424,66.92179 40.70092,70.18813 H 446.57643 L 434.1619,349.56634 c -5.072,-9.56186 -8.33208,-16.68516 -12.20208,-24.62602 h -0.40072 c -2.848,7.94086 -6.30678,15.06016 -10.57764,24.62602 l -11.3912,24.82101 H 364.1943 l 39.66682,-69.3813 z m 97.23198,181.70382 c -0.0321,-0.0105 0.0535,0.0405 0.0807,0.0605 0.082,0.0194 0.16409,0.0385 0.24609,0.0578 -0.12394,-0.0413 -0.19758,-0.076 -0.32677,-0.11834 z" />
</g><path
   id="path3-1"
   style="fill:#000000;stroke-width:0.0860752"
   d="m 24.550948,36.43272 -0.446598,0.01913 c -0.7012,0.02996 -0.87053,0.06874 -1.282933,0.293729 -0.575769,0.314096 -0.989535,0.867867 -1.125139,1.505929 -0.06597,0.310411 -0.08826,2.334304 -0.07135,6.48593 0.02409,5.914256 0.02823,6.042262 0.20646,6.41838 0.415834,0.877545 1.101201,1.281652 2.276062,1.341933 l 0.54813,0.02821 c 0.01649,-0.02205 0.02846,-0.03713 0.04557,-0.06023 0.02549,-0.03441 0.336793,-0.05297 0.411221,-0.05867 0.130872,-0.0076 0.261773,-0.01171 0.392735,-0.01288 0.130968,-0.0012 0.261969,6.44e-4 0.392935,0.005 0.25556,0.0084 0.47438,0.05095 0.658554,0.116847 h 13.165 13.237753 c 0.189618,-0.06534 0.493719,-0.07488 0.593998,-0.08249 0.05399,-0.002 0.107836,-0.0023 0.161491,-0.0014 0.160964,0.0029 0.320736,0.0174 0.481475,0.03417 0.136307,0.01422 0.259958,0.03897 0.373947,0.07067 l 0.763684,-0.03924 c 1.174862,-0.06028 1.860229,-0.464389 2.276061,-1.341933 0.178233,-0.376118 0.182371,-0.504124 0.206461,-6.41838 0.0169,-4.151626 -0.0054,-6.175519 -0.07135,-6.48593 -0.135598,-0.638063 -0.54937,-1.191833 -1.12514,-1.505929 -0.205015,-0.111845 -0.350125,-0.177344 -0.530241,-0.218954 -0.157166,0.03634 -0.318471,0.06062 -0.478476,0.08336 -0.847165,0.08141 -1.701908,0.07045 -2.550677,0.02109 -0.528746,-0.0474 -1.054791,-0.1153 -1.579332,-0.193573 H 39.720095 28.038991 c -0.09977,0.0313 -0.194799,0.056 -0.367952,0.08131 -0.388098,0.05672 -0.781703,0.02007 -1.171708,0.01854 -0.6076,-0.01671 -1.215053,-0.04191 -1.820669,-0.09459 -0.04255,-0.0037 -0.08516,-0.0065 -0.127714,-0.01005 z m 0.636969,2.89345 1.572738,0.02314 1.572737,0.02314 0.513553,1.701454 c 0.424251,1.405568 0.750468,2.62612 1.261947,4.721513 0.03774,0.1546 0.144551,-0.135854 0.391135,-1.063433 0.186572,-0.701835 0.639067,-2.20444 1.00552,-3.339069 l 0.666351,-2.062929 h 1.553549 c 0.854477,0 1.553894,0.0096 1.55415,0.02128 2.55e-4,0.0117 0.117804,2.069353 0.261223,4.57255 0.143421,2.503198 0.260696,4.73316 0.260724,4.955402 l 1.03e-4,0.404133 H 34.67111 c -1.102569,0 -1.131496,-0.0048 -1.170109,-0.191426 -0.04557,-0.220328 -0.225483,-5.38622 -0.231844,-6.656857 l -0.0042,-0.850728 -0.336773,1.191019 c -0.18519,0.655037 -0.693547,2.301207 -1.129736,3.658079 -0.436189,1.356879 -0.813906,2.534044 -0.839333,2.615926 -0.04028,0.129707 -0.166042,0.148875 -0.97664,0.148475 l -0.930271,-5e-4 -0.558023,-1.977417 c -0.694493,-2.461183 -1.312517,-4.889085 -1.313611,-5.160591 -4.61e-4,-0.113074 -0.02451,-0.182423 -0.05347,-0.154137 -0.04454,0.04351 -0.370549,6.103712 -0.379742,7.059135 l -0.0031,0.31901 h -1.130536 -1.130436 l 0.04237,-0.361572 c 0.02332,-0.198847 0.160798,-2.275676 0.305494,-4.615111 0.144687,-2.339434 0.284136,-4.417164 0.30989,-4.617064 z m 14.653197,1e-4 1.571738,0.02304 1.571738,0.02313 1.543556,4.849098 c 0.848896,2.66696 1.544908,4.898007 1.546754,4.957745 0.0026,0.08434 -0.281142,0.103305 -1.269741,0.08502 l -1.27324,-0.02353 -0.157294,-0.510436 c -0.08654,-0.280727 -0.260631,-0.845352 -0.386838,-1.254752 l -0.229444,-0.744423 h -1.410347 -1.410347 l -0.353162,1.254859 -0.353261,1.254762 -1.246558,0.02372 c -1.158695,0.02199 -1.24368,0.01292 -1.205185,-0.127682 0.02277,-0.0832 0.720991,-2.324597 1.551551,-4.980881 z m 7.929241,0.0037 h 1.362279 l 0.672545,1.382347 c 0.369871,0.760321 0.732798,1.511551 0.806556,1.669339 l 0.134109,0.286895 0.403427,-0.924916 c 0.221893,-0.508709 0.562638,-1.259939 0.757188,-1.669339 L 52.26022,39.32997 h 1.350587 c 0.742829,0 1.350688,0.02064 1.350688,0.04588 0,0.02524 -0.585813,1.03336 -1.301721,2.240298 -0.715908,1.20693 -1.345557,2.288684 -1.399254,2.403805 -0.08856,0.189876 0.02903,0.422253 1.267044,2.502398 0.750592,1.261183 1.420558,2.398327 1.488694,2.526998 l 0.123816,0.233986 h -1.37557 -1.37567 L 51.52142,47.581881 c -0.772379,-1.515018 -1.001523,-1.886235 -1.001523,-1.622288 0,0.04354 -0.339046,0.809232 -0.753392,1.701454 l -0.75339,1.622288 H 47.625653 46.23829 l 0.171384,-0.27645 c 0.614009,-0.990464 2.745558,-4.70107 2.744346,-4.777349 -8.47e-4,-0.05119 -0.597192,-1.118887 -1.325205,-2.372666 -0.728013,-1.253775 -1.345555,-2.335309 -1.372272,-2.403317 -0.04121,-0.104903 0.158036,-0.123583 1.313812,-0.123583 z m 5.879726,13.187594 c -0.0024,-7.58e-4 0.004,0.003 0.006,0.0044 0.0061,0.0014 0.01219,0.0028 0.01828,0.0042 -0.0092,-0.003 -0.01468,-0.0055 -0.02428,-0.0086 z" /><path
   style="fill:#ffffff;stroke-width:1.70213"
   d="m 340.40613,671.91489 c -0.0279,-9.18296 6.78249,-115.96433 7.81631,-122.55319 l 0.86799,-5.53191 h 20.11804 20.11805 l 8.95629,30.21276 c 4.92596,16.61702 10.58282,37.67805 12.57078,46.80228 1.98797,9.12422 4.16757,16.59231 4.84354,16.59574 1.16073,0.006 2.92443,-5.55658 9.03794,-28.5044 1.43407,-5.38298 6.54943,-22.23404 11.36745,-37.44681 l 8.76005,-27.65957 h 20.12191 c 14.90758,0 20.14872,0.55135 20.22538,2.12766 0.0569,1.17021 1.78032,31.42559 3.82979,67.23418 l 3.72631,65.10653 -14.70637,-1.4e-4 -14.70637,-1.5e-4 -1.0613,-35.31915 c -1.29269,-43.01956 -2.85373,-74.04812 -3.6836,-73.21825 -0.33919,0.33919 -3.34525,10.09643 -6.68015,21.68276 -3.33489,11.58633 -10.70016,35.48551 -16.36727,53.10928 l -10.30382,32.04323 h -6.97578 c -3.83668,0 -9.36613,-0.86436 -12.28768,-1.92081 -6.04665,-2.18649 -7.04828,-5.15119 -24.07905,-71.27067 -4.94327,-19.19149 -9.07184,-34.51064 -9.17461,-34.04256 -0.35837,1.63224 -4.9295,94.52471 -5.00464,101.70213 l -0.0758,7.23404 H 354.0425 340.42548 Z"
   id="path13"
   transform="scale(0.0725)" /><path
   style="fill:#ffffff;stroke-width:1.70213"
   d="m 509.39778,676.17021 c 0.40991,-1.17021 9.85672,-31.41555 20.9929,-67.21187 l 20.24762,-65.08422 20.44813,-0.0222 20.44814,-0.0222 6.93821,22.01171 6.9382,22.01171 -3.93497,0.98762 c -6.18339,1.55193 -10.83771,7.68986 -10.83771,14.29234 0,4.85623 1.60464,7.50015 9.10268,14.99819 6.26641,6.26641 10.46191,9.10268 13.46495,9.10268 3.97568,0 4.81447,1.34836 9.46523,15.21539 l 5.10298,15.21539 -12.99181,10.30097 -12.99181,10.30098 -5.09978,-17.05378 -5.09978,-17.05378 -21.18817,0.47358 c -20.93837,0.46801 -21.20367,0.52376 -22.50357,4.72891 -0.72348,2.34043 -2.92495,9.80851 -4.89216,16.59575 l -3.57675,12.34042 H 524.0414 c -11.57387,0 -15.20415,-0.52746 -14.64362,-2.12766 z m 76.79147,-57.87234 c -0.7008,-2.10638 -4.4625,-14.75263 -8.35932,-28.10277 -3.89682,-13.35014 -7.5209,-24.70876 -8.05351,-25.24137 -0.53261,-0.53261 -1.85565,3.30554 -2.94008,8.52924 -1.08444,5.22369 -4.21518,17.34665 -6.95721,26.93991 -2.74203,9.59326 -4.98551,18.40135 -4.98551,19.57353 0,1.55841 4.37711,2.13125 16.28491,2.13125 16.13085,0 16.27286,-0.0362 15.01072,-3.82979 z"
   id="path14"
   transform="scale(0.0725)" /><path
   style="fill:#ffffff;stroke-width:1.70213"
   d="m 610.21277,674.41659 c 2.80851,-2.07539 7.96761,-6.34298 11.46466,-9.48353 l 6.35829,-5.7101 1.50997,4.00554 c 0.83048,2.20305 2.05138,6.4949 2.71312,9.53746 l 1.20317,5.53191 -14.1778,-0.0539 -14.1778,-0.0539 z"
   id="path18"
   transform="scale(0.0725)" /><path
   style="fill:#ffffff;stroke-width:1.70213"
   d=""
   id="path19"
   transform="scale(0.0725)" /><path
   style="fill:#ffffff;stroke-width:1.70213"
   d="m 641.70213,677.51259 c 0,-0.43191 8.84813,-15.86463 19.66252,-34.29493 12.79483,-21.80545 19.08189,-34.09027 18.00015,-35.17201 -1.08174,-1.08174 1.05554,-5.74972 6.11913,-13.36465 4.27981,-6.43625 8.31212,-11.70228 8.96067,-11.70228 0.64855,0 2.16057,2.10639 3.36006,4.68085 l 2.18088,4.68086 1.82121,-4.25532 c 1.00166,-2.34043 5.86333,-13.06383 10.8037,-23.82979 l 8.98248,-19.57447 17.16818,-0.4861 c 16.03732,-0.45407 17.05972,-0.2859 15.52169,2.5532 -0.90556,1.6716 -9.37263,16.04042 -18.8157,31.9307 -9.44308,15.89027 -17.1653,29.6775 -17.16051,30.63829 0.005,0.96079 1.89579,4.81072 4.2022,8.5554 2.30641,3.74468 4.21738,7.79988 4.2466,9.01155 0.0292,1.21166 -3.74689,7.22273 -8.39134,13.35791 l -8.44447,11.15488 -5.53788,-11.23026 c -5.00197,-10.14345 -8.21149,-13.91469 -8.21149,-9.64862 0,0.8699 -4.73829,11.97628 -10.52954,24.68085 l -10.52954,23.09922 h -16.7045 c -9.18748,0 -16.7045,-0.35338 -16.7045,-0.78528 z"
   id="path20"
   transform="scale(0.0725)" /><path
   style="fill:#ffffff;stroke-width:1.70213"
   d="m 600.6079,617.26444 c -9.82829,-9.82829 -10.94974,-16.43904 -3.97238,-23.4164 6.89492,-6.89492 9.02653,-4.90213 15.22885,14.23707 l 5.65389,17.4468 h -4.32144 c -2.89928,0 -7.04222,-2.72078 -12.58892,-8.26747 z"
   id="path21"
   transform="scale(0.0725)" /></svg>
