<?xml version="1.0" encoding="UTF-8" standalone="no"?>
<!-- Uploaded to: SVG Repo, www.svgrepo.com, Generator: SVG Repo Mixer Tools -->

<svg
   height="68.401451"
   width="69.392815"
   version="1.1"
   id="sunset"
   viewBox="0 0 87.608428 72.376717"
   enable-background="new 0 0 1010 846.4933"
   xml:space="preserve"
   sodipodi:docname="morning.svg"
   inkscape:version="1.4.3 (0d15f75, 2025-12-25)"
   xmlns:inkscape="http://www.inkscape.org/namespaces/inkscape"
   xmlns:sodipodi="http://sodipodi.sourceforge.net/DTD/sodipodi-0.dtd"
   xmlns="http://www.w3.org/2000/svg"
   xmlns:svg="http://www.w3.org/2000/svg"><defs
   id="defs12" /><sodipodi:namedview
   id="namedview12"
   pagecolor="#ffffff"
   bordercolor="#000000"
   borderopacity="0.25"
   inkscape:showpageshadow="2"
   inkscape:pageopacity="0.0"
   inkscape:pagecheckerboard="0"
   inkscape:deskcolor="#d1d1d1"
   inkscape:zoom="1.00875"
   inkscape:cx="381.66047"
   inkscape:cy="-115.48947"
   inkscape:window-width="1920"
   inkscape:window-height="1009"
   inkscape:window-x="-8"
   inkscape:window-y="-8"
   inkscape:window-maximized="1"
   inkscape:current-layer="sunset" />
<g
   id="g12"
   transform="matrix(0.07806691,0,0,0.08036668,3.7546459,-3.7994452e-6)">
	<g
   id="g1">
		<path
   fill="#37474f"
   d="M 995.5197,633.9287 H 14.4807 C 6.4851,633.9287 0,627.4579 0,619.4484 0,611.4667 6.4851,604.9681 14.4807,604.9681 h 981.039 c 8.0095,0 14.4803,6.4986 14.4803,14.4803 0,8.0095 -6.4708,14.4803 -14.4803,14.4803 z"
   id="path1" />
	</g>
	<g
   id="g2">
		<path
   fill="#37474f"
   d="M 815.6505,748.3925 H 194.3352 c -7.996,0 -14.4811,-6.4847 -14.4811,-14.4812 0,-7.9957 6.4851,-14.4803 14.4811,-14.4803 h 621.3154 c 8.0103,0 14.4951,6.4847 14.4951,14.4803 -1e-4,7.9964 -6.4849,14.4812 -14.4952,14.4812 z"
   id="path2" />
	</g>
	<g
   id="g3">
		<path
   fill="#37474f"
   d="M 619.4627,846.4933 H 406.8989 c -7.9956,0 -14.4807,-6.4855 -14.4807,-14.4803 0,-7.9965 6.4851,-14.4813 14.4807,-14.4813 h 212.5638 c 7.9964,0 14.4803,6.4847 14.4803,14.4813 0,7.9948 -6.4839,14.4803 -14.4803,14.4803 z"
   id="path3" />
	</g>
	<g
   id="g11">
		<path
   fill="#ffca72"
   d="m 181.5359,547.0164 c 0,-179.4907 145.4768,-324.9743 324.9601,-324.9743 179.4697,0 324.9607,145.4836 324.9607,324.9743"
   id="path4" />
		<g
   id="g5">
			<path
   fill="#37474f"
   d="m 831.4567,561.4976 c -8.0103,0 -14.4811,-6.4995 -14.4811,-14.4812 0,-171.2098 -139.2764,-310.494 -310.4796,-310.494 -171.2024,0 -310.4792,139.2842 -310.4792,310.494 0,7.9817 -6.4851,14.4812 -14.4808,14.4812 -7.9956,0 -14.4803,-6.4995 -14.4803,-14.4812 0,-187.1797 152.2749,-339.4551 339.4404,-339.4551 187.1658,0 339.442,152.2753 339.442,339.4551 -10e-5,7.9816 -6.4857,14.4812 -14.4814,14.4812 z"
   id="path5" />
		</g>
		<line
   fill="#ffca72"
   x1="14.4807"
   y1="537.69482"
   x2="112.5816"
   y2="537.69482"
   id="line5" />
		<g
   id="g6">
			<path
   fill="#37474f"
   d="M 112.5816,552.176 H 14.4807 C 6.4851,552.176 0,545.7051 0,537.6948 c 0,-7.981 6.4851,-14.4804 14.4807,-14.4804 h 98.1009 c 8.0103,0 14.4951,6.4995 14.4951,14.4804 0,8.0103 -6.4848,14.4812 -14.4951,14.4812 z"
   id="path6" />
		</g>
		<line
   fill="#ffca72"
   x1="153.1449"
   y1="133.93221"
   x2="246.2572"
   y2="227.05881"
   id="line6" />
		<g
   id="g7">
			<path
   fill="#37474f"
   d="m 246.2572,241.5396 c -3.7056,0 -7.3969,-1.411 -10.2334,-4.2401 l -93.127,-93.127 c -5.6581,-5.6581 -5.6581,-14.8228 0,-20.4809 5.6585,-5.6585 14.8233,-5.6585 20.4814,0 l 93.127,93.1266 c 5.6581,5.6585 5.6581,14.8229 0,20.4814 -2.8367,2.8289 -6.5419,4.24 -10.248,4.24 z"
   id="path7" />
		</g>
		<line
   fill="#ffca72"
   x1="995.51971"
   y1="537.69482"
   x2="913.76611"
   y2="537.69482"
   id="line7" />
		<g
   id="g8">
			<path
   fill="#37474f"
   d="m 995.5197,552.176 h -81.7536 c -8.0104,0 -14.4804,-6.4708 -14.4804,-14.4811 0,-7.981 6.47,-14.4804 14.4804,-14.4804 h 81.7536 c 8.0095,0 14.4803,6.4995 14.4803,14.4804 0,8.0102 -6.4708,14.4811 -14.4803,14.4811 z"
   id="path8" />
		</g>
		<line
   fill="#ffca72"
   x1="859.83392"
   y1="133.93221"
   x2="766.70679"
   y2="227.05881"
   id="line8" />
		<g
   id="g9">
			<path
   fill="#37474f"
   d="m 766.7068,241.5396 c -3.7061,0 -7.4113,-1.411 -10.2333,-4.2401 -5.6581,-5.6584 -5.6581,-14.8228 0,-20.4814 l 93.127,-93.1266 c 5.6581,-5.6585 14.8224,-5.6585 20.4805,0 5.6589,5.6581 5.6589,14.8228 0,20.4809 l -93.127,93.127 c -2.835,2.8291 -6.5411,4.2402 -10.2472,4.2402 z"
   id="path9" />
		</g>
		<line
   fill="#ffca72"
   x1="504.99979"
   y1="14.4803"
   x2="504.99979"
   y2="128.92931"
   id="line9" />
		<g
   id="g10">
			<path
   fill="#37474f"
   d="m 504.9998,143.4101 c -7.9956,0 -14.4807,-6.4778 -14.4807,-14.4808 V 14.4803 C 490.5191,6.4847 497.0042,0 504.9998,0 c 7.9964,0 14.4803,6.4847 14.4803,14.4803 v 114.449 c 0,8.003 -6.4839,14.4808 -14.4803,14.4808 z"
   id="path10" />
		</g>
	</g>
</g>
</svg>
