<?xml version="1.0" encoding="iso-8859-1"?>
<!-- Generator: Adobe Illustrator 18.0.0, SVG Export Plug-In . SVG Version: 6.00 Build 0)  -->
<!DOCTYPE svg PUBLIC "-//W3C//DTD SVG 1.1//EN" "http://www.w3.org/Graphics/SVG/1.1/DTD/svg11.dtd">
<svg version="1.1" id="Capa_1" xmlns="http://www.w3.org/2000/svg" xmlns:xlink="http://www.w3.org/1999/xlink" x="0px" y="0px"
	 viewBox="0 0 131.413 131.413" style="enable-background:new 0 0 131.413 131.413;" xml:space="preserve">
<g>
	<circle style="fill:#00AAD5;" cx="65.707" cy="65.707" r="65.706"/>
	<g>
		<g>
			<path style="fill:#E6A905;" d="M74.615,37.376c-9.503,0-17.207,7.703-17.207,17.208c0,9.503,7.704,17.206,17.207,17.206
				c0.024,0,0.048-0.002,0.072-0.002v-34.41C74.663,37.378,74.639,37.376,74.615,37.376z"/>
			<path style="fill:#F8BB17;" d="M91.822,54.584c0-9.479-7.664-17.166-17.135-17.206v34.41
				C84.158,71.749,91.822,64.063,91.822,54.584z"/>
			<g>
				<g>
					<path style="fill:#E6A905;" d="M63.086,36.273c-0.468,0-0.924-0.242-1.176-0.679l-5.005-8.669
						c-0.374-0.648-0.152-1.478,0.496-1.852c0.647-0.375,1.478-0.152,1.853,0.496l5.005,8.67c0.374,0.648,0.152,1.478-0.497,1.853
						C63.55,36.216,63.316,36.273,63.086,36.273z"/>
				</g>
				<g>
					<path style="fill:#E6A905;" d="M53.946,45.88c-0.208,0-0.419-0.046-0.615-0.147l-8.92-4.545
						c-0.667-0.341-0.933-1.157-0.591-1.824c0.338-0.667,1.154-0.933,1.821-0.593l8.921,4.545c0.667,0.34,0.934,1.156,0.593,1.824
						C54.916,45.611,54.439,45.88,53.946,45.88z"/>
				</g>
				<g>
					<path style="fill:#E6A905;" d="M41.556,59.962c-0.685,0-1.273-0.517-1.347-1.214c-0.077-0.745,0.462-1.412,1.207-1.49
						l9.956-1.047c0.744-0.079,1.412,0.463,1.491,1.206c0.077,0.745-0.463,1.412-1.208,1.491l-9.957,1.046
						C41.652,59.96,41.604,59.962,41.556,59.962z"/>
				</g>
				<g>
					<path style="fill:#E6A905;" d="M48.794,77.472c-0.395,0-0.787-0.171-1.055-0.503c-0.471-0.581-0.381-1.436,0.201-1.906
						l7.779-6.301c0.583-0.47,1.437-0.381,1.906,0.201c0.472,0.581,0.383,1.436-0.2,1.905l-7.778,6.302
						C49.396,77.373,49.094,77.472,48.794,77.472z"/>
				</g>
				<g>
					<path style="fill:#E6A905;" d="M64.4,88.218c-0.141,0-0.281-0.023-0.42-0.067c-0.713-0.231-1.103-0.995-0.87-1.708l3.093-9.521
						c0.231-0.713,0.994-1.103,1.709-0.871c0.712,0.23,1.102,0.997,0.87,1.709l-3.095,9.521C65.501,87.852,64.97,88.218,64.4,88.218
						z"/>
				</g>
				<g>
					<path style="fill:#F8BB17;" d="M83.336,88.729c-0.598,0-1.146-0.399-1.309-1.005l-2.591-9.672
						c-0.194-0.723,0.235-1.467,0.959-1.66c0.724-0.194,1.467,0.236,1.659,0.959l2.594,9.671c0.191,0.723-0.236,1.467-0.961,1.66
						C83.572,88.714,83.453,88.729,83.336,88.729z"/>
				</g>
				<g>
					<path style="fill:#F8BB17;" d="M99.5,78.843c-0.323,0-0.648-0.115-0.906-0.348l-7.441-6.699
						c-0.556-0.501-0.601-1.358-0.101-1.914c0.502-0.558,1.359-0.604,1.915-0.102l7.44,6.699c0.557,0.501,0.602,1.358,0.101,1.914
						C100.24,78.691,99.871,78.843,99.5,78.843z"/>
				</g>
				<g>
					<path style="fill:#F8BB17;" d="M107.673,61.75c-0.07,0-0.142-0.006-0.215-0.018l-9.888-1.566
						c-0.74-0.117-1.243-0.811-1.126-1.55c0.116-0.741,0.809-1.245,1.551-1.129l9.888,1.567c0.739,0.116,1.244,0.812,1.127,1.551
						C108.905,61.272,108.328,61.75,107.673,61.75z"/>
				</g>
				<g>
					<path style="fill:#F8BB17;" d="M96.069,47.035c-0.519,0-1.015-0.3-1.239-0.805c-0.305-0.685,0.002-1.485,0.687-1.79
						l9.146-4.071c0.685-0.305,1.486,0.003,1.79,0.686c0.304,0.685-0.004,1.485-0.687,1.79l-9.146,4.071
						C96.442,46.998,96.253,47.035,96.069,47.035z"/>
				</g>
				<g>
					<path style="fill:#F8BB17;" d="M87.469,36.941c-0.254,0-0.51-0.07-0.737-0.22c-0.629-0.406-0.808-1.247-0.4-1.874l5.453-8.396
						c0.408-0.628,1.247-0.807,1.876-0.398c0.628,0.408,0.807,1.247,0.397,1.876l-5.452,8.396
						C88.347,36.726,87.912,36.941,87.469,36.941z"/>
				</g>
				<g>
					<path style="fill:#E6A905;" d="M73.405,21.794v10.011c0,0.725,0.568,1.315,1.282,1.353V20.441
						C73.973,20.48,73.405,21.069,73.405,21.794z"/>
					<path style="fill:#F8BB17;" d="M74.761,20.438c-0.024,0-0.05,0.002-0.074,0.003v12.716c0.024,0.002,0.05,0.004,0.074,0.004
						c0.748,0,1.354-0.608,1.354-1.357V21.794C76.116,21.045,75.509,20.438,74.761,20.438z"/>
				</g>
			</g>
		</g>
		<g>
			<path style="fill:#FFFFFF;" d="M96.056,73.41c0-5.861-4.751-10.612-10.611-10.612c-1.041,0-2.042,0.152-2.994,0.432
				c0.006-0.143,0.01-0.287,0.01-0.432c0-4.999-4.054-9.055-9.052-9.055c-1.668,0-3.229,0.453-4.569,1.238
				c-1.489-2.788-4.188-4.833-7.394-5.436v48.57c1.467-0.662,2.726-1.704,3.651-3c1.644,2.298,4.329,3.797,7.369,3.797
				c3.116,0,5.863-1.574,7.494-3.971c1.224,0.508,2.563,0.795,3.971,0.809c5.859,0.046,10.649-4.664,10.697-10.525
				c0.016-1.76-0.404-3.423-1.15-4.89C95.083,78.479,96.056,76.058,96.056,73.41z"/>
			<path style="fill:#EDEDED;" d="M59.474,49.361c-4.754,0-8.776,3.126-10.127,7.433c-1.771-1.329-3.974-2.117-6.36-2.117
				c-5.86,0-10.61,4.751-10.61,10.611c0,0.998,0.141,1.966,0.399,2.882c-1.987,0.695-3.704,1.969-4.952,3.616
				c-1.686,1.845-2.715,4.299-2.715,6.995c0,5.418,4.154,9.863,9.451,10.329c0.706,4.295,4.433,7.573,8.93,7.573
				c2.434,0,4.642-0.962,6.268-2.524c1.532,2.83,4.526,4.753,7.969,4.753c1.326,0,2.585-0.285,3.719-0.797v-48.57
				C60.806,49.426,60.148,49.361,59.474,49.361z"/>
		</g>
	</g>
</g>
<g>
</g>
<g>
</g>
<g>
</g>
<g>
</g>
<g>
</g>
<g>
</g>
<g>
</g>
<g>
</g>
<g>
</g>
<g>
</g>
<g>
</g>
<g>
</g>
<g>
</g>
<g>
</g>
<g>
</g>
</svg>
