<?xml version="1.0" encoding="UTF-8" standalone="no"?>
<!-- (c) ammap.com | SVG weather icons -->

<svg
   version="1.1"
   width="64"
   height="64"
   viewbox="0 0 64 64"
   id="svg3546"
   sodipodi:docname="mostly-sunny.svg"
   inkscape:version="1.2 (dc2aedaf03, 2022-05-15)"
   xmlns:inkscape="http://www.inkscape.org/namespaces/inkscape"
   xmlns:sodipodi="http://sodipodi.sourceforge.net/DTD/sodipodi-0.dtd"
   xmlns="http://www.w3.org/2000/svg"
   xmlns:svg="http://www.w3.org/2000/svg">
  <sodipodi:namedview
     id="namedview3548"
     pagecolor="#ffffff"
     bordercolor="#000000"
     borderopacity="0.25"
     inkscape:showpageshadow="2"
     inkscape:pageopacity="0.0"
     inkscape:pagecheckerboard="0"
     inkscape:deskcolor="#d1d1d1"
     showgrid="false"
     inkscape:zoom="13.234375"
     inkscape:cx="30.186541"
     inkscape:cy="32.113341"
     inkscape:window-width="1920"
     inkscape:window-height="1027"
     inkscape:window-x="-8"
     inkscape:window-y="-8"
     inkscape:window-maximized="1"
     inkscape:current-layer="svg3546" />
  <defs
     id="defs3499">
    <filter
       id="blur"
       width="1.4030227"
       height="1.6944444"
       x="-0.20654912"
       y="-0.28472222">
      <feGaussianBlur
         in="SourceAlpha"
         stdDeviation="3"
         id="feGaussianBlur3482" />
      <feOffset
         dx="0"
         dy="4"
         result="offsetblur"
         id="feOffset3484" />
      <feComponentTransfer
         id="feComponentTransfer3488">
        <feFuncA
           type="linear"
           slope="0.05"
           id="feFuncA3486" />
      </feComponentTransfer>
      <feMerge
         id="feMerge3494">
        <feMergeNode
           id="feMergeNode3490" />
        <feMergeNode
           in="SourceGraphic"
           id="feMergeNode3492" />
      </feMerge>
    </filter>
    <style
       type="text/css"
       id="style3497"><![CDATA[
/*
** CLOUDS
*/
@keyframes am-weather-cloud-2 {
  0% {
    -webkit-transform: translate(0px,0px);
       -moz-transform: translate(0px,0px);
        -ms-transform: translate(0px,0px);
            transform: translate(0px,0px);
  }

  50% {
    -webkit-transform: translate(2px,0px);
       -moz-transform: translate(2px,0px);
        -ms-transform: translate(2px,0px);
            transform: translate(2px,0px);
  }

  100% {
    -webkit-transform: translate(0px,0px);
       -moz-transform: translate(0px,0px);
        -ms-transform: translate(0px,0px);
            transform: translate(0px,0px);
  }
}

.am-weather-cloud-2 {
  -webkit-animation-name: am-weather-cloud-2;
     -moz-animation-name: am-weather-cloud-2;
          animation-name: am-weather-cloud-2;
  -webkit-animation-duration: 3s;
     -moz-animation-duration: 3s;
          animation-duration: 3s;
  -webkit-animation-timing-function: linear;
     -moz-animation-timing-function: linear;
          animation-timing-function: linear;
  -webkit-animation-iteration-count: infinite;
     -moz-animation-iteration-count: infinite;
          animation-iteration-count: infinite;
}

/*
** SUN
*/
@keyframes am-weather-sun {
  0% {
    -webkit-transform: rotate(0deg);
       -moz-transform: rotate(0deg);
        -ms-transform: rotate(0deg);
            transform: rotate(0deg);
  }

  100% {
    -webkit-transform: rotate(360deg);
       -moz-transform: rotate(360deg);
        -ms-transform: rotate(360deg);
            transform: rotate(360deg);
  }
}

.am-weather-sun {
  -webkit-animation-name: am-weather-sun;
     -moz-animation-name: am-weather-sun;
      -ms-animation-name: am-weather-sun;
          animation-name: am-weather-sun;
  -webkit-animation-duration: 9s;
     -moz-animation-duration: 9s;
      -ms-animation-duration: 9s;
          animation-duration: 9s;
  -webkit-animation-timing-function: linear;
     -moz-animation-timing-function: linear;
      -ms-animation-timing-function: linear;
          animation-timing-function: linear;
  -webkit-animation-iteration-count: infinite;
     -moz-animation-iteration-count: infinite;
      -ms-animation-iteration-count: infinite;
          animation-iteration-count: infinite;
}

@keyframes am-weather-sun-shiny {
  0% {
    stroke-dasharray: 3px 10px;
    stroke-dashoffset: 0px;
  }

  50% {
    stroke-dasharray: 0.1px 10px;
    stroke-dashoffset: -1px;
  }

  100% {
    stroke-dasharray: 3px 10px;
    stroke-dashoffset: 0px;
  }
}

.am-weather-sun-shiny line {
  -webkit-animation-name: am-weather-sun-shiny;
     -moz-animation-name: am-weather-sun-shiny;
      -ms-animation-name: am-weather-sun-shiny;
          animation-name: am-weather-sun-shiny;
  -webkit-animation-duration: 2s;
     -moz-animation-duration: 2s;
      -ms-animation-duration: 2s;
          animation-duration: 2s;
  -webkit-animation-timing-function: linear;
     -moz-animation-timing-function: linear;
      -ms-animation-timing-function: linear;
          animation-timing-function: linear;
  -webkit-animation-iteration-count: infinite;
     -moz-animation-iteration-count: infinite;
      -ms-animation-iteration-count: infinite;
          animation-iteration-count: infinite;
}
        ]]></style>
  </defs>
  <g
     filter="url(#blur)"
     id="cloudy-day-3"
     style="fill:#5599ff">
    <g
       transform="translate(20,10)"
       id="g3543"
       style="fill:#5599ff">
      <g
         class="am-weather-cloud-2"
         id="g3541"
         style="fill:#5599ff">
        <path
           d="M47.7,35.4c0-4.6-3.7-8.2-8.2-8.2c-1,0-1.9,0.2-2.8,0.5c-0.3-3.4-3.1-6.2-6.6-6.2c-3.7,0-6.7,3-6.7,6.7c0,0.8,0.2,1.6,0.4,2.3    c-0.3-0.1-0.7-0.1-1-0.1c-3.7,0-6.7,3-6.7,6.7c0,3.6,2.9,6.6,6.5,6.7l17.2,0C44.2,43.3,47.7,39.8,47.7,35.4z"
           fill="#57A0EE"
           stroke="white"
           stroke-linejoin="round"
           stroke-width="1.2"
           transform="translate(-20,-11)"
           id="path3539"
           style="fill:#5599ff" />
      </g>
    </g>
  </g>
  <g
     inkscape:groupmode="layer"
     id="layer1"
     inkscape:label="Sun">
    <g
       transform="translate(23.853601,27.284534)"
       id="g3537">
      <g
         class="am-weather-sun"
         id="g3533"
         style="-moz-animation-duration:9s;-moz-animation-iteration-count:infinite;-moz-animation-name:am-weather-sun;-moz-animation-timing-function:linear;-ms-animation-duration:9s;-ms-animation-iteration-count:infinite;-ms-animation-name:am-weather-sun;-ms-animation-timing-function:linear;-webkit-animation-duration:9s;-webkit-animation-iteration-count:infinite;-webkit-animation-name:am-weather-sun;-webkit-animation-timing-function:linear">
        <g
           id="g3503">
          <line
             fill="none"
             stroke="#ffa500"
             stroke-linecap="round"
             stroke-width="2"
             transform="translate(0,9)"
             x1="0"
             x2="0"
             y1="0"
             y2="3"
             id="line3501" />
        </g>
        <g
           transform="rotate(45)"
           id="g3507">
          <line
             fill="none"
             stroke="#ffa500"
             stroke-linecap="round"
             stroke-width="2"
             transform="translate(0,9)"
             x1="0"
             x2="0"
             y1="0"
             y2="3"
             id="line3505" />
        </g>
        <g
           transform="rotate(90)"
           id="g3511">
          <line
             fill="none"
             stroke="#ffa500"
             stroke-linecap="round"
             stroke-width="2"
             transform="translate(0,9)"
             x1="0"
             x2="0"
             y1="0"
             y2="3"
             id="line3509" />
        </g>
        <g
           transform="rotate(135)"
           id="g3515">
          <line
             fill="none"
             stroke="#ffa500"
             stroke-linecap="round"
             stroke-width="2"
             transform="translate(0,9)"
             x1="0"
             x2="0"
             y1="0"
             y2="3"
             id="line3513" />
        </g>
        <g
           transform="scale(-1)"
           id="g3519">
          <line
             fill="none"
             stroke="#ffa500"
             stroke-linecap="round"
             stroke-width="2"
             transform="translate(0,9)"
             x1="0"
             x2="0"
             y1="0"
             y2="3"
             id="line3517" />
        </g>
        <g
           transform="rotate(-135)"
           id="g3523">
          <line
             fill="none"
             stroke="#ffa500"
             stroke-linecap="round"
             stroke-width="2"
             transform="translate(0,9)"
             x1="0"
             x2="0"
             y1="0"
             y2="3"
             id="line3521" />
        </g>
        <g
           transform="rotate(-90)"
           id="g3527">
          <line
             fill="none"
             stroke="#ffa500"
             stroke-linecap="round"
             stroke-width="2"
             transform="translate(0,9)"
             x1="0"
             x2="0"
             y1="0"
             y2="3"
             id="line3525" />
        </g>
        <g
           transform="rotate(-45)"
           id="g3531">
          <line
             fill="none"
             stroke="#ffa500"
             stroke-linecap="round"
             stroke-width="2"
             transform="translate(0,9)"
             x1="0"
             x2="0"
             y1="0"
             y2="3"
             id="line3529" />
        </g>
      </g>
      <circle
         cx="0"
         cy="0"
         fill="#ffa500"
         r="5"
         stroke="#ffa500"
         stroke-width="2"
         id="circle3535" />
    </g>
  </g>
  <path
     style="fill:#aaccff;stroke-width:0.0755608"
     d="m 22.115032,42.120939 c -2.848237,-0.331052 -5.187113,-2.763612 -5.324573,-5.537848 l -0.03686,-0.743946 0.85201,-0.854434 c 0.825944,-0.828294 0.853134,-0.866125 0.888724,-1.236518 0.04157,-0.432659 -0.110713,-0.754875 -0.467337,-0.988817 l -0.205066,-0.134522 0.370461,-0.444658 c 0.203754,-0.244562 0.522539,-0.569051 0.708411,-0.721084 l 0.337949,-0.276427 0.373541,0.377229 c 1.128956,1.140102 2.561046,1.725139 4.220339,1.72409 2.858605,-0.0018 5.147545,-1.767539 5.876338,-4.533119 0.190377,-0.722434 0.206495,-2.079661 0.03342,-2.813956 -0.342391,-1.45261 -1.283565,-2.836862 -2.473827,-3.638431 l -0.387507,-0.260962 0.443772,-0.221894 c 0.445807,-0.222912 1.219815,-0.493608 1.665094,-0.582339 0.192607,-0.03838 0.247808,-0.01998 0.284222,0.09475 0.0773,0.243546 0.460702,0.550437 0.745384,0.596634 0.398438,0.06466 0.627055,-0.01805 0.999928,-0.361754 l 0.332834,-0.306795 0.591922,0.197128 c 0.82346,0.274238 1.4615,0.666403 2.156057,1.3252 0.92477,0.877158 1.677695,2.17629 1.836364,3.168547 l 0.04963,0.310363 h -1.692064 c -1.494445,0 -1.722132,0.01612 -1.94951,0.13807 -0.661207,0.354609 -0.699184,1.362896 -0.06588,1.749013 0.232526,0.141767 0.377678,0.152494 2.063579,0.152494 1.665618,0 1.833181,-0.01203 2.055363,-0.147498 0.241712,-0.14738 0.475924,-0.498802 0.475924,-0.714098 0,-0.138362 0.692079,-0.364863 1.524756,-0.499018 0.814707,-0.131259 2.205094,-0.06333 3.008892,0.146997 2.689244,0.703694 4.775309,2.833504 5.454037,5.568408 0.233038,0.939021 0.235597,2.510004 0.0056,3.428536 -0.224346,0.895899 -0.54468,1.631141 -1.046096,2.401042 -1.210469,1.858622 -3.295226,3.204676 -5.580629,3.603217 -0.575102,0.100289 -1.824048,0.114809 -9.137952,0.106235 -4.659491,-0.0055 -8.703745,-0.03689 -8.98723,-0.06984 z m 2.297723,-1.981531 c 0.429422,-0.289387 0.44444,-0.368939 0.445353,-2.359007 7.63e-4,-1.666466 -0.01112,-1.833067 -0.146667,-2.055363 -0.395373,-0.648434 -1.392913,-0.615641 -1.754009,0.05766 -0.12227,0.227987 -0.13807,0.456584 -0.13807,1.997702 0,1.541993 0.01579,1.770252 0.13864,2.00354 0.266939,0.506933 0.973722,0.679634 1.454753,0.355467 z m 8.499772,-3.503165 c 0.369192,-0.241905 0.552714,-0.765153 0.414865,-1.182842 -0.05407,-0.16384 -0.516939,-0.681005 -1.347151,-1.505183 -1.047779,-1.040164 -1.312544,-1.264428 -1.543203,-1.307142 -0.782896,-0.144979 -1.446846,0.598206 -1.200712,1.344 0.108065,0.327438 2.528178,2.742822 2.802915,2.797438 0.267814,0.05324 0.672157,-0.01449 0.873286,-0.146271 z"
     id="path3863" />
</svg>
