<?xml version="1.0" encoding="UTF-8" standalone="no"?>
<!-- Generator: Adobe Illustrator 19.0.0, SVG Export Plug-In . SVG Version: 6.00 Build 0)  -->

<svg
   version="1.1"
   id="Layer_1"
   x="0px"
   y="0px"
   viewBox="0 0 280.028 280.028"
   style="enable-background:new 0 0 280.028 280.028;"
   xml:space="preserve"
   sodipodi:docname="motionSensor-inactive.svg"
   inkscape:version="1.2 (dc2aedaf03, 2022-05-15)"
   xmlns:inkscape="http://www.inkscape.org/namespaces/inkscape"
   xmlns:sodipodi="http://sodipodi.sourceforge.net/DTD/sodipodi-0.dtd"
   xmlns="http://www.w3.org/2000/svg"
   xmlns:svg="http://www.w3.org/2000/svg"><defs
   id="defs1380" /><sodipodi:namedview
   id="namedview1378"
   pagecolor="#ffffff"
   bordercolor="#000000"
   borderopacity="0.25"
   inkscape:showpageshadow="2"
   inkscape:pageopacity="0.0"
   inkscape:pagecheckerboard="0"
   inkscape:deskcolor="#d1d1d1"
   showgrid="false"
   inkscape:zoom="3.0246974"
   inkscape:cx="121.83037"
   inkscape:cy="140.50992"
   inkscape:window-width="1920"
   inkscape:window-height="1027"
   inkscape:window-x="-8"
   inkscape:window-y="-8"
   inkscape:window-maximized="1"
   inkscape:current-layer="Layer_1" />
<g
   id="g1345">
	<path
   style="fill:#E4E7E7;"
   d="M140.014,0c77.331,0,140.014,62.682,140.014,140.014c0,77.323-62.682,140.014-140.014,140.014   S0,217.336,0,140.014C0,62.682,62.682,0,140.014,0z"
   id="path1333" />
	<path
   style="fill:#26A6D1;"
   d="M140.014,43.746c53.161,0,96.259,43.098,96.259,96.259c0,53.153-43.098,96.259-96.259,96.259   s-96.259-43.107-96.259-96.259C43.754,86.843,86.852,43.746,140.014,43.746z"
   id="path1335" />
	<path
   style="fill:#324D5B;"
   d="M140.014,87.5c28.992,0,52.505,23.505,52.505,52.505s-23.514,52.505-52.505,52.505   s-52.505-23.505-52.505-52.505S111.022,87.5,140.014,87.5z"
   id="path1337" />
	<path
   style="fill:#D4EDF6;"
   d="M179.393,87.5c12.085,0,21.877,9.792,21.877,21.877s-9.792,21.877-21.877,21.877   c-12.085,0-21.877-9.792-21.877-21.877S167.308,87.5,179.393,87.5z"
   id="path1339" />
	<path
   style="fill:#D6DBDE;"
   d="M191.04,127.841c-3.544-14.911-13.406-27.355-26.655-34.312c-4.209,3.982-6.869,9.591-6.869,15.848   c0,12.085,9.792,21.877,21.877,21.877C183.689,131.254,187.662,129.976,191.04,127.841z"
   id="path1341" />
	<path
   style="fill:#2296BD;"
   d="M148.765,227.513c-53.161,0-96.259-43.107-96.259-96.259c0-24.354,9.118-46.528,24.03-63.479   c-20.057,17.642-32.781,43.422-32.781,72.23c0,53.153,43.098,96.259,96.259,96.259c28.808,0,54.588-12.724,72.23-32.781   C195.284,218.395,173.118,227.513,148.765,227.513z"
   id="path1343" />
</g>
<g
   id="g1347">
</g>
<g
   id="g1349">
</g>
<g
   id="g1351">
</g>
<g
   id="g1353">
</g>
<g
   id="g1355">
</g>
<g
   id="g1357">
</g>
<g
   id="g1359">
</g>
<g
   id="g1361">
</g>
<g
   id="g1363">
</g>
<g
   id="g1365">
</g>
<g
   id="g1367">
</g>
<g
   id="g1369">
</g>
<g
   id="g1371">
</g>
<g
   id="g1373">
</g>
<g
   id="g1375">
</g>
<path
   style="fill:#006680;stroke-width:0.330612"
   d="m 138.85687,226.91857 c -17.56008,-1.80607 -35.2162,-8.9652 -49.499216,-20.07076 -3.949886,-3.07117 -10.71756,-9.62078 -14.058316,-13.60534 C 48.481304,161.25634 45.14549,116.26122 66.974041,80.946716 71.495374,73.632046 75.734394,68.44333 79.976124,65.03169 100.62024,48.427547 127.98075,41.026109 154.16823,44.961588 c 23.08497,3.469229 44.44061,15.42899 59.32176,33.221864 14.15668,16.926632 21.82265,37.008848 22.46671,58.855048 0.60461,20.50791 -4.84396,39.54578 -16.1531,56.44066 -2.9728,4.4411 -7.09591,9.51957 -9.06826,11.16941 -15.13098,12.65695 -33.434,20.36229 -52.98599,22.30645 -4.01315,0.39905 -14.86173,0.37812 -18.89248,-0.0365 z m 11.73671,-35.32324 c 12.76546,-2.73136 23.7875,-9.7608 31.62751,-20.17085 2.85794,-3.79479 6.30101,-10.33348 7.73381,-14.68714 2.72508,-8.28036 3.37352,-16.91789 1.92309,-25.61631 l -0.51813,-3.10728 1.10661,-0.83129 c 1.83022,-1.37487 4.67351,-4.51509 5.84117,-6.45116 2.70996,-4.49333 3.72917,-10.9558 2.55806,-16.21972 -1.75787,-7.901297 -8.06618,-14.402975 -15.92471,-16.412849 -6.39638,-1.635919 -13.10263,-0.367455 -18.52894,3.504671 l -2.12005,1.512839 -3.05664,-1.311096 c -6.76187,-2.900393 -11.94293,-4.040037 -19.41498,-4.270586 -6.18877,-0.190955 -9.46404,0.14541 -14.97669,1.538071 -18.98593,4.796434 -34.000269,20.34872 -38.243679,39.61389 -3.944602,17.90859 1.763492,36.56785 15.096819,49.35019 7.8728,7.54747 17.39173,12.25097 28.42469,14.04523 4.33132,0.70439 14.10961,0.4468 18.47206,-0.48661 z"
   id="path1626" /><path
   style="fill:#0088aa;stroke-width:0.330612"
   d="m 135.05483,236.00305 c -17.68226,-1.06698 -33.6474,-6.34758 -48.164365,-15.93073 -11.700763,-7.72408 -22.599298,-19.20494 -29.65924,-31.24396 -6.456266,-11.0096 -10.562928,-22.7673 -12.488363,-35.75519 -0.74584,-5.03102 -0.844377,-20.13317 -0.162864,-24.96118 2.97572,-21.08075 11.642906,-39.236632 26.007762,-54.48064 1.5914,-1.688796 2.961718,-3.002274 3.045152,-2.918841 0.150685,0.150686 -0.995594,1.906371 -1.830318,2.803382 -0.23982,0.257717 -0.684688,0.856833 -0.988593,1.331369 -0.303906,0.474537 -1.043283,1.514015 -1.643059,2.309952 -1.943984,2.579774 -8.210284,13.604199 -7.961858,14.007453 0.02851,0.04627 -0.270742,0.716428 -0.664997,1.489233 -0.394255,0.772804 -0.6212,1.405099 -0.504321,1.405099 0.116878,0 0.04673,0.199745 -0.155881,0.443879 -1.301826,1.568604 -5.073513,14.213714 -6.129487,20.549954 -1.191089,7.14699 -1.583873,15.97978 -1.051187,23.63873 0.252258,3.62697 1.336427,11.03532 1.905789,13.02265 0.214133,0.74743 0.357831,1.4862 0.319328,1.64171 -0.0385,0.15552 0.0827,0.46676 0.269339,0.69165 0.186638,0.22488 0.26303,0.48519 0.169757,0.57846 -0.268302,0.26831 2.401002,8.67311 3.983883,12.54401 1.635239,3.99894 4.711512,10.26768 5.18736,10.57065 0.174724,0.11125 0.291216,0.26003 0.25887,0.33061 -0.127209,0.27762 0.787412,1.94671 1.066749,1.94671 0.16338,0 0.222712,0.12029 0.131847,0.26731 -0.211764,0.34264 4.582594,7.45762 7.46152,11.07314 3.705187,4.65317 11.560945,12.54146 14.650335,14.711 0.181837,0.12769 1.074488,0.8389 1.98367,1.58046 1.997013,1.62883 4.519139,3.35886 4.922211,3.37636 0.161504,0.007 0.384667,0.1551 0.495918,0.32908 0.646213,1.01065 9.631103,6.05334 14.583873,8.18506 3.14237,1.35252 10.80315,4.13802 11.16927,4.06122 0.13026,-0.0273 0.66659,0.12728 1.19186,0.34357 0.52527,0.21629 1.03229,0.31599 1.12672,0.22156 0.0944,-0.0944 0.33416,-0.0437 0.53272,0.11277 0.39373,0.3102 3.35972,1.02557 6.31204,1.5224 0.36367,0.0612 1.10755,0.19912 1.65306,0.30648 5.0911,1.00203 9.37331,1.35235 16.53058,1.35235 5.96027,0 10.7326,-0.29308 13.72038,-0.84261 1.0001,-0.18395 2.04153,-0.34631 2.31428,-0.36081 1.1984,-0.0637 8.40082,-1.72052 11.55323,-2.65766 4.28753,-1.27461 11.65627,-4.14637 11.99132,-4.67329 0.13715,-0.21568 0.25164,-0.27482 0.25442,-0.13143 0.0113,0.58128 13.12125,-6.63559 13.88866,-7.64553 0.0921,-0.12116 0.58931,-0.43802 1.10499,-0.70411 0.51568,-0.26609 1.30441,-0.82376 1.75275,-1.23927 0.44833,-0.4155 0.90658,-0.75545 1.01834,-0.75545 0.11175,0 0.43883,-0.22786 0.72684,-0.50635 1.13787,-1.10026 2.52412,-2.13696 2.83793,-2.12231 0.51552,0.024 -5.90301,6.03724 -9.70752,9.09447 -11.26854,9.05519 -25.06231,15.74017 -38.79766,18.80281 -8.77032,1.95556 -18.13363,2.77134 -26.21304,2.28382 z"
   id="path1697" /><path
   style="fill:#0088aa;stroke-width:0.330612"
   d="m 173.97295,130.42011 c -3.85188,-1.00919 -6.81855,-2.74463 -9.85342,-5.76404 -4.63725,-4.61362 -6.68554,-9.9641 -6.32259,-16.51568 0.28708,-5.18218 1.96528,-9.345541 5.17346,-12.83458 l 1.53591,-1.670372 2.73467,1.696096 c 4.03999,2.505681 6.46239,4.443697 9.96683,7.973866 3.97404,4.00322 7.073,8.34517 9.56428,13.40049 1.73656,3.52386 3.9908,9.66115 3.9908,10.86519 0,0.58897 -3.92278,2.36975 -6.61224,3.0017 -2.92427,0.68711 -7.21824,0.6227 -10.1777,-0.15267 z"
   id="path1837" /><path
   style="fill:#0088aa;stroke-width:0.330612"
   d="m 173.93866,130.25031 c -4.45727,-1.23878 -8.83976,-4.26802 -11.76232,-8.13028 -3.2603,-4.3086 -4.30466,-7.82762 -4.05971,-13.67943 0.17717,-4.23273 0.85847,-6.76381 2.63589,-9.792572 0.94661,-1.613038 3.46837,-4.589031 3.8886,-4.589031 0.14904,0 1.81601,1.018302 3.7044,2.262893 8.02668,5.2902 14.03716,12.06624 18.23803,20.56102 1.96966,3.98294 4.06048,9.86977 3.77223,10.62093 -0.20692,0.53923 -2.00377,1.47097 -4.71737,2.44613 -2.26945,0.81556 -9.20531,0.9936 -11.69975,0.30034 z"
   id="path1839" /><path
   style="fill:#00ccff;stroke-width:0.330612"
   d="m 189.95565,123.73139 c -4.04692,-12.22566 -12.1355,-22.35943 -23.08869,-28.926676 l -2.24087,-1.343566 1.24903,-1.044994 c 1.66525,-1.393214 6.76956,-3.833788 8.95203,-4.280322 2.493,-0.510066 7.13841,-0.434858 9.65412,0.156298 7.66379,1.800887 14.21439,8.383551 16.03776,16.11627 0.68904,2.92216 0.62247,7.22153 -0.15915,10.27763 -1.01245,3.95864 -2.72428,6.8978 -5.84586,10.03719 -1.49164,1.50015 -2.85047,2.72755 -3.01963,2.72755 -0.16915,0 -0.86159,-1.67372 -1.53874,-3.71938 z"
   id="path1841" /><path
   style="fill:#00aad4;stroke-width:0.330612"
   d="m 173.93866,130.23429 c -7.24957,-1.94964 -13.51511,-8.25753 -15.39482,-15.49888 -0.59207,-2.28084 -0.66891,-7.11787 -0.15813,-9.95347 0.48587,-2.69729 2.57912,-6.892603 4.50907,-9.037091 1.85515,-2.061372 1.39517,-2.128285 5.9444,0.864729 7.438,4.893582 13.64661,11.987052 17.74437,20.273332 1.98617,4.01632 4.05972,9.87175 3.76646,10.63597 -0.25361,0.6609 -3.24962,2.08906 -5.74711,2.73957 -2.42906,0.63269 -8.27102,0.61946 -10.66424,-0.0242 z"
   id="path1912" /><path
   style="fill:#00aad4;stroke-width:0.330612"
   d="m 191.05945,126.22428 c -0.19713,-0.50737 -0.80814,-2.18708 -1.35781,-3.73269 -2.11773,-5.95481 -6.02288,-12.59023 -10.28755,-17.48007 -2.81838,-3.23154 -6.23704,-6.177947 -10.47157,-9.025034 -1.90928,-1.283708 -3.51649,-2.452133 -3.57157,-2.5965 -0.25174,-0.659819 4.63186,-3.449981 8.16776,-4.666508 2.30287,-0.792306 8.57021,-0.852769 11.42118,-0.110185 3.45151,0.899004 6.37727,2.681168 9.45607,5.75997 4.82881,4.828813 6.42543,8.882237 6.19217,15.720397 -0.20541,6.02169 -1.67553,9.55037 -5.89931,14.15988 -2.6599,2.90281 -3.17844,3.18283 -3.64937,1.97074 z"
   id="path1914" /><path
   style="fill:#cccccc;stroke-width:0.330612"
   d="m 131.74872,279.67044 c -0.72735,-0.07 -3.18214,-0.29093 -5.45509,-0.49107 -2.27296,-0.20013 -6.67846,-0.79355 -9.79,-1.3187 C 56.122316,267.66989 9.1158796,218.72951 1.3088641,157.92656 -5.4888572,104.98424 18.273455,53.034744 62.816202,23.458377 81.963846,10.744348 102.8641,3.2894527 126.45893,0.75770298 c 5.2104,-0.55908103 21.92511,-0.55726494 27.11015,0.002946 23.73074,2.56395162 44.44303,9.95405602 63.68077,22.72117502 37.37592,24.804527 60.4205,65.475872 62.41807,110.161546 1.73615,38.83783 -12.32669,75.93 -39.3133,103.69277 -22.89894,23.55756 -52.11454,37.9018 -84.96717,41.71709 -4.18131,0.48559 -20.56051,0.91325 -23.63873,0.61721 z m 13.83843,-43.45462 c 13.36353,-0.85248 24.85641,-3.82474 36.41453,-9.41743 19.23893,-9.30925 34.87468,-24.82142 44.32045,-43.97018 5.06242,-10.26271 7.79094,-19.27923 9.45449,-31.2428 0.26837,-1.93002 0.43673,-6.39082 0.43673,-11.5714 0,-8.78343 -0.22944,-11.36333 -1.68252,-18.91921 -3.75736,-19.53793 -14.38703,-38.432411 -29.31801,-52.113423 -15.26628,-13.988246 -33.65995,-22.31691 -54.94985,-24.881332 -4.26024,-0.513155 -16.23768,-0.513155 -20.49792,0 -25.79283,3.10681 -47.618362,14.83483 -64.055101,34.420207 -5.375308,6.405011 -11.561428,16.700137 -14.899302,24.795868 -9.343292,22.66136 -9.580605,48.93023 -0.648131,71.74272 13.670475,34.91276 46.348786,58.79449 83.675594,61.15118 5.79946,0.36616 6.09763,0.36631 11.74904,0.006 z"
   id="path1916" /></svg>
