<?xml version="1.0" encoding="UTF-8" standalone="no"?>
<!-- Uploaded to: SVG Repo, www.svgrepo.com, Generator: SVG Repo Mixer Tools -->

<svg
   width="800px"
   height="800px"
   viewBox="0 0 24 24"
   fill="none"
   version="1.1"
   id="svg1"
   sodipodi:docname="not_flooded.svg"
   inkscape:version="1.4.2 (f4327f4, 2025-05-13)"
   xmlns:inkscape="http://www.inkscape.org/namespaces/inkscape"
   xmlns:sodipodi="http://sodipodi.sourceforge.net/DTD/sodipodi-0.dtd"
   xmlns="http://www.w3.org/2000/svg"
   xmlns:svg="http://www.w3.org/2000/svg">
  <defs
     id="defs1" />
  <sodipodi:namedview
     id="namedview1"
     pagecolor="#ffffff"
     bordercolor="#000000"
     borderopacity="0.25"
     inkscape:showpageshadow="2"
     inkscape:pageopacity="0.0"
     inkscape:pagecheckerboard="0"
     inkscape:deskcolor="#d1d1d1"
     inkscape:zoom="1.01625"
     inkscape:cx="400.492"
     inkscape:cy="400.492"
     inkscape:window-width="1920"
     inkscape:window-height="1094"
     inkscape:window-x="1881"
     inkscape:window-y="1609"
     inkscape:window-maximized="1"
     inkscape:current-layer="svg1" />
  <path
     d="M12 3V11M12 11L9 8M12 11L15 8M2.5 14.5L3.11612 15.1161C3.68206 15.6821 4.44964 16 5.25 16C6.05036 16 6.81794 15.6821 7.38388 15.1161L7.61612 14.8839C8.18206 14.3179 8.94964 14 9.75 14C10.5504 14 11.3179 14.3179 11.8839 14.8839L12.1161 15.1161C12.6821 15.6821 13.4496 16 14.25 16C15.0504 16 15.8179 15.6821 16.3839 15.1161L16.6161 14.8839C17.1821 14.3179 17.9496 14 18.75 14C19.5504 14 20.3179 14.3179 20.8839 14.8839L21.5 15.5M2.5 19.5L3.11612 20.1161C3.68206 20.6821 4.44964 21 5.25 21C6.05036 21 6.81794 20.6821 7.38388 20.1161L7.61612 19.8839C8.18206 19.3179 8.94964 19 9.75 19C10.5504 19 11.3179 19.3179 11.8839 19.8839L12.1161 20.1161C12.6821 20.6821 13.4496 21 14.25 21C15.0504 21 15.8179 20.6821 16.3839 20.1161L16.6161 19.8839C17.1821 19.3179 17.9496 19 18.75 19C19.5504 19 20.3179 19.3179 20.8839 19.8839L21.5 20.5"
     stroke="#000000"
     stroke-width="2"
     stroke-linecap="round"
     stroke-linejoin="round"
     id="path1" />
  <path
     style="fill:#000000;fill-opacity:1;stroke-width:0.553014"
     d="m 152.87241,564.25932 c -17.75199,-2.98193 -36.75855,-10.66644 -52.67036,-21.29509 -11.512782,-7.69021 -41.490251,-36.71406 -45.466968,-44.0206 -4.025044,-7.39533 -5.085699,-15.1204 -3.132824,-22.81728 4.070699,-16.04388 18.00075,-26.36666 34.032527,-25.21959 10.526841,0.75319 14.258618,3.1501 32.475265,20.8587 9.05514,8.80261 18.7234,17.2599 21.81097,19.0791 19.9147,11.73382 44.79074,12.67745 65.19039,2.4729 8.58795,-4.29597 12.17716,-7.09886 25.6389,-20.02187 17.39821,-16.70196 34.30246,-26.90229 55.32435,-33.3837 31.49813,-9.71142 65.44973,-7.40034 94.73025,6.44828 16.44316,7.77702 25.42045,14.21725 42.35079,30.38216 6.24117,5.959 14.21165,12.50679 17.71218,14.55063 19.54987,11.41457 44.51752,12.0613 64.96051,1.68266 7.56518,-3.84074 12.23405,-7.50583 25.00575,-19.6297 6.82218,-6.47614 15.82115,-14.03542 19.9977,-16.7984 34.81696,-23.03304 77.85772,-28.75258 116.81884,-15.52364 22.01277,7.47426 36.72261,17.32288 59.19511,39.63265 9.57517,9.50585 17.72482,18.46412 18.8283,20.69648 8.79614,17.79488 0.76873,38.97945 -17.36207,45.81903 -7.41686,2.79791 -19.17597,2.34356 -25.72899,-0.99411 -2.49035,-1.26842 -10.67176,-8.37295 -18.69619,-16.23531 -16.30796,-15.97856 -19.71315,-18.75088 -28.39505,-23.11766 -13.2254,-6.65205 -31.86398,-8.82834 -46.3897,-5.41659 -12.19986,2.86546 -21.21186,8.16051 -33.54588,19.71005 -15.06374,14.10565 -19.8203,18.06833 -27.95473,23.28903 -15.81218,10.14831 -33.22972,16.89199 -51.52236,19.94831 -12.31179,2.05703 -36.6977,1.54465 -48.35464,-1.01601 -26.33176,-5.78425 -46.43648,-17.03302 -69.34125,-38.79709 -10.35714,-9.84133 -15.01204,-13.52083 -21.13502,-16.70636 -10.58882,-5.50891 -20.60819,-7.96299 -32.43636,-7.94476 -11.85267,0.0183 -19.99878,1.90336 -30.39285,7.03319 -6.73957,3.32621 -10.50488,6.24164 -21.58035,16.7094 -7.37898,6.97409 -17.27297,15.32164 -21.98665,18.55011 -16.1837,11.08442 -35.22438,18.8234 -54.42493,22.12068 -10.71122,1.83942 -32.46832,1.81664 -43.55466,-0.0456 z"
     id="path2"
     transform="scale(0.03)" />
  <path
     style="fill:#003380;fill-opacity:1;stroke-width:0.553014"
     d="m 152.87241,564.25932 c -17.75199,-2.98193 -36.75855,-10.66644 -52.67036,-21.29509 -11.512782,-7.69021 -41.490251,-36.71406 -45.466968,-44.0206 -4.025044,-7.39533 -5.085699,-15.1204 -3.132824,-22.81728 1.716502,-6.76526 6.733112,-14.97475 11.143035,-18.23515 7.379986,-5.45626 11.183919,-6.70829 20.403538,-6.71563 12.766831,-0.0102 15.315932,1.48161 34.456909,20.16492 16.63973,16.24187 24.3393,21.77349 35.40779,25.43812 20.76142,6.87382 42.93293,3.65831 61.23998,-8.88159 2.29208,-1.57002 9.42162,-7.86216 15.84343,-13.98253 22.77027,-21.70145 44.78123,-33.19765 72.82987,-38.03865 27.46938,-4.74102 54.68748,-0.74842 80.3848,11.7916 14.35701,7.00606 24.11743,14.10236 39.58742,28.78197 12.82182,12.16674 19.07759,16.40625 29.61761,20.0717 17.731,6.16623 36.89285,4.81128 53.77854,-3.80271 7.13862,-3.64167 11.42552,-7.02782 24.29137,-19.18733 13.71795,-12.96484 21.08689,-18.37891 33.88049,-24.89254 36.95196,-18.81338 80.21988,-19.52164 117.17509,-1.91805 16.27153,7.75094 26.47874,15.41111 45.25694,33.96386 20.07047,19.82951 22.29495,23.42793 22.29495,36.06539 0,6.50406 -0.43543,8.42436 -3.16946,13.97797 -3.84217,7.80457 -10.0243,13.54407 -17.71254,16.44434 -7.44305,2.8078 -19.19118,2.34504 -25.72899,-1.01347 -2.46688,-1.26724 -10.9653,-8.66721 -19.1882,-16.70806 -15.70107,-15.35346 -20.42757,-19.06031 -30.19021,-23.67731 -9.62307,-4.55099 -18.87164,-6.21129 -31.65246,-5.68222 -18.78589,0.77766 -29.84372,5.89081 -46.35425,21.43424 -18.65044,17.55799 -26.94085,23.67596 -42.09009,31.06072 -18.14325,8.84424 -37.2624,13.22228 -57.71396,13.21576 -36.50494,-0.0116 -67.01063,-12.62049 -94.90499,-39.2269 -14.01768,-13.37043 -17.46332,-16.02691 -26.24976,-20.2377 -10.59382,-5.07695 -19.60635,-6.79269 -32.80995,-6.24612 -19.65991,0.81384 -29.42476,5.6133 -49.21147,24.18761 -14.05182,13.19081 -25.1445,21.29932 -37.87445,27.68538 -10.69437,5.3649 -25.85317,10.33496 -37.46867,12.28472 -11.27734,1.893 -32.76515,1.89818 -44.00216,0.0106 z"
     id="path3"
     transform="scale(0.03)" />
  <path
     style="fill:#003380;fill-opacity:1;stroke-width:0.553014"
     d="M 164.32964,732.43244 C 140.32583,730.06326 116.65959,721.36611 97.908979,708.02339 89.296705,701.895 59.319065,672.83233 55.481941,666.8913 c -3.378204,-5.23049 -5.631193,-14.70138 -4.825705,-20.28584 3.259141,-22.59564 26.218317,-35.49321 46.58441,-26.16931 3.909684,1.78991 9.322804,6.39093 21.164974,17.98971 9.23299,9.04322 18.39384,17.07457 21.82523,19.13426 19.56834,11.74589 43.62383,12.55548 65.08399,2.19041 7.88488,-3.80833 10.69076,-5.95119 22.55947,-17.22881 24.01136,-22.81554 45.52198,-34.53328 72.81343,-39.66452 40.09632,-7.53877 82.89631,4.43475 112.78054,31.55094 3.41655,3.1001 9.75556,8.98522 14.08669,13.07805 9.08053,8.58094 15.59331,12.58426 26.32707,16.18291 19.44623,6.51964 42.26775,3.29201 59.46354,-8.40989 2.60458,-1.77244 9.38505,-7.70241 15.0677,-13.1777 23.11586,-22.27234 42.66124,-32.99219 71.15532,-39.02579 13.27546,-2.81106 35.32737,-2.99443 48.89388,-0.40656 19.02856,3.62978 38.36839,11.80184 53.62854,22.66078 8.61227,6.12839 38.58991,35.19107 42.42704,41.1321 3.41048,5.28045 5.60313,14.59686 4.8036,20.41013 -2.40779,17.50678 -19.06389,31.0645 -35.75386,29.10293 -10.27041,-1.20709 -14.7998,-4.17361 -31.52545,-20.64758 -17.18623,-16.92763 -23.79732,-21.6862 -35.50398,-25.55529 -17.20273,-5.68557 -35.119,-4.35967 -51.89711,3.84066 -7.87507,3.84896 -10.80122,6.08778 -22.55947,17.26044 -30.65307,29.12647 -59.69848,41.61164 -96.80504,41.61164 -21.77439,0 -39.0629,-3.91157 -57.80848,-13.07932 -16.59346,-8.11523 -23.52201,-13.26915 -43.46973,-32.33575 -11.33492,-10.83424 -21.79956,-16.5807 -35.47358,-19.47965 -17.18169,-3.6426 -36.97137,0.36485 -51.87054,10.50388 -2.60458,1.77244 -9.38505,7.7024 -15.0677,13.17769 -12.46977,12.01474 -19.31189,17.31563 -30.99454,24.01286 -22.64412,12.98102 -51.91679,19.5707 -76.26254,17.16776 z"
     id="path4"
     transform="scale(0.03)" />
  <path
     style="fill:#003380;fill-opacity:1;stroke-width:0.553014"
     d="m 389.96294,397.73584 c -2.81435,-1.00554 -6.79959,-2.99562 -8.85609,-4.42239 -2.05649,-1.42678 -27.25112,-26.18864 -55.98805,-55.02637 -40.84106,-40.98429 -52.76504,-53.50646 -54.61255,-57.35227 -1.98429,-4.13053 -2.36357,-6.42013 -2.36357,-14.26814 0,-7.78022 0.38149,-10.12259 2.27456,-13.96587 3.01015,-6.11116 8.76277,-11.90634 15.15781,-15.26999 4.62727,-2.43383 6.22924,-2.73501 14.54795,-2.73501 13.57141,0 14.69583,0.75637 42.30457,28.45741 12.71401,12.75651 23.44159,23.19365 23.83906,23.19365 0.39747,0 0.84381,-43.72693 0.99186,-97.17097 l 0.26919,-97.17097 2.74962,-5.599167 c 9.84315,-20.043967 35.21557,-25.230855 51.33874,-10.495187 3.18879,2.91437 6.47009,7.162461 8.10673,10.495252 l 2.74955,5.599102 0.26919,97.17097 c 0.14805,53.44404 0.59439,97.17097 0.99186,97.17097 0.39747,0 11.12505,-10.43714 23.83906,-23.19365 27.60874,-27.70104 28.73315,-28.45741 42.30457,-28.45741 8.31871,0 9.92069,0.30118 14.54794,2.73501 6.39506,3.36365 12.14767,9.15883 15.15782,15.26999 1.89307,3.84328 2.27456,6.18565 2.27456,13.96587 0,7.83467 -0.38136,10.14463 -2.35564,14.26814 -1.85069,3.86539 -13.87381,16.45993 -56.08856,58.75425 -47.70735,47.79728 -54.38461,54.13056 -59.54437,56.47693 -7.67889,3.49192 -16.84212,4.09365 -23.90581,1.56985 z"
     id="path5"
     transform="scale(0.03)" />
</svg>
