<?xml version="1.0" encoding="UTF-8" standalone="no"?>
<!-- Uploaded to: SVG Repo, www.svgrepo.com, Generator: SVG Repo Mixer Tools -->

<svg
   width="800px"
   height="800px"
   viewBox="0 0 24 24"
   fill="none"
   version="1.1"
   id="svg1"
   sodipodi:docname="not_flooded.svg"
   inkscape:version="1.4.2 (f4327f4, 2025-05-13)"
   xmlns:inkscape="http://www.inkscape.org/namespaces/inkscape"
   xmlns:sodipodi="http://sodipodi.sourceforge.net/DTD/sodipodi-0.dtd"
   xmlns="http://www.w3.org/2000/svg"
   xmlns:svg="http://www.w3.org/2000/svg">
  <defs
     id="defs1" />
  <sodipodi:namedview
     id="namedview1"
     pagecolor="#ffffff"
     bordercolor="#000000"
     borderopacity="0.25"
     inkscape:showpageshadow="2"
     inkscape:pageopacity="0.0"
     inkscape:pagecheckerboard="0"
     inkscape:deskcolor="#d1d1d1"
     inkscape:zoom="1.01625"
     inkscape:cx="399.508"
     inkscape:cy="400"
     inkscape:window-width="2880"
     inkscape:window-height="1514"
     inkscape:window-x="-11"
     inkscape:window-y="-11"
     inkscape:window-maximized="1"
     inkscape:current-layer="svg1" />
  <path
     style="fill:#003380;fill-opacity:1;stroke-width:0.553014"
     d="M 164.32964,732.43244 C 140.32583,730.06326 116.65959,721.36611 97.908979,708.02339 89.296705,701.895 59.319065,672.83233 55.481941,666.8913 c -3.378204,-5.23049 -5.631193,-14.70138 -4.825705,-20.28584 3.259141,-22.59564 26.218317,-35.49321 46.58441,-26.16931 3.909684,1.78991 9.322804,6.39093 21.164974,17.98971 9.23299,9.04322 18.39384,17.07457 21.82523,19.13426 19.56834,11.74589 43.62383,12.55548 65.08399,2.19041 7.88488,-3.80833 10.69076,-5.95119 22.55947,-17.22881 24.01136,-22.81554 45.52198,-34.53328 72.81343,-39.66452 40.09632,-7.53877 82.89631,4.43475 112.78054,31.55094 3.41655,3.1001 9.75556,8.98522 14.08669,13.07805 9.08053,8.58094 15.59331,12.58426 26.32707,16.18291 19.44623,6.51964 42.26775,3.29201 59.46354,-8.40989 2.60458,-1.77244 9.38505,-7.70241 15.0677,-13.1777 23.11586,-22.27234 42.66124,-32.99219 71.15532,-39.02579 13.27546,-2.81106 35.32737,-2.99443 48.89388,-0.40656 19.02856,3.62978 38.36839,11.80184 53.62854,22.66078 8.61227,6.12839 38.58991,35.19107 42.42704,41.1321 3.41048,5.28045 5.60313,14.59686 4.8036,20.41013 -2.40779,17.50678 -19.06389,31.0645 -35.75386,29.10293 -10.27041,-1.20709 -14.7998,-4.17361 -31.52545,-20.64758 -17.18623,-16.92763 -23.79732,-21.6862 -35.50398,-25.55529 -17.20273,-5.68557 -35.119,-4.35967 -51.89711,3.84066 -7.87507,3.84896 -10.80122,6.08778 -22.55947,17.26044 -30.65307,29.12647 -59.69848,41.61164 -96.80504,41.61164 -21.77439,0 -39.0629,-3.91157 -57.80848,-13.07932 -16.59346,-8.11523 -23.52201,-13.26915 -43.46973,-32.33575 -11.33492,-10.83424 -21.79956,-16.5807 -35.47358,-19.47965 -17.18169,-3.6426 -36.97137,0.36485 -51.87054,10.50388 -2.60458,1.77244 -9.38505,7.7024 -15.0677,13.17769 -12.46977,12.01474 -19.31189,17.31563 -30.99454,24.01286 -22.64412,12.98102 -51.91679,19.5707 -76.26254,17.16776 z"
     id="path4"
     transform="scale(0.03)" />
  <path
     style="fill:#003380;fill-opacity:1;stroke-width:0.553014"
     d="m 389.96294,397.73584 c -2.81435,-1.00554 -6.79959,-2.99562 -8.85609,-4.42239 -2.05649,-1.42678 -27.25112,-26.18864 -55.98805,-55.02637 -40.84106,-40.98429 -52.76504,-53.50646 -54.61255,-57.35227 -1.98429,-4.13053 -2.36357,-6.42013 -2.36357,-14.26814 0,-7.78022 0.38149,-10.12259 2.27456,-13.96587 3.01015,-6.11116 8.76277,-11.90634 15.15781,-15.26999 4.62727,-2.43383 6.22924,-2.73501 14.54795,-2.73501 13.57141,0 14.69583,0.75637 42.30457,28.45741 12.71401,12.75651 23.44159,23.19365 23.83906,23.19365 0.39747,0 0.84381,-43.72693 0.99186,-97.17097 l 0.26919,-97.17097 2.74962,-5.599167 c 9.84315,-20.043967 35.21557,-25.230855 51.33874,-10.495187 3.18879,2.91437 6.47009,7.162461 8.10673,10.495252 l 2.74955,5.599102 0.26919,97.17097 c 0.14805,53.44404 0.59439,97.17097 0.99186,97.17097 0.39747,0 11.12505,-10.43714 23.83906,-23.19365 27.60874,-27.70104 28.73315,-28.45741 42.30457,-28.45741 8.31871,0 9.92069,0.30118 14.54794,2.73501 6.39506,3.36365 12.14767,9.15883 15.15782,15.26999 1.89307,3.84328 2.27456,6.18565 2.27456,13.96587 0,7.83467 -0.38136,10.14463 -2.35564,14.26814 -1.85069,3.86539 -13.87381,16.45993 -56.08856,58.75425 -47.70735,47.79728 -54.38461,54.13056 -59.54437,56.47693 -7.67889,3.49192 -16.84212,4.09365 -23.90581,1.56985 z"
     id="path5"
     transform="scale(0.03)" />
</svg>
