<?xml version="1.0" encoding="iso-8859-1"?>
<!-- Uploaded to: SVG Repo, www.svgrepo.com, Generator: SVG Repo Mixer Tools -->
<svg version="1.1" id="Layer_1" xmlns="http://www.w3.org/2000/svg" xmlns:xlink="http://www.w3.org/1999/xlink" 
	 viewBox="0 0 512 512" xml:space="preserve">
<path style="fill:#008CCB;" d="M310.468,58.367v45.223c74.169,23.167,128,92.395,128,174.198
	c0,100.775-81.693,182.468-182.468,182.468l-21.787,21.787L256,503.83c124.84,0,226.043-101.203,226.043-226.043
	C482.043,171.728,408.993,82.746,310.468,58.367z"/>
<g>
	<path style="fill:#3AAADC;" d="M73.532,277.787c0-81.802,53.831-151.03,128-174.198V58.367
		C103.007,82.746,29.957,171.728,29.957,277.787C29.957,402.627,131.16,503.83,256,503.83v-43.574
		C155.225,460.255,73.532,378.562,73.532,277.787z"/>
	<rect x="234.213" y="8.17" style="fill:#3AAADC;" width="43.574" height="269.617"/>
</g>
<path d="M439.603,132.369c-32.117-40.492-77.28-69.588-127.172-81.933c-2.436-0.602-5.02-0.051-6.999,1.497
	c-1.977,1.549-3.134,3.922-3.134,6.434v45.223c0,3.573,2.323,6.733,5.734,7.799c73.131,22.844,122.266,89.713,122.266,166.399
	c0,96.109-78.189,174.298-174.298,174.298c-40.784,0-80.455-14.387-111.709-40.511c-3.462-2.892-8.615-2.434-11.508,1.029
	c-2.893,3.462-2.433,8.614,1.029,11.508c34.186,28.577,77.58,44.314,122.187,44.314c105.118,0,190.638-85.52,190.638-190.638
	c0-41.448-13.075-80.861-37.811-113.977c-22.7-30.389-54.554-53.7-90.189-66.125V69.061
	c91.914,27.446,155.234,111.82,155.234,208.726c0,120.135-97.738,217.872-217.872,217.872S38.128,397.922,38.128,277.787
	c0-96.906,63.32-181.28,155.234-208.726v28.623c-35.635,12.425-67.489,35.738-90.189,66.125
	c-24.736,33.117-37.811,72.53-37.811,113.978c0,44.607,15.737,88.001,44.313,122.187c2.893,3.463,8.046,3.924,11.508,1.029
	c3.463-2.894,3.924-8.047,1.029-11.508c-26.123-31.254-40.51-70.925-40.51-111.709c0-76.686,49.135-143.555,122.266-166.399
	c3.412-1.066,5.734-4.226,5.734-7.799V58.367c0-2.513-1.157-4.885-3.134-6.434c-1.978-1.548-4.561-2.099-6.999-1.497
	c-49.892,12.345-95.056,41.441-127.172,81.933c-33.11,41.741-50.61,92.025-50.61,145.418c0,62.561,24.362,121.377,68.599,165.613
	C134.623,487.637,193.439,512,256,512s121.377-24.362,165.614-68.599c44.237-44.237,68.599-103.053,68.599-165.613
	C490.213,224.394,472.713,174.111,439.603,132.369z"/>
<path d="M234.213,285.957h43.574c4.513,0,8.17-3.657,8.17-8.17V8.17c0-4.513-3.657-8.17-8.17-8.17h-43.574
	c-4.513,0-8.17,3.657-8.17,8.17v269.617C226.043,282.3,229.7,285.957,234.213,285.957z M242.383,16.34h27.234v253.277h-27.234V16.34
	z"/>
</svg>