<?xml version="1.0" encoding="UTF-8" standalone="no"?>
<svg
   version="1.1"
   width="256"
   height="256"
   id="svg9"
   sodipodi:docname="outdoor-tube-light-off.svg"
   inkscape:version="1.3.2 (091e20e, 2023-11-25, custom)"
   xmlns:inkscape="http://www.inkscape.org/namespaces/inkscape"
   xmlns:sodipodi="http://sodipodi.sourceforge.net/DTD/sodipodi-0.dtd"
   xmlns="http://www.w3.org/2000/svg"
   xmlns:svg="http://www.w3.org/2000/svg">
  <defs
     id="defs9" />
  <sodipodi:namedview
     id="namedview9"
     pagecolor="#ffffff"
     bordercolor="#000000"
     borderopacity="0.25"
     inkscape:showpageshadow="2"
     inkscape:pageopacity="0.0"
     inkscape:pagecheckerboard="0"
     inkscape:deskcolor="#d1d1d1"
     inkscape:zoom="3.2460938"
     inkscape:cx="127.84597"
     inkscape:cy="128"
     inkscape:window-width="1920"
     inkscape:window-height="1027"
     inkscape:window-x="-8"
     inkscape:window-y="-8"
     inkscape:window-maximized="1"
     inkscape:current-layer="svg9" />
  <path
     d="M0 0 C84.48 0 168.96 0 256 0 C256 84.48 256 168.96 256 256 C171.52 256 87.04 256 0 256 C0 171.52 0 87.04 0 0 Z "
     fill="#FDFDFD"
     transform="translate(0,0)"
     id="path1" />
  <path
     d="M0 0 C5.76622544 3.9581717 10.38935141 9.08733076 12.625 15.75 C12.88226891 18.68270493 12.88226891 18.68270493 12.89242554 21.98529053 C12.90522049 23.86927551 12.90522049 23.86927551 12.91827393 25.7913208 C12.91757496 27.17565931 12.91665192 28.55999771 12.91552734 29.94433594 C12.92151451 31.40828799 12.9283205 32.87223688 12.93588257 34.33618164 C12.95353321 38.30745451 12.95823762 42.27864115 12.95951414 46.24994946 C12.96093713 48.73372223 12.96520957 51.21747319 12.97050858 53.70124054 C12.98900758 62.37408333 12.99717958 71.0468647 12.99560547 79.71972656 C12.99440494 87.79100468 13.01549013 95.86201501 13.0470928 103.93322539 C13.0732912 110.87270031 13.08397123 117.81208798 13.08269465 124.75161195 C13.08218595 128.89179288 13.08781762 133.0317359 13.10905075 137.17186737 C13.12849277 141.06915415 13.12851733 144.96597761 13.11401749 148.86328125 C13.11193546 150.28823782 13.11659401 151.71322385 13.1287384 153.13813019 C13.20449081 162.64727521 12.57235907 170.05584326 6.3125 177.5 C-1.43717552 183.98810043 -9.83180992 189.27136654 -20.375 188.75 C-20.34019531 189.40226563 -20.30539063 190.05453125 -20.26953125 190.7265625 C-20.10027815 196.1910196 -20.23678436 200.04267654 -23.375 204.75 C-26.42437185 206.27468593 -29.0845238 206.33621261 -32.375 205.75 C-36.03943088 204.18816158 -39.39839861 202.16839816 -42.8125 200.125 C-43.81458496 199.54177979 -44.81666992 198.95855957 -45.84912109 198.35766602 C-49.03235264 196.50164743 -52.20346588 194.62592043 -55.375 192.75 C-57.40908688 191.56196926 -59.44422747 190.37574062 -61.48046875 189.19140625 C-65.50098388 186.85242834 -69.51745317 184.5067362 -73.53125 182.15625 C-78.99881837 178.96082416 -84.49493929 175.81775743 -90 172.6875 C-97.48610132 168.42212983 -104.94460335 164.11174732 -112.375 159.75 C-113.76452881 158.93970337 -113.76452881 158.93970337 -115.18212891 158.11303711 C-126.87629361 151.21962333 -126.87629361 151.21962333 -130.5625 144.875 C-131.05105469 144.05257812 -131.53960937 143.23015625 -132.04296875 142.3828125 C-135.32691028 135.89197206 -135.67659163 130.30203527 -135.68139648 123.15820312 C-135.68972 122.10382553 -135.69804352 121.04944794 -135.70661926 119.96311951 C-135.73067003 116.48579189 -135.73948411 113.0086519 -135.74609375 109.53125 C-135.75506159 107.11039169 -135.76418347 104.68953394 -135.77345276 102.26867676 C-135.78993035 97.19814711 -135.79764104 92.12768341 -135.80053711 87.05712891 C-135.80592918 80.56029478 -135.84364947 74.06407994 -135.88928127 67.56742096 C-135.91901711 62.56941458 -135.92625987 57.57155823 -135.92726326 52.57347107 C-135.93146999 50.17806655 -135.94392227 47.78266176 -135.96478081 45.38734436 C-135.99163043 42.03836335 -135.98688854 38.69083049 -135.97436523 35.34179688 C-135.98919952 34.3535643 -136.00403381 33.36533173 -136.01931763 32.34715271 C-135.971884 27.89355356 -135.84429394 24.71849204 -133.03114319 21.13537598 C-130.375 18.75 -130.375 18.75 -127.27734375 17.9921875 C-121.48585885 19.11686024 -116.98516258 21.89915675 -111.9375 24.875 C-110.85452637 25.49793945 -109.77155273 26.12087891 -108.65576172 26.76269531 C-105.80008041 28.40948942 -102.95249085 30.06919401 -100.10858154 31.73620605 C-97.24636088 33.4100252 -94.37446827 35.06710231 -91.50390625 36.7265625 C-75.49002716 46.00664856 -75.49002716 46.00664856 -71.375 48.75 C-71.36041748 47.75145996 -71.34583496 46.75291992 -71.33081055 45.72412109 C-71.27259932 42.00013394 -71.19536923 38.27673708 -71.11254883 34.55322266 C-71.07940637 32.9452476 -71.05134146 31.33715919 -71.02856445 29.72900391 C-70.99482033 27.40999295 -70.94249806 25.09201069 -70.88671875 22.7734375 C-70.88032883 22.06069672 -70.8739389 21.34795593 -70.86735535 20.61361694 C-70.66595285 13.69215437 -67.87970105 8.56733168 -63.375 3.48828125 C-47.0747704 -10.67891049 -18.1323242 -10.07351345 0 0 Z "
     fill="#919291"
     transform="translate(189.375,27.25)"
     id="path2" />
  <path
     d="M0 0 C1.16080078 0.00902344 2.32160156 0.01804687 3.51757812 0.02734375 C6.36610108 0.05078838 9.21419078 0.08360478 12.0625 0.125 C11.0725 0.455 10.0825 0.785 9.0625 1.125 C9.0625 48.315 9.0625 95.505 9.0625 144.125 C2.7925 144.455 -3.4775 144.785 -9.9375 145.125 C-17.21189484 146.49752733 -22.81689427 148.17937637 -29.09765625 152.0390625 C-30.9375 153.125 -30.9375 153.125 -33.9375 154.125 C-34.2675 155.115 -34.5975 156.105 -34.9375 157.125 C-35.5975 157.125 -36.2575 157.125 -36.9375 157.125 C-37.9275 160.095 -38.9175 163.065 -39.9375 166.125 C-40.2675 165.135 -40.5975 164.145 -40.9375 163.125 C-42.67339234 162.38747324 -42.67339234 162.38747324 -44.8125 161.9375 C-60.04083143 157.28910631 -70.41486146 143.37130362 -77.9375 130.125 C-86.0118785 114.75763447 -89.66518577 98.16436746 -84.9375 81.125 C-81.9393311 73.02057469 -77.83334202 67.57292101 -70.0625 63.6875 C-59.57591201 61.79991416 -50.4268072 66.38949328 -41.9375 72.125 C-41.93163376 71.49939178 -41.92576752 70.87378357 -41.91972351 70.22921753 C-41.85570272 63.70752917 -41.77126028 57.1863303 -41.67504883 50.66503906 C-41.64183053 48.2324876 -41.61378901 45.79985963 -41.59106445 43.3671875 C-41.55746242 39.86685642 -41.50514166 36.36722445 -41.44921875 32.8671875 C-41.44282883 31.78259247 -41.4364389 30.69799744 -41.42985535 29.58053589 C-41.32178798 24.00848244 -41.0530546 19.94434269 -37.9375 15.125 C-37.54691406 14.4959375 -37.15632813 13.866875 -36.75390625 13.21875 C-27.70688861 1.71973692 -13.61276586 -0.201212 0 0 Z "
     fill="#A8A9AA"
     transform="translate(159.9375,20.875)"
     id="path3" />
  <path
     d="M0 0 C5.79143678 1.1246634 10.29228134 3.90686769 15.33984375 6.8828125 C16.42354248 7.50647705 17.50724121 8.1301416 18.6237793 8.77270508 C21.47959632 10.42018868 24.32734551 12.08059558 27.17199707 13.74725342 C30.02009982 15.4106057 32.87991758 17.0535815 35.73828125 18.69921875 C39.87673314 21.09024252 44.01444119 23.48238755 48.140625 25.89453125 C48.96602783 26.37623779 49.79143066 26.85794434 50.6418457 27.35424805 C56.75752794 31.15153255 56.75752794 31.15153255 57.35644531 33.65893555 C57.33549805 34.35543213 57.31455078 35.05192871 57.29296875 35.76953125 C57.28007813 36.52685547 57.2671875 37.28417969 57.25390625 38.06445312 C57.22039062 38.85013672 57.186875 39.63582031 57.15234375 40.4453125 C57.13429688 41.24259766 57.11625 42.03988281 57.09765625 42.86132812 C57.05056622 44.82733699 56.97882274 46.79272744 56.90234375 48.7578125 C56.21269531 48.35949219 55.52304688 47.96117187 54.8125 47.55078125 C45.53945849 42.32277019 37.71095765 38.0510557 26.90234375 40.7578125 C18.84033741 44.93811208 15.58452987 51.41608532 12.90234375 59.7578125 C12.28124667 62.4372561 12.02433897 65.01291999 11.90234375 67.7578125 C11.85078125 68.57765625 11.79921875 69.3975 11.74609375 70.2421875 C11.09277825 89.07945097 19.73567781 108.23735665 32.21484375 122.0703125 C39.35111382 129.69603868 47.18810355 134.98005242 56.90234375 138.7578125 C56.928125 139.4590625 56.95390625 140.1603125 56.98046875 140.8828125 C57.46866918 149.04907432 58.8838563 155.19972724 64.96484375 160.9453125 C77.39841419 170.71644816 91.84168524 171.14043923 106.90234375 171.7578125 C106.93971446 173.18469401 106.96624948 174.61186173 106.98828125 176.0390625 C107.0042334 176.83376953 107.02018555 177.62847656 107.03662109 178.44726562 C106.84504025 181.74384947 105.68293335 184.01844389 103.90234375 186.7578125 C100.8529719 188.28249843 98.19281995 188.34402511 94.90234375 187.7578125 C91.23791287 186.19597408 87.87894514 184.17621066 84.46484375 182.1328125 C83.46275879 181.54959229 82.46067383 180.96637207 81.42822266 180.36547852 C78.24499111 178.50945993 75.07387787 176.63373293 71.90234375 174.7578125 C69.86825687 173.56978176 67.83311628 172.38355312 65.796875 171.19921875 C61.77635987 168.86024084 57.75989058 166.5145487 53.74609375 164.1640625 C48.27852538 160.96863666 42.78240446 157.82556993 37.27734375 154.6953125 C29.79124243 150.42994233 22.3327404 146.11955982 14.90234375 141.7578125 C13.51281494 140.94751587 13.51281494 140.94751587 12.09521484 140.12084961 C0.40105014 133.22743583 0.40105014 133.22743583 -3.28515625 126.8828125 C-3.77371094 126.06039062 -4.26226562 125.23796875 -4.765625 124.390625 C-8.04956653 117.89978456 -8.39924788 112.30984777 -8.40405273 105.16601562 C-8.41237625 104.11163803 -8.42069977 103.05726044 -8.42927551 101.97093201 C-8.45332628 98.49360439 -8.46214036 95.0164644 -8.46875 91.5390625 C-8.47771784 89.11820419 -8.48683972 86.69734644 -8.49610901 84.27648926 C-8.5125866 79.20595961 -8.52029729 74.13549591 -8.52319336 69.06494141 C-8.52858543 62.56810728 -8.56630572 56.07189244 -8.61193752 49.57523346 C-8.64167336 44.57722708 -8.64891612 39.57937073 -8.64991951 34.58128357 C-8.65412624 32.18587905 -8.66657852 29.79047426 -8.68743706 27.39515686 C-8.71428668 24.04617585 -8.70954479 20.69864299 -8.69702148 17.34960938 C-8.71185577 16.3613768 -8.72669006 15.37314423 -8.74197388 14.35496521 C-8.69454025 9.90136606 -8.56695019 6.72630454 -5.75379944 3.14318848 C-3.09765625 0.7578125 -3.09765625 0.7578125 0 0 Z "
     fill="#A0D670"
     transform="translate(62.09765625,45.2421875)"
     id="path4" />
  <path
     d="M0 0 C0.60948486 0.27158936 1.21896973 0.54317871 1.84692383 0.82299805 C4.06205668 2.02567483 5.43711383 3.0092576 7 5 C7.86965256 9.13160985 7.66080082 13.11395387 7.4375 17.3125 C7.40591797 18.43462891 7.37433594 19.55675781 7.34179688 20.71289062 C7.25943395 23.47793172 7.14448575 26.23762302 7 29 C6.07006226 29.40593384 6.07006226 29.40593384 5.12133789 29.82006836 C4.30914795 30.17721924 3.49695801 30.53437012 2.66015625 30.90234375 C1.85457275 31.25546631 1.04898926 31.60858887 0.21899414 31.97241211 C-2.75623149 33.35020116 -4.30688205 34.12906087 -6 37 C-6.31875149 40.73317428 -6.17910644 44.23876467 -6 48 C-1.71 47.01 2.58 46.02 7 45 C7 61.5 7 78 7 95 C-11.47788847 88.84070384 -22.72530262 75.84539179 -31.57421875 59.00390625 C-38.50987136 44.3203174 -41.41420695 28.90953756 -37 13 C-34.0018311 4.89557469 -29.89584202 -0.55207899 -22.125 -4.4375 C-14.28891762 -5.84799483 -6.96751912 -3.62225765 0 0 Z "
     fill="#90908F"
     transform="translate(112,89)"
     id="path5" />
  <path
     d="M0 0 C0.97710937 0.31839844 1.95421875 0.63679687 2.9609375 0.96484375 C10.65842258 3.78725495 16.25656687 7.51313374 20 15 C20.57719624 19.78248311 20.49729326 22.94862709 17.875 27.0625 C12.34313537 33.75896771 2.51361094 38.13525596 -6 39 C-20.54636396 39.83462744 -33.57309589 40.16829108 -45.34375 30.49609375 C-49.43818696 26.79758111 -51.79455178 23.83571805 -52.21484375 18.11328125 C-51.70369718 13.0854577 -48.77061399 9.59428729 -45.1171875 6.3046875 C-32.57646884 -2.90417971 -14.68713923 -4.95626076 0 0 Z "
     fill="#FBFC98"
     transform="translate(176,172)"
     id="path6" />
  <path
     d="M0 0 C0.33 0 0.66 0 1 0 C1.33 47.19 1.66 94.38 2 143 C1.01 143.33 0.02 143.66 -1 144 C-2.02281518 146.09719872 -2.02281518 146.09719872 -2.6875 148.5625 C-2.93886719 149.38878906 -3.19023438 150.21507812 -3.44921875 151.06640625 C-3.63097656 151.70449219 -3.81273438 152.34257812 -4 153 C-4.33 153 -4.66 153 -5 153 C-5 135.51 -5 118.02 -5 100 C-7.97 100.99 -10.94 101.98 -14 103 C-15.32 103 -16.64 103 -18 103 C-19.26507785 99.20476645 -19.99106379 95.90008555 -19 92 C-15.04128004 86.86250486 -11.3344549 84.92280382 -5 84 C-5.00666183 83.06118988 -5.01332367 82.12237976 -5.02018738 81.15512085 C-5.08106242 72.29790851 -5.1260033 63.44073874 -5.15543652 54.58336449 C-5.17107726 50.02993408 -5.1922864 45.47667288 -5.22631836 40.92333984 C-5.25896866 36.52724169 -5.27686499 32.13130605 -5.28463173 27.73509598 C-5.29016507 26.0597948 -5.30097039 24.38450228 -5.31719017 22.70927048 C-5.33904018 20.35855801 -5.34196382 18.0085129 -5.34057617 15.65771484 C-5.351362 14.96863037 -5.36214783 14.2795459 -5.3732605 13.56958008 C-5.33792604 8.01987023 -3.94720848 3.94720848 0 0 Z "
     fill="#A3A3A3"
     transform="translate(124,34)"
     id="path7" />
  <path
     d="M0 0 C2.66066717 0.6081525 4.48747336 1.34723806 6.19921875 3.52734375 C7.51216555 5.66033706 8.75693801 7.82551692 10 10 C11.17561701 11.92397817 12.36359643 13.84044571 13.5625 15.75 C14.12066406 16.65234375 14.67882812 17.5546875 15.25390625 18.484375 C16.93504275 21.0677993 16.93504275 21.0677993 19.21484375 23.203125 C21 25 21 25 21 27 C21.66 27 22.32 27 23 27 C24.10644644 28.14102289 25.21179763 29.28312253 26.3125 30.4296875 C31.17693433 34.95631389 36.75072695 38.73463852 43 41 C43 43.97 43 46.94 43 50 C26.47534448 45.66566413 15.37827691 32.96171197 6.98681641 18.73974609 C3.64055146 12.84031908 0.55548985 6.85104152 0 0 Z "
     fill="#818280"
     transform="translate(76,134)"
     id="path8" />
  <path
     d="M0 0 C0 2.31 0 4.62 0 7 C-8.42857143 9.28571429 -8.42857143 9.28571429 -13 9 C-11.50521886 5.19510255 -9.30557786 3.33809165 -6 1 C-3 0 -3 0 0 0 Z "
     fill="#B2B3B4"
     transform="translate(119,118)"
     id="path9" />
  <path
     style="fill:#4d4d4d;stroke-width:0.308063"
     d="m 154.2755,231.53214 c -1.64474,-0.84824 -7.3285,-4.09244 -12.63056,-7.20933 -15.71445,-9.23794 -31.1696,-18.22082 -41.678634,-24.22455 -15.194873,-8.68071 -30.187315,-17.46696 -33.445387,-19.6005 -1.620955,-1.06148 -3.439326,-2.47469 -4.040824,-3.14048 -1.796816,-1.98886 -5.432115,-8.38008 -6.557474,-11.5287 -2.103465,-5.88524 -2.027906,-3.85792 -2.225106,-59.70102 -0.136262,-38.586576 -0.09135,-50.780729 0.19202,-52.13171 0.692599,-3.302042 2.550395,-5.980395 5.256105,-7.577636 1.992682,-1.176326 3.946448,-1.073807 7.784864,0.408491 3.18301,1.229198 4.776537,2.118396 29.801145,16.62925 17.059671,9.892278 19.714671,11.499436 21.025271,12.727261 l 0.84717,0.793667 v 8.145258 8.145258 l -1.36506,-1.25827 c -1.5645,-1.442108 -6.67766,-4.093224 -10.95744,-5.681314 -4.65679,-1.727982 -7.30268,-2.220873 -11.860411,-2.209419 -3.913781,0.0098 -4.04683,0.03261 -5.853189,1.002029 -9.365229,5.026026 -14.380066,13.991691 -15.600742,27.891435 -1.045072,11.90017 2.57164,26.94685 9.299983,38.69094 6.220072,10.8569 13.732273,19.72858 21.241799,25.0859 3.51999,2.51118 9.21724,5.42265 12.79248,6.53735 l 2.61064,0.81395 v 1.3342 c 0,2.2911 0.89535,8.29141 1.56661,10.4989 1.3623,4.47998 4.28812,8.67883 7.90457,11.34385 6.03254,4.44546 14.22338,7.43172 23.64555,8.6208 4.22601,0.53332 11.65866,1.0848 14.68112,1.08929 l 2.05056,0.003 0.12567,3.15765 c 0.17192,4.31948 -0.18355,6.41942 -1.55139,9.16486 -1.5211,3.05302 -2.34328,3.48904 -6.83424,3.62434 l -3.23466,0.0975 z"
     id="path10" />
  <path
     style="fill:#4d4d4d;stroke-width:0.308063"
     d="m 161.27076,216.51922 c -14.40335,-0.85788 -23.10946,-3.18881 -31.05856,-8.31547 -2.87263,-1.85266 -4.89289,-3.81128 -6.66658,-6.46315 -1.79453,-2.68306 -2.66423,-4.87721 -3.40297,-8.58537 -0.84124,-4.22259 -0.98015,-6.00722 -0.46759,-6.00722 0.27488,0 0.94937,-1.58327 1.90293,-4.4669 1.4295,-4.32292 1.50467,-4.46691 2.33223,-4.46691 1.10549,0 2.08737,-0.99426 2.08737,-2.11369 0,-0.77936 0.18731,-0.95311 1.61756,-1.50043 0.88965,-0.34045 3.00373,-1.40127 4.69795,-2.35737 3.96213,-2.23594 8.36149,-3.95046 13.13865,-5.12037 3.44401,-0.84343 4.74611,-0.9808 13.73959,-1.44953 l 9.93501,-0.5178 V 93.619702 22.084391 l 1.33902,-0.456247 c 1.27513,-0.434482 1.52865,-0.408264 5.31408,0.549582 4.00653,1.013791 8.39719,2.60268 11.5226,4.169786 5.40613,2.710683 10.85175,8.449663 13.63852,14.373243 l 0.98792,2.099943 0.28024,69.776172 c 0.29444,73.30935 0.25789,76.18186 -1.03271,81.17449 -1.47043,5.68825 -4.13458,9.78749 -8.54227,13.1437 -7.7306,5.88642 -13.70185,8.44905 -20.50379,8.79943 -2.50117,0.12884 -3.31167,0.27301 -3.31167,0.58906 0,0.41137 -2.88018,0.49367 -7.54753,0.21567 z m 11.55234,-5.80933 c 7.68129,-1.49468 14.74786,-5.02761 19.49371,-9.74588 3.04475,-3.02706 4.46926,-7.2521 4.03185,-11.9584 -0.27314,-2.93888 -1.61995,-5.21844 -5.19336,-8.79011 -4.05276,-4.05078 -8.03438,-6.19902 -15.91344,-8.58595 -5.97481,-1.81004 -8.55832,-2.16992 -15.66545,-2.18217 -5.47114,-0.009 -6.78882,0.0868 -9.858,0.7196 -9.29416,1.91638 -16.56802,5.46073 -21.15793,10.30965 -3.69573,3.90428 -5.28209,7.69738 -4.70539,11.25089 0.43568,2.68459 1.18434,4.54937 2.58277,6.43326 5.12422,6.90304 14.35498,11.70418 24.9749,12.99002 3.86466,0.46793 18.26359,0.17141 21.41034,-0.44091 z"
     id="path11" />
  <path
     style="fill:#666666;stroke-width:0.308063"
     d="m 125.97913,161.6766 c -0.0101,-7.25474 -0.0633,-14.50741 -0.11811,-16.11703 -0.0548,-1.60963 -0.20219,-21.36414 -0.32752,-43.89892 -0.12534,-22.534778 -0.26502,-42.219976 -0.3104,-43.744886 -0.0454,-1.52491 -0.0976,-7.520577 -0.1161,-13.323706 -0.0307,-9.640555 -0.078,-10.551143 -0.54845,-10.551143 -0.28317,0 -0.76836,0.229427 -1.07822,0.509839 -0.40042,0.362378 -0.56336,0.395205 -0.56336,0.113497 0,-0.21799 1.36168,-1.729728 3.02596,-3.359419 3.09597,-3.031637 6.28365,-5.192842 9.6046,-6.511807 2.46261,-0.97806 2.90901,-1.149176 3.08063,-1.180889 0.0847,-0.01565 0.84717,-0.241015 1.69434,-0.5008 0.84718,-0.259786 3.06523,-0.76853 4.929,-1.130542 2.99849,-0.582413 4.66571,-0.669215 14.47895,-0.753826 8.34673,-0.07197 10.84257,-0.01198 10.08904,0.242476 l -1.0012,0.338096 v 71.533399 71.533401 l -7.62455,0.37596 c -4.1935,0.20678 -8.8722,0.50548 -10.39711,0.66377 -5.31932,0.55216 -11.44726,2.4142 -16.47273,5.00539 -5.52621,2.84938 -6.88639,3.51578 -7.63317,3.73972 l -0.69314,0.20785 z"
     id="path12" />
  <path
     style="fill:#666666;stroke-width:0.308063"
     d="m 119.11659,177.83818 c -0.11182,-4.96094 -0.20356,-16.81772 -0.20387,-26.34841 -4.6e-4,-13.95509 -0.078,-17.32852 -0.39847,-17.32852 -0.21885,0 -2.25784,0.62383 -4.5311,1.38628 -3.12354,1.04765 -4.59829,1.38628 -6.0372,1.38628 h -1.90401 l -0.57331,-2.07942 c -0.39141,-1.41962 -0.57332,-3.11057 -0.57332,-5.3292 v -3.24979 l 1.50713,-1.76374 c 0.82892,-0.97006 1.57898,-1.6919 1.66678,-1.60409 0.0878,0.0878 -0.0544,0.4031 -0.316,0.70065 -0.67431,0.76694 -1.85549,3.18642 -1.65397,3.38794 0.0928,0.0928 1.31545,0.15944 2.71704,0.14812 1.8,-0.0145 3.62173,-0.30012 6.20364,-0.97252 2.01042,-0.52356 3.78848,-1.03424 3.95126,-1.13484 0.18556,-0.11468 0.23618,-4.7382 0.13571,-12.39571 -0.0881,-6.71705 -0.18883,-21.085013 -0.22377,-31.928815 -0.0349,-10.843803 -0.1605,-19.092178 -0.27904,-18.329724 l -0.21552,1.386282 -0.0463,-1.635509 c -0.026,-0.918718 0.0769,-1.559392 0.23475,-1.46183 0.31892,0.197103 0.26139,-0.621778 -0.0667,-0.949901 -0.289,-0.289006 -0.27438,-2.268041 0.0168,-2.268051 0.12707,-4e-6 0.23228,-2.945853 0.23378,-6.546329 0.003,-7.125669 0.27516,-8.870109 1.90899,-12.235519 0.87575,-1.803879 2.99743,-4.322837 3.64107,-4.322837 0.61546,0 0.73909,5.300314 0.91259,39.123947 0.1995,38.890866 0.41795,68.318716 0.64832,87.335736 0.11877,9.80413 0.0726,15.06287 -0.13714,15.60564 -0.21192,0.54853 -0.62835,0.88719 -1.2621,1.02638 -0.52021,0.11426 -1.14236,0.40426 -1.38255,0.64445 -0.49559,0.49559 -1.6228,3.36152 -1.86674,4.74618 -0.23199,1.31678 -1.24964,3.80884 -1.60354,3.92681 -0.18688,0.0623 -0.37648,-3.29897 -0.50317,-8.91994 z"
     id="path13" />
  <path
     style="fill:#333333;stroke-width:0.308063"
     d="m 116.35179,173.76311 c -4.91645,-2.13756 -9.94745,-5.61968 -14.54384,-10.06626 -2.340344,-2.26407 -2.993205,-2.73415 -3.797251,-2.73415 -0.877961,0 -0.970988,-0.0904 -0.970988,-0.9437 0,-0.75059 -0.460385,-1.42823 -2.249951,-3.31167 -2.172337,-2.28629 -5.705668,-7.63601 -10.516491,-15.92273 -0.983645,-1.69435 -2.276325,-3.59192 -2.872622,-4.21683 -1.031705,-1.0812 -2.948481,-2.0988 -4.750884,-2.52219 -0.807003,-0.18957 -0.823455,-0.1652 -0.649537,0.96179 0.31259,2.02561 -0.141773,0.94793 -0.958102,-2.27247 -1.417975,-5.59388 -1.854633,-9.32209 -1.83544,-15.67112 0.03147,-10.41134 1.920583,-17.373083 6.444756,-23.750188 1.844836,-2.600412 5.457103,-5.881552 8.1909,-7.440061 2.082031,-1.186944 2.550301,-1.326254 5.052889,-1.503221 5.629643,-0.398094 11.330921,1.010015 18.787391,4.640136 2.53192,1.232644 4.54977,2.450582 5.46331,3.297561 l 1.44856,1.343016 0.14075,3.080626 c 0.13025,2.851117 0.29243,18.330091 0.21221,20.255111 -0.032,0.76896 -0.14309,0.84718 -1.20282,0.84718 -2.27978,0 -4.53302,0.84179 -7.0352,2.6283 -2.72898,1.94845 -4.7359,3.7845 -4.7359,4.33266 0,0.20164 -0.20068,0.44362 -0.44595,0.53774 -0.73496,0.28203 -1.17822,2.61859 -1.01193,5.33428 0.0846,1.38208 0.26531,2.69318 0.4015,2.91356 0.1362,0.22037 0.28359,0.73785 0.32752,1.14995 0.0439,0.4121 0.17928,0.97247 0.30075,1.24528 0.12148,0.27281 0.23387,0.63464 0.24977,0.80407 0.0385,0.41041 4.42486,0.36159 5.4154,-0.0603 0.42359,-0.1804 0.83947,-0.33627 0.92419,-0.34638 0.0847,-0.0101 1.35593,-0.44261 2.82492,-0.9611 1.46899,-0.51849 2.87371,-0.94271 3.12161,-0.94271 0.38406,0 0.48191,1.74286 0.66159,11.7834 0.11598,6.48086 0.16685,15.55737 0.11305,20.17001 l -0.0978,8.38662 z"
     id="path14" />
  <path
     style="fill:#333333;stroke-width:0.308063"
     d="m 156.95788,216.06788 c -11.01658,-1.04426 -18.42675,-3.14267 -25.16603,-7.12653 -7.17024,-4.23861 -10.59278,-9.52604 -11.98395,-18.51378 -0.33172,-2.14316 -0.31554,-2.51944 0.14165,-3.2934 0.28389,-0.48059 1.12737,-2.56607 1.8744,-4.63442 1.33795,-3.70445 1.69065,-4.2715 2.6626,-4.28083 0.6464,-0.006 1.37863,-0.87393 1.62992,-1.93151 0.17463,-0.73495 0.90396,-1.2002 5.44671,-3.47455 10.69167,-5.35283 14.14708,-6.25452 26.47292,-6.90815 3.30397,-0.17521 7.1509,-0.40089 8.54874,-0.5015 l 2.54151,-0.18295 V 93.769775 22.319287 l 0.84718,-0.352399 c 1.39971,-0.582241 3.11301,-0.399226 7.16245,0.765094 5.12754,1.4743 9.8746,3.469549 12.65948,5.320938 4.35857,2.897565 9.16425,8.563575 11.24081,13.253148 l 0.80709,1.822693 0.0458,73.010829 c 0.05,79.59452 0.14842,75.0023 -1.71922,80.18474 -1.7446,4.84099 -4.71371,8.45157 -9.99591,12.15548 -6.49387,4.55354 -11.21284,6.419 -17.81305,7.04167 -1.86378,0.17583 -3.52038,0.44857 -3.68135,0.60609 -0.35255,0.345 -7.85547,0.3068 -11.72178,-0.0597 z m 16.42397,-5.34142 c 9.33634,-1.84071 19.08956,-7.87125 21.69189,-13.41238 1.75603,-3.73912 1.91781,-8.60681 0.39316,-11.82967 -0.98031,-2.07221 -4.98442,-6.42014 -7.69131,-8.35173 -3.74153,-2.6699 -11.05145,-5.57345 -17.57102,-6.97931 -3.61633,-0.77982 -13.58699,-1.11357 -17.55956,-0.58778 -8.05781,1.06649 -16.65634,4.43526 -21.67205,8.49077 -2.48978,2.01314 -4.83138,4.88353 -6.14727,7.53545 -1.04749,2.11103 -1.13529,2.49299 -1.09764,4.77497 0.0832,5.04089 2.61827,9.23162 8.06914,13.33898 5.13368,3.86834 11.60962,6.41355 19.3075,7.58835 0.50831,0.0776 5.15235,0.0952 10.3201,0.0392 7.12043,-0.0772 10.01616,-0.22416 11.95706,-0.60682 z"
     id="path15" />
  <path
     style="fill:#4d4d4d;stroke-width:0.308063"
     d="m 126.00092,161.80987 c 0.006,-21.97617 -0.61319,-115.001806 -0.80859,-121.530688 -0.17496,-5.846002 -0.22331,-6.238267 -0.76894,-6.238267 -0.95482,0 -0.68811,-0.446438 1.47627,-2.471115 5.37726,-5.030164 10.22351,-7.463787 18.42766,-9.253756 2.73944,-0.597687 4.27477,-0.688539 13.86281,-0.820317 l 10.78219,-0.148191 -0.0783,71.631575 -0.0783,71.631569 -1.9241,0.17001 c -1.05825,0.0935 -3.65694,0.24989 -5.77487,0.34754 -14.56739,0.67161 -18.59711,1.6042 -28.75794,6.65542 -3.02456,1.50359 -5.69316,2.7338 -5.9302,2.7338 -0.36237,0 -0.43047,-2.02329 -0.42767,-12.70758 z"
     id="path16" />
  <path
     style="fill:#666666;stroke-width:0.308063"
     d="m 119.50782,186.53189 c -0.0945,-0.4869 -0.60347,-40.64921 -0.58268,-45.97834 0.0227,-5.80534 -0.0229,-6.3923 -0.49556,-6.3923 -0.28628,0 -2.30227,0.54881 -4.47999,1.21956 -2.29469,0.70679 -4.75444,1.25728 -5.85017,1.30927 l -1.89069,0.0897 -0.44714,-1.38628 c -0.24592,-0.76245 -0.52491,-3.06916 -0.61997,-5.12602 l -0.17284,-3.73975 0.87607,-1.09795 c 1.0719,-1.34337 1.25442,-1.26205 0.53823,0.23982 -0.46937,0.98428 -0.48132,1.17233 -0.0902,1.4197 1.01911,0.64459 5.61712,0.12053 10.12586,-1.15409 l 2.89767,-0.81917 -0.26477,-31.289668 c -0.29464,-34.819342 -0.24528,-47.261998 0.19928,-50.235518 0.16465,-1.101323 0.75972,-2.972803 1.32238,-4.158844 1.07044,-2.256411 3.34244,-5.09744 3.75415,-4.694392 0.13181,0.129035 0.34284,5.258277 0.46896,11.398315 0.34219,16.659327 1.00321,129.397737 0.76314,130.154147 -0.12082,0.38066 -0.65141,0.8003 -1.27005,1.00447 -1.43603,0.47394 -1.83132,1.12608 -3.07824,5.07849 -0.94466,2.99434 -1.61283,4.62564 -1.70343,4.15885 z"
     id="path17" />
  <path
     style="fill:#4d4d4d;stroke-width:0.308063"
     d="m 115.33969,182.71067 c -6.75654,-2.45422 -12.77528,-6.39601 -18.625228,-12.19803 -4.262762,-4.22785 -6.123398,-6.46816 -9.600539,-11.5596 -5.807821,-8.50416 -9.241597,-15.64971 -10.553958,-21.96235 -0.600873,-2.89028 -0.603417,-2.86595 0.282899,-2.70523 2.534707,0.45963 5.855785,3.43168 7.174415,6.42042 0.280741,0.63632 0.60736,1.15694 0.725819,1.15694 0.118459,0 0.302363,0.34657 0.408677,0.77015 0.106313,0.42359 0.329284,0.77016 0.49549,0.77016 0.166206,0 0.302193,0.17645 0.302193,0.3921 0,0.21566 0.503524,1.1514 1.118941,2.07942 0.615417,0.92803 2.004232,3.17323 3.086255,4.98934 1.082024,1.81611 2.668663,4.03416 3.525866,4.929 2.353513,2.45685 3.140179,3.56937 3.174244,4.48907 0.02485,0.67099 0.183845,0.84058 0.810794,0.86483 1.167271,0.0451 1.785318,0.47268 4.145912,2.86798 1.18428,1.20169 2.23558,2.18489 2.33623,2.18489 0.10065,0 0.78364,0.55451 1.51776,1.23225 0.73413,0.67774 1.45638,1.23225 1.60502,1.23225 0.14864,0 0.6339,0.3372 1.07837,0.74933 0.44447,0.41213 1.30272,1.0013 1.90724,1.30927 0.60453,0.30796 1.27535,0.72414 1.49073,0.92483 0.21538,0.20069 0.7027,0.45969 1.08292,0.57555 0.38023,0.11586 0.94847,0.43685 1.26277,0.71332 0.3143,0.27647 0.59156,0.44827 0.61613,0.38178 0.0246,-0.0665 1.01507,0.33094 2.20111,0.88318 l 2.15644,1.00407 -0.0933,4.27687 c -0.067,3.07472 -0.19693,4.27254 -0.46209,4.26148 -0.20286,-0.008 -1.62988,-0.47343 -3.17115,-1.03327 z"
     id="path18" />
  <path
     style="fill:#3f3f3f;stroke-width:0.308063;fill-opacity:1"
     d="m 126.19295,168.58724 c -0.0987,-3.09217 -0.26429,-27.94127 -0.3679,-55.22021 -0.10361,-27.278943 -0.28831,-56.165173 -0.41044,-64.191623 -0.21026,-13.817646 -0.25304,-14.616199 -0.80473,-15.019604 -0.55532,-0.406055 -0.52557,-0.485646 0.63357,-1.695342 4.6351,-4.83726 10.10847,-7.808801 17.83965,-9.685314 3.3123,-0.80396 5.15936,-0.926481 18.26533,-1.211586 l 7.47117,-0.162527 -0.0777,71.55219 -0.0777,71.552196 -3.08063,0.20062 c -1.69434,0.11035 -5.64524,0.36271 -8.77978,0.56081 -10.63656,0.67221 -14.5884,1.6904 -24.08621,6.20581 -3.16607,1.5052 -5.88895,2.73673 -6.05084,2.73673 -0.16977,0 -0.37031,-2.37936 -0.47385,-5.62215 z"
     id="path19" />
  <path
     style="fill:#222222;fill-opacity:1;stroke-width:0.308063"
     d="m 119.41664,181.87364 c -0.21859,-5.74625 -0.54266,-32.52827 -0.49814,-41.16834 0.0265,-5.14544 -0.0451,-6.27018 -0.40791,-6.40942 -0.24204,-0.0929 -2.2504,0.38698 -4.46304,1.06634 -2.3799,0.73073 -4.81051,1.27245 -5.95121,1.32639 l -1.92824,0.0912 -0.43278,-1.38628 c -0.23803,-0.76245 -0.50788,-3.06916 -0.59966,-5.12602 l -0.16688,-3.73975 0.87607,-1.09795 c 1.0719,-1.34337 1.25442,-1.26205 0.53823,0.23982 -0.46937,0.98428 -0.48132,1.17233 -0.0902,1.4197 1.00819,0.63768 6.19013,2e-4 10.73863,-1.32106 l 2.2782,-0.66177 -0.26589,-31.284882 c -0.29296,-34.469469 -0.2421,-47.203846 0.20058,-50.230734 0.36215,-2.476228 2.29104,-6.530109 3.80106,-7.98857 0.602,-0.581439 1.19018,-0.961516 1.30708,-0.844615 0.11691,0.116901 0.31622,5.098039 0.44291,11.069196 0.33081,15.590147 1.01256,129.408865 0.78068,130.332765 -0.13388,0.53342 -0.5297,0.88511 -1.27178,1.13002 -1.45177,0.47913 -1.84376,1.12334 -3.09309,5.08339 -0.58799,1.86378 -1.19177,3.57985 -1.34173,3.81348 -0.1685,0.26252 -0.3415,-1.38494 -0.45288,-4.31288 z"
     id="path20" />
  <path
     style="fill:#303030;fill-opacity:1;stroke-width:0.308063"
     d="m 126.49724,171.51384 c -0.24803,-3.27879 -0.46359,-27.67047 -0.68267,-77.246692 -0.21033,-47.596248 -0.41225,-59.304686 -1.0357,-60.055902 -0.45903,-0.5531 -0.18019,-0.943283 2.41127,-3.374122 3.79511,-3.559875 9.34805,-6.322293 15.90493,-7.912209 2.69795,-0.654202 9.89903,-1.122837 19.74872,-1.285218 l 5.88591,-0.09703 -0.14762,71.327344 c -0.0812,39.230039 -0.18724,71.372459 -0.23566,71.427599 -0.0484,0.0551 -2.07614,0.22843 -4.50604,0.3851 -17.92558,1.15578 -20.1653,1.6328 -30.92734,6.58698 -3.1442,1.4474 -5.83338,2.63163 -5.97596,2.63163 -0.14258,0 -0.34051,-1.07436 -0.43984,-2.38748 z"
     id="path21" />
  <path
     style="fill:#3c3c3c;fill-opacity:1;stroke-width:0.308063"
     d="m 154.14505,215.62409 c -9.89082,-1.19919 -17.98906,-3.86627 -23.87405,-7.86269 -5.53273,-3.7572 -8.64642,-8.62601 -9.99854,-15.63447 -0.65112,-3.37499 -0.53439,-4.13055 1.36413,-8.8297 1.62126,-4.01285 1.82193,-4.35171 2.88469,-4.87114 0.76892,-0.37581 1.26321,-0.89284 1.51241,-1.582 0.45134,-1.24815 1.79394,-2.09806 8.04874,-5.09513 9.29158,-4.45217 13.12814,-5.23495 29.4988,-6.01871 2.11793,-0.1014 4.23201,-0.2562 4.69795,-0.344 l 0.84717,-0.15963 V 93.792944 22.359269 l 1.23945,-0.371347 c 3.44279,-1.031486 16.19,3.577855 21.29692,7.700886 3.54575,2.862633 7.17924,7.39412 9.05367,11.291224 l 1.0646,2.213379 -0.008,68.665629 c -0.005,37.7661 -0.13306,71.44701 -0.28545,74.84647 -0.30965,6.90788 -0.60463,8.19979 -2.87951,12.61098 -2.80084,5.43107 -11.20963,11.92747 -18.77226,14.50293 -1.14155,0.38876 -3.49823,0.92818 -5.23706,1.19872 -1.73883,0.27054 -3.91242,0.62596 -4.83021,0.78983 -2.34888,0.41936 -11.53973,0.31119 -15.62307,-0.18388 z m 15.91897,-4.44365 c 5.98834,-0.49635 12.20639,-2.6965 17.52686,-6.20158 6.80413,-4.48251 9.29446,-8.82146 8.8796,-15.47113 -0.23407,-3.75176 -1.3397,-5.65026 -5.85101,-10.04683 -3.90185,-3.80261 -10.45787,-6.95483 -18.87458,-9.07515 -5.08551,-1.28113 -16.40025,-1.53113 -21.83446,-0.48243 -8.76001,1.6905 -17.09627,5.67828 -21.25076,10.16562 -5.48962,5.92945 -6.42953,10.41649 -3.45105,16.47498 2.50587,5.09716 9.58506,10.27891 17.66197,12.92802 5.21732,1.71121 7.2593,1.96824 15.78164,1.98647 4.32057,0.009 9.45588,-0.11584 11.41179,-0.27797 z"
     id="path22" />
  <path
     style="fill:#282828;fill-opacity:1;stroke-width:0.308063"
     d="m 119.70076,184.21144 c -0.11228,-0.59851 -0.32171,-12.0445 -0.4654,-25.43553 -0.14369,-13.39103 -0.3541,-24.44018 -0.46759,-24.55367 -0.11348,-0.11348 -1.68699,0.18957 -3.49668,0.67345 -4.54655,1.21568 -6.81869,1.70654 -7.95816,1.71924 -1.29636,0.0145 -1.5849,-0.85598 -1.97451,-5.95652 -0.23608,-3.09054 -0.21761,-4.06768 0.0837,-4.43078 0.33515,-0.40383 0.41015,-0.36813 0.56345,0.26818 0.17151,0.71191 0.2645,0.7331 3.08599,0.70291 2.67965,-0.0287 8.93658,-1.21576 10.04527,-1.90584 0.27242,-0.16956 0.28493,-8.00652 0.052,-32.567952 -0.32864,-34.656606 -0.19349,-47.448594 0.53071,-50.228967 0.56246,-2.159427 2.01932,-5.041075 3.26705,-6.462158 0.80001,-0.91116 1.02632,-1.028892 1.24087,-0.645518 0.39851,0.712101 0.82522,37.687959 1.06206,92.032395 l 0.21296,48.86471 -0.89771,0.55919 c -1.85672,1.15655 -2.26554,1.7752 -3.37665,5.10971 -0.61309,1.83994 -1.15714,3.34535 -1.20899,3.34535 -0.0519,0 -0.18615,-0.48969 -0.29843,-1.0882 z"
     id="path23" />
  <path
     style="fill:#554400;fill-opacity:1;stroke-width:0.308063"
     d="m 151.56679,210.85827 c -9.26571,-1.13594 -16.88988,-4.58162 -22.47964,-10.1595 -2.71113,-2.70537 -4.15836,-5.2144 -4.80977,-8.33858 -0.40516,-1.94314 -0.40425,-2.3954 0.008,-4.00468 0.63828,-2.49146 1.66063,-4.37822 3.70968,-6.84625 2.21337,-2.66595 4.96734,-4.69379 9.24679,-6.80872 6.48394,-3.2044 12.75825,-4.73803 20.52252,-5.0163 6.14567,-0.22027 10.8123,0.3346 16.37797,1.94736 10.87123,3.15015 16.68632,6.98664 20.67857,13.64261 1.83274,3.05558 1.77355,7.88372 -0.14617,11.92198 -1.96096,4.12502 -8.66005,9.01593 -15.92335,11.62542 -4.69628,1.68723 -7.53872,2.06448 -16.55647,2.19735 -4.57473,0.0674 -9.3574,-0.005 -10.62816,-0.16069 z"
     id="path24" />
</svg>
