<?xml version="1.0" encoding="UTF-8" standalone="no"?>
<!-- Uploaded to: SVG Repo, www.svgrepo.com, Generator: SVG Repo Mixer Tools -->

<svg
   height="800px"
   width="800px"
   version="1.1"
   id="Layer_1"
   viewBox="0 0 512 512"
   xml:space="preserve"
   sodipodi:docname="outside-lantern.svg"
   inkscape:version="1.2 (dc2aedaf03, 2022-05-15)"
   xmlns:inkscape="http://www.inkscape.org/namespaces/inkscape"
   xmlns:sodipodi="http://sodipodi.sourceforge.net/DTD/sodipodi-0.dtd"
   xmlns="http://www.w3.org/2000/svg"
   xmlns:svg="http://www.w3.org/2000/svg"><defs
   id="defs20728" /><sodipodi:namedview
   id="namedview20726"
   pagecolor="#ffffff"
   bordercolor="#000000"
   borderopacity="0.25"
   inkscape:showpageshadow="2"
   inkscape:pageopacity="0.0"
   inkscape:pagecheckerboard="0"
   inkscape:deskcolor="#d1d1d1"
   showgrid="false"
   inkscape:zoom="1.05875"
   inkscape:cx="400.94451"
   inkscape:cy="400.47226"
   inkscape:window-width="1920"
   inkscape:window-height="1027"
   inkscape:window-x="-8"
   inkscape:window-y="-8"
   inkscape:window-maximized="1"
   inkscape:current-layer="Layer_1" />
<path
   style="fill:#6A563D;"
   d="M256,0c-27.619,0-50.087,22.468-50.087,50.087s22.468,50.087,50.087,50.087  s50.087-22.468,50.087-50.087S283.619,0,256,0z M256,66.783c-9.206,0-16.696-7.49-16.696-16.696s7.49-16.696,16.696-16.696  s16.696,7.49,16.696,16.696S265.206,66.783,256,66.783z"
   id="path20701" />
<path
   style="fill:#554431;"
   d="M256,0v33.391c9.206,0,16.696,7.49,16.696,16.696S265.206,66.783,256,66.783v33.391  c27.619,0,50.087-22.468,50.087-50.087S283.619,0,256,0z"
   id="path20703" />
<path
   style="fill:#6A563D;"
   d="M409.066,200.348H102.934c-5.631,0-10.886-2.837-13.973-7.554  c-3.082-4.717-3.582-10.663-1.326-15.826C116.886,110.032,182.968,66.783,256,66.783s139.119,43.25,168.37,110.185  c2.249,5.163,1.75,11.108-1.337,15.826C419.947,197.512,414.695,200.348,409.066,200.348z"
   id="path20705" />
<path
   style="fill:#554431;"
   d="M256,66.783v133.565h153.066c5.631,0,10.88-2.837,13.968-7.554  c3.088-4.717,3.587-10.663,1.337-15.826C395.119,110.032,329.032,66.783,256,66.783z"
   id="path20707" />
<path
   style="fill:#FFDA44;"
   d="M356.174,500.87H155.826c-8.348,0-15.413-6.163-16.543-14.435l-33.391-233.739  c-0.652-4.783,0.794-9.609,3.967-13.24c3.169-3.63,7.756-5.717,12.576-5.717h267.13c4.826,0,9.402,2.087,12.576,5.718  c3.174,3.631,4.619,8.457,3.967,13.24l-33.391,233.739C371.587,494.707,364.522,500.87,356.174,500.87z"
   id="path20709" />
<path
   style="fill:#FFB655;"
   d="M389.565,233.739H256v267.13h100.174c8.348,0,15.413-6.163,16.543-14.435l33.391-233.739  c0.652-4.783-0.794-9.609-3.967-13.24C398.968,235.825,394.391,233.739,389.565,233.739z"
   id="path20711" />
<path
   style="fill:#6A563D;"
   d="M422.957,267.13H89.043c-27.619,0-50.087-22.468-50.087-50.087s22.468-50.087,50.087-50.087h333.913  c27.619,0,50.087,22.468,50.087,50.087S450.576,267.13,422.957,267.13z"
   id="path20713" />
<path
   style="fill:#554431;"
   d="M422.957,166.957H256V267.13h166.957c27.619,0,50.087-22.468,50.087-50.087  S450.576,166.957,422.957,166.957z"
   id="path20715" />
<path
   style="fill:#6A563D;"
   d="M256,512c-9.217,0-16.696-7.479-16.696-16.696v-244.87c0-9.217,7.479-16.696,16.696-16.696  s16.696,7.479,16.696,16.696v244.87C272.696,504.521,265.217,512,256,512z"
   id="path20717" />
<path
   style="fill:#554431;"
   d="M256,233.739V512c9.217,0,16.696-7.479,16.696-16.696v-244.87  C272.696,241.218,265.217,233.739,256,233.739z"
   id="path20719" />
<path
   style="fill:#6A563D;"
   d="M389.565,512h-267.13c-9.223,0-16.696-7.479-16.696-16.696c0-9.217,7.473-16.696,16.696-16.696  h267.13c9.217,0,16.696,7.479,16.696,16.696C406.261,504.521,398.782,512,389.565,512z"
   id="path20721" />
<path
   style="fill:#999999"
   d="M389.565,478.609H256V512h133.565c9.217,0,16.696-7.479,16.696-16.696  C406.261,486.087,398.782,478.609,389.565,478.609z"
   id="path20723" />
<path
   style="fill:#666666;stroke-width:0.94451"
   d="m 184.6456,798.64525 c -4.33227,-1.31782 -7.98676,-3.64703 -11.46007,-7.30412 -4.79843,-5.05235 -6.65142,-9.19077 -7.20541,-16.09244 -0.42724,-5.32245 -0.15535,-6.60051 2.59087,-12.17888 3.17923,-6.45794 8.03612,-10.91361 14.49011,-13.29311 2.22234,-0.81935 27.60095,-1.12754 97.22225,-1.18064 l 94.21488,-0.0719 V 582.78628 417.04835 l -123.96694,-0.2788 c -117.32563,-0.26387 -124.29585,-0.37248 -130.10626,-2.02728 -32.501555,-9.25643 -55.24486,-35.61988 -58.537535,-67.8552 -2.251274,-22.03999 5.301849,-44.20649 20.582695,-60.40499 14.580454,-15.45605 31.93381,-23.60509 53.24036,-25.0014 l 9.38766,-0.61521 2.29773,-4.53436 c 1.26376,-2.4939 4.68862,-8.48497 7.61081,-13.31349 36.48065,-60.27934 95.77687,-106.11888 163.10512,-126.09005 9.43281,-2.79799 11.98227,-3.89781 11.59774,-5.00313 -0.27108,-0.77922 -1.87835,-5.24203 -3.57169,-9.91736 -2.99274,-8.26294 -3.07884,-8.923069 -3.07962,-23.612747 -7.7e-4,-14.629331 0.0983,-15.398841 3.09958,-24.085006 4.05594,-11.738289 9.23042,-20.31798 17.51574,-29.042435 7.74954,-8.160285 14.8422,-13.253079 24.98173,-17.9378327 7.24698,-3.348308 21.35676,-6.82181415 27.80274,-6.84439607 L 400,0.47225502 V 25.891005 51.309756 l -4.01417,0.669562 c -18.2335,3.04134 -27.897,22.883788 -19.05579,39.12801 4.15799,7.6396 12.78668,13.261032 20.35518,13.261032 H 400 v 347.57969 347.57969 l -106.49351,-0.0812 c -58.57143,-0.0447 -107.55883,-0.40524 -108.86089,-0.80132 z"
   id="path20730"
   transform="scale(0.64)" /><path
   style="fill:#4d4d4d;stroke-width:0.94451"
   d="M 400,556.84851 V 366.11733 l 3.06966,-0.38094 3.06966,-0.38095 -3.06966,-0.15115 L 400,365.05313 v -51.96957 -51.96957 l 136.71783,0.27452 c 153.99576,0.3092 140.23979,-0.36734 157.49705,7.74587 18.00445,8.4645 32.00118,23.49187 39.06843,41.94525 4.01061,10.47216 5.20234,17.22956 5.10451,28.94398 -0.28935,34.64664 -22.58586,63.71397 -57.0093,74.32141 l -6.99835,2.15651 -123.94344,0.2734 -123.94343,0.27339 -0.28473,-15.37185 c -0.1566,-8.45453 -0.37969,65.91503 -0.49576,165.26568 l -0.21104,180.63754 H 412.75089 400 Z m 25.20247,-173.08228 c -0.30151,-0.75346 -0.52532,-0.52966 -0.57064,0.57065 -0.041,0.99566 0.18222,1.55352 0.49607,1.23967 0.31385,-0.31386 0.34741,-1.1285 0.0746,-1.81032 z m -0.64521,-2.47591 c 0,-0.42019 -0.64445,-1.58902 -1.43211,-2.5974 -1.32799,-1.70011 -1.3513,-1.64455 -0.32065,0.76399 1.11207,2.59881 1.75276,3.26898 1.75276,1.83341 z m -2.83353,-5.19004 c 0,-0.15784 -1.59386,-1.7517 -3.54191,-3.54191 l -3.54191,-3.25495 3.25493,3.54192 c 3.02963,3.29673 3.82889,3.97619 3.82889,3.25494 z m -8.91724,-7.7714 c -1.00838,-0.7627 -2.28347,-1.37167 -2.83353,-1.35326 -0.55006,0.0184 0.0625,0.64089 1.36116,1.38329 3.05951,1.74898 3.80434,1.73378 1.47237,-0.03 z"
   id="path20801"
   transform="scale(0.64)" /><path
   style="fill:#4d4d4d;stroke-width:0.94451"
   d="m 400,182.32507 v -77.88743 l 10.62574,0.3071 c 5.84415,0.1689 7.24575,0.13473 3.11466,-0.0759 l -7.51107,-0.38302 4.67754,-2.17681 c 8.77665,-4.084422 14.44131,-11.976853 15.27696,-21.284987 1.22456,-13.640067 -7.68655,-25.642092 -21.10696,-28.428159 L 400,51.341869 V 25.768468 0.19506774 l 6.8477,0.58961287 c 9.68282,0.83372749 16.89221,2.88533499 26.68241,7.59312099 21.77755,10.4721194 36.53213,28.7907264 42.16121,52.3454454 1.6325,6.83113 1.89433,10.308036 1.54412,20.504616 -0.37891,11.032187 -0.76746,13.282881 -3.82759,22.171387 -1.87323,5.44102 -3.32397,9.92797 -3.22386,9.97099 0.1001,0.043 4.21979,1.25123 9.15485,2.68492 60.53313,17.58556 113.49006,54.29512 150.46713,104.30331 7.58565,10.25892 16.21297,23.63024 22.21013,34.42311 l 3.01776,5.43093 H 527.51693 400 Z m 68.69343,-70.02677 c -0.31386,-0.31385 -1.12849,-0.3474 -1.81031,-0.0745 -0.75347,0.30151 -0.52966,0.52532 0.57064,0.57064 0.99567,0.041 1.55352,-0.18222 1.23967,-0.49608 z m -4.23062,-0.99939 c -0.64935,-0.26202 -1.71192,-0.26202 -2.36128,0 -0.64935,0.26202 -0.11806,0.4764 1.18064,0.4764 1.2987,0 1.82999,-0.21438 1.18064,-0.4764 z m -4.26997,-0.88963 c -0.31386,-0.31385 -1.1285,-0.3474 -1.81031,-0.0745 -0.75347,0.30151 -0.52966,0.52532 0.57064,0.57064 0.99567,0.041 1.55352,-0.18222 1.23967,-0.49608 z m -4.72255,-0.94451 c -0.31386,-0.31385 -1.1285,-0.3474 -1.81031,-0.0745 -0.75347,0.30151 -0.52966,0.52532 0.57064,0.57064 0.99567,0.041 1.55352,-0.18222 1.23967,-0.49608 z m -5.17513,-0.99939 c -0.64935,-0.26202 -1.71193,-0.26202 -2.36128,0 -0.64935,0.26202 -0.11806,0.4764 1.18064,0.4764 1.2987,0 1.82999,-0.21438 1.18064,-0.4764 z m -5.66706,-0.94451 c -0.64935,-0.26202 -1.71193,-0.26202 -2.36128,0 -0.64935,0.26202 -0.11806,0.4764 1.18064,0.4764 1.2987,0 1.82999,-0.21438 1.18064,-0.4764 z m -6.13932,-0.97006 c -0.90909,-0.23756 -2.39669,-0.23756 -3.30578,0 -0.90909,0.23757 -0.16529,0.43195 1.65289,0.43195 1.81818,0 2.56198,-0.19438 1.65289,-0.43195 z m -8.02833,-0.96 c -1.16883,-0.22513 -3.08147,-0.22513 -4.2503,0 -1.16883,0.22512 -0.21251,0.40932 2.12515,0.40932 2.33766,0 3.29398,-0.1842 2.12515,-0.40932 z"
   id="path20803"
   transform="scale(0.64)" /><path
   style="fill:#ffeeaa;stroke-width:0.94451"
   d="m 192.87977,583.47107 c -12.87281,-90.25974 -23.39051,-164.42739 -23.37267,-164.817 0.0178,-0.38961 45.93564,-0.70838 102.03954,-0.70838 h 102.00708 v 164.817 164.817 H 294.9193 216.28489 Z"
   id="path21253"
   transform="scale(0.64)" /><path
   style="fill:#ffdd55;stroke-width:0.94451"
   d="m 426.44628,582.76269 v -164.817 h 102.00708 c 80.95838,0 102.01391,0.24362 102.04012,1.18064 0.0181,0.64935 -10.47025,74.817 -23.30757,164.817 L 583.84532,747.57969 H 505.1458 426.44628 Z"
   id="path21324"
   transform="scale(0.64)" /><path
   style="fill:#b3b3b3;stroke-width:0.94451"
   d="m 237.07202,798.60216 c -60.52871,-0.55223 -56.24677,-0.0118 -63.63932,-8.03178 -5.0831,-5.51451 -6.68248,-9.33257 -6.84065,-16.33012 -0.21996,-9.73038 5.53956,-19.03629 14.03862,-22.68283 4.38587,-1.88177 6.75712,-1.94441 99.18043,-2.62006 l 94.68713,-0.69221 V 582.77745 417.30976 l -46.90853,-0.62655 c -25.79967,-0.34459 -79.88468,-0.64945 -120.1889,-0.67747 -40.3042,-0.028 -76.4681,-0.3958 -80.3642,-0.81734 -23.38347,-2.5299 -49.081233,-22.56857 -58.846145,-45.88721 -4.566647,-10.90516 -5.756171,-17.13072 -5.774562,-30.22209 -0.01391,-9.90097 0.390271,-13.70506 2.087261,-19.64503 4.021133,-14.07516 11.19525,-25.7992 22.15689,-36.2091 14.423896,-13.69789 28.676466,-19.63716 51.826786,-21.59708 6.63747,-0.56193 7.28689,-0.80704 8.31295,-3.1376 0.61216,-1.39045 4.38177,-7.98826 8.37692,-14.66183 12.85895,-21.47986 32.15532,-45.36916 49.11262,-60.8024 34.58678,-31.47827 66.56398,-50.11317 111.40392,-64.92129 7.39752,-2.44299 13.64615,-4.75914 13.88586,-5.14698 0.23971,-0.38785 -1.03123,-5.22941 -2.82429,-10.75901 -3.09729,-9.551658 -3.26012,-10.729329 -3.26012,-23.578389 0,-16.277209 1.082,-21.142595 7.66811,-34.480705 7.54588,-15.281882 21.81835,-29.225545 36.869,-36.0196443 6.33535,-2.8598761 18.72787,-6.164897 27.00952,-7.20329998 L 400,0.29499338 V 25.442783 c 0,19.317023 -0.27375,25.222364 -1.18064,25.469419 -12.67234,3.452194 -18.74126,7.500017 -22.61312,15.082402 -2.74718,5.379892 -3.34994,15.00736 -1.32187,21.113331 3.0323,9.129354 13.17139,17.260425 21.52303,17.260425 H 400 v 347.57969 347.57969 l -54.54545,-0.21719 c -30,-0.11947 -78.77214,-0.43824 -108.38253,-0.70839 z"
   id="path21326"
   transform="scale(0.64)" /><path
   style="fill:#999999;stroke-width:0.617808"
   d="M 256,359.6084 V 233.51197 l 1.98657,-0.25185 1.98656,-0.25186 -1.98656,-0.1 L 256,232.80841 v -34.38182 -34.38182 l 79.92117,0.3573 c 81.3101,0.36352 95.74745,0.59362 101.26599,1.61401 4.26963,0.78945 14.50484,6.17594 19.29343,10.15356 7.46574,6.2014 12.81594,14.30494 16.09366,24.37592 1.71344,5.26459 1.86498,6.42643 1.88692,14.46642 0.0284,10.41616 -0.89562,14.80149 -4.87475,23.13475 -5.98633,12.5369 -16.28241,21.53328 -30.5165,26.66435 l -4.27877,1.54239 -80.81085,0.42095 -80.81085,0.42095 -0.21137,-4.54866 c -0.11625,-2.50177 -0.26603,46.66286 -0.33283,109.25474 l -0.12146,113.80339 H 264.2519 256 Z m 16.3101,-114.42837 c -0.19513,-0.49812 -0.33996,-0.35017 -0.3693,0.37727 -0.0265,0.65825 0.11793,1.02707 0.32105,0.81957 0.2031,-0.2075 0.22483,-0.74607 0.0482,-1.19684 z m -1.05812,-3.35339 c -1.08542,-1.33606 -1.42763,-0.64155 -0.52905,1.0737 0.48292,0.92178 0.85905,1.16304 1.0242,0.65692 0.14355,-0.43993 -0.0793,-1.21872 -0.49515,-1.73062 z m -1.19319,-1.71473 c 0,-0.10435 -1.03148,-1.15809 -2.2922,-2.34163 l -2.29219,-2.15192 2.10648,2.34164 c 1.96066,2.17954 2.47791,2.62874 2.47791,2.15191 z m -5.50126,-5.11799 c -0.41853,-0.51516 -1.20863,-0.92771 -1.75579,-0.91679 -0.83578,0.0167 -0.80513,0.16645 0.19167,0.93666 1.54435,1.19328 2.53942,1.18065 1.56412,-0.0198 z"
   id="path21328" /><path
   style="fill:#999999;stroke-width:0.94451"
   d="m 400,182.41655 v -77.79597 l 6.8477,0.29385 c 4.37471,0.18772 5.65384,0.0558 3.54191,-0.36537 l -3.30578,-0.65921 3.10812,-1.30803 c 6.20791,-2.612554 10.30786,-6.449957 13.3099,-12.457557 6.57251,-13.152757 1.91359,-28.101572 -10.93805,-35.096309 -2.5536,-1.389843 -6.42511,-2.811973 -8.60335,-3.160288 L 400,51.234365 V 25.85331 c 0,-13.959581 0.32992,-25.38105498 0.73316,-25.38105498 5.09395,0 18.02316,2.55983128 24.17829,4.78701928 23.4668,8.4912807 40.77428,25.8639447 48.30907,48.4910097 4.89973,14.713945 4.72262,34.681623 -0.4482,50.529296 -1.59429,4.88624 -2.78792,8.98107 -2.65252,9.0996 0.13541,0.11855 5.33886,1.79775 11.56322,3.73156 64.57322,20.06194 118.53409,59.54084 154.6178,113.12161 6.77652,10.06247 17.77238,28.1545 17.77238,29.24178 0,0.40611 -57.16647,0.73838 -127.0366,0.73838 H 400 Z m 68.69343,-70.11825 c -0.31386,-0.31385 -1.12849,-0.3474 -1.81031,-0.0745 -0.75347,0.30151 -0.52966,0.52532 0.57064,0.57064 0.99567,0.041 1.55352,-0.18222 1.23967,-0.49608 z m -4.23062,-0.99939 c -0.64935,-0.26202 -1.71192,-0.26202 -2.36128,0 -0.64935,0.26202 -0.11806,0.4764 1.18064,0.4764 1.2987,0 1.82999,-0.21438 1.18064,-0.4764 z m -4.26997,-0.88963 c -0.31386,-0.31385 -1.1285,-0.3474 -1.81031,-0.0745 -0.75347,0.30151 -0.52966,0.52532 0.57064,0.57064 0.99567,0.041 1.55352,-0.18222 1.23967,-0.49608 z m -4.72255,-0.94451 c -0.31386,-0.31385 -1.1285,-0.3474 -1.81031,-0.0745 -0.75347,0.30151 -0.52966,0.52532 0.57064,0.57064 0.99567,0.041 1.55352,-0.18222 1.23967,-0.49608 z m -5.17513,-0.99939 c -0.64935,-0.26202 -1.71193,-0.26202 -2.36128,0 -0.64935,0.26202 -0.11806,0.4764 1.18064,0.4764 1.2987,0 1.82999,-0.21438 1.18064,-0.4764 z m -5.66706,-0.94451 c -0.64935,-0.26202 -1.71193,-0.26202 -2.36128,0 -0.64935,0.26202 -0.11806,0.4764 1.18064,0.4764 1.2987,0 1.82999,-0.21438 1.18064,-0.4764 z m -6.61157,-0.94451 c -0.64935,-0.26202 -1.71193,-0.26202 -2.36128,0 -0.64935,0.26202 -0.11806,0.4764 1.18064,0.4764 1.2987,0 1.82999,-0.21438 1.18064,-0.4764 z m -8.02834,-0.97006 c -0.90909,-0.23756 -2.39669,-0.23756 -3.30578,0 -0.90909,0.23757 -0.16529,0.43195 1.65289,0.43195 1.81818,0 2.56198,-0.19438 1.65289,-0.43195 z"
   id="path21330"
   transform="scale(0.64)" /></svg>
