<?xml version="1.0" encoding="UTF-8" standalone="no"?>
<!-- Uploaded to: SVG Repo, www.svgrepo.com, Generator: SVG Repo Mixer Tools -->

<svg
   width="800px"
   height="800px"
   viewBox="0 0 24 24"
   fill="none"
   version="1.1"
   id="svg3"
   sodipodi:docname="pause-button.svg"
   inkscape:version="1.3.2 (091e20e, 2023-11-25, custom)"
   xmlns:inkscape="http://www.inkscape.org/namespaces/inkscape"
   xmlns:sodipodi="http://sodipodi.sourceforge.net/DTD/sodipodi-0.dtd"
   xmlns="http://www.w3.org/2000/svg"
   xmlns:svg="http://www.w3.org/2000/svg">
  <defs
     id="defs3" />
  <sodipodi:namedview
     id="namedview3"
     pagecolor="#ffffff"
     bordercolor="#000000"
     borderopacity="0.25"
     inkscape:showpageshadow="2"
     inkscape:pageopacity="0.0"
     inkscape:pagecheckerboard="0"
     inkscape:deskcolor="#d1d1d1"
     inkscape:zoom="1.01625"
     inkscape:cx="400"
     inkscape:cy="400"
     inkscape:window-width="1920"
     inkscape:window-height="1009"
     inkscape:window-x="-8"
     inkscape:window-y="-8"
     inkscape:window-maximized="1"
     inkscape:current-layer="svg3" />
  <path
     opacity="0.4"
     d="M11.9707 22C17.4936 22 21.9707 17.5228 21.9707 12C21.9707 6.47715 17.4936 2 11.9707 2C6.44786 2 1.9707 6.47715 1.9707 12C1.9707 17.5228 6.44786 22 11.9707 22Z"
     fill="#292D32"
     id="path1"
     style="fill:#282d32;fill-opacity:0.40000001" />
  <path
     d="M10.72 15.0298V8.9698C10.72 8.4898 10.52 8.2998 10.01 8.2998H8.71C8.2 8.2998 8 8.4898 8 8.9698V15.0298C8 15.5098 8.2 15.6998 8.71 15.6998H10C10.52 15.6998 10.72 15.5098 10.72 15.0298Z"
     fill="#292D32"
     id="path2"
     style="fill:#292d32;fill-opacity:1" />
  <path
     d="M15.9991 15.0298V8.9698C15.9991 8.4898 15.7991 8.2998 15.2891 8.2998H13.9991C13.4891 8.2998 13.2891 8.4898 13.2891 8.9698V15.0298C13.2891 15.5098 13.4891 15.6998 13.9991 15.6998H15.2891C15.7991 15.6998 15.9991 15.5098 15.9991 15.0298Z"
     fill="#292D32"
     id="path3" />
</svg>
