<?xml version="1.0" encoding="UTF-8" standalone="no"?>
<!-- Uploaded to: SVG Repo, www.svgrepo.com, Generator: SVG Repo Mixer Tools -->

<svg
   width="800px"
   height="800px"
   viewBox="0 0 24 24"
   fill="none"
   version="1.1"
   id="svg3"
   sodipodi:docname="pause-button.svg"
   inkscape:version="1.3.2 (091e20e, 2023-11-25, custom)"
   xmlns:inkscape="http://www.inkscape.org/namespaces/inkscape"
   xmlns:sodipodi="http://sodipodi.sourceforge.net/DTD/sodipodi-0.dtd"
   xmlns="http://www.w3.org/2000/svg"
   xmlns:svg="http://www.w3.org/2000/svg">
  <defs
     id="defs3" />
  <sodipodi:namedview
     id="namedview3"
     pagecolor="#ffffff"
     bordercolor="#000000"
     borderopacity="0.25"
     inkscape:showpageshadow="2"
     inkscape:pageopacity="0.0"
     inkscape:pagecheckerboard="0"
     inkscape:deskcolor="#d1d1d1"
     inkscape:zoom="1.01625"
     inkscape:cx="400"
     inkscape:cy="400"
     inkscape:window-width="1920"
     inkscape:window-height="1009"
     inkscape:window-x="-8"
     inkscape:window-y="-8"
     inkscape:window-maximized="1"
     inkscape:current-layer="svg3" />
  <path
     opacity="0.4"
     d="M11.9707 22C17.4936 22 21.9707 17.5228 21.9707 12C21.9707 6.47715 17.4936 2 11.9707 2C6.44786 2 1.9707 6.47715 1.9707 12C1.9707 17.5228 6.44786 22 11.9707 22Z"
     fill="#292D32"
     id="path1"
     style="fill:#b3b3b3" />
  <path
     d="M 10.959188,14.926716 V 8.8667159 c 0,-0.48 -0.2,-0.67 -0.71,-0.67 H 8.9491882 c -0.5099998,0 -0.7099998,0.19 -0.7099998,0.67 v 6.0600001 c 0,0.48 0.2,0.67 0.7099998,0.67 h 1.2899998 c 0.52,0 0.72,-0.19 0.72,-0.67 z"
     fill="#292D32"
     id="path2"
     style="fill:#292d32;fill-opacity:1" />
  <path
     d="M 16.238288,14.926716 V 8.8667159 c 0,-0.48 -0.2,-0.67 -0.71,-0.67 h -1.29 c -0.51,0 -0.71,0.19 -0.71,0.67 v 6.0600001 c 0,0.48 0.2,0.67 0.71,0.67 h 1.29 c 0.51,0 0.71,-0.19 0.71,-0.67 z"
     fill="#292d32"
     id="path3" />
</svg>
