<?xml version="1.0" encoding="UTF-8" standalone="no"?>
<svg
   width="72px"
   height="72px"
   viewBox="0 0 72 72"
   id="emoji"
   version="1.1"
   sodipodi:docname="person-walking-green-outline.svg"
   inkscape:version="1.3.2 (091e20e, 2023-11-25, custom)"
   xmlns:inkscape="http://www.inkscape.org/namespaces/inkscape"
   xmlns:sodipodi="http://sodipodi.sourceforge.net/DTD/sodipodi-0.dtd"
   xmlns="http://www.w3.org/2000/svg"
   xmlns:svg="http://www.w3.org/2000/svg">
  <defs
     id="defs4" />
  <sodipodi:namedview
     id="namedview4"
     pagecolor="#ffffff"
     bordercolor="#000000"
     borderopacity="0.25"
     inkscape:showpageshadow="2"
     inkscape:pageopacity="0.0"
     inkscape:pagecheckerboard="0"
     inkscape:deskcolor="#d1d1d1"
     inkscape:zoom="11.291667"
     inkscape:cx="36.08856"
     inkscape:cy="35.999999"
     inkscape:window-width="1920"
     inkscape:window-height="1009"
     inkscape:window-x="-8"
     inkscape:window-y="-8"
     inkscape:window-maximized="1"
     inkscape:current-layer="emoji" />
  <g
     id="color" />
  <g
     id="hair" />
  <g
     id="skin"
     style="fill:#008000">
    <path
       fill="#fcea2b"
       d="m31.19 19.48-4.872 42.77 1.689 2.021 2.016-2.205 3.646-15.09 8.79 14.17 3.414-0.8954-6.826-14.91-0.7835-26.22-5.001-2.252z"
       id="path1"
       style="fill:#008000" />
    <circle
       cx="34.37"
       cy="10.73"
       r="3"
       fill="#fcea2b"
       id="circle1"
       style="fill:#008000" />
  </g>
  <g
     id="skin-shadow" />
  <g
     id="line">
    <ellipse
       cx="34.44"
       cy="10.67"
       rx="2.702"
       ry="2.719"
       fill="none"
       stroke="#000"
       stroke-miterlimit="10"
       stroke-width="2"
       id="ellipse1" />
    <path
       fill="none"
       stroke="#000"
       stroke-linecap="round"
       stroke-linejoin="round"
       stroke-miterlimit="10"
       stroke-width="2"
       d="m26.32 62.25c-0.09673 0.992 0.5172 1.804 1.365 1.804 0.8479 0 1.756-0.7868 2.016-1.749l4.941-18.23c0.2604-0.9619 0.9394-2.417 1.508-3.233l1.981-2.845c0.5682-0.8159 0.9939-2.299 0.9464-3.295l-0.4498-9.289-0.2873-4.827c-0.1187-1.99-1.837-3.656-3.819-3.656h-0.04666c-1.982 0-3.783 1.659-4.005 3.64l-0.4987 4.506z"
       id="path2" />
    <path
       fill="none"
       stroke="#000"
       stroke-linecap="round"
       stroke-linejoin="round"
       stroke-miterlimit="10"
       stroke-width="2"
       d="m38.2 37.9 1.64 10.44c0.1539 0.985 0.7019 2.488 1.216 3.339l4.345 7.196c0.5137 0.8514 0.3272 1.957-0.416 2.455s-1.832 0.2505-2.421-0.5522l-4.745-6.466c-0.5884-0.8027-1.364-2.219-1.724-3.147l-1.984-5.123"
       id="path3" />
    <path
       fill="none"
       stroke="#000"
       stroke-linecap="round"
       stroke-linejoin="round"
       stroke-miterlimit="10"
       stroke-width="2"
       d="m34.62 21.46 0.04927 5.664c0.0087 0.9969-0.1768 2.604-0.4117 3.573l-2.562 10.55"
       id="path4" />
  </g>
  <path
     style="fill:#44aa00;stroke-width:0.0885609"
     d="m 27.50689,62.88788 c -0.07787,-0.08604 -0.141577,-0.266032 -0.141577,-0.399978 0,-0.373847 3.603115,-36.974183 3.902125,-39.637667 0.289675,-2.580332 0.324959,-2.760961 0.646502,-3.309633 0.489742,-0.83568 1.405284,-1.443376 2.316204,-1.537392 1.241676,-0.128152 2.486146,0.690067 2.920052,1.919887 0.140901,0.399357 0.288719,2.609877 0.622023,9.301994 0.2906,5.834681 0.290768,6.144486 0.0038,7.052822 -0.190353,0.602572 -0.410179,0.980896 -1.388001,2.388767 -1.385496,1.994839 -1.817989,2.722999 -2.282292,3.842544 -0.227926,0.549581 -1.212268,4.035187 -2.838612,10.05166 -1.369331,5.065683 -2.549384,9.3737 -2.622342,9.573372 -0.232822,0.637193 -0.864606,1.055618 -1.137907,0.753624 z m 4.780264,-20.789722 c 0.122035,-0.07996 0.257788,-0.212474 0.301673,-0.294473 0.05926,-0.110729 2.476473,-9.973804 2.799941,-11.42474 0.22028,-0.988083 0.301268,-2.506339 0.301268,-5.647797 0,-3.668984 -0.01788,-3.825162 -0.471887,-4.122641 -0.321534,-0.210677 -0.951677,-0.196633 -1.236696,0.02756 -0.40598,0.319343 -0.427042,0.542115 -0.398913,4.219235 0.01937,2.531717 -0.0049,3.650327 -0.09197,4.236944 -0.06506,0.438376 -0.737118,3.356714 -1.49347,6.485195 -0.939867,3.887551 -1.356543,5.762422 -1.316294,5.922786 0.03239,0.129052 0.173342,0.349091 0.313226,0.488975 0.206546,0.206546 0.331082,0.254335 0.662787,0.254335 0.229581,0 0.50562,-0.06367 0.630335,-0.145383 z"
     id="path5" />
  <path
     style="fill:#44aa00;stroke-width:0.0885609"
     d="m 43.815777,60.472804 c -0.17669,-0.06454 -0.935391,-1.031774 -2.772401,-3.534414 -2.624425,-3.57537 -2.970423,-4.087367 -3.559023,-5.266534 -0.398182,-0.797695 -2.237122,-5.505525 -2.237122,-5.727208 0,-0.349007 0.661378,-2.395424 1.016365,-3.144809 0.374694,-0.790988 1.161722,-2.061833 1.276883,-2.061833 0.03061,0 0.346711,1.860721 0.702442,4.134935 0.672789,4.301195 0.859205,5.116919 1.476942,6.462833 0.160212,0.349067 1.285912,2.281908 2.501556,4.295202 1.215644,2.013294 2.255938,3.747583 2.311764,3.853975 0.156386,0.298037 0.121775,0.716176 -0.07562,0.913571 -0.19536,0.19536 -0.28265,0.205464 -0.641786,0.07428 z"
     id="path6" />
  <path
     style="fill:#44aa00;stroke-width:0.0885609"
     d="m 33.593241,12.086595 c -0.540127,-0.323752 -0.78028,-0.760894 -0.780916,-1.421476 -6.34e-4,-0.658506 0.298951,-1.178351 0.837381,-1.4530377 0.416708,-0.2125882 1.139759,-0.2369534 1.500216,-0.050554 0.489774,0.2532718 0.98193,1.0101337 0.98193,1.5100587 0,0.499926 -0.492156,1.256788 -0.98193,1.510059 -0.401011,0.207371 -1.125992,0.163104 -1.556681,-0.09505 z"
     id="path7" />
</svg>
