<?xml version="1.0" encoding="UTF-8" standalone="no"?>
<!-- Uploaded to: SVG Repo, www.svgrepo.com, Generator: SVG Repo Mixer Tools -->

<svg
   height="68.949249"
   width="59.504116"
   version="1.1"
   id="Capa_1"
   viewBox="0 0 38.082857 44.127777"
   xml:space="preserve"
   sodipodi:docname="pool-hot.svg"
   inkscape:version="1.2 (dc2aedaf03, 2022-05-15)"
   xmlns:inkscape="http://www.inkscape.org/namespaces/inkscape"
   xmlns:sodipodi="http://sodipodi.sourceforge.net/DTD/sodipodi-0.dtd"
   xmlns="http://www.w3.org/2000/svg"
   xmlns:svg="http://www.w3.org/2000/svg"><defs
   id="defs19" /><sodipodi:namedview
   id="namedview17"
   pagecolor="#ffffff"
   bordercolor="#000000"
   borderopacity="0.25"
   inkscape:showpageshadow="2"
   inkscape:pageopacity="0.0"
   inkscape:pagecheckerboard="0"
   inkscape:deskcolor="#d1d1d1"
   showgrid="false"
   inkscape:zoom="1.05875"
   inkscape:cx="300.82645"
   inkscape:cy="300.35419"
   inkscape:window-width="1920"
   inkscape:window-height="1027"
   inkscape:window-x="-8"
   inkscape:window-y="-8"
   inkscape:window-maximized="1"
   inkscape:current-layer="Capa_1" />
<path
   style="fill:#f0a479;stroke-width:0.059416"
   d="M 7.2023432,27.667735 C 6.0481378,27.486304 5.2752075,26.493603 5.4759108,25.450558 l 0.1955367,-1.015946 c 0.2008123,-1.043126 1.299114,-1.741637 2.4533058,-1.560264 l 1.1241414,0.176715 c 1.1542793,0.181476 1.9272443,1.174054 1.7264933,2.217167 l -0.195524,1.016001 C 10.5791,27.327288 9.4806767,28.025823 8.3264847,27.84445 Z"
   id="path2" />
<path
   id="path4"
   style="fill:#707070;stroke-width:0.059416"
   d="m 23.457186,11.816108 c -2.832753,0 -5.137461,2.082898 -5.137461,4.643055 v 16.808345 c 0,0.582581 0.52257,1.054787 1.167196,1.054787 0.644626,0 1.167197,-0.472206 1.167197,-1.054787 v -2.99532 h 7.459355 v 2.874798 c 0,0.582581 0.522571,1.054856 1.167196,1.054856 0.644625,0 1.167197,-0.472275 1.167197,-1.054856 V 16.459094 c 0,-1.396863 1.257442,-2.533348 2.803069,-2.533348 0.644625,0 1.167197,-0.472271 1.167197,-1.054855 6.2e-5,-0.582523 -0.522572,-1.054783 -1.167197,-1.054783 -2.832753,0 -5.137462,2.082898 -5.137462,4.643055 v 3.014106 h -7.459355 v -3.014106 c 0,-1.396859 1.257441,-2.533345 2.803068,-2.533345 0.644626,0 1.167197,-0.472275 1.167197,-1.054855 0,-0.582581 -0.522571,-1.054855 -1.167197,-1.054855 z m -2.803146,9.766871 h 7.459433 v 2.410983 H 20.65404 Z m 0,4.520694 h 7.459433 v 2.058732 H 20.65404 Z" />
<path
   style="fill:#575757;stroke-width:0.059416"
   d="m 33.250957,11.816114 c -2.832755,0 -5.137447,2.082868 -5.137447,4.642973 v 3.014127 h -3.779071 v 2.109696 h 3.779071 v 2.410987 h -3.779071 v 2.109701 h 3.779071 v 2.058745 h -3.779071 v 2.1097 h 3.779071 v 2.874837 c 0,0.58258 0.522563,1.054848 1.16719,1.054848 0.644626,0 1.16719,-0.472268 1.16719,-1.054848 V 16.459087 c 0,-1.396862 1.257439,-2.533276 2.803067,-2.533276 0.644627,0 1.16719,-0.472268 1.16719,-1.054848 0,-0.582584 -0.522563,-1.054849 -1.16719,-1.054849 z"
   id="path6" />
<path
   id="path8"
   style="fill:#f0a479;stroke-width:0.059416"
   d="m 6.9962768,28.409386 c -0.1227086,3.44e-4 -0.2443656,0.0084 -0.3641433,0.02372 -1.0380923,0.132539 -1.938513,0.809717 -2.2252519,1.782948 l -1.3275885,4.507281 c 0.017276,0.0021 0.034783,0.0036 0.051953,0.0058 0.1084895,0.0198 0.2143831,0.04997 0.3244557,0.06192 0.1643738,0.01921 0.3298516,0.0275 0.4955507,0.03063 0.171946,-0.01292 0.3434668,-0.03018 0.5136759,-0.05607 0.2028806,-0.03517 0.4011793,-0.08808 0.6015673,-0.132952 0.169588,-0.041 0.3409953,-0.07748 0.5071913,-0.128855 0.1427253,-0.04849 0.2852977,-0.09776 0.4307847,-0.139236 0.1962786,-0.05948 0.3932676,-0.117363 0.583989,-0.190637 0.189444,-0.06559 0.384521,-0.145409 0.5893013,-0.135915 0.029253,0.0014 0.058697,0.0046 0.08836,0.0099 0.08746,0.01873 0.1730697,0.04383 0.262971,0.05246 0.1380154,0.02162 0.2765967,0.04104 0.4133627,0.06849 0.1773293,0.04042 0.3515813,0.09101 0.5191447,0.157736 0.085856,0.03132 0.1744526,0.06577 0.2659393,0.07964 v -5.9e-5 c 0.00533,6.88e-4 0.010333,0.0017 0.015627,0.0027 l 0.4940666,-1.67739 7.7380287,0.71983 c 1.248115,0.116109 2.364117,-0.704244 2.492598,-1.832229 0.128479,-1.127984 -0.77926,-2.136509 -2.027437,-2.252617 l -9.9843005,-0.92884 c -0.029847,-0.0027 -0.059508,-0.0045 -0.089141,-0.0063 -0.124187,-0.01523 -0.2479977,-0.02245 -0.370706,-0.02203 z m -4.3881593,9.698383 c 5.7e-4,0.0021 0.00834,0.02025 0.013672,0.0329 -3.433e-4,-0.0037 -0.00107,-0.0075 -0.00125,-0.01124 -0.00852,-0.01554 -0.013372,-0.02496 -0.012422,-0.02169 z m 0.1951578,0.482309 c 0.00313,0.0092 0.00594,0.01836 0.00906,0.02753 0.00531,-0.0052 0.013998,-0.01378 0.019531,-0.01915 -0.00956,-0.0027 -0.019053,-0.0056 -0.028594,-0.0084 z m 9.5664807,7.022837 c -0.01301,-3.4e-4 -0.04736,0.01901 -0.03477,0.01602 0.0079,-0.0017 0.03259,-0.01042 0.04859,-0.01547 -0.0046,-1.13e-4 -0.0093,-3.44e-4 -0.01383,-6.87e-4 z m -0.07656,0.73501 0.0028,0.03183 c 0.01336,-0.0093 0.02854,-0.01622 0.04273,-0.02451 -0.01519,-0.0021 -0.03036,-0.004 -0.04555,-0.0074 z m 4.389644,0.180045 c -0.0185,0.02496 -0.03669,0.04982 -0.05859,0.07541 -0.02436,0.02179 -0.0498,0.04177 -0.07609,0.0603 l 0.145001,-0.01609 z m -1.62181,0.281012 c -0.02767,0.0097 -0.05538,0.01942 -0.08305,0.02915 l 0.107735,-0.01193 c -0.0082,-0.0058 -0.01653,-0.01138 -0.02469,-0.01722 z m -2.280799,0.177925 c -0.01381,0.009 -0.02683,0.01812 -0.03773,0.02747 -0.0086,0.0074 0.02183,-0.0083 0.03273,-0.01241 0.0021,-0.0065 0.003,-0.0088 0.005,-0.01506 z" />
<path
   id="path10"
   style="fill:#ccf7f5;stroke-width:0.059416"
   d="m 29.066605,31.599723 c -0.323249,0 -0.631897,0.12112 -0.852585,0.334462 -0.730372,0.706052 -1.720397,1.094888 -2.787522,1.094888 -1.067122,0 -2.057101,-0.388836 -2.7876,-1.094888 -0.220685,-0.213283 -0.529396,-0.33439 -0.852584,-0.33439 -0.323186,0 -0.631913,0.121048 -0.852663,0.33439 -0.730434,0.705997 -1.720319,1.094888 -2.787444,1.094888 -1.067122,0 -2.0571,-0.388836 -2.7876,-1.094888 -0.22081,-0.213283 -0.529474,-0.33439 -0.852662,-0.33439 -0.323186,0 -0.631897,0.12112 -0.852585,0.334458 -0.730374,0.705998 -1.7204,1.094889 -2.787522,1.094889 -1.067122,0 -2.0570227,-0.388833 -2.7875213,-1.094889 -0.2208127,-0.213283 -0.529476,-0.334389 -0.8526632,-0.334389 -0.3232493,0 -0.6318977,0.121051 -0.8525847,0.334389 -0.7304986,0.705998 -1.7204771,1.094889 -2.7875999,1.094889 -0.6446236,0 -1.1671966,0.472206 -1.1671966,1.054786 0,0.23573 0.086668,0.452623 0.2312518,0.628252 0.1584462,-0.02045 0.3225854,-0.0036 0.4817225,0.01695 0.1084897,0.0198 0.2143828,0.04996 0.3244557,0.06192 0.1643741,0.01921 0.3298513,0.0275 0.4955507,0.03063 0.1719463,-0.01292 0.3434666,-0.03018 0.5136759,-0.05606 0.2028811,-0.03517 0.401179,-0.08808 0.6015673,-0.132952 0.1695883,-0.041 0.340995,-0.07748 0.5071913,-0.128855 0.1427257,-0.04849 0.2852973,-0.09776 0.4307847,-0.139236 0.196279,-0.05948 0.3932673,-0.117363 0.583989,-0.190637 0.1894443,-0.06559 0.3845203,-0.145409 0.5893013,-0.135915 0.029253,0.0014 0.058697,0.0045 0.08836,0.0099 0.08746,0.01873 0.1730694,0.04383 0.2629708,0.05246 0.1380154,0.02162 0.2765967,0.04104 0.4133627,0.06849 0.1773293,0.04042 0.3515807,0.09101 0.5191447,0.157737 0.085857,0.03131 0.1744526,0.06577 0.2659393,0.07964 v -5.8e-5 c 0.3836527,0.05819 0.6079333,0.213241 0.6514893,0.367647 0.026547,0.01158 0.053373,0.02262 0.080001,0.03403 0.086884,0.04243 0.1804993,0.06804 0.2733606,0.09694 0.1487847,0.03697 0.2989511,0.06868 0.4503171,0.09567 0.208843,0.03772 0.419749,0.06421 0.631099,0.08741 0.08921,0.008 0.178272,0.01719 0.267345,0.02633 0.100329,-0.01131 0.200442,-0.02379 0.299769,-0.04081 0.165999,-0.04432 0.327494,-0.101245 0.489612,-0.155757 0.154027,-0.05851 0.309453,-0.114035 0.465473,-0.168042 0.129519,-0.05233 0.262636,-0.09659 0.397972,-0.13486 0.09933,-0.02657 0.1942,-0.06469 0.289611,-0.100753 0.08025,-0.03132 0.156322,-0.07013 0.231955,-0.10944 0.08244,-0.04963 0.170557,-0.09066 0.256487,-0.135001 0.08031,-0.04505 0.164646,-0.08367 0.24758,-0.124479 0.02606,-0.01715 0.0091,-0.0064 0.05195,-0.03107 0.151794,-0.08741 0.29177,-0.125358 0.41055,-0.127163 0.09001,-0.0014 0.166137,0.01935 0.227189,0.05409 0.0674,0.0071 0.140631,0.0221 0.219377,0.04674 0.126937,0.03972 0.249515,0.0887 0.36719,0.14707 0.131751,0.06999 0.251531,0.155337 0.369144,0.242955 0.08952,0.06238 0.182341,0.120588 0.274845,0.179269 0.04169,0.02197 0.05132,0.02705 0.06406,0.03403 0.130196,0.0498 0.261766,0.09675 0.395394,0.1386 0.08685,0.01719 0.173954,0.03338 0.261252,0.0483 0.247577,0.04892 0.499938,0.07332 0.751022,0.102306 0.349816,0.04245 0.701715,0.06628 1.053367,0.092 0.163526,0.01272 0.32686,0.02698 0.490081,0.04222 1.117438,-0.09164 2.18933,-0.458621 3.090884,-1.055914 1.0485,0.694702 2.326859,1.080276 3.640107,1.080276 1.313122,0 2.591594,-0.385629 3.640028,-1.080276 1.048562,0.694588 2.327,1.080276 3.640185,1.080276 0.644624,0 1.167196,-0.472292 1.167821,-1.054928 0,-0.582577 -0.522572,-1.054855 -1.167196,-1.054855 -1.067124,0 -2.057102,-0.388833 -2.7876,-1.094889 -0.220686,-0.213283 -0.529538,-0.334389 -0.852663,-0.334389 z" />
<path
   id="path12"
   style="fill:#74d6d0;stroke-width:0.059416"
   d="m 29.066605,31.599723 c -0.323249,0 -0.631897,0.12112 -0.852585,0.334462 -0.730372,0.706052 -1.720397,1.094888 -2.787522,1.094888 -1.067122,0 -2.057101,-0.388836 -2.7876,-1.094888 -0.220685,-0.213283 -0.529396,-0.33439 -0.852584,-0.33439 -0.323186,0 -0.631913,0.121048 -0.852663,0.33439 -0.730434,0.705997 -1.720319,1.094888 -2.787444,1.094888 -1.067122,0 -2.0571,-0.388836 -2.7876,-1.094888 -0.22081,-0.213283 -0.529474,-0.33439 -0.852662,-0.33439 -0.323186,0 -0.631897,0.12112 -0.852585,0.334458 -0.730374,0.705998 -1.7204,1.094889 -2.787522,1.094889 -1.067122,0 -2.0570227,-0.388833 -2.7875213,-1.094889 -0.2208127,-0.213283 -0.529476,-0.334389 -0.8526632,-0.334389 -0.3232493,0 -0.6318977,0.121051 -0.8525847,0.334389 -0.7304986,0.705998 -1.7204771,1.094889 -2.7875999,1.094889 -0.6446236,0 -1.1671966,0.472206 -1.1671966,1.054786 0,0.23573 0.086668,0.452623 0.2312518,0.628252 0.1584462,-0.02045 0.3225854,-0.0036 0.4817225,0.01695 0.1084897,0.0198 0.2143828,0.04996 0.3244557,0.06192 0.1643741,0.01921 0.3298513,0.0275 0.4955507,0.03063 0.1719463,-0.01292 0.3434666,-0.03018 0.5136759,-0.05606 0.2028811,-0.03517 0.401179,-0.08808 0.6015673,-0.132952 0.1695883,-0.041 0.340995,-0.07748 0.5071913,-0.128855 0.1427257,-0.04849 0.2852973,-0.09776 0.4307847,-0.139236 0.196279,-0.05948 0.3932673,-0.117363 0.583989,-0.190637 0.1894443,-0.06559 0.3845203,-0.145409 0.5893013,-0.135915 0.029253,0.0014 0.058697,0.0045 0.08836,0.0099 0.08746,0.01873 0.1730694,0.04383 0.2629708,0.05246 0.1380154,0.02162 0.2765967,0.04104 0.4133627,0.06849 0.1773293,0.04042 0.3515807,0.09101 0.5191447,0.157737 0.085857,0.03131 0.1744526,0.06577 0.2659393,0.07964 v -5.8e-5 c 0.3836527,0.05819 0.6079333,0.213241 0.6514893,0.367647 0.026547,0.01158 0.053373,0.02262 0.080001,0.03403 0.086884,0.04243 0.1804993,0.06804 0.2733606,0.09694 0.1487847,0.03697 0.2989511,0.06868 0.4503171,0.09567 0.208843,0.03772 0.419749,0.06421 0.631099,0.08741 0.08921,0.008 0.178272,0.01719 0.267345,0.02633 0.100329,-0.01131 0.200442,-0.02379 0.299769,-0.04081 0.165999,-0.04432 0.327494,-0.101245 0.489612,-0.155757 0.154027,-0.05851 0.309453,-0.114035 0.465473,-0.168042 0.129519,-0.05233 0.262636,-0.09659 0.397972,-0.13486 0.09933,-0.02657 0.1942,-0.06469 0.289611,-0.100753 0.08025,-0.03132 0.156322,-0.07013 0.231955,-0.10944 0.08244,-0.04963 0.170557,-0.09066 0.256487,-0.135001 0.08031,-0.04505 0.164646,-0.08367 0.24758,-0.124479 0.02606,-0.01715 0.0091,-0.0064 0.05195,-0.03107 0.151794,-0.08741 0.29177,-0.125358 0.41055,-0.127163 0.09001,-0.0014 0.166137,0.01935 0.227189,0.05409 0.0674,0.0071 0.140631,0.0221 0.219377,0.04674 0.126937,0.03972 0.249515,0.0887 0.36719,0.14707 0.131751,0.06999 0.251531,0.155337 0.369144,0.242955 0.08952,0.06238 0.182341,0.120588 0.274845,0.179269 0.04169,0.02197 0.05132,0.02705 0.06406,0.03403 0.130196,0.0498 0.261766,0.09675 0.395394,0.1386 0.08685,0.01719 0.173954,0.03338 0.261252,0.0483 0.247577,0.04892 0.499938,0.07332 0.751022,0.102306 0.349816,0.04245 0.701715,0.06628 1.053367,0.092 0.163526,0.01272 0.32686,0.02698 0.490081,0.04222 1.117438,-0.09164 2.18933,-0.458621 3.090884,-1.055914 1.0485,0.694702 2.326859,1.080276 3.640107,1.080276 1.313122,0 2.591594,-0.385629 3.640028,-1.080276 1.048562,0.694588 2.327,1.080276 3.640185,1.080276 0.644624,0 1.167196,-0.472292 1.167821,-1.054928 0,-0.582577 -0.522572,-1.054855 -1.167196,-1.054855 -1.067124,0 -2.057102,-0.388833 -2.7876,-1.094889 -0.220686,-0.213283 -0.529538,-0.334389 -0.852663,-0.334389 z" />
<path
   id="path14"
   style="fill:#ccf7f5;stroke-width:0.059416"
   d="m 14.505632,31.599795 c -0.323185,0 -0.631975,0.12112 -0.852663,0.334458 -0.730436,0.706056 -1.7204,1.094889 -2.787522,1.094889 -1.0671217,0 -2.0570223,-0.388833 -2.787521,-1.094889 -0.2206873,-0.213338 -0.529476,-0.334389 -0.8526632,-0.334389 -0.3231866,0 -0.6317726,0.121106 -0.8525846,0.334389 -0.7304984,0.706056 -1.7204771,1.094889 -2.7875999,1.094889 -0.6445612,0 -1.1671185,0.472278 -1.1671185,1.054855 0,0.235716 0.086607,0.45263 0.2311737,0.628255 0.1585679,-0.02052 0.322844,-0.0036 0.4821131,0.01688 0.1084897,0.0198 0.2143828,0.04996 0.3244557,0.06192 0.1643741,0.01922 0.3298513,0.0275 0.4955507,0.03063 0.1719463,-0.01292 0.3434666,-0.03018 0.5136759,-0.05606 0.2028811,-0.03517 0.401179,-0.08808 0.6015673,-0.132953 0.1695883,-0.04099 0.340995,-0.07748 0.5071913,-0.128854 0.1427257,-0.04849 0.2852973,-0.09776 0.4307847,-0.139236 0.196279,-0.05948 0.3932673,-0.117363 0.583989,-0.190637 0.1894443,-0.06559 0.3845203,-0.14541 0.5893013,-0.135915 0.029253,0.0014 0.058697,0.0046 0.08836,0.0099 0.08746,0.01873 0.1730694,0.04382 0.2629708,0.05246 0.1380154,0.02162 0.2765967,0.04104 0.4133627,0.06849 0.1773293,0.04042 0.3515807,0.09101 0.5191447,0.157736 0.085857,0.03132 0.1744526,0.06577 0.2659393,0.07964 v -5.9e-5 c 0.3830113,0.05809 0.607246,0.212719 0.6513333,0.366871 0.0267,0.01165 0.05338,0.02331 0.080157,0.03481 0.086884,0.04244 0.1804993,0.06805 0.2733606,0.09694 0.1487847,0.03697 0.2989511,0.06867 0.4503171,0.09567 0.208843,0.03771 0.419749,0.06421 0.631099,0.08741 0.08921,0.008 0.178272,0.01719 0.267345,0.02633 0.100329,-0.01131 0.200442,-0.02379 0.299769,-0.04081 0.165999,-0.04432 0.327494,-0.101244 0.489612,-0.155756 0.154027,-0.05851 0.309453,-0.114036 0.465473,-0.168042 0.129519,-0.05234 0.262636,-0.09659 0.397972,-0.13486 0.09933,-0.02657 0.1942,-0.06469 0.289611,-0.100754 0.08025,-0.03132 0.156322,-0.07013 0.231955,-0.109439 0.08244,-0.04962 0.170557,-0.09066 0.256487,-0.135001 0.08031,-0.04505 0.164646,-0.08367 0.24758,-0.124479 0.02606,-0.01715 0.0091,-0.0064 0.05195,-0.03108 0.151794,-0.08741 0.29177,-0.125359 0.41055,-0.127163 0.09001,-0.0014 0.16614,0.01935 0.227189,0.05409 0.0674,0.0071 0.140631,0.0221 0.219377,0.04674 0.126937,0.03972 0.249515,0.08871 0.36719,0.14707 0.131751,0.06999 0.251531,0.155338 0.369144,0.242956 0.08952,0.06238 0.182341,0.120587 0.274845,0.179269 0.05058,0.02664 0.05787,0.03056 0.08,0.04279 0.117688,0.04481 0.236564,0.08713 0.357112,0.125328 0.09422,0.01898 0.188803,0.0366 0.283596,0.05281 0.247577,0.04892 0.499938,0.07332 0.751022,0.102306 0.226837,0.02754 0.454633,0.04658 0.682583,0.06404 l 4.33e-4,-2.026255 c -0.947372,-0.06806 -1.817551,-0.446944 -2.476425,-1.083802 -0.220688,-0.213342 -0.529397,-0.33439 -0.852585,-0.33439 z" />
<path
   style="fill:#f2f2f2;stroke-width:0.0359164"
   d="m 30.073429,32.040751 c -0.166235,-0.142316 -0.386921,-0.29766 -0.490413,-0.345211 -0.394432,-0.181225 -0.901897,-0.129628 -1.263135,0.128432 l -0.192158,0.137269 V 31.10684 30.252436 h -1.889035 -1.889035 v -1.041401 -1.041401 h 1.889035 1.889035 V 27.12823 26.086829 h -1.889035 -1.889035 v -1.041404 -1.041401 h 1.889035 1.889035 V 22.7919 21.579775 H 26.238688 24.349653 V 20.538374 19.49697 h 1.886391 1.88639 l 0.01532,-1.818186 c 0.01456,-1.728193 0.01949,-1.83503 0.09955,-2.158492 0.08671,-0.350326 0.28762,-0.874256 0.439064,-1.144973 0.31717,-0.56696 0.99102,-1.279056 1.561854,-1.650502 0.85149,-0.554066 1.901932,-0.875795 2.860385,-0.87607 0.456599,-1.69e-4 0.66395,0.05506 0.893755,0.237868 0.628543,0.500015 0.501026,1.382071 -0.246338,1.703972 -0.186015,0.08012 -0.306637,0.10538 -0.582972,0.122093 -0.743998,0.045 -1.32115,0.263309 -1.822103,0.689208 -0.467546,0.397502 -0.72374,0.805544 -0.8485,1.351409 -0.05395,0.236036 -0.06009,1.085827 -0.06009,8.30537 0,4.423337 -0.01275,8.042072 -0.02833,8.041636 -0.01559,-3.44e-4 -0.164346,-0.117236 -0.33058,-0.259552 z"
   id="path377" /><path
   style="fill:#e6e6e6;stroke-width:0.0359164"
   d="m 18.92505,32.771319 c 0.611031,-0.631273 0.735557,-1.536624 0.317031,-2.304947 -0.134411,-0.246747 -0.511942,-0.632754 -0.743553,-0.760244 l -0.155075,-0.08536 0.01032,-6.914228 0.01031,-6.914232 0.0802,-0.290224 c 0.171984,-0.622387 0.423816,-1.151326 0.772424,-1.62237 0.259412,-0.350522 0.853232,-0.905626 1.233466,-1.153047 0.865255,-0.563028 1.90479,-0.877532 2.9017,-0.877889 0.350098,-1.14e-4 0.400171,0.0084 0.613393,0.104713 0.699721,0.316002 0.847919,1.147025 0.293849,1.647769 -0.229391,0.207308 -0.389654,0.260524 -0.943379,0.313238 -1.124175,0.107024 -1.886502,0.553159 -2.364737,1.383914 -0.291188,0.505828 -0.30329,0.606162 -0.303591,2.51695 l -2.8e-4,1.681608 h 1.832364 1.832363 v 1.041404 1.041401 H 22.479494 20.64713 v 1.212125 1.212124 h 1.832364 1.832363 v 1.041401 1.041404 H 22.479494 20.64713 v 1.041401 1.041404 h 1.832364 1.832363 v 1.041401 1.041401 H 22.479494 20.64713 v 0.955542 0.955543 l -0.217239,0.15487 c -0.277106,0.197546 -0.891008,0.47234 -1.255449,0.561955 -0.432967,0.106473 -0.450556,0.09878 -0.249407,-0.109027 z"
   id="path448" /><path
   style="fill:#cccccc;stroke-width:0.0359164"
   d="m 30.054539,31.999954 c -0.415417,-0.329776 -0.61423,-0.415116 -0.968103,-0.415552 -0.320528,-3.44e-4 -0.524118,0.05861 -0.773853,0.224286 l -0.18486,0.12264 V 31.09188 30.252436 h -1.889035 -1.889035 v -1.041401 -1.041401 h 1.889035 1.889035 V 27.12823 26.086829 h -1.889035 -1.889035 v -1.041404 -1.041401 h 1.889035 1.889035 V 22.7919 21.579775 H 26.238688 24.349653 V 20.538374 19.49697 h 1.883137 1.883136 l 0.02479,-0.517594 c 0.01363,-0.284677 0.02491,-1.041401 0.02507,-1.681608 1.6e-4,-0.640207 0.01613,-1.288474 0.03548,-1.440591 0.06576,-0.516769 0.349417,-1.267059 0.645313,-1.706876 0.219419,-0.326144 0.670457,-0.822354 0.993879,-1.093414 0.85994,-0.720727 2.085238,-1.172717 3.193822,-1.178148 0.471298,-0.0024 0.65243,0.03372 0.863096,0.171627 0.445932,0.29194 0.591932,0.819617 0.34856,1.259772 -0.200415,0.36246 -0.51683,0.529334 -1.115876,0.588496 -0.205814,0.02032 -0.475232,0.06026 -0.598706,0.08873 -0.933078,0.215208 -1.736314,0.922501 -2.005084,1.765583 -0.03501,0.109807 -0.05641,0.244251 -0.04755,0.298763 0.0089,0.05451 0.002,0.09911 -0.01514,0.09911 -0.01718,0 -0.03373,1.655575 -0.03677,3.679052 -0.003,2.023478 -0.01579,5.646891 -0.02833,8.05203 l -0.02281,4.372978 z"
   id="path519" /></svg>
