<?xml version="1.0" encoding="UTF-8" standalone="no"?>
<!-- Uploaded to: SVG Repo, www.svgrepo.com, Generator: SVG Repo Mixer Tools -->

<svg
   height="85.005905"
   width="60.448612"
   version="1.1"
   id="Capa_1"
   viewBox="0 0 38.687338 54.404097"
   xml:space="preserve"
   sodipodi:docname="pool-freezing.svg"
   inkscape:version="1.2 (dc2aedaf03, 2022-05-15)"
   xmlns:inkscape="http://www.inkscape.org/namespaces/inkscape"
   xmlns:sodipodi="http://sodipodi.sourceforge.net/DTD/sodipodi-0.dtd"
   xmlns="http://www.w3.org/2000/svg"
   xmlns:svg="http://www.w3.org/2000/svg"><defs
   id="defs19" /><sodipodi:namedview
   id="namedview17"
   pagecolor="#ffffff"
   bordercolor="#000000"
   borderopacity="0.25"
   inkscape:showpageshadow="2"
   inkscape:pageopacity="0.0"
   inkscape:pagecheckerboard="0"
   inkscape:deskcolor="#d1d1d1"
   showgrid="false"
   inkscape:zoom="1.05875"
   inkscape:cx="307.43802"
   inkscape:cy="307.91027"
   inkscape:window-width="1920"
   inkscape:window-height="1027"
   inkscape:window-x="-8"
   inkscape:window-y="-8"
   inkscape:window-maximized="1"
   inkscape:current-layer="Capa_1" />
<path
   style="fill:#f0a479;stroke-width:0.0644852"
   d="M 19.348272,14.178655 C 18.261395,13.71319 17.734769,12.397896 18.171957,11.24095 l 0.425876,-1.126872 c 0.437313,-1.1570112 1.672753,-1.7176195 2.75963,-1.2522199 l 1.058565,0.453357 c 1.08694,0.4655321 1.613627,1.7806929 1.176378,2.9377049 l -0.425876,1.126938 c -0.437252,1.156945 -1.672816,1.717552 -2.759694,1.252154 z"
   id="path2" />
<path
   style="fill:#707070;stroke-width:0.0644852"
   d="m 33.855447,16.42646 c -2.832756,0 -5.137448,2.453408 -5.137448,5.469025 v 3.55034 H 21.25861 v -3.55034 c 0,-1.645367 1.25744,-2.984013 2.803067,-2.984013 0.644626,0 1.16719,-0.556284 1.16719,-1.242505 0,-0.686224 -0.522564,-1.242507 -1.16719,-1.242507 -2.832755,0 -5.137447,2.453408 -5.137447,5.469025 v 19.798533 c 0,0.686223 0.522564,1.242507 1.16719,1.242507 0.644626,0 1.16719,-0.556284 1.16719,-1.242507 v -3.528186 h 7.459389 v 3.386272 c 0,0.686221 0.522564,1.242505 1.16719,1.242505 0.644626,0 1.16719,-0.556284 1.16719,-1.242505 V 21.895418 c 0,-1.645366 1.25744,-2.984013 2.803068,-2.984013 0.644626,0 1.16719,-0.556282 1.16719,-1.242505 6.2e-5,-0.686157 -0.522564,-1.24244 -1.16719,-1.24244 z m -5.13751,11.504377 v 2.839902 h -7.459389 v -2.839902 z m -7.459389,7.749915 v -2.424999 h 7.459389 v 2.424999 z"
   id="path4" />
<path
   style="fill:#575757;stroke-width:0.0644852"
   d="m 33.855447,16.42646 c -2.832756,0 -5.137448,2.453408 -5.137448,5.468958 v 3.55034 h -3.77907 v 2.485014 h 3.77907 v 2.8399 h -3.77907 v 2.485014 h 3.77907 v 2.424999 h -3.77907 v 2.485014 h 3.77907 v 3.386269 c 0,0.686225 0.522564,1.242509 1.16719,1.242509 0.644626,0 1.16719,-0.556284 1.16719,-1.242509 v -19.65655 c 0,-1.645366 1.25744,-2.983946 2.803068,-2.983946 0.644626,0 1.16719,-0.556284 1.16719,-1.242505 0,-0.686224 -0.522564,-1.242507 -1.16719,-1.242507 z"
   id="path6" />
<path
   style="fill:#f0a479;stroke-width:0.0644852"
   d="m 25.629629,37.043923 0.369876,-8.773726 c 0.0118,-0.282631 -0.02438,-0.555816 -0.10068,-0.810372 -0.22175,-0.748499 -0.794626,-1.359074 -1.563002,-1.559005 l -5.946387,-1.546431 1.718816,-4.548205 7.583015,1.846627 c 1.223126,0.29787 2.441566,-0.51623 2.72138,-1.818284 0.279812,-1.302055 -0.48494,-2.598984 -1.708128,-2.896852 L 18.92025,14.554923 c -0.02925,-0.0071 -0.0585,-0.01316 -0.08769,-0.01886 -1.292815,-0.362141 -2.666943,0.347435 -3.178944,1.701983 l -3.034256,8.028955 c -0.554813,1.46832 0.1135,3.137371 1.492691,3.727918 0.165126,0.07066 0.333063,0.122296 0.501563,0.156554 l 6.949193,1.807372 -0.298625,7.085114"
   id="path8" />
<path
   style="fill:#ccf7f5;stroke-width:0.0644852"
   d="m 33.310757,43.898262 c -1.31319,0 -2.59163,-0.45429 -3.640194,-1.272448 -1.04844,0.818223 -2.326942,1.272448 -3.64007,1.272448 -1.313252,0 -2.591565,-0.454156 -3.640069,-1.272448 -1.048502,0.818223 -2.326942,1.272448 -3.640069,1.272448 -1.313127,0 -2.59163,-0.45429 -3.640195,-1.272448 -1.048502,0.818223 -2.326942,1.272448 -3.640069,1.272448 -1.313065,0 -2.5916299,-0.45429 -3.6400693,-1.272448 -1.0485024,0.818223 -2.3270046,1.272448 -3.6400697,1.272448 -0.6446262,0 -1.1671897,-0.556283 -1.1671897,-1.242509 0,-0.686221 0.5225635,-1.242505 1.1671897,-1.242505 1.0671271,0 2.0570665,-0.458016 2.7875681,-1.289612 0.2206876,-0.251295 0.529376,-0.393877 0.8526266,-0.393877 0.323188,0 0.6318136,0.142647 0.8526266,0.393877 0.7305013,0.831665 1.7204407,1.289612 2.7875677,1.289612 1.067127,0 2.057129,-0.458016 2.787505,-1.289612 0.220688,-0.251295 0.529439,-0.393943 0.852627,-0.393943 0.323188,0 0.631814,0.142646 0.852627,0.393878 0.730501,0.831661 1.72044,1.289609 2.787568,1.289609 1.067126,0 2.057066,-0.458013 2.787505,-1.289609 0.220751,-0.251297 0.529439,-0.393945 0.852627,-0.393945 0.323188,0 0.631938,0.142646 0.852626,0.393876 0.730501,0.831665 1.720441,1.289678 2.787567,1.289678 1.067128,0 2.05713,-0.458013 2.787506,-1.289678 0.220688,-0.251295 0.529376,-0.393943 0.852626,-0.393943 0.323126,0 0.63194,0.142646 0.852628,0.393879 0.7305,0.831664 1.720502,1.289677 2.78763,1.289677 0.644626,0 1.16719,0.556284 1.16719,1.242509 -6.34e-4,0.686286 -0.52319,1.242638 -1.167816,1.242638 z"
   id="path10" />
<path
   style="fill:#74d6d0;stroke-width:0.0644852"
   d="m 33.310757,43.898262 c -1.31319,0 -2.59163,-0.45429 -3.640194,-1.272448 -1.04844,0.818223 -2.326942,1.272448 -3.64007,1.272448 -1.313252,0 -2.591565,-0.454156 -3.640069,-1.272448 -1.048502,0.818223 -2.326942,1.272448 -3.640069,1.272448 -1.313127,0 -2.59163,-0.45429 -3.640195,-1.272448 -1.048502,0.818223 -2.326942,1.272448 -3.640069,1.272448 -1.313065,0 -2.5916299,-0.45429 -3.6400693,-1.272448 -1.0485024,0.818223 -2.3270046,1.272448 -3.6400697,1.272448 -0.6446262,0 -1.1671897,-0.556283 -1.1671897,-1.242509 0,-0.686221 0.5225635,-1.242505 1.1671897,-1.242505 1.0671271,0 2.0570665,-0.458016 2.7875681,-1.289612 0.2206876,-0.251295 0.529376,-0.393877 0.8526266,-0.393877 0.323188,0 0.6318136,0.142647 0.8526266,0.393877 0.7305013,0.831665 1.7204407,1.289612 2.7875677,1.289612 1.067127,0 2.057129,-0.458016 2.787505,-1.289612 0.220688,-0.251295 0.529439,-0.393943 0.852627,-0.393943 0.323188,0 0.631814,0.142646 0.852627,0.393878 0.730501,0.831661 1.72044,1.289609 2.787568,1.289609 1.067126,0 2.057066,-0.458013 2.787505,-1.289609 0.220751,-0.251297 0.529439,-0.393945 0.852627,-0.393945 0.323188,0 0.631938,0.142646 0.852626,0.393876 0.730501,0.831665 1.720441,1.289678 2.787567,1.289678 1.067128,0 2.05713,-0.458013 2.787506,-1.289678 0.220688,-0.251295 0.529376,-0.393943 0.852626,-0.393943 0.323126,0 0.63194,0.142646 0.852628,0.393879 0.7305,0.831664 1.720502,1.289677 2.78763,1.289677 0.644626,0 1.16719,0.556284 1.16719,1.242509 -6.34e-4,0.686286 -0.52319,1.242638 -1.167816,1.242638 z"
   id="path12" />
<path
   style="fill:#ccf7f5;stroke-width:0.0644852"
   d="m 18.439104,41.400141 c -0.947376,-0.08018 -1.817503,-0.526411 -2.47638,-1.27657 -0.220687,-0.251297 -0.529438,-0.393878 -0.852626,-0.393878 -0.323188,0 -0.631939,0.142646 -0.852626,0.393943 -0.73044,0.831665 -1.720379,1.289677 -2.787506,1.289677 -1.067127,0 -2.0570664,-0.458012 -2.7875677,-1.289677 -0.220688,-0.251295 -0.5294386,-0.393877 -0.8526266,-0.393877 -0.3231884,0 -0.631814,0.142647 -0.8526266,0.393877 -0.7305016,0.831665 -1.720441,1.289677 -2.7875681,1.289677 -0.6445637,0 -1.1671272,0.556284 -1.1671272,1.242509 0,0.686221 0.5225635,1.242505 1.1671897,1.242505 1.313065,0 2.5916298,-0.45429 3.6400696,-1.272444 1.048502,0.818223 2.3270049,1.272444 3.6400689,1.272444 1.31319,0 2.59163,-0.45429 3.64007,-1.272444 0.965502,0.753354 2.125879,1.198194 3.328819,1.263996 z"
   id="path14" />
<path
   style="fill:#cccccc;stroke-width:0.0389805"
   d="m 18.947013,35.342808 c 0,-5.747013 0.0033,-6.052605 0.06611,-6.03172 0.03637,0.01218 0.525151,0.140643 1.086195,0.285632 0.561043,0.145004 1.049831,0.273278 1.086195,0.285063 0.05771,0.01866 0.06611,0.07733 0.06611,0.46112 v 0.439696 h 0.136164 0.136164 l -0.02183,0.311695 c -0.012,0.171423 -0.03103,0.565072 -0.04227,0.874753 -0.04079,1.123104 -0.0565,1.266888 -0.138468,1.266888 -0.07174,0 -0.0731,0.04194 -0.06211,1.910382 l 0.01124,1.910381 1.822919,2e-6 1.822917,4e-6 v 0.542951 0.542952 H 23.08399 21.251627 v 1.125531 1.125534 l -0.217239,0.182423 c -0.452506,0.379976 -1.264903,0.722673 -1.889035,0.796854 l -0.198348,0.02357 z"
   id="path1202" /><path
   style="fill:#cccccc;stroke-width:0.0389805"
   d="m 20.061544,24.774261 -1.095641,-0.2885 -0.01025,-0.770513 -0.01025,-0.770514 0.570548,-1.520637 c 0.3138,-0.836347 0.58467,-1.536214 0.60193,-1.555256 0.02435,-0.02685 1.537802,0.310565 1.576166,0.351403 0.0049,0.0051 -0.05831,0.145809 -0.140366,0.312518 -0.284177,0.577315 -0.301473,0.735452 -0.301774,2.75912 -2e-4,1.399135 -0.01036,1.778733 -0.04749,1.775276 -0.02597,-0.0024 -0.540264,-0.13422 -1.142866,-0.292897 z"
   id="path1204" /><path
   style="fill:#e6e6e6;stroke-width:0.0389805"
   d="m 30.661939,40.2341 c -0.17502,-0.175765 -0.396042,-0.358618 -0.49115,-0.406362 -0.390772,-0.196173 -0.896,-0.128897 -1.246418,0.165982 l -0.19216,0.1617 v -1.006402 -1.0064 h -1.889036 -1.889034 v -0.542952 -0.54295 h 0.335304 0.335304 l 0.02362,-0.125675 c 0.013,-0.06912 0.02362,-0.265552 0.02362,-0.436503 0,-0.170952 0.011,-0.422067 0.02428,-0.558034 l 0.02428,-0.247212 h 1.505846 1.505846 v -1.226667 -1.226669 h -1.460424 -1.460424 l 0.02498,-0.633442 c 0.0138,-0.348394 0.036,-0.900396 0.04946,-1.226667 l 0.02448,-0.593226 h 1.410936 1.410966 V 29.35486 27.927099 h -1.356006 -1.356006 l -0.06048,-0.285132 c -0.11134,-0.524855 -0.462812,-1.095022 -0.85198,-1.38212 l -0.1536,-0.1133 v -0.33639 -0.336388 h 1.889036 1.889034 v -1.904017 -1.904018 l 0.16056,-0.05111 c 0.646924,-0.205937 1.23549,-0.808881 1.465284,-1.501073 0.06014,-0.181186 0.08834,-0.379882 0.10212,-0.719778 0.0166,-0.407367 0.008,-0.508502 -0.06502,-0.764154 -0.04622,-0.162053 -0.10932,-0.346669 -0.14018,-0.410251 -0.05516,-0.113575 -0.05298,-0.118996 0.1243,-0.310614 0.587254,-0.634692 1.670124,-1.209171 2.60324,-1.381056 0.447534,-0.08244 1.047772,-0.08223 1.275718,4.81e-4 0.561872,0.203803 0.886054,0.949275 0.673432,1.548586 -0.1807,0.509316 -0.559994,0.776256 -1.164156,0.8193 -0.744,0.053 -1.321152,0.310149 -1.822104,0.811819 -0.467546,0.468215 -0.72374,0.948849 -0.8485,1.591824 -0.05394,0.278025 -0.0601,1.278994 -0.0601,9.782893 0,5.210251 -0.0128,9.472719 -0.02834,9.47215 -0.0156,-6.88e-4 -0.17154,-0.144827 -0.34656,-0.32059 z"
   id="path1206" /><path
   style="fill:#cccccc;stroke-width:0.0389805"
   d="m 24.727459,26.026786 c -0.0935,-0.04602 -0.561044,-0.188041 -1.038969,-0.315592 l -0.868956,-0.231915 1.048413,-0.0027 1.048416,-0.0027 v 0.321748 c 0,0.176962 -0.0042,0.320226 -0.0094,0.318362 -0.0052,-0.0019 -0.08596,-0.04105 -0.17946,-0.08706 z"
   id="path1208" /></svg>
