<?xml version="1.0" encoding="UTF-8" standalone="no"?>
<!-- Uploaded to: SVG Repo, www.svgrepo.com, Generator: SVG Repo Mixer Tools -->

<svg
   height="844.39197"
   width="797.16644"
   version="1.1"
   id="Capa_1"
   viewBox="0 0 510.18951 540.41402"
   xml:space="preserve"
   sodipodi:docname="pool-ladder-person-chilly.svg"
   inkscape:version="1.2 (dc2aedaf03, 2022-05-15)"
   xmlns:inkscape="http://www.inkscape.org/namespaces/inkscape"
   xmlns:sodipodi="http://sodipodi.sourceforge.net/DTD/sodipodi-0.dtd"
   xmlns="http://www.w3.org/2000/svg"
   xmlns:svg="http://www.w3.org/2000/svg"><defs
   id="defs19" /><sodipodi:namedview
   id="namedview17"
   pagecolor="#ffffff"
   bordercolor="#000000"
   borderopacity="0.25"
   inkscape:showpageshadow="2"
   inkscape:pageopacity="0.0"
   inkscape:pagecheckerboard="0"
   inkscape:deskcolor="#d1d1d1"
   showgrid="false"
   inkscape:zoom="1.05875"
   inkscape:cx="340.49587"
   inkscape:cy="501.53483"
   inkscape:window-width="1920"
   inkscape:window-height="1027"
   inkscape:window-x="-8"
   inkscape:window-y="-8"
   inkscape:window-maximized="1"
   inkscape:current-layer="Capa_1" />
<path
   style="fill:#f0a479"
   d="m 223.12978,171.46827 c -17.39,-6.996 -25.816,-26.765 -18.821,-44.154 l 6.814,-16.937 c 6.997,-17.390004 26.764,-25.816005 44.154,-18.821004 l 16.937,6.814 c 17.391,6.997004 25.818,26.764004 18.822,44.154004 l -6.814,16.938 c -6.996,17.389 -26.765,25.815 -44.155,18.82 z"
   id="path2" />
<path
   style="fill:#707070"
   d="m 493.327,124.85583 c -45.324,0 -82.199,36.875 -82.199,82.2 v 53.362 h -119.35 v -53.362 c 0,-24.73 20.119,-44.85 44.849,-44.85 10.314,0 18.675,-8.361 18.675,-18.675 0,-10.314 -8.361,-18.675 -18.675,-18.675 -45.324,0 -82.199,36.875 -82.199,82.2 v 297.574 c 0,10.314 8.361,18.675 18.675,18.675 10.314,0 18.675,-8.361 18.675,-18.675 v -53.029 h 119.35 v 50.896 c 0,10.314 8.361,18.675 18.675,18.675 10.314,0 18.675,-8.361 18.675,-18.675 v -295.442 c 0,-24.73 20.119,-44.85 44.849,-44.85 10.314,0 18.675,-8.361 18.675,-18.675 0.001,-10.313 -8.361,-18.674 -18.675,-18.674 z m -82.2,172.912 v 42.684 h -119.35 v -42.684 z m -119.35,116.482 v -36.448 h 119.35 v 36.448 z"
   id="path4" />
<path
   style="fill:#575757"
   d="m 493.327,124.85583 c -45.324,0 -82.199,36.875 -82.199,82.199 v 53.362 h -60.465 v 37.35 h 60.465 v 42.684 h -60.465 v 37.35 h 60.465 v 36.448 h -60.465 v 37.35 h 60.465 v 50.896 c 0,10.314 8.361,18.675 18.675,18.675 10.314,0 18.675,-8.361 18.675,-18.675 v -295.44 c 0,-24.73 20.119,-44.849 44.849,-44.849 10.314,0 18.675,-8.361 18.675,-18.675 0,-10.314 -8.361,-18.675 -18.675,-18.675 z"
   id="path6" />
<path
   style="fill:#f0a479"
   d="m 341.76601,519.36704 5.918,-131.87 c 0.19,-4.248 -0.39,-8.354 -1.611,-12.18 -3.548,-11.25 -12.714,-20.427 -25.008,-23.432 l -95.142,-23.243 27.501,-68.36 121.328,27.755 c 19.57,4.477 39.065,-7.759 43.542,-27.329 4.477,-19.57 -7.759,-39.063 -27.33,-43.54 l -156.548,-35.813 c -0.468,-0.107 -0.936,-0.197 -1.403,-0.284 -20.685,-5.443 -42.671,5.222 -50.863,25.581 l -48.548,120.676 c -8.877,22.069 1.816,47.155 23.883,56.031 2.642,1.062 5.329,1.838 8.025,2.353 l 111.187,27.165 -4.778,106.49"
   id="path8" />
<path
   style="fill:#ccf7f5"
   d="m 484.612,537.75983 c -21.011,0 -41.466,-6.828 -58.243,-19.125 -16.775,12.298 -37.231,19.125 -58.241,19.125 -21.012,0 -41.465,-6.826 -58.241,-19.125 -16.776,12.298 -37.231,19.125 -58.241,19.125 -21.01,0 -41.466,-6.828 -58.243,-19.125 -16.776,12.298 -37.231,19.125 -58.241,19.125 -21.009,0 -41.466,-6.828 -58.241,-19.125 -16.776,12.298 -37.232,19.125 -58.241,19.125 -10.314,0 -18.675,-8.361 -18.675,-18.675 0,-10.314 8.361,-18.675 18.675,-18.675 17.074,0 32.913,-6.884 44.601,-19.383 3.531,-3.777 8.47,-5.92 13.642,-5.92 5.171,0 10.109,2.144 13.642,5.92 11.688,12.5 27.527,19.383 44.601,19.383 17.074,0 32.914,-6.884 44.6,-19.383 3.531,-3.777 8.471,-5.921 13.642,-5.921 5.171,0 10.109,2.144 13.642,5.92 11.688,12.5 27.527,19.383 44.601,19.383 17.074,0 32.913,-6.884 44.6,-19.383 3.532,-3.777 8.471,-5.921 13.642,-5.921 5.171,0 10.111,2.144 13.642,5.92 11.688,12.5 27.527,19.384 44.601,19.384 17.074,0 32.914,-6.884 44.6,-19.384 3.531,-3.777 8.47,-5.921 13.642,-5.921 5.17,0 10.111,2.144 13.642,5.92 11.688,12.5 27.528,19.384 44.602,19.384 10.314,0 18.675,8.361 18.675,18.675 -0.01,10.315 -8.371,18.677 -18.685,18.677 z"
   id="path10" />
<path
   style="fill:#74d6d0"
   d="m 484.612,537.75983 c -21.011,0 -41.466,-6.828 -58.243,-19.125 -16.775,12.298 -37.231,19.125 -58.241,19.125 -21.012,0 -41.465,-6.826 -58.241,-19.125 -16.776,12.298 -37.231,19.125 -58.241,19.125 -21.01,0 -41.466,-6.828 -58.243,-19.125 -16.776,12.298 -37.231,19.125 -58.241,19.125 -21.009,0 -41.466,-6.828 -58.241,-19.125 -16.776,12.298 -37.232,19.125 -58.241,19.125 -10.314,0 -18.675,-8.361 -18.675,-18.675 0,-10.314 8.361,-18.675 18.675,-18.675 17.074,0 32.913,-6.884 44.601,-19.383 3.531,-3.777 8.47,-5.92 13.642,-5.92 5.171,0 10.109,2.144 13.642,5.92 11.688,12.5 27.527,19.383 44.601,19.383 17.074,0 32.914,-6.884 44.6,-19.383 3.531,-3.777 8.471,-5.921 13.642,-5.921 5.171,0 10.109,2.144 13.642,5.92 11.688,12.5 27.527,19.383 44.601,19.383 17.074,0 32.913,-6.884 44.6,-19.383 3.532,-3.777 8.471,-5.921 13.642,-5.921 5.171,0 10.111,2.144 13.642,5.92 11.688,12.5 27.527,19.384 44.601,19.384 17.074,0 32.914,-6.884 44.6,-19.384 3.531,-3.777 8.47,-5.921 13.642,-5.921 5.17,0 10.111,2.144 13.642,5.92 11.688,12.5 27.528,19.384 44.602,19.384 10.314,0 18.675,8.361 18.675,18.675 -0.01,10.315 -8.371,18.677 -18.685,18.677 z"
   id="path12" />
<path
   style="fill:#ccf7f5"
   d="m 246.666,500.21283 c -15.158,-1.205 -29.08,-7.912 -39.622,-19.187 -3.531,-3.777 -8.471,-5.92 -13.642,-5.92 -5.171,0 -10.111,2.144 -13.642,5.921 -11.687,12.5 -27.526,19.384 -44.6,19.384 -17.074,0 -32.913,-6.884 -44.601,-19.384 -3.531,-3.777 -8.471,-5.92 -13.642,-5.92 -5.171,0 -10.109,2.144 -13.642,5.92 -11.688,12.5 -27.527,19.384 -44.601,19.384 -10.313,0 -18.674,8.361 -18.674,18.675 0,10.314 8.361,18.675 18.675,18.675 21.009,0 41.466,-6.828 58.241,-19.125 16.776,12.298 37.232,19.125 58.241,19.125 21.011,0 41.466,-6.828 58.241,-19.125 15.448,11.323 34.014,18.009 53.261,18.998 z"
   id="path14" />
<path
   style="fill:#cccccc;stroke-width:0.94451"
   d="m 690.98185,754.1942 c -4.37558,-4.12752 -9.90096,-8.42194 -12.27863,-9.54316 -9.76925,-4.60681 -22.39983,-3.02684 -31.16023,3.89786 l -4.80391,3.79727 v -23.63472 -23.63471 h -47.2255 -47.2255 v -28.80755 -28.80756 h 47.2255 47.2255 v -28.80756 -28.80755 h -47.2255 -47.2255 V 561.03896 532.2314 h 47.2255 47.2255 v -33.5301 -33.53011 h -47.2255 -47.2255 v -11.33412 c 0,-7.42288 0.34885,-11.33412 1.01093,-11.33412 0.55601,0 9.37538,1.94232 19.59858,4.31627 21.91392,5.08866 30.81085,5.92444 40.69479,3.82284 15.73861,-3.34647 27.78227,-11.63196 36.92413,-25.40213 5.68669,-8.56575 7.70182,-15.47288 8.2549,-28.29492 0.43368,-10.05405 0.25076,-11.81244 -1.96983,-18.93463 -1.34635,-4.31822 -4.20864,-10.5755 -6.36064,-13.90506 l -3.91272,-6.05375 0.47734,-25.5429 c 0.40116,-21.46663 0.80458,-27.04519 2.52792,-34.95657 2.09635,-9.62378 7.07771,-24.0699 10.92142,-31.67253 7.92918,-15.68339 24.7753,-35.38159 39.04606,-45.65662 21.28707,-15.32681 47.54793,-24.2265 71.50906,-24.2341 11.41488,-0.004 16.59862,1.52292 22.34368,6.57993 15.71347,13.83155 12.52558,38.23127 -6.15839,47.13571 -4.65033,2.21626 -7.66586,2.91508 -14.57417,3.37742 -18.59983,1.24481 -33.02851,7.28368 -45.55223,19.0651 -11.68856,10.99576 -18.09337,22.28312 -21.21234,37.38301 -1.34866,6.52925 -1.50238,30.03643 -1.50238,229.74539 0,122.35957 -0.31877,222.46101 -0.70838,222.44765 -0.38961,-0.0133 -4.2884,-3.40135 -8.66396,-7.52886 z"
   id="path881"
   transform="scale(0.64000374)" /><path
   style="fill:#e6e6e6;stroke-width:0.94451"
   d="m 541.67651,588.06687 c 0,-0.97881 -1.76743,-5.33537 -3.92762,-9.68123 -2.93059,-5.89577 -5.62793,-9.57992 -10.62574,-14.51315 -10.4784,-10.343 -13.49634,-11.51502 -57.35446,-22.27368 -20.97018,-5.14411 -45.56562,-11.18663 -54.65653,-13.42781 l -16.52893,-4.07488 -0.24335,-58.33596 c -0.23061,-55.27904 -0.15637,-58.30973 1.41676,-57.83535 2.10304,0.63418 146.41987,33.63363 147.09028,33.63363 0.27316,0 0.49665,5.31287 0.49665,11.80638 v 11.80637 h -45.80874 -45.80874 v 33.53011 33.5301 h 45.80874 45.80874 v 28.80756 28.80756 h -2.83353 c -2.14582,0 -2.83353,-0.43194 -2.83353,-1.77965 z"
   id="path883"
   transform="scale(0.64000374)" /><path
   style="fill:#e6e6e6;stroke-width:0.94451"
   d="m 398.11098,709.3663 v -72.12675 l 5.86899,1.36914 c 10.48909,2.44694 27.32623,6.78537 27.6123,7.11487 0.29179,0.33608 -5.30207,129.52912 -5.62771,129.9747 -0.45931,0.62849 -18.43202,4.74283 -22.8949,5.24113 l -4.95868,0.55366 z"
   id="path885"
   transform="scale(0.64000374)" /><path
   style="fill:#e6e6e6;stroke-width:0.94451"
   d="m 429.75207,297.48712 c -14.02598,-3.29003 -25.98911,-6.116 -26.58474,-6.27995 -1.35117,-0.3719 3.73127,-15.61922 8.1277,-24.38308 21.35705,-42.5733 66.03269,-70.81612 112.0488,-70.83446 8.75238,-0.003 10.00418,0.23297 15.33469,2.89665 17.4929,8.74131 21.19782,31.72932 7.34616,45.58098 -5.73472,5.73471 -9.74125,7.20673 -23.58428,8.66496 -22.49886,2.37004 -38.04988,10.09022 -50.41071,25.02599 -4.82267,5.8273 -13.47007,21.35081 -13.47007,24.18101 0,1.87114 -0.51509,1.78439 -28.80755,-4.8521 z"
   id="path887"
   transform="scale(0.64000374)" /><path
   style="fill:#e6e6e6;stroke-width:0.94451"
   d="m 539.48818,699.64581 c 0.57712,-10.67949 2.18833,-47.27813 2.18833,-49.70784 0,-2.12182 0.40566,-2.47634 2.83353,-2.47634 h 2.83353 v 28.80756 28.80755 h -4.07444 -4.07444 z"
   id="path889"
   transform="scale(0.64000374)" /></svg>
