<?xml version="1.0" encoding="UTF-8" standalone="no"?>
<!-- Uploaded to: SVG Repo, www.svgrepo.com, Generator: SVG Repo Mixer Tools -->

<svg
   width="800px"
   height="800px"
   viewBox="0 0 1024 1024"
   class="icon"
   version="1.1"
   id="svg1537"
   sodipodi:docname="pool-filter.svg"
   inkscape:version="1.2 (dc2aedaf03, 2022-05-15)"
   xmlns:inkscape="http://www.inkscape.org/namespaces/inkscape"
   xmlns:sodipodi="http://sodipodi.sourceforge.net/DTD/sodipodi-0.dtd"
   xmlns="http://www.w3.org/2000/svg"
   xmlns:svg="http://www.w3.org/2000/svg">
  <defs
     id="defs1541" />
  <sodipodi:namedview
     id="namedview1539"
     pagecolor="#ffffff"
     bordercolor="#000000"
     borderopacity="0.25"
     inkscape:showpageshadow="2"
     inkscape:pageopacity="0.0"
     inkscape:pagecheckerboard="0"
     inkscape:deskcolor="#d1d1d1"
     showgrid="false"
     inkscape:zoom="1.05875"
     inkscape:cx="377.33176"
     inkscape:cy="401.41677"
     inkscape:window-width="1920"
     inkscape:window-height="1027"
     inkscape:window-x="-8"
     inkscape:window-y="-8"
     inkscape:window-maximized="1"
     inkscape:current-layer="svg1537" />
  <path
     d="M 719.69825,843.75503 V 533.60468 c 0,-37.68967 -22.12948,-68.25506 -49.42395,-68.25506 H 508.32276 c -27.30168,0 -49.42396,30.56539 -49.42396,68.25506 V 892.47582 H 662.905"
     fill="#47a7dd"
     id="path1517"
     style="stroke-width:0.745664" />
  <path
     d="m 544.08695,468.98792 h -63.92394 c -30.4438,0 -55.10408,30.30585 -55.10408,67.67547 v 355.8238 h 63.92395 V 536.65348 c -0.008,-37.36962 24.66028,-67.66556 55.10407,-67.66556 z"
     fill="#3f9ec9"
     id="path1519"
     style="stroke-width:0.784052" />
  <path
     id="path1527"
     style="stroke-width:0.896821"
     d="m 405.60393,392.31151 c -84.9529,3.69165 -152.90002,71.11796 -152.90002,153.4675 v 86.04 h 59.59712 v -86.04 c 0,-51.45167 42.193,-93.61352 95.13182,-96.365 -0.71938,-6.24729 -1.4508,-12.49485 -1.76241,-18.7775 -0.23304,-5.72187 -0.60814,-11.43942 -0.73157,-17.165 0.088,-6.0178 0.24147,-12.03396 0.49368,-18.0475 0.0478,-1.03798 0.1189,-2.07476 0.17138,-3.1125 z m 27.19587,1.0075 c -0.008,0.15171 -0.0172,0.30332 -0.0256,0.455 0.22091,-0.12703 0.44106,-0.25537 0.67274,-0.36 -0.21718,-0.0271 -0.42961,-0.0691 -0.64716,-0.095 z m 132.79473,131.0175 c 0.14858,0.0552 0.27795,0.13111 0.43229,0.18 0.21655,0.0105 0.82227,0.1608 0.64971,0.0325 -0.0987,-0.0734 -0.61116,-0.14542 -1.082,-0.2125 z m 7.2466,12.7025 c -0.48133,0.15858 -0.97437,0.2932 -1.47848,0.405 0.55877,0.84161 1.09895,1.69482 1.6601,2.535 -0.0388,-0.98551 -0.12351,-1.9593 -0.18162,-2.94 z m -10.57446,38.8825 c -0.0193,0.2788 -0.0318,0.40098 -0.0563,0.71 0.34732,0.46285 0.25558,-0.0245 0.0563,-0.71 z" />
  <path
     d="m 166.7082,769.7444 h 59.92161 V 934.3012 H 166.7082 Z m 380.4509,0 h 39.37226 v 76.93653 H 547.1591 Z"
     fill="#4d4d4d"
     id="path1529"
     style="stroke-width:0.882131" />
  <path
     d="M 667.33072,764.0919 H 718.4779 V 581.0007 h -51.14718 a 21.542113,41.949867 0 0 0 -21.5947,41.87022 v 99.36213 a 21.547956,41.961244 0 0 0 21.5947,41.85885 z"
     fill="#e6e6e6"
     id="path1531"
     style="stroke-width:0.716603" />
  <path
     d="M 734.80991,878.39013 H 473.05275 v -209.408 c 0,-7.7824 -6.33742,-14.08569 -14.15395,-14.08569 -7.81654,0 -14.15396,6.31467 -14.15396,14.08569 v 77.0048 h -62.83947 a 14.108444,14.108444 0 0 0 -14.15395,14.08569 v 164.5568 a 14.108444,14.108444 0 0 0 14.15395,14.08569 h 76.99343 a 14.108444,14.108444 0 0 0 14.14257,-14.08569 v -18.06791 h 261.76854 c 7.81653,0 14.14258,-6.31467 14.14257,-14.08569 0,-7.77103 -6.32604,-14.08569 -14.14257,-14.08569 z m -290.06507,32.1536 H 396.04795 V 774.16968 h 48.69689 z"
     fill=""
     id="path1533" />
  <path
     id="secondary"
     d="m 394.76993,875.69933 h -14.13491 a 14.134908,13.651318 0 0 1 -14.13491,-13.65132 v -54.60527 a 14.134908,13.651318 0 0 1 14.13491,-13.65132 h 28.26982 a 14.134908,13.651318 0 0 1 14.1349,13.65132 v 40.95395 a 28.269815,27.302636 0 0 1 -28.26981,27.30264 z m -212.02361,0 H 168.61141 A 28.269815,27.302636 0 0 1 140.3416,848.39669 v -40.95395 a 14.134908,13.651318 0 0 1 14.13491,-13.65132 h 28.26981 a 14.134908,13.651318 0 0 1 14.13491,13.65132 v 54.60527 a 14.134908,13.651318 0 0 1 -14.13491,13.65132 z M 309.96049,684.58087 h -56.53963 a 14.134908,13.651318 0 0 1 -14.13491,-13.65131 v -13.65132 a 28.269815,27.302636 0 0 1 28.26982,-27.30264 h 28.26981 a 28.269815,27.302636 0 0 1 28.26982,27.30264 v 13.65132 a 14.134908,13.651318 0 0 1 -14.13491,13.65131 z"
     style="fill:#2ca9bc;stroke-width:13.891" />
  <path
     id="primary"
     d="m 324.0954,657.27824 h -84.80945 a 70.674538,68.256592 0 0 0 -70.67454,68.25659 v 150.1645 a 28.269815,27.302636 0 0 0 28.26982,27.30264 h 169.61888 a 28.269815,27.302636 0 0 0 28.26982,-27.30264 V 725.53483 A 70.674538,68.256592 0 0 0 324.0954,657.27824 Z"
     style="fill:#000000;stroke-width:13.891" />
  <path
     id="secondary-2"
     data-name="secondary"
     d="m 338.2303,821.09406 v 81.90791 H 225.15104 v -81.90791 a 28.269815,27.302636 0 0 1 28.26982,-27.30264 h 56.53963 a 28.269815,27.302636 0 0 1 28.26981,27.30264 z m 0,-109.21055 a 14.134908,13.651318 0 0 0 -14.1349,-13.65132 h -84.80945 a 14.134909,13.65132 0 0 0 0,27.30264 h 84.80945 a 14.134908,13.651318 0 0 0 14.1349,-13.65132 z"
     style="fill:#2ca9bc;stroke-width:13.891" />
  <path
     style="fill:#e6e6e6;stroke-width:0.94451"
     d="m 382.52656,549.18291 c 0,-123.2594 0.15451,-137.68293 1.54011,-143.77497 4.61855,-20.3062 16.67419,-33.70934 34.12469,-37.93891 5.27508,-1.27855 4.93708,-1.31843 -12.5243,-1.47789 -12.91403,-0.11792 -17.08846,-0.41149 -14.88833,-1.04701 1.80956,-0.52271 31.1063,-0.77706 71.78277,-0.6232 l 68.72539,0.25994 5.98164,3.24307 c 7.29751,3.95649 13.31262,10.57246 17.66097,19.42517 5.75715,11.72085 6.34687,15.37786 6.81583,42.26683 l 0.42417,24.32113 h -21.94138 c -25.26447,0 -26.06622,0.21869 -30.47086,8.31145 -5.22391,9.59807 -5.3889,11.54076 -5.3889,63.45407 0,43.70047 0.14956,48.29526 1.76124,54.10745 2.08906,7.53383 5.667,13.28832 9.84681,15.83688 2.7747,1.69182 4.8544,1.84891 24.51946,1.85214 l 21.4876,0.004 v 30.66588 30.66587 l -15.95715,13.7261 -15.95715,13.72609 h -73.7713 -73.77131 z m 76.50532,82.22205 v -30.22432 h -16.05667 -16.05667 v 30.22432 30.22432 h 16.05667 16.05667 z M 447.69776,420.25122 c 0,-0.80988 -0.43197,-1.20554 -0.95992,-0.87924 -0.52795,0.32629 -0.71539,0.98892 -0.41651,1.4725 0.80967,1.31008 1.37643,1.0658 1.37643,-0.59326 z"
     id="path1950"
     transform="scale(1.28)" />
  <path
     style="fill:#cccccc;stroke-width:0.94451"
     d="m 382.63607,597.16647 c 0.0987,-48.96104 0.46457,-112.18418 0.81306,-140.49587 0.59968,-48.71793 0.7375,-51.75655 2.57258,-56.71603 6.02038,-16.27074 14.44796,-25.61327 27.30016,-30.26402 3.06258,-1.10823 6.20587,-2.27971 6.9851,-2.60329 0.77922,-0.32357 -2.62102,-0.83226 -7.55608,-1.13043 -4.93507,-0.29816 19.74165,-0.62347 54.83714,-0.72291 l 63.81,-0.18079 5.61149,3.31616 c 7.86614,4.64856 13.26035,10.87069 18.00531,20.76884 4.92982,10.28377 5.70273,15.65779 6.41863,44.6281 l 0.49599,20.07084 -21.93285,0.21749 -21.93285,0.21749 21.48761,0.2725 21.4876,0.2725 v 70.82051 70.82053 h -20.90387 c -24.50671,0 -25.10582,-0.1846 -29.86662,-9.20257 -4.96265,-9.40029 -5.11883,-11.51879 -4.78774,-64.94147 0.30354,-48.97767 0.31056,-49.12979 2.51687,-54.59749 1.21686,-3.01563 3.80749,-7.15967 5.75694,-9.20897 1.94946,-2.0493 3.05225,-3.72601 2.45065,-3.72601 -1.62047,0 -5.69491,4.66156 -7.8689,9.00281 -3.58535,7.1596 -3.96793,13.21042 -3.96793,62.75498 0,52.47666 0.20779,54.79961 5.66224,63.29964 4.76911,7.43202 5.2934,7.56359 30.13874,7.56359 h 21.81413 l -0.0296,30.46045 -0.0296,30.46044 -16.26324,13.90253 -16.26323,13.90254 -73.47062,0.029 -73.47063,0.029 z m 76.39581,34.23849 v -30.22432 h -16.05667 -16.05667 v 30.22432 30.22432 h 16.05667 16.05667 z M 447.69776,420.30697 c 0,-0.77923 -0.42503,-1.41677 -0.94451,-1.41677 -0.51948,0 -0.94451,0.63754 -0.94451,1.41677 0,0.77922 0.42503,1.41676 0.94451,1.41676 0.51948,0 0.94451,-0.63754 0.94451,-1.41676 z"
     id="path1952"
     transform="scale(1.28)" />
  <path
     style="fill:#b3b3b3;stroke-width:0.94451"
     d="m 370.24793,603.44853 c 0,-90.73815 0.2348,-86.94303 -5.59192,-90.38496 -6.57053,-3.8813 -15.0258,-0.55058 -17.04342,6.71379 -0.56402,2.03074 -0.96907,15.77912 -0.97214,32.99714 l -0.005,29.51594 h -7.08382 -7.08383 v -84.10122 c 0,-72.77643 0.20006,-85.08153 1.48573,-91.38134 3.81787,-18.70781 16.31277,-33.92245 31.50743,-38.36561 7.03444,-2.05698 52.76522,-2.16544 47.18595,-0.11191 -9.50777,3.49948 -19.00955,12.44982 -24.04959,22.65388 -7.01538,14.20333 -6.45982,1.40012 -6.77449,156.1232 l -0.28285,139.0791 h -5.64589 -5.64589 z"
     id="path2023"
     transform="scale(1.28)" />
  <path
     style="fill:#666666;stroke-width:0.94451"
     d="m 176.82665,669.82319 0.26898,-35.25356 2.60547,-3.93555 c 1.43301,-2.16455 4.37717,-5.108 6.54259,-6.54101 l 3.93713,-2.60547 h 29.89002 29.89002 l 3.93712,2.60547 c 2.16542,1.43301 5.10959,4.37646 6.5426,6.54101 l 2.60546,3.93555 0.26899,35.25356 0.26898,35.25355 h -43.51317 -43.51317 z"
     id="path2094"
     transform="scale(1.28)" />
  <path
     style="fill:#666666;stroke-width:0.94451"
     d="m 179.83471,563.02243 c -4.63755,-4.63755 -4.26374,-10.75585 0.91338,-14.94948 1.83039,-1.48267 5.36549,-1.63381 38.66127,-1.65289 39.75602,-0.0228 40.675,0.0873 42.98055,5.14741 2.03612,4.4688 1.3989,7.97312 -2.08294,11.45496 l -3.21134,3.21134 h -37.02479 -37.0248 z"
     id="path2096"
     transform="scale(1.28)" />
  <path
     style="fill:#666666;stroke-width:0.94451"
     d="m 187.56801,510.7438 c 1.87721,-8.25004 6.93853,-14.20037 14.31909,-16.83423 4.87497,-1.73971 31.49251,-1.73971 36.36747,0 7.38057,2.63386 12.44189,8.58419 14.3191,16.83423 l 0.59101,2.5974 H 220.07084 186.977 Z"
     id="path2098"
     transform="scale(1.28)" />
  <path
     style="fill:#666666;stroke-width:0.94451"
     d="m 122.07948,681.36531 c -2.20694,-1.09242 -5.1403,-3.32349 -6.51858,-4.95793 -4.71897,-5.59605 -5.05323,-7.54615 -5.05323,-29.48098 v -20.43061 l 2.93342,-2.74022 c 2.72424,-2.54482 3.46511,-2.74022 10.38961,-2.74022 h 7.45619 v 31.16883 31.16883 l -2.5974,-7.4e-4 c -1.42857,-4.1e-4 -4.40308,-0.89454 -6.61001,-1.98696 z"
     id="path2100"
     transform="scale(1.28)" />
  <path
     style="fill:#666666;stroke-width:0.94451"
     d="m 308.85478,652.30854 v -31.29319 h 7.62874 c 7.20307,0 7.78554,0.15681 10.43913,2.8104 l 2.8104,2.8104 -0.28565,21.58279 -0.28565,21.5828 -2.60547,3.93404 c -3.25195,4.91018 -8.83318,8.67646 -13.85592,9.35016 l -3.84558,0.5158 z"
     id="path2102"
     transform="scale(1.28)" />
  <rect
     style="fill:#666666;stroke-width:1.28"
     id="rect2158"
     width="141.44983"
     height="76.165291"
     x="513.81348"
     y="386.87134" />
  <rect
     style="fill:#666666;stroke-width:1.28"
     id="rect2160"
     width="131.77803"
     height="58.030697"
     x="400.17001"
     y="391.70718" />
  <path
     style="fill:#cccccc;stroke-width:0.94451"
     d="m 401.41677,356.08028 v -5.1948 h -44.39198 -44.39197 v -22.19599 -22.19598 h 44.39197 c 43.7623,0 44.39198,-0.0268 44.39198,-1.88902 0,-1.8675 0.62967,-1.88902 55.25383,-1.88902 h 55.25384 v 29.27981 29.27981 H 456.6706 401.41677 Z"
     id="path2162"
     transform="scale(1.28)" />
  <path
     style="fill:#cccccc;stroke-width:0.94451"
     d="m 198.34711,454.03584 c 0,-43.33476 0.45936,-48.63244 5.50438,-63.48094 12.25388,-36.06563 41.41246,-64.84008 78.04769,-77.01951 7.66589,-2.54853 24.19888,-6.09737 28.40586,-6.09737 h 2.32778 v 21.62268 c 0,23.17412 0.0851,22.76929 -4.7885,22.76929 -3.90943,0 -19.67933,5.84702 -26.38033,9.78106 -13.97923,8.20698 -26.14636,21.95541 -32.16215,36.34213 -5.13388,12.27761 -5.61825,17.30616 -5.61825,58.32606 v 37.46869 l -4.01417,-0.8291 c -5.09248,-1.05182 -34.17429,-1.08654 -38.25265,-0.0457 l -3.06966,0.78343 z"
     id="path2233"
     transform="scale(1.28)" />
  <path
     style="fill:#999999;stroke-width:0.94451"
     d="m 238.01653,492.27116 c -2.85714,-0.43495 -13.00255,-0.63366 -22.54536,-0.4416 l -17.35055,0.34922 0.66195,-39.24169 c 0.36406,-21.58294 1.04414,-42.06201 1.51127,-45.50907 1.80144,-13.29329 9.17044,-31.34763 18.58587,-45.53613 9.67964,-14.58665 28.10967,-31.00669 44.44552,-39.59826 11.09251,-5.83392 18.43104,-8.47298 31.8554,-11.45575 6.22208,-1.38248 13.12535,-2.92553 15.3406,-3.42899 2.2819,-0.51861 22.70674,-0.91538 47.12138,-0.91538 39.03135,0 43.20154,-0.14755 44.23813,-1.56517 1.03578,-1.41652 6.31564,-1.60839 55.59408,-2.02028 l 54.44962,-0.45512 v 29.41108 29.41107 H 456.6706 401.41677 v -5.19481 -5.1948 h -44.39198 -44.39197 l -0.1992,-10.62574 -0.19918,-10.62574 -0.30858,9.90565 c -0.16972,5.44811 -0.65733,10.25439 -1.08356,10.68062 -0.42623,0.42623 -3.49171,1.34988 -6.81218,2.05254 -13.74013,2.90762 -28.55841,11.1352 -38.81291,21.55014 -9.15583,9.29909 -14.8403,18.50561 -18.78703,30.42735 -2.11561,6.39051 -2.20601,7.98572 -2.70382,47.71162 l -0.51503,41.10006 z"
     id="path2235"
     transform="scale(1.28)" />
</svg>
