<?xml version="1.0" encoding="UTF-8" standalone="no"?>
<!-- Uploaded to: SVG Repo, www.svgrepo.com, Generator: SVG Repo Mixer Tools -->

<svg
   height="78.394333"
   width="64.226646"
   version="1.1"
   id="Capa_1"
   viewBox="0 0 41.105294 50.172666"
   xml:space="preserve"
   sodipodi:docname="pool-warm.svg"
   inkscape:version="1.2 (dc2aedaf03, 2022-05-15)"
   xmlns:inkscape="http://www.inkscape.org/namespaces/inkscape"
   xmlns:sodipodi="http://sodipodi.sourceforge.net/DTD/sodipodi-0.dtd"
   xmlns="http://www.w3.org/2000/svg"
   xmlns:svg="http://www.w3.org/2000/svg"><defs
   id="defs19" /><sodipodi:namedview
   id="namedview17"
   pagecolor="#ffffff"
   bordercolor="#000000"
   borderopacity="0.25"
   inkscape:showpageshadow="2"
   inkscape:pageopacity="0.0"
   inkscape:pagecheckerboard="0"
   inkscape:deskcolor="#d1d1d1"
   showgrid="false"
   inkscape:zoom="1.05875"
   inkscape:cx="301.77096"
   inkscape:cy="351.82999"
   inkscape:window-width="1350"
   inkscape:window-height="1050"
   inkscape:window-x="578"
   inkscape:window-y="111"
   inkscape:window-maximized="0"
   inkscape:current-layer="Capa_1" />
<path
   style="fill:#f0a479;stroke-width:0.0614238"
   d="m 14.814589,24.587102 c -1.086877,-0.422321 -1.613504,-1.615701 -1.176315,-2.665407 l 0.425875,-1.022419 c 0.437314,-1.049768 1.672754,-1.558412 2.759631,-1.136152 l 1.058564,0.411334 c 1.08694,0.422383 1.613629,1.615639 1.176378,2.665407 l -0.425876,1.022481 c -0.437252,1.049706 -1.672816,1.558349 -2.759693,1.13609 z"
   id="path2" />
<path
   id="path4"
   style="fill:#707070;stroke-width:0.0614238"
   d="m 24.061677,10.607128 c -2.832754,0 -5.137463,2.226032 -5.137463,4.962121 v 17.9634 c 0,0.622614 0.522571,1.127267 1.167198,1.127267 0.644624,0 1.167196,-0.504653 1.167196,-1.127267 v -3.201158 h 7.459354 v 3.072352 c 0,0.622614 0.522572,1.127342 1.167197,1.127342 0.644625,0 1.167196,-0.504728 1.167196,-1.127342 V 15.569177 c 0,-1.492855 1.257443,-2.707438 2.803069,-2.707438 0.644626,0 1.167197,-0.504728 1.167197,-1.127342 6.2e-5,-0.622555 -0.522571,-1.127269 -1.167197,-1.127269 -2.832752,0 -5.137462,2.226032 -5.137462,4.962121 v 3.22123 h -7.459354 v -3.22123 c 0,-1.492852 1.257441,-2.707434 2.803069,-2.707434 0.644625,0 1.167196,-0.504728 1.167196,-1.127345 0,-0.622614 -0.522571,-1.127342 -1.167196,-1.127342 z M 21.25853,21.045167 h 7.459432 v 2.576668 H 21.25853 Z m 0,4.831354 h 7.459432 v 2.200207 H 21.25853 Z" />
<path
   style="fill:#575757;stroke-width:0.0614238"
   d="m 33.855447,10.607134 c -2.832755,0 -5.137447,2.225998 -5.137447,4.962032 v 3.221258 h -3.77907 v 2.254674 H 28.718 v 2.576668 h -3.77907 v 2.254673 H 28.718 v 2.200224 h -3.77907 v 2.254673 H 28.718 v 3.072393 c 0,0.622618 0.522563,1.127336 1.16719,1.127336 0.644626,0 1.16719,-0.504718 1.16719,-1.127336 V 15.569166 c 0,-1.492851 1.25744,-2.707358 2.803067,-2.707358 0.644626,0 1.16719,-0.504721 1.16719,-1.127338 0,-0.622614 -0.522564,-1.127336 -1.16719,-1.127336 z"
   id="path6" />
<path
   id="path8"
   style="fill:#f0a479;stroke-width:0.0614238"
   d="m 14.2116,25.300926 c -1.048233,0.01825 -2.033399,0.630444 -2.449395,1.62899 l -3.0342417,7.284799 c -0.06024,0.144653 -0.1034127,0.291627 -0.13547,0.43909 0.005,-2.42e-4 0.00987,-10e-4 0.01492,-0.0014 0.035026,-6.88e-4 0.069956,0.0042 0.1049226,0.0062 0.1367694,0.0153 0.2643267,0.06627 0.3910967,0.115074 0.104762,0.0358 0.20299,0.0866 0.3044564,0.129713 0.091388,0.03708 0.1853564,0.06733 0.2772673,0.103074 0.1277818,0.05396 0.2523909,0.114441 0.3783627,0.172194 0.08688,0.04536 0.180501,0.07273 0.27336,0.103606 0.148785,0.03952 0.298951,0.07339 0.450317,0.102246 0.208842,0.04031 0.419749,0.06862 0.631098,0.09342 0.0892,0.0086 0.178272,0.01835 0.267346,0.02815 0.100329,-0.01206 0.200442,-0.02544 0.299769,-0.04361 0.165999,-0.04736 0.327495,-0.108203 0.489613,-0.166461 0.154026,-0.06254 0.309452,-0.121874 0.465472,-0.179593 0.129519,-0.05593 0.262636,-0.103221 0.397972,-0.144124 0.09933,-0.02839 0.1942,-0.06914 0.289611,-0.10768 0.08026,-0.03348 0.156324,-0.07495 0.231955,-0.116957 0.08244,-0.05304 0.170557,-0.0969 0.256487,-0.144275 0.08031,-0.04815 0.164645,-0.08942 0.24758,-0.133035 0.02606,-0.01836 0.0091,-0.0068 0.05196,-0.0332 0.08298,-0.05108 0.161944,-0.08505 0.23633,-0.106851 l -0.154377,-0.03645 1.718842,-4.126651 7.583028,1.675469 c 1.223116,0.270257 2.441536,-0.468383 2.721349,-1.649739 0.279813,-1.181352 -0.48496,-2.358098 -1.708138,-2.628354 l -9.784297,-2.161847 c -0.02925,-0.0064 -0.05846,-0.01186 -0.08765,-0.01711 -0.242402,-0.06161 -0.487641,-0.08903 -0.729536,-0.08482 z m 1.418916,9.260368 c 0.0033,0.0017 0.0066,0.0035 0.0098,0.005 0.131752,0.0748 0.251531,0.16601 0.369144,0.259652 0.08952,0.06668 0.182342,0.128875 0.274846,0.191588 0.07275,0.04095 0.03274,0.01805 0.119688,0.06912 0.02986,0.01753 0.05753,0.03554 0.08336,0.05395 0.170292,0.04626 0.343838,0.08126 0.517661,0.113035 0.247578,0.05229 0.499938,0.07836 0.751021,0.10934 0.349816,0.04536 0.701717,0.07083 1.053368,0.09832 0.374742,0.03118 0.748567,0.07055 1.121806,0.114696 z m -6.7191141,0.527677 c 3e-4,0.0021 0.00554,0.02238 0.00914,0.03645 1.62e-4,-0.0039 -1.33e-5,-0.0081 3.12e-4,-0.012 -0.00634,-0.01746 -0.00995,-0.02801 -0.00945,-0.02444 z m 0.1285948,0.534545 c 0.00186,0.01011 0.00346,0.02025 0.00534,0.03032 0.00594,-0.0049 0.015734,-0.013 0.021954,-0.01805 -0.00913,-0.0039 -0.018174,-0.0083 -0.027266,-0.0123 z m 8.5468633,8.57679 c -0.01286,-0.002 -0.04962,0.01458 -0.03672,0.01289 0.0081,-0.001 0.03374,-0.0072 0.05032,-0.01062 -0.0045,-6.87e-4 -0.0091,-0.0017 -0.01359,-0.0024 z m -0.175236,0.770655 -0.0015,0.0341 c 0.01453,-0.0083 0.03057,-0.01385 0.04578,-0.02096 -0.0148,-0.0039 -0.02959,-0.0078 -0.04422,-0.01313 z m 4.332534,0.708324 c -0.02174,0.0243 -0.04316,0.04849 -0.06836,0.07304 -0.02711,0.02025 -0.05506,0.03845 -0.08367,0.05501 h 0.146094 z m -3.935422,0.02685 c -0.01492,0.0079 -0.02908,0.01605 -0.04117,0.02469 -0.0095,0.0068 0.02276,-0.0062 0.03414,-0.0094 0.0029,-0.0067 0.0042,-0.0089 0.007,-0.01534 z m 2.287753,0.08006 c -0.02877,0.0071 -0.05755,0.01406 -0.08633,0.02114 h 0.108515 c -0.0073,-0.0071 -0.01488,-0.01399 -0.02219,-0.02114 z" />
<path
   id="path10"
   style="fill:#ccf7f5;stroke-width:0.0614238"
   d="m 29.671094,31.750254 c -0.323248,0 -0.631896,0.129442 -0.852584,0.357445 -0.730373,0.754573 -1.720397,1.170129 -2.787521,1.170129 -1.067124,0 -2.057101,-0.415556 -2.7876,-1.170129 -0.220686,-0.22794 -0.529397,-0.357369 -0.852585,-0.357369 -0.323187,0 -0.631912,0.129366 -0.852663,0.357369 -0.730435,0.754514 -1.720318,1.170129 -2.787444,1.170129 -1.067123,0 -2.0571,-0.415556 -2.7876,-1.170129 -0.220811,-0.22794 -0.529474,-0.357369 -0.852663,-0.357369 -0.323185,0 -0.631896,0.129443 -0.852584,0.357445 -0.730375,0.754514 -1.720398,1.170128 -2.787522,1.170128 -1.067124,0 -2.0570217,-0.415555 -2.7875214,-1.170128 -0.2208127,-0.227941 -0.529476,-0.35737 -0.8526633,-0.35737 -0.3232495,0 -0.6318972,0.129368 -0.8525845,0.35737 -0.7304993,0.754514 -1.720476,1.170128 -2.7875999,1.170128 -0.6446243,0 -1.1671966,0.504653 -1.1671966,1.127267 0,0.622614 0.5225723,1.127345 1.1671966,1.127345 1.313061,0 2.5915297,-0.412129 3.6400284,-1.154508 0.1717246,0.121584 0.3516353,0.230841 0.534848,0.334351 0.073299,-0.03691 0.1557533,-0.05826 0.24258,-0.05984 0.035026,-6.87e-4 0.069956,0.0042 0.1049226,0.0062 0.1367707,0.0153 0.264326,0.06627 0.3910967,0.115074 0.1047627,0.0358 0.20299,0.0866 0.3044562,0.129711 0.091388,0.03708 0.1853546,0.06733 0.2772673,0.103076 0.1277818,0.05397 0.2523909,0.114441 0.3783629,0.172195 0.08688,0.04536 0.180498,0.07273 0.27336,0.103603 0.148785,0.03953 0.298951,0.0734 0.450317,0.102248 0.208844,0.04031 0.419749,0.06862 0.631098,0.09342 0.08921,0.0086 0.178273,0.01836 0.267346,0.02815 0.100329,-0.01206 0.200442,-0.02544 0.299769,-0.04361 0.165999,-0.04737 0.327493,-0.108203 0.489613,-0.166461 0.154026,-0.06254 0.309452,-0.121874 0.465472,-0.179593 0.129518,-0.05593 0.262636,-0.103221 0.397972,-0.144124 0.09933,-0.02843 0.1942,-0.06913 0.289611,-0.10768 0.08024,-0.03348 0.156321,-0.07495 0.231955,-0.116957 0.08244,-0.05304 0.170557,-0.0969 0.256487,-0.144275 0.08031,-0.04815 0.164645,-0.08942 0.24758,-0.133035 0.02606,-0.01836 0.0091,-0.0068 0.05195,-0.03321 0.151796,-0.09342 0.29177,-0.133973 0.41055,-0.135898 0.09001,-0.0014 0.166138,0.02066 0.22719,0.0578 0.0674,0.0076 0.14063,0.02361 0.219377,0.04996 0.126938,0.04245 0.249514,0.0948 0.36719,0.157177 0.131751,0.0748 0.251531,0.166011 0.369143,0.259652 0.08952,0.06668 0.182342,0.128875 0.274846,0.191589 0.04169,0.02348 0.05132,0.02891 0.06406,0.03636 0.130196,0.05321 0.261765,0.103393 0.395393,0.148122 0.08685,0.01836 0.173955,0.03566 0.261253,0.05161 0.247577,0.05229 0.499937,0.07836 0.751022,0.10934 0.349816,0.04537 0.701715,0.07083 1.053367,0.09832 0.163525,0.01361 0.326859,0.02884 0.490081,0.04513 1.117439,-0.09794 2.189329,-0.490135 3.090884,-1.128472 1.0485,0.742437 2.326858,1.154508 3.640106,1.154508 1.313124,0 2.591592,-0.412128 3.640029,-1.154508 1.048563,0.742317 2.326999,1.154508 3.640185,1.154508 0.644624,0 1.167196,-0.504745 1.167821,-1.127421 0,-0.622614 -0.522573,-1.127342 -1.167196,-1.127342 -1.067126,0 -2.057101,-0.415556 -2.7876,-1.170129 -0.220687,-0.22794 -0.529537,-0.357369 -0.852664,-0.357369 z" />
<path
   id="path12"
   style="fill:#74d6d0;stroke-width:0.0614238"
   d="m 29.671094,31.750254 c -0.323248,0 -0.631896,0.129442 -0.852584,0.357445 -0.730373,0.754573 -1.720397,1.170129 -2.787521,1.170129 -1.067124,0 -2.057101,-0.415556 -2.7876,-1.170129 -0.220686,-0.22794 -0.529397,-0.357369 -0.852585,-0.357369 -0.323187,0 -0.631912,0.129366 -0.852663,0.357369 -0.730435,0.754514 -1.720318,1.170129 -2.787444,1.170129 -1.067123,0 -2.0571,-0.415556 -2.7876,-1.170129 -0.220811,-0.22794 -0.529474,-0.357369 -0.852663,-0.357369 -0.323185,0 -0.631896,0.129443 -0.852584,0.357445 -0.730375,0.754514 -1.720398,1.170128 -2.787522,1.170128 -1.067124,0 -2.0570217,-0.415555 -2.7875214,-1.170128 -0.2208127,-0.227941 -0.529476,-0.35737 -0.8526633,-0.35737 -0.3232495,0 -0.6318972,0.129368 -0.8525845,0.35737 -0.7304993,0.754514 -1.720476,1.170128 -2.7875999,1.170128 -0.6446243,0 -1.1671966,0.504653 -1.1671966,1.127267 0,0.622614 0.5225723,1.127345 1.1671966,1.127345 1.313061,0 2.5915297,-0.412129 3.6400284,-1.154508 0.1717246,0.121584 0.3516353,0.230841 0.534848,0.334351 0.073299,-0.03691 0.1557533,-0.05826 0.24258,-0.05984 0.035026,-6.87e-4 0.069956,0.0042 0.1049226,0.0062 0.1367707,0.0153 0.264326,0.06627 0.3910967,0.115074 0.1047627,0.0358 0.20299,0.0866 0.3044562,0.129711 0.091388,0.03708 0.1853546,0.06733 0.2772673,0.103076 0.1277818,0.05397 0.2523909,0.114441 0.3783629,0.172195 0.08688,0.04536 0.180498,0.07273 0.27336,0.103603 0.148785,0.03953 0.298951,0.0734 0.450317,0.102248 0.208844,0.04031 0.419749,0.06862 0.631098,0.09342 0.08921,0.0086 0.178273,0.01836 0.267346,0.02815 0.100329,-0.01206 0.200442,-0.02544 0.299769,-0.04361 0.165999,-0.04737 0.327493,-0.108203 0.489613,-0.166461 0.154026,-0.06254 0.309452,-0.121874 0.465472,-0.179593 0.129518,-0.05593 0.262636,-0.103221 0.397972,-0.144124 0.09933,-0.02843 0.1942,-0.06913 0.289611,-0.10768 0.08024,-0.03348 0.156321,-0.07495 0.231955,-0.116957 0.08244,-0.05304 0.170557,-0.0969 0.256487,-0.144275 0.08031,-0.04815 0.164645,-0.08942 0.24758,-0.133035 0.02606,-0.01836 0.0091,-0.0068 0.05195,-0.03321 0.151796,-0.09342 0.29177,-0.133973 0.41055,-0.135898 0.09001,-0.0014 0.166138,0.02066 0.22719,0.0578 0.0674,0.0076 0.14063,0.02361 0.219377,0.04996 0.126938,0.04245 0.249514,0.0948 0.36719,0.157177 0.131751,0.0748 0.251531,0.166011 0.369143,0.259652 0.08952,0.06668 0.182342,0.128875 0.274846,0.191589 0.04169,0.02348 0.05132,0.02891 0.06406,0.03636 0.130196,0.05321 0.261765,0.103393 0.395393,0.148122 0.08685,0.01836 0.173955,0.03566 0.261253,0.05161 0.247577,0.05229 0.499937,0.07836 0.751022,0.10934 0.349816,0.04537 0.701715,0.07083 1.053367,0.09832 0.163525,0.01361 0.326859,0.02884 0.490081,0.04513 1.117439,-0.09794 2.189329,-0.490135 3.090884,-1.128472 1.0485,0.742437 2.326858,1.154508 3.640106,1.154508 1.313124,0 2.591592,-0.412128 3.640029,-1.154508 1.048563,0.742317 2.326999,1.154508 3.640185,1.154508 0.644624,0 1.167196,-0.504745 1.167821,-1.127421 0,-0.622614 -0.522573,-1.127342 -1.167196,-1.127342 -1.067126,0 -2.057101,-0.415556 -2.7876,-1.170129 -0.220687,-0.22794 -0.529537,-0.357369 -0.852664,-0.357369 z" />
<path
   id="path14"
   style="fill:#ccf7f5;stroke-width:0.0614238"
   d="m 15.110122,31.75033 c -0.323186,0 -0.631975,0.129443 -0.852663,0.357445 -0.730437,0.754573 -1.720398,1.170128 -2.787522,1.170128 -1.067123,0 -2.0570216,-0.415555 -2.7875211,-1.170128 -0.2206873,-0.228002 -0.529476,-0.35737 -0.8526633,-0.35737 -0.3231868,0 -0.6317721,0.129429 -0.8525845,0.35737 -0.7304992,0.754573 -1.720476,1.170128 -2.7875999,1.170128 -0.6445618,0 -1.1671184,0.504729 -1.1671184,1.127343 0,0.622614 0.5225723,1.127345 1.1671965,1.127345 1.3130612,0 2.5915923,-0.412191 3.6400283,-1.154513 0.1712693,0.121269 0.3492667,0.232809 0.5319573,0.336092 0.074102,-0.03796 0.1576554,-0.06005 0.2457834,-0.06165 0.035026,-6.88e-4 0.069956,0.0042 0.1049226,0.0062 0.1367707,0.0153 0.264326,0.06627 0.3910967,0.115074 0.1047627,0.0358 0.20299,0.0866 0.3044562,0.12971 0.091388,0.03708 0.1853546,0.06733 0.2772673,0.103078 0.1277818,0.05396 0.2523909,0.114441 0.3783629,0.172194 0.08688,0.04536 0.180498,0.07273 0.27336,0.103603 0.148785,0.03953 0.298951,0.0734 0.450317,0.102248 0.208844,0.04031 0.419749,0.06862 0.631098,0.09342 0.08921,0.0086 0.178273,0.01836 0.267346,0.02815 0.100329,-0.01206 0.200442,-0.02544 0.299769,-0.04361 0.165999,-0.04736 0.327493,-0.108201 0.489613,-0.16646 0.154026,-0.06254 0.309452,-0.121873 0.465472,-0.179592 0.129518,-0.05593 0.262636,-0.103222 0.397972,-0.144124 0.09933,-0.02843 0.1942,-0.06913 0.289611,-0.10768 0.08024,-0.03349 0.156321,-0.07495 0.231955,-0.116958 0.08244,-0.05304 0.170557,-0.0969 0.256487,-0.144275 0.08031,-0.04815 0.164645,-0.08942 0.24758,-0.133035 0.02606,-0.01836 0.0091,-0.0068 0.05195,-0.03321 0.151796,-0.09342 0.29177,-0.133972 0.41055,-0.135897 0.09001,-0.0014 0.16614,0.02066 0.22719,0.0578 0.0674,0.0076 0.14063,0.02361 0.219377,0.04995 0.126938,0.04245 0.249514,0.0948 0.36719,0.157176 0.131751,0.0748 0.251531,0.166011 0.369143,0.259651 0.08952,0.06667 0.182342,0.128876 0.274846,0.19159 0.05058,0.02846 0.05786,0.03265 0.08,0.04572 0.117688,0.04789 0.236564,0.09311 0.357112,0.133935 0.09422,0.02029 0.188803,0.03912 0.283596,0.05645 0.247577,0.05229 0.499938,0.07836 0.751022,0.10934 0.226837,0.02942 0.454632,0.04978 0.682582,0.06844 l 4.34e-4,-2.165498 C 17.491719,33.19317 16.621542,32.788255 15.962668,32.10763 15.741979,31.879628 15.43327,31.750261 15.110083,31.750261 Z" />
<path
   style="fill:#cccccc;stroke-width:0.0371303"
   d="m 20.363789,26.563165 c -0.477926,-0.105754 -0.992625,-0.218989 -1.143775,-0.251624 l -0.274819,-0.05934 0.01191,-5.697814 c 0.01183,-5.661615 0.01241,-5.699785 0.09189,-6.007985 0.171215,-0.663929 0.423379,-1.230116 0.772213,-1.733858 0.259412,-0.374608 0.853232,-0.967859 1.233466,-1.232282 0.865255,-0.601717 1.90479,-0.937836 2.901701,-0.938218 0.350098,-1.2e-4 0.40017,0.009 0.613392,0.111912 0.699721,0.337713 0.847919,1.225847 0.293848,1.760997 -0.22939,0.22156 -0.389652,0.27843 -0.943378,0.334768 -1.124174,0.114379 -1.886502,0.59117 -2.364737,1.479012 -0.291188,0.540592 -0.30329,0.647817 -0.303591,2.689913 l -2.8e-4,1.797168 h 1.832364 1.832363 v 1.112965 1.112967 h -1.832363 -1.832364 v 1.295419 1.295421 h 1.832364 1.832363 v 1.112966 1.112966 h -1.831234 -1.831236 l -0.01057,0.448468 -0.01057,0.448466 z"
   id="path725" /><path
   style="fill:#e6e6e6;stroke-width:0.0371303"
   d="m 30.66194,32.208015 c -0.175026,-0.159465 -0.396043,-0.32538 -0.49115,-0.368695 -0.390773,-0.177984 -0.896,-0.116941 -1.246418,0.15059 l -0.192159,0.146705 v -0.913116 -0.913114 h -1.110551 -1.110553 l 0.0329,-0.13684 c 0.06365,-0.26476 0.0406,-0.82224 -0.04511,-1.090877 -0.103417,-0.324115 -0.179616,-0.465341 -0.409042,-0.758106 l -0.188166,-0.24011 h 1.415263 1.415262 V 26.971485 25.85852 h -1.889035 -1.889035 v -1.112967 -1.112965 h 1.889035 1.889034 V 22.337165 21.041747 H 26.843181 24.954146 V 19.92878 18.815814 h 1.88639 1.88639 l 0.01532,-1.94313 c 0.01456,-1.846952 0.01949,-1.961132 0.09954,-2.306824 0.08671,-0.374399 0.287621,-0.934334 0.439065,-1.223654 0.31717,-0.605922 0.99102,-1.36695 1.561855,-1.763923 0.851489,-0.592143 1.901932,-0.93598 2.860384,-0.936272 0.456598,-1.82e-4 0.663949,0.05884 0.893754,0.254214 0.628543,0.534373 0.501027,1.477046 -0.246337,1.821064 -0.186016,0.08563 -0.306638,0.112623 -0.582971,0.130487 -0.744,0.04809 -1.321151,0.281401 -1.822104,0.736571 -0.467546,0.424816 -0.723741,0.860898 -0.848501,1.444276 -0.05394,0.252254 -0.06009,1.160442 -0.06009,8.876105 0,4.727304 -0.01274,8.594677 -0.02834,8.594162 -0.01558,-6.87e-4 -0.171537,-0.131412 -0.346561,-0.290875 z"
   id="path727" /><path
   style="fill:#cccccc;stroke-width:0.0371303"
   d="m 18.947013,32.02127 c 0,-1.165237 0.0041,-1.240257 0.06611,-1.222382 0.03636,0.01049 0.516651,0.118271 1.067305,0.239549 0.550653,0.121278 1.039441,0.229075 1.086195,0.239546 0.08333,0.01866 0.08501,0.02946 0.08501,0.546927 v 0.527886 l -0.217239,0.165513 c -0.452507,0.344754 -1.264903,0.655685 -1.889035,0.722992 l -0.198348,0.02138 z"
   id="path729" /></svg>
