<?xml version="1.0" encoding="UTF-8" standalone="no"?>
<!-- Uploaded to: SVG Repo, www.svgrepo.com, Generator: SVG Repo Mixer Tools -->

<svg
   height="170.0118"
   width="153.95511"
   version="1.1"
   id="Capa_1"
   viewBox="0 0 98.531846 108.80819"
   xml:space="preserve"
   sodipodi:docname="pool-ladder-person-chilly.svg"
   inkscape:version="1.2 (dc2aedaf03, 2022-05-15)"
   xmlns:inkscape="http://www.inkscape.org/namespaces/inkscape"
   xmlns:sodipodi="http://sodipodi.sourceforge.net/DTD/sodipodi-0.dtd"
   xmlns="http://www.w3.org/2000/svg"
   xmlns:svg="http://www.w3.org/2000/svg"><defs
   id="defs19" /><sodipodi:namedview
   id="namedview17"
   pagecolor="#ffffff"
   bordercolor="#000000"
   borderopacity="0.25"
   inkscape:showpageshadow="2"
   inkscape:pageopacity="0.0"
   inkscape:pagecheckerboard="0"
   inkscape:deskcolor="#d1d1d1"
   showgrid="false"
   inkscape:zoom="1.05875"
   inkscape:cx="321.60567"
   inkscape:cy="125.61983"
   inkscape:window-width="1920"
   inkscape:window-height="1027"
   inkscape:window-x="-8"
   inkscape:window-y="-8"
   inkscape:window-maximized="1"
   inkscape:current-layer="Capa_1" />
<path
   style="fill:#f0a479;stroke-width:0.206867"
   d="m 44.254875,22.058006 c -3.260631,-1.59673 -4.840509,-6.10868 -3.528944,-10.077434 l 1.277627,-3.8655943 c 1.31194,-3.968985 5.01826,-5.892082 8.278891,-4.295587 l 3.175694,1.555184 c 3.260819,1.596952 4.840884,6.1084483 3.529132,10.0774313 l -1.277628,3.86582 c -1.311752,3.96876 -5.018447,5.89186 -8.279078,4.29536 z"
   id="path2" />
<path
   style="fill:#707070;stroke-width:0.206867"
   d="m 94.916952,11.419473 c -8.498266,0 -15.412342,8.416123 -15.412342,18.760813 v 12.179 H 57.126441 v -12.179 c 0,-5.64422 3.77232,-10.23628 8.409204,-10.23628 1.933879,0 3.50157,-1.90827 3.50157,-4.26227 0,-2.354001 -1.567691,-4.262263 -3.50157,-4.262263 -8.498266,0 -15.412342,8.416123 -15.412342,18.760813 v 67.91641 c 0,2.354014 1.56769,4.262274 3.501569,4.262274 1.933879,0 3.501569,-1.90826 3.501569,-4.262274 v -12.103 H 79.50461 v 11.61618 c 0,2.354 1.56769,4.262274 3.501569,4.262274 1.933879,0 3.50157,-1.908274 3.50157,-4.262274 v -67.42982 c 0,-5.64422 3.772319,-10.23628 8.409203,-10.23628 1.933879,0 3.50157,-1.90826 3.50157,-4.26227 1.87e-4,-2.353771 -1.567691,-4.262033 -3.50157,-4.262033 z m -15.41253,39.464343 v 9.74193 H 57.126254 v -9.74193 z m -22.378168,26.58512 v -8.31866 h 22.378168 v 8.31866 z"
   id="path4" />
<path
   style="fill:#575757;stroke-width:0.206867"
   d="m 94.916952,11.419473 c -8.498266,0 -15.412342,8.416123 -15.412342,18.760583 v 12.17901 H 68.1674 v 8.52453 h 11.33721 v 9.74192 H 68.1674 v 8.52453 h 11.33721 v 8.31866 H 68.1674 v 8.52453 h 11.33721 v 11.61619 c 0,2.354 1.56769,4.262264 3.501569,4.262264 1.933879,0 3.50157,-1.908264 3.50157,-4.262264 v -67.42937 c 0,-5.64422 3.772319,-10.23605 8.409203,-10.23605 1.933879,0 3.50157,-1.90827 3.50157,-4.26227 0,-2.354001 -1.567691,-4.262263 -3.50157,-4.262263 z"
   id="path6" />
<path
   style="fill:#f0a479;stroke-width:0.206867"
   d="m 66.499211,101.46023 1.109628,-30.097184 c 0.03563,-0.96953 -0.07312,-1.90666 -0.302063,-2.77988 -0.665252,-2.56763 -2.38388,-4.66213 -4.68901,-5.34797 l -17.839159,-5.30484 5.156447,-15.60206 22.749045,6.33463 c 3.669382,1.0218 7.324701,-1.77087 8.16414,-6.2374 0.83944,-4.46653 -1.454815,-8.91549 -5.124385,-9.93729 l -29.352807,-8.17374 c -0.08775,-0.0244 -0.1755,-0.045 -0.263063,-0.0648 -3.878445,-1.24227 -8.000828,1.19184 -9.536831,5.83845 l -9.102767,27.54233 c -1.664441,5.03689 0.3405,10.76236 4.478071,12.78816 0.495376,0.24239 0.999189,0.4195 1.50469,0.53704 l 20.847603,6.19997 -0.895876,24.304604"
   id="path8" />
<path
   style="fill:#ccf7f5;stroke-width:0.206867"
   d="m 93.282887,105.65809 c -3.93957,0 -7.77489,-1.55838 -10.920584,-4.36497 -3.145319,2.80682 -6.980826,4.36497 -10.920209,4.36497 -3.939757,0 -7.774702,-1.55793 -10.920209,-4.36497 -3.145506,2.80682 -6.980826,4.36497 -10.920208,4.36497 -3.939383,0 -7.77489,-1.55838 -10.920584,-4.36497 -3.145506,2.80682 -6.980826,4.36497 -10.920209,4.36497 -3.939195,0 -7.77489,-1.55838 -10.920208,-4.36497 -3.145507,2.80682 -6.9810142,4.36497 -10.9202094,4.36497 -1.9338787,0 -3.5015693,-1.90827 -3.5015693,-4.26227 0,-2.354004 1.5676906,-4.262264 3.5015693,-4.262264 3.2013812,0 6.1711994,-1.57116 8.3627044,-4.42386 0.662063,-0.86203 1.588128,-1.35114 2.55788,-1.35114 0.969564,0 1.895441,0.48933 2.55788,1.35114 2.191504,2.85293 5.161322,4.42386 8.362703,4.42386 3.201382,0 6.171387,-1.57116 8.362517,-4.42386 0.662063,-0.86203 1.588315,-1.35137 2.55788,-1.35137 0.969564,0 1.895441,0.48934 2.557879,1.35115 2.191505,2.85292 5.161323,4.42385 8.362704,4.42385 3.201381,0 6.1712,-1.57116 8.362517,-4.42385 0.662251,-0.86204 1.588315,-1.35138 2.55788,-1.35138 0.969564,0 1.895816,0.48934 2.557879,1.35115 2.191505,2.85292 5.161323,4.42408 8.362704,4.42408 3.201381,0 6.171387,-1.57116 8.362517,-4.42408 0.662063,-0.86204 1.588128,-1.35137 2.557879,-1.35137 0.969377,0 1.895817,0.48933 2.55788,1.35114 2.191505,2.85292 5.16151,4.42408 8.362892,4.42408 1.933878,0 3.501569,1.90826 3.501569,4.262274 -0.0019,2.35423 -1.569566,4.26272 -3.503444,4.26272 z"
   id="path10" />
<path
   style="fill:#74d6d0;stroke-width:0.206867"
   d="m 93.282887,105.65809 c -3.93957,0 -7.77489,-1.55838 -10.920584,-4.36497 -3.145319,2.80682 -6.980826,4.36497 -10.920209,4.36497 -3.939757,0 -7.774702,-1.55793 -10.920209,-4.36497 -3.145506,2.80682 -6.980826,4.36497 -10.920208,4.36497 -3.939383,0 -7.77489,-1.55838 -10.920584,-4.36497 -3.145506,2.80682 -6.980826,4.36497 -10.920209,4.36497 -3.939195,0 -7.77489,-1.55838 -10.920208,-4.36497 -3.145507,2.80682 -6.9810142,4.36497 -10.9202094,4.36497 -1.9338787,0 -3.5015693,-1.90827 -3.5015693,-4.26227 0,-2.354004 1.5676906,-4.262264 3.5015693,-4.262264 3.2013812,0 6.1711994,-1.57116 8.3627044,-4.42386 0.662063,-0.86203 1.588128,-1.35114 2.55788,-1.35114 0.969564,0 1.895441,0.48933 2.55788,1.35114 2.191504,2.85293 5.161322,4.42386 8.362703,4.42386 3.201382,0 6.171387,-1.57116 8.362517,-4.42386 0.662063,-0.86203 1.588315,-1.35137 2.55788,-1.35137 0.969564,0 1.895441,0.48934 2.557879,1.35115 2.191505,2.85292 5.161323,4.42385 8.362704,4.42385 3.201381,0 6.1712,-1.57116 8.362517,-4.42385 0.662251,-0.86204 1.588315,-1.35138 2.55788,-1.35138 0.969564,0 1.895816,0.48934 2.557879,1.35115 2.191505,2.85292 5.161323,4.42408 8.362704,4.42408 3.201381,0 6.171387,-1.57116 8.362517,-4.42408 0.662063,-0.86204 1.588128,-1.35137 2.557879,-1.35137 0.969377,0 1.895817,0.48933 2.55788,1.35114 2.191505,2.85292 5.16151,4.42408 8.362892,4.42408 1.933878,0 3.501569,1.90826 3.501569,4.262274 -0.0019,2.35423 -1.569566,4.26272 -3.503444,4.26272 z"
   id="path12" />
<path
   style="fill:#ccf7f5;stroke-width:0.206867"
   d="m 48.667925,97.088596 c -2.842131,-0.27503 -5.452511,-1.80579 -7.42914,-4.37912 -0.662063,-0.86204 -1.588315,-1.35115 -2.557879,-1.35115 -0.969565,0 -1.895817,0.48934 -2.55788,1.35137 -2.191317,2.85293 -5.161135,4.42409 -8.362517,4.42409 -3.201381,0 -6.171199,-1.57116 -8.362703,-4.42409 -0.662064,-0.86203 -1.588316,-1.35114 -2.55788,-1.35114 -0.969565,0 -1.895442,0.48933 -2.55788,1.35114 -2.191505,2.85293 -5.1613232,4.42409 -8.3627044,4.42409 -1.9336913,0 -3.5013818,1.90826 -3.5013818,4.262264 0,2.354 1.5676905,4.26227 3.5015693,4.26227 3.9391952,0 7.7748899,-1.55838 10.9202089,-4.36497 3.145506,2.80681 6.981014,4.36497 10.920209,4.36497 3.93957,0 7.77489,-1.55838 10.920209,-4.36497 2.896505,2.58429 6.377637,4.11026 9.986456,4.33598 z"
   id="path14" />
<path
   style="fill:#cccccc;stroke-width:0.125049"
   d="m 85.336428,93.088636 c -0.525074,-0.60291 -1.188125,-1.2302 -1.473447,-1.39398 -1.172319,-0.67292 -2.688001,-0.44213 -3.739257,0.56937 l -0.576474,0.55466 v -3.45233 -3.45233 h -5.667104 -5.667104 v -4.20793 -4.20794 h 5.667104 5.667104 v -4.20793 -4.20793 h -5.667104 -5.667104 v -4.20793 -4.20793 h 5.667104 5.667104 v -4.89776 -4.89776 h -5.667104 -5.667104 v -1.65558 c 0,-1.08426 0.04186,-1.65558 0.121313,-1.65558 0.06672,0 1.125054,0.28372 2.351848,0.63048 2.62969,0.7433 3.69733,0.86539 4.883412,0.5584 1.888648,-0.48881 3.333899,-1.69908 4.43093,-3.71049 0.682409,-1.25121 0.924226,-2.26014 0.990596,-4.13306 0.05204,-1.46859 0.03009,-1.72544 -0.236381,-2.76578 -0.161564,-0.63077 -0.505041,-1.54477 -0.763283,-2.03112 l -0.46953,-0.88428 0.05728,-3.73106 c 0.04814,-3.13564 0.09655,-3.9505 0.303353,-5.10612 0.251564,-1.40575 0.849332,-3.5159 1.310581,-4.62642 0.951509,-2.29088 2.973059,-5.1682 4.685563,-6.66908 2.554469,-2.238794 5.705796,-3.538777 8.581154,-3.539886 1.369797,-6.85e-4 1.99185,0.222453 2.681263,0.961133 1.885631,2.020383 1.503081,5.584453 -0.739013,6.885133 -0.558044,0.32373 -0.91991,0.42581 -1.748914,0.49334 -2.231997,0.18183 -3.963452,1.06393 -5.46631,2.78485 -1.402638,1.60615 -2.171221,3.2549 -2.545501,5.46055 -0.16184,0.95373 -0.180287,4.38743 -0.180287,33.55901 0,17.87311 -0.03825,32.49497 -0.08501,32.49302 -0.04675,-0.002 -0.514612,-0.49684 -1.039683,-1.09974 z"
   id="path881" /><path
   style="fill:#e6e6e6;stroke-width:0.125049"
   d="m 67.419647,68.822346 c 0,-0.14298 -0.212093,-0.77934 -0.471318,-1.41415 -0.351673,-0.86119 -0.675356,-1.39934 -1.275098,-2.11994 -1.257418,-1.5108 -1.619574,-1.682 -6.882589,-3.25352 -2.516441,-0.75141 -5.467917,-1.63404 -6.558835,-1.96141 l -1.983487,-0.59522 -0.0292,-8.52116 c -0.02767,-8.07463 -0.01877,-8.51732 0.170012,-8.44803 0.252367,0.0926 17.570522,4.91288 17.650971,4.91288 0.03278,0 0.0596,0.77605 0.0596,1.72456 v 1.72456 H 62.602611 57.10552 v 4.89776 4.89776 h 5.497091 5.497092 v 4.20793 4.20793 h -0.340026 c -0.257501,0 -0.340027,-0.0631 -0.340027,-0.25995 z"
   id="path883" /><path
   style="fill:#e6e6e6;stroke-width:0.125049"
   d="m 50.19165,86.540606 v -10.53559 l 0.704284,0.19999 c 1.258701,0.35743 3.279173,0.99114 3.313502,1.03927 0.03501,0.0491 -0.636254,18.92038 -0.675331,18.98546 -0.05512,0.0918 -2.211859,0.69279 -2.747409,0.76558 l -0.595046,0.0809 z"
   id="path885" /><path
   style="fill:#e6e6e6;stroke-width:0.125049"
   d="m 53.98861,26.377236 c -1.683131,-0.48058 -3.118717,-0.89337 -3.190194,-0.91732 -0.162141,-0.0543 0.447756,-2.2815 0.975332,-3.56164 2.562866,-6.2187 7.923985,-10.344145 13.445961,-10.346822 1.050294,-4.56e-4 1.200511,0.03403 1.840177,0.423114 2.099164,1.276846 2.543758,4.634718 0.881546,6.658038 -0.688172,0.83767 -1.168959,1.05268 -2.830136,1.26569 -2.699884,0.34619 -4.566021,1.47388 -6.049332,3.65556 -0.578725,0.85119 -1.616421,3.11872 -1.616421,3.53213 0,0.27332 -0.06181,0.26064 -3.456933,-0.70875 z"
   id="path887" /><path
   style="fill:#e6e6e6;stroke-width:0.125049"
   d="m 67.157046,85.120726 c 0.06925,-1.55996 0.262601,-6.90594 0.262601,-7.26085 0,-0.30993 0.04868,-0.36172 0.340027,-0.36172 H 68.0997 v 4.20794 4.20793 h -0.488937 -0.488936 z"
   id="path889" /></svg>
