<?xml version="1.0" encoding="UTF-8" standalone="no"?>
<!-- Uploaded to: SVG Repo, www.svgrepo.com, Generator: SVG Repo Mixer Tools -->

<svg
   height="844.39197"
   width="797.16644"
   version="1.1"
   id="Capa_1"
   viewBox="0 0 510.18951 540.41402"
   xml:space="preserve"
   sodipodi:docname="pool-ladder-person-freezing.svg"
   inkscape:version="1.2 (dc2aedaf03, 2022-05-15)"
   xmlns:inkscape="http://www.inkscape.org/namespaces/inkscape"
   xmlns:sodipodi="http://sodipodi.sourceforge.net/DTD/sodipodi-0.dtd"
   xmlns="http://www.w3.org/2000/svg"
   xmlns:svg="http://www.w3.org/2000/svg"><defs
   id="defs19" /><sodipodi:namedview
   id="namedview17"
   pagecolor="#ffffff"
   bordercolor="#000000"
   borderopacity="0.25"
   inkscape:showpageshadow="2"
   inkscape:pageopacity="0.0"
   inkscape:pagecheckerboard="0"
   inkscape:deskcolor="#d1d1d1"
   showgrid="false"
   inkscape:zoom="1.05875"
   inkscape:cx="341.44038"
   inkscape:cy="457.14286"
   inkscape:window-width="1920"
   inkscape:window-height="1027"
   inkscape:window-x="-8"
   inkscape:window-y="-8"
   inkscape:window-maximized="1"
   inkscape:current-layer="Capa_1" />
<path
   style="fill:#f0a479"
   d="m 261.21265,91.071101 c -17.39,-6.996 -25.816,-26.765 -18.821,-44.154001 l 6.814,-16.936999 c 6.997,-17.39 26.764,-25.8160004 44.154,-18.821 l 16.937,6.814 c 17.391,6.997 25.818,26.763999 18.822,44.154 l -6.814,16.938 c -6.996,17.389 -26.765,25.814999 -44.155,18.82 z"
   id="path2" />
<path
   style="fill:#707070"
   d="m 493.327,124.85583 c -45.324,0 -82.199,36.875 -82.199,82.2 v 53.362 h -119.35 v -53.362 c 0,-24.73 20.119,-44.85 44.849,-44.85 10.314,0 18.675,-8.361 18.675,-18.675 0,-10.314 -8.361,-18.675 -18.675,-18.675 -45.324,0 -82.199,36.875 -82.199,82.2 v 297.574 c 0,10.314 8.361,18.675 18.675,18.675 10.314,0 18.675,-8.361 18.675,-18.675 v -53.029 h 119.35 v 50.896 c 0,10.314 8.361,18.675 18.675,18.675 10.314,0 18.675,-8.361 18.675,-18.675 v -295.442 c 0,-24.73 20.119,-44.85 44.849,-44.85 10.314,0 18.675,-8.361 18.675,-18.675 0.001,-10.313 -8.361,-18.674 -18.675,-18.674 z m -82.2,172.912 v 42.684 h -119.35 v -42.684 z m -119.35,116.482 v -36.448 h 119.35 v 36.448 z"
   id="path4" />
<path
   style="fill:#575757"
   d="m 493.327,124.85583 c -45.324,0 -82.199,36.875 -82.199,82.199 v 53.362 h -60.465 v 37.35 h 60.465 v 42.684 h -60.465 v 37.35 h 60.465 v 36.448 h -60.465 v 37.35 h 60.465 v 50.896 c 0,10.314 8.361,18.675 18.675,18.675 10.314,0 18.675,-8.361 18.675,-18.675 v -295.44 c 0,-24.73 20.119,-44.849 44.849,-44.849 10.314,0 18.675,-8.361 18.675,-18.675 0,-10.314 -8.361,-18.675 -18.675,-18.675 z"
   id="path6" />
<path
   style="fill:#f0a479"
   d="m 361.71418,434.73844 5.918,-131.87 c 0.19,-4.248 -0.39,-8.354 -1.611,-12.18 -3.548,-11.25 -12.714,-20.427 -25.008,-23.432 l -95.142,-23.243 27.501,-68.36 121.328,27.755 c 19.57,4.477 39.065,-7.759 43.542,-27.329 4.477,-19.57 -7.759,-39.063 -27.33,-43.54 l -156.548,-35.812998 c -0.468,-0.107 -0.936,-0.197 -1.403,-0.284 -20.685,-5.443 -42.671,5.221998 -50.863,25.580998 l -48.548,120.676 c -8.877,22.069 1.816,47.155 23.883,56.031 2.642,1.062 5.329,1.838 8.025,2.353 l 111.187,27.165 -4.778,106.49"
   id="path8" />
<path
   style="fill:#ccf7f5"
   d="m 484.612,537.75983 c -21.011,0 -41.466,-6.828 -58.243,-19.125 -16.775,12.298 -37.231,19.125 -58.241,19.125 -21.012,0 -41.465,-6.826 -58.241,-19.125 -16.776,12.298 -37.231,19.125 -58.241,19.125 -21.01,0 -41.466,-6.828 -58.243,-19.125 -16.776,12.298 -37.231,19.125 -58.241,19.125 -21.009,0 -41.466,-6.828 -58.241,-19.125 -16.776,12.298 -37.232,19.125 -58.241,19.125 -10.314,0 -18.675,-8.361 -18.675,-18.675 0,-10.314 8.361,-18.675 18.675,-18.675 17.074,0 32.913,-6.884 44.601,-19.383 3.531,-3.777 8.47,-5.92 13.642,-5.92 5.171,0 10.109,2.144 13.642,5.92 11.688,12.5 27.527,19.383 44.601,19.383 17.074,0 32.914,-6.884 44.6,-19.383 3.531,-3.777 8.471,-5.921 13.642,-5.921 5.171,0 10.109,2.144 13.642,5.92 11.688,12.5 27.527,19.383 44.601,19.383 17.074,0 32.913,-6.884 44.6,-19.383 3.532,-3.777 8.471,-5.921 13.642,-5.921 5.171,0 10.111,2.144 13.642,5.92 11.688,12.5 27.527,19.384 44.601,19.384 17.074,0 32.914,-6.884 44.6,-19.384 3.531,-3.777 8.47,-5.921 13.642,-5.921 5.17,0 10.111,2.144 13.642,5.92 11.688,12.5 27.528,19.384 44.602,19.384 10.314,0 18.675,8.361 18.675,18.675 -0.01,10.315 -8.371,18.677 -18.685,18.677 z"
   id="path10" />
<path
   style="fill:#74d6d0"
   d="m 484.612,537.75983 c -21.011,0 -41.466,-6.828 -58.243,-19.125 -16.775,12.298 -37.231,19.125 -58.241,19.125 -21.012,0 -41.465,-6.826 -58.241,-19.125 -16.776,12.298 -37.231,19.125 -58.241,19.125 -21.01,0 -41.466,-6.828 -58.243,-19.125 -16.776,12.298 -37.231,19.125 -58.241,19.125 -21.009,0 -41.466,-6.828 -58.241,-19.125 -16.776,12.298 -37.232,19.125 -58.241,19.125 -10.314,0 -18.675,-8.361 -18.675,-18.675 0,-10.314 8.361,-18.675 18.675,-18.675 17.074,0 32.913,-6.884 44.601,-19.383 3.531,-3.777 8.47,-5.92 13.642,-5.92 5.171,0 10.109,2.144 13.642,5.92 11.688,12.5 27.527,19.383 44.601,19.383 17.074,0 32.914,-6.884 44.6,-19.383 3.531,-3.777 8.471,-5.921 13.642,-5.921 5.171,0 10.109,2.144 13.642,5.92 11.688,12.5 27.527,19.383 44.601,19.383 17.074,0 32.913,-6.884 44.6,-19.383 3.532,-3.777 8.471,-5.921 13.642,-5.921 5.171,0 10.111,2.144 13.642,5.92 11.688,12.5 27.527,19.384 44.601,19.384 17.074,0 32.914,-6.884 44.6,-19.384 3.531,-3.777 8.47,-5.921 13.642,-5.921 5.17,0 10.111,2.144 13.642,5.92 11.688,12.5 27.528,19.384 44.602,19.384 10.314,0 18.675,8.361 18.675,18.675 -0.01,10.315 -8.371,18.677 -18.685,18.677 z"
   id="path12" />
<path
   style="fill:#ccf7f5"
   d="m 246.666,500.21283 c -15.158,-1.205 -29.08,-7.912 -39.622,-19.187 -3.531,-3.777 -8.471,-5.92 -13.642,-5.92 -5.171,0 -10.111,2.144 -13.642,5.921 -11.687,12.5 -27.526,19.384 -44.6,19.384 -17.074,0 -32.913,-6.884 -44.601,-19.384 -3.531,-3.777 -8.471,-5.92 -13.642,-5.92 -5.171,0 -10.109,2.144 -13.642,5.92 -11.688,12.5 -27.527,19.384 -44.601,19.384 -10.313,0 -18.674,8.361 -18.674,18.675 0,10.314 8.361,18.675 18.675,18.675 21.009,0 41.466,-6.828 58.241,-19.125 16.776,12.298 37.232,19.125 58.241,19.125 21.011,0 41.466,-6.828 58.241,-19.125 15.448,11.323 34.014,18.009 53.261,18.998 z"
   id="path14" />
<path
   style="fill:#cccccc;stroke-width:0.94451"
   d="m 398.11098,639.32515 c 0,-134.96514 0.0837,-142.14174 1.65289,-141.65131 0.90909,0.28413 13.12869,3.3027 27.15467,6.70792 14.02597,3.40522 26.24557,6.41776 27.15466,6.69452 1.4427,0.43921 1.65289,1.81628 1.65289,10.82916 v 10.32596 h 3.40409 3.40409 l -0.54573,7.31996 c -0.30015,4.02597 -0.77575,13.27036 -1.05688,20.54309 -1.01958,26.37541 -1.41246,29.75207 -3.46169,29.75207 -1.79337,0 -1.82746,0.98497 -1.55263,44.86417 l 0.28101,44.86418 45.57261,4e-5 45.57261,6e-5 v 12.75089 12.75088 h -45.80874 -45.80874 v 26.43247 26.43247 l -5.43093,4.284 c -11.31257,8.92353 -31.62233,16.97153 -47.2255,18.71371 l -4.95868,0.55366 z"
   id="path1202"
   transform="scale(0.64000374)" /><path
   style="fill:#cccccc;stroke-width:0.94451"
   d="m 425.97403,391.12921 -27.3908,-6.77525 -0.25632,-18.09506 -0.25633,-18.09507 14.26358,-35.71119 c 7.84496,-19.64116 14.61663,-36.07709 15.04815,-36.52428 0.60863,-0.63074 38.44475,7.29343 39.40382,8.2525 0.12149,0.12149 -1.45762,3.42416 -3.50914,7.33926 -7.10436,13.55791 -7.53676,17.27165 -7.54428,64.79629 -0.005,32.85784 -0.25907,41.77249 -1.18726,41.69131 -0.64935,-0.0568 -13.50649,-3.15213 -28.57142,-6.87851 z"
   id="path1204"
   transform="scale(0.64000374)" /><path
   style="fill:#e6e6e6;stroke-width:0.94451"
   d="m 690.98185,754.1942 c -4.37558,-4.12752 -9.90096,-8.42194 -12.27863,-9.54316 -9.76925,-4.60681 -22.39983,-3.02684 -31.16023,3.89786 l -4.80391,3.79727 v -23.63472 -23.63471 h -47.2255 -47.2255 v -12.75088 -12.75089 h 8.38252 8.38253 l 0.59032,-2.95159 c 0.32467,-1.62338 0.59032,-6.23636 0.59032,-10.25106 0,-4.01471 0.27306,-9.91199 0.6068,-13.10508 l 0.60681,-5.80561 h 37.64585 37.64585 v -28.80756 -28.80755 h -36.51031 -36.5103 l 0.62458,-14.87604 c 0.34353,-8.18181 0.89991,-21.14521 1.23641,-28.80755 l 0.61182,-13.93153 h 35.2739 35.2739 V 498.7013 465.17119 H 608.8392 574.93932 l -1.51218,-6.69612 c -2.78355,-12.32593 -11.57018,-25.71599 -21.29931,-32.45828 l -3.83975,-2.66095 v -7.89988 -7.89988 h 47.2255 47.2255 v -44.71472 -44.71472 l 4.01417,-1.2004 c 16.17296,-4.83633 30.88698,-18.99606 36.6318,-35.25183 1.50372,-4.25499 2.20853,-8.92124 2.55315,-16.90353 0.41303,-9.56676 0.19794,-11.94185 -1.62525,-17.94569 -1.15571,-3.8058 -2.73278,-8.14131 -3.50461,-9.63446 -1.37884,-2.66748 -1.32467,-2.79467 3.10762,-7.29461 14.68123,-14.90537 41.7528,-28.39667 65.0805,-32.4333 11.18829,-1.93603 26.1941,-1.93099 31.89269,0.0107 14.0467,4.78619 22.15119,22.29315 16.83567,36.36765 -4.51729,11.96096 -13.99974,18.22989 -29.10368,19.24073 -18.59983,1.24481 -33.02851,7.28368 -45.55223,19.0651 -11.68856,10.99576 -18.09337,22.28312 -21.21234,37.38301 -1.34866,6.52925 -1.50238,30.03643 -1.50238,229.74539 0,122.35957 -0.31877,222.46101 -0.70838,222.44765 -0.38961,-0.0133 -4.2884,-3.40135 -8.66396,-7.52886 z"
   id="path1206"
   transform="scale(0.64000374)" /><path
   style="fill:#cccccc;stroke-width:0.94451"
   d="m 542.62102,420.544 c -2.33767,-1.0808 -14.02598,-4.41596 -25.97403,-7.41148 l -21.72373,-5.4464 26.21015,-0.065 26.21016,-0.065 v 7.55608 c 0,4.15584 -0.10626,7.52027 -0.23613,7.4765 -0.12987,-0.0438 -2.14876,-0.96387 -4.48642,-2.04466 z"
   id="path1208"
   transform="scale(0.64000374)" /></svg>
