<?xml version="1.0" encoding="UTF-8" standalone="no"?>
<!-- Uploaded to: SVG Repo, www.svgrepo.com, Generator: SVG Repo Mixer Tools -->

<svg
   height="844.39197"
   width="797.16644"
   version="1.1"
   id="Capa_1"
   viewBox="0 0 510.18951 540.41402"
   xml:space="preserve"
   sodipodi:docname="pool-ladder-person-hot.svg"
   inkscape:version="1.2 (dc2aedaf03, 2022-05-15)"
   xmlns:inkscape="http://www.inkscape.org/namespaces/inkscape"
   xmlns:sodipodi="http://sodipodi.sourceforge.net/DTD/sodipodi-0.dtd"
   xmlns="http://www.w3.org/2000/svg"
   xmlns:svg="http://www.w3.org/2000/svg"><defs
   id="defs19" /><sodipodi:namedview
   id="namedview17"
   pagecolor="#ffffff"
   bordercolor="#000000"
   borderopacity="0.25"
   inkscape:showpageshadow="2"
   inkscape:pageopacity="0.0"
   inkscape:pagecheckerboard="0"
   inkscape:deskcolor="#d1d1d1"
   showgrid="false"
   inkscape:zoom="1.05875"
   inkscape:cx="339.55136"
   inkscape:cy="510.03542"
   inkscape:window-width="1920"
   inkscape:window-height="1027"
   inkscape:window-x="-8"
   inkscape:window-y="-8"
   inkscape:window-maximized="1"
   inkscape:current-layer="Capa_1" />
<path
   style="fill:#f0a479"
   d="M 76.549983,405.49227 C 58.082733,402.28026 45.715877,384.70551 48.927121,366.23945 L 52.0557,348.25322 c 3.212994,-18.46746 20.785783,-30.8339 39.252823,-27.62287 l 17.986227,3.12858 c 18.46843,3.2128 30.83585,20.78538 27.62383,39.25262 l -3.12837,17.98721 c -3.21222,18.46627 -20.78696,30.83312 -39.253997,27.62209 z"
   id="path2" />
<path
   id="path4"
   style="fill:#707070"
   d="m 336.62697,124.85573 c -45.32396,0 -82.19923,36.87553 -82.19923,82.20048 v 297.57424 c 0,10.31399 8.36112,18.67386 18.67511,18.67386 10.31399,0 18.67511,-8.35987 18.67511,-18.67386 v -53.02906 h 119.34945 v 50.8953 c 0,10.31399 8.36112,18.67511 18.6751,18.67511 10.31399,0 18.67511,-8.36112 18.67511,-18.67511 V 207.05496 c 0,-24.72997 20.11904,-44.85026 44.84902,-44.85026 10.31399,0 18.67511,-8.36112 18.67511,-18.67511 10e-4,-10.31299 -8.36112,-18.67386 -18.67511,-18.67386 -45.32396,0 -82.19923,36.87553 -82.19923,82.20048 v 53.36156 H 291.77796 v -53.36156 c 0,-24.72997 20.11903,-44.85026 44.84901,-44.85026 10.31399,0 18.67511,-8.36112 18.67511,-18.67511 0,-10.31399 -8.36112,-18.67511 -18.67511,-18.67511 z m -44.85026,172.91226 h 119.3507 v 42.684 h -119.3507 z m 0,80.03422 h 119.3507 v 36.44771 h -119.3507 z" />
<path
   style="fill:#575757"
   d="m 493.327,124.85583 c -45.324,0 -82.199,36.875 -82.199,82.199 v 53.362 h -60.465 v 37.35 h 60.465 v 42.684 h -60.465 v 37.35 h 60.465 v 36.448 h -60.465 v 37.35 h 60.465 v 50.896 c 0,10.314 8.361,18.675 18.675,18.675 10.314,0 18.675,-8.361 18.675,-18.675 v -295.44 c 0,-24.73 20.119,-44.849 44.849,-44.849 10.314,0 18.675,-8.361 18.675,-18.675 0,-10.314 -8.361,-18.675 -18.675,-18.675 z"
   id="path6" />
<path
   id="path8"
   style="fill:#f0a479"
   d="m 73.252929,418.62245 c -1.963332,0.007 -3.909845,0.14929 -5.826284,0.42 -16.609442,2.34644 -31.016145,14.33517 -35.603959,31.56519 l -21.241374,79.79671 c 0.276412,0.0373 0.556531,0.0634 0.831255,0.1025 1.735828,0.35024 3.430122,0.88455 5.19128,1.09626 2.629977,0.34042 5.277616,0.4867 7.928797,0.5425 2.751129,-0.22891 5.495458,-0.53416 8.218798,-0.9925 3.246083,-0.62275 6.418857,-1.55935 9.625056,-2.35377 2.713405,-0.72582 5.455915,-1.37171 8.115047,-2.28126 2.2836,-0.85853 4.564752,-1.73069 6.892541,-2.46501 3.140451,-1.053 6.292271,-2.07779 9.343804,-3.37502 3.031098,-1.16122 6.152323,-2.57437 9.428806,-2.40627 0.468067,0.024 0.939151,0.0811 1.413758,0.175 1.399352,0.3319 2.769106,0.77586 4.207524,0.92876 2.208238,0.38273 4.42554,0.7266 6.613789,1.21251 2.837262,0.71552 5.625288,1.61122 8.306299,2.79251 1.373694,0.55464 2.79124,1.16434 4.255024,1.41001 v -0.001 c 0.0857,0.0144 0.16532,0.0325 0.25,0.0475 l 7.90505,-29.69642 123.80822,12.74382 c 19.96979,2.0556 37.8258,-12.46788 39.88149,-32.43769 2.05566,-19.9698 -12.46814,-37.82466 -32.43894,-39.88023 L 80.610472,419.12245 c -0.477559,-0.0491 -0.952133,-0.0806 -1.426259,-0.11 -1.986987,-0.26984 -3.967953,-0.39721 -5.931284,-0.39 z M 3.0425178,590.3222 c 0.00914,0.0351 0.1333677,0.3584 0.2187513,0.58251 -0.00548,-0.0659 -0.017161,-0.13299 -0.02,-0.19875 -0.1362584,-0.27487 -0.2139566,-0.44174 -0.1987512,-0.38376 z m 3.1225183,8.5388 c 0.050197,0.16228 0.095074,0.32513 0.1450008,0.48751 0.084884,-0.0911 0.2239699,-0.24392 0.3125018,-0.33876 -0.1529833,-0.048 -0.3048568,-0.0995 -0.4575026,-0.14875 z M 159.22843,723.19298 c -0.20821,-0.006 -0.75777,0.33654 -0.55625,0.28375 0.12593,-0.033 0.52142,-0.18466 0.7775,-0.27375 -0.0732,-0.002 -0.14851,-0.007 -0.22125,-0.01 z m -1.22501,13.01258 0.045,0.56375 c 0.21384,-0.1649 0.45666,-0.28701 0.68376,-0.43375 -0.24299,-0.0353 -0.48575,-0.071 -0.72876,-0.13 z m 70.23417,3.18752 c -0.29607,0.4417 -0.58708,0.88203 -0.93751,1.335 -0.38969,0.38613 -0.79674,0.73941 -1.21751,1.06751 l 2.32002,-0.285 z m -25.94891,4.97503 c -0.44271,0.17204 -0.88605,0.34399 -1.32875,0.51625 l 1.72376,-0.21125 c -0.13062,-0.10303 -0.26453,-0.20174 -0.39501,-0.305 z m -36.49271,3.15001 c -0.22099,0.15874 -0.42919,0.32089 -0.60375,0.48626 -0.1374,0.13004 0.34935,-0.14657 0.52375,-0.22 0.0335,-0.11535 0.0475,-0.15516 0.08,-0.26626 z" />
<path
   id="path10"
   style="fill:#ccf7f5"
   d="m 426.37749,475.10403 c -5.17196,0 -10.11033,2.14432 -13.64133,5.92128 -11.68592,12.49996 -27.5263,19.38387 -44.60026,19.38387 -17.07392,0 -32.91355,-6.88391 -44.60151,-19.38387 -3.53096,-3.77596 -8.47033,-5.92003 -13.64133,-5.92003 -5.17096,0 -10.11058,2.14307 -13.64258,5.92003 -11.68692,12.49896 -27.52505,19.38387 -44.59901,19.38387 -17.07392,0 -32.91355,-6.88391 -44.60151,-19.38387 -3.53296,-3.77596 -8.47158,-5.92003 -13.64258,-5.92003 -5.17096,0 -10.11033,2.14432 -13.64133,5.92128 -11.68596,12.49896 -27.52634,19.38387 -44.60026,19.38387 -17.07392,0 -32.9123,-6.88391 -44.60026,-19.38387 -3.532988,-3.77596 -8.4716,-5.92003 -13.64258,-5.92003 -5.17198,0 -10.110342,2.14307 -13.64133,5.92003 -11.687952,12.49896 -27.527579,19.38387 -44.601511,19.38387 -10.3139576,0 -18.67510897,8.3599 -18.67510897,18.67386 0,4.17334 1.38669117,8.01322 3.70002167,11.12256 2.5351342,-0.36197 5.1613565,-0.0629 7.7075453,0.3 1.735832,0.35024 3.430118,0.88455 5.19128,1.09626 2.629981,0.34042 5.277612,0.4867 7.928797,0.5425 2.751135,-0.22891 5.495454,-0.53416 8.218798,-0.9925 3.246091,-0.62275 6.418851,-1.55935 9.625056,-2.35377 2.713411,-0.72582 5.455909,-1.37171 8.115047,-2.28126 2.283604,-0.85853 4.564748,-1.73069 6.892541,-2.46501 3.140457,-1.053 6.292265,-2.07779 9.343804,-3.37502 3.031104,-1.16122 6.152317,-2.57437 9.428806,-2.40627 0.468069,0.024 0.939151,0.0811 1.413758,0.175 1.399356,0.3319 2.769102,0.77586 4.207524,0.92876 2.208242,0.38273 4.425536,0.7266 6.613789,1.21251 2.837268,0.71552 5.625284,1.61122 8.306299,2.79251 1.373698,0.55464 2.791236,1.16434 4.255024,1.41001 v -0.001 c 6.13843,1.03019 9.72691,3.7752 10.42381,6.50879 0.42482,0.20483 0.85393,0.40025 1.28001,0.6025 1.39015,0.7513 2.88799,1.2047 4.37377,1.71626 2.38055,0.65465 4.7832,1.21578 7.20505,1.69376 3.34149,0.66766 6.71598,1.13675 10.09756,1.54751 1.4273,0.1425 2.85234,0.30439 4.27752,0.46625 1.60525,-0.19997 3.20706,-0.42118 4.79628,-0.7225 2.65599,-0.78469 5.2399,-1.79241 7.83379,-2.75752 2.46442,-1.03585 4.95123,-2.01887 7.44755,-2.97501 2.07229,-0.92651 4.20217,-1.70994 6.36754,-2.38752 1.58922,-0.47062 3.10719,-1.14528 4.63377,-1.78376 1.284,-0.55444 2.50114,-1.24159 3.71127,-1.93751 1.31899,-0.8786 2.7289,-1.60513 4.10378,-2.39001 1.28493,-0.79765 2.63433,-1.4813 3.96127,-2.20377 0.41695,-0.30387 0.14492,-0.11268 0.83126,-0.55 2.4287,-1.54752 4.66831,-2.21935 6.56879,-2.25126 1.44016,-0.0242 2.65818,0.34252 3.63502,0.9575 1.07837,0.12566 2.25009,0.39126 3.51002,0.82751 2.031,0.70325 3.99223,1.57048 5.87503,2.60376 2.10802,1.23916 4.02449,2.75005 5.90629,4.30128 1.43227,1.1044 2.91746,2.13487 4.39752,3.17377 0.66702,0.38875 0.82111,0.4788 1.02501,0.6025 2.08313,0.88154 4.18824,1.71282 6.32628,2.45376 1.38964,0.30421 2.78326,0.59071 4.18003,0.85501 3.96123,0.86616 7.99899,1.29798 12.01632,1.81126 5.59705,0.75147 11.22743,1.1734 16.85385,1.62876 2.61641,0.22539 5.22975,0.47763 7.84129,0.7475 17.87897,-1.62244 35.02921,-8.11941 49.45404,-18.69386 16.77596,12.29896 37.22967,19.12512 58.24159,19.12512 21.00992,0 41.46542,-6.82716 58.24034,-19.12512 16.77696,12.29696 37.23193,19.12512 58.24285,19.12512 10.31396,0 18.6751,-8.3614 18.6851,-18.67636 0,-10.31396 -8.36114,-18.67511 -18.6751,-18.67511 -17.07396,0 -32.91356,-6.88391 -44.60152,-19.38387 -3.53096,-3.77596 -8.47258,-5.92003 -13.64258,-5.92003 z" />
<path
   id="path12"
   style="fill:#74d6d0"
   d="m 426.37749,475.10403 c -5.17196,0 -10.11033,2.14432 -13.64133,5.92128 -11.68592,12.49996 -27.5263,19.38387 -44.60026,19.38387 -17.07392,0 -32.91355,-6.88391 -44.60151,-19.38387 -3.53096,-3.77596 -8.47033,-5.92003 -13.64133,-5.92003 -5.17096,0 -10.11058,2.14307 -13.64258,5.92003 -11.68692,12.49896 -27.52505,19.38387 -44.59901,19.38387 -17.07392,0 -32.91355,-6.88391 -44.60151,-19.38387 -3.53296,-3.77596 -8.47158,-5.92003 -13.64258,-5.92003 -5.17096,0 -10.11033,2.14432 -13.64133,5.92128 -11.68596,12.49896 -27.52634,19.38387 -44.60026,19.38387 -17.07392,0 -32.9123,-6.88391 -44.60026,-19.38387 -3.532988,-3.77596 -8.4716,-5.92003 -13.64258,-5.92003 -5.17198,0 -10.110342,2.14307 -13.64133,5.92003 -11.687952,12.49896 -27.527579,19.38387 -44.601511,19.38387 -10.3139576,0 -18.67510897,8.3599 -18.67510897,18.67386 0,4.17334 1.38669117,8.01322 3.70002167,11.12256 2.5351342,-0.36197 5.1613565,-0.0629 7.7075453,0.3 1.735832,0.35024 3.430118,0.88455 5.19128,1.09626 2.629981,0.34042 5.277612,0.4867 7.928797,0.5425 2.751135,-0.22891 5.495454,-0.53416 8.218798,-0.9925 3.246091,-0.62275 6.418851,-1.55935 9.625056,-2.35377 2.713411,-0.72582 5.455909,-1.37171 8.115047,-2.28126 2.283604,-0.85853 4.564748,-1.73069 6.892541,-2.46501 3.140457,-1.053 6.292265,-2.07779 9.343804,-3.37502 3.031104,-1.16122 6.152317,-2.57437 9.428806,-2.40627 0.468069,0.024 0.939151,0.0811 1.413758,0.175 1.399356,0.3319 2.769102,0.77586 4.207524,0.92876 2.208242,0.38273 4.425536,0.7266 6.613789,1.21251 2.837268,0.71552 5.625284,1.61122 8.306299,2.79251 1.373698,0.55464 2.791236,1.16434 4.255024,1.41001 v -0.001 c 6.13843,1.03019 9.72691,3.7752 10.42381,6.50879 0.42482,0.20483 0.85393,0.40025 1.28001,0.6025 1.39015,0.7513 2.88799,1.2047 4.37377,1.71626 2.38055,0.65465 4.7832,1.21578 7.20505,1.69376 3.34149,0.66766 6.71598,1.13675 10.09756,1.54751 1.4273,0.1425 2.85234,0.30439 4.27752,0.46625 1.60525,-0.19997 3.20706,-0.42118 4.79628,-0.7225 2.65599,-0.78469 5.2399,-1.79241 7.83379,-2.75752 2.46442,-1.03585 4.95123,-2.01887 7.44755,-2.97501 2.07229,-0.92651 4.20217,-1.70994 6.36754,-2.38752 1.58922,-0.47062 3.10719,-1.14528 4.63377,-1.78376 1.284,-0.55444 2.50114,-1.24159 3.71127,-1.93751 1.31899,-0.8786 2.7289,-1.60513 4.10378,-2.39001 1.28493,-0.79765 2.63433,-1.4813 3.96127,-2.20377 0.41695,-0.30387 0.14492,-0.11268 0.83126,-0.55 2.4287,-1.54752 4.66831,-2.21935 6.56879,-2.25126 1.44016,-0.0242 2.65818,0.34252 3.63502,0.9575 1.07837,0.12566 2.25009,0.39126 3.51002,0.82751 2.031,0.70325 3.99223,1.57048 5.87503,2.60376 2.10802,1.23916 4.02449,2.75005 5.90629,4.30128 1.43227,1.1044 2.91746,2.13487 4.39752,3.17377 0.66702,0.38875 0.82111,0.4788 1.02501,0.6025 2.08313,0.88154 4.18824,1.71282 6.32628,2.45376 1.38964,0.30421 2.78326,0.59071 4.18003,0.85501 3.96123,0.86616 7.99899,1.29798 12.01632,1.81126 5.59705,0.75147 11.22743,1.1734 16.85385,1.62876 2.61641,0.22539 5.22975,0.47763 7.84129,0.7475 17.87897,-1.62244 35.02921,-8.11941 49.45404,-18.69386 16.77596,12.29896 37.22967,19.12512 58.24159,19.12512 21.00992,0 41.46542,-6.82716 58.24034,-19.12512 16.77696,12.29696 37.23193,19.12512 58.24285,19.12512 10.31396,0 18.6751,-8.3614 18.6851,-18.67636 0,-10.31396 -8.36114,-18.67511 -18.6751,-18.67511 -17.07396,0 -32.91356,-6.88391 -44.60152,-19.38387 -3.53096,-3.77596 -8.47258,-5.92003 -13.64258,-5.92003 z" />
<path
   id="path14"
   style="fill:#ccf7f5"
   d="m 193.40238,475.10528 c -5.17096,0 -10.11158,2.14432 -13.64258,5.92128 -11.68696,12.49996 -27.52634,19.38387 -44.60026,19.38387 -17.07392,0 -32.9123,-6.88391 -44.60026,-19.38387 -3.530988,-3.77696 -8.4716,-5.92003 -13.64258,-5.92003 -5.17098,0 -10.108342,2.14407 -13.64133,5.92003 C 51.587418,493.52652 35.747791,500.41043 18.673859,500.41043 8.3609014,500.41043 0,508.77158 0,519.08554 c 0,4.17308 1.3857118,8.01332 3.6987716,11.12256 2.5370825,-0.3634 5.1654947,-0.0645 7.7137954,0.29875 1.735832,0.35024 3.430118,0.88455 5.19128,1.09626 2.629981,0.34042 5.277612,0.4867 7.928797,0.5425 2.751135,-0.22891 5.495454,-0.53416 8.218798,-0.9925 3.246091,-0.62275 6.418851,-1.55935 9.625056,-2.35377 2.713411,-0.72582 5.455909,-1.37171 8.115047,-2.28126 2.283604,-0.85853 4.564748,-1.73069 6.892541,-2.46501 3.140457,-1.053 6.292265,-2.07779 9.343804,-3.37502 3.031104,-1.16122 6.152317,-2.57437 9.428806,-2.40627 0.468069,0.024 0.939151,0.0811 1.413758,0.175 1.399356,0.3319 2.769102,0.77586 4.207524,0.92876 2.208242,0.38273 4.425536,0.7266 6.613789,1.21251 2.837268,0.71552 5.625284,1.61122 8.306299,2.79251 1.373698,0.55464 2.791236,1.16434 4.255024,1.41001 v -0.001 c 6.12817,1.02846 9.71591,3.76599 10.42131,6.49504 0.42719,0.20598 0.85405,0.41287 1.28251,0.61625 1.39015,0.7513 2.88799,1.2047 4.37377,1.71626 2.38055,0.65465 4.7832,1.21578 7.20505,1.69376 3.34149,0.66766 6.71598,1.13675 10.09756,1.54751 1.4273,0.1425 2.85234,0.30439 4.27752,0.46625 1.60525,-0.19997 3.20706,-0.42118 4.79628,-0.7225 2.65599,-0.78469 5.2399,-1.79241 7.83379,-2.75752 2.46442,-1.03585 4.95123,-2.01887 7.44755,-2.97501 2.07229,-0.92651 4.20217,-1.70994 6.36754,-2.38752 1.58922,-0.47062 3.10719,-1.14528 4.63377,-1.78376 1.284,-0.55444 2.50114,-1.24159 3.71127,-1.93751 1.31899,-0.8786 2.7289,-1.60513 4.10378,-2.39001 1.28493,-0.79765 2.63433,-1.4813 3.96127,-2.20377 0.41695,-0.30387 0.14492,-0.11268 0.83126,-0.55 2.4287,-1.54752 4.66831,-2.21935 6.56879,-2.25126 1.44014,-0.0242 2.65823,0.34246 3.63502,0.9575 1.07837,0.12566 2.25009,0.39126 3.51002,0.82751 2.031,0.70325 3.99223,1.57048 5.87503,2.60376 2.10802,1.23916 4.02449,2.75005 5.90629,4.30128 1.43227,1.1044 2.91746,2.13487 4.39752,3.17377 0.8093,0.47168 0.92585,0.54113 1.28001,0.7575 1.883,0.79335 3.78501,1.54248 5.71378,2.21876 1.50755,0.33616 3.02085,0.64802 4.53753,0.93501 3.96123,0.86616 7.99899,1.29798 12.01632,1.81126 3.62939,0.48729 7.27412,0.82463 10.92131,1.13376 l 0.007,-35.87271 c -15.15792,-1.205 -29.08077,-7.91266 -39.62273,-19.18762 -3.531,-3.77696 -8.47033,-5.92003 -13.64133,-5.92003 z" />
<path
   style="fill:#f2f2f2;stroke-width:0.94451"
   d="m 691.38135,754.54554 c -4.15585,-3.93677 -9.67295,-8.23397 -12.26023,-9.54933 -9.86072,-5.01311 -22.54725,-3.58581 -31.57813,3.55269 l -4.80391,3.79727 v -23.63472 -23.63471 h -47.2255 -47.2255 v -28.80755 -28.80756 h 47.2255 47.2255 v -28.80756 -28.80755 h -47.2255 -47.2255 V 561.03896 532.2314 h 47.2255 47.2255 v -33.5301 -33.53011 h -47.2255 -47.2255 v -28.80755 -28.80756 h 47.15938 47.15939 l 0.38291,-50.29516 c 0.36396,-47.80573 0.48714,-50.7611 2.48861,-59.70882 2.16769,-9.69083 7.19046,-24.18392 10.97653,-31.67253 7.92918,-15.68339 24.7753,-35.38159 39.04606,-45.65662 21.28707,-15.32681 47.54793,-24.2265 71.50906,-24.2341 11.41488,-0.004 16.59862,1.52292 22.34368,6.57993 15.71347,13.83155 12.52558,38.23127 -6.15839,47.13571 -4.65033,2.21626 -7.66586,2.91508 -14.57417,3.37742 -18.59983,1.24481 -33.02851,7.28368 -45.55223,19.0651 -11.68856,10.99576 -18.09337,22.28312 -21.21234,37.38301 -1.34866,6.52925 -1.50238,30.03643 -1.50238,229.74539 0,122.35957 -0.31877,222.46203 -0.70838,222.44992 -0.38961,-0.0121 -4.10862,-3.24302 -8.26446,-7.17979 z"
   id="path377"
   transform="scale(0.64000374)" /><path
   style="fill:#e6e6e6;stroke-width:0.94451"
   d="m 412.67404,774.75469 c 15.27567,-17.46237 18.38878,-42.50652 7.9257,-63.76005 -3.36024,-6.82562 -12.79845,-17.50343 -18.58866,-21.03006 l -3.87686,-2.36127 0.25792,-191.26329 0.25792,-191.26328 2.00495,-8.02833 c 4.29957,-17.2166 10.59534,-31.84826 19.31047,-44.87846 6.48522,-9.69622 21.33061,-25.05168 30.83639,-31.89589 21.63121,-15.57459 47.6194,-24.2745 72.54196,-24.28443 8.75238,-0.003 10.00418,0.23297 15.33469,2.89665 17.4929,8.74131 21.19782,31.72932 7.34616,45.58098 -5.73472,5.73471 -9.74125,7.20673 -23.58428,8.66496 -28.10416,2.9605 -47.16219,15.30162 -59.11796,38.28212 -7.27966,13.99244 -7.58221,16.76787 -7.58973,69.62462 l -0.007,46.51712 h 45.80874 45.80874 v 28.80756 28.80755 h -45.80874 -45.80874 v 33.53011 33.5301 h 45.80874 45.80874 v 28.80756 28.80756 h -45.80874 -45.80874 v 28.80755 28.80756 h 45.80874 45.80874 v 28.80756 28.80755 h -45.80874 -45.80874 v 26.43247 26.43247 l -5.43093,4.284 c -6.92758,5.46459 -22.27504,13.06597 -31.38598,15.54503 -10.8241,2.94521 -11.26381,2.73252 -6.23514,-3.01602 z"
   id="path448"
   transform="scale(0.64000374)" /><path
   style="fill:#cccccc;stroke-width:0.94451"
   d="m 690.90909,753.41704 c -10.38533,-9.12235 -15.35562,-11.48305 -24.20238,-11.49518 -8.01314,-0.011 -13.10286,1.62128 -19.34618,6.20431 l -4.62145,3.39245 v -23.22094 -23.22094 h -47.2255 -47.2255 v -28.80755 -28.80756 h 47.2255 47.2255 v -28.80756 -28.80755 h -47.2255 -47.2255 V 561.03896 532.2314 h 47.2255 47.2255 v -33.5301 -33.53011 h -47.2255 -47.2255 v -28.80755 -28.80756 h 47.07803 47.07804 l 0.61972,-14.31782 c 0.34084,-7.8748 0.62295,-28.80751 0.62689,-46.51712 0.004,-17.70962 0.4031,-35.64214 0.88702,-39.85007 1.64394,-14.29501 8.73536,-35.04967 16.1327,-47.21602 5.48544,-9.02187 16.76129,-22.74815 24.84676,-30.24637 21.49836,-19.93693 52.13055,-32.44002 79.84495,-32.59019 11.78235,-0.0638 16.31062,0.93251 21.57724,4.74762 11.1482,8.07572 14.79817,22.6724 8.71391,34.84807 -5.01033,10.02655 -12.92065,14.64262 -27.89667,16.27914 -5.14531,0.56225 -11.8807,1.66683 -14.96753,2.4546 -23.32676,5.95314 -43.40751,25.51844 -50.12671,48.84003 -0.87514,3.03752 -1.41009,6.75653 -1.18878,8.26446 0.22132,1.50793 0.051,2.74169 -0.37853,2.74169 -0.42951,0 -0.84311,45.79693 -0.91909,101.77095 -0.076,55.97403 -0.39476,156.20589 -0.70838,222.73748 l -0.57022,120.96651 z"
   id="path519"
   transform="scale(0.64000374)" /></svg>
