<?xml version="1.0" encoding="UTF-8" standalone="no"?>
<!-- Uploaded to: SVG Repo, www.svgrepo.com, Generator: SVG Repo Mixer Tools -->

<svg
   height="120.89728"
   width="154.89961"
   version="1.1"
   id="Capa_1"
   viewBox="0 0 99.136332 77.37471"
   xml:space="preserve"
   sodipodi:docname="pool-ladder-person-warm.svg"
   inkscape:version="1.2 (dc2aedaf03, 2022-05-15)"
   xmlns:inkscape="http://www.inkscape.org/namespaces/inkscape"
   xmlns:sodipodi="http://sodipodi.sourceforge.net/DTD/sodipodi-0.dtd"
   xmlns="http://www.w3.org/2000/svg"
   xmlns:svg="http://www.w3.org/2000/svg"><defs
   id="defs19" /><sodipodi:namedview
   id="namedview17"
   pagecolor="#ffffff"
   bordercolor="#000000"
   borderopacity="0.25"
   inkscape:showpageshadow="2"
   inkscape:pageopacity="0.0"
   inkscape:pagecheckerboard="0"
   inkscape:deskcolor="#d1d1d1"
   showgrid="false"
   inkscape:zoom="1.05875"
   inkscape:cx="321.60567"
   inkscape:cy="338.13459"
   inkscape:window-width="1920"
   inkscape:window-height="1027"
   inkscape:window-x="-8"
   inkscape:window-y="-8"
   inkscape:window-maximized="1"
   inkscape:current-layer="Capa_1" />
<path
   style="fill:#f0a479;stroke-width:0.181458"
   d="m 38.398866,42.813278 c -3.260632,-1.22857 -4.84051,-4.70022 -3.528945,-7.75391 l 1.277628,-2.97431 c 1.31194,-3.05387 5.01826,-4.53356 8.278891,-3.30517 l 3.175694,1.19661 c 3.260818,1.22875 4.840884,4.70004 3.529131,7.75391 l -1.277627,2.97449 c -1.311753,3.05369 -5.018447,4.53338 -8.279079,3.30499 z"
   id="path2" />
<path
   id="path4"
   style="fill:#707070;stroke-width:0.181458"
   d="m 66.14013,2.1442682 c -8.498259,0 -15.412386,6.47573 -15.412386,14.4352598 v 52.25716 c 0,1.81124 1.567713,3.27932 3.50159,3.27932 1.933877,0 3.50159,-1.46808 3.50159,-3.27932 v -9.31246 h 22.378065 v 8.93775 c 0,1.81124 1.567713,3.27954 3.501588,3.27954 1.933877,0 3.50159,-1.4683 3.50159,-3.27954 v -51.88266 c 0,-4.34285 3.772328,-7.8761798 8.409208,-7.8761798 1.933877,0 3.50159,-1.4683 3.50159,-3.27954 1.87e-4,-1.81107 -1.567713,-3.27933 -3.50159,-3.27933 -8.498259,0 -15.412386,6.47573 -15.412386,14.4352598 v 9.37085 H 57.730924 v -9.37085 c 0,-4.34284 3.772325,-7.8761698 8.409206,-7.8761698 1.933877,0 3.50159,-1.4683 3.50159,-3.27955 0,-1.81124 -1.567713,-3.27954 -3.50159,-3.27954 z M 57.73069,32.509468 h 22.378299 v 7.49576 H 57.73069 Z m 0,14.05485 h 22.378299 v 6.4006 H 57.73069 Z" />
<path
   style="fill:#575757;stroke-width:0.181458"
   d="m 95.521442,2.1442882 c -8.498266,0 -15.412342,6.47563 -15.412342,14.4349998 v 9.37093 H 68.77189 v 6.55905 H 80.1091 v 7.49576 H 68.77189 v 6.55905 H 80.1091 v 6.40065 H 68.77189 v 6.55905 H 80.1091 v 8.93787 c 0,1.81125 1.56769,3.27952 3.501569,3.27952 1.933879,0 3.50157,-1.46827 3.50157,-3.27952 v -51.88236 c 0,-4.34284 3.772319,-7.8759498 8.409203,-7.8759498 1.933879,0 3.50157,-1.46828 3.50157,-3.27953 0,-1.81124 -1.567691,-3.27952 -3.50157,-3.27952 z"
   id="path6" />
<path
   id="path8"
   style="fill:#f0a479;stroke-width:0.181458"
   d="m 36.5899,44.889858 c -3.144698,0.0531 -6.100197,1.83402 -7.348183,4.73888 l -9.102727,21.19214 c -0.180727,0.42081 -0.310238,0.84837 -0.40641,1.27735 0.01508,-7e-4 0.02961,-0.003 0.04477,-0.004 0.105074,-0.002 0.209871,0.0122 0.314768,0.0182 0.410309,0.0445 0.79298,0.19277 1.173291,0.33476 0.314286,0.10416 0.608969,0.25193 0.913367,0.37735 0.274166,0.10786 0.556071,0.19587 0.831802,0.29985 0.383346,0.157 0.757175,0.33292 1.135088,0.50093 0.260653,0.13194 0.541505,0.21156 0.820083,0.3014 0.446354,0.11496 0.896852,0.2135 1.35095,0.29744 0.626525,0.11725 1.259248,0.19962 1.893296,0.27176 0.267614,0.025 0.534815,0.0534 0.802036,0.0819 0.300985,-0.0351 0.601325,-0.074 0.899305,-0.12688 0.497999,-0.1378 0.982488,-0.31477 1.468838,-0.48425 0.46208,-0.18191 0.928358,-0.35454 1.396418,-0.52245 0.388556,-0.1627 0.787909,-0.30028 1.193917,-0.41927 0.297973,-0.0826 0.582599,-0.20112 0.868833,-0.31325 0.240751,-0.0974 0.46897,-0.21803 0.695865,-0.34024 0.247311,-0.15429 0.511669,-0.28188 0.76946,-0.41971 0.240925,-0.14008 0.493938,-0.26014 0.742739,-0.38701 0.07818,-0.0534 0.02717,-0.0198 0.155862,-0.0966 0.248946,-0.14857 0.485834,-0.24742 0.708989,-0.31084 l -0.463129,-0.10602 5.156526,-12.0048 22.749084,4.87409 c 3.669348,0.7862 7.324608,-1.36257 8.164047,-4.79924 0.839439,-3.43666 -1.454879,-6.85992 -5.124415,-7.64612 l -29.35289,-6.28908 c -0.08775,-0.0188 -0.175407,-0.0345 -0.262969,-0.0498 -0.727209,-0.17922 -1.462925,-0.25899 -2.188611,-0.24674 z m 4.256751,26.93925 c 0.0098,0.005 0.01976,0.01 0.02953,0.0147 0.395255,0.21761 0.754594,0.48294 1.107432,0.75535 0.268545,0.19395 0.547025,0.37491 0.824537,0.55735 0.218244,0.11913 0.09823,0.0525 0.359065,0.20108 0.08958,0.051 0.172586,0.10338 0.25008,0.15695 0.510873,0.1346 1.031509,0.23641 1.552981,0.32883 0.742732,0.15211 1.499814,0.22794 2.253065,0.31808 1.049443,0.13196 2.105147,0.20606 3.160103,0.28603 1.124224,0.0907 2.245699,0.20522 3.365416,0.33366 z m -20.157345,1.53506 c 9e-4,0.006 0.01666,0.0651 0.02742,0.10603 4.87e-4,-0.0116 -3.9e-5,-0.0234 9.37e-4,-0.0349 -0.01907,-0.0508 -0.02986,-0.0815 -0.02836,-0.0711 z m 0.385785,1.55504 c 0.0056,0.0294 0.01036,0.0589 0.01594,0.0882 0.01788,-0.0141 0.04721,-0.0378 0.06586,-0.0525 -0.02737,-0.0116 -0.05452,-0.0239 -0.0818,-0.0358 z m 25.64059,24.95066 c -0.0386,-0.006 -0.148866,0.0424 -0.110157,0.0375 0.02419,-0.003 0.101243,-0.0209 0.150938,-0.0309 -0.01358,-0.002 -0.0273,-0.005 -0.04078,-0.007 z m -0.525706,2.241902 -0.0047,0.0992 c 0.04357,-0.0242 0.09172,-0.0403 0.137344,-0.061 -0.04441,-0.0114 -0.08878,-0.0227 -0.132656,-0.0382 z m 12.9976,2.06058 c -0.06521,0.0707 -0.129499,0.14105 -0.205079,0.21249 -0.08135,0.0589 -0.165206,0.11186 -0.251018,0.16003 h 0.438284 z m -11.806264,0.0781 c -0.04476,0.0229 -0.08725,0.0467 -0.123516,0.0718 -0.02855,0.0197 0.06829,-0.0182 0.102422,-0.0272 0.0089,-0.0194 0.01251,-0.0259 0.02109,-0.0446 z m 6.863257,0.23291 c -0.08632,0.0205 -0.172659,0.0409 -0.258986,0.0615 h 0.325549 c -0.02195,-0.0208 -0.04464,-0.0407 -0.06656,-0.0615 z" />
<path
   id="path10"
   style="fill:#ccf7f5;stroke-width:0.181458"
   d="m 82.968385,63.651538 c -0.969746,0 -1.895691,0.37656 -2.557754,1.03984 -2.191118,2.19512 -5.16119,3.40401 -8.362565,3.40401 -3.20137,0 -6.171301,-1.20889 -8.3628,-3.40401 -0.662058,-0.6631 -1.58819,-1.03962 -2.557754,-1.03962 -0.969559,0 -1.895738,0.37634 -2.557989,1.03962 -2.191305,2.19495 -5.160955,3.40401 -8.362331,3.40401 -3.20137,0 -6.1713,-1.20889 -8.362799,-3.40401 -0.662433,-0.6631 -1.588424,-1.03962 -2.557989,-1.03962 -0.969558,0 -1.89569,0.37656 -2.557754,1.03984 -2.191124,2.19495 -5.161195,3.40401 -8.362565,3.40401 -3.20137,0 -6.171066,-1.20889 -8.362565,-3.40401 -0.662437,-0.6631 -1.588427,-1.03962 -2.557989,-1.03962 -0.969749,0 -1.895692,0.37634 -2.557754,1.03962 -2.191498,2.19495 -5.1614283,3.40401 -8.3628,3.40401 -1.9338727,0 -3.5015897,1.46808 -3.5015897,3.27932 0,1.81124 1.567717,3.27955 3.5015897,3.27955 3.939183,0 7.774589,-1.19892 10.920085,-3.35857 0.515175,0.3537 1.054906,0.67154 1.604544,0.97266 0.219898,-0.10736 0.46726,-0.1695 0.72774,-0.17407 0.105075,-0.002 0.209871,0.0122 0.314768,0.0182 0.410312,0.0445 0.792978,0.19277 1.173291,0.33476 0.314287,0.10416 0.608969,0.25193 0.913367,0.37734 0.274166,0.10788 0.556064,0.19588 0.831802,0.29986 0.383346,0.157 0.757175,0.33292 1.135088,0.50093 0.260653,0.13194 0.541497,0.21156 0.820083,0.30139 0.446354,0.11497 0.896852,0.21351 1.35095,0.29745 0.626532,0.11725 1.259248,0.19962 1.893296,0.27176 0.267621,0.025 0.534815,0.0534 0.802036,0.0819 0.300985,-0.0351 0.601325,-0.074 0.899305,-0.12687 0.497999,-0.1378 0.982481,-0.31477 1.468838,-0.48425 0.46208,-0.18191 0.928358,-0.35454 1.396418,-0.52245 0.388556,-0.1627 0.787909,-0.30028 1.193917,-0.41927 0.297981,-0.0827 0.582599,-0.20112 0.868833,-0.31325 0.240751,-0.0974 0.468963,-0.21803 0.695865,-0.34024 0.247311,-0.1543 0.511669,-0.28188 0.76946,-0.41971 0.240925,-0.14008 0.493938,-0.26014 0.742739,-0.38701 0.07818,-0.0534 0.02717,-0.0198 0.155862,-0.0966 0.455384,-0.27176 0.87531,-0.38974 1.231651,-0.39534 0.270032,-0.004 0.498409,0.0601 0.681567,0.16815 0.202195,0.0221 0.421893,0.0687 0.65813,0.14532 0.380815,0.12349 0.748545,0.27579 1.10157,0.45724 0.395255,0.21761 0.754594,0.48294 1.107432,0.75535 0.268553,0.19395 0.547025,0.37491 0.824537,0.55735 0.125066,0.0683 0.153958,0.0841 0.192189,0.10581 0.390588,0.1548 0.785295,0.30078 1.18618,0.4309 0.260558,0.0534 0.521862,0.10374 0.783757,0.15015 0.742732,0.15211 1.499814,0.22794 2.253065,0.31808 1.04945,0.13196 2.105147,0.20606 3.160103,0.28602 0.490577,0.0396 0.980578,0.0839 1.470244,0.13127 3.352316,-0.28492 6.567986,-1.42585 9.272651,-3.28283 3.1455,2.15982 6.980573,3.35857 10.920319,3.35857 3.939372,0 7.774778,-1.19892 10.920085,-3.35857 3.145688,2.15947 6.980997,3.35857 10.920556,3.35857 1.933873,0 3.501588,-1.46835 3.503463,-3.27977 0,-1.81124 -1.567715,-3.27954 -3.501588,-3.27954 -3.201376,0 -6.171303,-1.20889 -8.362801,-3.40401 -0.662059,-0.6631 -1.588612,-1.03962 -2.557989,-1.03962 z" />
<path
   id="path12"
   style="fill:#74d6d0;stroke-width:0.181458"
   d="m 82.968385,63.651538 c -0.969746,0 -1.895691,0.37656 -2.557754,1.03984 -2.191118,2.19512 -5.16119,3.40401 -8.362565,3.40401 -3.20137,0 -6.171301,-1.20889 -8.3628,-3.40401 -0.662058,-0.6631 -1.58819,-1.03962 -2.557754,-1.03962 -0.969559,0 -1.895738,0.37634 -2.557989,1.03962 -2.191305,2.19495 -5.160955,3.40401 -8.362331,3.40401 -3.20137,0 -6.1713,-1.20889 -8.362799,-3.40401 -0.662433,-0.6631 -1.588424,-1.03962 -2.557989,-1.03962 -0.969558,0 -1.89569,0.37656 -2.557754,1.03984 -2.191124,2.19495 -5.161195,3.40401 -8.362565,3.40401 -3.20137,0 -6.171066,-1.20889 -8.362565,-3.40401 -0.662437,-0.6631 -1.588427,-1.03962 -2.557989,-1.03962 -0.969749,0 -1.895692,0.37634 -2.557754,1.03962 -2.191498,2.19495 -5.1614283,3.40401 -8.3628,3.40401 -1.9338727,0 -3.5015897,1.46808 -3.5015897,3.27932 0,1.81124 1.567717,3.27955 3.5015897,3.27955 3.939183,0 7.774589,-1.19892 10.920085,-3.35857 0.515175,0.3537 1.054906,0.67154 1.604544,0.97266 0.219898,-0.10736 0.46726,-0.1695 0.72774,-0.17407 0.105075,-0.002 0.209871,0.0122 0.314768,0.0182 0.410312,0.0445 0.792978,0.19277 1.173291,0.33476 0.314287,0.10416 0.608969,0.25193 0.913367,0.37734 0.274166,0.10788 0.556064,0.19588 0.831802,0.29986 0.383346,0.157 0.757175,0.33292 1.135088,0.50093 0.260653,0.13194 0.541497,0.21156 0.820083,0.30139 0.446354,0.11497 0.896852,0.21351 1.35095,0.29745 0.626532,0.11725 1.259248,0.19962 1.893296,0.27176 0.267621,0.025 0.534815,0.0534 0.802036,0.0819 0.300985,-0.0351 0.601325,-0.074 0.899305,-0.12687 0.497999,-0.1378 0.982481,-0.31477 1.468838,-0.48425 0.46208,-0.18191 0.928358,-0.35454 1.396418,-0.52245 0.388556,-0.1627 0.787909,-0.30028 1.193917,-0.41927 0.297981,-0.0827 0.582599,-0.20112 0.868833,-0.31325 0.240751,-0.0974 0.468963,-0.21803 0.695865,-0.34024 0.247311,-0.1543 0.511669,-0.28188 0.76946,-0.41971 0.240925,-0.14008 0.493938,-0.26014 0.742739,-0.38701 0.07818,-0.0534 0.02717,-0.0198 0.155862,-0.0966 0.455384,-0.27176 0.87531,-0.38974 1.231651,-0.39534 0.270032,-0.004 0.498409,0.0601 0.681567,0.16815 0.202195,0.0221 0.421893,0.0687 0.65813,0.14532 0.380815,0.12349 0.748545,0.27579 1.10157,0.45724 0.395255,0.21761 0.754594,0.48294 1.107432,0.75535 0.268553,0.19395 0.547025,0.37491 0.824537,0.55735 0.125066,0.0683 0.153958,0.0841 0.192189,0.10581 0.390588,0.1548 0.785295,0.30078 1.18618,0.4309 0.260558,0.0534 0.521862,0.10374 0.783757,0.15015 0.742732,0.15211 1.499814,0.22794 2.253065,0.31808 1.04945,0.13196 2.105147,0.20606 3.160103,0.28602 0.490577,0.0396 0.980578,0.0839 1.470244,0.13127 3.352316,-0.28492 6.567986,-1.42585 9.272651,-3.28283 3.1455,2.15982 6.980573,3.35857 10.920319,3.35857 3.939372,0 7.774778,-1.19892 10.920085,-3.35857 3.145688,2.15947 6.980997,3.35857 10.920556,3.35857 1.933873,0 3.501588,-1.46835 3.503463,-3.27977 0,-1.81124 -1.567715,-3.27954 -3.501588,-3.27954 -3.201376,0 -6.171303,-1.20889 -8.362801,-3.40401 -0.662059,-0.6631 -1.588612,-1.03962 -2.557989,-1.03962 z" />
<path
   id="path14"
   style="fill:#ccf7f5;stroke-width:0.181458"
   d="m 39.285467,63.651758 c -0.969559,0 -1.895925,0.37656 -2.557989,1.03984 -2.191311,2.19512 -5.161195,3.40401 -8.362565,3.40401 -3.20137,0 -6.171066,-1.20889 -8.362565,-3.40401 -0.662062,-0.66328 -1.588427,-1.03962 -2.557989,-1.03962 -0.969561,0 -1.895317,0.37652 -2.557754,1.03962 -2.191498,2.19512 -5.1614282,3.40401 -8.3627998,3.40401 -1.9336853,0 -3.5013554,1.4683 -3.5013554,3.27954 0,1.81124 1.5677169,3.27955 3.5015897,3.27955 3.9391835,0 7.7747765,-1.1991 10.9200855,-3.35858 0.513807,0.35278 1.047799,0.67726 1.595872,0.97772 0.222305,-0.11042 0.472965,-0.1747 0.737349,-0.17934 0.105075,-0.002 0.209871,0.0122 0.314768,0.0182 0.410312,0.0445 0.792978,0.19277 1.173291,0.33476 0.314287,0.10416 0.608969,0.25193 0.913367,0.37734 0.274166,0.10788 0.556064,0.19588 0.831802,0.29986 0.383346,0.157 0.757175,0.33292 1.135088,0.50093 0.260653,0.13194 0.541497,0.21156 0.820083,0.30139 0.446354,0.11497 0.896852,0.21351 1.35095,0.29745 0.626532,0.11725 1.259248,0.19962 1.893296,0.27176 0.267621,0.025 0.534815,0.0534 0.802036,0.0819 0.300985,-0.0351 0.601325,-0.074 0.899305,-0.12687 0.497999,-0.1378 0.982481,-0.31477 1.468838,-0.48425 0.46208,-0.18191 0.928358,-0.35454 1.396418,-0.52245 0.388556,-0.1627 0.787909,-0.30028 1.193917,-0.41927 0.297981,-0.0827 0.582599,-0.20112 0.868833,-0.31325 0.240751,-0.0974 0.468963,-0.21803 0.695865,-0.34024 0.247311,-0.1543 0.511669,-0.28188 0.76946,-0.41971 0.240925,-0.14008 0.493938,-0.26014 0.742739,-0.38701 0.07818,-0.0534 0.02717,-0.0198 0.155862,-0.0966 0.455384,-0.27176 0.87531,-0.38974 1.231651,-0.39534 0.270028,-0.004 0.498419,0.0601 0.681567,0.16815 0.202195,0.0221 0.421893,0.0687 0.65813,0.14532 0.380815,0.12349 0.748545,0.27579 1.10157,0.45724 0.395255,0.21761 0.754594,0.48294 1.107432,0.75535 0.268553,0.19395 0.547025,0.37491 0.824537,0.55735 0.151744,0.0828 0.173597,0.095 0.240002,0.13303 0.353063,0.13932 0.709691,0.27087 1.071336,0.38963 0.282666,0.059 0.56641,0.1138 0.850788,0.1642 0.742732,0.15211 1.499814,0.22794 2.253065,0.31808 0.680512,0.0856 1.363898,0.14481 2.047749,0.1991 l 0.0013,-6.29963 c -2.84212,-0.21161 -5.452653,-1.38954 -7.429277,-3.36954 -0.662063,-0.66328 -1.58819,-1.03962 -2.557754,-1.03962 z" />
<path
   style="fill:#cccccc;stroke-width:0.10969"
   d="m 55.046468,48.561828 c -1.433778,-0.30765 -2.977873,-0.63706 -3.431324,-0.732 l -0.824457,-0.17263 0.03571,-16.57546 c 0.03548,-16.47015 0.03723,-16.58119 0.275667,-17.47777 0.513645,-1.93143 1.270139,-3.57852 2.316641,-5.0439498 0.778233,-1.08977 2.559693,-2.81559 3.700396,-3.58482 2.595765,-1.75045 5.714372,-2.72825 8.705103,-2.72936 1.050294,-3.5e-4 1.200511,0.0262 1.840177,0.32556 2.099164,0.98244 2.543758,3.5661 0.881546,5.1229 -0.688172,0.64454 -1.168959,0.80998 -2.830136,0.97387 -3.372525,0.33274 -5.659507,1.7197698 -7.09421,4.3025798 -0.873566,1.57263 -0.909872,1.88456 -0.910775,7.8252 l -8.4e-4,5.22813 h 5.497092 5.497091 v 3.23772 3.23772 h -5.497091 -5.497092 v 3.76849 3.7685 h 5.497092 5.497091 v 3.23772 3.23772 h -5.493705 -5.493705 l -0.03172,1.30463 -0.03172,1.30463 z"
   id="path725" /><path
   style="fill:#e6e6e6;stroke-width:0.10969"
   d="m 85.940918,64.983208 c -0.525074,-0.4639 -1.188125,-0.94656 -1.473447,-1.07257 -1.172319,-0.51777 -2.688001,-0.34019 -3.739257,0.43808 l -0.576474,0.42678 v -2.65634 -2.65633 h -3.331655 -3.331656 l 0.0987,-0.39808 c 0.190968,-0.77021 0.121802,-2.39197 -0.135343,-3.17346 -0.310248,-0.94288 -0.538846,-1.35372 -1.227123,-2.2054 l -0.564496,-0.6985 h 4.245786 4.245785 v -3.23772 -3.23772 H 74.484634 68.81753 v -3.23772 -3.23772 h 5.667104 5.667104 v -3.7685 -3.76849 H 74.484634 68.81753 v -3.23772 -3.23772 h 5.65917 5.659171 l 0.04595,-5.65274 c 0.04368,-5.37295 0.05846,-5.70511 0.298636,-6.71076 0.260125,-1.08916 0.862862,-2.71806 1.317194,-3.55972 0.951509,-1.7626798 2.973059,-3.9765798 4.685563,-5.1314098 2.554469,-1.7226 5.705796,-2.72285 8.581154,-2.7237 1.369797,-5.3e-4 1.99185,0.17116 2.681263,0.73953 1.885631,1.55454 1.503081,4.29686 -0.739013,5.29764 -0.558044,0.24909 -0.91991,0.32763 -1.748914,0.3796 -2.231997,0.1399 -3.963452,0.81862 -5.46631,2.1427498 -1.402638,1.23583 -2.171221,2.50443 -2.545501,4.20153 -0.16184,0.73383 -0.180287,3.37583 -0.180287,25.82139 0,13.75216 -0.03825,25.0027 -0.08501,25.0012 -0.04675,-0.002 -0.514612,-0.38229 -1.039683,-0.84618 z"
   id="path727" /><path
   style="fill:#cccccc;stroke-width:0.10969"
   d="m 50.79614,64.439948 c 0,-3.38978 0.01217,-3.60802 0.198348,-3.55602 0.109092,0.0305 1.549954,0.34406 3.201914,0.69687 1.651961,0.35281 3.118324,0.6664 3.258585,0.69686 0.249987,0.0543 0.25502,0.0857 0.25502,1.59106 v 1.53567 l -0.651717,0.48149 c -1.357519,1.00292 -3.794709,1.90745 -5.667104,2.10325 l -0.595046,0.0622 z"
   id="path729" /></svg>
