<?xml version="1.0" encoding="UTF-8" standalone="no"?>
<!-- Uploaded to: SVG Repo, www.svgrepo.com, Generator: SVG Repo Mixer Tools -->

<svg
   height="59.504147"
   width="81.227844"
   version="1.1"
   id="Capa_1"
   viewBox="0 0 51.986125 38.082876"
   xml:space="preserve"
   sodipodi:docname="pool-ladder-person-hot.svg"
   inkscape:version="1.2 (dc2aedaf03, 2022-05-15)"
   xmlns:inkscape="http://www.inkscape.org/namespaces/inkscape"
   xmlns:sodipodi="http://sodipodi.sourceforge.net/DTD/sodipodi-0.dtd"
   xmlns="http://www.w3.org/2000/svg"
   xmlns:svg="http://www.w3.org/2000/svg"><defs
   id="defs19" /><sodipodi:namedview
   id="namedview17"
   pagecolor="#ffffff"
   bordercolor="#000000"
   borderopacity="0.25"
   inkscape:showpageshadow="2"
   inkscape:pageopacity="0.0"
   inkscape:pagecheckerboard="0"
   inkscape:deskcolor="#d1d1d1"
   showgrid="false"
   inkscape:zoom="1.05875"
   inkscape:cx="320.66116"
   inkscape:cy="285.24203"
   inkscape:window-width="1920"
   inkscape:window-height="1027"
   inkscape:window-x="-8"
   inkscape:window-y="-8"
   inkscape:window-maximized="1"
   inkscape:current-layer="Capa_1" />
<path
   style="fill:#f0a479;stroke-width:0.0877633"
   d="m 9.5945348,25.201181 c -1.731308,-0.2639 -2.8907035,-1.707829 -2.5896485,-3.224984 l 0.293305,-1.47774 c 0.3012185,-1.517275 1.948671,-2.53329 3.6799587,-2.269475 l 1.686212,0.25704 c 1.731419,0.263965 2.890867,1.707715 2.58974,3.22497 l -0.293286,1.47782 c -0.301146,1.517174 -1.948781,2.533224 -3.680069,2.269409 z"
   id="path2" />
<path
   id="path4"
   style="fill:#707070;stroke-width:0.0877633"
   d="m 33.976799,2.1442682 c -4.249129,0 -7.706192,3.0296698 -7.706192,6.7535344 V 33.346306 c 0,0.84739 0.783856,1.534235 1.750795,1.534235 0.966938,0 1.750795,-0.686845 1.750795,-1.534235 v -4.35683 h 11.189032 v 4.181525 c 0,0.84739 0.783856,1.534335 1.750794,1.534335 0.966938,0 1.750795,-0.686945 1.750795,-1.534335 V 8.8977026 c 0,-2.0317998 1.886164,-3.6848696 4.204604,-3.6848696 0.966938,0 1.750795,-0.68694 1.750795,-1.5343349 9.3e-5,-0.8473049 -0.783857,-1.5342299 -1.750795,-1.5342299 -4.24913,0 -7.706193,3.0296698 -7.706193,6.7535344 V 13.281957 H 29.772197 V 8.8978026 c 0,-2.0317948 1.886162,-3.6848646 4.204602,-3.6848646 0.966939,0 1.750795,-0.686945 1.750795,-1.5343349 0,-0.8473899 -0.783856,-1.5343349 -1.750795,-1.5343349 z M 29.77208,16.350627 h 11.189149 v 3.506885 H 29.77208 Z m 0,6.575555 h 11.189149 v 2.994519 H 29.77208 Z" />
<path
   style="fill:#575757;stroke-width:0.0877633"
   d="m 48.667455,2.1442782 c -4.249133,0 -7.706171,3.0296248 -7.706171,6.7534144 v 4.3841844 h -5.668605 v 3.06865 h 5.668605 v 3.50689 h -5.668605 v 3.068655 h 5.668605 v 2.994539 h -5.668605 v 3.068655 h 5.668605 v 4.18158 c 0,0.84739 0.783845,1.534325 1.750785,1.534325 0.966939,0 1.750785,-0.686935 1.750785,-1.534325 V 8.8976926 c 0,-2.0317998 1.886159,-3.6847646 4.204601,-3.6847646 0.96694,0 1.750785,-0.686935 1.750785,-1.5343249 0,-0.8473949 -0.783845,-1.5343249 -1.750785,-1.5343249 z"
   id="path6" />
<path
   id="path8"
   style="fill:#f0a479;stroke-width:0.0877633"
   d="m 9.2854353,26.279946 c -0.184063,5e-4 -0.3665485,0.01225 -0.546215,0.0345 -1.5571385,0.192785 -2.9077695,1.17777 -3.3378779,2.59338 l -1.9913827,6.556045 c 0.025914,0.003 0.052175,0.0052 0.07793,0.0084 0.1627342,0.0288 0.3215746,0.07268 0.4866835,0.09007 0.2465608,0.02795 0.4947774,0.04 0.7433261,0.04455 0.2579189,-0.0188 0.5152002,-0.0439 0.7705138,-0.08155 0.3043209,-0.05116 0.601769,-0.128115 0.9023509,-0.193385 0.254382,-0.05963 0.511493,-0.1127 0.760787,-0.187425 0.214088,-0.07053 0.4279465,-0.142195 0.646177,-0.202525 0.294418,-0.08651 0.5899015,-0.17071 0.8759835,-0.27729 0.284166,-0.0954 0.5767815,-0.211505 0.883952,-0.197695 0.04388,0.002 0.088045,0.0067 0.13254,0.0144 0.1311895,0.02725 0.2596045,0.06375 0.3944565,0.07631 0.207023,0.03145 0.414895,0.0597 0.620044,0.09962 0.265994,0.05879 0.527372,0.13238 0.778717,0.229435 0.128784,0.04555 0.261679,0.09566 0.398909,0.115845 v -8.5e-5 c 0.008,10e-4 0.0155,0.0025 0.02344,0.004 l 0.7411,-2.43984 11.607043,1.047025 c 1.872172,0.168885 3.546176,-1.024355 3.738897,-2.66506 0.192719,-1.640705 -1.16889,-3.10765 -3.041156,-3.276535 L 9.9752038,26.321096 c -0.04477,-0.004 -0.089262,-0.0066 -0.133712,-0.0091 -0.1862805,-0.02215 -0.3719965,-0.03265 -0.556059,-0.03205 z M 2.7031964,40.386685 c 8.55e-4,0.003 0.012503,0.02945 0.020508,0.04785 -5.15e-4,-0.0054 -0.00161,-0.01095 -0.00188,-0.01635 -0.012774,-0.0226 -0.020058,-0.0363 -0.018633,-0.03155 z m 0.2927366,0.70154 c 0.0047,0.01335 0.00891,0.0267 0.013594,0.04005 0.00796,-0.0075 0.020997,-0.02005 0.029297,-0.02785 -0.014342,-0.004 -0.02858,-0.0082 -0.042891,-0.0122 z m 14.349721,10.215036 c -0.01952,-4.95e-4 -0.07104,0.02765 -0.05215,0.0233 0.0118,-0.0025 0.04888,-0.01515 0.07289,-0.0225 -0.0069,-1.65e-4 -0.01393,-5e-4 -0.02074,-10e-4 z m -0.114845,1.069105 0.0042,0.0463 c 0.02004,-0.01355 0.04281,-0.0236 0.0641,-0.03565 -0.02278,-0.003 -0.04554,-0.0058 -0.06832,-0.0107 z m 6.584466,0.261884 c -0.02775,0.0363 -0.05504,0.07247 -0.08789,0.10968 -0.03654,0.0317 -0.0747,0.06075 -0.114142,0.08771 l 0.217502,-0.0234 z m -2.432715,0.408745 c -0.04151,0.01415 -0.08307,0.02825 -0.12457,0.0424 l 0.161603,-0.01735 c -0.01225,-0.0084 -0.0248,-0.01655 -0.03703,-0.02505 z m -3.421198,0.2588 c -0.02072,0.01305 -0.04024,0.02635 -0.0566,0.03995 -0.01288,0.0107 0.03275,-0.01205 0.0491,-0.01805 0.0032,-0.0095 0.0045,-0.01275 0.0075,-0.0219 z" />
<path
   id="path10"
   style="fill:#ccf7f5;stroke-width:0.0877633"
   d="m 42.390927,30.920436 c -0.484873,0 -0.947846,0.176175 -1.278877,0.48649 -1.095558,1.026985 -2.580596,1.592565 -4.181283,1.592565 -1.600683,0 -3.085651,-0.56558 -4.1814,-1.592565 -0.331027,-0.31023 -0.794094,-0.486385 -1.278876,-0.486385 -0.484779,0 -0.947869,0.17607 -1.278995,0.486385 -1.095651,1.026905 -2.580478,1.592565 -4.181165,1.592565 -1.600683,0 -3.085651,-0.56558 -4.1814,-1.592565 -0.331215,-0.31023 -0.794212,-0.486385 -1.278994,-0.486385 -0.484779,0 -0.947845,0.176175 -1.278877,0.486485 -1.095561,1.026905 -2.5806,1.592565 -4.181283,1.592565 -1.600683,0 -3.085534,-0.565575 -4.181282,-1.592565 -0.331219,-0.31023 -0.794214,-0.486385 -1.2789947,-0.486385 -0.484874,0 -0.9478465,0.176075 -1.278877,0.486385 -1.095748,1.026905 -2.5807157,1.592565 -4.1813999,1.592565 -0.9669354,0 -1.7507949,0.686845 -1.7507949,1.534235 0,0.34288 0.1300026,0.65836 0.3468778,0.91382 0.2376692,-0.02975 0.483878,-0.0052 0.7225837,0.02465 0.1627346,0.0288 0.3215742,0.07267 0.4866835,0.09007 0.2465612,0.02795 0.494777,0.04 0.7433261,0.04455 0.2579194,-0.0188 0.5151998,-0.0439 0.7705138,-0.08154 0.3043217,-0.05116 0.6017685,-0.128115 0.9023509,-0.193385 0.2543825,-0.05963 0.5114925,-0.1127 0.760787,-0.187425 0.2140885,-0.07053 0.427946,-0.142195 0.646177,-0.202525 0.2944185,-0.08651 0.589901,-0.17071 0.8759835,-0.27729 0.2841665,-0.0954 0.5767805,-0.211505 0.883952,-0.197695 0.04388,0.002 0.088045,0.0066 0.13254,0.0144 0.13119,0.02725 0.259604,0.06375 0.3944562,0.07631 0.207023,0.03145 0.414895,0.0597 0.620044,0.09962 0.265994,0.05879 0.527371,0.13238 0.778717,0.229435 0.128785,0.04555 0.261679,0.09566 0.398909,0.115845 v -8.5e-5 c 0.575479,0.08464 0.9119,0.31017 0.977234,0.53476 0.03982,0.01685 0.08006,0.0329 0.120002,0.0495 0.130326,0.06172 0.270749,0.09897 0.410041,0.141005 0.223177,0.05378 0.448426,0.09989 0.675475,0.13916 0.313265,0.05486 0.629624,0.0934 0.946648,0.12714 0.13381,0.0117 0.267408,0.025 0.401018,0.0383 0.150493,-0.01645 0.300663,-0.0346 0.449653,-0.05936 0.248999,-0.06447 0.491241,-0.147265 0.734419,-0.226555 0.23104,-0.0851 0.464179,-0.16587 0.698209,-0.244425 0.194278,-0.07612 0.393954,-0.14049 0.596958,-0.19616 0.14899,-0.03865 0.2913,-0.0941 0.434417,-0.14655 0.120375,-0.04555 0.234482,-0.10201 0.347932,-0.159185 0.123656,-0.07219 0.255835,-0.131875 0.38473,-0.196365 0.120463,-0.06553 0.246969,-0.1217 0.37137,-0.18106 0.03909,-0.02495 0.01358,-0.0093 0.07793,-0.0452 0.227691,-0.127145 0.437655,-0.18234 0.615825,-0.184965 0.135015,-0.002 0.249205,0.02815 0.340784,0.07867 0.101097,0.0103 0.210946,0.03215 0.329065,0.06799 0.190406,0.05777 0.374272,0.129025 0.550785,0.21392 0.197627,0.10181 0.377297,0.225945 0.553716,0.35339 0.134275,0.09074 0.273512,0.1754 0.412268,0.260755 0.06253,0.03195 0.07698,0.03935 0.09609,0.0495 0.195294,0.07243 0.392648,0.140725 0.59309,0.2016 0.130279,0.025 0.260931,0.04855 0.391878,0.07025 0.371366,0.07116 0.749907,0.10664 1.126533,0.14881 0.524724,0.06174 1.052573,0.0964 1.580051,0.13382 0.245289,0.0185 0.49029,0.03925 0.735122,0.06141 1.676157,-0.133295 3.283995,-0.667085 4.636326,-1.535875 1.572749,1.010475 3.490288,1.57131 5.460159,1.57131 1.969684,0 3.887391,-0.560915 5.460042,-1.57131 1.572843,1.01031 3.490501,1.57131 5.460278,1.57131 0.966936,0 1.750794,-0.68697 1.751732,-1.53444 0,-0.847385 -0.783859,-1.534335 -1.750794,-1.534335 -1.600687,0 -3.085653,-0.565575 -4.181401,-1.592565 -0.331028,-0.31023 -0.794306,-0.486385 -1.278994,-0.486385 z" />
<path
   id="path12"
   style="fill:#74d6d0;stroke-width:0.0877633"
   d="m 42.390927,30.920436 c -0.484873,0 -0.947846,0.176175 -1.278877,0.48649 -1.095558,1.026985 -2.580596,1.592565 -4.181283,1.592565 -1.600683,0 -3.085651,-0.56558 -4.1814,-1.592565 -0.331027,-0.31023 -0.794094,-0.486385 -1.278876,-0.486385 -0.484779,0 -0.947869,0.17607 -1.278995,0.486385 -1.095651,1.026905 -2.580478,1.592565 -4.181165,1.592565 -1.600683,0 -3.085651,-0.56558 -4.1814,-1.592565 -0.331215,-0.31023 -0.794212,-0.486385 -1.278994,-0.486385 -0.484779,0 -0.947845,0.176175 -1.278877,0.486485 -1.095561,1.026905 -2.5806,1.592565 -4.181283,1.592565 -1.600683,0 -3.085534,-0.565575 -4.181282,-1.592565 -0.331219,-0.31023 -0.794214,-0.486385 -1.2789947,-0.486385 -0.484874,0 -0.9478465,0.176075 -1.278877,0.486385 -1.095748,1.026905 -2.5807157,1.592565 -4.1813999,1.592565 -0.9669354,0 -1.7507949,0.686845 -1.7507949,1.534235 0,0.34288 0.1300026,0.65836 0.3468778,0.91382 0.2376692,-0.02975 0.483878,-0.0052 0.7225837,0.02465 0.1627346,0.0288 0.3215742,0.07267 0.4866835,0.09007 0.2465612,0.02795 0.494777,0.04 0.7433261,0.04455 0.2579194,-0.0188 0.5151998,-0.0439 0.7705138,-0.08154 0.3043217,-0.05116 0.6017685,-0.128115 0.9023509,-0.193385 0.2543825,-0.05963 0.5114925,-0.1127 0.760787,-0.187425 0.2140885,-0.07053 0.427946,-0.142195 0.646177,-0.202525 0.2944185,-0.08651 0.589901,-0.17071 0.8759835,-0.27729 0.2841665,-0.0954 0.5767805,-0.211505 0.883952,-0.197695 0.04388,0.002 0.088045,0.0066 0.13254,0.0144 0.13119,0.02725 0.259604,0.06375 0.3944562,0.07631 0.207023,0.03145 0.414895,0.0597 0.620044,0.09962 0.265994,0.05879 0.527371,0.13238 0.778717,0.229435 0.128785,0.04555 0.261679,0.09566 0.398909,0.115845 v -8.5e-5 c 0.575479,0.08464 0.9119,0.31017 0.977234,0.53476 0.03982,0.01685 0.08006,0.0329 0.120002,0.0495 0.130326,0.06172 0.270749,0.09897 0.410041,0.141005 0.223177,0.05378 0.448426,0.09989 0.675475,0.13916 0.313265,0.05486 0.629624,0.0934 0.946648,0.12714 0.13381,0.0117 0.267408,0.025 0.401018,0.0383 0.150493,-0.01645 0.300663,-0.0346 0.449653,-0.05936 0.248999,-0.06447 0.491241,-0.147265 0.734419,-0.226555 0.23104,-0.0851 0.464179,-0.16587 0.698209,-0.244425 0.194278,-0.07612 0.393954,-0.14049 0.596958,-0.19616 0.14899,-0.03865 0.2913,-0.0941 0.434417,-0.14655 0.120375,-0.04555 0.234482,-0.10201 0.347932,-0.159185 0.123656,-0.07219 0.255835,-0.131875 0.38473,-0.196365 0.120463,-0.06553 0.246969,-0.1217 0.37137,-0.18106 0.03909,-0.02495 0.01358,-0.0093 0.07793,-0.0452 0.227691,-0.127145 0.437655,-0.18234 0.615825,-0.184965 0.135015,-0.002 0.249205,0.02815 0.340784,0.07867 0.101097,0.0103 0.210946,0.03215 0.329065,0.06799 0.190406,0.05777 0.374272,0.129025 0.550785,0.21392 0.197627,0.10181 0.377297,0.225945 0.553716,0.35339 0.134275,0.09074 0.273512,0.1754 0.412268,0.260755 0.06253,0.03195 0.07698,0.03935 0.09609,0.0495 0.195294,0.07243 0.392648,0.140725 0.59309,0.2016 0.130279,0.025 0.260931,0.04855 0.391878,0.07025 0.371366,0.07116 0.749907,0.10664 1.126533,0.14881 0.524724,0.06174 1.052573,0.0964 1.580051,0.13382 0.245289,0.0185 0.49029,0.03925 0.735122,0.06141 1.676157,-0.133295 3.283995,-0.667085 4.636326,-1.535875 1.572749,1.010475 3.490288,1.57131 5.460159,1.57131 1.969684,0 3.887391,-0.560915 5.460042,-1.57131 1.572843,1.01031 3.490501,1.57131 5.460278,1.57131 0.966936,0 1.750794,-0.68697 1.751732,-1.53444 0,-0.847385 -0.783859,-1.534335 -1.750794,-1.534335 -1.600687,0 -3.085653,-0.565575 -4.181401,-1.592565 -0.331028,-0.31023 -0.794306,-0.486385 -1.278994,-0.486385 z" />
<path
   id="path14"
   style="fill:#ccf7f5;stroke-width:0.0877633"
   d="m 20.549468,30.920541 c -0.484778,0 -0.947962,0.176175 -1.278994,0.486485 -1.095655,1.02699 -2.5806,1.592565 -4.181283,1.592565 -1.600683,0 -3.085534,-0.565575 -4.181282,-1.592565 -0.331031,-0.31031 -0.794214,-0.486385 -1.2789947,-0.486385 -0.48478,0 -0.947659,0.176155 -1.278877,0.486385 -1.0957475,1.02699 -2.5807156,1.592565 -4.1813998,1.592565 -0.9668417,0 -1.7506777,0.68695 -1.7506777,1.534335 0,0.34286 0.1299107,0.65837 0.3467605,0.913825 0.2378519,-0.02985 0.4842661,-0.0053 0.7231697,0.02455 0.1627346,0.0288 0.3215742,0.07267 0.4866835,0.09006 0.2465612,0.02795 0.494777,0.04 0.7433261,0.04455 0.2579194,-0.0188 0.5151998,-0.0439 0.7705138,-0.08154 0.3043217,-0.05116 0.6017685,-0.128115 0.9023509,-0.193385 0.2543825,-0.05963 0.5114925,-0.1127 0.760787,-0.187425 0.2140885,-0.07053 0.427946,-0.142195 0.646177,-0.202525 0.2944185,-0.08651 0.589901,-0.17071 0.8759835,-0.27729 0.2841665,-0.0954 0.5767805,-0.211505 0.883952,-0.197695 0.04388,0.002 0.088045,0.0067 0.13254,0.0144 0.13119,0.02725 0.259604,0.06374 0.3944562,0.07631 0.207023,0.03145 0.414895,0.05969 0.620044,0.09962 0.265994,0.05879 0.527371,0.13238 0.778717,0.229435 0.128785,0.04555 0.261679,0.09566 0.398909,0.115845 v -8.5e-5 c 0.574517,0.0845 0.910869,0.30941 0.977,0.53363 0.04005,0.01695 0.08007,0.0339 0.120236,0.05063 0.130326,0.06173 0.270749,0.09898 0.410041,0.141005 0.223177,0.05378 0.448426,0.09989 0.675475,0.13916 0.313265,0.05485 0.629624,0.0934 0.946648,0.12714 0.13381,0.0117 0.267408,0.025 0.401018,0.0383 0.150493,-0.01645 0.300663,-0.0346 0.449653,-0.05936 0.248999,-0.06447 0.491241,-0.147265 0.734419,-0.226555 0.23104,-0.0851 0.464179,-0.16587 0.698209,-0.244425 0.194278,-0.07613 0.393954,-0.14049 0.596958,-0.19616 0.14899,-0.03865 0.2913,-0.0941 0.434417,-0.14655 0.120375,-0.04555 0.234482,-0.10201 0.347932,-0.159185 0.123656,-0.07218 0.255835,-0.131875 0.38473,-0.196365 0.120463,-0.06553 0.246969,-0.1217 0.37137,-0.18106 0.03909,-0.02495 0.01358,-0.0093 0.07793,-0.0452 0.227691,-0.127145 0.437655,-0.18234 0.615825,-0.184965 0.135013,-0.002 0.24921,0.02815 0.340784,0.07867 0.101097,0.0103 0.210946,0.03215 0.329065,0.06799 0.190406,0.05777 0.374272,0.129025 0.550785,0.21392 0.197627,0.10181 0.377297,0.225945 0.553716,0.35339 0.134275,0.09074 0.273512,0.1754 0.412268,0.260755 0.07587,0.03875 0.0868,0.04445 0.120001,0.06224 0.176532,0.06518 0.354846,0.12673 0.535668,0.182295 0.141333,0.0276 0.283205,0.05324 0.425394,0.07682 0.371366,0.07116 0.749907,0.10664 1.126533,0.14881 0.340256,0.04005 0.68195,0.06775 1.023874,0.09315 l 6.5e-4,-2.94728 c -1.421058,-0.099 -2.726327,-0.6501 -3.714638,-1.57644 -0.331032,-0.310315 -0.794095,-0.486385 -1.278877,-0.486385 z" />
<path
   style="fill:#f2f2f2;stroke-width:0.053052"
   d="m 43.901163,31.561931 c -0.249353,-0.207005 -0.580381,-0.43296 -0.735619,-0.502125 -0.591648,-0.2636 -1.352846,-0.18855 -1.894703,0.18681 l -0.288237,0.199665 v -1.242765 -1.24277 H 38.149052 35.3155 v -1.514765 -1.514765 h 2.833552 2.833552 V 24.416447 22.901682 H 38.149052 35.3155 v -1.51477 -1.514765 h 2.833552 2.833552 v -1.76309 -1.76309 H 38.149052 35.3155 v -1.514765 -1.51477 h 2.829585 2.829586 l 0.02298,-2.644635 c 0.02184,-2.5137343 0.02923,-2.6691343 0.149318,-3.1396243 0.130062,-0.5095649 0.431431,-1.2716449 0.658597,-1.6654148 0.475754,-0.8246699 1.486529,-1.8604448 2.342781,-2.4007298 1.277235,-0.8059149 2.852898,-1.2738849 4.290577,-1.2742849 0.684899,-2.45e-4 0.995925,0.08008 1.340632,0.34599 0.942815,0.7272949 0.75154,2.0102848 -0.369507,2.4785048 -0.279022,0.116535 -0.459955,0.15328 -0.874457,0.17759 -1.115998,0.065455 -1.981726,0.382995 -2.733155,1.0024848 -0.701319,0.578185 -1.08561,1.1716999 -1.27275,1.9656849 -0.08092,0.3433249 -0.09014,1.5793849 -0.09014,12.0805393 0,6.433944 -0.01912,11.697559 -0.0425,11.696924 -0.02338,-5e-4 -0.246519,-0.170525 -0.495871,-0.37753 z"
   id="path377" /><path
   style="fill:#e6e6e6;stroke-width:0.053052"
   d="m 27.178595,32.624576 c 0.916547,-0.918215 1.103335,-2.23509 0.475546,-3.35265 -0.201616,-0.358905 -0.767913,-0.92037 -1.115329,-1.10581 l -0.232613,-0.12416 0.01548,-10.057059 0.01547,-10.0570643 0.120298,-0.422145 c 0.257976,-0.9052899 0.635725,-1.6746548 1.158637,-2.3598097 0.389117,-0.50985 1.279847,-1.3172749 1.850198,-1.6771599 1.297883,-0.8189499 2.857186,-1.2764099 4.352551,-1.2769299 0.525147,-1.65e-4 0.600256,0.01225 0.920089,0.15231 1.049582,0.45964 1.271879,1.6683999 0.440773,2.3967548 -0.344086,0.30154 -0.58448,0.378945 -1.415068,0.45562 -1.686262,0.15567 -2.829753,0.8045949 -3.547105,2.0129647 -0.436783,0.73575 -0.454936,0.88169 -0.455387,3.6610193 l -4.2e-4,2.445975 h 2.748546 2.748545 v 1.51477 1.514765 h -2.748545 -2.748546 v 1.76309 1.76309 h 2.748546 2.748545 v 1.514765 1.51477 h -2.748545 -2.748546 v 1.514765 1.514769 h 2.748546 2.748545 v 1.514765 1.514765 h -2.748545 -2.748546 v 1.38988 1.38988 l -0.325859,0.225265 c -0.415658,0.28734 -1.336512,0.68704 -1.883173,0.81739 -0.649451,0.15487 -0.675834,0.143685 -0.374111,-0.158585 z"
   id="path448" /><path
   style="fill:#cccccc;stroke-width:0.053052"
   d="m 43.872828,31.502591 c -0.623125,-0.479675 -0.921345,-0.603805 -1.452155,-0.60444 -0.480792,-5e-4 -0.786177,0.08525 -1.160779,0.326235 l -0.27729,0.178385 v -1.221015 -1.22101 H 38.149052 35.3155 v -1.514765 -1.514765 h 2.833552 2.833552 V 24.416447 22.901682 H 38.149052 35.3155 v -1.51477 -1.514765 h 2.833552 2.833552 v -1.76309 -1.76309 H 38.149052 35.3155 v -1.514765 -1.51477 h 2.824704 2.824704 l 0.03719,-0.752865 c 0.02045,-0.414075 0.03737,-1.514765 0.03761,-2.445974 2.4e-4,-0.9312104 0.02419,-1.8741453 0.05322,-2.0954053 0.09864,-0.751665 0.524125,-1.8429949 0.967969,-2.4827297 0.329129,-0.47439 1.005686,-1.19615 1.490818,-1.5904199 1.289911,-1.04833 3.127857,-1.7057699 4.790734,-1.7136699 0.706946,-0.0035 0.978645,0.04905 1.294644,0.24964 0.668898,0.4246399 0.887897,1.1921699 0.522839,1.8323948 -0.300622,0.527215 -0.775245,0.76994 -1.673813,0.855995 -0.308721,0.02955 -0.712848,0.087645 -0.898059,0.129065 -1.399617,0.31303 -2.604471,1.3418198 -3.007626,2.5681197 -0.05251,0.15972 -0.08461,0.355275 -0.07133,0.434565 0.01328,0.07929 0.003,0.1441649 -0.02271,0.1441649 -0.02577,0 -0.05059,2.4081094 -0.05515,5.3513494 -0.0045,2.94324 -0.02369,8.21366 -0.0425,11.712044 l -0.03421,6.360695 z"
   id="path519" /></svg>
