<?xml version="1.0" encoding="UTF-8" standalone="no"?>
<!-- Uploaded to: SVG Repo, www.svgrepo.com, Generator: SVG Repo Mixer Tools -->

<svg
   height="76.505302"
   width="65.171165"
   version="1.1"
   id="Capa_1"
   viewBox="0 0 41.70979 48.963682"
   xml:space="preserve"
   sodipodi:docname="pool-chilly.svg"
   inkscape:version="1.2 (dc2aedaf03, 2022-05-15)"
   xmlns:inkscape="http://www.inkscape.org/namespaces/inkscape"
   xmlns:sodipodi="http://sodipodi.sourceforge.net/DTD/sodipodi-0.dtd"
   xmlns="http://www.w3.org/2000/svg"
   xmlns:svg="http://www.w3.org/2000/svg"><defs
   id="defs19" /><sodipodi:namedview
   id="namedview17"
   pagecolor="#ffffff"
   bordercolor="#000000"
   borderopacity="0.25"
   inkscape:showpageshadow="2"
   inkscape:pageopacity="0.0"
   inkscape:pagecheckerboard="0"
   inkscape:deskcolor="#d1d1d1"
   showgrid="false"
   inkscape:zoom="1.05875"
   inkscape:cx="301.77096"
   inkscape:cy="125.61983"
   inkscape:window-width="1920"
   inkscape:window-height="1027"
   inkscape:window-x="-8"
   inkscape:window-y="-8"
   inkscape:window-maximized="1"
   inkscape:current-layer="Capa_1" />
<path
   style="fill:#f0a479;stroke-width:0.0700245"
   d="M 16.363599,9.7203124 C 15.276721,9.1714365 14.750095,7.6204541 15.187284,6.2561949 L 15.613159,4.927397 C 16.050473,3.5630586 17.285913,2.901994 18.37279,3.4507891 l 1.058565,0.5345944 c 1.086939,0.5489523 1.613628,2.099779 1.176377,3.4641168 L 20.181856,8.7783762 C 19.744605,10.142637 18.50904,10.803702 17.422163,10.254906 Z"
   id="path2" />
<path
   style="fill:#707070;stroke-width:0.0700245"
   d="m 33.250958,6.0633172 c -2.832755,0 -5.137448,2.8930418 -5.137448,6.4490288 v 4.186531 h -7.459389 v -4.186531 c 0,-1.9402 1.25744,-3.5187211 2.803068,-3.5187211 0.644626,0 1.16719,-0.6559671 1.16719,-1.4651549 0,-0.8091878 -0.522564,-1.4651528 -1.16719,-1.4651528 -2.832756,0 -5.137448,2.8930418 -5.137448,6.4490288 v 23.346265 c 0,0.809192 0.522564,1.465156 1.16719,1.465156 0.644626,0 1.16719,-0.655964 1.16719,-1.465156 v -4.160406 h 7.459389 v 3.993061 c 0,0.809188 0.522563,1.465157 1.16719,1.465157 0.644627,0 1.16719,-0.655969 1.16719,-1.465157 V 12.512267 c 0,-1.940201 1.25744,-3.5187212 2.803068,-3.5187212 0.644626,0 1.16719,-0.6559636 1.16719,-1.4651549 6.2e-5,-0.8091087 -0.522564,-1.4650737 -1.16719,-1.4650737 z M 28.113447,19.629184 v 3.348788 h -7.459389 v -3.348788 z m -7.459389,9.138635 V 25.90828 h 7.459389 v 2.859539 z"
   id="path4" />
<path
   style="fill:#575757;stroke-width:0.0700245"
   d="m 33.250958,6.0633172 c -2.832755,0 -5.137448,2.8930418 -5.137448,6.4489498 v 4.186535 h -3.77907 v 2.930306 h 3.77907 v 3.348785 h -3.77907 v 2.930308 h 3.77907 v 2.859539 h -3.77907 v 2.930306 h 3.77907 v 3.993066 c 0,0.809187 0.522563,1.465153 1.16719,1.465153 0.644627,0 1.16719,-0.655966 1.16719,-1.465153 V 12.512267 c 0,-1.940201 1.25744,-3.5186421 2.803068,-3.5186421 0.644626,0 1.16719,-0.6559671 1.16719,-1.4651549 0,-0.8091878 -0.522564,-1.4651528 -1.16719,-1.4651528 z"
   id="path6" />
<path
   style="fill:#f0a479;stroke-width:0.0700245"
   d="m 23.778377,37.014826 0.369876,-10.345907 c 0.01188,-0.333276 -0.02437,-0.655414 -0.100688,-0.955583 -0.22175,-0.882623 -0.794626,-1.602608 -1.563003,-1.838365 l -5.946386,-1.823539 1.718815,-5.363207 7.583016,2.177529 c 1.223127,0.351243 2.441566,-0.608737 2.72138,-2.144107 0.279813,-1.535369 -0.484939,-3.064699 -1.708129,-3.415943 l -9.784269,-2.809723 c -0.02925,-0.0084 -0.0585,-0.01547 -0.08769,-0.02228 -1.292814,-0.42703 -2.666942,0.409695 -3.178943,2.006967 l -3.034256,9.46768 c -0.554813,1.731431 0.1135,3.699562 1.492691,4.39593 0.165125,0.08332 0.333062,0.144203 0.501563,0.184608 l 6.949201,2.13124 -0.298626,8.354706"
   id="path8" />
<path
   style="fill:#ccf7f5;stroke-width:0.0700245"
   d="m 32.706269,38.45784 c -1.31319,0 -2.59163,-0.535693 -3.640194,-1.500458 -1.04844,0.964844 -2.326942,1.500458 -3.64007,1.500458 -1.313252,0 -2.591568,-0.535538 -3.64007,-1.500458 -1.048502,0.964844 -2.326942,1.500458 -3.640069,1.500458 -1.313128,0 -2.59163,-0.535693 -3.640195,-1.500458 -1.048502,0.964844 -2.326942,1.500458 -3.64007,1.500458 -1.3130644,0 -2.5916297,-0.535693 -3.6400691,-1.500458 -1.0485023,0.964844 -2.3270047,1.500458 -3.6400698,1.500458 -0.6446262,0 -1.1671898,-0.655968 -1.1671898,-1.465155 0,-0.809189 0.5225636,-1.465154 1.1671898,-1.465154 1.0671271,0 2.0570665,-0.540086 2.7875682,-1.520701 0.2206876,-0.296323 0.529376,-0.464455 0.8526266,-0.464455 0.3231884,0 0.6318137,0.168207 0.852627,0.464455 0.7305014,0.980694 1.7204407,1.520701 2.7875671,1.520701 1.067128,0 2.05713,-0.540086 2.787506,-1.520701 0.220688,-0.296323 0.529438,-0.464534 0.852627,-0.464534 0.323188,0 0.631813,0.168211 0.852626,0.464458 0.730502,0.980691 1.720441,1.520698 2.787568,1.520698 1.067127,0 2.057067,-0.540086 2.787506,-1.520698 0.22075,-0.296326 0.529438,-0.464537 0.852627,-0.464537 0.323188,0 0.631938,0.168211 0.852626,0.464458 0.730502,0.980691 1.720441,1.520777 2.787568,1.520777 1.067127,0 2.057129,-0.540086 2.787506,-1.520777 0.220687,-0.296326 0.529376,-0.464534 0.852626,-0.464534 0.323126,0 0.631939,0.168208 0.852627,0.464455 0.730501,0.980691 1.720503,1.520777 2.787631,1.520777 0.644626,0 1.167189,0.655965 1.167189,1.465157 -6.33e-4,0.809267 -0.523189,1.46531 -1.167815,1.46531 z"
   id="path10" />
<path
   style="fill:#74d6d0;stroke-width:0.0700245"
   d="m 32.706269,38.45784 c -1.31319,0 -2.59163,-0.535693 -3.640194,-1.500458 -1.04844,0.964844 -2.326942,1.500458 -3.64007,1.500458 -1.313252,0 -2.591568,-0.535538 -3.64007,-1.500458 -1.048502,0.964844 -2.326942,1.500458 -3.640069,1.500458 -1.313128,0 -2.59163,-0.535693 -3.640195,-1.500458 -1.048502,0.964844 -2.326942,1.500458 -3.64007,1.500458 -1.3130644,0 -2.5916297,-0.535693 -3.6400691,-1.500458 -1.0485023,0.964844 -2.3270047,1.500458 -3.6400698,1.500458 -0.6446262,0 -1.1671898,-0.655968 -1.1671898,-1.465155 0,-0.809189 0.5225636,-1.465154 1.1671898,-1.465154 1.0671271,0 2.0570665,-0.540086 2.7875682,-1.520701 0.2206876,-0.296323 0.529376,-0.464455 0.8526266,-0.464455 0.3231884,0 0.6318137,0.168207 0.852627,0.464455 0.7305014,0.980694 1.7204407,1.520701 2.7875671,1.520701 1.067128,0 2.05713,-0.540086 2.787506,-1.520701 0.220688,-0.296323 0.529438,-0.464534 0.852627,-0.464534 0.323188,0 0.631813,0.168211 0.852626,0.464458 0.730502,0.980691 1.720441,1.520698 2.787568,1.520698 1.067127,0 2.057067,-0.540086 2.787506,-1.520698 0.22075,-0.296326 0.529438,-0.464537 0.852627,-0.464537 0.323188,0 0.631938,0.168211 0.852626,0.464458 0.730502,0.980691 1.720441,1.520777 2.787568,1.520777 1.067127,0 2.057129,-0.540086 2.787506,-1.520777 0.220687,-0.296326 0.529376,-0.464534 0.852626,-0.464534 0.323126,0 0.631939,0.168208 0.852627,0.464455 0.730501,0.980691 1.720503,1.520777 2.787631,1.520777 0.644626,0 1.167189,0.655965 1.167189,1.465157 -6.33e-4,0.809267 -0.523189,1.46531 -1.167815,1.46531 z"
   id="path12" />
<path
   style="fill:#ccf7f5;stroke-width:0.0700245"
   d="m 17.834615,35.512076 c -0.947377,-0.09454 -1.817504,-0.62074 -2.47638,-1.505322 -0.220688,-0.296326 -0.529438,-0.464458 -0.852626,-0.464458 -0.323188,0 -0.631939,0.168211 -0.852627,0.464534 -0.730439,0.980694 -1.720378,1.52078 -2.787505,1.52078 -1.0671277,0 -2.0570671,-0.540086 -2.7875684,-1.52078 -0.220688,-0.296323 -0.5294387,-0.464455 -0.8526267,-0.464455 -0.3231883,0 -0.631814,0.168207 -0.8526266,0.464455 -0.7305017,0.980694 -1.7204411,1.52078 -2.7875682,1.52078 -0.6445638,0 -1.1671273,0.655965 -1.1671273,1.465154 0,0.809187 0.5225635,1.465155 1.1671898,1.465155 1.3130651,0 2.59163,-0.535693 3.6400697,-1.500458 1.048502,0.964841 2.3270046,1.500458 3.6400697,1.500458 1.31319,0 2.59163,-0.535693 3.64007,-1.500458 0.965502,0.888349 2.125879,1.412901 3.328818,1.490493 z"
   id="path14" />
<path
   style="fill:#cccccc;stroke-width:0.0423293"
   d="m 30.05745,34.13709 c -0.175025,-0.20725 -0.396042,-0.422881 -0.491149,-0.47918 -0.390773,-0.231317 -0.896,-0.151983 -1.24642,0.19572 l -0.192158,0.190665 v -1.186739 -1.186738 h -1.889034 -1.889035 v -1.446476 -1.446479 h 1.889035 1.889034 V 27.331387 25.884911 H 26.238689 24.349654 V 24.438436 22.99196 h 1.889035 1.889034 V 21.308355 19.62475 h -1.889034 -1.889035 v -0.569105 c 0,-0.372715 0.01395,-0.569106 0.04044,-0.569106 0.02224,0 0.375018,0.09753 0.783949,0.216727 0.876564,0.25551 1.232444,0.297478 1.627804,0.19195 0.62955,-0.168028 1.1113,-0.584058 1.476977,-1.27548 0.227469,-0.430104 0.308075,-0.776924 0.330199,-1.42074 0.01735,-0.504828 0.01003,-0.59312 -0.07879,-0.950737 -0.05385,-0.216827 -0.168347,-0.531014 -0.254428,-0.698197 l -0.15651,-0.303971 0.01909,-1.282552 c 0.01605,-1.077877 0.03219,-1.357985 0.101117,-1.755229 0.08385,-0.483227 0.283111,-1.2085907 0.436861,-1.590332 0.31717,-0.7874893 0.99102,-1.7765683 1.561854,-2.2924958 0.85149,-0.7695854 1.901932,-1.2164545 2.860385,-1.2168357 0.456599,-2.355e-4 0.66395,0.076468 0.893754,0.3303894 0.628544,0.6945067 0.501027,1.9196559 -0.246337,2.3667647 -0.186015,0.1112815 -0.306637,0.1463715 -0.582972,0.1695849 -0.743999,0.062508 -1.32115,0.365726 -1.822103,0.9572922 -0.467546,0.5521143 -0.723741,1.1188723 -0.848501,1.8770643 -0.05395,0.327844 -0.06009,1.508179 -0.06009,11.535909 0,6.143881 -0.01275,11.170145 -0.02834,11.169475 -0.01558,-6.88e-4 -0.171537,-0.170789 -0.346561,-0.378036 z"
   id="path881" /><path
   style="fill:#e6e6e6;stroke-width:0.0423293"
   d="m 24.085189,25.795554 c 0,-0.04915 -0.0707,-0.267898 -0.157106,-0.486114 -0.117224,-0.296034 -0.225118,-0.481024 -0.425032,-0.72873 -0.41914,-0.519337 -0.539858,-0.578187 -2.294197,-1.118397 -0.838813,-0.258297 -1.822639,-0.561702 -2.186278,-0.674235 l -0.661163,-0.204607 -0.0097,-2.929149 c -0.0092,-2.775653 -0.0063,-2.927828 0.05667,-2.904009 0.08412,0.03183 5.856841,1.688802 5.883658,1.688802 0.01093,0 0.01987,0.266767 0.01987,0.592818 v 0.592817 h -1.832366 -1.832364 v 1.683605 1.683605 h 1.832364 1.832364 v 1.446476 1.446475 h -0.113342 c -0.08583,0 -0.113343,-0.02169 -0.113344,-0.08936 z"
   id="path883" /><path
   style="fill:#e6e6e6;stroke-width:0.0423293"
   d="m 18.342523,31.886205 v -3.621609 l 0.234762,0.06874 c 0.419567,0.122866 1.093058,0.340704 1.1045,0.357249 0.01167,0.01688 -0.212084,6.50388 -0.22511,6.526251 -0.01837,0.03156 -0.737286,0.238146 -0.915803,0.263168 l -0.198349,0.02781 z"
   id="path885" /><path
   style="fill:#e6e6e6;stroke-width:0.0423293"
   d="m 19.608177,11.205048 c -0.561044,-0.1652 -1.039572,-0.307096 -1.063398,-0.315329 -0.05405,-0.01867 0.149252,-0.784266 0.32511,-1.2243138 0.854289,-2.1376777 2.641329,-3.5557993 4.481988,-3.5567195 0.350098,-1.567e-4 0.40017,0.011698 0.613392,0.1454454 0.699721,0.4389158 0.847919,1.5931842 0.293848,2.2887007 -0.22939,0.2879491 -0.389652,0.3618581 -0.943378,0.4350803 -0.899962,0.1190028 -1.522007,0.5066462 -2.016444,1.2565989 -0.192908,0.292596 -0.538807,1.07206 -0.538807,1.21417 0,0.09395 -0.02061,0.08959 -1.152311,-0.243633 z"
   id="path887" /><path
   style="fill:#e6e6e6;stroke-width:0.0423293"
   d="m 23.997655,31.398121 c 0.02308,-0.536236 0.08753,-2.373916 0.08753,-2.495916 0,-0.106539 0.01623,-0.124342 0.113342,-0.124342 h 0.113342 v 1.446479 1.446476 h -0.162978 -0.162979 z"
   id="path889" /></svg>
