<?xml version="1.0" encoding="UTF-8" standalone="no"?>
<!-- Uploaded to: SVG Repo, www.svgrepo.com, Generator: SVG Repo Mixer Tools -->

<svg
   height="180.40141"
   width="154.89961"
   version="1.1"
   id="Capa_1"
   viewBox="0 0 99.136332 115.45758"
   xml:space="preserve"
   sodipodi:docname="pool-ladder-person-freezing.svg"
   inkscape:version="1.2 (dc2aedaf03, 2022-05-15)"
   xmlns:inkscape="http://www.inkscape.org/namespaces/inkscape"
   xmlns:sodipodi="http://sodipodi.sourceforge.net/DTD/sodipodi-0.dtd"
   xmlns="http://www.w3.org/2000/svg"
   xmlns:svg="http://www.w3.org/2000/svg"><defs
   id="defs19" /><sodipodi:namedview
   id="namedview17"
   pagecolor="#ffffff"
   bordercolor="#000000"
   borderopacity="0.25"
   inkscape:showpageshadow="2"
   inkscape:pageopacity="0.0"
   inkscape:pagecheckerboard="0"
   inkscape:deskcolor="#d1d1d1"
   showgrid="false"
   inkscape:zoom="1.05875"
   inkscape:cx="322.55018"
   inkscape:cy="307.91027"
   inkscape:window-width="1920"
   inkscape:window-height="1027"
   inkscape:window-x="-8"
   inkscape:window-y="-8"
   inkscape:window-maximized="1"
   inkscape:current-layer="Capa_1" />
<path
   style="fill:#f0a479;stroke-width:0.190502"
   d="M 48.977467,24.641491 C 45.716836,23.287409 44.136958,19.4611 45.448523,16.095442 l 1.277627,-3.278173 c 1.31194,-3.3658513 5.01826,-4.9967118 8.278891,-3.6428227 l 3.175694,1.3188567 c 3.260819,1.354276 4.840884,5.180197 3.529132,8.546049 l -1.277628,3.278366 c -1.311752,3.365658 -5.018447,4.996518 -8.279078,3.642629 z"
   id="path2" />
<path
   style="fill:#707070;stroke-width:0.190502"
   d="m 92.498992,31.180558 c -8.498266,0 -15.412342,7.137192 -15.412342,15.90989 V 57.418714 H 54.708481 V 47.090448 c 0,-4.786516 3.77232,-8.680761 8.409204,-8.680761 1.933879,0 3.50157,-1.61828 3.50157,-3.614565 0,-1.996284 -1.567691,-3.614564 -3.50157,-3.614564 -8.498266,0 -15.412342,7.137192 -15.412342,15.90989 v 57.595732 c 0,1.99629 1.56769,3.61457 3.501569,3.61457 1.933879,0 3.501569,-1.61828 3.501569,-3.61457 V 94.422369 H 77.08665 v 9.850971 c 0,1.99628 1.56769,3.61456 3.501569,3.61456 1.933879,0 3.50157,-1.61828 3.50157,-3.61456 V 47.090254 c 0,-4.786515 3.772319,-8.680761 8.409203,-8.680761 1.933879,0 3.50157,-1.618279 3.50157,-3.614564 1.87e-4,-1.996091 -1.567691,-3.614371 -3.50157,-3.614371 z m -15.41253,33.467285 v 8.26153 H 54.708294 v -8.26153 z M 54.708294,87.193047 v -7.054546 h 22.378168 v 7.054546 z"
   id="path4" />
<path
   style="fill:#575757;stroke-width:0.190502"
   d="m 92.498992,31.180558 c -8.498266,0 -15.412342,7.137192 -15.412342,15.909696 V 57.418521 H 65.74944 v 7.229129 h 11.33721 v 8.261529 H 65.74944 v 7.229129 h 11.33721 v 7.054545 H 65.74944 v 7.229129 h 11.33721 v 9.850968 c 0,1.99629 1.56769,3.61457 3.501569,3.61457 1.933879,0 3.50157,-1.61828 3.50157,-3.61457 V 47.090254 c 0,-4.786515 3.772319,-8.680567 8.409203,-8.680567 1.933879,0 3.50157,-1.61828 3.50157,-3.614565 0,-1.996284 -1.567691,-3.614564 -3.50157,-3.614564 z"
   id="path6" />
<path
   style="fill:#f0a479;stroke-width:0.190502"
   d="m 67.821541,91.158637 1.109627,-25.523566 c 0.03562,-0.822204 -0.07313,-1.616925 -0.302063,-2.357451 -0.665252,-2.177448 -2.38388,-3.953665 -4.689009,-4.535286 l -17.83916,-4.498705 5.156447,-13.231144 22.749045,5.372007 c 3.669382,0.866528 7.324701,-1.501762 8.164141,-5.289555 0.839439,-3.787792 -1.454816,-7.560681 -5.124385,-8.427209 l -29.352807,-6.93164 c -0.08775,-0.02071 -0.175501,-0.03813 -0.263064,-0.05497 -3.878445,-1.053497 -8.000828,1.010723 -9.536831,4.951227 l -9.102767,23.356957 c -1.664441,4.271476 0.3405,9.126896 4.478071,10.844854 0.495376,0.205551 0.999189,0.355747 1.50469,0.455426 l 20.847603,5.257812 -0.895876,20.611242"
   id="path8" />
<path
   style="fill:#ccf7f5;stroke-width:0.190502"
   d="m 90.864927,111.09853 c -3.93957,0 -7.77489,-1.32157 -10.920584,-3.70167 -3.145319,2.38029 -6.980826,3.70167 -10.920209,3.70167 -3.939757,0 -7.774702,-1.32118 -10.920209,-3.70167 -3.145506,2.38029 -6.980826,3.70167 -10.920208,3.70167 -3.939383,0 -7.77489,-1.32157 -10.920584,-3.70167 -3.145506,2.38029 -6.980826,3.70167 -10.920209,3.70167 -3.939195,0 -7.77489,-1.32157 -10.920208,-3.70167 -3.145507,2.38029 -6.981014,3.70167 -10.9202092,3.70167 -1.9338787,0 -3.50156929818,-1.61828 -3.50156929818,-3.61457 0,-1.99628 1.56769059818,-3.61456 3.50156929818,-3.61456 3.2013812,0 6.1711995,-1.33241 8.3627042,-3.7516 0.662063,-0.731042 1.588128,-1.145822 2.55788,-1.145822 0.969564,0 1.895441,0.414973 2.55788,1.145822 2.191504,2.41939 5.161322,3.7516 8.362703,3.7516 3.201382,0 6.171387,-1.33241 8.362517,-3.7516 0.662063,-0.731042 1.588315,-1.146015 2.55788,-1.146015 0.969564,0 1.895441,0.414973 2.557879,1.145825 2.191505,2.41938 5.161323,3.75159 8.362704,3.75159 3.201381,0 6.1712,-1.3324 8.362517,-3.75159 0.662251,-0.731046 1.588315,-1.146019 2.55788,-1.146019 0.969564,0 1.895816,0.414973 2.557879,1.145819 2.191505,2.41939 5.161323,3.75179 8.362704,3.75179 3.201381,0 6.171387,-1.3324 8.362517,-3.75179 0.662063,-0.731039 1.588128,-1.146013 2.557879,-1.146013 0.969377,0 1.895817,0.414974 2.55788,1.145823 2.191505,2.41939 5.16151,3.75179 8.362892,3.75179 1.933878,0 3.501569,1.61828 3.501569,3.61457 -0.0019,1.99647 -1.569566,3.61495 -3.503444,3.61495 z"
   id="path10" />
<path
   style="fill:#74d6d0;stroke-width:0.190502"
   d="m 90.864927,111.09853 c -3.93957,0 -7.77489,-1.32157 -10.920584,-3.70167 -3.145319,2.38029 -6.980826,3.70167 -10.920209,3.70167 -3.939757,0 -7.774702,-1.32118 -10.920209,-3.70167 -3.145506,2.38029 -6.980826,3.70167 -10.920208,3.70167 -3.939383,0 -7.77489,-1.32157 -10.920584,-3.70167 -3.145506,2.38029 -6.980826,3.70167 -10.920209,3.70167 -3.939195,0 -7.77489,-1.32157 -10.920208,-3.70167 -3.145507,2.38029 -6.981014,3.70167 -10.9202092,3.70167 -1.9338787,0 -3.50156929818,-1.61828 -3.50156929818,-3.61457 0,-1.99628 1.56769059818,-3.61456 3.50156929818,-3.61456 3.2013812,0 6.1711995,-1.33241 8.3627042,-3.7516 0.662063,-0.731042 1.588128,-1.145822 2.55788,-1.145822 0.969564,0 1.895441,0.414973 2.55788,1.145822 2.191504,2.41939 5.161322,3.7516 8.362703,3.7516 3.201382,0 6.171387,-1.33241 8.362517,-3.7516 0.662063,-0.731042 1.588315,-1.146015 2.55788,-1.146015 0.969564,0 1.895441,0.414973 2.557879,1.145825 2.191505,2.41938 5.161323,3.75159 8.362704,3.75159 3.201381,0 6.1712,-1.3324 8.362517,-3.75159 0.662251,-0.731046 1.588315,-1.146019 2.55788,-1.146019 0.969564,0 1.895816,0.414973 2.557879,1.145819 2.191505,2.41939 5.161323,3.75179 8.362704,3.75179 3.201381,0 6.171387,-1.3324 8.362517,-3.75179 0.662063,-0.731039 1.588128,-1.146013 2.557879,-1.146013 0.969377,0 1.895817,0.414974 2.55788,1.145823 2.191505,2.41939 5.16151,3.75179 8.362892,3.75179 1.933878,0 3.501569,1.61828 3.501569,3.61457 -0.0019,1.99647 -1.569566,3.61495 -3.503444,3.61495 z"
   id="path12" />
<path
   style="fill:#ccf7f5;stroke-width:0.190502"
   d="m 46.249965,103.83127 c -2.842131,-0.23323 -5.452511,-1.53138 -7.42914,-3.71366 -0.662063,-0.731046 -1.588315,-1.145825 -2.557879,-1.145825 -0.969565,0 -1.895817,0.414973 -2.55788,1.146015 -2.191317,2.41939 -5.161135,3.75179 -8.362517,3.75179 -3.201381,0 -6.171199,-1.3324 -8.362703,-3.75179 -0.662064,-0.731042 -1.588316,-1.145822 -2.55788,-1.145822 -0.969565,0 -1.895442,0.414973 -2.55788,1.145822 -2.1915047,2.41939 -5.161323,3.75179 -8.3627042,3.75179 C 1.5676905,103.86959 0,105.48787 0,107.48416 c 0,1.99628 1.5676905,3.61456 3.5015693,3.61456 3.9391952,0 7.7748897,-1.32157 10.9202087,-3.70166 3.145506,2.38029 6.981014,3.70166 10.920209,3.70166 3.93957,0 7.77489,-1.32157 10.920209,-3.70166 2.896505,2.19158 6.377637,3.48566 9.986456,3.67708 z"
   id="path14" />
<path
   style="fill:#cccccc;stroke-width:0.115156"
   d="m 47.77369,86.209936 c 0,-16.718584 0.01004,-17.607574 0.198348,-17.546822 0.109092,0.0352 1.575455,0.409116 3.258586,0.830932 1.683129,0.421817 3.149493,0.794989 3.258584,0.829273 0.173126,0.05441 0.198349,0.224989 0.198349,1.341443 v 1.279113 h 0.408494 0.408494 l -0.06549,0.906748 c -0.03602,0.498709 -0.09309,1.643843 -0.126827,2.54474 -0.122351,3.26721 -0.169497,3.685489 -0.415406,3.685489 -0.215206,0 -0.219297,0.122011 -0.186317,5.557475 l 0.03372,5.557476 5.468756,4e-6 5.468756,7e-6 v 1.579496 1.579494 h -5.497092 -5.497091 v 3.274279 3.274277 l -0.651717,0.53068 c -1.357519,1.10538 -3.794709,2.10232 -5.667104,2.31812 l -0.595046,0.0686 z"
   id="path1202" /><path
   style="fill:#cccccc;stroke-width:0.115156"
   d="M 51.117282,55.465075 47.83036,54.625801 47.7996,52.384307 47.76884,50.142808 49.480483,45.719145 c 0.941402,-2.433017 1.754009,-4.468989 1.805792,-4.524386 0.07304,-0.07813 4.613406,0.903461 4.728495,1.022265 0.01458,0.01506 -0.174916,0.424163 -0.4211,0.90914 -0.85253,1.679463 -0.904418,2.139497 -0.905321,8.026533 -6e-4,4.070211 -0.03109,5.174496 -0.142472,5.164441 -0.07792,-0.007 -1.620792,-0.390465 -3.428597,-0.852063 z"
   id="path1204" /><path
   style="fill:#e6e6e6;stroke-width:0.115156"
   d="M 82.918468,100.43915 C 82.393394,99.927859 81.730343,99.395895 81.445021,99.257005 80.272702,98.686343 78.75702,98.88206 77.705764,99.739847 l -0.576474,0.470383 v -2.927716 -2.92771 H 71.462186 65.795082 V 92.77531 91.195814 h 1.00591 1.005912 l 0.07084,-0.365623 c 0.03896,-0.201094 0.07084,-0.772518 0.07084,-1.269832 0,-0.497316 0.03277,-1.227831 0.07282,-1.62337 l 0.07282,-0.719162 h 4.517537 4.517537 V 83.64934 80.080852 h -4.381271 -4.38127 l 0.07495,-1.842745 c 0.04122,-1.013508 0.10799,-2.619329 0.14837,-3.568487 l 0.07342,-1.725745 h 4.232901 4.232901 V 68.790389 64.636902 H 73.061282 68.993265 L 68.811802,63.807431 C 68.477773,62.280577 67.423369,60.621906 66.255865,59.786716 L 65.795091,59.457095 V 58.47851 57.499926 h 5.667104 5.667104 v -5.538962 -5.538962 l 0.481704,-0.148697 c 1.940771,-0.599093 3.706467,-2.353106 4.395851,-4.366762 0.180448,-0.52708 0.265025,-1.105104 0.30638,-2.093898 0.04956,-1.185066 0.02375,-1.479277 -0.195031,-2.222993 -0.138687,-0.471436 -0.327937,-1.00849 -0.420557,-1.193453 -0.165462,-0.330428 -0.158962,-0.346183 0.372917,-0.903606 1.761762,-1.846379 5.010375,-3.517591 7.809721,-4.017623 1.342605,-0.239821 3.143317,-0.239198 3.827153,0.0014 1.685617,0.592882 2.658163,2.761527 2.020296,4.504982 -0.542079,1.481645 -1.679982,2.258198 -3.492469,2.383414 -2.231997,0.1542 -3.963452,0.902253 -5.46631,2.361659 -1.402638,1.362082 -2.171221,2.760284 -2.545501,4.630757 -0.16184,0.808801 -0.180287,3.720713 -0.180287,28.45933 0,15.15709 -0.03825,27.556998 -0.08501,27.555338 -0.04675,-0.002 -0.514612,-0.42134 -1.039683,-0.93262 z"
   id="path1206" /><path
   style="fill:#cccccc;stroke-width:0.115156"
   d="m 65.11503,59.108782 c -0.280523,-0.133881 -1.683131,-0.547019 -3.116908,-0.918084 l -2.606868,-0.674664 3.145242,-0.0081 3.145244,-0.0081 v 0.935997 c 0,0.514798 -0.01275,0.931561 -0.02834,0.92614 -0.01558,-0.0054 -0.257853,-0.119398 -0.538374,-0.253279 z"
   id="path1208" /></svg>
