<?xml version="1.0" encoding="UTF-8" standalone="no"?>
<!-- Uploaded to: SVG Repo, www.svgrepo.com, Generator: SVG Repo Mixer Tools -->

<svg
   height="65.171188"
   width="82.17234"
   version="1.1"
   id="Capa_1"
   viewBox="0 0 52.590606 41.709804"
   xml:space="preserve"
   sodipodi:docname="pool-ladder-person-warm.svg"
   inkscape:version="1.2 (dc2aedaf03, 2022-05-15)"
   xmlns:inkscape="http://www.inkscape.org/namespaces/inkscape"
   xmlns:sodipodi="http://sodipodi.sourceforge.net/DTD/sodipodi-0.dtd"
   xmlns="http://www.w3.org/2000/svg"
   xmlns:svg="http://www.w3.org/2000/svg"><defs
   id="defs19" /><sodipodi:namedview
   id="namedview17"
   pagecolor="#ffffff"
   bordercolor="#000000"
   borderopacity="0.25"
   inkscape:showpageshadow="2"
   inkscape:pageopacity="0.0"
   inkscape:pagecheckerboard="0"
   inkscape:deskcolor="#d1d1d1"
   showgrid="false"
   inkscape:zoom="1.05875"
   inkscape:cx="321.60567"
   inkscape:cy="338.13459"
   inkscape:window-width="1920"
   inkscape:window-height="1027"
   inkscape:window-x="-8"
   inkscape:window-y="-8"
   inkscape:window-maximized="1"
   inkscape:current-layer="Capa_1" />
<path
   style="fill:#f0a479;stroke-width:0.0907289"
   d="m 20.710658,22.478773 c -1.630316,-0.614285 -2.420255,-2.35011 -1.764473,-3.876955 l 0.638814,-1.487155 c 0.65597,-1.526935 2.50913,-2.26678 4.139446,-1.652585 l 1.587847,0.598305 c 1.630409,0.614375 2.420442,2.35002 1.764565,3.876955 l -0.638813,1.487245 c -0.655877,1.526844 -2.509224,2.266689 -4.13954,1.652494 z"
   id="path2" />
<path
   id="path4"
   style="fill:#707070;stroke-width:0.0907289"
   d="m 34.58129,2.1442682 c -4.24913,0 -7.706193,3.2378649 -7.706193,7.2176297 V 35.490477 c 0,0.90562 0.783856,1.63966 1.750795,1.63966 0.966938,0 1.750795,-0.73404 1.750795,-1.63966 v -4.65623 h 11.189032 v 4.468875 c 0,0.90562 0.783857,1.63977 1.750794,1.63977 0.966939,0 1.750795,-0.73415 1.750795,-1.63977 V 9.3617929 c 0,-2.1714249 1.886164,-3.9380898 4.204604,-3.9380898 0.966938,0 1.750795,-0.73415 1.750795,-1.6397699 9.3e-5,-0.905535 -0.783857,-1.639665 -1.750795,-1.639665 -4.249129,0 -7.706193,3.2378649 -7.706193,7.2176297 V 14.047323 H 30.376687 V 9.3618979 c 0,-2.1714199 1.886162,-3.9380848 4.204603,-3.9380848 0.966938,0 1.750795,-0.73415 1.750795,-1.6397749 0,-0.90562 -0.783857,-1.63977 -1.750795,-1.63977 z M 30.37657,17.326868 h 11.189149 v 3.74788 H 30.37657 Z m 0,7.027424 h 11.189149 v 3.2003 H 30.37657 Z" />
<path
   style="fill:#575757;stroke-width:0.0907289"
   d="m 49.271945,2.1442782 c -4.249132,0 -7.70617,3.2378149 -7.70617,7.2174997 V 14.047243 H 35.89717 v 3.279525 h 5.668605 v 3.74788 H 35.89717 v 3.279524 h 5.668605 v 3.200325 H 35.89717 v 3.279525 h 5.668605 v 4.468935 c 0,0.905625 0.783845,1.63976 1.750784,1.63976 0.96694,0 1.750785,-0.734135 1.750785,-1.63976 V 9.3617779 c 0,-2.1714199 1.88616,-3.9379748 4.204601,-3.9379748 0.96694,0 1.750785,-0.73414 1.750785,-1.6397649 0,-0.90562 -0.783845,-1.63976 -1.750785,-1.63976 z"
   id="path6" />
<path
   id="path8"
   style="fill:#f0a479;stroke-width:0.0907289"
   d="m 19.806175,23.517062 c -1.572349,0.02655 -3.050099,0.91701 -3.674092,2.36944 l -4.551363,10.59607 c -0.09036,0.210405 -0.155119,0.424185 -0.203205,0.638675 0.0075,-3.5e-4 0.0148,-0.0015 0.02238,-0.002 0.05254,-0.001 0.104935,0.0061 0.157384,0.0091 0.205154,0.02225 0.39649,0.09639 0.586645,0.16738 0.157143,0.05208 0.304485,0.125965 0.456684,0.188675 0.137083,0.05393 0.278035,0.09793 0.415901,0.149925 0.191673,0.0785 0.378587,0.16646 0.567544,0.250465 0.130326,0.06597 0.270752,0.10578 0.410041,0.1507 0.223177,0.05748 0.448426,0.10675 0.675475,0.14872 0.313263,0.05862 0.629624,0.09981 0.946648,0.13588 0.133807,0.0125 0.267408,0.0267 0.401018,0.04095 0.150493,-0.01755 0.300663,-0.037 0.449653,-0.06344 0.248999,-0.0689 0.491244,-0.157385 0.734419,-0.242125 0.23104,-0.09096 0.464179,-0.17727 0.698209,-0.261225 0.194278,-0.08135 0.393954,-0.15014 0.596958,-0.209635 0.148987,-0.0413 0.2913,-0.10056 0.434417,-0.156625 0.120375,-0.0487 0.234485,-0.109015 0.347932,-0.17012 0.123656,-0.07715 0.255835,-0.14094 0.38473,-0.209855 0.120463,-0.07004 0.246969,-0.13007 0.37137,-0.193505 0.03909,-0.0267 0.01358,-0.0099 0.07793,-0.0483 0.124473,-0.07429 0.242917,-0.12371 0.354494,-0.15542 l -0.231564,-0.05301 2.578263,-6.0024 11.374542,2.437045 c 1.834674,0.3931 3.662304,-0.681285 4.082023,-2.39962 0.41972,-1.71833 -0.727439,-3.42996 -2.562207,-3.82306 l -14.676445,-3.14454 c -0.04387,-0.0094 -0.0877,-0.01725 -0.131485,-0.0249 -0.363604,-0.08961 -0.731462,-0.129495 -1.094305,-0.12337 z m 2.128375,13.469625 c 0.0049,0.0025 0.0099,0.005 0.01476,0.0073 0.197628,0.108805 0.377297,0.24147 0.553716,0.377675 0.134273,0.09698 0.273513,0.187455 0.412269,0.278675 0.109122,0.05956 0.04912,0.02625 0.179532,0.10054 0.04479,0.0255 0.08629,0.05169 0.12504,0.07848 0.255437,0.0673 0.515755,0.118205 0.776491,0.164415 0.371366,0.07605 0.749907,0.11397 1.126532,0.15904 0.524722,0.06598 1.052574,0.10303 1.580052,0.143015 0.562112,0.04535 1.122849,0.10261 1.682708,0.16683 z m -10.078672,0.76753 c 4.5e-4,0.003 0.0083,0.03255 0.01371,0.05302 2.43e-4,-0.0058 -2e-5,-0.0117 4.68e-4,-0.01745 -0.0095,-0.0254 -0.01493,-0.04075 -0.01418,-0.03555 z m 0.192892,0.77752 c 0.0028,0.0147 0.0052,0.02945 0.008,0.0441 0.0089,-0.007 0.0236,-0.0189 0.03293,-0.02625 -0.01369,-0.0058 -0.02726,-0.01195 -0.0409,-0.0179 z m 12.820295,12.47533 c -0.0193,-0.003 -0.07443,0.0212 -0.05508,0.01875 0.01209,-0.0015 0.05062,-0.01045 0.07547,-0.01545 -0.0068,-0.001 -0.01365,-0.0025 -0.02039,-0.0035 z m -0.262853,1.120951 -0.0023,0.0496 c 0.02179,-0.0121 0.04586,-0.02015 0.06867,-0.0305 -0.0222,-0.0057 -0.04439,-0.01135 -0.06633,-0.0191 z m 6.4988,1.03029 c -0.03261,0.03535 -0.06475,0.07053 -0.102539,0.106245 -0.04067,0.02945 -0.0826,0.05593 -0.125509,0.08002 h 0.219142 z m -5.903132,0.03905 c -0.02238,0.01145 -0.04362,0.02335 -0.06176,0.0359 -0.01428,0.0099 0.03414,-0.0091 0.05121,-0.0136 0.0044,-0.0097 0.0063,-0.01295 0.01055,-0.0223 z m 3.431629,0.116455 c -0.04316,0.01025 -0.08633,0.02045 -0.129493,0.03075 h 0.162774 c -0.01097,-0.0104 -0.02232,-0.02035 -0.03328,-0.03075 z" />
<path
   id="path10"
   style="fill:#ccf7f5;stroke-width:0.0907289"
   d="m 42.995417,32.897902 c -0.484873,0 -0.947845,0.18828 -1.278877,0.51992 -1.095559,1.09756 -2.580595,1.702005 -4.181282,1.702005 -1.600685,0 -3.085651,-0.604445 -4.1814,-1.702005 -0.331029,-0.33155 -0.794095,-0.51981 -1.278877,-0.51981 -0.48478,0 -0.947869,0.18817 -1.278995,0.51981 -1.095652,1.097475 -2.580477,1.702005 -4.181165,1.702005 -1.600685,0 -3.08565,-0.604445 -4.1814,-1.702005 -0.331216,-0.33155 -0.794212,-0.51981 -1.278994,-0.51981 -0.484779,0 -0.947845,0.18828 -1.278877,0.51992 -1.095562,1.097475 -2.580598,1.702005 -4.181283,1.702005 -1.600685,0 -3.085533,-0.604445 -4.181282,-1.702005 -0.331219,-0.33155 -0.794214,-0.51981 -1.278995,-0.51981 -0.4848742,0 -0.9478457,0.18817 -1.2788767,0.51981 -1.0957489,1.097475 -2.5807141,1.702005 -4.1813999,1.702005 -0.9669364,0 -1.7507949,0.73404 -1.7507949,1.63966 0,0.90562 0.7838585,1.639775 1.7507949,1.639775 1.9695915,0 3.8872945,-0.59946 5.4600426,-1.679285 0.257587,0.17685 0.527453,0.33577 0.802272,0.48633 0.109949,-0.05368 0.23363,-0.08475 0.36387,-0.08704 0.05254,-10e-4 0.104935,0.0061 0.157384,0.0091 0.205156,0.02225 0.396489,0.09639 0.586645,0.16738 0.157144,0.05208 0.304485,0.125965 0.456684,0.18867 0.137083,0.05394 0.278032,0.09794 0.415901,0.14993 0.191673,0.0785 0.378587,0.16646 0.567544,0.250465 0.130326,0.06597 0.270748,0.10578 0.410041,0.150695 0.223177,0.05749 0.448426,0.106755 0.675475,0.148725 0.313266,0.05862 0.629624,0.09981 0.946648,0.13588 0.133811,0.0125 0.267408,0.0267 0.401018,0.04095 0.150493,-0.01755 0.300663,-0.037 0.449653,-0.06343 0.248999,-0.0689 0.49124,-0.157385 0.734419,-0.242125 0.23104,-0.09096 0.464179,-0.17727 0.698209,-0.261225 0.194278,-0.08135 0.393954,-0.15014 0.596958,-0.209635 0.148991,-0.04135 0.2913,-0.10056 0.434417,-0.156625 0.120375,-0.0487 0.234481,-0.109015 0.347932,-0.17012 0.123656,-0.07715 0.255835,-0.14094 0.38473,-0.209855 0.120463,-0.07004 0.246969,-0.13007 0.37137,-0.193505 0.03909,-0.0267 0.01359,-0.0099 0.07793,-0.0483 0.227692,-0.13588 0.437655,-0.19487 0.615825,-0.19767 0.135016,-0.002 0.249205,0.03005 0.340784,0.08407 0.101097,0.01105 0.210946,0.03435 0.329065,0.07266 0.190407,0.06175 0.374272,0.137895 0.550785,0.22862 0.197627,0.108805 0.377297,0.24147 0.553716,0.377675 0.134276,0.09698 0.273512,0.187455 0.412268,0.278675 0.06253,0.03415 0.07698,0.04205 0.0961,0.0529 0.195294,0.0774 0.392647,0.15039 0.59309,0.21545 0.130279,0.0267 0.260931,0.05187 0.391878,0.07507 0.371366,0.07605 0.749907,0.11397 1.126533,0.15904 0.524725,0.06598 1.052573,0.10303 1.580051,0.14301 0.245289,0.0198 0.490289,0.04195 0.735122,0.06564 1.676158,-0.14246 3.283993,-0.712925 4.636326,-1.641415 1.57275,1.07991 3.490286,1.679285 5.460159,1.679285 1.969686,0 3.887389,-0.59946 5.460043,-1.679285 1.572844,1.079735 3.490498,1.679285 5.460278,1.679285 0.966936,0 1.750793,-0.734175 1.751731,-1.639885 0,-0.90562 -0.783858,-1.63977 -1.750794,-1.63977 -1.600688,0 -3.085651,-0.604445 -4.1814,-1.702005 -0.33103,-0.33155 -0.794306,-0.51981 -1.278995,-0.51981 z" />
<path
   id="path12"
   style="fill:#74d6d0;stroke-width:0.0907289"
   d="m 42.995417,32.897902 c -0.484873,0 -0.947845,0.18828 -1.278877,0.51992 -1.095559,1.09756 -2.580595,1.702005 -4.181282,1.702005 -1.600685,0 -3.085651,-0.604445 -4.1814,-1.702005 -0.331029,-0.33155 -0.794095,-0.51981 -1.278877,-0.51981 -0.48478,0 -0.947869,0.18817 -1.278995,0.51981 -1.095652,1.097475 -2.580477,1.702005 -4.181165,1.702005 -1.600685,0 -3.08565,-0.604445 -4.1814,-1.702005 -0.331216,-0.33155 -0.794212,-0.51981 -1.278994,-0.51981 -0.484779,0 -0.947845,0.18828 -1.278877,0.51992 -1.095562,1.097475 -2.580598,1.702005 -4.181283,1.702005 -1.600685,0 -3.085533,-0.604445 -4.181282,-1.702005 -0.331219,-0.33155 -0.794214,-0.51981 -1.278995,-0.51981 -0.4848742,0 -0.9478457,0.18817 -1.2788767,0.51981 -1.0957489,1.097475 -2.5807141,1.702005 -4.1813999,1.702005 -0.9669364,0 -1.7507949,0.73404 -1.7507949,1.63966 0,0.90562 0.7838585,1.639775 1.7507949,1.639775 1.9695915,0 3.8872945,-0.59946 5.4600426,-1.679285 0.257587,0.17685 0.527453,0.33577 0.802272,0.48633 0.109949,-0.05368 0.23363,-0.08475 0.36387,-0.08704 0.05254,-10e-4 0.104935,0.0061 0.157384,0.0091 0.205156,0.02225 0.396489,0.09639 0.586645,0.16738 0.157144,0.05208 0.304485,0.125965 0.456684,0.18867 0.137083,0.05394 0.278032,0.09794 0.415901,0.14993 0.191673,0.0785 0.378587,0.16646 0.567544,0.250465 0.130326,0.06597 0.270748,0.10578 0.410041,0.150695 0.223177,0.05749 0.448426,0.106755 0.675475,0.148725 0.313266,0.05862 0.629624,0.09981 0.946648,0.13588 0.133811,0.0125 0.267408,0.0267 0.401018,0.04095 0.150493,-0.01755 0.300663,-0.037 0.449653,-0.06343 0.248999,-0.0689 0.49124,-0.157385 0.734419,-0.242125 0.23104,-0.09096 0.464179,-0.17727 0.698209,-0.261225 0.194278,-0.08135 0.393954,-0.15014 0.596958,-0.209635 0.148991,-0.04135 0.2913,-0.10056 0.434417,-0.156625 0.120375,-0.0487 0.234481,-0.109015 0.347932,-0.17012 0.123656,-0.07715 0.255835,-0.14094 0.38473,-0.209855 0.120463,-0.07004 0.246969,-0.13007 0.37137,-0.193505 0.03909,-0.0267 0.01359,-0.0099 0.07793,-0.0483 0.227692,-0.13588 0.437655,-0.19487 0.615825,-0.19767 0.135016,-0.002 0.249205,0.03005 0.340784,0.08407 0.101097,0.01105 0.210946,0.03435 0.329065,0.07266 0.190407,0.06175 0.374272,0.137895 0.550785,0.22862 0.197627,0.108805 0.377297,0.24147 0.553716,0.377675 0.134276,0.09698 0.273512,0.187455 0.412268,0.278675 0.06253,0.03415 0.07698,0.04205 0.0961,0.0529 0.195294,0.0774 0.392647,0.15039 0.59309,0.21545 0.130279,0.0267 0.260931,0.05187 0.391878,0.07507 0.371366,0.07605 0.749907,0.11397 1.126533,0.15904 0.524725,0.06598 1.052573,0.10303 1.580051,0.14301 0.245289,0.0198 0.490289,0.04195 0.735122,0.06564 1.676158,-0.14246 3.283993,-0.712925 4.636326,-1.641415 1.57275,1.07991 3.490286,1.679285 5.460159,1.679285 1.969686,0 3.887389,-0.59946 5.460043,-1.679285 1.572844,1.079735 3.490498,1.679285 5.460278,1.679285 0.966936,0 1.750793,-0.734175 1.751731,-1.639885 0,-0.90562 -0.783858,-1.63977 -1.750794,-1.63977 -1.600688,0 -3.085651,-0.604445 -4.1814,-1.702005 -0.33103,-0.33155 -0.794306,-0.51981 -1.278995,-0.51981 z" />
<path
   id="path14"
   style="fill:#ccf7f5;stroke-width:0.0907289"
   d="m 21.153958,32.898012 c -0.484779,0 -0.947962,0.18828 -1.278994,0.51992 -1.095656,1.09756 -2.580598,1.702005 -4.181283,1.702005 -1.600685,0 -3.085533,-0.604445 -4.181282,-1.702005 -0.331031,-0.33164 -0.794214,-0.51981 -1.278995,-0.51981 -0.4847802,0 -0.9476582,0.18826 -1.2788767,0.51981 -1.0957489,1.09756 -2.580714,1.702005 -4.1813998,1.702005 -0.9668427,0 -1.7506777,0.73415 -1.7506777,1.63977 0,0.90562 0.7838584,1.639775 1.7507948,1.639775 1.9695918,0 3.8873883,-0.59955 5.4600424,-1.67929 0.256904,0.17639 0.5239,0.33863 0.797936,0.48886 0.111153,-0.05521 0.236483,-0.08735 0.368675,-0.08967 0.05254,-0.001 0.104935,0.0061 0.157384,0.0091 0.205156,0.02225 0.396489,0.09639 0.586645,0.16738 0.157144,0.05208 0.304485,0.125965 0.456684,0.18867 0.137083,0.05394 0.278032,0.09794 0.415901,0.14993 0.191673,0.0785 0.378587,0.16646 0.567544,0.250465 0.130326,0.06597 0.270748,0.10578 0.410041,0.150695 0.223177,0.05749 0.448426,0.106755 0.675475,0.148725 0.313266,0.05862 0.629624,0.09981 0.946648,0.13588 0.133811,0.0125 0.267408,0.0267 0.401018,0.04095 0.150493,-0.01755 0.300663,-0.037 0.449653,-0.06343 0.248999,-0.0689 0.49124,-0.157385 0.734419,-0.242125 0.23104,-0.09096 0.464179,-0.17727 0.698209,-0.261225 0.194278,-0.08135 0.393954,-0.15014 0.596958,-0.209635 0.148991,-0.04135 0.2913,-0.10056 0.434417,-0.156625 0.120375,-0.0487 0.234481,-0.109015 0.347932,-0.17012 0.123656,-0.07715 0.255835,-0.14094 0.38473,-0.209855 0.120463,-0.07004 0.246969,-0.13007 0.37137,-0.193505 0.03909,-0.0267 0.01359,-0.0099 0.07793,-0.0483 0.227692,-0.13588 0.437655,-0.19487 0.615825,-0.19767 0.135014,-0.002 0.24921,0.03005 0.340784,0.08407 0.101097,0.01105 0.210946,0.03435 0.329065,0.07266 0.190407,0.06175 0.374272,0.137895 0.550785,0.22862 0.197627,0.108805 0.377297,0.24147 0.553716,0.377675 0.134276,0.09698 0.273512,0.187455 0.412268,0.278675 0.07587,0.0414 0.0868,0.0475 0.120001,0.06651 0.176532,0.06966 0.354846,0.135435 0.535668,0.194815 0.141333,0.0295 0.283205,0.0569 0.425394,0.0821 0.371366,0.07605 0.749907,0.11397 1.126533,0.15904 0.340256,0.0428 0.681949,0.07241 1.023874,0.09955 l 6.5e-4,-3.149815 c -1.42106,-0.105805 -2.726326,-0.69477 -3.714638,-1.68477 -0.331032,-0.33164 -0.794095,-0.51981 -1.278877,-0.51981 z" />
<path
   style="fill:#cccccc;stroke-width:0.054845"
   d="m 29.034459,25.353047 c -0.716889,-0.153825 -1.488937,-0.31853 -1.715662,-0.366 l -0.412229,-0.08631 0.01786,-8.287729 c 0.01774,-8.2350751 0.01862,-8.2905951 0.137834,-8.7388851 0.256822,-0.9657149 0.635069,-1.7892599 1.15832,-2.5219748 0.389117,-0.544885 1.279847,-1.407795 1.850198,-1.7924099 1.297883,-0.875225 2.857186,-1.364125 4.352552,-1.36468 0.525147,-1.75e-4 0.600255,0.0131 0.920088,0.16278 1.049582,0.49122 1.271879,1.7830499 0.440773,2.5614499 -0.344086,0.32227 -0.584479,0.40499 -1.415068,0.486935 -1.686262,0.16637 -2.829753,0.8598849 -3.547105,2.1512898 -0.436783,0.786315 -0.454936,0.94228 -0.455387,3.9126001 l -4.2e-4,2.614065 h 2.748546 2.748545 v 1.61886 1.61886 h -2.748545 -2.748546 v 1.884245 1.88425 h 2.748546 2.748545 v 1.618859 1.61886 h -2.746852 -2.746853 l -0.01586,0.652315 -0.01586,0.652315 z"
   id="path725" /><path
   style="fill:#e6e6e6;stroke-width:0.054845"
   d="m 44.481684,33.563737 c -0.262537,-0.23195 -0.594063,-0.47328 -0.736724,-0.536285 -0.586159,-0.258885 -1.344,-0.170095 -1.869628,0.21904 l -0.288237,0.21339 v -1.32817 -1.328165 h -1.665828 -1.665828 l 0.04935,-0.19904 c 0.09548,-0.385105 0.0609,-1.195985 -0.06767,-1.58673 -0.155124,-0.47144 -0.269423,-0.67686 -0.613562,-1.1027 l -0.282248,-0.34925 h 2.122893 2.122893 v -1.61886 -1.61886 H 38.753542 35.91999 v -1.61886 -1.618859 h 2.833552 2.833552 v -1.88425 -1.884245 H 38.753542 35.91999 v -1.61886 -1.61886 h 2.829585 2.829585 l 0.02297,-2.82637 c 0.02184,-2.6864751 0.02923,-2.8525551 0.149318,-3.3553801 0.130063,-0.54458 0.431431,-1.3590299 0.658597,-1.7798599 0.475755,-0.8813399 1.48653,-1.9882899 2.342782,-2.5657048 1.277234,-0.8613 2.852898,-1.361425 4.290577,-1.36185 0.684898,-2.65e-4 0.995924,0.08558 1.340631,0.369765 0.942815,0.77727 0.75154,2.1484299 -0.369507,2.6488199 -0.279022,0.124545 -0.459955,0.163815 -0.874456,0.1898 -1.115999,0.06995 -1.981726,0.40931 -2.733155,1.0713749 -0.701319,0.617915 -1.085611,1.2522149 -1.272751,2.1007649 -0.08092,0.366915 -0.09014,1.6879151 -0.09014,12.9106951 0,6.876079 -0.01912,12.501349 -0.0425,12.500599 -0.02338,-10e-4 -0.257306,-0.191145 -0.519842,-0.42309 z"
   id="path727" /><path
   style="fill:#cccccc;stroke-width:0.054845"
   d="m 26.909295,33.292107 c 0,-1.69489 0.0061,-1.80401 0.09917,-1.77801 0.05455,0.01525 0.774977,0.17203 1.600957,0.348435 0.82598,0.176405 1.559162,0.3332 1.629292,0.34843 0.124994,0.02715 0.12751,0.04285 0.12751,0.79553 v 0.767835 l -0.325858,0.240745 c -0.67876,0.50146 -1.897355,0.953725 -2.833552,1.051625 l -0.297523,0.0311 z"
   id="path729" /></svg>
