<?xml version="1.0" encoding="UTF-8" standalone="no"?>
<!-- Uploaded to: SVG Repo, www.svgrepo.com, Generator: SVG Repo Mixer Tools -->

<svg
   height="72.727264"
   width="64.226654"
   version="1.1"
   id="Capa_1"
   viewBox="0 0 41.105297 46.545724"
   xml:space="preserve"
   sodipodi:docname="pool-cold.svg"
   inkscape:version="1.2 (dc2aedaf03, 2022-05-15)"
   xmlns:inkscape="http://www.inkscape.org/namespaces/inkscape"
   xmlns:sodipodi="http://sodipodi.sourceforge.net/DTD/sodipodi-0.dtd"
   xmlns="http://www.w3.org/2000/svg"
   xmlns:svg="http://www.w3.org/2000/svg"><defs
   id="defs19" /><sodipodi:namedview
   id="namedview17"
   pagecolor="#ffffff"
   bordercolor="#000000"
   borderopacity="0.25"
   inkscape:showpageshadow="2"
   inkscape:pageopacity="0.0"
   inkscape:pagecheckerboard="0"
   inkscape:deskcolor="#d1d1d1"
   showgrid="false"
   inkscape:zoom="1.05875"
   inkscape:cx="302.71547"
   inkscape:cy="157.73318"
   inkscape:window-width="1920"
   inkscape:window-height="1027"
   inkscape:window-x="-8"
   inkscape:window-y="-8"
   inkscape:window-maximized="1"
   inkscape:current-layer="Capa_1" />
<path
   style="fill:#f0a479;stroke-width:0.0668571"
   d="M 19.423833,9.7533268 C 18.336955,9.252989 17.810329,7.8391558 18.247517,6.5955346 l 0.425876,-1.211295 C 19.110707,4.1405469 20.346147,3.5379387 21.433024,4.038205 l 1.058564,0.4873216 c 1.08694,0.5004093 1.613628,1.9140995 1.176378,3.1577922 L 23.24209,8.8946853 c -0.437251,1.2436207 -1.672816,1.8462287 -2.759693,1.3459627 z"
   id="path2" />
<path
   style="fill:#707070;stroke-width:0.0668571"
   d="m 34.459937,9.5323973 c -2.832755,0 -5.137447,2.6372147 -5.137447,5.8787537 v 3.816327 H 21.8631 v -3.816327 c 0,-1.768633 1.25744,-3.207568 2.803068,-3.207568 0.644626,0 1.16719,-0.597959 1.16719,-1.335593 0,-0.737633 -0.522564,-1.3355927 -1.16719,-1.3355927 -2.832756,0 -5.137447,2.6372147 -5.137447,5.8787537 v 21.281806 c 0,0.737631 0.522563,1.335591 1.16719,1.335591 0.644626,0 1.167189,-0.59796 1.167189,-1.335591 v -3.792511 h 7.45939 v 3.639962 c 0,0.737631 0.522563,1.335591 1.167189,1.335591 0.644627,0 1.16719,-0.59796 1.16719,-1.335591 V 15.411079 c 0,-1.768632 1.25744,-3.207568 2.803068,-3.207568 0.644626,0 1.16719,-0.597959 1.16719,-1.335593 6.2e-5,-0.737561 -0.522564,-1.3355207 -1.16719,-1.3355207 z m -5.13751,12.3662657 v 3.05266 h -7.459389 v -3.05266 z m -7.459389,8.330526 v -2.606677 h 7.459389 v 2.606677 z"
   id="path4" />
<path
   style="fill:#575757;stroke-width:0.0668571"
   d="m 34.459937,9.5323973 c -2.832755,0 -5.137447,2.6372147 -5.137447,5.8786817 v 3.816327 h -3.77907 v 2.671186 h 3.77907 v 3.052662 h -3.77907 v 2.671186 h 3.77907 v 2.606677 h -3.77907 v 2.671185 h 3.77907 v 3.639965 c 0,0.737631 0.522563,1.335591 1.167189,1.335591 0.644627,0 1.16719,-0.59796 1.16719,-1.335591 V 15.411079 c 0,-1.768632 1.25744,-3.207496 2.803068,-3.207496 0.644626,0 1.16719,-0.597959 1.16719,-1.335593 0,-0.737633 -0.522564,-1.3355927 -1.16719,-1.3355927 z"
   id="path6" />
<path
   style="fill:#f0a479;stroke-width:0.0668571"
   d="m 26.347462,34.763939 0.369876,-9.43104 c 0.01187,-0.303806 -0.02437,-0.597458 -0.100688,-0.871083 -0.22175,-0.804574 -0.794627,-1.460893 -1.563003,-1.675805 l -5.946386,-1.662285 1.718816,-4.888949 7.583014,1.984973 c 1.223127,0.320186 2.441567,-0.554905 2.72138,-1.954506 0.279813,-1.399601 -0.484938,-2.793696 -1.708128,-3.11388 l -9.784269,-2.561263 c -0.02925,-0.0077 -0.0585,-0.01409 -0.08769,-0.02032 -1.292816,-0.38927 -2.666943,0.373465 -3.178944,1.829494 l -3.034256,8.630472 c -0.554814,1.578324 0.1135,3.372417 1.49269,4.007207 0.165126,0.07596 0.333064,0.13145 0.501564,0.168283 l 6.949201,1.942779 -0.298626,7.615919"
   id="path8" />
<path
   style="fill:#ccf7f5;stroke-width:0.0668571"
   d="m 33.915248,39.062335 c -1.31319,0 -2.59163,-0.488324 -3.640194,-1.367774 -1.04844,0.879522 -2.326942,1.367774 -3.64007,1.367774 -1.313252,0 -2.591567,-0.48818 -3.64007,-1.367774 -1.048502,0.879522 -2.326941,1.367774 -3.640069,1.367774 -1.313127,0 -2.59163,-0.488324 -3.640194,-1.367774 -1.048502,0.879522 -2.326942,1.367774 -3.64007,1.367774 -1.313065,0 -2.5916298,-0.488324 -3.6400691,-1.367774 -1.0485024,0.879522 -2.3270047,1.367774 -3.6400698,1.367774 -0.6446263,0 -1.1671898,-0.59796 -1.1671898,-1.335592 0,-0.737633 0.5225635,-1.335591 1.1671898,-1.335591 1.0671271,0 2.0570664,-0.492329 2.7875681,-1.386227 0.2206876,-0.270122 0.5293757,-0.423387 0.8526264,-0.423387 0.323188,0 0.631814,0.153333 0.8526266,0.423387 0.7305018,0.89397 1.7204408,1.386227 2.7875678,1.386227 1.067128,0 2.057129,-0.492329 2.787506,-1.386227 0.220688,-0.270122 0.529438,-0.423459 0.852626,-0.423459 0.323188,0 0.631814,0.153337 0.852627,0.423387 0.730501,0.89397 1.720441,1.386226 2.787568,1.386226 1.067127,0 2.057067,-0.492329 2.787505,-1.386226 0.220751,-0.270123 0.529439,-0.423456 0.852627,-0.423456 0.323188,0 0.631938,0.153333 0.852626,0.423383 0.730502,0.89397 1.720441,1.386299 2.787568,1.386299 1.067127,0 2.057129,-0.492329 2.787506,-1.386299 0.220688,-0.270122 0.529376,-0.423455 0.852626,-0.423455 0.323126,0 0.631939,0.153333 0.852627,0.423383 0.730501,0.893974 1.720503,1.386299 2.787631,1.386299 0.644626,0 1.167189,0.597959 1.167189,1.335591 -6.33e-4,0.737705 -0.523189,1.335737 -1.167815,1.335737 z"
   id="path10" />
<path
   style="fill:#74d6d0;stroke-width:0.0668571"
   d="m 33.915248,39.062335 c -1.31319,0 -2.59163,-0.488324 -3.640194,-1.367774 -1.04844,0.879522 -2.326942,1.367774 -3.64007,1.367774 -1.313252,0 -2.591567,-0.48818 -3.64007,-1.367774 -1.048502,0.879522 -2.326941,1.367774 -3.640069,1.367774 -1.313127,0 -2.59163,-0.488324 -3.640194,-1.367774 -1.048502,0.879522 -2.326942,1.367774 -3.64007,1.367774 -1.313065,0 -2.5916298,-0.488324 -3.6400691,-1.367774 -1.0485024,0.879522 -2.3270047,1.367774 -3.6400698,1.367774 -0.6446263,0 -1.1671898,-0.59796 -1.1671898,-1.335592 0,-0.737633 0.5225635,-1.335591 1.1671898,-1.335591 1.0671271,0 2.0570664,-0.492329 2.7875681,-1.386227 0.2206876,-0.270122 0.5293757,-0.423387 0.8526264,-0.423387 0.323188,0 0.631814,0.153333 0.8526266,0.423387 0.7305018,0.89397 1.7204408,1.386227 2.7875678,1.386227 1.067128,0 2.057129,-0.492329 2.787506,-1.386227 0.220688,-0.270122 0.529438,-0.423459 0.852626,-0.423459 0.323188,0 0.631814,0.153337 0.852627,0.423387 0.730501,0.89397 1.720441,1.386226 2.787568,1.386226 1.067127,0 2.057067,-0.492329 2.787505,-1.386226 0.220751,-0.270123 0.529439,-0.423456 0.852627,-0.423456 0.323188,0 0.631938,0.153333 0.852626,0.423383 0.730502,0.89397 1.720441,1.386299 2.787568,1.386299 1.067127,0 2.057129,-0.492329 2.787506,-1.386299 0.220688,-0.270122 0.529376,-0.423455 0.852626,-0.423455 0.323126,0 0.631939,0.153333 0.852627,0.423383 0.730501,0.893974 1.720503,1.386299 2.787631,1.386299 0.644626,0 1.167189,0.597959 1.167189,1.335591 -6.33e-4,0.737705 -0.523189,1.335737 -1.167815,1.335737 z"
   id="path12" />
<path
   style="fill:#ccf7f5;stroke-width:0.0668571"
   d="m 19.043595,36.377061 c -0.947377,-0.08618 -1.817504,-0.565847 -2.47638,-1.372208 -0.220688,-0.270123 -0.529438,-0.423387 -0.852626,-0.423387 -0.323189,0 -0.63194,0.153337 -0.852627,0.423459 -0.730439,0.89397 -1.720379,1.386299 -2.787506,1.386299 -1.067127,0 -2.057066,-0.492329 -2.7875674,-1.386299 -0.220688,-0.270122 -0.5294387,-0.423387 -0.8526267,-0.423387 -0.3231887,0 -0.6318141,0.153333 -0.8526267,0.423387 -0.7305017,0.89397 -1.720441,1.386299 -2.7875681,1.386299 -0.6445638,0 -1.1671273,0.597955 -1.1671273,1.335591 0,0.737632 0.5225635,1.335592 1.1671897,1.335592 1.313065,0 2.59163,-0.488324 3.6400697,-1.367777 1.048502,0.879525 2.3270048,1.367777 3.6400698,1.367777 1.31319,0 2.59163,-0.488324 3.64007,-1.367777 0.965501,0.809796 2.125878,1.287962 3.328818,1.358696 z"
   id="path14" />
<path
   style="fill:#cccccc;stroke-width:0.0404144"
   d="m 20.713259,21.556802 -1.161756,-0.32823 v -0.651013 -0.651011 l 0.626498,-1.793602 c 0.344574,-0.986481 0.640469,-1.810221 0.657546,-1.830533 0.01707,-0.02031 0.249442,0.02019 0.516368,0.09001 l 0.48532,0.126944 0.01,1.369058 0.01,1.36906 h 1.831833 1.831833 v 1.318568 1.318567 l -1.822919,-0.0048 -1.822918,-0.0048 z"
   id="path1043" /><path
   style="fill:#cccccc;stroke-width:0.0404144"
   d="m 19.551503,31.388658 v -4.984517 l 1.342479,0.376616 c 0.738364,0.20714 1.351686,0.387152 1.362939,0.400029 0.01125,0.01289 0.0088,0.11274 -0.0055,0.221918 l -0.02601,0.198506 H 22.04074 21.856126 v 1.318566 1.318567 l 0.141678,-1.4e-5 0.141678,-1.7e-5 -0.044,1.091616 c -0.0242,0.60039 -0.04545,1.193751 -0.04723,1.318584 -0.003,0.212293 -0.0093,0.226967 -0.09768,0.226967 h -0.09445 v 1.209856 1.209856 l -0.217238,0.196085 c -0.452507,0.408444 -1.264903,0.776813 -1.889035,0.856556 l -0.198348,0.02534 z"
   id="path1045" /><path
   style="fill:#cccccc;stroke-width:0.0404144"
   d="m 23.272901,11.52156 c -1.059749,-0.277505 -1.926815,-0.520104 -1.926815,-0.53911 0,-0.06634 0.607334,-0.54267 0.965254,-0.75705 0.70358,-0.4214196 1.497153,-0.6513031 2.249516,-0.6516462 0.350098,-1.43e-4 0.40017,0.010663 0.613392,0.1325837 0.698984,0.3996825 0.847918,1.4523035 0.295003,2.0849935 -0.07535,0.08622 -0.166821,0.174321 -0.203268,0.195774 -0.04615,0.02716 -0.651271,-0.114181 -1.993082,-0.465545 z"
   id="path1047" /><path
   style="fill:#e6e6e6;stroke-width:0.0404144"
   d="m 31.266429,35.123663 c -0.175025,-0.188922 -0.396042,-0.385485 -0.491149,-0.436807 -0.390773,-0.210859 -0.896,-0.138541 -1.246419,0.178413 l -0.192158,0.173807 v -1.081798 -1.081799 h -1.452359 -1.452358 l 0.0173,-0.291812 c 0.01933,-0.326051 0.09165,-2.101581 0.09165,-2.250057 v -0.09527 h 1.397885 1.397886 V 28.919776 27.60121 h -1.346972 -1.346973 l 0.02415,-0.529589 c 0.01328,-0.291277 0.03553,-0.88463 0.04944,-1.31857 l 0.02529,-0.788979 h 1.297535 1.297535 v -1.534726 -1.534725 h -1.889034 -1.889035 v -1.318567 -1.318568 h 1.889035 1.889034 v -0.494097 -0.494098 l 0.215626,-0.07173 c 0.544937,-0.181274 0.963248,-0.540845 1.295578,-1.113649 0.227469,-0.392067 0.308075,-0.708218 0.330198,-1.295102 0.01745,-0.462943 0.01034,-0.539534 -0.08131,-0.875918 -0.208315,-0.764539 -0.653248,-1.312149 -1.375059,-1.69238 -0.0064,-0.0034 0.03973,-0.135855 0.102547,-0.294388 0.303052,-0.764798 1.003314,-1.732692 1.622916,-2.243175 0.85149,-0.7015324 1.901932,-1.1088857 2.860384,-1.1092329 0.4566,-2.145e-4 0.66395,0.069706 0.893755,0.3011738 0.628542,0.6330921 0.501027,1.7499051 -0.246338,2.1574761 -0.186015,0.101441 -0.306637,0.133428 -0.582971,0.15459 -0.743999,0.05698 -1.321151,0.333385 -1.822104,0.872639 -0.467546,0.503294 -0.72374,1.019934 -0.8485,1.71108 -0.05395,0.298854 -0.06009,1.374816 -0.06009,10.515812 0,5.600593 -0.01275,10.182395 -0.02833,10.181783 -0.01559,-6.87e-4 -0.171538,-0.155688 -0.346561,-0.344609 z"
   id="path1049" /></svg>
