<?xml version="1.0" encoding="UTF-8" standalone="no"?>
<!-- Uploaded to: SVG Repo, www.svgrepo.com, Generator: SVG Repo Mixer Tools -->

<svg
   height="844.39197"
   width="797.16644"
   version="1.1"
   id="Capa_1"
   viewBox="0 0 510.18951 540.41402"
   xml:space="preserve"
   sodipodi:docname="pool-ladder-person-warm.svg"
   inkscape:version="1.2 (dc2aedaf03, 2022-05-15)"
   xmlns:inkscape="http://www.inkscape.org/namespaces/inkscape"
   xmlns:sodipodi="http://sodipodi.sourceforge.net/DTD/sodipodi-0.dtd"
   xmlns="http://www.w3.org/2000/svg"
   xmlns:svg="http://www.w3.org/2000/svg"><defs
   id="defs19" /><sodipodi:namedview
   id="namedview17"
   pagecolor="#ffffff"
   bordercolor="#000000"
   borderopacity="0.25"
   inkscape:showpageshadow="2"
   inkscape:pageopacity="0.0"
   inkscape:pagecheckerboard="0"
   inkscape:deskcolor="#d1d1d1"
   showgrid="false"
   inkscape:zoom="1.05875"
   inkscape:cx="340.49587"
   inkscape:cy="552.53837"
   inkscape:window-width="1920"
   inkscape:window-height="1027"
   inkscape:window-x="-8"
   inkscape:window-y="-8"
   inkscape:window-maximized="1"
   inkscape:current-layer="Capa_1" />
<path
   style="fill:#f0a479"
   d="m 188.67385,356.4422 c -17.39,-6.996 -25.816,-26.765 -18.821,-44.154 l 6.814,-16.937 c 6.997,-17.39001 26.764,-25.81601 44.154,-18.82101 l 16.937,6.814 c 17.391,6.99701 25.818,26.76401 18.822,44.15401 l -6.814,16.938 c -6.996,17.389 -26.765,25.815 -44.155,18.82 z"
   id="path2" />
<path
   id="path4"
   style="fill:#707070"
   d="m 336.62697,124.85573 c -45.32396,0 -82.19923,36.87553 -82.19923,82.20048 v 297.57424 c 0,10.31399 8.36112,18.67386 18.67511,18.67386 10.31399,0 18.67511,-8.35987 18.67511,-18.67386 v -53.02906 h 119.34945 v 50.8953 c 0,10.31399 8.36112,18.67511 18.6751,18.67511 10.31399,0 18.67511,-8.36112 18.67511,-18.67511 V 207.05496 c 0,-24.72997 20.11904,-44.85026 44.84902,-44.85026 10.31399,0 18.67511,-8.36112 18.67511,-18.67511 10e-4,-10.31299 -8.36112,-18.67386 -18.67511,-18.67386 -45.32396,0 -82.19923,36.87553 -82.19923,82.20048 v 53.36156 H 291.77796 v -53.36156 c 0,-24.72997 20.11903,-44.85026 44.84901,-44.85026 10.31399,0 18.67511,-8.36112 18.67511,-18.67511 0,-10.31399 -8.36112,-18.67511 -18.67511,-18.67511 z m -44.85026,172.91226 h 119.3507 v 42.684 h -119.3507 z m 0,80.03422 h 119.3507 v 36.44771 h -119.3507 z" />
<path
   style="fill:#575757"
   d="m 493.327,124.85583 c -45.324,0 -82.199,36.875 -82.199,82.199 v 53.362 h -60.465 v 37.35 h 60.465 v 42.684 h -60.465 v 37.35 h 60.465 v 36.448 h -60.465 v 37.35 h 60.465 v 50.896 c 0,10.314 8.361,18.675 18.675,18.675 10.314,0 18.675,-8.361 18.675,-18.675 v -295.44 c 0,-24.73 20.119,-44.849 44.849,-44.849 10.314,0 18.675,-8.361 18.675,-18.675 0,-10.314 -8.361,-18.675 -18.675,-18.675 z"
   id="path6" />
<path
   id="path8"
   style="fill:#f0a479"
   d="m 179.02605,368.26715 c -16.77169,0.30226 -32.53432,10.44365 -39.19023,26.98516 L 91.288034,515.92927 c -0.963875,2.39629 -1.654595,4.83098 -2.167513,7.27379 0.08041,-0.004 0.157904,-0.0197 0.238752,-0.0213 0.560393,-0.0105 1.11931,0.0694 1.67876,0.10375 2.188311,0.25334 4.229214,1.09771 6.257536,1.90626 1.676191,0.59315 3.247831,1.43459 4.871281,2.14877 1.46222,0.61423 2.96571,1.11537 4.43627,1.70751 2.04451,0.894 4.03826,1.89576 6.05379,2.85251 1.39015,0.7513 2.88802,1.2047 4.37377,1.71626 2.38055,0.65465 4.7832,1.21578 7.20505,1.69376 3.34146,0.66766 6.71598,1.13675 10.09756,1.54751 1.42727,0.1425 2.85234,0.30439 4.27752,0.46625 1.60525,-0.19997 3.20706,-0.42118 4.79628,-0.7225 2.65599,-0.78469 5.23993,-1.79241 7.83379,-2.75752 2.46442,-1.03585 4.95123,-2.01887 7.44755,-2.97501 2.07229,-0.92651 4.20217,-1.70994 6.36754,-2.38752 1.58919,-0.47062 3.10719,-1.14528 4.63377,-1.78376 1.284,-0.55444 2.50117,-1.24159 3.71127,-1.93751 1.31899,-0.8786 2.7289,-1.60513 4.10378,-2.39001 1.28493,-0.79765 2.63433,-1.4813 3.96127,-2.20377 0.41695,-0.30387 0.14492,-0.11268 0.83126,-0.55 1.32771,-0.84598 2.59111,-1.40891 3.78127,-1.77001 l -2.47002,-0.60375 27.50142,-68.3604 121.32821,27.75516 c 19.56982,4.47691 39.0645,-7.75909 43.5415,-27.32891 4.477,-19.56982 -7.75934,-39.06326 -27.33016,-43.54026 L 192.10112,369.95591 c -0.468,-0.107 -0.9355,-0.19675 -1.4025,-0.28375 -3.87844,-1.02056 -7.80225,-1.47476 -11.67257,-1.40501 z m 22.70263,153.4034 c 0.0523,0.0284 0.10537,0.0551 0.1575,0.0837 2.10802,1.23916 4.02449,2.75005 5.90629,4.30128 1.43224,1.1044 2.91746,2.13487 4.39752,3.17377 1.16397,0.67839 0.52391,0.29919 1.91501,1.145 0.47775,0.29048 0.92046,0.58871 1.33376,0.89376 2.72465,0.76646 5.50137,1.34625 8.28255,1.87251 3.96123,0.86616 7.99899,1.29798 12.01632,1.81126 5.59702,0.75147 11.22743,1.1734 16.85385,1.62876 5.99585,0.51652 11.97704,1.16862 17.94885,1.90001 z m -107.505629,8.7413 c 0.0048,0.0359 0.08885,0.37091 0.146251,0.60376 0.0026,-0.0661 -2.05e-4,-0.13314 0.005,-0.19875 -0.101702,-0.28944 -0.159269,-0.46441 -0.151251,-0.40501 z m 2.057512,8.85506 c 0.03002,0.1672 0.05526,0.33524 0.085,0.5025 0.09537,-0.0801 0.251809,-0.21542 0.351252,-0.29875 -0.145985,-0.0663 -0.290762,-0.13619 -0.436253,-0.20375 z M 233.03011,681.34649 c -0.20587,-0.0318 -0.79395,0.24155 -0.5875,0.21375 0.12902,-0.0174 0.53996,-0.11907 0.805,-0.17625 -0.0724,-0.0109 -0.14558,-0.0264 -0.2175,-0.0375 z m -2.80376,12.76632 -0.025,0.565 c 0.23236,-0.13758 0.48919,-0.22957 0.7325,-0.3475 -0.23686,-0.0647 -0.47351,-0.1292 -0.7075,-0.2175 z m 69.3204,11.73382 c -0.34776,0.40228 -0.69066,0.80318 -1.09375,1.21001 -0.43389,0.33569 -0.8811,0.63695 -1.33876,0.91125 h 2.33751 z m -62.96662,0.445 c -0.23871,0.13059 -0.46531,0.26593 -0.65875,0.40876 -0.15224,0.11231 0.36419,-0.10341 0.54625,-0.15501 0.0473,-0.11041 0.0667,-0.14745 0.1125,-0.25375 z m 36.60397,1.32626 c -0.46039,0.11673 -0.92085,0.23305 -1.38126,0.35 h 1.73626 c -0.11707,-0.1182 -0.23809,-0.23159 -0.355,-0.35 z" />
<path
   id="path10"
   style="fill:#ccf7f5"
   d="m 426.37749,475.10403 c -5.17197,0 -10.11033,2.14431 -13.64133,5.92128 -11.68594,12.49997 -27.52629,19.38387 -44.60026,19.38387 -17.07394,0 -32.91354,-6.8839 -44.60151,-19.38387 -3.53097,-3.77597 -8.47033,-5.92003 -13.64133,-5.92003 -5.17097,0 -10.11058,2.14306 -13.64258,5.92003 -11.68694,12.49897 -27.52504,19.38387 -44.59901,19.38387 -17.07394,0 -32.91354,-6.8839 -44.60151,-19.38387 -3.53297,-3.77597 -8.47158,-5.92003 -13.64258,-5.92003 -5.17097,0 -10.11033,2.14431 -13.64133,5.92128 -11.68597,12.49897 -27.52632,19.38387 -44.60026,19.38387 -17.07394,0 -32.91229,-6.8839 -44.60026,-19.38387 -3.532991,-3.77597 -8.471595,-5.92003 -13.64258,-5.92003 -5.171985,0 -10.110339,2.14306 -13.64133,5.92003 -11.687964,12.49897 -27.527562,19.38387 -44.601511,19.38387 -10.3139682,0 -18.67510897,8.35989 -18.67510897,18.67386 0,10.31397 8.36114077,18.67511 18.67510897,18.67511 21.008937,0 41.464392,-6.82715 58.240341,-19.12512 2.747594,2.01415 5.626151,3.82406 8.55755,5.53879 1.172785,-0.61136 2.49205,-0.96522 3.881273,-0.99126 0.560397,-0.0105 1.11931,0.0694 1.67876,0.10375 2.188323,0.25334 4.229206,1.09771 6.257536,1.90626 1.676195,0.59315 3.247831,1.43459 4.871281,2.14877 1.46222,0.61427 2.96567,1.11537 4.43627,1.70751 2.04451,0.89404 4.03826,1.89576 6.05379,2.85251 1.39015,0.7513 2.88798,1.2047 4.37377,1.71626 2.38055,0.65465 4.7832,1.21578 7.20505,1.69376 3.3415,0.66766 6.71598,1.13675 10.09756,1.54751 1.42731,0.1425 2.85234,0.30439 4.27752,0.46625 1.60525,-0.19997 3.20706,-0.42118 4.79628,-0.7225 2.65599,-0.78469 5.23989,-1.79241 7.83379,-2.75752 2.46442,-1.03585 4.95123,-2.01887 7.44755,-2.97501 2.07229,-0.92651 4.20217,-1.70994 6.36754,-2.38752 1.58923,-0.47062 3.10719,-1.14528 4.63377,-1.78376 1.284,-0.55444 2.50113,-1.24159 3.71127,-1.93751 1.31899,-0.8786 2.7289,-1.60513 4.10378,-2.39001 1.28493,-0.79765 2.63433,-1.4813 3.96127,-2.20377 0.41695,-0.30387 0.14492,-0.11268 0.83126,-0.55 2.42871,-1.54752 4.66831,-2.21935 6.56879,-2.25126 1.44017,-0.0242 2.65818,0.34252 3.63502,0.9575 1.07837,0.12566 2.25009,0.39126 3.51002,0.82751 2.03101,0.70325 3.99223,1.57048 5.87503,2.60376 2.10802,1.23916 4.02449,2.75005 5.90629,4.30128 1.43228,1.1044 2.91746,2.13487 4.39752,3.17377 0.66702,0.38875 0.82111,0.4788 1.02501,0.6025 2.08313,0.88154 4.18823,1.71281 6.32628,2.45376 1.38964,0.30421 2.78326,0.59071 4.18003,0.85501 3.96123,0.86616 7.99899,1.29798 12.01632,1.81126 5.59706,0.75147 11.22743,1.1734 16.85385,1.62876 2.61641,0.22539 5.22974,0.47763 7.84129,0.7475 17.87898,-1.62245 35.02919,-8.1194 49.45404,-18.69386 16.77597,12.29897 37.22965,19.12512 58.24159,19.12512 21.00994,0 41.4654,-6.82715 58.24034,-19.12512 16.77697,12.29697 37.23191,19.12512 58.24285,19.12512 10.31397,0 18.6751,-8.36139 18.6851,-18.67636 0,-10.31397 -8.36113,-18.67511 -18.6751,-18.67511 -17.07397,0 -32.91355,-6.8839 -44.60152,-19.38387 -3.53097,-3.77597 -8.47258,-5.92003 -13.64258,-5.92003 z" />
<path
   id="path12"
   style="fill:#74d6d0"
   d="m 426.37749,475.10403 c -5.17197,0 -10.11033,2.14431 -13.64133,5.92128 -11.68594,12.49997 -27.52629,19.38387 -44.60026,19.38387 -17.07394,0 -32.91354,-6.8839 -44.60151,-19.38387 -3.53097,-3.77597 -8.47033,-5.92003 -13.64133,-5.92003 -5.17097,0 -10.11058,2.14306 -13.64258,5.92003 -11.68694,12.49897 -27.52504,19.38387 -44.59901,19.38387 -17.07394,0 -32.91354,-6.8839 -44.60151,-19.38387 -3.53297,-3.77597 -8.47158,-5.92003 -13.64258,-5.92003 -5.17097,0 -10.11033,2.14431 -13.64133,5.92128 -11.68597,12.49897 -27.52632,19.38387 -44.60026,19.38387 -17.07394,0 -32.91229,-6.8839 -44.60026,-19.38387 -3.532991,-3.77597 -8.471595,-5.92003 -13.64258,-5.92003 -5.171985,0 -10.110339,2.14306 -13.64133,5.92003 -11.687964,12.49897 -27.527562,19.38387 -44.601511,19.38387 -10.3139682,0 -18.67510897,8.35989 -18.67510897,18.67386 0,10.31397 8.36114077,18.67511 18.67510897,18.67511 21.008937,0 41.464392,-6.82715 58.240341,-19.12512 2.747594,2.01415 5.626151,3.82406 8.55755,5.53879 1.172785,-0.61136 2.49205,-0.96522 3.881273,-0.99126 0.560397,-0.0105 1.11931,0.0694 1.67876,0.10375 2.188323,0.25334 4.229206,1.09771 6.257536,1.90626 1.676195,0.59315 3.247831,1.43459 4.871281,2.14877 1.46222,0.61427 2.96567,1.11537 4.43627,1.70751 2.04451,0.89404 4.03826,1.89576 6.05379,2.85251 1.39015,0.7513 2.88798,1.2047 4.37377,1.71626 2.38055,0.65465 4.7832,1.21578 7.20505,1.69376 3.3415,0.66766 6.71598,1.13675 10.09756,1.54751 1.42731,0.1425 2.85234,0.30439 4.27752,0.46625 1.60525,-0.19997 3.20706,-0.42118 4.79628,-0.7225 2.65599,-0.78469 5.23989,-1.79241 7.83379,-2.75752 2.46442,-1.03585 4.95123,-2.01887 7.44755,-2.97501 2.07229,-0.92651 4.20217,-1.70994 6.36754,-2.38752 1.58923,-0.47062 3.10719,-1.14528 4.63377,-1.78376 1.284,-0.55444 2.50113,-1.24159 3.71127,-1.93751 1.31899,-0.8786 2.7289,-1.60513 4.10378,-2.39001 1.28493,-0.79765 2.63433,-1.4813 3.96127,-2.20377 0.41695,-0.30387 0.14492,-0.11268 0.83126,-0.55 2.42871,-1.54752 4.66831,-2.21935 6.56879,-2.25126 1.44017,-0.0242 2.65818,0.34252 3.63502,0.9575 1.07837,0.12566 2.25009,0.39126 3.51002,0.82751 2.03101,0.70325 3.99223,1.57048 5.87503,2.60376 2.10802,1.23916 4.02449,2.75005 5.90629,4.30128 1.43228,1.1044 2.91746,2.13487 4.39752,3.17377 0.66702,0.38875 0.82111,0.4788 1.02501,0.6025 2.08313,0.88154 4.18823,1.71281 6.32628,2.45376 1.38964,0.30421 2.78326,0.59071 4.18003,0.85501 3.96123,0.86616 7.99899,1.29798 12.01632,1.81126 5.59706,0.75147 11.22743,1.1734 16.85385,1.62876 2.61641,0.22539 5.22974,0.47763 7.84129,0.7475 17.87898,-1.62245 35.02919,-8.1194 49.45404,-18.69386 16.77597,12.29897 37.22965,19.12512 58.24159,19.12512 21.00994,0 41.4654,-6.82715 58.24034,-19.12512 16.77697,12.29697 37.23191,19.12512 58.24285,19.12512 10.31397,0 18.6751,-8.36139 18.6851,-18.67636 0,-10.31397 -8.36113,-18.67511 -18.6751,-18.67511 -17.07397,0 -32.91355,-6.8839 -44.60152,-19.38387 -3.53097,-3.77597 -8.47258,-5.92003 -13.64258,-5.92003 z" />
<path
   id="path14"
   style="fill:#ccf7f5"
   d="m 193.40238,475.10528 c -5.17097,0 -10.11158,2.14431 -13.64258,5.92128 -11.68697,12.49997 -27.52632,19.38387 -44.60026,19.38387 -17.07394,0 -32.91229,-6.8839 -44.60026,-19.38387 -3.530991,-3.77697 -8.471595,-5.92003 -13.64258,-5.92003 -5.170985,0 -10.108339,2.14406 -13.64133,5.92003 C 51.587406,493.52653 35.747808,500.41043 18.673859,500.41043 8.3608908,500.41043 0,508.77157 0,519.08554 c 0,10.31397 8.3611408,18.67511 18.675109,18.67511 21.008937,0 41.465392,-6.82815 58.240341,-19.12512 2.740297,2.00884 5.588251,3.85657 8.5113,5.56754 1.185624,-0.62878 2.522475,-0.99483 3.932523,-1.02126 0.560397,-0.0105 1.11931,0.0694 1.67876,0.10375 2.188323,0.25334 4.229206,1.09771 6.257536,1.90626 1.676195,0.59315 3.247831,1.43459 4.871281,2.14877 1.46222,0.61427 2.96567,1.11537 4.43627,1.70751 2.04451,0.89404 4.03826,1.89576 6.05379,2.85251 1.39015,0.7513 2.88798,1.2047 4.37377,1.71626 2.38055,0.65465 4.7832,1.21578 7.20505,1.69376 3.3415,0.66766 6.71598,1.13675 10.09756,1.54751 1.42731,0.1425 2.85234,0.30439 4.27752,0.46625 1.60525,-0.19997 3.20706,-0.42118 4.79628,-0.7225 2.65599,-0.78469 5.23989,-1.79241 7.83379,-2.75752 2.46442,-1.03585 4.95123,-2.01887 7.44755,-2.97501 2.07229,-0.92651 4.20217,-1.70994 6.36754,-2.38752 1.58923,-0.47062 3.10719,-1.14528 4.63377,-1.78376 1.284,-0.55444 2.50113,-1.24159 3.71127,-1.93751 1.31899,-0.8786 2.7289,-1.60513 4.10378,-2.39001 1.28493,-0.79765 2.63433,-1.4813 3.96127,-2.20377 0.41695,-0.30387 0.14492,-0.11268 0.83126,-0.55 2.42871,-1.54752 4.66831,-2.21935 6.56879,-2.25126 1.44015,-0.0242 2.65823,0.34246 3.63502,0.9575 1.07837,0.12566 2.25009,0.39126 3.51002,0.82751 2.03101,0.70325 3.99223,1.57048 5.87503,2.60376 2.10802,1.23916 4.02449,2.75005 5.90629,4.30128 1.43228,1.1044 2.91746,2.13487 4.39752,3.17377 0.8093,0.47168 0.92585,0.54113 1.28001,0.7575 1.883,0.79335 3.78501,1.54248 5.71378,2.21876 1.50755,0.33616 3.02085,0.64802 4.53753,0.93501 3.96123,0.86616 7.99899,1.29798 12.01632,1.81126 3.62939,0.48729 7.27411,0.82463 10.92131,1.13376 l 0.007,-35.87271 c -15.15794,-1.205 -29.08076,-7.91265 -39.62273,-19.18762 -3.531,-3.77697 -8.47033,-5.92003 -13.64133,-5.92003 z" />
<path
   style="fill:#cccccc;stroke-width:0.94451"
   d="m 433.53011,608.08535 c -11.94806,-2.73737 -24.81542,-5.66823 -28.59415,-6.513 l -6.87042,-1.53596 0.29754,-147.47982 c 0.29565,-146.54285 0.31025,-147.53083 2.29721,-155.50816 4.28034,-17.18484 10.58441,-31.83982 19.30519,-44.87846 6.48522,-9.69622 21.33061,-25.05168 30.83639,-31.89589 21.63121,-15.57459 47.6194,-24.2745 72.54196,-24.28443 8.75238,-0.003 10.00418,0.23297 15.33469,2.89665 17.4929,8.74131 21.19782,31.72932 7.34616,45.58098 -5.73472,5.73471 -9.74125,7.20673 -23.58428,8.66496 -28.10416,2.9605 -47.16219,15.30162 -59.11796,38.28212 -7.27966,13.99244 -7.58221,16.76787 -7.58973,69.62462 l -0.007,46.51712 h 45.80874 45.80874 v 28.80756 28.80755 h -45.80874 -45.80874 v 33.53011 33.5301 h 45.80874 45.80874 v 28.80756 28.80756 h -45.78052 -45.78052 l -0.26435,11.60793 -0.26434,11.60793 z"
   id="path725"
   transform="scale(0.64000374)" /><path
   style="fill:#e6e6e6;stroke-width:0.94451"
   d="m 690.98185,754.1942 c -4.37558,-4.12752 -9.90096,-8.42194 -12.27863,-9.54316 -9.76925,-4.60681 -22.39983,-3.02684 -31.16023,3.89786 l -4.80391,3.79727 V 728.71145 705.07674 H 614.9755 587.21192 l 0.82251,-3.54191 c 1.59139,-6.85287 1.01501,-21.28248 -1.12785,-28.23581 -2.58538,-8.38924 -4.49035,-12.04465 -10.22595,-19.62244 l -4.70409,-6.21495 h 35.38127 35.38127 v -28.80756 -28.80755 h -47.2255 -47.2255 V 561.03896 532.2314 h 47.2255 47.2255 v -33.5301 -33.53011 h -47.2255 -47.2255 v -28.80755 -28.80756 h 47.15938 47.15939 l 0.38291,-50.29516 c 0.36396,-47.80573 0.48714,-50.7611 2.48861,-59.70882 2.16769,-9.69083 7.19046,-24.18392 10.97653,-31.67253 7.92918,-15.68339 24.7753,-35.38159 39.04606,-45.65662 21.28707,-15.32681 47.54793,-24.2265 71.50906,-24.2341 11.41488,-0.004 16.59862,1.52292 22.34368,6.57993 15.71347,13.83155 12.52558,38.23127 -6.15839,47.13571 -4.65033,2.21626 -7.66586,2.91508 -14.57417,3.37742 -18.59983,1.24481 -33.02851,7.28368 -45.55223,19.0651 -11.68856,10.99576 -18.09337,22.28312 -21.21234,37.38301 -1.34866,6.52925 -1.50238,30.03643 -1.50238,229.74539 0,122.35957 -0.31877,222.46101 -0.70838,222.44765 -0.38961,-0.0133 -4.2884,-3.40135 -8.66396,-7.52886 z"
   id="path727"
   transform="scale(0.64000374)" /><path
   style="fill:#cccccc;stroke-width:0.94451"
   d="m 398.11098,749.36056 c 0,-30.16046 0.10144,-32.10224 1.65289,-31.63961 0.90909,0.27108 12.91618,3.06126 26.68241,6.2004 13.76623,3.13913 25.98583,5.92928 27.15466,6.20033 2.08321,0.4831 2.12515,0.76246 2.12515,14.15641 v 13.66359 l -5.43093,4.284 c -11.31257,8.92353 -31.62233,16.97153 -47.2255,18.71371 l -4.95868,0.55366 z"
   id="path729"
   transform="scale(0.64000374)" /></svg>
