<?xml version="1.0" encoding="UTF-8" standalone="no"?>
<!-- Uploaded to: SVG Repo, www.svgrepo.com, Generator: SVG Repo Mixer Tools -->

<svg
   height="170.0118"
   width="156.78864"
   version="1.1"
   id="Capa_1"
   viewBox="0 0 100.34531 108.80819"
   xml:space="preserve"
   sodipodi:docname="pool-ladder-person-cold.svg"
   inkscape:version="1.2 (dc2aedaf03, 2022-05-15)"
   xmlns:inkscape="http://www.inkscape.org/namespaces/inkscape"
   xmlns:sodipodi="http://sodipodi.sourceforge.net/DTD/sodipodi-0.dtd"
   xmlns="http://www.w3.org/2000/svg"
   xmlns:svg="http://www.w3.org/2000/svg"><defs
   id="defs19" /><sodipodi:namedview
   id="namedview17"
   pagecolor="#ffffff"
   bordercolor="#000000"
   borderopacity="0.25"
   inkscape:showpageshadow="2"
   inkscape:pageopacity="0.0"
   inkscape:pagecheckerboard="0"
   inkscape:deskcolor="#d1d1d1"
   showgrid="false"
   inkscape:zoom="1.05875"
   inkscape:cx="321.60567"
   inkscape:cy="156.78867"
   inkscape:window-width="1920"
   inkscape:window-height="1027"
   inkscape:window-x="-8"
   inkscape:window-y="-8"
   inkscape:window-maximized="1"
   inkscape:current-layer="Capa_1" />
<path
   style="fill:#f0a479;stroke-width:0.197509"
   d="m 51.017618,21.00002 c -3.260632,-1.455528 -4.84051,-5.568497 -3.528945,-9.186304 l 1.277628,-3.5237672 c 1.31194,-3.618015 5.01826,-5.371057 8.278891,-3.915737 l 3.175694,1.417663 c 3.260819,1.455736 4.840884,5.5682892 3.529132,9.1863042 l -1.277628,3.523976 c -1.311752,3.617806 -5.018447,5.370848 -8.279079,3.915528 z"
   id="path2" />
<path
   style="fill:#707070;stroke-width:0.197509"
   d="m 96.125932,20.357316 c -8.498266,0 -15.412342,7.671897 -15.412342,17.10183 V 48.561187 H 58.335421 V 37.459146 c 0,-5.145113 3.77232,-9.331108 8.409204,-9.331108 1.933879,0 3.50157,-1.739518 3.50157,-3.885361 0,-2.145843 -1.567691,-3.885361 -3.50157,-3.885361 -8.498266,0 -15.412342,7.671897 -15.412342,17.10183 v 61.910707 c 0,2.145837 1.56769,3.885357 3.501569,3.885357 1.933879,0 3.501569,-1.73952 3.501569,-3.885357 V 88.337093 H 80.71359 v 10.58898 c 0,2.145837 1.56769,3.885357 3.501569,3.885357 1.933879,0 3.50157,-1.73952 3.50157,-3.885357 V 37.458937 c 0,-5.145112 3.772319,-9.331107 8.409203,-9.331107 1.933879,0 3.50157,-1.739518 3.50157,-3.885361 1.87e-4,-2.145635 -1.567691,-3.885153 -3.50157,-3.885153 z m -15.41253,35.974593 v 8.880464 H 58.335234 V 56.331909 Z M 58.335234,80.566163 v -7.58306 h 22.378168 v 7.58306 z"
   id="path4" />
<path
   style="fill:#575757;stroke-width:0.197509"
   d="m 96.125932,20.357316 c -8.498266,0 -15.412342,7.671897 -15.412342,17.101621 V 48.560979 H 69.37638 v 7.770722 h 11.33721 v 8.880472 H 69.37638 v 7.77072 h 11.33721 v 7.58306 H 69.37638 v 7.77072 h 11.33721 v 10.58899 c 0,2.145837 1.56769,3.885357 3.501569,3.885357 1.933879,0 3.50157,-1.73952 3.50157,-3.885357 V 37.458937 c 0,-5.145112 3.772319,-9.330899 8.409203,-9.330899 1.933879,0 3.50157,-1.739518 3.50157,-3.885361 0,-2.145843 -1.567691,-3.885361 -3.50157,-3.885361 z"
   id="path6" />
<path
   style="fill:#f0a479;stroke-width:0.197509"
   d="m 71.788507,93.758163 1.109627,-27.43575 c 0.03563,-0.8838 -0.07312,-1.73806 -0.302063,-2.53406 -0.665251,-2.34058 -2.38388,-4.24987 -4.689009,-4.87507 l -17.83916,-4.835736 5.156448,-14.222398 22.749044,5.774468 c 3.669382,0.931447 7.324702,-1.614271 8.164141,-5.685838 0.839439,-4.071567 -1.454815,-8.127114 -5.124385,-9.05856 L 51.660343,23.434272 c -0.08775,-0.02226 -0.175501,-0.04099 -0.263063,-0.05909 -3.878445,-1.132424 -8.000828,1.086444 -9.536831,5.322164 l -9.102768,25.106817 c -1.664441,4.59149 0.340501,9.81067 4.478071,11.65733 0.495376,0.22096 0.99919,0.3824 1.504691,0.48955 l 20.847603,5.65172 -0.895877,22.1554"
   id="path8" />
<path
   style="fill:#ccf7f5;stroke-width:0.197509"
   d="m 94.491867,106.26259 c -3.93957,0 -7.77489,-1.42058 -10.920584,-3.97898 -3.145319,2.55861 -6.980826,3.97898 -10.920209,3.97898 -3.939757,0 -7.774702,-1.42016 -10.920209,-3.97898 -3.145506,2.55861 -6.980826,3.97898 -10.920208,3.97898 -3.939383,0 -7.77489,-1.42058 -10.920584,-3.97898 -3.145506,2.55861 -6.980826,3.97898 -10.920209,3.97898 -3.939195,0 -7.77489,-1.42058 -10.920208,-3.97898 -3.145507,2.55861 -6.981014,3.97898 -10.9202094,3.97898 -1.9338787,0 -3.5015693,-1.73952 -3.5015693,-3.88536 0,-2.14584 1.5676906,-3.885357 3.5015693,-3.885357 3.2013814,0 6.1711994,-1.43223 8.3627044,-4.03266 0.662063,-0.78581 1.588128,-1.23167 2.55788,-1.23167 0.969564,0 1.895441,0.44606 2.55788,1.23167 2.191504,2.60064 5.161322,4.03266 8.362703,4.03266 3.201382,0 6.171387,-1.43223 8.362517,-4.03266 0.662063,-0.78581 1.588315,-1.23188 2.55788,-1.23188 0.969564,0 1.895441,0.44607 2.557879,1.23167 2.191505,2.60064 5.161323,4.03266 8.362704,4.03266 3.201381,0 6.1712,-1.43223 8.362517,-4.03266 0.662251,-0.78581 1.588315,-1.23187 2.55788,-1.23187 0.969564,0 1.895816,0.44606 2.557879,1.23166 2.191505,2.60064 5.161323,4.03287 8.362704,4.03287 3.201381,0 6.171387,-1.43223 8.362517,-4.03287 0.662063,-0.78581 1.588128,-1.23187 2.557879,-1.23187 0.969377,0 1.895817,0.44606 2.55788,1.23166 2.191505,2.60065 5.16151,4.03287 8.362892,4.03287 1.933878,0 3.501569,1.739517 3.501569,3.885357 -0.0019,2.14605 -1.569566,3.88578 -3.503444,3.88578 z"
   id="path10" />
<path
   style="fill:#74d6d0;stroke-width:0.197509"
   d="m 94.491867,106.26259 c -3.93957,0 -7.77489,-1.42058 -10.920584,-3.97898 -3.145319,2.55861 -6.980826,3.97898 -10.920209,3.97898 -3.939757,0 -7.774702,-1.42016 -10.920209,-3.97898 -3.145506,2.55861 -6.980826,3.97898 -10.920208,3.97898 -3.939383,0 -7.77489,-1.42058 -10.920584,-3.97898 -3.145506,2.55861 -6.980826,3.97898 -10.920209,3.97898 -3.939195,0 -7.77489,-1.42058 -10.920208,-3.97898 -3.145507,2.55861 -6.981014,3.97898 -10.9202094,3.97898 -1.9338787,0 -3.5015693,-1.73952 -3.5015693,-3.88536 0,-2.14584 1.5676906,-3.885357 3.5015693,-3.885357 3.2013814,0 6.1711994,-1.43223 8.3627044,-4.03266 0.662063,-0.78581 1.588128,-1.23167 2.55788,-1.23167 0.969564,0 1.895441,0.44606 2.55788,1.23167 2.191504,2.60064 5.161322,4.03266 8.362703,4.03266 3.201382,0 6.171387,-1.43223 8.362517,-4.03266 0.662063,-0.78581 1.588315,-1.23188 2.55788,-1.23188 0.969564,0 1.895441,0.44607 2.557879,1.23167 2.191505,2.60064 5.161323,4.03266 8.362704,4.03266 3.201381,0 6.1712,-1.43223 8.362517,-4.03266 0.662251,-0.78581 1.588315,-1.23187 2.55788,-1.23187 0.969564,0 1.895816,0.44606 2.557879,1.23166 2.191505,2.60064 5.161323,4.03287 8.362704,4.03287 3.201381,0 6.171387,-1.43223 8.362517,-4.03287 0.662063,-0.78581 1.588128,-1.23187 2.557879,-1.23187 0.969377,0 1.895817,0.44606 2.55788,1.23166 2.191505,2.60065 5.16151,4.03287 8.362892,4.03287 1.933878,0 3.501569,1.739517 3.501569,3.885357 -0.0019,2.14605 -1.569566,3.88578 -3.503444,3.88578 z"
   id="path12" />
<path
   style="fill:#ccf7f5;stroke-width:0.197509"
   d="m 49.876905,98.450883 c -2.842131,-0.2507 -5.452511,-1.6461 -7.42914,-3.99188 -0.662063,-0.78581 -1.588315,-1.23167 -2.557879,-1.23167 -0.969565,0 -1.895817,0.44607 -2.55788,1.23188 -2.191317,2.60064 -5.161135,4.03287 -8.362517,4.03287 -3.201381,0 -6.171199,-1.43223 -8.362703,-4.03287 -0.662064,-0.78581 -1.588316,-1.23167 -2.55788,-1.23167 -0.969565,0 -1.895442,0.44606 -2.55788,1.23167 -2.191505,2.60064 -5.161323,4.03287 -8.3627044,4.03287 -1.9336913,0 -3.5013818,1.739507 -3.5013818,3.885357 0,2.14584 1.5676905,3.88536 3.5015693,3.88536 3.9391949,0 7.7748899,-1.42058 10.9202089,-3.97899 3.145506,2.55862 6.981014,3.97899 10.920209,3.97899 3.93957,0 7.77489,-1.42058 10.920209,-3.97899 2.896505,2.35577 6.377637,3.7468 9.986456,3.95257 z"
   id="path14" />
<path
   style="fill:#cccccc;stroke-width:0.119392"
   d="m 54.885898,55.337402 -3.485268,-0.95485 v -1.893855 -1.893853 l 1.879493,-5.217749 c 1.033721,-2.869764 1.921408,-5.266099 1.972637,-5.325189 0.05123,-0.05909 0.748326,0.05874 1.549105,0.261851 l 1.455961,0.369291 0.02993,3.982717 0.02993,3.982718 h 5.495499 5.495499 v 3.835833 3.835832 l -5.468756,-0.01394 -5.468756,-0.01394 z"
   id="path1043" /><path
   style="fill:#cccccc;stroke-width:0.119392"
   d="m 51.40063,83.939163 v -14.50041 l 4.027437,1.09561 c 2.215091,0.60259 4.055059,1.12626 4.088817,1.16372 0.03376,0.0375 0.02626,0.32797 -0.01666,0.64558 l -0.07804,0.57747 h -0.553842 -0.553841 v 3.83583 3.83583 l 0.425032,-4e-5 0.425034,-5e-5 -0.131999,3.17561 c -0.0726,1.74659 -0.136354,3.47273 -0.141678,3.83588 -0.009,0.61758 -0.028,0.66027 -0.293033,0.66027 h -0.283356 v 3.51958 3.51958 l -0.651717,0.57043 c -1.357519,1.1882 -3.794709,2.25982 -5.667104,2.4918 l -0.595046,0.0737 z"
   id="path1045" /><path
   style="fill:#cccccc;stroke-width:0.119392"
   d="m 62.564825,26.14397 c -3.179246,-0.807286 -5.780446,-1.513027 -5.780446,-1.568319 0,-0.192978 1.822001,-1.578674 2.895761,-2.202327 2.110743,-1.225947 4.49146,-1.894699 6.748549,-1.895698 1.050294,-4.16e-4 1.200512,0.03102 1.840177,0.385698 2.096953,1.162712 2.543754,4.224882 0.885008,6.065437 -0.226052,0.250826 -0.500463,0.507113 -0.609803,0.569524 -0.138441,0.07902 -1.953813,-0.332165 -5.979246,-1.354315 z"
   id="path1047" /><path
   style="fill:#e6e6e6;stroke-width:0.119392"
   d="m 86.545408,94.804633 c -0.525074,-0.54959 -1.188125,-1.12141 -1.473447,-1.27071 -1.172319,-0.61341 -2.688001,-0.40303 -3.739257,0.51902 l -0.576474,0.50562 v -3.14705 -3.14705 h -4.357075 -4.357077 l 0.0519,-0.84891 c 0.05798,-0.94851 0.274942,-6.11369 0.274942,-6.54562 v -0.27714 h 4.193657 4.193657 v -3.83583 -3.83583 h -4.040917 -4.040918 l 0.07244,-1.54062 c 0.03984,-0.84735 0.106583,-2.57347 0.148313,-3.83584 l 0.07587,-2.29521 h 3.892604 3.892606 v -4.46466 -4.464655 h -5.667104 -5.667104 v -3.835832 -3.835833 h 5.667104 5.667104 V 47.21111 45.773735 l 0.646876,-0.208664 c 1.634812,-0.527343 2.889747,-1.573366 3.886734,-3.239704 0.682409,-1.140561 0.924226,-2.060273 0.990596,-3.767572 0.05235,-1.346743 0.03102,-1.569553 -0.243941,-2.548125 -0.624946,-2.224112 -1.959745,-3.81716 -4.125178,-4.923288 -0.01925,-0.0098 0.119185,-0.395213 0.307642,-0.8564 0.909153,-2.224867 3.009939,-5.040559 4.868746,-6.525601 2.554469,-2.04082 5.705796,-3.225848 8.581154,-3.226859 1.369797,-6.24e-4 1.99185,0.202782 2.681263,0.876142 1.885626,1.841722 1.503081,5.090634 -0.739013,6.276295 -0.558044,0.295102 -0.91991,0.388153 -1.748914,0.449715 -2.231997,0.165751 -3.963452,0.969849 -5.46631,2.538588 -1.402638,1.464127 -2.171221,2.96708 -2.545501,4.977687 -0.16184,0.869393 -0.180287,3.999463 -0.180287,30.591454 0,16.29263 -0.03825,29.62151 -0.08501,29.61973 -0.04675,-0.002 -0.514612,-0.45291 -1.039683,-1.0025 z"
   id="path1049" /></svg>
