<?xml version="1.0" encoding="UTF-8" standalone="no"?>
<!-- Uploaded to: SVG Repo, www.svgrepo.com, Generator: SVG Repo Mixer Tools -->

<svg
   height="88.783936"
   width="81.227837"
   version="1.1"
   id="Capa_1"
   viewBox="0 0 51.98612 56.822054"
   xml:space="preserve"
   sodipodi:docname="pool-ladder-person-chilly.svg"
   inkscape:version="1.2 (dc2aedaf03, 2022-05-15)"
   xmlns:inkscape="http://www.inkscape.org/namespaces/inkscape"
   xmlns:sodipodi="http://sodipodi.sourceforge.net/DTD/sodipodi-0.dtd"
   xmlns="http://www.w3.org/2000/svg"
   xmlns:svg="http://www.w3.org/2000/svg"><defs
   id="defs19" /><sodipodi:namedview
   id="namedview17"
   pagecolor="#ffffff"
   bordercolor="#000000"
   borderopacity="0.25"
   inkscape:showpageshadow="2"
   inkscape:pageopacity="0.0"
   inkscape:pagecheckerboard="0"
   inkscape:deskcolor="#d1d1d1"
   showgrid="false"
   inkscape:zoom="1.05875"
   inkscape:cx="321.60567"
   inkscape:cy="125.61983"
   inkscape:window-width="1920"
   inkscape:window-height="1027"
   inkscape:window-x="-8"
   inkscape:window-y="-8"
   inkscape:window-maximized="1"
   inkscape:current-layer="Capa_1" />
<path
   style="fill:#f0a479;stroke-width:0.103433"
   d="M 23.336418,12.657858 C 21.706102,11.859493 20.916163,9.6035186 21.571946,7.6191417 l 0.638813,-1.932797 c 0.65597,-1.9844923 2.50913,-2.9460408 4.139446,-2.1477933 l 1.587847,0.7775919 c 1.630409,0.798476 2.420442,3.054224 1.764566,5.0387153 l -0.638814,1.9329104 c -0.655876,1.984379 -2.509224,2.945929 -4.139539,2.147679 z"
   id="path2" />
<path
   style="fill:#707070;stroke-width:0.103433"
   d="m 48.667457,7.3385923 c -4.249133,0 -7.706172,4.2080607 -7.706172,9.3804057 v 6.0895 H 29.772201 v -6.0895 c 0,-2.82211 1.88616,-5.11814 4.204602,-5.11814 0.966939,0 1.750785,-0.954134 1.750785,-2.1311344 0,-1.1770004 -0.783846,-2.1311313 -1.750785,-2.1311313 -4.249133,0 -7.706171,4.2080607 -7.706171,9.3804057 v 33.958203 c 0,1.177007 0.783845,2.131137 1.750784,2.131137 0.96694,0 1.750785,-0.95413 1.750785,-2.131137 v -6.0515 h 11.189084 v 5.80809 c 0,1.177 0.783845,2.131137 1.750785,2.131137 0.96694,0 1.750785,-0.954137 1.750785,-2.131137 V 16.718883 c 0,-2.82211 1.88616,-5.11814 4.204602,-5.11814 0.966939,0 1.750785,-0.954129 1.750785,-2.1311344 9.3e-5,-1.1768854 -0.783846,-2.1310163 -1.750785,-2.1310163 z M 40.961191,27.070762 v 4.870965 H 29.772107 v -4.870965 z m -11.189084,13.29256 v -4.15933 h 11.189084 v 4.15933 z"
   id="path4" />
<path
   style="fill:#575757;stroke-width:0.103433"
   d="m 48.667457,7.3385923 c -4.249133,0 -7.706172,4.2080607 -7.706172,9.3802907 v 6.089505 H 35.29268 v 4.262264 h 5.668605 v 4.87096 H 35.29268 v 4.262265 h 5.668605 v 4.15933 H 35.29268 v 4.262264 h 5.668605 v 5.808095 c 0,1.177 0.783845,2.131132 1.750785,2.131132 0.96694,0 1.750785,-0.954132 1.750785,-2.131132 V 16.718883 c 0,-2.82211 1.88616,-5.118025 4.204602,-5.118025 0.966939,0 1.750785,-0.954134 1.750785,-2.1311344 0,-1.1770004 -0.783846,-2.1311313 -1.750785,-2.1311313 z"
   id="path6" />
<path
   style="fill:#f0a479;stroke-width:0.103433"
   d="M 34.458586,52.358968 35.0134,37.310377 c 0.01782,-0.484765 -0.03656,-0.95333 -0.151032,-1.38994 -0.332626,-1.283815 -1.19194,-2.331065 -2.344505,-2.673985 l -8.919579,-2.65242 2.578223,-7.801029 11.374523,3.167315 c 1.834691,0.5109 3.66235,-0.885435 4.08207,-3.1187 0.41972,-2.233265 -0.727408,-4.457745 -2.562193,-4.968645 l -14.676403,-4.08687 c -0.04387,-0.0122 -0.08775,-0.0225 -0.131532,-0.0324 -1.939222,-0.621135 -4.000414,0.59592 -4.768415,2.919225 l -4.551384,13.771164 c -0.83222,2.518445 0.17025,5.38118 2.239036,6.39408 0.247688,0.121195 0.499594,0.20975 0.752345,0.26852 l 10.423801,3.099985 -0.447938,12.152301"
   id="path8" />
<path
   style="fill:#ccf7f5;stroke-width:0.103433"
   d="m 47.850424,54.457898 c -1.969785,0 -3.887445,-0.77919 -5.460292,-2.182485 -1.57266,1.40341 -3.490413,2.182485 -5.460105,2.182485 -1.969878,0 -3.887351,-0.778965 -5.460104,-2.182485 -1.572753,1.40341 -3.490413,2.182485 -5.460104,2.182485 -1.969692,0 -3.887445,-0.77919 -5.460292,-2.182485 -1.572753,1.40341 -3.490413,2.182485 -5.460105,2.182485 -1.969597,0 -3.887445,-0.77919 -5.460104,-2.182485 -1.5727535,1.40341 -3.4905071,2.182485 -5.4601048,2.182485 -0.9669393,0 -1.7507846,-0.954135 -1.7507846,-2.131135 0,-1.177002 0.7838453,-2.131132 1.7507846,-2.131132 1.6006907,0 3.0855998,-0.78558 4.1813523,-2.21193 0.3310315,-0.431015 0.794064,-0.67557 1.27894,-0.67557 0.4847825,0 0.9477205,0.244665 1.2789405,0.67557 1.095752,1.426465 2.580661,2.21193 4.181351,2.21193 1.600691,0 3.085694,-0.78558 4.181259,-2.21193 0.331031,-0.431015 0.794157,-0.675685 1.27894,-0.675685 0.484782,0 0.94772,0.24467 1.278939,0.675575 1.095753,1.42646 2.580662,2.211925 4.181352,2.211925 1.600691,0 3.0856,-0.78558 4.181259,-2.211925 0.331125,-0.43102 0.794157,-0.67569 1.27894,-0.67569 0.484782,0 0.947908,0.24467 1.278939,0.675575 1.095753,1.42646 2.580662,2.21204 4.181352,2.21204 1.600691,0 3.085694,-0.78558 4.181259,-2.21204 0.331031,-0.43102 0.794064,-0.675685 1.27894,-0.675685 0.484688,0 0.947908,0.244665 1.27894,0.67557 1.095752,1.42646 2.580755,2.21204 4.181446,2.21204 0.966939,0 1.750784,0.95413 1.750784,2.131137 -9.5e-4,1.177115 -0.784783,2.13136 -1.751722,2.13136 z"
   id="path10" />
<path
   style="fill:#74d6d0;stroke-width:0.103433"
   d="m 47.850424,54.457898 c -1.969785,0 -3.887445,-0.77919 -5.460292,-2.182485 -1.57266,1.40341 -3.490413,2.182485 -5.460105,2.182485 -1.969878,0 -3.887351,-0.778965 -5.460104,-2.182485 -1.572753,1.40341 -3.490413,2.182485 -5.460104,2.182485 -1.969692,0 -3.887445,-0.77919 -5.460292,-2.182485 -1.572753,1.40341 -3.490413,2.182485 -5.460105,2.182485 -1.969597,0 -3.887445,-0.77919 -5.460104,-2.182485 -1.5727535,1.40341 -3.4905071,2.182485 -5.4601048,2.182485 -0.9669393,0 -1.7507846,-0.954135 -1.7507846,-2.131135 0,-1.177002 0.7838453,-2.131132 1.7507846,-2.131132 1.6006907,0 3.0855998,-0.78558 4.1813523,-2.21193 0.3310315,-0.431015 0.794064,-0.67557 1.27894,-0.67557 0.4847825,0 0.9477205,0.244665 1.2789405,0.67557 1.095752,1.426465 2.580661,2.21193 4.181351,2.21193 1.600691,0 3.085694,-0.78558 4.181259,-2.21193 0.331031,-0.431015 0.794157,-0.675685 1.27894,-0.675685 0.484782,0 0.94772,0.24467 1.278939,0.675575 1.095753,1.42646 2.580662,2.211925 4.181352,2.211925 1.600691,0 3.0856,-0.78558 4.181259,-2.211925 0.331125,-0.43102 0.794157,-0.67569 1.27894,-0.67569 0.484782,0 0.947908,0.24467 1.278939,0.675575 1.095753,1.42646 2.580662,2.21204 4.181352,2.21204 1.600691,0 3.085694,-0.78558 4.181259,-2.21204 0.331031,-0.43102 0.794064,-0.675685 1.27894,-0.675685 0.484688,0 0.947908,0.244665 1.27894,0.67557 1.095752,1.42646 2.580755,2.21204 4.181446,2.21204 0.966939,0 1.750784,0.95413 1.750784,2.131137 -9.5e-4,1.177115 -0.784783,2.13136 -1.751722,2.13136 z"
   id="path12" />
<path
   style="fill:#ccf7f5;stroke-width:0.103433"
   d="m 25.542943,50.173151 c -1.421066,-0.137515 -2.726256,-0.902895 -3.71457,-2.18956 -0.331032,-0.43102 -0.794158,-0.675575 -1.27894,-0.675575 -0.484782,0 -0.947908,0.24467 -1.27894,0.675685 -1.095658,1.426465 -2.580567,2.212045 -4.181258,2.212045 -1.600691,0 -3.0856,-0.78558 -4.181352,-2.212045 -0.331032,-0.431015 -0.794158,-0.67557 -1.27894,-0.67557 -0.4847825,0 -0.947721,0.244665 -1.27894,0.67557 -1.0957525,1.426465 -2.5806616,2.212045 -4.1813523,2.212045 -0.9668456,0 -1.7506909,0.95413 -1.7506909,2.131132 0,1.177 0.7838453,2.131135 1.7507847,2.131135 1.9695976,0 3.887445,-0.77919 5.4601045,-2.182485 1.572753,1.403405 3.490507,2.182485 5.460105,2.182485 1.969785,0 3.887445,-0.77919 5.460104,-2.182485 1.448253,1.292145 3.188819,2.05513 4.993228,2.16799 z"
   id="path14" />
<path
   style="fill:#cccccc;stroke-width:0.0625245"
   d="m 43.877195,48.173171 c -0.262537,-0.301455 -0.594063,-0.6151 -0.736724,-0.69699 -0.586159,-0.33646 -1.344,-0.221065 -1.869629,0.284685 l -0.288237,0.27733 v -1.726165 -1.726165 h -2.833552 -2.833552 v -2.103965 -2.103969 h 2.833552 2.833552 v -2.103965 -2.103965 h -2.833552 -2.833552 v -2.103965 -2.103965 h 2.833552 2.833552 v -2.44888 -2.44888 h -2.833552 -2.833552 v -0.827789 c 0,-0.54213 0.02093,-0.82779 0.06066,-0.82779 0.03336,0 0.562527,0.14186 1.175924,0.31524 1.314845,0.37165 1.848665,0.432695 2.441706,0.2792 0.944324,-0.244405 1.666949,-0.84954 2.215465,-1.855245 0.341204,-0.625605 0.462113,-1.13007 0.495298,-2.06653 0.02602,-0.734295 0.01505,-0.86272 -0.118191,-1.38289 -0.08078,-0.315385 -0.25252,-0.772385 -0.381641,-1.01556 l -0.234765,-0.44214 0.02864,-1.86553 c 0.02407,-1.56782 0.04828,-1.97525 0.151676,-2.55306 0.125782,-0.702875 0.424666,-1.75795 0.655291,-2.31321 0.475755,-1.145439 1.48653,-2.5840994 2.342782,-3.3345394 1.277234,-1.1193969 2.852898,-1.7693883 4.290577,-1.7699428 0.684898,-3.425e-4 0.995925,0.1112265 1.340631,0.4805664 0.942816,1.0101915 0.751541,2.7922268 -0.369506,3.4425668 -0.279022,0.161864 -0.459955,0.212904 -0.874457,0.246669 -1.115999,0.09092 -1.981726,0.531965 -2.733155,1.392425 -0.701319,0.803075 -1.085611,1.62745 -1.272751,2.730275 -0.08092,0.476865 -0.09014,2.193715 -0.09014,16.779504 0,8.936555 -0.01913,16.247484 -0.04251,16.246509 -0.02337,-0.001 -0.257306,-0.24842 -0.519842,-0.54987 z"
   id="path881" /><path
   style="fill:#e6e6e6;stroke-width:0.0625245"
   d="m 34.918804,36.040027 c 0,-0.07149 -0.106047,-0.38967 -0.235659,-0.707075 -0.175837,-0.430595 -0.337678,-0.69967 -0.637549,-1.05997 -0.628709,-0.7554 -0.809787,-0.841 -3.441295,-1.62676 -1.25822,-0.375705 -2.733958,-0.81702 -3.279417,-0.980705 l -0.991744,-0.29761 -0.0146,-4.26058 c -0.01384,-4.037314 -0.0094,-4.258659 0.08501,-4.224014 0.126184,0.0463 8.785261,2.45644 8.825486,2.45644 0.01639,0 0.0298,0.388025 0.0298,0.86228 v 0.862279 h -2.74855 -2.748546 v 2.44888 2.44888 h 2.748546 2.748546 v 2.103965 2.103965 h -0.170013 c -0.128751,0 -0.170014,-0.03155 -0.170015,-0.129975 z"
   id="path883" /><path
   style="fill:#e6e6e6;stroke-width:0.0625245"
   d="m 26.304805,44.899156 v -5.267794 l 0.352142,0.09999 c 0.629351,0.178715 1.639587,0.49557 1.656751,0.519635 0.0175,0.02455 -0.318127,9.460189 -0.337665,9.492729 -0.02756,0.0459 -1.10593,0.346395 -1.373705,0.38279 l -0.297523,0.04045 z"
   id="path885" /><path
   style="fill:#e6e6e6;stroke-width:0.0625245"
   d="m 28.203285,14.817473 c -0.841565,-0.24029 -1.559358,-0.446685 -1.595097,-0.45866 -0.08107,-0.02715 0.223878,-1.14075 0.487666,-1.78082 1.281433,-3.1093494 3.961993,-5.1720717 6.722981,-5.1734102 0.525147,-2.28e-4 0.600255,0.017015 0.920088,0.2115569 1.049582,0.638423 1.271879,2.3173589 0.440773,3.3290193 -0.344086,0.418835 -0.584479,0.526339 -1.415068,0.632844 -1.349942,0.173095 -2.28301,0.73694 -3.024666,1.82778 -0.289362,0.425595 -0.80821,1.55936 -0.80821,1.766065 0,0.13666 -0.03091,0.13032 -1.728467,-0.354375 z"
   id="path887" /><path
   style="fill:#e6e6e6;stroke-width:0.0625245"
   d="m 34.787503,44.189216 c 0.03462,-0.77998 0.131301,-3.452969 0.131301,-3.630424 0,-0.154965 0.02434,-0.18086 0.170013,-0.18086 h 0.170013 v 2.103969 2.103965 h -0.244468 -0.244468 z"
   id="path889" /></svg>
