<?xml version="1.0" encoding="UTF-8" standalone="no"?>
<!-- Uploaded to: SVG Repo, www.svgrepo.com, Generator: SVG Repo Mixer Tools -->

<svg
   height="113.34122"
   width="154.89963"
   version="1.1"
   id="Capa_1"
   viewBox="0 0 99.136342 72.538802"
   xml:space="preserve"
   sodipodi:docname="pool-ladder-person-hot.svg"
   inkscape:version="1.2 (dc2aedaf03, 2022-05-15)"
   xmlns:inkscape="http://www.inkscape.org/namespaces/inkscape"
   xmlns:sodipodi="http://sodipodi.sourceforge.net/DTD/sodipodi-0.dtd"
   xmlns="http://www.w3.org/2000/svg"
   xmlns:svg="http://www.w3.org/2000/svg"><defs
   id="defs19" /><sodipodi:namedview
   id="namedview17"
   pagecolor="#ffffff"
   bordercolor="#000000"
   borderopacity="0.25"
   inkscape:showpageshadow="2"
   inkscape:pageopacity="0.0"
   inkscape:pagecheckerboard="0"
   inkscape:deskcolor="#d1d1d1"
   showgrid="false"
   inkscape:zoom="1.05875"
   inkscape:cx="320.66116"
   inkscape:cy="285.24203"
   inkscape:window-width="1920"
   inkscape:window-height="1027"
   inkscape:window-x="-8"
   inkscape:window-y="-8"
   inkscape:window-maximized="1"
   inkscape:current-layer="Capa_1" />
<path
   style="fill:#f0a479;stroke-width:0.175527"
   d="m 16.77111,48.258098 c -3.462616,-0.5278 -5.781407,-3.41566 -5.179297,-6.44997 l 0.58661,-2.95548 c 0.602437,-3.03455 3.897342,-5.06658 7.359918,-4.53895 l 3.372424,0.51408 c 3.462838,0.52793 5.781734,3.41543 5.179479,6.44994 l -0.586571,2.95564 c -0.602292,3.03435 -3.897562,5.06645 -7.360139,4.53882 z"
   id="path2" />
<path
   id="path4"
   style="fill:#707070;stroke-width:0.175527"
   d="m 65.53564,2.1442682 c -8.498259,0 -15.412386,6.05934 -15.412386,13.5070698 v 48.89701 c 0,1.69478 1.567713,3.06847 3.50159,3.06847 1.933877,0 3.50159,-1.37369 3.50159,-3.06847 v -8.71366 h 22.378065 v 8.36305 c 0,1.69478 1.567713,3.06867 3.501588,3.06867 1.933877,0 3.50159,-1.37389 3.50159,-3.06867 v -48.5466 c 0,-4.0636 3.772328,-7.3697398 8.409208,-7.3697398 1.933877,0 3.50159,-1.37388 3.50159,-3.06867 1.87e-4,-1.69461 -1.567713,-3.06846 -3.50159,-3.06846 -8.498259,0 -15.412386,6.05934 -15.412386,13.5070698 v 8.76831 H 57.126434 v -8.76831 c 0,-4.06359 3.772325,-7.3697298 8.409206,-7.3697298 1.933877,0 3.50159,-1.37389 3.50159,-3.06867 0,-1.69478 -1.567713,-3.06867 -3.50159,-3.06867 z M 57.1262,30.556988 h 22.378299 v 7.01377 H 57.1262 Z m 0,13.15111 h 22.378299 v 5.98904 H 57.1262 Z" />
<path
   style="fill:#575757;stroke-width:0.175527"
   d="m 94.916952,2.1442882 c -8.498266,0 -15.412342,6.05925 -15.412342,13.5068298 v 8.76837 H 68.1674 v 6.1373 h 11.33721 v 7.01378 H 68.1674 v 6.13731 h 11.33721 v 5.98908 H 68.1674 v 6.13731 h 11.33721 v 8.36316 c 0,1.69478 1.56769,3.06865 3.501569,3.06865 1.933879,0 3.50157,-1.37387 3.50157,-3.06865 v -48.54631 c 0,-4.0636 3.772319,-7.3695298 8.409203,-7.3695298 1.933879,0 3.50157,-1.37387 3.50157,-3.06865 0,-1.69479 -1.567691,-3.06865 -3.50157,-3.06865 z"
   id="path6" />
<path
   id="path8"
   style="fill:#f0a479;stroke-width:0.175527"
   d="m 16.152911,50.415628 c -0.368126,0.001 -0.733097,0.0245 -1.09243,0.069 -3.114277,0.38557 -5.8155392,2.35554 -6.675756,5.18676 l -3.9827653,13.11209 c 0.051827,0.006 0.1043497,0.0104 0.1558606,0.0168 0.3254684,0.0576 0.6431491,0.14535 0.9733669,0.18013 0.4931216,0.0559 0.9895549,0.08 1.4866523,0.0891 0.5158377,-0.0376 1.0304004,-0.0878 1.5410276,-0.16309 0.6086418,-0.10233 1.203538,-0.25623 1.8047019,-0.38677 0.508764,-0.11926 1.022986,-0.2254 1.521574,-0.37485 0.428176,-0.14107 0.855893,-0.28439 1.292354,-0.40505 0.588836,-0.17303 1.179803,-0.34142 1.751967,-0.55458 0.568332,-0.19081 1.153563,-0.42301 1.767904,-0.39539 0.08776,0.004 0.176091,0.0133 0.26508,0.0288 0.262379,0.0545 0.519209,0.12749 0.788913,0.15262 0.414045,0.0629 0.82979,0.11939 1.240088,0.19923 0.531987,0.11758 1.054743,0.26476 1.557434,0.45887 0.257568,0.0911 0.523358,0.19132 0.797818,0.23169 v -1.7e-4 c 0.01607,0.002 0.031,0.005 0.04687,0.008 l 1.4822,-4.87968 23.214086,2.09405 c 3.744343,0.33777 7.092352,-2.04871 7.477794,-5.33012 0.385437,-3.28141 -2.33778,-6.2153 -6.082313,-6.55307 l -29.95289,-2.70207 c -0.08954,-0.008 -0.178525,-0.0132 -0.267424,-0.0181 -0.372561,-0.0443 -0.743993,-0.0653 -1.112118,-0.0641 z M 2.988433,78.629108 c 0.00171,0.006 0.025006,0.0589 0.041016,0.0957 -0.00103,-0.0108 -0.00322,-0.0219 -0.00375,-0.0327 -0.025548,-0.0452 -0.040117,-0.0726 -0.037266,-0.0631 z m 0.5854733,1.40308 c 0.00941,0.0267 0.017826,0.0534 0.027188,0.0801 0.015916,-0.015 0.041994,-0.0401 0.058594,-0.0557 -0.028684,-0.008 -0.057161,-0.0163 -0.085782,-0.0244 z M 32.273349,100.46226 c -0.03904,-9.9e-4 -0.142082,0.0553 -0.104297,0.0466 0.02361,-0.005 0.09777,-0.0303 0.145781,-0.045 -0.01373,-3.3e-4 -0.02785,-10e-4 -0.04148,-0.002 z m -0.22969,2.13821 0.0084,0.0926 c 0.04009,-0.0271 0.08562,-0.0472 0.128206,-0.0713 -0.04556,-0.006 -0.09108,-0.0117 -0.136643,-0.0214 z m 13.168932,0.52377 c -0.05551,0.0726 -0.110077,0.14493 -0.175783,0.21936 -0.07307,0.0634 -0.149389,0.1215 -0.228284,0.17542 l 0.435005,-0.0468 z m -4.86543,0.81749 c -0.08301,0.0283 -0.166134,0.0565 -0.249141,0.0848 l 0.323206,-0.0347 c -0.02449,-0.0169 -0.0496,-0.0331 -0.07407,-0.0501 z m -6.842396,0.5176 c -0.04144,0.0261 -0.08047,0.0527 -0.113204,0.0799 -0.02576,0.0214 0.0655,-0.0241 0.0982,-0.0361 0.0063,-0.019 0.0089,-0.0255 0.015,-0.0438 z" />
<path
   id="path10"
   style="fill:#ccf7f5;stroke-width:0.175527"
   d="m 82.363895,59.696608 c -0.969745,0 -1.895691,0.35235 -2.557754,0.97298 -2.191115,2.05397 -5.161192,3.18513 -8.362565,3.18513 -3.201367,0 -6.171303,-1.13116 -8.3628,-3.18513 -0.662056,-0.62046 -1.58819,-0.97277 -2.557754,-0.97277 -0.969557,0 -1.895738,0.35214 -2.557989,0.97277 -2.191302,2.05381 -5.160957,3.18513 -8.362331,3.18513 -3.201366,0 -6.171302,-1.13116 -8.362799,-3.18513 -0.662431,-0.62046 -1.588424,-0.97277 -2.557989,-0.97277 -0.969557,0 -1.89569,0.35235 -2.557754,0.97297 -2.191122,2.05381 -5.161199,3.18513 -8.362565,3.18513 -3.201366,0 -6.171068,-1.13115 -8.362565,-3.18513 -0.662437,-0.62046 -1.588428,-0.97277 -2.557989,-0.97277 -0.969748,0 -1.895693,0.35215 -2.557754,0.97277 -2.191496,2.05381 -5.1614315,3.18513 -8.3628,3.18513 -1.9338708,0 -3.5015897,1.37369 -3.5015897,3.06847 0,0.68576 0.2600051,1.31672 0.6937555,1.82764 0.4753385,-0.0595 0.9677561,-0.0103 1.4451675,0.0493 0.3254691,0.0576 0.6431484,0.14535 0.9733669,0.18013 0.4931224,0.0559 0.9895541,0.08 1.4866523,0.0891 0.5158388,-0.0376 1.0303996,-0.0878 1.5410276,-0.16309 0.6086433,-0.10233 1.2035369,-0.25623 1.8047019,-0.38677 0.508765,-0.11926 1.022985,-0.2254 1.521574,-0.37485 0.428177,-0.14107 0.855892,-0.28439 1.292354,-0.40505 0.588837,-0.17303 1.179802,-0.34142 1.751967,-0.55458 0.568333,-0.19081 1.153561,-0.42301 1.767904,-0.39539 0.08776,0.004 0.176091,0.0133 0.26508,0.0288 0.26238,0.0545 0.519208,0.12749 0.788913,0.15262 0.414046,0.0629 0.829789,0.11939 1.240088,0.19923 0.531988,0.11758 1.054742,0.26476 1.557434,0.45887 0.257569,0.0911 0.523357,0.19132 0.797818,0.23169 v -1.7e-4 c 1.150958,0.16928 1.823799,0.62034 1.954468,1.06952 0.07965,0.0337 0.160113,0.0658 0.240003,0.099 0.260653,0.12345 0.541499,0.19795 0.820083,0.28201 0.446354,0.10757 0.896852,0.19978 1.35095,0.27832 0.62653,0.10971 1.259248,0.18679 1.893296,0.25428 0.267619,0.0234 0.534815,0.05 0.802036,0.0766 0.300985,-0.0329 0.601325,-0.0692 0.899305,-0.11872 0.497999,-0.12894 0.982483,-0.29453 1.468838,-0.45311 0.46208,-0.17021 0.928358,-0.33174 1.396418,-0.48885 0.388556,-0.15225 0.787909,-0.28098 1.193917,-0.39232 0.297979,-0.0773 0.582599,-0.18819 0.868833,-0.2931 0.240751,-0.0911 0.468965,-0.20402 0.695865,-0.31837 0.247311,-0.14437 0.511669,-0.26375 0.76946,-0.39273 0.240925,-0.13106 0.493938,-0.2434 0.742739,-0.36212 0.07818,-0.0499 0.02717,-0.0185 0.155862,-0.0904 0.455382,-0.25429 0.87531,-0.36468 1.231651,-0.36993 0.27003,-0.004 0.498409,0.0563 0.681567,0.15734 0.202195,0.0206 0.421893,0.0643 0.65813,0.13598 0.380813,0.11555 0.748545,0.25805 1.10157,0.42784 0.395255,0.20362 0.754594,0.45189 1.107432,0.70678 0.268551,0.18148 0.547025,0.3508 0.824537,0.52151 0.125066,0.0639 0.153958,0.0787 0.192189,0.099 0.390588,0.14486 0.785297,0.28145 1.18618,0.4032 0.260558,0.05 0.521862,0.0971 0.783757,0.1405 0.742732,0.14232 1.499814,0.21328 2.253065,0.29762 1.049449,0.12348 2.105147,0.19281 3.160103,0.26764 0.490577,0.037 0.98058,0.0785 1.470244,0.12282 3.352314,-0.26659 6.56799,-1.33417 9.272651,-3.07175 3.145499,2.02095 6.980577,3.14262 10.920319,3.14262 3.939368,0 7.774782,-1.12183 10.920085,-3.14262 3.145686,2.02062 6.981001,3.14262 10.920556,3.14262 1.933871,0 3.501588,-1.37394 3.503463,-3.06888 0,-1.69477 -1.567717,-3.06867 -3.501588,-3.06867 -3.201374,0 -6.171305,-1.13115 -8.362801,-3.18513 -0.662057,-0.62046 -1.588612,-0.97277 -2.557989,-0.97277 z" />
<path
   id="path12"
   style="fill:#74d6d0;stroke-width:0.175527"
   d="m 82.363895,59.696608 c -0.969745,0 -1.895691,0.35235 -2.557754,0.97298 -2.191115,2.05397 -5.161192,3.18513 -8.362565,3.18513 -3.201367,0 -6.171303,-1.13116 -8.3628,-3.18513 -0.662056,-0.62046 -1.58819,-0.97277 -2.557754,-0.97277 -0.969557,0 -1.895738,0.35214 -2.557989,0.97277 -2.191302,2.05381 -5.160957,3.18513 -8.362331,3.18513 -3.201366,0 -6.171302,-1.13116 -8.362799,-3.18513 -0.662431,-0.62046 -1.588424,-0.97277 -2.557989,-0.97277 -0.969557,0 -1.89569,0.35235 -2.557754,0.97297 -2.191122,2.05381 -5.161199,3.18513 -8.362565,3.18513 -3.201366,0 -6.171068,-1.13115 -8.362565,-3.18513 -0.662437,-0.62046 -1.588428,-0.97277 -2.557989,-0.97277 -0.969748,0 -1.895693,0.35215 -2.557754,0.97277 -2.191496,2.05381 -5.1614315,3.18513 -8.3628,3.18513 -1.9338708,0 -3.5015897,1.37369 -3.5015897,3.06847 0,0.68576 0.2600051,1.31672 0.6937555,1.82764 0.4753385,-0.0595 0.9677561,-0.0103 1.4451675,0.0493 0.3254691,0.0576 0.6431484,0.14535 0.9733669,0.18013 0.4931224,0.0559 0.9895541,0.08 1.4866523,0.0891 0.5158388,-0.0376 1.0303996,-0.0878 1.5410276,-0.16309 0.6086433,-0.10233 1.2035369,-0.25623 1.8047019,-0.38677 0.508765,-0.11926 1.022985,-0.2254 1.521574,-0.37485 0.428177,-0.14107 0.855892,-0.28439 1.292354,-0.40505 0.588837,-0.17303 1.179802,-0.34142 1.751967,-0.55458 0.568333,-0.19081 1.153561,-0.42301 1.767904,-0.39539 0.08776,0.004 0.176091,0.0133 0.26508,0.0288 0.26238,0.0545 0.519208,0.12749 0.788913,0.15262 0.414046,0.0629 0.829789,0.11939 1.240088,0.19923 0.531988,0.11758 1.054742,0.26476 1.557434,0.45887 0.257569,0.0911 0.523357,0.19132 0.797818,0.23169 v -1.7e-4 c 1.150958,0.16928 1.823799,0.62034 1.954468,1.06952 0.07965,0.0337 0.160113,0.0658 0.240003,0.099 0.260653,0.12345 0.541499,0.19795 0.820083,0.28201 0.446354,0.10757 0.896852,0.19978 1.35095,0.27832 0.62653,0.10971 1.259248,0.18679 1.893296,0.25428 0.267619,0.0234 0.534815,0.05 0.802036,0.0766 0.300985,-0.0329 0.601325,-0.0692 0.899305,-0.11872 0.497999,-0.12894 0.982483,-0.29453 1.468838,-0.45311 0.46208,-0.17021 0.928358,-0.33174 1.396418,-0.48885 0.388556,-0.15225 0.787909,-0.28098 1.193917,-0.39232 0.297979,-0.0773 0.582599,-0.18819 0.868833,-0.2931 0.240751,-0.0911 0.468965,-0.20402 0.695865,-0.31837 0.247311,-0.14437 0.511669,-0.26375 0.76946,-0.39273 0.240925,-0.13106 0.493938,-0.2434 0.742739,-0.36212 0.07818,-0.0499 0.02717,-0.0185 0.155862,-0.0904 0.455382,-0.25429 0.87531,-0.36468 1.231651,-0.36993 0.27003,-0.004 0.498409,0.0563 0.681567,0.15734 0.202195,0.0206 0.421893,0.0643 0.65813,0.13598 0.380813,0.11555 0.748545,0.25805 1.10157,0.42784 0.395255,0.20362 0.754594,0.45189 1.107432,0.70678 0.268551,0.18148 0.547025,0.3508 0.824537,0.52151 0.125066,0.0639 0.153958,0.0787 0.192189,0.099 0.390588,0.14486 0.785297,0.28145 1.18618,0.4032 0.260558,0.05 0.521862,0.0971 0.783757,0.1405 0.742732,0.14232 1.499814,0.21328 2.253065,0.29762 1.049449,0.12348 2.105147,0.19281 3.160103,0.26764 0.490577,0.037 0.98058,0.0785 1.470244,0.12282 3.352314,-0.26659 6.56799,-1.33417 9.272651,-3.07175 3.145499,2.02095 6.980577,3.14262 10.920319,3.14262 3.939368,0 7.774782,-1.12183 10.920085,-3.14262 3.145686,2.02062 6.981001,3.14262 10.920556,3.14262 1.933871,0 3.501588,-1.37394 3.503463,-3.06888 0,-1.69477 -1.567717,-3.06867 -3.501588,-3.06867 -3.201374,0 -6.171305,-1.13115 -8.362801,-3.18513 -0.662057,-0.62046 -1.588612,-0.97277 -2.557989,-0.97277 z" />
<path
   id="path14"
   style="fill:#ccf7f5;stroke-width:0.175527"
   d="m 38.680977,59.696818 c -0.969557,0 -1.895925,0.35235 -2.557989,0.97297 -2.191309,2.05398 -5.161199,3.18513 -8.362565,3.18513 -3.201366,0 -6.171068,-1.13115 -8.362565,-3.18513 -0.662062,-0.62062 -1.588428,-0.97277 -2.557989,-0.97277 -0.96956,0 -1.895318,0.35231 -2.557754,0.97277 -2.191495,2.05398 -5.1614314,3.18513 -8.3627998,3.18513 -1.9336833,0 -3.5013554,1.3739 -3.5013554,3.06867 0,0.68572 0.2598215,1.31674 0.6935211,1.82765 0.4757038,-0.0597 0.9685321,-0.0106 1.4463394,0.0491 0.3254691,0.0576 0.6431484,0.14535 0.9733669,0.18013 0.4931224,0.0559 0.9895541,0.08 1.4866523,0.0891 0.5158388,-0.0376 1.0303996,-0.0878 1.5410276,-0.16309 0.6086433,-0.10233 1.2035369,-0.25623 1.8047019,-0.38677 0.508765,-0.11926 1.022985,-0.2254 1.521574,-0.37485 0.428177,-0.14107 0.855892,-0.28439 1.292354,-0.40505 0.588837,-0.17303 1.179802,-0.34142 1.751967,-0.55458 0.568333,-0.19081 1.153561,-0.42301 1.767904,-0.39539 0.08776,0.004 0.176091,0.0133 0.26508,0.0288 0.26238,0.0545 0.519208,0.12749 0.788913,0.15262 0.414046,0.0629 0.829789,0.11939 1.240088,0.19923 0.531988,0.11758 1.054742,0.26476 1.557434,0.45887 0.257569,0.0911 0.523357,0.19132 0.797818,0.23169 v -1.7e-4 c 1.149034,0.169 1.821737,0.61882 1.954,1.06726 0.0801,0.0339 0.160134,0.0678 0.240471,0.10126 0.260653,0.12345 0.541499,0.19795 0.820083,0.28201 0.446354,0.10757 0.896852,0.19978 1.35095,0.27832 0.62653,0.10971 1.259248,0.18679 1.893296,0.25428 0.267619,0.0234 0.534815,0.05 0.802036,0.0766 0.300985,-0.0329 0.601325,-0.0692 0.899305,-0.11872 0.497999,-0.12894 0.982483,-0.29453 1.468838,-0.45311 0.46208,-0.17021 0.928358,-0.33174 1.396418,-0.48885 0.388556,-0.15225 0.787909,-0.28098 1.193917,-0.39232 0.297979,-0.0773 0.582599,-0.18819 0.868833,-0.2931 0.240751,-0.0911 0.468965,-0.20402 0.695865,-0.31837 0.247311,-0.14437 0.511669,-0.26375 0.76946,-0.39273 0.240925,-0.13106 0.493938,-0.2434 0.742739,-0.36212 0.07818,-0.0499 0.02717,-0.0185 0.155862,-0.0904 0.455382,-0.25429 0.87531,-0.36468 1.231651,-0.36993 0.270026,-0.004 0.498419,0.0563 0.681567,0.15734 0.202195,0.0206 0.421893,0.0643 0.65813,0.13598 0.380813,0.11555 0.748545,0.25805 1.10157,0.42784 0.395255,0.20362 0.754594,0.45189 1.107432,0.70678 0.268551,0.18148 0.547025,0.3508 0.824537,0.52151 0.151744,0.0775 0.173597,0.0889 0.240002,0.12447 0.353063,0.13037 0.709691,0.25346 1.071336,0.36459 0.282666,0.0552 0.56641,0.10648 0.850788,0.15364 0.742732,0.14232 1.499814,0.21328 2.253065,0.29762 0.680512,0.0801 1.3639,0.1355 2.047749,0.1863 l 0.0013,-5.89456 c -2.842116,-0.198 -5.452655,-1.3002 -7.429277,-3.15288 -0.662063,-0.62063 -1.58819,-0.97277 -2.557754,-0.97277 z" />
<path
   style="fill:#f2f2f2;stroke-width:0.106104"
   d="m 85.384368,60.979598 c -0.498706,-0.41401 -1.160763,-0.86592 -1.471239,-1.00425 -1.183295,-0.5272 -2.705691,-0.3771 -3.789405,0.37362 l -0.576474,0.39933 v -2.48553 -2.48554 h -5.667104 -5.667104 v -3.02953 -3.02953 h 5.667104 5.667104 v -3.02954 -3.02953 h -5.667104 -5.667104 v -3.02954 -3.02953 h 5.667104 5.667104 v -3.52618 -3.52618 h -5.667104 -5.667104 v -3.02953 -3.02954 h 5.65917 5.659171 l 0.04595,-5.28927 c 0.04368,-5.02747 0.05846,-5.33827 0.298636,-6.27925 0.260125,-1.01913 0.862862,-2.54329 1.317194,-3.3308298 0.951509,-1.64934 2.973059,-3.72089 4.685563,-4.80146 2.554469,-1.61183 5.705796,-2.54777 8.581154,-2.54857 1.369797,-4.9e-4 1.99185,0.16016 2.681263,0.69198 1.885631,1.45459 1.503081,4.02057 -0.739013,4.95701 -0.558044,0.23307 -0.91991,0.30656 -1.748914,0.35518 -2.231997,0.13091 -3.963452,0.76599 -5.46631,2.0049698 -1.402638,1.15637 -2.171221,2.3434 -2.545501,3.93137 -0.16184,0.68665 -0.180287,3.15877 -0.180287,24.16108 0,12.86789 -0.03825,23.39512 -0.08501,23.39385 -0.04675,-0.001 -0.493038,-0.34105 -0.991743,-0.75506 z"
   id="path377" /><path
   style="fill:#e6e6e6;stroke-width:0.106104"
   d="m 51.939231,63.104888 c 1.833094,-1.83643 2.20667,-4.47018 0.951091,-6.7053 -0.403232,-0.71781 -1.535826,-1.84074 -2.230657,-2.21162 l -0.465226,-0.24832 0.03095,-20.11412 0.03095,-20.11413 0.240596,-0.84429 c 0.515952,-1.81058 1.27145,-3.3493098 2.317274,-4.7196198 0.778233,-1.0197 2.559693,-2.63455 3.700396,-3.35432 2.595765,-1.6379 5.714372,-2.55282 8.705103,-2.55386 1.050294,-3.3e-4 1.200511,0.0245 1.840177,0.30462 2.099164,0.91928 2.543758,3.3368 0.881546,4.79351 -0.688172,0.60308 -1.168959,0.75789 -2.830136,0.91124 -3.372525,0.31134 -5.659507,1.60919 -7.09421,4.0259298 -0.873566,1.4715 -0.909872,1.76338 -0.910775,7.32204 l -8.4e-4,4.89195 h 5.497092 5.497091 v 3.02954 3.02953 H 62.602562 57.10547 v 3.52618 3.52618 h 5.497092 5.497091 v 3.02953 3.02954 H 62.602562 57.10547 v 3.02953 3.02954 h 5.497092 5.497091 v 3.02953 3.02953 H 62.602562 57.10547 v 2.77976 2.77976 l -0.651717,0.45053 c -0.831316,0.57468 -2.673025,1.37408 -3.766346,1.63478 -1.298903,0.30974 -1.351668,0.28737 -0.748223,-0.31717 z"
   id="path448" /><path
   style="fill:#cccccc;stroke-width:0.106104"
   d="m 85.327697,60.860918 c -1.24625,-0.95935 -1.842689,-1.20761 -2.904309,-1.20888 -0.961584,-10e-4 -1.572355,0.1705 -2.321559,0.65247 l -0.554579,0.35677 v -2.44203 -2.44202 h -5.667104 -5.667104 v -3.02953 -3.02953 h 5.667104 5.667104 v -3.02954 -3.02953 h -5.667104 -5.667104 v -3.02954 -3.02953 h 5.667104 5.667104 v -3.52618 -3.52618 h -5.667104 -5.667104 v -3.02953 -3.02954 h 5.649408 5.649408 l 0.07437,-1.50573 c 0.0409,-0.82815 0.07475,-3.02953 0.07523,-4.89195 4.8e-4,-1.86242 0.04837,-3.74829 0.106443,-4.19081 0.197274,-1.50333 1.048251,-3.68599 1.935939,-4.9654598 0.658258,-0.94878 2.011371,-2.3923 2.981635,-3.18084 2.579823,-2.09666 6.255714,-3.41154 9.581468,-3.42734 1.413893,-0.007 1.95729,0.0981 2.589289,0.49928 1.337795,0.84928 1.775794,2.38434 1.045677,3.66479 -0.601244,1.05443 -1.55049,1.53988 -3.347626,1.71199 -0.617442,0.0591 -1.425695,0.17529 -1.796118,0.25813 -2.799233,0.62606 -5.208941,2.6836398 -6.015252,5.1362398 -0.105017,0.31944 -0.169212,0.71055 -0.142654,0.86913 0.02656,0.15858 0.0061,0.28833 -0.04542,0.28833 -0.05154,0 -0.101174,4.81622 -0.110292,10.7027 -0.0091,5.88648 -0.04737,16.42732 -0.08501,23.42409 l -0.06843,12.72139 z"
   id="path519" /></svg>
