<?xml version="1.0" encoding="UTF-8" standalone="no"?>
<!-- Uploaded to: SVG Repo, www.svgrepo.com, Generator: SVG Repo Mixer Tools -->

<svg
   height="88.783936"
   width="83.116852"
   version="1.1"
   id="Capa_1"
   viewBox="0 0 53.195094 56.822054"
   xml:space="preserve"
   sodipodi:docname="pool-ladder-person-cold.svg"
   inkscape:version="1.2 (dc2aedaf03, 2022-05-15)"
   xmlns:inkscape="http://www.inkscape.org/namespaces/inkscape"
   xmlns:sodipodi="http://sodipodi.sourceforge.net/DTD/sodipodi-0.dtd"
   xmlns="http://www.w3.org/2000/svg"
   xmlns:svg="http://www.w3.org/2000/svg"><defs
   id="defs19" /><sodipodi:namedview
   id="namedview17"
   pagecolor="#ffffff"
   bordercolor="#000000"
   borderopacity="0.25"
   inkscape:showpageshadow="2"
   inkscape:pageopacity="0.0"
   inkscape:pagecheckerboard="0"
   inkscape:deskcolor="#d1d1d1"
   showgrid="false"
   inkscape:zoom="1.05875"
   inkscape:cx="321.60567"
   inkscape:cy="156.78867"
   inkscape:window-width="1920"
   inkscape:window-height="1027"
   inkscape:window-x="-8"
   inkscape:window-y="-8"
   inkscape:window-maximized="1"
   inkscape:current-layer="Capa_1" />
<path
   style="fill:#f0a479;stroke-width:0.0987545"
   d="M 27.322279,12.431111 C 25.691963,11.703347 24.902024,9.6468623 25.557806,7.8379588 L 26.19662,6.0760751 c 0.65597,-1.8090075 2.50913,-2.6855285 4.139446,-1.9578685 l 1.587847,0.7088315 c 1.630409,0.727868 2.420442,2.7841447 1.764566,4.5931522 l -0.638814,1.7619877 c -0.655876,1.808903 -2.509224,2.685424 -4.13954,1.957764 z"
   id="path2" />
<path
   style="fill:#707070;stroke-width:0.0987545"
   d="m 49.876436,12.109759 c -4.249133,0 -7.706171,3.835948 -7.706171,8.550915 v 5.55102 H 30.98118 v -5.55102 c 0,-2.572557 1.88616,-4.665554 4.204602,-4.665554 0.96694,0 1.750785,-0.869759 1.750785,-1.942681 0,-1.072921 -0.783845,-1.94268 -1.750785,-1.94268 -4.249133,0 -7.706171,3.835948 -7.706171,8.550915 v 30.955354 c 0,1.072918 0.783845,1.942678 1.750785,1.942678 0.966939,0 1.750784,-0.86976 1.750784,-1.942678 v -5.51638 h 11.189085 v 5.29449 c 0,1.072918 0.783845,1.942678 1.750784,1.942678 0.96694,0 1.750785,-0.86976 1.750785,-1.942678 V 20.660569 c 0,-2.572556 1.88616,-4.665553 4.204602,-4.665553 0.966939,0 1.750785,-0.869759 1.750785,-1.942681 9.3e-5,-1.072817 -0.783846,-1.942576 -1.750785,-1.942576 z m -7.706265,17.987296 v 4.440232 H 30.981087 V 30.097055 Z M 30.981087,42.214183 v -3.79153 h 11.189084 v 3.79153 z"
   id="path4" />
<path
   style="fill:#575757;stroke-width:0.0987545"
   d="m 49.876436,12.109759 c -4.249133,0 -7.706171,3.835948 -7.706171,8.55081 V 26.21159 H 36.50166 v 3.885361 h 5.668605 v 4.440236 H 36.50166 v 3.885361 h 5.668605 v 3.79153 H 36.50166 v 3.88536 h 5.668605 v 5.294495 c 0,1.072918 0.783845,1.942678 1.750784,1.942678 0.96694,0 1.750785,-0.86976 1.750785,-1.942678 V 20.660569 c 0,-2.572556 1.88616,-4.665449 4.204602,-4.665449 0.966939,0 1.750785,-0.869759 1.750785,-1.942681 0,-1.072921 -0.783846,-1.94268 -1.750785,-1.94268 z"
   id="path6" />
<path
   style="fill:#f0a479;stroke-width:0.0987545"
   d="m 37.707723,48.810183 0.554814,-13.717876 c 0.01781,-0.4419 -0.03656,-0.86903 -0.151032,-1.26703 -0.332625,-1.17029 -1.19194,-2.124935 -2.344504,-2.437535 l -8.91958,-2.417868 2.578224,-7.111199 11.374522,2.887234 c 1.834691,0.465724 3.662351,-0.807135 4.08207,-2.842919 0.41972,-2.035783 -0.727407,-4.063557 -2.562192,-4.52928 L 27.643641,13.648237 c -0.04387,-0.01113 -0.08775,-0.0205 -0.131531,-0.02955 -1.939223,-0.566212 -4.000414,0.543222 -4.768416,2.661082 L 18.19231,28.833182 c -0.83222,2.295745 0.170251,4.905335 2.239036,5.828665 0.247688,0.11048 0.499595,0.1912 0.752345,0.244775 l 10.423802,2.825861 -0.447939,11.0777"
   id="path8" />
<path
   style="fill:#ccf7f5;stroke-width:0.0987545"
   d="m 49.059403,55.062396 c -1.969785,0 -3.887445,-0.71029 -5.460292,-1.98949 -1.572659,1.279305 -3.490413,1.98949 -5.460104,1.98949 -1.969879,0 -3.887351,-0.71008 -5.460105,-1.98949 -1.572753,1.279305 -3.490413,1.98949 -5.460104,1.98949 -1.969691,0 -3.887445,-0.71029 -5.460292,-1.98949 -1.572753,1.279305 -3.490413,1.98949 -5.460104,1.98949 -1.969598,0 -3.887445,-0.71029 -5.460104,-1.98949 -1.5727536,1.279305 -3.4905071,1.98949 -5.4601048,1.98949 -0.9669394,0 -1.7507847,-0.86976 -1.7507847,-1.94268 0,-1.07292 0.7838453,-1.942678 1.7507847,-1.942678 1.6006907,0 3.0855997,-0.716115 4.1813522,-2.01633 0.3310315,-0.392905 0.7940636,-0.615835 1.2789396,-0.615835 0.484782,0 0.947721,0.22303 1.27894,0.615835 1.095752,1.30032 2.580661,2.01633 4.181352,2.01633 1.600691,0 3.085693,-0.716115 4.181258,-2.01633 0.331032,-0.392905 0.794158,-0.61594 1.27894,-0.61594 0.484782,0 0.947721,0.223035 1.27894,0.615835 1.095752,1.30032 2.580661,2.01633 4.181352,2.01633 1.60069,0 3.0856,-0.716115 4.181258,-2.01633 0.331126,-0.392905 0.794158,-0.615935 1.27894,-0.615935 0.484782,0 0.947908,0.22303 1.27894,0.61583 1.095752,1.30032 2.580661,2.016435 4.181352,2.016435 1.60069,0 3.085693,-0.716115 4.181258,-2.016435 0.331032,-0.392905 0.794064,-0.615935 1.27894,-0.615935 0.484688,0 0.947908,0.22303 1.27894,0.61583 1.095752,1.300325 2.580755,2.016435 4.181446,2.016435 0.966939,0 1.750784,0.869758 1.750784,1.942678 -9.5e-4,1.073025 -0.784783,1.94289 -1.751722,1.94289 z"
   id="path10" />
<path
   style="fill:#74d6d0;stroke-width:0.0987545"
   d="m 49.059403,55.062396 c -1.969785,0 -3.887445,-0.71029 -5.460292,-1.98949 -1.572659,1.279305 -3.490413,1.98949 -5.460104,1.98949 -1.969879,0 -3.887351,-0.71008 -5.460105,-1.98949 -1.572753,1.279305 -3.490413,1.98949 -5.460104,1.98949 -1.969691,0 -3.887445,-0.71029 -5.460292,-1.98949 -1.572753,1.279305 -3.490413,1.98949 -5.460104,1.98949 -1.969598,0 -3.887445,-0.71029 -5.460104,-1.98949 -1.5727536,1.279305 -3.4905071,1.98949 -5.4601048,1.98949 -0.9669394,0 -1.7507847,-0.86976 -1.7507847,-1.94268 0,-1.07292 0.7838453,-1.942678 1.7507847,-1.942678 1.6006907,0 3.0855997,-0.716115 4.1813522,-2.01633 0.3310315,-0.392905 0.7940636,-0.615835 1.2789396,-0.615835 0.484782,0 0.947721,0.22303 1.27894,0.615835 1.095752,1.30032 2.580661,2.01633 4.181352,2.01633 1.600691,0 3.085693,-0.716115 4.181258,-2.01633 0.331032,-0.392905 0.794158,-0.61594 1.27894,-0.61594 0.484782,0 0.947721,0.223035 1.27894,0.615835 1.095752,1.30032 2.580661,2.01633 4.181352,2.01633 1.60069,0 3.0856,-0.716115 4.181258,-2.01633 0.331126,-0.392905 0.794158,-0.615935 1.27894,-0.615935 0.484782,0 0.947908,0.22303 1.27894,0.61583 1.095752,1.30032 2.580661,2.016435 4.181352,2.016435 1.60069,0 3.085693,-0.716115 4.181258,-2.016435 0.331032,-0.392905 0.794064,-0.615935 1.27894,-0.615935 0.484688,0 0.947908,0.22303 1.27894,0.61583 1.095752,1.300325 2.580755,2.016435 4.181446,2.016435 0.966939,0 1.750784,0.869758 1.750784,1.942678 -9.5e-4,1.073025 -0.784783,1.94289 -1.751722,1.94289 z"
   id="path12" />
<path
   style="fill:#ccf7f5;stroke-width:0.0987545"
   d="m 26.751922,51.156543 c -1.421065,-0.12535 -2.726255,-0.82305 -3.71457,-1.99594 -0.331031,-0.392905 -0.794157,-0.615835 -1.278939,-0.615835 -0.484783,0 -0.947909,0.223035 -1.27894,0.61594 -1.095659,1.30032 -2.580568,2.016435 -4.181259,2.016435 -1.60069,0 -3.085599,-0.716115 -4.181351,-2.016435 -0.331032,-0.392905 -0.794158,-0.615835 -1.27894,-0.615835 -0.484783,0 -0.9477211,0.22303 -1.2789401,0.615835 -1.0957525,1.30032 -2.5806615,2.016435 -4.1813522,2.016435 -0.9668457,0 -1.7506909,0.869753 -1.7506909,1.942678 0,1.07292 0.7838452,1.94268 1.7507846,1.94268 1.9695975,0 3.887445,-0.71029 5.4601046,-1.989495 1.572753,1.27931 3.490507,1.989495 5.460104,1.989495 1.969785,0 3.887445,-0.71029 5.460105,-1.989495 1.448252,1.177885 3.188818,1.8734 4.993228,1.976285 z"
   id="path14" />
<path
   style="fill:#cccccc;stroke-width:0.059696"
   d="m 29.256419,29.599802 -1.742634,-0.477425 v -0.946928 -0.946926 l 0.939746,-2.608875 c 0.516861,-1.434882 0.960704,-2.633049 0.986319,-2.662594 0.02561,-0.02954 0.374163,0.02937 0.774552,0.130925 l 0.727981,0.184646 0.01497,1.991358 0.01497,1.991359 h 2.747749 2.74775 v 1.917917 1.917916 l -2.734378,-0.007 -2.734378,-0.007 z"
   id="path1043" /><path
   style="fill:#cccccc;stroke-width:0.059696"
   d="m 27.513785,43.900683 v -7.250206 l 2.013718,0.547805 c 1.107546,0.301295 2.02753,0.563131 2.044409,0.581861 0.01688,0.01875 0.01313,0.163985 -0.0083,0.32279 l -0.03902,0.288735 H 31.247641 30.97072 v 1.917915 1.917915 l 0.212516,-2e-5 0.212517,-2.5e-5 -0.066,1.587805 c -0.0363,0.873295 -0.06818,1.736365 -0.07084,1.91794 -0.0045,0.30879 -0.014,0.330135 -0.146517,0.330135 H 30.97072 v 1.75979 1.75979 l -0.325858,0.285215 c -0.67876,0.5941 -1.897355,1.12991 -2.833552,1.2459 l -0.297523,0.03685 z"
   id="path1045" /><path
   style="fill:#cccccc;stroke-width:0.059696"
   d="m 33.095882,15.003086 c -1.589623,-0.403643 -2.890223,-0.756514 -2.890223,-0.78416 0,-0.09649 0.911001,-0.789337 1.447881,-1.101163 1.055371,-0.612974 2.24573,-0.94735 3.374274,-0.947849 0.525147,-2.08e-4 0.600256,0.01551 0.920089,0.192849 1.048476,0.581356 1.271877,2.112441 0.442504,3.032718 -0.113026,0.125413 -0.250232,0.253557 -0.304902,0.284762 -0.06922,0.03951 -0.976906,-0.166082 -2.989623,-0.677157 z"
   id="path1047" /><path
   style="fill:#e6e6e6;stroke-width:0.059696"
   d="m 45.086174,49.333418 c -0.262537,-0.274795 -0.594063,-0.560705 -0.736724,-0.635355 -0.586159,-0.306705 -1.344,-0.201515 -1.869628,0.25951 l -0.288237,0.25281 v -1.573525 -1.573525 h -2.178538 -2.178538 l 0.02595,-0.424455 c 0.02899,-0.474255 0.137471,-3.056845 0.137471,-3.27281 v -0.13857 h 2.096828 2.096829 v -1.917915 -1.917915 h -2.020459 -2.020459 l 0.03622,-0.770311 c 0.01992,-0.423675 0.05329,-1.286735 0.07416,-1.91792 l 0.03793,-1.147605 h 1.946302 1.946303 v -2.23233 -2.232327 H 39.358032 36.52448 v -1.917916 -1.917917 h 2.833552 2.833552 v -0.718686 -0.718688 l 0.323438,-0.104332 c 0.817406,-0.263671 1.444873,-0.786683 1.943367,-1.619852 0.341204,-0.57028 0.462113,-1.030136 0.495298,-1.883786 0.02618,-0.673371 0.01551,-0.784776 -0.121971,-1.274062 -0.312473,-1.112056 -0.979872,-1.90858 -2.062589,-2.461644 -0.0096,-0.0049 0.05959,-0.197607 0.153821,-0.4282 0.454577,-1.112434 1.50497,-2.52028 2.434373,-3.262801 1.277235,-1.02041 2.852898,-1.612924 4.290577,-1.613429 0.684899,-3.12e-4 0.995925,0.101391 1.340632,0.438071 0.942813,0.920861 0.75154,2.545317 -0.369507,3.138147 -0.279022,0.147551 -0.459955,0.194077 -0.874457,0.224858 -1.115998,0.08288 -1.981726,0.484924 -2.733155,1.269294 -0.701319,0.732063 -1.08561,1.48354 -1.27275,2.488843 -0.08092,0.434697 -0.09014,1.999732 -0.09014,15.295727 0,8.146316 -0.01913,14.810756 -0.0425,14.809866 -0.02338,-10e-4 -0.257306,-0.226455 -0.519841,-0.50125 z"
   id="path1049" /></svg>
