<?xml version="1.0" encoding="iso-8859-1"?>
<!-- Uploaded to: SVG Repo, www.svgrepo.com, Generator: SVG Repo Mixer Tools -->
<svg height="800px" width="800px" version="1.1" id="Capa_1" xmlns="http://www.w3.org/2000/svg" xmlns:xlink="http://www.w3.org/1999/xlink" 
	 viewBox="0 0 512.003 512.003" xml:space="preserve">
<path style="fill:#F0A479;" d="M119.762,97.116c-17.39-6.996-25.816-26.765-18.821-44.154l6.814-16.937
	c6.997-17.39,26.764-25.816,44.154-18.821l16.937,6.814c17.391,6.997,25.818,26.764,18.822,44.154l-6.814,16.938
	c-6.996,17.389-26.765,25.815-44.155,18.82L119.762,97.116z"/>
<path style="fill:#707070;" d="M493.327,84.355c-45.324,0-82.199,36.875-82.199,82.2v53.362h-119.35v-53.362
	c0-24.73,20.119-44.85,44.849-44.85c10.314,0,18.675-8.361,18.675-18.675s-8.361-18.675-18.675-18.675
	c-45.324,0-82.199,36.875-82.199,82.2v297.574c0,10.314,8.361,18.675,18.675,18.675s18.675-8.361,18.675-18.675V411.1h119.35v50.896
	c0,10.314,8.361,18.675,18.675,18.675s18.675-8.361,18.675-18.675V166.554c0-24.73,20.119-44.85,44.849-44.85
	c10.314,0,18.675-8.361,18.675-18.675C512.003,92.716,503.641,84.355,493.327,84.355z M411.127,257.267v42.684h-119.35v-42.684
	H411.127z M291.777,373.749v-36.448h119.35v36.448H291.777z"/>
<path style="fill:#575757;" d="M493.327,84.355c-45.324,0-82.199,36.875-82.199,82.199v53.362h-60.465v37.35h60.465v42.684h-60.465
	v37.35h60.465v36.448h-60.465v37.35h60.465v50.896c0,10.314,8.361,18.675,18.675,18.675s18.675-8.361,18.675-18.675v-295.44
	c0-24.73,20.119-44.849,44.849-44.849c10.314,0,18.675-8.361,18.675-18.675S503.641,84.355,493.327,84.355z"/>
<path style="fill:#F0A479;" d="M222.077,461.336l5.918-131.87c0.19-4.248-0.39-8.354-1.611-12.18
	c-3.548-11.25-12.714-20.427-25.008-23.432l-95.142-23.243l27.501-68.36l121.328,27.755c19.57,4.477,39.065-7.759,43.542-27.329
	c4.477-19.57-7.759-39.063-27.33-43.54l-156.548-35.813c-0.468-0.107-0.936-0.197-1.403-0.284
	c-20.685-5.443-42.671,5.222-50.863,25.581L13.913,269.297c-8.877,22.069,1.816,47.155,23.883,56.031
	c2.642,1.062,5.329,1.838,8.025,2.353l111.187,27.165l-4.778,106.49"/>
<path style="fill:#CCF7F5;" d="M484.612,497.259c-21.011,0-41.466-6.828-58.243-19.125c-16.775,12.298-37.231,19.125-58.241,19.125
	c-21.012,0-41.465-6.826-58.241-19.125c-16.776,12.298-37.231,19.125-58.241,19.125s-41.466-6.828-58.243-19.125
	c-16.776,12.298-37.231,19.125-58.241,19.125c-21.009,0-41.466-6.828-58.241-19.125c-16.776,12.298-37.232,19.125-58.241,19.125
	c-10.314,0-18.675-8.361-18.675-18.675c0-10.314,8.361-18.675,18.675-18.675c17.074,0,32.913-6.884,44.601-19.383
	c3.531-3.777,8.47-5.92,13.642-5.92c5.171,0,10.109,2.144,13.642,5.92c11.688,12.5,27.527,19.383,44.601,19.383
	s32.914-6.884,44.6-19.383c3.531-3.777,8.471-5.921,13.642-5.921c5.171,0,10.109,2.144,13.642,5.92
	c11.688,12.5,27.527,19.383,44.601,19.383s32.913-6.884,44.6-19.383c3.532-3.777,8.471-5.921,13.642-5.921
	c5.171,0,10.111,2.144,13.642,5.92c11.688,12.5,27.527,19.384,44.601,19.384c17.074,0,32.914-6.884,44.6-19.384
	c3.531-3.777,8.47-5.921,13.642-5.921c5.17,0,10.111,2.144,13.642,5.92c11.688,12.5,27.528,19.384,44.602,19.384
	c10.314,0,18.675,8.361,18.675,18.675C503.287,488.897,494.926,497.259,484.612,497.259z"/>
<path style="fill:#74D6D0;" d="M484.612,497.259c-21.011,0-41.466-6.828-58.243-19.125c-16.775,12.298-37.231,19.125-58.241,19.125
	c-21.012,0-41.465-6.826-58.241-19.125c-16.776,12.298-37.231,19.125-58.241,19.125s-41.466-6.828-58.243-19.125
	c-16.776,12.298-37.231,19.125-58.241,19.125c-21.009,0-41.466-6.828-58.241-19.125c-16.776,12.298-37.232,19.125-58.241,19.125
	c-10.314,0-18.675-8.361-18.675-18.675c0-10.314,8.361-18.675,18.675-18.675c17.074,0,32.913-6.884,44.601-19.383
	c3.531-3.777,8.47-5.92,13.642-5.92c5.171,0,10.109,2.144,13.642,5.92c11.688,12.5,27.527,19.383,44.601,19.383
	s32.914-6.884,44.6-19.383c3.531-3.777,8.471-5.921,13.642-5.921c5.171,0,10.109,2.144,13.642,5.92
	c11.688,12.5,27.527,19.383,44.601,19.383s32.913-6.884,44.6-19.383c3.532-3.777,8.471-5.921,13.642-5.921
	c5.171,0,10.111,2.144,13.642,5.92c11.688,12.5,27.527,19.384,44.601,19.384c17.074,0,32.914-6.884,44.6-19.384
	c3.531-3.777,8.47-5.921,13.642-5.921c5.17,0,10.111,2.144,13.642,5.92c11.688,12.5,27.528,19.384,44.602,19.384
	c10.314,0,18.675,8.361,18.675,18.675C503.287,488.897,494.926,497.259,484.612,497.259z"/>
<path style="fill:#CCF7F5;" d="M246.666,459.712c-15.158-1.205-29.08-7.912-39.622-19.187c-3.531-3.777-8.471-5.92-13.642-5.92
	c-5.171,0-10.111,2.144-13.642,5.921c-11.687,12.5-27.526,19.384-44.6,19.384s-32.913-6.884-44.601-19.384
	c-3.531-3.777-8.471-5.92-13.642-5.92s-10.109,2.144-13.642,5.92c-11.688,12.5-27.527,19.384-44.601,19.384
	C8.361,459.91,0,468.271,0,478.585s8.361,18.675,18.675,18.675c21.009,0,41.466-6.828,58.241-19.125
	c16.776,12.298,37.232,19.125,58.241,19.125c21.011,0,41.466-6.828,58.241-19.125c15.448,11.323,34.014,18.009,53.261,18.998
	L246.666,459.712z"/>
</svg>