<?xml version="1.0" encoding="UTF-8" standalone="no"?>
<!-- Uploaded to: SVG Repo, www.svgrepo.com, Generator: SVG Repo Mixer Tools -->

<svg
   height="844.39197"
   width="797.16644"
   version="1.1"
   id="Capa_1"
   viewBox="0 0 510.18951 540.41402"
   xml:space="preserve"
   sodipodi:docname="pool-ladder-person-freezing.svg"
   inkscape:version="1.2 (dc2aedaf03, 2022-05-15)"
   xmlns:inkscape="http://www.inkscape.org/namespaces/inkscape"
   xmlns:sodipodi="http://sodipodi.sourceforge.net/DTD/sodipodi-0.dtd"
   xmlns="http://www.w3.org/2000/svg"
   xmlns:svg="http://www.w3.org/2000/svg"><defs
   id="defs19" /><sodipodi:namedview
   id="namedview17"
   pagecolor="#ffffff"
   bordercolor="#000000"
   borderopacity="0.25"
   inkscape:showpageshadow="2"
   inkscape:pageopacity="0.0"
   inkscape:pagecheckerboard="0"
   inkscape:deskcolor="#d1d1d1"
   showgrid="false"
   inkscape:zoom="1.05875"
   inkscape:cx="359.38607"
   inkscape:cy="379.69303"
   inkscape:window-width="1920"
   inkscape:window-height="1027"
   inkscape:window-x="-8"
   inkscape:window-y="-8"
   inkscape:window-maximized="1"
   inkscape:current-layer="Capa_1" />
<path
   style="fill:#f0a479"
   d="m 261.21265,91.071101 c -17.39,-6.996 -25.816,-26.765 -18.821,-44.154001 l 6.814,-16.936999 c 6.997,-17.39 26.764,-25.8160004 44.154,-18.821 l 16.937,6.814 c 17.391,6.997 25.818,26.763999 18.822,44.154 l -6.814,16.938 c -6.996,17.389 -26.765,25.814999 -44.155,18.82 z"
   id="path2" />
<path
   style="fill:#707070"
   d="m 493.327,124.85583 c -45.324,0 -82.199,36.875 -82.199,82.2 v 53.362 h -119.35 v -53.362 c 0,-24.73 20.119,-44.85 44.849,-44.85 10.314,0 18.675,-8.361 18.675,-18.675 0,-10.314 -8.361,-18.675 -18.675,-18.675 -45.324,0 -82.199,36.875 -82.199,82.2 v 297.574 c 0,10.314 8.361,18.675 18.675,18.675 10.314,0 18.675,-8.361 18.675,-18.675 v -53.029 h 119.35 v 50.896 c 0,10.314 8.361,18.675 18.675,18.675 10.314,0 18.675,-8.361 18.675,-18.675 v -295.442 c 0,-24.73 20.119,-44.85 44.849,-44.85 10.314,0 18.675,-8.361 18.675,-18.675 0.001,-10.313 -8.361,-18.674 -18.675,-18.674 z m -82.2,172.912 v 42.684 h -119.35 v -42.684 z m -119.35,116.482 v -36.448 h 119.35 v 36.448 z"
   id="path4" />
<path
   style="fill:#575757"
   d="m 493.327,124.85583 c -45.324,0 -82.199,36.875 -82.199,82.199 v 53.362 h -60.465 v 37.35 h 60.465 v 42.684 h -60.465 v 37.35 h 60.465 v 36.448 h -60.465 v 37.35 h 60.465 v 50.896 c 0,10.314 8.361,18.675 18.675,18.675 10.314,0 18.675,-8.361 18.675,-18.675 v -295.44 c 0,-24.73 20.119,-44.849 44.849,-44.849 10.314,0 18.675,-8.361 18.675,-18.675 0,-10.314 -8.361,-18.675 -18.675,-18.675 z"
   id="path6" />
<path
   style="fill:#f0a479"
   d="m 361.71418,434.73844 5.918,-131.87 c 0.19,-4.248 -0.39,-8.354 -1.611,-12.18 -3.548,-11.25 -12.714,-20.427 -25.008,-23.432 l -95.142,-23.243 27.501,-68.36 121.328,27.755 c 19.57,4.477 39.065,-7.759 43.542,-27.329 4.477,-19.57 -7.759,-39.063 -27.33,-43.54 l -156.548,-35.812998 c -0.468,-0.107 -0.936,-0.197 -1.403,-0.284 -20.685,-5.443 -42.671,5.221998 -50.863,25.580998 l -48.548,120.676 c -8.877,22.069 1.816,47.155 23.883,56.031 2.642,1.062 5.329,1.838 8.025,2.353 l 111.187,27.165 -4.778,106.49"
   id="path8" />
<path
   style="fill:#ccf7f5"
   d="m 484.612,537.75983 c -21.011,0 -41.466,-6.828 -58.243,-19.125 -16.775,12.298 -37.231,19.125 -58.241,19.125 -21.012,0 -41.465,-6.826 -58.241,-19.125 -16.776,12.298 -37.231,19.125 -58.241,19.125 -21.01,0 -41.466,-6.828 -58.243,-19.125 -16.776,12.298 -37.231,19.125 -58.241,19.125 -21.009,0 -41.466,-6.828 -58.241,-19.125 -16.776,12.298 -37.232,19.125 -58.241,19.125 -10.314,0 -18.675,-8.361 -18.675,-18.675 0,-10.314 8.361,-18.675 18.675,-18.675 17.074,0 32.913,-6.884 44.601,-19.383 3.531,-3.777 8.47,-5.92 13.642,-5.92 5.171,0 10.109,2.144 13.642,5.92 11.688,12.5 27.527,19.383 44.601,19.383 17.074,0 32.914,-6.884 44.6,-19.383 3.531,-3.777 8.471,-5.921 13.642,-5.921 5.171,0 10.109,2.144 13.642,5.92 11.688,12.5 27.527,19.383 44.601,19.383 17.074,0 32.913,-6.884 44.6,-19.383 3.532,-3.777 8.471,-5.921 13.642,-5.921 5.171,0 10.111,2.144 13.642,5.92 11.688,12.5 27.527,19.384 44.601,19.384 17.074,0 32.914,-6.884 44.6,-19.384 3.531,-3.777 8.47,-5.921 13.642,-5.921 5.17,0 10.111,2.144 13.642,5.92 11.688,12.5 27.528,19.384 44.602,19.384 10.314,0 18.675,8.361 18.675,18.675 -0.01,10.315 -8.371,18.677 -18.685,18.677 z"
   id="path10" />
<path
   style="fill:#74d6d0"
   d="m 484.612,537.75983 c -21.011,0 -41.466,-6.828 -58.243,-19.125 -16.775,12.298 -37.231,19.125 -58.241,19.125 -21.012,0 -41.465,-6.826 -58.241,-19.125 -16.776,12.298 -37.231,19.125 -58.241,19.125 -21.01,0 -41.466,-6.828 -58.243,-19.125 -16.776,12.298 -37.231,19.125 -58.241,19.125 -21.009,0 -41.466,-6.828 -58.241,-19.125 -16.776,12.298 -37.232,19.125 -58.241,19.125 -10.314,0 -18.675,-8.361 -18.675,-18.675 0,-10.314 8.361,-18.675 18.675,-18.675 17.074,0 32.913,-6.884 44.601,-19.383 3.531,-3.777 8.47,-5.92 13.642,-5.92 5.171,0 10.109,2.144 13.642,5.92 11.688,12.5 27.527,19.383 44.601,19.383 17.074,0 32.914,-6.884 44.6,-19.383 3.531,-3.777 8.471,-5.921 13.642,-5.921 5.171,0 10.109,2.144 13.642,5.92 11.688,12.5 27.527,19.383 44.601,19.383 17.074,0 32.913,-6.884 44.6,-19.383 3.532,-3.777 8.471,-5.921 13.642,-5.921 5.171,0 10.111,2.144 13.642,5.92 11.688,12.5 27.527,19.384 44.601,19.384 17.074,0 32.914,-6.884 44.6,-19.384 3.531,-3.777 8.47,-5.921 13.642,-5.921 5.17,0 10.111,2.144 13.642,5.92 11.688,12.5 27.528,19.384 44.602,19.384 10.314,0 18.675,8.361 18.675,18.675 -0.01,10.315 -8.371,18.677 -18.685,18.677 z"
   id="path12" />
<path
   style="fill:#ccf7f5"
   d="m 246.666,500.21283 c -15.158,-1.205 -29.08,-7.912 -39.622,-19.187 -3.531,-3.777 -8.471,-5.92 -13.642,-5.92 -5.171,0 -10.111,2.144 -13.642,5.921 -11.687,12.5 -27.526,19.384 -44.6,19.384 -17.074,0 -32.913,-6.884 -44.601,-19.384 -3.531,-3.777 -8.471,-5.92 -13.642,-5.92 -5.171,0 -10.109,2.144 -13.642,5.92 -11.688,12.5 -27.527,19.384 -44.601,19.384 -10.313,0 -18.674,8.361 -18.674,18.675 0,10.314 8.361,18.675 18.675,18.675 21.009,0 41.466,-6.828 58.241,-19.125 16.776,12.298 37.232,19.125 58.241,19.125 21.011,0 41.466,-6.828 58.241,-19.125 15.448,11.323 34.014,18.009 53.261,18.998 z"
   id="path14" />
</svg>
