<?xml version="1.0" encoding="UTF-8" standalone="no"?>
<!-- Uploaded to: SVG Repo, www.svgrepo.com, Generator: SVG Repo Mixer Tools -->

<svg
   height="844.39197"
   width="797.16644"
   version="1.1"
   id="Capa_1"
   viewBox="0 0 510.18951 540.41402"
   xml:space="preserve"
   sodipodi:docname="pool-ladder-person-cold.svg"
   inkscape:version="1.2 (dc2aedaf03, 2022-05-15)"
   xmlns:inkscape="http://www.inkscape.org/namespaces/inkscape"
   xmlns:sodipodi="http://sodipodi.sourceforge.net/DTD/sodipodi-0.dtd"
   xmlns="http://www.w3.org/2000/svg"
   xmlns:svg="http://www.w3.org/2000/svg"><defs
   id="defs19" /><sodipodi:namedview
   id="namedview17"
   pagecolor="#ffffff"
   bordercolor="#000000"
   borderopacity="0.25"
   inkscape:showpageshadow="2"
   inkscape:pageopacity="0.0"
   inkscape:pagecheckerboard="0"
   inkscape:deskcolor="#d1d1d1"
   showgrid="false"
   inkscape:zoom="1.05875"
   inkscape:cx="340.49587"
   inkscape:cy="381.58205"
   inkscape:window-width="1920"
   inkscape:window-height="1027"
   inkscape:window-x="-8"
   inkscape:window-y="-8"
   inkscape:window-maximized="1"
   inkscape:current-layer="Capa_1" />
<path
   style="fill:#f0a479"
   d="m 252.74979,127.94499 c -17.39,-6.996 -25.816,-26.765 -18.821,-44.154002 l 6.814,-16.936999 c 6.997,-17.39 26.764,-25.816001 44.154,-18.821 l 16.937,6.814 c 17.391,6.997 25.818,26.763999 18.822,44.154 l -6.814,16.938001 c -6.996,17.389 -26.765,25.815 -44.155,18.82 z"
   id="path2" />
<path
   style="fill:#707070"
   d="m 493.327,124.85583 c -45.324,0 -82.199,36.875 -82.199,82.2 v 53.362 h -119.35 v -53.362 c 0,-24.73 20.119,-44.85 44.849,-44.85 10.314,0 18.675,-8.361 18.675,-18.675 0,-10.314 -8.361,-18.675 -18.675,-18.675 -45.324,0 -82.199,36.875 -82.199,82.2 v 297.574 c 0,10.314 8.361,18.675 18.675,18.675 10.314,0 18.675,-8.361 18.675,-18.675 v -53.029 h 119.35 v 50.896 c 0,10.314 8.361,18.675 18.675,18.675 10.314,0 18.675,-8.361 18.675,-18.675 v -295.442 c 0,-24.73 20.119,-44.85 44.849,-44.85 10.314,0 18.675,-8.361 18.675,-18.675 0.001,-10.313 -8.361,-18.674 -18.675,-18.674 z m -82.2,172.912 v 42.684 h -119.35 v -42.684 z m -119.35,116.482 v -36.448 h 119.35 v 36.448 z"
   id="path4" />
<path
   style="fill:#575757"
   d="m 493.327,124.85583 c -45.324,0 -82.199,36.875 -82.199,82.199 v 53.362 h -60.465 v 37.35 h 60.465 v 42.684 h -60.465 v 37.35 h 60.465 v 36.448 h -60.465 v 37.35 h 60.465 v 50.896 c 0,10.314 8.361,18.675 18.675,18.675 10.314,0 18.675,-8.361 18.675,-18.675 v -295.44 c 0,-24.73 20.119,-44.849 44.849,-44.849 10.314,0 18.675,-8.361 18.675,-18.675 0,-10.314 -8.361,-18.675 -18.675,-18.675 z"
   id="path6" />
<path
   style="fill:#f0a479"
   d="m 363.52765,477.65723 5.918,-131.87 c 0.19,-4.248 -0.39,-8.354 -1.611,-12.18 -3.548,-11.25 -12.714,-20.427 -25.008,-23.432 l -95.142,-23.243 27.501,-68.36 121.328,27.755 c 19.57,4.477 39.065,-7.759 43.542,-27.329 4.477,-19.57 -7.759,-39.063 -27.33,-43.54 l -156.548,-35.813 c -0.468,-0.107 -0.936,-0.197 -1.403,-0.284 -20.685,-5.443 -42.671,5.222 -50.863,25.581 l -48.548,120.676 c -8.877,22.069 1.816,47.155 23.883,56.031 2.642,1.062 5.329,1.838 8.025,2.353 l 111.187,27.165 -4.778,106.49"
   id="path8" />
<path
   style="fill:#ccf7f5"
   d="m 484.612,537.75983 c -21.011,0 -41.466,-6.828 -58.243,-19.125 -16.775,12.298 -37.231,19.125 -58.241,19.125 -21.012,0 -41.465,-6.826 -58.241,-19.125 -16.776,12.298 -37.231,19.125 -58.241,19.125 -21.01,0 -41.466,-6.828 -58.243,-19.125 -16.776,12.298 -37.231,19.125 -58.241,19.125 -21.009,0 -41.466,-6.828 -58.241,-19.125 -16.776,12.298 -37.232,19.125 -58.241,19.125 -10.314,0 -18.675,-8.361 -18.675,-18.675 0,-10.314 8.361,-18.675 18.675,-18.675 17.074,0 32.913,-6.884 44.601,-19.383 3.531,-3.777 8.47,-5.92 13.642,-5.92 5.171,0 10.109,2.144 13.642,5.92 11.688,12.5 27.527,19.383 44.601,19.383 17.074,0 32.914,-6.884 44.6,-19.383 3.531,-3.777 8.471,-5.921 13.642,-5.921 5.171,0 10.109,2.144 13.642,5.92 11.688,12.5 27.527,19.383 44.601,19.383 17.074,0 32.913,-6.884 44.6,-19.383 3.532,-3.777 8.471,-5.921 13.642,-5.921 5.171,0 10.111,2.144 13.642,5.92 11.688,12.5 27.527,19.384 44.601,19.384 17.074,0 32.914,-6.884 44.6,-19.384 3.531,-3.777 8.47,-5.921 13.642,-5.921 5.17,0 10.111,2.144 13.642,5.92 11.688,12.5 27.528,19.384 44.602,19.384 10.314,0 18.675,8.361 18.675,18.675 -0.01,10.315 -8.371,18.677 -18.685,18.677 z"
   id="path10" />
<path
   style="fill:#74d6d0"
   d="m 484.612,537.75983 c -21.011,0 -41.466,-6.828 -58.243,-19.125 -16.775,12.298 -37.231,19.125 -58.241,19.125 -21.012,0 -41.465,-6.826 -58.241,-19.125 -16.776,12.298 -37.231,19.125 -58.241,19.125 -21.01,0 -41.466,-6.828 -58.243,-19.125 -16.776,12.298 -37.231,19.125 -58.241,19.125 -21.009,0 -41.466,-6.828 -58.241,-19.125 -16.776,12.298 -37.232,19.125 -58.241,19.125 -10.314,0 -18.675,-8.361 -18.675,-18.675 0,-10.314 8.361,-18.675 18.675,-18.675 17.074,0 32.913,-6.884 44.601,-19.383 3.531,-3.777 8.47,-5.92 13.642,-5.92 5.171,0 10.109,2.144 13.642,5.92 11.688,12.5 27.527,19.383 44.601,19.383 17.074,0 32.914,-6.884 44.6,-19.383 3.531,-3.777 8.471,-5.921 13.642,-5.921 5.171,0 10.109,2.144 13.642,5.92 11.688,12.5 27.527,19.383 44.601,19.383 17.074,0 32.913,-6.884 44.6,-19.383 3.532,-3.777 8.471,-5.921 13.642,-5.921 5.171,0 10.111,2.144 13.642,5.92 11.688,12.5 27.527,19.384 44.601,19.384 17.074,0 32.914,-6.884 44.6,-19.384 3.531,-3.777 8.47,-5.921 13.642,-5.921 5.17,0 10.111,2.144 13.642,5.92 11.688,12.5 27.528,19.384 44.602,19.384 10.314,0 18.675,8.361 18.675,18.675 -0.01,10.315 -8.371,18.677 -18.685,18.677 z"
   id="path12" />
<path
   style="fill:#ccf7f5"
   d="m 246.666,500.21283 c -15.158,-1.205 -29.08,-7.912 -39.622,-19.187 -3.531,-3.777 -8.471,-5.92 -13.642,-5.92 -5.171,0 -10.111,2.144 -13.642,5.921 -11.687,12.5 -27.526,19.384 -44.6,19.384 -17.074,0 -32.913,-6.884 -44.601,-19.384 -3.531,-3.777 -8.471,-5.92 -13.642,-5.92 -5.171,0 -10.109,2.144 -13.642,5.92 -11.688,12.5 -27.527,19.384 -44.601,19.384 -10.313,0 -18.674,8.361 -18.674,18.675 0,10.314 8.361,18.675 18.675,18.675 21.009,0 41.466,-6.828 58.241,-19.125 16.776,12.298 37.232,19.125 58.241,19.125 21.011,0 41.466,-6.828 58.241,-19.125 15.448,11.323 34.014,18.009 53.261,18.998 z"
   id="path14" />
<path
   style="fill:#cccccc;stroke-width:0.94451"
   d="m 427.15466,457.79065 -29.04368,-7.17104 v -14.22307 -14.22306 l 15.66232,-39.18591 c 8.61428,-21.55226 16.01161,-39.54901 16.43852,-39.99279 0.4269,-0.44378 6.236,0.44116 12.9091,1.96654 l 12.13292,2.77342 0.24939,29.91067 0.2494,29.91067 h 45.79547 45.79547 v 28.80756 28.80755 l -45.57261,-0.10475 -45.57261,-0.10476 z"
   id="path1043"
   transform="scale(0.64000374)" /><path
   style="fill:#cccccc;stroke-width:0.94451"
   d="M 398.11098,672.59327 V 563.69348 l 33.56172,8.22816 c 18.45894,4.52549 33.79189,8.45834 34.07321,8.73966 0.28133,0.28132 0.21884,2.46308 -0.13885,4.84836 l -0.65035,4.33686 h -4.61531 -4.61531 v 28.80755 28.80756 l 3.54191,-3.5e-4 3.54192,-3.5e-4 -1.09998,23.84923 c -0.605,13.11707 -1.13628,26.08063 -1.18064,28.8079 -0.0754,4.63808 -0.23333,4.95868 -2.44193,4.95868 h -2.36128 v 26.43247 26.43247 l -5.43093,4.284 c -11.31257,8.92353 -31.62233,16.97153 -47.2255,18.71371 l -4.95868,0.55366 z"
   id="path1045"
   transform="scale(0.64000374)" /><path
   style="fill:#cccccc;stroke-width:0.94451"
   d="m 491.14522,238.54454 c -26.49351,-6.0628 -48.17001,-11.36301 -48.17001,-11.77825 0,-1.44929 15.18322,-11.85603 24.13115,-16.53974 17.58939,-9.207 37.42854,-14.22942 56.23747,-14.23692 8.75238,-0.003 10.00419,0.23297 15.33469,2.89665 17.47447,8.7321 21.19779,31.72935 7.37501,45.55213 -1.88375,1.88374 -4.17049,3.80848 -5.08165,4.2772 -1.15367,0.59347 -16.28165,-2.49459 -49.82666,-10.17107 z"
   id="path1047"
   transform="scale(0.64000374)" /><path
   style="fill:#e6e6e6;stroke-width:0.94451"
   d="m 690.98185,754.1942 c -4.37558,-4.12752 -9.90096,-8.42194 -12.27863,-9.54316 -9.76925,-4.60681 -22.39983,-3.02684 -31.16023,3.89786 l -4.80391,3.79727 V 728.71145 705.07674 H 606.4304 570.12171 l 0.43246,-6.37544 c 0.4832,-7.1234 2.29117,-45.91447 2.29117,-49.15834 v -2.08133 h 34.94687 34.94687 v -28.80756 -28.80755 h -33.67405 -33.67405 l 0.60366,-11.57025 c 0.33201,-6.36364 0.88818,-19.32704 1.23593,-28.80756 l 0.63226,-17.23731 h 32.43812 32.43813 v -33.5301 -33.53011 h -47.2255 -47.2255 v -28.80755 -28.80756 h 47.2255 47.2255 v -10.79484 -10.79485 l 5.39059,-1.56709 c 13.62333,-3.96041 24.08104,-11.81617 32.3892,-24.33056 5.68669,-8.56575 7.70182,-15.47289 8.2549,-28.29492 0.43628,-10.11419 0.25852,-11.78752 -2.03283,-19.13671 -5.20784,-16.70334 -16.33108,-28.66731 -34.37621,-36.97447 -0.16044,-0.0739 0.9932,-2.9681 2.56366,-6.43166 7.57622,-16.70902 25.08263,-37.85519 40.57257,-49.00803 21.28707,-15.32681 47.54793,-24.2265 71.50906,-24.2341 11.41488,-0.004 16.59862,1.52292 22.34368,6.57993 15.71347,13.83155 12.52558,38.23127 -6.15839,47.13571 -4.65033,2.21626 -7.66586,2.91508 -14.57417,3.37742 -18.59983,1.24481 -33.02851,7.28368 -45.55223,19.0651 -11.68856,10.99576 -18.09337,22.28312 -21.21234,37.38301 -1.34866,6.52925 -1.50238,30.03643 -1.50238,229.74539 0,122.35957 -0.31877,222.46101 -0.70838,222.44765 -0.38961,-0.0133 -4.2884,-3.40135 -8.66396,-7.52886 z"
   id="path1049"
   transform="scale(0.64000374)" /></svg>
