<?xml version="1.0" encoding="UTF-8" standalone="no"?>
<!-- Uploaded to: SVG Repo, www.svgrepo.com, Generator: SVG Repo Mixer Tools -->

<svg
   version="1.1"
   id="Layer_1"
   viewBox="0 0 100.82657 100.82657"
   xml:space="preserve"
   sodipodi:docname="power-button-red-icon.svg"
   inkscape:version="1.3.2 (091e20e, 2023-11-25, custom)"
   width="100.82657"
   height="100.82657"
   xmlns:inkscape="http://www.inkscape.org/namespaces/inkscape"
   xmlns:sodipodi="http://sodipodi.sourceforge.net/DTD/sodipodi-0.dtd"
   xmlns="http://www.w3.org/2000/svg"
   xmlns:svg="http://www.w3.org/2000/svg"><defs
   id="defs4" /><sodipodi:namedview
   id="namedview4"
   pagecolor="#ffffff"
   bordercolor="#000000"
   borderopacity="0.25"
   inkscape:showpageshadow="2"
   inkscape:pageopacity="0.0"
   inkscape:pagecheckerboard="0"
   inkscape:deskcolor="#d1d1d1"
   inkscape:zoom="2.7373737"
   inkscape:cx="148.5"
   inkscape:cy="148.5"
   inkscape:window-width="1920"
   inkscape:window-height="1009"
   inkscape:window-x="-8"
   inkscape:window-y="-8"
   inkscape:window-maximized="1"
   inkscape:current-layer="Layer_1" />
<g
   id="g4"
   transform="scale(0.33670034)">
	<g
   id="XMLID_17_">
		<g
   id="g3">
			<rect
   x="138.57001"
   y="20.92"
   style="fill:#bdc3c7"
   width="19.870001"
   height="99.870003"
   id="rect1" />
			<path
   style="fill:#d35400"
   d="m 228.51,49.12 c 29.94,24.15 47.58,60.68 47.58,99.38 0,70.35 -57.24,127.58 -127.59,127.58 -70.35,0 -127.58,-57.23 -127.58,-127.58 0,-38.7 17.63,-75.23 47.58,-99.38 l 15.82,15.83 c -25.68,19.8 -41.18,50.74 -41.18,83.55 0,58.1 47.27,105.36 105.36,105.36 58.1,0 105.36,-47.26 105.36,-105.36 0,-32.81 -15.5,-63.75 -41.18,-83.55 z"
   id="path1" />
			<path
   d="M 233.53,26.74 C 273.27,54.55 297,100.06 297,148.5 297,230.38 230.39,297 148.5,297 66.62,297 0,230.38 0,148.5 0,100.06 23.73,54.55 63.48,26.74 c 4.16,-2.9 9.8,-2.41 13.39,1.18 l 31.2,31.2 c 2.29,2.29 3.39,5.52 2.98,8.73 -0.42,3.22 -2.3,6.06 -5.1,7.69 -25.84,15.11 -41.89,43.07 -41.89,72.96 0,46.56 37.88,84.45 84.44,84.45 46.57,0 84.45,-37.89 84.45,-84.45 0,-29.89 -16.05,-57.85 -41.9,-72.96 -2.8,-1.63 -4.68,-4.47 -5.09,-7.69 -0.42,-3.21 0.68,-6.44 2.97,-8.73 l 31.21,-31.2 c 3.58,-3.59 9.23,-4.08 13.39,-1.18 z m 42.56,121.76 c 0,-38.7 -17.64,-75.23 -47.58,-99.38 l -15.83,15.83 c 25.68,19.8 41.18,50.74 41.18,83.55 0,58.1 -47.26,105.36 -105.36,105.36 -58.09,0 -105.36,-47.26 -105.36,-105.36 0,-32.81 15.5,-63.75 41.18,-83.55 L 68.5,49.12 C 38.55,73.27 20.92,109.8 20.92,148.5 c 0,70.35 57.23,127.58 127.58,127.58 70.35,0 127.59,-57.23 127.59,-127.58 z"
   id="path2" />
			<path
   d="m 179.35,10.46 v 120.78 c 0,5.78 -4.68,10.46 -10.45,10.46 h -40.79 c -5.77,0 -10.46,-4.68 -10.46,-10.46 V 10.46 C 117.65,4.68 122.34,0 128.11,0 h 40.79 c 5.77,0 10.45,4.68 10.45,10.46 z M 158.44,120.79 V 20.92 h -19.87 v 99.87 z"
   id="path3" />
		</g>
	</g>
</g>
<path
   style="fill:#d40000;stroke-width:0.123002"
   d="M 46.80197,92.783024 C 38.026202,92.041862 29.977576,88.859828 23.185732,83.44632 21.456025,82.06764 17.954223,78.56235 16.560277,76.814269 11.129066,70.003232 8.011999,62.161936 7.2457125,53.382535 7.0657818,51.321057 7.1687852,46.615795 7.4368892,44.649448 8.6636933,35.651734 12.489752,27.425108 18.420384,21.03321 c 1.105735,-1.191735 3.38719,-3.379447 4.282036,-4.10609 l 0.377695,-0.306701 2.607919,2.610036 2.607919,2.610036 -0.892578,0.734121 c -7.06958,5.814534 -11.641213,14.284674 -12.71122,23.550849 -0.160959,1.393896 -0.191662,2.428408 -0.140543,4.735549 0.07156,3.229788 0.283787,4.931953 0.955196,7.661249 3.203032,13.020408 13.648475,23.234936 26.744115,26.152889 2.893798,0.644791 3.940949,0.745539 7.749077,0.745539 3.808128,0 4.855279,-0.100748 7.749077,-0.745539 6.591101,-1.468619 12.5206,-4.739384 17.353644,-9.572427 5.398723,-5.398724 8.790491,-12.064809 10.023525,-19.699947 0.366512,-2.269505 0.461256,-6.862542 0.18973,-9.197902 -0.716464,-6.162249 -2.834447,-11.764316 -6.331218,-16.746077 -1.620546,-2.308749 -4.23159,-5.124426 -6.386118,-6.886616 l -0.894593,-0.731688 2.608253,-2.61037 2.608249,-2.610369 0.616545,0.515462 c 6.709569,5.609543 11.717361,13.496695 13.916192,21.917675 1.071983,4.105427 1.351684,6.387653 1.349165,11.008613 -0.002,3.668885 -0.06591,4.504215 -0.564697,7.380074 -2.452087,14.138155 -12.16837,26.338983 -25.517481,32.042542 -4.023546,1.719104 -8.542785,2.838643 -13.153236,3.258417 -1.240811,0.112973 -5.598037,0.139051 -6.765067,0.04049 z"
   id="path4" /><path
   style="fill:#ff5555;stroke-width:0.123002"
   d="M 45.510455,92.604919 C 39.76129,91.943734 33.783933,90.026269 29.07063,87.331215 24.895694,84.943993 21.704671,82.378374 18.257511,78.637333 13.114839,73.056232 9.6065098,66.141242 8.0491556,58.516441 7.4596323,55.630135 7.257064,53.5057 7.2571754,50.210549 c 1.121e-4,-3.309674 0.1150037,-4.952296 0.5051081,-7.22162 1.2290138,-7.149431 4.2360415,-13.928567 8.6750055,-19.557194 1.0293,-1.305159 5.883592,-6.282282 6.393288,-6.555064 0.223266,-0.119487 0.516666,0.134052 2.801958,2.42129 l 2.55258,2.554752 -1.085177,0.910453 c -6.449518,5.411078 -10.705451,12.959171 -12.245052,21.717161 -0.250211,1.423316 -0.278176,1.975872 -0.276242,5.458175 0.0024,4.316138 0.117609,5.446447 0.865078,8.487084 1.193817,4.856343 3.282841,9.19033 6.432729,13.345633 1.210335,1.596663 4.772846,5.154798 6.388043,6.380195 3.643965,2.764559 7.710048,4.821024 11.93561,6.036559 3.415138,0.982404 5.785162,1.295778 9.799896,1.295778 4.014734,0 6.384758,-0.313374 9.799899,-1.295778 4.375343,-1.258623 8.84971,-3.568569 12.401825,-6.402596 1.346124,-1.073997 4.509656,-4.237529 5.583653,-5.583653 3.790219,-4.750589 6.285775,-10.372781 7.343337,-16.543667 0.324067,-1.890936 0.464165,-7.182781 0.246134,-9.297155 -0.708454,-6.870383 -3.700949,-13.977894 -8.048511,-19.116129 -1.05098,-1.242116 -3.652549,-3.847866 -4.854054,-4.861854 l -0.651946,-0.5502 2.573081,-2.565806 2.573084,-2.565806 1.030895,0.8994 c 7.443505,6.494053 12.56335,15.561675 14.240717,25.221355 0.597883,3.443094 0.671472,10.186572 0.146603,13.433842 -1.49272,9.235168 -5.37672,17.024363 -11.733835,23.531714 -7.031599,7.197771 -15.523034,11.430427 -25.501831,12.711693 -1.531263,0.19661 -2.558883,0.240727 -5.307506,0.227859 -1.87472,-0.0088 -3.82371,-0.0637 -4.33109,-0.122051 z"
   id="path5" /></svg>
