<?xml version="1.0" encoding="UTF-8" standalone="no"?>
<!-- Uploaded to: SVG Repo, www.svgrepo.com, Generator: SVG Repo Mixer Tools -->

<svg
   version="1.1"
   id="Layer_1"
   viewBox="0 0 100.82657 100.82657"
   xml:space="preserve"
   sodipodi:docname="power-button-orange-icon.svg"
   inkscape:version="1.3.2 (091e20e, 2023-11-25, custom)"
   width="100.82657"
   height="100.82657"
   xmlns:inkscape="http://www.inkscape.org/namespaces/inkscape"
   xmlns:sodipodi="http://sodipodi.sourceforge.net/DTD/sodipodi-0.dtd"
   xmlns="http://www.w3.org/2000/svg"
   xmlns:svg="http://www.w3.org/2000/svg"><defs
   id="defs4" /><sodipodi:namedview
   id="namedview4"
   pagecolor="#ffffff"
   bordercolor="#000000"
   borderopacity="0.25"
   inkscape:showpageshadow="2"
   inkscape:pageopacity="0.0"
   inkscape:pagecheckerboard="0"
   inkscape:deskcolor="#d1d1d1"
   inkscape:zoom="2.7373737"
   inkscape:cx="148.5"
   inkscape:cy="148.5"
   inkscape:window-width="1920"
   inkscape:window-height="1009"
   inkscape:window-x="-8"
   inkscape:window-y="-8"
   inkscape:window-maximized="1"
   inkscape:current-layer="Layer_1" />
<g
   id="g4"
   transform="scale(0.33670034)">
	<g
   id="XMLID_17_">
		<g
   id="g3">
			<rect
   x="138.57001"
   y="20.92"
   style="fill:#bdc3c7"
   width="19.870001"
   height="99.870003"
   id="rect1" />
			<path
   style="fill:#d35400"
   d="m 228.51,49.12 c 29.94,24.15 47.58,60.68 47.58,99.38 0,70.35 -57.24,127.58 -127.59,127.58 -70.35,0 -127.58,-57.23 -127.58,-127.58 0,-38.7 17.63,-75.23 47.58,-99.38 l 15.82,15.83 c -25.68,19.8 -41.18,50.74 -41.18,83.55 0,58.1 47.27,105.36 105.36,105.36 58.1,0 105.36,-47.26 105.36,-105.36 0,-32.81 -15.5,-63.75 -41.18,-83.55 z"
   id="path1" />
			<path
   d="M 233.53,26.74 C 273.27,54.55 297,100.06 297,148.5 297,230.38 230.39,297 148.5,297 66.62,297 0,230.38 0,148.5 0,100.06 23.73,54.55 63.48,26.74 c 4.16,-2.9 9.8,-2.41 13.39,1.18 l 31.2,31.2 c 2.29,2.29 3.39,5.52 2.98,8.73 -0.42,3.22 -2.3,6.06 -5.1,7.69 -25.84,15.11 -41.89,43.07 -41.89,72.96 0,46.56 37.88,84.45 84.44,84.45 46.57,0 84.45,-37.89 84.45,-84.45 0,-29.89 -16.05,-57.85 -41.9,-72.96 -2.8,-1.63 -4.68,-4.47 -5.09,-7.69 -0.42,-3.21 0.68,-6.44 2.97,-8.73 l 31.21,-31.2 c 3.58,-3.59 9.23,-4.08 13.39,-1.18 z m 42.56,121.76 c 0,-38.7 -17.64,-75.23 -47.58,-99.38 l -15.83,15.83 c 25.68,19.8 41.18,50.74 41.18,83.55 0,58.1 -47.26,105.36 -105.36,105.36 -58.09,0 -105.36,-47.26 -105.36,-105.36 0,-32.81 15.5,-63.75 41.18,-83.55 L 68.5,49.12 C 38.55,73.27 20.92,109.8 20.92,148.5 c 0,70.35 57.23,127.58 127.58,127.58 70.35,0 127.59,-57.23 127.59,-127.58 z"
   id="path2" />
			<path
   d="m 179.35,10.46 v 120.78 c 0,5.78 -4.68,10.46 -10.45,10.46 h -40.79 c -5.77,0 -10.46,-4.68 -10.46,-10.46 V 10.46 C 117.65,4.68 122.34,0 128.11,0 h 40.79 c 5.77,0 10.45,4.68 10.45,10.46 z M 158.44,120.79 V 20.92 h -19.87 v 99.87 z"
   id="path3" />
		</g>
	</g>
</g>
<path
   style="fill:#ff7f2a;stroke-width:0.123002"
   d="M 46.80197,92.783024 C 38.026202,92.041862 29.977576,88.859828 23.185732,83.44632 21.456025,82.06764 17.954223,78.56235 16.560277,76.814269 11.129066,70.003232 8.011999,62.161936 7.2457125,53.382535 7.0657818,51.321057 7.1687852,46.615795 7.4368892,44.649448 8.6636933,35.651734 12.489752,27.425108 18.420384,21.03321 c 1.105735,-1.191735 3.38719,-3.379447 4.282036,-4.10609 l 0.377695,-0.306701 2.607919,2.610036 2.607919,2.610036 -0.892578,0.734121 c -7.06958,5.814534 -11.641213,14.284674 -12.71122,23.550849 -0.160959,1.393896 -0.191662,2.428408 -0.140543,4.735549 0.07156,3.229788 0.283787,4.931953 0.955196,7.661249 3.203032,13.020408 13.648475,23.234936 26.744115,26.152889 2.893798,0.644791 3.940949,0.745539 7.749077,0.745539 3.808128,0 4.855279,-0.100748 7.749077,-0.745539 6.591101,-1.468619 12.5206,-4.739384 17.353644,-9.572427 5.398723,-5.398724 8.790491,-12.064809 10.023525,-19.699947 0.366512,-2.269505 0.461256,-6.862542 0.18973,-9.197902 -0.716464,-6.162249 -2.834447,-11.764316 -6.331218,-16.746077 -1.620546,-2.308749 -4.23159,-5.124426 -6.386118,-6.886616 l -0.894593,-0.731688 2.608253,-2.61037 2.608249,-2.610369 0.616545,0.515462 c 6.709569,5.609543 11.717361,13.496695 13.916192,21.917675 1.071983,4.105427 1.351684,6.387653 1.349165,11.008613 -0.002,3.668885 -0.06591,4.504215 -0.564697,7.380074 -2.452087,14.138155 -12.16837,26.338983 -25.517481,32.042542 -4.023546,1.719104 -8.542785,2.838643 -13.153236,3.258417 -1.240811,0.112973 -5.598037,0.139051 -6.765067,0.04049 z"
   id="path4" /><path
   style="fill:#ff9955;stroke-width:0.123002"
   d="M 45.510455,92.604522 C 41.62171,92.155623 37.090697,90.982178 33.456335,89.482744 29.412639,87.814428 24.828374,84.897825 21.553041,81.909633 15.086152,76.009677 10.963812,69.394138 8.7365037,61.34163 7.6626394,57.459232 7.2572508,54.383956 7.2576421,50.123003 c 3.081e-4,-3.354212 0.1306754,-5.063192 0.56767,-7.441575 1.4410017,-7.842778 4.7167239,-14.763466 9.7373429,-20.572292 1.03733,-1.200184 4.930981,-5.052139 5.314069,-5.257162 0.162179,-0.0868 0.717435,0.405875 2.748849,2.439019 l 2.545619,2.547786 -1.538821,1.327645 C 20.453037,28.497747 16.366082,35.892869 14.855021,44.476892 14.60253,45.911239 14.576081,46.442717 14.580164,50 c 0.005,4.372428 0.104603,5.349024 0.857436,8.408586 1.243758,5.054707 3.678535,9.94898 6.98412,14.039138 1.161577,1.437276 3.809804,4.076522 5.309001,5.290997 2.297433,1.861111 5.832275,3.957202 8.616144,5.109198 2.484522,1.028125 5.513148,1.89036 8.253549,2.349744 1.950562,0.326983 8.843633,0.327862 10.790408,0.0013 6.179498,-1.036337 11.644144,-3.417606 16.564899,-7.2183 1.480801,-1.14374 4.727165,-4.37575 5.928232,-5.90202 2.907044,-3.694155 5.015306,-7.800441 6.304232,-12.278821 1.055731,-3.668148 1.358832,-6.284253 1.261172,-10.885303 -0.0731,-3.443586 -0.275276,-4.911229 -1.117145,-8.109472 C 83.04868,35.928929 80.631933,31.219811 77.436088,27.367697 76.378801,26.0933 73.864286,23.551106 72.717296,22.596964 l -0.898942,-0.747798 2.550252,-2.552423 c 2.293589,-2.295541 2.572913,-2.53655 2.775414,-2.394713 0.602172,0.421779 3.151004,2.804088 4.069835,3.803946 5.138701,5.591836 8.650808,12.102581 10.414004,19.305475 0.854538,3.490913 1.116878,5.917101 1.111895,10.283088 -0.0035,3.037643 -0.100838,4.361114 -0.494576,6.722225 -1.2174,7.30032 -4.189111,13.863054 -9.020286,19.920428 -1.261953,1.582249 -4.705373,5.02567 -6.287623,6.287623 -6.573882,5.243128 -13.563148,8.218128 -21.788218,9.274219 -1.531263,0.196609 -2.558883,0.240727 -5.307506,0.227858 -1.87472,-0.0088 -3.82371,-0.06388 -4.33109,-0.122447 z"
   id="path5" /></svg>
