<?xml version="1.0" encoding="UTF-8" standalone="no"?>
<!-- Uploaded to: SVG Repo, www.svgrepo.com, Generator: SVG Repo Mixer Tools -->

<svg
   version="1.1"
   id="Layer_1"
   viewBox="0 0 100.82657 100.82657"
   xml:space="preserve"
   sodipodi:docname="power-button-green-icon.svg"
   inkscape:version="1.3.2 (091e20e, 2023-11-25, custom)"
   width="100.82657"
   height="100.82657"
   xmlns:inkscape="http://www.inkscape.org/namespaces/inkscape"
   xmlns:sodipodi="http://sodipodi.sourceforge.net/DTD/sodipodi-0.dtd"
   xmlns="http://www.w3.org/2000/svg"
   xmlns:svg="http://www.w3.org/2000/svg"><defs
   id="defs4" /><sodipodi:namedview
   id="namedview4"
   pagecolor="#ffffff"
   bordercolor="#000000"
   borderopacity="0.25"
   inkscape:showpageshadow="2"
   inkscape:pageopacity="0.0"
   inkscape:pagecheckerboard="0"
   inkscape:deskcolor="#d1d1d1"
   inkscape:zoom="2.7373737"
   inkscape:cx="148.5"
   inkscape:cy="148.5"
   inkscape:window-width="1920"
   inkscape:window-height="1009"
   inkscape:window-x="-8"
   inkscape:window-y="-8"
   inkscape:window-maximized="1"
   inkscape:current-layer="Layer_1" />
<g
   id="g4"
   transform="scale(0.33670034)">
	<g
   id="XMLID_17_">
		<g
   id="g3">
			<rect
   x="138.57001"
   y="20.92"
   style="fill:#bdc3c7"
   width="19.870001"
   height="99.870003"
   id="rect1" />
			
			<path
   d="M 233.53,26.74 C 273.27,54.55 297,100.06 297,148.5 297,230.38 230.39,297 148.5,297 66.62,297 0,230.38 0,148.5 0,100.06 23.73,54.55 63.48,26.74 c 4.16,-2.9 9.8,-2.41 13.39,1.18 l 31.2,31.2 c 2.29,2.29 3.39,5.52 2.98,8.73 -0.42,3.22 -2.3,6.06 -5.1,7.69 -25.84,15.11 -41.89,43.07 -41.89,72.96 0,46.56 37.88,84.45 84.44,84.45 46.57,0 84.45,-37.89 84.45,-84.45 0,-29.89 -16.05,-57.85 -41.9,-72.96 -2.8,-1.63 -4.68,-4.47 -5.09,-7.69 -0.42,-3.21 0.68,-6.44 2.97,-8.73 l 31.21,-31.2 c 3.58,-3.59 9.23,-4.08 13.39,-1.18 z m 42.56,121.76 c 0,-38.7 -17.64,-75.23 -47.58,-99.38 l -15.83,15.83 c 25.68,19.8 41.18,50.74 41.18,83.55 0,58.1 -47.26,105.36 -105.36,105.36 -58.09,0 -105.36,-47.26 -105.36,-105.36 0,-32.81 15.5,-63.75 41.18,-83.55 L 68.5,49.12 C 38.55,73.27 20.92,109.8 20.92,148.5 c 0,70.35 57.23,127.58 127.58,127.58 70.35,0 127.59,-57.23 127.59,-127.58 z"
   id="path2" />
			<path
   d="m 179.35,10.46 v 120.78 c 0,5.78 -4.68,10.46 -10.45,10.46 h -40.79 c -5.77,0 -10.46,-4.68 -10.46,-10.46 V 10.46 C 117.65,4.68 122.34,0 128.11,0 h 40.79 c 5.77,0 10.45,4.68 10.45,10.46 z M 158.44,120.79 V 20.92 h -19.87 v 99.87 z"
   id="path3" />
		</g>
	</g>
</g>
<path
   style="fill:#5fd35f;stroke-width:0.365314"
   d="M 43.472325,92.231959 C 28.822973,89.934684 16.12539,79.885019 10.482548,66.121772 8.0044434,60.077519 7.4874148,57.243773 7.5164917,49.865314 7.53975,43.963358 7.6408519,42.923108 8.5033118,39.7118 10.509251,32.242831 14.237415,25.643948 19.530254,20.194019 c 1.615408,-1.663352 3.106117,-3.024277 3.312687,-3.024277 0.206571,0 1.423648,1.057464 2.704616,2.349921 l 2.329033,2.34992 -2.066837,1.888973 c -4.740695,4.332728 -8.628929,10.891821 -10.361086,17.478197 -1.197298,4.552622 -1.341738,11.7908 -0.325274,16.300148 2.873143,12.746152 12.285742,22.84661 24.900969,26.720692 3.030275,0.930586 3.738611,1.004215 9.840952,1.022955 5.80341,0.01782 6.914358,-0.07791 9.459808,-0.815183 12.268004,-3.553321 21.586922,-12.872239 25.140243,-25.140243 0.728593,-2.515495 0.835374,-3.701343 0.835374,-9.277151 0,-5.575807 -0.106781,-6.761656 -0.835374,-9.277153 -1.827569,-6.309764 -5.098711,-11.845144 -9.641588,-16.31535 l -2.82036,-2.775246 2.503487,-2.484303 2.503487,-2.484303 2.899586,2.877587 C 91.525742,31.116843 95.676619,48.098191 90.589896,63.281049 83.937717,83.136471 63.91694,95.438032 43.472325,92.231959 Z"
   id="path6" /></svg>
