<?xml version="1.0" encoding="UTF-8" standalone="no"?>
<!-- Uploaded to: SVG Repo, www.svgrepo.com, Generator: SVG Repo Mixer Tools -->

<svg
   version="1.1"
   id="Layer_1"
   viewBox="0 0 297 297"
   xml:space="preserve"
   sodipodi:docname="power-button-red.svg"
   inkscape:version="1.3.2 (091e20e, 2023-11-25, custom)"
   xmlns:inkscape="http://www.inkscape.org/namespaces/inkscape"
   xmlns:sodipodi="http://sodipodi.sourceforge.net/DTD/sodipodi-0.dtd"
   xmlns="http://www.w3.org/2000/svg"
   xmlns:svg="http://www.w3.org/2000/svg"><defs
   id="defs4" /><sodipodi:namedview
   id="namedview4"
   pagecolor="#ffffff"
   bordercolor="#000000"
   borderopacity="0.25"
   inkscape:showpageshadow="2"
   inkscape:pageopacity="0.0"
   inkscape:pagecheckerboard="0"
   inkscape:deskcolor="#d1d1d1"
   inkscape:zoom="2.7373737"
   inkscape:cx="148.5"
   inkscape:cy="148.5"
   inkscape:window-width="1920"
   inkscape:window-height="1009"
   inkscape:window-x="-8"
   inkscape:window-y="-8"
   inkscape:window-maximized="1"
   inkscape:current-layer="Layer_1" />
<g
   id="g4">
	<g
   id="XMLID_17_">
		<g
   id="g3">
			<rect
   x="138.57"
   y="20.92"
   style="fill:#BDC3C7;"
   width="19.87"
   height="99.87"
   id="rect1" />
			<path
   style="fill:#D35400;"
   d="M228.51,49.12c29.94,24.15,47.58,60.68,47.58,99.38c0,70.35-57.24,127.58-127.59,127.58     S20.92,218.85,20.92,148.5c0-38.7,17.63-75.23,47.58-99.38l15.82,15.83c-25.68,19.8-41.18,50.74-41.18,83.55     c0,58.1,47.27,105.36,105.36,105.36c58.1,0,105.36-47.26,105.36-105.36c0-32.81-15.5-63.75-41.18-83.55L228.51,49.12z"
   id="path1" />
			<path
   d="M233.53,26.74C273.27,54.55,297,100.06,297,148.5c0,81.88-66.61,148.5-148.5,148.5C66.62,297,0,230.38,0,148.5     c0-48.44,23.73-93.95,63.48-121.76c4.16-2.9,9.8-2.41,13.39,1.18l31.2,31.2c2.29,2.29,3.39,5.52,2.98,8.73     c-0.42,3.22-2.3,6.06-5.1,7.69c-25.84,15.11-41.89,43.07-41.89,72.96c0,46.56,37.88,84.45,84.44,84.45     c46.57,0,84.45-37.89,84.45-84.45c0-29.89-16.05-57.85-41.9-72.96c-2.8-1.63-4.68-4.47-5.09-7.69c-0.42-3.21,0.68-6.44,2.97-8.73     l31.21-31.2C223.72,24.33,229.37,23.84,233.53,26.74z M276.09,148.5c0-38.7-17.64-75.23-47.58-99.38l-15.83,15.83     c25.68,19.8,41.18,50.74,41.18,83.55c0,58.1-47.26,105.36-105.36,105.36c-58.09,0-105.36-47.26-105.36-105.36     c0-32.81,15.5-63.75,41.18-83.55L68.5,49.12C38.55,73.27,20.92,109.8,20.92,148.5c0,70.35,57.23,127.58,127.58,127.58     S276.09,218.85,276.09,148.5z"
   id="path2" />
			<path
   d="M179.35,10.46v120.78c0,5.78-4.68,10.46-10.45,10.46h-40.79c-5.77,0-10.46-4.68-10.46-10.46V10.46     c0-5.78,4.69-10.46,10.46-10.46h40.79C174.67,0,179.35,4.68,179.35,10.46z M158.44,120.79V20.92h-19.87v99.87H158.44z"
   id="path3" />
		</g>
	</g>
</g>
<path
   style="fill:#d40000;stroke-width:0.365314"
   d="M 139.00185,275.56558 C 112.93782,273.36433 89.0334,263.91369 68.861624,247.83557 63.724393,243.74089 53.324041,233.33018 49.184024,228.13838 33.053327,207.9096 23.795637,184.62095 21.519766,158.54613 20.985372,152.42354 21.291292,138.44891 22.087561,132.60886 25.731169,105.88565 37.094562,81.45257 54.708541,62.468635 57.992574,58.929181 64.768496,52.431676 67.426186,50.273546 l 1.121757,-0.910903 7.745519,7.751807 7.745519,7.751808 -2.650957,2.180339 C 60.39137,84.315764 46.813621,109.47208 43.635701,136.99262 c -0.47805,4.13987 -0.569236,7.21237 -0.417412,14.06458 0.212541,9.59247 0.842846,14.6479 2.836931,22.75391 9.513004,38.67061 40.53597,69.00776 79.43002,77.67408 8.59458,1.91503 11.70462,2.21425 23.01476,2.21425 11.31014,0 14.42018,-0.29922 23.01476,-2.21425 19.57557,-4.3618 37.18618,-14.07597 51.54032,-28.43011 16.03421,-16.03421 26.10776,-35.83248 29.76987,-58.50884 1.08854,-6.74043 1.36993,-20.38175 0.5635,-27.31777 -2.1279,-18.30188 -8.41831,-34.94002 -18.80372,-49.73585 -4.81302,-6.856982 -12.56782,-15.219545 -18.96677,-20.453248 l -2.65694,-2.173114 7.74651,-7.752798 7.7465,-7.752798 1.83114,1.530924 c 19.92742,16.660343 34.80056,40.085184 41.33109,65.095494 3.18379,12.19312 4.0145,18.97133 4.00702,32.69558 -0.006,10.89659 -0.19576,13.37752 -1.67715,21.91882 -7.2827,41.99032 -36.14006,78.22678 -75.78692,95.16635 -11.94993,5.10574 -25.37207,8.43077 -39.06511,9.6775 -3.68521,0.33553 -16.62617,0.41298 -20.09225,0.12025 z"
   id="path4" /></svg>
