<?xml version="1.0" encoding="UTF-8" standalone="no"?>
<!-- Uploaded to: SVG Repo, www.svgrepo.com, Generator: SVG Repo Mixer Tools -->

<svg
   version="1.1"
   id="Layer_1"
   viewBox="0 0 100.82657 100.46126"
   xml:space="preserve"
   sodipodi:docname="power-button-blue-icon.svg"
   inkscape:version="1.3.2 (091e20e, 2023-11-25, custom)"
   width="100.82657"
   height="100.46126"
   xmlns:inkscape="http://www.inkscape.org/namespaces/inkscape"
   xmlns:sodipodi="http://sodipodi.sourceforge.net/DTD/sodipodi-0.dtd"
   xmlns="http://www.w3.org/2000/svg"
   xmlns:svg="http://www.w3.org/2000/svg"><defs
   id="defs4" /><sodipodi:namedview
   id="namedview4"
   pagecolor="#ffffff"
   bordercolor="#000000"
   borderopacity="0.25"
   inkscape:showpageshadow="2"
   inkscape:pageopacity="0.0"
   inkscape:pagecheckerboard="0"
   inkscape:deskcolor="#d1d1d1"
   inkscape:zoom="2.7373737"
   inkscape:cx="148.5"
   inkscape:cy="148.5"
   inkscape:window-width="1920"
   inkscape:window-height="1009"
   inkscape:window-x="-8"
   inkscape:window-y="-8"
   inkscape:window-maximized="1"
   inkscape:current-layer="Layer_1" />
<g
   id="g4"
   transform="scale(0.33670034)">
	<g
   id="XMLID_17_">
		<g
   id="g3">
			<rect
   x="138.57001"
   y="20.92"
   style="fill:#bdc3c7"
   width="19.870001"
   height="99.870003"
   id="rect1" />
			<path
   style="fill:#d35400"
   d="m 228.51,49.12 c 29.94,24.15 47.58,60.68 47.58,99.38 0,70.35 -57.24,127.58 -127.59,127.58 -70.35,0 -127.58,-57.23 -127.58,-127.58 0,-38.7 17.63,-75.23 47.58,-99.38 l 15.82,15.83 c -25.68,19.8 -41.18,50.74 -41.18,83.55 0,58.1 47.27,105.36 105.36,105.36 58.1,0 105.36,-47.26 105.36,-105.36 0,-32.81 -15.5,-63.75 -41.18,-83.55 z"
   id="path1" />
			<path
   d="M 233.53,26.74 C 273.27,54.55 297,100.06 297,148.5 297,230.38 230.39,297 148.5,297 66.62,297 0,230.38 0,148.5 0,100.06 23.73,54.55 63.48,26.74 c 4.16,-2.9 9.8,-2.41 13.39,1.18 l 31.2,31.2 c 2.29,2.29 3.39,5.52 2.98,8.73 -0.42,3.22 -2.3,6.06 -5.1,7.69 -25.84,15.11 -41.89,43.07 -41.89,72.96 0,46.56 37.88,84.45 84.44,84.45 46.57,0 84.45,-37.89 84.45,-84.45 0,-29.89 -16.05,-57.85 -41.9,-72.96 -2.8,-1.63 -4.68,-4.47 -5.09,-7.69 -0.42,-3.21 0.68,-6.44 2.97,-8.73 l 31.21,-31.2 c 3.58,-3.59 9.23,-4.08 13.39,-1.18 z m 42.56,121.76 c 0,-38.7 -17.64,-75.23 -47.58,-99.38 l -15.83,15.83 c 25.68,19.8 41.18,50.74 41.18,83.55 0,58.1 -47.26,105.36 -105.36,105.36 -58.09,0 -105.36,-47.26 -105.36,-105.36 0,-32.81 15.5,-63.75 41.18,-83.55 L 68.5,49.12 C 38.55,73.27 20.92,109.8 20.92,148.5 c 0,70.35 57.23,127.58 127.58,127.58 70.35,0 127.59,-57.23 127.59,-127.58 z"
   id="path2" />
			<path
   d="m 179.35,10.46 v 120.78 c 0,5.78 -4.68,10.46 -10.45,10.46 h -40.79 c -5.77,0 -10.46,-4.68 -10.46,-10.46 V 10.46 C 117.65,4.68 122.34,0 128.11,0 h 40.79 c 5.77,0 10.45,4.68 10.45,10.46 z M 158.44,120.79 V 20.92 h -19.87 v 99.87 z"
   id="path3" />
		</g>
	</g>
</g>
<path
   style="fill:#80b3ff;stroke-width:0.123001"
   d="M 46.801968,92.783021 C 38.0262,92.041856 29.977575,88.859826 23.185731,83.446317 21.456024,82.067637 17.954222,78.562347 16.560277,76.814267 11.129066,70.003227 8.0119987,62.161933 7.2457122,53.382533 7.0657817,51.321053 7.1687847,46.615793 7.4368887,44.649446 8.6636932,35.651733 12.489751,27.425106 18.420383,21.03321 c 1.105735,-1.191736 3.387191,-3.379448 4.282036,-4.106091 l 0.377695,-0.3067 2.607918,2.610036 2.607919,2.610037 -0.892578,0.734121 c -7.069579,5.814532 -11.641212,14.284672 -12.711219,23.550847 -0.16096,1.393895 -0.19166,2.428407 -0.140545,4.735548 0.07156,3.22979 0.283785,4.931955 0.955196,7.66125 3.203031,13.020404 13.648474,23.234934 26.744113,26.152889 2.893798,0.64479 3.94095,0.745535 7.749078,0.745535 3.808127,0 4.855282,-0.10075 7.749077,-0.745535 6.591104,-1.46862 12.520599,-4.739385 17.353644,-9.57243 5.398725,-5.398725 8.790485,-12.064809 10.02352,-19.699944 0.3665,-2.269505 0.46125,-6.862542 0.18975,-9.197903 -0.716465,-6.162249 -2.834445,-11.764316 -6.331215,-16.746077 -1.620545,-2.308748 -4.23159,-5.124425 -6.38612,-6.886615 l -0.894595,-0.731688 2.608255,-2.61037 2.60825,-2.610369 0.616545,0.515462 c 6.70957,5.609543 11.717359,13.496695 13.916189,21.917674 1.071985,4.105428 1.351685,6.387653 1.349165,11.008611 -0.002,3.668885 -0.0659,4.504215 -0.564695,7.380075 -2.45209,14.138154 -12.168369,26.338984 -25.517479,32.042543 -4.023549,1.7191 -8.542784,2.83864 -13.153239,3.258415 -1.24081,0.11295 -5.598032,0.13905 -6.765063,0.0405 z"
   id="path4" /></svg>
