<?xml version="1.0" encoding="iso-8859-1"?>
<!-- Uploaded to: SVG Repo, www.svgrepo.com, Generator: SVG Repo Mixer Tools -->
<svg version="1.1" id="Layer_1" xmlns="http://www.w3.org/2000/svg" xmlns:xlink="http://www.w3.org/1999/xlink" 
	 viewBox="0 0 512 512" xml:space="preserve">
<path style="fill:#3C66B1;" d="M63.428,187.281v-24.235c0-8.026,6.567-14.593,14.593-14.593h62.93
	c8.026,0,14.593,6.567,14.593,14.593v24.235H63.428z"/>
<path style="fill:#C6C3CB;" d="M439.04,178.402h37.949c19.256,0,35.011,15.948,35.011,35.439v97.98
	c0,19.492-15.755,35.439-35.011,35.439H36.266c-19.256,0-35.011-15.948-35.011-35.439v-97.98c0-19.492,15.755-35.439,35.011-35.439
	h141.147H439.04z"/>
<path style="opacity:0.28;fill:#2F2D30;enable-background:new    ;" d="M475.734,178.402h-7.574v90.834
	c0,19.492-15.755,35.439-35.011,35.439H0v7.145c0,19.492,15.755,35.439,35.011,35.439h440.723c19.256,0,35.011-15.948,35.011-35.439
	v-97.98C510.745,194.35,494.99,178.402,475.734,178.402z"/>
<circle style="fill:#57545C;" cx="364.682" cy="222.88" r="83.158"/>
<path style="opacity:0.18;fill:#1D1D20;enable-background:new    ;" d="M417.754,159.071c7.323,12.385,11.542,26.825,11.542,42.255
	c0,45.927-37.231,83.159-83.159,83.159c-20.174,0-38.668-7.188-53.067-19.138c14.474,24.477,41.12,40.903,71.617,40.903
	c45.927,0,83.159-37.231,83.159-83.159C447.844,197.339,436.136,174.325,417.754,159.071z"/>
<circle style="fill:#77757E;" cx="364.682" cy="222.88" r="52.617"/>
<circle style="fill:#5D5D5D;" cx="364.682" cy="222.88" r="30.924"/>
<g>
	<path style="fill:#77757E;" d="M1.255,224.842h200.347c4.317,0,7.818,3.5,7.818,7.818c0,4.317-3.5,7.818-7.818,7.818H1.255V224.842
		z"/>
	<path style="fill:#77757E;" d="M1.255,250.497h200.347c4.317,0,7.818,3.5,7.818,7.818c0,4.317-3.5,7.818-7.818,7.818H1.255V250.497
		z"/>
	<path style="fill:#77757E;" d="M1.255,276.151h200.347c4.317,0,7.818,3.5,7.818,7.818c0,4.317-3.5,7.818-7.818,7.818H1.255V276.151
		z"/>
	<rect x="45.039" y="347.262" style="fill:#77757E;" width="79.218" height="25.016"/>
	<rect x="373.719" y="347.262" style="fill:#77757E;" width="79.218" height="25.016"/>
</g>
<circle style="fill:#FFFFFF;" cx="375.252" cy="212.31" r="20.355"/>
</svg>