<?xml version="1.0" encoding="UTF-8" standalone="no"?>
<!-- Uploaded to: SVG Repo, www.svgrepo.com, Generator: SVG Repo Mixer Tools -->

<svg
   height="800"
   width="800"
   version="1.1"
   id="Layer_1"
   viewBox="0 0 494.94202 494.94201"
   xml:space="preserve"
   sodipodi:docname="propeller-fan.svg"
   inkscape:version="1.3.2 (091e20e, 2023-11-25, custom)"
   xmlns:inkscape="http://www.inkscape.org/namespaces/inkscape"
   xmlns:sodipodi="http://sodipodi.sourceforge.net/DTD/sodipodi-0.dtd"
   xmlns="http://www.w3.org/2000/svg"
   xmlns:svg="http://www.w3.org/2000/svg"><defs
   id="defs8" /><sodipodi:namedview
   id="namedview8"
   pagecolor="#ffffff"
   bordercolor="#000000"
   borderopacity="0.25"
   inkscape:showpageshadow="2"
   inkscape:pageopacity="0.0"
   inkscape:pagecheckerboard="0"
   inkscape:deskcolor="#d1d1d1"
   inkscape:zoom="1.01625"
   inkscape:cx="400"
   inkscape:cy="425.58426"
   inkscape:window-width="1920"
   inkscape:window-height="1009"
   inkscape:window-x="-8"
   inkscape:window-y="-8"
   inkscape:window-maximized="1"
   inkscape:current-layer="Layer_1"><inkscape:page
     x="0"
     y="0"
     width="494.94202"
     height="494.94202"
     id="page9"
     margin="0"
     bleed="0" /></sodipodi:namedview>
<g
   id="g8"
   transform="translate(0,1.826354)">
	<path
   style="fill:#999999"
   d="m 288.872,256.495 c 8.539,-30.192 13.979,-72.033 13.979,-110.083 0,-40.96 -4.92,-72.34 -14.63,-93.27 -7.34,-15.81 -23.33,-26.03 -40.75,-26.03 v 214.304 c 15.746,0.001 30.186,5.677 41.401,15.079 z"
   id="path1" />
	<path
   style="fill:#999999"
   d="m 247.471,27.113 c -17.42,0 -33.41,10.22 -40.75,26.03 -9.71,20.92 -14.63,52.3 -14.63,93.27 0,38.049 5.441,79.891 13.979,110.083 11.215,-9.403 25.655,-15.079 41.401,-15.079 z"
   id="path2" />
	<path
   style="fill:#999999"
   d="m 182.933,305.955 c 0,-3.792 0.348,-7.503 0.978,-11.118 -30.412,7.704 -69.356,23.909 -102.298,42.928 -35.472,20.48 -60.188,40.431 -73.459,59.305 -10.022,14.261 -10.878,33.219 -2.168,48.305 l 185.62,-107.168 c -5.504,-9.495 -8.673,-20.507 -8.673,-32.252 z"
   id="path3" />
	<path
   style="fill:#999999"
   d="M 191.607,338.209 5.986,445.377 c 8.71,15.086 25.556,23.824 42.918,22.276 22.972,-2.051 52.608,-13.48 88.089,-33.965 32.936,-19.016 66.435,-44.633 88.313,-67.115 -14.266,-5.234 -26.173,-15.379 -33.699,-28.364 z"
   id="path4" />
	<path
   style="fill:#999999"
   d="m 269.635,366.572 c 21.878,22.483 55.377,48.1 88.313,67.115 35.472,20.48 65.108,31.909 88.089,33.965 17.362,1.548 34.208,-7.189 42.918,-22.276 L 303.335,338.208 c -7.526,12.986 -19.432,23.131 -33.7,28.364 z"
   id="path5" />
	<path
   style="fill:#999999"
   d="m 486.788,397.071 c -13.262,-18.869 -37.978,-38.82 -73.459,-59.305 -32.942,-19.019 -71.886,-35.224 -102.298,-42.928 0.63,3.615 0.978,7.325 0.978,11.118 0,11.745 -3.169,22.756 -8.674,32.253 l 185.62,107.168 c 8.711,-15.087 7.855,-34.044 -2.167,-48.306 z"
   id="path6" />
	<path
   style="fill:#666666"
   d="m 247.471,241.417 c -15.746,0 -30.186,5.676 -41.401,15.079 -11.43,9.583 -19.49,23.046 -22.158,38.342 -0.631,3.615 -0.978,7.325 -0.978,11.118 0,11.745 3.169,22.756 8.673,32.253 7.526,12.985 19.433,23.13 33.7,28.363 6.915,2.536 14.381,3.921 22.165,3.921 V 241.417 Z"
   id="path7" />
	<path
   style="fill:#666666"
   d="m 303.335,338.209 c 5.505,-9.497 8.674,-20.509 8.674,-32.253 0,-3.792 -0.348,-7.503 -0.978,-11.118 -2.668,-15.296 -10.729,-28.759 -22.159,-38.342 -11.215,-9.403 -25.655,-15.078 -41.401,-15.078 v 129.076 c 7.783,0 15.249,-1.385 22.165,-3.921 14.267,-5.234 26.173,-15.379 33.699,-28.364 z"
   id="path8" />
</g><path
   d="m 247.62134,283.00347 c -13.38756,0 -24.27876,10.8912 -24.27876,24.27876 0,13.38756 10.8912,24.27814 24.27876,24.27814 13.38756,0 24.27876,-10.89058 24.27876,-24.27814 0,-13.38756 -10.89182,-24.27876 -24.27876,-24.27876 z m 0,39.12393 c -8.18572,0 -14.84579,-6.65945 -14.84579,-14.84517 0,-8.18634 6.65945,-14.84578 14.84579,-14.84578 8.18634,0 14.84578,6.65944 14.84578,14.84578 -6.1e-4,8.18572 -6.66006,14.84517 -14.84578,14.84517 z"
   id="path8863"
   style="stroke-width:0.618677" /><path
   d="m 247.92575,244.04125 c -35.37528,0 -64.15417,28.64257 -64.15417,63.85027 0,35.20771 28.77889,63.84865 64.15417,63.84865 35.37526,0 64.15415,-28.64094 64.15415,-63.84865 0,-35.2077 -28.78053,-63.85027 -64.15415,-63.85027 z m 0,102.89133 c -21.62995,0 -39.22851,-17.51358 -39.22851,-39.04106 0,-21.5291 17.59693,-39.04264 39.22851,-39.04264 21.63157,0 39.22847,17.51354 39.22847,39.04264 -0.001,21.52748 -17.59854,39.04106 -39.22847,39.04106 z"
   id="path8863-1"
   style="stroke-width:1.63091" />
</svg>
