<?xml version="1.0" encoding="UTF-8" standalone="no"?>
<!-- Uploaded to: SVG Repo, www.svgrepo.com, Generator: SVG Repo Mixer Tools -->

<svg
   height="800px"
   width="800px"
   version="1.1"
   id="Layer_1"
   viewBox="0 0 512.001 512.001"
   xml:space="preserve"
   sodipodi:docname="propeller.svg"
   inkscape:version="1.3.2 (091e20e, 2023-11-25, custom)"
   xmlns:inkscape="http://www.inkscape.org/namespaces/inkscape"
   xmlns:sodipodi="http://sodipodi.sourceforge.net/DTD/sodipodi-0.dtd"
   xmlns="http://www.w3.org/2000/svg"
   xmlns:svg="http://www.w3.org/2000/svg"><defs
   id="defs6" /><sodipodi:namedview
   id="namedview6"
   pagecolor="#ffffff"
   bordercolor="#000000"
   borderopacity="0.25"
   inkscape:showpageshadow="2"
   inkscape:pageopacity="0.0"
   inkscape:pagecheckerboard="0"
   inkscape:deskcolor="#d1d1d1"
   inkscape:zoom="1.01625"
   inkscape:cx="400"
   inkscape:cy="400"
   inkscape:window-width="1920"
   inkscape:window-height="1009"
   inkscape:window-x="-8"
   inkscape:window-y="-8"
   inkscape:window-maximized="1"
   inkscape:current-layer="Layer_1" />
<g
   id="g3">
	<path
   style="fill:#999999"
   d="M251.614,307.232c0,0-55.915-72.64-67.53-182.63c-4.936-46.743,12.425-86.89,38.775-89.673   c17.825-1.883,28.781-3.223,28.781-3.223L251.614,307.232z"
   id="path1" />
	<path
   style="fill:#999999"
   d="M248.824,305.991c0,0-34.95,84.744-124.398,149.797c-38.012,27.646-81.462,32.685-97.047,11.256   c-10.541-14.495-17.18-23.313-17.18-23.313L248.824,305.991z"
   id="path2" />
	<path
   style="fill:#999999"
   d="M249.146,309.027c0,0,90.866-12.104,191.927,32.833c42.948,19.097,69.037,54.205,58.271,78.417   c-7.283,16.378-11.6,26.537-11.6,26.537L249.146,309.027z"
   id="path3" />
</g>
<circle
   style="fill:#666666"
   cx="249.865"
   cy="307.415"
   r="44.428"
   id="circle3" /><path
   d="m 250.48812,281.42187 c -13.84898,0 -25.11557,11.26658 -25.11557,25.11557 0,13.84898 11.26659,25.11492 25.11557,25.11492 13.84899,0 25.11557,-11.26594 25.11557,-25.11492 0,-13.84899 -11.26722,-25.11557 -25.11557,-25.11557 z m 0,40.4724 c -8.46785,0 -15.35747,-6.88898 -15.35747,-15.35683 0,-8.4685 6.88898,-15.35747 15.35747,-15.35747 8.4685,0 15.35747,6.88897 15.35747,15.35747 -6.3e-4,8.46785 -6.88961,15.35683 -15.35747,15.35683 z"
   id="path8863"
   style="stroke-width:0.640001" />



</svg>
