<?xml version="1.0" encoding="utf-8"?><!-- Uploaded to: SVG Repo, www.svgrepo.com, Generator: SVG Repo Mixer Tools -->
<svg fill="#000000" width="800px" height="800px" viewBox="0 0 24 24" id="backpack" data-name="Flat Color" xmlns="http://www.w3.org/2000/svg" class="icon flat-color"><path id="secondary" d="M20,20H19a1,1,0,0,1-1-1V15a1,1,0,0,1,1-1h2a1,1,0,0,1,1,1v3A2,2,0,0,1,20,20ZM5,20H4a2,2,0,0,1-2-2V15a1,1,0,0,1,1-1H5a1,1,0,0,1,1,1v4A1,1,0,0,1,5,20ZM14,6H10A1,1,0,0,1,9,5V4a2,2,0,0,1,2-2h2a2,2,0,0,1,2,2V5A1,1,0,0,1,14,6Z" style="fill: rgb(44, 169, 188);"></path><path id="primary" d="M15,4H9A5,5,0,0,0,4,9V20a2,2,0,0,0,2,2H18a2,2,0,0,0,2-2V9A5,5,0,0,0,15,4Z" style="fill: rgb(0, 0, 0);"></path><path id="secondary-2" data-name="secondary" d="M16,16v6H8V16a2,2,0,0,1,2-2h4A2,2,0,0,1,16,16Zm0-8a1,1,0,0,0-1-1H9A1,1,0,0,0,9,9h6A1,1,0,0,0,16,8Z" style="fill: rgb(44, 169, 188);"></path></svg>