<?xml version="1.0" encoding="utf-8"?>
<!-- Generator: Adobe Illustrator 19.2.0, SVG Export Plug-In . SVG Version: 6.00 Build 0)  -->
<svg xmlns="http://www.w3.org/2000/svg" xmlns:xlink="http://www.w3.org/1999/xlink" version="1.1" id="dropletrain" x="0px" y="0px" viewBox="0 0 216 191.3097" enable-background="new 0 0 216 191.3097" xml:space="preserve" width="512" height="512">
<g>
	<path fill="#D0E8FF" d="M105.6146,107.3097c0,6.6172,5.3828,12,12,12s12-5.3828,12-12c0-4.3008-6.2774-14.123-12-21.5879   C111.8919,93.1925,105.6146,103.0167,105.6146,107.3097z"/>
	<path fill="#D0E8FF" d="M55.6146,107.3097c0,6.6172,5.3828,12,12,12s12-5.3828,12-12c0-4.3008-6.2773-14.123-12-21.5879   C61.8919,93.1925,55.6146,103.0167,55.6146,107.3097z"/>
	<path fill="#D0E8FF" d="M55.6146,43.3097c0,6.6172,5.3828,12,12,12s12-5.3828,12-12c0-4.3008-6.2773-14.123-12-21.5879   C61.8919,29.1925,55.6146,39.0167,55.6146,43.3097z"/>
	<path fill="#D0E8FF" d="M169.6146,55.3097c6.6172,0,12-5.3828,12-12c0-4.3008-6.2773-14.123-12-21.5879   c-5.7227,7.4707-12,17.2949-12,21.5879C157.6146,49.9269,162.9974,55.3097,169.6146,55.3097z"/>
	<path fill="#D0E8FF" d="M55.6146,171.3097c0,6.6172,5.3828,12,12,12s12-5.3828,12-12c0-4.3008-6.2773-14.1211-12-21.5898   C61.8919,157.1925,55.6146,167.0167,55.6146,171.3097z"/>
	<path fill="#D0E8FF" d="M105.6146,171.3097c0,6.6172,5.3828,12,12,12s12-5.3828,12-12c0-4.3008-6.2774-14.1211-12-21.5898   C111.8919,157.1925,105.6146,167.0167,105.6146,171.3097z"/>
	<path fill="#D0E8FF" d="M157.6146,107.3097c0,6.6172,5.3828,12,12,12s12-5.3828,12-12c0-4.3008-6.2773-14.123-12-21.5879   C163.892,93.1925,157.6146,103.0167,157.6146,107.3097z"/>
	<path fill="#D0E8FF" d="M157.6146,171.3097c0,6.6172,5.3828,12,12,12s12-5.3828,12-12c0-4.3008-6.2773-14.1211-12-21.5898   C163.892,157.1925,157.6146,167.0167,157.6146,171.3097z"/>
	<path fill="#D0E8FF" d="M105.6146,43.3097c0,6.6172,5.3828,12,12,12s12-5.3828,12-12c0-4.3008-6.2774-14.123-12-21.5879   C111.8919,29.1925,105.6146,39.0167,105.6146,43.3097z"/>
	<path fill="#1C71DA" d="M64.5443,12.7452c-2.8281,3.3867-16.9297,20.7734-16.9297,30.5645c0,11.0273,8.9727,20,20,20   s20-8.9727,20-20c0-9.791-14.1016-27.1777-16.9297-30.5645C69.1615,10.9249,66.0677,10.9249,64.5443,12.7452z M67.6146,55.3097   c-6.6172,0-12-5.3828-12-12c0-4.293,6.2773-14.1172,12-21.5879c5.7227,7.4648,12,17.2871,12,21.5879   C79.6146,49.9269,74.2318,55.3097,67.6146,55.3097z"/>
	<path fill="#1C71DA" d="M64.5443,76.7452c-2.8281,3.3867-16.9297,20.7734-16.9297,30.5645c0,11.0273,8.9727,20,20,20   s20-8.9727,20-20c0-9.791-14.1016-27.1777-16.9297-30.5645C69.1615,74.9249,66.0677,74.9249,64.5443,76.7452z M67.6146,119.3097   c-6.6172,0-12-5.3828-12-12c0-4.293,6.2773-14.1172,12-21.5879c5.7227,7.4648,12,17.2871,12,21.5879   C79.6146,113.9269,74.2318,119.3097,67.6146,119.3097z"/>
	<path fill="#1C71DA" d="M64.5443,140.7472c-2.8281,3.3867-16.9297,20.7734-16.9297,30.5625c0,11.0273,8.9727,20,20,20   s20-8.9727,20-20c0-9.7891-14.1016-27.1758-16.9297-30.5625C69.1615,138.9269,66.0677,138.9269,64.5443,140.7472z    M67.6146,183.3097c-6.6172,0-12-5.3828-12-12c0-4.293,6.2773-14.1172,12-21.5898c5.7227,7.4688,12,17.2891,12,21.5898   C79.6146,177.9269,74.2318,183.3097,67.6146,183.3097z"/>
	<path fill="#1C71DA" d="M114.5443,12.7452c-2.8281,3.3867-16.9297,20.7734-16.9297,30.5645c0,11.0273,8.9727,20,20,20   s20-8.9727,20-20c0-9.791-14.1016-27.1777-16.9297-30.5645C119.1615,10.9249,116.0677,10.9249,114.5443,12.7452z M117.6146,55.3097   c-6.6172,0-12-5.3828-12-12c0-4.293,6.2773-14.1172,12-21.5879c5.7227,7.4648,12,17.2871,12,21.5879   C129.6146,49.9269,124.2318,55.3097,117.6146,55.3097z"/>
	<path fill="#1C71DA" d="M114.5443,76.7452c-2.8281,3.3867-16.9297,20.7734-16.9297,30.5645c0,11.0273,8.9727,20,20,20   s20-8.9727,20-20c0-9.791-14.1016-27.1777-16.9297-30.5645C119.1615,74.9249,116.0677,74.9249,114.5443,76.7452z    M117.6146,119.3097c-6.6172,0-12-5.3828-12-12c0-4.293,6.2773-14.1172,12-21.5879c5.7227,7.4648,12,17.2871,12,21.5879   C129.6146,113.9269,124.2318,119.3097,117.6146,119.3097z"/>
	<path fill="#1C71DA" d="M114.5443,140.7472c-2.8281,3.3867-16.9297,20.7734-16.9297,30.5625c0,11.0273,8.9727,20,20,20   s20-8.9727,20-20c0-9.7891-14.1016-27.1758-16.9297-30.5625C119.1615,138.9269,116.0677,138.9269,114.5443,140.7472z    M117.6146,183.3097c-6.6172,0-12-5.3828-12-12c0-4.293,6.2773-14.1172,12-21.5898c5.7227,7.4688,12,17.2891,12,21.5898   C129.6146,177.9269,124.2318,183.3097,117.6146,183.3097z"/>
	<path fill="#1C71DA" d="M169.6146,63.3097c11.0273,0,20-8.9727,20-20c0-9.791-14.1016-27.1777-16.9297-30.5645   c-1.5234-1.8203-4.6172-1.8203-6.1406,0c-2.8281,3.3867-16.9297,20.7734-16.9297,30.5645   C149.6146,54.337,158.5873,63.3097,169.6146,63.3097z M169.6146,21.7218c5.7227,7.4648,12,17.2871,12,21.5879   c0,6.6172-5.3828,12-12,12s-12-5.3828-12-12C157.6146,39.0167,163.892,29.1925,169.6146,21.7218z"/>
	<path fill="#1C71DA" d="M166.5443,76.7452c-2.8281,3.3867-16.9297,20.7734-16.9297,30.5645c0,11.0273,8.9727,20,20,20   s20-8.9727,20-20c0-9.791-14.1016-27.1777-16.9297-30.5645C171.1615,74.9249,168.0677,74.9249,166.5443,76.7452z    M169.6146,119.3097c-6.6172,0-12-5.3828-12-12c0-4.293,6.2773-14.1172,12-21.5879c5.7227,7.4648,12,17.2871,12,21.5879   C181.6146,113.9269,176.2318,119.3097,169.6146,119.3097z"/>
	<path fill="#1C71DA" d="M166.5443,140.7472c-2.8281,3.3867-16.9297,20.7734-16.9297,30.5625c0,11.0273,8.9727,20,20,20   s20-8.9727,20-20c0-9.7891-14.1016-27.1758-16.9297-30.5625C171.1615,138.9269,168.0677,138.9269,166.5443,140.7472z    M169.6146,183.3097c-6.6172,0-12-5.3828-12-12c0-4.293,6.2773-14.1172,12-21.5898c5.7227,7.4688,12,17.2891,12,21.5898   C181.6146,177.9269,176.2318,183.3097,169.6146,183.3097z"/>
</g>
<path fill="#FF5D5D" d="M192,22.1418c-1.0234,0-2.0469-0.3906-2.8281-1.1714c-1.5625-1.5625-1.5625-4.0952,0-5.6572l14.1426-14.1421  c1.5605-1.5615,4.0938-1.5615,5.6562,0c1.5625,1.5625,1.5625,4.0952,0,5.6572l-14.1426,14.1421  C194.0479,21.7512,193.0234,22.1418,192,22.1418z"/>
<path fill="#FF5D5D" d="M206.1426,22.1418c-1.0234,0-2.0469-0.3906-2.8281-1.1714L189.1719,6.8284  c-1.5625-1.562-1.5625-4.0947,0-5.6572c1.5605-1.5615,4.0938-1.5615,5.6562,0l14.1426,14.1421c1.5625,1.562,1.5625,4.0947,0,5.6572  C208.1904,21.7512,207.166,22.1418,206.1426,22.1418z"/>
<path fill="#00D40B" d="M202,138.1414c-7.7197,0-14-6.2803-14-14s6.2803-14,14-14s14,6.2803,14,14S209.7197,138.1414,202,138.1414z   M202,118.1414c-3.3086,0-6,2.6914-6,6s2.6914,6,6,6s6-2.6914,6-6S205.3086,118.1414,202,118.1414z"/>
<path fill="#FFC504" d="M15.3135,140.7693c-1.0234,0-2.0479-0.3906-2.8281-1.1719L1.1719,128.2839  c-1.5625-1.5615-1.5625-4.0947,0-5.6562l11.3135-11.3145c0.75-0.75,1.7676-1.1719,2.8281-1.1719s2.0781,0.4219,2.8281,1.1719  l11.3135,11.3145c1.5625,1.5615,1.5625,4.0947,0,5.6562l-11.3135,11.3135C17.3613,140.3787,16.3369,140.7693,15.3135,140.7693z   M9.6562,125.4558l5.6572,5.6562l5.6572-5.6562l-5.6572-5.6572L9.6562,125.4558z"/>
</svg>
