<?xml version="1.0" encoding="UTF-8" standalone="no"?>
<svg
   version="1.1"
   width="256"
   height="256"
   id="svg7"
   sodipodi:docname="recessed-light-off.svg"
   inkscape:version="1.3.2 (091e20e, 2023-11-25, custom)"
   xmlns:inkscape="http://www.inkscape.org/namespaces/inkscape"
   xmlns:sodipodi="http://sodipodi.sourceforge.net/DTD/sodipodi-0.dtd"
   xmlns="http://www.w3.org/2000/svg"
   xmlns:svg="http://www.w3.org/2000/svg">
  <defs
     id="defs7" />
  <sodipodi:namedview
     id="namedview7"
     pagecolor="#ffffff"
     bordercolor="#000000"
     borderopacity="0.25"
     inkscape:showpageshadow="2"
     inkscape:pageopacity="0.0"
     inkscape:pagecheckerboard="0"
     inkscape:deskcolor="#d1d1d1"
     inkscape:zoom="3.2460938"
     inkscape:cx="127.84597"
     inkscape:cy="128"
     inkscape:window-width="1920"
     inkscape:window-height="1027"
     inkscape:window-x="-8"
     inkscape:window-y="-8"
     inkscape:window-maximized="1"
     inkscape:current-layer="svg7" />
  <path
     d="M0 0 C84.48 0 168.96 0 256 0 C256 84.48 256 168.96 256 256 C171.52 256 87.04 256 0 256 C0 171.52 0 87.04 0 0 Z "
     fill="#FDFDFD"
     transform="translate(0,0)"
     id="path1" />
  <path
     d="M0 0 C0.69996094 0.52722656 1.39992187 1.05445312 2.12109375 1.59765625 C12.06063438 9.48341265 19.91675144 21.67896159 21.39404297 34.390625 C21.57123367 38.06093202 21.59516822 41.70078639 21.5625 45.375 C21.58634766 46.59960938 21.61019531 47.82421875 21.63476562 49.0859375 C21.61024374 64.51837496 15.33964329 76.38293992 5 87.5 C-20.29977814 111.69051299 -57.30281106 119.18859722 -91.11083984 119.18530273 C-93.59881018 119.18747711 -96.08632714 119.20565354 -98.57421875 119.22460938 C-112.80730438 119.27657075 -126.50607502 118.08349762 -140.3125 114.375 C-141.28179443 114.11630127 -142.25108887 113.85760254 -143.24975586 113.59106445 C-162.93574059 108.12085667 -180.42937772 99.54451005 -195 85 C-195.65742188 84.35417969 -196.31484375 83.70835937 -196.9921875 83.04296875 C-209.15731865 70.22520181 -209.65539283 54.24583101 -209.3671875 37.546875 C-208.80857556 23.49837892 -202.23368444 13.05950223 -192.2421875 3.30859375 C-176.83765865 -10.14469478 -157.78132049 -18.46280538 -138 -23 C-136.84886719 -23.27585937 -135.69773437 -23.55171875 -134.51171875 -23.8359375 C-90.95828051 -33.79946471 -35.66509786 -29.42523511 0 0 Z "
     fill="#FCFD98"
     transform="translate(222,82)"
     id="path2" />
  <path
     d="M0 0 C0.69996094 0.52722656 1.39992187 1.05445312 2.12109375 1.59765625 C12.06063438 9.48341265 19.91675144 21.67896159 21.39404297 34.390625 C21.57123367 38.06093202 21.59516822 41.70078639 21.5625 45.375 C21.58634766 46.59960938 21.61019531 47.82421875 21.63476562 49.0859375 C21.61024374 64.51837496 15.33964329 76.38293992 5 87.5 C-20.29977814 111.69051299 -57.30281106 119.18859722 -91.11083984 119.18530273 C-93.59881018 119.18747711 -96.08632714 119.20565354 -98.57421875 119.22460938 C-112.80730438 119.27657075 -126.50607502 118.08349762 -140.3125 114.375 C-141.28179443 114.11630127 -142.25108887 113.85760254 -143.24975586 113.59106445 C-162.93574059 108.12085667 -180.42937772 99.54451005 -195 85 C-195.65742188 84.35417969 -196.31484375 83.70835937 -196.9921875 83.04296875 C-209.15731865 70.22520181 -209.65539283 54.24583101 -209.3671875 37.546875 C-208.80857556 23.49837892 -202.23368444 13.05950223 -192.2421875 3.30859375 C-176.83765865 -10.14469478 -157.78132049 -18.46280538 -138 -23 C-136.84886719 -23.27585937 -135.69773437 -23.55171875 -134.51171875 -23.8359375 C-90.95828051 -33.79946471 -35.66509786 -29.42523511 0 0 Z M-173.3125 30.3125 C-179.85639143 38.07756387 -182.86550388 45.65073575 -182.41796875 55.859375 C-181.30294604 64.23767647 -177.44069769 70.68348268 -172 77 C-171.30003906 77.85851562 -171.30003906 77.85851562 -170.5859375 78.734375 C-155.67012119 95.40949272 -128.38331541 102.57088398 -107 104 C-82.31026177 105.01944161 -57.16617142 102.92483906 -35 91 C-34.0203125 90.49984375 -33.040625 89.9996875 -32.03125 89.484375 C-19.01583932 82.45079448 -10.69868778 73.09606335 -6 59 C-4.9201084 46.3320409 -8.79677942 37.63473302 -16.67578125 27.9375 C-31.87246781 11.27646463 -59.77146651 3.48537991 -81.50390625 2.12890625 C-114.74345093 0.9033141 -149.15815383 5.12744889 -173.3125 30.3125 Z "
     fill="#D1D1D1"
     transform="translate(222,82)"
     id="path3" />
  <path
     d="M0 0 C0.69996094 0.52722656 1.39992187 1.05445312 2.12109375 1.59765625 C10.96378016 8.61319888 18.8532735 19.82826008 21 31 C21.38748987 36.00455163 21.24342662 40.98946872 21 46 C19.80436374 43.65493564 18.67967637 41.29546548 17.58984375 38.8984375 C7.68218707 17.7714722 -10.53645328 5.52296219 -32.07324219 -2.3046875 C-32.70907227 -2.53414062 -33.34490234 -2.76359375 -34 -3 C-35.79824219 -3.66515625 -35.79824219 -3.66515625 -37.6328125 -4.34375 C-67.28295069 -14.49536307 -102.36932746 -15.34340874 -133 -9 C-133.80598633 -8.83371094 -134.61197266 -8.66742188 -135.44238281 -8.49609375 C-160.09708846 -3.16854631 -185.0476135 7.82657138 -200.46484375 28.6015625 C-204.11378865 34.3024586 -206.86908667 40.31076794 -208 47 C-208.33 47 -208.66 47 -209 47 C-209.86928393 31.95172938 -207.23425065 20.95149958 -197.5703125 8.84765625 C-182.21657615 -8.16279026 -159.99175567 -17.95580309 -138 -23 C-136.84886719 -23.27585937 -135.69773437 -23.55171875 -134.51171875 -23.8359375 C-90.95828051 -33.79946471 -35.66509786 -29.42523511 0 0 Z "
     fill="#A0A0A0"
     transform="translate(222,82)"
     id="path4" />
  <path
     d="M0 0 C2.875 1.5 2.875 1.5 5 3 C4.6875 4.875 4.6875 4.875 4 7 C0.68735796 9.20842803 0.16548604 9.19725756 -3.5625 8.6875 C-4.34753906 8.58824219 -5.13257812 8.48898438 -5.94140625 8.38671875 C-8 8 -8 8 -10 7 C-9.6875 4.625 -9.6875 4.625 -9 2 C-5.4913604 -0.33909307 -4.12910567 -0.41291057 0 0 Z "
     fill="#858585"
     transform="translate(109,73)"
     id="path5" />
  <path
     d="M0 0 C0.89589844 -0.01417969 1.79179687 -0.02835938 2.71484375 -0.04296875 C5.0625 0.1875 5.0625 0.1875 7.0625 2.1875 C6.8125 4.75 6.8125 4.75 6.0625 7.1875 C2.88503509 8.77623246 -0.47762202 8.59776221 -3.9375 8.1875 C-6.4375 6.6875 -6.4375 6.6875 -7.9375 5.1875 C-5.70036481 0.56408727 -5.21346531 0.03739932 0 0 Z "
     fill="#838383"
     transform="translate(227.9375,143.8125)"
     id="path6" />
  <path
     d="M0 0 C0.79148437 -0.01417969 1.58296875 -0.02835938 2.3984375 -0.04296875 C4.625 0.1875 4.625 0.1875 7.625 2.1875 C7.25 4.625 7.25 4.625 6.625 7.1875 C4.27153604 8.36423198 2.7443967 8.35373866 0.125 8.375 C-0.6690625 8.38917969 -1.463125 8.40335938 -2.28125 8.41796875 C-4.375 8.1875 -4.375 8.1875 -6.375 6.1875 C-5.73593786 0.94719049 -5.19277585 0.04201275 0 0 Z "
     fill="#828282"
     transform="translate(56.375,171.8125)"
     id="path7" />
  <path
     style="fill:#ececec;stroke-width:0.308063"
     d="M 109.05415,200.68018 C 90.6442,199.36314 71.966347,194.55024 55.81853,186.96244 45.409409,182.07124 35.397813,175.03582 26.987028,166.70176 17.269862,157.07323 13.55039,147.50249 12.844301,130.31047 c -0.06959,-1.69434 -0.06805,-2.63008 0.0034,-2.07942 0.09366,0.72166 0.288958,1.0012 0.699473,1.0012 0.430854,0 0.622002,-0.31879 0.785033,-1.30927 0.407127,-2.47343 2.5756,-8.53207 4.152546,-11.60206 2.196013,-4.27518 3.493548,-6.19923 6.680941,-9.90679 15.009118,-17.458566 38.949132,-29.173724 70.477097,-34.4883 31.154849,-5.251681 64.265319,-2.913714 89.964889,6.352519 23.05622,8.313146 36.69912,17.312201 46.65725,30.775801 3.4225,4.6273 6.16888,9.50118 9.78925,17.3726 0.79415,1.72665 0.79452,1.72695 1.01839,0.80309 0.44608,-1.84087 0.2939,8.31315 -0.17083,11.39832 -1.42285,9.44571 -5.25466,17.71363 -12.22645,26.38101 -6.32729,7.86615 -17.23083,15.97632 -29.35642,21.83565 -14.93482,7.2168 -31.49353,11.49889 -51.90854,13.42357 -6.26263,0.59042 -33.91506,0.87258 -40.3562,0.41179 z m 35.39524,-15.19789 c 12.4588,-1.44816 22.92345,-3.88764 32.05022,-7.47141 4.11446,-1.61562 12.87372,-5.92908 16.58515,-8.1673 10.86848,-6.55437 18.25846,-15.46902 22.42721,-27.05434 0.80412,-2.23471 0.82521,-2.46039 0.66196,-7.08544 -0.18648,-5.28331 -0.89749,-8.74971 -2.66612,-12.99814 -2.06825,-4.96815 -6.36175,-11.26636 -10.33216,-15.15638 -12.28692,-12.038187 -33.75487,-20.590487 -58.13985,-23.161487 -6.21551,-0.655326 -26.99627,-0.470414 -33.82521,0.300984 -24.173572,2.73065 -41.920281,9.530307 -56.22142,21.541253 -11.041866,9.27362 -16.027337,19.10572 -15.473046,30.51516 0.361726,7.44572 3.141897,13.45115 10.331481,22.31697 11.398873,14.05649 33.092732,23.65864 60.284765,26.68327 5.47472,0.60897 28.32131,0.43378 34.31702,-0.26314 z m -83.59474,-5.58963 c 1.009848,-0.26289 1.95446,-0.59614 2.099142,-0.74056 0.284169,-0.28364 1.0947,-3.77713 1.112401,-4.79459 0.0078,-0.44543 -0.503174,-0.9046 -1.799621,-1.61733 -1.735338,-0.95401 -1.953,-0.99529 -5.246959,-0.99529 -5.185882,0 -6.193139,0.62762 -6.872827,4.28245 l -0.351348,1.88928 1.024973,1.05751 c 0.563733,0.58162 1.316441,1.1149 1.672679,1.18505 1.692323,0.33327 6.666637,0.17471 8.36156,-0.26652 z m 171.99678,-28.17377 c 1.23388,-0.46465 1.81738,-1.65582 2.09033,-4.26731 l 0.18824,-1.80097 -1.16925,-0.89269 c -1.09873,-0.83886 -1.37313,-0.89906 -4.54979,-0.99813 -5.9059,-0.1842 -7.05487,0.2784 -8.71926,3.51056 l -0.88905,1.72648 1.30103,1.1655 c 2.28385,2.04593 2.85527,2.2147 7.01666,2.07244 2.03321,-0.0695 4.1622,-0.30165 4.73109,-0.51588 z M 111.68735,81.007933 c 1.23242,-0.76633 1.5351,-1.149512 1.89867,-2.403667 0.7277,-2.510242 0.5479,-2.882798 -2.14587,-4.446379 -2.28115,-1.324076 -2.50391,-1.38821 -4.93534,-1.420892 -2.28824,-0.03076 -2.75283,0.06741 -4.58325,0.96846 -2.211756,1.088767 -2.348502,1.327034 -2.882791,5.022951 -0.203038,1.404501 -0.20289,1.404778 1.024831,1.958405 1.6092,0.725646 5.88087,1.401377 8.26481,1.307401 1.47859,-0.05829 2.21363,-0.274113 3.35894,-0.986279 z"
     id="path8" />
  <path
     style="fill:#b3b3b3;stroke-width:0.308063"
     d="m 13.132796,128.23105 c -0.287929,-1.07441 -0.22681,-6.1867 0.118775,-9.93502 0.803385,-8.71374 3.158567,-15.44109 7.926967,-22.6426 7.411446,-11.193198 21.884715,-21.846081 39.617414,-29.159943 11.400854,-4.702288 26.961698,-8.809579 41.172758,-10.867566 42.0861,-6.094735 83.0948,1.303345 111.13711,20.049431 16.40162,10.964373 24.95842,21.052406 28.94757,34.127738 0.74643,2.44658 0.81489,3.16388 0.9355,9.8022 0.0716,3.93936 0.0117,7.16246 -0.1331,7.16246 -0.14478,0 -1.46062,-2.46065 -2.92409,-5.46811 C 231.99461,104.98873 220.86196,94.069929 203.14177,85.216399 193.11511,80.206785 180.16354,75.675576 168.3562,73.046396 145.77332,68.01779 119.79213,67.514711 95.594072,71.637487 62.675987,77.245949 38.192909,89.591966 23.286182,108.1 c -3.949582,4.90375 -7.364557,11.98507 -8.965404,18.59073 -0.56217,2.31972 -0.871595,2.72091 -1.187982,1.54032 z"
     id="path9" />
  <path
     style="fill:#cccccc;stroke-width:0.308063"
     d="m 107.97593,200.48635 c -6.42954,-0.43979 -17.085102,-2.20409 -24.794284,-4.10533 -21.557609,-5.31656 -38.247537,-13.72139 -52.543048,-26.46 -12.071155,-10.75652 -16.429832,-20.07143 -17.561725,-37.53113 -0.198529,-3.06235 -0.185288,-3.15764 0.438781,-3.15764 0.452159,0 0.698004,-0.25189 0.826846,-0.84717 1.432458,-6.61834 5.245787,-14.82151 9.170497,-19.72742 16.937554,-21.172048 46.020746,-34.169354 86.003253,-38.434935 6.22642,-0.664273 25.11737,-0.945029 32.0385,-0.476154 22.6364,1.533512 41.55932,6.409822 60.38027,15.559595 9.81321,4.770675 16.94359,9.606785 22.95387,15.568224 6.23252,6.18187 9.9907,11.51176 14.67369,20.81033 1.62129,3.21925 3.0904,6.02846 3.26468,6.24267 0.54004,0.6638 0.0676,10.87732 -0.64589,13.96294 -2.38913,10.33239 -8.38189,20.51846 -16.75626,28.4811 -18.39631,17.49184 -48.64075,28.56459 -82.02198,30.02894 -5.99139,0.26283 -31.92173,0.32576 -35.4272,0.086 z m 31.4971,-14.56915 c 11.47921,-0.63723 24.40471,-3.21443 34.7381,-6.9264 5.57939,-2.00423 16.83064,-7.60255 21.44806,-10.67198 2.94199,-1.95569 4.76247,-3.48761 7.98128,-6.71621 5.56795,-5.58488 8.56867,-10.12915 11.40739,-17.27529 l 1.28493,-3.23466 -0.17034,-5.23706 c -0.0937,-2.88039 -0.37504,-6.13815 -0.62523,-7.23947 -1.93632,-8.52359 -8.26313,-18.2505 -15.86412,-24.38971 -11.63547,-9.397785 -28.82051,-16.153104 -49.0305,-19.273543 -4.63813,-0.716131 -6.15781,-0.797103 -17.36238,-0.925106 -16.75787,-0.191446 -24.47222,0.390852 -35.932446,2.712267 -19.724757,3.9955 -35.61225,12.02259 -46.997026,23.745052 -8.016632,8.25441 -11.25606,16.04414 -10.835904,26.05667 0.175402,4.17995 0.732132,6.76252 2.201231,10.21113 2.606333,6.11819 9.428825,14.83695 15.500994,19.8094 8.388202,6.86903 20.680789,12.60971 34.123485,15.93579 6.375447,1.57745 14.898506,3.05163 20.332126,3.5167 2.85465,0.24434 22.90901,0.17394 27.80035,-0.0976 z m -77.400159,-6.32578 c 1.105609,-0.54545 1.269708,-0.77905 1.616651,-2.30141 0.212375,-0.93189 0.351786,-2.17323 0.3098,-2.75854 -0.06794,-0.94714 -0.258107,-1.15892 -1.728844,-1.92539 -1.537226,-0.80112 -1.906547,-0.86119 -5.294024,-0.86119 -3.903702,0 -4.806075,0.1955 -5.793296,1.25516 -0.663397,0.71207 -1.737433,4.71842 -1.40788,5.25164 0.105804,0.1712 0.767702,0.7309 1.470882,1.24378 l 1.278509,0.9325 4.158845,-0.11475 c 3.355168,-0.0926 4.396635,-0.23206 5.389357,-0.7218 z M 233.13773,151.75595 c 0.9461,-0.50634 1.56502,-1.84937 1.89287,-4.10745 0.2719,-1.87276 0.25449,-1.95781 -0.54211,-2.64809 -1.31817,-1.14227 -2.02557,-1.28961 -6.15716,-1.28245 -4.92748,0.009 -5.92485,0.38812 -7.35849,2.80055 -1.48717,2.50248 -1.48772,2.47067 0.0653,3.76885 2.4689,2.06374 2.62184,2.10509 7.25077,1.96045 2.3419,-0.0732 4.46981,-0.28903 4.8488,-0.49186 z M 111.11213,81.455651 c 1.69414,-0.82012 2.48017,-1.829237 2.73178,-3.507076 0.30089,-2.006442 -0.003,-2.501183 -2.416,-3.934786 -2.15908,-1.282683 -2.26685,-1.311021 -4.98581,-1.311021 -2.43708,0 -3.00091,0.108941 -4.58206,0.885318 -2.063095,1.013021 -2.555249,1.835663 -2.863694,4.786684 -0.187505,1.793959 -0.177675,1.823813 0.760265,2.30884 1.264419,0.653859 5.241579,1.353135 7.891009,1.387422 1.57912,0.02043 2.48259,-0.140045 3.46451,-0.615381 z"
     id="path10" />
  <path
     style="fill:#cccccc;stroke-width:0.308063"
     d="m 103.97112,81.340812 c -1.35548,-0.213864 -2.99686,-0.61418 -3.64751,-0.889593 -1.169567,-0.495062 -1.180514,-0.515505 -0.963587,-1.799486 0.548399,-3.245949 0.798387,-3.668664 2.767697,-4.679922 1.61697,-0.830333 2.14829,-0.945321 4.3256,-0.936144 2.38501,0.01005 2.57198,0.06446 4.77497,1.389375 2.24701,1.351392 2.29233,1.403302 2.27079,2.600883 -0.0336,1.866326 -0.72291,2.968241 -2.44626,3.910321 -1.74812,0.95562 -3.09971,1.032834 -7.0817,0.404566 z"
     id="path11" />
  <path
     style="fill:#cccccc;stroke-width:0.308063"
     d="m 52.217293,179.59661 c -1.850142,-1.00347 -2.081933,-1.38645 -1.858505,-3.07073 0.295197,-2.22531 1.018728,-3.55138 2.209072,-4.04874 0.65767,-0.27479 2.234079,-0.42419 4.475866,-0.42419 3.358868,0 3.509373,0.0294 5.118391,1.0012 1.646836,0.99461 1.656498,1.00933 1.465779,2.23346 -0.454153,2.91498 -0.766564,3.5665 -1.956514,4.08023 -1.713405,0.73972 -8.221661,0.8972 -9.454089,0.22877 z"
     id="path12" />
  <path
     style="fill:#cccccc;stroke-width:0.308063"
     d="m 222.50613,150.82738 c -1.02242,-0.66082 -1.94997,-1.34876 -2.06121,-1.52876 -0.30614,-0.49534 1.20347,-3.24439 2.27825,-4.14876 1.23269,-1.03725 2.26692,-1.20732 6.57342,-1.081 3.47114,0.10182 3.5843,0.12749 4.53383,1.02861 0.9076,0.86134 0.96291,1.0332 0.81327,2.52703 -0.0883,0.88156 -0.3448,1.99059 -0.56997,2.4645 -0.60898,1.2817 -2.76036,1.90975 -6.59876,1.9264 -3.10112,0.0134 -3.11512,0.0101 -4.96883,-1.18802 z"
     id="path13" />
  <path
     style="fill:#b3b3b3;stroke-width:0.308063"
     d="m 111.21059,185.55893 c -8.21088,-0.76614 -19.026712,-2.96295 -26.647413,-5.41236 -13.871402,-4.4585 -24.098774,-10.33786 -31.599647,-18.16554 -6.067228,-6.33157 -10.655273,-13.6012 -12.308267,-19.50209 -1.369391,-4.88848 -1.10339,-11.73065 0.66374,-17.07295 2.827474,-8.54788 8.754997,-15.62888 19.395054,-23.16926 14.435766,-10.230319 32.683628,-16.005001 55.887623,-17.686091 7.20847,-0.522242 26.87951,-0.245643 31.88448,0.448334 13.87852,1.92436 26.48858,5.623098 36.95178,10.838566 13.3024,6.630691 21.45364,14.164401 26.63254,24.614931 2.81023,5.67077 3.88139,10.26782 3.88139,16.6576 v 3.79229 l -1.53016,3.76896 c -5.23236,12.88794 -13.27826,21.00574 -28.34449,28.59778 -14.46609,7.28962 -28.19399,10.90495 -46.8175,12.32969 -4.91698,0.37615 -23.87938,0.34921 -28.04913,-0.0399 z"
     id="path14" />
</svg>
