<?xml version="1.0" encoding="UTF-8" standalone="no"?>
<svg
   version="1.1"
   width="256"
   height="256"
   id="svg7"
   sodipodi:docname="recessed-light-on.svg"
   inkscape:version="1.3.2 (091e20e, 2023-11-25, custom)"
   xmlns:inkscape="http://www.inkscape.org/namespaces/inkscape"
   xmlns:sodipodi="http://sodipodi.sourceforge.net/DTD/sodipodi-0.dtd"
   xmlns="http://www.w3.org/2000/svg"
   xmlns:svg="http://www.w3.org/2000/svg">
  <defs
     id="defs7" />
  <sodipodi:namedview
     id="namedview7"
     pagecolor="#ffffff"
     bordercolor="#000000"
     borderopacity="0.25"
     inkscape:showpageshadow="2"
     inkscape:pageopacity="0.0"
     inkscape:pagecheckerboard="0"
     inkscape:deskcolor="#d1d1d1"
     inkscape:zoom="3.2460938"
     inkscape:cx="127.84597"
     inkscape:cy="128"
     inkscape:window-width="1920"
     inkscape:window-height="1027"
     inkscape:window-x="-8"
     inkscape:window-y="-8"
     inkscape:window-maximized="1"
     inkscape:current-layer="svg7" />
  <path
     style="display:inline;fill:#ececec;stroke-width:0.308063"
     d="M 109.05415,200.68018 C 90.6442,199.36314 71.966347,194.55024 55.81853,186.96244 45.409409,182.07124 35.397813,175.03582 26.987028,166.70176 17.269862,157.07323 13.55039,147.50249 12.844301,130.31047 c -0.06959,-1.69434 -0.06805,-2.63008 0.0034,-2.07942 0.09366,0.72166 0.288958,1.0012 0.699473,1.0012 0.430854,0 0.622002,-0.31879 0.785033,-1.30927 0.407127,-2.47343 2.5756,-8.53207 4.152546,-11.60206 2.196013,-4.27518 3.493548,-6.19923 6.680941,-9.90679 15.009118,-17.458566 38.949132,-29.173724 70.477097,-34.4883 31.154849,-5.251681 64.265319,-2.913714 89.964889,6.352519 23.05622,8.313146 36.69912,17.312201 46.65725,30.775801 3.4225,4.6273 6.16888,9.50118 9.78925,17.3726 0.79415,1.72665 0.79452,1.72695 1.01839,0.80309 0.44608,-1.84087 0.2939,8.31315 -0.17083,11.39832 -1.42285,9.44571 -5.25466,17.71363 -12.22645,26.38101 -6.32729,7.86615 -17.23083,15.97632 -29.35642,21.83565 -14.93482,7.2168 -31.49353,11.49889 -51.90854,13.42357 -6.26263,0.59042 -33.91506,0.87258 -40.3562,0.41179 z m 35.39524,-15.19789 c 12.4588,-1.44816 22.92345,-3.88764 32.05022,-7.47141 4.11446,-1.61562 12.87372,-5.92908 16.58515,-8.1673 10.86848,-6.55437 18.25846,-15.46902 22.42721,-27.05434 0.80412,-2.23471 0.82521,-2.46039 0.66196,-7.08544 -0.18648,-5.28331 -0.89749,-8.74971 -2.66612,-12.99814 -2.06825,-4.96815 -6.36175,-11.26636 -10.33216,-15.15638 -12.28692,-12.038187 -33.75487,-20.590487 -58.13985,-23.161487 -6.21551,-0.655326 -26.99627,-0.470414 -33.82521,0.300984 -24.173572,2.73065 -41.920281,9.530307 -56.22142,21.541253 -11.041866,9.27362 -16.027337,19.10572 -15.473046,30.51516 0.361726,7.44572 3.141897,13.45115 10.331481,22.31697 11.398873,14.05649 33.092732,23.65864 60.284765,26.68327 5.47472,0.60897 28.32131,0.43378 34.31702,-0.26314 z m -83.59474,-5.58963 c 1.009848,-0.26289 1.95446,-0.59614 2.099142,-0.74056 0.284169,-0.28364 1.0947,-3.77713 1.112401,-4.79459 0.0078,-0.44543 -0.503174,-0.9046 -1.799621,-1.61733 -1.735338,-0.95401 -1.953,-0.99529 -5.246959,-0.99529 -5.185882,0 -6.193139,0.62762 -6.872827,4.28245 l -0.351348,1.88928 1.024973,1.05751 c 0.563733,0.58162 1.316441,1.1149 1.672679,1.18505 1.692323,0.33327 6.666637,0.17471 8.36156,-0.26652 z m 171.99678,-28.17377 c 1.23388,-0.46465 1.81738,-1.65582 2.09033,-4.26731 l 0.18824,-1.80097 -1.16925,-0.89269 c -1.09873,-0.83886 -1.37313,-0.89906 -4.54979,-0.99813 -5.9059,-0.1842 -7.05487,0.2784 -8.71926,3.51056 l -0.88905,1.72648 1.30103,1.1655 c 2.28385,2.04593 2.85527,2.2147 7.01666,2.07244 2.03321,-0.0695 4.1622,-0.30165 4.73109,-0.51588 z M 111.68735,81.007933 c 1.23242,-0.76633 1.5351,-1.149512 1.89867,-2.403667 0.7277,-2.510242 0.5479,-2.882798 -2.14587,-4.446379 -2.28115,-1.324076 -2.50391,-1.38821 -4.93534,-1.420892 -2.28824,-0.03076 -2.75283,0.06741 -4.58325,0.96846 -2.211756,1.088767 -2.348502,1.327034 -2.882791,5.022951 -0.203038,1.404501 -0.20289,1.404778 1.024831,1.958405 1.6092,0.725646 5.88087,1.401377 8.26481,1.307401 1.47859,-0.05829 2.21363,-0.274113 3.35894,-0.986279 z"
     id="path8" />
  <path
     style="display:inline;fill:#b3b3b3;stroke-width:0.308063"
     d="m 13.132796,128.23105 c -0.287929,-1.07441 -0.22681,-6.1867 0.118775,-9.93502 0.803385,-8.71374 3.158567,-15.44109 7.926967,-22.6426 7.411446,-11.193198 21.884715,-21.846081 39.617414,-29.159943 11.400854,-4.702288 26.961698,-8.809579 41.172758,-10.867566 42.0861,-6.094735 83.0948,1.303345 111.13711,20.049431 16.40162,10.964373 24.95842,21.052406 28.94757,34.127738 0.74643,2.44658 0.81489,3.16388 0.9355,9.8022 0.0716,3.93936 0.0117,7.16246 -0.1331,7.16246 -0.14478,0 -1.46062,-2.46065 -2.92409,-5.46811 C 231.99461,104.98873 220.86196,94.069929 203.14177,85.216399 193.11511,80.206785 180.16354,75.675576 168.3562,73.046396 145.77332,68.01779 119.79213,67.514711 95.594072,71.637487 62.675987,77.245949 38.192909,89.591966 23.286182,108.1 c -3.949582,4.90375 -7.364557,11.98507 -8.965404,18.59073 -0.56217,2.31972 -0.871595,2.72091 -1.187982,1.54032 z"
     id="path9" />
  <path
     style="display:inline;fill:#cccccc;stroke-width:0.308063"
     d="m 107.97593,200.48635 c -6.42954,-0.43979 -17.085102,-2.20409 -24.794284,-4.10533 -21.557609,-5.31656 -38.247537,-13.72139 -52.543048,-26.46 -12.071155,-10.75652 -16.429832,-20.07143 -17.561725,-37.53113 -0.198529,-3.06235 -0.185288,-3.15764 0.438781,-3.15764 0.452159,0 0.698004,-0.25189 0.826846,-0.84717 1.432458,-6.61834 5.245787,-14.82151 9.170497,-19.72742 16.937554,-21.172048 46.020746,-34.169354 86.003253,-38.434935 6.22642,-0.664273 25.11737,-0.945029 32.0385,-0.476154 22.6364,1.533512 41.55932,6.409822 60.38027,15.559595 9.81321,4.770675 16.94359,9.606785 22.95387,15.568224 6.23252,6.18187 9.9907,11.51176 14.67369,20.81033 1.62129,3.21925 3.0904,6.02846 3.26468,6.24267 0.54004,0.6638 0.0676,10.87732 -0.64589,13.96294 -2.38913,10.33239 -8.38189,20.51846 -16.75626,28.4811 -18.39631,17.49184 -48.64075,28.56459 -82.02198,30.02894 -5.99139,0.26283 -31.92173,0.32576 -35.4272,0.086 z m 31.4971,-14.56915 c 11.47921,-0.63723 24.40471,-3.21443 34.7381,-6.9264 5.57939,-2.00423 16.83064,-7.60255 21.44806,-10.67198 2.94199,-1.95569 4.76247,-3.48761 7.98128,-6.71621 5.56795,-5.58488 8.56867,-10.12915 11.40739,-17.27529 l 1.28493,-3.23466 -0.17034,-5.23706 c -0.0937,-2.88039 -0.37504,-6.13815 -0.62523,-7.23947 -1.93632,-8.52359 -8.26313,-18.2505 -15.86412,-24.38971 -11.63547,-9.397785 -28.82051,-16.153104 -49.0305,-19.273543 -4.63813,-0.716131 -6.15781,-0.797103 -17.36238,-0.925106 -16.75787,-0.191446 -24.47222,0.390852 -35.932446,2.712267 -19.724757,3.9955 -35.61225,12.02259 -46.997026,23.745052 -8.016632,8.25441 -11.25606,16.04414 -10.835904,26.05667 0.175402,4.17995 0.732132,6.76252 2.201231,10.21113 2.606333,6.11819 9.428825,14.83695 15.500994,19.8094 8.388202,6.86903 20.680789,12.60971 34.123485,15.93579 6.375447,1.57745 14.898506,3.05163 20.332126,3.5167 2.85465,0.24434 22.90901,0.17394 27.80035,-0.0976 z m -77.400159,-6.32578 c 1.105609,-0.54545 1.269708,-0.77905 1.616651,-2.30141 0.212375,-0.93189 0.351786,-2.17323 0.3098,-2.75854 -0.06794,-0.94714 -0.258107,-1.15892 -1.728844,-1.92539 -1.537226,-0.80112 -1.906547,-0.86119 -5.294024,-0.86119 -3.903702,0 -4.806075,0.1955 -5.793296,1.25516 -0.663397,0.71207 -1.737433,4.71842 -1.40788,5.25164 0.105804,0.1712 0.767702,0.7309 1.470882,1.24378 l 1.278509,0.9325 4.158845,-0.11475 c 3.355168,-0.0926 4.396635,-0.23206 5.389357,-0.7218 z M 233.13773,151.75595 c 0.9461,-0.50634 1.56502,-1.84937 1.89287,-4.10745 0.2719,-1.87276 0.25449,-1.95781 -0.54211,-2.64809 -1.31817,-1.14227 -2.02557,-1.28961 -6.15716,-1.28245 -4.92748,0.009 -5.92485,0.38812 -7.35849,2.80055 -1.48717,2.50248 -1.48772,2.47067 0.0653,3.76885 2.4689,2.06374 2.62184,2.10509 7.25077,1.96045 2.3419,-0.0732 4.46981,-0.28903 4.8488,-0.49186 z M 111.11213,81.455651 c 1.69414,-0.82012 2.48017,-1.829237 2.73178,-3.507076 0.30089,-2.006442 -0.003,-2.501183 -2.416,-3.934786 -2.15908,-1.282683 -2.26685,-1.311021 -4.98581,-1.311021 -2.43708,0 -3.00091,0.108941 -4.58206,0.885318 -2.063095,1.013021 -2.555249,1.835663 -2.863694,4.786684 -0.187505,1.793959 -0.177675,1.823813 0.760265,2.30884 1.264419,0.653859 5.241579,1.353135 7.891009,1.387422 1.57912,0.02043 2.48259,-0.140045 3.46451,-0.615381 z"
     id="path10" />
  <path
     style="display:inline;fill:#b3b3b3;stroke-width:0.308063"
     d="m 111.21059,185.55893 c -8.21088,-0.76614 -19.026712,-2.96295 -26.647413,-5.41236 -13.871402,-4.4585 -24.098774,-10.33786 -31.599647,-18.16554 -6.067228,-6.33157 -10.655273,-13.6012 -12.308267,-19.50209 -1.369391,-4.88848 -1.10339,-11.73065 0.66374,-17.07295 2.827474,-8.54788 8.754997,-15.62888 19.395054,-23.16926 14.435766,-10.230319 32.683628,-16.005001 55.887623,-17.686091 7.20847,-0.522242 26.87951,-0.245643 31.88448,0.448334 13.87852,1.92436 26.48858,5.623098 36.95178,10.838566 13.3024,6.630691 21.45364,14.164401 26.63254,24.614931 2.81023,5.67077 3.88139,10.26782 3.88139,16.6576 v 3.79229 l -1.53016,3.76896 c -5.23236,12.88794 -13.27826,21.00574 -28.34449,28.59778 -14.46609,7.28962 -28.19399,10.90495 -46.8175,12.32969 -4.91698,0.37615 -23.87938,0.34921 -28.04913,-0.0399 z"
     id="path14" />
  <path
     style="display:inline;fill:#554400;fill-opacity:0;stroke-width:0.308063"
     d="m 108.74609,185.16103 c -17.800691,-2.2383 -34.831078,-7.86618 -45.683131,-15.09647 -11.201182,-7.46291 -20.550611,-19.55595 -22.604902,-29.23835 -0.669386,-3.155 -0.408939,-10.26714 0.496957,-13.57061 2.330843,-8.49972 7.539826,-15.48105 16.96075,-22.7316 13.674553,-10.524227 29.73785,-16.463391 52.062576,-19.249354 3.77333,-0.470884 6.85857,-0.557438 19.87004,-0.557438 16.30577,0 17.76976,0.09075 25.56919,1.584943 12.09855,2.31781 23.49322,6.150286 32.19254,10.827616 11.88803,6.391793 19.41023,13.623573 24.25931,23.322703 2.64227,5.28507 3.59984,9.18191 3.93641,16.01925 l 0.19714,4.00481 -1.41086,3.35486 c -3.17607,7.55232 -6.18147,12.26585 -10.80872,16.95189 -10.05729,10.18509 -29.50194,19.25134 -48.62781,22.67317 -9.80866,1.75487 -12.03715,1.91487 -28.07977,2.01608 -11.1638,0.0704 -15.93748,-0.0107 -18.32972,-0.3115 z"
     id="path15" />
  <path
     style="display:inline;fill:#ffdd55;fill-opacity:0.587065;stroke-width:0.308063"
     d="m 108.74609,185.16103 c -17.800691,-2.2383 -34.831078,-7.86618 -45.683131,-15.09647 -11.201182,-7.46291 -20.550611,-19.55595 -22.604902,-29.23835 -0.669386,-3.155 -0.408939,-10.26714 0.496957,-13.57061 2.330843,-8.49972 7.539826,-15.48105 16.96075,-22.7316 13.674553,-10.524227 29.73785,-16.463391 52.062576,-19.249354 3.77333,-0.470884 6.85857,-0.557438 19.87004,-0.557438 16.30577,0 17.76976,0.09075 25.56919,1.584943 12.09855,2.31781 23.49322,6.150286 32.19254,10.827616 11.88803,6.391793 19.41023,13.623573 24.25931,23.322703 2.64227,5.28507 3.59984,9.18191 3.93641,16.01925 l 0.19714,4.00481 -1.41086,3.35486 c -3.17607,7.55232 -6.18147,12.26585 -10.80872,16.95189 -10.05729,10.18509 -29.50194,19.25134 -48.62781,22.67317 -9.80866,1.75487 -12.03715,1.91487 -28.07977,2.01608 -11.1638,0.0704 -15.93748,-0.0107 -18.32972,-0.3115 z"
     id="path16" />
  <path
     style="fill:#cccccc;fill-opacity:1;stroke-width:0.308063"
     d="m 51.129169,178.90734 -1.21761,-1.15523 0.475799,-2.04115 c 0.658061,-2.82303 1.293899,-3.35835 4.352917,-3.66472 3.514621,-0.352 6.220073,0.005 7.760443,1.02455 1.434194,0.9491 1.566706,1.62162 0.861704,4.37325 -0.375339,1.46496 -0.469242,1.56603 -1.919449,2.06594 -1.102869,0.38018 -2.572355,0.52936 -5.310498,0.53911 l -3.785695,0.0135 z"
     id="path17" />
  <path
     style="fill:#cccccc;fill-opacity:1;stroke-width:0.308063"
     d="m 67.255547,85.797917 -1.21761,-1.15523 0.475799,-2.04115 c 0.658061,-2.82303 1.293899,-3.35835 4.352917,-3.66472 3.514621,-0.352 6.220073,0.005 7.760443,1.02455 1.434194,0.9491 1.566706,1.62162 0.861704,4.37325 -0.375339,1.46496 -0.469242,1.56603 -1.919449,2.06594 -1.102869,0.38018 -2.572355,0.52936 -5.310498,0.53911 l -3.785695,0.0135 z"
     id="path21"
     inkscape:spray-origin="#path17" />
  <path
     style="fill:#cccccc;fill-opacity:1;stroke-width:0.308063"
     d="m 67.47113,85.538894 -1.21761,-1.15523 0.475799,-2.04115 c 0.658061,-2.82303 1.293899,-3.35835 4.352917,-3.66472 3.514621,-0.352 6.220073,0.005 7.760443,1.02455 1.434194,0.9491 1.566706,1.62162 0.861704,4.37325 -0.375339,1.46496 -0.469242,1.56603 -1.919449,2.06594 -1.102869,0.38018 -2.572355,0.52936 -5.310498,0.53911 l -3.785695,0.0135 z"
     id="path22"
     inkscape:spray-origin="#path17" />
  <path
     style="fill:#cccccc;fill-opacity:1;stroke-width:0.308063"
     d="m 73.355609,86.718211 -1.21761,-1.15523 0.475799,-2.04115 c 0.658061,-2.82303 1.293899,-3.35835 4.352917,-3.66472 3.514621,-0.352 6.220073,0.005 7.760443,1.02455 1.434194,0.9491 1.566706,1.62162 0.861704,4.37325 -0.375339,1.46496 -0.469242,1.56603 -1.919449,2.06594 -1.102869,0.38018 -2.572355,0.52936 -5.310498,0.53911 l -3.785695,0.0135 z"
     id="path23"
     inkscape:spray-origin="#path17" />
  <path
     style="fill:#cccccc;fill-opacity:1;stroke-width:0.308063"
     d="m 72.392319,89.807252 -1.21761,-1.15523 0.475799,-2.04115 c 0.658061,-2.82303 1.293899,-3.35835 4.352917,-3.66472 3.514621,-0.352 6.220073,0.005 7.760443,1.02455 1.434194,0.9491 1.566706,1.62162 0.861704,4.37325 -0.375339,1.46496 -0.469242,1.56603 -1.919449,2.06594 -1.102869,0.38018 -2.572355,0.52936 -5.310498,0.53911 l -3.785695,0.0135 z"
     id="path24"
     inkscape:spray-origin="#path17" />
  <path
     style="fill:#cccccc;fill-opacity:1;stroke-width:0.308063"
     d="m 100.51128,79.501504 -1.217605,-1.15523 0.475799,-2.04115 c 0.658056,-2.82303 1.293896,-3.35835 4.352916,-3.66472 3.51462,-0.352 6.22007,0.005 7.76044,1.02455 1.4342,0.9491 1.56671,1.62162 0.86171,4.37325 -0.37534,1.46496 -0.46924,1.56603 -1.91945,2.06594 -1.10287,0.38018 -2.57236,0.52936 -5.3105,0.53911 l -3.78569,0.0135 z"
     id="path25"
     inkscape:spray-origin="#path17" />
  <path
     style="fill:#cccccc;fill-opacity:1;stroke-width:0.308063"
     d="m 104.46094,80.985194 -1.21761,-1.15523 0.4758,-2.04115 c 0.65806,-2.82303 1.2939,-3.35835 4.35292,-3.66472 3.51462,-0.352 6.22007,0.005 7.76044,1.02455 1.4342,0.9491 1.56671,1.62162 0.86171,4.37325 -0.37534,1.46496 -0.46925,1.56603 -1.91945,2.06594 -1.10287,0.38018 -2.57236,0.52936 -5.3105,0.53911 l -3.7857,0.0135 z"
     id="path26"
     inkscape:spray-origin="#path17" />
  <path
     style="fill:#cccccc;fill-opacity:1;stroke-width:0.308063"
     d="m 105.37047,82.29062 -1.21761,-1.15523 0.4758,-2.04115 c 0.65806,-2.82303 1.2939,-3.35835 4.35292,-3.66472 3.51462,-0.352 6.22007,0.005 7.76044,1.02455 1.4342,0.9491 1.56671,1.62162 0.86171,4.37325 -0.37534,1.46496 -0.46925,1.56603 -1.91945,2.06594 -1.10287,0.38018 -2.57236,0.52936 -5.3105,0.53911 l -3.7857,0.0135 z"
     id="path27"
     inkscape:spray-origin="#path17" />
  <path
     style="fill:#cccccc;fill-opacity:1;stroke-width:0.308063"
     d="m 96.53068,79.721975 -1.21761,-1.15523 0.475799,-2.04115 c 0.658061,-2.82303 1.293899,-3.35835 4.352921,-3.66472 3.51462,-0.352 6.22007,0.005 7.76044,1.02455 1.43419,0.9491 1.56671,1.62162 0.8617,4.37325 -0.37534,1.46496 -0.46924,1.56603 -1.91945,2.06594 -1.10286,0.38018 -2.57235,0.52936 -5.31049,0.53911 l -3.785699,0.0135 z"
     id="path28"
     inkscape:spray-origin="#path17" />
  <path
     style="fill:#cccccc;fill-opacity:1;stroke-width:0.308063"
     d="m 102.98128,81.087683 -1.21761,-1.15523 0.4758,-2.04115 c 0.65806,-2.82303 1.2939,-3.35835 4.35292,-3.66472 3.51462,-0.352 6.22007,0.005 7.76044,1.02455 1.43419,0.9491 1.56671,1.62162 0.8617,4.37325 -0.37533,1.46496 -0.46924,1.56603 -1.91944,2.06594 -1.10287,0.38018 -2.57236,0.52936 -5.3105,0.53911 l -3.7857,0.0135 z"
     id="path29"
     inkscape:spray-origin="#path17" />
  <path
     style="fill:#cccccc;fill-opacity:1;stroke-width:0.308063"
     d="m 96.925548,80.354592 -1.21761,-1.15523 0.475799,-2.04115 c 0.658061,-2.82303 1.293899,-3.35835 4.352913,-3.66472 3.51462,-0.352 6.22008,0.005 7.76045,1.02455 1.43419,0.9491 1.5667,1.62162 0.8617,4.37325 -0.37534,1.46496 -0.46924,1.56603 -1.91945,2.06594 -1.10287,0.38018 -2.57235,0.52936 -5.3105,0.53911 l -3.785691,0.0135 z"
     id="path30"
     inkscape:spray-origin="#path17" />
  <path
     style="fill:#cccccc;fill-opacity:1;stroke-width:0.308063"
     d="m 98.078571,81.653623 -1.21761,-1.15523 0.475799,-2.04115 c 0.658061,-2.82303 1.293899,-3.35835 4.35292,-3.66472 3.51462,-0.352 6.22007,0.005 7.76044,1.02455 1.43419,0.9491 1.56671,1.62162 0.8617,4.37325 -0.37533,1.46496 -0.46924,1.56603 -1.91944,2.06594 -1.10287,0.38018 -2.57236,0.52936 -5.3105,0.53911 l -3.785698,0.0135 z"
     id="path31"
     inkscape:spray-origin="#path17" />
  <path
     style="fill:#cccccc;fill-opacity:1;stroke-width:0.308063"
     d="m 98.167573,80.335325 -1.21761,-1.15523 0.475799,-2.04115 c 0.658061,-2.82303 1.293899,-3.35835 4.352918,-3.66472 3.51462,-0.352 6.22007,0.005 7.76044,1.02455 1.4342,0.9491 1.56671,1.62162 0.86171,4.37325 -0.37534,1.46496 -0.46925,1.56603 -1.91945,2.06594 -1.10287,0.38018 -2.57236,0.52936 -5.3105,0.53911 l -3.785696,0.0135 z"
     id="path32"
     inkscape:spray-origin="#path17" />
  <path
     style="fill:#cccccc;fill-opacity:1;stroke-width:0.308063"
     d="m 220.90776,148.8482 -1.21761,-1.15523 0.4758,-2.04115 c 0.65806,-2.82303 1.2939,-3.35835 4.35292,-3.66472 3.51462,-0.352 6.22007,0.005 7.76044,1.02455 1.4342,0.9491 1.56671,1.62162 0.86171,4.37325 -0.37534,1.46496 -0.46925,1.56603 -1.91945,2.06594 -1.10287,0.38018 -2.57236,0.52936 -5.3105,0.53911 l -3.7857,0.0135 z"
     id="path42"
     inkscape:spray-origin="#path17" />
  <path
     style="fill:#cccccc;fill-opacity:1;stroke-width:0.308063"
     d="m 221.87078,149.78067 -1.21761,-1.15523 0.4758,-2.04115 c 0.65806,-2.82303 1.2939,-3.35835 4.35292,-3.66472 3.51462,-0.352 6.22007,0.005 7.76044,1.02455 1.4342,0.9491 1.56671,1.62162 0.86171,4.37325 -0.37534,1.46496 -0.46924,1.56603 -1.91945,2.06594 -1.10287,0.38018 -2.57236,0.52936 -5.3105,0.53911 l -3.78569,0.0135 z"
     id="path43"
     inkscape:spray-origin="#path17" />
  <path
     style="fill:#cccccc;fill-opacity:1;stroke-width:0.308063"
     d="m 223.34193,149.23024 -1.21761,-1.15523 0.4758,-2.04115 c 0.65806,-2.82303 1.2939,-3.35835 4.35292,-3.66472 3.51462,-0.352 6.22007,0.005 7.76044,1.02455 1.43419,0.9491 1.56671,1.62162 0.8617,4.37325 -0.37533,1.46496 -0.46924,1.56603 -1.91944,2.06594 -1.10287,0.38018 -2.57236,0.52936 -5.3105,0.53911 l -3.7857,0.0135 z"
     id="path44"
     inkscape:spray-origin="#path17" />
  <path
     style="fill:#cccccc;fill-opacity:1;stroke-width:0.308063"
     d="m 222.69023,151.25504 -1.21761,-1.15523 0.4758,-2.04115 c 0.65806,-2.82303 1.2939,-3.35835 4.35292,-3.66472 3.51462,-0.352 6.22007,0.005 7.76044,1.02455 1.43419,0.9491 1.56671,1.62162 0.8617,4.37325 -0.37534,1.46496 -0.46924,1.56603 -1.91945,2.06594 -1.10286,0.38018 -2.57235,0.52936 -5.31049,0.53911 l -3.7857,0.0135 z"
     id="path45"
     inkscape:spray-origin="#path17" />
  <path
     style="fill:#cccccc;fill-opacity:1;stroke-width:0.308063"
     d="m 221.02968,153.33985 -1.21761,-1.15523 0.47579,-2.04115 c 0.65807,-2.82303 1.2939,-3.35835 4.35292,-3.66472 3.51462,-0.352 6.22007,0.005 7.76044,1.02455 1.4342,0.9491 1.56671,1.62162 0.86171,4.37325 -0.37534,1.46496 -0.46924,1.56603 -1.91945,2.06594 -1.10287,0.38018 -2.57236,0.52936 -5.3105,0.53911 l -3.78569,0.0135 z"
     id="path46"
     inkscape:spray-origin="#path17" />
  <path
     style="fill:#cccccc;fill-opacity:1;stroke-width:0.308063"
     d="m 220.05494,153.16324 -1.21761,-1.15523 0.4758,-2.04115 c 0.65806,-2.82303 1.2939,-3.35835 4.35292,-3.66472 3.51462,-0.352 6.22007,0.005 7.76044,1.02455 1.4342,0.9491 1.56671,1.62162 0.86171,4.37325 -0.37534,1.46496 -0.46925,1.56603 -1.91945,2.06594 -1.10287,0.38018 -2.57236,0.52936 -5.3105,0.53911 l -3.7857,0.0135 z"
     id="path47"
     inkscape:spray-origin="#path17" />
  <path
     style="fill:#cccccc;fill-opacity:1;stroke-width:0.308063"
     d="m 218.23309,154.04941 -1.21761,-1.15523 0.4758,-2.04115 c 0.65806,-2.82303 1.2939,-3.35835 4.35292,-3.66472 3.51462,-0.352 6.22007,0.005 7.76044,1.02455 1.4342,0.9491 1.56671,1.62162 0.86171,4.37325 -0.37534,1.46496 -0.46925,1.56603 -1.91945,2.06594 -1.10287,0.38018 -2.57236,0.52936 -5.3105,0.53911 l -3.7857,0.0135 z"
     id="path48"
     inkscape:spray-origin="#path17" />
  <path
     style="fill:#cccccc;fill-opacity:1;stroke-width:0.308063"
     d="m 219.09434,156.31363 -1.21761,-1.15523 0.4758,-2.04115 c 0.65806,-2.82303 1.2939,-3.35835 4.35292,-3.66472 3.51462,-0.352 6.22007,0.005 7.76044,1.02455 1.4342,0.9491 1.56671,1.62162 0.86171,4.37325 -0.37534,1.46496 -0.46925,1.56603 -1.91945,2.06594 -1.10287,0.38018 -2.57236,0.52936 -5.3105,0.53911 l -3.7857,0.0135 z"
     id="path49"
     inkscape:spray-origin="#path17" />
  <path
     style="fill:#cccccc;fill-opacity:1;stroke-width:0.308063"
     d="m 44.022754,176.90705 -1.21761,-1.15523 0.475799,-2.04115 c 0.658061,-2.82303 1.293899,-3.35835 4.352917,-3.66472 3.514621,-0.352 6.220073,0.005 7.760443,1.02455 1.434194,0.9491 1.566706,1.62162 0.861704,4.37325 -0.375339,1.46496 -0.469242,1.56603 -1.919449,2.06594 -1.102869,0.38018 -2.572355,0.52936 -5.310498,0.53911 l -3.785695,0.0135 z"
     id="path50"
     inkscape:spray-origin="#path17" />
  <path
     style="fill:#cccccc;fill-opacity:1;stroke-width:0.308063"
     d="m 48.325348,178.84709 -1.21761,-1.15523 0.475799,-2.04115 c 0.658061,-2.82303 1.293899,-3.35835 4.352917,-3.66472 3.514621,-0.352 6.220073,0.005 7.760443,1.02455 1.434194,0.9491 1.566706,1.62162 0.861704,4.37325 -0.375339,1.46496 -0.469242,1.56603 -1.919449,2.06594 -1.102869,0.38018 -2.572355,0.52936 -5.310498,0.53911 l -3.785695,0.0135 z"
     id="path51"
     inkscape:spray-origin="#path17" />
  <path
     style="fill:#cccccc;fill-opacity:1;stroke-width:0.308063"
     d="m 47.729167,179.07396 -1.21761,-1.15523 0.475799,-2.04115 c 0.658061,-2.82303 1.293899,-3.35835 4.352917,-3.66472 3.514621,-0.352 6.220073,0.005 7.760443,1.02455 1.434194,0.9491 1.566706,1.62162 0.861704,4.37325 -0.375339,1.46496 -0.469242,1.56603 -1.919449,2.06594 -1.102869,0.38018 -2.572355,0.52936 -5.310498,0.53911 l -3.785695,0.0135 z"
     id="path52"
     inkscape:spray-origin="#path17" />
  <path
     style="fill:#cccccc;fill-opacity:1;stroke-width:0.308063"
     d="m 47.489687,177.18479 -1.21761,-1.15523 0.475799,-2.04115 c 0.658061,-2.82303 1.293899,-3.35835 4.352917,-3.66472 3.514621,-0.352 6.220073,0.005 7.760443,1.02455 1.434194,0.9491 1.566706,1.62162 0.861704,4.37325 -0.375339,1.46496 -0.469242,1.56603 -1.919449,2.06594 -1.102869,0.38018 -2.572355,0.52936 -5.310498,0.53911 l -3.785695,0.0135 z"
     id="path53"
     inkscape:spray-origin="#path17" />
  <path
     style="fill:#cccccc;fill-opacity:1;stroke-width:0.308063"
     d="m 47.127372,179.69139 -1.21761,-1.15523 0.475799,-2.04115 c 0.658061,-2.82303 1.293899,-3.35835 4.352917,-3.66472 3.514621,-0.352 6.220073,0.005 7.760443,1.02455 1.434194,0.9491 1.566706,1.62162 0.861704,4.37325 -0.375339,1.46496 -0.469242,1.56603 -1.919449,2.06594 -1.102869,0.38018 -2.572355,0.52936 -5.310498,0.53911 l -3.785695,0.0135 z"
     id="path54"
     inkscape:spray-origin="#path17" />
  <path
     style="fill:#cccccc;fill-opacity:1;stroke-width:0.308063"
     d="m 54.534688,183.48718 -1.21761,-1.15523 0.475799,-2.04115 c 0.658061,-2.82303 1.293899,-3.35835 4.352917,-3.66472 3.514621,-0.352 6.220073,0.005 7.760443,1.02455 1.434194,0.9491 1.566706,1.62162 0.861704,4.37325 -0.375339,1.46496 -0.469242,1.56603 -1.919449,2.06594 -1.102869,0.38018 -2.572355,0.52936 -5.310498,0.53911 l -3.785695,0.0135 z"
     id="path55"
     inkscape:spray-origin="#path17" />
  <path
     style="fill:#cccccc;fill-opacity:1;stroke-width:0.308063"
     d="m 56.924713,181.07396 -1.21761,-1.15523 0.475799,-2.04115 c 0.658061,-2.82303 1.293899,-3.35835 4.352917,-3.66472 3.514621,-0.352 6.220073,0.005 7.760443,1.02455 1.434194,0.9491 1.566706,1.62162 0.861704,4.37325 -0.375339,1.46496 -0.469242,1.56603 -1.919449,2.06594 -1.102869,0.38018 -2.572355,0.52936 -5.310498,0.53911 l -3.785695,0.0135 z"
     id="path56"
     inkscape:spray-origin="#path17" />
  <path
     style="fill:#cccccc;fill-opacity:1;stroke-width:0.308063"
     d="m 56.113125,179.63314 -1.21761,-1.15523 0.475799,-2.04115 c 0.658061,-2.82303 1.293899,-3.35835 4.352917,-3.66472 3.514621,-0.352 6.220073,0.005 7.760443,1.02455 1.434194,0.9491 1.566706,1.62162 0.861704,4.37325 -0.375339,1.46496 -0.469242,1.56603 -1.919449,2.06594 -1.102869,0.38018 -2.572355,0.52936 -5.310498,0.53911 l -3.785695,0.0135 z"
     id="path57"
     inkscape:spray-origin="#path17" />
  <path
     style="fill:#cccccc;fill-opacity:1;stroke-width:0.308063"
     d="m 52.675861,179.80075 -1.21761,-1.15523 0.475799,-2.04115 c 0.658061,-2.82303 1.293899,-3.35835 4.352917,-3.66472 3.514621,-0.352 6.220073,0.005 7.760443,1.02455 1.434194,0.9491 1.566706,1.62162 0.861704,4.37325 -0.375339,1.46496 -0.469242,1.56603 -1.919449,2.06594 -1.102869,0.38018 -2.572355,0.52936 -5.310498,0.53911 l -3.785695,0.0135 z"
     id="path60"
     inkscape:spray-origin="#path17" />
  <path
     style="fill:#cccccc;fill-opacity:1;stroke-width:0.308063"
     d="m 50.902083,177.53261 -1.21761,-1.15523 0.475799,-2.04115 c 0.658061,-2.82303 1.293899,-3.35835 4.352917,-3.66472 3.514621,-0.352 6.220073,0.005 7.760443,1.02455 1.434194,0.9491 1.566706,1.62162 0.861704,4.37325 -0.375339,1.46496 -0.469242,1.56603 -1.919449,2.06594 -1.102869,0.38018 -2.572355,0.52936 -5.310498,0.53911 l -3.785695,0.0135 z"
     id="path61"
     inkscape:spray-origin="#path17" />
  <path
     style="fill:#ffdd55;fill-opacity:1;stroke-width:0.308063"
     d="M 107.20578,184.80023 C 90.060002,182.48892 73.345109,176.76624 62.610037,169.53198 52.512859,162.72758 43.52504,151.35454 40.992154,142.17707 c -0.766155,-2.77603 -0.86642,-9.5508 -0.196139,-13.25288 1.54275,-8.52088 7.643626,-17.02355 17.581843,-24.50349 C 71.942888,94.211072 86.51357,88.720602 108.284,85.615257 c 4.74853,-0.677333 31.39072,-0.99698 37.97898,-0.455663 5.17361,0.425084 14.56001,2.280967 21.16903,4.185549 12.09871,3.486598 23.61132,9.063784 31.11432,15.073067 8.55158,6.84911 14.8285,16.6229 16.46234,25.63351 0.17942,0.98948 0.45397,3.71874 0.61012,6.065 l 0.28391,4.26595 -1.53374,3.58965 c -2.61469,6.11954 -4.9237,9.99122 -8.51814,14.28296 -11.39592,13.60664 -38.67522,25.05561 -63.67994,26.72611 -7.09758,0.47417 -31.02328,0.35021 -34.9651,-0.18116 z"
     id="path62" />
  <path
     style="fill:#999999;fill-opacity:1;stroke-width:0.308063"
     d="m 13.246691,124.0823 c 0,-15.15917 4.625397,-26.319782 15.284133,-36.879055 10.114222,-10.019839 24.01601,-18.024254 41.245349,-23.748375 14.256767,-4.736541 27.529045,-7.454025 44.669077,-9.145945 6.20445,-0.612452 27.63947,-0.507131 33.88688,0.166504 20.85054,2.248235 37.44874,6.807134 52.71143,14.477839 13.88713,6.97938 26.29604,16.654737 33.23138,25.910856 2.77311,3.701082 5.59914,9.076486 7.14786,13.595986 l 1.15365,3.3666 0.0993,7.23948 0.0993,7.23947 -2.5767,-4.92901 C 233.83861,109.21102 228.97254,103.04394 219.70009,95.397886 209.64248,87.104388 190.7687,78.515834 172.51506,73.926241 158.47839,70.396938 145.0142,68.850824 128.33728,68.853238 c -16.87922,0.0024 -30.859967,1.671403 -46.694914,5.574229 -23.005811,5.670224 -41.042513,15.192699 -53.845654,28.427803 -4.379242,4.527 -6.951548,7.99913 -9.322594,12.58378 -1.637928,3.16709 -4.611282,11.15647 -4.611282,12.39048 0,0.24319 -0.138628,0.52785 -0.308063,0.63256 -0.200087,0.12366 -0.308062,-1.41144 -0.308062,-4.37979 z"
     id="path63" />
  <path
     style="fill:#ececec;fill-opacity:1;stroke-width:0.308063"
     d="M 105.81949,200.18487 C 95.601111,198.88544 87.925193,197.4815 80.727379,195.59549 58.766956,189.84129 40.754337,179.99634 27.263538,166.37438 21.725424,160.78241 18.469672,155.82457 16.346329,149.7497 c -1.660785,-4.7515 -3.099638,-13.25237 -3.099638,-18.31294 0,-1.87357 0.07485,-2.15222 0.616125,-2.29377 0.338869,-0.0886 0.616125,-0.3846 0.616125,-0.65775 0,-1.08257 2.313001,-7.6067 3.844714,-10.84452 2.972229,-6.28288 5.815155,-10.07479 12.215375,-16.29295 16.178428,-15.718233 40.526712,-25.845446 72.58972,-30.19234 8.6582,-1.173822 15.27222,-1.463314 29.44224,-1.288669 10.27951,0.126695 13.67213,0.278334 17.91758,0.800857 18.63419,2.293468 33.02964,6.309488 49.03249,13.679004 12.89293,5.937365 21.98935,12.458345 29.30892,21.010778 4.32819,5.05721 7.20223,9.644 12.25735,19.56197 l 1.80569,3.54272 -0.0722,4.00482 c -0.13519,7.49943 -0.98435,11.7032 -3.60193,17.83158 -5.4164,12.68103 -15.12247,23.03108 -29.81014,31.78799 -16.84019,10.04027 -39.00629,16.39871 -62.71846,17.99109 -4.32174,0.29023 -38.72214,0.38053 -40.87081,0.1073 z m 40.51023,-14.69537 c 11.9239,-1.54699 22.90743,-4.24743 31.03686,-7.63081 2.91833,-1.21458 11.47579,-5.39701 14.24834,-6.96383 5.11914,-2.89293 8.40421,-5.44502 12.63792,-9.81809 5.32259,-5.4978 8.07945,-9.70099 10.88489,-16.59542 l 1.3789,-3.38869 -0.28201,-5.74044 c -0.32886,-6.694 -0.92741,-9.25036 -3.36308,-14.3635 -3.51538,-7.37975 -8.47386,-13.433 -14.94134,-18.24017 -11.53367,-8.572782 -26.72235,-14.427561 -46.05535,-17.752948 -4.55715,-0.783856 -5.39809,-0.828042 -18.43491,-0.968614 -14.54411,-0.156826 -20.43244,0.09158 -27.91916,1.177793 -18.876012,2.738636 -34.686061,8.732641 -46.627108,17.677569 -10.127292,7.58626 -16.33993,15.57094 -18.584488,23.8854 -0.617047,2.28571 -0.707033,3.34291 -0.707981,8.31769 -0.0013,6.83329 0.261617,8.04055 2.91845,13.40072 1.975202,3.98498 4.529478,7.64237 8.55467,12.24918 4.941502,5.65553 11.337035,10.34778 19.625511,14.39879 11.433804,5.58828 21.53034,8.378 39.432536,10.89539 0.5083,0.0715 7.99422,0.0916 16.63538,0.0448 12.30508,-0.0667 16.54602,-0.1935 19.56197,-0.58479 z"
     id="path64" />
  <path
     style="fill:#cccccc;fill-opacity:1;stroke-width:0.308063"
     d="m 13.448709,126.59306 c -0.297732,-2.25806 0.307874,-10.44849 1.040005,-14.06539 1.671393,-8.25706 5.346657,-15.469096 11.307459,-22.18881 15.869325,-17.889763 44.815432,-30.387465 81.129657,-35.028346 7.69771,-0.983751 12.44724,-1.244269 22.61448,-1.240434 14.92381,0.0056 23.51303,0.728728 35.11914,2.956569 27.24812,5.230392 50.88447,17.377246 66.21902,34.030339 4.09242,4.444299 7.29123,9.654962 9.91371,16.148792 l 1.4929,3.69675 0.17684,7.23947 c 0.0973,3.98171 0.1548,7.27571 0.12789,7.32001 -0.0269,0.0443 -1.12993,-1.9658 -2.45114,-4.4669 C 234.22271,109.79602 229.38786,103.52827 221.37784,96.674127 208.89034,85.988635 187.17129,76.556882 164.81348,72.110379 153.00724,69.762365 146.592,69.143672 131.95389,68.941359 114.26524,68.696886 103.9101,69.582383 89.338147,72.585553 62.509442,78.114746 42.873965,87.61946 28.497233,102.03609 c -4.597542,4.6103 -7.999391,9.13224 -10.136405,13.47391 -1.757017,3.56965 -3.619604,8.33516 -4.305882,11.01679 l -0.405866,1.58592 z"
     id="path65" />
</svg>
