<?xml version="1.0" encoding="UTF-8" standalone="no"?>
<!-- Uploaded to: SVG Repo, www.svgrepo.com, Generator: SVG Repo Mixer Tools -->

<svg
   width="800px"
   height="800px"
   viewBox="0 0 24 24"
   fill="none"
   version="1.1"
   id="svg3"
   sodipodi:docname="remote-start.svg"
   inkscape:version="1.3.2 (091e20e, 2023-11-25, custom)"
   xmlns:inkscape="http://www.inkscape.org/namespaces/inkscape"
   xmlns:sodipodi="http://sodipodi.sourceforge.net/DTD/sodipodi-0.dtd"
   xmlns="http://www.w3.org/2000/svg"
   xmlns:svg="http://www.w3.org/2000/svg">
  <defs
     id="defs3" />
  <sodipodi:namedview
     id="namedview3"
     pagecolor="#ffffff"
     bordercolor="#000000"
     borderopacity="0.25"
     inkscape:showpageshadow="2"
     inkscape:pageopacity="0.0"
     inkscape:pagecheckerboard="0"
     inkscape:deskcolor="#d1d1d1"
     inkscape:zoom="1.01625"
     inkscape:cx="400"
     inkscape:cy="400"
     inkscape:window-width="1920"
     inkscape:window-height="1009"
     inkscape:window-x="-8"
     inkscape:window-y="-8"
     inkscape:window-maximized="1"
     inkscape:current-layer="svg3" />
  <path
     opacity="0.4"
     d="M11.9707 22C17.4936 22 21.9707 17.5228 21.9707 12C21.9707 6.47715 17.4936 2 11.9707 2C6.44786 2 1.9707 6.47715 1.9707 12C1.9707 17.5228 6.44786 22 11.9707 22Z"
     fill="#292D32"
     id="path1" />
  <g
     id="g3"
     transform="matrix(0.02567128,0,0,0.03327921,6.3396986,3.4091382)">
	<path
   style="fill:#0069a3"
   d="m 423.451,436.216 c -2.362,0 -4.706,-1.004 -6.344,-2.954 -2.943,-3.502 -2.49,-8.725 1.012,-11.668 49.136,-41.297 77.319,-101.654 77.319,-165.594 0,-63.94 -28.182,-124.297 -77.319,-165.594 -3.502,-2.943 -3.954,-8.167 -1.012,-11.668 2.942,-3.503 8.167,-3.956 11.668,-1.012 52.89,44.452 83.225,109.431 83.225,178.275 0,68.844 -30.335,133.823 -83.226,178.274 -1.551,1.303 -3.443,1.941 -5.323,1.941 z"
   id="path1-9" />

	<path
   style="fill:#0069a3"
   d="m 386.772,392.504 c -2.362,0 -4.706,-1.004 -6.344,-2.954 -2.943,-3.502 -2.49,-8.725 1.012,-11.668 36.166,-30.397 56.909,-74.821 56.909,-121.882 0,-47.061 -20.743,-91.486 -56.909,-121.882 -3.502,-2.943 -3.954,-8.167 -1.012,-11.668 2.943,-3.504 8.166,-3.954 11.668,-1.012 39.921,33.552 62.817,82.597 62.817,134.563 0,51.966 -22.895,101.011 -62.817,134.563 -1.552,1.302 -3.444,1.94 -5.324,1.94 z"
   id="path2" />

	<path
   style="fill:#0069a3"
   d="m 350.124,348.831 c -2.363,0 -4.708,-1.005 -6.346,-2.955 -2.942,-3.503 -2.487,-8.727 1.015,-11.669 23.177,-19.467 36.469,-47.972 36.469,-78.207 0,-30.235 -13.292,-58.739 -36.469,-78.207 -3.502,-2.942 -3.957,-8.167 -1.015,-11.669 2.942,-3.501 8.166,-3.956 11.669,-1.015 26.932,22.622 42.379,55.751 42.379,90.892 0,35.141 -15.447,68.268 -42.379,90.892 -1.553,1.302 -3.443,1.938 -5.323,1.938 z"
   id="path3" />

</g>
  <path
     style="fill:#292d32;fill-opacity:1;stroke-width:0.0316499"
     d="M 12.668588,8.9339364 H 6.0391733 c -0.3028668,0 -0.5483984,0.2675412 -0.5483984,0.597557 v 4.7933736 c 0,0.330016 0.2455316,0.597557 0.5483984,0.597557 h 6.6293547 c 1.517639,0 2.747934,-1.34058 2.747934,-2.99426 v 0 c 0,-1.653647 -1.230295,-2.9942276 -2.747874,-2.9942276 z"
     id="path4" />
  <path
     style="fill:#a4a8ab;stroke-width:0.0316499"
     d="M 7.3939332,10.43115 H 5.4907749 v 2.99416 h 1.9031583 c 0.3459213,0 0.6263512,-0.305568 0.6263512,-0.682498 v -1.629133 c 0,-0.376995 -0.2804299,-0.682529 -0.6263512,-0.682529 z"
     id="path5" />
  <ellipse
     style="opacity:0.2;stroke-width:0.0316499;enable-background:new"
     cx="12.543094"
     cy="12.065173"
     id="circle5"
     rx="1.6406171"
     ry="1.7876825" />
  <ellipse
     style="fill:#a4a8ab;stroke-width:0.0316499"
     cx="12.668649"
     cy="11.928363"
     id="circle6"
     rx="1.6406171"
     ry="1.7876825" />
  <path
     style="opacity:0.2;stroke-width:0.0316499;enable-background:new"
     d="m 12.796206,13.576922 c -0.906085,0 -1.640617,-0.800377 -1.640617,-1.787683 0,-0.45827 0.158391,-0.876066 0.418628,-1.192471 -0.335188,0.32734 -0.546246,0.802491 -0.546246,1.331527 0,0.987306 0.734534,1.787682 1.640617,1.787682 0.485516,0 0.921638,-0.229975 1.221989,-0.595211 -0.290375,0.283565 -0.673802,0.456156 -1.094371,0.456156 z"
     id="path6" />
  <ellipse
     style="opacity:0.2;stroke-width:0.0316499;enable-background:new"
     cx="12.668649"
     cy="11.928363"
     id="circle7"
     rx="0.76797616"
     ry="0.83681774" />
  <path
     style="fill:#8ccfde;stroke-width:0.0316499"
     d="m 9.2938169,13.698931 c -0.1387142,0 -0.2511106,-0.122472 -0.2511106,-0.273621 v -2.99416 c 0,-0.151149 0.1123964,-0.27362 0.2511106,-0.27362 0.1387141,0 0.2511105,0.122471 0.2511105,0.27362 v 2.99416 c 0,0.151116 -0.1124267,0.273621 -0.2511105,0.273621 z"
     id="path7" />
  <g
     id="g9"
     transform="matrix(0.03032004,0,0,0.03303793,5.4907749,3.4708173)">
	<path
   style="fill:#ffffff"
   d="m 55.057,280.108 c -4.575,0 -8.282,-3.707 -8.282,-8.282 v -31.672 c 0,-4.575 3.707,-8.282 8.282,-8.282 4.575,0 8.282,3.707 8.282,8.282 v 31.672 c 0.001,4.575 -3.706,8.282 -8.282,8.282 z"
   id="path8" />

	<path
   style="fill:#ffffff"
   d="m 28.369,280.108 c -4.575,0 -8.282,-3.707 -8.282,-8.282 v -31.672 c 0,-4.575 3.707,-8.282 8.282,-8.282 4.575,0 8.282,3.707 8.282,8.282 v 31.672 c 0,4.575 -3.707,8.282 -8.282,8.282 z"
   id="path9" />

</g>
  <path
     style="opacity:0.2;stroke-width:0.0316499;enable-background:new"
     d="M 12.992346,14.569678 H 6.3629609 c -0.3028668,0 -0.5483983,-0.267541 -0.5483983,-0.597557 V 9.1787145 c 0,-0.072915 0.012583,-0.1424927 0.034565,-0.2071479 -0.2090873,0.084346 -0.3583529,0.3028918 -0.3583529,0.5599268 v 4.7933736 c 0,0.330016 0.2455317,0.597557 0.5483985,0.597557 h 6.6293548 c 0.84126,0 1.593742,-0.412346 2.097813,-1.061145 -0.478754,0.441618 -1.097615,0.708399 -1.773995,0.708399 z"
     id="path10" />
</svg>
