<?xml version="1.0" encoding="UTF-8" standalone="no"?>
<!-- Uploaded to: SVG Repo, www.svgrepo.com, Generator: SVG Repo Mixer Tools -->

<svg
   width="750"
   height="750"
   viewBox="0 0 33.75 33.75"
   aria-hidden="true"
   role="img"
   class="iconify iconify--twemoji"
   preserveAspectRatio="xMidYMid"
   version="1.1"
   id="svg2"
   sodipodi:docname="round-fire.svg"
   inkscape:version="1.3.2 (091e20e, 2023-11-25, custom)"
   xmlns:inkscape="http://www.inkscape.org/namespaces/inkscape"
   xmlns:sodipodi="http://sodipodi.sourceforge.net/DTD/sodipodi-0.dtd"
   xmlns="http://www.w3.org/2000/svg"
   xmlns:svg="http://www.w3.org/2000/svg">
  <defs
     id="defs2" />
  <sodipodi:namedview
     id="namedview2"
     pagecolor="#ffffff"
     bordercolor="#000000"
     borderopacity="0.25"
     inkscape:showpageshadow="2"
     inkscape:pageopacity="0.0"
     inkscape:pagecheckerboard="0"
     inkscape:deskcolor="#d1d1d1"
     inkscape:zoom="1.01625"
     inkscape:cx="400"
     inkscape:cy="403.93604"
     inkscape:window-width="1920"
     inkscape:window-height="1009"
     inkscape:window-x="-8"
     inkscape:window-y="-8"
     inkscape:window-maximized="1"
     inkscape:current-layer="svg2" />
  <path
     fill="#f4900c"
     d="m 33.775801,17.747324 a 16.83528,15.918572 0 0 0 -1.032353,-5.507676 c -0.456617,5.058089 -3.308489,7.65612 -6.288413,6.446271 -2.791321,-1.133823 -0.910256,-5.553667 -0.771286,-7.66269 C 25.918013,7.4481204 25.671833,3.3558461 18.803718,-0.04656089 21.657575,5.1157118 19.134269,8.322891 16.487874,8.5181187 13.551627,8.7349342 10.862549,6.1322102 11.855195,1.9085325 8.6410061,4.1480203 8.5476977,7.9174179 9.5393513,10.355888 10.573688,12.897603 9.4976603,15.009442 6.9753462,15.244091 4.156231,15.506897 2.5898353,12.389823 4.0341355,7.4227783 A 16.811456,15.896045 0 0 0 0.02583012,17.747324 c 0,8.812468 7.55503028,15.956115 16.87498488,15.956115 9.319955,0 16.874986,-7.143647 16.874986,-15.956115 z"
     id="path1"
     style="stroke-width:0.965241" />
  <path
     fill="#ffcc4d"
     d="m 27.21838,22.43936 c 0.146912,2.894627 -2.542167,4.029389 -3.989445,3.481249 -2.090513,-0.791236 -1.529668,-2.150321 -2.067682,-4.966106 -0.538015,-2.815785 -2.605696,-4.770879 -5.666024,-5.63157 2.233454,5.944122 -1.23783,8.134803 -3.057351,8.526197 -1.858234,0.399841 -3.7254007,-9.39e-4 -3.9388197,-3.76095 a 11.876019,11.229351 0 0 0 -3.5099971,7.983689 c 0,0.345403 0.022831,0.685174 0.054595,1.023068 3.0474244,2.847698 7.2334138,4.608502 11.8571588,4.608502 4.623746,0 8.809735,-1.760804 11.85716,-4.608502 0.03176,-0.337894 0.0546,-0.677665 0.0546,-1.023068 0,-2.052707 -0.579706,-3.975889 -1.59419,-5.632509 z"
     id="path2"
     style="stroke-width:0.965241" />
</svg>
