<?xml version="1.0" encoding="UTF-8" standalone="no"?>
<!-- Uploaded to: SVG Repo, www.svgrepo.com, Generator: SVG Repo Mixer Tools -->

<svg
   height="800px"
   width="800px"
   version="1.1"
   id="Capa_1"
   viewBox="0 0 58 58"
   xml:space="preserve"
   sodipodi:docname="run-interval.svg"
   inkscape:version="1.3.1 (91b66b0783, 2023-11-16)"
   xmlns:inkscape="http://www.inkscape.org/namespaces/inkscape"
   xmlns:sodipodi="http://sodipodi.sourceforge.net/DTD/sodipodi-0.dtd"
   xmlns="http://www.w3.org/2000/svg"
   xmlns:svg="http://www.w3.org/2000/svg"><defs
   id="defs14" /><sodipodi:namedview
   id="namedview14"
   pagecolor="#ffffff"
   bordercolor="#000000"
   borderopacity="0.25"
   inkscape:showpageshadow="2"
   inkscape:pageopacity="0.0"
   inkscape:pagecheckerboard="0"
   inkscape:deskcolor="#d1d1d1"
   inkscape:zoom="0.5875"
   inkscape:cx="400"
   inkscape:cy="399.14894"
   inkscape:window-width="1920"
   inkscape:window-height="1027"
   inkscape:window-x="-8"
   inkscape:window-y="-8"
   inkscape:window-maximized="1"
   inkscape:current-layer="Capa_1" />
<g
   id="g14">
	<g
   id="g12">
		<circle
   style="fill:#ECF0F1;"
   cx="29"
   cy="29"
   r="29"
   id="circle1" />
		<path
   style="fill:#545E73;"
   d="M29,4c13.785,0,25,11.215,25,25S42.785,54,29,54S4,42.785,4,29S15.215,4,29,4 M29,0    C12.984,0,0,12.984,0,29s12.984,29,29,29s29-12.984,29-29S45.016,0,29,0L29,0z"
   id="path1" />
		<g
   id="g9">
			<path
   style="fill:#8697CB;"
   d="M29,5.879c-0.552,0-1,0.447-1,1v1c0,0.553,0.448,1,1,1s1-0.447,1-1v-1     C30,6.326,29.552,5.879,29,5.879z"
   id="path2" />
			<path
   style="fill:#8697CB;"
   d="M29,48.879c-0.552,0-1,0.447-1,1v1c0,0.553,0.448,1,1,1s1-0.447,1-1v-1     C30,49.326,29.552,48.879,29,48.879z"
   id="path3" />
			<path
   style="fill:#8697CB;"
   d="M51,27.879h-1c-0.552,0-1,0.447-1,1s0.448,1,1,1h1c0.552,0,1-0.447,1-1S51.552,27.879,51,27.879z"
   id="path4" />
			<path
   style="fill:#8697CB;"
   d="M8,27.879H7c-0.552,0-1,0.447-1,1s0.448,1,1,1h1c0.552,0,1-0.447,1-1S8.552,27.879,8,27.879z"
   id="path5" />
			<path
   style="fill:#8697CB;"
   d="M43.849,12.615l-0.707,0.707c-0.391,0.391-0.391,1.023,0,1.414     c0.195,0.195,0.451,0.293,0.707,0.293s0.512-0.098,0.707-0.293l0.707-0.707c0.391-0.391,0.391-1.023,0-1.414     S44.24,12.224,43.849,12.615z"
   id="path6" />
			<path
   style="fill:#8697CB;"
   d="M13.444,43.021l-0.707,0.707c-0.391,0.391-0.391,1.023,0,1.414     c0.195,0.195,0.451,0.293,0.707,0.293s0.512-0.098,0.707-0.293l0.707-0.707c0.391-0.391,0.391-1.023,0-1.414     S13.834,42.631,13.444,43.021z"
   id="path7" />
			<path
   style="fill:#8697CB;"
   d="M44.556,43.021c-0.391-0.391-1.023-0.391-1.414,0s-0.391,1.023,0,1.414l0.707,0.707     c0.195,0.195,0.451,0.293,0.707,0.293s0.512-0.098,0.707-0.293c0.391-0.391,0.391-1.023,0-1.414L44.556,43.021z"
   id="path8" />
			<path
   style="fill:#8697CB;"
   d="M14.151,12.615c-0.391-0.391-1.023-0.391-1.414,0s-0.391,1.023,0,1.414l0.707,0.707     c0.195,0.195,0.451,0.293,0.707,0.293s0.512-0.098,0.707-0.293c0.391-0.391,0.391-1.023,0-1.414L14.151,12.615z"
   id="path9" />
		</g>
		<path
   style="fill:#545E73;"
   d="M26,29.879h-8c-0.553,0-1-0.447-1-1s0.447-1,1-1h8c0.553,0,1,0.447,1,1S26.553,29.879,26,29.879z"
   id="path10" />
		<path
   style="fill:#545E73;"
   d="M29,26.879c-0.553,0-1-0.447-1-1v-11c0-0.553,0.447-1,1-1s1,0.447,1,1v11    C30,26.432,29.553,26.879,29,26.879z"
   id="path11" />
		<path
   style="fill:#545E73;"
   d="M29,32.879c-2.206,0-4-1.794-4-4s1.794-4,4-4s4,1.794,4,4S31.206,32.879,29,32.879z M29,26.879    c-1.103,0-2,0.897-2,2s0.897,2,2,2s2-0.897,2-2S30.103,26.879,29,26.879z"
   id="path12" />
	</g>
	
</g>
<circle
   style="fill:#777777;stroke-width:0.302083"
   cx="43.672768"
   cy="43.600266"
   id="circle1-0"
   r="14.5" /><circle
   style="fill:#666666;stroke-width:0.302083"
   cx="43.672768"
   cy="43.600266"
   id="circle2"
   r="13.291667" /><path
   style="fill:#12c61c;stroke:none;stroke-width:0.302083"
   d="m 40.651933,30.912766 3.020833,12.6875 12.083333,-3.020834 c 0,0 -3.020833,-11.78125 -15.708333,-9.666666"
   id="path2-0" /><circle
   style="fill:none;stroke:#222222;stroke-width:1.8125pt"
   cx="43.672768"
   cy="43.600266"
   id="circle3"
   r="12.6875" /><g
   style="fill:#aaaaaa"
   id="g7"
   transform="matrix(0.30208333,0,0,0.30208333,28.568599,28.496099)"><circle
     cx="50"
     cy="9"
     r="3"
     id="circle4" /><circle
     cx="91"
     cy="50"
     r="3"
     id="circle5" /><circle
     cx="50"
     cy="91"
     r="3"
     id="circle6" /><circle
     cx="9"
     cy="50"
     r="3"
     id="circle7" /></g></svg>
