<?xml version="1.0" encoding="iso-8859-1"?>
<!-- Generator: Adobe Illustrator 19.0.0, SVG Export Plug-In . SVG Version: 6.00 Build 0)  -->
<svg version="1.1" id="Layer_1" xmlns="http://www.w3.org/2000/svg" xmlns:xlink="http://www.w3.org/1999/xlink" x="0px" y="0px"
	 viewBox="0 0 512.001 512.001" style="enable-background:new 0 0 512.001 512.001;" xml:space="preserve">
<path style="fill:#FFA233;" d="M253.349,119.644c43.085,0,78.01-34.926,78.01-78.009c0-12.012-2.717-23.387-7.567-33.549
	c26.292,12.545,44.46,39.37,44.46,70.441c0,43.083-34.926,78.01-78.01,78.01c-31.071,0-57.898-18.168-70.444-44.459
	C229.963,116.927,241.339,119.644,253.349,119.644z"/>
<path style="fill:#CECCCC;" d="M503.916,503.917v-69.258c-45.563-31.694-100.918-50.29-160.626-50.29
	c-95.196,0-179.354,47.24-230.332,119.548H503.916z"/>
<g style="opacity:0.1;">
	<path style="fill:#231F20;" d="M357.12,384.716c-4.583-0.222-9.191-0.347-13.829-0.347c-95.196,0-179.354,47.24-230.332,119.548
		h27.845C189.265,435.178,267.711,389.098,357.12,384.716z"/>
</g>
<path style="fill:#65A6B7;" d="M242.711,402.867H8.085v101.049h104.874C144.959,458.524,190.038,423.016,242.711,402.867z"/>
<g>
	<path style="fill:#5D8593;" d="M194.656,346.069h144.818c28.657,0,51.887-23.235,51.887-51.891s-23.23-51.89-51.887-51.89
		c-14.181,0-27.025,5.692-36.397,14.912c-5.46-30.265-31.915-53.232-63.753-53.232c-35.3,0-63.988,28.226-64.77,63.341
		c-4.222-1.493-8.762-2.313-13.496-2.313c-22.388,0-40.535,18.151-40.535,40.537c0,22.386,18.147,40.534,40.535,40.534h7.731"/>
	<path style="fill:#5D8593;" d="M384.149,267.792c-9.035-15.261-25.654-25.503-44.674-25.503c-14.181,0-27.025,5.692-36.397,14.912
		c-2.185-12.12-7.747-23.062-15.664-31.831c4.213-13.025,16.436-22.446,30.863-22.446c8.86,0,16.891,3.56,22.748,9.317
		c3.414-18.917,19.952-33.268,39.852-33.268c22.066,0,39.997,17.639,40.486,39.59c2.64-0.935,5.477-1.444,8.437-1.444
		c13.992,0,25.336,11.344,25.336,25.335c0,13.994-11.343,25.339-25.336,25.339h-19.845"/>
	<path style="fill:#5D8593;" d="M103.184,208.378h10.974c10.299,0,18.64-8.345,18.64-18.638c0-3.461-0.957-6.684-2.597-9.459h38.832
		c10.295,0,18.638-8.347,18.638-18.64c0-10.295-8.343-18.639-18.638-18.639H81.6c-10.296,0-18.642,8.344-18.642,18.639
		c0,3.457,0.957,6.682,2.597,9.457H26.728c-10.297,0-18.643,8.344-18.643,18.641c0,10.293,8.346,18.638,18.643,18.638h51.08"/>
</g>
<g>
	<path style="fill:#231F20;" d="M429.797,209.035c-0.487,0-0.972,0.011-1.457,0.031c-1.996-9.18-6.623-17.592-13.474-24.305
		c-9.132-8.947-21.203-13.872-33.991-13.872c-19.389,0-36.453,11.401-44.194,28.357c-5.636-2.881-11.91-4.406-18.405-4.406
		c-13.49,0-25.721,6.6-33.157,17.208c-12.593-10.165-28.58-16.161-45.794-16.161c-19.181,0-37.29,7.391-50.988,20.812
		c-11.305,11.076-18.571,25.24-20.991,40.623c-2.078-0.271-4.176-0.406-6.287-0.406c-26.809,0-48.62,21.811-48.62,48.622
		c0,26.808,21.81,48.618,48.62,48.618h7.731c4.466,0,8.084-3.618,8.084-8.084s-3.618-8.084-8.084-8.084h-7.731
		c-17.894,0-32.451-14.557-32.451-32.45c0-17.895,14.558-32.453,32.451-32.453c3.693,0,7.326,0.623,10.802,1.852
		c2.445,0.862,5.153,0.502,7.289-0.969c2.133-1.473,3.431-3.882,3.488-6.473c0.68-30.568,26.11-55.437,56.688-55.437
		c16.344,0,31.271,6.941,41.706,18.25c0.125,0.162,0.243,0.329,0.382,0.483c5.629,6.236,9.768,13.579,12.174,21.512
		c0.088,0.292,0.178,0.582,0.262,0.876c0.101,0.355,0.197,0.712,0.291,1.069c0.116,0.442,0.227,0.886,0.334,1.332
		c0.066,0.273,0.132,0.544,0.193,0.819c0.165,0.742,0.32,1.488,0.456,2.242c0.531,2.949,2.652,5.364,5.508,6.27
		c0.238,0.075,0.48,0.123,0.72,0.175c2.649,0.583,5.438-0.191,7.397-2.117c8.253-8.119,19.166-12.591,30.728-12.591
		c0.894,0,1.784,0.034,2.67,0.089c0.193,0.012,0.385,0.03,0.578,0.044c0.765,0.057,1.53,0.13,2.287,0.229
		c0.105,0.013,0.21,0.026,0.315,0.04c8.417,1.149,16.314,4.744,22.705,10.226c0.025,0.022,0.05,0.043,0.073,0.064
		c0.656,0.566,1.296,1.154,1.919,1.759c0.058,0.057,0.12,0.112,0.178,0.17c0.619,0.607,1.218,1.234,1.801,1.879
		c0.158,0.176,0.309,0.359,0.466,0.538c0.385,0.44,0.762,0.888,1.131,1.344c0.229,0.283,0.455,0.57,0.676,0.86
		c0.297,0.388,0.584,0.785,0.87,1.184c0.212,0.299,0.431,0.592,0.637,0.896c0.423,0.624,0.827,1.262,1.218,1.91
		c3.983,6.597,6.279,14.322,6.279,22.574c0,24.155-19.649,43.807-43.802,43.807H194.656c-4.466,0-8.084,3.618-8.084,8.084
		s3.618,8.084,8.084,8.084h144.818c33.068,0,59.971-26.904,59.971-59.975c0-10.91-2.943-21.141-8.055-29.964
		c-0.089-0.181-0.179-0.363-0.283-0.54c-2.091-3.532-4.527-6.802-7.243-9.781c-0.019-0.022-0.039-0.042-0.058-0.064
		c-0.55-0.601-1.113-1.19-1.686-1.768c-0.146-0.148-0.291-0.296-0.439-0.443c-0.544-0.538-1.095-1.067-1.659-1.582
		c-0.334-0.307-0.677-0.605-1.019-0.904c-0.209-0.183-0.418-0.365-0.631-0.545c-8.526-7.287-19.107-12.223-30.745-13.813
		c-0.333-0.046-0.666-0.087-1-0.127c-0.498-0.059-0.996-0.12-1.497-0.167c-0.724-0.07-1.452-0.124-2.182-0.166
		c-0.269-0.015-0.539-0.029-0.808-0.041c-0.886-0.04-1.774-0.068-2.665-0.068c-11.419,0-22.375,3.185-31.833,9.13
		c-2.63-7.099-6.319-13.634-10.855-19.443c4.171-7.849,12.352-12.885,21.491-12.885c6.423,0,12.49,2.486,17.08,6.999
		c2.135,2.101,5.257,2.846,8.115,1.939c2.855-0.908,4.974-3.32,5.507-6.268c2.783-15.425,16.198-26.62,31.896-26.62
		c17.478,0,32.015,14.215,32.404,31.686c0.058,2.592,1.356,5,3.489,6.474c2.134,1.472,4.844,1.831,7.291,0.967
		c1.838-0.651,3.768-0.981,5.739-0.981c9.512,0,17.252,7.739,17.252,17.251c0,9.515-7.739,17.255-17.252,17.255h-19.845
		c-4.466,0-8.084,3.618-8.084,8.084c0,4.466,3.618,8.084,8.084,8.084h19.845c18.428,0,33.42-14.994,33.42-33.423
		C463.217,224.026,448.225,209.035,429.797,209.035z"/>
	<path style="fill:#231F20;" d="M114.157,216.463h-10.973c-4.466,0-8.084-3.618-8.084-8.084c0-4.466,3.618-8.084,8.084-8.084h10.974
		c5.82,0,10.556-4.735,10.556-10.554c0-1.895-0.496-3.693-1.472-5.345c-1.477-2.499-1.5-5.599-0.063-8.12
		c1.439-2.521,4.119-4.078,7.022-4.078h38.832c5.818,0,10.554-4.736,10.554-10.556c0-5.82-4.735-10.555-10.554-10.555H81.6
		c-5.822,0-10.558,4.735-10.558,10.555c0,1.893,0.496,3.692,1.472,5.345c1.477,2.5,1.5,5.599,0.061,8.12
		c-1.438,2.521-4.118,4.077-7.021,4.077H26.728c-5.822,0-10.559,4.736-10.559,10.557c0,5.818,4.737,10.554,10.559,10.554h51.08
		c4.466,0,8.084,3.618,8.084,8.084c0,4.466-3.618,8.084-8.084,8.084h-51.08C11.99,216.463,0,204.475,0,189.741
		c0-14.737,11.989-26.725,26.727-26.725h28.183c-0.025-0.457-0.036-0.915-0.036-1.373c0-14.735,11.989-26.723,26.726-26.723h87.432
		c14.735,0,26.722,11.988,26.722,26.723c0,14.736-11.987,26.724-26.722,26.724h-28.187c0.024,0.457,0.036,0.916,0.036,1.374
		C140.881,204.475,128.893,216.463,114.157,216.463z"/>
	<path style="fill:#231F20;" d="M290.242,164.621c-33.003,0-63.518-19.258-77.739-49.063c-1.475-3.09-0.842-6.775,1.579-9.197
		c2.421-2.422,6.107-3.055,9.197-1.581c9.428,4.498,19.545,6.778,30.071,6.778c38.558,0,69.926-31.368,69.926-69.925
		c0-10.526-2.281-20.641-6.779-30.068c-1.476-3.091-0.842-6.777,1.579-9.198c2.422-2.423,6.108-3.054,9.198-1.58
		c29.805,14.22,49.064,44.734,49.064,77.738C376.337,125.999,337.715,164.621,290.242,164.621z M239.541,126.634
		c13.03,13.657,31.338,21.819,50.7,21.819c38.557,0,69.926-31.369,69.926-69.926c0-19.363-8.16-37.669-21.818-50.698
		c0.729,4.526,1.094,9.134,1.094,13.806c0,47.473-38.622,86.094-86.095,86.094C248.676,127.728,244.069,127.363,239.541,126.634z"/>
	<path style="fill:#231F20;" d="M508.533,428.022c-48.657-33.847-105.796-51.738-165.243-51.738
		c-34.86,0-69.524,6.339-101.961,18.499H8.085c-4.466,0-8.084,3.618-8.084,8.084v101.049c0,4.466,3.618,8.084,8.084,8.084h104.874
		h390.958c4.466,0,8.084-3.618,8.084-8.084v-69.258C512,432.013,510.706,429.533,508.533,428.022z M16.169,410.952h189.546
		c-31.891,17.196-60.2,40.225-83.7,68.065c-0.006,0.008-0.012,0.015-0.018,0.023c-1.655,1.961-3.288,3.944-4.894,5.953
		c-0.431,0.538-0.856,1.079-1.284,1.619c-1.185,1.504-2.36,3.016-3.517,4.546c-0.686,0.903-1.362,1.812-2.037,2.723
		c-0.484,0.654-0.983,1.295-1.462,1.954H16.169V410.952z M495.832,495.833H129.116c51.745-65.011,130.666-103.38,214.173-103.38
		c54.721,0,107.372,16.056,152.543,46.469V495.833z"/>
	<path style="fill:#231F20;" d="M136.454,444.635H42.341c-4.466,0-8.084-3.618-8.084-8.084c0-4.466,3.618-8.084,8.084-8.084h94.112
		c4.466,0,8.084,3.618,8.084,8.084C144.538,441.016,140.919,444.635,136.454,444.635z"/>
	<path style="fill:#231F20;" d="M97.311,478.318H42.341c-4.466,0-8.084-3.618-8.084-8.084c0-4.465,3.618-8.084,8.084-8.084h54.969
		c4.466,0,8.084,3.62,8.084,8.084C105.395,474.698,101.776,478.318,97.311,478.318z"/>
</g>
<g style="opacity:0.1;">
	<rect x="16.113" y="405.893" style="fill:#231F20;" width="17.246" height="93.583"/>
</g>
<g>
</g>
<g>
</g>
<g>
</g>
<g>
</g>
<g>
</g>
<g>
</g>
<g>
</g>
<g>
</g>
<g>
</g>
<g>
</g>
<g>
</g>
<g>
</g>
<g>
</g>
<g>
</g>
<g>
</g>
</svg>
