<?xml version="1.0" encoding="UTF-8" standalone="no"?>
<!-- Uploaded to: SVG Repo, www.svgrepo.com, Generator: SVG Repo Mixer Tools -->

<svg
   height="800px"
   width="800px"
   version="1.1"
   id="Layer_1"
   viewBox="0 0 512 512"
   xml:space="preserve"
   sodipodi:docname="sensor-sending.svg"
   inkscape:version="1.4.2 (f4327f4, 2025-05-13)"
   xmlns:inkscape="http://www.inkscape.org/namespaces/inkscape"
   xmlns:sodipodi="http://sodipodi.sourceforge.net/DTD/sodipodi-0.dtd"
   xmlns="http://www.w3.org/2000/svg"
   xmlns:svg="http://www.w3.org/2000/svg"><defs
   id="defs10" /><sodipodi:namedview
   id="namedview10"
   pagecolor="#ffffff"
   bordercolor="#000000"
   borderopacity="0.25"
   inkscape:showpageshadow="2"
   inkscape:pageopacity="0.0"
   inkscape:pagecheckerboard="0"
   inkscape:deskcolor="#d1d1d1"
   inkscape:zoom="1.01625"
   inkscape:cx="326.69127"
   inkscape:cy="369.49569"
   inkscape:window-width="2880"
   inkscape:window-height="1514"
   inkscape:window-x="-11"
   inkscape:window-y="-11"
   inkscape:window-maximized="1"
   inkscape:current-layer="Layer_1" />
<path
   style="fill:#F2F2F2;"
   d="M382.217,276.331H122.043c-9.382,0-16.988,7.606-16.988,16.988v21.784h294.151v-21.784  C399.205,283.936,391.599,276.331,382.217,276.331z"
   id="path1" />
<path
   style="fill:#E6E6E6;"
   d="M160.527,276.331h-38.484c-9.382,0-16.988,7.606-16.988,16.988v20.125h55.472V276.331z"
   id="path2" />
<path
   style="fill:#CCCCCC;"
   d="M408.98,307.295H95.28c-8.819,0-16.909,4.891-21.007,12.7L53.08,360.374h398.099l-21.192-40.379  C425.89,312.186,417.799,307.295,408.98,307.295z"
   id="path3" />
<path
   style="fill:#B3B3B3;"
   d="M74.272,319.994L53.08,360.374h61.927l27.857-53.08H95.28  C86.462,307.295,78.37,312.186,74.272,319.994z"
   id="path4" />
<path
   style="fill:#666666;"
   d="M495.965,368.668H8.294c-4.58,0-8.294-3.713-8.294-8.294s3.713-8.294,8.294-8.294h487.672  c4.581,0,8.294,3.713,8.294,8.294S500.547,368.668,495.965,368.668z"
   id="path5" />


<g
   id="g10"
   style="fill:#d4aa00"
   transform="matrix(1.2603416,0,0,1.2928843,-136.44373,-71.756454)">
	<path
   style="fill:#d4aa00"
   d="m 440.121,270.802 h -16.587 c 0,-15.244 -12.402,-27.646 -27.646,-27.646 v -16.587 c 24.39,0 44.233,19.843 44.233,44.233 z"
   id="path8" />
	<path
   style="fill:#d4aa00"
   d="m 512,270.802 h -16.587 c 0,-54.878 -44.647,-99.525 -99.525,-99.525 V 154.69 C 459.913,154.69 512,206.778 512,270.802 Z"
   id="path9" />
	<path
   style="fill:#d4aa00"
   d="m 476.06,270.802 h -16.587 c 0,-35.061 -28.524,-63.585 -63.585,-63.585 V 190.63 c 44.207,-0.001 80.172,35.964 80.172,80.172 z"
   id="path10" />
</g>
<path
   style="fill:#003380;stroke-width:1.77289"
   d="M 301.25863,109.30957 246.83419,35.174022 192.41341,109.30957 c -18.27154,24.89056 -15.08073,58.57444 7.57956,79.99662 v 0 c 25.87116,24.4596 67.81676,24.4596 93.68427,0 v 0 c 22.66211,-21.42391 25.8511,-55.10951 7.58139,-79.99662 z"
   id="path6" /><path
   style="fill:#0044aa"
   d="m 206.04668,171.18872 v 0 c -5.566,-12.427 -6.35,-31.968 -1.862,-46.406 l 13.367,-43.005988 -29.849,43.005988 c -10.021,14.438 -8.271,33.979 4.157,46.406 v 0 c 7.094,7.095 16.393,10.641 25.691,10.641 -4.163,0 -8.327,-3.546 -11.504,-10.641 z"
   id="path7-4" /></svg>
