<?xml version="1.0" encoding="UTF-8" standalone="no"?>
<!-- Uploaded to: SVG Repo, www.svgrepo.com, Generator: SVG Repo Mixer Tools -->

<svg
   height="800px"
   width="800px"
   version="1.1"
   id="Layer_1"
   viewBox="0 0 512 512"
   xml:space="preserve"
   sodipodi:docname="sensor-not-sending.svg"
   inkscape:version="1.4.2 (f4327f4, 2025-05-13)"
   xmlns:inkscape="http://www.inkscape.org/namespaces/inkscape"
   xmlns:sodipodi="http://sodipodi.sourceforge.net/DTD/sodipodi-0.dtd"
   xmlns="http://www.w3.org/2000/svg"
   xmlns:svg="http://www.w3.org/2000/svg"><defs
   id="defs10" /><sodipodi:namedview
   id="namedview10"
   pagecolor="#ffffff"
   bordercolor="#000000"
   borderopacity="0.25"
   inkscape:showpageshadow="2"
   inkscape:pageopacity="0.0"
   inkscape:pagecheckerboard="0"
   inkscape:deskcolor="#d1d1d1"
   inkscape:zoom="1.01625"
   inkscape:cx="326.19926"
   inkscape:cy="368.51169"
   inkscape:window-width="2880"
   inkscape:window-height="1514"
   inkscape:window-x="-11"
   inkscape:window-y="-11"
   inkscape:window-maximized="1"
   inkscape:current-layer="Layer_1" />
<path
   style="fill:#F2F2F2;"
   d="M382.217,276.331H122.043c-9.382,0-16.988,7.606-16.988,16.988v21.784h294.151v-21.784  C399.205,283.936,391.599,276.331,382.217,276.331z"
   id="path1" />
<path
   style="fill:#E6E6E6;"
   d="M160.527,276.331h-38.484c-9.382,0-16.988,7.606-16.988,16.988v20.125h55.472V276.331z"
   id="path2" />
<path
   style="fill:#CCCCCC;"
   d="M408.98,307.295H95.28c-8.819,0-16.909,4.891-21.007,12.7L53.08,360.374h398.099l-21.192-40.379  C425.89,312.186,417.799,307.295,408.98,307.295z"
   id="path3" />
<path
   style="fill:#B3B3B3;"
   d="M74.272,319.994L53.08,360.374h61.927l27.857-53.08H95.28  C86.462,307.295,78.37,312.186,74.272,319.994z"
   id="path4" />
<path
   style="fill:#666666;"
   d="M495.965,368.668H8.294c-4.58,0-8.294-3.713-8.294-8.294s3.713-8.294,8.294-8.294h487.672  c4.581,0,8.294,3.713,8.294,8.294S500.547,368.668,495.965,368.668z"
   id="path5" />
<path
   style="fill:#003380"
   d="M281.978,186.338l-29.849-43.006l-29.847,43.006c-10.021,14.439-8.271,33.979,4.157,46.406l0,0  c14.189,14.189,37.194,14.189,51.381,0l0,0C290.249,220.316,291.998,200.775,281.978,186.338z"
   id="path6" />
<path
   style="fill:#0044aa"
   d="M240.625,232.744L240.625,232.744c-5.566-12.427-6.35-31.968-1.862-46.406l13.367-43.006  l-29.849,43.006c-10.021,14.438-8.271,33.979,4.157,46.406l0,0c7.094,7.095,16.393,10.641,25.691,10.641  C247.966,243.385,243.802,239.839,240.625,232.744z"
   id="path7" />

<text
   xml:space="preserve"
   style="font-size:172.624px;text-align:start;writing-mode:lr-tb;direction:ltr;text-anchor:start;fill:#ffcc00;stroke-width:0.970147"
   x="321.71564"
   y="318.01392"
   id="text10"
   transform="scale(1.1662155,0.85747444)"><tspan
     sodipodi:role="line"
     id="tspan10"
     style="fill:#ffcc00;stroke-width:0.970147"
     x="321.71564"
     y="318.01392">X</tspan></text></svg>
