<?xml version="1.0" ?>
<!-- Uploaded to: SVG Repo, www.svgrepo.com, Generator: SVG Repo Mixer Tools -->
<svg width="800px" height="800px" viewBox="-7 0 117 117" version="1.1" xmlns="http://www.w3.org/2000/svg" xmlns:xlink="http://www.w3.org/1999/xlink">
<title/>
<desc/>
<defs/>
<g fill="none" fill-rule="evenodd" id="Page-1" stroke="none" stroke-width="1">
<g fill-rule="nonzero" id="wifi">
<path d="M102.1,18.9 C103.2,16.8 102.5,14.2 100.4,13.1 C85.6,4.8 68.7,0.4 51.6,0.4 C34.4,0.4 17.5,4.8 2.5,13.2 C0.4,14.4 -0.3,17 0.9,19 C1.7,20.4 3.1,21.2 4.6,21.2 C5.3,21.2 6,21 6.7,20.7 C20.4,13 35.9,9 51.6,9 C67.2,9 82.7,13 96.3,20.6 C98.4,21.7 101,21 102.1,18.9 Z" fill="#17AB13" id="Shape"/>
<path d="M85.1,46.3 C86.6,46.3 88,45.5 88.8,44.1 C90,42.1 89.2,39.4 87.2,38.3 C76.4,32.2 64.1,28.9 51.6,28.9 C39.2,28.9 26.9,32.1 16.1,38.2 C14,39.4 13.3,42 14.5,44 C15.7,46 18.3,46.8 20.3,45.6 C29.8,40.2 40.6,37.4 51.6,37.4 C62.6,37.4 73.5,40.3 83,45.7 C83.6,46.1 84.4,46.3 85.1,46.3 Z" fill="#17AB13" id="Shape"/>
<path d="M74.4,68.6 C75.5,66.5 74.8,63.9 72.7,62.8 C59.6,55.5 42.7,55.7 29.7,63.2 C27.7,64.4 27,67 28.1,69 C28.9,70.4 30.3,71.1 31.8,71.1 C32.5,71.1 33.3,70.9 33.9,70.5 C44.4,64.5 57.9,64.4 68.5,70.2 C70.7,71.4 73.3,70.7 74.4,68.6 Z" fill="#17AB13" id="Shape"/>
<path d="M36.2,101.2 C36.2,109.7 43.1,116.6 51.6,116.6 C60.1,116.6 67,109.7 67,101.2 C67,92.7 60.1,85.8 51.6,85.8 C43.1,85.8 36.2,92.7 36.2,101.2 Z M58.4,101.2 C58.4,105 55.3,108 51.6,108 C47.8,108 44.8,104.9 44.8,101.2 C44.8,97.4 47.9,94.4 51.6,94.4 C55.3,94.4 58.4,97.4 58.4,101.2 Z" fill="#4A4A4A" id="Shape"/>
</g>
</g>
</svg>