<?xml version="1.0" encoding="UTF-8" standalone="no"?>
<!-- Generator: Adobe Illustrator 19.0.0, SVG Export Plug-In . SVG Version: 6.00 Build 0)  -->

<svg
   version="1.1"
   id="Layer_1"
   x="0px"
   y="0px"
   viewBox="0 0 512.001 512.001"
   style="enable-background:new 0 0 512.001 512.001;"
   xml:space="preserve"
   sodipodi:docname="solar-water-heater.svg"
   inkscape:version="1.2 (dc2aedaf03, 2022-05-15)"
   xmlns:inkscape="http://www.inkscape.org/namespaces/inkscape"
   xmlns:sodipodi="http://sodipodi.sourceforge.net/DTD/sodipodi-0.dtd"
   xmlns="http://www.w3.org/2000/svg"
   xmlns:svg="http://www.w3.org/2000/svg"><defs
   id="defs8302" /><sodipodi:namedview
   id="namedview8300"
   pagecolor="#ffffff"
   bordercolor="#000000"
   borderopacity="0.25"
   inkscape:showpageshadow="2"
   inkscape:pageopacity="0.0"
   inkscape:pagecheckerboard="0"
   inkscape:deskcolor="#d1d1d1"
   showgrid="false"
   inkscape:zoom="1.6542937"
   inkscape:cx="247.53767"
   inkscape:cy="287.1316"
   inkscape:window-width="1920"
   inkscape:window-height="1027"
   inkscape:window-x="-8"
   inkscape:window-y="-8"
   inkscape:window-maximized="1"
   inkscape:current-layer="layer1" />
<polygon
   style="fill:#1D1D20;"
   points="48.506,493.137 48.506,245.498 97.011,322.438 97.011,493.137 "
   id="polygon8235" />
<path
   style="fill:#2E2D30;"
   d="M463.182,233.784l-39.178-53.791l-17.769,11.259c14.43,40.262,11.702,84.165-5.913,121.729  l-0.467-0.105c-22.619,47.889-67.783,81.128-119.061,89.339c-48.322,7.356-99.405-7.524-136.539-44.658  c-27.411-27.411-43.838-63.789-46.256-102.434c-2.243-35.869,7.819-71.761,28.332-101.061l5.187-7.408l-0.144-0.144  c1.729-2.182,3.512-4.327,5.363-6.424c23.777-26.95,56.271-45.213,91.495-51.426l20.763-1.573v-48.88l-24.236,1.859  c-49.005,7.362-93.771,32.05-126.05,69.517c-32.373,37.575-50.202,85.747-50.202,135.641c0,114.413,93.082,207.495,207.495,207.495  c18.707,0,37.056-2.495,54.651-7.278c33.999-9.101,66.12-26.959,92.745-53.585c2.328-2.328,4.584-4.71,6.786-7.129l10.196-12.089  C450.938,333.497,465.692,283.82,463.182,233.784z"
   id="path8237" />
<path
   style="fill:#1d1d20;stroke-width:1.10273"
   d="M 412.73047,500.19347 V 270.44235 c 0,-43.48669 -15.29375,-85.37588 -43.06074,-117.94938 -25.77358,-30.23337 -60.99396,-50.72138 -99.17792,-57.691319 l -23.675,-1.762398 V 38.203 l 27.43855,2.083241 c 53.14708,8.254438 101.67754,35.93339 136.65186,77.939259 35.08163,42.13375 54.40124,96.19145 54.40124,152.21685 v 229.75112 z"
   id="path8239" />
<path
   style="fill:#3E3D43;"
   d="M287.712,83.91l-5.99-1.172c-4.562-0.893-9.199-1.342-13.848-1.342h-23.749  c-4.648,0-9.286,0.449-13.848,1.342l-5.99,1.172C147.417,98.947,91.622,166.788,91.622,245.221  c0,90.639,73.74,164.379,164.379,164.379s164.379-73.74,164.379-164.379C420.379,166.788,364.584,98.947,287.712,83.91z   M254.365,361.083c-61.826-0.857-112.552-50.876-114.196-112.685c-1.468-55.191,35.423-103.111,88.697-115.852l0,0  c5.495-1.314,11.126-1.978,16.776-1.978h20.717c5.65,0,11.281,0.664,16.776,1.978l0,0c52.248,12.497,88.739,58.83,88.739,112.676  C371.874,309.659,319.003,361.98,254.365,361.083z"
   id="path8241" />
<path
   style="fill:#E0E0E3;"
   d="M256.001,366.484c-66.865,0-121.263-54.398-121.263-121.263c0-0.97,0.012-1.939,0.034-2.905  c1.524-63.608,54.493-113.952,118.12-113.952h6.219c63.625,0,116.594,50.344,118.118,113.952c0.023,0.966,0.035,1.935,0.035,2.905  C377.264,312.086,322.865,366.484,256.001,366.484z"
   id="path8243" />
<path
   style="fill:#D8D7DA;"
   d="M170.903,245.221c0-0.97,0.012-1.939,0.034-2.905c1.403-58.544,46.385-105.847,103.146-113.01  c-4.91-0.62-9.906-0.941-14.972-0.942h-6.219c-63.626,0-116.595,50.343-118.12,113.952c-0.023,0.966-0.034,1.935-0.034,2.905  c0,66.865,54.398,121.263,121.263,121.263c6.144,0,12.181-0.463,18.083-1.35C215.765,356.378,170.903,305.942,170.903,245.221z"
   id="path8245" />
<path
   style="fill:#891D00;"
   d="M256.001,280.253c-19.316,0-35.032-15.716-35.032-35.032s15.716-35.032,35.032-35.032  c19.317,0,35.032,15.716,35.032,35.032S275.317,280.253,256.001,280.253z"
   id="path8247" />
<path
   style="fill:#781900;"
   d="M247.647,247.424c0-15.59,10.238-28.827,24.342-33.358c-4.798-2.472-10.23-3.877-15.988-3.877  c-19.316,0-35.032,15.716-35.032,35.032s15.716,35.032,35.032,35.032c3.727,0,7.318-0.591,10.689-1.674  C255.395,272.758,247.647,260.983,247.647,247.424z"
   id="path8249" />







<path
   d="M256.001,285.642c22.289,0,40.421-18.132,40.421-40.421S278.289,204.8,256.001,204.8s-40.421,18.132-40.421,40.421  S233.712,285.642,256.001,285.642z M256.001,220.968c13.372,0,24.253,10.879,24.253,24.253c0,13.373-10.88,24.253-24.253,24.253  c-13.373,0-24.253-10.879-24.253-24.253C231.748,231.848,242.627,220.968,256.001,220.968z"
   id="path8265" />

<g
   id="g8269">
</g>
<g
   id="g8271">
</g>
<g
   id="g8273">
</g>
<g
   id="g8275">
</g>
<g
   id="g8277">
</g>
<g
   id="g8279">
</g>
<g
   id="g8281">
</g>
<g
   id="g8283">
</g>
<g
   id="g8285">
</g>
<g
   id="g8287">
</g>
<g
   id="g8289">
</g>
<g
   id="g8291">
</g>
<g
   id="g8293">
</g>
<g
   id="g8295">
</g>
<g
   id="g8297">
</g>
<path
   style="fill:#4d4d4d;stroke-width:0.604488"
   d="m 265.39594,363.2618 c -44.18314,-10.21893 -79.06366,-44.05562 -90.40289,-87.69752 -14.98826,-57.6861 14.96937,-116.70938 70.37669,-138.65792 7.00028,-2.77302 20.16973,-6.32938 25.74294,-6.95177 5.92347,-0.66152 19.82835,2.45884 31.43335,7.05387 47.62581,18.85759 77.62662,65.91624 74.03795,116.13443 -2.75341,38.53001 -22.52722,72.13257 -55.04427,93.53937 -11.5569,7.60819 -27.35009,14.12363 -40.95625,16.89639 -7.34616,1.49705 -7.34469,1.49708 -15.18752,-0.31685 z m 3.71161,-79.48519 c 12.1155,-4.05937 21.58198,-13.73336 25.70149,-26.2649 1.37064,-4.16946 1.591,-5.87722 1.59899,-12.392 0.008,-6.74405 -0.17671,-8.10186 -1.72143,-12.63451 -8.01532,-23.51925 -34.37936,-34.5315 -56.74893,-23.704 -9.34986,4.52559 -17.13798,13.4771 -20.62329,23.704 -1.54472,4.53265 -1.72972,5.89046 -1.72144,12.63451 0.008,6.51478 0.22836,8.22254 1.59899,12.392 4.11318,12.51226 13.6223,22.21751 25.75021,26.28132 7.52416,2.52118 18.61251,2.51422 26.16541,-0.0164 z"
   id="path8304" /><path
   style="fill:#4d4d4d;stroke-width:0.604488"
   d="m 241.19054,365.36033 c -27.81245,-3.56466 -53.18883,-16.37661 -72.55016,-36.62892 -25.9316,-27.12492 -37.67089,-63.76081 -32.29458,-100.78468 5.37037,-36.98302 29.43745,-69.78707 63.70392,-86.83007 17.25934,-8.58422 36.26024,-12.79076 56.8575,-12.58746 7.22567,0.0713 17.84087,0.83958 14.34603,1.03827 -6.16657,0.3506 -22.68527,5.34708 -32.17979,9.73356 -21.63393,9.99491 -40.42426,27.02577 -52.3914,47.48563 -4.74316,8.10923 -11.35325,23.95528 -12.17934,29.19696 -0.16124,1.02303 -0.44741,2.10965 -0.63594,2.4147 -0.18854,0.30506 -0.48788,1.70936 -0.6652,3.12067 -0.17732,1.41131 -0.43096,2.7425 -0.56364,2.9582 -0.13267,0.2157 -0.42546,2.0243 -0.65064,4.01911 -0.22517,1.99481 -0.5484,4.71501 -0.71829,6.04488 -0.44967,3.52015 -0.40804,18.13987 0.0637,22.36604 1.69345,15.17124 4.96989,26.74236 11.79361,41.6504 2.13899,4.67313 8.69371,15.07457 13.11302,20.80857 7.70032,9.99107 20.79821,21.89772 31.47458,28.612 3.60229,2.26546 13.80498,7.54068 17.85916,9.23394 1.24675,0.52072 3.15089,1.32219 4.23141,1.78107 3.93417,1.67073 18.80167,5.65896 21.99489,5.90016 0.61972,0.0468 -0.36935,0.29193 -2.19792,0.54471 -4.41121,0.60979 -23.45313,0.55769 -28.41092,-0.0777 z"
   id="path8306" /><path
   style="fill:#4d4d4d;stroke-width:0.604488"
   d="m 236.0524,364.22979 c -59.73594,-10.71247 -102.6181,-62.976 -100.45757,-122.43476 0.54177,-14.90987 2.62837,-25.27838 7.72751,-38.39881 13.58391,-34.95225 44.37676,-61.73566 81.55346,-70.93468 9.88158,-2.4451 19.19769,-3.40835 32.51575,-3.36202 l 11.90766,0.0414 -6.64936,1.72704 c -23.79342,6.17987 -41.70905,16.07753 -57.45068,31.73917 -16.19511,16.1128 -28.09598,37.76162 -32.23323,58.63529 -7.79314,39.31884 3.80846,79.1382 31.31827,107.49154 12.18283,12.55639 20.64058,18.71575 35.85497,26.11143 8.39164,4.07916 11.37732,5.14777 26.74208,9.57129 2.84947,0.82035 2.22676,0.87092 -10.88077,0.88364 -10.76589,0.0104 -15.26727,-0.23114 -19.94809,-1.07056 z"
   id="path8308" /><path
   style="fill:#4d4d4d;stroke-width:0.604488"
   d="m 236.0524,364.23953 c -24.74255,-4.39725 -46.69579,-15.73742 -64.43116,-33.28258 -20.63849,-20.41715 -32.51796,-44.98847 -35.68258,-73.80527 -0.82925,-7.55106 -0.36612,-22.77139 0.92717,-30.47069 7.34025,-43.69853 39.00824,-79.5448 81.70692,-92.48735 12.51962,-3.79487 18.69485,-4.64404 35.61428,-4.8974 l 15.11218,-0.22631 -6.64936,1.77195 c -24.01638,6.39995 -41.87886,16.29986 -57.57352,31.90892 -23.42299,23.29523 -35.90604,55.02858 -34.3538,87.33128 1.54668,32.18713 13.9519,59.79136 36.78776,81.86055 11.73495,11.34097 18.62359,16.14042 33.37801,23.25515 7.48719,3.61039 11.21749,4.93263 25.99296,9.21341 2.85632,0.82755 2.25827,0.87641 -10.88077,0.88916 -10.69947,0.0104 -15.29615,-0.23408 -19.94809,-1.06082 z"
   id="path8310" /><path
   style="fill:#999999;stroke-width:0.604488"
   d="m 262.34761,362.1076 c -13.35011,-3.53909 -25.62238,-9.03917 -36.74564,-16.46834 -8.10535,-5.41353 -12.69342,-9.27076 -20.1033,-16.90101 -18.80505,-19.36432 -29.95123,-42.79844 -33.2628,-69.93288 -1.14396,-9.37341 -0.40899,-26.71687 1.52186,-35.91197 4.85501,-23.12061 15.6821,-43.20572 32.13077,-59.60517 15.75506,-15.70791 33.30809,-25.36089 56.81611,-31.24502 6.84082,-1.71228 8.36132,-1.89613 12.9739,-1.56872 6.13412,0.43541 16.68507,3.04683 24.69598,6.11238 28.31878,10.83681 50.51961,30.82721 63.80656,57.45364 10.44769,20.93668 14.23336,42.06091 11.53714,64.37793 -3.39497,28.1008 -15.12862,52.34249 -34.83597,71.971 -15.78664,15.72348 -34.76719,26.41373 -56.69682,31.93286 -9.31951,2.34548 -12.29049,2.31627 -21.83779,-0.2147 z m 0.64928,-76.76963 c 1.85321,-0.11893 5.40461,-1.0065 7.89201,-1.97235 11.24479,-4.36637 19.86111,-13.3901 23.9143,-25.04507 1.88095,-5.40865 2.51736,-14.57069 1.44132,-20.74976 -2.44916,-14.06411 -13.2524,-26.42751 -27.24755,-31.18253 -5.05541,-1.71763 -17.10103,-2.16561 -22.8073,-0.84821 -11.21829,2.58997 -21.3531,10.63532 -26.63636,21.14486 -3.60771,7.17649 -3.99465,8.95545 -4.0098,18.4348 -0.0128,7.98902 0.12807,9.15763 1.5907,13.19875 5.42045,14.97622 19.01026,26.19661 32.79025,27.07319 2.31015,0.14695 4.35029,0.41802 4.53366,0.60237 0.18337,0.18436 1.42147,0.16082 2.75134,-0.0523 1.32988,-0.21313 3.93421,-0.48481 5.78743,-0.60374 z"
   id="path8312" /><path
   style="fill:#4d4d4d;stroke-width:0.604488"
   d="m 236.0524,364.23953 c -25.03059,-4.44843 -47.16861,-15.96438 -65.03811,-33.83208 -20.16842,-20.16638 -31.94692,-44.76588 -35.07563,-73.25577 -0.838,-7.63074 -0.36301,-22.76238 0.96591,-30.77108 7.01144,-42.25408 37.46839,-77.50387 78.89749,-91.31314 13.41844,-4.47268 24.24705,-6.01946 41.70965,-5.95788 l 11.7875,0.0416 -7.55609,2.00066 c -23.25934,6.15847 -41.05725,16.1329 -56.7512,31.80492 -24.2257,24.19186 -36.73472,57.5837 -34.03098,90.84301 1.08582,13.35687 3.41177,23.59965 8.12185,35.7661 10.46715,27.03734 31.7103,50.34116 58.2727,63.92537 8.72361,4.46132 14.0292,6.51583 23.79577,9.21457 4.48138,1.23831 8.2613,2.35396 8.39983,2.47922 0.13852,0.12525 -5.98192,0.20548 -13.60097,0.17828 -10.42318,-0.0372 -15.34943,-0.31543 -19.89772,-1.12375 z"
   id="path8314" /><g
   inkscape:groupmode="layer"
   id="layer1"
   inkscape:label="Layer 1"><path
     style="fill:#666666;stroke-width:0.604488"
     d="m 235.72291,364.21874 c -42.4497,-7.62885 -77.69691,-36.90685 -92.7828,-77.0698 -8.35157,-22.23425 -9.79489,-48.42289 -3.90485,-70.85242 10.7485,-40.93079 43.47052,-73.15383 84.92319,-83.6282 10.78736,-2.72578 19.75414,-3.6617 33.27017,-3.47261 11.45247,0.16021 11.671,0.18655 8.14143,0.98123 -6.31512,1.42184 -21.27724,6.57634 -27.11105,9.33984 -23.98676,11.36264 -43.40443,30.26654 -55.07419,53.617 -5.47969,10.96452 -8.60868,20.14495 -11.02256,32.34009 -1.69102,8.54317 -1.53664,31.40101 0.2763,40.9092 4.8381,25.37407 16.05368,46.5605 34.09203,64.40042 11.72279,11.59385 19.02981,16.80125 33.5606,23.91723 8.25602,4.04312 11.06908,5.0511 27.09233,9.70777 2.85471,0.82964 2.2341,0.87902 -11.18302,0.88994 -11.08905,0.009 -15.53757,-0.22784 -20.27758,-1.07969 z"
     id="path2867" /><path
     style="fill:#666666;stroke-width:0.604488"
     d="m 263.55659,362.09886 c -8.39169,-2.22575 -15.6389,-4.91782 -23.57502,-8.75723 -24.48109,-11.84371 -44.40808,-31.8314 -56.18512,-56.35627 -5.34244,-11.12527 -8.42821,-20.84052 -10.71368,-33.73102 -1.02403,-5.77574 -0.99672,-28.12555 0.0425,-34.75803 5.17709,-33.04193 24.78265,-63.07132 52.81978,-80.90287 13.59155,-8.6442 36.62301,-16.73263 47.5856,-16.71162 9.74455,0.0187 24.59281,4.37292 38.15129,11.18787 11.43043,5.74531 19.50962,11.49018 28.86946,20.52818 25.39381,24.52065 38.72459,59.94134 35.1047,93.27532 -2.72674,25.10941 -12.07259,47.61038 -27.29459,65.7142 -17.07082,20.30267 -38.18765,33.6338 -63.69423,40.21039 -8.64098,2.22799 -13.58011,2.29843 -21.11067,0.30108 z m 3.28872,-77.16765 c 1.51589,-0.35671 5.06832,-1.7674 7.8943,-3.13486 8.61367,-4.16807 16.78309,-13.32091 19.96173,-22.36472 5.92206,-16.84934 0.36581,-36.22661 -13.36638,-46.61484 -8.0487,-6.08874 -14.71426,-8.18434 -26.06033,-8.19318 -7.1901,-0.005 -11.00846,0.75725 -16.50203,3.29684 -9.1749,4.24142 -15.31854,10.41761 -20.15499,20.26178 l -2.81554,5.7308 -0.20005,10.01085 c -0.17891,8.95321 -0.0628,10.42331 1.09874,13.91504 3.9504,11.87514 14.82465,22.92642 26.10567,26.53067 5.69006,1.81795 17.52506,2.09446 24.03888,0.56162 z"
     id="path2869" /><path
     style="fill:#4d4d4d;stroke-width:0.604488"
     d="m 235.48418,363.88526 c -2.47357,-0.44764 -4.64973,-0.78794 -4.8359,-0.75621 -0.18618,0.0317 -0.74654,-0.0992 -1.24524,-0.29086 -0.4987,-0.19169 -4.17097,-1.35018 -8.16058,-2.57442 C 161.81,342.02655 125.76984,281.67458 138.2236,221.24246 c 0.68514,-3.32469 1.28336,-6.45291 1.32937,-6.95161 0.046,-0.4987 0.24491,-1.04274 0.44199,-1.20898 0.553,-0.46645 2.99311,-8.03307 2.6887,-8.33749 -0.1481,-0.14809 0.14146,-0.67998 0.64345,-1.18197 0.50199,-0.50199 0.76959,-1.28567 0.59467,-1.7415 -0.17492,-0.45583 -0.0954,-0.82879 0.1768,-0.82879 0.54765,0 4.06655,-7.8924 3.8406,-8.61395 -0.0781,-0.24935 0.12452,-0.45336 0.45024,-0.45336 0.7585,0 3.10661,-4.56252 2.60583,-5.0633 -0.2074,-0.2074 -0.10057,-0.37709 0.2374,-0.37709 0.33798,0 2.13029,-2.27771 3.98291,-5.06157 15.32316,-23.0255 40.42989,-41.0617 66.63138,-47.86674 2.32728,-0.60444 4.36743,-1.25172 4.53366,-1.4384 0.16623,-0.18668 1.25431,-0.41144 2.41795,-0.49947 1.16364,-0.088 2.52374,-0.32272 3.02244,-0.52152 0.4987,-0.19881 1.8588,-0.46077 3.02244,-0.58214 3.42754,-0.35751 30.65473,-0.78885 29.16652,-0.46207 -0.74805,0.16426 -1.3601,0.5678 -1.3601,0.89677 0,0.32897 -0.2538,0.44126 -0.56399,0.24955 -0.55293,-0.34173 -10.00019,2.47135 -14.2178,4.23358 -1.17595,0.49135 -2.3434,0.91707 -2.59434,0.94606 -0.25093,0.029 -1.00029,0.35282 -1.66522,0.71963 -0.66494,0.36681 -1.61701,0.73199 -2.11571,0.81151 -1.60572,0.25603 -12.08975,5.77712 -12.08975,6.36669 0,0.3134 -0.23083,0.42717 -0.51295,0.25281 -0.28211,-0.17436 -1.06921,0.20124 -1.74911,0.83466 -0.67989,0.63342 -1.34014,1.04769 -1.46723,0.92061 -0.42997,-0.42997 -11.68049,7.96662 -12.29436,9.17565 -0.33507,0.65992 -0.90463,1.10138 -1.26569,0.98103 -0.36105,-0.12036 -1.79263,1.01377 -3.18128,2.52027 -1.38864,1.5065 -2.79123,2.7391 -3.11685,2.7391 -0.54567,0 -0.83744,0.86373 -0.66362,1.96458 0.0394,0.24935 -0.27867,0.45337 -0.70675,0.45337 -1.3794,0 -10.70693,10.45478 -10.70693,12.00089 0,0.38134 -0.24007,0.69335 -0.53349,0.69335 -0.65068,0 -5.87454,7.92721 -5.66251,8.59287 0.0831,0.26094 -0.0727,0.47444 -0.34625,0.47444 -0.65173,0 -6.38516,10.87796 -5.73979,10.89003 0.27199,0.005 0.1918,0.20911 -0.1782,0.45337 -1.52336,1.00565 -7.89588,19.41221 -8.33662,24.07973 -0.0973,1.03073 -0.34059,2.13881 -0.54057,2.46239 -1.33831,2.16543 -2.375,30.62406 -1.04213,28.60812 0.51942,-0.78562 0.60073,-0.77216 0.60875,0.10075 0.005,0.55411 -0.24866,1.09814 -0.5639,1.20897 -0.36097,0.1269 -0.35924,1.99174 0.005,5.0374 0.31782,2.65974 0.57278,5.56607 0.56659,6.4585 -0.006,0.89243 0.26816,1.79529 0.60967,2.00635 0.3415,0.21107 0.47048,0.62716 0.28661,0.92467 -0.30717,0.49702 1.0776,6.93046 1.94742,9.04735 0.20491,0.4987 0.3374,1.08668 0.29442,1.30662 -0.26903,1.3769 7.06815,19.85044 7.88407,19.85044 0.29499,0 0.38178,0.25009 0.19287,0.55576 -0.18891,0.30566 0.0768,0.976 0.5904,1.48963 0.51363,0.51363 0.91989,1.1476 0.90279,1.40883 -0.0494,0.75447 6.15383,11.00756 7.61079,12.57965 0.72574,0.78308 1.41563,1.69214 1.5331,2.02014 0.28886,0.80659 2.97686,4.0943 8.16184,9.98285 4.88278,5.54535 14.78321,14.49269 20.36106,18.40098 4.15431,2.91084 11.01888,6.88586 11.64823,6.74507 0.22437,-0.0502 0.57436,0.16891 0.77777,0.48689 0.20341,0.31799 2.04943,1.42285 4.10227,2.45526 2.6422,1.32881 3.82012,1.66058 4.03257,1.13582 0.23622,-0.58343 0.31029,-0.58369 0.34785,-10e-4 0.064,0.99188 2.89177,2.39663 8.94013,4.44111 3.12058,1.05481 5.01081,1.4366 5.01081,1.01206 0,-0.37493 0.34002,-0.24387 0.75561,0.29125 0.41558,0.53512 2.65974,1.51756 4.98702,2.18321 l 4.23141,1.21025 -13.60097,-0.007 c -8.74226,-0.004 -15.20758,-0.29726 -18.09836,-0.8204 z"
     id="path2871" /><path
     style="fill:#1a1a1a;stroke-width:0.604488"
     d="m 413.16726,397.29754 c 0,-101.25377 0.0196,-102.98424 1.2141,-107.14542 8.64533,-30.11732 8.05018,-64.72847 -1.63078,-94.8377 -5.01455,-15.59602 -11.35398,-28.65007 -20.47703,-42.16598 -6.25679,-9.26951 -10.39597,-14.30941 -18.97276,-23.10139 -24.97848,-25.60515 -54.87037,-41.078882 -91.839,-47.541049 -5.51867,-0.964672 -9.61232,-1.202421 -20.7037,-1.202421 H 246.93318 V 59.83899 38.3744 l 3.17356,0.327898 c 1.74546,0.180344 8.20592,0.717726 14.35658,1.194184 12.52937,0.97058 17.6664,1.820548 29.92213,4.950883 57.18734,14.60668 105.81344,51.181882 136.98523,103.036475 17.09326,28.43481 28.0643,61.27079 32.38711,96.93363 0.92702,7.64782 1.04572,20.35315 1.23255,131.92942 l 0.20674,123.46658 h -26.01491 -26.01491 z"
     id="path2873" /><path
     style="fill:#333333;stroke-width:0.604488"
     d="m 239.67933,451.82201 c -13.56869,-1.19358 -27.3514,-3.6982 -40.19843,-7.30496 -24.49562,-6.87707 -52.59264,-21.40194 -72.84075,-37.65534 C 109.79256,393.33795 93.838324,375.77414 82.325039,358.0758 64.317813,330.39489 53.757409,300.70808 49.777158,266.57902 c -1.138402,-9.76135 -0.96355,-33.699 0.324538,-44.42983 5.633867,-46.93476 25.268311,-88.42794 57.440634,-121.38844 29.49173,-30.214231 66.24101,-50.269243 107.05076,-58.420319 8.80719,-1.75909 22.99204,-3.350982 29.85956,-3.350982 h 1.87604 v 21.071462 21.071461 l -6.49824,0.326191 c -8.07947,0.405563 -23.99339,3.777479 -35.14621,7.446945 -24.00748,7.898867 -44.88769,20.562722 -63.15631,38.304302 -26.0987,25.3458 -42.845345,58.01825 -48.507349,94.63713 -1.571923,10.16638 -1.602011,36.87767 -0.05243,46.54555 4.247503,26.50025 13.885489,50.91644 27.967929,70.85197 22.97062,32.51791 56.794,55.92458 94.60782,65.47111 15.35939,3.87764 20.9077,4.49396 40.45659,4.49396 19.53807,0 25.30609,-0.63917 40.50067,-4.48799 51.86707,-13.13801 94.41502,-51.25963 113.70185,-101.87326 l 2.30347,-6.04488 0.0282,42.41422 0.0282,42.41421 -6.196,6.50012 c -32.76445,34.37256 -76.32878,56.31802 -124.14938,62.54003 -11.06202,1.43929 -32.62319,2.02221 -42.53811,1.15003 z"
     id="path2982" /><path
     style="fill:#333333;stroke-width:0.604488"
     d="m 413.29714,396.69498 0.17237,-103.5185 1.71136,-6.34712 c 4.12004,-15.28051 5.56084,-28.51045 5.06091,-46.47139 -0.53548,-19.23848 -3.04628,-32.86565 -9.31359,-50.54887 -5.87354,-16.5722 -15.01622,-32.94591 -26.657,-47.7403 -4.54624,-5.77786 -19.81994,-20.9459 -26.1123,-25.93164 C 339.34135,101.22709 318.56503,91.134927 294.49013,85.209877 281.44167,81.998532 275.36002,81.30358 260.30545,81.30358 H 246.93318 V 59.791137 38.278695 l 2.26683,0.34669 c 1.24675,0.19068 6.21111,0.633408 11.03189,0.98384 14.29768,1.039326 20.31966,1.937765 32.13329,4.79407 6.46244,1.562491 21.365,6.256086 26.69248,8.406861 0.93593,0.377847 1.8225,0.686995 1.97016,0.686995 1.54175,0 21.67057,9.745579 28.54372,13.819734 1.76008,1.043319 3.33521,1.896943 3.50028,1.896943 0.16506,0 1.03715,0.508446 1.93798,1.129881 0.90082,0.621434 4.49407,2.997715 7.98498,5.280623 18.15049,11.869638 39.00658,31.501958 53.55369,50.411328 18.90164,24.5697 33.51133,55.16608 41.04921,85.96741 3.62851,14.82681 5.14811,23.47674 6.34886,36.13908 0.43592,4.59703 0.78189,48.46386 1.02142,129.51147 l 0.36222,122.55985 h -26.1027 -26.1027 z"
     id="path2984" /><path
     style="fill:#1a1a1a;stroke-width:0.604488"
     d="m 48.731918,377.35137 c 0.05944,-97.24485 0.193551,-114.55205 0.844287,-108.95888 4.495197,38.63686 19.633366,75.46005 43.228395,105.15191 l 3.611169,4.54427 v 57.43548 57.43547 H 72.53851 48.66125 Z"
     id="path2986" /><path
     style="fill:#1a1a1a;stroke-width:0.604488"
     d="m 413.3771,462.28188 c 0.21903,-20.86238 0.40436,-68.19376 0.41184,-105.18084 0.01,-48.16665 0.20078,-67.24924 0.6732,-67.24924 0.36278,0 0.52073,-0.531 0.35102,-1.17999 -0.16972,-0.649 -0.0916,-1.26104 0.17362,-1.3601 0.58138,-0.21716 3.24766,-12.07855 4.32072,-19.22147 0.64664,-4.3044 0.99755,-27.44561 0.59017,-38.91969 -0.14312,-4.03124 -1.88331,-14.90397 -3.44573,-21.52907 -1.68635,-7.15056 -6.19493,-21.15684 -6.81054,-21.15749 -0.22182,-2.3e-4 -0.443,-0.68768 -0.49151,-1.52765 -0.15343,-2.65682 -10.15564,-22.02106 -15.75921,-30.50976 -7.40275,-11.21426 -9.618,-13.84569 -21.94951,-26.07319 -11.19178,-11.09738 -16.1132,-15.18383 -26.41627,-21.9345 -7.08802,-4.64413 -22.47627,-12.57558 -23.58863,-12.158108 -0.41558,0.155969 -0.75561,0.03987 -0.75561,-0.257997 0,-0.729592 -9.57481,-4.387672 -10.30434,-3.936798 -0.31704,0.195941 -0.57643,0.03908 -0.57643,-0.348579 0,-0.38766 -0.40803,-0.548261 -0.90674,-0.356891 -0.4987,0.19137 -0.90673,0.05536 -0.90673,-0.302244 0,-0.357604 -0.40803,-0.493614 -0.90673,-0.302244 -0.4987,0.191371 -0.90673,0.115442 -0.90673,-0.16873 0,-0.6349 -11.35685,-3.783287 -19.94809,-5.530082 -6.89399,-1.401706 -12.11446,-1.722172 -28.56204,-1.753318 l -10.72965,-0.02032 -2.7e-4,-21.308187 -2.6e-4,-21.308188 2.26709,0.155631 c 9.90375,0.679872 24.03379,2.174801 29.98401,3.172248 3.94039,0.660535 7.40864,1.04999 7.70722,0.865457 0.29858,-0.184534 0.54288,-0.07772 0.54288,0.237372 0,0.315089 1.02007,0.755564 2.26682,0.978834 3.70268,0.663076 16.1424,4.386679 25.71186,7.696371 7.96148,2.753557 25.2438,10.786425 34.88802,16.216044 6.21051,3.496465 6.95126,3.871282 7.40498,3.746901 0.24935,-0.06836 0.45336,0.111541 0.45336,0.399772 0,0.288232 1.97214,1.844756 4.38254,3.458944 18.84172,12.617887 38.78677,31.344062 53.09532,49.850612 2.68449,3.4721 5.3192,6.65293 5.85489,7.06851 0.53571,0.41559 0.79406,0.75561 0.57412,0.75561 -0.21994,0 1.3161,2.65219 3.41341,5.89376 12.22937,18.90143 21.15513,37.6996 27.62601,58.18193 1.41797,4.48832 2.80641,8.25181 3.08542,8.36333 0.27902,0.11152 0.37017,0.42465 0.20255,0.69585 -0.16761,0.2712 0.49733,3.85222 1.47764,7.95783 2.21711,9.28529 4.86445,23.51312 4.86445,26.14334 0,1.08609 0.15756,2.13228 0.35014,2.32486 0.19258,0.19257 0.43513,1.93803 0.53901,3.87879 0.35701,6.67004 0.92191,81.03187 1.27011,167.19367 l 0.34873,86.2906 h -26.13218 -26.13219 z"
     id="path2988" /><path
     style="fill:#1a1a1a;stroke-width:0.604488"
     d="m 244.91822,452.08576 c -0.0554,-0.039 -2.73388,-0.24426 -5.95216,-0.45609 -3.21827,-0.21182 -6.21049,-0.50663 -6.64936,-0.65513 -0.43888,-0.14849 -2.15805,-0.40735 -3.82039,-0.57524 -3.20118,-0.3233 -4.55554,-0.54451 -11.78751,-1.92525 -6.12416,-1.16923 -6.20629,-1.18697 -12.28538,-2.65333 -2.93357,-0.70762 -5.92578,-1.51305 -6.64936,-1.78986 -0.72358,-0.2768 -3.62776,-1.23836 -6.45374,-2.13678 -2.82598,-0.89843 -5.68218,-1.86425 -6.34712,-2.14628 -9.1362,-3.87502 -11.18441,-4.66549 -11.19227,-4.3195 -0.005,0.22399 -0.20911,0.12772 -0.45337,-0.21392 -0.5368,-0.75083 -5.67003,-3.06737 -6.32556,-2.85464 -0.25612,0.0831 -0.46567,-0.13695 -0.46567,-0.48904 0,-0.35209 -0.27202,-0.47204 -0.60449,-0.26657 -0.33247,0.20548 -0.60449,0.0695 -0.60449,-0.30224 0,-0.37171 -0.27202,-0.50772 -0.60448,-0.30224 -0.33247,0.20547 -0.60449,0.0695 -0.60449,-0.30225 0,-0.37171 -0.27202,-0.50772 -0.60449,-0.30224 -0.33247,0.20548 -0.60449,0.0695 -0.60449,-0.30224 0,-0.37172 -0.27202,-0.50773 -0.60448,-0.30225 -0.33247,0.20548 -0.60449,0.1359 -0.60449,-0.15461 0,-0.29051 -1.02007,-1.01279 -2.26683,-1.60507 -1.24676,-0.59228 -4.77912,-2.55341 -7.84969,-4.35806 -3.07058,-1.80465 -5.6742,-3.20658 -5.78582,-3.11538 -0.11161,0.0912 -0.67878,-0.31003 -1.26036,-0.89162 -0.58159,-0.58158 -2.33028,-1.7926 -3.88599,-2.69117 -1.55571,-0.89856 -2.96458,-1.80077 -3.13081,-2.00491 -0.16624,-0.20413 -1.65684,-1.29334 -3.31246,-2.42045 -3.07647,-2.0944 -10.6732,-8.11151 -14.68034,-11.6278 -2.70328,-2.37215 -15.92064,-15.59407 -18.91154,-18.91807 C 96.361275,377.2743 88.381049,366.92301 84.293259,360.83026 65.51888,332.8475 54.347687,302.68682 50.195968,268.77226 c -1.251743,-10.22524 -1.279185,-36.92113 -0.04792,-46.62307 1.59555,-12.57244 4.681974,-27.63612 7.307419,-35.66477 0.48924,-1.49611 1.014907,-3.37209 1.168148,-4.16884 0.408322,-2.12302 1.535497,-5.39035 2.492076,-7.22374 0.460264,-0.88215 0.838519,-2.02553 0.840567,-2.54086 0.0021,-0.51533 0.24215,-1.19537 0.533561,-1.51122 0.29141,-0.31584 1.124653,-2.20638 1.851651,-4.20119 3.203799,-8.7909 10.230269,-22.56944 16.117342,-31.60527 1.794498,-2.75431 3.262723,-5.13137 3.262723,-5.28236 0,-0.151 0.396778,-0.75368 0.881729,-1.3393 0.484951,-0.58562 2.785086,-3.64894 5.111412,-6.80739 5.512326,-7.48408 6.449785,-8.5875 18.520954,-21.79982 1.34766,-1.475059 5.54786,-5.402123 9.33375,-8.726805 3.78593,-3.324682 7.31678,-6.452905 7.84634,-6.951607 0.52958,-0.498702 2.1098,-1.69178 3.5116,-2.651283 1.4018,-0.959503 2.54873,-1.979576 2.54873,-2.266829 0,-0.287252 0.34281,-0.522276 0.76179,-0.522276 0.41898,0 1.43905,-0.612802 2.26683,-1.361781 0.82777,-0.748979 3.8172,-2.853054 6.64318,-4.675723 2.82598,-1.822668 5.27415,-3.485369 5.44039,-3.69489 0.16624,-0.209522 0.91429,-0.571952 1.66234,-0.8054 0.74805,-0.233449 1.3601,-0.678142 1.3601,-0.988206 0,-0.310063 0.28713,-0.563752 0.63808,-0.563752 0.35096,0 3.22925,-1.524981 6.39623,-3.388846 3.16698,-1.863865 7.30015,-4.009336 9.18484,-4.767713 1.88468,-0.758377 5.27346,-2.233143 7.53063,-3.277257 5.908,-2.73291 26.61713,-10.000079 28.07048,-9.850388 0.0751,0.0077 2.11528,-0.515958 4.53366,-1.163767 2.41839,-0.647808 4.94113,-1.280952 5.60606,-1.406985 0.66494,-0.126033 1.88902,-0.390616 2.7202,-0.587961 0.83116,-0.197346 2.45386,-0.485882 3.60597,-0.641191 1.15213,-0.15531 4.28036,-0.574046 6.95161,-0.930527 2.67126,-0.35648 5.45521,-0.748963 6.18655,-0.872186 0.73134,-0.123222 4.47161,-0.41752 8.31172,-0.653996 l 6.98198,-0.429955 V 60.064343 81.30358 h -2.9787 c -1.63828,0 -5.10652,0.286253 -7.70721,0.636117 -65.15204,8.764749 -118.1479,53.709253 -137.077517,116.252113 -1.883385,6.22264 -4.886412,19.34302 -5.483427,23.95738 -1.71427,13.24967 -1.737248,33.59626 -0.05154,45.63881 2.743039,19.59604 10.889994,43.17123 20.680594,59.84427 0.78091,1.32987 1.60945,2.82598 1.84119,3.32468 0.23174,0.4987 0.58613,1.04274 0.78752,1.20898 0.2014,0.16623 1.30832,1.79835 2.45984,3.62692 1.15151,1.82858 2.41361,3.73271 2.80466,4.23142 0.39105,0.4987 2.9536,3.76293 5.69456,7.25385 6.08032,7.74397 18.18682,19.93845 25.93894,26.12744 18.93905,15.12018 43.17223,26.84779 66.49364,32.17948 3.82338,0.8741 7.90367,1.71661 9.06731,1.87226 1.16364,0.15564 4.0569,0.54495 6.42948,0.86512 8.20884,1.10776 23.80964,1.39566 33.76894,0.62317 11.85047,-0.91918 11.49191,-0.87716 18.13463,-2.12546 0.66494,-0.12495 4.47321,-1.04321 8.46283,-2.04056 51.52624,-12.88084 93.26428,-49.47776 113.36583,-99.40186 1.5817,-3.92831 3.03933,-7.30588 3.23917,-7.50572 0.19984,-0.19985 0.36335,18.5915 0.36335,41.75854 v 42.12188 l -8.9162,8.93284 c -8.82514,8.84161 -14.98989,14.24513 -23.42389,20.53146 -1.66234,1.23904 -3.11311,2.45681 -3.22393,2.70616 -0.11083,0.24935 -0.43877,0.45337 -0.72877,0.45337 -0.42895,0 -5.50443,3.28281 -8.15517,5.27476 -0.34244,0.25733 -1.56653,0.98554 -2.7202,1.61825 -1.15367,0.63271 -3.2673,1.9248 -4.69696,2.87132 -1.42965,0.94651 -2.80576,1.72093 -3.058,1.72093 -0.25224,0 -2.07473,0.9829 -4.04999,2.18422 -1.97524,1.20131 -5.4955,3.00391 -7.82277,4.00577 -6.26635,2.69758 -19.50415,8.12673 -21.03418,8.62664 -0.73253,0.23934 -1.46787,0.48932 -1.63411,0.55549 -6.43727,2.56263 -29.48453,7.95459 -39.29169,9.19239 -1.16364,0.14687 -3.06777,0.39199 -4.23141,0.54473 -3.87245,0.50827 -34.13629,1.48194 -34.65729,1.11502 z"
     id="path2990" /></g></svg>
