<?xml version="1.0" encoding="UTF-8" standalone="no"?>
<!-- Generator: Adobe Illustrator 19.0.0, SVG Export Plug-In . SVG Version: 6.00 Build 0)  -->

<svg
   version="1.1"
   id="Layer_1"
   x="0px"
   y="0px"
   viewBox="0 0 512.001 512.001"
   style="enable-background:new 0 0 512.001 512.001;"
   xml:space="preserve"
   sodipodi:docname="solor-water-heaterr.svg"
   inkscape:version="1.2 (dc2aedaf03, 2022-05-15)"
   xmlns:inkscape="http://www.inkscape.org/namespaces/inkscape"
   xmlns:sodipodi="http://sodipodi.sourceforge.net/DTD/sodipodi-0.dtd"
   xmlns="http://www.w3.org/2000/svg"
   xmlns:svg="http://www.w3.org/2000/svg"><defs
   id="defs8302" /><sodipodi:namedview
   id="namedview8300"
   pagecolor="#ffffff"
   bordercolor="#000000"
   borderopacity="0.25"
   inkscape:showpageshadow="2"
   inkscape:pageopacity="0.0"
   inkscape:pagecheckerboard="0"
   inkscape:deskcolor="#d1d1d1"
   showgrid="false"
   inkscape:zoom="1.6542937"
   inkscape:cx="247.53767"
   inkscape:cy="287.1316"
   inkscape:window-width="1920"
   inkscape:window-height="1027"
   inkscape:window-x="-8"
   inkscape:window-y="-8"
   inkscape:window-maximized="1"
   inkscape:current-layer="layer1" />




<path
   style="fill:#E0E0E3;"
   d="M256.001,366.484c-66.865,0-121.263-54.398-121.263-121.263c0-0.97,0.012-1.939,0.034-2.905  c1.524-63.608,54.493-113.952,118.12-113.952h6.219c63.625,0,116.594,50.344,118.118,113.952c0.023,0.966,0.035,1.935,0.035,2.905  C377.264,312.086,322.865,366.484,256.001,366.484z"
   id="path8243" />
<path
   style="fill:#D8D7DA;"
   d="M170.903,245.221c0-0.97,0.012-1.939,0.034-2.905c1.403-58.544,46.385-105.847,103.146-113.01  c-4.91-0.62-9.906-0.941-14.972-0.942h-6.219c-63.626,0-116.595,50.343-118.12,113.952c-0.023,0.966-0.034,1.935-0.034,2.905  c0,66.865,54.398,121.263,121.263,121.263c6.144,0,12.181-0.463,18.083-1.35C215.765,356.378,170.903,305.942,170.903,245.221z"
   id="path8245" />

<path
   style="fill:#781900;"
   d="M247.647,247.424c0-15.59,10.238-28.827,24.342-33.358c-4.798-2.472-10.23-3.877-15.988-3.877  c-19.316,0-35.032,15.716-35.032,35.032s15.716,35.032,35.032,35.032c3.727,0,7.318-0.591,10.689-1.674  C255.395,272.758,247.647,260.983,247.647,247.424z"
   id="path8249" />







<path
   d="M256.001,285.642c22.289,0,40.421-18.132,40.421-40.421S278.289,204.8,256.001,204.8s-40.421,18.132-40.421,40.421  S233.712,285.642,256.001,285.642z M256.001,220.968c13.372,0,24.253,10.879,24.253,24.253c0,13.373-10.88,24.253-24.253,24.253  c-13.373,0-24.253-10.879-24.253-24.253C231.748,231.848,242.627,220.968,256.001,220.968z"
   id="path8265" />

<g
   id="g8269">
</g>
<g
   id="g8271">
</g>
<g
   id="g8273">
</g>
<g
   id="g8275">
</g>
<g
   id="g8277">
</g>
<g
   id="g8279">
</g>
<g
   id="g8281">
</g>
<g
   id="g8283">
</g>
<g
   id="g8285">
</g>
<g
   id="g8287">
</g>
<g
   id="g8289">
</g>
<g
   id="g8291">
</g>
<g
   id="g8293">
</g>
<g
   id="g8295">
</g>
<g
   id="g8297">
</g>
<path
   style="fill:#4d4d4d;stroke-width:0.604488"
   d="m 265.39594,363.2618 c -44.18314,-10.21893 -79.06366,-44.05562 -90.40289,-87.69752 -14.98826,-57.6861 14.96937,-116.70938 70.37669,-138.65792 7.00028,-2.77302 20.16973,-6.32938 25.74294,-6.95177 5.92347,-0.66152 19.82835,2.45884 31.43335,7.05387 47.62581,18.85759 77.62662,65.91624 74.03795,116.13443 -2.75341,38.53001 -22.52722,72.13257 -55.04427,93.53937 -11.5569,7.60819 -27.35009,14.12363 -40.95625,16.89639 -7.34616,1.49705 -7.34469,1.49708 -15.18752,-0.31685 z m 3.71161,-79.48519 c 12.1155,-4.05937 21.58198,-13.73336 25.70149,-26.2649 1.37064,-4.16946 1.591,-5.87722 1.59899,-12.392 0.008,-6.74405 -0.17671,-8.10186 -1.72143,-12.63451 -8.01532,-23.51925 -34.37936,-34.5315 -56.74893,-23.704 -9.34986,4.52559 -17.13798,13.4771 -20.62329,23.704 -1.54472,4.53265 -1.72972,5.89046 -1.72144,12.63451 0.008,6.51478 0.22836,8.22254 1.59899,12.392 4.11318,12.51226 13.6223,22.21751 25.75021,26.28132 7.52416,2.52118 18.61251,2.51422 26.16541,-0.0164 z"
   id="path8304" /><path
   style="fill:#4d4d4d;stroke-width:0.604488"
   d="m 241.19054,365.36033 c -27.81245,-3.56466 -53.18883,-16.37661 -72.55016,-36.62892 -25.9316,-27.12492 -37.67089,-63.76081 -32.29458,-100.78468 5.37037,-36.98302 29.43745,-69.78707 63.70392,-86.83007 17.25934,-8.58422 36.26024,-12.79076 56.8575,-12.58746 7.22567,0.0713 17.84087,0.83958 14.34603,1.03827 -6.16657,0.3506 -22.68527,5.34708 -32.17979,9.73356 -21.63393,9.99491 -40.42426,27.02577 -52.3914,47.48563 -4.74316,8.10923 -11.35325,23.95528 -12.17934,29.19696 -0.16124,1.02303 -0.44741,2.10965 -0.63594,2.4147 -0.18854,0.30506 -0.48788,1.70936 -0.6652,3.12067 -0.17732,1.41131 -0.43096,2.7425 -0.56364,2.9582 -0.13267,0.2157 -0.42546,2.0243 -0.65064,4.01911 -0.22517,1.99481 -0.5484,4.71501 -0.71829,6.04488 -0.44967,3.52015 -0.40804,18.13987 0.0637,22.36604 1.69345,15.17124 4.96989,26.74236 11.79361,41.6504 2.13899,4.67313 8.69371,15.07457 13.11302,20.80857 7.70032,9.99107 20.79821,21.89772 31.47458,28.612 3.60229,2.26546 13.80498,7.54068 17.85916,9.23394 1.24675,0.52072 3.15089,1.32219 4.23141,1.78107 3.93417,1.67073 18.80167,5.65896 21.99489,5.90016 0.61972,0.0468 -0.36935,0.29193 -2.19792,0.54471 -4.41121,0.60979 -23.45313,0.55769 -28.41092,-0.0777 z"
   id="path8306" /><path
   style="fill:#4d4d4d;stroke-width:0.604488"
   d="m 236.0524,364.22979 c -59.73594,-10.71247 -102.6181,-62.976 -100.45757,-122.43476 0.54177,-14.90987 2.62837,-25.27838 7.72751,-38.39881 13.58391,-34.95225 44.37676,-61.73566 81.55346,-70.93468 9.88158,-2.4451 19.19769,-3.40835 32.51575,-3.36202 l 11.90766,0.0414 -6.64936,1.72704 c -23.79342,6.17987 -41.70905,16.07753 -57.45068,31.73917 -16.19511,16.1128 -28.09598,37.76162 -32.23323,58.63529 -7.79314,39.31884 3.80846,79.1382 31.31827,107.49154 12.18283,12.55639 20.64058,18.71575 35.85497,26.11143 8.39164,4.07916 11.37732,5.14777 26.74208,9.57129 2.84947,0.82035 2.22676,0.87092 -10.88077,0.88364 -10.76589,0.0104 -15.26727,-0.23114 -19.94809,-1.07056 z"
   id="path8308" /><g
   inkscape:groupmode="layer"
   id="layer1"
   inkscape:label="Layer 1"><rect
     style="fill:#999999;stroke-width:2.01218"
     id="rect2747"
     width="456.38812"
     height="440.67145"
     x="25.992975"
     y="32.642342" /><path
     style="fill:#2e2d30;stroke-width:1.00727"
     d="m 463.182,236.63612 -39.178,-54.57544 -17.769,11.42319 c 14.43,40.84915 11.702,85.39239 -5.913,123.50419 l -0.467,-0.10653 c -22.619,48.58737 -67.783,82.3111 -119.061,90.64184 -48.322,7.46327 -99.405,-7.63372 -136.539,-45.30925 -27.411,-27.81074 -43.838,-64.71924 -46.256,-103.92781 -2.243,-36.39208 7.819,-72.8075 28.332,-102.53478 l 5.187,-7.51604 -0.144,-0.14609 c 1.729,-2.21383 3.512,-4.39011 5.363,-6.51769 23.777,-27.34301 56.271,-45.872343 91.495,-52.175948 l 20.763,-1.595939 V 38.207 l -24.236,1.88611 c -49.005,7.469361 -93.771,32.517389 -126.05,70.53077 -32.373,38.12296 -50.202,86.99746 -50.202,137.61907 0,116.0815 93.082,210.52093 207.495,210.52093 18.707,0 37.056,-2.53139 54.651,-7.38414 33.999,-9.23372 66.12,-27.35215 92.745,-54.36644 2.328,-2.36195 4.584,-4.77868 6.786,-7.23296 l 10.196,-12.26529 c 30.558,-39.7118 45.312,-90.11325 42.802,-140.87893 z"
     id="path8237" /><path
     style="enable-background:new 0 0 512.001 512.001;fill:#891D00"
     d="M256.001,280.253c-19.316,0-35.032-15.716-35.032-35.032s15.716-35.032,35.032-35.032  c19.317,0,35.032,15.716,35.032,35.032S275.317,280.253,256.001,280.253z"
     id="path8247" /><path
     style="enable-background:new 0 0 512.001 512.001;fill:#999999;stroke-width:0.604488"
     d="m 262.34761,362.1076 c -13.35011,-3.53909 -25.62238,-9.03917 -36.74564,-16.46834 -8.10535,-5.41353 -12.69342,-9.27076 -20.1033,-16.90101 -18.80505,-19.36432 -29.95123,-42.79844 -33.2628,-69.93288 -1.14396,-9.37341 -0.40899,-26.71687 1.52186,-35.91197 4.85501,-23.12061 15.6821,-43.20572 32.13077,-59.60517 15.75506,-15.70791 33.30809,-25.36089 56.81611,-31.24502 6.84082,-1.71228 8.36132,-1.89613 12.9739,-1.56872 6.13412,0.43541 16.68507,3.04683 24.69598,6.11238 28.31878,10.83681 50.51961,30.82721 63.80656,57.45364 10.44769,20.93668 14.23336,42.06091 11.53714,64.37793 -3.39497,28.1008 -15.12862,52.34249 -34.83597,71.971 -15.78664,15.72348 -34.76719,26.41373 -56.69682,31.93286 -9.31951,2.34548 -12.29049,2.31627 -21.83779,-0.2147 z m 0.64928,-76.76963 c 1.85321,-0.11893 5.40461,-1.0065 7.89201,-1.97235 11.24479,-4.36637 19.86111,-13.3901 23.9143,-25.04507 1.88095,-5.40865 2.51736,-14.57069 1.44132,-20.74976 -2.44916,-14.06411 -13.2524,-26.42751 -27.24755,-31.18253 -5.05541,-1.71763 -17.10103,-2.16561 -22.8073,-0.84821 -11.21829,2.58997 -21.3531,10.63532 -26.63636,21.14486 -3.60771,7.17649 -3.99465,8.95545 -4.0098,18.4348 -0.0128,7.98902 0.12807,9.15763 1.5907,13.19875 5.42045,14.97622 19.01026,26.19661 32.79025,27.07319 2.31015,0.14695 4.35029,0.41802 4.53366,0.60237 0.18337,0.18436 1.42147,0.16082 2.75134,-0.0523 1.32988,-0.21313 3.93421,-0.48481 5.78743,-0.60374 z"
     id="path8312" /><path
     style="enable-background:new 0 0 512.001 512.001;fill:#3E3D43"
     d="M287.712,83.91l-5.99-1.172c-4.562-0.893-9.199-1.342-13.848-1.342h-23.749  c-4.648,0-9.286,0.449-13.848,1.342l-5.99,1.172C147.417,98.947,91.622,166.788,91.622,245.221  c0,90.639,73.74,164.379,164.379,164.379s164.379-73.74,164.379-164.379C420.379,166.788,364.584,98.947,287.712,83.91z   M254.365,361.083c-61.826-0.857-112.552-50.876-114.196-112.685c-1.468-55.191,35.423-103.111,88.697-115.852l0,0  c5.495-1.314,11.126-1.978,16.776-1.978h20.717c5.65,0,11.281,0.664,16.776,1.978l0,0c52.248,12.497,88.739,58.83,88.739,112.676  C371.874,309.659,319.003,361.98,254.365,361.083z"
     id="path8241" /><path
     style="fill:#1d1d20;stroke-width:0.976464"
     d="M 412.73047,400.45302 V 220.30353 c 0,-34.09823 -15.29375,-66.94384 -43.06074,-92.48495 -25.77358,-23.7062 -60.99396,-39.770997 -99.17792,-45.236174 l -23.675,-1.381909 V 38.203 l 27.43855,1.633484 c 53.14708,6.472363 101.67754,28.175627 136.65186,61.112726 35.08163,33.03738 54.40124,75.4244 54.40124,119.35432 v 180.14949 z"
     id="path8239" /><polygon
     style="enable-background:new 0 0 512.001 512.001;fill:#1D1D20"
     points="48.506,493.137 48.506,245.498 97.011,322.438 97.011,493.137 "
     id="polygon8235" /><path
     style="fill:#4d4d4d;stroke-width:0.604488"
     d="M 26.29521,252.97805 V 32.944573 H 254.18703 482.07885 V 252.97805 473.01153 H 289.54955 97.020257 v -44.51494 -44.51494 l 2.507535,2.95642 c 4.975868,5.86661 20.906958,21.22728 27.414598,26.433 30.77659,24.61942 65.24614,39.1441 105.18084,44.32081 11.20972,1.45311 36.30615,1.44512 47.75452,-0.0152 49.13173,-6.2671 90.46622,-26.65299 124.37332,-61.34007 l 8.31171,-8.50291 v 6.31966 6.31966 h 26.62003 26.62003 l -0.19843,-96.86914 c -0.19615,-95.76274 -0.21325,-96.95999 -1.49767,-104.82195 -4.82885,-29.55772 -15.82272,-54.36004 -34.73682,-78.36671 C 422.8819,112.18035 406.0564,95.584424 397.4471,88.928019 368.17853,66.298584 335.20798,51.342823 296.8034,43.275064 c -12.4055,-2.606061 -20.15564,-3.595986 -35.33913,-4.513872 -12.32474,-0.745065 -14.77898,-0.720571 -26.59746,0.265454 -14.10346,1.176663 -23.108,2.82177 -36.48135,6.665053 -41.74684,11.997354 -78.53177,37.051978 -105.794797,72.058011 -22.414244,28.78014 -37.39573,64.62214 -42.374275,101.37704 -1.972393,14.5615 -2.140955,25.49591 -2.150273,139.48551 l -0.0094,114.39927 H 37.175986 26.29521 Z"
     id="path2755" /><path
     style="fill:#b3b3b3;stroke-width:0.604488"
     d="m 250.75495,279.54754 c -8.15274,-1.44306 -16.63752,-6.29045 -21.35233,-12.19866 -5.34713,-6.70058 -7.85792,-13.76774 -7.85792,-22.11779 0,-9.87793 3.02103,-17.05154 10.25595,-24.35329 6.92146,-6.98539 14.57073,-10.21388 24.19984,-10.21388 9.62911,0 17.27838,3.22849 24.19984,10.21388 7.23492,7.30175 10.25595,14.47536 10.25595,24.35329 0,11.57131 -5.23498,21.70525 -14.61557,28.29297 -7.04943,4.95063 -17.27515,7.40598 -25.08576,6.02348 z"
     id="path2757" /></g><path
   style="fill:#4d4d4d;stroke-width:0.604488"
   d="m 236.0524,364.23953 c -24.74255,-4.39725 -46.69579,-15.73742 -64.43116,-33.28258 -20.63849,-20.41715 -32.51796,-44.98847 -35.68258,-73.80527 -0.82925,-7.55106 -0.36612,-22.77139 0.92717,-30.47069 7.34025,-43.69853 39.00824,-79.5448 81.70692,-92.48735 12.51962,-3.79487 18.69485,-4.64404 35.61428,-4.8974 l 15.11218,-0.22631 -6.64936,1.77195 c -24.01638,6.39995 -41.87886,16.29986 -57.57352,31.90892 -23.42299,23.29523 -35.90604,55.02858 -34.3538,87.33128 1.54668,32.18713 13.9519,59.79136 36.78776,81.86055 11.73495,11.34097 18.62359,16.14042 33.37801,23.25515 7.48719,3.61039 11.21749,4.93263 25.99296,9.21341 2.85632,0.82755 2.25827,0.87641 -10.88077,0.88916 -10.69947,0.0104 -15.29615,-0.23408 -19.94809,-1.06082 z"
   id="path8310" /><path
   style="fill:#4d4d4d;stroke-width:0.604488"
   d="m 236.0524,364.23953 c -25.03059,-4.44843 -47.16861,-15.96438 -65.03811,-33.83208 -20.16842,-20.16638 -31.94692,-44.76588 -35.07563,-73.25577 -0.838,-7.63074 -0.36301,-22.76238 0.96591,-30.77108 7.01144,-42.25408 37.46839,-77.50387 78.89749,-91.31314 13.41844,-4.47268 24.24705,-6.01946 41.70965,-5.95788 l 11.7875,0.0416 -7.55609,2.00066 c -23.25934,6.15847 -41.05725,16.1329 -56.7512,31.80492 -24.2257,24.19186 -36.73472,57.5837 -34.03098,90.84301 1.08582,13.35687 3.41177,23.59965 8.12185,35.7661 10.46715,27.03734 31.7103,50.34116 58.2727,63.92537 8.72361,4.46132 14.0292,6.51583 23.79577,9.21457 4.48138,1.23831 8.2613,2.35396 8.39983,2.47922 0.13852,0.12525 -5.98192,0.20548 -13.60097,0.17828 -10.42318,-0.0372 -15.34943,-0.31543 -19.89772,-1.12375 z"
   id="path8314" /></svg>
