<?xml version="1.0" encoding="UTF-8" standalone="no"?>
<!-- Uploaded to: SVG Repo, www.svgrepo.com, Generator: SVG Repo Mixer Tools -->

<svg
   version="1.1"
   id="Layer_1"
   viewBox="0 0 512 512"
   xml:space="preserve"
   sodipodi:docname="sound-speaker-off.svg"
   inkscape:version="1.4.2 (f4327f4, 2025-05-13)"
   xmlns:inkscape="http://www.inkscape.org/namespaces/inkscape"
   xmlns:sodipodi="http://sodipodi.sourceforge.net/DTD/sodipodi-0.dtd"
   xmlns="http://www.w3.org/2000/svg"
   xmlns:svg="http://www.w3.org/2000/svg"><defs
   id="defs6"><rect
     x="355.81796"
     y="199.63592"
     width="129.10209"
     height="119.6556"
     id="rect7" /><rect
     x="387.30627"
     y="225.45633"
     width="120.91513"
     height="168.77737"
     id="rect6" /></defs><sodipodi:namedview
   id="namedview6"
   pagecolor="#ffffff"
   bordercolor="#000000"
   borderopacity="0.25"
   inkscape:showpageshadow="2"
   inkscape:pageopacity="0.0"
   inkscape:pagecheckerboard="0"
   inkscape:deskcolor="#d1d1d1"
   inkscape:zoom="1.5878906"
   inkscape:cx="256"
   inkscape:cy="256"
   inkscape:window-width="1920"
   inkscape:window-height="1094"
   inkscape:window-x="1881"
   inkscape:window-y="1609"
   inkscape:window-maximized="1"
   inkscape:current-layer="Layer_1" />
<path
   style="fill:#4A5058;"
   d="M138.27,166.275H21.409C9.586,166.275,0,175.861,0,187.685v136.631  c0,11.825,9.586,21.409,21.409,21.409h116.859v-179.45H138.27z"
   id="path1" />
<rect
   x="54.807"
   y="166.271"
   style="fill:#E45D4C;"
   width="28.652"
   height="179.449"
   id="rect1" />
<path
   style="fill:#7E858B;"
   d="M294.098,59.176l-155.828,107.1v179.45l155.828,107.1c7.909,5.436,18.672-0.226,18.672-9.823V68.999  C312.769,59.402,302.007,53.739,294.098,59.176z"
   id="path2" />

<path
   style="opacity:0.2;enable-background:new    ;"
   d="M307.836,439.087L156.819,335.293c-3.133-2.153-6.846-3.306-10.649-3.306  H35.148c-11.825,0-21.409-9.586-21.409-21.409V173.947c0-2.311,0.377-4.532,1.054-6.618C6.209,170.119,0,178.172,0,187.685v136.631  c0,11.825,9.586,21.409,21.409,21.409h116.859l155.828,107.1c7.909,5.436,18.672-0.226,18.672-9.823v-1.941  C311.083,440.8,309.404,440.165,307.836,439.087z"
   id="path6" />
<text
   xml:space="preserve"
   id="text6"
   style="fill:#965353;stroke-width:0.562;text-align:start;writing-mode:lr-tb;text-orientation:auto;direction:ltr;white-space:pre;shape-inside:url(#rect6)" /><text
   xml:space="preserve"
   id="text7"
   style="font-size:100px;text-align:start;writing-mode:lr-tb;direction:ltr;white-space:pre;shape-inside:url(#rect7);fill:#ffdd55;stroke-width:0.562"
   transform="matrix(2.2409376,0,0,1.7016163,-458.89377,-187.70505)"><tspan
     x="355.81836"
     y="290.86975"
     id="tspan1">X</tspan></text></svg>
