<?xml version="1.0" encoding="utf-8"?>
<!-- Uploaded to: SVG Repo, www.svgrepo.com, Generator: SVG Repo Mixer Tools -->
<!DOCTYPE svg PUBLIC "-//W3C//DTD SVG 1.1//EN" "http://www.w3.org/Graphics/SVG/1.1/DTD/svg11.dtd">
<svg version="1.1" id="Capa_1" xmlns="http://www.w3.org/2000/svg" xmlns:xlink="http://www.w3.org/1999/xlink" 
	 width="800px" height="800px" viewBox="0 0 600 600" enable-background="new 0 0 600 600" xml:space="preserve">
<g>
	<path fill="#223E52" d="M500,423.139C500,465.587,465.587,500,423.138,500H176.862C134.413,500,100,465.587,100,423.139V176.862
		C100,134.413,134.413,100,176.862,100h246.275C465.587,100,500,134.413,500,176.862V423.139z"/>
	<path fill="#1C3347" d="M500,423.139V287.556l-98.533-63.526l-32.105-7.734l-25.485,24.646l-50.696-24.646L161.081,349.561
		L352.225,500h70.913C465.587,500,500,465.587,500,423.139z"/>
	<g>
		<circle fill="#4D3D4D" cx="312.465" cy="299.553" r="26.945"/>
		<path fill="#DC7D49" d="M285.103,216.632c-22.379,4.208-82.461,32.135-84.945,32.878c-4.965-5.057-11.875-8.198-19.522-8.198
			c-15.111,0-27.36,12.25-27.36,27.362v61.758c0,15.113,12.249,27.36,27.36,27.36c7.646,0,14.557-3.14,19.522-8.196
			c2.483,0.74,62.566,28.671,84.945,32.879c14.853,2.791,27.362-12.251,27.362-27.364V243.993
			C312.465,228.883,299.955,213.841,285.103,216.632z"/>
		<g>
			<path fill="#8DB3B3" d="M343.876,359.057c-4.466,0-8.085-3.617-8.085-8.083s3.619-8.083,8.085-8.083
				c23.649,0,42.89-19.242,42.89-42.892s-19.24-42.892-42.89-42.892c-4.466,0-8.085-3.618-8.085-8.083
				c0-4.466,3.619-8.084,8.085-8.084c32.563,0,59.057,26.493,59.057,59.059C402.933,332.565,376.439,359.057,343.876,359.057z"/>
		</g>
		<g>
			<path fill="#8DB3B3" d="M360.308,386.416c-4.464,0-8.083-3.617-8.083-8.083s3.619-8.082,8.083-8.082
				c38.738,0,70.251-31.517,70.251-70.252c0-38.736-31.513-70.251-70.251-70.251c-4.464,0-8.083-3.619-8.083-8.083
				c0-4.466,3.619-8.084,8.083-8.084c47.653,0,86.421,38.768,86.421,86.418C446.729,347.65,407.961,386.416,360.308,386.416z"/>
		</g>
	</g>
</g>
</svg>