<?xml version="1.0" encoding="UTF-8" standalone="no"?>
<!-- Generator: Adobe Illustrator 19.0.0, SVG Export Plug-In . SVG Version: 6.00 Build 0)  -->

<svg
   version="1.1"
   id="Layer_1"
   x="0px"
   y="0px"
   viewBox="0 0 503.467 503.467"
   style="enable-background:new 0 0 503.467 503.467;"
   xml:space="preserve"
   sodipodi:docname="speedometer-svgrepo-com.svg"
   inkscape:version="1.2 (dc2aedaf03, 2022-05-15)"
   xmlns:inkscape="http://www.inkscape.org/namespaces/inkscape"
   xmlns:sodipodi="http://sodipodi.sourceforge.net/DTD/sodipodi-0.dtd"
   xmlns="http://www.w3.org/2000/svg"
   xmlns:svg="http://www.w3.org/2000/svg"><defs
   id="defs49" /><sodipodi:namedview
   id="namedview47"
   pagecolor="#ffffff"
   bordercolor="#000000"
   borderopacity="0.25"
   inkscape:showpageshadow="2"
   inkscape:pageopacity="0.0"
   inkscape:pagecheckerboard="0"
   inkscape:deskcolor="#d1d1d1"
   showgrid="false"
   inkscape:zoom="1.6823347"
   inkscape:cx="251.4363"
   inkscape:cy="252.03071"
   inkscape:window-width="1920"
   inkscape:window-height="1027"
   inkscape:window-x="-8"
   inkscape:window-y="-8"
   inkscape:window-maximized="1"
   inkscape:current-layer="Layer_1" />
<g
   transform="translate(0.5 1)"
   id="g12">
	<circle
   style="fill:#ECF4F7;"
   cx="251.234"
   cy="250.733"
   r="247.467"
   id="circle2" />
	<path
   style="fill:#50DD8E;"
   d="M353.634,476.013c-31.573,14.507-65.707,22.187-102.4,22.187   C114.7,498.2,3.767,387.267,3.767,250.733S114.7,3.267,251.234,3.267c46.08,0,89.6,12.8,127.147,34.987l-34.987,39.253   c-27.307-14.507-58.88-23.04-92.16-23.04c-108.373,0-196.267,87.893-196.267,196.267c0,40.96,12.8,79.36,34.133,110.933l0,0   l3.413,5.12c0.853,0.853,1.707,2.56,2.56,3.413l70.827,93.867L353.634,476.013z"
   id="path4" />
	<g
   id="g10">
		<path
   style="fill:#AAB1BA;"
   d="M447.5,395.8l2.56,1.707C404.834,458.094,332.3,498.2,251.234,498.2    c-81.92,0-155.307-40.96-200.533-102.4l0,0H447.5z"
   id="path6" />
		<path
   style="fill:#AAB1BA;"
   d="M269.154,232.813c4.267,4.267,7.68,11.093,7.68,17.92c0,14.507-11.093,25.6-25.6,25.6    c-14.507,0-25.6-11.093-25.6-25.6c0-14.507,11.093-25.6,25.6-25.6C258.914,225.133,264.887,227.693,269.154,232.813"
   id="path8" />
	</g>
</g>
<path
   style="fill:#51565F;"
   d="M251.734,503.467c-80.213,0-156.16-39.253-203.947-104.107c-0.853-0.853-1.707-2.56-0.853-4.267  c0.853-1.707,2.56-2.56,4.267-2.56h354.133c2.56,0,4.267,1.707,4.267,4.267s-1.707,4.267-4.267,4.267h-345.6  c46.933,58.88,117.76,93.867,192,93.867c133.973,0,243.2-109.227,243.2-243.2s-109.227-243.2-243.2-243.2  c-133.973,0-243.2,109.227-243.2,243.2c0,38.4,8.533,75.093,26.453,109.227c0.853,1.707,0,4.267-1.707,5.973  c-1.707,0.853-4.267,0-5.973-1.707C9.387,330.24,0,291.84,0,251.733C0,112.64,112.64,0,251.733,0s251.733,112.64,251.733,251.733  S390.827,503.467,251.734,503.467z M89.6,366.933c-0.853,0-2.56-0.853-3.413-1.707C63.147,335.36,51.2,296.96,51.2,251.733  C51.2,140.8,140.8,51.2,251.734,51.2c35.84,0,70.827,9.387,101.547,27.307c1.707,0.853,2.56,3.413,1.707,5.973  c-0.853,1.707-3.413,2.56-5.973,1.707C320,69.12,285.867,59.734,251.734,59.734c-105.813,0-192,86.187-192,192  c0,43.52,11.093,79.36,33.28,108.373c1.707,1.707,0.853,4.267-0.853,5.973C91.307,366.933,90.454,366.933,89.6,366.933z   M200.534,307.2c-0.853,0-2.56,0-3.413-0.853c-0.853-0.853-0.853-1.707-0.853-3.413s0-2.56,0.853-3.413l30.72-30.72  c-3.413-5.12-5.973-11.093-5.973-17.92c0-16.213,13.653-29.867,29.867-29.867c6.827,0,12.8,2.56,17.92,5.973L394.241,102.4  c1.707-1.707,4.267-1.707,5.973,0c0.853,0.853,0.853,1.707,0.853,3.413s0,2.56-0.853,3.413L275.627,233.813  c3.413,5.12,5.973,11.093,5.973,17.92c0,16.213-13.653,29.867-29.867,29.867c-6.827,0-12.8-2.56-17.92-5.973l-30.72,30.72  C203.094,307.2,201.387,307.2,200.534,307.2z M251.734,230.4c-11.947,0-21.333,9.387-21.333,21.333  c0,11.947,9.387,21.333,21.333,21.333s21.333-9.387,21.333-21.333C273.067,239.787,263.68,230.4,251.734,230.4z M465.067,256  h-34.133c-2.56,0-4.267-1.707-4.267-4.267c0-2.56,1.707-4.267,4.267-4.267h34.133c2.56,0,4.267,1.707,4.267,4.267  C469.334,254.293,467.627,256,465.067,256z M424.96,209.92c-1.707,0-3.413-0.853-4.267-3.413v-0.853  c0-1.707,0.853-3.413,3.413-4.267l33.28-8.533c2.56-0.853,4.267,0.853,5.12,3.413v0.853c0,1.707-0.853,3.413-3.413,4.267  l-33.28,8.533C425.814,209.92,424.96,209.92,424.96,209.92z M407.04,166.4c-1.707,0-2.56-0.853-3.413-2.56  c0-0.853-0.853-1.707-0.853-2.56c0-1.707,0.853-2.56,2.56-3.413L435.2,140.8c1.707-0.853,4.267-0.853,5.973,1.707  c0,0.853,0.853,1.707,0.853,2.56c0,1.707-0.853,2.56-2.56,3.413L409.6,165.547C408.747,166.4,407.894,166.4,407.04,166.4z"
   id="path14" />
<g
   id="g16">
</g>
<g
   id="g18">
</g>
<g
   id="g20">
</g>
<g
   id="g22">
</g>
<g
   id="g24">
</g>
<g
   id="g26">
</g>
<g
   id="g28">
</g>
<g
   id="g30">
</g>
<g
   id="g32">
</g>
<g
   id="g34">
</g>
<g
   id="g36">
</g>
<g
   id="g38">
</g>
<g
   id="g40">
</g>
<g
   id="g42">
</g>
<g
   id="g44">
</g>
<path
   style="fill:#5599ff;stroke-width:0.594412"
   d="M 241.33129,494.43819 C 193.04914,492.17899 145.44989,474.93845 106.00714,445.4235 91.813176,434.80218 74.481698,418.45519 64.303933,406.08919 l -3.756247,-4.56385 H 233.23759 c 130.35506,0 173.06321,-0.17009 174.21267,-0.69381 0.83752,-0.3816 1.71943,-1.38467 1.9598,-2.22905 l 0.43705,-1.53523 17.94641,0.29721 17.94641,0.2972 -5.43794,6.83574 c -7.35218,9.24204 -26.88213,28.67133 -36.58241,36.39386 -36.00129,28.66114 -76.86804,46.05534 -121.80149,51.84264 -12.79127,1.64747 -28.08035,2.28948 -40.5868,1.70429 z"
   id="path293" /><path
   style="fill:#87cdde;stroke-width:0.594412"
   d="m 44.235595,385.75825 c -2.34999,-3.60453 -5.753844,-9.1828 -7.56412,-12.39614 l -3.29141,-5.84243 1.140107,-1.86975 c 0.627059,-1.02836 1.141107,-2.3432 1.142329,-2.92185 0.0012,-0.57865 -1.168125,-3.38725 -2.598548,-6.24133 C 19.814712,330.051 11.843157,300.69233 9.4629324,269.56587 8.597436,258.24767 9.0622208,234.87798 10.367306,224.09334 15.908703,178.30177 33.757156,135.63403 62.210852,100.15843 69.744542,90.76555 83.799379,76.163824 92.894555,68.280784 130.77957,35.444821 176.69813,15.547907 227.36261,10.014596 c 12.10224,-1.321744 36.67418,-1.3172846 48.84069,0.0089 33.28129,3.627654 65.22944,13.66245 92.84629,29.16267 4.22419,2.370864 5.90433,3.616559 5.58683,4.142207 -0.24971,0.413443 -6.57387,7.604377 -14.05368,15.979855 l -13.59965,15.228144 -3.93551,-1.97576 C 331.28211,66.653916 316.14964,60.955364 303.44735,57.648008 285.17132,52.88939 271.38146,51.176195 251.4363,51.186371 230.51869,51.197044 215.01134,53.342422 195.59222,58.91217 140.07557,74.835325 93.296818,115.18407 69.184249,167.94465 56.957714,194.69747 51.141175,221.7983 51.1258,252.08385 c -0.0209,41.17985 9.437307,75.53626 28.901024,104.98131 5.369699,8.12337 7.353103,10.11485 9.836289,9.87633 1.926365,-0.18503 2.179965,0.089 11.375647,12.2934 l 9.40535,12.48265 -6.72887,0.14449 c -3.70088,0.0795 -17.681434,0.21321 -31.067903,0.2972 l -24.339032,0.15273 z"
   id="path364" /><path
   style="fill:#87cdde;stroke-width:0.594412"
   d="m 45.240185,386.71545 c -1.913836,-2.91461 -5.268667,-8.38003 -7.45518,-12.14538 -3.934868,-6.77617 -3.966002,-6.86442 -3.04788,-8.63987 0.51018,-0.98658 0.927598,-2.3753 0.927598,-3.08605 0,-0.71075 -1.993818,-5.62115 -4.430707,-10.912 C 19.774658,327.05219 13.507175,304.40117 10.417132,276.69881 9.3676383,267.29007 9.2060438,240.88271 10.131597,230.03747 14.276857,181.46502 35.541728,131.14156 67.372645,94.576135 108.94627,46.818876 160.89386,19.063237 224.55455,10.593725 c 11.92578,-1.5866242 44.19595,-1.407959 56.8098,0.31453 17.62698,2.407058 34.32899,6.358813 50.4508,11.936837 17.52359,6.06303 42.47565,18.272824 41.95901,20.531809 -0.17638,0.771225 -25.56709,29.668631 -26.66401,30.34657 -0.28529,0.176308 -2.34448,-0.598882 -4.57599,-1.72266 -17.88377,-9.006118 -42.07687,-16.496666 -62.56608,-19.371398 -6.68242,-0.937575 -20.18996,-1.79683 -28.23457,-1.796086 -53.97211,0.005 -104.18873,20.812947 -142.37236,58.993973 -33.086795,33.08453 -53.290256,76.05982 -57.630754,122.58781 -0.779553,8.35643 -0.788093,31.92507 -0.01465,40.42002 2.951151,32.4132 11.855571,59.29429 27.762931,83.8121 4.924853,7.59062 7.586458,10.40221 9.847256,10.40221 2.125873,0 3.381266,1.36685 13.112897,14.27707 l 7.38462,9.79662 -11.371045,0.36677 c -6.254077,0.20173 -20.002376,0.40234 -30.551781,0.44581 l -19.180741,0.079 z"
   id="path366" /><path
   style="fill:#87cdde;stroke-width:0.594412"
   d="m 236.576,493.86468 c -12.58431,-1.20181 -16.35044,-1.66521 -23.92087,-2.94329 C 170.74532,483.84588 130.45132,465.3586 97.264706,437.97912 88.586328,430.81931 71.264542,413.89926 65.117887,406.57785 l -3.992286,-4.7553 173.171929,-0.29721 c 95.24457,-0.16346 173.52279,-0.5238 173.95161,-0.80075 0.42883,-0.27696 1.03858,-1.18449 1.355,-2.01674 l 0.57531,-1.51319 17.07178,0.43393 c 9.38948,0.23867 17.17047,0.53159 17.29108,0.65095 0.59754,0.59128 -11.54756,14.29259 -21.31856,24.05023 -12.3957,12.37874 -19.38835,18.42357 -30.61459,26.4649 -36.22674,25.94914 -78.49398,41.39213 -122.7163,44.8363 -7.29031,0.56779 -28.27716,0.71501 -33.31686,0.23371 z"
   id="path368" /><path
   style="fill:#5fd38d;stroke-width:0.594412"
   d="m 44.369319,385.32761 c -2.38351,-3.67792 -5.731495,-9.14922 -7.439967,-12.15845 -3.04265,-5.35918 -3.08744,-5.50781 -2.18547,-7.25203 0.506462,-0.97939 0.920841,-2.34459 0.920841,-3.03377 0,-0.68917 -1.637821,-4.78161 -3.639602,-9.0943 C 20.659208,329.30207 14.498918,308.21861 10.889868,281.45411 9.3583906,270.09676 9.3559825,233.01373 10.886008,222.0129 16.508229,181.58933 30.517423,145.20115 52.725854,113.336 66.074358,94.183271 86.935248,72.523644 105.67441,58.360103 140.93308,31.710706 180.0141,16.204795 226.7682,10.314549 c 9.47014,-1.1930819 42.02894,-1.0034033 52.30826,0.304733 29.08253,3.701017 54.7518,11.291854 79.65122,23.554212 11.15901,5.495546 15.31275,8.031318 15.04999,9.187714 -0.18042,0.794016 -24.35433,28.397547 -26.23927,29.961909 -0.73973,0.61392 -1.6208,0.38157 -4.99331,-1.316796 -11.05415,-5.566784 -28.16022,-11.810402 -41.73421,-15.232758 -27.62975,-6.966177 -61.01817,-7.756326 -88.86499,-2.103023 -40.17044,8.155173 -75.47206,27.487905 -104.36385,57.15428 -9.782485,10.04474 -15.943346,17.65606 -23.357353,28.85641 -17.12402,25.86927 -27.286116,52.86013 -31.740462,84.30373 -1.53669,10.84763 -1.52549,44.46727 0.01862,55.87474 2.108705,15.57858 5.527603,29.83169 10.219298,42.60339 5.06256,13.78126 18.493823,37.82395 23.468488,42.00985 1.030461,0.86708 2.492126,1.5765 3.248141,1.5765 2.043582,0 3.04358,1.07456 12.169688,13.07707 l 8.36129,10.99662 -11.146983,0.36832 c -6.130844,0.20257 -19.915865,0.40319 -30.633388,0.44581 l -19.486403,0.0775 z"
   id="path370" /></svg>
