<?xml version="1.0" encoding="UTF-8" standalone="no"?>
<!-- Uploaded to: SVG Repo, www.svgrepo.com, Generator: SVG Repo Mixer Tools -->

<svg
   height="800px"
   width="800px"
   version="1.1"
   id="Layer_1"
   viewBox="0 0 512 512"
   xml:space="preserve"
   sodipodi:docname="standing_top_off.svg"
   inkscape:version="1.2 (dc2aedaf03, 2022-05-15)"
   xmlns:inkscape="http://www.inkscape.org/namespaces/inkscape"
   xmlns:sodipodi="http://sodipodi.sourceforge.net/DTD/sodipodi-0.dtd"
   xmlns="http://www.w3.org/2000/svg"
   xmlns:svg="http://www.w3.org/2000/svg"><defs
   id="defs5011" /><sodipodi:namedview
   id="namedview5009"
   pagecolor="#ffffff"
   bordercolor="#000000"
   borderopacity="0.25"
   inkscape:showpageshadow="2"
   inkscape:pageopacity="0.0"
   inkscape:pagecheckerboard="0"
   inkscape:deskcolor="#d1d1d1"
   showgrid="false"
   inkscape:zoom="1.05875"
   inkscape:cx="400.94451"
   inkscape:cy="347.57969"
   inkscape:window-width="1920"
   inkscape:window-height="1027"
   inkscape:window-x="-8"
   inkscape:window-y="-8"
   inkscape:window-maximized="1"
   inkscape:current-layer="Layer_1" />
<path
   style="fill:#707487;stroke-width:0.991621"
   d="m 293.43934,130.586 -20.82755,21.181 c -8.23622,8.376 -15.11253,17.741 -20.77641,27.735 V 70.621 H 234.475 v 174.776 248.948 h 17.36038 V 245.397 c 0,-30.655 11.73977,-59.474 33.0511,-81.146 l 20.82755,-21.181 z"
   id="path4992" />
<path
   style="fill:#AFB9D2;"
   d="M243.303,88.276L243.303,88.276c-9.751,0-17.655-7.904-17.655-17.655V44.138h35.31v26.483  C260.958,80.372,253.053,88.276,243.303,88.276z"
   id="path4994" />
<path
   style="fill:#ffcc00"
   d="M158.73,0c15.292,31.328,47.364,52.966,84.573,52.966S312.583,31.328,327.876,0H158.73z"
   id="path4996" />
<g
   id="g5002">
	<path
   style="fill:#333333;stroke-width:0.991908"
   d="m 293.272,512 h -96.04909 c -6.60571,0 -11.9621,-2.87029 -11.9621,-6.41005 v -6.41006 c 0,-3.53976 5.35639,-6.41005 11.9621,-6.41005 H 293.272 c 6.60572,0 11.96211,2.87029 11.96211,6.41005 v 6.41006 c 0,3.53976 -5.35503,6.41005 -11.96211,6.41005 z"
   id="path4998" />
	<path
   style="fill:#AFB9D2;"
   d="M292.612,144.898L292.612,144.898c-6.894-6.894-6.894-18.073,0-24.968l13.241-13.241l24.968,24.968   l-13.241,13.241C310.685,151.793,299.506,151.793,292.612,144.898z"
   id="path5000" />
</g>
<path
   style="fill:#FFB464;"
   d="M309.889,127.622L309.889,127.622c-9.751-9.751-9.751-25.559,0-35.31l8.071-8.071l35.31,35.31  l-8.071,8.071C335.448,137.372,319.639,137.372,309.889,127.622z"
   id="path5004"
   inkscape:label="path5004" />

<path
   style="fill:#333333;stroke-width:0.94451"
   d="m 366.94215,452.31925 c 0,-301.5093 0.0807,-316.95222 1.65289,-316.32977 5.15853,2.04231 11.77363,2.72779 16.52893,1.7128 2.72727,-0.58212 5.70248,-1.35288 6.61157,-1.7128 1.56549,-0.61979 1.65373,3.20887 1.6688,72.41006 l 0.0159,73.06445 2.03052,-3.30578 c 11.80516,-19.21943 19.80764,-29.2474 39.30543,-49.25396 l 14.76223,-15.14742 0.97868,2.85859 c 1.76357,5.15112 6.89669,11.31914 11.70562,14.06564 l 4.69785,2.68306 -15.26847,16.02799 c -8.39766,8.81541 -17.01289,18.15027 -19.14495,20.74415 -16.53646,20.1184 -29.49512,47.85861 -35.95657,76.97118 l -2.62039,11.80637 -0.27955,205.19481 -0.27956,205.1948 h -13.20447 -13.20447 z"
   id="path5700"
   transform="scale(0.64)" /><path
   style="fill:#333333;stroke-width:0.94451"
   d="m 371.02642,135.87954 c -5.40217,-1.91421 -12.16151,-8.10227 -15.20644,-13.92124 -2.44779,-4.67782 -2.54368,-5.44939 -2.87783,-23.15674 l -0.34567,-18.317683 3.0985,0.619701 c 12.37001,2.474001 36.57061,2.474001 48.94061,0 l 3.09851,-0.619701 -0.34567,18.317683 c -0.33415,17.70735 -0.43004,18.47892 -2.87783,23.15674 -3.1481,6.01613 -9.84735,12.02243 -15.59311,13.98021 -5.35806,1.82567 -12.64006,1.80167 -17.89107,-0.059 z"
   id="path5702"
   transform="scale(0.64)" /><path
   style="fill:#333333;stroke-width:0.94451"
   d="m 468.94312,232.88374 c -11.19543,-3.4055 -19.00215,-14.08445 -19.00215,-25.99339 0,-9.26154 2.39675,-13.69653 13.23951,-24.4986 l 9.26516,-9.2304 0.58366,4.92806 c 1.83555,15.49833 15.00938,28.96689 31.65391,32.36207 l 5.87084,1.19755 -8.83886,8.66796 c -10.64167,10.43591 -16.25376,13.46656 -24.73762,13.35883 -3.11689,-0.0396 -6.73239,-0.39601 -8.03445,-0.79208 z"
   id="path5704"
   transform="scale(0.64)" /><path
   style="fill:#806600;stroke-width:0.94451"
   d="m 499.72012,208.2217 c -10.38262,-3.67237 -18.37718,-10.85007 -23.09638,-20.73646 -2.21236,-4.63475 -2.4797,-6.31706 -2.4797,-15.60427 0,-9.81111 0.17399,-10.76124 3.02684,-16.52893 2.14394,-4.33448 5.45359,-8.52827 11.3465,-14.37764 l 8.31966,-8.25819 27.19088,27.20301 27.19088,27.20301 -8.58552,8.27647 c -11.23789,10.83336 -17.75974,14.06303 -29.27573,14.4976 -6.32214,0.23858 -9.24221,-0.11999 -13.63743,-1.6746 z"
   id="path5857"
   transform="scale(0.64)" /><path
   style="fill:#d4aa00;stroke-width:0.94451"
   d="M 366.59789,81.639175 C 350.90302,80.248145 332.06162,75.02001 317.21297,67.93578 291.08497,55.470219 266.10591,31.986942 252.23384,6.8476978 l -3.51803,-6.37544278 h 131.45835 131.45835 l -3.0557,5.43093268 C 496.64703,27.106191 480.87893,44.324254 461.53556,57.270173 c -21.26622,14.232814 -43.69297,22.117456 -69.5639,24.456786 -10.68906,0.96654 -13.59122,0.956499 -25.37377,-0.08778 z"
   id="path5942"
   transform="scale(0.64)" /><path
   style="fill:#d4aa00;stroke-width:0.94451"
   d="m 499.08627,207.47599 c -9.88881,-3.98849 -17.26538,-10.90422 -21.75632,-20.39712 -2.42354,-5.12285 -2.71217,-6.73808 -2.71217,-15.17804 0,-12.75367 2.40564,-17.93538 13.82706,-29.78329 l 8.25809,-8.56646 26.79605,26.73095 26.79604,26.73096 -8.43505,8.05024 c -11.61602,11.08609 -16.62951,13.48444 -28.99102,13.86867 -7.50126,0.23316 -10.33779,-0.0665 -13.78268,-1.45591 z"
   id="path6112"
   transform="scale(0.64)" /><path
   style="fill:#806600;stroke-width:0.94451"
   d="M 359.26281,80.31249 C 338.70537,76.944028 320.77085,70.422988 304.87275,60.536121 284.16587,47.658717 266.55003,29.891113 254.32854,9.5564515 251.85044,5.4332738 249.8229,1.702575 249.8229,1.2660099 c 0,-0.43656518 58.65408,-0.79375488 130.34239,-0.79375488 71.68831,0 130.34238,0.36017294 130.34238,0.80038428 0,0.4402115 -2.36835,4.5842493 -5.26301,9.2089727 -22.71065,36.284252 -55.84416,59.815203 -96.27181,68.37089 -12.4421,2.633117 -37.9741,3.382993 -49.71004,1.459988 z"
   id="path6114"
   transform="scale(0.64)" /><path
   style="fill:#806600;stroke-width:0.94451"
   d="m 496.34002,205.74421 c -6.9068,-3.39449 -15.05959,-11.68316 -18.3478,-18.65362 -2.32371,-4.92589 -2.63332,-6.66391 -2.60791,-14.63991 0.0438,-13.76295 2.80711,-19.46685 15.47599,-31.94531 l 5.98363,-5.89368 26.26908,26.28165 26.26908,26.28165 -8.05143,7.53298 c -4.42828,4.14314 -10.30608,8.77449 -13.06176,10.2919 -4.59685,2.53123 -5.90674,2.78114 -15.87221,3.02818 -10.17634,0.25226 -11.18972,0.10812 -16.05667,-2.28384 z"
   id="path6133"
   transform="scale(0.64)" /><path
   style="fill:#d4aa00;stroke-width:0.94451"
   d="m 352.30224,78.454612 c -5.71428,-1.197647 -13.78984,-3.3261 -17.94569,-4.729896 -31.62041,-10.681011 -61.05378,-34.377126 -78.95114,-63.561729 -2.66663,-4.3483727 -4.63853,-8.1160171 -4.382,-8.3725436 0.60778,-0.6077826 257.67282,-0.6109445 258.28058,-0.00318 0.6559,0.6558949 -5.5468,10.6503916 -12.26212,19.7581256 -7.06986,9.588574 -21.53334,24.130147 -30.92617,31.09313 -19.70003,14.603799 -44.2949,24.562489 -67.15148,27.190247 -14.48425,1.665214 -35.05003,1.059568 -46.66198,-1.374157 z"
   id="path6135"
   transform="scale(0.64)" /></svg>
