<?xml version="1.0" encoding="UTF-8" standalone="no"?>
<!-- Uploaded to: SVG Repo, www.svgrepo.com, Generator: SVG Repo Mixer Tools -->

<svg
   height="800px"
   width="800px"
   version="1.1"
   id="Layer_1"
   viewBox="0 0 511.999 511.999"
   xml:space="preserve"
   sodipodi:docname="start-moisture.svg"
   inkscape:version="1.3.1 (91b66b0783, 2023-11-16)"
   xmlns:inkscape="http://www.inkscape.org/namespaces/inkscape"
   xmlns:sodipodi="http://sodipodi.sourceforge.net/DTD/sodipodi-0.dtd"
   xmlns="http://www.w3.org/2000/svg"
   xmlns:svg="http://www.w3.org/2000/svg"><defs
   id="defs12" /><sodipodi:namedview
   id="namedview12"
   pagecolor="#ffffff"
   bordercolor="#000000"
   borderopacity="0.25"
   inkscape:showpageshadow="2"
   inkscape:pageopacity="0.0"
   inkscape:pagecheckerboard="0"
   inkscape:deskcolor="#d1d1d1"
   inkscape:zoom="0.5875"
   inkscape:cx="400"
   inkscape:cy="399.14894"
   inkscape:window-width="1920"
   inkscape:window-height="1027"
   inkscape:window-x="-8"
   inkscape:window-y="-8"
   inkscape:window-maximized="1"
   inkscape:current-layer="Layer_1" />
<path
   style="fill:#5CC4E0;"
   d="M92.16,340.076C92.16,249.591,256,8.086,256,8.086s163.84,241.505,163.84,331.991  S346.486,503.916,256,503.916S92.16,430.563,92.16,340.076z"
   id="path1" />
<path
   style="fill:#439EE8;"
   d="M277.558,478.047c-90.486,0-163.84-73.354-163.84-163.84c0-71.143,101.274-235.632,144.576-302.71  C256.803,9.269,256,8.086,256,8.086S92.161,249.591,92.161,340.076s73.354,163.84,163.84,163.84  c56.682,0,106.638-28.786,136.055-72.534C362.517,460.248,322.119,478.047,277.558,478.047z"
   id="path2" />
<g
   id="g5">
	<path
   style="fill:#FFFFFF;"
   d="M223.663,232.826c-4.465,0-8.084,3.618-8.084,8.084v30.72h-44.194v-30.72   c0-4.466-3.62-8.084-8.084-8.084s-8.084,3.618-8.084,8.084v77.608c0,4.466,3.62,8.084,8.084,8.084s8.084-3.618,8.084-8.084v-30.72   h44.194v30.72c0,4.466,3.62,8.084,8.084,8.084s8.084-3.618,8.084-8.084V240.91C231.748,236.446,228.128,232.826,223.663,232.826z"
   id="path3" />
	<path
   style="fill:#FFFFFF;"
   d="M309.895,232.826c-25.854,0-46.888,21.034-46.888,46.888c0,25.854,21.034,46.888,46.888,46.888   c25.854,0,46.888-21.034,46.888-46.888C356.783,253.86,335.748,232.826,309.895,232.826z M309.895,310.434   c-16.939,0-30.72-13.781-30.72-30.72c0-16.939,13.781-30.72,30.72-30.72c16.939,0,30.72,13.781,30.72,30.72   C340.615,296.654,326.833,310.434,309.895,310.434z"
   id="path4" />
	<path
   style="fill:#FFFFFF;"
   d="M284.025,375.108h-21.852l22.912-20.367c1.726-1.534,2.713-3.733,2.713-6.042v-2.156   c0-15.156-12.33-27.486-27.486-27.486c-15.156,0-27.486,12.33-27.486,27.486c0,4.466,3.62,8.084,8.084,8.084   s8.084-3.618,8.084-8.084c0-6.241,5.077-11.318,11.318-11.318c5.768,0,10.541,4.336,11.232,9.92l-36.005,32.004   c-2.508,2.229-3.378,5.777-2.185,8.915c1.192,3.138,4.199,5.212,7.556,5.212h43.116c4.465,0,8.084-3.618,8.084-8.084   C292.11,378.726,288.49,375.108,284.025,375.108z"
   id="path5" />
</g>
<g
   id="g7">
	<path
   style="fill:#439EE8;"
   d="M426.307,57.669c12.579,16.039,30.515,18.874,34.493,19.402   c-3.977,0.528-21.914,3.363-34.493,19.402c-8.796,11.221-10.402,23.067-10.779,28.025c-0.377-4.958-1.983-16.804-10.779-28.025   c-12.579-16.039-30.515-18.874-34.493-19.402c3.977-0.528,21.914-3.363,34.493-19.402c8.796-11.221,10.402-23.067,10.779-28.025   C415.906,34.602,417.512,46.448,426.307,57.669z"
   id="path6" />
	<path
   style="fill:#439EE8;"
   d="M107.251,57.669c12.579,16.039,30.515,18.874,34.493,19.402   c-3.977,0.528-21.914,3.363-34.493,19.402c-8.796,11.221-10.402,23.067-10.779,28.025c-0.377-4.958-1.983-16.804-10.779-28.025   C73.114,80.434,55.178,77.599,51.201,77.071c3.977-0.528,21.914-3.363,34.493-19.402c8.796-11.221,10.402-23.067,10.779-28.025   C96.849,34.602,98.455,46.448,107.251,57.669z"
   id="path7" />
</g>
<path
   d="M256.044,0.001c-2.698-0.05-5.165,1.284-6.684,3.473c-7.735,11.139-75.66,122.1-107.098,177.39  c-2.208,3.881-0.85,8.817,3.032,11.024c3.879,2.208,8.816,0.85,11.024-3.032c26.871-47.255,80.389-135.183,99.795-166.02  c30.81,46.69,155.644,240.61,155.644,317.241c0,85.522-69.291,155.167-154.678,155.752c-85.386-0.585-154.678-70.23-154.678-155.752  c0-21.433,10.057-54.396,29.89-97.974c1.85-4.064,0.055-8.857-4.009-10.707c-4.063-1.85-8.857-0.055-10.707,4.01  c-20.798,45.695-31.343,80.911-31.343,104.67c0,93.879,75.637,170.424,169.171,171.901c0.197,0.015,0.396,0.023,0.597,0.023h2.156  c0.202,0,0.4-0.008,0.597-0.023c93.534-1.477,169.171-78.023,169.171-171.901c0-91.912-158.487-326.584-165.233-336.53  C261.193,1.342,258.708,0.016,256.044,0.001z"
   id="path8" />
<path
   d="M96.472,132.582c4.226,0,7.74-3.256,8.062-7.471c0.38-4.992,2.065-14.701,9.079-23.65  c9.877-12.592,23.708-15.648,29.196-16.376c4.018-0.534,7.019-3.96,7.019-8.014c0-4.054-3.002-7.479-7.019-8.014  c-5.488-0.73-19.319-3.786-29.195-16.375c-7.016-8.951-8.701-18.66-9.08-23.651c-0.321-4.215-3.834-7.471-8.062-7.471  c-4.227,0-7.74,3.256-8.062,7.471c-0.38,4.992-2.065,14.701-9.079,23.65c-9.876,12.592-23.707,15.648-29.196,16.377  c-4.018,0.534-7.019,3.96-7.019,8.014s3.002,7.479,7.019,8.014c5.489,0.73,19.32,3.786,29.195,16.375  c7.016,8.951,8.701,18.66,9.08,23.651C88.732,129.327,92.245,132.582,96.472,132.582z M75.496,77.071  c5.675-3.313,11.485-7.945,16.56-14.415c1.682-2.145,3.144-4.313,4.416-6.475c1.272,2.162,2.736,4.33,4.416,6.475l0.001,0.001  c5.074,6.47,10.883,11.1,16.558,14.414c-5.675,3.313-11.485,7.945-16.56,14.415c-1.682,2.145-3.144,4.313-4.416,6.475  c-1.273-2.162-2.737-4.331-4.418-6.476C86.98,85.015,81.17,80.384,75.496,77.071z"
   id="path9" />
<path
   d="M461.864,69.058c-5.489-0.73-19.32-3.786-29.195-16.375c-7.016-8.951-8.701-18.66-9.08-23.651  c-0.321-4.215-3.834-7.471-8.062-7.471c-4.228,0-7.74,3.256-8.062,7.471c-0.38,4.992-2.065,14.701-9.08,23.651  c-9.876,12.591-23.707,15.647-29.195,16.375c-4.018,0.534-7.019,3.96-7.019,8.014s3.002,7.479,7.019,8.014  c5.489,0.73,19.32,3.786,29.195,16.375c7.016,8.951,8.701,18.66,9.08,23.651c0.321,4.215,3.834,7.471,8.062,7.471  c4.227,0,7.74-3.256,8.062-7.471c0.38-4.992,2.065-14.701,9.079-23.65c9.877-12.592,23.708-15.648,29.196-16.376  c4.018-0.534,7.019-3.96,7.019-8.014S465.882,69.591,461.864,69.058z M419.944,91.485c-1.681,2.145-3.144,4.313-4.416,6.475  c-1.273-2.162-2.737-4.331-4.418-6.476c-5.074-6.47-10.883-11.1-16.557-14.414c5.675-3.313,11.485-7.944,16.557-14.414l0.001-0.001  c1.681-2.145,3.144-4.313,4.416-6.475c1.273,2.162,2.737,4.331,4.418,6.476c5.074,6.47,10.883,11.1,16.557,14.414  C430.829,80.384,425.018,85.016,419.944,91.485z"
   id="path10" />
<path
   d="M373.982,377.075c-7.348,22.703-18.064,39.99-32.763,52.849c-0.033,0.029-0.067,0.059-0.1,0.089  c-20.012,18.106-45.096,29.223-74.554,33.041c-4.428,0.573-7.552,4.628-6.978,9.055c0.528,4.076,4.004,7.046,8.008,7.046  c0.346,0,0.696-0.023,1.049-0.068c32.764-4.245,60.78-16.708,83.275-37.041c16.932-14.834,29.182-34.46,37.447-59.993  c1.374-4.247-0.954-8.806-5.202-10.181C379.914,370.502,375.356,372.827,373.982,377.075z"
   id="path11" />
<path
   d="M387.018,359.878c4.155,0,7.69-3.185,8.046-7.402c0.346-4.087,0.522-8.259,0.523-12.399c0-4.466-3.618-8.084-8.083-8.085  l0,0c-4.465,0-8.084,3.618-8.084,8.083c0,3.687-0.157,7.4-0.465,11.037c-0.377,4.448,2.924,8.361,7.373,8.737  C386.559,359.87,386.789,359.878,387.018,359.878z"
   id="path12" />
<g
   id="g6"
   transform="matrix(3.9999922,0,0,3.9999922,358.07249,361.43589)">
	<path
   class="cubies_twee"
   d="M 32,5 H 0 V 3 C 0,1.343 1.343,0 3,0 h 26 c 1.657,0 3,1.343 3,3 z"
   id="path1-5"
   style="fill:#67625d" />
	<path
   class="cubies_drie"
   d="M 30,5 H 0 V 3 C 0,1.343 1.343,0 3,0 h 24 c 1.657,0 3,1.343 3,3 z"
   id="path2-8"
   style="fill:#837f79" />
	<path
   class="cubies_een"
   d="M 29,32 H 3 C 1.343,32 0,30.657 0,29 V 5 h 32 v 24 c 0,1.657 -1.343,3 -3,3 z"
   id="path3-7"
   style="fill:#4c4842" />
	<path
   class="cubies_twee"
   d="M 27,32 H 3 C 1.343,32 0,30.657 0,29 V 5 h 30 v 24 c 0,1.657 -1.343,3 -3,3 z"
   id="path4-9"
   style="fill:#67625d" />
	<path
   class="cubies_zes"
   d="m 16,5 h -4 l 2,-5 h 4 z M 10,0 H 6 L 4,5 h 4 z m 16,0 h -4 l -2,5 h 4 z"
   id="path5-2"
   style="fill:#edeae5" />
	<path
   class="cubies_vijf"
   d="m 12,5 h 4 l 2,5 h -4 z m -6,5 h 4 L 8,5 H 4 Z m 16,0 h 4 L 24,5 H 20 Z M 10.5,16 C 9.673,16 9,16.673 9,17.5 v 6 c 0,0.827 0.673,1.5 1.5,1.5 0.827,0 1.5,-0.673 1.5,-1.5 v -1 C 12,22.224 11.776,22 11.5,22 11.224,22 11,22.224 11,22.5 v 1 C 11,23.776 10.776,24 10.5,24 10.224,24 10,23.776 10,23.5 v -6 c 0,-0.276 0.224,-0.5 0.5,-0.5 0.276,0 0.5,0.224 0.5,0.5 v 1 c 0,0.276 0.224,0.5 0.5,0.5 0.276,0 0.5,-0.224 0.5,-0.5 v -1 C 12,16.673 11.327,16 10.5,16 Z m 7,0 C 17.224,16 17,16.224 17,16.5 v 8 c 0,0.276 0.224,0.5 0.5,0.5 0.276,0 0.5,-0.224 0.5,-0.5 v -8 C 18,16.224 17.776,16 17.5,16 Z m 8,0 C 25.224,16 25,16.224 25,16.5 v 1.882 L 23.947,16.277 C 23.843,16.069 23.609,15.961 23.385,16.014 23.16,16.067 23,16.268 23,16.5 v 8 c 0,0.276 0.224,0.5 0.5,0.5 0.276,0 0.5,-0.224 0.5,-0.5 v -5.882 l 1,2 V 24.5 c 0,0.276 0.224,0.5 0.5,0.5 0.276,0 0.5,-0.224 0.5,-0.5 v -8 C 26,16.224 25.776,16 25.5,16 Z M 22,17.5 v 6 C 22,24.327 21.327,25 20.5,25 19.673,25 19,24.327 19,23.5 v -6 c 0,-0.827 0.673,-1.5 1.5,-1.5 0.827,0 1.5,0.673 1.5,1.5 z m -1,0 C 21,17.224 20.776,17 20.5,17 20.224,17 20,17.224 20,17.5 v 6 c 0,0.276 0.224,0.5 0.5,0.5 0.276,0 0.5,-0.224 0.5,-0.5 z m -13,0 v 7 C 8,24.776 7.776,25 7.5,25 7.224,25 7,24.776 7,24.5 V 21 H 6 v 3.5 C 6,24.776 5.776,25 5.5,25 5.224,25 5,24.776 5,24.5 v -7 C 5,16.673 5.673,16 6.5,16 7.327,16 8,16.673 8,17.5 Z M 7,20 V 17.5 C 7,17.224 6.776,17 6.5,17 6.224,17 6,17.224 6,17.5 V 20 Z m 8.5,-4 h -2 c -0.276,0 -0.5,0.224 -0.5,0.5 0,0.276 0.224,0.5 0.5,0.5 H 14 v 7.5 c 0,0.276 0.224,0.5 0.5,0.5 0.276,0 0.5,-0.224 0.5,-0.5 V 17 h 0.5 C 15.776,17 16,16.776 16,16.5 16,16.224 15.776,16 15.5,16 Z"
   id="path6-2"
   style="fill:#c9c6c0" />
</g></svg>
