<?xml version="1.0" encoding="UTF-8" standalone="no"?>
<!-- Uploaded to: SVG Repo, www.svgrepo.com, Generator: SVG Repo Mixer Tools -->

<svg
   width="800px"
   height="800px"
   viewBox="0 0 64 64"
   version="1.1"
   id="svg4"
   sodipodi:docname="start-moisture.svg"
   inkscape:version="1.3.1 (91b66b0783, 2023-11-16)"
   xmlns:inkscape="http://www.inkscape.org/namespaces/inkscape"
   xmlns:sodipodi="http://sodipodi.sourceforge.net/DTD/sodipodi-0.dtd"
   xmlns="http://www.w3.org/2000/svg"
   xmlns:svg="http://www.w3.org/2000/svg">
  <defs
     id="defs4" />
  <sodipodi:namedview
     id="namedview4"
     pagecolor="#ffffff"
     bordercolor="#000000"
     borderopacity="0.25"
     inkscape:showpageshadow="2"
     inkscape:pageopacity="0.0"
     inkscape:pagecheckerboard="0"
     inkscape:deskcolor="#d1d1d1"
     inkscape:zoom="0.5875"
     inkscape:cx="400"
     inkscape:cy="399.14894"
     inkscape:window-width="1920"
     inkscape:window-height="1027"
     inkscape:window-x="-8"
     inkscape:window-y="-8"
     inkscape:window-maximized="1"
     inkscape:current-layer="svg4" />
  <g
     fill="none"
     fill-rule="evenodd"
     id="g4">
    <path
       fill="#B4DFFB"
       d="M26.6995662,63 C36.4747667,63 44.3991324,55.0756343 44.3991324,45.3004338 C44.3991324,35.5252333 26.6995662,9 26.6995662,9 C26.6995662,9 9,35.5252333 9,45.3004338 C9,55.0756343 16.9243657,63 26.6995662,63 Z"
       id="path1" />
    <path
       fill="#4796E7"
       d="M41.1107898,41 C48.351679,41 54.2215796,35.1300995 54.2215796,27.8892102 C54.2215796,20.648321 41.1107898,1 41.1107898,1 C41.1107898,1 28,20.648321 28,27.8892102 C28,35.1300995 33.8699005,41 41.1107898,41 Z"
       id="path2" />
    <path
       stroke="#B4DFFB"
       stroke-linecap="round"
       stroke-width="2"
       d="M32,28 C32,32.9705627 36.0294373,37 41,37 L41,37"
       id="path3" />
    <path
       stroke="#FFF"
       stroke-linecap="round"
       stroke-width="2"
       d="M13,46 C13,52.627417 18.372583,58 25,58 L25,58"
       id="path4" />
  </g>
  <g
     id="g6"
     transform="translate(31.182979,31.647659)">
	<path
   class="cubies_twee"
   d="M 32,5 H 0 V 3 C 0,1.343 1.343,0 3,0 h 26 c 1.657,0 3,1.343 3,3 z"
   id="path1-5"
   style="fill:#67625d" />

	<path
   class="cubies_drie"
   d="M 30,5 H 0 V 3 C 0,1.343 1.343,0 3,0 h 24 c 1.657,0 3,1.343 3,3 z"
   id="path2-8"
   style="fill:#837f79" />

	<path
   class="cubies_een"
   d="M 29,32 H 3 C 1.343,32 0,30.657 0,29 V 5 h 32 v 24 c 0,1.657 -1.343,3 -3,3 z"
   id="path3-7"
   style="fill:#4c4842" />

	<path
   class="cubies_twee"
   d="M 27,32 H 3 C 1.343,32 0,30.657 0,29 V 5 h 30 v 24 c 0,1.657 -1.343,3 -3,3 z"
   id="path4-9"
   style="fill:#67625d" />

	<path
   class="cubies_zes"
   d="m 16,5 h -4 l 2,-5 h 4 z M 10,0 H 6 L 4,5 h 4 z m 16,0 h -4 l -2,5 h 4 z"
   id="path5"
   style="fill:#edeae5" />

	<path
   class="cubies_vijf"
   d="m 12,5 h 4 l 2,5 h -4 z m -6,5 h 4 L 8,5 H 4 Z m 16,0 h 4 L 24,5 H 20 Z M 10.5,16 C 9.673,16 9,16.673 9,17.5 v 6 c 0,0.827 0.673,1.5 1.5,1.5 0.827,0 1.5,-0.673 1.5,-1.5 v -1 C 12,22.224 11.776,22 11.5,22 11.224,22 11,22.224 11,22.5 v 1 C 11,23.776 10.776,24 10.5,24 10.224,24 10,23.776 10,23.5 v -6 c 0,-0.276 0.224,-0.5 0.5,-0.5 0.276,0 0.5,0.224 0.5,0.5 v 1 c 0,0.276 0.224,0.5 0.5,0.5 0.276,0 0.5,-0.224 0.5,-0.5 v -1 C 12,16.673 11.327,16 10.5,16 Z m 7,0 C 17.224,16 17,16.224 17,16.5 v 8 c 0,0.276 0.224,0.5 0.5,0.5 0.276,0 0.5,-0.224 0.5,-0.5 v -8 C 18,16.224 17.776,16 17.5,16 Z m 8,0 C 25.224,16 25,16.224 25,16.5 v 1.882 L 23.947,16.277 C 23.843,16.069 23.609,15.961 23.385,16.014 23.16,16.067 23,16.268 23,16.5 v 8 c 0,0.276 0.224,0.5 0.5,0.5 0.276,0 0.5,-0.224 0.5,-0.5 v -5.882 l 1,2 V 24.5 c 0,0.276 0.224,0.5 0.5,0.5 0.276,0 0.5,-0.224 0.5,-0.5 v -8 C 26,16.224 25.776,16 25.5,16 Z M 22,17.5 v 6 C 22,24.327 21.327,25 20.5,25 19.673,25 19,24.327 19,23.5 v -6 c 0,-0.827 0.673,-1.5 1.5,-1.5 0.827,0 1.5,0.673 1.5,1.5 z m -1,0 C 21,17.224 20.776,17 20.5,17 20.224,17 20,17.224 20,17.5 v 6 c 0,0.276 0.224,0.5 0.5,0.5 0.276,0 0.5,-0.224 0.5,-0.5 z m -13,0 v 7 C 8,24.776 7.776,25 7.5,25 7.224,25 7,24.776 7,24.5 V 21 H 6 v 3.5 C 6,24.776 5.776,25 5.5,25 5.224,25 5,24.776 5,24.5 v -7 C 5,16.673 5.673,16 6.5,16 7.327,16 8,16.673 8,17.5 Z M 7,20 V 17.5 C 7,17.224 6.776,17 6.5,17 6.224,17 6,17.224 6,17.5 V 20 Z m 8.5,-4 h -2 c -0.276,0 -0.5,0.224 -0.5,0.5 0,0.276 0.224,0.5 0.5,0.5 H 14 v 7.5 c 0,0.276 0.224,0.5 0.5,0.5 0.276,0 0.5,-0.224 0.5,-0.5 V 17 h 0.5 C 15.776,17 16,16.776 16,16.5 16,16.224 15.776,16 15.5,16 Z"
   id="path6"
   style="fill:#c9c6c0" />

</g>
</svg>
