<?xml version="1.0" encoding="UTF-8" standalone="no"?>
<!-- Uploaded to: SVG Repo, www.svgrepo.com, Generator: SVG Repo Mixer Tools -->

<svg
   width="800px"
   height="800px"
   viewBox="0 0 24 24"
   fill="none"
   version="1.1"
   id="svg3"
   sodipodi:docname="stop-button.svg"
   inkscape:version="1.3.2 (091e20e, 2023-11-25, custom)"
   xmlns:inkscape="http://www.inkscape.org/namespaces/inkscape"
   xmlns:sodipodi="http://sodipodi.sourceforge.net/DTD/sodipodi-0.dtd"
   xmlns="http://www.w3.org/2000/svg"
   xmlns:svg="http://www.w3.org/2000/svg">
  <defs
     id="defs3" />
  <sodipodi:namedview
     id="namedview3"
     pagecolor="#ffffff"
     bordercolor="#000000"
     borderopacity="0.25"
     inkscape:showpageshadow="2"
     inkscape:pageopacity="0.0"
     inkscape:pagecheckerboard="0"
     inkscape:deskcolor="#d1d1d1"
     inkscape:zoom="1.01625"
     inkscape:cx="400"
     inkscape:cy="400"
     inkscape:window-width="1920"
     inkscape:window-height="1009"
     inkscape:window-x="-8"
     inkscape:window-y="-8"
     inkscape:window-maximized="1"
     inkscape:current-layer="svg3" />
  <path
     opacity="0.4"
     d="M11.9707 22C17.4936 22 21.9707 17.5228 21.9707 12C21.9707 6.47715 17.4936 2 11.9707 2C6.44786 2 1.9707 6.47715 1.9707 12C1.9707 17.5228 6.44786 22 11.9707 22Z"
     fill="#292D32"
     id="path1"
     style="fill:#b3b3b3" />
  <path
     style="fill:#292d32;fill-opacity:1;stroke-width:0.0217287"
     d="M 9.339092,16.001113 C 8.908527,15.903403 8.555704,15.604505 8.372997,15.182657 8.252213,14.903781 8.256029,15.004492 8.256029,12.095214 c 0,-2.9092783 -0.0038,-2.8085663 0.116968,-3.0874423 C 8.451377,8.826795 8.518882,8.7259852 8.665674,8.5706764 8.815934,8.4116985 8.970016,8.3120714 9.192388,8.2301124 l 0.170007,-0.062658 h 2.670172 2.670173 l 0.159572,0.059226 c 0.24008,0.089107 0.356039,0.1651294 0.533715,0.349905 0.185849,0.1932744 0.29525,0.3831614 0.358522,0.6222923 0.04327,0.163547 0.04391,0.206078 0.04391,2.8963373 0,2.690259 -6.44e-4,2.732791 -0.04391,2.896338 -0.09875,0.373219 -0.36906,0.714264 -0.70075,0.884129 -0.322574,0.165196 -0.178673,0.15778 -3.03187,0.156239 -2.0373954,-0.0011 -2.57935,-0.0073 -2.682837,-0.03081 z"
     id="path2" />
  <ellipse
     style="opacity:0.2;stroke-width:0.0316499;enable-background:new"
     cx="12.543094"
     cy="12.065173"
     id="circle5"
     rx="1.6406171"
     ry="1.7876825" />
  <path
     style="opacity:0.2;stroke-width:0.0316499;enable-background:new"
     d="m 12.796206,13.576922 c -0.906085,0 -1.640617,-0.800377 -1.640617,-1.787683 0,-0.45827 0.158391,-0.876066 0.418628,-1.192471 -0.335188,0.32734 -0.546246,0.802491 -0.546246,1.331527 0,0.987306 0.734534,1.787682 1.640617,1.787682 0.485516,0 0.921638,-0.229975 1.221989,-0.595211 -0.290375,0.283565 -0.673802,0.456156 -1.094371,0.456156 z"
     id="path6" />
  <ellipse
     style="opacity:0.2;stroke-width:0.0316499;enable-background:new"
     cx="12.668649"
     cy="11.928363"
     id="circle7"
     rx="0.76797616"
     ry="0.83681774" />
  <path
     style="opacity:0.2;stroke-width:0.0316499;enable-background:new"
     d="M 12.992346,14.569678 H 6.3629609 c -0.3028668,0 -0.5483983,-0.267541 -0.5483983,-0.597557 V 9.1787145 c 0,-0.072915 0.012583,-0.1424927 0.034565,-0.2071479 -0.2090873,0.084346 -0.3583529,0.3028918 -0.3583529,0.5599268 v 4.7933736 c 0,0.330016 0.2455317,0.597557 0.5483985,0.597557 h 6.6293548 c 0.84126,0 1.593742,-0.412346 2.097813,-1.061145 -0.478754,0.441618 -1.097615,0.708399 -1.773995,0.708399 z"
     id="path10" />
</svg>
