<?xml version="1.0" encoding="UTF-8" standalone="no"?>
<!-- Uploaded to: SVG Repo, www.svgrepo.com, Generator: SVG Repo Mixer Tools -->

<svg
   height="58.559589"
   width="74.616287"
   version="1.1"
   id="Layer_1"
   viewBox="0 0 47.752933 37.476966"
   xml:space="preserve"
   sodipodi:docname="sunrise.svg"
   inkscape:version="1.2 (dc2aedaf03, 2022-05-15)"
   xmlns:inkscape="http://www.inkscape.org/namespaces/inkscape"
   xmlns:sodipodi="http://sodipodi.sourceforge.net/DTD/sodipodi-0.dtd"
   xmlns="http://www.w3.org/2000/svg"
   xmlns:svg="http://www.w3.org/2000/svg"><defs
   id="defs1052" /><sodipodi:namedview
   id="namedview1050"
   pagecolor="#ffffff"
   bordercolor="#000000"
   borderopacity="0.25"
   inkscape:showpageshadow="2"
   inkscape:pageopacity="0.0"
   inkscape:pagecheckerboard="0"
   inkscape:deskcolor="#d1d1d1"
   showgrid="false"
   inkscape:zoom="1.05875"
   inkscape:cx="254.54545"
   inkscape:cy="327.27273"
   inkscape:window-width="1350"
   inkscape:window-height="1050"
   inkscape:window-x="278"
   inkscape:window-y="95"
   inkscape:window-maximized="0"
   inkscape:current-layer="Layer_1" />
<g
   id="g1031"
   transform="matrix(0.06250002,0,0,0.06486288,9.6714801,4.3460143)">
	<path
   style="fill:#f6bb42"
   d="M 95.998,282.643 H 32 c -5.891,0 -10.664,4.781 -10.664,10.688 0,5.875 4.773,10.656 10.664,10.656 h 63.998 c 5.89,0 10.663,-4.781 10.663,-10.656 0,-5.906 -4.773,-10.688 -10.663,-10.688 z"
   id="path1027" />
	<path
   style="fill:#f6bb42"
   d="m 479.985,282.643 h -63.997 c -5.891,0 -10.656,4.781 -10.656,10.672 0,5.891 4.766,10.672 10.656,10.672 h 63.997 c 5.891,0 10.656,-4.781 10.656,-10.656 0,-5.906 -4.765,-10.688 -10.656,-10.688 z"
   id="path1029" />
</g>
<path
   style="fill:#ffce54;stroke-width:0.0636714"
   d="m 35.09849,12.608897 -2.828138,2.9355 c -0.259692,0.270087 -0.259692,0.707911 0,0.977935 0.25976,0.270607 0.682628,0.270607 0.943388,0 l 2.828062,-2.934914 c 0.25977,-0.270089 0.25977,-0.708432 0,-0.978521 -0.25975,-0.270088 -0.682574,-0.270088 -0.943312,0 z"
   id="path1033" />
<path
   style="fill:#f6bb42;stroke-width:0.0636714"
   d="m 25.004478,8.8429593 v 4.1510937 c 0,0.382108 0.298308,0.691699 0.666506,0.691699 0.368172,0 0.666504,-0.309591 0.666504,-0.691699 V 8.8429593 c 0,-0.382042 -0.298332,-0.692152 -0.666504,-0.692152 -0.368198,0 -0.666506,0.31011 -0.666506,0.692152 z"
   id="path1035" />
<g
   id="g1041"
   transform="matrix(0.06250002,0,0,0.06486288,9.6714801,4.3460143)">
	<path
   style="fill:#ffce54"
   d="m 90.068,142.476 45.248,45.256 c 4.164,4.164 10.922,4.164 15.086,0 4.164,-4.163 4.164,-10.921 0,-15.085 L 105.145,127.39 c -4.164,-4.164 -10.913,-4.164 -15.077,0 -4.172,4.165 -4.172,10.922 0,15.086 z"
   id="path1037" />
	<path
   style="fill:#ffce54"
   d="m 146.426,335.985 c -5.305,-13.562 -7.984,-27.89 -7.984,-42.654 0,-64.826 52.732,-117.559 117.551,-117.559 64.812,0 117.559,52.732 117.559,117.559 0,14.765 -2.688,29.093 -8,42.654 z"
   id="path1039" />
</g>
<path
   style="fill:#f6bb42;stroke-width:0.0636714"
   d="m 25.670984,15.054883 c -4.425702,0 -8.013436,3.723459 -8.013436,8.317361 0,1.234327 0.259246,2.404853 0.724116,3.457903 h 14.57812 c 0.464884,-1.052988 0.724628,-2.223478 0.724628,-3.457903 0,-4.593842 -3.58774,-8.317361 -8.013428,-8.317361 z M 32.04773,25.447789 H 19.294726 c -0.202112,-0.667821 -0.304184,-1.363034 -0.304184,-2.075481 0,-1.852614 0.69474,-3.593734 1.956946,-4.90305 1.261738,-1.309452 2.93887,-2.030482 4.723496,-2.030482 1.785116,0 3.46187,0.72103 4.723496,2.030482 1.262626,1.309316 1.956914,3.050436 1.956914,4.90305 0,0.712447 -0.10252,1.40766 -0.303664,2.075481 z"
   id="path1043" />
<path
   style="fill:#ed5564;stroke-width:0.0636714"
   d="m 27.556672,29.884681 -1.4145,-1.46747 v 0 c -0.12114,-0.125712 -0.287062,-0.20269 -0.471188,-0.20269 v 0 c -0.18362,0 -0.350126,0.07706 -0.4707,0.201656 l -7.72e-4,0.0011 -1.414504,1.467447 c -0.260244,0.269574 -0.260244,0.707394 0,0.97904 0.13038,0.133824 0.300816,0.201665 0.471692,0.201665 0.17044,0 0.34131,-0.0679 0.471124,-0.201665 l 0.276366,-0.28786 v 2.480956 c 0,0.383072 0.298334,0.69318 0.666508,0.69318 v 0 c 0.368212,0 0.666514,-0.310048 0.666514,-0.69318 V 30.5759 l 0.276374,0.287864 c 0.12938,0.1348 0.301246,0.202705 0.471178,0.202705 0.17082,0 0.341744,-0.06792 0.471658,-0.202705 0.26072,-0.270612 0.26072,-0.709466 0,-0.97904 z"
   id="path1045" />
<path
   style="fill:#656d78;stroke-width:0.0636714"
   d="M 41.004482,25.447789 H 10.33798 c -0.3681879,0 -0.6664999,0.309142 -0.6664999,0.691198 0,0.382026 0.298312,0.69116 0.6664999,0.69116 h 30.666502 c 0.367192,0 0.665998,-0.309134 0.665998,-0.69116 0,-0.382056 -0.298806,-0.691198 -0.665998,-0.691198 z"
   id="path1047" />
</svg>
