<?xml version="1.0" encoding="UTF-8" standalone="no"?>
<!-- Uploaded to: SVG Repo, www.svgrepo.com, Generator: SVG Repo Mixer Tools -->

<svg
   height="527.98108"
   width="632.82172"
   version="1.1"
   id="Layer_1"
   viewBox="0 0 404.99325 337.89733"
   xml:space="preserve"
   sodipodi:docname="sunrise.svg"
   inkscape:version="1.2 (dc2aedaf03, 2022-05-15)"
   xmlns:inkscape="http://www.inkscape.org/namespaces/inkscape"
   xmlns:sodipodi="http://sodipodi.sourceforge.net/DTD/sodipodi-0.dtd"
   xmlns="http://www.w3.org/2000/svg"
   xmlns:svg="http://www.w3.org/2000/svg"><defs
   id="defs1052" /><sodipodi:namedview
   id="namedview1050"
   pagecolor="#ffffff"
   bordercolor="#000000"
   borderopacity="0.25"
   inkscape:showpageshadow="2"
   inkscape:pageopacity="0.0"
   inkscape:pagecheckerboard="0"
   inkscape:deskcolor="#d1d1d1"
   showgrid="false"
   inkscape:zoom="1.05875"
   inkscape:cx="311.21606"
   inkscape:cy="369.30342"
   inkscape:window-width="1920"
   inkscape:window-height="1027"
   inkscape:window-x="-8"
   inkscape:window-y="-8"
   inkscape:window-maximized="1"
   inkscape:current-layer="Layer_1" />
<g
   id="g1031"
   transform="matrix(0.6487501,0,0,0.63563389,33.245714,-1.3293445)">
	<path
   style="fill:#f6bb42"
   d="M 95.998,282.643 H 32 c -5.891,0 -10.664,4.781 -10.664,10.688 0,5.875 4.773,10.656 10.664,10.656 h 63.998 c 5.89,0 10.663,-4.781 10.663,-10.656 0,-5.906 -4.773,-10.688 -10.663,-10.688 z"
   id="path1027" />
	<path
   style="fill:#f6bb42"
   d="m 479.985,282.643 h -63.997 c -5.891,0 -10.656,4.781 -10.656,10.672 0,5.891 4.766,10.672 10.656,10.672 h 63.997 c 5.891,0 10.656,-4.781 10.656,-10.656 0,-5.906 -4.765,-10.688 -10.656,-10.688 z"
   id="path1029" />
</g>
<path
   style="fill:#ffce54;stroke-width:0.642168"
   d="M 297.17807,79.644054 267.822,108.41095 c -2.69561,2.64676 -2.69561,6.93727 0,9.58342 2.6963,2.65185 7.08568,2.65185 9.79236,0 l 29.35529,-28.761146 c 2.69641,-2.64677 2.69641,-6.94239 0,-9.58917 -2.6962,-2.64676 -7.08511,-2.64676 -9.79158,0 z"
   id="path1033" />
<path
   style="fill:#f6bb42;stroke-width:0.642168"
   d="m 192.40223,42.739164 v 40.67929 c 0,3.74453 3.09644,6.77841 6.91833,6.77841 3.82162,0 6.91831,-3.03388 6.91831,-6.77841 v -40.67929 c 0,-3.74388 -3.09669,-6.78285 -6.91831,-6.78285 -3.82189,0 -6.91833,3.03897 -6.91833,6.78285 z"
   id="path1035" />
<g
   id="g1041"
   transform="matrix(0.6487501,0,0,0.63563389,33.245714,-1.3293445)">
	<path
   style="fill:#ffce54"
   d="m 90.068,142.476 45.248,45.256 c 4.164,4.164 10.922,4.164 15.086,0 4.164,-4.163 4.164,-10.921 0,-15.085 L 105.145,127.39 c -4.164,-4.164 -10.913,-4.164 -15.077,0 -4.172,4.165 -4.172,10.922 0,15.086 z"
   id="path1037" />
	<path
   style="fill:#ffce54"
   d="m 146.426,335.985 c -5.305,-13.562 -7.984,-27.89 -7.984,-42.654 0,-64.826 52.732,-117.559 117.551,-117.559 64.812,0 117.559,52.732 117.559,117.559 0,14.765 -2.688,29.093 -8,42.654 z"
   id="path1039" />
</g>
<path
   style="fill:#f6bb42;stroke-width:0.642168"
   d="m 199.32056,103.61387 c -45.93878,0 -83.17947,36.48862 -83.17947,81.50728 0,12.09598 2.69099,23.56673 7.51634,33.88625 H 274.9783 c 4.82551,-10.31891 7.52165,-21.78932 7.52165,-33.88625 0,-45.01806 -37.24074,-81.50728 -83.17939,-81.50728 z m 66.19062,101.8469 H 133.135 c -2.09792,-6.54442 -3.15742,-13.35726 -3.15742,-20.339 0,-18.15498 7.2114,-35.21736 20.31309,-48.0482 13.09684,-12.83218 30.50548,-19.89802 49.02989,-19.89802 18.5295,0 35.93422,7.06584 49.02988,19.89802 13.10606,12.83084 20.31277,29.89322 20.31277,48.0482 0,6.98174 -1.06416,13.79458 -3.15203,20.339 z"
   id="path1043" />
<path
   style="fill:#ed5564;stroke-width:0.642168"
   d="m 218.894,248.94077 -14.68251,-14.38068 v 0 c -1.25742,-1.23197 -2.9797,-1.9863 -4.89093,-1.9863 v 0 c -1.90607,0 -3.63431,0.75517 -4.88587,1.97617 l -0.008,0.01 -14.68256,14.38047 c -2.70134,2.64173 -2.70134,6.93222 0,9.59425 1.3533,1.31135 3.12247,1.97625 4.89616,1.97625 1.76919,0 3.54281,-0.66545 4.89027,-1.97625 l 2.86869,-2.82093 v 24.31252 c 0,3.75397 3.0967,6.79293 6.91834,6.79293 v 0 c 3.82204,0 6.91842,-3.03837 6.91842,-6.79293 v -24.31255 l 2.86877,2.82096 c 1.34291,1.32094 3.12693,1.98644 4.89082,1.98644 1.77304,0 3.54731,-0.6655 4.89581,-1.98644 2.70627,-2.6519 2.70627,-6.95252 0,-9.59425 z"
   id="path1045" />
<path
   style="fill:#656d78;stroke-width:0.642168"
   d="M 358.48226,205.46077 H 40.163985 c -3.821788,0 -6.918271,3.02949 -6.918271,6.77349 0,3.74374 3.096483,6.77314 6.918271,6.77314 H 358.48226 c 3.81147,0 6.91307,-3.0294 6.91307,-6.77314 0,-3.744 -3.1016,-6.77349 -6.91307,-6.77349 z"
   id="path1047" />
</svg>
