<?xml version="1.0" encoding="UTF-8" standalone="no"?>
<!-- Generator: Adobe Illustrator 19.0.0, SVG Export Plug-In . SVG Version: 6.00 Build 0)  -->

<svg
   version="1.1"
   id="Capa_1"
   x="0px"
   y="0px"
   viewBox="0 0 38.252655 31.877214"
   xml:space="preserve"
   sodipodi:docname="sunset.svg"
   width="38.252655"
   height="31.877214"
   inkscape:version="1.2 (dc2aedaf03, 2022-05-15)"
   xmlns:inkscape="http://www.inkscape.org/namespaces/inkscape"
   xmlns:sodipodi="http://sodipodi.sourceforge.net/DTD/sodipodi-0.dtd"
   xmlns="http://www.w3.org/2000/svg"
   xmlns:svg="http://www.w3.org/2000/svg"><defs
   id="defs627" /><sodipodi:namedview
   id="namedview625"
   pagecolor="#ffffff"
   bordercolor="#000000"
   borderopacity="0.25"
   inkscape:showpageshadow="2"
   inkscape:pageopacity="0.0"
   inkscape:pagecheckerboard="0"
   inkscape:deskcolor="#d1d1d1"
   showgrid="false"
   inkscape:zoom="14.116667"
   inkscape:cx="18.453365"
   inkscape:cy="19.126328"
   inkscape:window-width="1920"
   inkscape:window-height="1027"
   inkscape:window-x="-8"
   inkscape:window-y="-8"
   inkscape:window-maximized="1"
   inkscape:current-layer="Capa_1" />
<g
   id="g576"
   transform="matrix(0.44166667,0,0,0.44074074,5.9409681,3.4978488)">
	<path
   style="fill:#f0c419"
   d="m 30,3 c -0.552,0 -1,0.448 -1,1 v 6 c 0,0.552 0.448,1 1,1 0.552,0 1,-0.448 1,-1 V 4 C 31,3.448 30.552,3 30,3 Z"
   id="path558" />
	<path
   style="fill:#f0c419"
   d="m 59,32 h -6 c -0.552,0 -1,0.448 -1,1 0,0.552 0.448,1 1,1 h 6 c 0.552,0 1,-0.448 1,-1 0,-0.552 -0.448,-1 -1,-1 z"
   id="path560" />
	<path
   style="fill:#f0c419"
   d="M 7,32 H 1 c -0.552,0 -1,0.448 -1,1 0,0.552 0.448,1 1,1 H 7 C 7.552,34 8,33.552 8,33 8,32.448 7.552,32 7,32 Z"
   id="path562" />
	<path
   style="fill:#f0c419"
   d="m 52.707,10.293 c -0.391,-0.391 -1.023,-0.391 -1.414,0 l -5.736,5.736 c -0.391,0.391 -0.391,1.023 0,1.414 0.195,0.195 0.451,0.293 0.707,0.293 0.256,0 0.512,-0.098 0.707,-0.293 l 5.736,-5.736 c 0.391,-0.391 0.391,-1.023 0,-1.414 z"
   id="path564" />
	<path
   style="fill:#f0c419"
   d="m 8.707,10.293 c -0.391,-0.391 -1.023,-0.391 -1.414,0 -0.391,0.391 -0.391,1.023 0,1.414 l 5.736,5.736 c 0.195,0.195 0.451,0.293 0.707,0.293 0.256,0 0.512,-0.098 0.707,-0.293 0.391,-0.391 0.391,-1.023 0,-1.414 z"
   id="path566" />
	<path
   style="fill:#f0c419"
   d="M 54.854,22.45 C 54.638,21.942 54.05,21.704 53.543,21.92 l -2.762,1.172 c -0.508,0.216 -0.746,0.803 -0.53,1.311 0.162,0.381 0.532,0.61 0.921,0.61 0.13,0 0.263,-0.026 0.39,-0.08 l 2.762,-1.172 c 0.508,-0.216 0.745,-0.803 0.53,-1.311 z"
   id="path568" />
	<path
   style="fill:#f0c419"
   d="M 9.049,23.457 6.267,22.333 c -0.512,-0.207 -1.095,0.04 -1.302,0.553 -0.207,0.512 0.041,1.095 0.553,1.302 L 8.3,25.312 c 0.123,0.049 0.25,0.073 0.374,0.073 0.396,0 0.771,-0.236 0.928,-0.626 0.207,-0.512 -0.04,-1.095 -0.553,-1.302 z"
   id="path570" />
	<path
   style="fill:#f0c419"
   d="M 20.761,8.676 C 20.545,8.167 19.957,7.929 19.45,8.146 18.942,8.362 18.704,8.949 18.92,9.457 l 1.172,2.762 c 0.162,0.381 0.532,0.61 0.921,0.61 0.13,0 0.263,-0.026 0.39,-0.08 0.508,-0.216 0.746,-0.803 0.53,-1.311 z"
   id="path572" />
	<path
   style="fill:#f0c419"
   d="M 40.114,7.966 C 39.603,7.759 39.019,8.007 38.812,8.519 L 37.688,11.3 c -0.207,0.512 0.041,1.095 0.553,1.302 0.123,0.049 0.25,0.073 0.374,0.073 0.396,0 0.771,-0.236 0.928,-0.626 L 40.667,9.267 C 40.874,8.756 40.626,8.173 40.114,7.966 Z"
   id="path574" />
</g>
<path
   style="fill:#f0c419;stroke-width:0.441201"
   d="m 27.284506,21.568219 c 0.473026,-1.080251 0.739803,-2.271574 0.739803,-3.525927 0,-4.868421 -3.954689,-8.8148182 -8.83334,-8.8148182 -4.87865,0 -8.833334,3.9463972 -8.833334,8.8148182 0,1.254353 0.266768,2.445676 0.739793,3.525927 z"
   id="path578" />
<path
   style="fill:#ede21b;stroke-width:0.441201"
   d="m 24.788204,21.568219 c 0.647491,-1.021198 1.027766,-2.227947 1.027766,-3.525927 0,-3.651092 -2.966241,-6.611111 -6.625001,-6.611111 -3.658759,0 -6.625001,2.960019 -6.625001,6.611111 0,1.29798 0.380276,2.504729 1.027762,3.525927 z"
   id="path580" />
<g
   id="g590"
   transform="matrix(0.44166667,0,0,0.44074074,5.9409681,3.4978488)">
	<path
   style="fill:#f29c1f"
   d="M 59,40 H 1 c -0.552,0 -1,0.448 -1,1 0,0.552 0.448,1 1,1 h 58 c 0.552,0 1,-0.448 1,-1 0,-0.552 -0.448,-1 -1,-1 z"
   id="path582" />
	<path
   style="fill:#f29c1f"
   d="M 54,45 H 6 c -0.552,0 -1,0.448 -1,1 0,0.552 0.448,1 1,1 h 48 c 0.552,0 1,-0.448 1,-1 0,-0.552 -0.448,-1 -1,-1 z"
   id="path584" />
	<path
   style="fill:#f29c1f"
   d="M 49,50 H 11 c -0.552,0 -1,0.448 -1,1 0,0.552 0.448,1 1,1 h 38 c 0.552,0 1,-0.448 1,-1 0,-0.552 -0.448,-1 -1,-1 z"
   id="path586" />
	<path
   style="fill:#f29c1f"
   d="M 45,55 H 15 c -0.552,0 -1,0.448 -1,1 0,0.552 0.448,1 1,1 h 30 c 0.552,0 1,-0.448 1,-1 0,-0.552 -0.448,-1 -1,-1 z"
   id="path588" />
</g>
<polygon
   style="fill:#546a79"
   points="31,33.586 31,22 29,22 29,33.586 23.707,28.293 22.293,29.707 30,37.414 37.707,29.707 36.293,28.293 "
   id="polygon592"
   transform="matrix(0.44166667,0,0,0.44074074,5.9409681,3.4978488)" />
<g
   id="g594"
   transform="translate(-10.059032,-10.909091)">
</g>
<g
   id="g596"
   transform="translate(-10.059032,-10.909091)">
</g>
<g
   id="g598"
   transform="translate(-10.059032,-10.909091)">
</g>
<g
   id="g600"
   transform="translate(-10.059032,-10.909091)">
</g>
<g
   id="g602"
   transform="translate(-10.059032,-10.909091)">
</g>
<g
   id="g604"
   transform="translate(-10.059032,-10.909091)">
</g>
<g
   id="g606"
   transform="translate(-10.059032,-10.909091)">
</g>
<g
   id="g608"
   transform="translate(-10.059032,-10.909091)">
</g>
<g
   id="g610"
   transform="translate(-10.059032,-10.909091)">
</g>
<g
   id="g612"
   transform="translate(-10.059032,-10.909091)">
</g>
<g
   id="g614"
   transform="translate(-10.059032,-10.909091)">
</g>
<g
   id="g616"
   transform="translate(-10.059032,-10.909091)">
</g>
<g
   id="g618"
   transform="translate(-10.059032,-10.909091)">
</g>
<g
   id="g620"
   transform="translate(-10.059032,-10.909091)">
</g>
<g
   id="g622"
   transform="translate(-10.059032,-10.909091)">
</g>
</svg>
