<?xml version="1.0" encoding="UTF-8" standalone="no"?>
<!-- Uploaded to: SVG Repo, www.svgrepo.com, Generator: SVG Repo Mixer Tools -->

<svg
   version="1.1"
   id="temperaturecomparison"
   viewBox="0 0 143.06494 123.11689"
   enable-background="new 0 0 204 220"
   xml:space="preserve"
   width="359.06494"
   height="286.52658"
   sodipodi:docname="temp-humidity.svg"
   inkscape:version="1.2 (dc2aedaf03, 2022-05-15)"
   xmlns:inkscape="http://www.inkscape.org/namespaces/inkscape"
   xmlns:sodipodi="http://sodipodi.sourceforge.net/DTD/sodipodi-0.dtd"
   xmlns="http://www.w3.org/2000/svg"
   xmlns:svg="http://www.w3.org/2000/svg"><defs
   id="defs12054" /><sodipodi:namedview
   id="namedview12052"
   pagecolor="#ffffff"
   bordercolor="#000000"
   borderopacity="0.25"
   inkscape:showpageshadow="2"
   inkscape:pageopacity="0.0"
   inkscape:pagecheckerboard="0"
   inkscape:deskcolor="#d1d1d1"
   showgrid="false"
   inkscape:zoom="1.6542969"
   inkscape:cx="170.76741"
   inkscape:cy="197.66706"
   inkscape:window-width="1920"
   inkscape:window-height="1027"
   inkscape:window-x="-8"
   inkscape:window-y="-8"
   inkscape:window-maximized="1"
   inkscape:current-layer="temperaturecomparison"
   showguides="false" />
<g
   id="g12041"
   transform="matrix(0.4929866,0,0,0.48828125,17.798317,8.3116882)">
	<path
   fill="#d0e8ff"
   d="M 62.7891,130.5391 C 61.1289,130.0117 60,128.4707 60,126.7266 V 60.0196 H 40 V 80 h 8 c 2.2109,0 4,1.791 4,4 0,2.209 -1.7891,4 -4,4 h -8 v 20 h 8 c 2.2109,0 4,1.791 4,4 0,2.209 -1.7891,4 -4,4 h -8 v 10.7266 c 0,1.7441 -1.1289,3.2852 -2.7891,3.8125 C 19.7383,136.082 8,152.0547 8,170.2852 8,193.2871 26.8398,212 50,212 73.1602,212 92,193.2871 92,170.2852 92,152.0547 80.2617,136.082 62.7891,130.5391 Z"
   id="path12029" />
	<path
   fill="#ffffff"
   d="m 48,24 c 2.2109,0 4,1.791 4,4 0,2.209 -1.7891,4 -4,4 H 40 V 52 H 60 V 18.0039 C 60,12.4883 55.5156,8 50,8 44.4844,8 40,12.4883 40,18.0039 V 24 Z"
   id="path12031" />
	<path
   fill="#5cb0ff"
   d="M 166.7891,130.5391 C 165.1289,130.0118 164,128.4707 164,126.7266 V 60.0196 H 144 V 80 h 8 c 2.2109,0 4,1.791 4,4 0,2.209 -1.7891,4 -4,4 h -8 v 20 h 8 c 2.2109,0 4,1.791 4,4 0,2.209 -1.7891,4 -4,4 h -8 v 10.7266 c 0,1.7441 -1.1289,3.2852 -2.7891,3.8125 C 123.7383,136.082 112,152.0547 112,170.2852 112,193.2871 130.8398,212 154,212 c 23.1602,0 42,-18.7129 42,-41.7148 0,-18.2305 -11.7383,-34.2032 -29.2109,-39.7461 z"
   id="path12033" />
	<path
   fill="#ffffff"
   d="m 152,24 c 2.2109,0 4,1.791 4,4 0,2.209 -1.7891,4 -4,4 h -8 v 20 h 20 V 18.0039 C 164,12.4883 159.5156,8 154,8 148.4844,8 144,12.4883 144,18.0039 V 24 Z"
   id="path12035" />
	<path
   fill="#1c71da"
   d="M 68,123.8887 V 60 56.0195 18.0039 C 68,8.0762 59.9258,0 50,0 40.0742,0 32,8.0762 32,18.0039 V 56.0195 60 123.8887 C 12.7422,131.2481 0,149.5391 0,170.2852 0,197.6973 22.4297,220 50,220 c 27.5703,0 50,-22.3027 50,-49.7148 0,-20.7461 -12.7422,-39.0372 -32,-46.3965 z M 50,8 c 5.5156,0 10,4.4883 10,10.0039 V 52 H 40 V 32 h 8 c 2.2109,0 4,-1.791 4,-4 0,-2.209 -1.7891,-4 -4,-4 H 40 V 18.0039 C 40,12.4883 44.4844,8 50,8 Z m 0,204 C 26.8398,212 8,193.2871 8,170.2852 8,152.0547 19.7383,136.0821 37.2109,130.5391 38.8711,130.0117 40,128.4707 40,126.7266 V 116 h 8 c 2.2109,0 4,-1.791 4,-4 0,-2.209 -1.7891,-4 -4,-4 H 40 V 88 h 8 c 2.2109,0 4,-1.791 4,-4 0,-2.209 -1.7891,-4 -4,-4 H 40 V 60.0195 h 20 v 66.707 c 0,1.7441 1.1289,3.2852 2.7891,3.8125 C 80.2617,136.082 92,152.0547 92,170.2852 92,193.2871 73.1602,212 50,212 Z"
   id="path12037" />
	<path
   fill="#1c71da"
   d="M 172,123.8887 V 60 56.0195 18.0039 C 172,8.0762 163.9258,0 154,0 144.0742,0 136,8.0762 136,18.0039 V 56.0195 60 123.8887 c -19.2578,7.3594 -32,25.6504 -32,46.3965 0,27.4121 22.4297,49.7148 50,49.7148 27.5703,0 50,-22.3027 50,-49.7148 0,-20.7461 -12.7422,-39.0372 -32,-46.3965 z M 154,8 c 5.5156,0 10,4.4883 10,10.0039 V 52 H 144 V 32 h 8 c 2.2109,0 4,-1.791 4,-4 0,-2.209 -1.7891,-4 -4,-4 h -8 V 18.0039 C 144,12.4883 148.4844,8 154,8 Z m 0,204 c -23.1602,0 -42,-18.7129 -42,-41.7148 0,-18.2305 11.7383,-34.2031 29.2109,-39.7461 1.6602,-0.5273 2.7891,-2.0684 2.7891,-3.8125 V 116 h 8 c 2.2109,0 4,-1.791 4,-4 0,-2.209 -1.7891,-4 -4,-4 h -8 V 88 h 8 c 2.2109,0 4,-1.791 4,-4 0,-2.209 -1.7891,-4 -4,-4 h -8 V 60.0195 h 20 v 66.707 c 0,1.7441 1.1289,3.2852 2.7891,3.8125 C 184.2617,136.082 196,152.0547 196,170.2852 196,193.2871 177.1602,212 154,212 Z"
   id="path12039" />
</g>




<path
   style="fill:#000000;stroke-width:0.127436"
   d="m 39.84826,115.53102 c -4.644941,-0.47787 -9.51575,-2.52375 -13.14481,-5.52119 -3.708373,-3.06294 -6.55378,-7.35231 -7.852135,-11.836858 -0.626263,-2.16313 -0.850299,-3.624468 -0.924311,-6.029101 -0.152511,-4.95501 1.050964,-9.337163 3.740545,-13.620264 0.984136,-1.567217 2.134762,-2.934985 3.804704,-4.522705 1.95624,-1.859922 3.455566,-2.893569 6.014196,-4.14625 l 2.138163,-1.046821 0.0067,-26.226683 c 0.0075,-29.487189 -0.06843,-27.235827 0.990692,-29.383891 0.485669,-0.98501 0.780353,-1.387952 1.631803,-2.231276 0.850692,-0.842571 1.259164,-1.1357608 2.252777,-1.6169815 4.534963,-2.1963409 9.713051,-0.4337535 11.856105,4.0357405 0.958738,1.999512 0.872674,-0.636748 0.945058,28.949466 l 0.06493,26.539767 1.280487,0.570786 c 10.45168,4.658936 16.273636,16.066685 13.811342,27.062281 -1.623248,7.24866 -6.362395,13.27554 -13.051029,16.59729 -4.032556,2.00267 -9.017962,2.89451 -13.565163,2.42669 z m 6.651542,-4.03831 c 2.806368,-0.56652 5.749566,-1.8169 8.010008,-3.40296 1.552909,-1.08962 3.787792,-3.30157 4.898841,-4.84857 1.633668,-2.27471 2.868801,-5.146299 3.446095,-8.011943 0.413959,-2.054859 0.414764,-5.507119 0.0017,-7.55668 C 61.40683,80.47867 56.435847,74.703734 49.602706,72.275311 48.981421,72.05451 48.326192,71.759403 48.146645,71.61952 47.435817,71.065721 47.46708,71.874579 47.46708,54.036642 V 37.54515 H 42.473182 37.47929 v 4.946225 4.946226 h 2.191401 c 1.994807,0 2.234689,0.0241 2.673924,0.268605 0.945406,0.526277 1.292377,1.714336 0.736796,2.522863 -0.62099,0.903712 -0.760912,0.945594 -3.306186,0.98962 l -2.295937,0.03971 v 4.93822 4.938221 h 2.180938 c 2.435096,0 2.844871,0.09291 3.319102,0.752549 0.618339,0.860088 0.429928,1.957925 -0.450218,2.623335 l -0.483437,0.365488 -2.283193,0.04199 -2.283192,0.04199 -0.0028,2.748198 c -0.0037,3.649253 -0.127602,3.923042 -2.045964,4.522305 -0.387346,0.121001 -1.339939,0.521704 -2.116871,0.890444 -5.032653,2.388579 -8.945625,6.815894 -10.598136,11.991216 -0.819798,2.567436 -0.922633,3.284097 -0.917973,6.397402 0.0039,2.607569 0.02777,2.889453 0.364594,4.307046 0.648593,2.729688 1.52205,4.737477 3.037466,6.982107 3.238674,4.79711 8.691101,8.15088 14.520542,8.93154 1.457988,0.19525 5.302545,0.0604 6.779591,-0.23773 z M 47.43928,24.894227 c -0.03612,-8.835752 -0.0365,-8.84696 -0.323786,-9.549748 -0.594129,-1.453417 -1.61703,-2.412627 -3.106789,-2.913348 -1.111361,-0.373538 -2.587011,-0.304877 -3.632065,0.168999 -0.996788,0.451989 -1.918944,1.349534 -2.418211,2.353677 -0.4099,0.824403 -0.415597,0.860965 -0.459757,2.951575 l -0.04472,2.116831 2.295896,0.04216 2.295897,0.04216 0.483436,0.365491 c 0.867208,0.65563 1.068673,1.763087 0.471773,2.593353 -0.492327,0.684811 -0.90843,0.782532 -3.33211,0.782532 H 37.47936 v 4.946225 4.946226 h 4.998039 4.998039 z"
   id="path12611" /><path
   style="fill:#000000;stroke-width:0.160287"
   d="m 59.752531,25.146863 c -2.146147,-0.432309 -4.319921,-1.866369 -5.597567,-3.692768 -1.785419,-2.552267 -1.785419,-6.106596 0,-8.658861 3.146444,-4.4978597 9.678225,-5.1967347 13.711101,-1.467039 3.549029,3.282166 3.549029,8.310772 0,11.592938 -2.189395,2.024818 -5.119969,2.828738 -8.113534,2.22573 z m 3.150145,-4.563255 c 0.813152,-0.209043 1.910909,-1.123388 2.301166,-1.916691 0.400063,-0.813236 0.400063,-2.27127 0,-3.084506 -0.39026,-0.793303 -1.488014,-1.707648 -2.301166,-1.916691 -3.006864,-0.772998 -5.726407,1.496485 -5.066179,4.227769 0.510687,2.112637 2.72951,3.290824 5.066179,2.690119 z"
   id="path12613" /><path
   style="fill:#ff2a2a;stroke-width:0.127436"
   d="m 39.795026,111.60961 c -7.798537,-1.08178 -14.289286,-6.30172 -16.831737,-13.536276 -0.869998,-2.475591 -1.041811,-3.568497 -1.041811,-6.627007 0,-2.384986 0.03699,-2.890352 0.295148,-4.0319 0.442755,-1.957856 0.844403,-3.088725 1.743649,-4.909355 2.346738,-4.751236 6.27884,-8.22773 11.466744,-10.138096 1.317146,-0.485019 1.861621,-0.905791 2.05244,-1.586128 0.06959,-0.248105 0.126846,-1.630625 0.127238,-3.07227 l 6.41e-4,-2.621167 2.208836,-0.04219 c 2.518148,-0.0481 2.866507,-0.157134 3.398571,-1.063857 0.544937,-0.928662 0.242953,-2.025205 -0.740263,-2.687993 -0.398836,-0.268853 -0.55182,-0.285357 -2.645232,-0.285357 h -2.221912 v -4.819401 -4.819399 l 2.080789,-0.0028 c 2.362778,-0.0032 2.890456,-0.141595 3.437964,-0.901926 0.411609,-0.571608 0.43371,-1.699374 0.04344,-2.217104 -0.628288,-0.83349 -0.75722,-0.869527 -3.266262,-0.912926 l -2.295934,-0.03971 v -4.811394 -4.811393 h 4.865843 4.865841 V 54.17192 c 0,14.960854 0.01938,16.540425 0.20786,16.933804 0.269112,0.561699 0.629155,0.793427 2.032988,1.308447 6.849032,2.512681 11.712027,8.15645 13.150509,15.261875 0.386111,1.907212 0.412308,5.356714 0.05512,7.257988 -0.736863,3.922261 -2.64372,7.618036 -5.385498,10.437886 -3.006912,3.09254 -6.773856,5.1593 -10.937952,6.00118 -1.416793,0.28643 -5.311204,0.42458 -6.667097,0.23649 z"
   id="path12617" /><text
   xml:space="preserve"
   style="font-style:normal;font-variant:normal;font-weight:bold;font-stretch:normal;font-size:24.5232px;font-family:'Rockwell Extra Bold';-inkscape-font-specification:'Rockwell Extra Bold,  Bold';fill:#000000;stroke-width:0.328436"
   x="108.35385"
   y="26.131187"
   id="text12673"
   transform="scale(0.95198475,1.050437)"><tspan
     sodipodi:role="line"
     id="tspan12671"
     style="font-style:normal;font-variant:normal;font-weight:bold;font-stretch:normal;font-size:24.5232px;font-family:'Rockwell Extra Bold';-inkscape-font-specification:'Rockwell Extra Bold,  Bold';fill:#000000;stroke-width:0.328436"
     x="108.35385"
     y="26.131187">%</tspan></text><path
   style="fill:#000000;stroke-width:0.127436"
   d="m 90.683491,115.47231 c -5.37216,-0.65083 -10.46233,-3.11961 -14.35222,-6.96094 -9.428154,-9.310444 -9.594549,-24.254013 -0.37626,-33.790898 2.04009,-2.1106 4.83667,-4.062754 7.55776,-5.275713 l 1.28049,-0.570786 0.0701,-26.539767 c 0.0562,-21.258334 0.10343,-26.665959 0.23743,-27.173898 0.43031,-1.631152 1.70612,-3.700057 2.87257,-4.658278 2.82559,-2.3211862 6.39631,-2.7462497 9.68597,-1.1530305 0.99523,0.4820097 1.40174,0.7740735 2.25862,1.6227855 0.863349,0.855099 1.146249,1.242905 1.627699,2.231275 1.05825,2.172472 0.98229,-0.09892 0.98229,29.380501 V 68.81266 l 1.22483,0.556479 c 2.8019,1.272988 4.90583,2.680752 6.99831,4.682661 2.2051,2.109644 3.57614,3.925904 4.88351,6.469346 1.30706,2.542832 2.07118,5.004453 2.46617,7.944761 0.2497,1.85874 0.17999,5.233344 -0.14541,7.038862 -0.8465,4.697001 -3.05501,9.051981 -6.30983,12.442431 -2.22415,2.31683 -4.2016,3.76156 -7.09433,5.18314 -4.32696,2.12641 -9.055519,2.92496 -13.867719,2.34197 z m 7.1707,-3.98777 c 5.388319,-1.13091 10.133889,-4.27447 13.112019,-8.68565 1.51447,-2.24324 2.38735,-4.249097 3.03837,-6.982104 0.34032,-1.428682 0.36133,-1.682774 0.36133,-4.370459 0,-2.684678 -0.0214,-2.943682 -0.36069,-4.375508 -1.2509,-5.27812 -4.2147,-9.59458 -8.5921,-12.513501 -1.23932,-0.826401 -3.54269,-1.972036 -4.67783,-2.326641 -1.044459,-0.326269 -1.535929,-0.6679 -1.804979,-1.254692 -0.22823,-0.497725 -0.23829,-1.206436 -0.24098,-16.975124 l -0.003,-16.455711 h -4.99377 -4.99389 v 4.946225 4.946226 l 2.20884,2.1e-4 c 1.84736,1.26e-4 2.28176,0.03649 2.65446,0.221945 1.3932,0.693287 1.37386,2.701442 -0.0321,3.333582 -0.464,0.208621 -0.84873,0.243894 -2.68637,0.24628 l -2.14481,0.0027 v 4.946226 4.946225 l 2.27285,4.2e-4 c 2.04208,4.2e-4 2.31524,0.02607 2.69019,0.252495 1.23409,0.745254 1.23826,2.500308 0.008,3.234756 -0.37395,0.223179 -0.69806,0.258696 -2.69786,0.295625 l -2.27286,0.04199 -4.3e-4,2.875025 c -4.9e-4,3.703364 0.016,3.669345 -2.17634,4.453657 -6.81025,2.436357 -11.76636,8.20689 -13.21254,15.383706 -0.41213,2.04523 -0.41213,5.5023 0,7.547534 1.80484,8.956513 8.90677,15.418733 18.20647,16.566463 0.24649,0.0304 1.48536,0.0354 2.75303,0.011 1.72199,-0.0331 2.6287,-0.11228 3.58536,-0.31306 z m 0.8044,-86.71714 -0.0361,-8.97296 -0.34337,-0.725405 c -1.0824,-2.286705 -3.74867,-3.435581 -6.12196,-2.637904 -1.49531,0.502587 -2.52838,1.474292 -3.09735,2.913348 -0.23146,0.585441 -0.28736,1.03734 -0.33281,2.690667 l -0.0546,1.987054 2.28605,0.04217 c 2.01282,0.03713 2.33684,0.07248 2.71105,0.29582 1.23058,0.734444 1.22641,2.489502 -0.008,3.234755 -0.37495,0.226429 -0.64812,0.252067 -2.69019,0.252493 l -2.27287,4.83e-4 v 4.946226 4.946226 h 4.998 4.99798 z"
   id="path13398" /></svg>
