<?xml version="1.0" encoding="UTF-8" standalone="no"?>
<!-- Uploaded to: SVG Repo, www.svgrepo.com, Generator: SVG Repo Mixer Tools -->

<svg
   width="800px"
   height="800px"
   viewBox="0 -66.92 378.979 378.979"
   version="1.1"
   id="svg54"
   sodipodi:docname="theater-room.svg"
   inkscape:version="1.3.1 (91b66b0783, 2023-11-16)"
   xmlns:inkscape="http://www.inkscape.org/namespaces/inkscape"
   xmlns:sodipodi="http://sodipodi.sourceforge.net/DTD/sodipodi-0.dtd"
   xmlns="http://www.w3.org/2000/svg"
   xmlns:svg="http://www.w3.org/2000/svg">
  <sodipodi:namedview
     id="namedview54"
     pagecolor="#ffffff"
     bordercolor="#000000"
     borderopacity="0.25"
     inkscape:showpageshadow="2"
     inkscape:pageopacity="0.0"
     inkscape:pagecheckerboard="0"
     inkscape:deskcolor="#d1d1d1"
     inkscape:zoom="0.5875"
     inkscape:cx="400"
     inkscape:cy="399.14894"
     inkscape:window-width="1920"
     inkscape:window-height="1027"
     inkscape:window-x="-8"
     inkscape:window-y="-8"
     inkscape:window-maximized="1"
     inkscape:current-layer="svg54" />
  <defs
     id="defs1">
    <style
       id="style1">.a{fill:#ffffff;}.b{fill:#fecb87;}.c{fill:#211715;}.d{fill:#88c5e9;}.e{fill:#d9d9d9;}.f{fill:#74c66d;}</style>
  </defs>
  <path
     class="a"
     d="M303.585,50.966h.13v146.69H75.265V50.966h228.32Z"
     id="path1" />
  <path
     class="b"
     d="M303.622,243.115c22.383,0,45.758-.009,73.357-.018-13.478-8.323-52.16-32.271-73.368-45.443-24.612,0-103.821,0-114.121,0H75.358c-20.968,13.027-59.942,37.156-73.4,45.465H189.49C234,243.121,267.523,243.121,303.622,243.115Z"
     id="path2" />
  <path
     class="c"
     d="M165.156,199.657H303.712c2.574,0,2.578-4,0-4H165.156c-2.573,0-2.578,4,0,4Z"
     id="path3" />
  <path
     class="a"
     d="M303.715,197.656V50.966h-.13c20.29-13.55,59.75-39.72,73.39-48.87v241c-13.47-8.32-52.16-32.27-73.37-45.44Z"
     id="path4" />
  <path
     class="a"
     d="M376.975,2.066V2.1c-13.64,9.15-53.1,35.32-73.39,48.87H75.4c-19.97-13.34-59.73-39.7-73.39-48.87v-.03h374.97Z"
     id="path5" />
  <path
     class="a"
     d="M75.265,50.966v146.72l.02.04c-27.54,17.08-59.75,37.02-73.28,45.37V2.1c13.66,9.17,53.42,35.53,73.39,48.87Z"
     id="path6" />
  <path
     class="d"
     d="M269.6,81.384c-2.545,0-68.172-.012-70.125,0,.009,1.613,0,47.315,0,47.433,1.751,0,37.286,0,57.476,0,4.848-4.881,8.953-9.022,12.649-12.393Z"
     id="path7" />
  <path
     class="c"
     d="M133.931,135.409H120.7a2.029,2.029,0,0,0-2,2v14.445a2.03,2.03,0,0,0,2,2h13.23a2.029,2.029,0,0,0,2-2V137.409a2,2,0,0,0-4,0v14.445l2-2H120.7l2,2V137.409l-2,2h13.23a2,2,0,1,0,0-4Z"
     id="path8" />
  <rect
     class="e"
     x="99.13"
     y="107.63"
     width="56.372"
     height="34.562"
     rx="2.939"
     id="rect8" />
  <path
     class="c"
     d="M152.563,105.63H115.272c-4.387,0-8.818-.185-13.2,0a5.051,5.051,0,0,0-4.941,5c-.026.718,0,1.442,0,2.16V134.91c0,2.2-.434,5.132.825,7.059,1.5,2.305,3.926,2.223,6.3,2.223H136.5c5.263,0,10.532.075,15.794,0a5.148,5.148,0,0,0,4.291-2.091,5.939,5.939,0,0,0,.919-3.625V129.56c0-6.3.239-12.641,0-18.933a5.06,5.06,0,0,0-4.939-5c-2.572-.149-2.563,3.852,0,4,.979.056.939.913.939,1.63v24.618c0,1.08.569,4.093-.954,4.314a27.31,27.31,0,0,1-3.8,0H116.741c-4.808,0-9.634.122-14.44,0-1.557-.039-1.171-1.838-1.171-2.95V116.169a40.211,40.211,0,0,1,0-5.6c.2-1.351,2.233-.942,3.234-.942h48.2C155.137,109.63,155.141,105.63,152.563,105.63Z"
     id="path9" />
  <path
     class="a"
     d="m 129.892,52.568001 c -9.3,0 -42.493,0 -51.742,0 a 2.366,3.6620022 0 0 0 -2.369,3.669741 c 0,5.94495 0,17.79925 0,26.260859 a 4.209,6.5145255 0 0 0 4.207,6.523812 c 10.52,0 37.594,0 48.082,0 a 4.2,6.5005956 0 0 0 4.2,-6.500596 V 56.251672 a 2.379,3.6821231 0 0 0 -2.378,-3.683671 z"
     id="path10"
     style="stroke-width:1.24409" />
  <path
     class="c"
     d="M129.892,50.568l-27.8,0H80.428c-2.347,0-4.82-.088-6.12,2.3-.7,1.288-.527,2.814-.527,4.228q0,2.459,0,4.917c0,3.427-.288,7,.033,10.407a6.335,6.335,0,0,0,6.567,5.7c2.155.012,4.31,0,6.465,0l34.376,0c2.151,0,4.3.012,6.453,0a6.332,6.332,0,0,0,6.562-5.691c.315-3.338.034-6.83.034-10.184V57.374c0-1.439.2-3.032-.46-4.362a4.515,4.515,0,0,0-3.919-2.444c-2.57-.173-2.559,3.828,0,4,.8.054.379,5.761.379,6.522v9.392c0,1.062.162,2.174-.644,2.993-.759.771-1.792.645-2.783.646H120.8l-31.776,0H82.566c-1.7,0-4.215.46-4.736-1.734a19.879,19.879,0,0,1-.05-4.3q0-2.437,0-4.876V56.621c0-.411-.191-1.427.013-1.784.375-.654,2.9-.271,3.6-.271h19.745l28.754,0C132.465,54.568,132.47,50.569,129.892,50.568Z"
     id="path11" />
  <path
     class="c"
     d="M3.009,244.824q27.414-16.929,54.8-33.908,9.282-5.75,18.562-11.5c2.184-1.354.177-4.816-2.019-3.454Q43.36,215.169,12.354,234.347,6.674,237.86.991,241.37c-2.187,1.35-.18,4.812,2.018,3.454Z"
     id="path13" />
  <path
     class="c"
     d="M73.267,50.968V141.9c0,2.574,4,2.578,4,0V50.968c0-2.574-4-2.578-4,0Z"
     id="path14" />
  <path
     class="c"
     d="M75.358,199.654h81.529c2.574,0,2.578-4,0-4H75.358c-2.573,0-2.578,4,0,4Z"
     id="path15" />
  <path
     class="c"
     d="M75.267,52.968H303.712c2.574,0,2.578-4,0-4H75.267c-2.573,0-2.578,4,0,4Z"
     id="path16" />
  <path
     class="c"
     d="M301.712,50.968V197.657c0,2.574,4,2.578,4,0V50.968c0-2.574-4-2.578-4,0Z"
     id="path17" />
  <path
     class="c"
     d="M301.712,50.968V197.657c0,2.574,4,2.578,4,0V50.968c0-2.574-4-2.578-4,0Z"
     id="path18" />
  <path
     class="c"
     d="M2,245.121H376.979a2.029,2.029,0,0,0,2-2V2.07a2.029,2.029,0,0,0-2-2H2a2.029,2.029,0,0,0-2,2V243.121c0,2.573,4,2.578,4,0V2.07l-2,2H376.979l-2-2V243.121l2-2H2c-2.574,0-2.578,4,0,4Z"
     id="path19" />
  <path
     class="c"
     d="M.955,3.8q12.606,8.455,25.262,16.839Q42.54,31.492,58.862,42.346q7.812,5.2,15.618,10.411c2.147,1.434,4.151-2.029,2.019-3.454Q61.628,39.367,46.727,29.477,31.03,19.04,15.336,8.6,9.15,4.477,2.974.343C.83-1.095-1.175,2.369.955,3.8Z"
     id="path20" />
  <path
     class="c"
     d="M376.006.343q-12.663,8.493-25.374,16.913-16.478,10.959-32.955,21.917-7.88,5.244-15.752,10.5c-2.13,1.423-.13,4.889,2.019,3.454q14.94-9.983,29.913-19.92,15.85-10.541,31.7-21.084,6.24-4.156,12.47-8.326c2.127-1.427.127-4.893-2.019-3.454Z"
     id="path21" />
  <path
     class="c"
     d="M377.989,241.37q-12.495-7.714-24.977-15.449-16.4-10.152-32.791-20.314-8.052-4.992-16.1-9.991c-2.193-1.362-4.2,2.1-2.019,3.454q15.162,9.417,30.336,18.813,15.648,9.694,31.3,19.378,6.115,3.783,12.234,7.563c2.2,1.357,4.207-2.1,2.019-3.454Z"
     id="path22" />
  <path
     class="c"
     d="M278.6,123.483V78.717q0-2.166,0-4.333a2.028,2.028,0,0,0-2-2q-14.556,0-29.113,0-22.06,0-44.121,0c-3.63,0-7.261-.014-10.891,0a2.029,2.029,0,0,0-2,2c.036,7.137,0,14.274,0,21.41q0,16.272,0,32.543,0,3.739,0,7.48a2.029,2.029,0,0,0,2,2q23.594,0,47.187,0h17.275c2.574,0,2.578-4,0-4q-29.246,0-58.49,0H192.47l2,2,0-20.344q0-16.419,0-32.839c0-2.75.01-5.5,0-8.25l-2,2c9.563-.047,19.127,0,28.69,0l44.24,0,11.2,0-2-2q-.012,18.177,0,36.356v12.743c0,2.573,4,2.578,4,0Z"
     id="path25" />
  <rect
     class="a"
     x="156.887"
     y="159.526"
     width="7.728"
     height="50.15"
     id="rect25" />
  <path
     class="c"
     d="M154.887,161.935v43.243c0,.778-.026,1.56,0,2.338a4.141,4.141,0,0,0,4.3,4.16c2.427.044,5.553.446,6.932-2.071a5.729,5.729,0,0,0,.5-2.913V183.683c0-7.12.152-14.26,0-21.379,0-.123,0-.246,0-.369,0-2.574-4-2.578-4,0v45.051c0,.209.018.427,0,.636-.008.094.019.023.049-.036-.087.169-.068.091-.425.09-.99,0-1.987-.035-2.977,0-.341.013-.335.047-.4-.045s.037.128.025-.019c-.052-.61,0-1.248,0-1.86V182.315c0-6.671.166-13.366,0-20.036,0-.115,0-.229,0-.344,0-2.574-4-2.578-4,0Z"
     id="path26" />
  <path
     class="a"
     d="M59.267,161.526v46.15a2,2,0,0,0,2,2H65a2,2,0,0,0,2-2v-46.15"
     id="path27" />
  <path
     class="c"
     d="M57.267,161.526V205.19c0,.774-.023,1.553,0,2.327a4.135,4.135,0,0,0,4.3,4.159c2.427.044,5.554.445,6.932-2.071a5.787,5.787,0,0,0,.5-2.948V183.352c0-7.139.145-14.3,0-21.434,0-.131,0-.261,0-.392,0-2.573-4-2.578-4,0v45.463c0,.2.018.419,0,.623-.008.1.013.047.05-.026-.087.169-.069.091-.425.09-.99,0-1.987-.035-2.977,0-.341.013-.335.047-.4-.045s.037.13.024-.019c-.053-.625,0-1.278,0-1.905v-23.6c0-6.738.184-13.5,0-20.239,0-.114,0-.228,0-.342,0-2.573-4-2.578-4,0Z"
     id="path28" />
  <path
     class="c"
     d="M77.267,197.654V161.526c0-2.573-4-2.578-4,0v36.128c0,2.574,4,2.578,4,0Z"
     id="path29" />
  <path
     class="c"
     d="M169.434,161.935q0,14.163-.01,28.326l0,7.4c0,2.574,4,2.578,4,0l.012-31.586q0-2.068,0-4.136c0-2.574-4-2.578-4,0Z"
     id="path30" />
  <rect
     class="b"
     x="59.267"
     y="151.065"
     width="112.153"
     height="10.461"
     id="rect30" />
  <path
     class="c"
     d="M171.42,149.065H73.068c-4.525,0-9.091-.176-13.613,0-.063,0-.125,0-.188,0a2.03,2.03,0,0,0-2,2v10.461a2.03,2.03,0,0,0,2,2H157.62c4.525,0,9.09.176,13.613,0,.062,0,.125,0,.187,0a2.029,2.029,0,0,0,2-2V151.065c0-2.573-4-2.578-4,0v10.461l2-2H63.857c-1.44,0-2.968-.146-4.4,0a1.684,1.684,0,0,1-.188,0l2,2V151.065l-2,2H157.62c4.525,0,9.09.176,13.613,0,.062,0,.125,0,.187,0C173.994,153.065,174,149.065,171.42,149.065Z"
     id="path31" />
  <path
     class="a"
     d="M277.613,177.73H260.127v8.152h35.087V177.73H277.728"
     id="path32" />
  <path
     class="a"
     d="M262.728,185.946c.474,6.043,1.269,14.527,1.984,21.964h25.917c.716-7.437,1.51-15.921,1.984-21.964"
     id="path33" />
  <path
     class="c"
     d="M277.613,175.73H260.127a2.029,2.029,0,0,0-2,2v8.152a2.029,2.029,0,0,0,2,2h35.087a2.029,2.029,0,0,0,2-2V177.73a2.029,2.029,0,0,0-2-2H277.728c-2.574,0-2.578,4,0,4h17.486l-2-2v8.152l2-2H260.127l2,2V177.73l-2,2h17.486c2.574,0,2.579-4,0-4Z"
     id="path34" />
  <path
     class="c"
     d="M260.728,185.946c.275,3.488.584,6.974.9,10.458q.253,2.776.515,5.553c.17,1.8,0,4.163.839,5.8,1.468,2.855,5.453,2.154,8.109,2.154h16.378a6.37,6.37,0,0,0,3.3-.513c1.951-1.107,2.014-3.134,2.2-5.124q.309-3.246.609-6.492c.363-3.943.716-7.888,1.027-11.835.2-2.567-3.8-2.554-4,0-.251,3.184-.53,6.367-.818,9.549q-.23,2.534-.467,5.067l-.219,2.323a13.2,13.2,0,0,1-.279,2.892c-.082.231.089.088-.194.133a6.956,6.956,0,0,1-1.041,0H268.567a6.444,6.444,0,0,1-2.023,0c-.034-.016-.014.033-.048-.261-.128-1.072-.206-2.153-.307-3.228q-.262-2.779-.518-5.559c-.332-3.637-.656-7.275-.943-10.916-.2-2.549-4.2-2.571-4,0Z"
     id="path35" />
  <path
     class="c"
     d="M279.084,177.73V157.322c0-2.574-4-2.579-4,0V177.73c0,2.573,4,2.578,4,0Z"
     id="path36" />
  <path
     class="c"
     d="M270.971,143l3.562,13.928a2,2,0,1,0,3.857-1.063l-3.562-13.928A2,2,0,0,0,270.971,143Z"
     id="path37" />
  <path
     class="c"
     d="M279.778,159.272q.441-.625.908-1.231l-.313.405a35.548,35.548,0,0,1,3.29-3.69,2,2,0,1,0-2.828-2.828,38.1,38.1,0,0,0-4.511,5.325,2,2,0,0,0,2.259,2.938,2.262,2.262,0,0,0,1.195-.919Z"
     id="path38" />
  <path
     class="c"
     d="M270.723,163.213q.317.4.628.8l-.312-.4q.951,1.231,1.852,2.5.441.624.87,1.257a10.3,10.3,0,0,1,.849,1.3l-.2-1.541-.013.072,1.4-1.4-.031.01,1.541.2-.03-.02.717.718-.013-.028-.313,2.423.019-.017a2.014,2.014,0,0,0,0-2.828,2.044,2.044,0,0,0-2.828,0l-.019.017a1.893,1.893,0,0,0-.55,1.148,2.142,2.142,0,0,0,.237,1.276,2.036,2.036,0,0,0,2.333.957,1.985,1.985,0,0,0,1.4-1.4,2.321,2.321,0,0,0-.206-1.652c-.071-.127-.155-.248-.235-.37q-.264-.4-.533-.8-.554-.821-1.13-1.627c-.835-1.167-1.705-2.308-2.6-3.432a2,2,0,0,0-1.414-.586,2.032,2.032,0,0,0-1.414.586,2.012,2.012,0,0,0-.586,1.414,2.323,2.323,0,0,0,.586,1.415Z"
     id="path39" />
  <path
     class="f"
     d="M263.238,147.62a13.766,13.766,0,0,1,3.494-6.224c2.129-2.193,3.418-2.872,5.307-3.068a5.406,5.406,0,0,1,3.653.7c1.274.92,1.383,2.456,1.206,3.9-.254,2.065-1.033,3.118-2.945,4.728C271.525,149.7,266.019,150.924,263.238,147.62Z"
     id="path40" />
  <path
     class="f"
     d="M260.49,165.443a13.757,13.757,0,0,1,3.494-6.223c2.129-2.194,3.418-2.872,5.307-3.069a5.411,5.411,0,0,1,3.654.7c1.273.92,1.382,2.457,1.2,3.9-.254,2.066-1.033,3.118-2.945,4.728C268.777,167.521,263.271,168.748,260.49,165.443Z"
     id="path41" />
  <path
     class="f"
     d="M294.772,157.968a13.753,13.753,0,0,0-3.494-6.223c-2.129-2.194-3.417-2.872-5.307-3.068a5.4,5.4,0,0,0-3.653.7c-1.273.92-1.382,2.457-1.2,3.9.254,2.066,1.033,3.118,2.944,4.728C286.486,160.046,291.991,161.273,294.772,157.968Z"
     id="path42" />
  <path
     class="c"
     d="M265.167,148.152a11.56,11.56,0,0,1,1.515-3.5,12.968,12.968,0,0,1,2.268-2.63q.36-.336.737-.65c.315-.263.13-.1.058-.047.123-.088.247-.175.374-.257.213-.138.438-.25.656-.379.308-.182.035-.027-.044,0,.144-.058.291-.111.439-.157.25-.079.5-.126.757-.185.094-.023.385-.049-.053,0,.135-.015.27-.03.4-.041a9.377,9.377,0,0,1,1.137,0c.054,0,.393.061.09.006a5.277,5.277,0,0,1,.569.133,3.383,3.383,0,0,1,.347.119c-.368-.156-.015,0,.058.062.25.21-.4-.3.117.086.047.034.24.288.067.044a2.606,2.606,0,0,1,.192.328c-.157-.311,0,.047.03.141s.1.5.049.128a4.422,4.422,0,0,1,.029.587c0,.264-.02.528-.044.791-.037.414-.022.139-.007.053-.027.151-.055.3-.09.452a6.793,6.793,0,0,1-.223.741c.131-.368.052-.108,0-.024-.081.143-.153.29-.24.43,0-.006-.3.446-.133.213s-.185.219-.176.209c-.169.192-.347.375-.53.553-.259.252-.53.494-.806.729-.094.081-.193.158-.285.24.387-.343.046-.043-.048.02a10.57,10.57,0,0,1-1.194.667c-.329.165-.033.017.034-.01-.127.05-.254.1-.383.146-.289.1-.582.194-.879.271-.276.072-.554.122-.832.18-.377.079-.058.012.022,0-.17.02-.341.036-.513.047-.285.018-.571.024-.857.014-.143,0-.284-.018-.426-.026-.085-.007-.17-.016-.255-.026.223.03.261.032.112.007-.276-.109-.614-.131-.9-.226-.107-.035-.212-.073-.317-.114.422.162-.078-.048-.136-.079-.12-.064-.771-.5-.451-.249a5.618,5.618,0,0,1-.76-.743,2.017,2.017,0,0,0-2.828,0,2.039,2.039,0,0,0,0,2.828c2.112,2.428,5.429,2.955,8.456,2.406a11.7,11.7,0,0,0,7.252-4.625c1.85-2.522,2.2-7.083-.425-9.2-2.522-2.035-6.672-1.638-9.23.146a16.833,16.833,0,0,0-6.567,9.328C260.621,149.573,264.479,150.633,265.167,148.152Z"
     id="path43" />
  <path
     class="c"
     d="M262.419,165.975a11.6,11.6,0,0,1,1.516-3.5,12.932,12.932,0,0,1,2.268-2.63q.359-.336.736-.65c.315-.263.13-.1.058-.046.123-.089.247-.175.374-.258.213-.138.438-.25.656-.379.308-.182.035-.026-.043,0,.144-.058.29-.11.438-.157.25-.078.5-.126.757-.185.094-.022.385-.049-.053,0,.135-.015.27-.03.406-.04a9.161,9.161,0,0,1,1.136,0c.054,0,.393.062.09.006a5.281,5.281,0,0,1,.569.134,3.158,3.158,0,0,1,.347.119c-.368-.156-.015,0,.059.062.249.21-.4-.3.116.085.047.035.24.289.067.044a2.679,2.679,0,0,1,.192.328c-.157-.311,0,.047.03.141s.1.5.049.129a4.415,4.415,0,0,1,.029.586c0,.265-.02.528-.044.791-.037.414-.022.139-.007.053-.027.152-.055.3-.09.452a7.106,7.106,0,0,1-.222.742c.13-.368.051-.108,0-.025-.081.143-.153.29-.24.43,0-.006-.3.446-.133.214s-.185.218-.176.208c-.169.192-.347.375-.53.553-.259.253-.53.494-.805.73-.1.08-.193.157-.286.24.387-.343.046-.044-.048.02a10.57,10.57,0,0,1-1.194.667c-.329.164-.033.016.035-.01-.128.05-.255.1-.384.145-.289.1-.582.194-.879.271-.276.072-.554.122-.832.18-.377.079-.058.013.022,0-.17.02-.341.037-.513.048-.285.018-.571.023-.857.013-.142-.005-.284-.017-.426-.026-.085-.007-.17-.016-.254-.026.222.03.26.033.111.008-.276-.109-.613-.132-.9-.226-.107-.035-.212-.074-.317-.114.422.161-.078-.049-.136-.08-.12-.063-.771-.5-.451-.249a5.559,5.559,0,0,1-.76-.743,2,2,0,1,0-2.828,2.828c2.112,2.429,5.429,2.956,8.456,2.406a11.708,11.708,0,0,0,7.253-4.625c1.849-2.521,2.2-7.082-.426-9.2-2.521-2.035-6.672-1.639-9.23.145a16.836,16.836,0,0,0-6.567,9.329C257.873,167.4,261.731,168.456,262.419,165.975Z"
     id="path44" />
  <path
     class="c"
     d="M296.7,157.437a16.81,16.81,0,0,0-5.47-8.483c-2.565-2.137-6.187-3.123-9.346-1.632-3.375,1.594-3.415,6.24-1.858,9.141a11.294,11.294,0,0,0,6.792,5.117c3.234.9,7.061.455,9.368-2.2a2.051,2.051,0,0,0,0-2.829,2.019,2.019,0,0,0-2.829,0,7.778,7.778,0,0,1-.626.632c-.065.06-.3.2-.005,0-.095.063-.188.128-.285.188s-.834.4-.43.247a6.69,6.69,0,0,1-.8.253c-.109.027-.221.044-.33.072-.51.13.261,0-.057.016-.256.01-.51.044-.767.048-.228,0-.457,0-.686-.018-.141-.009-.286-.034-.427-.038s-.114-.012.106.015c-.085-.013-.169-.027-.253-.043a12.859,12.859,0,0,1-1.471-.381c-.12-.041-.783-.325-.36-.124-.236-.112-.473-.221-.7-.347s-.431-.247-.636-.386c-.079-.053-.154-.113-.233-.164.37.237.167.14.081.058-.509-.481-1.053-.909-1.517-1.437-.078-.088-.157-.179-.23-.273.239.31.014.007-.034-.078-.122-.216-.25-.423-.356-.649.189.405-.071-.268-.1-.4-.038-.146-.064-.294-.1-.44-.1-.409,0,.24-.04-.237-.023-.264-.043-.527-.043-.792,0-.131.008-.261.012-.392.017-.59-.06.193.021-.137a3.6,3.6,0,0,1,.128-.457c-.038.1-.157.264.037-.036.215-.333.083-.124.029-.063.071-.08.471-.36.186-.186,0,0,.467-.258.209-.134s.274-.091.267-.089c.111-.034.755-.162.446-.12a6.175,6.175,0,0,1,1.113-.03c.159.007.317.024.476.036.531.037-.387-.1.113.019.228.054.457.1.682.163.156.047.714.332.325.1.214.126.441.226.654.356.126.078.245.164.37.244.339.216-.151-.147.208.154a12.73,12.73,0,0,1,4.521,6.783C293.53,160.977,297.391,159.925,296.7,157.437Z"
     id="path45" />
  <path
     class="a"
     d="M96.492,169.151c7.642,0,14.833.044,22.359.045a3.848,3.848,0,0,1,2.685,6.606l-.055.053c-2.086,2.024-4.309,3.9-6.583,5.707A11.067,11.067,0,0,1,108,183.955h-36.1c-4.932,0-8.844-3.363-10.787-7.9-1.9-4.444-6.557-26.444-7.194-29.728-1.251-6.444,2.2-10.672,8-10.672H81.042c4.261,0,9.278,2.477,10.05,6.668,1.3,7.069,3.359,18.448,4.612,26.561"
     id="path46" />
  <path
     class="c"
     d="M96.492,171.151q6.454,0,12.909.027,3.138.009,6.277.015c1.048,0,2.129-.079,3.173,0a1.924,1.924,0,0,1,1.169.393c2.23,1.847-1.4,4.249-2.616,5.333-2.832,2.521-5.668,5.007-9.648,5.033-8.653.056-17.308,0-25.961,0H75.366a22.492,22.492,0,0,1-5.527-.254,10.375,10.375,0,0,1-6.37-5.36c-1.7-3.147-2.423-7.4-3.292-11-1.151-4.754-2.213-9.53-3.236-14.313-.71-3.319-2.278-7.623-.393-10.769,1.249-2.086,3.573-2.6,5.842-2.605,4.072-.008,8.145,0,12.218,0,3.4,0,7.221-.537,10.44.807a7.929,7.929,0,0,1,3.134,2.223,7.129,7.129,0,0,1,1.212,3.423c1.252,6.824,2.479,13.654,3.61,20.5q.4,2.4.772,4.809a2.014,2.014,0,0,0,2.46,1.4,2.05,2.05,0,0,0,1.4-2.46c-1.18-7.607-2.537-15.188-3.916-22.761-.6-3.311-.994-6.435-3.73-8.737a14.951,14.951,0,0,0-9.922-3.2H66.557c-3.519,0-7.375-.426-10.5,1.558a9.784,9.784,0,0,0-4.355,7.657,21.9,21.9,0,0,0,.759,6.3q1.55,7.44,3.284,14.843c.982,4.177,1.806,8.587,3.44,12.573a15.355,15.355,0,0,0,6.9,7.925c3.726,1.915,7.943,1.439,12,1.439h28.928a15.14,15.14,0,0,0,6.161-1.1,22.419,22.419,0,0,0,5.329-3.613c2.546-2.114,6.455-4.723,6.192-8.485a5.975,5.975,0,0,0-2.043-4.156c-1.487-1.25-3.154-1.4-5.026-1.4q-7.01,0-14.018-.034-3.558-.009-7.117-.01c-2.573,0-2.578,4,0,4Z"
     id="path47" />
  <path
     class="c"
     d="M111.851,204.861H96.135c-2.573,0-2.578,4,0,4h15.716c2.573,0,2.578-4,0-4Z"
     id="path48" />
  <path
     class="c"
     d="M111.851,207.532a4.36,4.36,0,0,1,4.446,4.419,4.287,4.287,0,0,1-4.446,4.5,4.243,4.243,0,0,1-4.447-4.5A4.356,4.356,0,0,1,111.851,207.532Z"
     id="path49" />
  <path
     class="c"
     d="M93.673,184.44v19.377c0,2.574,4,2.578,4,0V184.44c0-2.574-4-2.578-4,0Z"
     id="path50" />
  <path
     class="c"
     d="M93.708,203.542c0,2.339.042,4.679.043,7.019a2,2,0,0,0,4,0c0-2.34-.043-4.68-.043-7.019a2,2,0,0,0-4,0Z"
     id="path51" />
  <path
     class="c"
     d="M79.5,208.861H95.21c2.574,0,2.579-4,0-4H79.5c-2.574,0-2.578,4,0,4Z"
     id="path52" />
  <path
     class="c"
     d="M79.5,207.532a4.36,4.36,0,0,0-4.446,4.419,4.287,4.287,0,0,0,4.446,4.5,4.242,4.242,0,0,0,4.446-4.5A4.356,4.356,0,0,0,79.5,207.532Z"
     id="path53" />
  <path
     class="c"
     d="M95.729,211.345a4.36,4.36,0,0,0-4.446,4.419,4.288,4.288,0,0,0,4.446,4.5,4.243,4.243,0,0,0,4.447-4.5A4.356,4.356,0,0,0,95.729,211.345Z"
     id="path54" />
  <path
     style="fill:#003380;stroke-width:1.70213"
     d="M 9.3617021,399.94608 V 155.35316 l 4.6808509,3.04875 c 2.574468,1.67682 35.12766,23.3366 72.340426,48.13286 l 67.659571,45.0841 v 85.67992 85.67993 H 138.5605 c -17.70617,0 -23.70582,2.41888 -27.8947,11.24628 -3.62246,7.63379 -3.34278,11.03182 3.37675,41.02632 5.84267,26.08034 5.95629,27.31692 5.89737,64.18133 l -0.0601,37.58863 -53.834412,33.19149 C 36.436504,628.46809 11.569923,643.65957 10.786361,643.97163 10.002799,644.28369 9.3617021,534.47219 9.3617021,399.94608 Z"
     id="path55"
     transform="matrix(0.47372375,0,0,0.47372375,0,-66.92)" />
  <path
     style="fill:#003380;stroke-width:1.70213"
     d="M 92.112126,197.86987 22.522124,151.48936 210.69932,151.05641 c 103.49745,-0.23812 273.36522,-0.23812 377.48393,0 l 189.30674,0.43295 -69.6171,46.38298 -69.61711,46.38298 -238.27682,-0.002 -238.27683,-0.002 z"
     id="path56"
     transform="matrix(0.47372375,0,0,0.47372375,0,-66.92)" />
  <path
     style="fill:#003380;stroke-width:1.70213"
     d="M 717.02128,599.6809 645.95745,555.43612 V 403.515 251.59387 l 22.55319,-15.04932 c 12.40425,-8.27712 44.95745,-29.82206 72.34042,-47.87764 l 49.78724,-32.82833 v 244.20836 c 0,134.31461 -0.57447,244.13422 -1.2766,244.04356 -0.70213,-0.0906 -33.25532,-20.07496 -72.34042,-44.4096 z"
     id="path57"
     transform="matrix(0.47372375,0,0,0.47372375,0,-66.92)" />
  <path
     style="fill:#2a7fff;stroke-width:1.70213"
     d="m 366.40909,505.10638 -0.45164,-48.93617 -38.72341,-0.45748 -38.7234,-0.4575 v -4.22335 -4.22337 h 18.7234 c 26.89662,0 25.53192,2.26933 25.53192,-42.45667 0,-34.90824 -0.0785,-35.70316 -3.78299,-38.29788 -3.2418,-2.27064 -11.97019,-2.6497 -61.01279,-2.6497 -56.02986,0 -57.29778,0.0752 -60.47233,3.58488 -2.96641,3.27961 -3.24253,6.55383 -3.24253,38.44931 0,43.36254 -1.27974,41.37006 26.57155,41.37006 h 18.53483 v 4.25532 4.25532 h -24.56017 -24.56018 l -1.92201,-9.25828 c -3.21166,-15.47049 -12.18152,-23.08215 -27.20084,-23.08215 h -6.86318 v -57.87234 -57.87234 h 55.22423 55.22423 l 4.77577,-4.10554 4.77577,-4.10555 V 276.7498 254.47664 L 460,254.47236 l 175.74468,-0.004 v 149.78723 149.78723 h -7.4976 -7.49762 l 0.95714,-7.23404 c 0.56026,-4.2344 2.2576,-8.15631 4.09337,-9.45821 2.42463,-1.71954 3.1362,-4.4422 3.1362,-12 0,-5.37672 -0.91915,-10.69498 -2.04255,-11.81839 -1.32424,-1.32423 -8.20804,-2.04255 -19.57447,-2.04255 h -17.53192 v -16.06975 c 0,-8.83837 0.68271,-16.4917 1.51714,-17.00741 0.83442,-0.51569 5.15366,0.67098 9.5983,2.63706 9.3545,4.13794 18.28896,3.49433 23.47428,-1.691 3.75815,-3.75812 3.19243,-8.08643 -2.19845,-16.82063 -9.83746,-15.93846 -33.69121,-16.29685 -34.24691,-0.51455 -0.13962,3.9656 -0.29782,3.86017 -1.74914,-1.16563 -1.19283,-4.13068 -0.93923,-6.79486 1.00458,-10.55377 7.88912,-15.25588 -5.71299,-27.68932 -21.41113,-19.57149 -5.46296,2.825 -15.1376,16.49717 -15.1376,21.39241 0,1.6211 2.10638,4.61031 4.68085,6.64267 3.75106,2.96121 6.28686,3.54253 12.76596,2.9266 6.04086,-0.57428 8.0851,-0.18624 8.0851,1.53471 0,1.47828 -2.04381,2.30333 -5.70573,2.30333 -15.87386,0 -31.93432,23.83893 -21.14957,31.39286 4.88296,3.42015 15.3806,3.3897 22.05932,-0.064 6.34283,-3.28 8.13431,-1.48591 8.17418,8.18607 l 0.0261,6.32342 -17.44681,0.48509 -17.44681,0.48508 -0.50291,12.47954 c -0.45779,11.36005 -0.19059,12.56122 2.97872,13.39 2.83944,0.74254 3.48164,2.28669 3.48164,8.37153 v 7.46105 h -91.88879 -91.8888 z m 179.97389,-77.02127 v -4.25532 l -67.65958,-0.44506 -67.65957,-0.44507 v -59.55493 -59.55494 h 84.25532 84.25532 v 51.06383 51.06383 h 4.07321 c 2.24027,0 4.53814,-1.21158 5.10638,-2.69241 1.34424,-3.50301 1.30431,-100.80316 -0.0434,-105.83267 l -1.03013,-3.84423 -92.98919,0.43997 -92.98919,0.43998 -0.4455,67.03558 c -0.32148,48.37421 0.0962,67.68828 1.50036,69.38019 1.60672,1.93599 14.29241,2.26724 72.78592,1.9006 l 70.84007,-0.44403 z m -0.96048,-14.04256 c 2.32191,-5.89507 19.16261,-21.36787 23.9392,-21.99474 l 4.25532,-0.55845 0.45794,-39.99913 c 0.4133,-36.09785 0.17404,-40.20674 -2.45299,-42.12766 -4.11928,-3.0121 -150.4011,-3.09408 -153.4092,-0.086 -1.49975,1.49975 -2.04256,15.89913 -2.04256,54.18439 0,28.67802 0.51064,52.65249 1.13476,53.2766 0.6241,0.62411 29.36647,1.13475 63.87192,1.13475 h 62.73715 z"
     id="path58"
     transform="matrix(0.47372375,0,0,0.47372375,0,-66.92)" />
  <path
     style="fill:#003380;stroke-width:1.70213"
     d="M 94.468085,198.29787 25.531915,152.34201 H 400 774.46809 l -68.93618,45.95586 -68.93617,45.95586 H 400 163.40426 Z"
     id="path59"
     transform="matrix(0.47372375,0,0,0.47372375,0,-66.92)" />
  <path
     style="fill:#003380;stroke-width:1.70213"
     d="m 367.94327,552.9078 c -0.62412,-0.62411 -1.13476,-22.82249 -1.13476,-49.32974 v -48.195 l -38.7234,-0.45749 c -38.70445,-0.45726 -38.72367,-0.45936 -39.26732,-4.28727 -0.53704,-3.78136 -0.29612,-3.82979 19.05241,-3.82979 26.3476,0 24.89576,2.49656 24.89576,-42.81034 0,-29.77083 -0.41541,-35.65977 -2.67478,-37.91914 -2.32744,-2.32745 -10.24213,-2.67477 -60.95126,-2.67477 -47.60478,0 -58.88155,0.44182 -61.58055,2.41273 -3.02575,2.2095 -3.34933,5.03998 -3.84162,33.60402 -0.29567,17.15521 -0.0741,33.66188 0.49239,36.68149 1.82909,9.74987 4.12421,10.70601 25.69868,10.70601 h 19.45288 v 4.30206 4.30204 l -24.06327,-0.47225 -24.06328,-0.47227 -2.3203,-9.07483 c -4.11427,-16.09113 -11.34116,-22.38528 -25.72336,-22.40332 l -8.93617,-0.0112 V 365.1064 307.23406 h 55.94066 c 70.51369,0 64.9104,2.582 64.9104,-29.91077 v -22.85518 h 175.31915 175.31915 v 149.78723 149.78723 h -7.03122 -7.03121 l 1.001,-6.16856 c 0.55057,-3.3927 2.21976,-7.51523 3.70931,-9.16117 2.04729,-2.26222 2.58434,-5.84579 2.20043,-14.68251 l -0.50788,-11.68988 -19.36397,-0.48329 -19.36397,-0.4833 1.22074,-15.68691 c 0.6714,-8.62782 1.41463,-15.88659 1.65164,-16.13064 0.237,-0.24403 3.71052,0.71341 7.71894,2.12766 21.44885,7.56759 33.37183,-1.81396 23.34843,-18.37164 -5.42094,-8.95486 -12.26931,-13.07473 -21.75651,-13.08833 -7.73651,-0.0111 -11.45418,2.23284 -14.08157,8.49942 -0.58876,1.40426 -0.64533,-0.12766 -0.1257,-3.40425 2.96819,-18.7166 2.9638,-18.81251 -1.05721,-23.09268 -5.93464,-6.31713 -16.62235,-5.78812 -24.60153,1.21768 -10.45883,9.183 -14.13622,20.58725 -8.22148,25.49638 1.54803,1.28483 7.10122,2.764 12.34042,3.28703 8.45868,0.84442 8.95377,1.09268 4.41943,2.21603 -14.33284,3.5509 -24.68086,13.75624 -24.68086,24.3406 0,8.52292 3.93187,11.19979 15.1533,10.31652 5.24015,-0.41245 11.14092,-1.3011 13.1128,-1.97479 3.1371,-1.07174 3.71602,-0.41894 4.63154,5.22273 0.68822,4.24109 0.33505,6.89947 -1.03205,7.76808 -1.1431,0.72628 -9.16346,1.33224 -17.82303,1.34657 l -15.74468,0.0261 v 13.00385 c 0,9.68112 0.66231,13.48813 2.59205,14.8992 1.42563,1.04245 3.05777,4.76517 3.62698,8.27275 l 1.03489,6.37739 h -91.00284 c -50.05158,0 -91.5135,-0.51064 -92.1376,-1.13475 z M 547.23404,428.08511 v -5.10639 h -68.0851 -68.08511 v -59.57446 -59.57447 h 84.25532 84.25532 v 51.17689 51.17689 l 4.68085,-0.5386 4.68085,-0.53859 v -55.31915 -55.31914 l -94.04255,-0.43995 -94.04256,-0.43994 v 67.75909 c 0,50.43201 0.52232,68.28141 2.04256,69.80165 1.5235,1.5235 20.12292,2.04255 73.19149,2.04255 h 71.14893 z m -0.91384,-13.41923 c 1.50831,-4.75229 18.58149,-20.29349 23.70719,-21.57996 l 4.4407,-1.11454 v -40.60665 c 0,-40.14826 -0.0425,-40.62938 -3.76092,-42.61944 C 566.45326,306.46866 426.74897,305.69283 420,307.90835 l -3.82979,1.25722 v 54.35339 54.35338 h 64.56615 c 61.74359,0 64.61064,-0.14017 65.58384,-3.20646 z"
     id="path60"
     transform="matrix(0.47372375,0,0,0.47372375,0,-66.92)" />
  <path
     style="fill:#5599ff;stroke-width:1.70213"
     d="M 94.468085,198.29787 25.531915,152.34201 H 400 774.46809 l -68.93618,45.95586 -68.93617,45.95586 H 400 163.40426 Z"
     id="path61"
     transform="matrix(0.47372375,0,0,0.47372375,0,-66.92)" />
  <path
     style="fill:#003380;stroke-width:1.70213"
     d="m 206.80851,544.8943 v -9.14825 l 14.04255,-0.76519 c 15.01292,-0.81806 21.14757,-3.13202 32.51633,-12.26503 11.59033,-9.31099 13.75083,-18.86125 5.88065,-25.99482 -2.87757,-2.60824 -7.38481,-3.23992 -28.22071,-3.95505 -17.69819,-0.60745 -24.99778,-1.46012 -25.50041,-2.97873 -0.55455,-1.67546 12.16842,-2.12766 59.86315,-2.12766 h 60.56738 v 33.19149 33.19149 h -59.57447 -59.57447 z"
     id="path62"
     transform="matrix(0.47372375,0,0,0.47372375,0,-66.92)" />
</svg>
