<?xml version="1.0" encoding="UTF-8" standalone="no"?>
<!-- Uploaded to: SVG Repo, www.svgrepo.com, Generator: SVG Repo Mixer Tools -->

<svg
   width="662.12762"
   height="1126.8086"
   viewBox="0 0 52.97021 90.144688"
   version="1.1"
   id="svg4"
   sodipodi:docname="tower-fan.svg"
   inkscape:version="1.3.1 (91b66b0783, 2023-11-16)"
   xmlns:inkscape="http://www.inkscape.org/namespaces/inkscape"
   xmlns:sodipodi="http://sodipodi.sourceforge.net/DTD/sodipodi-0.dtd"
   xmlns="http://www.w3.org/2000/svg"
   xmlns:svg="http://www.w3.org/2000/svg">
  <defs
     id="defs4" />
  <sodipodi:namedview
     id="namedview4"
     pagecolor="#ffffff"
     bordercolor="#000000"
     borderopacity="0.25"
     inkscape:showpageshadow="2"
     inkscape:pageopacity="0.0"
     inkscape:pagecheckerboard="0"
     inkscape:deskcolor="#d1d1d1"
     inkscape:zoom="0.5875"
     inkscape:cx="425.53191"
     inkscape:cy="560.85106"
     inkscape:window-width="1920"
     inkscape:window-height="1027"
     inkscape:window-x="-8"
     inkscape:window-y="-8"
     inkscape:window-maximized="1"
     inkscape:current-layer="svg4">
    <inkscape:page
       x="0"
       y="0"
       width="52.970211"
       height="90.144691"
       id="page4"
       margin="0 0 0"
       bleed="0" />
  </sodipodi:namedview>
  <g
     fill="none"
     fill-rule="evenodd"
     id="g4"
     transform="matrix(0.47243435,0,0,1.9113913,13.444413,-27.578347)">
    <rect
       width="29"
       height="44"
       x="11"
       y="16.530001"
       fill="#595959"
       id="rect2" />
    <rect
       width="20"
       height="1.3679813"
       x="15"
       y="15.162019"
       fill="#979797"
       id="rect3"
       style="stroke-width:0.44207" />
  </g>
  <path
     stroke="#979797"
     stroke-linecap="square"
     stroke-width="1.07414"
     d="m 20.008288,53.677727 h 10.8356 m -10.8356,3.354148 h 10.8356 m -10.8356,3.354146 h 10.8356 m -10.8356,3.354146 h 10.8356 m -10.8356,3.354145 h 10.8356 m -10.8356,3.354148 h 10.8356"
     id="path3-4" />
  <path
     stroke="#979797"
     stroke-linecap="square"
     stroke-width="1.07414"
     d="m 19.872118,34.069216 h 10.8356 m -10.8356,3.354148 h 10.8356 m -10.8356,3.354146 h 10.8356 m -10.8356,3.354146 h 10.8356 m -10.8356,3.354145 h 10.8356 m -10.8356,3.354148 h 10.8356"
     id="path3-1" />
  <path
     style="fill:#000000;stroke-width:0.132354"
     d="m 9.1675287,88.451261 c 0.1733374,-0.482744 0.5748107,-0.76692 1.6539763,-1.170732 1.431354,-0.535597 2.227594,-0.606042 7.322367,-0.647832 l 4.44504,-0.03646 v -4.857268 -4.857267 h 2.891954 2.891955 v 4.857267 4.857268 l 4.445042,0.03646 c 5.123951,0.04203 5.935119,0.115086 7.343635,0.661392 1.094547,0.424531 1.463551,0.68606 1.632711,1.157172 l 0.132625,0.36939 H 25.480866 9.0348935 Z"
     id="path3171" />
  <path
     stroke="#979797"
     stroke-linecap="square"
     stroke-width="1.07414"
     d="m 20.144458,13.916025 h 10.8356 m -10.8356,3.354148 h 10.8356 m -10.8356,3.354146 h 10.8356 m -10.8356,3.354146 h 10.8356 m -10.8356,3.354145 h 10.8356 m -10.8356,3.354148 h 10.8356"
     id="path3" />
  <rect
     style="fill:#003380;stroke-width:0.08"
     id="rect4"
     width="9.8042555"
     height="5.7191491"
     x="20.561701"
     y="6.4000001" />
  <path
     style="fill:#1a1a1a;stroke-width:1.70213"
     d="M 257.02128,115.74468 V 80.851064 h 61.27659 61.2766 v 34.893616 34.89362 h -61.2766 -61.27659 z"
     id="path4"
     transform="scale(0.08)" />
  <path
     style="fill:#666666;stroke-width:1.70213"
     d="M 257.02128,115.74468 V 80.851064 h 61.27659 61.2766 v 34.893616 34.89362 h -61.2766 -61.27659 z"
     id="path7"
     transform="scale(0.08)" />
  <path
     style="fill:#1a1a1a;stroke-width:1.70213"
     d="M 233.19149,565.95745 V 50.212766 h 85.10638 85.10639 V 565.95745 1081.7021 h -23.82979 -23.82979 v -60.4255 -60.42554 h -37.44681 -37.44681 v 60.42554 60.4255 h -23.82978 -23.82979 z m 160,314.04255 v -7.65957 H 318.29787 243.40426 V 880 v 7.65957 h 74.89361 74.89362 z m 0,-40.85106 v -7.65958 h -74.89362 -74.89361 v 7.65958 7.65957 h 74.89361 74.89362 z m 0,-42.5532 v -7.65957 h -74.89362 -74.89361 v 7.65957 7.65958 h 74.89361 74.89362 z m 0,-41.70212 v -6.80851 h -74.89362 -74.89361 v 6.80851 6.80851 h 74.89361 74.89362 z m 0,-41.70213 v -7.65958 h -74.89362 -74.89361 v 7.65958 7.65957 h 74.89361 74.89362 z m 0,-42.55319 v -7.65958 h -74.89362 -74.89361 v 7.65958 7.65957 h 74.89361 74.89362 z m -1.70213,-35.74468 v -7.65958 h -74.89362 -74.89361 v 7.65958 7.65957 h 74.89361 74.89362 z m 0,-40.85107 v -7.65957 h -74.89362 -74.89361 v 7.65957 7.65958 h 74.89361 74.89362 z m 0,-42.55319 v -7.65957 h -74.89362 -74.89361 v 7.65957 7.65958 h 74.89361 74.89362 z m 0,-41.70213 v -6.80851 h -74.89362 -74.89361 v 6.80851 6.80851 h 74.89361 74.89362 z m 0,-41.70212 v -7.65958 h -74.89362 -74.89361 v 7.65958 7.65957 h 74.89361 74.89362 z m 0,-42.5532 v -7.65957 h -74.89362 -74.89361 v 7.65957 7.65958 h 74.89361 74.89362 z m 3.40426,-42.55319 v -7.65957 H 320 245.10638 v 7.65957 7.65958 H 320 394.89362 Z m 0,-40.85106 v -7.65957 H 320 245.10638 v 7.65957 7.65957 H 320 394.89362 Z m 0,-42.55319 v -7.65958 H 320 245.10638 v 7.65958 7.65957 H 320 394.89362 Z m 0,-41.70213 v -6.80851 H 320 245.10638 v 6.80851 6.80851 H 320 394.89362 Z m 0,-41.70213 v -7.65957 H 320 245.10638 v 7.65957 7.65958 H 320 394.89362 Z m 0,-42.55319 v -7.65957 H 320 245.10638 v 7.65957 7.65958 H 320 394.89362 Z M 379.57447,115.74468 V 79.148936 h -61.2766 -61.27659 v 36.595744 36.59575 h 61.27659 61.2766 z"
     id="path8"
     transform="scale(0.08)" />
  <path
     style="fill:#4d4d4d;stroke-width:1.70213"
     d="m 241.70213,551.48936 v -5.95745 h 74.04255 74.04255 v 5.95745 5.95745 h -74.04255 -74.04255 z"
     id="path9"
     transform="scale(0.08)" />
  <path
     style="fill:#4d4d4d;stroke-width:1.70213"
     d="m 241.70213,594.04255 v -5.95744 h 74.04255 74.04255 V 594.04255 600 h -74.04255 -74.04255 z"
     id="path10"
     transform="scale(0.08)" />
  <path
     style="fill:#4d4d4d;stroke-width:1.70213"
     d="m 241.70213,634.89362 v -5.95745 h 74.04255 74.04255 v 5.95745 5.95744 h -74.04255 -74.04255 z"
     id="path11"
     transform="scale(0.08)" />
  <path
     style="fill:#4d4d4d;stroke-width:1.70213"
     d="m 280.54123,677.02267 c 20.89342,-0.27097 54.59554,-0.27065 74.89361,7.1e-4 20.29807,0.27135 3.20346,0.49305 -37.98803,0.49267 -41.19149,-3.9e-4 -57.799,-0.22241 -36.90558,-0.49338 z"
     id="path12"
     transform="scale(0.08)" />
  <path
     style="fill:#4d4d4d;stroke-width:1.70213"
     d="m 243.40426,670.6383 v -5.95745 h 74.04255 74.04255 v 5.95745 5.95744 h -74.04255 -74.04255 z"
     id="path13"
     transform="scale(0.08)" />
  <path
     style="fill:#4d4d4d;stroke-width:1.70213"
     d="m 243.40426,713.19149 v -5.95745 h 74.04255 74.04255 v 5.95745 5.95745 h -74.04255 -74.04255 z"
     id="path14"
     transform="scale(0.08)" />
  <path
     style="fill:#4d4d4d;stroke-width:1.70213"
     d="m 243.40426,754.04255 v -5.95744 h 74.04255 74.04255 V 754.04255 760 h -74.04255 -74.04255 z"
     id="path15"
     transform="scale(0.08)" />
  <path
     style="fill:#4d4d4d;stroke-width:1.70213"
     d="m 243.40426,796.59574 v -5.95744 h 74.04255 74.04255 v 5.95744 5.95745 h -74.04255 -74.04255 z"
     id="path16"
     transform="scale(0.08)" />
  <path
     style="fill:#4d4d4d;stroke-width:1.70213"
     d="m 243.40426,839.14894 v -5.95745 h 74.04255 74.04255 v 5.95745 5.95744 h -74.04255 -74.04255 z"
     id="path17"
     transform="scale(0.08)" />
  <path
     style="fill:#4d4d4d;stroke-width:1.70213"
     d="m 243.40426,880 v -5.95745 h 74.04255 74.04255 V 880 v 5.95745 h -74.04255 -74.04255 z"
     id="path18"
     transform="scale(0.08)" />
  <path
     style="fill:#4d4d4d;stroke-width:1.70213"
     d="m 241.70213,508.93617 v -5.95745 h 74.04255 74.04255 v 5.95745 5.95745 h -74.04255 -74.04255 z"
     id="path19"
     transform="scale(0.08)" />
  <path
     style="fill:#4d4d4d;stroke-width:1.70213"
     d="m 241.70213,468.08511 v -5.95745 h 74.04255 74.04255 v 5.95745 5.95744 h -74.04255 -74.04255 z"
     id="path20"
     transform="scale(0.08)" />
  <path
     style="fill:#4d4d4d;stroke-width:1.70213"
     d="m 241.70213,425.53191 v -5.95744 h 74.04255 74.04255 v 5.95744 5.95745 h -74.04255 -74.04255 z"
     id="path21"
     transform="scale(0.08)" />
  <path
     style="fill:#4d4d4d;stroke-width:1.70213"
     d="m 245.10638,382.97872 v -5.95744 h 74.04256 74.04255 v 5.95744 5.95745 h -74.04255 -74.04256 z"
     id="path22"
     transform="scale(0.08)" />
  <path
     style="fill:#4d4d4d;stroke-width:1.70213"
     d="m 245.10638,342.12766 v -5.95745 h 74.04256 74.04255 v 5.95745 5.95745 h -74.04255 -74.04256 z"
     id="path23"
     transform="scale(0.08)" />
  <path
     style="fill:#4d4d4d;stroke-width:1.70213"
     d="m 245.10638,299.57447 v -5.95745 h 74.04256 74.04255 v 5.95745 5.95744 h -74.04255 -74.04256 z"
     id="path24"
     transform="scale(0.08)" />
  <path
     style="fill:#4d4d4d;stroke-width:1.70213"
     d="m 245.10638,257.02128 v -5.95745 h 74.04256 74.04255 v 5.95745 5.95744 h -74.04255 -74.04256 z"
     id="path25"
     transform="scale(0.08)" />
  <path
     style="fill:#4d4d4d;stroke-width:1.70213"
     d="m 245.10638,216.17021 v -5.95744 h 74.04256 74.04255 v 5.95744 5.95745 h -74.04255 -74.04256 z"
     id="path26"
     transform="scale(0.08)" />
  <path
     style="fill:#4d4d4d;stroke-width:1.70213"
     d="m 245.10638,173.61702 v -5.95745 h 74.04256 74.04255 v 5.95745 5.95745 h -74.04255 -74.04256 z"
     id="path27"
     transform="scale(0.08)" />
</svg>
