<?xml version="1.0" encoding="UTF-8" standalone="no"?>
<!-- Uploaded to: SVG Repo, www.svgrepo.com, Generator: SVG Repo Mixer Tools -->

<svg
   width="800px"
   height="800px"
   viewBox="0 0 24 24"
   version="1.1"
   id="svg7"
   sodipodi:docname="tree-star-off.svg"
   inkscape:version="1.3.1 (91b66b0783, 2023-11-16)"
   xmlns:inkscape="http://www.inkscape.org/namespaces/inkscape"
   xmlns:sodipodi="http://sodipodi.sourceforge.net/DTD/sodipodi-0.dtd"
   xmlns="http://www.w3.org/2000/svg"
   xmlns:svg="http://www.w3.org/2000/svg">
  <defs
     id="defs7" />
  <sodipodi:namedview
     id="namedview7"
     pagecolor="#ffffff"
     bordercolor="#000000"
     borderopacity="0.25"
     inkscape:showpageshadow="2"
     inkscape:pageopacity="0.0"
     inkscape:pagecheckerboard="0"
     inkscape:deskcolor="#d1d1d1"
     inkscape:zoom="0.89571167"
     inkscape:cx="399.68219"
     inkscape:cy="400.2404"
     inkscape:window-width="1920"
     inkscape:window-height="1027"
     inkscape:window-x="-8"
     inkscape:window-y="-8"
     inkscape:window-maximized="1"
     inkscape:current-layer="svg7" />
  <g
     transform="translate(0 -1028.4)"
     id="g7">
    <path
       d="m9.533-0.63623 2.79 6.2779 5.581 0.6976-4.186 3.4877 1.395 6.278-5.58-3.488-5.5804 3.488 1.3951-6.278-4.1853-3.4877 5.5804-0.6976z"
       transform="matrix(1.4336 0 0 1.4336 -1.6665 1029.3)"
       fill="#f39c12"
       id="path1" />
    <g
       fill="#f1c40f"
       id="g6">
      <g
         id="g5">
        <path
           d="m12 0v13l4-4z"
           transform="translate(0 1028.4)"
           id="path2" />
        <path
           d="m12 13 12-3-6 5z"
           transform="translate(0 1028.4)"
           id="path3" />
        <path
           d="m12 13 8 11-8-5z"
           transform="translate(0 1028.4)"
           id="path4" />
        <path
           d="m12 13-8 11 2-9z"
           transform="translate(0 1028.4)"
           id="path5" />
      </g>
      <path
         d="m12 13-12-3 8-1z"
         transform="translate(0 1028.4)"
         id="path6" />
    </g>
  </g>
  <path
     style="fill:#ffeeaa;stroke-width:1.70213"
     d="M 400.05176,217.86415 C 400.0813,95.456849 400.73894,4.5001614 401.58389,5.9574468 402.80823,8.0690524 519.68559,270.47571 529.40823,292.94167 l 3.02258,6.98424 -66.2154,66.19906 L 400,432.32405 Z"
     id="path7"
     transform="scale(0.03)" />
  <path
     style="fill:#ffeeaa;stroke-width:1.70213"
     d="m 500.42553,466.47216 c -96.0066,-32.19304 -97.74255,-32.854 -91.06383,-34.67248 26.85274,-7.31145 382.88438,-95.65223 383.94344,-95.26643 1.23559,0.45012 -191.34637,161.83625 -193.87995,162.47386 -0.62002,0.15604 -45.16987,-14.48469 -98.99966,-32.53495 z"
     id="path8"
     transform="scale(0.03)" />
  <path
     style="fill:#ffeeaa;stroke-width:1.70213"
     d="m 529.3617,713.34563 -128.51064,-80.47557 -0.43937,-99.28575 c -0.24165,-54.60716 -0.15757,-98.96037 0.18686,-98.56269 2.912,3.36226 259.82698,357.5136 259.82698,358.16546 0,0.4705 -0.57447,0.80567 -1.27659,0.7448 -0.70213,-0.0609 -59.10639,-36.32468 -129.78724,-80.58625 z"
     id="path9"
     transform="scale(0.03)" />
  <path
     style="fill:#ffeeaa;stroke-width:1.70213"
     d="m 136.81107,788.83862 c 2.02475,-11.22219 63.71831,-287.80863 64.30762,-288.30587 0.32089,-0.27075 43.86003,-14.88017 96.75365,-32.46536 52.89362,-17.58519 97.16509,-32.33954 98.38104,-32.78744 1.72419,-0.63512 -255.8393,355.30225 -259.6079,358.7626 -0.50978,0.46809 -0.43527,-1.87368 0.16559,-5.20393 z"
     id="path10"
     transform="scale(0.03)" />
  <path
     style="fill:#ffeeaa;stroke-width:1.70213"
     d="M 197.82553,382.38754 3.3106346,333.5967 134.84681,317.12117 l 131.53617,-16.47552 65.52917,65.42186 c 36.04104,35.98202 64.38147,65.35188 62.97873,65.26636 -1.40276,-0.0855 -90.08217,-22.11137 -197.06535,-48.94633 z"
     id="path11"
     transform="scale(0.03)" />
  <path
     style="fill:#ffe680;stroke-width:1.70213"
     d="M 533.61702,615.92264 C 462.46809,518.09211 404.01534,437.38502 403.72203,436.57354 c -0.43002,-1.18969 193.12607,62.24771 195.16287,63.96401 1.00701,0.84856 65.08616,290.53493 64.57638,291.93421 -0.2654,0.7285 -58.69532,-78.7186 -129.84426,-176.54912 z"
     id="path12"
     transform="scale(0.03)" />
  <path
     style="fill:#ffe680;stroke-width:1.70213"
     d="m 139.57447,793.46179 c 0,-0.73415 256.73637,-354.92898 259.80354,-358.42633 C 399.7201,434.64539 400,478.73839 400,533.01991 v 98.69367 l -126.38298,78.91839 c -69.51064,43.40512 -128.10638,80.01722 -130.21276,81.36025 -2.10639,1.34301 -3.82979,2.00432 -3.82979,1.46957 z"
     id="path13"
     transform="scale(0.03)" />
  <path
     style="fill:#ffe680;stroke-width:1.70213"
     d="M 103.95063,418.25947 C 50.516426,373.74053 7.0819037,337.03157 7.4294737,336.684 8.1051959,336.00828 388.58252,430.68554 393.65215,432.79092 c 2.02458,0.8408 -29.08168,11.94571 -94.76728,33.83185 l -97.78113,32.58022 z"
     id="path14"
     transform="scale(0.03)" />
  <path
     style="fill:#ffe680;stroke-width:1.70213"
     d="M 333.37526,365.54039 267.60158,299.57447 333.37526,151.78718 399.14894,3.9998869 399.58721,110.3785 c 0.24105,58.50824 0.24105,154.69718 0,213.75321 l -0.43827,107.37459 z"
     id="path15"
     transform="scale(0.03)" />
  <path
     style="fill:#ffe680;stroke-width:1.70213"
     d="m 468.08785,365.99218 65.52917,-65.49717 131.78695,16.48668 131.78692,16.48669 -195.61671,48.95959 c -107.58921,26.92778 -196.38146,48.9825 -197.31612,49.01049 -0.93466,0.028 27.78875,-29.42283 63.82979,-65.44628 z"
     id="path16"
     transform="scale(0.03)" />
  <path
     style="fill:#f9f9f9;stroke-width:1.70213"
     d="m 400.65987,291.06383 c 0.57198,-76.76596 1.07115,-171.3617 1.10926,-210.212766 0.0594,-60.51381 0.40086,-70.028389 2.38263,-66.382979 1.27233,2.340426 30.41492,67.378705 64.7613,144.529505 l 62.44796,140.27419 -65.87055,65.68327 -65.87056,65.68325 z"
     id="path20"
     transform="scale(0.03)" />
  <path
     style="fill:#f9f9f9;stroke-width:1.70213"
     d="M 511.48936,469.01283 C 411.53469,435.37586 410.21277,434.91156 410.21277,433.4417 c 0,-1.77591 371.88085,-94.29831 375.67877,-93.46729 2.22218,0.48623 -20.20209,19.7243 -121.05588,103.85538 -35.63152,29.7234 -65.56204,53.9932 -66.51226,53.93289 -0.95021,-0.0603 -40.02553,-12.99774 -86.83404,-28.74985 z"
     id="path21"
     transform="scale(0.03)" />
  <path
     style="fill:#f9f9f9;stroke-width:1.70213"
     d="M 529.49944,712.31021 C 460.76669,669.3209 403.88791,633.50492 403.10215,632.71917 c -0.78576,-0.78576 -1.23073,-44.66051 -0.98881,-97.49945 l 0.43985,-96.07078 63.11632,86.80851 c 62.33034,85.7275 180.16433,248.41578 187.69978,259.14893 2.13609,3.04256 3.25718,5.49464 2.49129,5.44908 -0.76587,-0.0456 -57.62838,-35.25594 -126.36114,-78.24525 z"
     id="path22"
     transform="scale(0.03)" />
  <path
     style="fill:#f9f9f9;stroke-width:1.70213"
     d="m 137.93355,788.4279 c -0.0337,-0.74763 13.83725,-63.55614 30.82426,-139.57447 16.98701,-76.01832 31.23878,-140.28489 31.67061,-142.8146 0.76138,-4.46031 3.66668,-5.55998 96.02946,-36.34748 52.38437,-17.46141 95.48302,-31.47676 95.77478,-31.14522 0.29177,0.33154 -5.26774,8.64536 -12.35446,18.47515 -7.08673,9.82978 -34.68276,48.12766 -61.32451,85.10638 -65.42339,90.80759 -171.17345,236.25014 -176.35838,242.55319 -2.3103,2.80851 -4.22809,4.49469 -4.26176,3.74705 z"
     id="path23"
     transform="scale(0.03)" />
  <path
     style="fill:#f9f9f9;stroke-width:1.70213"
     d="M 200.32904,382.16007 C 96.595105,356.13538 11.431416,334.55198 11.07639,334.19696 10.721364,333.84193 67.914141,326.37933 138.17145,317.6134 l 127.74057,-15.93806 57.79348,57.67297 c 54.65792,54.54395 69.92265,70.64092 66.6503,70.28415 -0.7808,-0.0851 -86.29284,-21.4477 -190.02676,-47.47239 z"
     id="path24"
     transform="scale(0.03)" />
  <path
     style="fill:#ececec;stroke-width:1.70213"
     d="M 131.91489,440.57693 C 17.448601,344.61652 12.665491,340.49059 15.320716,340.00249 c 2.662893,-0.48951 370.027144,90.64622 373.135964,92.56758 0.97702,0.60384 -2.57358,2.86765 -7.89026,5.03071 -11.23513,4.57095 -177.38416,60.32476 -179.28776,60.16271 -0.70326,-0.0599 -31.91696,-25.79382 -69.36377,-57.18656 z"
     id="path25"
     transform="scale(0.03)" />
  <path
     style="fill:#ececec;stroke-width:1.70213"
     d="M 333.049,363.68768 268.65119,299.27283 333.049,154.66364 397.44681,10.054453 397.88532,114.38893 c 0.24119,57.38396 0.24119,151.44477 0,209.02402 l -0.43851,104.68955 z"
     id="path26"
     transform="scale(0.03)" />
  <path
     style="fill:#ececec;stroke-width:1.70213"
     d="m 470.09135,365.74804 64.1339,-64.22297 128.63975,15.89644 c 70.75187,8.74303 128.42531,16.11087 128.16322,16.37296 -0.43157,0.43157 -370.78021,93.06305 -380.81545,95.24943 -2.89223,0.63013 16.28855,-19.64529 59.87858,-63.29586 z"
     id="path27"
     transform="scale(0.03)" />
  <path
     style="fill:#ececec;stroke-width:1.70213"
     d="M 633.89523,751.43643 C 583.65164,683.19796 491.91781,557.1387 411.68425,446.07741 c -2.65759,-3.6787 -4.59377,-6.92676 -4.30262,-7.2179 0.594,-0.59401 -3.49619,-1.90583 106.66092,34.20866 44.46809,14.57865 81.70113,27.08102 82.74007,27.78306 2.59137,1.75103 64.25061,277.60343 63.24026,282.92562 -0.26106,1.37513 -12.01849,-13.17806 -26.12765,-32.34042 z"
     id="path28"
     transform="scale(0.03)" />
  <path
     style="fill:#ececec;stroke-width:1.70213"
     d="m 145.77691,786.80851 c 3.10674,-5.09658 167.59587,-232.46663 233.65649,-322.97872 l 18.01341,-24.68085 0.90396,37.4468 c 0.49718,20.59575 0.88016,63.79848 0.85107,96.00608 l -0.0529,58.55927 -125.95745,78.82357 c -69.2766,43.35297 -126.57712,78.85238 -127.3345,78.88754 -0.75738,0.0352 -0.79341,-0.89348 -0.0801,-2.06369 z"
     id="path29"
     transform="scale(0.03)" />
  <path
     style="fill:#ececec;stroke-width:1.70213"
     d=""
     id="path30"
     transform="scale(0.03)" />
  <path
     style="fill:#ececec;stroke-width:0.488499"
     d=""
     id="path32"
     transform="scale(0.03)" />
  <path
     style="fill:#ececec;stroke-width:0.488499"
     d="m 413.00375,420.43623 c 6.97337,-7.01066 12.78832,-12.6372 12.9221,-12.50342 0.13379,0.13378 -3.27201,3.80747 -7.56843,8.16376 -13.56365,13.75264 -14.75101,15.10114 -13.63978,15.49094 0.77136,0.27058 0.59238,0.40811 -0.89397,0.68695 -1.02213,0.19176 -2.2275,0.4746 -2.6786,0.62854 -0.4511,0.15394 4.88531,-5.4561 11.85868,-12.46677 z"
     id="path33"
     transform="scale(0.03)" />
  <path
     style="fill:#ececec;stroke-width:0.488499"
     d="m 410.33912,428.42438 c 0,-1.66098 28.09752,-30.61596 79.7207,-82.15356 l 44.60228,-44.52834 48.84989,6.05301 c 157.92919,19.56907 205.41381,25.59814 205.41381,26.08119 0,0.158 -2.69285,0.96573 -5.98411,1.79495 -117.23267,29.53629 -371.26369,92.9862 -372.28392,92.9862 -0.17526,0 -0.31865,-0.10505 -0.31865,-0.23345 z"
     id="path34"
     transform="scale(0.03)" />
  <path
     style="fill:#ececec;stroke-width:0.488499"
     d="m 406.43119,429.26845 c 3.78738,-4.85495 126.67789,-128.59735 127.71204,-128.59735 0.2964,0 -11.96071,12.47504 -27.23803,27.72232 -50.82878,50.72879 -89.60669,90.44135 -95.10519,97.39747 -2.24425,2.83919 -2.36921,3.33875 -0.85027,3.39912 1.21408,0.0483 -3.25248,1.39732 -4.67619,1.41239 -0.8225,0.009 -0.81049,-0.0929 0.15764,-1.33395 z"
     id="path35"
     transform="scale(0.03)" />
  <path
     style="fill:#ececec;stroke-width:0.488499"
     d=""
     id="path36"
     transform="scale(0.03)" />
  <path
     style="fill:#ececec;stroke-width:0.488499"
     d=""
     id="path37"
     transform="scale(0.03)" />
  <path
     style="fill:#ececec;stroke-width:0.488499"
     d="m 399.63071,431.30386 c 0.0234,-0.56907 0.13919,-0.68482 0.29513,-0.29513 0.14111,0.35263 0.12376,0.77396 -0.0386,0.93629 -0.16232,0.16232 -0.27778,-0.1262 -0.25656,-0.64116 z"
     id="path38"
     transform="scale(0.03)" />
  <path
     style="fill:#ececec;stroke-width:0.488499"
     d="m 372.48045,441.8272 c 0.53735,-0.24335 4.49419,-1.74724 8.79298,-3.34196 9.18392,-3.40696 12.45672,-4.82915 12.45672,-5.41307 0,-0.23372 -0.60451,-0.64572 -1.34337,-0.91558 -2.20499,-0.80533 -0.12557,-0.60917 3.54162,0.3341 l 3.41949,0.87956 -13.43388,4.48277 c -12.01316,4.0087 -16.32902,5.2855 -13.43356,3.97418 z"
     id="path39"
     transform="scale(0.03)" />
  <path
     style="fill:#ececec;stroke-width:0.488499"
     d="m 200.95043,502.38923 c 0.17672,-0.88362 0.39152,-1.67677 0.47732,-1.76258 0.36082,-0.36081 193.46911,-64.61446 193.64976,-64.43381 0.10898,0.10898 -1.05474,1.98617 -2.58605,4.17152 -3.05327,4.35734 -4.11379,5.03972 -1.63483,1.05191 0.85827,-1.38068 1.42775,-2.64307 1.2655,-2.80532 -0.53368,-0.53369 -49.28186,15.30152 -120.27247,39.06893 -51.81371,17.34705 -64.7067,22.00525 -69.2765,25.0294 l -1.94404,1.28651 z"
     id="path40"
     transform="scale(0.03)" />
  <path
     style="fill:#ececec;stroke-width:0.488499"
     d=""
     id="path43"
     transform="scale(0.03)" />
  <path
     style="fill:#ececec;stroke-width:0.488499"
     d=""
     id="path44"
     transform="scale(0.03)" />
</svg>
