<?xml version="1.0" encoding="UTF-8" standalone="no"?>
<!-- Generator: Adobe Illustrator 18.0.0, SVG Export Plug-In . SVG Version: 6.00 Build 0)  -->

<svg
   version="1.1"
   id="Capa_1"
   x="0px"
   y="0px"
   viewBox="0 0 395.707 395.707"
   style="enable-background:new 0 0 395.707 395.707;"
   xml:space="preserve"
   sodipodi:docname="tree-lamp3-white.svg"
   inkscape:version="1.2 (dc2aedaf03, 2022-05-15)"
   xmlns:inkscape="http://www.inkscape.org/namespaces/inkscape"
   xmlns:sodipodi="http://sodipodi.sourceforge.net/DTD/sodipodi-0.dtd"
   xmlns="http://www.w3.org/2000/svg"
   xmlns:svg="http://www.w3.org/2000/svg"><defs
   id="defs650" /><sodipodi:namedview
   id="namedview648"
   pagecolor="#ffffff"
   bordercolor="#000000"
   borderopacity="0.25"
   inkscape:showpageshadow="2"
   inkscape:pageopacity="0.0"
   inkscape:pagecheckerboard="0"
   inkscape:deskcolor="#d1d1d1"
   showgrid="false"
   inkscape:zoom="2.1404726"
   inkscape:cx="198.08709"
   inkscape:cy="198.08709"
   inkscape:window-width="1920"
   inkscape:window-height="1027"
   inkscape:window-x="-8"
   inkscape:window-y="-8"
   inkscape:window-maximized="1"
   inkscape:current-layer="Capa_1" />
<g
   id="g615"
   style="fill:#ffffff">
	<path
   d="M228.437,370.446c0,0-0.43-0.115-1.221-0.318l-13.693-123.584c-2.004-17.074-0.768-33.674,4.438-49.889   c3.458-10.773,8.466-20.947,15.541-29.824c3.206-4.021,6.802-7.768,10.761-11.053c0.798-0.662,6.862-4.275,6.862-4.893   c0,0.018-11.134,4.527-12.029,5.006c-5.668,3.033-10.762,6.814-15.695,10.908c-6.254,5.703-11.791,11.887-16.639,18.721   l-9.039-81.582l-8.926,81.248c-5.262-7.41-11.309-14.143-18.33-20c-4.855-4.053-10.203-7.504-15.836-10.369   c-0.829-0.414-9.966-3.84-9.966-3.932c0,0.678,7.505,5.416,8.425,6.232c3.861,3.475,7.439,7.281,10.539,11.455   c6.527,8.262,11.002,18.119,14.201,28.082c4.826,15.039,6.107,30.482,4.629,46.232l-12.745,116.02   c-11.337-1.34-22.081-1.836-29.825-0.563c-16.778,2.76-38.275,13.066-42.713,31.344c27.801-23.406,71.125-7.519,101.879,0.684   c18.406,4.91,37.916,7.203,56.768,3.514c16.701-3.252,38.229-13.139,42.709-31.395C279.556,378.261,257.82,377.72,228.437,370.446z   "
   id="path593"
   style="fill:#ffffff" />
	<path
   d="M198.229,1.142C197.357,0.38,196.272,0,195.186,0c-1.085,0-2.171,0.38-3.043,1.141   c-3.232,2.82-31.545,28.108-30.482,47.447c0.307,5.587,3.006,10.305,7.806,13.642c2.45,1.704,5.146,2.568,8.015,2.568   c4.867,0,9.215-2.512,12.707-4.529c1.637-0.945,4.109-2.374,4.997-2.374c0.887,0,3.358,1.429,4.994,2.373   c3.493,2.019,7.842,4.53,12.709,4.53c2.868,0,5.564-0.864,8.016-2.568c4.8-3.337,7.499-8.055,7.806-13.643   C229.773,29.249,201.462,3.961,198.229,1.142z"
   id="path595"
   style="fill:#ffffff" />
	<g
   id="g601"
   style="fill:#ffffff">
		<path
   d="M267.238,156.136c-0.762,0.873-1.142,1.957-1.142,3.043c0,1.086,0.38,2.172,1.141,3.043    c2.82,3.232,28.108,31.545,47.447,30.482c5.587-0.307,10.305-3.006,13.643-7.807c1.704-2.449,2.568-5.146,2.568-8.014    c0-4.867-2.512-9.215-4.53-12.707c-0.944-1.637-2.373-4.109-2.373-4.998c0-0.887,1.428-3.357,2.373-4.994    c2.017-3.492,4.53-7.841,4.53-12.708c0-2.868-0.864-5.564-2.568-8.016c-3.338-4.8-8.056-7.499-13.643-7.806    C295.345,124.593,270.057,152.903,267.238,156.136z"
   id="path597"
   style="fill:#ffffff" />
		<path
   d="M128.469,156.136c0.762,0.873,1.142,1.957,1.142,3.043c0,1.086-0.38,2.172-1.141,3.043    c-2.82,3.232-28.108,31.545-47.447,30.482c-5.587-0.307-10.305-3.006-13.643-7.807c-1.704-2.449-2.568-5.146-2.568-8.014    c0-4.867,2.512-9.215,4.53-12.707c0.944-1.637,2.373-4.109,2.373-4.998c0-0.887-1.428-3.357-2.373-4.994    c-2.018-3.492-4.53-7.841-4.53-12.708c0-2.868,0.864-5.564,2.568-8.016c3.338-4.8,8.056-7.499,13.643-7.806    C100.361,124.593,125.649,152.903,128.469,156.136z"
   id="path599"
   style="fill:#ffffff" />
	</g>
	<g
   id="g607"
   style="fill:#ffffff">
		<path
   d="M241.239,196.317c-1.616,0.109-3.068,0.809-4.144,1.883c-1.074,1.074-1.772,2.525-1.883,4.143    c-0.406,5.992-3.402,59.068,16.799,77.168c5.837,5.228,13.182,7.227,21.239,5.779c4.115-0.74,7.64-2.553,10.48-5.395    c4.82-4.818,6.638-11.611,8.098-17.068c0.685-2.557,1.719-6.42,2.597-7.297c0.878-0.879,4.74-1.914,7.295-2.596    c5.458-1.463,12.252-3.279,17.071-8.1c2.841-2.842,4.654-6.365,5.394-10.48c1.449-8.059-0.55-15.402-5.779-21.238    C300.308,192.913,247.231,195.909,241.239,196.317z"
   id="path603"
   style="fill:#ffffff" />
		<path
   d="M155.158,110.238c-0.108,1.618-0.807,3.068-1.882,4.144c-1.074,1.074-2.525,1.772-4.143,1.885    c-5.992,0.406-59.069,3.4-77.167-16.801c-5.229-5.836-7.227-13.181-5.78-21.238c0.74-4.114,2.553-7.639,5.395-10.48    c4.819-4.819,11.611-6.638,17.069-8.097c2.556-0.686,6.418-1.72,7.297-2.598s1.913-4.74,2.595-7.295    c1.462-5.458,3.279-12.251,8.099-17.071c2.841-2.841,6.366-4.654,10.48-5.394c8.06-1.448,15.404,0.551,21.24,5.779    C158.562,51.17,155.568,104.247,155.158,110.238z"
   id="path605"
   style="fill:#ffffff" />
	</g>
	<g
   id="g613"
   style="fill:#ffffff">
		<path
   d="M151.801,196.317c1.616,0.109,3.068,0.809,4.144,1.883c1.074,1.074,1.772,2.525,1.883,4.143    c0.406,5.992,3.402,59.068-16.799,77.168c-5.837,5.228-13.182,7.227-21.239,5.779c-4.115-0.74-7.64-2.553-10.48-5.395    c-4.82-4.818-6.638-11.611-8.098-17.068c-0.685-2.557-1.719-6.42-2.597-7.297c-0.878-0.879-4.74-1.914-7.295-2.596    c-5.458-1.463-12.251-3.279-17.071-8.1c-2.841-2.842-4.654-6.365-5.394-10.48c-1.449-8.059,0.55-15.402,5.779-21.238    C92.731,192.913,145.808,195.909,151.801,196.317z"
   id="path609"
   style="fill:#ffffff" />
		<path
   d="M237.881,110.238c0.108,1.618,0.807,3.068,1.882,4.144c1.074,1.074,2.525,1.772,4.143,1.885    c5.992,0.406,59.069,3.4,77.167-16.801c5.229-5.836,7.227-13.181,5.78-21.238c-0.74-4.114-2.553-7.639-5.395-10.48    c-4.819-4.819-11.611-6.638-17.069-8.097c-2.556-0.686-6.419-1.72-7.297-2.598c-0.878-0.878-1.913-4.74-2.595-7.295    c-1.462-5.458-3.279-12.251-8.099-17.071c-2.841-2.841-6.366-4.654-10.48-5.394c-8.06-1.448-15.404,0.551-21.24,5.779    C234.477,51.17,237.471,104.247,237.881,110.238z"
   id="path611"
   style="fill:#ffffff" />
	</g>
</g>
<g
   id="g617">
</g>
<g
   id="g619">
</g>
<g
   id="g621">
</g>
<g
   id="g623">
</g>
<g
   id="g625">
</g>
<g
   id="g627">
</g>
<g
   id="g629">
</g>
<g
   id="g631">
</g>
<g
   id="g633">
</g>
<g
   id="g635">
</g>
<g
   id="g637">
</g>
<g
   id="g639">
</g>
<g
   id="g641">
</g>
<g
   id="g643">
</g>
<g
   id="g645">
</g>
</svg>
