<?xml version="1.0" encoding="UTF-8" standalone="no"?>
<!-- Uploaded to: SVG Repo, www.svgrepo.com, Generator: SVG Repo Mixer Tools -->

<svg
   width="800px"
   height="800px"
   viewBox="0 0 24 24"
   version="1.1"
   id="svg7"
   sodipodi:docname="tree-star-onr.svg"
   inkscape:version="1.3.1 (91b66b0783, 2023-11-16)"
   xmlns:inkscape="http://www.inkscape.org/namespaces/inkscape"
   xmlns:sodipodi="http://sodipodi.sourceforge.net/DTD/sodipodi-0.dtd"
   xmlns="http://www.w3.org/2000/svg"
   xmlns:svg="http://www.w3.org/2000/svg">
  <defs
     id="defs7" />
  <sodipodi:namedview
     id="namedview7"
     pagecolor="#ffffff"
     bordercolor="#000000"
     borderopacity="0.25"
     inkscape:showpageshadow="2"
     inkscape:pageopacity="0.0"
     inkscape:pagecheckerboard="0"
     inkscape:deskcolor="#d1d1d1"
     inkscape:zoom="0.5875"
     inkscape:cx="400"
     inkscape:cy="399.14894"
     inkscape:window-width="1920"
     inkscape:window-height="1027"
     inkscape:window-x="-8"
     inkscape:window-y="-8"
     inkscape:window-maximized="1"
     inkscape:current-layer="svg7" />
  <g
     transform="translate(0 -1028.4)"
     id="g7">
    <path
       d="m9.533-0.63623 2.79 6.2779 5.581 0.6976-4.186 3.4877 1.395 6.278-5.58-3.488-5.5804 3.488 1.3951-6.278-4.1853-3.4877 5.5804-0.6976z"
       transform="matrix(1.4336 0 0 1.4336 -1.6665 1029.3)"
       fill="#f39c12"
       id="path1" />
    <g
       fill="#f1c40f"
       id="g6">
      <g
         id="g5">
        <path
           d="m12 0v13l4-4z"
           transform="translate(0 1028.4)"
           id="path2" />
        <path
           d="m12 13 12-3-6 5z"
           transform="translate(0 1028.4)"
           id="path3" />
        <path
           d="m12 13 8 11-8-5z"
           transform="translate(0 1028.4)"
           id="path4" />
        <path
           d="m12 13-8 11 2-9z"
           transform="translate(0 1028.4)"
           id="path5" />
      </g>
      <path
         d="m12 13-12-3 8-1z"
         transform="translate(0 1028.4)"
         id="path6" />
    </g>
  </g>
  <path
     style="fill:#ffeeaa;stroke-width:1.70213"
     d="M 400.05176,217.86415 C 400.0813,95.456849 400.73894,4.5001614 401.58389,5.9574468 402.80823,8.0690524 519.68559,270.47571 529.40823,292.94167 l 3.02258,6.98424 -66.2154,66.19906 L 400,432.32405 Z"
     id="path7"
     transform="scale(0.03)" />
  <path
     style="fill:#ffeeaa;stroke-width:1.70213"
     d="m 500.42553,466.47216 c -96.0066,-32.19304 -97.74255,-32.854 -91.06383,-34.67248 26.85274,-7.31145 382.88438,-95.65223 383.94344,-95.26643 1.23559,0.45012 -191.34637,161.83625 -193.87995,162.47386 -0.62002,0.15604 -45.16987,-14.48469 -98.99966,-32.53495 z"
     id="path8"
     transform="scale(0.03)" />
  <path
     style="fill:#ffeeaa;stroke-width:1.70213"
     d="m 529.3617,713.34563 -128.51064,-80.47557 -0.43937,-99.28575 c -0.24165,-54.60716 -0.15757,-98.96037 0.18686,-98.56269 2.912,3.36226 259.82698,357.5136 259.82698,358.16546 0,0.4705 -0.57447,0.80567 -1.27659,0.7448 -0.70213,-0.0609 -59.10639,-36.32468 -129.78724,-80.58625 z"
     id="path9"
     transform="scale(0.03)" />
  <path
     style="fill:#ffeeaa;stroke-width:1.70213"
     d="m 136.81107,788.83862 c 2.02475,-11.22219 63.71831,-287.80863 64.30762,-288.30587 0.32089,-0.27075 43.86003,-14.88017 96.75365,-32.46536 52.89362,-17.58519 97.16509,-32.33954 98.38104,-32.78744 1.72419,-0.63512 -255.8393,355.30225 -259.6079,358.7626 -0.50978,0.46809 -0.43527,-1.87368 0.16559,-5.20393 z"
     id="path10"
     transform="scale(0.03)" />
  <path
     style="fill:#ffeeaa;stroke-width:1.70213"
     d="M 197.82553,382.38754 3.3106346,333.5967 134.84681,317.12117 l 131.53617,-16.47552 65.52917,65.42186 c 36.04104,35.98202 64.38147,65.35188 62.97873,65.26636 -1.40276,-0.0855 -90.08217,-22.11137 -197.06535,-48.94633 z"
     id="path11"
     transform="scale(0.03)" />
  <path
     style="fill:#ffe680;stroke-width:1.70213"
     d="M 533.61702,615.92264 C 462.46809,518.09211 404.01534,437.38502 403.72203,436.57354 c -0.43002,-1.18969 193.12607,62.24771 195.16287,63.96401 1.00701,0.84856 65.08616,290.53493 64.57638,291.93421 -0.2654,0.7285 -58.69532,-78.7186 -129.84426,-176.54912 z"
     id="path12"
     transform="scale(0.03)" />
  <path
     style="fill:#ffe680;stroke-width:1.70213"
     d="m 139.57447,793.46179 c 0,-0.73415 256.73637,-354.92898 259.80354,-358.42633 C 399.7201,434.64539 400,478.73839 400,533.01991 v 98.69367 l -126.38298,78.91839 c -69.51064,43.40512 -128.10638,80.01722 -130.21276,81.36025 -2.10639,1.34301 -3.82979,2.00432 -3.82979,1.46957 z"
     id="path13"
     transform="scale(0.03)" />
  <path
     style="fill:#ffe680;stroke-width:1.70213"
     d="M 103.95063,418.25947 C 50.516426,373.74053 7.0819037,337.03157 7.4294737,336.684 8.1051959,336.00828 388.58252,430.68554 393.65215,432.79092 c 2.02458,0.8408 -29.08168,11.94571 -94.76728,33.83185 l -97.78113,32.58022 z"
     id="path14"
     transform="scale(0.03)" />
  <path
     style="fill:#ffe680;stroke-width:1.70213"
     d="M 333.37526,365.54039 267.60158,299.57447 333.37526,151.78718 399.14894,3.9998869 399.58721,110.3785 c 0.24105,58.50824 0.24105,154.69718 0,213.75321 l -0.43827,107.37459 z"
     id="path15"
     transform="scale(0.03)" />
  <path
     style="fill:#ffe680;stroke-width:1.70213"
     d="m 468.08785,365.99218 65.52917,-65.49717 131.78695,16.48668 131.78692,16.48669 -195.61671,48.95959 c -107.58921,26.92778 -196.38146,48.9825 -197.31612,49.01049 -0.93466,0.028 27.78875,-29.42283 63.82979,-65.44628 z"
     id="path16"
     transform="scale(0.03)" />
</svg>
