<?xml version="1.0" encoding="UTF-8" standalone="no"?>
<!-- Uploaded to: SVG Repo, www.svgrepo.com, Generator: SVG Repo Mixer Tools -->

<svg
   height="800px"
   width="800px"
   version="1.1"
   id="Layer_1"
   viewBox="0 0 512 512"
   xml:space="preserve"
   sodipodi:docname="umbrella-down.svg"
   inkscape:version="1.3.2 (091e20e, 2023-11-25, custom)"
   xmlns:inkscape="http://www.inkscape.org/namespaces/inkscape"
   xmlns:sodipodi="http://sodipodi.sourceforge.net/DTD/sodipodi-0.dtd"
   xmlns="http://www.w3.org/2000/svg"
   xmlns:svg="http://www.w3.org/2000/svg"><defs
   id="defs2" /><sodipodi:namedview
   id="namedview2"
   pagecolor="#ffffff"
   bordercolor="#000000"
   borderopacity="0.25"
   inkscape:showpageshadow="2"
   inkscape:pageopacity="0.0"
   inkscape:pagecheckerboard="0"
   inkscape:deskcolor="#d1d1d1"
   inkscape:zoom="1.01625"
   inkscape:cx="401.96802"
   inkscape:cy="400"
   inkscape:window-width="1920"
   inkscape:window-height="1009"
   inkscape:window-x="-8"
   inkscape:window-y="-8"
   inkscape:window-maximized="1"
   inkscape:current-layer="Layer_1" />
<path
   style="fill:#decd87;stroke-width:0.892861"
   d="m 258.24847,15.721625 c 0,25.601335 33.099,138.529745 33.099,197.898945 0,46.17631 -8.275,65.96604 -8.275,65.96604 l 8.275,32.98343 h -66.198 l 8.275,-32.98343 c 0,0 -8.275,-19.78973 -8.275,-65.96604 0,-59.3692 33.099,-172.296814 33.099,-197.898945 z"
   id="path1" />
<path
   id="path2"
   style="stroke-width:0.852341;fill:#483e37"
   d="m 256.98742,3.1488311 c -4.284,0 -7.7575,2.521805 -7.7575,5.635503 V 38.842967 c 0,8.762087 -5.2658,30.789035 -11.36375,56.294345 -9.68395,40.500558 -21.735,90.906808 -21.735,124.049588 0,36.24269 6.04775,55.12071 8.04875,60.3746 l -7.89875,28.6933 c -0.455,1.65566 0.13325,3.37187 1.60625,4.67809 1.474,1.30549 3.676,2.06204 6,2.06204 h 25.345 v 39.05297 c 2.23122,-0.19394 4.5247,-0.10778 6.71125,-0.11238 2.93845,-0.0254 5.87124,0.11507 8.80375,0.26296 v -39.20355 h 25.34 c 2.324,0 4.526,-0.7584 6,-2.06316 1.473,-1.30549 2.06325,-3.02171 1.60625,-4.67809 l -7.89875,-28.6933 c 2.002,-5.25317 8.05,-24.13079 8.05,-60.37348 0,-33.14278 -12.05105,-83.54903 -21.735,-124.049588 -6.09795,-25.50531 -11.36375,-47.531531 -11.36375,-56.294345 V 8.7843341 c 0,-3.112972 -3.47375,-5.635503 -7.75875,-5.635503 z m 7.76,110.3974089 c 8.62595,36.57543 17.585,77.75573 17.585,105.63954 0,29.79082 -4.25275,47.29026 -6.50875,54.47951 h -37.66625 c -2.259,-7.1994 -6.50875,-24.69813 -6.50875,-54.47951 -0.001,-27.88381 8.9568,-69.06372 17.58375,-105.63842 v 141.70788 c 0,3.11299 3.4725,5.6355 7.7575,5.6355 4.284,0 7.7575,-2.52178 7.7575,-5.6355 z m -26.2225,171.39118 h 36.92875 l 5.1725,18.78538 h -47.27375 z m -28.0875,50.4105 c 0.11155,0.0699 0.21942,0.12168 0.31,0.15844 0.0157,-0.01 0.0331,-0.0172 0.0487,-0.027 -0.0781,-0.0331 -0.15571,-0.0664 -0.3175,-0.12024 -0.0243,-0.008 -0.0195,-0.004 -0.0412,-0.0112 z m -0.0975,10.58553 c -0.19318,-0.0979 0.33049,0.23827 0.59125,0.24722 -0.19952,-0.0784 -0.40178,-0.15117 -0.59125,-0.24722 z m 10.29625,4.71966 c -0.0199,0.004 -0.0388,0.008 -0.0575,0.0124 0.0769,0.12441 0.1472,0.25229 0.2225,0.37757 -0.0606,-0.12808 -0.10307,-0.2623 -0.165,-0.38994 z m 36.555,16.56152 c -0.0124,0.0177 -0.0424,0.0621 -0.055,0.0798 0.12043,0.10568 0.23968,0.17794 0.34375,0.13597 0.0969,-0.0391 -0.15765,-0.129 -0.23625,-0.19328 -0.0115,-0.008 -0.0379,-0.0146 -0.0525,-0.0225 z" />
<rect
   style="fill:#483e37;stroke-width:0.35968"
   id="rect8"
   width="15.114391"
   height="144.21649"
   x="249.38747"
   y="353.29892" /></svg>
