<?xml version="1.0" encoding="UTF-8" standalone="no"?>
<!-- Generator: Adobe Illustrator 18.0.0, SVG Export Plug-In . SVG Version: 6.00 Build 0)  -->

<svg
   version="1.1"
   id="Capa_1"
   x="0px"
   y="0px"
   viewBox="0 0 59.858322 64.746162"
   xml:space="preserve"
   sodipodi:docname="under-cabienet-on.svg"
   width="59.858322"
   height="64.746162"
   inkscape:version="1.2 (dc2aedaf03, 2022-05-15)"
   xmlns:inkscape="http://www.inkscape.org/namespaces/inkscape"
   xmlns:sodipodi="http://sodipodi.sourceforge.net/DTD/sodipodi-0.dtd"
   xmlns="http://www.w3.org/2000/svg"
   xmlns:svg="http://www.w3.org/2000/svg"><defs
   id="defs1594" /><sodipodi:namedview
   id="namedview1592"
   pagecolor="#ffffff"
   bordercolor="#000000"
   borderopacity="0.25"
   inkscape:showpageshadow="2"
   inkscape:pageopacity="0.0"
   inkscape:pagecheckerboard="0"
   inkscape:deskcolor="#d1d1d1"
   showgrid="false"
   inkscape:zoom="14.116667"
   inkscape:cx="24.793388"
   inkscape:cy="46.96576"
   inkscape:window-width="1920"
   inkscape:window-height="1027"
   inkscape:window-x="-8"
   inkscape:window-y="-8"
   inkscape:window-maximized="1"
   inkscape:current-layer="Capa_1" />

<rect
   x="3.8583236"
   y="4"
   style="fill:#e9e9e7"
   width="52"
   height="49"
   id="rect1553" />
<rect
   x="29.876324"
   y="4"
   style="fill:#d3d3d1"
   width="25.982"
   height="49"
   id="rect1555" />
<line
   style="fill:none;stroke:#afb6bb;stroke-width:2;stroke-linecap:round;stroke-miterlimit:10"
   x1="33.858322"
   y1="26"
   x2="33.858322"
   y2="31"
   id="line1557" />
<line
   style="fill:none;stroke:#afb6bb;stroke-width:2;stroke-linecap:round;stroke-miterlimit:10"
   x1="25.858324"
   y1="26"
   x2="25.858324"
   y2="31"
   id="line1559" />
<g
   id="g1561"
   transform="translate(-0.14167651)">
</g>
<g
   id="g1563"
   transform="translate(-0.14167651)">
</g>
<g
   id="g1565"
   transform="translate(-0.14167651)">
</g>
<g
   id="g1567"
   transform="translate(-0.14167651)">
</g>
<g
   id="g1569"
   transform="translate(-0.14167651)">
</g>
<g
   id="g1571"
   transform="translate(-0.14167651)">
</g>
<g
   id="g1573"
   transform="translate(-0.14167651)">
</g>
<g
   id="g1575"
   transform="translate(-0.14167651)">
</g>
<g
   id="g1577"
   transform="translate(-0.14167651)">
</g>
<g
   id="g1579"
   transform="translate(-0.14167651)">
</g>
<g
   id="g1581"
   transform="translate(-0.14167651)">
</g>
<g
   id="g1583"
   transform="translate(-0.14167651)">
</g>
<g
   id="g1585"
   transform="translate(-0.14167651)">
</g>
<g
   id="g1587"
   transform="translate(-0.14167651)">
</g>
<g
   id="g1589"
   transform="translate(-0.14167651)">
</g>
<path
   style="fill:#e6e6e6;stroke-width:0.0708383"
   d="M 1.9126328,30 V 2.0188902 H 29.858323 57.804014 V 30 57.98111 H 57.343565 56.883116 V 56.458087 54.935065 H 29.858323 2.8335301 v 1.523022 1.523023 H 2.3730815 1.9126328 Z M 55.873773,28.494687 55.855962,3.9669421 H 29.858323 3.8606848 L 3.842874,28.494687 3.8250633,53.022432 h 26.0332597 26.03326 z"
   id="path1667" /><path
   style="fill:#ffe680;stroke-width:0.0627379"
   d="m 11.352998,55.608027 v -0.83117 h 18.505316 18.505317 v 0.83117 0.831171 H 29.858314 11.352998 Z"
   id="path1864" /><g
   id="g11568"
   transform="matrix(0.18169959,0,0,0.07835636,-15.877648,24.41224)"
   style="fill:#ffdd55">
	<path
   style="fill:#ffdd55"
   d="m 256,512 c -9.223,0 -16.696,-7.473 -16.696,-16.696 v -33.391 c 0,-9.223 7.473,-16.696 16.696,-16.696 9.223,0 16.696,7.473 16.696,16.696 v 33.391 C 272.696,504.527 265.223,512 256,512 Z"
   id="path11562" />
	<path
   style="fill:#ffdd55"
   d="m 338.641,477.772 c -4.272,0 -8.544,-1.631 -11.804,-4.892 l -23.614,-23.614 c -6.521,-6.516 -6.521,-17.092 0,-23.609 6.521,-6.521 17.087,-6.521 23.609,0 l 23.614,23.614 c 6.521,6.516 6.521,17.092 0,23.609 -3.261,3.261 -7.533,4.892 -11.805,4.892 z"
   id="path11564" />
	<path
   style="fill:#ffdd55"
   d="m 173.359,477.772 c -4.272,0 -8.544,-1.631 -11.804,-4.892 -6.521,-6.516 -6.521,-17.092 0,-23.609 l 23.614,-23.614 c 6.521,-6.521 17.087,-6.521 23.609,0 6.521,6.516 6.521,17.092 0,23.609 l -23.614,23.614 c -3.262,3.261 -7.533,4.892 -11.805,4.892 z"
   id="path11566" />
</g></svg>
