<?xml version="1.0" encoding="UTF-8" standalone="no"?>
<!-- Uploaded to: SVG Repo, www.svgrepo.com, Generator: SVG Repo Mixer Tools -->

<svg
   version="1.1"
   id="Capa_1"
   viewBox="0 0 504.44281 370.93234"
   xml:space="preserve"
   sodipodi:docname="vanity_light.svg"
   width="504.44281"
   height="370.93234"
   inkscape:version="1.3.2 (091e20e, 2023-11-25, custom)"
   xmlns:inkscape="http://www.inkscape.org/namespaces/inkscape"
   xmlns:sodipodi="http://sodipodi.sourceforge.net/DTD/sodipodi-0.dtd"
   xmlns="http://www.w3.org/2000/svg"
   xmlns:svg="http://www.w3.org/2000/svg"><defs
   id="defs14" /><sodipodi:namedview
   id="namedview14"
   pagecolor="#ffffff"
   bordercolor="#000000"
   borderopacity="0.25"
   inkscape:showpageshadow="2"
   inkscape:pageopacity="0.0"
   inkscape:pagecheckerboard="0"
   inkscape:deskcolor="#d1d1d1"
   inkscape:zoom="1.5878906"
   inkscape:cx="256"
   inkscape:cy="114.93235"
   inkscape:window-width="1920"
   inkscape:window-height="1009"
   inkscape:window-x="-8"
   inkscape:window-y="-8"
   inkscape:window-maximized="1"
   inkscape:current-layer="g14"><inkscape:page
     x="0"
     y="0"
     width="504.44281"
     height="370.93234"
     id="page14"
     margin="0 0 0"
     bleed="0" /></sodipodi:namedview>
<g
   id="g14"
   transform="translate(0,-141.06766)">
	<path
   style="fill:#576d7e;stroke-width:0.636569"
   d="m 432,296 v -19.45059 c 0,-17.87551 -35.891,-32.41766 -80,-32.41766 -44.109,0 -80,14.54215 -80,32.41766 h -8 v 3.24176 c 0,1.79027 -3.578,3.24177 -8,3.24177 -4.422,0 -8,-1.4515 -8,-3.24177 v -3.24176 h -8 c 0,-17.87551 -35.891,-32.41766 -80,-32.41766 -44.109,0 -80,14.54215 -80,32.41766 V 296 H 64 v -19.45059 c 0,-21.44996 43.063,-38.90119 96,-38.90119 39.34,0 73.188,9.64628 88,23.40068 v -20.15892 c 0,-1.79026 3.578,-3.24176 8,-3.24176 4.422,0 8,1.4515 8,3.24176 v 20.15892 c 14.813,-13.7544 48.66,-23.40068 88,-23.40068 52.938,0 96,17.45123 96,38.90119 V 296 Z"
   id="path1" />
	
	
	
	<g
   id="g5"
   transform="matrix(1,0,0,-1.5116851,0,852.30012)">
		<rect
   x="247"
   y="368"
   style="fill:#35495c"
   width="16"
   height="16"
   id="rect4" />
	</g>
	<g
   id="g6"
   transform="matrix(1,0,0,-1,0,664)">
		<rect
   x="432"
   y="368"
   style="fill:#35495c"
   width="16"
   height="16"
   id="rect5" />
	</g>
	<g
   id="g7"
   transform="matrix(1,0,0,-1,0,664)">
		<rect
   x="64"
   y="368"
   style="fill:#35495c"
   width="16"
   height="16"
   id="rect6" />
	</g>
	<path
   style="fill:#f5b445"
   d="m 503.758,329.941 -24,96 C 478.867,429.5 475.672,432 472,432 h -64 c -3.672,0 -6.867,-2.5 -7.758,-6.059 l -24,-96 C 376.078,329.305 376,328.652 376,328 v -24 c 0,-4.418 3.578,-8 8,-8 h 112 c 4.422,0 8,3.582 8,8 v 24 c 0,0.652 -0.078,1.305 -0.242,1.941 z"
   id="path7" />
	<path
   style="fill:#f5b445"
   d="m 319.758,329.941 -24,96 C 294.867,429.5 291.672,432 288,432 h -64 c -3.672,0 -6.867,-2.5 -7.758,-6.059 l -24,-96 C 192.078,329.305 192,328.652 192,328 v -24 c 0,-4.418 3.578,-8 8,-8 h 112 c 4.422,0 8,3.582 8,8 v 24 c 0,0.652 -0.078,1.305 -0.242,1.941 z"
   id="path8" />
	
	<path
   style="fill:#f5b445"
   d="m 135.758,329.941 -24,96 C 110.867,429.5 107.672,432 104,432 H 40 c -3.672,0 -6.867,-2.5 -7.758,-6.059 l -24,-96 C 8.078,329.305 8,328.652 8,328 v -24 c 0,-4.418 3.578,-8 8,-8 h 112 c 4.422,0 8,3.582 8,8 v 24 c 0,0.652 -0.078,1.305 -0.242,1.941 z"
   id="path9" />
	<g
   id="g10"
   transform="matrix(1,0,0,-1,0,664)">
		<path
   style="fill:#576d7e"
   d="m 272,416 h -32 c -4.418,0 -8,-3.582 -8,-8 v -8 c 0,-4.418 3.582,-8 8,-8 h 32 c 4.418,0 8,3.582 8,8 v 8 c 0,4.418 -3.582,8 -8,8 z"
   id="path10" />
	</g>
	<path
   style="fill:#f09820"
   d="m 136,304 v 24 c -0.079,0.641 -0.157,1.275 -0.236,1.916 l -24.006,96.025 c -0.89,3.561 -4.089,6.059 -7.76,6.059 v 0 C 90.979,432 80.645,421.04 81.409,408.043 L 85.63,336.28 C 86.405,323.107 75.932,312 62.737,312 H 16 c -4.418,0 -8,-3.582 -8,-8 v 0 c 0,-4.418 3.582,-8 8,-8 h 72 8 32 c 4.418,0 8,3.582 8,8 z"
   id="path11" />
	<path
   style="fill:#f09820"
   d="m 320,304 v 24 c -0.079,0.641 -0.157,1.275 -0.236,1.916 l -24.006,96.025 c -0.89,3.561 -4.089,6.059 -7.76,6.059 v 0 c -13.019,0 -23.353,-10.96 -22.589,-23.957 L 269.63,336.28 C 270.405,323.108 259.931,312 246.736,312 H 200 c -4.418,0 -8,-3.582 -8,-8 v 0 c 0,-4.418 3.582,-8 8,-8 h 72 8 32 c 4.418,0 8,3.582 8,8 z"
   id="path12" />
	<path
   style="fill:#f09820"
   d="m 504,304 v 24 c -0.079,0.641 -0.157,1.275 -0.236,1.916 l -24.006,96.025 c -0.89,3.561 -4.089,6.059 -7.76,6.059 v 0 c -13.019,0 -23.353,-10.96 -22.589,-23.957 L 453.63,336.28 C 454.405,323.108 443.931,312 430.736,312 H 384 c -4.418,0 -8,-3.582 -8,-8 v 0 c 0,-4.418 3.582,-8 8,-8 h 72 8 32 c 4.418,0 8,3.582 8,8 z"
   id="path13" />
	<path
   style="fill:#35495c"
   d="M 273.613,232 C 272.559,237.171 272,242.521 272,248 h -8 -16 -8 c 0,-5.479 -0.559,-10.829 -1.613,-16 z"
   id="path14" />
</g>
</svg>
