<?xml version="1.0" encoding="UTF-8" standalone="no"?>
<!-- Uploaded to: SVG Repo, www.svgrepo.com, Generator: SVG Repo Mixer Tools -->

<svg
   version="1.1"
   id="Layer_1"
   viewBox="0 0 120.1649 122.00897"
   xml:space="preserve"
   sodipodi:docname="vent-fan-blade.svg"
   inkscape:version="1.4.3 (0d15f75, 2025-12-25)"
   width="120.16489"
   height="122.00897"
   xmlns:inkscape="http://www.inkscape.org/namespaces/inkscape"
   xmlns:sodipodi="http://sodipodi.sourceforge.net/DTD/sodipodi-0.dtd"
   xmlns="http://www.w3.org/2000/svg"
   xmlns:svg="http://www.w3.org/2000/svg"><defs
   id="defs10776" /><sodipodi:namedview
   id="namedview10774"
   pagecolor="#ffffff"
   bordercolor="#000000"
   borderopacity="0.25"
   inkscape:showpageshadow="2"
   inkscape:pageopacity="0.0"
   inkscape:pagecheckerboard="0"
   inkscape:deskcolor="#d1d1d1"
   showgrid="false"
   inkscape:zoom="1.6268251"
   inkscape:cx="69.460448"
   inkscape:cy="58.088605"
   inkscape:window-width="1920"
   inkscape:window-height="1009"
   inkscape:window-x="-8"
   inkscape:window-y="-8"
   inkscape:window-maximized="1"
   inkscape:current-layer="Layer_1" />


<ellipse
   style="fill:#53caf9;stroke-width:0.365271"
   cx="60.422318"
   cy="60.76757"
   id="circle10745"
   rx="4.497251"
   ry="4.5140295" />
<path
   style="fill:#999999;stroke-width:0.365271"
   d="m 48.317811,53.265544 c 2.751634,-4.477442 7.598119,-6.912484 12.524844,-6.770132 2.31154,-2.698173 4.28872,-5.6913 5.882706,-8.908763 C 66.047976,23.503683 58.494324,10.046498 45.453573,2.4423582 32.223246,6.0283363 20.783426,14.036114 12.816353,24.785617 c 5.648273,0.652135 11.260857,2.442734 16.498894,5.478319 9.235878,5.351697 15.733326,13.634304 19.002564,23.001608 z"
   id="path10747" />
<path
   style="fill:#999999;stroke-width:0.365271"
   d="M 18.548842,72.554565 C 27.785075,67.202138 38.179556,65.695503 47.89641,67.537348 45.408725,62.906944 45.731415,57.476563 48.317466,53.264814 47.14529,49.906463 45.551307,46.691558 43.571574,43.696969 31.275293,37.344392 16.171688,37.09225 3.2242518,44.274447 1.738929,49.518921 0.94412071,55.05176 0.94412071,60.767577 c 0,8.266148 1.66434989,16.148782 4.67154609,23.330603 3.3808461,-4.558671 7.7173552,-8.520846 12.9331752,-11.543615 z"
   id="path10749" />
<path
   style="fill:#999999;stroke-width:0.365271"
   d="M 60.000114,75.039747 C 54.761276,74.886414 50.237041,71.891086 47.896028,67.537348 44.412323,66.876802 40.841109,66.655033 37.267367,66.878263 25.588405,74.422754 17.801778,87.505933 17.589289,102.43205 c 9.292672,9.77862 21.81241,16.4419 35.825548,18.24897 -2.411362,-5.37877 -3.760405,-11.34161 -3.760405,-17.62282 3.44e-4,-10.703392 3.897896,-20.492634 10.345682,-28.018453 z"
   id="path10751" />
<path
   style="fill:#8aacad;stroke-width:0.365271"
   d="M 91.526804,91.272318 C 82.290916,85.920257 75.794231,77.637649 72.524576,68.270351 c -2.751587,4.477437 -7.598455,6.912488 -12.524825,6.770127 -2.311537,2.698172 -4.288703,5.691299 -5.882705,8.908763 0.67924,14.119555 8.268949,27.611499 21.372046,35.204659 0.114867,0.0666 0.230778,0.13029 0.346329,0.19469 5.217381,-1.32035 10.164872,-3.32651 14.743785,-5.91635 6.997248,-4.11588 13.240924,-9.69154 18.219414,-16.597072 -5.90858,-0.57271 -11.794198,-2.388947 -17.271816,-5.56285 z"
   id="path10753" />
<path
   style="fill:#b4cccb;stroke-width:0.365271"
   d="m 119.02365,76.4494 c 3.3123,-12.896187 2.41867,-26.888021 -3.29448,-39.700782 -3.44905,4.850346 -7.95902,9.058432 -13.43633,12.232351 -9.235874,5.352057 -19.630353,6.858692 -29.347209,5.016846 2.48769,4.630405 2.165002,10.060786 -0.421055,14.272536 1.172547,3.358354 2.766168,6.57325 4.745887,9.567839 12.52197,6.469317 27.957367,6.617525 41.060827,-0.975269 0.23329,-0.135401 0.46303,-0.274457 0.69236,-0.413521 z"
   id="path10755" />
<path
   style="fill:#8aacad;stroke-width:0.365271"
   d="m 83.574674,54.656901 c 11.842647,-7.650256 19.688696,-20.993267 19.688696,-36.179942 0,-0.270438 -0.006,-0.539779 -0.0108,-0.808755 C 93.781706,8.3407935 81.262994,2.121781 67.351276,0.68102485 69.811575,6.1044544 71.187125,12.1284 71.187125,18.476959 c 0,10.704122 -3.897504,20.493365 -10.345289,28.018818 5.238837,0.153333 9.763063,3.148671 12.104085,7.502404 3.483703,0.659816 7.054889,0.88195 10.628266,0.65872 z"
   id="path10757" />



<path
   style="fill:#999999;stroke-width:0.22453"
   d="m 49.663279,116.16123 c -6.161324,-2.02326 -12.517386,-5.43921 -17.816464,-9.57508 -3.986157,-3.11113 -8.924529,-8.332751 -11.61784,-12.284154 l -1.228696,-1.802652 0.42365,-1.486933 c 0.682599,-2.395789 1.527314,-4.495377 2.919667,-7.256806 3.063654,-6.076228 7.263933,-11.071522 12.769952,-15.187002 l 2.336076,-1.746119 3.473695,0.1283 c 1.910607,0.07055 4.235577,0.245677 5.166598,0.389154 1.649857,0.25423 1.708174,0.285267 2.29938,1.223194 1.006783,1.597357 2.30213,2.933629 3.918049,4.041844 1.584472,1.086668 4.805977,2.366728 5.984738,2.378046 1.244452,0.0119 1.394702,0.317297 0.602043,1.223475 -2.025381,2.31536 -4.678722,6.889864 -6.211499,10.708984 -2.088373,5.2033 -3.037176,10.253277 -3.036802,16.163549 2.33e-4,4.21537 0.365997,7.15838 1.370119,11.02504 0.366697,1.41199 0.64087,2.59319 0.609256,2.6249 -0.03171,0.0318 -0.914465,-0.22377 -1.961922,-0.56774 z"
   id="path11341" /><path
   style="fill:#999999;stroke-width:0.22453"
   d="m 48.181998,52.57234 c -0.0797,-0.232159 -0.542028,-1.348871 -1.027467,-2.4816 -3.446677,-8.042196 -9.781488,-15.177934 -17.546436,-19.764916 -2.134283,-1.26078 -5.721412,-2.947082 -7.398119,-3.477886 -0.493092,-0.156077 -0.987209,-0.367681 -1.098102,-0.470227 -0.55332,-0.511674 6.013273,-7.61956 10.049438,-10.87785 4.695803,-3.790791 11.143281,-7.5028689 16.216915,-9.3366666 1.893221,-0.6842864 2.139096,-0.7247391 2.677791,-0.4405021 1.100864,0.5808687 6.13638,5.6772307 7.800963,7.8953207 4.883018,6.506388 7.783923,13.891325 8.59725,21.885986 l 0.205962,2.024547 -1.024628,1.799585 c -1.293677,2.272173 -2.535965,4.141242 -3.849464,5.791607 -0.983152,1.235363 -1.074293,1.292651 -2.057417,1.293457 -1.537216,0.0019 -4.281691,0.780949 -6.071138,1.724806 -1.703674,0.898598 -3.681984,2.575564 -4.700442,3.98444 -0.545696,0.754887 -0.649748,0.815304 -0.775106,0.449899 z"
   id="path11343" /><path
   style="fill:#b3b3b3;stroke-width:0.22453"
   d="m 90.782584,82.060966 c -3.902022,-0.572072 -8.170854,-1.853771 -11.837205,-3.554069 -1.519997,-0.704888 -1.678734,-0.84918 -2.537897,-2.306828 -1.114583,-1.89101 -2.50851,-4.699795 -3.202133,-6.452229 l -0.513767,-1.298141 0.688507,-1.545579 c 1.778199,-3.99162 1.763204,-8.355494 -0.04254,-12.403409 -0.139099,-0.311995 0.04082,-0.319247 1.70021,-0.06848 2.666455,0.402916 9.146172,0.378061 12.024191,-0.04618 10.299458,-1.518074 19.88554,-6.829753 26.54501,-14.708714 0.56967,-0.673981 1.0989,-1.162112 1.17589,-1.084738 0.31642,0.31756 2.19173,6.095743 2.79397,8.608731 1.01188,4.221938 1.36402,7.055662 1.49556,12.034786 0.15937,6.025864 -0.31173,10.467533 -1.69368,15.97139 l -0.59306,2.36196 -1.23264,0.613442 c -3.59641,1.789851 -8.35667,3.255949 -12.5791,3.874198 -2.90337,0.425128 -9.304085,0.427142 -12.191279,0.0037 z"
   id="path11345" /><path
   style="fill:#999999;stroke-width:0.22453"
   d="M 11.390737,75.038285 C 8.7820557,64.494962 9.1223107,53.330028 12.365626,43.049341 c 0.524049,-1.66111 0.922471,-2.551266 1.211339,-2.706444 0.774216,-0.415883 5.63376,-1.132021 8.621729,-1.270571 6.349511,-0.29442 12.970277,0.977021 19.060802,3.660429 l 2.241172,0.987401 1.226923,2.078023 c 1.159761,1.964224 3.361482,6.728659 3.365514,7.282846 9.35e-4,0.14076 -0.302491,0.908818 -0.674528,1.706809 -0.798897,1.713527 -1.331284,4.049039 -1.336734,5.863726 -0.0047,1.586116 0.533096,4.303896 1.126803,5.694119 0.240964,0.564259 0.438128,1.049129 0.438128,1.077469 0,0.02839 -0.73123,-0.0756 -1.624834,-0.230903 -0.893658,-0.155346 -2.902865,-0.346256 -4.464927,-0.424248 -9.768216,-0.48769 -20.194234,2.899697 -28.138653,9.14227 -0.767787,0.603269 -1.428485,1.096861 -1.4682,1.096861 -0.03978,0 -0.291505,-0.885978 -0.559423,-1.968843 z"
   id="path11347" /><path
   style="fill:#808080;stroke-width:0.22453"
   d="m 79.022633,54.5746 c -0.677999,-0.02754 -2.268372,-0.169278 -3.53415,-0.314946 L 73.186988,53.994781 72.19639,52.60141 c -2.19133,-3.08232 -5.400703,-5.167809 -9.111908,-5.920907 l -1.931048,-0.39187 0.660078,-0.780856 c 1.3921,-1.646795 4.012001,-5.837953 5.198836,-8.316662 1.484427,-3.100396 2.799646,-7.047065 3.523229,-10.572608 0.476916,-2.323391 0.530436,-3.159801 0.52562,-8.21064 -0.0057,-5.245056 -0.04591,-5.813071 -0.607839,-8.4356045 C 70.121987,8.4257461 69.548479,6.2537493 69.179001,5.1456179 68.809524,4.0374961 68.547651,3.0902202 68.597092,3.040577 68.727667,2.9095132 72.78433,3.6230944 74.876491,4.1451577 84.73682,6.6056355 93.659221,11.523483 101.18416,18.645384 l 1.8793,1.778683 -0.13437,2.028708 c -0.38694,5.840857 -2.79146,13.076686 -6.14753,18.499563 -2.763957,4.466186 -6.614038,8.694181 -10.765024,11.821825 -2.144636,1.61588 -2.388813,1.740517 -3.473753,1.77325 -0.64186,0.0194 -1.419102,0.04469 -1.727323,0.05621 -0.3081,0.01152 -1.114931,-0.0019 -1.792827,-0.02904 z"
   id="path11349" /><path
   style="fill:#808080;stroke-width:0.22453"
   d="M 71.40274,116.3018 C 61.825844,109.17831 55.596656,98.077796 54.401309,86.005089 c -0.180773,-1.825882 -0.16149,-1.967832 0.427056,-3.149281 0.73412,-1.473705 2.92268,-4.833942 4.183291,-6.422803 l 0.901666,-1.136489 2.055677,-0.274719 c 4.039169,-0.539779 7.70386,-2.560861 9.698541,-5.348707 0.803548,-1.123186 0.988946,-1.197974 1.196825,-0.482951 0.521904,1.794929 2.993437,6.689597 4.572907,9.056148 6.253539,9.36995 16.943411,16.349531 27.847408,18.182034 l 1.56721,0.26339 -2.24211,2.586151 c -7.025804,8.103898 -16.578475,14.221468 -27.155978,17.390868 -4.172126,1.25011 -3.850902,1.26958 -6.051062,-0.36693 z"
   id="path11351" /><path
   style="fill:#666666;stroke-width:0.22453"
   d="m 57.619772,74.630142 c -4.885726,-0.965956 -9.023103,-4.800028 -10.78583,-9.995216 -0.321916,-0.948747 -0.417276,-1.866615 -0.409005,-3.936619 0.0098,-2.330266 0.09135,-2.925 0.600435,-4.349305 1.583122,-4.429639 4.934475,-7.726252 9.24973,-9.098628 2.225224,-0.70768 6.066978,-0.70768 8.292199,0 5.583072,1.775583 9.546928,6.832264 9.899327,12.628518 0.426851,7.02106 -4.561851,13.466702 -11.431794,14.770362 -2.102251,0.398915 -3.322407,0.394615 -5.415062,-0.01912 z m 4.657562,-9.630973 c 2.436973,-1.049579 3.424229,-4.302061 2.032101,-6.694627 -1.668112,-2.866803 -6.350625,-2.781289 -7.870996,0.143749 -1.241678,2.38895 -0.255757,5.493233 2.077764,6.541763 0.881057,0.395861 2.852071,0.40064 3.761131,0.0094 z"
   id="path11574" /><path
   style="fill:#4d4d4d;stroke-width:0.22453"
   d="m 58.298758,64.571559 c -2.581381,-1.467523 -2.990798,-5.00099 -0.808686,-6.979764 0.802059,-0.727344 2.064356,-1.277484 2.931144,-1.277484 0.866762,0 2.12904,0.55014 2.931138,1.277484 2.934142,2.660737 1.044892,7.485619 -2.931138,7.485619 -0.864873,0 -1.498137,-0.150915 -2.122458,-0.505855 z"
   id="path11576" /><path
   style="fill:#999999;stroke-width:0.22453"
   d="m 75.68433,54.19563 c -2.283632,-0.254371 -2.340975,-0.274945 -2.89804,-1.039976 -0.31261,-0.429251 -1.382065,-1.591186 -2.37665,-2.582061 -2.078414,-2.070674 -4.13259,-3.226228 -6.850856,-3.853817 -0.924488,-0.213441 -1.762278,-0.456354 -1.861811,-0.539816 -0.09954,-0.08347 0.365735,-0.881295 1.034101,-1.77297 3.665073,-4.890114 6.375479,-10.923502 7.826811,-17.422488 0.461468,-2.066743 0.508678,-2.8519 0.508678,-8.464168 0,-6.78017 -0.07534,-7.387372 -1.557986,-12.5566584 -0.414472,-1.4450749 -0.707903,-2.6742084 -0.652085,-2.7314118 0.189889,-0.194591 4.819005,0.6960811 7.614247,1.465039 8.982208,2.4709517 17.30714,7.2275412 24.810841,14.1761272 l 1.71736,1.590322 -0.23051,2.442256 c -0.72208,7.649257 -3.831565,15.421007 -8.682029,21.69963 -2.846239,3.684262 -8.292695,8.670718 -10.466283,9.582291 -0.92909,0.38965 -4.475801,0.393088 -7.935788,0.0075 z"
   id="path13933" /><path
   style="fill:#808080;stroke-width:0.22453"
   d="m 72.411239,116.91258 c -1.68368,-1.15427 -4.256298,-3.40896 -6.198186,-5.43222 -5.048167,-5.25967 -8.645404,-11.723398 -10.497907,-18.863133 -0.761683,-2.935615 -1.435661,-7.519393 -1.250753,-8.506335 0.204677,-1.092326 2.492957,-4.773872 5.158078,-8.298712 0.207877,-0.274896 0.807671,-0.476738 1.842108,-0.619925 4.283576,-0.59287 8.021767,-2.517662 10.034466,-5.166689 0.858835,-1.130381 1.248369,-1.378981 1.248369,-0.796697 0,0.783235 4.115957,8.463895 5.614831,10.47765 6.010911,8.075754 15.552236,14.350611 24.864525,16.352117 1.41756,0.304669 2.75248,0.622013 2.96664,0.705216 0.31834,0.123703 -0.0522,0.643294 -2.03265,2.850666 -6.762732,7.537282 -15.438877,13.186762 -25.23861,16.434052 -4.80275,1.59147 -5.344869,1.66341 -6.510911,0.86401 z"
   id="path13935" /><path
   style="fill:#999999;stroke-width:0.22453"
   d="m 91.012617,82.021413 c -3.24832,-0.445131 -8.562599,-2.028502 -11.840322,-3.527754 -1.376269,-0.629547 -1.801858,-0.952344 -2.304349,-1.747946 -0.979847,-1.551219 -2.457907,-4.418154 -3.30739,-6.415139 l -0.782807,-1.840141 0.653833,-1.561918 c 1.525581,-3.644502 1.733791,-7.444211 0.594109,-10.84166 -0.311283,-0.92792 -0.54658,-1.707193 -0.522836,-1.731728 0.0238,-0.02454 0.796346,0.06098 1.716887,0.190066 0.95401,0.133771 3.842118,0.19282 6.716284,0.137331 5.702709,-0.110117 7.713221,-0.432117 12.438275,-1.992086 6.824619,-2.253115 12.783059,-6.074136 17.916489,-11.489416 1.30502,-1.376713 2.42695,-2.448842 2.49301,-2.382495 0.2406,0.241489 2.10555,6.083321 2.65852,8.32767 1.10897,4.50092 1.29364,6.09752 1.41297,12.212036 0.12498,6.40299 -0.13071,9.510018 -1.1575,14.068248 -1.03477,4.593774 -0.63891,4.026152 -3.73237,5.351603 -3.37494,1.446058 -6.51762,2.395685 -9.80846,2.963776 -2.0593,0.355502 -3.48855,0.432678 -7.50773,0.405389 -2.730311,-0.01855 -5.266817,-0.07513 -5.636613,-0.125836 z"
   id="path13993" /><path
   style="fill:#999999;stroke-width:0.22453"
   d="m 72.411239,116.91079 c -2.784844,-1.91477 -6.94378,-5.9099 -9.106897,-8.74821 -4.891725,-6.41859 -8.104865,-14.525547 -8.835198,-22.291928 -0.189844,-2.018252 0.111938,-2.75383 2.713133,-6.614031 2.71741,-4.032644 2.435453,-3.788335 4.817924,-4.1751 3.911787,-0.635037 6.661087,-2.040418 9.042722,-4.622395 1.469332,-1.592964 1.704491,-1.765877 1.704491,-1.25336 0,0.498268 3.020815,6.439807 4.348356,8.552679 3.017469,4.802475 7.963451,9.631592 13.208424,12.896375 4.21621,2.624396 8.668049,4.445804 13.564316,5.549635 1.40054,0.315769 2.58036,0.608035 2.62161,0.649444 0.0415,0.04144 -1.02214,1.300631 -2.36322,2.798203 -6.965148,7.778158 -15.727845,13.385298 -26.112805,16.709328 -3.966788,1.26967 -4.481767,1.32017 -5.602856,0.54936 z"
   id="path13995" /><path
   style="fill:#999999;stroke-width:0.22453"
   d="M 88.323257,81.407782 C 84.172255,80.414086 79.343864,78.674656 77.852738,77.635776 77.129314,77.131747 75.165579,73.714522 73.849887,70.670065 l -0.940162,-2.17551 0.598738,-1.50122 c 0.892,-2.236526 1.248969,-4.036129 1.252655,-6.315281 0.0028,-1.789992 -0.433905,-4.315618 -0.98845,-5.715949 -0.117051,-0.295424 0.710528,-0.33774 6.648179,-0.339932 7.73857,-0.0028 8.724873,-0.13202 13.793937,-1.806293 6.869246,-2.268875 12.375766,-5.738241 17.640326,-11.114276 1.23268,-1.258719 2.40869,-2.382327 2.6134,-2.49692 0.32238,-0.180455 0.50901,0.220438 1.39417,2.994364 1.15162,3.609164 2.00132,6.895419 2.4275,9.388823 0.41072,2.402984 0.39849,16.149015 -0.0166,18.445827 -0.6589,3.647435 -1.41233,6.662409 -1.79872,7.198375 -0.55456,0.769164 -5.44733,2.734438 -9.38381,3.769224 l -3.08004,0.809664 -6.723462,0.0667 c -6.43262,0.0638 -6.820196,0.04347 -8.96444,-0.469844 z"
   id="path13997" /><path
   style="fill:#666666;fill-opacity:0;stroke-width:0.576276"
   d="m 16.213864,25.147619 -3.150383,-0.668235 4.765833,-4.964202 c 6.998199,-7.289489 16.03847,-13.1241259 24.401749,-15.7490121 3.07651,-0.9655887 3.362522,-0.9690245 4.754277,-0.057113 1.590756,1.042305 1.954839,2.0962653 0.724135,2.0962653 -1.422305,0 -10.898687,5.1736638 -14.873114,8.1200278 -2.182598,1.618028 -5.872152,4.991115 -8.199004,7.495748 -2.326852,2.504633 -4.465198,4.518076 -4.751877,4.474317 -0.286677,-0.04376 -1.938906,-0.380268 -3.671616,-0.747796 z"
   id="path1" /></svg>
