<?xml version="1.0" encoding="UTF-8" standalone="no"?>
<!-- Uploaded to: SVG Repo, www.svgrepo.com, Generator: SVG Repo Mixer Tools -->

<svg
   version="1.1"
   id="Layer_1"
   viewBox="0 0 520.646 520.646"
   xml:space="preserve"
   sodipodi:docname="vent-fan.svg"
   inkscape:version="1.2 (dc2aedaf03, 2022-05-15)"
   xmlns:inkscape="http://www.inkscape.org/namespaces/inkscape"
   xmlns:sodipodi="http://sodipodi.sourceforge.net/DTD/sodipodi-0.dtd"
   xmlns="http://www.w3.org/2000/svg"
   xmlns:svg="http://www.w3.org/2000/svg"><defs
   id="defs10776" /><sodipodi:namedview
   id="namedview10774"
   pagecolor="#ffffff"
   bordercolor="#000000"
   borderopacity="0.25"
   inkscape:showpageshadow="2"
   inkscape:pageopacity="0.0"
   inkscape:pagecheckerboard="0"
   inkscape:deskcolor="#d1d1d1"
   showgrid="false"
   inkscape:zoom="1.6268251"
   inkscape:cx="260.323"
   inkscape:cy="260.63035"
   inkscape:window-width="1920"
   inkscape:window-height="1027"
   inkscape:window-x="-8"
   inkscape:window-y="-8"
   inkscape:window-maximized="1"
   inkscape:current-layer="Layer_1" />
<path
   style="fill:#547475;"
   d="M168.127,511.998h227v0.001h79.337c17.339,0,32.215-10.542,38.569-25.566  c2.119-5.008,3.289-10.514,3.289-16.294V366.807h-0.001V121.196h0.001V41.859c0-12.56-5.541-23.821-14.3-31.492  c-5.853-5.125-13.138-8.653-21.184-9.884c-0.104-0.015-0.209-0.024-0.31-0.04C478.547,0.156,476.524,0,474.464,0h-79.337H149.514  H46.183h-0.001C23.064,0,4.323,18.74,4.323,41.859v79.337h0.001v245.612H4.323V470.14c0,13.003,5.929,24.622,15.234,32.3  c0.349,0.289,0.71,0.564,1.071,0.842c0.17,0.133,0.337,0.271,0.509,0.401C28.122,508.906,36.792,512,46.183,512h96.537"
   id="path10737" />
<g
   style="opacity:0.15;"
   id="g10743">
	<path
   style="fill:#231F20;"
   d="M37.919,503.281c-0.36-0.277-0.721-0.553-1.071-0.842c-9.304-7.678-15.234-19.297-15.234-32.3   V366.808h0.001V121.196h-0.001V41.859C21.614,18.74,40.354,0,63.473,0H46.183h-0.001C23.064,0,4.323,18.74,4.323,41.859v79.337   h0.001v245.612H4.323V470.14c0,13.003,5.929,24.622,15.234,32.3c0.349,0.289,0.71,0.564,1.071,0.842   c0.17,0.133,0.337,0.271,0.509,0.401C28.122,508.906,36.792,512,46.183,512h17.29c-9.391,0-18.061-3.094-25.046-8.318   C38.256,503.552,38.089,503.413,37.919,503.281z"
   id="path10739" />
	<rect
   x="403.769"
   y="503.355"
   style="fill:#231F20;"
   width="0"
   height="17.29"
   id="rect10741" />
</g>
<circle
   style="fill:#53CAF9;"
   cx="260.326"
   cy="254.058"
   r="12.335"
   id="circle10745" />
<path
   style="fill:#B4CCCB;"
   d="M227.126,233.558c7.547-12.235,20.84-18.889,34.353-18.5c6.34-7.373,11.763-15.552,16.135-24.344  c-1.858-38.483-22.576-75.256-58.344-96.035c-36.288,9.799-67.665,31.681-89.517,61.055c15.492,1.782,30.886,6.675,45.253,14.97  C200.338,185.328,218.159,207.961,227.126,233.558z"
   id="path10747" />
<path
   style="fill:#8AACAD;"
   d="M145.476,286.267c25.333-14.626,53.843-18.743,80.494-13.71c-6.823-12.653-5.938-27.492,1.155-39.001  c-3.215-9.177-7.587-17.962-13.017-26.145c-33.726-17.359-75.152-18.048-110.664,1.578c-4.074,14.331-6.254,29.45-6.254,45.069  c0,22.588,4.565,44.128,12.813,63.753C119.276,305.354,131.17,294.527,145.476,286.267z"
   id="path10749" />
<path
   style="fill:#B4CCCB;"
   d="M259.168,293.058c-14.369-0.419-26.778-8.604-33.199-20.501c-9.555-1.805-19.35-2.411-29.152-1.801  c-32.033,20.616-53.39,56.367-53.973,97.154c25.488,26.721,59.827,44.929,98.262,49.867c-6.614-14.698-10.314-30.992-10.314-48.156  C230.793,340.373,241.483,313.623,259.168,293.058z"
   id="path10751" />
<path
   style="fill:#8AACAD;"
   d="M345.639,337.415c-25.332-14.625-43.151-37.258-52.119-62.855  c-7.547,12.235-20.841,18.889-34.353,18.5c-6.34,7.373-11.763,15.552-16.135,24.344c1.863,38.583,22.68,75.451,58.619,96.2  c0.315,0.182,0.633,0.356,0.95,0.532c14.31-3.608,27.88-9.09,40.439-16.167c19.192-11.247,36.317-26.483,49.972-45.353  C376.806,351.051,360.663,346.088,345.639,337.415z"
   id="path10753" />
<path
   style="fill:#B4CCCB;"
   d="M421.057,296.91c9.085-35.24,6.634-73.474-9.036-108.486c-9.46,13.254-21.83,24.753-36.853,33.426  c-25.332,14.625-53.842,18.742-80.493,13.709c6.823,12.653,5.938,27.492-1.155,39.001c3.216,9.177,7.587,17.962,13.017,26.145  c34.345,17.678,76.681,18.083,112.621-2.665C419.798,297.67,420.428,297.29,421.057,296.91z"
   id="path10755" />
<path
   style="fill:#8AACAD;"
   d="M323.828,237.36c32.482-20.905,54.002-57.366,54.002-98.865c0-0.739-0.014-1.475-0.028-2.21  c-25.977-25.488-60.313-42.482-98.47-46.419c6.748,14.82,10.521,31.281,10.521,48.629c0,29.25-10.69,56-28.375,76.564  c14.369,0.419,26.778,8.604,33.199,20.501C304.232,237.363,314.027,237.97,323.828,237.36z"
   id="path10757" />
<path
   style="fill:#53CAF9;"
   d="M443.823,161.673l-12.49-21.167l-0.181-0.285c-38.06-56.289-101.196-89.895-168.888-89.895  c-112.34,0-203.735,91.395-203.735,203.733c0,112.339,91.395,203.733,203.734,203.733s203.735-91.394,203.735-203.733  C465.998,221.56,458.536,190.476,443.823,161.673z M262.264,413.608c-87.977,0-159.55-71.574-159.55-159.549  c0-87.976,71.574-159.548,159.55-159.548s159.55,71.573,159.55,159.547C421.814,342.034,350.24,413.608,262.264,413.608z"
   id="path10759" />
<g
   id="g10769">
	<circle
   style="fill:#8AACAD;"
   cx="457.011"
   cy="58.176"
   r="25.775"
   id="circle10761" />
	<circle
   style="fill:#8AACAD;"
   cx="457.011"
   cy="453.505"
   r="25.775"
   id="circle10763" />
	<circle
   style="fill:#8AACAD;"
   cx="65.231"
   cy="58.176"
   r="25.775"
   id="circle10765" />
	<circle
   style="fill:#8AACAD;"
   cx="65.231"
   cy="453.505"
   r="25.775"
   id="circle10767" />
</g>
<path
   style="opacity:0.15;fill:#231F20;enable-background:new    ;"
   d="M120.753,254.042c0-85.082,66.607-154.6,150.522-159.273  c-2.984-0.166-5.986-0.258-9.01-0.258c-88.107,0-159.532,71.425-159.532,159.532s71.425,159.532,159.532,159.532  c3.024,0,6.027-0.092,9.01-0.258C187.36,408.641,120.753,339.123,120.753,254.042z"
   id="path10771" />
<path
   style="fill:#1a1a1a;stroke-width:0.614694"
   d="M 54.649239,510.82269 C 42.32826,508.13329 31.974653,500.027 26.370335,488.6819 21.38789,478.59568 21.79289,500.19332 21.970283,254.03756 l 0.158709,-220.229378 1.73567,-4.911654 C 28.291472,16.369408 37.048659,7.3866217 49.482884,2.6183409 L 54.707785,0.61469421 266.16259,0.4463208 c 236.06203,-0.18796725 216.50964,-0.54872563 226.20747,4.1737196 9.04185,4.4030086 15.51374,10.9600116 19.70854,19.9677276 4.27951,9.189647 3.95719,-9.660798 3.95719,231.432372 0,242.59936 0.3753,222.37891 -4.30687,232.04706 -5.04088,10.40885 -13.58372,17.85295 -24.89111,21.68976 l -4.91755,1.66862 -211.76215,0.10747 c -174.257447,0.0884 -212.425732,-0.0374 -215.508871,-0.71036 z m 15.905605,-31.95838 c 5.421418,-1.1488 9.573811,-3.4576 13.295089,-7.39231 13.406942,-14.17586 7.582665,-37.03074 -10.890886,-42.73664 -12.329831,-3.8083 -25.628697,1.90605 -30.976667,13.31028 -4.963818,10.58504 -3.140708,21.66738 4.877814,29.65132 3.909333,3.89246 7.929249,6.11711 13.072492,7.23441 4.506496,0.97896 5.721973,0.97129 10.622158,-0.0671 z m 390.396386,0.30478 c 8.48089,-1.38886 15.66319,-6.71095 19.45729,-14.41788 3.87601,-7.87328 3.10231,-18.63389 -1.8582,-25.84373 -2.62168,-3.81049 -6.45038,-6.99585 -10.99953,-9.15127 -3.76345,-1.78315 -4.56189,-1.92904 -10.55752,-1.92904 -6.25899,0 -6.64994,0.0809 -11.16165,2.31075 -5.46444,2.70067 -9.90755,7.14911 -12.58192,12.59702 -1.59733,3.25391 -1.73436,4.09157 -1.73436,10.60204 0,6.67456 0.10952,7.30018 1.96279,11.21248 4.08427,8.62195 12.81825,14.3895 22.93232,15.14351 0.50712,0.0378 2.55048,-0.19794 4.54078,-0.52388 z M 285.52546,456.67601 c 67.76036,-7.64963 127.58575,-49.26362 158.56427,-110.29582 13.98677,-27.55599 21.04868,-55.40943 21.97462,-86.67189 0.90641,-30.60266 -4.86217,-60.16234 -17.16682,-87.96731 -4.81527,-10.88113 -16.48269,-30.66836 -23.86917,-40.48063 C 369.81432,57.913459 271.7233,30.481701 186.68313,64.605646 c -9.48064,3.804281 -24.07642,11.189832 -32.70223,16.547525 -14.44711,8.973429 -32.07699,23.838369 -43.33594,36.539419 -29.534189,33.3171 -46.183843,70.75437 -51.404153,115.58386 -1.13957,9.78608 -0.965872,33.61987 0.320308,43.95064 5.202281,41.78543 21.441641,78.85239 48.136395,109.87315 5.4981,6.3891 19.23179,19.81585 25.38379,24.81649 33.89198,27.54906 74.6701,43.34416 118.63598,45.95275 7.02452,0.41677 25.24083,-0.22628 33.80818,-1.19347 z M 70.366549,83.607836 c 4.234211,-0.577886 10.054879,-3.75907 13.453817,-7.352942 6.538355,-6.913349 8.860307,-15.611943 6.542609,-24.510182 -1.334889,-5.124982 -3.091002,-8.196203 -6.817174,-11.922375 -8.655325,-8.655328 -22.28504,-10.017658 -32.723695,-3.27083 -3.941621,2.547592 -6.538718,5.531311 -8.912699,10.239506 -6.739375,13.365856 -0.347538,29.927767 13.720419,35.551026 2.866371,1.145753 8.612382,2.114505 10.757149,1.813612 0.676163,-0.09486 2.466972,-0.341376 3.979574,-0.547815 z M 463.70845,83.226461 c 6.87525,-1.549435 13.32888,-6.875748 16.74924,-13.823514 3.48156,-7.072038 3.12033,-17.515614 -0.83782,-24.222923 -1.7132,-2.903098 -5.80468,-7.181814 -8.56205,-8.953847 -7.80014,-5.012798 -19.24547,-5.219299 -27.32617,-0.493029 -3.69516,2.161242 -8.65495,7.684985 -10.5504,11.750045 -1.48645,3.187892 -1.6498,4.234387 -1.65744,10.618335 -0.008,6.782292 0.0776,7.256781 2.02638,11.215282 5.64266,11.461865 17.25479,16.817634 30.15826,13.909651 z"
   id="path11327" /><path
   style="fill:#333333;stroke-width:0.614694"
   d="M 38.111041,510.8219 C 22.935021,507.4754 11.630809,497.33029 6.592234,482.53496 L 4.9175537,477.6174 4.7492759,258.17157 C 4.5626457,14.79276 4.2517204,33.832729 8.5635704,24.597558 13.683774,13.631046 22.225081,6.1303466 34.115529,2.1586544 37.041213,1.1814064 40.250698,0.73343408 46.102066,0.48560173 50.497129,0.2994506 53.934861,0.318369 53.741469,0.52764257 53.548078,0.7369162 51.535312,1.5808078 49.268657,2.4029573 c -6.360821,2.3071641 -9.82918,4.5313823 -15.0389,9.6442727 -5.426164,5.32531 -7.479634,8.471636 -10.450612,16.012427 l -2.264848,5.748525 -0.177531,218.216448 c -0.119273,146.6056 0.02938,219.79224 0.452977,223.01829 0.69667,5.30573 3.222228,13.25146 4.461977,14.03796 0.437154,0.27733 0.583896,0.50847 0.326093,0.51365 -0.458843,0.009 2.038932,4.33256 3.556778,6.15635 1.44775,1.73957 6.167602,6.4545 7.525376,7.51754 4.255491,3.33172 11.556893,6.83994 15.799755,7.59155 3.59373,0.63662 2.266494,0.8722 -4.642757,0.82409 -3.859767,-0.0269 -8.677433,-0.41484 -10.705924,-0.86216 z"
   id="path11329" /><path
   style="fill:#333333;stroke-width:0.614694"
   d="m 248.02911,456.99425 c -26.33058,-1.90783 -50.83632,-8.54954 -74.68534,-20.24173 -12.97343,-6.36033 -22.04988,-11.90488 -33.1466,-20.24831 C 97.430621,384.3488 69.186671,337.16702 61.181544,284.50785 52.660531,228.4551 67.872638,171.81816 103.45098,127.13246 c 6.85656,-8.61171 23.16742,-24.93497 31.78175,-31.805928 62.16415,-49.583324 146.94303,-58.64258 217.60175,-23.252373 29.60207,14.826526 55.41826,36.752551 74.3643,63.158571 4.26267,5.94109 14.48507,23.10526 18.30455,30.73471 3.98968,7.96943 9.25816,21.58157 12.05538,31.14741 8.06224,27.57107 10.12405,58.14098 5.87844,87.15834 -3.03767,20.76155 -11.01172,45.15739 -20.82538,63.71325 -10.37516,19.61757 -20.91295,33.79324 -37.192,50.03153 -13.87905,13.84429 -27.10389,23.93009 -43.82524,33.42288 -33.83956,19.21088 -74.58088,28.3781 -113.56542,25.5534 z m 37.23074,-44.79028 c 33.95458,-5.03641 64.89115,-20.51537 89.15444,-44.60799 27.67474,-27.48007 43.23113,-60.42644 47.02339,-99.5893 0.87954,-9.08308 0.36809,-28.33771 -0.97967,-36.88166 -5.71225,-36.21191 -21.17026,-66.3635 -46.80351,-91.29249 -12.88112,-12.52723 -24.43894,-20.81978 -39.87554,-28.61008 -26.59131,-13.41968 -57.33609,-19.12792 -87.3335,-16.214808 -22.13681,2.149753 -46.01697,9.971248 -65.3219,21.394948 -21.31182,12.61128 -41.14223,31.94887 -54.61017,53.25301 -10.97119,17.35468 -19.06374,39.48459 -22.39844,61.25085 -1.62802,10.62649 -1.95224,32.71554 -0.62124,42.32513 6.40911,46.27236 29.58735,85.04951 66.51951,111.287 22.65938,16.09776 49.96554,26.14584 78.32324,28.82125 8.89455,0.83916 27.45824,0.26809 36.92339,-1.13586 z"
   id="path11331" /><path
   style="fill:#333333;stroke-width:0.614694"
   d="m 59.625338,478.28678 c -4.693631,-1.1649 -9.108219,-3.69314 -12.544937,-7.18449 -12.139879,-12.33288 -8.587548,-32.55149 7.079607,-40.29462 12.99446,-6.42221 27.846031,-0.96565 34.250322,12.5838 1.759052,3.72159 1.939299,4.65251 1.925681,9.94551 -0.0119,4.62318 -0.308356,6.57612 -1.423201,9.37537 -3.070145,7.7088 -9.970218,13.67068 -17.912723,15.47717 -4.944269,1.12455 -7.1593,1.14349 -11.374749,0.0973 z"
   id="path11333" /><path
   style="fill:#333333;stroke-width:0.614694"
   d="M 61.342331,83.284477 C 47.946285,81.328379 37.715864,67.310135 40.146374,54.240698 c 1.563849,-8.409189 6.977645,-15.513844 14.716522,-19.312842 3.225636,-1.583458 4.121398,-1.734369 10.29469,-1.734369 6.352463,0 7.003421,0.118389 10.757149,1.956386 9.602912,4.702024 15.377582,14.506978 14.589995,24.772708 -1.137563,14.827463 -14.469214,25.507402 -29.162399,23.361896 z"
   id="path11335" /><path
   style="fill:#333333;stroke-width:0.614694"
   d="m 452.74851,83.218879 c -7.76622,-1.317475 -15.2877,-7.075407 -18.77534,-14.373127 -2.51396,-5.260352 -2.90973,-13.414778 -0.91846,-18.923992 2.52493,-6.985693 6.96967,-11.78746 13.92886,-15.047699 3.19437,-1.496501 4.29422,-1.680574 10.04158,-1.680574 5.9833,0 6.75665,0.143231 10.59779,1.962801 5.36285,2.540414 9.79411,6.971671 12.33452,12.334524 1.83719,3.878341 1.9628,4.576208 1.9628,10.905138 0,6.116024 -0.15976,7.08663 -1.67319,10.165365 -5.24161,10.662884 -16.29995,16.557314 -27.49856,14.657564 z"
   id="path11337" /><path
   style="fill:#4d4d4d;stroke-width:0.614694"
   d="m 452.21596,478.49641 c -7.40056,-1.45637 -14.43459,-6.89332 -17.99834,-13.9118 -1.99983,-3.93846 -2.08759,-4.39698 -2.08759,-10.90661 0,-6.3668 0.12377,-7.0566 1.9628,-10.93881 2.51622,-5.31178 6.75109,-9.54491 12.21278,-12.20775 4.02021,-1.96006 4.63603,-2.07952 10.71954,-2.07952 6.04396,0 6.71697,0.12816 10.58634,2.01595 5.48453,2.6758 9.85819,7.01899 12.33604,12.2501 1.84854,3.90255 1.97273,4.59038 1.97273,10.92636 0,6.45284 -0.0947,6.95032 -2.07352,10.89331 -3.64593,7.26485 -10.55067,12.49069 -18.49393,13.9971 -3.72582,0.70659 -5.38698,0.69962 -9.13685,-0.0383 z"
   id="path11339" /><path
   style="fill:#b3b3b3;stroke-width:0.614694"
   d="m 230.81632,405.42624 c -16.89915,-5.52876 -34.3326,-14.86315 -48.86683,-26.16477 -10.93314,-8.50145 -24.47807,-22.77002 -31.86521,-33.56759 l -3.37006,-4.92593 1.16197,-4.06319 c 1.87218,-6.5467 4.18911,-12.28403 8.00799,-19.82989 8.403,-16.60384 19.92348,-30.25394 35.02527,-41.49987 l 6.40739,-4.77142 9.52776,0.35058 c 5.24027,0.19281 11.6171,0.67134 14.17074,1.06339 4.5252,0.69473 4.68517,0.77952 6.30663,3.34249 2.76147,4.36494 6.31431,8.01642 10.74637,11.04471 4.34592,2.96943 13.18184,6.46731 16.41506,6.49823 3.41318,0.0326 3.82527,0.86705 1.65113,3.34327 -5.55514,6.32694 -12.83268,18.82719 -17.03685,29.26329 -5.7279,14.21848 -8.3302,28.018 -8.32923,44.16839 6.1e-4,11.51888 1.00382,19.5609 3.75793,30.12691 1.00572,3.85838 1.75769,7.08614 1.67103,7.17279 -0.0866,0.0867 -2.50814,-0.61148 -5.38109,-1.55139 z"
   id="path11341" /><path
   style="fill:#b3b3b3;stroke-width:0.614694"
   d="m 226.7534,231.66374 c -0.21843,-0.63438 -1.48657,-3.68591 -2.81808,-6.7812 -9.45348,-21.97601 -26.8285,-41.47506 -48.12616,-54.00941 -5.8539,-3.4452 -15.69254,-8.05318 -20.29152,-9.50364 -1.35233,-0.42651 -2.70764,-1.00474 -3.01179,-1.28496 -1.51763,-1.39818 16.49313,-20.82114 27.5635,-29.72472 12.87959,-10.35868 30.56381,-20.50228 44.47952,-25.51329 5.19272,-1.86988 5.86711,-1.98041 7.34459,-1.20372 3.01946,1.58729 16.83074,15.51357 21.39651,21.57468 13.39296,17.77931 21.34962,37.95934 23.58033,59.80548 l 0.56489,5.53225 -2.81035,4.91755 c -3.54835,6.2089 -6.95571,11.31632 -10.55821,15.82608 -2.69663,3.37576 -2.94655,3.5323 -5.64306,3.53449 -4.21625,0.004 -11.74373,2.13403 -16.65189,4.71319 -4.67283,2.45549 -10.0989,7.03796 -12.89224,10.88783 -1.49671,2.06281 -1.78222,2.22791 -2.12604,1.22939 z"
   id="path11343" /><path
   style="fill:#b3b3b3;stroke-width:0.614694"
   d="m 343.59771,312.24413 c -10.70232,-1.56325 -22.41075,-5.0656 -32.46691,-9.71183 -4.16894,-1.92617 -4.60435,-2.32047 -6.96083,-6.30362 -3.05706,-5.16735 -6.88036,-12.84261 -8.78275,-17.63131 l -1.40921,-3.54728 1.88846,-4.22345 c 4.87712,-10.90747 4.83607,-22.83213 -0.11669,-33.89344 -0.38174,-0.85256 0.11174,-0.87237 4.66316,-0.18718 7.3136,1.10101 25.0861,1.03308 32.97978,-0.12607 28.24944,-4.14828 54.54199,-18.66291 72.80749,-40.1929 1.56246,-1.84171 3.01383,-3.17557 3.22527,-2.96414 0.86776,0.86776 6.01131,16.65718 7.66321,23.52415 2.77527,11.53682 3.74115,19.28022 4.10209,32.88614 0.43681,16.46623 -0.85512,28.6035 -4.64554,43.64329 l -1.62665,6.45428 -3.38082,1.67629 c -9.8642,4.89092 -22.92057,8.89716 -34.50176,10.5866 -7.96346,1.16169 -25.51926,1.16719 -33.4383,0.0104 z"
   id="path11345" /><path
   style="fill:#999999;stroke-width:0.614694"
   d="m 125.84286,293.054 c -7.15506,-28.8106 -6.22179,-59.3198 2.67392,-87.41269 1.43734,-4.53914 2.5301,-6.97159 3.32244,-7.39563 2.12342,-1.13643 15.45215,-3.09335 23.64754,-3.47195 17.41541,-0.80451 35.57466,2.66981 52.27988,10.00247 l 6.14695,2.69816 3.36519,5.67839 c 3.18092,5.36742 9.21976,18.38665 9.23089,19.90102 0.003,0.38464 -0.82974,2.48345 -1.85015,4.66402 -2.19114,4.68236 -3.65141,11.06437 -3.66628,16.02316 -0.013,4.33422 1.46208,11.76079 3.09049,15.5597 0.66093,1.54191 1.2017,2.86684 1.2017,2.94429 0,0.0775 -2.00544,-0.20648 -4.45653,-0.63097 -2.4511,-0.4245 -7.96197,-0.94618 -12.24639,-1.15929 -26.79222,-1.33267 -55.38838,7.9237 -77.17843,24.9821 -2.10575,1.64849 -3.91784,2.99726 -4.02687,2.99726 -0.10903,0 -0.79949,-2.42102 -1.53435,-5.38004 z"
   id="path11347" /><path
   style="fill:#808080;stroke-width:0.614694"
   d="m 311.34262,237.1351 c -1.85945,-0.0753 -6.22144,-0.46255 -9.69332,-0.86062 l -6.31249,-0.72377 -2.717,-3.80753 c -6.01033,-8.42272 -14.8131,-14.12148 -24.99204,-16.17941 l -5.29645,-1.07081 1.8105,-2.13377 c 3.81823,-4.5 11.00416,-15.95274 14.25925,-22.72603 4.07152,-8.47212 7.67885,-19.25676 9.66358,-28.89062 1.30797,-6.34887 1.45482,-8.63446 1.4416,-22.43634 -0.0137,-14.33259 -0.126,-15.88474 -1.66723,-23.05104 -0.90887,-4.22602 -2.48172,-10.16118 -3.49521,-13.18925 -1.01349,-3.028065 -1.73173,-5.616564 -1.59607,-5.75222 0.35816,-0.358163 11.48469,1.591773 17.22303,3.018355 27.0448,6.723485 51.51707,20.161945 72.15627,39.623205 l 5.15459,4.86041 -0.36861,5.54364 c -1.06124,15.96068 -7.65626,35.73325 -16.8612,50.55175 -7.58103,12.20427 -18.1409,23.75762 -29.52633,32.30419 -5.88222,4.41554 -6.55192,4.75614 -9.52776,4.84559 -1.76045,0.0529 -3.89235,0.12207 -4.73756,0.15367 -0.8452,0.0316 -3.0581,-0.004 -4.91755,-0.0794 z"
   id="path11349" /><path
   style="fill:#808080;stroke-width:0.614694"
   d="m 290.44301,405.81036 c -26.26737,-19.46561 -43.35271,-49.79876 -46.6312,-82.78855 -0.49584,-4.9894 -0.44305,-5.37729 1.17121,-8.60572 2.01357,-4.02703 8.0164,-13.20918 11.47388,-17.55088 l 2.47309,-3.10556 5.63832,-0.75069 c 11.07855,-1.47501 21.13003,-6.99779 26.6009,-14.61584 2.20415,-3.06922 2.71253,-3.27359 3.28277,-1.3197 1.43146,4.90479 8.21046,18.27993 12.54252,24.74673 17.15212,25.60425 46.47206,44.67661 76.37939,49.6841 l 4.29865,0.71973 -6.14965,7.06689 c -19.27038,22.14464 -45.47126,38.86148 -74.48313,47.52217 -11.44308,3.41602 -10.56223,3.46923 -16.59675,-1.00268 z"
   id="path11351" /><path
   style="fill:#808080;stroke-width:0.614694"
   d="m 113.10797,309.72121 c -1.39103,-3.3292 -3.8161,-11.25314 -5.4733,-17.88403 -6.39155,-25.57425 -6.06022,-53.92963 0.92625,-79.27026 l 1.89653,-6.87892 5.06423,-2.11992 c 6.35041,-2.65834 13.73496,-5.05589 14.18529,-4.60556 0.18805,0.18804 -0.0609,1.55437 -0.55325,3.03627 -6.01431,18.10285 -8.43362,33.09408 -8.42626,52.21316 0.006,15.36877 1.75853,29.1165 5.29196,41.51086 l 0.89185,3.12837 -6.45093,6.51375 -6.45092,6.51374 z"
   id="path11353" /><path
   style="fill:#80b3ff;stroke-width:0.614694"
   d="m 142.1832,333.38887 c -3.92864,-6.87747 -7.74836,-14.78995 -10.346,-21.43156 -2.65324,-6.78375 -4.36076,-12.46516 -3.86941,-12.87465 15.64541,-13.03882 33.1131,-21.62019 52.44496,-25.76467 7.02503,-1.50607 14.71511,-2.3409 13.83062,-1.50143 -0.33808,0.32087 -2.9659,2.40016 -5.83959,4.62063 -7.72115,5.96605 -12.34322,10.35463 -17.88851,16.98483 -10.70068,12.79421 -18.71625,27.46911 -22.8783,41.88558 l -1.463,5.06752 z"
   id="path11355" /><path
   style="fill:#80b3ff;stroke-width:0.614694"
   d="m 207.4593,204.01438 c -16.65936,-7.53472 -37.7168,-11.12394 -56.07908,-9.55863 -4.82414,0.41124 -11.26067,1.26811 -14.30341,1.90415 -3.04274,0.63604 -5.58621,1.10369 -5.65217,1.03922 -0.31647,-0.30934 5.52147,-13.2103 8.41441,-18.59458 3.73595,-6.95326 10.91996,-18.062 11.68067,-18.062 1.22414,0 11.95235,4.4281 17.55409,7.2455 15.68825,7.89043 29.67526,19.49846 40.33903,33.47799 1.99868,2.62013 3.41406,4.73453 3.14531,4.69867 -0.26876,-0.0359 -2.56324,-1.00351 -5.09885,-2.15032 z"
   id="path11564" /><path
   style="fill:#80b3ff;stroke-width:0.614694"
   d="m 277.36347,184.62307 c -1.39673,-19.79184 -10.80898,-43.46064 -24.21796,-60.90041 -4.00032,-5.20283 -11.90489,-13.37933 -16.82882,-17.40775 -2.38048,-1.94755 -4.09889,-3.77025 -3.81869,-4.05045 0.85159,-0.85159 14.11811,-4.102512 22.6001,-5.538094 8.01862,-1.357156 21.48405,-1.868254 25.0194,-0.949643 1.48123,0.384875 1.89178,1.146402 3.79283,7.035217 3.71021,11.49304 4.82575,18.58827 5.14943,32.75228 0.22096,9.66879 0.0554,14.21535 -0.70718,19.415 -1.60775,10.96309 -4.70522,21.76894 -8.86989,30.94355 l -1.7547,3.86552 z"
   id="path11566" /><path
   style="fill:#80b3ff;stroke-width:0.614694"
   d="m 326.68836,235.89357 c 8.93531,-6.37149 18.88667,-15.52029 24.88956,-22.88226 10.45563,-12.82284 18.97501,-29.85124 23.03918,-46.05031 1.45624,-5.80431 3.10478,-16.22216 3.13557,-19.81509 l 0.0231,-2.69277 2.17635,2.45878 c 10.04947,11.35358 18.66497,23.98869 24.91792,36.54352 l 4.11768,8.26758 -1.13426,1.59292 c -2.196,3.084 -9.58931,10.7222 -14.75649,15.24528 -17.3203,15.16126 -41.72679,25.81796 -64.23555,28.04743 -3.64535,0.36106 -3.67058,0.35277 -2.17304,-0.71508 z"
   id="path11568" /><path
   style="fill:#80b3ff;stroke-width:0.614694"
   d="m 381.95037,350.68841 c -23.44947,-4.88652 -44.5874,-16.23066 -60.70455,-32.57846 -5.50204,-5.58078 -13.33552,-15.2191 -12.80246,-15.75216 0.17674,-0.17674 1.38545,0.21742 2.68602,0.87591 4.10872,2.08028 14.06196,5.58947 20.393,7.18991 9.39484,2.37495 17.86657,3.35526 28.99577,3.35526 17.97319,0 33.05129,-3.17261 48.46801,-10.19823 2.50205,-1.14022 4.68294,-2.07313 4.84642,-2.07313 1.77706,0 -8.52513,23.53203 -15.0526,34.38283 -3.12043,5.1872 -10.73861,16.02155 -11.21528,15.95006 -0.16904,-0.0254 -2.69549,-0.54374 -5.61433,-1.15199 z"
   id="path11570" /><path
   style="fill:#80b3ff;stroke-width:0.614694"
   d="m 256.02014,411.48072 c -4.22602,-0.64727 -10.17133,-1.80554 -13.21179,-2.57394 l -5.52812,-1.39709 -1.70955,-6.13065 c -7.22055,-25.89375 -5.43654,-52.98349 5.14002,-78.04989 l 2.07492,-4.91755 0.45444,4.91755 c 1.21752,13.175 5.37491,27.88092 11.34316,40.12412 8.09412,16.60419 19.8192,30.92372 34.43519,42.0548 3.15905,2.40584 5.66358,4.4544 5.56562,4.55236 -0.098,0.098 -4.04334,0.74555 -8.76752,1.43909 -10.55253,1.54918 -19.59638,1.54347 -29.79637,-0.0188 z"
   id="path11572" /><path
   style="fill:#666666;stroke-width:0.614694"
   d="m 252.63932,291.93872 c -13.4006,-2.63958 -24.74847,-13.11652 -29.58331,-27.31286 -0.88294,-2.59254 -1.1445,-5.1007 -1.12182,-10.75715 0.0255,-6.36768 0.25073,-7.99284 1.64689,-11.88487 4.34215,-12.10441 13.53422,-21.1127 25.37008,-24.86283 6.10329,-1.9338 16.64039,-1.9338 22.74368,0 15.31319,4.85191 26.18525,18.66977 27.15176,34.50856 1.17075,19.18568 -12.5123,36.79901 -31.35502,40.36136 -5.766,1.09009 -9.11271,1.07833 -14.85226,-0.0522 z m 12.77465,-26.31752 c 6.68411,-2.86808 9.39197,-11.75578 5.57364,-18.29367 -4.5752,-7.83381 -17.41841,-7.60014 -21.58842,0.39279 -3.40575,6.52802 -0.70142,15.01077 5.69891,17.87597 2.41638,1.08173 7.8225,1.09478 10.31587,0.0249 z"
   id="path11574" /><path
   style="fill:#4d4d4d;stroke-width:0.614694"
   d="m 254.50158,264.45271 c -7.08026,-4.01013 -8.20313,-13.66567 -2.21803,-19.07285 2.19997,-1.98753 5.66209,-3.49083 8.03945,-3.49083 2.37736,0 5.83948,1.5033 8.03944,3.49083 8.04783,7.27073 2.86598,20.45516 -8.03944,20.45516 -2.37216,0 -4.10897,-0.41241 -5.82142,-1.38231 z"
   id="path11576" /><path
   style="fill:#4d4d4d;stroke-width:0.614694"
   d="m 110.9523,204.7439 c 0,-0.79698 3.53113,-10.04116 5.83832,-15.28421 4.63166,-10.52536 15.72914,-29.02891 19.07587,-31.80645 0.78136,-0.64848 2.18835,-0.4851 7.9798,0.9266 3.86714,0.94263 6.91795,1.88402 6.77956,2.09196 -6.6958,10.06126 -9.2851,14.47986 -13.54937,23.12177 -2.83599,5.74739 -5.33792,11.20226 -5.55986,12.12194 -0.35574,1.47416 -1.01399,1.85834 -5.55978,3.2449 -2.83595,0.86501 -7.37213,2.50729 -10.0804,3.64949 -2.70828,1.14221 -4.92414,2.0125 -4.92414,1.934 z"
   id="path11578" /><path
   style="fill:#4d4d4d;stroke-width:0.614694"
   d="m 139.73817,355.52833 c -9.41968,-11.1397 -18.90031,-26.74346 -24.66993,-40.60317 l -0.93958,-2.25704 6.5034,-6.57471 6.5034,-6.5747 2.25538,6.68032 c 3.03843,8.99967 7.56613,18.92774 12.53189,27.47917 l 4.10938,7.0767 -1.2505,6.13635 c -0.68778,3.37499 -1.26995,6.92273 -1.29372,7.88387 -0.0238,0.96114 -0.24769,2.26823 -0.49762,2.90464 -0.39363,1.00234 -0.82863,0.71457 -3.2521,-2.15143 z"
   id="path11580" /><path
   style="fill:#4d4d4d;stroke-width:0.614694"
   d="m 228.79684,100.44571 -2.28122,-1.654167 6.91491,-1.275887 c 9.27505,-1.711363 17.71328,-2.564829 24.25579,-2.4533 2.97154,0.05066 4.57296,0.198221 3.55872,0.327922 -6.1334,0.784337 -19.29484,3.472465 -24.3039,4.963892 l -5.86308,1.74571 z"
   id="path11582" /><path
   style="fill:#4d4d4d;stroke-width:0.614694"
   d="m 145.05117,158.36272 c -3.37165,-0.81638 -6.63278,-1.65754 -7.24694,-1.86925 -0.94972,-0.32737 -0.49286,-1.11829 3.05601,-5.29058 9.54473,-11.22143 22.27677,-22.46435 34.63496,-30.58409 9.29113,-6.10459 25.6542,-13.97185 36.5743,-17.58471 12.30691,-4.071668 13.2902,-4.229501 15.69255,-2.51888 1.05652,0.75231 1.69219,1.56912 1.41257,1.81512 -0.2796,0.246 -3.55111,1.62516 -7.27001,3.0648 -13.88809,5.37627 -29.95804,14.69834 -42.10569,24.42521 -7.20096,5.76597 -17.86401,16.49375 -23.72248,23.86649 l -4.89498,6.16023 z"
   id="path11584" /><path
   style="fill:#4d4d4d;stroke-width:0.614694"
   d="m 231.43237,410.32803 c -17.51636,-3.65964 -33.2252,-9.52955 -47.6388,-17.80116 -12.83355,-7.36486 -21.66953,-14.1008 -33.09165,-25.2268 l -7.2745,-7.0859 0.38992,-3.3825 c 0.64342,-5.58153 2.27073,-14.12778 2.74605,-14.42154 0.24446,-0.15109 1.85184,1.7497 3.57197,4.22398 7.34646,10.56734 21.07367,24.95938 31.50678,33.0327 13.77661,10.66057 31.11883,20.08357 46.83425,25.44766 7.63634,2.60648 8.47319,3.03701 9.03476,4.64793 0.72702,2.08552 1.05147,2.05533 -6.07878,0.56563 z"
   id="path11586" /><path
   style="fill:#4d4d4d;stroke-width:0.614694"
   d="m 113.1076,309.13744 c -1.69888,-4.01294 -5.18335,-16.6559 -6.75357,-24.50447 -2.12671,-10.63017 -2.77874,-17.82205 -2.77301,-30.58636 0.007,-15.84587 1.35132,-26.71013 5.03309,-40.6785 l 1.926,-7.30712 3.74059,-1.67185 c 4.45766,-1.99234 12.90595,-4.92087 14.19583,-4.92087 1.19966,0 1.24965,-0.31863 -1.27443,8.12348 -5.19393,17.37179 -6.68911,29.50489 -6.24707,50.69409 0.33463,16.0407 0.95596,21.35228 3.96161,33.86631 l 1.66543,6.93402 -6.22815,6.22815 -6.22814,6.22815 z"
   id="path11588" /><path
   style="fill:#4d4d4d;stroke-width:0.614694"
   d="M 243.72625,456.35856 C 206.17503,452.77177 169.64098,438.38992 139.29514,415.24862 93.452891,380.28999 65.160016,328.81877 59.897326,270.80583 58.969718,260.5804 59.47346,237.67509 60.842719,227.81853 65.422992,194.84759 77.41199,164.34464 96.508202,137.07681 104.36386,125.85956 113.70667,115.39806 126.01231,104.0399 157.26204,75.196291 196.68307,57.336437 240.34544,52.240833 c 10.11998,-1.181051 31.17395,-1.355308 41.18451,-0.340871 47.46025,4.809463 91.01389,25.509899 124.64583,59.242408 13.97399,14.01578 22.32287,25.35282 34.77873,47.22646 10.96701,19.25907 18.60469,42.17171 22.30592,66.9166 1.61467,10.79509 2.22881,35.77397 1.16637,47.43965 -3.43064,37.66831 -18.96338,76.90843 -41.75776,105.49194 -36.0183,45.16594 -84.28963,71.9192 -140.5244,77.8824 -9.17289,0.97271 -29.51156,1.10989 -38.41839,0.25914 z m 41.79921,-43.91297 c 35.19144,-5.40998 66.1508,-21.27803 90.68758,-46.4814 9.15644,-9.40519 13.8597,-15.17503 20.38403,-25.0066 10.31706,-15.54687 18.51865,-35.62602 22.26534,-54.51009 2.84553,-14.34201 3.32926,-20.37037 2.9592,-36.8787 -0.2761,-12.31748 -0.59124,-16.12679 -1.90721,-23.05398 -6.57213,-34.59527 -20.81373,-61.74647 -44.97833,-85.74985 -26.24475,-26.06964 -58.07417,-41.387966 -95.2502,-45.840385 -7.79419,-0.933478 -28.40919,-0.933628 -35.65227,-2.6e-4 -30.63565,3.947816 -58.85717,15.784105 -81.75433,34.288305 -7.4628,6.03103 -21.3282,20.09398 -26.84457,27.22705 -12.2662,15.8611 -21.29198,33.77069 -27.00356,53.58237 -4.24182,14.71351 -6.07996,28.63968 -6.08306,46.08664 -0.006,34.80816 13.09432,71.02584 35.92002,99.30444 12.22054,15.13993 30.64016,30.24881 48.48765,39.77246 17.01892,9.08151 38.33354,15.76063 57.89255,18.14111 7.18328,0.87426 33.09131,0.31581 40.87716,-0.88111 z"
   id="path13931" /><path
   style="fill:#999999;stroke-width:0.614694"
   d="m 302.18654,236.09953 c -6.26352,-0.69508 -6.4208,-0.75131 -7.94878,-2.84181 -0.85735,-1.17298 -3.79073,-4.34807 -6.51862,-7.05573 -5.70055,-5.6583 -11.33477,-8.81594 -18.79042,-10.5309 -2.53562,-0.58324 -4.83359,-1.24703 -5.10661,-1.47509 -0.27302,-0.22805 1.00334,-2.40821 2.83634,-4.84479 10.05255,-13.36269 17.48663,-29.84948 21.46722,-47.60857 1.26587,-5.64756 1.3953,-7.79307 1.3953,-23.1291 0,-18.52745 -0.20664,-20.18669 -4.27322,-34.31223 -1.13681,-3.9488 -1.94166,-7.307517 -1.78856,-7.46383 0.52079,-0.531736 13.21739,1.902116 20.88426,4.00337 24.6364,6.75209 47.46988,19.74991 68.05091,38.73756 l 4.71036,4.34568 -0.63234,6.67371 c -1.98051,20.90228 -10.50913,42.13931 -23.81293,59.29623 -7.80656,10.06757 -22.74507,23.69351 -28.70675,26.18446 -2.54833,1.06476 -12.27622,1.07416 -21.76616,0.021 z"
   id="path13933" /><path
   style="fill:#808080;stroke-width:0.614694"
   d="m 293.20914,407.47938 c -4.61803,-3.15419 -11.67413,-9.31531 -17.00031,-14.84404 -13.84602,-14.37255 -23.71255,-32.03528 -28.79354,-51.54527 -2.08912,-8.02183 -3.93772,-20.54742 -3.43053,-23.24433 0.56136,-2.9849 6.83759,-13.04506 14.14748,-22.67699 0.57011,-0.7512 2.21514,-1.30274 5.05254,-1.694 11.74888,-1.62007 22.00203,-6.87975 27.52234,-14.11846 2.35559,-3.08886 3.42406,-3.7682 3.42406,-2.17704 0,2.14025 11.2892,23.12835 15.40027,28.63112 16.48663,22.06775 42.65653,39.21437 68.19814,44.68368 3.88794,0.83253 7.54949,1.69971 8.13676,1.92706 0.87315,0.33802 -0.14304,1.75786 -5.57517,7.7897 -18.54857,20.59633 -42.34548,36.03405 -69.22403,44.90757 -13.1729,4.34883 -14.65984,4.54541 -17.85801,2.361 z"
   id="path13935" /><path
   style="fill:#808080;stroke-width:0.614694"
   d="m 228.97359,404.48483 c -17.9001,-6.25974 -36.59894,-16.77501 -50.3568,-28.3181 -10.40883,-8.73319 -25.84511,-25.9012 -30.48735,-33.90762 l -1.14203,-1.96964 2.34324,-7.12363 c 3.07638,-9.35245 8.35998,-19.95815 14.60385,-29.31415 6.02061,-9.02145 18.29866,-21.78103 27.65557,-28.74019 l 5.95242,-4.42709 11.74047,0.68602 c 6.45726,0.37731 12.07704,0.78902 12.48841,0.9149 0.41136,0.12588 1.47828,0.38794 2.37092,0.58235 1.07346,0.23379 2.28617,1.38697 3.58166,3.4058 3.16013,4.92464 9.22127,10.14482 14.93435,12.86226 5.38652,2.56212 9.01715,3.75114 11.51776,3.77204 3.49183,0.0292 3.45972,0.85485 -0.22359,5.74882 -9.85308,13.09167 -17.5196,30.11282 -21.06072,46.75882 -1.30979,6.15706 -1.63326,9.64161 -1.90159,20.48506 -0.3653,14.76169 0.20385,20.9678 2.95679,32.24151 1.9318,7.91102 2.02485,8.50216 1.32726,8.4316 -0.25356,-0.0256 -3.08884,-0.96559 -6.30062,-2.08876 z"
   id="path13989" /><path
   style="fill:#808080;stroke-width:0.614694"
   d="m 226.75489,231.10627 c -1.46371,-4.0311 -6.03848,-13.74608 -8.28622,-17.59661 -8.64629,-14.81164 -19.9847,-27.14882 -34.6751,-37.72955 -5.81343,-4.18711 -21.2437,-12.30768 -26.83433,-14.12225 -1.80713,-0.58654 -3.53123,-1.29181 -3.83133,-1.56726 -0.83008,-0.76189 1.22814,-3.60616 8.28038,-11.44278 11.70107,-13.00249 26.08818,-24.53507 41.55411,-33.30941 10.48158,-5.94654 24.17902,-11.76244 27.7026,-11.76244 2.60753,0 20.14165,18.07595 25.88848,26.68849 11.22769,16.82645 18.58896,37.16725 20.12761,55.61695 l 0.41753,5.00656 -4.18439,6.9026 c -2.30141,3.79643 -5.80268,9.03445 -7.7806,11.64003 -3.82804,5.04281 -3.40616,4.81507 -10.64169,5.74476 -9.12728,1.17277 -19.85305,7.44644 -25.65988,15.00887 -1.49417,1.9459 -1.67608,2.02666 -2.07717,0.92204 z"
   id="path13991" /><path
   style="fill:#999999;stroke-width:0.614694"
   d="m 344.22876,312.13604 c -8.90947,-1.21637 -23.48543,-5.54306 -32.47537,-9.6399 -3.77495,-1.72031 -4.9422,-2.60239 -6.32054,-4.77644 -2.68743,-4.23885 -6.74144,-12.073 -9.07139,-17.52994 l -2.14695,-5.02836 1.79325,-4.26808 c 4.18431,-9.95895 4.75539,-20.342 1.62944,-29.62584 -0.85376,-2.53562 -1.49905,-4.66506 -1.43399,-4.73211 0.0651,-0.067 2.18414,0.16668 4.70906,0.51939 2.61666,0.36553 10.53813,0.52689 18.42137,0.37525 15.64116,-0.30088 21.15573,-1.18079 34.11553,-5.44354 18.71838,-6.15686 35.06114,-16.59813 49.14108,-31.39587 3.57952,-3.762 6.65654,-6.69168 6.83783,-6.5104 0.6599,0.65991 5.77497,16.62324 7.29167,22.75614 3.04163,12.29916 3.54832,16.662 3.87552,33.3705 0.34265,17.49675 -0.35851,25.98698 -3.17477,38.44277 -2.83822,12.55291 -1.7524,11.00181 -10.2371,14.62374 -9.25673,3.95148 -17.87656,6.54642 -26.90244,8.09879 -5.64822,0.97143 -9.56861,1.18233 -20.59226,1.10777 -7.48872,-0.0507 -14.4457,-0.2054 -15.45994,-0.34387 z"
   id="path13993" /><path
   style="fill:#999999;stroke-width:0.614694"
   d="m 293.20914,407.47449 c -7.63826,-5.23231 -19.04536,-16.14936 -24.97835,-23.9053 -13.41696,-17.53938 -22.22987,-39.6924 -24.2331,-60.91474 -0.52059,-5.51506 0.30704,-7.52511 7.44162,-18.07347 7.45327,-11.01955 6.68001,-10.35195 13.21457,-11.40883 10.72911,-1.73531 18.26987,-5.57562 24.80218,-12.63112 4.03014,-4.35293 4.67512,-4.82543 4.67512,-3.42492 0,1.36156 8.28539,17.59737 11.92658,23.37098 8.27629,13.12319 21.84208,26.31922 36.22798,35.24053 11.56411,7.17139 23.77456,12.14858 37.20383,15.16489 3.84168,0.86288 7.07751,1.66149 7.19071,1.77469 0.11321,0.11321 -2.80361,3.55406 -6.48182,7.64633 -19.104,21.25453 -43.13812,36.57655 -71.62197,45.65977 -10.87987,3.46949 -12.29251,3.60748 -15.36735,1.50119 z"
   id="path13995" /><path
   style="fill:#808080;stroke-width:0.614694"
   d="m 336.85243,310.45925 c -11.38537,-2.71538 -24.62859,-7.46852 -28.71842,-10.30736 -1.98428,-1.37732 -7.37033,-10.71518 -10.97902,-19.03446 l -2.57869,-5.94476 1.64224,-4.10223 c 2.44661,-6.11152 3.42567,-11.02909 3.4358,-17.25708 0.008,-4.89133 -1.18999,-11.79281 -2.71119,-15.61935 -0.32092,-0.80727 1.94894,-0.9229 18.23463,-0.92891 21.22538,-0.008 23.93051,-0.36075 37.83382,-4.93585 18.84089,-6.1999 33.94409,-15.68027 48.38372,-30.37077 3.38082,-3.43956 6.60636,-6.50993 7.16788,-6.82306 0.88426,-0.49311 1.39621,0.60236 3.82393,8.18238 3.1587,9.86236 5.48915,18.84234 6.65808,25.65579 1.12654,6.56638 1.09302,44.12868 -0.045,50.40493 -1.8072,9.96695 -3.87355,18.20564 -4.9335,19.67021 -1.52113,2.10181 -14.94083,7.47211 -25.73777,10.29976 l -8.44794,2.21246 -18.44082,0.18217 c -17.64357,0.17429 -18.70658,0.11878 -24.58777,-1.28387 z"
   id="path13997" /><path
   style="fill:#2a7fff;stroke-width:0.614694"
   d="m 256.32749,411.17597 c -6.5101,-1.00898 -17.1324,-3.32235 -18.15382,-3.95362 -0.76024,-0.46986 -2.48834,-6.11654 -4.04073,-13.20336 -1.37594,-6.2813 -2.65937,-17.65114 -2.6814,-23.75427 -0.0529,-14.65986 3.53942,-32.63979 9.14807,-45.7871 2.0387,-4.77894 1.94405,-4.91046 3.11962,4.335 1.63193,12.8346 7.35658,29.59226 14.19086,41.54064 7.27282,12.71509 17.49394,24.63141 29.13341,33.96527 3.3911,2.71937 6.24482,5.14048 6.34159,5.38024 0.0968,0.23975 -3.22258,0.89063 -7.37633,1.44638 -9.01097,1.20564 -22.01407,1.21914 -29.68127,0.0308 z"
   id="path13999" /><path
   style="fill:#2a7fff;stroke-width:0.614694"
   d="m 377.42225,349.18583 c -22.40117,-5.77218 -40.43828,-15.86421 -55.55095,-31.08158 -4.4863,-4.51738 -13.13325,-14.81177 -12.75723,-15.18778 0.10474,-0.10475 1.96292,0.60927 4.12929,1.58669 5.45277,2.46019 16.30742,5.88817 23.62576,7.4612 7.7426,1.66422 28.86096,2.37377 38.12667,1.281 11.63988,-1.37277 23.70414,-4.64257 33.3532,-9.03978 2.51441,-1.14586 4.67543,-2.08338 4.80226,-2.08338 1.25474,0 -3.29765,11.3834 -9.51873,23.80186 -3.54066,7.06784 -11.15898,19.36969 -15.04729,24.29797 -1.12918,1.43119 -1.84525,1.36473 -11.16298,-1.0362 z"
   id="path14070" /><path
   style="fill:#2a7fff;stroke-width:0.614694"
   d="m 327.32467,236.21263 c 0,-0.15343 2.42036,-2.18936 5.37857,-4.5243 7.40936,-5.84827 17.03075,-15.52188 21.62581,-21.74317 12.68793,-17.17833 21.52513,-39.30948 23.17893,-58.04738 0.21219,-2.40414 0.57327,-4.72757 0.80239,-5.16318 0.2775,-0.52757 1.75981,0.80649 4.43953,3.99551 8.79815,10.4703 16.17611,21.70786 22.40013,34.11819 3.31783,6.61556 3.36178,6.77224 2.33791,8.33486 -1.70936,2.60881 -11.28474,12.29284 -16.23508,16.41929 -13.87945,11.56948 -33.35999,21.03687 -51.01961,24.79513 -6.27864,1.33619 -12.90858,2.26841 -12.90858,1.81505 z"
   id="path14072" /><path
   style="fill:#2a7fff;stroke-width:0.614694"
   d="m 277.34679,182.37807 c -1.19937,-15.55305 -9.05754,-36.8045 -19.30521,-52.20855 -5.11465,-7.6882 -13.41404,-17.16145 -19.91556,-22.73238 -2.66913,-2.28708 -4.76231,-4.43724 -4.65152,-4.77812 0.25116,-0.77273 10.8059,-3.569385 19.77951,-5.240904 8.71785,-1.623876 24.54492,-2.267702 26.7392,-1.087717 2.62987,1.41422 6.68061,14.935551 8.02371,26.783071 1.11239,9.8125 0.44029,31.48739 -1.21044,39.03544 -2.14014,9.78597 -7.40854,25.02548 -8.65147,25.02548 -0.2411,0 -0.6048,-2.15835 -0.80822,-4.79632 z"
   id="path14074" /><path
   style="fill:#2a7fff;stroke-width:0.614694"
   d="m 207.02219,203.47372 c -8.49735,-3.86235 -20.75526,-7.16525 -32.14169,-8.66061 -11.52911,-1.5141 -31.42194,-0.58342 -41.47816,1.94053 l -1.58882,0.39877 1.28184,-3.25207 c 4.05963,-10.29936 16.94035,-32.54311 18.84478,-32.54311 1.76479,0 15.777,6.13783 21.80831,9.55279 12.2239,6.92123 26.70245,19.33476 34.5092,29.58728 3.95049,5.18812 3.89969,5.31052 -1.23546,2.97642 z"
   id="path14076" /><path
   style="fill:#afdde9;stroke-width:0.614694"
   d="m 141.25121,330.85785 c -4.97273,-9.13834 -9.86639,-20.1955 -11.89726,-26.88168 l -1.35472,-4.46014 2.01984,-1.61671 c 10.41554,-8.33676 25.21039,-16.50538 37.44923,-20.67669 6.87595,-2.3435 19.93032,-5.22044 23.68822,-5.22044 h 2.29094 l -6.35565,5.07123 c -12.2013,9.73551 -21.68892,20.82385 -29.53242,34.51502 -3.99418,6.97201 -8.15632,16.62409 -10.10949,23.44413 -0.62553,2.1842 -1.27908,3.9707 -1.45235,3.96998 -0.17326,-6.2e-4 -2.30911,-3.66584 -4.74634,-8.1447 z"
   id="path14078" /><path
   style="fill:#afdde9;stroke-width:0.614694"
   d="m 254.73902,410.6264 c -2.56407,-0.43194 -7.29764,-1.38578 -10.51904,-2.11964 -6.77465,-1.54332 -6.41653,-1.11997 -8.75589,-10.35076 -3.17189,-12.51579 -4.36071,-30.58109 -2.78076,-42.25624 0.95502,-7.05715 3.41727,-17.77969 5.45141,-23.73969 2.16964,-6.35698 3.83357,-10.48641 4.1129,-10.20708 0.11637,0.11637 0.64192,3.10143 1.16789,6.63347 4.46604,29.99068 18.65161,54.95813 42.9311,75.56131 4.18582,3.55201 5.79342,5.26758 5.22491,5.5758 -3.27131,1.77352 -28.05734,2.38107 -36.83252,0.90283 z"
   id="path14212" /><path
   style="fill:#afdde9;stroke-width:0.614694"
   d="m 376.12498,348.53781 c -21.56719,-6.00716 -39.53188,-16.11722 -53.21944,-29.95049 -4.23567,-4.28075 -12.79231,-14.191 -12.79231,-14.81595 0,-0.19367 1.45221,0.289 3.22714,1.0726 4.74793,2.09612 16.52967,5.80389 22.88283,7.20134 7.28362,1.6021 32.47523,2.3176 41.05747,1.16611 10.70334,-1.43607 21.53655,-4.64302 34.71812,-10.27761 1.20964,-0.51707 0.91508,1.24749 -1.01621,6.0877 -4.7563,11.92021 -10.5013,22.81829 -18.31673,34.74623 -4.4472,6.78734 -4.5733,6.91464 -6.81386,6.87942 -1.25554,-0.0197 -5.6327,-0.96895 -9.72701,-2.10935 z"
   id="path14214" /><path
   style="fill:#afdde9;stroke-width:0.614694"
   d="m 328.89214,235.22728 c 0.32117,-0.27938 3.07347,-2.59272 6.1162,-5.14078 20.53914,-17.19993 33.94697,-38.67164 40.58506,-64.99412 0.78722,-3.12163 2.68015,-15.15566 2.73889,-17.4121 0.0358,-1.37628 1.68895,0.18955 6.37347,6.03688 6.76122,8.43951 12.4337,16.97486 17.68837,26.61559 5.90697,10.8375 6.0013,11.20047 3.67432,14.13852 -3.54508,4.47603 -15.80994,15.75574 -21.47303,19.74826 -10.12163,7.13583 -21.53232,12.8658 -33.5355,16.84015 -9.17408,3.03761 -24.09326,5.84245 -22.16778,4.1676 z"
   id="path14216" /><path
   style="fill:#afdde9;stroke-width:0.614694"
   d="m 277.89262,183.78655 c -1.67876,-13.69747 -5.63792,-27.03068 -11.76337,-39.61538 -6.75567,-13.87948 -13.37973,-22.90008 -25.51541,-34.74671 l -6.91751,-6.75275 4.25808,-1.33357 c 9.47733,-2.96817 19.77032,-4.637235 30.71658,-4.980859 12.54033,-0.393666 12.03746,-0.665023 14.89492,8.037649 3.76725,11.47358 4.11131,14.33987 4.10752,34.21861 -0.003,15.21103 -0.18381,18.97317 -1.12257,23.34363 -1.21426,5.6531 -5.87364,20.29852 -7.36106,23.13735 l -0.92136,1.75848 z"
   id="path14218" /><path
   style="fill:#afdde9;stroke-width:0.614694"
   d="m 205.30787,202.46062 c -5.77271,-2.45252 -14.89737,-5.13062 -23.25373,-6.825 -6.06727,-1.23024 -8.6188,-1.38803 -21.9263,-1.35599 -11.31943,0.0273 -16.57029,0.2982 -21.14061,1.09084 -3.34433,0.58001 -6.17041,0.96475 -6.28019,0.85498 -0.71732,-0.71733 9.16154,-19.89887 14.66726,-28.47906 3.90932,-6.09233 4.18889,-6.26302 8.0479,-4.91333 6.06107,2.11987 18.49164,8.40746 24.33532,12.30922 7.65155,5.10884 16.43923,12.49458 22.37979,18.80943 4.71075,5.00755 8.90631,10.47885 7.96397,10.38554 -0.26981,-0.0267 -2.42684,-0.8712 -4.79341,-1.87663 z"
   id="path14220" /></svg>
