<?xml version="1.0" encoding="UTF-8" standalone="no"?>
<!-- Uploaded to: SVG Repo, www.svgrepo.com, Generator: SVG Repo Mixer Tools -->

<svg
   version="1.1"
   id="Uploaded to svgrepo.com"
   width="800px"
   height="800px"
   viewBox="0 0 32 32"
   xml:space="preserve"
   sodipodi:docname="wall-switch-on.svg"
   inkscape:version="1.2 (dc2aedaf03, 2022-05-15)"
   xmlns:inkscape="http://www.inkscape.org/namespaces/inkscape"
   xmlns:sodipodi="http://sodipodi.sourceforge.net/DTD/sodipodi-0.dtd"
   xmlns="http://www.w3.org/2000/svg"
   xmlns:svg="http://www.w3.org/2000/svg"><defs
   id="defs19" /><sodipodi:namedview
   id="namedview17"
   pagecolor="#ffffff"
   bordercolor="#000000"
   borderopacity="0.25"
   inkscape:showpageshadow="2"
   inkscape:pageopacity="0.0"
   inkscape:pagecheckerboard="0"
   inkscape:deskcolor="#d1d1d1"
   showgrid="false"
   inkscape:zoom="1.05875"
   inkscape:cx="348.05195"
   inkscape:cy="364.58087"
   inkscape:window-width="1920"
   inkscape:window-height="1027"
   inkscape:window-x="1912"
   inkscape:window-y="-8"
   inkscape:window-maximized="1"
   inkscape:current-layer="Uploaded to svgrepo.com" />
<style
   type="text/css"
   id="style2">
	.flatshadows_een{fill:#FDFFFF;}
	.flatshadows_twee{fill:#E1E5E5;}
	.flatshadows_drie{fill:#C4CCCC;}
	.flatshadows_vier{fill:#A3AFAF;}
	.st0{fill:#8D9999;}
	.st1{fill:#8C9898;}
</style>
<g
   id="g14">
	<rect
   x="4"
   class="flatshadows_twee"
   width="24"
   height="32"
   id="rect4" />
	
	<g
   id="g12">
		<rect
   x="11.413223"
   y="4.6576152"
   class="flatshadows_een"
   width="9.249115"
   height="11.380166"
   id="rect8"
   style="stroke-width:1.39614" />
		<rect
   x="11.337663"
   y="4.6719999"
   class="flatshadows_vier"
   width="9.3246756"
   height="11.22904"
   id="rect10"
   style="fill:#f9f9f9;stroke-width:1.3925" />
	</g>
</g>
<path
   style="fill:#ececec;stroke-width:0.94451"
   d="M 281.46399,540.25974 V 400 H 398.58323 515.70248 V 540.25974 680.51948 H 398.58323 281.46399 Z"
   id="path1324"
   transform="scale(0.04)" /><path
   style="fill:#ececec;stroke-width:0.94451"
   d="M 281.46399,540.25974 V 400 H 398.58323 515.70248 V 540.25974 680.51948 H 398.58323 281.46399 Z"
   id="path1326"
   transform="scale(0.04)" /><path
   style="fill:#e6e6e6;stroke-width:0.94451"
   d="M 100.11806,400 V 0.47225502 H 400 699.88194 V 400 799.52774 H 400 100.11806 Z m 416.52893,-1.41677 V 115.70248 H 400.94451 285.24203 V 257.85124 400 h -2.36127 -2.36128 v 140.732 140.73199 h 118.06375 118.06376 z"
   id="path1328"
   transform="scale(0.04)" /><path
   style="fill:#cccccc;stroke-width:0.0373976"
   d="M 11.447462,21.61039 V 16 h 4.590318 4.590319 v 5.61039 5.610389 H 16.03778 11.447462 Z"
   id="path1399" /><path
   style="fill:#f9f9f9;stroke-width:0.94451"
   d="M 286.18654,258.32349 V 116.64699 H 400.94451 515.70248 V 258.32349 400 H 400.94451 286.18654 Z"
   id="path1401"
   transform="scale(0.04)" /><path
   style="fill:#f9f9f9;stroke-width:0.0381573"
   d="M 11.42348,10.33294 V 4.6658796 h 4.68232 4.68232 V 10.33294 16 H 16.1058 11.42348 Z"
   id="path1417" /><path
   style="fill:#f9f9f9;stroke-width:0.0381571"
   d="M 11.5026,10.37072 V 4.70366 h 4.682311 4.682311 v 5.66706 5.66706 H 16.184911 11.5026 Z"
   id="path1419" /><g
   inkscape:groupmode="layer"
   id="layer1"
   inkscape:label="Layer 1"
   style="fill:#e6e6e6"><path
     style="fill:#e6e6e6;stroke-width:0.0229649"
     d="m 15.904234,27.24497 4.984631,0.0054 -9.1e-4,0.209413 -9.12e-4,0.209414 -2.463669,-0.0031 c -1.63153,-8.48e-4 -2.463714,0.0073 -2.463808,0.02969 -9.1e-5,0.02126 -0.821359,0.0315 -2.431065,0.02979 -1.609705,-8.47e-4 -2.430884,-0.01311 -2.430791,-0.03479 7.6e-5,-0.01708 -0.04038,-0.03222 -0.08989,-0.03222 l -0.09002,-10e-5 9.1e-4,-0.209413 9.12e-4,-0.209414 z"
     id="path855-1-9" /><path
     style="fill:#e6e6e6;stroke-width:0.0218383"
     d="m 16.019879,4.3909552 4.956691,0.00485 -9.1e-4,0.1904374 -8.99e-4,0.1904367 -2.449865,-0.00239 c -1.622389,-0.00166 -2.449912,0.00749 -2.449999,0.026942 -8.4e-5,0.019398 -0.816762,0.028513 -2.41744,0.026981 -1.60069,-0.00166 -2.417261,-0.012215 -2.417169,-0.031616 7.7e-5,-0.016108 -0.0401,-0.02934 -0.08933,-0.029379 l -0.08946,-8.52e-5 9.09e-4,-0.1904368 8.99e-4,-0.1904373 z"
     id="path855-1" /><path
     style="fill:#e6e6e6;stroke-width:0.0333341"
     d="M 20.557868,16.13002 V 4.6658796 h 0.191838 0.191835 v 5.6661744 c 0,3.752369 0.01,5.666194 0.0295,5.666194 0.01953,0 0.0295,1.888718 0.0295,5.590874 0,3.702156 -0.01,5.590893 -0.0295,5.590893 -0.01622,0 -0.0295,0.09311 -0.0295,0.207073 v 0.207072 h -0.191835 -0.191838 z"
     id="path855-8" /><path
     style="fill:#e6e6e6;stroke-width:0.0316338"
     d="M 11.050767,16.1678 V 4.70366 h 0.172778 0.172773 v 5.666174 c 0,3.752369 0.0089,5.666195 0.02657,5.666195 0.01759,0 0.02657,1.888718 0.02657,5.590892 0,3.702156 -0.0089,5.590875 -0.02657,5.590875 -0.01461,0 -0.02657,0.09311 -0.02657,0.207072 v 0.207072 h -0.172773 -0.172778 z"
     id="path855" /></g><path
   style="fill:#f2f2f2;stroke-width:0.94451"
   d="M 100.11806,400 V 0.47225502 H 400 699.88194 V 400 799.52774 H 400 100.11806 Z m 362.07767,293.19905 63.14024,-0.55247 -0.33032,-291.21054 -0.33033,-291.21054 -17.94569,-0.62245 c -9.87013,-0.34236 -65.76151,-0.49138 -124.20307,-0.33117 l -106.25737,0.29128 -0.47226,291.38135 c -0.25974,160.25974 -0.38368,291.54076 -0.27542,291.7356 0.10827,0.19485 4.57108,0.67882 9.91736,1.07552 9.44906,0.70111 46.26757,0.58517 176.75686,-0.55658 z"
   id="path1072"
   transform="scale(0.04)" /><path
   style="fill:#ececec;stroke-width:0.0379957"
   d="m 11.440086,21.64573 -6e-6,-5.61505 0.119096,0.02355 c 0.06554,0.01295 2.137401,0.02355 4.60422,0.02355 h 4.485124 v 5.591499 5.5915 h -4.604213 -4.604214 z"
   id="path1076" /></svg>
