<?xml version="1.0" encoding="UTF-8" standalone="no"?>
<!-- Uploaded to: SVG Repo, www.svgrepo.com, Generator: SVG Repo Mixer Tools -->

<svg
   version="1.1"
   id="Layer_1"
   viewBox="0 0 512 512"
   xml:space="preserve"
   sodipodi:docname="washing-machine.svg"
   inkscape:version="1.2 (dc2aedaf03, 2022-05-15)"
   xmlns:inkscape="http://www.inkscape.org/namespaces/inkscape"
   xmlns:sodipodi="http://sodipodi.sourceforge.net/DTD/sodipodi-0.dtd"
   xmlns="http://www.w3.org/2000/svg"
   xmlns:svg="http://www.w3.org/2000/svg"><defs
   id="defs322" /><sodipodi:namedview
   id="namedview320"
   pagecolor="#ffffff"
   bordercolor="#000000"
   borderopacity="0.25"
   inkscape:showpageshadow="2"
   inkscape:pageopacity="0.0"
   inkscape:pagecheckerboard="0"
   inkscape:deskcolor="#d1d1d1"
   showgrid="false"
   inkscape:zoom="1.6542969"
   inkscape:cx="243.91027"
   inkscape:cy="256.90673"
   inkscape:window-width="1920"
   inkscape:window-height="1027"
   inkscape:window-x="-8"
   inkscape:window-y="-8"
   inkscape:window-maximized="1"
   inkscape:current-layer="Layer_1" />
<path
   style="fill:#CFDCE5;"
   d="M60.347,454.753v29.474c0,15.339,12.435,27.774,27.774,27.774h335.758  c15.339,0,27.774-12.435,27.774-27.774V27.774C451.653,12.435,439.219,0,423.879,0H88.122c-15.34,0-27.775,12.435-27.775,27.774  v395.429"
   id="path293" />
<rect
   x="60.347"
   y="99.694"
   style="fill:#BAC6CC;"
   width="391.301"
   height="14.561"
   id="rect295" />
<circle
   style="fill:#FFFFFF;"
   cx="255.994"
   cy="309.614"
   r="149.468"
   id="circle297" />
<path
   style="fill:#BAC6CC;"
   d="M256.001,465.149c-85.765,0-155.541-69.775-155.541-155.54s69.775-155.541,155.541-155.541  s155.54,69.776,155.54,155.541S341.766,465.149,256.001,465.149z M256.001,166.202c-79.074,0-143.407,64.333-143.407,143.407  s64.333,143.406,143.407,143.406s143.406-64.331,143.406-143.406S335.076,166.202,256.001,166.202z"
   id="path299" />
<path
   style="fill:#415E72;"
   d="M306.022,343.873c4.684,12.571,11.879,23.916,20.956,33.442  c-17.861,18.723-43.052,30.408-70.972,30.408c-54.191,0-98.129-43.925-98.129-98.116s43.938-98.116,98.129-98.116  c27.921,0,53.111,11.685,70.972,30.42c-9.076,9.525-16.272,20.859-20.956,33.429c-3.992,10.666-6.176,22.205-6.176,34.267  C299.845,321.668,302.03,333.208,306.022,343.873z"
   id="path301" />
<path
   style="fill:#314A5F;"
   d="M299.845,309.607c0,12.061,2.184,23.601,6.176,34.267c-10.921,15.908-29.255,26.355-50.017,26.355  c-33.49,0-60.622-27.144-60.622-60.622s27.132-60.622,60.622-60.622c20.761,0,39.096,10.447,50.017,26.355  C302.03,286.006,299.845,297.545,299.845,309.607z"
   id="path303" />
<circle
   style="fill:#415E72;"
   cx="382.723"
   cy="52.383"
   r="23.66"
   id="circle305" />
<path
   style="fill:#BAC6CC;"
   d="M382.72,82.107c-16.392,0-29.727-13.335-29.727-29.727s13.335-29.727,29.727-29.727  c16.392,0,29.727,13.335,29.727,29.727S399.112,82.107,382.72,82.107z M382.72,34.786c-9.701,0-17.593,7.892-17.593,17.593  s7.892,17.593,17.593,17.593c9.701,0,17.593-7.892,17.593-17.593S392.42,34.786,382.72,34.786z"
   id="path307" />
<g
   id="g317">
	<rect
   x="95.156"
   y="28.718"
   style="fill:#415E72;"
   width="54.601"
   height="18.201"
   id="rect309" />
	<rect
   x="95.156"
   y="61.479"
   style="fill:#415E72;"
   width="54.601"
   height="18.201"
   id="rect311" />
	<rect
   x="174.028"
   y="28.718"
   style="fill:#415E72;"
   width="54.601"
   height="18.201"
   id="rect313" />
	<rect
   x="174.028"
   y="61.479"
   style="fill:#415E72;"
   width="54.601"
   height="18.201"
   id="rect315" />
</g>
<path
   style="fill:#999999;stroke-width:0.604486"
   d="m 81.605667,510.84481 c -6.801179,-1.68798 -13.514983,-6.6218 -17.051146,-12.53051 -4.111109,-6.8694 -3.803636,9.06389 -3.803636,-197.10482 V 114.55018 H 256 451.24911 v 186.6593 c 0,206.16871 0.30748,190.23542 -3.80363,197.10482 -3.6539,6.10543 -10.82833,11.2151 -17.83651,12.70325 -4.85706,1.03137 -343.829644,0.86311 -348.003303,-0.17274 z M 274.71447,464.22436 c 27.65778,-3.4241 52.86975,-13.65905 75.44607,-30.62779 7.58041,-5.69756 20.73578,-18.4866 26.92241,-26.17272 17.89479,-22.23202 28.75635,-47.11382 33.11622,-75.86305 1.88198,-12.40994 1.88616,-31.70027 0.01,-44.04021 -5.03644,-33.11755 -18.96702,-61.622 -41.80222,-85.53479 -24.28052,-25.42631 -55.08445,-41.23875 -91.06499,-46.74597 -8.40002,-1.28571 -32.38882,-1.45523 -40.68508,-0.2875 -35.68039,5.02216 -65.63636,19.77254 -90.3952,44.51077 -8.78132,8.77401 -13.82154,14.85459 -20.05689,24.19688 -29.406516,44.05912 -34.133301,100.41662 -12.51208,149.1816 13.2172,29.81035 36.47815,55.50607 65.23572,72.06408 17.09237,9.84143 37.61919,16.72284 57.46482,19.2645 9.19576,1.17772 29.0201,1.20575 38.32167,0.0542 z"
   id="path579" /><path
   style="fill:#4d4d4d;stroke-width:0.604486"
   d="m 60.750885,61.784618 c 0,-31.968846 0.140754,-38.197317 0.932326,-41.256199 C 64.068997,11.308988 71.843968,3.7366416 81.605667,1.1251625 85.639834,0.04592999 424.47401,-0.1022317 429.60897,0.97299144 c 7.1648,1.50025596 14.37258,6.75138516 18.17517,13.24128056 3.4114,5.822252 3.46497,6.557728 3.46497,47.570346 V 99.438017 H 256 60.750885 Z M 388.67423,81.597331 c 5.82641,-1.234168 10.0336,-3.442604 14.47719,-7.599367 19.72551,-18.452246 6.58757,-51.329723 -20.51151,-51.329723 -8.66426,0 -17.04837,3.68782 -22.43048,9.86623 -3.28882,3.775412 -6.32068,10.55913 -7.08244,15.846834 -2.19324,15.223971 8.15645,29.914309 23.41421,33.234112 4.85893,1.057217 7.07218,1.053916 12.13303,-0.01807 z M 150.21488,70.724911 V 61.355372 H 122.4085 94.602125 v 9.369539 9.36954 h 27.806375 27.80638 z m 78.58323,0 v -9.369539 h -27.50413 -27.50413 v 9.369539 9.36954 h 27.50413 27.50413 z M 150.21488,38.082645 v -9.36954 H 122.4085 94.602125 v 8.966548 c 0,4.931603 0.181346,9.147895 0.402991,9.36954 0.221645,0.221645 12.734514,0.402991 27.806374,0.402991 h 27.40339 z m 78.58323,0 v -9.36954 h -27.50413 -27.50413 v 9.36954 9.369539 h 27.50413 27.50413 z"
   id="path581" /><path
   style="fill:#4d4d4d;stroke-width:0.604486"
   d="M 158.37544,511.12465 C 72.942945,510.71988 80.023106,511.1 73.16823,506.55 c -3.799114,-2.52171 -6.784773,-5.6695 -9.060165,-9.55216 -1.29443,-2.20878 -1.735319,-4.00675 -2.204855,-8.9915 C 61.548307,484.23857 61.174363,409.1962 60.9572,298.16293 L 60.598082,114.55018 H 256.00819 451.4183 l -0.36647,183.3105 c -0.22491,112.50335 -0.59675,185.84933 -0.96265,189.88317 -0.52538,5.79218 -0.83287,6.9665 -2.58943,9.88928 -2.1781,3.62418 -6.54507,7.87543 -10.42622,10.14993 -5.66327,3.3189 -1.88605,3.19538 -105.81497,3.4603 -52.86234,0.13476 -130.65974,0.0813 -172.88312,-0.11871 z m 117.85905,-46.87867 c 24.09656,-3.20653 46.17863,-11.55174 66.50931,-25.13507 14.02998,-9.37371 28.48489,-23.17078 38.83488,-37.06752 20.70511,-27.80037 31.45869,-62.73515 30.17823,-98.03894 -0.43168,-11.90195 -1.59051,-20.245 -4.38857,-31.59577 -6.99396,-28.37216 -20.6912,-52.61617 -41.37847,-73.23962 -20.46035,-20.39722 -44.98969,-34.16225 -73.22054,-41.08886 -13.86589,-3.40208 -18.62785,-3.89903 -37.37382,-3.90026 -15.38321,-10e-4 -18.00455,0.14585 -24.4817,1.37156 -28.36289,5.36731 -50.90081,15.33562 -71.32939,31.54829 -6.99241,5.54936 -19.60821,18.07224 -25.261,25.07494 -29.47503,36.51381 -40.680033,84.49475 -30.63299,131.17356 3.10596,14.43036 10.13222,32.20256 17.93729,45.37052 24.28734,40.97526 66.21636,68.93891 113.21526,75.50645 8.09003,1.13049 32.9582,1.14293 41.39151,0.0207 z"
   id="path652" /><path
   style="fill:#b3b3b3;stroke-width:0.604486"
   d="M 237.58308,451.51359 C 184.61694,444.30553 140.10217,408.663 121.5487,358.60603 c -10.80352,-29.14773 -11.44348,-62.57257 -1.77161,-92.531 7.3397,-22.73457 19.49882,-42.21165 36.86121,-59.04612 23.20542,-22.49982 51.53843,-35.87267 84.02638,-39.65947 10.01013,-1.16679 26.63803,-0.85415 36.49234,0.68613 46.10424,7.20632 85.6582,35.9373 106.59184,77.42559 32.3075,64.03009 12.17894,141.53255 -47.35217,182.32345 -18.56384,12.72 -39.66234,20.7319 -62.46806,23.72146 -8.75549,1.14775 -27.86821,1.14118 -36.34555,-0.0125 z m 32.01786,-44.40962 c 10.59558,-1.49785 24.62318,-6.09977 33.35559,-10.94269 6.53866,-3.62629 14.28561,-9.24268 19.31315,-14.00168 l 5.00224,-4.73503 -5.26052,-6.52485 c -10.55704,-13.09435 -17.39248,-28.11257 -20.51856,-45.08154 -1.57073,-8.52621 -1.40005,-25.28489 0.34679,-34.04921 3.43136,-17.21608 11.77161,-34.4607 22.23966,-45.98359 l 3.51347,-3.8675 -4.55843,-4.29306 c -13.0455,-12.28603 -30.1277,-20.98175 -48.45717,-24.66717 -9.79207,-1.96885 -27.36225,-1.96885 -37.15432,0 -19.89743,4.00069 -36.5549,12.87887 -50.65239,26.99698 -8.38549,8.39775 -13.95459,15.98655 -18.65765,25.42409 -20.05304,40.24 -10.73673,88.39958 22.83388,118.03713 13.88353,12.25697 32.71521,21.01119 50.84789,23.6375 5.08155,0.736 22.73079,0.76813 27.80637,0.0506 z"
   id="path654" /><path
   style="fill:#666666;stroke-width:0.604486"
   d="m 60.750885,106.9941 v -6.9516 H 256 451.24911 v 6.9516 6.95159 H 256 60.750885 Z"
   id="path725" /></svg>
