<?xml version="1.0" encoding="UTF-8" standalone="no"?>
<!-- Uploaded to: SVG Repo, www.svgrepo.com, Generator: SVG Repo Mixer Tools -->

<svg
   height="800px"
   width="800px"
   version="1.1"
   id="Capa_1"
   viewBox="0 0 58 58"
   xml:space="preserve"
   sodipodi:docname="washer-dryer.svg"
   inkscape:version="1.2 (dc2aedaf03, 2022-05-15)"
   xmlns:inkscape="http://www.inkscape.org/namespaces/inkscape"
   xmlns:sodipodi="http://sodipodi.sourceforge.net/DTD/sodipodi-0.dtd"
   xmlns="http://www.w3.org/2000/svg"
   xmlns:svg="http://www.w3.org/2000/svg"><defs
   id="defs33" /><sodipodi:namedview
   id="namedview31"
   pagecolor="#ffffff"
   bordercolor="#000000"
   borderopacity="0.25"
   inkscape:showpageshadow="2"
   inkscape:pageopacity="0.0"
   inkscape:pagecheckerboard="0"
   inkscape:deskcolor="#d1d1d1"
   showgrid="false"
   inkscape:zoom="1.05875"
   inkscape:cx="381.1098"
   inkscape:cy="385.36009"
   inkscape:window-width="1920"
   inkscape:window-height="1027"
   inkscape:window-x="-8"
   inkscape:window-y="-8"
   inkscape:window-maximized="1"
   inkscape:current-layer="Capa_1" />
<path
   style="fill:#D6D9DF;"
   d="M48.33,58H9.67C8.195,58,7,56.805,7,55.33V2.67C7,1.195,8.195,0,9.67,0h38.66  C49.805,0,51,1.195,51,2.67v52.66C51,56.805,49.805,58,48.33,58z"
   id="path2" />
<path
   style="fill:#EAEBF0;"
   d="M42.77,42.942C44.794,40.144,46,36.717,46,33c0-9.389-7.611-17-17-17s-17,7.611-17,17s7.611,17,17,17  c4.229,0,8.088-1.553,11.063-4.109l1.177,1.177c0.778,0.778,2.051,0.778,2.828,0c0.778-0.778,0.778-2.051,0-2.828L42.77,42.942z"
   id="path4" />
<path
   style="fill:#C2C4C8;"
   d="M48.33,0H9.67C8.195,0,7,1.195,7,2.67V12h44V2.67C51,1.195,49.805,0,48.33,0z"
   id="path6" />
<path
   style="fill:#EAEBF0;"
   d="M9.67,0C8.195,0,7,1.195,7,2.67V12h16V0H9.67z"
   id="path8" />
<path
   style="fill:#999A9F;"
   d="M33,6c0-1.657-1.343-3-3-3s-3,1.343-3,3c0,0.171,0.023,0.336,0.05,0.5C27.023,6.664,27,6.829,27,7  c0,1.657,1.343,3,3,3s3-1.343,3-3c0-0.171-0.023-0.336-0.05-0.5C32.977,6.336,33,6.171,33,6z"
   id="path10" />
<path
   style="fill:#EAEBF0;"
   d="M38,4h-1c-0.552,0-1-0.447-1-1s0.448-1,1-1h1c0.552,0,1,0.447,1,1S38.552,4,38,4z"
   id="path12" />
<path
   style="fill:#EAEBF0;"
   d="M44,4h-3c-0.552,0-1-0.447-1-1s0.448-1,1-1h3c0.552,0,1,0.447,1,1S44.552,4,44,4z"
   id="path14" />
<path
   style="fill:#EAEBF0;"
   d="M38,7h-1c-0.552,0-1-0.447-1-1s0.448-1,1-1h1c0.552,0,1,0.447,1,1S38.552,7,38,7z"
   id="path16" />
<path
   style="fill:#EAEBF0;"
   d="M44,7h-3c-0.552,0-1-0.447-1-1s0.448-1,1-1h3c0.552,0,1,0.447,1,1S44.552,7,44,7z"
   id="path18" />
<path
   style="fill:#EAEBF0;"
   d="M38,10h-1c-0.552,0-1-0.447-1-1s0.448-1,1-1h1c0.552,0,1,0.447,1,1S38.552,10,38,10z"
   id="path20" />
<path
   style="fill:#EAEBF0;"
   d="M44,10h-3c-0.552,0-1-0.447-1-1s0.448-1,1-1h3c0.552,0,1,0.447,1,1S44.552,10,44,10z"
   id="path22" />
<path
   style="fill:#8C8E96;"
   d="M7,54v1.33C7,56.805,8.195,58,9.67,58h38.66c1.475,0,2.67-1.195,2.67-2.67V54H7z"
   id="path24" />
<circle
   style="fill:#7FABDA;"
   cx="29"
   cy="33"
   r="13"
   id="circle26" />
<circle
   style="fill:#EAEBF0;"
   cx="30"
   cy="6"
   r="3"
   id="circle28" />
<path
   style="fill:#666666;stroke-width:0.94451"
   d="m 378.27627,688.34697 c -8.55082,-0.69022 -27.25641,-4.04771 -38.03632,-6.8272 -15.17825,-3.91355 -26.98258,-8.39959 -43.6638,-16.59371 -66.32617,-32.58064 -114.11111,-95.8734 -126.92299,-168.11378 -12.83276,-72.35812 8.31676,-145.51533 57.64665,-199.4025 35.77568,-39.08078 81.11033,-63.77651 134.44753,-73.23936 13.52848,-2.40016 48.80603,-3.40491 62.89332,-1.79128 45.2537,5.1836 87.8581,22.82255 122.24926,50.6133 68.49875,55.35235 100.02955,143.74399 82.15129,230.29821 -5.4114,26.19828 -18.3488,57.28381 -33.01154,79.31898 -3.40073,5.11063 -6.18315,9.55265 -6.18315,9.87114 0,0.31849 5.0424,5.70024 11.20533,11.95943 12.93814,13.14019 14.90314,16.9614 14.06858,27.35817 -0.77623,9.67026 -5.59365,17.13537 -14.09779,21.84607 -4.41299,2.44448 -5.97265,2.78801 -12.59289,2.77369 -10.09142,-0.0218 -13.47885,-1.87387 -25.97402,-14.20092 l -9.91736,-9.78392 -5.66706,4.74589 c -7.51671,6.29489 -25.53312,18.35858 -35.66796,23.88308 -25.63132,13.97165 -54.50341,23.02432 -84.75128,26.57326 -10.66618,1.25145 -36.71941,1.6362 -48.1758,0.71145 z m 36.55132,-54.11646 c 55.26133,-4.89191 104.07493,-33.63186 134.5638,-79.22703 13.93924,-20.84572 23.00946,-43.4117 27.8108,-69.19108 2.00595,-10.77034 2.78071,-38.73481 1.3984,-50.47427 -8.27302,-70.25943 -55.22856,-128.42115 -121.48717,-150.48068 -28.3896,-9.45178 -58.2718,-11.76438 -87.38518,-6.76281 -56.15967,9.64803 -103.83978,44.74493 -129.83922,95.57348 -12.6975,24.82344 -18.27531,47.3289 -19.04996,76.86317 -0.39142,14.92328 -0.1485,20.09318 1.44235,30.69657 5.8143,38.7537 22.61201,72.43163 49.73528,99.71486 10.69855,10.76166 21.06464,19.36043 30.69878,25.46493 33.82759,21.43428 73.38461,31.25114 112.11212,27.82286 z"
   id="path967"
   transform="scale(0.0725)" /><path
   style="fill:#333333;stroke-width:0.94451"
   d="M 96.812279,455.25384 V 165.76151 H 400 703.18772 V 455.25384 744.74616 H 400 96.812279 Z M 433.363,687.62963 c 11.45617,-1.80999 26.60969,-5.05948 29.85471,-6.40197 1.33416,-0.55195 3.4474,-1.17289 4.6961,-1.37988 3.23119,-0.53559 22.42597,-7.63009 27.4817,-10.15738 2.33767,-1.16857 6.16293,-3.06828 8.50059,-4.22159 7.95454,-3.92446 16.9834,-9.02987 18.88389,-10.67798 1.04243,-0.90401 1.89533,-1.41195 1.89533,-1.12876 0,0.2832 3.82527,-2.10507 8.50059,-5.30726 4.67533,-3.2022 8.5006,-6.20075 8.5006,-6.66347 0,-0.4627 0.49563,-0.84128 1.1014,-0.84128 0.60577,0 1.7746,-0.6079 2.5974,-1.35089 0.8228,-0.74299 2.70784,-2.46678 4.18896,-3.83066 l 2.69297,-2.47979 5.33536,5.14483 c 2.93446,2.82966 7.81085,7.56796 10.83641,10.52956 3.02556,2.96161 5.7326,5.15316 6.01563,4.87013 0.28303,-0.28303 1.10183,0.0726 1.81956,0.79036 1.91186,1.91186 11.16416,3.5786 15.75011,2.83726 2.18434,-0.35311 5.69323,-1.38844 7.79755,-2.30075 4.08201,-1.76973 10.81388,-7.19083 10.81388,-8.7083 0,-0.50277 0.63324,-1.54738 1.40721,-2.32135 2.42743,-2.42742 4.5401,-11.52623 3.96658,-17.08314 -0.82048,-7.94964 -3.90238,-12.95595 -15.07652,-24.49067 -10.53837,-10.87843 -10.62891,-11.06426 -7.29418,-14.97141 0.88675,-1.03896 2.41738,-3.37662 3.4014,-5.1948 0.98402,-1.81818 2.02761,-3.5183 2.31908,-3.77804 2.29382,-2.04411 11.40612,-19.39019 10.60629,-20.19002 -0.32406,-0.32406 -0.0683,-0.5892 0.56846,-0.5892 0.63672,0 0.89499,-0.42503 0.57393,-0.94451 -0.32105,-0.51948 -0.18626,-0.94451 0.29954,-0.94451 1.42792,0 14.63031,-33.32555 14.16068,-35.74447 -0.0661,-0.34054 0.14176,-1.25671 0.46193,-2.03594 1.42536,-3.46892 5.84739,-23.73257 6.18348,-28.3353 0.0569,-0.77922 0.34408,-3.32939 0.63819,-5.66706 2.49802,-19.85462 2.50022,-33.41556 0.01,-58.83657 -0.75982,-7.75507 -4.27533,-25.49804 -5.29565,-26.72744 -0.47128,-0.56786 -0.64367,-1.24566 -0.38309,-1.50623 0.49514,-0.49515 -4.6648,-18.01728 -5.87785,-19.95994 -0.38334,-0.61392 -0.82234,-1.9221 -0.97556,-2.90707 -0.49523,-3.18333 -8.82216,-21.55878 -14.16883,-31.267 -6.20464,-11.26604 -17.09949,-27.86304 -18.29028,-27.86304 -0.46591,0 -0.8471,-0.44771 -0.8471,-0.9949 0,-1.17956 -8.97531,-12.26279 -13.69012,-16.90533 -1.82108,-1.79318 -3.31106,-3.55892 -3.31106,-3.92387 0,-0.36495 -4.35656,-4.54786 -9.68123,-9.29536 -5.32468,-4.7475 -10.53129,-9.41229 -11.57025,-10.36621 -3.67813,-3.37706 -13.53239,-10.46239 -14.55106,-10.46239 -0.56834,0 -1.03336,-0.42502 -1.03336,-0.94451 0,-0.51948 -0.60212,-0.94451 -1.33805,-0.94451 -0.73593,0 -1.47973,-0.37299 -1.6529,-0.82888 -0.84566,-2.22643 -30.99243,-19.12798 -31.02587,-17.39441 -0.008,0.41242 -0.34163,0.23506 -0.74148,-0.39414 -0.88918,-1.39918 -7.73893,-4.36106 -7.75911,-3.3551 -0.008,0.39658 -0.32672,0.26606 -0.70838,-0.29005 -0.99191,-1.44531 -13.388,-6.21931 -14.44796,-5.56422 -0.48723,0.30113 -0.88587,0.13978 -0.88587,-0.35855 0,-0.90302 -8.85423,-3.54843 -11.09799,-3.31578 -0.64935,0.0673 -1.18064,-0.20226 -1.18064,-0.59909 0,-0.39682 -1.16883,-0.96716 -2.5974,-1.26741 -1.42857,-0.30025 -6.6365,-1.4013 -11.57316,-2.44679 -4.93666,-1.04548 -11.09959,-2.15188 -13.69539,-2.45866 -2.59581,-0.30678 -7.90737,-0.93605 -11.80347,-1.39839 -8.6757,-1.0295 -41.55508,-1.21466 -41.56719,-0.23407 -0.005,0.38961 -2.95487,0.77824 -6.5557,0.86362 -8.8567,0.21001 -32.78356,4.78243 -39.71654,7.58983 -0.77922,0.31554 -2.41797,0.74142 -3.64166,0.94641 -3.97049,0.66512 -20.17943,7.00175 -31.15459,12.17939 -11.7169,5.52755 -30.37494,16.30556 -30.37494,17.54638 0,0.42895 -0.63755,0.77991 -1.41677,0.77991 -0.77922,0 -1.41676,0.42503 -1.41676,0.94451 0,0.51949 -0.45013,0.94451 -1.00028,0.94451 -1.43617,0 -14.17744,9.88761 -23.55699,18.28093 -7.55233,6.75823 -25.50177,25.88377 -25.50177,27.17272 0,0.32445 -1.42176,2.14211 -3.15948,4.03926 -1.73771,1.89714 -3.7566,4.58425 -4.48642,5.97137 -0.72981,1.38711 -2.29352,3.57421 -3.47488,4.86022 -1.18138,1.28601 -2.39628,3.32764 -2.6998,4.53695 -0.30352,1.20933 -0.86715,2.19877 -1.25251,2.19877 -0.74584,0 -9.74115,15.57556 -9.53724,16.51393 0.0663,0.3051 -0.53609,1.21135 -1.33864,2.01389 -0.80255,0.80255 -1.21768,1.84994 -0.9225,2.32754 0.29517,0.47761 0.0615,0.86837 -0.51932,0.86837 -0.5808,0 -0.81575,0.38873 -0.52211,0.86384 0.29364,0.47511 0.20059,1.00639 -0.20676,1.18064 -0.74626,0.3192 -5.92222,11.39821 -6.2627,13.40516 -0.10071,0.59361 -0.6371,1.92934 -1.19199,2.9683 -1.12232,2.1014 -4.88588,12.8662 -5.37909,15.38566 -0.17394,0.88854 -0.81815,2.8433 -1.43157,4.34392 -0.61341,1.50062 -0.89458,2.94911 -0.62481,3.21888 0.26976,0.26977 0.0892,0.97402 -0.40129,1.565 -1.04077,1.25406 -5.50864,22.72632 -6.24337,30.00526 -1.70859,16.92677 -2.34387,30.68993 -1.7778,38.51552 0.35698,4.93507 0.76502,10.67297 0.90675,12.75089 0.492,7.21308 1.54658,15.13288 2.89167,21.71618 0.74383,3.64051 1.54146,7.76125 1.77251,9.1572 1.17541,7.10122 9.60701,33.48974 10.96965,34.33191 0.50609,0.31277 0.7193,0.89367 0.47381,1.29089 -0.76621,1.23976 14.07772,30.33844 20.28314,39.7612 10.2631,15.58422 16.86472,23.72196 31.41502,38.72491 7.86164,8.1062 21.44267,19.83471 22.96762,19.83471 0.47089,0 1.39733,0.86655 2.05876,1.92567 0.66143,1.05911 1.61373,1.67158 2.11622,1.36103 0.50249,-0.31056 0.91361,-0.13719 0.91361,0.38527 0,1.0881 14.20635,10.7098 15.47882,10.48352 0.4614,-0.0821 1.11934,0.30456 1.46209,0.85914 1.44517,2.33835 29.66015,16.6747 34.39906,17.47855 0.59418,0.10079 2.03666,0.70907 3.20549,1.35171 1.16883,0.64265 2.12515,0.88893 2.12515,0.54731 0,-0.34163 0.53128,-0.2003 1.18063,0.31405 1.06243,0.84155 9.46301,3.85781 12.32,4.42354 0.62659,0.12408 3.52247,0.94631 6.43527,1.82718 2.91281,0.88087 6.52556,1.80384 8.02834,2.05105 1.50278,0.24721 5.49502,1.07128 8.87165,1.83126 3.37662,0.75999 8.47698,1.65131 11.33412,1.9807 2.85714,0.32941 8.17001,0.94829 11.80637,1.3753 9.85278,1.15698 43.92035,0.27389 54.61448,-1.41571 z"
   id="path969"
   transform="scale(0.0725)" /><path
   style="fill:#333333;stroke-width:0.94451"
   d="m 96.663486,100.35419 c -0.08184,-35.454544 -0.10798,-64.887838 -0.0581,-65.407319 0.557098,-5.801739 4.557294,-16.184221 7.551004,-19.598583 0.79709,-0.909091 1.10111,-1.652892 0.67561,-1.652892 -0.42551,0 1.20874,-1.544462 3.63165,-3.432137 2.42292,-1.8876753 4.4053,-3.8711464 4.4053,-4.4077137 0,-0.5365673 0.24498,-0.7305998 0.54439,-0.4311833 0.29942,0.2994164 2.95585,-0.5860617 5.90319,-1.9677293 l 5.35879,-2.51212266 96.1039,-0.25356685 96.1039,-0.25356686 V 82.627189 164.817 H 206.8477 96.812279 Z"
   id="path1040"
   transform="scale(0.0725)" /><path
   style="fill:#333333;stroke-width:0.94451"
   d="M 317.82763,82.644628 V 0.47225502 h 177.12543 c 176.53792,0 177.14464,0.006479 182.92049,1.95221798 10.63888,3.5839786 17.1983,9.595044 22.25963,20.398768 l 2.58229,5.51206 0.27134,68.24085 0.27133,68.240849 H 510.54289 317.82763 Z m 106.22436,54.278242 c 7.93978,-2.06805 13.92006,-5.6204 19.74832,-11.73072 9.57896,-10.04253 12.15844,-18.54183 11.53166,-37.99623 -0.58171,-18.054988 -3.97664,-26.483534 -14.3425,-35.607938 -20.62327,-18.153325 -52.99988,-11.279913 -64.86516,13.770588 -2.72642,5.756134 -3.08283,7.504619 -3.42735,16.813803 -0.65673,17.745294 -0.35111,22.362737 1.87765,28.368247 7.63422,20.57082 28.68814,31.79717 49.47738,26.38225 z m 106.27157,-0.20651 c 9.76647,-4.90685 10.18573,-19.03536 0.73584,-24.79702 -2.57839,-1.57206 -4.76553,-1.8772 -13.4679,-1.87892 -11.95783,-0.003 -15.57688,1.24345 -19.19163,6.60657 -1.83031,2.71559 -2.15648,4.19807 -1.82689,8.30363 0.81208,10.11597 5.86733,13.41716 20.54626,13.41716 7.55879,0 10.69907,-0.39274 13.20432,-1.65142 z m 82.77543,0.12115 c 5.0717,-2.40668 7.4441,-6.4864 7.4441,-12.80131 0,-6.22786 -2.03201,-9.7362 -7.15096,-12.34642 -2.83251,-1.44433 -6.26083,-1.65161 -27.33839,-1.6529 -21.67132,-9.4e-4 -24.42899,0.17512 -27.36725,1.75093 -3.58065,1.92032 -7.56488,8.3803 -7.56488,12.26561 0,4.58243 3.59934,10.25338 7.84017,12.35256 3.69466,1.82884 5.573,1.9633 27.43621,1.96399 19.69893,6.3e-4 23.98916,-0.2456 26.701,-1.53246 z M 530.15316,95.485251 c 5.0404,-2.622511 7.12639,-5.854714 7.53343,-11.672921 0.31599,-4.516586 0.009,-5.967993 -1.84851,-8.723782 -3.57392,-5.303831 -7.2712,-6.608409 -18.73357,-6.610103 -7.86469,-0.0011 -10.61081,0.362533 -13.19275,1.74724 -4.75384,2.549511 -6.87765,5.927171 -7.33878,11.671391 -0.32959,4.10556 -0.004,5.588043 1.82689,8.303632 3.59784,5.338041 7.24986,6.608416 19.00241,6.610107 6.92308,9.44e-4 11.01984,-0.424898 12.75088,-1.325564 z m 83.23897,-0.327329 c 4.51158,-2.300514 6.87425,-5.925249 7.34097,-11.262298 0.50825,-5.811881 -1.86147,-10.380425 -6.8999,-13.302235 -3.59826,-2.086645 -4.22708,-2.128462 -28.40604,-1.88902 -23.29359,0.230675 -24.87733,0.357701 -27.33243,2.192244 -6.72613,5.026003 -8.46005,11.488916 -4.90692,18.289699 3.83108,7.332791 5.09581,7.626193 32.86593,7.624503 21.07756,-9.45e-4 24.50588,-0.208567 27.33839,-1.652893 z m -81.00431,-42.26536 c 3.80486,-2.854798 5.51102,-6.411372 5.50711,-11.479851 -0.008,-10.176277 -6.15359,-14.439755 -20.86326,-14.473432 -7.63034,-0.01747 -9.70174,0.318401 -13.12365,2.127947 -9.73594,5.148491 -10.13526,18.483987 -0.72893,24.34336 2.7399,1.706738 4.37612,1.887485 14.88466,1.64426 10.07147,-0.233109 12.17634,-0.55085 14.32407,-2.162284 z m 82.11241,0.217301 c 9.09397,-6.075168 8.25352,-19.57431 -1.51305,-24.302222 -3.56319,-1.724915 -5.8261,-1.888647 -26.03627,-1.883837 -12.17365,0.0029 -23.6928,0.438249 -25.59812,0.967451 -4.32221,1.200491 -8.9859,6.38085 -9.83917,10.929207 -0.89521,4.771873 1.99391,11.487942 6.1454,14.285629 3.11739,2.100806 3.73829,2.147746 28.40946,2.147746 24.64997,0 25.29525,-0.04866 28.43175,-2.143974 z"
   id="path1042"
   transform="scale(0.0725)" /><path
   style="fill:#800000;stroke-width:0.94451"
   d="m 504.13812,94.314374 c -9.49367,-4.680191 -8.97326,-18.433118 0.89172,-23.565863 3.79545,-1.974772 20.71249,-1.805721 25.04518,0.250275 8.79048,4.171353 9.34458,17.887465 0.92989,23.0182 -4.03458,2.46003 -22.07486,2.659718 -26.86679,0.297388 z"
   id="path1044"
   transform="scale(0.0725)" /><path
   style="fill:#800000;stroke-width:0.94451"
   d="m 509.56316,95.033797 c -5.56611,-0.876714 -8.1638,-2.386596 -9.90758,-5.758693 -3.2169,-6.220817 -0.71226,-14.422092 5.37939,-17.614398 4.1371,-2.16803 19.48039,-2.218692 24.5363,-0.08102 8.32486,3.519815 8.96902,17.693159 0.99125,21.810258 -3.13825,1.619564 -15.17257,2.561622 -20.99936,1.643849 z"
   id="path1115"
   transform="scale(0.0725)" /><path
   style="fill:#16502d;stroke-width:0.94451"
   d="m 558.58124,93.723794 c -8.78043,-5.865707 -8.19133,-17.906053 1.1081,-22.647946 2.82795,-1.44201 6.23294,-1.651163 26.85139,-1.649362 21.89726,0.0019 23.83639,0.138419 26.69104,1.878919 8.85233,5.397331 8.94669,18.129103 0.16926,22.836493 -2.87677,1.542828 -5.78428,1.725871 -27.41427,1.725871 -23.58306,0 -24.27751,-0.05433 -27.40552,-2.143975 z"
   id="path1117"
   transform="scale(0.0725)" /><path
   style="fill:#e6e6e6;stroke-width:0.94451"
   d="m 402.36128,121.98641 c -10.49771,-3.47371 -20.78522,-12.08176 -25.00616,-20.92384 -6.64427,-13.918513 -4.87791,-31.405463 4.40452,-43.60474 9.53195,-12.527203 28.34325,-18.403636 43.65622,-13.637703 15.68456,4.881584 26.12164,17.116583 28.52443,33.438127 2.62909,17.858665 -6.60095,34.561376 -23.47179,42.474616 -5.5484,2.60247 -7.55733,3.0275 -15.35634,3.24894 -5.58727,0.15863 -10.39835,-0.21694 -12.75088,-0.9954 z"
   id="path1257"
   transform="scale(0.0725)" /></svg>
