<?xml version="1.0" encoding="iso-8859-1"?>
<!-- Generator: Adobe Illustrator 19.0.0, SVG Export Plug-In . SVG Version: 6.00 Build 0)  -->
<svg version="1.1" id="Layer_1" xmlns="http://www.w3.org/2000/svg" xmlns:xlink="http://www.w3.org/1999/xlink" x="0px" y="0px"
	 viewBox="0 0 512 512" style="enable-background:new 0 0 512 512;" xml:space="preserve">
<polygon style="fill:#AFB6BB;" points="450.042,460.402 466.21,503.518 45.832,503.518 62,460.402 115.895,460.402 396.147,460.402 
	"/>
<path style="fill:#546A79;" d="M396.147,406.508v53.895H115.895v-53.895c0-5.928,4.851-10.779,10.779-10.779h258.695
	C391.297,395.729,396.147,400.579,396.147,406.508z"/>
<path style="fill:#00B4D7;" d="M78.168,88.529c25.438,0,25.438,21.558,50.769,21.558c25.438,0,25.438-21.558,50.769-21.558
	c25.438,0,25.438,21.558,50.877,21.558c25.331,0,25.331-21.558,50.769-21.558c25.331,0,25.331,21.558,50.769,21.558
	s25.438-21.558,50.877-21.558s25.438,21.558,50.877,21.558v285.642h-48.505H126.674H78.168L78.168,88.529L78.168,88.529z"/>
<path style="fill:#F1F2F2;" d="M433.874,18.465v91.621c-25.438,0-25.438-21.558-50.877-21.558s-25.438,21.558-50.877,21.558
	s-25.438-21.558-50.769-21.558c-25.438,0-25.438,21.558-50.769,21.558c-25.438,0-25.438-21.558-50.877-21.558
	c-25.331,0-25.331,21.558-50.769,21.558c-25.331,0-25.331-21.558-50.769-21.558V18.465c0-5.928,4.851-10.779,10.779-10.779h334.147
	C429.023,7.686,433.874,12.537,433.874,18.465z"/>
<path style="fill:#00AAD5;" d="M117.288,107.967c-14.377-5.314-18.414-19.439-39.12-19.439v307.2h48.505h258.695h48.505v-36.696
	C289.119,337.797,169.519,239.974,117.288,107.967z"/>
<path d="M455.622,452.716H404.21v-45.811c0-0.917-0.088-1.812-0.216-2.695h37.942v-94.32h-16.168v78.152H86.231v-32.337h223.663
	v-16.168H86.231V18.863c0-1.461,1.234-2.695,2.695-2.695h334.147c1.461,0,2.695,1.234,2.695,2.695v82.419
	c-4.71-1.471-8.04-4.281-12.127-7.745c-6.673-5.656-14.981-12.695-30.665-12.695s-23.991,7.04-30.664,12.695
	c-6.072,5.145-10.459,8.862-20.212,8.862c-9.764,0-14.146-3.722-20.213-8.874c-6.654-5.65-14.936-12.684-30.557-12.684
	c-15.702,0-24.006,7.052-30.678,12.718c-6.042,5.132-10.408,8.84-20.091,8.84c-9.755,0-14.141-3.718-20.213-8.862
	c-6.673-5.656-14.981-12.695-30.664-12.695c-15.621,0-23.903,7.033-30.557,12.685c-6.065,5.151-10.448,8.873-20.211,8.873v16.168
	c15.702,0,24.006-7.052,30.678-12.718c6.042-5.132,10.408-8.84,20.09-8.84c9.754,0,14.14,3.718,20.212,8.862
	c6.674,5.656,14.982,12.695,30.665,12.695c15.621,0,23.903-7.033,30.557-12.685c6.066-5.151,10.448-8.873,20.212-8.873
	c9.682,0,14.048,3.708,20.091,8.84c6.672,5.666,14.977,12.718,30.679,12.718c15.684,0,23.991-7.04,30.664-12.695
	c6.072-5.145,10.458-8.862,20.212-8.862c9.755,0,14.141,3.718,20.213,8.862c5.422,4.595,11.923,10.103,22.58,12.009v159.679h16.168
	V18.863C441.936,8.463,433.474,0,423.073,0H88.926C78.525,0,70.063,8.463,70.063,18.863v385.347h37.942
	c-0.127,0.883-0.216,1.777-0.216,2.695v45.811H56.377L34.145,512h443.71L455.622,452.716z M123.957,406.905
	c0-1.461,1.234-2.695,2.695-2.695h258.695c1.461,0,2.695,1.234,2.695,2.695v45.811H123.957V406.905z M57.475,495.832l10.105-26.947
	h376.837l10.105,26.947H57.475z"/>
<rect x="320.673" y="339.537" width="32.337" height="16.168"/>
<g>
	<rect x="126.652" y="156.295" style="fill:#FFFFFF;" width="32.337" height="16.168"/>
	<rect x="158.989" y="188.632" style="fill:#FFFFFF;" width="32.337" height="16.168"/>
	<rect x="363.789" y="145.516" style="fill:#FFFFFF;" width="32.337" height="16.168"/>
</g>
<rect x="137.431" y="274.863" width="32.337" height="16.168"/>
<rect x="363.789" y="339.537" style="fill:#FFFFFF;" width="32.337" height="16.168"/>
<rect x="371.873" y="185.937" width="16.168" height="118.568"/>
<g>
</g>
<g>
</g>
<g>
</g>
<g>
</g>
<g>
</g>
<g>
</g>
<g>
</g>
<g>
</g>
<g>
</g>
<g>
</g>
<g>
</g>
<g>
</g>
<g>
</g>
<g>
</g>
<g>
</g>
</svg>
