<?xml version="1.0" encoding="iso-8859-1"?>
<!-- Generator: Adobe Illustrator 19.0.0, SVG Export Plug-In . SVG Version: 6.00 Build 0)  -->
<svg version="1.1" id="Layer_1" xmlns="http://www.w3.org/2000/svg" xmlns:xlink="http://www.w3.org/1999/xlink" x="0px" y="0px"
	 viewBox="0 0 512 512" style="enable-background:new 0 0 512 512;" xml:space="preserve">
<path style="fill:#00ABD5;" d="M171.678,442.714h-48.184V117.47c26.501,0,26.501,24.092,53.003,24.092
	c26.381,0,26.381-24.092,52.882-24.092s26.501,24.092,53.003,24.092s26.501-24.092,53.124-24.092
	c26.501,0,26.501,24.092,53.003,24.092v301.151h-48.184v60.23H171.678V442.714z"/>
<path style="fill:#E7ECED;" d="M123.494,117.47V9.056h265.013v132.507c-26.501,0-26.501-24.092-53.003-24.092
	c-26.622,0-26.622,24.092-53.124,24.092s-26.501-24.092-53.003-24.092c-26.501,0-26.501,24.092-52.882,24.092
	C149.995,141.563,149.995,117.47,123.494,117.47z"/>
<path style="fill:#00A0D4;" d="M133.637,119.035c-2.95-0.913-6.188-1.564-10.143-1.564v325.243h48.184v60.23h168.644v-60.23h48.184
	v-65.858C268.885,334.63,174.544,239.274,133.637,119.035z"/>
<path d="M397.562,322.257V0H207.816v18.112H379.45v112.831c-4.26-1.682-7.47-4.597-11.353-8.128
	c-7.058-6.417-15.841-14.402-32.594-14.402c-16.822,0-25.633,7.992-32.713,14.415c-6.193,5.617-10.669,9.677-20.409,9.677
	c-9.749,0-14.221-4.064-20.41-9.691c-7.058-6.415-15.841-14.401-32.593-14.401c-16.773,0-25.553,8-32.608,14.428
	c-6.157,5.61-10.605,9.664-20.274,9.664c-9.749,0-14.221-4.064-20.409-9.69c-5.66-5.145-12.44-11.289-23.536-13.525V18.112h51.172V0
	h-69.285v451.77h48.184V512h186.757v-60.23h48.184V346.344H379.45v87.314h-48.184v60.23H180.734V451.77h111.405v-18.112H132.55
	V128.09c4.26,1.682,7.47,4.597,11.353,8.128c7.058,6.417,15.841,14.402,32.593,14.402c16.683,0,25.437-7.977,32.473-14.387
	c6.184-5.634,10.651-9.705,20.409-9.705c9.749,0,14.221,4.064,20.409,9.69c7.058,6.417,15.841,14.402,32.594,14.402
	c16.731,0,25.518-7.971,32.578-14.374c6.22-5.641,10.714-9.718,20.544-9.718c9.749,0,14.221,4.064,20.41,9.691
	c5.66,5.145,12.44,11.289,23.536,13.525v172.513H397.562z"/>
<rect x="153.605" y="66.253" width="30.115" height="18.112"/>
<rect x="183.72" y="42.161" width="30.115" height="18.112"/>
<g>
	<rect x="156.6" y="189.745" style="fill:#FFFFFF;" width="18.112" height="168.638"/>
	<rect x="156.6" y="376.46" style="fill:#FFFFFF;" width="18.112" height="24.092"/>
	<rect x="231.911" y="319.225" style="fill:#FFFFFF;" width="24.092" height="18.112"/>
</g>
<rect x="256.001" y="289.11" width="24.092" height="18.112"/>
<rect x="310.205" y="216.83" style="fill:#FFFFFF;" width="24.092" height="18.112"/>
<rect x="310.205" y="361.379" width="24.092" height="18.112"/>
<rect x="225.886" y="216.83" width="24.092" height="18.112"/>
<g>
</g>
<g>
</g>
<g>
</g>
<g>
</g>
<g>
</g>
<g>
</g>
<g>
</g>
<g>
</g>
<g>
</g>
<g>
</g>
<g>
</g>
<g>
</g>
<g>
</g>
<g>
</g>
<g>
</g>
</svg>
