<?xml version="1.0" encoding="UTF-8" standalone="no"?>
<!-- Generator: Adobe Illustrator 19.0.0, SVG Export Plug-In . SVG Version: 6.00 Build 0)  -->

<svg
   version="1.1"
   id="Layer_1"
   x="0px"
   y="0px"
   viewBox="0 0 90.068482 512.60443"
   xml:space="preserve"
   sodipodi:docname="water-humidifer-standing-com.svg"
   width="90.068481"
   height="512.60443"
   inkscape:version="1.2 (dc2aedaf03, 2022-05-15)"
   xmlns:inkscape="http://www.inkscape.org/namespaces/inkscape"
   xmlns:sodipodi="http://sodipodi.sourceforge.net/DTD/sodipodi-0.dtd"
   xmlns="http://www.w3.org/2000/svg"
   xmlns:svg="http://www.w3.org/2000/svg"><defs
   id="defs13023" /><sodipodi:namedview
   id="namedview13021"
   pagecolor="#ffffff"
   bordercolor="#000000"
   borderopacity="0.25"
   inkscape:showpageshadow="2"
   inkscape:pageopacity="0.0"
   inkscape:pagecheckerboard="0"
   inkscape:deskcolor="#d1d1d1"
   showgrid="false"
   inkscape:zoom="1.6542969"
   inkscape:cx="162.90909"
   inkscape:cy="256.90673"
   inkscape:window-width="1920"
   inkscape:window-height="1027"
   inkscape:window-x="-8"
   inkscape:window-y="-8"
   inkscape:window-maximized="1"
   inkscape:current-layer="Layer_1" />
<polygon
   style="fill:#afb6bb"
   points="45.832,503.518 62,460.402 115.895,460.402 396.147,460.402 450.042,460.402 466.21,503.518 "
   id="polygon12962"
   transform="matrix(0.18323916,0,0,1,-1.8578358,2.4179457)" />

<path
   style="fill:#00b4d7;stroke-width:0.447605"
   d="m 10.437462,54.073274 c 4.598821,0 4.598821,23.891117 9.178297,23.891117 4.598821,0 4.598821,-23.891117 9.178297,-23.891117 4.598821,0 4.598821,23.891117 9.197822,23.891117 4.579477,0 4.579477,-23.891117 9.178297,-23.891117 4.579477,0 4.579477,23.891117 9.178297,23.891117 4.598821,0 4.598821,-23.891117 9.197822,-23.891117 4.599002,0 4.598821,23.891117 9.197816,23.891117 V 394.52003 H 65.975117 19.206641 10.437462 Z"
   id="path12966" />
<path
   style="fill:#f1f2f2;stroke-width:0.39635"
   d="m 76.62253,36.217805 v 78.099605 c -4.687991,0 -4.687991,-18.376478 -9.376163,-18.376478 -4.688173,0 -4.687989,18.376478 -9.376162,18.376478 -4.688174,0 -4.687989,-18.376478 -9.356259,-18.376478 -4.687989,0 -4.687989,18.376478 -9.356258,18.376478 -4.687989,0 -4.687989,-18.376478 -9.376163,-18.376478 -4.66827,0 -4.66827,18.376478 -9.356259,18.376478 -4.66827,0 -4.66827,-18.376478 -9.356259,-18.376478 V 36.217805 c 0,-5.053148 0.893995,-9.188239 1.98647,-9.188239 H 74.63569 c 1.09284,0 1.98684,4.135091 1.98684,9.188239 z"
   id="path12968" />
<path
   style="fill:#00aad5;stroke-width:0.24193"
   d="M 55.069275,107.967 C 54.227785,102.653 53.991498,88.528 52.77957,88.528 v 307.2 h 2.839012 15.141497 2.839013 V 359.032 C 65.126596,337.797 58.126372,239.974 55.069275,107.967 Z"
   id="path12970" />
<path
   d="m 80.27476,450.43804 h -9.387451 v -45.70282 c 0,-0.91484 -0.01607,-1.80773 -0.03943,-2.68864 H 77.7758 v -94.09729 h -2.95216 v 77.96747 H 12.826707 V 353.65611 H 53.665909 V 337.52629 H 12.826707 V 17.609486 c 0,-1.45755 0.225321,-2.688636 0.492088,-2.688636 h 61.012757 c 0.266768,0 0.492088,1.231086 0.492088,2.688636 V 99.833875 C 73.963629,98.366346 73.355596,95.562981 72.609339,92.10716 71.3909,86.464516 69.873919,79.442137 67.010138,79.442137 c -2.863781,0 -4.380578,7.023376 -5.599019,12.665023 -1.108701,5.132852 -1.909734,8.84108 -3.69056,8.84108 -1.782834,0 -2.582954,-3.713217 -3.690743,-8.853051 -1.214971,-5.636659 -2.727203,-12.65405 -5.579482,-12.65405 -2.867067,0 -4.383317,7.035348 -5.601574,12.687969 -1.103224,5.119882 -1.900423,8.819132 -3.668467,8.819132 -1.781191,0 -2.582041,-3.709226 -3.690744,-8.84108 -1.21844,-5.642644 -2.735419,-12.665023 -5.599019,-12.665023 -2.852277,0 -4.364509,7.016393 -5.57948,12.655047 -1.107424,5.138837 -1.907728,8.852056 -3.690377,8.852056 v 16.12982 c 2.867067,0 4.383316,-7.03535 5.601574,-12.68797 1.103224,-5.119886 1.900423,-8.81913 3.668283,-8.81913 1.781008,0 2.58186,3.70922 3.690563,8.84108 1.218621,5.64264 2.735601,12.66502 5.5992,12.66502 2.852278,0 4.36451,-7.01639 5.579481,-12.65505 1.107607,-5.138837 1.907727,-8.852048 3.69056,-8.852048 1.767861,0 2.565062,3.699244 3.668468,8.819128 1.218258,5.65262 2.73469,12.68797 5.601757,12.68797 2.863781,0 4.380578,-7.02338 5.599019,-12.66502 1.108703,-5.132857 1.909552,-8.84108 3.69056,-8.84108 1.781191,0 2.582041,3.70922 3.690744,8.84108 0.990018,4.58415 2.177051,10.07914 4.122948,11.98064 v 159.30195 h 2.95215 V 17.609486 C 77.7758,7.2340437 76.2307,-1.2089728 74.331552,-1.2089728 H 13.318795 c -1.899145,0 -3.4442438,8.4430165 -3.4442438,18.8184588 V 402.04658 h 6.9279278 c -0.02319,0.88091 -0.03943,1.7728 -0.03943,2.68864 v 45.70282 H 7.3755892 l -4.059397,59.14402 H 84.33434 Z M 19.715195,404.73522 c 0,-1.45755 0.225319,-2.68864 0.492088,-2.68864 h 47.235782 c 0.266768,0 0.492088,1.23109 0.492088,2.68864 v 45.70282 H 19.715195 Z M 7.5760772,493.45223 9.4211742,466.56886 H 78.22882 l 1.84509,26.88337 z"
   id="path12972"
   style="stroke-width:0.426804" />


<rect
   x="275.13947"
   y="-78.085052"
   width="32.337002"
   height="16.167999"
   id="rect12984"
   transform="rotate(90.08361)" />


<g
   id="g12990"
   transform="translate(-25.38843)">
</g>
<g
   id="g12992"
   transform="translate(-25.38843)">
</g>
<g
   id="g12994"
   transform="translate(-25.38843)">
</g>
<g
   id="g12996"
   transform="translate(-25.38843)">
</g>
<g
   id="g12998"
   transform="translate(-25.38843)">
</g>
<g
   id="g13000"
   transform="translate(-25.38843)">
</g>
<g
   id="g13002"
   transform="translate(-25.38843)">
</g>
<g
   id="g13004"
   transform="translate(-25.38843)">
</g>
<g
   id="g13006"
   transform="translate(-25.38843)">
</g>
<g
   id="g13008"
   transform="translate(-25.38843)">
</g>
<g
   id="g13010"
   transform="translate(-25.38843)">
</g>
<g
   id="g13012"
   transform="translate(-25.38843)">
</g>
<g
   id="g13014"
   transform="translate(-25.38843)">
</g>
<g
   id="g13016"
   transform="translate(-25.38843)">
</g>
<g
   id="g13018"
   transform="translate(-25.38843)">
</g>
<path
   style="fill:#cccccc;fill-opacity:0.92228;stroke-width:0.604486"
   d="m 20.250295,426.16293 v -23.87722 h 23.57497 23.574971 v 23.87722 23.87721 H 43.825265 20.250295 Z"
   id="path13224" /></svg>
