<?xml version="1.0" encoding="iso-8859-1"?>
<!-- Generator: Adobe Illustrator 19.0.0, SVG Export Plug-In . SVG Version: 6.00 Build 0)  -->
<svg version="1.1" id="Layer_1" xmlns="http://www.w3.org/2000/svg" xmlns:xlink="http://www.w3.org/1999/xlink" x="0px" y="0px"
	 viewBox="0 0 512 512" style="enable-background:new 0 0 512 512;" xml:space="preserve">
<path style="fill:#1895C2;" d="M340.457,344.804C339.706,344.855,256,322.124,256,322.124s-83.706,22.731-84.457,22.679
	c-34.372,2.321-61.531,30.948-61.531,65.9h291.977C401.988,375.751,374.829,347.125,340.457,344.804z"/>
<polygon style="fill:#E2F5FE;" points="110.012,66.059 110.012,112.333 130.856,155.398 381.167,155.398 401.988,112.344 
	401.988,66.059 "/>
<path style="fill:#C5EBFD;" d="M401.988,66.059H110.012C110.012,29.571,139.583,0,176.071,0h159.858
	C372.417,0,401.988,29.571,401.988,66.059z"/>
<path style="fill:#6ECDFB;" d="M366.945,128.649c-15.189,0-28.604-7.407-36.978-18.762c-8.363,11.355-21.811,18.762-36.989,18.762
	s-28.604-7.407-36.966-18.762c-8.385,11.355-21.811,18.762-36.989,18.762c-15.178,0-28.604-7.407-36.978-18.762
	c-8.363,11.355-21.811,18.762-36.989,18.762c-14.063,0-26.613-6.349-35.044-16.316v166.571c0,34.964,27.159,63.579,61.531,65.9
	c1.502,0.102,167.413,0.102,168.915,0c34.372-2.321,61.531-30.936,61.531-65.9V112.344
	C393.569,122.3,380.996,128.649,366.945,128.649z"/>
<g>
	<path style="fill:#1895C2;" d="M402.845,287.441H110.257c-4.713,0-8.533-3.821-8.533-8.533s3.821-8.533,8.533-8.533h292.588
		c4.713,0,8.533,3.821,8.533,8.533S407.558,287.441,402.845,287.441z"/>
	<path style="fill:#1895C2;" d="M402.845,181.016H110.257c-4.713,0-8.533-3.821-8.533-8.533s3.821-8.533,8.533-8.533h292.588
		c4.713,0,8.533,3.821,8.533,8.533S407.558,181.016,402.845,181.016z"/>
</g>
<path style="fill:#CFC8AB;" d="M424.745,402.174H87.255c-4.713,0-8.533,3.821-8.533,8.533s3.821,8.533,8.533,8.533h0.854
	l7.498,74.999c0.967,9.773,9.796,17.761,19.615,17.761h281.555c9.819,0,18.648-7.987,19.615-17.761l7.498-74.999h0.854
	c4.713,0,8.533-3.821,8.533-8.533S429.458,402.174,424.745,402.174z"/>
<g>
</g>
<g>
</g>
<g>
</g>
<g>
</g>
<g>
</g>
<g>
</g>
<g>
</g>
<g>
</g>
<g>
</g>
<g>
</g>
<g>
</g>
<g>
</g>
<g>
</g>
<g>
</g>
<g>
</g>
</svg>
