<?xml version="1.0" encoding="UTF-8" standalone="no"?>
<!-- Uploaded to: SVG Repo, www.svgrepo.com, Generator: SVG Repo Mixer Tools -->

<svg
   width="800px"
   height="800px"
   viewBox="0 0 48 48"
   fill="none"
   version="1.1"
   id="svg3"
   sodipodi:docname="water-level-ok.svg"
   inkscape:version="1.3.2 (091e20e, 2023-11-25, custom)"
   xmlns:inkscape="http://www.inkscape.org/namespaces/inkscape"
   xmlns:sodipodi="http://sodipodi.sourceforge.net/DTD/sodipodi-0.dtd"
   xmlns="http://www.w3.org/2000/svg"
   xmlns:svg="http://www.w3.org/2000/svg">
  <defs
     id="defs3" />
  <sodipodi:namedview
     id="namedview3"
     pagecolor="#ffffff"
     bordercolor="#000000"
     borderopacity="0.25"
     inkscape:showpageshadow="2"
     inkscape:pageopacity="0.0"
     inkscape:pagecheckerboard="0"
     inkscape:deskcolor="#d1d1d1"
     inkscape:zoom="1.01625"
     inkscape:cx="400"
     inkscape:cy="400"
     inkscape:window-width="1920"
     inkscape:window-height="1009"
     inkscape:window-x="-8"
     inkscape:window-y="-8"
     inkscape:window-maximized="1"
     inkscape:current-layer="svg3" />
  <rect
     width="48"
     height="48"
     fill="white"
     fill-opacity="0.01"
     id="rect1" />
  <path
     fill="#008000"
     d="m 31.238722,7.4645462 q 0,0.3858926 -0.251545,0.6560294 l -6.504399,6.9840664 -1.221817,1.311935 q -0.251544,0.270135 -0.610907,0.270135 -0.359364,0 -0.610908,-0.270135 L 20.81732,15.104642 17.565126,11.612547 q -0.251547,-0.270015 -0.251547,-0.655906 0,-0.385891 0.251546,-0.65603 l 1.221827,-1.3119326 q 0.251545,-0.270009 0.610908,-0.270009 0.359363,0 0.610908,0.270009 l 2.641286,2.8457846 5.893481,-6.3377548 q 0.251544,-0.27014 0.610907,-0.27014 0.359359,0 0.610906,0.27014 l 1.221829,1.3119337 q 0.251545,0.2700134 0.251545,0.6559043 z"
     id="path1-0"
     style="stroke-width:1.20246" />
  <path
     d="M9 29C11.7614 29 14 26.7614 14 24C14 26.7614 16.2386 29 19 29C21.7614 29 24 26.7614 24 24C24 26.7614 26.2386 29 29 29C31.7614 29 34 26.7614 34 24C34 26.7614 36.2386 29 39 29C41.7614 29 44 26.7614 44 24C44 35.0457 35.0457 44 24 44C12.9543 44 4 35.0457 4 24C4 26.7614 6.23858 29 9 29Z"
     fill="#2F88FF"
     stroke="#000000"
     stroke-width="4"
     stroke-linecap="round"
     stroke-linejoin="round"
     id="path1" />
</svg>
