<?xml version="1.0" encoding="UTF-8" standalone="no"?>
<!-- Generator: Adobe Illustrator 19.0.0, SVG Export Plug-In . SVG Version: 6.00 Build 0)  -->

<svg
   version="1.1"
   id="Layer_1"
   x="0px"
   y="0px"
   viewBox="0 0 512 512"
   style="enable-background:new 0 0 512 512;"
   xml:space="preserve"
   sodipodi:docname="wine-bottle-lamp-color.svg"
   inkscape:version="1.2 (dc2aedaf03, 2022-05-15)"
   xmlns:inkscape="http://www.inkscape.org/namespaces/inkscape"
   xmlns:sodipodi="http://sodipodi.sourceforge.net/DTD/sodipodi-0.dtd"
   xmlns="http://www.w3.org/2000/svg"
   xmlns:svg="http://www.w3.org/2000/svg"><defs
   id="defs8092" /><sodipodi:namedview
   id="namedview8090"
   pagecolor="#ffffff"
   bordercolor="#000000"
   borderopacity="0.25"
   inkscape:showpageshadow="2"
   inkscape:pageopacity="0.0"
   inkscape:pagecheckerboard="0"
   inkscape:deskcolor="#d1d1d1"
   showgrid="false"
   inkscape:zoom="1.6542969"
   inkscape:cx="92.184178"
   inkscape:cy="257.51121"
   inkscape:window-width="1920"
   inkscape:window-height="1027"
   inkscape:window-x="-8"
   inkscape:window-y="-8"
   inkscape:window-maximized="1"
   inkscape:current-layer="Layer_1" />
<polygon
   style="fill:#ffcc00;fill-opacity:0.59585494"
   points="256.009,232.451 72.37,232.451 187.432,43.685 256.034,43.685 324.573,43.685 439.635,232.451 363.426,232.451 "
   id="polygon8051"
   transform="matrix(1,0,0,0.90393083,-2.4179457,-1.8480827)" />



<g
   id="g8059">
</g>
<g
   id="g8061">
</g>
<g
   id="g8063">
</g>
<g
   id="g8065">
</g>
<g
   id="g8067">
</g>
<g
   id="g8069">
</g>
<g
   id="g8071">
</g>
<g
   id="g8073">
</g>
<g
   id="g8075">
</g>
<g
   id="g8077">
</g>
<g
   id="g8079">
</g>
<g
   id="g8081">
</g>
<g
   id="g8083">
</g>
<g
   id="g8085">
</g>
<g
   id="g8087">
</g>
<path
   id="path8047"
   style="fill:#000080;stroke-width:0.437656"
   d="m 246.38117,181.08855 c -0.013,0.009 -0.028,0.0286 -0.043,0.0527 0.0282,0.0177 0.0576,0.0332 0.0859,0.0508 -0.0106,-0.0588 -0.0203,-0.11861 -0.043,-0.10352 z m -5.18554,26.85547 c -0.1356,9.2179 -0.30532,14.89377 -0.6582,17.00391 -2.71133,16.21234 -6.53528,26.17977 -19.10157,49.80273 -14.21236,26.71738 -18.15254,36.82786 -20.3125,52.11719 -0.69836,4.94358 -0.73633,10.32808 -0.73633,103.63476 0,79.59546 0.0995,98.75343 0.52149,100.17188 1.16369,3.9115 4.07887,7.2927 7.57812,8.78906 1.25882,0.53837 10.05925,0.63343 50.83399,0.54883 l 49.3125,-0.10156 1.69336,-1.07813 c 2.65483,-1.69056 4.39468,-3.77577 5.60742,-6.71875 l 1.11914,-2.71484 v -98.41993 c 0,-105.68941 0.0846,-101.10691 -2.0625,-111.31835 -2.53585,-12.0601 -6.54541,-21.54473 -18.98438,-44.91016 -9.28013,-17.43184 -13.39306,-26.72269 -16.20117,-36.58984 -2.55841,-8.98982 -3.4341,-14.74824 -3.71289,-29.6836 -1.74105,0.0414 -3.48162,0.058 -5.22461,0.0156 -3.0322,-0.0373 -6.06538,-0.0922 -9.0957,-0.21094 -2.73403,-0.11121 -5.46533,-0.31349 -8.20117,-0.33789 h -8.64844 z" /><path
   style="fill:#ffd42a;stroke-width:0.604486"
   d="m 86.965614,183.59513 c 9.116849,-13.53836 34.926006,-51.81709 57.353696,-85.063845 l 40.7776,-60.448641 h 68.49308 68.49307 l 40.76872,60.448641 c 22.42279,33.246755 48.22883,71.526155 57.34676,85.065345 l 16.57805,24.61669 -183.19353,-0.001 -183.193535,-0.001 16.576089,-24.61519 z"
   id="path1793" /><path
   style="fill:#ffd42a;stroke-width:0.604486"
   d="M 71.732388,207.04036 C 71.910893,206.50817 157.68604,79.071214 177.5924,49.763117 l 7.73172,-11.38339 68.41213,0.153702 68.41214,0.153701 28.94995,42.918536 c 15.92247,23.605194 41.54641,61.619834 56.94209,84.476974 l 27.99215,41.55844 H 253.78174 c -120.47242,0 -182.182546,-0.20363 -182.049352,-0.60072 z"
   id="path7485" /><path
   style="fill:#ffcc00;fill-opacity:0;stroke-width:0.604486"
   d="m 71.027154,207.94124 c 0,-0.14841 4.727177,-7.28114 10.504839,-15.85052 5.777661,-8.56938 23.618437,-35.03004 39.646167,-58.80147 16.02773,-23.77142 36.93834,-54.837076 46.468,-69.034778 l 17.32668,-25.814003 68.60921,-5.37e-4 68.60921,-5.36e-4 24.67516,36.695295 c 13.57133,20.182413 39.20911,58.247639 56.97284,84.589389 17.76373,26.34175 32.29769,48.02823 32.29769,48.19217 0,0.16394 -82.14971,0.29735 -182.5549,0.29645 -100.40519,-6e-4 -182.554896,-0.12305 -182.554896,-0.27146 z"
   id="path8519" /><path
   style="fill:#ffcc00;fill-opacity:0.92227972;stroke-width:0.604486"
   d="m 71.027154,207.94124 c 0,-0.14841 4.727177,-7.28114 10.504839,-15.85052 5.777661,-8.56938 23.618437,-35.03004 39.646167,-58.80147 16.02773,-23.77142 36.93834,-54.837076 46.468,-69.034778 l 17.32668,-25.814003 68.60921,-5.37e-4 68.60921,-5.36e-4 24.67516,36.695295 c 13.57133,20.182413 39.20911,58.247639 56.97284,84.589389 17.76373,26.34175 32.29769,48.02823 32.29769,48.19217 0,0.16394 -82.14971,0.29735 -182.5549,0.29645 -100.40519,-6e-4 -182.554896,-0.12305 -182.554896,-0.27146 z"
   id="path8728" /><path
   style="fill:#ecce57;fill-opacity:0.92227972;stroke-width:0.604486"
   d="m 140.66396,207.6563 -69.092811,-0.31746 17.699829,-26.29516 c 9.734905,-14.46234 22.057372,-32.75766 27.383252,-40.65627 5.32589,-7.89862 17.29996,-25.68599 26.60905,-39.52749 9.30909,-13.841511 22.53926,-33.492823 29.40038,-43.669585 L 185.13842,38.68713 h 68.44894 68.44894 l 5.93292,8.765053 c 24.88536,36.764559 107.53839,159.804207 107.41526,159.901387 -0.42771,0.33758 -234.75227,0.57827 -294.72052,0.30273 z"
   id="path9075" /></svg>
