<?xml version="1.0" encoding="UTF-8" standalone="no"?>
<!-- Uploaded to: SVG Repo, www.svgrepo.com, Generator: SVG Repo Mixer Tools -->

<svg
   height="800px"
   width="800px"
   version="1.1"
   id="Layer_1"
   viewBox="0 0 512 512"
   xml:space="preserve"
   sodipodi:docname="wine-bottle-lights-on.svg"
   inkscape:version="1.4.2 (f4327f4, 2025-05-13)"
   xmlns:inkscape="http://www.inkscape.org/namespaces/inkscape"
   xmlns:sodipodi="http://sodipodi.sourceforge.net/DTD/sodipodi-0.dtd"
   xmlns="http://www.w3.org/2000/svg"
   xmlns:svg="http://www.w3.org/2000/svg"><defs
   id="defs3" /><sodipodi:namedview
   id="namedview3"
   pagecolor="#ffffff"
   bordercolor="#000000"
   borderopacity="0.25"
   inkscape:showpageshadow="2"
   inkscape:pageopacity="0.0"
   inkscape:pagecheckerboard="0"
   inkscape:deskcolor="#d1d1d1"
   inkscape:zoom="1.01625"
   inkscape:cx="400"
   inkscape:cy="400"
   inkscape:window-width="2880"
   inkscape:window-height="1514"
   inkscape:window-x="-11"
   inkscape:window-y="-11"
   inkscape:window-maximized="1"
   inkscape:current-layer="g3" />
<g
   id="g3">
	<path
   style="fill:#fff6d5"
   d="M282.483,97.103V44.138h-52.966v52.966c0,63.267-61.793,97.103-61.793,158.897v238.345   c0,9.746,7.91,17.655,17.655,17.655h141.241c9.746,0,17.655-7.91,17.655-17.655V256   C344.276,194.207,282.483,160.371,282.483,97.103"
   id="path1" />
	<polygon
   style="fill:#355B4F;"
   points="220.691,44.138 291.311,44.138 291.311,0 220.691,0  "
   id="polygon1" />
	
	
	
<path
   style="fill:#74843a;stroke-width:0.427864"
   d="m 263.35927,307.86704 25.79461,164.11481 c 0.50299,3.19992 -0.81907,6.38544 -2.6495,6.38544 h -52.12489 c -2.42704,0 -4.17941,-4.22273 -3.51267,-8.46451 l 25.46774,-162.03516 c 0.44809,-2.85093 1.88121,-4.81634 3.51267,-4.81634 v 0 c 1.63083,-5.7e-4 3.06427,1.96484 3.51204,4.81576 z"
   id="path2" /><path
   style="fill:#8ca055;stroke-width:0.427864"
   d="m 220.31452,248.05887 32.02088,203.72887 c 0.62422,3.97237 -1.01613,7.92628 -3.28894,7.92628 h -64.70754 c -3.01286,0 -5.18793,-5.24207 -4.3603,-10.5078 L 211.5933,248.05944 c 0.5563,-3.53856 2.33564,-5.97873 4.36029,-5.97873 v 0 c 2.02529,-0.001 3.80463,2.43902 4.36093,5.97816 z"
   id="path3-8" /><path
   style="fill:#c5ead4;stroke-width:0.427864"
   d="m 273.09694,349.45056 c 0.92665,5.89681 -0.65087,12.23611 -3.67007,14.74551 -1.25509,1.04415 -2.59491,1.58929 -3.98202,1.6216 -0.0419,10e-4 -0.0831,10e-4 -0.1244,10e-4 -2.57175,0 -5.0118,-1.84197 -6.88412,-5.20228 -1.14434,-2.05368 -1.99927,-4.57347 -2.50638,-7.30382 -0.28974,0.0468 -0.58106,0.0698 -0.87492,0.0698 l -0.0819,-5.6e-4 c -2.12524,-0.0288 -4.08579,-1.83736 -5.3723,-4.96172 -1.30745,-3.1757 -1.71397,-7.18151 -1.11546,-10.99006 l 4.88835,-31.10167 c 0.82129,-5.22593 3.48316,-8.87524 6.47253,-8.87524 2.98938,0 5.65125,3.64931 6.47254,8.87524 z m -49.49347,-103.1004 v 0 c -1.06691,-6.78694 -4.64622,-11.16313 -8.51114,-10.40396 -3.22929,0.63285 -5.90798,4.80999 -6.82447,10.64105 l -13.9704,88.88273 c -0.92728,5.90085 -0.29894,12.10862 1.72444,17.03051 1.99482,4.85327 5.03878,7.66783 8.34867,7.72148 l 0.1355,10e-4 c 7.96341,0 14.44261,-11.77749 14.44261,-26.25419 V 327.078 c 0,-0.0478 0.002,-0.0831 0.0308,-0.13555 0.0282,-0.0514 0.0816,-0.11314 0.13931,-0.11314 v 0 l 0.0831,5.7e-4 c 3.93506,0 7.61307,-2.82611 10.35555,-7.95857 2.59491,-4.85557 3.55646,-12.01172 2.50891,-18.67463 z m 89.34162,122.53938 c 4.07183,-4.24407 6.81717,-12.21707 6.81717,-21.36171 v 0 c 0,-13.59351 -6.06189,-24.61298 -13.53976,-24.61298 v 0 c -7.47788,0 -13.53977,11.01947 -13.53977,24.61298 v 0 c 0,9.14464 2.74534,17.11764 6.81717,21.36171 -5.987,4.18407 -10.23781,14.73052 -10.23781,27.08778 v 3.62682 c 0,16.02617 7.14657,29.018 15.963,29.018 h 1.99482 c 8.81611,0 15.96299,-12.99125 15.96299,-29.018 v -3.6274 c 0,-12.35668 -4.25113,-22.90255 -10.23781,-27.0872 z"
   id="path4" /><g
   id="g6"
   transform="matrix(0.31734317,0,0,0.57687577,173.8155,187.67036)">
	<path
   style="fill:#eaffff"
   d="m 149.979,184.281 c 3.301,11.551 0.271,23.956 -7.906,32.372 -8.643,8.896 -20.232,13.796 -32.632,13.796 l -0.262,-0.001 v 0 c -0.182,0 -0.349,0.107 -0.439,0.196 -0.091,0.089 -0.097,0.152 -0.097,0.235 v 11.946 c 0,22.251 -16.055,40.811 -37.187,44.735 -0.509,-0.593 -1.007,-1.199 -1.48,-1.831 -6.376,-8.533 -8.356,-19.293 -5.434,-29.522 l 44.022,-154.076 c 2.016,-7.058 6.745,-12.709 12.877,-15.856 0.76,1.468 1.399,3.02 1.869,4.665 v 0 z m 119.953,21.411 c -1.522,-5.324 -5.054,-9.69 -9.615,-12.397 -4.561,2.707 -8.094,7.073 -9.615,12.397 l -15.404,53.914 c -1.886,6.602 -0.606,13.546 3.515,19.051 4.053,5.415 10.231,8.551 16.929,8.601 l 0.258,0.001 c 0.925,0 1.844,-0.04 2.757,-0.121 1.597,4.733 4.292,9.101 7.898,12.661 3.202,3.163 6.935,5.541 10.973,7.062 0.706,-0.263 1.407,-0.542 2.096,-0.858 9.513,-4.35 14.485,-15.34 11.565,-25.561 z m 137.049,108.447 c 12.831,-7.357 21.482,-21.178 21.482,-37.03 v 0 c 0,-18.011 -11.166,-33.404 -26.947,-39.664 -15.783,6.26 -26.947,21.653 -26.947,39.664 v 0 c 0,15.852 8.651,29.673 21.482,37.03 -18.866,7.253 -32.261,25.535 -32.261,46.956 v 6.287 c 0,23.439 16.03,43.133 37.726,48.716 21.696,-5.585 37.726,-25.279 37.726,-48.716 v -6.288 c 0,-21.42 -13.395,-39.701 -32.261,-46.955 z"
   id="path5" />
	<path
   style="fill:#eaffff"
   d="m 493.137,471.579 v 32.337 0 H 245.221 18.863 v 0 c 0,-29.765 24.13,-53.895 53.895,-53.895 h 131.551 c 22.544,0 44.212,-8.807 60.3,-24.601 11.664,-11.452 27.648,-18.515 45.287,-18.515 h 118.568 c 35.717,0 64.673,28.956 64.673,64.674 z"
   id="path6" />
</g><g
   id="g8"
   transform="matrix(0.31734317,0,0,0.57687577,173.8155,187.67036)">
	<path
   style="fill:#c5ead4"
   d="M 493.137,503.916 H 245.221 109.592 c 8.318,-19.031 27.299,-32.337 49.398,-32.337 h 131.55 c 22.544,0 44.212,-8.807 60.3,-24.601 11.664,-11.452 27.648,-18.515 45.287,-18.515 h 80.529 c 10.244,11.443 16.481,26.549 16.481,43.116 z"
   id="path7" />
	<path
   style="fill:#c5ead4"
   d="m 503.916,495.832 c 0,4.465 -3.62,8.084 -8.084,8.084 H 16.168 c -4.465,0 -8.084,-3.62 -8.084,-8.084 0,-4.465 3.62,-8.084 8.084,-8.084 h 479.663 c 4.465,-10e-4 8.085,3.619 8.085,8.084 z"
   id="path8" />
</g><ellipse
   style="fill:#ffff00;stroke-width:0.35968"
   id="path3"
   cx="327.47849"
   cy="498.7749"
   rx="3.7785978"
   ry="5.0381303" /><ellipse
   style="fill:#ffff00;stroke-width:0.35968"
   id="path3-4"
   cx="255.9386"
   cy="248.99069"
   rx="3.7785978"
   ry="5.0381303" /><ellipse
   style="fill:#ffff00;stroke-width:0.35968"
   id="path3-5"
   cx="324.58313"
   cy="420.28714"
   rx="3.7785978"
   ry="5.0381303" /><ellipse
   style="fill:#ffff00;stroke-width:0.35968"
   id="path3-7"
   cx="197.37033"
   cy="259.06696"
   rx="3.7785978"
   ry="5.0381303" /><ellipse
   style="fill:#ffff00;stroke-width:0.35968"
   id="path3-1"
   cx="273.57205"
   cy="148.22809"
   rx="3.7785978"
   ry="5.0381303" /><ellipse
   style="fill:#ffff00;stroke-width:0.35968"
   id="path3-2"
   cx="283.64832"
   cy="401.39413"
   rx="3.7785978"
   ry="5.0381303" /><ellipse
   style="fill:#ffff00;stroke-width:0.35968"
   id="path3-6"
   cx="208.70613"
   cy="488.93164"
   rx="3.7785978"
   ry="5.0381303" /><ellipse
   style="fill:#ffff00;stroke-width:0.35968"
   id="path3-42"
   cx="178.47734"
   cy="354.79144"
   rx="3.7785978"
   ry="5.0381303" /><ellipse
   style="fill:#ffff00;stroke-width:0.35968"
   id="path3-22"
   cx="211.85497"
   cy="189.79266"
   rx="3.7785978"
   ry="5.0381303" /><ellipse
   style="fill:#ffff00;stroke-width:0.35968"
   id="path3-68"
   cx="302.54129"
   cy="231.35724"
   rx="3.7785978"
   ry="5.0381303" /><ellipse
   style="fill:#ffff00;stroke-width:0.35968"
   id="path3-76"
   cx="325.21289"
   cy="300.63153"
   rx="3.7785978"
   ry="5.0381303" /></g>
</svg>
