<?xml version="1.0" encoding="UTF-8" standalone="no"?>
<!-- Uploaded to: SVG Repo, www.svgrepo.com, Generator: SVG Repo Mixer Tools -->

<svg
   version="1.1"
   id="Capa_1"
   viewBox="0 0 59.205776 49.314079"
   xml:space="preserve"
   sodipodi:docname="zone-valve.svg"
   inkscape:version="1.3.2 (091e20e, 2023-11-25, custom)"
   width="59.205776"
   height="49.314079"
   xmlns:inkscape="http://www.inkscape.org/namespaces/inkscape"
   xmlns:sodipodi="http://sodipodi.sourceforge.net/DTD/sodipodi-0.dtd"
   xmlns="http://www.w3.org/2000/svg"
   xmlns:svg="http://www.w3.org/2000/svg"><defs
   id="defs15" /><sodipodi:namedview
   id="namedview15"
   pagecolor="#ffffff"
   bordercolor="#000000"
   borderopacity="0.25"
   inkscape:showpageshadow="2"
   inkscape:pageopacity="0.0"
   inkscape:pagecheckerboard="0"
   inkscape:deskcolor="#d1d1d1"
   inkscape:zoom="13.85"
   inkscape:cx="28.953069"
   inkscape:cy="25.451264"
   inkscape:window-width="1920"
   inkscape:window-height="1027"
   inkscape:window-x="-8"
   inkscape:window-y="-8"
   inkscape:window-maximized="1"
   inkscape:current-layer="Capa_1" />







<polygon
   style="fill:#c7cac7"
   points="43,26.5 19,26.5 19,34.5 7,34.5 7,54.5 53,54.5 53,34.5 43,34.5 "
   id="polygon6"
   transform="matrix(1,0,0,0.52294997,0,16.251934)" />










<path
   style="fill:#999999;stroke-width:0.0722022"
   d="m 18.963858,30.583921 c 0.01392,-1.128302 0.02531,-2.517291 0.02531,-3.086642 v -1.035185 h 1.552346 1.552347 v 1.805054 1.805054 h -1.550718 -1.550718 l -0.02694,1.281589 c -0.01482,0.704873 -0.01555,0.358432 -0.0016,-0.76987 z"
   id="path28" /><path
   style="fill:#999999;stroke-width:0.0722022"
   d="m 22.166065,28.267148 v -1.805054 h 0.530037 c 0.29152,0 1.022567,0.02132 1.624548,0.04737 l 1.094512,0.04737 v 1.75768 1.75768 h -1.624548 -1.624549 z"
   id="path29" /><path
   style="fill:#999999;stroke-width:0.0722022"
   d="m 25.487365,28.303249 v -1.768953 h 1.552346 1.552347 v 1.768953 1.768953 h -1.552347 -1.552346 z"
   id="path30" /><path
   style="fill:#999999;stroke-width:0.0722022"
   d="m 28.66426,28.303249 v -1.768953 h 1.624549 1.624548 v 1.768953 1.768953 H 30.288809 28.66426 Z"
   id="path31" /><path
   style="fill:#999999;stroke-width:0.0722022"
   d="m 31.98556,28.303249 v -1.768953 h 1.588447 1.588448 v 1.768953 1.768953 H 33.574007 31.98556 Z"
   id="path32" /><path
   style="fill:#999999;stroke-width:0.0722022"
   d="m 38.555957,28.267148 v -1.805054 h 1.552346 1.552347 v 1.805054 1.805054 h -1.552347 -1.552346 z"
   id="path33" /><path
   style="fill:#999999;stroke-width:0.0722022"
   d="m 38.555957,28.267148 v -1.805054 h 1.552346 1.552347 v 1.805054 1.805054 h -1.552347 -1.552346 z"
   id="path34" /><path
   style="fill:#999999;stroke-width:0.0722022"
   d="m 35.234657,28.303249 v -1.768953 h 1.289562 c 0.709259,0 1.440306,-0.02066 1.624548,-0.04592 l 0.334988,-0.04592 v 1.814868 1.814868 h -1.624549 -1.624549 z"
   id="path36" /><path
   style="fill:#b3b3b3;stroke-width:0.0722022"
   d="m 41.732852,28.267148 v -1.805054 h 0.649819 0.64982 v 1.805054 1.805054 h -0.64982 -0.649819 z"
   id="path37" /><path
   style="fill:#b3b3b3;stroke-width:0.0722022"
   d="m 18.98917,28.267148 v -1.805054 h 1.552346 1.552347 v 1.805054 1.805054 H 20.541516 18.98917 Z"
   id="path39" /><path
   style="fill:#b3b3b3;stroke-width:0.0722022"
   d="m 22.166065,28.271425 v -1.800778 l 1.173285,0.03454 c 0.645307,0.019 1.376354,0.05215 1.624549,0.07367 l 0.451263,0.03914 v 1.727105 1.727105 h -1.624548 -1.624549 z"
   id="path40" /><path
   style="fill:#b3b3b3;stroke-width:0.0722022"
   d="m 25.487365,28.303249 v -1.768953 h 1.552346 1.552347 v 1.768953 1.768953 h -1.552347 -1.552346 z"
   id="path41" /><path
   style="fill:#b3b3b3;stroke-width:0.0722022"
   d="m 28.66426,28.303249 v -1.768953 h 1.624549 1.624548 v 1.768953 1.768953 H 30.288809 28.66426 Z"
   id="path42" /><path
   style="fill:#b3b3b3;stroke-width:0.0722022"
   d="m 31.98556,28.303249 v -1.768953 h 1.588447 1.588448 v 1.768953 1.768953 H 33.574007 31.98556 Z"
   id="path43" /><path
   style="fill:#b3b3b3;stroke-width:0.0722022"
   d="m 35.234657,28.303249 v -1.768953 h 1.51034 c 0.830687,0 1.561734,-0.01972 1.624549,-0.04383 0.102274,-0.03925 0.114209,0.1456 0.114209,1.768953 v 1.812779 h -1.624549 -1.624549 z"
   id="path44" /><path
   style="fill:#b3b3b3;stroke-width:0.0722022"
   d="m 38.555957,28.267148 v -1.805054 h 1.552346 1.552347 v 1.805054 1.805054 h -1.552347 -1.552346 z"
   id="path45" /><path
   style="fill:#cccccc;stroke-width:0.075813"
   d="M 9.2418774,18.086642 V 6.0288809 H 30.072203 50.902527 V 18.086642 30.144404 H 47.849086 44.795645 V 27.190081 24.235757 H 44.044177 43.29271 l -0.02387,1.734807 -0.02387,1.734805 -0.01941,-1.734805 -0.01941,-1.734807 h -1.797148 -1.797165 l -0.02387,1.734807 -0.02387,1.734805 -0.01941,-1.773788 c -0.0181,-1.652157 -0.02945,-1.771465 -0.165809,-1.73991 -0.08053,0.01863 -0.926885,0.05502 -1.880816,0.08085 l -1.734419,0.04697 -0.02389,1.692938 -0.02388,1.692937 -0.01939,-1.700453 -0.01939,-1.700454 H 33.83815 31.99918 l -0.0239,1.700454 -0.02391,1.700453 -0.01939,-1.700453 -0.01939,-1.700454 h -1.880809 -1.880795 l -0.02391,1.700454 -0.0239,1.700453 -0.01939,-1.700453 -0.01939,-1.700454 h -1.797141 -1.797142 l -0.0239,1.700454 -0.0239,1.700453 -0.01939,-1.690665 -0.01939,-1.690667 -0.514207,-0.04414 c -0.282814,-0.02427 -1.129183,-0.04414 -1.880822,-0.04414 H 20.62184 L 20.59797,25.97056 20.5741,27.705366 20.55469,25.97056 20.53528,24.235754 h -1.789413 -1.789461 l -0.06282,1.356928 c -0.03454,0.74631 -0.04018,2.075755 -0.01251,2.954323 l 0.05031,1.597395 H 13.086662 9.2418637 Z"
   id="path46" /><path
   style="fill:#803300;stroke-width:0.0630351"
   d="m 10.180505,39.542543 v -5.186697 l 4.997342,-0.01564 4.997341,-0.01564 0.01714,-2.090086 0.01714,-2.090087 h 10.774314 10.774315 l 0.01714,2.090087 0.01714,2.090086 4.085774,0.01571 4.085774,0.01571 v 5.186617 5.186618 H 30.072202 10.180505 Z"
   id="path50" /><path
   style="fill:#666666;stroke-width:0.0722022"
   d=""
   id="path52" /><path
   style="fill:#502d16;stroke-width:0.0659888"
   d="m 49.963899,39.530686 v -5.126354 h 1.516245 1.516246 v 5.126354 5.126354 h -1.516246 -1.516245 z"
   id="path57" /><path
   style="fill:#502d16;stroke-width:0.0662207"
   d="m 7.0036101,39.566787 v -5.162455 h 1.5884477 1.5884472 v 5.162455 5.162455 H 8.5920578 7.0036101 Z"
   id="path58" /><rect
   style="fill:#666666;stroke-width:0.976187"
   id="rect58"
   width="31.696751"
   height="5.8483753"
   x="15.01805"
   y="24.115524" /><rect
   style="fill:#999999;stroke-width:0.97534"
   id="rect59"
   width="0.86642599"
   height="23.971119"
   x="50.036102"
   y="6.0649815" /><rect
   style="fill:#999999;stroke-width:0.979619"
   id="rect60"
   width="0.79422385"
   height="24.043322"
   x="9.2418776"
   y="5.9927797" /><path
   style="fill:#803300;stroke-width:0.0690972"
   d="m 10.180505,40.00125 v -4.72799 h 2.623593 c 1.442976,0 3.701099,-0.01969 5.018051,-0.04376 l 2.394457,-0.04376 v -1.906949 -1.906953 h 10.758123 10.758123 v 1.907022 1.907023 l 1.961189,0.04368 c 1.078654,0.02403 2.930639,0.04368 4.115524,0.04368 h 2.154334 v 4.72799 4.727991 H 30.072202 10.180505 Z"
   id="path60" /><rect
   style="fill:#999999"
   id="rect61"
   width="41.227436"
   height="0.50541514"
   x="9.386282"
   y="6.0649819" /><path
   style="fill:#cccccc;stroke-width:0.0722022"
   d="m 15.018051,27.039711 v -2.888086 h 15.848375 15.848375 v 2.888086 2.888087 H 30.866426 15.018051 Z"
   id="path9" /><path
   style="fill:#cccccc;stroke-width:0.0722022"
   d="m 9.6209386,30.091048 0.4151624,-0.02605 V 18.335747 6.6064982 h 20 20 V 18.335905 30.065312 l 0.451264,0.02563 c 0.248195,0.0141 -0.921481,0.0319 -2.599278,0.03955 -1.934319,0.0088 -3.050542,-0.01174 -3.050542,-0.05619 0,-0.04068 0.401493,-0.07952 0.956679,-0.09254 0.526173,-0.01234 -6.191336,-0.02243 -14.927798,-0.02243 -8.736462,0 -15.453971,0.01009 -14.927798,0.02243 0.555186,0.01302 0.956679,0.05185 0.956679,0.09254 0,0.04463 -1.39697,0.06515 -3.844765,0.05645 -2.114621,-0.0075 -3.6579427,-0.02538 -3.4296034,-0.0397 z M 38.784838,24.097476 c -4.381336,-0.01028 -11.529351,-0.01028 -15.884477,1e-6 -4.355126,0.01028 -0.770397,0.01869 7.966065,0.01869 8.736462,-1e-6 12.299747,-0.0084 7.918412,-0.01869 z m -3.898923,-0.703974 c 0.06632,-0.238267 0.12318,-0.448101 0.126358,-0.466297 0.0032,-0.0182 0.147937,0.106436 0.321688,0.27696 0.227907,0.223673 0.363673,0.303286 0.487365,0.28579 0.158645,-0.02244 0.172068,-0.05813 0.17967,-0.477715 0.0045,-0.249404 0.02566,-0.470903 0.04697,-0.492218 0.02132,-0.02132 0.202681,0.04431 0.403035,0.145839 0.584467,0.296171 0.746815,0.13465 0.503565,-0.501001 -0.08394,-0.21935 -0.136873,-0.414565 -0.117627,-0.433812 0.01925,-0.01925 0.202394,-0.0032 0.406997,0.03556 0.204603,0.0388 0.421052,0.05173 0.481,0.02872 0.175757,-0.06744 0.125774,-0.381523 -0.10761,-0.676195 -0.119134,-0.150418 -0.216607,-0.307089 -0.216607,-0.348156 0,-0.04107 0.179622,-0.09711 0.399161,-0.124538 0.649367,-0.08113 0.696352,-0.397517 0.111934,-0.753737 -0.161969,-0.09873 -0.294488,-0.203773 -0.294488,-0.233441 0,-0.02967 0.162454,-0.136263 0.36101,-0.236879 0.311482,-0.15784 0.361011,-0.212447 0.361011,-0.398026 0,-0.201366 -0.02763,-0.222769 -0.433213,-0.33553 -0.238267,-0.06624 -0.433213,-0.141015 -0.433213,-0.166156 0,-0.02514 0.129964,-0.172618 0.288809,-0.327725 0.466473,-0.4555 0.364603,-0.685921 -0.303249,-0.685921 -0.230325,0 -0.418773,-0.01754 -0.418773,-0.03898 0,-0.02144 0.0669,-0.170116 0.148671,-0.330397 0.18357,-0.359825 0.163721,-0.669021 -0.04486,-0.698853 -0.08189,-0.01171 -0.298226,0.04271 -0.480738,0.120947 -0.182512,0.07823 -0.346081,0.128002 -0.363488,0.110595 -0.01741,-0.01741 -0.0028,-0.215516 0.03243,-0.440244 0.03524,-0.224728 0.04752,-0.451736 0.02729,-0.504461 -0.06348,-0.165436 -0.387191,-0.104746 -0.644007,0.12074 -0.135685,0.119134 -0.281034,0.216607 -0.322998,0.216607 -0.04196,0 -0.09869,-0.154332 -0.126051,-0.34296 -0.104092,-0.717525 -0.344299,-0.798641 -0.69489,-0.234657 -0.123429,0.198556 -0.246682,0.36101 -0.273895,0.36101 -0.02721,0 -0.127953,-0.151726 -0.223865,-0.337169 -0.322078,-0.622727 -0.570882,-0.591761 -0.723463,0.09004 -0.04819,0.215343 -0.108347,0.391532 -0.13368,0.391532 -0.02533,0 -0.172966,-0.129964 -0.328073,-0.288809 -0.459215,-0.470278 -0.740735,-0.345166 -0.656258,0.291651 0.02648,0.199593 0.02783,0.395764 0.003,0.435938 -0.0275,0.04449 -0.167682,0.0012 -0.358618,-0.110667 -0.387793,-0.227262 -0.61213,-0.237474 -0.666299,-0.03033 -0.03734,0.14279 -0.04615,0.139052 -0.127599,-0.05415 -0.04812,-0.114141 -0.07467,-0.230572 -0.05899,-0.258736 0.01567,-0.02816 0.24171,-0.0313 0.502305,-0.007 0.36488,0.03407 0.48856,0.02095 0.53797,-0.0571 0.117926,-0.186266 0.06851,-0.331292 -0.227472,-0.667542 -0.161614,-0.183603 -0.275732,-0.363129 -0.253596,-0.398946 0.02214,-0.03582 0.19498,-0.08832 0.384096,-0.116681 0.459277,-0.06887 0.596556,-0.152293 0.596556,-0.362538 0,-0.1341 -0.0941,-0.235944 -0.397112,-0.429775 -0.218412,-0.139717 -0.396543,-0.278802 -0.395848,-0.309078 6.96e-4,-0.03028 0.171274,-0.153699 0.379062,-0.274272 0.284679,-0.16519 0.383312,-0.266321 0.400174,-0.410307 0.0258,-0.220309 -0.09202,-0.304112 -0.52927,-0.376462 -0.502196,-0.0831 -0.520111,-0.131859 -0.18286,-0.497733 0.23286,-0.252623 0.297678,-0.375786 0.279803,-0.531665 -0.0229,-0.199749 -0.03068,-0.202877 -0.50452,-0.202877 -0.264691,0 -0.502511,-0.02121 -0.528488,-0.04714 -0.02598,-0.02593 0.02268,-0.209648 0.10812,-0.408268 0.08544,-0.198619 0.144563,-0.437334 0.131376,-0.530476 -0.03254,-0.229858 -0.32553,-0.257135 -0.701532,-0.06531 -0.446319,0.227695 -0.465251,0.212654 -0.407787,-0.323945 0.08082,-0.7546731 -0.116696,-0.8684565 -0.683609,-0.39381 -0.189723,0.1588448 -0.362506,0.2888087 -0.383963,0.2888087 -0.02146,0 -0.07733,-0.1868231 -0.124158,-0.4151625 -0.1,-0.4875777 -0.17234,-0.5956679 -0.398665,-0.5956679 -0.127037,0 -0.215767,0.08972 -0.37022,0.3743515 C 28.141954,9.42501 28.017085,9.6040322 27.976194,9.6169439 27.935303,9.6298555 27.805339,9.461511 27.687385,9.2428449 27.508684,8.9115619 27.440281,8.8452282 27.277151,8.8450178 27.073944,8.8447557 27.022903,8.9468598 26.8873,9.6248722 26.861921,9.7517701 26.820848,9.855137 26.796029,9.8545765 26.771209,9.854016 26.605664,9.722584 26.428151,9.5625055 26.198378,9.3553006 26.052778,9.2775936 25.922736,9.2927666 c -0.177285,0.020685 -0.182664,0.037257 -0.182664,0.5628291 0,0.6108513 -0.02302,0.6255303 -0.555154,0.3540533 -0.341906,-0.174427 -0.467533,-0.173254 -0.56307,0.0053 -0.05942,0.11102 -0.03593,0.238787 0.105763,0.575442 0.100175,0.238005 0.182136,0.453746 0.182136,0.479425 0,0.02568 -0.212677,0.02391 -0.472616,-0.0039 -0.757387,-0.08111 -0.872283,0.124475 -0.389533,0.696988 0.161197,0.19117 0.274745,0.377257 0.252329,0.413527 -0.02242,0.03627 -0.178672,0.08814 -0.347237,0.115267 -0.732242,0.117839 -0.820961,0.440426 -0.217492,0.790815 0.207788,0.120648 0.378365,0.253342 0.379061,0.294876 6.96e-4,0.04153 -0.169313,0.172652 -0.377797,0.291371 -0.287283,0.163591 -0.384479,0.262132 -0.401439,0.406991 -0.0258,0.220369 0.09199,0.304162 0.52927,0.376517 0.512586,0.08482 0.531608,0.136113 0.188502,0.508339 -0.231506,0.251155 -0.301692,0.381469 -0.284714,0.52863 0.02224,0.192735 0.02942,0.195246 0.545998,0.190696 0.592878,-0.0052 0.611366,0.01857 0.374795,0.482288 -0.201047,0.394086 -0.165896,0.670407 0.08903,0.699874 0.106188,0.01227 0.324208,-0.04459 0.484488,-0.126354 0.446318,-0.227694 0.46525,-0.212654 0.407786,0.323945 -0.08139,0.760029 0.113081,0.867883 0.689103,0.382174 0.195972,-0.165245 0.370724,-0.286033 0.38834,-0.268417 0.01762,0.01762 0.0743,0.222391 0.125957,0.455055 0.155066,0.698373 0.437124,0.731134 0.779849,0.09058 0.09928,-0.185551 0.215565,-0.337459 0.258415,-0.337575 0.04285,-1.15e-4 0.155144,0.164687 0.249541,0.366227 0.288433,0.615817 0.659044,0.640097 0.758119,0.04967 0.02841,-0.16929 0.08072,-0.38474 0.116261,-0.478776 0.06415,-0.169751 0.06717,-0.168587 0.421077,0.162454 0.392215,0.366871 0.419415,0.377334 0.612995,0.235785 0.115106,-0.08417 0.127462,-0.162721 0.08951,-0.569096 -0.02421,-0.259297 -0.026,-0.489475 -0.004,-0.511506 0.02203,-0.02203 0.18668,0.03099 0.365887,0.117833 0.324226,0.15711 0.324812,0.158069 0.118887,0.194454 -0.299302,0.05288 -0.311838,0.305017 -0.03245,0.652677 0.27376,0.340659 0.277619,0.415754 0.02406,0.46824 -0.589477,0.122021 -0.631448,0.144001 -0.654596,0.342814 -0.01926,0.16538 0.02841,0.227165 0.304576,0.394815 0.180073,0.109313 0.328399,0.231242 0.329613,0.270953 0.0012,0.03971 -0.162088,0.164481 -0.362896,0.277266 -0.310844,0.174588 -0.361803,0.233176 -0.342886,0.394222 0.01893,0.161138 0.08024,0.205886 0.413889,0.302078 0.215418,0.06211 0.402626,0.145787 0.416016,0.185958 0.01339,0.04017 -0.106002,0.200321 -0.265317,0.355888 -0.315528,0.308105 -0.345993,0.403503 -0.181413,0.568083 0.08142,0.08142 0.206685,0.09809 0.505415,0.06726 0.453218,-0.04678 0.471669,-0.01667 0.252761,0.412424 -0.172129,0.337402 -0.182834,0.528043 -0.03647,0.649514 0.08737,0.07251 0.184173,0.05864 0.50801,-0.0728 0.220041,-0.08931 0.415309,-0.147145 0.433929,-0.128525 0.01862,0.01862 0.0015,0.204305 -0.03798,0.412634 -0.07813,0.411983 -0.0083,0.655423 0.187883,0.655423 0.06141,0 0.256041,-0.118309 0.432506,-0.262908 0.176464,-0.144599 0.338996,-0.244756 0.361182,-0.22257 0.02219,0.02219 0.05826,0.181109 0.08017,0.353161 0.05367,0.421512 0.138414,0.56553 0.332755,0.56553 0.118852,0 0.220902,-0.09746 0.37652,-0.359579 0.117414,-0.197767 0.235465,-0.360222 0.262337,-0.36101 0.02687,-7.88e-4 0.131694,0.179501 0.232935,0.400641 0.165632,0.361787 0.204143,0.399768 0.384351,0.379061 0.177837,-0.02043 0.213782,-0.07155 0.320854,-0.456225 z"
   id="path10" /><path
   style="fill:#acacb2;stroke-width:0.0457277"
   d="m 32.211228,14.894983 -0.950677,-0.565232 c -0.06258,-0.03719 -0.100939,-0.106461 -0.1004,-0.181164 5.39e-4,-0.07475 0.03994,-0.143362 0.103049,-0.179582 l 0.958855,-0.550149 c 0.143479,-0.08229 0.222497,-0.248427 0.198015,-0.41651 -0.02444,-0.168038 -0.147074,-0.302655 -0.307669,-0.337567 l -1.07273,-0.233111 c -0.07062,-0.01531 -0.127713,-0.06894 -0.1495,-0.140157 -0.02179,-0.07122 -0.0048,-0.149092 0.04443,-0.20374 l 0.747857,-0.830273 c 0.111899,-0.124236 0.137505,-0.307496 0.06415,-0.459521 -0.07336,-0.152071 -0.230178,-0.240793 -0.393289,-0.222544 l -1.089711,0.121769 c -0.0717,0.008 -0.141997,-0.02463 -0.183954,-0.08541 -0.04196,-0.06079 -0.04905,-0.140242 -0.01851,-0.207975 l 0.463635,-1.0290805 c 0.0694,-0.1540265 0.03908,-0.3364939 -0.07606,-0.457566 -0.115088,-0.1210656 -0.290688,-0.1552841 -0.440367,-0.085744 l -1.000047,0.4647392 c -0.06581,0.030636 -0.142401,0.022062 -0.200441,-0.022338 -0.05804,-0.044363 -0.08845,-0.1177159 -0.07964,-0.1918708 l 0.134091,-1.1272077 c 0.02008,-0.1686895 -0.06316,-0.3324919 -0.208751,-0.4108318 -0.145592,-0.078338 -0.322762,-0.054602 -0.444365,0.059441 l -0.812544,0.7622675 c -0.0535,0.050122 -0.128881,0.066571 -0.197297,0.042927 -0.06842,-0.023644 -0.119267,-0.083646 -0.132967,-0.1570064 L 26.857728,7.1366251 C 26.826508,6.9697508 26.698481,6.8405799 26.536628,6.8127444 26.37482,6.7849054 26.213371,6.8641814 26.131704,7.011597 l -0.545485,0.9850934 c -0.03589,0.064842 -0.102736,0.1045461 -0.174834,0.1040346 -0.0721,-5.593e-4 -0.13836,-0.041382 -0.173309,-0.1067817 L 24.707192,7.0003794 c -0.07942,-0.1486739 -0.239748,-0.2305521 -0.40196,-0.2051831 -0.162213,0.025364 -0.292081,0.1523972 -0.325772,0.318806 l -0.224968,1.111564 c -0.01482,0.073177 -0.06653,0.1323348 -0.13526,0.1549107 -0.06878,0.022531 -0.143884,0.00506 -0.196622,-0.046083 L 22.621342,7.5594684 c -0.119896,-0.1159504 -0.296798,-0.1424832 -0.443467,-0.06647 -0.146714,0.07601 -0.23238,0.2385111 -0.21477,0.4074802 l 0.117515,1.1291582 c 0.0077,0.074336 -0.02381,0.1471844 -0.08243,0.190614 -0.05867,0.04347 -0.13544,0.05083 -0.20071,0.019173 L 20.804304,8.7590499 c -0.148646,-0.071917 -0.324739,-0.040489 -0.44158,0.078807 -0.116841,0.1192983 -0.149859,0.3012579 -0.08274,0.4563083 l 0.448498,1.0362488 c 0.02947,0.06819 0.02125,0.147558 -0.02156,0.207697 -0.04281,0.06014 -0.113607,0.09165 -0.185212,0.08252 l -1.08782,-0.13896 c -0.162796,-0.0208 -0.320876,0.0655 -0.396479,0.216308 -0.07561,0.150815 -0.0527,0.334447 0.05736,0.460452 l 0.735638,0.841911 c 0.04838,0.05545 0.06423,0.133543 0.04142,0.204439 -0.02283,0.07094 -0.08072,0.123582 -0.151521,0.137784 l -1.076009,0.216216 c -0.161,0.03235 -0.285657,0.165012 -0.312565,0.332724 -0.02691,0.167665 0.04963,0.334958 0.191905,0.419583 l 0.950678,0.565231 c 0.06258,0.03719 0.100939,0.106461 0.1004,0.181163 -5.39e-4,0.0747 -0.03994,0.143319 -0.10305,0.179583 l -0.958764,0.550196 c -0.143481,0.08234 -0.222498,0.248426 -0.198015,0.41651 0.02448,0.168085 0.147073,0.302654 0.307669,0.337566 l 1.07273,0.233112 c 0.07062,0.01536 0.127712,0.06894 0.1495,0.140156 0.02179,0.07122 0.0048,0.149093 -0.04443,0.20374 l -0.747901,0.830229 c -0.1119,0.124243 -0.137505,0.307542 -0.06411,0.459521 0.07336,0.152026 0.230179,0.240792 0.39329,0.222591 l 1.089713,-0.121765 c 0.0717,-0.008 0.141997,0.02466 0.183955,0.08541 0.04196,0.06079 0.04905,0.140242 0.01851,0.207975 l -0.463636,1.029126 c -0.0694,0.154029 -0.03908,0.336496 0.07605,0.457566 0.115089,0.121066 0.290689,0.155285 0.440367,0.08574 l 1.000047,-0.464734 c 0.06581,-0.03054 0.142401,-0.02202 0.200441,0.02234 0.05804,0.04436 0.08845,0.117717 0.07964,0.191917 l -0.134091,1.127158 c -0.02008,0.168689 0.06316,0.332538 0.208751,0.410831 0.145591,0.0783 0.322762,0.05459 0.444365,-0.05949 l 0.8125,-0.762177 c 0.0535,-0.05012 0.12888,-0.06662 0.197296,-0.04296 0.06842,0.02364 0.119267,0.08365 0.132968,0.157006 l 0.208662,1.114962 c 0.03122,0.166828 0.159247,0.295998 0.3211,0.32388 0.161808,0.02788 0.323256,-0.05144 0.404924,-0.198899 l 0.545484,-0.985094 c 0.03589,-0.06484 0.102737,-0.104592 0.174835,-0.104032 0.0721,5.6e-4 0.13836,0.04139 0.173309,0.106735 l 0.530929,0.993566 c 0.07942,0.148673 0.239747,0.230551 0.40196,0.205182 0.162212,-0.02532 0.292081,-0.152398 0.325772,-0.318807 l 0.224967,-1.111562 c 0.01482,-0.07317 0.06653,-0.132336 0.135261,-0.154912 0.06878,-0.02257 0.143884,-0.0051 0.196622,0.04605 l 0.801268,0.774929 c 0.119896,0.115949 0.296798,0.142442 0.443467,0.06642 0.146714,-0.07602 0.23238,-0.238511 0.214771,-0.40748 l -0.117515,-1.129159 c -0.0077,-0.07429 0.02381,-0.147139 0.08243,-0.190614 0.05862,-0.04347 0.135439,-0.05078 0.200711,-0.01917 l 0.993128,0.480422 c 0.148646,0.07192 0.324739,0.04049 0.44158,-0.07881 0.116842,-0.119255 0.14986,-0.301211 0.08274,-0.456308 l -0.448496,-1.036241 c -0.02947,-0.06819 -0.02125,-0.147558 0.02156,-0.207697 0.04285,-0.06014 0.113606,-0.09165 0.185211,-0.08252 l 1.087779,0.138949 c 0.162796,0.0208 0.320876,-0.06549 0.396479,-0.21631 0.07561,-0.15086 0.05269,-0.334493 -0.05736,-0.460498 l -0.735633,-0.841936 c -0.04838,-0.05538 -0.06428,-0.133544 -0.04142,-0.204438 0.02283,-0.0709 0.08072,-0.123582 0.151521,-0.137784 l 1.076009,-0.216216 c 0.161,-0.03235 0.285658,-0.165009 0.312566,-0.332722 0.02686,-0.167618 -0.04968,-0.334958 -0.191907,-0.419536 z m -6.84373,0.212863 c -0.535512,0 -0.96968,-0.449839 -0.96968,-1.004782 0,-0.554945 0.434123,-1.004784 0.96968,-1.004784 0.535557,0 0.96968,0.449839 0.96968,1.004784 0,0.554943 -0.434169,1.004782 -0.96968,1.004782 z"
   id="path1" /><g
   id="g4"
   transform="matrix(0.04492171,0,0,0.04654788,18.310478,6.3742988)">
	<path
   style="fill:#797882"
   d="m 288.34,163.161 21.345,-11.819 c 3.194,-1.768 4.953,-5.337 4.408,-8.948 -0.544,-3.61 -3.274,-6.502 -6.849,-7.252 l -23.88,-5.008 c -1.572,-0.329 -2.843,-1.481 -3.328,-3.011 -0.484,-1.531 -0.107,-3.203 0.989,-4.377 l 16.648,-17.837 c 2.491,-2.669 3.061,-6.606 1.428,-9.872 -1.633,-3.267 -5.124,-5.173 -8.755,-4.781 l -24.258,2.616 c -1.596,0.172 -3.161,-0.529 -4.095,-1.835 -0.934,-1.306 -1.092,-3.013 -0.412,-4.468 l 10.321,-22.108 c 1.545,-3.309 0.87,-7.229 -1.693,-9.83 -2.563,-2.601 -6.471,-3.336 -9.803,-1.842 l -22.262,9.984 c -1.465,0.658 -3.17,0.474 -4.462,-0.48 -1.292,-0.953 -1.969,-2.529 -1.773,-4.122 l 2.985,-24.216 c 0.447,-3.624 -1.406,-7.143 -4.647,-8.826 -3.241,-1.683 -7.185,-1.173 -9.892,1.277 l -18.087,16.376 c -1.191,1.077 -2.869,1.43 -4.392,0.922 -1.523,-0.508 -2.655,-1.797 -2.96,-3.373 l -4.645,-23.952 c -0.695,-3.585 -3.545,-6.36 -7.148,-6.958 -3.602,-0.598 -7.196,1.105 -9.014,4.272 l -12.143,21.163 c -0.799,1.393 -2.287,2.246 -3.892,2.235 -0.334,-0.002 -0.661,-0.051 -0.979,-0.126 v 107.49 c 11.921,0 21.586,9.664 21.586,21.586 0,11.921 -9.664,21.586 -21.586,21.586 v 107.49 c 1.208,0.283 2.263,1.056 2.879,2.168 l 11.819,21.345 c 1.768,3.194 5.337,4.953 8.948,4.408 3.611,-0.544 6.502,-3.274 7.252,-6.849 l 5.008,-23.88 c 0.33,-1.572 1.481,-2.843 3.011,-3.328 1.531,-0.485 3.203,-0.107 4.377,0.989 l 17.837,16.648 c 2.669,2.491 6.607,3.06 9.872,1.427 3.266,-1.633 5.173,-5.124 4.781,-8.754 l -2.616,-24.258 c -0.172,-1.596 0.53,-3.161 1.835,-4.095 1.305,-0.934 3.015,-1.091 4.468,-0.412 l 22.108,10.321 c 3.309,1.545 7.229,0.87 9.83,-1.693 2.601,-2.562 3.336,-6.471 1.842,-9.803 l -9.984,-22.262 c -0.656,-1.465 -0.473,-3.17 0.48,-4.462 0.954,-1.292 2.529,-1.969 4.123,-1.773 l 24.215,2.985 c 3.624,0.447 7.143,-1.407 8.826,-4.647 1.683,-3.241 1.173,-7.186 -1.277,-9.893 l -16.376,-18.087 c -1.077,-1.19 -1.431,-2.869 -0.922,-4.392 0.508,-1.523 1.797,-2.655 3.373,-2.96 l 23.953,-4.645 c 3.584,-0.695 6.359,-3.545 6.958,-7.148 0.599,-3.602 -1.105,-7.196 -4.272,-9.014 L 288.28,170.91 c -1.393,-0.799 -2.247,-2.287 -2.235,-3.892 0.013,-1.605 0.89,-3.079 2.295,-3.857 z"
   id="path2" />
	<path
   style="fill:#797882"
   d="m 506.182,380.375 -18.817,-11.859 c -1.238,-0.78 -1.959,-2.167 -1.888,-3.63 0.072,-1.462 0.925,-2.771 2.235,-3.427 l 19.889,-9.959 c 2.977,-1.491 4.713,-4.674 4.354,-7.984 -0.359,-3.309 -2.737,-6.046 -5.964,-6.864 l -21.56,-5.464 c -1.418,-0.359 -2.534,-1.456 -2.917,-2.869 -0.383,-1.412 0.024,-2.921 1.066,-3.95 l 15.838,-15.617 c 2.37,-2.338 3.038,-5.901 1.674,-8.938 -1.364,-3.037 -4.472,-4.905 -7.793,-4.686 l -22.194,1.466 c -1.461,0.096 -2.86,-0.602 -3.661,-1.827 -0.801,-1.225 -0.88,-2.787 -0.207,-4.086 l 10.237,-19.747 c 1.532,-2.956 1.065,-6.551 -1.171,-9.018 -2.236,-2.466 -5.768,-3.283 -8.859,-2.048 l -20.655,8.253 c -1.36,0.543 -2.906,0.311 -4.046,-0.605 -1.141,-0.917 -1.698,-2.378 -1.459,-3.822 l 3.633,-21.944 c 0.544,-3.284 -1.012,-6.56 -3.9,-8.215 -2.888,-1.655 -6.501,-1.341 -9.059,0.79 l -17.093,14.232 c -1.125,0.936 -2.667,1.194 -4.035,0.673 -1.368,-0.52 -2.35,-1.736 -2.569,-3.183 l -3.326,-21.993 c -0.498,-3.291 -2.989,-5.926 -6.247,-6.608 -3.258,-0.682 -6.597,0.734 -8.372,3.551 l -11.859,18.817 c -0.781,1.238 -2.167,1.959 -3.63,1.888 -1.462,-0.071 -2.771,-0.925 -3.427,-2.235 l -9.959,-19.889 c -1.491,-2.976 -4.674,-4.712 -7.983,-4.353 -3.309,0.359 -6.047,2.737 -6.864,5.965 l -5.464,21.56 c -0.36,1.418 -1.456,2.534 -2.868,2.917 -1.413,0.383 -2.922,-0.023 -3.95,-1.066 l -15.617,-15.837 c -2.337,-2.37 -5.901,-3.038 -8.938,-1.674 -3.037,1.364 -4.905,4.471 -4.685,7.793 l 1.466,22.194 c 0.097,1.46 -0.602,2.86 -1.826,3.66 -1.225,0.802 -2.787,0.88 -4.086,0.207 l -19.747,-10.237 c -2.956,-1.532 -6.551,-1.065 -9.018,1.171 -2.466,2.236 -3.283,5.769 -2.048,8.86 l 8.253,20.655 c 0.543,1.358 0.311,2.906 -0.605,4.046 -0.917,1.141 -2.378,1.697 -3.822,1.458 l -21.944,-3.633 c -3.283,-0.544 -6.56,1.012 -8.215,3.899 -1.655,2.889 -1.34,6.501 0.79,9.059 l 14.232,17.094 c 0.936,1.125 1.194,2.667 0.674,4.035 -0.52,1.368 -1.737,2.35 -3.184,2.569 L 233,323.247 c -3.291,0.498 -5.926,2.989 -6.608,6.247 -0.681,3.259 0.734,6.597 3.551,8.372 l 18.817,11.859 c 1.238,0.78 1.96,2.167 1.888,3.629 -0.072,1.462 -0.925,2.771 -2.235,3.427 l -19.889,9.959 c -2.977,1.491 -4.713,4.674 -4.354,7.984 0.359,3.309 2.737,6.047 5.964,6.864 l 21.56,5.464 c 1.418,0.36 2.534,1.456 2.917,2.869 0.383,1.413 -0.024,2.922 -1.066,3.95 l -15.838,15.617 c -2.37,2.337 -3.038,5.901 -1.674,8.938 1.364,3.037 4.472,4.905 7.793,4.685 l 22.194,-1.466 c 1.461,-0.097 2.86,0.602 3.661,1.827 0.801,1.225 0.88,2.786 0.207,4.085 l -10.237,19.747 c -1.532,2.956 -1.065,6.551 1.171,9.018 2.236,2.466 5.768,3.283 8.859,2.048 l 20.655,-8.253 c 1.36,-0.543 2.906,-0.312 4.046,0.605 1.141,0.917 1.698,2.378 1.46,3.822 l -3.633,21.944 c -0.544,3.284 1.012,6.56 3.9,8.215 2.888,1.654 6.501,1.34 9.059,-0.79 l 17.093,-14.232 c 1.125,-0.936 2.667,-1.194 4.035,-0.674 1.368,0.52 2.35,1.737 2.569,3.184 l 3.326,21.992 c 0.498,3.291 2.989,5.926 6.247,6.608 3.258,0.682 6.597,-0.734 8.372,-3.551 l 11.859,-18.817 c 0.781,-1.237 2.167,-1.959 3.63,-1.888 1.463,0.071 2.771,0.925 3.427,2.235 l 9.959,19.889 c 1.491,2.977 4.674,4.713 7.983,4.353 3.309,-0.359 6.047,-2.737 6.864,-5.964 l 5.464,-21.562 c 0.36,-1.418 1.456,-2.534 2.868,-2.917 1.413,-0.384 2.922,0.023 3.95,1.066 l 15.617,15.837 c 2.337,2.37 5.901,3.038 8.938,1.674 3.037,-1.364 4.905,-4.472 4.685,-7.793 l -1.466,-22.194 c -0.097,-1.461 0.602,-2.86 1.826,-3.661 1.225,-0.801 2.787,-0.88 4.086,-0.207 l 19.747,10.237 c 2.956,1.532 6.551,1.065 9.018,-1.171 2.466,-2.236 3.283,-5.768 2.048,-8.86 l -8.253,-20.654 c -0.543,-1.36 -0.312,-2.906 0.605,-4.046 0.917,-1.141 2.378,-1.698 3.822,-1.46 l 21.944,3.633 c 3.284,0.543 6.56,-1.012 8.215,-3.9 1.655,-2.888 1.34,-6.501 -0.79,-9.058 l -14.232,-17.094 c -0.936,-1.125 -1.194,-2.667 -0.674,-4.035 0.52,-1.368 1.737,-2.35 3.184,-2.569 l 21.992,-3.326 c 3.291,-0.499 5.926,-2.989 6.608,-6.248 0.682,-3.259 -0.735,-6.59 -3.552,-8.365 z m -138.891,-2.684 c -10.257,-0.425 -18.225,-9.085 -17.799,-19.341 0.425,-10.255 9.085,-18.225 19.341,-17.798 10.257,0.424 18.225,9.085 17.799,19.34 -0.426,10.256 -9.085,18.226 -19.341,17.799 z"
   id="path3" />
	<path
   style="fill:#797882"
   d="m 157.096,90.139 c -41.918,0 -75.9,33.982 -75.9,75.9 0,41.918 33.982,75.9 75.9,75.9 41.918,0 75.9,-33.982 75.9,-75.9 0,-41.918 -33.982,-75.9 -75.9,-75.9 z m 0,97.486 c -11.921,0 -21.586,-9.664 -21.586,-21.586 0,-11.922 9.664,-21.586 21.586,-21.586 11.922,0 21.586,9.664 21.586,21.586 0,11.922 -9.665,21.586 -21.586,21.586 z"
   id="path4" />
</g><g
   id="g7"
   transform="matrix(0.04492171,0,0,0.04654788,18.310478,6.3742988)">
	<path
   style="fill:#3e3e42"
   d="m 371.024,289.993 c -38.179,-1.636 -70.455,27.988 -72.091,66.166 -1.636,38.178 27.987,70.455 66.166,72.091 38.178,1.636 70.455,-27.987 72.091,-66.166 1.636,-38.179 -27.988,-70.454 -66.166,-72.091 z m -3.758,87.698 c -10.255,-0.44 -18.213,-9.109 -17.774,-19.365 0.44,-10.255 9.109,-18.213 19.365,-17.773 10.255,0.439 18.213,9.109 17.773,19.365 -0.439,10.255 -9.108,18.212 -19.364,17.773 z"
   id="path5" />
	<path
   style="fill:#3e3e42"
   d="m 178.682,166.039 c 0,11.921 -9.664,21.586 -21.586,21.586 v 54.314 c 41.918,0 75.9,-33.982 75.9,-75.9 0,-41.919 -33.982,-75.9 -75.9,-75.9 v 54.314 c 11.921,0 21.586,9.665 21.586,21.586 z"
   id="path6" />
	<path
   style="fill:#3e3e42"
   d="m 487.712,361.459 19.889,-9.959 c 2.977,-1.491 4.713,-4.674 4.354,-7.984 -0.359,-3.309 -2.737,-6.046 -5.964,-6.864 l -21.56,-5.464 c -1.418,-0.359 -2.534,-1.456 -2.917,-2.869 -0.383,-1.412 0.024,-2.921 1.066,-3.95 l 15.838,-15.617 c 2.37,-2.338 3.038,-5.901 1.674,-8.938 -1.364,-3.037 -4.472,-4.905 -7.793,-4.686 l -22.194,1.466 c -1.461,0.096 -2.86,-0.602 -3.661,-1.827 -0.801,-1.225 -0.88,-2.787 -0.207,-4.086 l 10.237,-19.747 c 1.532,-2.956 1.065,-6.551 -1.171,-9.018 -2.236,-2.466 -5.768,-3.283 -8.859,-2.048 l -20.655,8.253 c -1.36,0.543 -2.906,0.311 -4.046,-0.605 -1.141,-0.917 -1.698,-2.378 -1.46,-3.822 l 3.633,-21.944 c 0.544,-3.284 -1.012,-6.56 -3.9,-8.215 -2.888,-1.655 -6.501,-1.341 -9.059,0.79 l -17.093,14.232 c -1.125,0.936 -2.667,1.194 -4.035,0.673 -1.368,-0.52 -2.35,-1.736 -2.569,-3.183 l -3.326,-21.993 c -0.498,-3.291 -2.989,-5.926 -6.247,-6.608 -3.258,-0.682 -6.597,0.734 -8.372,3.551 l -11.859,18.817 c -0.781,1.238 -2.167,1.959 -3.63,1.888 -1.462,-0.071 -2.771,-0.925 -3.427,-2.235 l -2.338,-4.668 v 105.756 c 0.258,0 0.511,-0.018 0.771,-0.007 10.257,0.424 18.225,9.085 17.799,19.34 -0.414,9.997 -8.657,17.797 -18.57,17.793 v 105.756 l 7.621,15.22 c 1.491,2.977 4.674,4.713 7.983,4.353 3.309,-0.359 6.047,-2.737 6.864,-5.964 l 5.464,-21.562 c 0.36,-1.418 1.456,-2.534 2.868,-2.917 1.413,-0.384 2.922,0.023 3.95,1.066 l 15.617,15.837 c 2.337,2.37 5.901,3.038 8.938,1.674 3.037,-1.364 4.905,-4.472 4.685,-7.793 l -1.466,-22.194 c -0.097,-1.461 0.602,-2.86 1.826,-3.661 1.225,-0.801 2.787,-0.88 4.086,-0.207 l 19.747,10.237 c 2.956,1.532 6.551,1.065 9.018,-1.171 2.466,-2.236 3.283,-5.768 2.048,-8.86 l -8.253,-20.654 c -0.543,-1.36 -0.312,-2.906 0.605,-4.046 0.917,-1.141 2.378,-1.698 3.822,-1.46 l 21.944,3.633 c 3.284,0.543 6.56,-1.012 8.215,-3.9 1.655,-2.888 1.34,-6.501 -0.79,-9.058 l -14.232,-17.094 c -0.936,-1.125 -1.194,-2.667 -0.674,-4.035 0.52,-1.368 1.737,-2.35 3.184,-2.569 l 21.992,-3.326 c 3.291,-0.499 5.926,-2.989 6.608,-6.248 0.682,-3.259 -0.734,-6.597 -3.551,-8.372 l -18.817,-11.859 c -1.238,-0.78 -1.959,-2.167 -1.888,-3.63 0.074,-1.452 0.928,-2.763 2.237,-3.418 z"
   id="path7" />
</g><path
   style="fill:#2d2e30;stroke-width:0.0457277"
   d="m 34.977507,19.872861 c -0.04456,-0.002 -0.08885,-0.0025 -0.133054,-0.0025 v 2.356162 c 0.01193,0 0.02372,-8.38e-4 0.03571,-2.81e-4 0.460673,0.02044 0.81816,0.424005 0.798439,0.9014 -0.01922,0.464921 -0.389336,0.827249 -0.834151,0.827016 v 2.356115 c 1.656307,0.0012 3.033787,-1.351378 3.105392,-3.082261 0.07344,-1.777199 -1.257314,-3.279532 -2.972334,-3.35573 z"
   id="path8" /></svg>
