<?xml version="1.0" encoding="UTF-8" standalone="no"?>
<!-- Uploaded to: SVG Repo, www.svgrepo.com, Generator: SVG Repo Mixer Tools -->

<svg
   version="1.1"
   id="Capa_1"
   viewBox="0 0 59.205776 49.314079"
   xml:space="preserve"
   sodipodi:docname="zone-valve-on.svg"
   inkscape:version="1.3.2 (091e20e, 2023-11-25, custom)"
   width="59.205776"
   height="49.314079"
   xmlns:inkscape="http://www.inkscape.org/namespaces/inkscape"
   xmlns:sodipodi="http://sodipodi.sourceforge.net/DTD/sodipodi-0.dtd"
   xmlns="http://www.w3.org/2000/svg"
   xmlns:svg="http://www.w3.org/2000/svg"><defs
   id="defs15" /><sodipodi:namedview
   id="namedview15"
   pagecolor="#ffffff"
   bordercolor="#000000"
   borderopacity="0.25"
   inkscape:showpageshadow="2"
   inkscape:pageopacity="0.0"
   inkscape:pagecheckerboard="0"
   inkscape:deskcolor="#d1d1d1"
   inkscape:zoom="13.85"
   inkscape:cx="28.953069"
   inkscape:cy="25.451264"
   inkscape:window-width="1920"
   inkscape:window-height="1027"
   inkscape:window-x="-8"
   inkscape:window-y="-8"
   inkscape:window-maximized="1"
   inkscape:current-layer="Capa_1" />







<polygon
   style="fill:#c7cac7"
   points="43,26.5 19,26.5 19,34.5 7,34.5 7,54.5 53,54.5 53,34.5 43,34.5 "
   id="polygon6"
   transform="matrix(1,0,0,0.52294997,0,16.251934)" />










<path
   style="fill:#999999;stroke-width:0.0722022"
   d="m 18.963858,30.583921 c 0.01392,-1.128302 0.02531,-2.517291 0.02531,-3.086642 v -1.035185 h 1.552346 1.552347 v 1.805054 1.805054 h -1.550718 -1.550718 l -0.02694,1.281589 c -0.01482,0.704873 -0.01555,0.358432 -0.0016,-0.76987 z"
   id="path28" /><path
   style="fill:#999999;stroke-width:0.0722022"
   d="m 22.166065,28.267148 v -1.805054 h 0.530037 c 0.29152,0 1.022567,0.02132 1.624548,0.04737 l 1.094512,0.04737 v 1.75768 1.75768 h -1.624548 -1.624549 z"
   id="path29" /><path
   style="fill:#999999;stroke-width:0.0722022"
   d="m 25.487365,28.303249 v -1.768953 h 1.552346 1.552347 v 1.768953 1.768953 h -1.552347 -1.552346 z"
   id="path30" /><path
   style="fill:#999999;stroke-width:0.0722022"
   d="m 28.66426,28.303249 v -1.768953 h 1.624549 1.624548 v 1.768953 1.768953 H 30.288809 28.66426 Z"
   id="path31" /><path
   style="fill:#999999;stroke-width:0.0722022"
   d="m 31.98556,28.303249 v -1.768953 h 1.588447 1.588448 v 1.768953 1.768953 H 33.574007 31.98556 Z"
   id="path32" /><path
   style="fill:#999999;stroke-width:0.0722022"
   d="m 38.555957,28.267148 v -1.805054 h 1.552346 1.552347 v 1.805054 1.805054 h -1.552347 -1.552346 z"
   id="path33" /><path
   style="fill:#999999;stroke-width:0.0722022"
   d="m 38.555957,28.267148 v -1.805054 h 1.552346 1.552347 v 1.805054 1.805054 h -1.552347 -1.552346 z"
   id="path34" /><path
   style="fill:#999999;stroke-width:0.0722022"
   d="m 35.234657,28.303249 v -1.768953 h 1.289562 c 0.709259,0 1.440306,-0.02066 1.624548,-0.04592 l 0.334988,-0.04592 v 1.814868 1.814868 h -1.624549 -1.624549 z"
   id="path36" /><path
   style="fill:#b3b3b3;stroke-width:0.0722022"
   d="m 41.732852,28.267148 v -1.805054 h 0.649819 0.64982 v 1.805054 1.805054 h -0.64982 -0.649819 z"
   id="path37" /><path
   style="fill:#b3b3b3;stroke-width:0.0722022"
   d="m 18.98917,28.267148 v -1.805054 h 1.552346 1.552347 v 1.805054 1.805054 H 20.541516 18.98917 Z"
   id="path39" /><path
   style="fill:#b3b3b3;stroke-width:0.0722022"
   d="m 22.166065,28.271425 v -1.800778 l 1.173285,0.03454 c 0.645307,0.019 1.376354,0.05215 1.624549,0.07367 l 0.451263,0.03914 v 1.727105 1.727105 h -1.624548 -1.624549 z"
   id="path40" /><path
   style="fill:#b3b3b3;stroke-width:0.0722022"
   d="m 25.487365,28.303249 v -1.768953 h 1.552346 1.552347 v 1.768953 1.768953 h -1.552347 -1.552346 z"
   id="path41" /><path
   style="fill:#b3b3b3;stroke-width:0.0722022"
   d="m 28.66426,28.303249 v -1.768953 h 1.624549 1.624548 v 1.768953 1.768953 H 30.288809 28.66426 Z"
   id="path42" /><path
   style="fill:#b3b3b3;stroke-width:0.0722022"
   d="m 31.98556,28.303249 v -1.768953 h 1.588447 1.588448 v 1.768953 1.768953 H 33.574007 31.98556 Z"
   id="path43" /><path
   style="fill:#b3b3b3;stroke-width:0.0722022"
   d="m 35.234657,28.303249 v -1.768953 h 1.51034 c 0.830687,0 1.561734,-0.01972 1.624549,-0.04383 0.102274,-0.03925 0.114209,0.1456 0.114209,1.768953 v 1.812779 h -1.624549 -1.624549 z"
   id="path44" /><path
   style="fill:#b3b3b3;stroke-width:0.0722022"
   d="m 38.555957,28.267148 v -1.805054 h 1.552346 1.552347 v 1.805054 1.805054 h -1.552347 -1.552346 z"
   id="path45" /><path
   style="fill:#666666;stroke-width:0.075813"
   d="M 9.2418774,18.086642 V 6.0288809 H 30.072203 50.902527 V 18.086642 30.144404 H 47.849086 44.795645 V 27.190081 24.235757 H 44.044177 43.29271 l -0.02387,1.734807 -0.02387,1.734805 -0.01941,-1.734805 -0.01941,-1.734807 h -1.797148 -1.797165 l -0.02387,1.734807 -0.02387,1.734805 -0.01941,-1.773788 c -0.0181,-1.652157 -0.02945,-1.771465 -0.165809,-1.73991 -0.08053,0.01863 -0.926885,0.05502 -1.880816,0.08085 l -1.734419,0.04697 -0.02389,1.692938 -0.02388,1.692937 -0.01939,-1.700453 -0.01939,-1.700454 H 33.83815 31.99918 l -0.0239,1.700454 -0.02391,1.700453 -0.01939,-1.700453 -0.01939,-1.700454 h -1.880809 -1.880795 l -0.02391,1.700454 -0.0239,1.700453 -0.01939,-1.700453 -0.01939,-1.700454 h -1.797141 -1.797142 l -0.0239,1.700454 -0.0239,1.700453 -0.01939,-1.690665 -0.01939,-1.690667 -0.514207,-0.04414 c -0.282814,-0.02427 -1.129183,-0.04414 -1.880822,-0.04414 H 20.62184 L 20.59797,25.97056 20.5741,27.705366 20.55469,25.97056 20.53528,24.235754 h -1.789413 -1.789461 l -0.06282,1.356928 c -0.03454,0.74631 -0.04018,2.075755 -0.01251,2.954323 l 0.05031,1.597395 H 13.086662 9.2418637 Z"
   id="path46" /><path
   style="fill:#acacb2;stroke-width:0.0298223"
   d="m 32.405063,14.130224 -0.620008,-0.368629 c -0.04081,-0.02426 -0.06583,-0.06943 -0.06548,-0.118151 3.3e-4,-0.04875 0.02605,-0.0935 0.06721,-0.117118 l 0.625339,-0.358793 c 0.09357,-0.05367 0.145107,-0.162017 0.12914,-0.271637 -0.01594,-0.10959 -0.09592,-0.197383 -0.200653,-0.220152 l -0.699607,-0.152029 c -0.04605,-0.01 -0.08329,-0.04496 -0.0975,-0.09141 -0.01421,-0.04645 -0.0031,-0.09723 0.02897,-0.132873 l 0.487732,-0.541484 c 0.07298,-0.08102 0.08968,-0.20054 0.04184,-0.299687 -0.04784,-0.09918 -0.150117,-0.157037 -0.256493,-0.145137 l -0.710681,0.07941 c -0.04676,0.0052 -0.09261,-0.01606 -0.11997,-0.0557 -0.02736,-0.03965 -0.03199,-0.09147 -0.01207,-0.135637 l 0.302371,-0.671139 c 0.04526,-0.100452 0.02549,-0.219453 -0.0496,-0.298412 -0.07506,-0.07896 -0.189579,-0.101272 -0.287196,-0.05592 l -0.652205,0.303087 c -0.04292,0.01997 -0.09287,0.01439 -0.130722,-0.01457 -0.03785,-0.02893 -0.05769,-0.07677 -0.05194,-0.125133 L 30.22099,9.603978 C 30.23408,9.493963 30.1798,9.387136 30.084848,9.336044 29.989898,9.284954 29.87435,9.300434 29.795044,9.374814 l -0.52992,0.497131 c -0.03489,0.0327 -0.08405,0.04341 -0.128671,0.02799 -0.04462,-0.01542 -0.07778,-0.05455 -0.08672,-0.102395 L 28.91365,9.0704215 c -0.02036,-0.108831 -0.103857,-0.1930731 -0.209413,-0.2112261 -0.105528,-0.01815 -0.21082,0.03354 -0.264082,0.1296861 l -0.35575,0.6424515 c -0.02341,0.04229 -0.067,0.06818 -0.114023,0.06785 -0.04702,-3.6e-4 -0.09023,-0.02699 -0.113027,-0.06964 l -0.34623,-0.6479765 c -0.0518,-0.09696 -0.156356,-0.1503601 -0.262147,-0.1338151 -0.105791,0.01655 -0.190487,0.09939 -0.21246,0.2079171 L 26.8898,9.780601 c -0.0097,0.04772 -0.04339,0.08631 -0.08821,0.10103 -0.04485,0.01469 -0.09384,0.0032 -0.128232,-0.03005 L 26.150791,9.346192 c -0.07819,-0.07562 -0.193563,-0.09292 -0.289217,-0.04335 -0.09568,0.04957 -0.151553,0.155551 -0.140068,0.265748 l 0.07664,0.736407 c 0.005,0.04848 -0.01553,0.09599 -0.05376,0.124313 -0.03826,0.02835 -0.08833,0.03315 -0.130898,0.01251 l -0.647723,-0.313287 c -0.09694,-0.0469 -0.211786,-0.02641 -0.287987,0.05139 -0.0762,0.07781 -0.09773,0.196473 -0.05396,0.297593 l 0.292499,0.675814 c 0.01922,0.04447 0.01386,0.09623 -0.01406,0.135454 -0.02792,0.03922 -0.07409,0.05977 -0.120791,0.05382 l -0.70945,-0.09062 c -0.106172,-0.01357 -0.209267,0.04271 -0.258573,0.14107 -0.04931,0.09836 -0.03436,0.218116 0.03741,0.300294 l 0.479764,0.549072 c 0.03155,0.03616 0.04189,0.08709 0.02701,0.133329 -0.01488,0.04626 -0.05265,0.0806 -0.09882,0.08986 l -0.701746,0.14101 c -0.104999,0.0211 -0.186298,0.107616 -0.203847,0.216994 -0.01755,0.109347 0.03237,0.218451 0.125156,0.27364 l 0.620007,0.368629 c 0.04081,0.02426 0.06583,0.06943 0.06548,0.118151 -3.6e-4,0.04872 -0.02605,0.09347 -0.06721,0.117118 l -0.62528,0.358823 c -0.09357,0.0537 -0.145107,0.162018 -0.12914,0.271638 0.01597,0.10962 0.09592,0.197383 0.200653,0.220151 l 0.699607,0.152029 c 0.04605,0.01002 0.08329,0.04496 0.0975,0.09141 0.01421,0.04645 0.0031,0.09724 -0.02897,0.132874 l -0.487762,0.541453 c -0.07298,0.08102 -0.08968,0.200571 -0.04181,0.299687 0.04784,0.09915 0.150116,0.157038 0.256493,0.145168 l 0.710681,-0.07941 c 0.04676,-0.0052 0.09261,0.01609 0.11997,0.05571 0.02736,0.03965 0.03199,0.09147 0.01207,0.135636 l -0.302372,0.671169 c -0.04526,0.100453 -0.02549,0.219453 0.0496,0.298413 0.07506,0.07896 0.18958,0.101272 0.287197,0.05592 l 0.652204,-0.303087 c 0.04292,-0.01991 0.09287,-0.01436 0.130723,0.01457 0.03785,0.02893 0.05768,0.07677 0.05194,0.125163 l -0.08745,0.735102 c -0.0131,0.110015 0.04119,0.216873 0.136142,0.267934 0.09495,0.05106 0.210497,0.03561 0.289803,-0.0388 l 0.529891,-0.49707 c 0.03489,-0.03269 0.08405,-0.04344 0.128671,-0.02802 0.04462,0.01542 0.07778,0.05455 0.08672,0.102395 l 0.136084,0.727148 c 0.02036,0.108801 0.103857,0.193042 0.209413,0.211226 0.105528,0.01818 0.21082,-0.03354 0.264082,-0.129717 l 0.35575,-0.642451 c 0.02341,-0.04229 0.067,-0.06821 0.114023,-0.06785 0.04702,3.6e-4 0.09023,0.02699 0.113027,0.06961 l 0.346259,0.647976 c 0.0518,0.09696 0.156357,0.15036 0.262147,0.133815 0.105791,-0.01652 0.190488,-0.09939 0.21246,-0.207917 l 0.146718,-0.724932 c 0.0097,-0.04772 0.04339,-0.08631 0.08821,-0.101029 0.04485,-0.01472 0.09384,-0.0032 0.128232,0.03002 l 0.522567,0.505388 c 0.07819,0.07562 0.193563,0.09289 0.289217,0.04332 0.09568,-0.04957 0.151552,-0.155551 0.140068,-0.265748 l -0.07664,-0.736407 c -0.005,-0.04845 0.01553,-0.09596 0.05376,-0.124313 0.03823,-0.02835 0.08833,-0.03312 0.130898,-0.01251 l 0.647693,0.313317 c 0.09694,0.0469 0.211787,0.02641 0.287987,-0.05139 0.0762,-0.07778 0.09773,-0.196443 0.05396,-0.297593 l -0.292499,-0.675814 c -0.01922,-0.04447 -0.01386,-0.09623 0.01406,-0.135455 0.02795,-0.03922 0.07409,-0.05977 0.120791,-0.05382 l 0.709421,0.09062 c 0.106171,0.01357 0.209267,-0.04271 0.258573,-0.141071 0.04931,-0.09839 0.03437,-0.218147 -0.03741,-0.300325 l -0.479764,-0.549072 c -0.03155,-0.03613 -0.04192,-0.0871 -0.02701,-0.133329 0.01488,-0.04624 0.05265,-0.0806 0.09882,-0.08986 l 0.701746,-0.14101 c 0.105,-0.0211 0.186298,-0.107617 0.203847,-0.216994 0.01752,-0.109317 -0.0324,-0.218451 -0.125156,-0.27361 z m -4.463304,0.138823 c -0.349247,0 -0.6324,-0.293372 -0.6324,-0.655292 0,-0.36192 0.283124,-0.655293 0.6324,-0.655293 0.349276,0 0.6324,0.293373 0.6324,0.655293 0,0.36192 -0.283153,0.655292 -0.6324,0.655292 z"
   id="path1" /><g
   id="g4"
   transform="matrix(0.02929677,0,0,0.0303573,23.339354,8.5732594)">
	<path
   style="fill:#797882"
   d="m 288.34,163.161 21.345,-11.819 c 3.194,-1.768 4.953,-5.337 4.408,-8.948 -0.544,-3.61 -3.274,-6.502 -6.849,-7.252 l -23.88,-5.008 c -1.572,-0.329 -2.843,-1.481 -3.328,-3.011 -0.484,-1.531 -0.107,-3.203 0.989,-4.377 l 16.648,-17.837 c 2.491,-2.669 3.061,-6.606 1.428,-9.872 -1.633,-3.267 -5.124,-5.173 -8.755,-4.781 l -24.258,2.616 c -1.596,0.172 -3.161,-0.529 -4.095,-1.835 -0.934,-1.306 -1.092,-3.013 -0.412,-4.468 l 10.321,-22.108 c 1.545,-3.309 0.87,-7.229 -1.693,-9.83 -2.563,-2.601 -6.471,-3.336 -9.803,-1.842 l -22.262,9.984 c -1.465,0.658 -3.17,0.474 -4.462,-0.48 -1.292,-0.953 -1.969,-2.529 -1.773,-4.122 l 2.985,-24.216 c 0.447,-3.624 -1.406,-7.143 -4.647,-8.826 -3.241,-1.683 -7.185,-1.173 -9.892,1.277 l -18.087,16.376 c -1.191,1.077 -2.869,1.43 -4.392,0.922 -1.523,-0.508 -2.655,-1.797 -2.96,-3.373 l -4.645,-23.952 c -0.695,-3.585 -3.545,-6.36 -7.148,-6.958 -3.602,-0.598 -7.196,1.105 -9.014,4.272 l -12.143,21.163 c -0.799,1.393 -2.287,2.246 -3.892,2.235 -0.334,-0.002 -0.661,-0.051 -0.979,-0.126 v 107.49 c 11.921,0 21.586,9.664 21.586,21.586 0,11.921 -9.664,21.586 -21.586,21.586 v 107.49 c 1.208,0.283 2.263,1.056 2.879,2.168 l 11.819,21.345 c 1.768,3.194 5.337,4.953 8.948,4.408 3.611,-0.544 6.502,-3.274 7.252,-6.849 l 5.008,-23.88 c 0.33,-1.572 1.481,-2.843 3.011,-3.328 1.531,-0.485 3.203,-0.107 4.377,0.989 l 17.837,16.648 c 2.669,2.491 6.607,3.06 9.872,1.427 3.266,-1.633 5.173,-5.124 4.781,-8.754 l -2.616,-24.258 c -0.172,-1.596 0.53,-3.161 1.835,-4.095 1.305,-0.934 3.015,-1.091 4.468,-0.412 l 22.108,10.321 c 3.309,1.545 7.229,0.87 9.83,-1.693 2.601,-2.562 3.336,-6.471 1.842,-9.803 l -9.984,-22.262 c -0.656,-1.465 -0.473,-3.17 0.48,-4.462 0.954,-1.292 2.529,-1.969 4.123,-1.773 l 24.215,2.985 c 3.624,0.447 7.143,-1.407 8.826,-4.647 1.683,-3.241 1.173,-7.186 -1.277,-9.893 l -16.376,-18.087 c -1.077,-1.19 -1.431,-2.869 -0.922,-4.392 0.508,-1.523 1.797,-2.655 3.373,-2.96 l 23.953,-4.645 c 3.584,-0.695 6.359,-3.545 6.958,-7.148 0.599,-3.602 -1.105,-7.196 -4.272,-9.014 L 288.28,170.91 c -1.393,-0.799 -2.247,-2.287 -2.235,-3.892 0.013,-1.605 0.89,-3.079 2.295,-3.857 z"
   id="path2" />
	<path
   style="fill:#797882"
   d="m 506.182,380.375 -18.817,-11.859 c -1.238,-0.78 -1.959,-2.167 -1.888,-3.63 0.072,-1.462 0.925,-2.771 2.235,-3.427 l 19.889,-9.959 c 2.977,-1.491 4.713,-4.674 4.354,-7.984 -0.359,-3.309 -2.737,-6.046 -5.964,-6.864 l -21.56,-5.464 c -1.418,-0.359 -2.534,-1.456 -2.917,-2.869 -0.383,-1.412 0.024,-2.921 1.066,-3.95 l 15.838,-15.617 c 2.37,-2.338 3.038,-5.901 1.674,-8.938 -1.364,-3.037 -4.472,-4.905 -7.793,-4.686 l -22.194,1.466 c -1.461,0.096 -2.86,-0.602 -3.661,-1.827 -0.801,-1.225 -0.88,-2.787 -0.207,-4.086 l 10.237,-19.747 c 1.532,-2.956 1.065,-6.551 -1.171,-9.018 -2.236,-2.466 -5.768,-3.283 -8.859,-2.048 l -20.655,8.253 c -1.36,0.543 -2.906,0.311 -4.046,-0.605 -1.141,-0.917 -1.698,-2.378 -1.459,-3.822 l 3.633,-21.944 c 0.544,-3.284 -1.012,-6.56 -3.9,-8.215 -2.888,-1.655 -6.501,-1.341 -9.059,0.79 l -17.093,14.232 c -1.125,0.936 -2.667,1.194 -4.035,0.673 -1.368,-0.52 -2.35,-1.736 -2.569,-3.183 l -3.326,-21.993 c -0.498,-3.291 -2.989,-5.926 -6.247,-6.608 -3.258,-0.682 -6.597,0.734 -8.372,3.551 l -11.859,18.817 c -0.781,1.238 -2.167,1.959 -3.63,1.888 -1.462,-0.071 -2.771,-0.925 -3.427,-2.235 l -9.959,-19.889 c -1.491,-2.976 -4.674,-4.712 -7.983,-4.353 -3.309,0.359 -6.047,2.737 -6.864,5.965 l -5.464,21.56 c -0.36,1.418 -1.456,2.534 -2.868,2.917 -1.413,0.383 -2.922,-0.023 -3.95,-1.066 l -15.617,-15.837 c -2.337,-2.37 -5.901,-3.038 -8.938,-1.674 -3.037,1.364 -4.905,4.471 -4.685,7.793 l 1.466,22.194 c 0.097,1.46 -0.602,2.86 -1.826,3.66 -1.225,0.802 -2.787,0.88 -4.086,0.207 l -19.747,-10.237 c -2.956,-1.532 -6.551,-1.065 -9.018,1.171 -2.466,2.236 -3.283,5.769 -2.048,8.86 l 8.253,20.655 c 0.543,1.358 0.311,2.906 -0.605,4.046 -0.917,1.141 -2.378,1.697 -3.822,1.458 l -21.944,-3.633 c -3.283,-0.544 -6.56,1.012 -8.215,3.899 -1.655,2.889 -1.34,6.501 0.79,9.059 l 14.232,17.094 c 0.936,1.125 1.194,2.667 0.674,4.035 -0.52,1.368 -1.737,2.35 -3.184,2.569 L 233,323.247 c -3.291,0.498 -5.926,2.989 -6.608,6.247 -0.681,3.259 0.734,6.597 3.551,8.372 l 18.817,11.859 c 1.238,0.78 1.96,2.167 1.888,3.629 -0.072,1.462 -0.925,2.771 -2.235,3.427 l -19.889,9.959 c -2.977,1.491 -4.713,4.674 -4.354,7.984 0.359,3.309 2.737,6.047 5.964,6.864 l 21.56,5.464 c 1.418,0.36 2.534,1.456 2.917,2.869 0.383,1.413 -0.024,2.922 -1.066,3.95 l -15.838,15.617 c -2.37,2.337 -3.038,5.901 -1.674,8.938 1.364,3.037 4.472,4.905 7.793,4.685 l 22.194,-1.466 c 1.461,-0.097 2.86,0.602 3.661,1.827 0.801,1.225 0.88,2.786 0.207,4.085 l -10.237,19.747 c -1.532,2.956 -1.065,6.551 1.171,9.018 2.236,2.466 5.768,3.283 8.859,2.048 l 20.655,-8.253 c 1.36,-0.543 2.906,-0.312 4.046,0.605 1.141,0.917 1.698,2.378 1.46,3.822 l -3.633,21.944 c -0.544,3.284 1.012,6.56 3.9,8.215 2.888,1.654 6.501,1.34 9.059,-0.79 l 17.093,-14.232 c 1.125,-0.936 2.667,-1.194 4.035,-0.674 1.368,0.52 2.35,1.737 2.569,3.184 l 3.326,21.992 c 0.498,3.291 2.989,5.926 6.247,6.608 3.258,0.682 6.597,-0.734 8.372,-3.551 l 11.859,-18.817 c 0.781,-1.237 2.167,-1.959 3.63,-1.888 1.463,0.071 2.771,0.925 3.427,2.235 l 9.959,19.889 c 1.491,2.977 4.674,4.713 7.983,4.353 3.309,-0.359 6.047,-2.737 6.864,-5.964 l 5.464,-21.562 c 0.36,-1.418 1.456,-2.534 2.868,-2.917 1.413,-0.384 2.922,0.023 3.95,1.066 l 15.617,15.837 c 2.337,2.37 5.901,3.038 8.938,1.674 3.037,-1.364 4.905,-4.472 4.685,-7.793 l -1.466,-22.194 c -0.097,-1.461 0.602,-2.86 1.826,-3.661 1.225,-0.801 2.787,-0.88 4.086,-0.207 l 19.747,10.237 c 2.956,1.532 6.551,1.065 9.018,-1.171 2.466,-2.236 3.283,-5.768 2.048,-8.86 l -8.253,-20.654 c -0.543,-1.36 -0.312,-2.906 0.605,-4.046 0.917,-1.141 2.378,-1.698 3.822,-1.46 l 21.944,3.633 c 3.284,0.543 6.56,-1.012 8.215,-3.9 1.655,-2.888 1.34,-6.501 -0.79,-9.058 l -14.232,-17.094 c -0.936,-1.125 -1.194,-2.667 -0.674,-4.035 0.52,-1.368 1.737,-2.35 3.184,-2.569 l 21.992,-3.326 c 3.291,-0.499 5.926,-2.989 6.608,-6.248 0.682,-3.259 -0.735,-6.59 -3.552,-8.365 z m -138.891,-2.684 c -10.257,-0.425 -18.225,-9.085 -17.799,-19.341 0.425,-10.255 9.085,-18.225 19.341,-17.798 10.257,0.424 18.225,9.085 17.799,19.34 -0.426,10.256 -9.085,18.226 -19.341,17.799 z"
   id="path3" />
	<path
   style="fill:#797882"
   d="m 157.096,90.139 c -41.918,0 -75.9,33.982 -75.9,75.9 0,41.918 33.982,75.9 75.9,75.9 41.918,0 75.9,-33.982 75.9,-75.9 0,-41.918 -33.982,-75.9 -75.9,-75.9 z m 0,97.486 c -11.921,0 -21.586,-9.664 -21.586,-21.586 0,-11.922 9.664,-21.586 21.586,-21.586 11.922,0 21.586,9.664 21.586,21.586 0,11.922 -9.665,21.586 -21.586,21.586 z"
   id="path4" />
</g><g
   id="g7"
   transform="matrix(0.02929677,0,0,0.0303573,23.339354,8.5732594)">
	<path
   style="fill:#3e3e42"
   d="m 371.024,289.993 c -38.179,-1.636 -70.455,27.988 -72.091,66.166 -1.636,38.178 27.987,70.455 66.166,72.091 38.178,1.636 70.455,-27.987 72.091,-66.166 1.636,-38.179 -27.988,-70.454 -66.166,-72.091 z m -3.758,87.698 c -10.255,-0.44 -18.213,-9.109 -17.774,-19.365 0.44,-10.255 9.109,-18.213 19.365,-17.773 10.255,0.439 18.213,9.109 17.773,19.365 -0.439,10.255 -9.108,18.212 -19.364,17.773 z"
   id="path5" />
	<path
   style="fill:#3e3e42"
   d="m 178.682,166.039 c 0,11.921 -9.664,21.586 -21.586,21.586 v 54.314 c 41.918,0 75.9,-33.982 75.9,-75.9 0,-41.919 -33.982,-75.9 -75.9,-75.9 v 54.314 c 11.921,0 21.586,9.665 21.586,21.586 z"
   id="path6" />
	<path
   style="fill:#3e3e42"
   d="m 487.712,361.459 19.889,-9.959 c 2.977,-1.491 4.713,-4.674 4.354,-7.984 -0.359,-3.309 -2.737,-6.046 -5.964,-6.864 l -21.56,-5.464 c -1.418,-0.359 -2.534,-1.456 -2.917,-2.869 -0.383,-1.412 0.024,-2.921 1.066,-3.95 l 15.838,-15.617 c 2.37,-2.338 3.038,-5.901 1.674,-8.938 -1.364,-3.037 -4.472,-4.905 -7.793,-4.686 l -22.194,1.466 c -1.461,0.096 -2.86,-0.602 -3.661,-1.827 -0.801,-1.225 -0.88,-2.787 -0.207,-4.086 l 10.237,-19.747 c 1.532,-2.956 1.065,-6.551 -1.171,-9.018 -2.236,-2.466 -5.768,-3.283 -8.859,-2.048 l -20.655,8.253 c -1.36,0.543 -2.906,0.311 -4.046,-0.605 -1.141,-0.917 -1.698,-2.378 -1.46,-3.822 l 3.633,-21.944 c 0.544,-3.284 -1.012,-6.56 -3.9,-8.215 -2.888,-1.655 -6.501,-1.341 -9.059,0.79 l -17.093,14.232 c -1.125,0.936 -2.667,1.194 -4.035,0.673 -1.368,-0.52 -2.35,-1.736 -2.569,-3.183 l -3.326,-21.993 c -0.498,-3.291 -2.989,-5.926 -6.247,-6.608 -3.258,-0.682 -6.597,0.734 -8.372,3.551 l -11.859,18.817 c -0.781,1.238 -2.167,1.959 -3.63,1.888 -1.462,-0.071 -2.771,-0.925 -3.427,-2.235 l -2.338,-4.668 v 105.756 c 0.258,0 0.511,-0.018 0.771,-0.007 10.257,0.424 18.225,9.085 17.799,19.34 -0.414,9.997 -8.657,17.797 -18.57,17.793 v 105.756 l 7.621,15.22 c 1.491,2.977 4.674,4.713 7.983,4.353 3.309,-0.359 6.047,-2.737 6.864,-5.964 l 5.464,-21.562 c 0.36,-1.418 1.456,-2.534 2.868,-2.917 1.413,-0.384 2.922,0.023 3.95,1.066 l 15.617,15.837 c 2.337,2.37 5.901,3.038 8.938,1.674 3.037,-1.364 4.905,-4.472 4.685,-7.793 l -1.466,-22.194 c -0.097,-1.461 0.602,-2.86 1.826,-3.661 1.225,-0.801 2.787,-0.88 4.086,-0.207 l 19.747,10.237 c 2.956,1.532 6.551,1.065 9.018,-1.171 2.466,-2.236 3.283,-5.768 2.048,-8.86 l -8.253,-20.654 c -0.543,-1.36 -0.312,-2.906 0.605,-4.046 0.917,-1.141 2.378,-1.698 3.822,-1.46 l 21.944,3.633 c 3.284,0.543 6.56,-1.012 8.215,-3.9 1.655,-2.888 1.34,-6.501 -0.79,-9.058 l -14.232,-17.094 c -0.936,-1.125 -1.194,-2.667 -0.674,-4.035 0.52,-1.368 1.737,-2.35 3.184,-2.569 l 21.992,-3.326 c 3.291,-0.499 5.926,-2.989 6.608,-6.248 0.682,-3.259 -0.734,-6.597 -3.551,-8.372 l -18.817,-11.859 c -1.238,-0.78 -1.959,-2.167 -1.888,-3.63 0.074,-1.452 0.928,-2.763 2.237,-3.418 z"
   id="path7" />
</g><path
   style="fill:#2d2e30;stroke-width:0.0298223"
   d="m 34.209158,17.376664 c -0.02906,-0.0013 -0.05795,-0.0016 -0.08678,-0.0016 v 1.536626 c 0.0078,0 0.01547,-5.4e-4 0.02329,-1.88e-4 0.300438,0.01333 0.533582,0.276525 0.52072,0.587869 -0.01254,0.303208 -0.253915,0.539511 -0.544011,0.539359 v 1.536594 c 1.080201,8.1e-4 1.978557,-0.881332 2.025257,-2.010169 0.0479,-1.159042 -0.819988,-2.138824 -1.93848,-2.188518 z"
   id="path8" /><path
   style="fill:#803300;stroke-width:0.0630351"
   d="m 10.180505,39.542543 v -5.186697 l 4.997342,-0.01564 4.997341,-0.01564 0.01714,-2.090086 0.01714,-2.090087 h 10.774314 10.774315 l 0.01714,2.090087 0.01714,2.090086 4.085774,0.01571 4.085774,0.01571 v 5.186617 5.186618 H 30.072202 10.180505 Z"
   id="path50" /><path
   style="fill:#666666;stroke-width:0.0722022"
   d=""
   id="path52" /><path
   style="fill:#502d16;stroke-width:0.0659888"
   d="m 49.963899,39.530686 v -5.126354 h 1.516245 1.516246 v 5.126354 5.126354 h -1.516246 -1.516245 z"
   id="path57" /><path
   style="fill:#502d16;stroke-width:0.0662207"
   d="m 7.0036101,39.566787 v -5.162455 h 1.5884477 1.5884472 v 5.162455 5.162455 H 8.5920578 7.0036101 Z"
   id="path58" /><rect
   style="fill:#666666"
   id="rect58"
   width="31.696751"
   height="6.1371841"
   x="15.01805"
   y="23.826715" /><rect
   style="fill:#999999;stroke-width:0.97534"
   id="rect59"
   width="0.86642599"
   height="23.971119"
   x="50.036102"
   y="6.0649815" /><rect
   style="fill:#999999;stroke-width:0.979619"
   id="rect60"
   width="0.79422385"
   height="24.043322"
   x="9.2418776"
   y="5.9927797" /><path
   style="fill:#803300;stroke-width:0.0690972"
   d="m 10.180505,40.00125 v -4.72799 h 2.623593 c 1.442976,0 3.701099,-0.01969 5.018051,-0.04376 l 2.394457,-0.04376 v -1.906949 -1.906953 h 10.758123 10.758123 v 1.907022 1.907023 l 1.961189,0.04368 c 1.078654,0.02403 2.930639,0.04368 4.115524,0.04368 h 2.154334 v 4.72799 4.727991 H 30.072202 10.180505 Z"
   id="path60" /><rect
   style="fill:#999999"
   id="rect61"
   width="41.227436"
   height="0.50541514"
   x="9.386282"
   y="6.0649819" /><g
   id="g2"
   transform="matrix(0.19325175,0,0,0.20832053,19.788412,17.46701)"><path
     class="st7"
     d="m 21.04,20.63 c 0,0 -1.79,8.99 -0.96,11.47 0,0 1.1,-13.6 11.67,-24.1 0,0 -0.34,8.79 5.15,13.25 5.49,4.46 6.73,11.4 6.73,11.4 0,0 0.62,-4.74 -1.24,-12.33 0,0 11.67,12.12 6.32,25.65 0,0 -6.45,14.9 -24.92,8.38 C 5.32,47.83 17.74,22.97 21.04,20.63 Z"
     id="path1-2"
     style="fill:#f6af62" /><path
     class="st4"
     d="m 40.75,32.12 c 0.17,3.81 -1.55,4.81 -2.94,5.01 -0.89,0.13 -1.79,-0.1 -2.57,-0.53 -7.65,-4.15 -3.72,-14.29 -3.72,-14.29 -5.01,4.79 -2.4,14.74 -2.4,14.74 0,0 1.55,5.64 -1.62,6.13 -1.59,0.25 -2.33,-0.39 -2.67,-1.08 -0.31,-0.64 -0.31,-1.39 -0.04,-2.05 2.15,-5.34 0.31,-8.36 0.31,-8.36 -1.03,3.06 -2.12,5.08 -2.91,6.29 -1.12,1.72 -1.83,3.68 -1.93,5.73 C 19.9,51.35 26.3,54.4 26.3,54.4 36.81,59.76 41.53,49.96 41.53,49.96 46.96,39.52 40.75,32.12 40.75,32.12 Z"
     id="path2-9"
     style="fill:#fbd872" /></g><path
   style="fill:#0044aa;stroke-width:0.0770156"
   d="m 27.24787,28.655699 c 0.6522,-0.601177 1.118453,-1.920103 1.01404,-2.868496 -0.101374,-0.920801 -0.657393,-2.081275 -0.657393,-1.372054 0,0.335806 -0.146008,0.597738 -0.389391,0.698551 -0.421377,0.17454 -0.954166,-0.16528 -1.269431,-0.809659 -0.192775,-0.394017 -0.204935,-0.477308 -0.171565,-1.175129 0.01975,-0.41308 0.06149,-0.820368 0.09275,-0.905085 0.04363,-0.118254 0.01085,-0.104208 -0.141111,0.06047 -0.403432,0.437179 -0.569316,1.740723 -0.358719,2.818873 0.113431,0.580711 0.101015,0.947143 -0.03886,1.146841 -0.139691,0.199436 -0.504491,0.231291 -0.649385,0.0567 -0.09712,-0.117024 -0.08997,-0.221489 0.07651,-1.117788 0.07314,-0.393764 0.07273,-0.574566 -0.0019,-0.847172 -0.09142,-0.333857 -0.09778,-0.339507 -0.173197,-0.154031 -0.04306,0.105896 -0.252945,0.571162 -0.466412,1.033924 -0.432257,0.937063 -0.516444,1.416464 -0.366446,2.086725 0.113133,0.505533 0.473313,1.06054 0.886156,1.365494 0.303536,0.224213 0.306295,0.230112 0.08293,0.177374 -0.707865,-0.167133 -1.526558,-0.801405 -1.844313,-1.42886 -0.588237,-1.161559 -0.411262,-2.971627 0.465599,-4.762054 0.1936,-0.395303 0.370083,-0.700649 0.392186,-0.678546 0.0221,0.0221 0.0019,0.32505 -0.04501,0.673217 -0.101446,0.753806 -0.11067,1.624763 -0.01542,1.45571 0.0358,-0.06354 0.08991,-0.288809 0.120237,-0.500602 0.156423,-1.092297 0.911459,-2.827597 1.675491,-3.850782 l 0.402563,-0.539109 0.05388,0.470715 c 0.119933,1.047835 0.342445,1.538581 1.039118,2.29176 0.502912,0.543703 1.055619,1.512419 1.150018,2.015607 0.0697,0.37151 0.187003,0.333168 0.186242,-0.06087 -7e-4,-0.362307 -0.134494,-1.625987 -0.197738,-1.86763 -0.08414,-0.321477 0.35584,0.311556 0.695871,1.001204 0.939955,1.906409 0.835319,3.687298 -0.289807,4.932474 -0.361455,0.400022 -1.015414,0.835469 -1.392265,0.927058 -0.208955,0.05078 -0.201106,0.03478 0.134783,-0.274832 z"
   id="path3-8" /><path
   style="fill:#0066ff;stroke-width:0.0770156"
   d="m 25.470108,29.009329 c -0.496983,-0.161954 -0.976317,-0.471187 -1.214573,-0.783557 -0.523464,-0.686296 -0.648822,-1.646918 -0.315898,-2.420718 0.614806,-1.42896 0.718421,-1.624518 0.766216,-1.44612 0.07921,0.295661 0.05463,0.710207 -0.0656,1.106563 -0.15247,0.502604 -0.145746,0.751181 0.02448,0.905238 0.212291,0.192121 0.515984,0.159415 0.700741,-0.07547 0.191427,-0.243362 0.194738,-0.364039 0.0391,-1.425346 -0.136713,-0.932236 -0.07915,-1.651507 0.178495,-2.230345 l 0.150773,-0.338737 -0.03625,0.693141 c -0.02053,0.392538 9.1e-4,0.829945 0.04943,1.008588 0.20842,0.767331 0.986139,1.387781 1.482062,1.182363 0.24376,-0.100969 0.370629,-0.282279 0.455272,-0.650638 l 0.05309,-0.231047 0.166487,0.361983 c 0.444675,0.966831 0.377677,2.210305 -0.17687,3.28268 -0.461479,0.892403 -1.408667,1.337853 -2.256955,1.061417 z"
   id="path4-0" /><path
   style="fill:#666666;stroke-width:0.0722022"
   d="m 9.6209386,30.091048 0.4151624,-0.02605 V 18.335747 6.6064982 h 20 20 V 18.335905 30.065312 l 0.451264,0.02563 c 0.248195,0.0141 -0.921481,0.0319 -2.599278,0.03955 -2.669641,0.01217 -3.050542,3.9e-4 -3.050542,-0.09439 0,-0.0959 -1.600481,-0.108303 -13.971119,-0.108303 -12.370638,0 -13.971119,0.01241 -13.971119,0.108303 0,0.09509 -0.469264,0.106637 -3.844765,0.09465 -2.114621,-0.0075 -3.6579427,-0.02538 -3.4296034,-0.0397 z m 17.8931744,-1.26002 c 1.792925,-0.886112 2.434164,-2.852847 1.661255,-5.095208 -0.247947,-0.719343 -1.084886,-2.147915 -1.190022,-2.031247 -0.01402,0.01555 0.01563,0.271961 0.06588,0.569795 0.05025,0.297834 0.111638,0.81769 0.136423,1.155235 l 0.04507,0.613718 -0.137622,-0.37272 c -0.24664,-0.667974 -0.580461,-1.206613 -1.056742,-1.705123 -0.257166,-0.269168 -0.549119,-0.650315 -0.648783,-0.846993 -0.226796,-0.447562 -0.394323,-1.145227 -0.395716,-1.647967 -5.87e-4,-0.211794 -0.03163,-0.374249 -0.06898,-0.361011 -0.124024,0.04395 -0.791153,0.924905 -1.097051,1.448675 -0.385569,0.660186 -0.755616,1.576778 -0.96978,2.402107 -0.196748,0.758211 -0.230634,0.526452 -0.0739,-0.505415 0.05429,-0.357401 0.08328,-0.666065 0.06443,-0.685921 -0.113893,-0.119955 -0.710275,0.981441 -1.002014,1.850516 -0.825338,2.458639 -0.354052,4.317215 1.288953,5.083145 0.743731,0.346712 1.160047,0.430684 2.041662,0.411813 0.758006,-0.01623 0.825169,-0.03046 1.336951,-0.283399 z m 7.244224,-5.130667 c 0.05755,-0.08935 0.126959,-0.284655 0.154254,-0.434011 0.0273,-0.149355 0.07316,-0.286096 0.101912,-0.303868 0.02876,-0.01777 0.177875,0.0963 0.331377,0.253505 0.475324,0.486775 0.756433,0.330526 0.662694,-0.368349 -0.02098,-0.156438 -0.01,-0.30185 0.02447,-0.323136 0.03444,-0.02129 0.219376,0.04073 0.410965,0.137815 0.25302,0.128215 0.382185,0.157578 0.472021,0.107303 0.153998,-0.08618 0.155579,-0.231502 0.0073,-0.666808 -0.06403,-0.187927 -0.09986,-0.358248 -0.07962,-0.378491 0.02024,-0.02024 0.199366,-0.0073 0.398051,0.02885 0.617395,0.112215 0.777043,-0.15823 0.372673,-0.631312 -0.11752,-0.137489 -0.213672,-0.288966 -0.213672,-0.336614 0,-0.04765 0.138087,-0.108108 0.306859,-0.134355 0.514192,-0.07997 0.559576,-0.105342 0.559438,-0.312797 -1.01e-4,-0.151214 -0.07204,-0.239125 -0.328054,-0.400865 -0.180359,-0.113947 -0.31591,-0.243218 -0.301226,-0.287269 0.01468,-0.04405 0.170394,-0.164134 0.346022,-0.266851 0.490513,-0.286874 0.46131,-0.591697 -0.06521,-0.680651 -0.487757,-0.08241 -0.506291,-0.136748 -0.170778,-0.500736 0.464127,-0.503519 0.38512,-0.692698 -0.289293,-0.692698 -0.241743,0 -0.418773,-0.03174 -0.418773,-0.07508 0,-0.04129 0.06498,-0.202454 0.144405,-0.358135 0.297726,-0.583592 0.144173,-0.752663 -0.470093,-0.517596 -0.215544,0.08248 -0.406151,0.126912 -0.423569,0.09873 -0.01742,-0.02818 -2.49e-4,-0.224119 0.03816,-0.435412 0.11593,-0.63783 -0.112803,-0.76033 -0.629353,-0.337055 -0.169618,0.138989 -0.325306,0.252707 -0.345972,0.252707 -0.02067,0 -0.05854,-0.154332 -0.08417,-0.34296 -0.06588,-0.484932 -0.09803,-0.576908 -0.21771,-0.622833 -0.170295,-0.06535 -0.273847,0.009 -0.491428,0.352943 -0.112752,0.178223 -0.233964,0.324041 -0.26936,0.324041 -0.0354,0 -0.145512,-0.160155 -0.244705,-0.355901 -0.09919,-0.195745 -0.212786,-0.375948 -0.252431,-0.40045 -0.160164,-0.09899 -0.341431,0.10911 -0.435079,0.499478 -0.05295,0.220702 -0.116973,0.401278 -0.142282,0.401278 -0.02531,0 -0.172924,-0.129964 -0.328031,-0.288809 -0.459215,-0.470278 -0.740735,-0.345166 -0.656258,0.291651 0.02648,0.199593 0.02892,0.394 0.0054,0.432016 -0.02451,0.03966 -0.193945,-0.0075 -0.397512,-0.110667 -0.433998,-0.219923 -0.577648,-0.225946 -0.629828,-0.02641 -0.03734,0.14279 -0.04615,0.139052 -0.127599,-0.05415 -0.04812,-0.114141 -0.07304,-0.233203 -0.05538,-0.264581 0.01766,-0.03138 0.224098,-0.03533 0.458753,-0.0088 0.713094,0.08068 0.834291,-0.167285 0.350437,-0.716972 -0.161614,-0.183603 -0.275732,-0.363129 -0.253596,-0.398946 0.02214,-0.03582 0.19498,-0.08832 0.384096,-0.116681 0.485855,-0.07285 0.609586,-0.154055 0.582832,-0.382505 -0.01686,-0.143986 -0.115495,-0.245117 -0.400174,-0.410307 -0.207788,-0.120573 -0.377797,-0.251714 -0.377797,-0.291426 0,-0.03971 0.170009,-0.170852 0.377797,-0.291425 0.284679,-0.16519 0.383312,-0.266321 0.400174,-0.410307 0.0258,-0.220309 -0.09202,-0.304112 -0.52927,-0.376462 -0.502196,-0.0831 -0.520111,-0.131859 -0.18286,-0.497733 0.23286,-0.252623 0.297678,-0.375786 0.279803,-0.531665 -0.02323,-0.202626 -0.02391,-0.202865 -0.546729,-0.193019 -0.595154,0.01121 -0.61564,-0.01544 -0.374795,-0.487535 0.201048,-0.394086 0.165897,-0.670407 -0.08903,-0.699875 -0.106189,-0.01227 -0.324208,0.04458 -0.484488,0.126354 -0.446319,0.227695 -0.465251,0.212654 -0.407787,-0.323945 0.08082,-0.7546731 -0.116696,-0.8684565 -0.683609,-0.39381 -0.189723,0.1588448 -0.362506,0.2888087 -0.383963,0.2888087 -0.02146,0 -0.07733,-0.1868231 -0.124158,-0.4151625 -0.09958,-0.485558 -0.172488,-0.5956679 -0.394395,-0.5956679 -0.124055,0 -0.212188,0.094493 -0.370221,0.3969404 -0.114074,0.2183172 -0.239898,0.396904 -0.27961,0.3968595 -0.03971,-4.46e-5 -0.169335,-0.1801458 -0.288052,-0.4002251 -0.195305,-0.3620549 -0.23642,-0.3981133 -0.431931,-0.3788089 -0.197182,0.019469 -0.223401,0.054464 -0.299794,0.4001475 -0.146402,0.6624747 -0.139129,0.65781 -0.489515,0.3139319 -0.247338,-0.2427434 -0.356446,-0.3020796 -0.520921,-0.283294 -0.206416,0.023576 -0.208109,0.027741 -0.215028,0.529178 -0.0038,0.2779784 -0.01196,0.5279954 -0.01805,0.5555934 -0.0061,0.0276 -0.190704,-0.02926 -0.410247,-0.126354 -0.493265,-0.218144 -0.594898,-0.220115 -0.689103,-0.01336 -0.05863,0.128674 -0.03587,0.250181 0.107657,0.574713 0.109815,0.248313 0.153737,0.429009 0.110737,0.455584 -0.03919,0.02422 -0.249644,0.02176 -0.467665,-0.0055 -0.68175,-0.08518 -0.794533,0.172664 -0.314208,0.718342 0.163738,0.186016 0.275135,0.361168 0.247548,0.389226 -0.02759,0.02806 -0.250904,0.09975 -0.496262,0.159319 -0.397722,0.09656 -0.44853,0.129297 -0.46847,0.30188 -0.01912,0.165491 0.03587,0.230833 0.379061,0.450367 0.220785,0.141234 0.400859,0.281561 0.400163,0.311838 -6.96e-4,0.03028 -0.171273,0.153699 -0.379061,0.274272 -0.28468,0.16519 -0.383313,0.266321 -0.400175,0.410306 -0.0258,0.220309 0.09202,0.304112 0.52927,0.376462 0.502197,0.0831 0.520111,0.131859 0.18286,0.497733 -0.232859,0.252623 -0.297677,0.375787 -0.279803,0.531666 0.02296,0.200271 0.02969,0.202916 0.523685,0.205945 0.305999,0.0019 0.511013,0.03485 0.527685,0.08486 0.015,0.04499 -0.04154,0.216651 -0.125627,0.38148 -0.204949,0.401733 -0.171803,0.678482 0.08481,0.708144 0.106188,0.01227 0.324208,-0.04459 0.484488,-0.126354 0.446318,-0.227694 0.46525,-0.212654 0.407786,0.323945 -0.08087,0.75512 0.124682,0.87211 0.691916,0.393811 0.188381,-0.158845 0.358468,-0.288809 0.377972,-0.288809 0.0195,0 0.05696,0.105596 0.08323,0.234657 0.144522,0.70991 0.177387,0.776173 0.384963,0.776173 0.164126,0 0.236545,-0.06554 0.412379,-0.373185 0.117311,-0.205252 0.248005,-0.384692 0.290432,-0.398758 0.04243,-0.01407 0.15472,0.140065 0.249539,0.342509 0.28918,0.61741 0.659695,0.642464 0.758891,0.05131 0.02841,-0.16929 0.08072,-0.38474 0.116261,-0.478776 0.06415,-0.169751 0.06717,-0.168587 0.421077,0.162454 0.392215,0.366871 0.419415,0.377334 0.612995,0.235785 0.115388,-0.08437 0.127478,-0.162554 0.08895,-0.575176 -0.02453,-0.262641 -0.02155,-0.491658 0.0066,-0.508926 0.02816,-0.01727 0.197417,0.04515 0.376117,0.1387 0.224431,0.117494 0.279136,0.171106 0.176896,0.17336 -0.173563,0.0038 -0.3213,0.133044 -0.3213,0.281025 0,0.05746 0.117353,0.247691 0.260784,0.42273 0.143431,0.175038 0.243002,0.336034 0.221269,0.357767 -0.02173,0.02173 -0.228436,0.07681 -0.45934,0.122397 -0.374072,0.07385 -0.422219,0.103528 -0.441793,0.272329 -0.01815,0.156562 0.03509,0.225497 0.30673,0.397112 0.180785,0.114215 0.328756,0.247731 0.328827,0.2967 7.2e-5,0.04897 -0.164333,0.172376 -0.365342,0.274235 -0.316989,0.16063 -0.362485,0.210694 -0.34296,0.377388 0.01909,0.163017 0.07939,0.209068 0.397249,0.303383 0.206107,0.06116 0.397681,0.134897 0.42572,0.163868 0.02804,0.02897 -0.08373,0.198822 -0.248385,0.377448 -0.164651,0.178625 -0.299366,0.354012 -0.299366,0.389748 0,0.157411 0.244518,0.250642 0.617757,0.235543 0.454173,-0.01837 0.48259,0.03841 0.248669,0.496932 -0.281405,0.5516 -0.116782,0.717223 0.484271,0.487213 0.211787,-0.08105 0.402736,-0.129688 0.424331,-0.108094 0.02159,0.02159 0.0077,0.212837 -0.03084,0.424981 -0.122326,0.67302 0.08888,0.812624 0.585854,0.387236 0.346536,-0.296622 0.400561,-0.307668 0.44143,-0.09025 0.132099,0.702748 0.148904,0.740073 0.333225,0.740073 0.136587,0 0.233207,-0.08312 0.397111,-0.341631 0.119134,-0.187897 0.240315,-0.342229 0.269291,-0.342961 0.02898,-7.3e-4 0.122258,0.136758 0.207294,0.30553 0.27321,0.542253 0.411272,0.617085 0.599442,0.32491 z"
   id="path61" /></svg>
